<?xml version="1.0" encoding="UTF-8" standalone="no"?>
<!DOCTYPE svg PUBLIC "-//W3C//DTD SVG 1.1//EN"
 "http://www.w3.org/Graphics/SVG/1.1/DTD/svg11.dtd">
<!-- Generated by graphviz version 14.1.2 (20260124.0452)
 -->
<!-- Title: backlog Pages: 1 -->
<svg width="10653pt" height="383pt"
 viewBox="0.00 0.00 10653.00 383.00" xmlns="http://www.w3.org/2000/svg" xmlns:xlink="http://www.w3.org/1999/xlink">
<g id="graph0" class="graph" transform="scale(1 1) rotate(0) translate(4 379)">
<title>backlog</title>
<polygon fill="white" stroke="none" points="-4,4 -4,-379 10649,-379 10649,4 -4,4"/>
<text xml:space="preserve" text-anchor="middle" x="5322.5" y="-359.6" font-family="Helvetica,sans-Serif" font-size="12.00">Active backlog graph generated from docs/method/backlog/*/*.md</text>
<g id="clust1" class="cluster">
<title>cluster_v0_7_0</title>
<path fill="#fafafa" stroke="#cccccc" d="M20,-140.4C20,-140.4 880,-140.4 880,-140.4 886,-140.4 892,-146.4 892,-152.4 892,-152.4 892,-334.25 892,-334.25 892,-340.25 886,-346.25 880,-346.25 880,-346.25 20,-346.25 20,-346.25 14,-346.25 8,-340.25 8,-334.25 8,-334.25 8,-152.4 8,-152.4 8,-146.4 14,-140.4 20,-140.4"/>
<text xml:space="preserve" text-anchor="middle" x="37" y="-333.7" font-family="Helvetica,sans-Serif" font-size="9.00" fill="#555555">v0.7.0 (11)</text>
</g>
<g id="clust2" class="cluster">
<title>cluster_cool_ideas</title>
<path fill="#fafafa" stroke="#cccccc" d="M1116,-140.4C1116,-140.4 10237,-140.4 10237,-140.4 10243,-140.4 10249,-146.4 10249,-152.4 10249,-152.4 10249,-334.25 10249,-334.25 10249,-340.25 10243,-346.25 10237,-346.25 10237,-346.25 1116,-346.25 1116,-346.25 1110,-346.25 1104,-340.25 1104,-334.25 1104,-334.25 1104,-152.4 1104,-152.4 1104,-146.4 1110,-140.4 1116,-140.4"/>
<text xml:space="preserve" text-anchor="middle" x="1143.5" y="-333.7" font-family="Helvetica,sans-Serif" font-size="9.00" fill="#555555">Cool Ideas (73)</text>
</g>
<g id="clust3" class="cluster">
<title>cluster_external</title>
<path fill="#f8fbff" stroke="#cccccc" d="M912,-287.3C912,-287.3 1084,-287.3 1084,-287.3 1090,-287.3 1096,-293.3 1096,-299.3 1096,-299.3 1096,-334.25 1096,-334.25 1096,-340.25 1090,-346.25 1084,-346.25 1084,-346.25 912,-346.25 912,-346.25 906,-346.25 900,-340.25 900,-334.25 900,-334.25 900,-299.3 900,-299.3 900,-293.3 906,-287.3 912,-287.3"/>
<text xml:space="preserve" text-anchor="middle" x="943.25" y="-333.7" font-family="Helvetica,sans-Serif" font-size="9.00" fill="#555555">External blockers</text>
</g>
<g id="clust4" class="cluster">
<title>cluster_unresolved</title>
<path fill="#fff7f7" stroke="#cc3333" stroke-dasharray="5,2" d="M10269,-287.3C10269,-287.3 10501,-287.3 10501,-287.3 10507,-287.3 10513,-293.3 10513,-299.3 10513,-299.3 10513,-334.25 10513,-334.25 10513,-340.25 10507,-346.25 10501,-346.25 10501,-346.25 10269,-346.25 10269,-346.25 10263,-346.25 10257,-340.25 10257,-334.25 10257,-334.25 10257,-299.3 10257,-299.3 10257,-293.3 10263,-287.3 10269,-287.3"/>
<text xml:space="preserve" text-anchor="middle" x="10313.75" y="-333.7" font-family="Helvetica,sans-Serif" font-size="9.00" fill="#555555">Unresolved internal refs</text>
</g>
<g id="clust5" class="cluster">
<title>cluster_legend</title>
<path fill="none" stroke="#dddddd" d="M10533,-8C10533,-8 10625,-8 10625,-8 10631,-8 10637,-14 10637,-20 10637,-20 10637,-333.5 10637,-333.5 10637,-339.5 10631,-345.5 10625,-345.5 10625,-345.5 10533,-345.5 10533,-345.5 10527,-345.5 10521,-339.5 10521,-333.5 10521,-333.5 10521,-20 10521,-20 10521,-14 10527,-8 10533,-8"/>
<text xml:space="preserve" text-anchor="middle" x="10542.5" y="-333.9" font-family="Helvetica,sans-Serif" font-size="8.00" fill="#aaaaaa">Legend</text>
</g>
<!-- v0_7_0_CORE_agent_drift_warning -->
<g id="node1" class="node">
<title>v0_7_0_CORE_agent_drift_warning</title>
<path fill="#ffa07a" stroke="black" stroke-width="2" d="M584.05,-247.05C584.05,-247.05 491.95,-247.05 491.95,-247.05 487.75,-247.05 483.55,-242.85 483.55,-238.65 483.55,-238.65 483.55,-230.25 483.55,-230.25 483.55,-226.05 487.75,-221.85 491.95,-221.85 491.95,-221.85 584.05,-221.85 584.05,-221.85 588.25,-221.85 592.45,-226.05 592.45,-230.25 592.45,-230.25 592.45,-238.65 592.45,-238.65 592.45,-242.85 588.25,-247.05 584.05,-247.05"/>
<text xml:space="preserve" text-anchor="middle" x="538" y="-231.35" font-family="Helvetica,sans-Serif" font-size="8.00">CORE&#45;agent&#45;drift&#45;warning</text>
</g>
<!-- v0_7_0_CORE_daemon_aware_stdio_bridge_for_mcp_clients -->
<g id="node2" class="node">
<title>v0_7_0_CORE_daemon_aware_stdio_bridge_for_mcp_clients</title>
<path fill="#ffa07a" stroke="black" stroke-width="2" d="M203.55,-320.5C203.55,-320.5 24.45,-320.5 24.45,-320.5 20.25,-320.5 16.05,-316.3 16.05,-312.1 16.05,-312.1 16.05,-303.7 16.05,-303.7 16.05,-299.5 20.25,-295.3 24.45,-295.3 24.45,-295.3 203.55,-295.3 203.55,-295.3 207.75,-295.3 211.95,-299.5 211.95,-303.7 211.95,-303.7 211.95,-312.1 211.95,-312.1 211.95,-316.3 207.75,-320.5 203.55,-320.5"/>
<text xml:space="preserve" text-anchor="middle" x="114" y="-304.8" font-family="Helvetica,sans-Serif" font-size="8.00">CORE&#45;daemon&#45;aware&#45;stdio&#45;bridge&#45;for&#45;mcp&#45;clients</text>
</g>
<!-- v0_7_0_CORE_opt_in_daemon_mode_mcp_bootstrap -->
<g id="node6" class="node">
<title>v0_7_0_CORE_opt_in_daemon_mode_mcp_bootstrap</title>
<path fill="#ffa07a" stroke="black" stroke-width="2" d="M191.17,-247.05C191.17,-247.05 36.83,-247.05 36.83,-247.05 32.63,-247.05 28.42,-242.85 28.42,-238.65 28.42,-238.65 28.42,-230.25 28.42,-230.25 28.42,-226.05 32.62,-221.85 36.82,-221.85 36.82,-221.85 191.17,-221.85 191.17,-221.85 195.37,-221.85 199.57,-226.05 199.57,-230.25 199.57,-230.25 199.57,-238.65 199.57,-238.65 199.57,-242.85 195.38,-247.05 191.17,-247.05"/>
<text xml:space="preserve" text-anchor="middle" x="114" y="-231.35" font-family="Helvetica,sans-Serif" font-size="8.00">CORE&#45;opt&#45;in&#45;daemon&#45;mode&#45;mcp&#45;bootstrap</text>
</g>
<!-- v0_7_0_CORE_daemon_aware_stdio_bridge_for_mcp_clients&#45;&gt;v0_7_0_CORE_opt_in_daemon_mode_mcp_bootstrap -->
<g id="edge16" class="edge">
<title>v0_7_0_CORE_daemon_aware_stdio_bridge_for_mcp_clients&#45;&gt;v0_7_0_CORE_opt_in_daemon_mode_mcp_bootstrap</title>
<path fill="none" stroke="#666666" d="M114,-294.45C114,-283.29 114,-266.74 114,-254.01"/>
<polygon fill="#666666" stroke="#666666" points="115.75,-254.27 114,-249.27 112.25,-254.27 115.75,-254.27"/>
<text xml:space="preserve" text-anchor="middle" x="145.5" y="-268.65" font-family="Helvetica,sans-Serif" font-size="7.00">blocked_by/blocking</text>
</g>
<!-- v0_7_0_CORE_git_graft_enhance -->
<g id="node3" class="node">
<title>v0_7_0_CORE_git_graft_enhance</title>
<path fill="#ffa07a" stroke="black" stroke-width="2" d="M460.68,-247.05C460.68,-247.05 375.32,-247.05 375.32,-247.05 371.12,-247.05 366.93,-242.85 366.93,-238.65 366.93,-238.65 366.93,-230.25 366.93,-230.25 366.93,-226.05 371.12,-221.85 375.32,-221.85 375.32,-221.85 460.68,-221.85 460.68,-221.85 464.88,-221.85 469.07,-226.05 469.07,-230.25 469.07,-230.25 469.07,-238.65 469.07,-238.65 469.07,-242.85 464.88,-247.05 460.68,-247.05"/>
<text xml:space="preserve" text-anchor="middle" x="418" y="-231.35" font-family="Helvetica,sans-Serif" font-size="8.00">CORE&#45;git&#45;graft&#45;enhance</text>
</g>
<!-- v0_7_0_CORE_migrate_path_ops_to_port -->
<g id="node4" class="node">
<title>v0_7_0_CORE_migrate_path_ops_to_port</title>
<path fill="#ffa07a" stroke="black" stroke-width="2" d="M347.17,-320.5C347.17,-320.5 234.83,-320.5 234.83,-320.5 230.63,-320.5 226.43,-316.3 226.43,-312.1 226.43,-312.1 226.43,-303.7 226.43,-303.7 226.43,-299.5 230.63,-295.3 234.83,-295.3 234.83,-295.3 347.17,-295.3 347.17,-295.3 351.38,-295.3 355.57,-299.5 355.57,-303.7 355.57,-303.7 355.57,-312.1 355.57,-312.1 355.57,-316.3 351.38,-320.5 347.17,-320.5"/>
<text xml:space="preserve" text-anchor="middle" x="291" y="-304.8" font-family="Helvetica,sans-Serif" font-size="8.00">CORE&#45;migrate&#45;path&#45;ops&#45;to&#45;port</text>
</g>
<!-- v0_7_0_CORE_migrate_to_slice_first_reads -->
<g id="node5" class="node">
<title>v0_7_0_CORE_migrate_to_slice_first_reads</title>
<path fill="#ffa07a" stroke="black" stroke-width="2" d="M875.8,-247.05C875.8,-247.05 758.2,-247.05 758.2,-247.05 754,-247.05 749.8,-242.85 749.8,-238.65 749.8,-238.65 749.8,-230.25 749.8,-230.25 749.8,-226.05 754,-221.85 758.2,-221.85 758.2,-221.85 875.8,-221.85 875.8,-221.85 880,-221.85 884.2,-226.05 884.2,-230.25 884.2,-230.25 884.2,-238.65 884.2,-238.65 884.2,-242.85 880,-247.05 875.8,-247.05"/>
<text xml:space="preserve" text-anchor="middle" x="817" y="-231.35" font-family="Helvetica,sans-Serif" font-size="8.00">CORE&#45;migrate&#45;to&#45;slice&#45;first&#45;reads</text>
</g>
<!-- v0_7_0_SURFACE_bijou_tui_for_graft_daemon_control_plane -->
<g id="node9" class="node">
<title>v0_7_0_SURFACE_bijou_tui_for_graft_daemon_control_plane</title>
<path fill="#ffa07a" stroke="black" stroke-width="2" d="M205.3,-173.6C205.3,-173.6 24.7,-173.6 24.7,-173.6 20.5,-173.6 16.3,-169.4 16.3,-165.2 16.3,-165.2 16.3,-156.8 16.3,-156.8 16.3,-152.6 20.5,-148.4 24.7,-148.4 24.7,-148.4 205.3,-148.4 205.3,-148.4 209.5,-148.4 213.7,-152.6 213.7,-156.8 213.7,-156.8 213.7,-165.2 213.7,-165.2 213.7,-169.4 209.5,-173.6 205.3,-173.6"/>
<text xml:space="preserve" text-anchor="middle" x="115" y="-157.9" font-family="Helvetica,sans-Serif" font-size="8.00">SURFACE&#45;bijou&#45;tui&#45;for&#45;graft&#45;daemon&#45;control&#45;plane</text>
</g>
<!-- v0_7_0_CORE_opt_in_daemon_mode_mcp_bootstrap&#45;&gt;v0_7_0_SURFACE_bijou_tui_for_graft_daemon_control_plane -->
<g id="edge17" class="edge">
<title>v0_7_0_CORE_opt_in_daemon_mode_mcp_bootstrap&#45;&gt;v0_7_0_SURFACE_bijou_tui_for_graft_daemon_control_plane</title>
<path fill="none" stroke="#666666" d="M114.17,-221C114.33,-209.84 114.56,-193.29 114.74,-180.56"/>
<polygon fill="#666666" stroke="#666666" points="116.49,-180.84 114.81,-175.82 112.99,-180.79 116.49,-180.84"/>
<text xml:space="preserve" text-anchor="middle" x="146.03" y="-195.2" font-family="Helvetica,sans-Serif" font-size="7.00">blocked_by/blocking</text>
</g>
<!-- v0_7_0_CORE_rewrite_structural_blame_to_use_warp_worldline_provenance -->
<g id="node7" class="node">
<title>v0_7_0_CORE_rewrite_structural_blame_to_use_warp_worldline_provenance</title>
<path fill="#ffa07a" stroke="black" stroke-width="2" d="M613.68,-320.5C613.68,-320.5 378.32,-320.5 378.32,-320.5 374.12,-320.5 369.92,-316.3 369.92,-312.1 369.92,-312.1 369.92,-303.7 369.92,-303.7 369.92,-299.5 374.12,-295.3 378.32,-295.3 378.32,-295.3 613.68,-295.3 613.68,-295.3 617.88,-295.3 622.08,-299.5 622.08,-303.7 622.08,-303.7 622.08,-312.1 622.08,-312.1 622.08,-316.3 617.88,-320.5 613.68,-320.5"/>
<text xml:space="preserve" text-anchor="middle" x="496" y="-304.8" font-family="Helvetica,sans-Serif" font-size="8.00">CORE&#45;rewrite&#45;structural&#45;blame&#45;to&#45;use&#45;warp&#45;worldline&#45;provenance</text>
</g>
<!-- v0_7_0_CORE_rewrite_structural_blame_to_use_warp_worldline_provenance&#45;&gt;v0_7_0_CORE_git_graft_enhance -->
<g id="edge18" class="edge">
<title>v0_7_0_CORE_rewrite_structural_blame_to_use_warp_worldline_provenance&#45;&gt;v0_7_0_CORE_git_graft_enhance</title>
<path fill="none" stroke="#666666" d="M482.41,-294.45C469.63,-282.74 450.39,-265.12 436.27,-252.19"/>
<polygon fill="#666666" stroke="#666666" points="437.68,-251.1 432.81,-249.02 435.31,-253.68 437.68,-251.1"/>
<text xml:space="preserve" text-anchor="middle" x="490.84" y="-268.65" font-family="Helvetica,sans-Serif" font-size="7.00">blocked_by/blocking</text>
</g>
<!-- v0_7_0_SURFACE_agent_dx_governed_edit -->
<g id="node8" class="node">
<title>v0_7_0_SURFACE_agent_dx_governed_edit</title>
<path fill="#ffa07a" stroke="black" stroke-width="2" d="M767.43,-320.5C767.43,-320.5 644.57,-320.5 644.57,-320.5 640.38,-320.5 636.17,-316.3 636.17,-312.1 636.17,-312.1 636.17,-303.7 636.17,-303.7 636.17,-299.5 640.38,-295.3 644.57,-295.3 644.57,-295.3 767.43,-295.3 767.43,-295.3 771.62,-295.3 775.83,-299.5 775.83,-303.7 775.83,-303.7 775.83,-312.1 775.83,-312.1 775.83,-316.3 771.62,-320.5 767.43,-320.5"/>
<text xml:space="preserve" text-anchor="middle" x="706" y="-304.8" font-family="Helvetica,sans-Serif" font-size="8.00">SURFACE&#45;agent&#45;dx&#45;governed&#45;edit</text>
</g>
<!-- v0_7_0_SURFACE_agent_dx_governed_edit&#45;&gt;v0_7_0_CORE_agent_drift_warning -->
<g id="edge19" class="edge">
<title>v0_7_0_SURFACE_agent_dx_governed_edit&#45;&gt;v0_7_0_CORE_agent_drift_warning</title>
<path fill="none" stroke="#666666" d="M670.15,-294.4C654.87,-288.86 636.94,-282.07 621,-275.3 603.18,-267.73 583.64,-258.4 568,-250.67"/>
<polygon fill="#666666" stroke="#666666" points="569.04,-249.23 563.78,-248.58 567.48,-252.37 569.04,-249.23"/>
<text xml:space="preserve" text-anchor="middle" x="652.5" y="-268.65" font-family="Helvetica,sans-Serif" font-size="7.00">blocked_by/blocking</text>
</g>
<!-- v0_7_0_SURFACE_governed_write_tools -->
<g id="node10" class="node">
<title>v0_7_0_SURFACE_governed_write_tools</title>
<path fill="#ffa07a" stroke="black" stroke-width="2" d="M727.18,-247.05C727.18,-247.05 614.82,-247.05 614.82,-247.05 610.62,-247.05 606.42,-242.85 606.42,-238.65 606.42,-238.65 606.42,-230.25 606.42,-230.25 606.42,-226.05 610.62,-221.85 614.82,-221.85 614.82,-221.85 727.18,-221.85 727.18,-221.85 731.38,-221.85 735.58,-226.05 735.58,-230.25 735.58,-230.25 735.58,-238.65 735.58,-238.65 735.58,-242.85 731.38,-247.05 727.18,-247.05"/>
<text xml:space="preserve" text-anchor="middle" x="671" y="-231.35" font-family="Helvetica,sans-Serif" font-size="8.00">SURFACE&#45;governed&#45;write&#45;tools</text>
</g>
<!-- v0_7_0_SURFACE_agent_dx_governed_edit&#45;&gt;v0_7_0_SURFACE_governed_write_tools -->
<g id="edge20" class="edge">
<title>v0_7_0_SURFACE_agent_dx_governed_edit&#45;&gt;v0_7_0_SURFACE_governed_write_tools</title>
<path fill="none" stroke="#666666" d="M699.9,-294.45C694.33,-283.08 686.03,-266.13 679.75,-253.32"/>
<polygon fill="#666666" stroke="#666666" points="681.46,-252.83 677.69,-249.11 678.32,-254.37 681.46,-252.83"/>
<text xml:space="preserve" text-anchor="middle" x="721.05" y="-268.65" font-family="Helvetica,sans-Serif" font-size="7.00">blocked_by/blocking</text>
</g>
<!-- v0_7_0_WARP_lsp_enrichment -->
<g id="node11" class="node">
<title>v0_7_0_WARP_lsp_enrichment</title>
<path fill="#ffa07a" stroke="black" stroke-width="2" d="M875.55,-320.5C875.55,-320.5 798.45,-320.5 798.45,-320.5 794.25,-320.5 790.05,-316.3 790.05,-312.1 790.05,-312.1 790.05,-303.7 790.05,-303.7 790.05,-299.5 794.25,-295.3 798.45,-295.3 798.45,-295.3 875.55,-295.3 875.55,-295.3 879.75,-295.3 883.95,-299.5 883.95,-303.7 883.95,-303.7 883.95,-312.1 883.95,-312.1 883.95,-316.3 879.75,-320.5 875.55,-320.5"/>
<text xml:space="preserve" text-anchor="middle" x="837" y="-304.8" font-family="Helvetica,sans-Serif" font-size="8.00">WARP&#45;lsp&#45;enrichment</text>
</g>
<!-- cool_ideas_bounded_neighborhood_for_references -->
<g id="node12" class="node">
<title>cool_ideas_bounded_neighborhood_for_references</title>
<path fill="#d4e8f7" stroke="black" d="M1269.17,-320.5C1269.17,-320.5 1120.83,-320.5 1120.83,-320.5 1116.62,-320.5 1112.42,-316.3 1112.42,-312.1 1112.42,-312.1 1112.42,-303.7 1112.42,-303.7 1112.42,-299.5 1116.62,-295.3 1120.83,-295.3 1120.83,-295.3 1269.17,-295.3 1269.17,-295.3 1273.38,-295.3 1277.58,-299.5 1277.58,-303.7 1277.58,-303.7 1277.58,-312.1 1277.58,-312.1 1277.58,-316.3 1273.38,-320.5 1269.17,-320.5"/>
<text xml:space="preserve" text-anchor="middle" x="1195" y="-304.8" font-family="Helvetica,sans-Serif" font-size="8.00">bounded&#45;neighborhood&#45;for&#45;references &#45; S</text>
</g>
<!-- cool_ideas_CI_001_causal_collapse_visualizer -->
<g id="node13" class="node">
<title>cool_ideas_CI_001_causal_collapse_visualizer</title>
<path fill="#d4e8f7" stroke="black" d="M7135.3,-247.05C7135.3,-247.05 7008.7,-247.05 7008.7,-247.05 7004.5,-247.05 7000.3,-242.85 7000.3,-238.65 7000.3,-238.65 7000.3,-230.25 7000.3,-230.25 7000.3,-226.05 7004.5,-221.85 7008.7,-221.85 7008.7,-221.85 7135.3,-221.85 7135.3,-221.85 7139.5,-221.85 7143.7,-226.05 7143.7,-230.25 7143.7,-230.25 7143.7,-238.65 7143.7,-238.65 7143.7,-242.85 7139.5,-247.05 7135.3,-247.05"/>
<text xml:space="preserve" text-anchor="middle" x="7072" y="-231.35" font-family="Helvetica,sans-Serif" font-size="8.00">CI&#45;001&#45;causal&#45;collapse&#45;visualizer &#45; L</text>
</g>
<!-- cool_ideas_CI_002_deterministic_scenario_replay -->
<g id="node14" class="node">
<title>cool_ideas_CI_002_deterministic_scenario_replay</title>
<path fill="#d4e8f7" stroke="black" d="M1439.67,-320.5C1439.67,-320.5 1300.33,-320.5 1300.33,-320.5 1296.12,-320.5 1291.92,-316.3 1291.92,-312.1 1291.92,-312.1 1291.92,-303.7 1291.92,-303.7 1291.92,-299.5 1296.12,-295.3 1300.33,-295.3 1300.33,-295.3 1439.67,-295.3 1439.67,-295.3 1443.88,-295.3 1448.08,-299.5 1448.08,-303.7 1448.08,-303.7 1448.08,-312.1 1448.08,-312.1 1448.08,-316.3 1443.88,-320.5 1439.67,-320.5"/>
<text xml:space="preserve" text-anchor="middle" x="1370" y="-304.8" font-family="Helvetica,sans-Serif" font-size="8.00">CI&#45;002&#45;deterministic&#45;scenario&#45;replay &#45; L</text>
</g>
<!-- cool_ideas_CI_003_mcp_native_diff_protocol -->
<g id="node15" class="node">
<title>cool_ideas_CI_003_mcp_native_diff_protocol</title>
<path fill="#d4e8f7" stroke="black" d="M1593.8,-320.5C1593.8,-320.5 1470.2,-320.5 1470.2,-320.5 1466,-320.5 1461.8,-316.3 1461.8,-312.1 1461.8,-312.1 1461.8,-303.7 1461.8,-303.7 1461.8,-299.5 1466,-295.3 1470.2,-295.3 1470.2,-295.3 1593.8,-295.3 1593.8,-295.3 1598,-295.3 1602.2,-299.5 1602.2,-303.7 1602.2,-303.7 1602.2,-312.1 1602.2,-312.1 1602.2,-316.3 1598,-320.5 1593.8,-320.5"/>
<text xml:space="preserve" text-anchor="middle" x="1532" y="-304.8" font-family="Helvetica,sans-Serif" font-size="8.00">CI&#45;003&#45;mcp&#45;native&#45;diff&#45;protocol &#45; M</text>
</g>
<!-- cool_ideas_CLEAN_CODE_parallel_agent_merge_shared_file_loss -->
<g id="node16" class="node">
<title>cool_ideas_CLEAN_CODE_parallel_agent_merge_shared_file_loss</title>
<path fill="#d4e8f7" stroke="black" d="M1825.05,-320.5C1825.05,-320.5 1624.95,-320.5 1624.95,-320.5 1620.75,-320.5 1616.55,-316.3 1616.55,-312.1 1616.55,-312.1 1616.55,-303.7 1616.55,-303.7 1616.55,-299.5 1620.75,-295.3 1624.95,-295.3 1624.95,-295.3 1825.05,-295.3 1825.05,-295.3 1829.25,-295.3 1833.45,-299.5 1833.45,-303.7 1833.45,-303.7 1833.45,-312.1 1833.45,-312.1 1833.45,-316.3 1829.25,-320.5 1825.05,-320.5"/>
<text xml:space="preserve" text-anchor="middle" x="1725" y="-304.8" font-family="Helvetica,sans-Serif" font-size="8.00">CLEAN&#45;CODE&#45;parallel&#45;agent&#45;merge&#45;shared&#45;file&#45;loss &#45; M</text>
</g>
<!-- cool_ideas_CORE_agent_handoff_protocol -->
<g id="node17" class="node">
<title>cool_ideas_CORE_agent_handoff_protocol</title>
<path fill="#d4e8f7" stroke="black" d="M1975.92,-320.5C1975.92,-320.5 1856.08,-320.5 1856.08,-320.5 1851.88,-320.5 1847.67,-316.3 1847.67,-312.1 1847.67,-312.1 1847.67,-303.7 1847.67,-303.7 1847.67,-299.5 1851.88,-295.3 1856.08,-295.3 1856.08,-295.3 1975.92,-295.3 1975.92,-295.3 1980.12,-295.3 1984.33,-299.5 1984.33,-303.7 1984.33,-303.7 1984.33,-312.1 1984.33,-312.1 1984.33,-316.3 1980.12,-320.5 1975.92,-320.5"/>
<text xml:space="preserve" text-anchor="middle" x="1916" y="-304.8" font-family="Helvetica,sans-Serif" font-size="8.00">CORE&#45;agent&#45;handoff&#45;protocol &#45; M</text>
</g>
<!-- cool_ideas_CORE_auto_focus -->
<g id="node18" class="node">
<title>cool_ideas_CORE_auto_focus</title>
<path fill="#d4e8f7" stroke="black" d="M2079.67,-320.5C2079.67,-320.5 2006.33,-320.5 2006.33,-320.5 2002.12,-320.5 1997.92,-316.3 1997.92,-312.1 1997.92,-312.1 1997.92,-303.7 1997.92,-303.7 1997.92,-299.5 2002.12,-295.3 2006.33,-295.3 2006.33,-295.3 2079.67,-295.3 2079.67,-295.3 2083.88,-295.3 2088.07,-299.5 2088.07,-303.7 2088.07,-303.7 2088.07,-312.1 2088.07,-312.1 2088.07,-316.3 2083.88,-320.5 2079.67,-320.5"/>
<text xml:space="preserve" text-anchor="middle" x="2043" y="-304.8" font-family="Helvetica,sans-Serif" font-size="8.00">CORE&#45;auto&#45;focus &#45; L</text>
</g>
<!-- cool_ideas_CORE_backlog_status_tool -->
<g id="node19" class="node">
<title>cool_ideas_CORE_backlog_status_tool</title>
<path fill="#d4e8f7" stroke="black" d="M2213.67,-320.5C2213.67,-320.5 2110.33,-320.5 2110.33,-320.5 2106.12,-320.5 2101.93,-316.3 2101.93,-312.1 2101.93,-312.1 2101.93,-303.7 2101.93,-303.7 2101.93,-299.5 2106.12,-295.3 2110.33,-295.3 2110.33,-295.3 2213.67,-295.3 2213.67,-295.3 2217.88,-295.3 2222.07,-299.5 2222.07,-303.7 2222.07,-303.7 2222.07,-312.1 2222.07,-312.1 2222.07,-316.3 2217.88,-320.5 2213.67,-320.5"/>
<text xml:space="preserve" text-anchor="middle" x="2162" y="-304.8" font-family="Helvetica,sans-Serif" font-size="8.00">CORE&#45;backlog&#45;status&#45;tool &#45; S</text>
</g>
<!-- cool_ideas_CORE_capture_range -->
<g id="node20" class="node">
<title>cool_ideas_CORE_capture_range</title>
<path fill="#d4e8f7" stroke="black" d="M2331.8,-320.5C2331.8,-320.5 2244.2,-320.5 2244.2,-320.5 2240,-320.5 2235.8,-316.3 2235.8,-312.1 2235.8,-312.1 2235.8,-303.7 2235.8,-303.7 2235.8,-299.5 2240,-295.3 2244.2,-295.3 2244.2,-295.3 2331.8,-295.3 2331.8,-295.3 2336,-295.3 2340.2,-299.5 2340.2,-303.7 2340.2,-303.7 2340.2,-312.1 2340.2,-312.1 2340.2,-316.3 2336,-320.5 2331.8,-320.5"/>
<text xml:space="preserve" text-anchor="middle" x="2288" y="-304.8" font-family="Helvetica,sans-Serif" font-size="8.00">CORE&#45;capture&#45;range &#45; S</text>
</g>
<!-- cool_ideas_CORE_constructor_in_disguise_lint -->
<g id="node21" class="node">
<title>cool_ideas_CORE_constructor_in_disguise_lint</title>
<path fill="#d4e8f7" stroke="black" d="M2493.55,-320.5C2493.55,-320.5 2362.45,-320.5 2362.45,-320.5 2358.25,-320.5 2354.05,-316.3 2354.05,-312.1 2354.05,-312.1 2354.05,-303.7 2354.05,-303.7 2354.05,-299.5 2358.25,-295.3 2362.45,-295.3 2362.45,-295.3 2493.55,-295.3 2493.55,-295.3 2497.75,-295.3 2501.95,-299.5 2501.95,-303.7 2501.95,-303.7 2501.95,-312.1 2501.95,-312.1 2501.95,-316.3 2497.75,-320.5 2493.55,-320.5"/>
<text xml:space="preserve" text-anchor="middle" x="2428" y="-304.8" font-family="Helvetica,sans-Serif" font-size="8.00">CORE&#45;constructor&#45;in&#45;disguise&#45;lint &#45; M</text>
</g>
<!-- cool_ideas_CORE_context_budget_forecasting -->
<g id="node22" class="node">
<title>cool_ideas_CORE_context_budget_forecasting</title>
<path fill="#d4e8f7" stroke="black" d="M2657.67,-320.5C2657.67,-320.5 2524.33,-320.5 2524.33,-320.5 2520.12,-320.5 2515.93,-316.3 2515.93,-312.1 2515.93,-312.1 2515.93,-303.7 2515.93,-303.7 2515.93,-299.5 2520.12,-295.3 2524.33,-295.3 2524.33,-295.3 2657.67,-295.3 2657.67,-295.3 2661.88,-295.3 2666.07,-299.5 2666.07,-303.7 2666.07,-303.7 2666.07,-312.1 2666.07,-312.1 2666.07,-316.3 2661.88,-320.5 2657.67,-320.5"/>
<text xml:space="preserve" text-anchor="middle" x="2591" y="-304.8" font-family="Helvetica,sans-Serif" font-size="8.00">CORE&#45;context&#45;budget&#45;forecasting &#45; M</text>
</g>
<!-- cool_ideas_CORE_conversation_primer -->
<g id="node23" class="node">
<title>cool_ideas_CORE_conversation_primer</title>
<path fill="#d4e8f7" stroke="black" d="M2797.67,-320.5C2797.67,-320.5 2688.33,-320.5 2688.33,-320.5 2684.12,-320.5 2679.93,-316.3 2679.93,-312.1 2679.93,-312.1 2679.93,-303.7 2679.93,-303.7 2679.93,-299.5 2684.12,-295.3 2688.33,-295.3 2688.33,-295.3 2797.67,-295.3 2797.67,-295.3 2801.88,-295.3 2806.07,-299.5 2806.07,-303.7 2806.07,-303.7 2806.07,-312.1 2806.07,-312.1 2806.07,-316.3 2801.88,-320.5 2797.67,-320.5"/>
<text xml:space="preserve" text-anchor="middle" x="2743" y="-304.8" font-family="Helvetica,sans-Serif" font-size="8.00">CORE&#45;conversation&#45;primer &#45; M</text>
</g>
<!-- cool_ideas_CORE_cross_session_resume -->
<g id="node24" class="node">
<title>cool_ideas_CORE_cross_session_resume</title>
<path fill="#d4e8f7" stroke="black" d="M2943.3,-320.5C2943.3,-320.5 2828.7,-320.5 2828.7,-320.5 2824.5,-320.5 2820.3,-316.3 2820.3,-312.1 2820.3,-312.1 2820.3,-303.7 2820.3,-303.7 2820.3,-299.5 2824.5,-295.3 2828.7,-295.3 2828.7,-295.3 2943.3,-295.3 2943.3,-295.3 2947.5,-295.3 2951.7,-299.5 2951.7,-303.7 2951.7,-303.7 2951.7,-312.1 2951.7,-312.1 2951.7,-316.3 2947.5,-320.5 2943.3,-320.5"/>
<text xml:space="preserve" text-anchor="middle" x="2886" y="-304.8" font-family="Helvetica,sans-Serif" font-size="8.00">CORE&#45;cross&#45;session&#45;resume &#45; S</text>
</g>
<!-- cool_ideas_CORE_graft_as_teacher -->
<g id="node25" class="node">
<title>cool_ideas_CORE_graft_as_teacher</title>
<path fill="#d4e8f7" stroke="black" d="M3068.17,-320.5C3068.17,-320.5 2973.83,-320.5 2973.83,-320.5 2969.62,-320.5 2965.43,-316.3 2965.43,-312.1 2965.43,-312.1 2965.43,-303.7 2965.43,-303.7 2965.43,-299.5 2969.62,-295.3 2973.83,-295.3 2973.83,-295.3 3068.17,-295.3 3068.17,-295.3 3072.38,-295.3 3076.57,-299.5 3076.57,-303.7 3076.57,-303.7 3076.57,-312.1 3076.57,-312.1 3076.57,-316.3 3072.38,-320.5 3068.17,-320.5"/>
<text xml:space="preserve" text-anchor="middle" x="3021" y="-304.8" font-family="Helvetica,sans-Serif" font-size="8.00">CORE&#45;graft&#45;as&#45;teacher &#45; S</text>
</g>
<!-- cool_ideas_CORE_graft_doctor -->
<g id="node26" class="node">
<title>cool_ideas_CORE_graft_doctor</title>
<path fill="#d4e8f7" stroke="black" d="M3179.05,-320.5C3179.05,-320.5 3098.95,-320.5 3098.95,-320.5 3094.75,-320.5 3090.55,-316.3 3090.55,-312.1 3090.55,-312.1 3090.55,-303.7 3090.55,-303.7 3090.55,-299.5 3094.75,-295.3 3098.95,-295.3 3098.95,-295.3 3179.05,-295.3 3179.05,-295.3 3183.25,-295.3 3187.45,-299.5 3187.45,-303.7 3187.45,-303.7 3187.45,-312.1 3187.45,-312.1 3187.45,-316.3 3183.25,-320.5 3179.05,-320.5"/>
<text xml:space="preserve" text-anchor="middle" x="3139" y="-304.8" font-family="Helvetica,sans-Serif" font-size="8.00">CORE&#45;graft&#45;doctor &#45; M</text>
</g>
<!-- cool_ideas_CORE_graft_teach_learning_receipts -->
<g id="node27" class="node">
<title>cool_ideas_CORE_graft_teach_learning_receipts</title>
<path fill="#d4e8f7" stroke="black" d="M3347.92,-320.5C3347.92,-320.5 3210.08,-320.5 3210.08,-320.5 3205.88,-320.5 3201.68,-316.3 3201.68,-312.1 3201.68,-312.1 3201.68,-303.7 3201.68,-303.7 3201.68,-299.5 3205.88,-295.3 3210.08,-295.3 3210.08,-295.3 3347.92,-295.3 3347.92,-295.3 3352.12,-295.3 3356.32,-299.5 3356.32,-303.7 3356.32,-303.7 3356.32,-312.1 3356.32,-312.1 3356.32,-316.3 3352.12,-320.5 3347.92,-320.5"/>
<text xml:space="preserve" text-anchor="middle" x="3279" y="-304.8" font-family="Helvetica,sans-Serif" font-size="8.00">CORE&#45;graft&#45;teach&#45;learning&#45;receipts &#45; S</text>
</g>
<!-- cool_ideas_CORE_horizon_of_readability -->
<g id="node28" class="node">
<title>cool_ideas_CORE_horizon_of_readability</title>
<path fill="#d4e8f7" stroke="black" d="M3491.55,-320.5C3491.55,-320.5 3378.45,-320.5 3378.45,-320.5 3374.25,-320.5 3370.05,-316.3 3370.05,-312.1 3370.05,-312.1 3370.05,-303.7 3370.05,-303.7 3370.05,-299.5 3374.25,-295.3 3378.45,-295.3 3378.45,-295.3 3491.55,-295.3 3491.55,-295.3 3495.75,-295.3 3499.95,-299.5 3499.95,-303.7 3499.95,-303.7 3499.95,-312.1 3499.95,-312.1 3499.95,-316.3 3495.75,-320.5 3491.55,-320.5"/>
<text xml:space="preserve" text-anchor="middle" x="3435" y="-304.8" font-family="Helvetica,sans-Serif" font-size="8.00">CORE&#45;horizon&#45;of&#45;readability &#45; M</text>
</g>
<!-- cool_ideas_CORE_lagrangian_policy -->
<g id="node29" class="node">
<title>cool_ideas_CORE_lagrangian_policy</title>
<path fill="#d4e8f7" stroke="black" d="M3623.55,-320.5C3623.55,-320.5 3522.45,-320.5 3522.45,-320.5 3518.25,-320.5 3514.05,-316.3 3514.05,-312.1 3514.05,-312.1 3514.05,-303.7 3514.05,-303.7 3514.05,-299.5 3518.25,-295.3 3522.45,-295.3 3522.45,-295.3 3623.55,-295.3 3623.55,-295.3 3627.75,-295.3 3631.95,-299.5 3631.95,-303.7 3631.95,-303.7 3631.95,-312.1 3631.95,-312.1 3631.95,-316.3 3627.75,-320.5 3623.55,-320.5"/>
<text xml:space="preserve" text-anchor="middle" x="3573" y="-304.8" font-family="Helvetica,sans-Serif" font-size="8.00">CORE&#45;lagrangian&#45;policy &#45; XL</text>
</g>
<!-- cool_ideas_CORE_multi_agent_conflict_detection -->
<g id="node30" class="node">
<title>cool_ideas_CORE_multi_agent_conflict_detection</title>
<path fill="#d4e8f7" stroke="black" d="M3791.92,-320.5C3791.92,-320.5 3654.08,-320.5 3654.08,-320.5 3649.88,-320.5 3645.68,-316.3 3645.68,-312.1 3645.68,-312.1 3645.68,-303.7 3645.68,-303.7 3645.68,-299.5 3649.88,-295.3 3654.08,-295.3 3654.08,-295.3 3791.92,-295.3 3791.92,-295.3 3796.12,-295.3 3800.32,-299.5 3800.32,-303.7 3800.32,-303.7 3800.32,-312.1 3800.32,-312.1 3800.32,-316.3 3796.12,-320.5 3791.92,-320.5"/>
<text xml:space="preserve" text-anchor="middle" x="3723" y="-304.8" font-family="Helvetica,sans-Serif" font-size="8.00">CORE&#45;multi&#45;agent&#45;conflict&#45;detection &#45; L</text>
</g>
<!-- cool_ideas_CORE_policy_playground -->
<g id="node31" class="node">
<title>cool_ideas_CORE_policy_playground</title>
<path fill="#d4e8f7" stroke="black" d="M3921.42,-320.5C3921.42,-320.5 3822.58,-320.5 3822.58,-320.5 3818.38,-320.5 3814.18,-316.3 3814.18,-312.1 3814.18,-312.1 3814.18,-303.7 3814.18,-303.7 3814.18,-299.5 3818.38,-295.3 3822.58,-295.3 3822.58,-295.3 3921.42,-295.3 3921.42,-295.3 3925.62,-295.3 3929.82,-299.5 3929.82,-303.7 3929.82,-303.7 3929.82,-312.1 3929.82,-312.1 3929.82,-316.3 3925.62,-320.5 3921.42,-320.5"/>
<text xml:space="preserve" text-anchor="middle" x="3872" y="-304.8" font-family="Helvetica,sans-Serif" font-size="8.00">CORE&#45;policy&#45;playground &#45; S</text>
</g>
<!-- cool_ideas_CORE_policy_profiles -->
<g id="node32" class="node">
<title>cool_ideas_CORE_policy_profiles</title>
<path fill="#d4e8f7" stroke="black" d="M4038.05,-320.5C4038.05,-320.5 3951.95,-320.5 3951.95,-320.5 3947.75,-320.5 3943.55,-316.3 3943.55,-312.1 3943.55,-312.1 3943.55,-303.7 3943.55,-303.7 3943.55,-299.5 3947.75,-295.3 3951.95,-295.3 3951.95,-295.3 4038.05,-295.3 4038.05,-295.3 4042.25,-295.3 4046.45,-299.5 4046.45,-303.7 4046.45,-303.7 4046.45,-312.1 4046.45,-312.1 4046.45,-316.3 4042.25,-320.5 4038.05,-320.5"/>
<text xml:space="preserve" text-anchor="middle" x="3995" y="-304.8" font-family="Helvetica,sans-Serif" font-size="8.00">CORE&#45;policy&#45;profiles &#45; M</text>
</g>
<!-- cool_ideas_CORE_pr_review_structural_summary -->
<g id="node33" class="node">
<title>cool_ideas_CORE_pr_review_structural_summary</title>
<path fill="#d4e8f7" stroke="black" d="M4212.93,-320.5C4212.93,-320.5 4069.08,-320.5 4069.08,-320.5 4064.88,-320.5 4060.68,-316.3 4060.68,-312.1 4060.68,-312.1 4060.68,-303.7 4060.68,-303.7 4060.68,-299.5 4064.88,-295.3 4069.08,-295.3 4069.08,-295.3 4212.93,-295.3 4212.93,-295.3 4217.12,-295.3 4221.32,-299.5 4221.32,-303.7 4221.32,-303.7 4221.32,-312.1 4221.32,-312.1 4221.32,-316.3 4217.12,-320.5 4212.93,-320.5"/>
<text xml:space="preserve" text-anchor="middle" x="4141" y="-304.8" font-family="Helvetica,sans-Serif" font-size="8.00">CORE&#45;pr&#45;review&#45;structural&#45;summary &#45; M</text>
</g>
<!-- cool_ideas_CORE_self_tuning_governor -->
<g id="node34" class="node">
<title>cool_ideas_CORE_self_tuning_governor</title>
<path fill="#d4e8f7" stroke="black" d="M4354.05,-320.5C4354.05,-320.5 4243.95,-320.5 4243.95,-320.5 4239.75,-320.5 4235.55,-316.3 4235.55,-312.1 4235.55,-312.1 4235.55,-303.7 4235.55,-303.7 4235.55,-299.5 4239.75,-295.3 4243.95,-295.3 4243.95,-295.3 4354.05,-295.3 4354.05,-295.3 4358.25,-295.3 4362.45,-299.5 4362.45,-303.7 4362.45,-303.7 4362.45,-312.1 4362.45,-312.1 4362.45,-316.3 4358.25,-320.5 4354.05,-320.5"/>
<text xml:space="preserve" text-anchor="middle" x="4299" y="-304.8" font-family="Helvetica,sans-Serif" font-size="8.00">CORE&#45;self&#45;tuning&#45;governor &#45; M</text>
</g>
<!-- cool_ideas_CORE_session_knowledge_map -->
<g id="node35" class="node">
<title>cool_ideas_CORE_session_knowledge_map</title>
<path fill="#d4e8f7" stroke="black" d="M4507.43,-320.5C4507.43,-320.5 4384.57,-320.5 4384.57,-320.5 4380.38,-320.5 4376.18,-316.3 4376.18,-312.1 4376.18,-312.1 4376.18,-303.7 4376.18,-303.7 4376.18,-299.5 4380.38,-295.3 4384.57,-295.3 4384.57,-295.3 4507.43,-295.3 4507.43,-295.3 4511.62,-295.3 4515.82,-299.5 4515.82,-303.7 4515.82,-303.7 4515.82,-312.1 4515.82,-312.1 4515.82,-316.3 4511.62,-320.5 4507.43,-320.5"/>
<text xml:space="preserve" text-anchor="middle" x="4446" y="-304.8" font-family="Helvetica,sans-Serif" font-size="8.00">CORE&#45;session&#45;knowledge&#45;map &#45; S</text>
</g>
<!-- cool_ideas_CORE_speculative_read_cost -->
<g id="node36" class="node">
<title>cool_ideas_CORE_speculative_read_cost</title>
<path fill="#d4e8f7" stroke="black" d="M4650.18,-320.5C4650.18,-320.5 4537.82,-320.5 4537.82,-320.5 4533.62,-320.5 4529.43,-316.3 4529.43,-312.1 4529.43,-312.1 4529.43,-303.7 4529.43,-303.7 4529.43,-299.5 4533.62,-295.3 4537.82,-295.3 4537.82,-295.3 4650.18,-295.3 4650.18,-295.3 4654.38,-295.3 4658.57,-299.5 4658.57,-303.7 4658.57,-303.7 4658.57,-312.1 4658.57,-312.1 4658.57,-316.3 4654.38,-320.5 4650.18,-320.5"/>
<text xml:space="preserve" text-anchor="middle" x="4594" y="-304.8" font-family="Helvetica,sans-Serif" font-size="8.00">CORE&#45;speculative&#45;read&#45;cost &#45; S</text>
</g>
<!-- cool_ideas_CORE_structural_session_replay -->
<g id="node37" class="node">
<title>cool_ideas_CORE_structural_session_replay</title>
<path fill="#d4e8f7" stroke="black" d="M4806.55,-320.5C4806.55,-320.5 4681.45,-320.5 4681.45,-320.5 4677.25,-320.5 4673.05,-316.3 4673.05,-312.1 4673.05,-312.1 4673.05,-303.7 4673.05,-303.7 4673.05,-299.5 4677.25,-295.3 4681.45,-295.3 4681.45,-295.3 4806.55,-295.3 4806.55,-295.3 4810.75,-295.3 4814.95,-299.5 4814.95,-303.7 4814.95,-303.7 4814.95,-312.1 4814.95,-312.1 4814.95,-316.3 4810.75,-320.5 4806.55,-320.5"/>
<text xml:space="preserve" text-anchor="middle" x="4744" y="-304.8" font-family="Helvetica,sans-Serif" font-size="8.00">CORE&#45;structural&#45;session&#45;replay &#45; M</text>
</g>
<!-- cool_ideas_CORE_structural_test_coverage_map -->
<g id="node38" class="node">
<title>cool_ideas_CORE_structural_test_coverage_map</title>
<path fill="#d4e8f7" stroke="black" d="M4978.8,-320.5C4978.8,-320.5 4837.2,-320.5 4837.2,-320.5 4833,-320.5 4828.8,-316.3 4828.8,-312.1 4828.8,-312.1 4828.8,-303.7 4828.8,-303.7 4828.8,-299.5 4833,-295.3 4837.2,-295.3 4837.2,-295.3 4978.8,-295.3 4978.8,-295.3 4983,-295.3 4987.2,-299.5 4987.2,-303.7 4987.2,-303.7 4987.2,-312.1 4987.2,-312.1 4987.2,-316.3 4983,-320.5 4978.8,-320.5"/>
<text xml:space="preserve" text-anchor="middle" x="4908" y="-304.8" font-family="Helvetica,sans-Serif" font-size="8.00">CORE&#45;structural&#45;test&#45;coverage&#45;map &#45; M</text>
</g>
<!-- cool_ideas_CORE_wire_primitives_into_runtime -->
<g id="node39" class="node">
<title>cool_ideas_CORE_wire_primitives_into_runtime</title>
<path fill="#d4e8f7" stroke="black" d="M5144.43,-320.5C5144.43,-320.5 5009.57,-320.5 5009.57,-320.5 5005.38,-320.5 5001.18,-316.3 5001.18,-312.1 5001.18,-312.1 5001.18,-303.7 5001.18,-303.7 5001.18,-299.5 5005.38,-295.3 5009.57,-295.3 5009.57,-295.3 5144.43,-295.3 5144.43,-295.3 5148.62,-295.3 5152.82,-299.5 5152.82,-303.7 5152.82,-303.7 5152.82,-312.1 5152.82,-312.1 5152.82,-316.3 5148.62,-320.5 5144.43,-320.5"/>
<text xml:space="preserve" text-anchor="middle" x="5077" y="-304.8" font-family="Helvetica,sans-Serif" font-size="8.00">CORE&#45;wire&#45;primitives&#45;into&#45;runtime &#45; M</text>
</g>
<!-- cool_ideas_monitor_tick_ceiling_tracking -->
<g id="node40" class="node">
<title>cool_ideas_monitor_tick_ceiling_tracking</title>
<path fill="#d4e8f7" stroke="black" d="M5282.55,-320.5C5282.55,-320.5 5175.45,-320.5 5175.45,-320.5 5171.25,-320.5 5167.05,-316.3 5167.05,-312.1 5167.05,-312.1 5167.05,-303.7 5167.05,-303.7 5167.05,-299.5 5171.25,-295.3 5175.45,-295.3 5175.45,-295.3 5282.55,-295.3 5282.55,-295.3 5286.75,-295.3 5290.95,-299.5 5290.95,-303.7 5290.95,-303.7 5290.95,-312.1 5290.95,-312.1 5290.95,-316.3 5286.75,-320.5 5282.55,-320.5"/>
<text xml:space="preserve" text-anchor="middle" x="5229" y="-304.8" font-family="Helvetica,sans-Serif" font-size="8.00">monitor&#45;tick&#45;ceiling&#45;tracking &#45; S</text>
</g>
<!-- cool_ideas_WARP_background_indexing -->
<g id="node52" class="node">
<title>cool_ideas_WARP_background_indexing</title>
<path fill="#d4e8f7" stroke="black" d="M5285.55,-247.05C5285.55,-247.05 5172.45,-247.05 5172.45,-247.05 5168.25,-247.05 5164.05,-242.85 5164.05,-238.65 5164.05,-238.65 5164.05,-230.25 5164.05,-230.25 5164.05,-226.05 5168.25,-221.85 5172.45,-221.85 5172.45,-221.85 5285.55,-221.85 5285.55,-221.85 5289.75,-221.85 5293.95,-226.05 5293.95,-230.25 5293.95,-230.25 5293.95,-238.65 5293.95,-238.65 5293.95,-242.85 5289.75,-247.05 5285.55,-247.05"/>
<text xml:space="preserve" text-anchor="middle" x="5229" y="-231.35" font-family="Helvetica,sans-Serif" font-size="8.00">WARP&#45;background&#45;indexing &#45; M</text>
</g>
<!-- cool_ideas_monitor_tick_ceiling_tracking&#45;&gt;cool_ideas_WARP_background_indexing -->
<g id="edge1" class="edge">
<title>cool_ideas_monitor_tick_ceiling_tracking&#45;&gt;cool_ideas_WARP_background_indexing</title>
<path fill="none" stroke="#666666" d="M5229,-295.1C5229,-283.9 5229,-266.88 5229,-253.88"/>
<polygon fill="#666666" stroke="#666666" points="5230.75,-254.02 5229,-249.02 5227.25,-254.02 5230.75,-254.02"/>
<text xml:space="preserve" text-anchor="middle" x="5260.5" y="-268.65" font-family="Helvetica,sans-Serif" font-size="7.00">blocked_by/blocking</text>
</g>
<!-- cool_ideas_SURFACE_active_causal_workspace_status -->
<g id="node41" class="node">
<title>cool_ideas_SURFACE_active_causal_workspace_status</title>
<path fill="#d4e8f7" stroke="black" d="M5477.05,-320.5C5477.05,-320.5 5312.95,-320.5 5312.95,-320.5 5308.75,-320.5 5304.55,-316.3 5304.55,-312.1 5304.55,-312.1 5304.55,-303.7 5304.55,-303.7 5304.55,-299.5 5308.75,-295.3 5312.95,-295.3 5312.95,-295.3 5477.05,-295.3 5477.05,-295.3 5481.25,-295.3 5485.45,-299.5 5485.45,-303.7 5485.45,-303.7 5485.45,-312.1 5485.45,-312.1 5485.45,-316.3 5481.25,-320.5 5477.05,-320.5"/>
<text xml:space="preserve" text-anchor="middle" x="5395" y="-304.8" font-family="Helvetica,sans-Serif" font-size="8.00">SURFACE&#45;active&#45;causal&#45;workspace&#45;status &#45; M</text>
</g>
<!-- cool_ideas_SURFACE_ide_native_graft_integration -->
<g id="node43" class="node">
<title>cool_ideas_SURFACE_ide_native_graft_integration</title>
<path fill="#d4e8f7" stroke="black" d="M5470.3,-247.05C5470.3,-247.05 5319.7,-247.05 5319.7,-247.05 5315.5,-247.05 5311.3,-242.85 5311.3,-238.65 5311.3,-238.65 5311.3,-230.25 5311.3,-230.25 5311.3,-226.05 5315.5,-221.85 5319.7,-221.85 5319.7,-221.85 5470.3,-221.85 5470.3,-221.85 5474.5,-221.85 5478.7,-226.05 5478.7,-230.25 5478.7,-230.25 5478.7,-238.65 5478.7,-238.65 5478.7,-242.85 5474.5,-247.05 5470.3,-247.05"/>
<text xml:space="preserve" text-anchor="middle" x="5395" y="-231.35" font-family="Helvetica,sans-Serif" font-size="8.00">SURFACE&#45;ide&#45;native&#45;graft&#45;integration &#45; XL</text>
</g>
<!-- cool_ideas_SURFACE_active_causal_workspace_status&#45;&gt;cool_ideas_SURFACE_ide_native_graft_integration -->
<g id="edge2" class="edge">
<title>cool_ideas_SURFACE_active_causal_workspace_status&#45;&gt;cool_ideas_SURFACE_ide_native_graft_integration</title>
<path fill="none" stroke="#666666" d="M5395,-295.1C5395,-283.9 5395,-266.88 5395,-253.88"/>
<polygon fill="#666666" stroke="#666666" points="5396.75,-254.02 5395,-249.02 5393.25,-254.02 5396.75,-254.02"/>
<text xml:space="preserve" text-anchor="middle" x="5426.5" y="-268.65" font-family="Helvetica,sans-Serif" font-size="7.00">blocked_by/blocking</text>
</g>
<!-- cool_ideas_SURFACE_attach_to_existing_causal_session -->
<g id="node42" class="node">
<title>cool_ideas_SURFACE_attach_to_existing_causal_session</title>
<path fill="#d4e8f7" stroke="black" d="M5676.3,-320.5C5676.3,-320.5 5507.7,-320.5 5507.7,-320.5 5503.5,-320.5 5499.3,-316.3 5499.3,-312.1 5499.3,-312.1 5499.3,-303.7 5499.3,-303.7 5499.3,-299.5 5503.5,-295.3 5507.7,-295.3 5507.7,-295.3 5676.3,-295.3 5676.3,-295.3 5680.5,-295.3 5684.7,-299.5 5684.7,-303.7 5684.7,-303.7 5684.7,-312.1 5684.7,-312.1 5684.7,-316.3 5680.5,-320.5 5676.3,-320.5"/>
<text xml:space="preserve" text-anchor="middle" x="5592" y="-304.8" font-family="Helvetica,sans-Serif" font-size="8.00">SURFACE&#45;attach&#45;to&#45;existing&#45;causal&#45;session &#45; M</text>
</g>
<!-- cool_ideas_SURFACE_local_history_dag_render_mode_and_count_legend -->
<g id="node44" class="node">
<title>cool_ideas_SURFACE_local_history_dag_render_mode_and_count_legend</title>
<path fill="#d4e8f7" stroke="black" d="M5933.18,-320.5C5933.18,-320.5 5706.82,-320.5 5706.82,-320.5 5702.62,-320.5 5698.43,-316.3 5698.43,-312.1 5698.43,-312.1 5698.43,-303.7 5698.43,-303.7 5698.43,-299.5 5702.62,-295.3 5706.82,-295.3 5706.82,-295.3 5933.18,-295.3 5933.18,-295.3 5937.38,-295.3 5941.57,-299.5 5941.57,-303.7 5941.57,-303.7 5941.57,-312.1 5941.57,-312.1 5941.57,-316.3 5937.38,-320.5 5933.18,-320.5"/>
<text xml:space="preserve" text-anchor="middle" x="5820" y="-304.8" font-family="Helvetica,sans-Serif" font-size="8.00">SURFACE&#45;local&#45;history&#45;dag&#45;render&#45;mode&#45;and&#45;count&#45;legend &#45; S</text>
</g>
<!-- cool_ideas_SURFACE_non_codex_instruction_bootstrap_parity -->
<g id="node45" class="node">
<title>cool_ideas_SURFACE_non_codex_instruction_bootstrap_parity</title>
<path fill="#d4e8f7" stroke="black" d="M6152.43,-320.5C6152.43,-320.5 5963.57,-320.5 5963.57,-320.5 5959.38,-320.5 5955.18,-316.3 5955.18,-312.1 5955.18,-312.1 5955.18,-303.7 5955.18,-303.7 5955.18,-299.5 5959.38,-295.3 5963.57,-295.3 5963.57,-295.3 6152.43,-295.3 6152.43,-295.3 6156.62,-295.3 6160.82,-299.5 6160.82,-303.7 6160.82,-303.7 6160.82,-312.1 6160.82,-312.1 6160.82,-316.3 6156.62,-320.5 6152.43,-320.5"/>
<text xml:space="preserve" text-anchor="middle" x="6058" y="-304.8" font-family="Helvetica,sans-Serif" font-size="8.00">SURFACE&#45;non&#45;codex&#45;instruction&#45;bootstrap&#45;parity &#45; M</text>
</g>
<!-- cool_ideas_SURFACE_offer_rename_refactor -->
<g id="node46" class="node">
<title>cool_ideas_SURFACE_offer_rename_refactor</title>
<path fill="#d4e8f7" stroke="black" d="M6312.43,-320.5C6312.43,-320.5 6183.57,-320.5 6183.57,-320.5 6179.38,-320.5 6175.18,-316.3 6175.18,-312.1 6175.18,-312.1 6175.18,-303.7 6175.18,-303.7 6175.18,-299.5 6179.38,-295.3 6183.57,-295.3 6183.57,-295.3 6312.43,-295.3 6312.43,-295.3 6316.62,-295.3 6320.82,-299.5 6320.82,-303.7 6320.82,-303.7 6320.82,-312.1 6320.82,-312.1 6320.82,-316.3 6316.62,-320.5 6312.43,-320.5"/>
<text xml:space="preserve" text-anchor="middle" x="6248" y="-304.8" font-family="Helvetica,sans-Serif" font-size="8.00">SURFACE&#45;offer&#45;rename&#45;refactor &#45; L</text>
</g>
<!-- cool_ideas_SURFACE_terminal_activity_browser_tui -->
<g id="node47" class="node">
<title>cool_ideas_SURFACE_terminal_activity_browser_tui</title>
<path fill="#d4e8f7" stroke="black" d="M6492.55,-320.5C6492.55,-320.5 6343.45,-320.5 6343.45,-320.5 6339.25,-320.5 6335.05,-316.3 6335.05,-312.1 6335.05,-312.1 6335.05,-303.7 6335.05,-303.7 6335.05,-299.5 6339.25,-295.3 6343.45,-295.3 6343.45,-295.3 6492.55,-295.3 6492.55,-295.3 6496.75,-295.3 6500.95,-299.5 6500.95,-303.7 6500.95,-303.7 6500.95,-312.1 6500.95,-312.1 6500.95,-316.3 6496.75,-320.5 6492.55,-320.5"/>
<text xml:space="preserve" text-anchor="middle" x="6418" y="-304.8" font-family="Helvetica,sans-Serif" font-size="8.00">SURFACE&#45;terminal&#45;activity&#45;browser&#45;tui &#45; L</text>
</g>
<!-- cool_ideas_traverse_plus_query_hydration_helper -->
<g id="node48" class="node">
<title>cool_ideas_traverse_plus_query_hydration_helper</title>
<path fill="#d4e8f7" stroke="black" d="M6664.8,-320.5C6664.8,-320.5 6523.2,-320.5 6523.2,-320.5 6519,-320.5 6514.8,-316.3 6514.8,-312.1 6514.8,-312.1 6514.8,-303.7 6514.8,-303.7 6514.8,-299.5 6519,-295.3 6523.2,-295.3 6523.2,-295.3 6664.8,-295.3 6664.8,-295.3 6669,-295.3 6673.2,-299.5 6673.2,-303.7 6673.2,-303.7 6673.2,-312.1 6673.2,-312.1 6673.2,-316.3 6669,-320.5 6664.8,-320.5"/>
<text xml:space="preserve" text-anchor="middle" x="6594" y="-304.8" font-family="Helvetica,sans-Serif" font-size="8.00">traverse&#45;plus&#45;query&#45;hydration&#45;helper &#45; S</text>
</g>
<!-- cool_ideas_WARP_adaptive_projection_selection -->
<g id="node49" class="node">
<title>cool_ideas_WARP_adaptive_projection_selection</title>
<path fill="#d4e8f7" stroke="black" d="M6833.93,-320.5C6833.93,-320.5 6696.07,-320.5 6696.07,-320.5 6691.88,-320.5 6687.68,-316.3 6687.68,-312.1 6687.68,-312.1 6687.68,-303.7 6687.68,-303.7 6687.68,-299.5 6691.88,-295.3 6696.07,-295.3 6696.07,-295.3 6833.93,-295.3 6833.93,-295.3 6838.12,-295.3 6842.32,-299.5 6842.32,-303.7 6842.32,-303.7 6842.32,-312.1 6842.32,-312.1 6842.32,-316.3 6838.12,-320.5 6833.93,-320.5"/>
<text xml:space="preserve" text-anchor="middle" x="6765" y="-304.8" font-family="Helvetica,sans-Serif" font-size="8.00">WARP&#45;adaptive&#45;projection&#45;selection &#45; L</text>
</g>
<!-- cool_ideas_WARP_agent_action_provenance -->
<g id="node50" class="node">
<title>cool_ideas_WARP_agent_action_provenance</title>
<path fill="#d4e8f7" stroke="black" d="M6995.55,-320.5C6995.55,-320.5 6864.45,-320.5 6864.45,-320.5 6860.25,-320.5 6856.05,-316.3 6856.05,-312.1 6856.05,-312.1 6856.05,-303.7 6856.05,-303.7 6856.05,-299.5 6860.25,-295.3 6864.45,-295.3 6864.45,-295.3 6995.55,-295.3 6995.55,-295.3 6999.75,-295.3 7003.95,-299.5 7003.95,-303.7 7003.95,-303.7 7003.95,-312.1 7003.95,-312.1 7003.95,-316.3 6999.75,-320.5 6995.55,-320.5"/>
<text xml:space="preserve" text-anchor="middle" x="6930" y="-304.8" font-family="Helvetica,sans-Serif" font-size="8.00">WARP&#45;agent&#45;action&#45;provenance &#45; XL</text>
</g>
<!-- cool_ideas_WARP_agent_action_provenance&#45;&gt;cool_ideas_CI_001_causal_collapse_visualizer -->
<g id="edge3" class="edge">
<title>cool_ideas_WARP_agent_action_provenance&#45;&gt;cool_ideas_CI_001_causal_collapse_visualizer</title>
<path fill="none" stroke="#666666" d="M6955.81,-294.81C6968.04,-289.01 6982.83,-281.9 6996,-275.3 7011.99,-267.28 7029.7,-258.02 7044,-250.44"/>
<polygon fill="#666666" stroke="#666666" points="7044.57,-252.12 7048.16,-248.23 7042.92,-249.03 7044.57,-252.12"/>
<text xml:space="preserve" text-anchor="middle" x="7042.14" y="-268.65" font-family="Helvetica,sans-Serif" font-size="7.00">blocked_by/blocking</text>
</g>
<!-- cool_ideas_WARP_causal_write_tracking -->
<g id="node55" class="node">
<title>cool_ideas_WARP_causal_write_tracking</title>
<path fill="#d4e8f7" stroke="black" d="M6688.05,-247.05C6688.05,-247.05 6577.95,-247.05 6577.95,-247.05 6573.75,-247.05 6569.55,-242.85 6569.55,-238.65 6569.55,-238.65 6569.55,-230.25 6569.55,-230.25 6569.55,-226.05 6573.75,-221.85 6577.95,-221.85 6577.95,-221.85 6688.05,-221.85 6688.05,-221.85 6692.25,-221.85 6696.45,-226.05 6696.45,-230.25 6696.45,-230.25 6696.45,-238.65 6696.45,-238.65 6696.45,-242.85 6692.25,-247.05 6688.05,-247.05"/>
<text xml:space="preserve" text-anchor="middle" x="6633" y="-231.35" font-family="Helvetica,sans-Serif" font-size="8.00">WARP&#45;causal&#45;write&#45;tracking &#45; L</text>
</g>
<!-- cool_ideas_WARP_agent_action_provenance&#45;&gt;cool_ideas_WARP_causal_write_tracking -->
<g id="edge4" class="edge">
<title>cool_ideas_WARP_agent_action_provenance&#45;&gt;cool_ideas_WARP_causal_write_tracking</title>
<path fill="none" stroke="#666666" d="M6882.13,-294.83C6871.27,-292.23 6859.76,-289.58 6849,-287.3 6819.83,-281.12 6812.1,-281.8 6783,-275.3 6748.63,-267.62 6710.25,-257.4 6680.92,-249.23"/>
<polygon fill="#666666" stroke="#666666" points="6681.55,-247.58 6676.26,-247.92 6680.61,-250.96 6681.55,-247.58"/>
<text xml:space="preserve" text-anchor="middle" x="6814.5" y="-268.65" font-family="Helvetica,sans-Serif" font-size="7.00">blocked_by/blocking</text>
</g>
<!-- cool_ideas_WARP_intent_and_decision_events -->
<g id="node65" class="node">
<title>cool_ideas_WARP_intent_and_decision_events</title>
<path fill="#d4e8f7" stroke="black" d="M6851.3,-247.05C6851.3,-247.05 6718.7,-247.05 6718.7,-247.05 6714.5,-247.05 6710.3,-242.85 6710.3,-238.65 6710.3,-238.65 6710.3,-230.25 6710.3,-230.25 6710.3,-226.05 6714.5,-221.85 6718.7,-221.85 6718.7,-221.85 6851.3,-221.85 6851.3,-221.85 6855.5,-221.85 6859.7,-226.05 6859.7,-230.25 6859.7,-230.25 6859.7,-238.65 6859.7,-238.65 6859.7,-242.85 6855.5,-247.05 6851.3,-247.05"/>
<text xml:space="preserve" text-anchor="middle" x="6785" y="-231.35" font-family="Helvetica,sans-Serif" font-size="8.00">WARP&#45;intent&#45;and&#45;decision&#45;events &#45; M</text>
</g>
<!-- cool_ideas_WARP_agent_action_provenance&#45;&gt;cool_ideas_WARP_intent_and_decision_events -->
<g id="edge5" class="edge">
<title>cool_ideas_WARP_agent_action_provenance&#45;&gt;cool_ideas_WARP_intent_and_decision_events</title>
<path fill="none" stroke="#666666" d="M6904.55,-294.87C6892.27,-289.02 6877.34,-281.86 6864,-275.3 6847.45,-267.16 6829.05,-257.89 6814.17,-250.34"/>
<polygon fill="#666666" stroke="#666666" points="6815.04,-248.83 6809.79,-248.12 6813.46,-251.95 6815.04,-248.83"/>
<text xml:space="preserve" text-anchor="middle" x="6895.5" y="-268.65" font-family="Helvetica,sans-Serif" font-size="7.00">blocked_by/blocking</text>
</g>
<!-- cool_ideas_WARP_provenance_dag -->
<g id="node70" class="node">
<title>cool_ideas_WARP_provenance_dag</title>
<path fill="#d4e8f7" stroke="black" d="M6977.55,-247.05C6977.55,-247.05 6882.45,-247.05 6882.45,-247.05 6878.25,-247.05 6874.05,-242.85 6874.05,-238.65 6874.05,-238.65 6874.05,-230.25 6874.05,-230.25 6874.05,-226.05 6878.25,-221.85 6882.45,-221.85 6882.45,-221.85 6977.55,-221.85 6977.55,-221.85 6981.75,-221.85 6985.95,-226.05 6985.95,-230.25 6985.95,-230.25 6985.95,-238.65 6985.95,-238.65 6985.95,-242.85 6981.75,-247.05 6977.55,-247.05"/>
<text xml:space="preserve" text-anchor="middle" x="6930" y="-231.35" font-family="Helvetica,sans-Serif" font-size="8.00">WARP&#45;provenance&#45;dag &#45; L</text>
</g>
<!-- cool_ideas_WARP_agent_action_provenance&#45;&gt;cool_ideas_WARP_provenance_dag -->
<g id="edge6" class="edge">
<title>cool_ideas_WARP_agent_action_provenance&#45;&gt;cool_ideas_WARP_provenance_dag</title>
<path fill="none" stroke="#666666" d="M6930,-295.1C6930,-283.9 6930,-266.88 6930,-253.88"/>
<polygon fill="#666666" stroke="#666666" points="6931.75,-254.02 6930,-249.02 6928.25,-254.02 6931.75,-254.02"/>
<text xml:space="preserve" text-anchor="middle" x="6961.5" y="-268.65" font-family="Helvetica,sans-Serif" font-size="7.00">blocked_by/blocking</text>
</g>
<!-- cool_ideas_WARP_auto_breaking_change_detection -->
<g id="node51" class="node">
<title>cool_ideas_WARP_auto_breaking_change_detection</title>
<path fill="#d4e8f7" stroke="black" d="M10042.3,-247.05C10042.3,-247.05 9891.7,-247.05 9891.7,-247.05 9887.5,-247.05 9883.3,-242.85 9883.3,-238.65 9883.3,-238.65 9883.3,-230.25 9883.3,-230.25 9883.3,-226.05 9887.5,-221.85 9891.7,-221.85 9891.7,-221.85 10042.3,-221.85 10042.3,-221.85 10046.5,-221.85 10050.7,-226.05 10050.7,-230.25 10050.7,-230.25 10050.7,-238.65 10050.7,-238.65 10050.7,-242.85 10046.5,-247.05 10042.3,-247.05"/>
<text xml:space="preserve" text-anchor="middle" x="9967" y="-231.35" font-family="Helvetica,sans-Serif" font-size="8.00">WARP&#45;auto&#45;breaking&#45;change&#45;detection &#45; L</text>
</g>
<!-- cool_ideas_WARP_budget_elasticity -->
<g id="node53" class="node">
<title>cool_ideas_WARP_budget_elasticity</title>
<path fill="#d4e8f7" stroke="black" d="M7121.93,-320.5C7121.93,-320.5 7026.07,-320.5 7026.07,-320.5 7021.88,-320.5 7017.68,-316.3 7017.68,-312.1 7017.68,-312.1 7017.68,-303.7 7017.68,-303.7 7017.68,-299.5 7021.88,-295.3 7026.07,-295.3 7026.07,-295.3 7121.93,-295.3 7121.93,-295.3 7126.12,-295.3 7130.32,-299.5 7130.32,-303.7 7130.32,-303.7 7130.32,-312.1 7130.32,-312.1 7130.32,-316.3 7126.12,-320.5 7121.93,-320.5"/>
<text xml:space="preserve" text-anchor="middle" x="7074" y="-304.8" font-family="Helvetica,sans-Serif" font-size="8.00">WARP&#45;budget&#45;elasticity &#45; M</text>
</g>
<!-- cool_ideas_WARP_causal_blame_for_staged_artifacts -->
<g id="node54" class="node">
<title>cool_ideas_WARP_causal_blame_for_staged_artifacts</title>
<path fill="#d4e8f7" stroke="black" d="M7081.18,-173.6C7081.18,-173.6 6926.82,-173.6 6926.82,-173.6 6922.62,-173.6 6918.43,-169.4 6918.43,-165.2 6918.43,-165.2 6918.43,-156.8 6918.43,-156.8 6918.43,-152.6 6922.62,-148.4 6926.82,-148.4 6926.82,-148.4 7081.18,-148.4 7081.18,-148.4 7085.38,-148.4 7089.57,-152.6 7089.57,-156.8 7089.57,-156.8 7089.57,-165.2 7089.57,-165.2 7089.57,-169.4 7085.38,-173.6 7081.18,-173.6"/>
<text xml:space="preserve" text-anchor="middle" x="7004" y="-157.9" font-family="Helvetica,sans-Serif" font-size="8.00">WARP&#45;causal&#45;blame&#45;for&#45;staged&#45;artifacts &#45; L</text>
</g>
<!-- cool_ideas_WARP_codebase_entropy_trajectory -->
<g id="node56" class="node">
<title>cool_ideas_WARP_codebase_entropy_trajectory</title>
<path fill="#d4e8f7" stroke="black" d="M7291.68,-320.5C7291.68,-320.5 7152.32,-320.5 7152.32,-320.5 7148.12,-320.5 7143.93,-316.3 7143.93,-312.1 7143.93,-312.1 7143.93,-303.7 7143.93,-303.7 7143.93,-299.5 7148.12,-295.3 7152.32,-295.3 7152.32,-295.3 7291.68,-295.3 7291.68,-295.3 7295.88,-295.3 7300.07,-299.5 7300.07,-303.7 7300.07,-303.7 7300.07,-312.1 7300.07,-312.1 7300.07,-316.3 7295.88,-320.5 7291.68,-320.5"/>
<text xml:space="preserve" text-anchor="middle" x="7222" y="-304.8" font-family="Helvetica,sans-Serif" font-size="8.00">WARP&#45;codebase&#45;entropy&#45;trajectory &#45; M</text>
</g>
<!-- cool_ideas_WARP_counterfactual_refactoring -->
<g id="node58" class="node">
<title>cool_ideas_WARP_counterfactual_refactoring</title>
<path fill="#d4e8f7" stroke="black" d="M7299.68,-247.05C7299.68,-247.05 7166.32,-247.05 7166.32,-247.05 7162.12,-247.05 7157.93,-242.85 7157.93,-238.65 7157.93,-238.65 7157.93,-230.25 7157.93,-230.25 7157.93,-226.05 7162.12,-221.85 7166.32,-221.85 7166.32,-221.85 7299.68,-221.85 7299.68,-221.85 7303.88,-221.85 7308.07,-226.05 7308.07,-230.25 7308.07,-230.25 7308.07,-238.65 7308.07,-238.65 7308.07,-242.85 7303.88,-247.05 7299.68,-247.05"/>
<text xml:space="preserve" text-anchor="middle" x="7233" y="-231.35" font-family="Helvetica,sans-Serif" font-size="8.00">WARP&#45;counterfactual&#45;refactoring &#45; XL</text>
</g>
<!-- cool_ideas_WARP_codebase_entropy_trajectory&#45;&gt;cool_ideas_WARP_counterfactual_refactoring -->
<g id="edge7" class="edge">
<title>cool_ideas_WARP_codebase_entropy_trajectory&#45;&gt;cool_ideas_WARP_counterfactual_refactoring</title>
<path fill="none" stroke="#666666" d="M7223.82,-295.1C7225.54,-283.9 7228.16,-266.88 7230.16,-253.88"/>
<polygon fill="#666666" stroke="#666666" points="7231.88,-254.21 7230.91,-249 7228.42,-253.68 7231.88,-254.21"/>
<text xml:space="preserve" text-anchor="middle" x="7259.33" y="-268.65" font-family="Helvetica,sans-Serif" font-size="7.00">blocked_by/blocking</text>
</g>
<!-- cool_ideas_WARP_codebase_signature -->
<g id="node57" class="node">
<title>cool_ideas_WARP_codebase_signature</title>
<path fill="#d4e8f7" stroke="black" d="M7429.55,-320.5C7429.55,-320.5 7322.45,-320.5 7322.45,-320.5 7318.25,-320.5 7314.05,-316.3 7314.05,-312.1 7314.05,-312.1 7314.05,-303.7 7314.05,-303.7 7314.05,-299.5 7318.25,-295.3 7322.45,-295.3 7322.45,-295.3 7429.55,-295.3 7429.55,-295.3 7433.75,-295.3 7437.95,-299.5 7437.95,-303.7 7437.95,-303.7 7437.95,-312.1 7437.95,-312.1 7437.95,-316.3 7433.75,-320.5 7429.55,-320.5"/>
<text xml:space="preserve" text-anchor="middle" x="7376" y="-304.8" font-family="Helvetica,sans-Serif" font-size="8.00">WARP&#45;codebase&#45;signature &#45; L</text>
</g>
<!-- cool_ideas_WARP_structural_impact_prediction -->
<g id="node80" class="node">
<title>cool_ideas_WARP_structural_impact_prediction</title>
<path fill="#d4e8f7" stroke="black" d="M7302.3,-173.6C7302.3,-173.6 7163.7,-173.6 7163.7,-173.6 7159.5,-173.6 7155.3,-169.4 7155.3,-165.2 7155.3,-165.2 7155.3,-156.8 7155.3,-156.8 7155.3,-152.6 7159.5,-148.4 7163.7,-148.4 7163.7,-148.4 7302.3,-148.4 7302.3,-148.4 7306.5,-148.4 7310.7,-152.6 7310.7,-156.8 7310.7,-156.8 7310.7,-165.2 7310.7,-165.2 7310.7,-169.4 7306.5,-173.6 7302.3,-173.6"/>
<text xml:space="preserve" text-anchor="middle" x="7233" y="-157.9" font-family="Helvetica,sans-Serif" font-size="8.00">WARP&#45;structural&#45;impact&#45;prediction &#45; XL</text>
</g>
<!-- cool_ideas_WARP_counterfactual_refactoring&#45;&gt;cool_ideas_WARP_structural_impact_prediction -->
<g id="edge8" class="edge">
<title>cool_ideas_WARP_counterfactual_refactoring&#45;&gt;cool_ideas_WARP_structural_impact_prediction</title>
<path fill="none" stroke="#666666" d="M7233,-221.65C7233,-210.45 7233,-193.43 7233,-180.43"/>
<polygon fill="#666666" stroke="#666666" points="7234.75,-180.57 7233,-175.57 7231.25,-180.57 7234.75,-180.57"/>
<text xml:space="preserve" text-anchor="middle" x="7264.5" y="-195.2" font-family="Helvetica,sans-Serif" font-size="7.00">blocked_by/blocking</text>
</g>
<!-- cool_ideas_WARP_dead_symbol_detection -->
<g id="node59" class="node">
<title>cool_ideas_WARP_dead_symbol_detection</title>
<path fill="#d4e8f7" stroke="black" d="M7579.18,-320.5C7579.18,-320.5 7460.82,-320.5 7460.82,-320.5 7456.62,-320.5 7452.43,-316.3 7452.43,-312.1 7452.43,-312.1 7452.43,-303.7 7452.43,-303.7 7452.43,-299.5 7456.62,-295.3 7460.82,-295.3 7460.82,-295.3 7579.18,-295.3 7579.18,-295.3 7583.38,-295.3 7587.57,-299.5 7587.57,-303.7 7587.57,-303.7 7587.57,-312.1 7587.57,-312.1 7587.57,-316.3 7583.38,-320.5 7579.18,-320.5"/>
<text xml:space="preserve" text-anchor="middle" x="7520" y="-304.8" font-family="Helvetica,sans-Serif" font-size="8.00">WARP&#45;dead&#45;symbol&#45;detection &#45; S</text>
</g>
<!-- cool_ideas_WARP_degeneracy_warning -->
<g id="node60" class="node">
<title>cool_ideas_WARP_degeneracy_warning</title>
<path fill="#d4e8f7" stroke="black" d="M7722.18,-320.5C7722.18,-320.5 7609.82,-320.5 7609.82,-320.5 7605.62,-320.5 7601.43,-316.3 7601.43,-312.1 7601.43,-312.1 7601.43,-303.7 7601.43,-303.7 7601.43,-299.5 7605.62,-295.3 7609.82,-295.3 7609.82,-295.3 7722.18,-295.3 7722.18,-295.3 7726.38,-295.3 7730.57,-299.5 7730.57,-303.7 7730.57,-303.7 7730.57,-312.1 7730.57,-312.1 7730.57,-316.3 7726.38,-320.5 7722.18,-320.5"/>
<text xml:space="preserve" text-anchor="middle" x="7666" y="-304.8" font-family="Helvetica,sans-Serif" font-size="8.00">WARP&#45;degeneracy&#45;warning &#45; M</text>
</g>
<!-- cool_ideas_WARP_drift_sentinel -->
<g id="node61" class="node">
<title>cool_ideas_WARP_drift_sentinel</title>
<path fill="#d4e8f7" stroke="black" d="M9635.18,-247.05C9635.18,-247.05 9552.82,-247.05 9552.82,-247.05 9548.62,-247.05 9544.42,-242.85 9544.42,-238.65 9544.42,-238.65 9544.42,-230.25 9544.42,-230.25 9544.42,-226.05 9548.62,-221.85 9552.82,-221.85 9552.82,-221.85 9635.18,-221.85 9635.18,-221.85 9639.38,-221.85 9643.58,-226.05 9643.58,-230.25 9643.58,-230.25 9643.58,-238.65 9643.58,-238.65 9643.58,-242.85 9639.38,-247.05 9635.18,-247.05"/>
<text xml:space="preserve" text-anchor="middle" x="9594" y="-231.35" font-family="Helvetica,sans-Serif" font-size="8.00">WARP&#45;drift&#45;sentinel &#45; M</text>
</g>
<!-- cool_ideas_WARP_footprint_parallelism -->
<g id="node62" class="node">
<title>cool_ideas_WARP_footprint_parallelism</title>
<path fill="#d4e8f7" stroke="black" d="M7864.8,-320.5C7864.8,-320.5 7753.2,-320.5 7753.2,-320.5 7749,-320.5 7744.8,-316.3 7744.8,-312.1 7744.8,-312.1 7744.8,-303.7 7744.8,-303.7 7744.8,-299.5 7749,-295.3 7753.2,-295.3 7753.2,-295.3 7864.8,-295.3 7864.8,-295.3 7869,-295.3 7873.2,-299.5 7873.2,-303.7 7873.2,-303.7 7873.2,-312.1 7873.2,-312.1 7873.2,-316.3 7869,-320.5 7864.8,-320.5"/>
<text xml:space="preserve" text-anchor="middle" x="7809" y="-304.8" font-family="Helvetica,sans-Serif" font-size="8.00">WARP&#45;footprint&#45;parallelism &#45; XL</text>
</g>
<!-- cool_ideas_WARP_graft_pack -->
<g id="node63" class="node">
<title>cool_ideas_WARP_graft_pack</title>
<path fill="#d4e8f7" stroke="black" d="M7970.43,-320.5C7970.43,-320.5 7895.57,-320.5 7895.57,-320.5 7891.38,-320.5 7887.18,-316.3 7887.18,-312.1 7887.18,-312.1 7887.18,-303.7 7887.18,-303.7 7887.18,-299.5 7891.38,-295.3 7895.57,-295.3 7895.57,-295.3 7970.43,-295.3 7970.43,-295.3 7974.62,-295.3 7978.82,-299.5 7978.82,-303.7 7978.82,-303.7 7978.82,-312.1 7978.82,-312.1 7978.82,-316.3 7974.62,-320.5 7970.43,-320.5"/>
<text xml:space="preserve" text-anchor="middle" x="7933" y="-304.8" font-family="Helvetica,sans-Serif" font-size="8.00">WARP&#45;graft&#45;pack &#45; M</text>
</g>
<!-- cool_ideas_WARP_grouped_aggregate_queries -->
<g id="node64" class="node">
<title>cool_ideas_WARP_grouped_aggregate_queries</title>
<path fill="#d4e8f7" stroke="black" d="M8138.93,-320.5C8138.93,-320.5 8001.07,-320.5 8001.07,-320.5 7996.88,-320.5 7992.68,-316.3 7992.68,-312.1 7992.68,-312.1 7992.68,-303.7 7992.68,-303.7 7992.68,-299.5 7996.88,-295.3 8001.07,-295.3 8001.07,-295.3 8138.93,-295.3 8138.93,-295.3 8143.12,-295.3 8147.32,-299.5 8147.32,-303.7 8147.32,-303.7 8147.32,-312.1 8147.32,-312.1 8147.32,-316.3 8143.12,-320.5 8138.93,-320.5"/>
<text xml:space="preserve" text-anchor="middle" x="8070" y="-304.8" font-family="Helvetica,sans-Serif" font-size="8.00">WARP&#45;grouped&#45;aggregate&#45;queries &#45; M</text>
</g>
<!-- cool_ideas_WARP_intentional_degeneracy_privacy -->
<g id="node66" class="node">
<title>cool_ideas_WARP_intentional_degeneracy_privacy</title>
<path fill="#d4e8f7" stroke="black" d="M8317.8,-320.5C8317.8,-320.5 8170.2,-320.5 8170.2,-320.5 8166,-320.5 8161.8,-316.3 8161.8,-312.1 8161.8,-312.1 8161.8,-303.7 8161.8,-303.7 8161.8,-299.5 8166,-295.3 8170.2,-295.3 8170.2,-295.3 8317.8,-295.3 8317.8,-295.3 8322,-295.3 8326.2,-299.5 8326.2,-303.7 8326.2,-303.7 8326.2,-312.1 8326.2,-312.1 8326.2,-316.3 8322,-320.5 8317.8,-320.5"/>
<text xml:space="preserve" text-anchor="middle" x="8244" y="-304.8" font-family="Helvetica,sans-Serif" font-size="8.00">WARP&#45;intentional&#45;degeneracy&#45;privacy &#45; M</text>
</g>
<!-- cool_ideas_WARP_minimum_viable_context -->
<g id="node67" class="node">
<title>cool_ideas_WARP_minimum_viable_context</title>
<path fill="#d4e8f7" stroke="black" d="M8471.43,-320.5C8471.43,-320.5 8348.57,-320.5 8348.57,-320.5 8344.38,-320.5 8340.17,-316.3 8340.17,-312.1 8340.17,-312.1 8340.17,-303.7 8340.17,-303.7 8340.17,-299.5 8344.38,-295.3 8348.57,-295.3 8348.57,-295.3 8471.43,-295.3 8471.43,-295.3 8475.62,-295.3 8479.83,-299.5 8479.83,-303.7 8479.83,-303.7 8479.83,-312.1 8479.83,-312.1 8479.83,-316.3 8475.62,-320.5 8471.43,-320.5"/>
<text xml:space="preserve" text-anchor="middle" x="8410" y="-304.8" font-family="Helvetica,sans-Serif" font-size="8.00">WARP&#45;minimum&#45;viable&#45;context &#45; M</text>
</g>
<!-- cool_ideas_WARP_outline_diff_commit_trailer -->
<g id="node68" class="node">
<title>cool_ideas_WARP_outline_diff_commit_trailer</title>
<path fill="#d4e8f7" stroke="black" d="M8627.93,-320.5C8627.93,-320.5 8502.07,-320.5 8502.07,-320.5 8497.88,-320.5 8493.67,-316.3 8493.67,-312.1 8493.67,-312.1 8493.67,-303.7 8493.67,-303.7 8493.67,-299.5 8497.88,-295.3 8502.07,-295.3 8502.07,-295.3 8627.93,-295.3 8627.93,-295.3 8632.12,-295.3 8636.33,-299.5 8636.33,-303.7 8636.33,-303.7 8636.33,-312.1 8636.33,-312.1 8636.33,-316.3 8632.12,-320.5 8627.93,-320.5"/>
<text xml:space="preserve" text-anchor="middle" x="8565" y="-304.8" font-family="Helvetica,sans-Serif" font-size="8.00">WARP&#45;outline&#45;diff&#45;commit&#45;trailer &#45; S</text>
</g>
<!-- cool_ideas_WARP_projection_safety_classes -->
<g id="node69" class="node">
<title>cool_ideas_WARP_projection_safety_classes</title>
<path fill="#d4e8f7" stroke="black" d="M8784.93,-320.5C8784.93,-320.5 8659.07,-320.5 8659.07,-320.5 8654.88,-320.5 8650.67,-316.3 8650.67,-312.1 8650.67,-312.1 8650.67,-303.7 8650.67,-303.7 8650.67,-299.5 8654.88,-295.3 8659.07,-295.3 8659.07,-295.3 8784.93,-295.3 8784.93,-295.3 8789.12,-295.3 8793.33,-299.5 8793.33,-303.7 8793.33,-303.7 8793.33,-312.1 8793.33,-312.1 8793.33,-316.3 8789.12,-320.5 8784.93,-320.5"/>
<text xml:space="preserve" text-anchor="middle" x="8722" y="-304.8" font-family="Helvetica,sans-Serif" font-size="8.00">WARP&#45;projection&#45;safety&#45;classes &#45; M</text>
</g>
<!-- cool_ideas_WARP_provenance_dag&#45;&gt;cool_ideas_WARP_causal_blame_for_staged_artifacts -->
<g id="edge9" class="edge">
<title>cool_ideas_WARP_provenance_dag&#45;&gt;cool_ideas_WARP_causal_blame_for_staged_artifacts</title>
<path fill="none" stroke="#666666" d="M6942.22,-221.65C6954.46,-209.83 6973.41,-191.54 6987.09,-178.32"/>
<polygon fill="#666666" stroke="#666666" points="6988.04,-179.84 6990.43,-175.11 6985.61,-177.32 6988.04,-179.84"/>
<text xml:space="preserve" text-anchor="middle" x="7000.72" y="-195.2" font-family="Helvetica,sans-Serif" font-size="7.00">blocked_by/blocking</text>
</g>
<!-- cool_ideas_WARP_reasoning_trace_replay -->
<g id="node71" class="node">
<title>cool_ideas_WARP_reasoning_trace_replay</title>
<path fill="#d4e8f7" stroke="black" d="M6895.93,-173.6C6895.93,-173.6 6776.07,-173.6 6776.07,-173.6 6771.88,-173.6 6767.68,-169.4 6767.68,-165.2 6767.68,-165.2 6767.68,-156.8 6767.68,-156.8 6767.68,-152.6 6771.88,-148.4 6776.07,-148.4 6776.07,-148.4 6895.93,-148.4 6895.93,-148.4 6900.12,-148.4 6904.32,-152.6 6904.32,-156.8 6904.32,-156.8 6904.32,-165.2 6904.32,-165.2 6904.32,-169.4 6900.12,-173.6 6895.93,-173.6"/>
<text xml:space="preserve" text-anchor="middle" x="6836" y="-157.9" font-family="Helvetica,sans-Serif" font-size="8.00">WARP&#45;reasoning&#45;trace&#45;replay &#45; M</text>
</g>
<!-- cool_ideas_WARP_provenance_dag&#45;&gt;cool_ideas_WARP_reasoning_trace_replay -->
<g id="edge10" class="edge">
<title>cool_ideas_WARP_provenance_dag&#45;&gt;cool_ideas_WARP_reasoning_trace_replay</title>
<path fill="none" stroke="#666666" d="M6914.48,-221.65C6898.79,-209.73 6874.44,-191.22 6857.02,-177.98"/>
<polygon fill="#666666" stroke="#666666" points="6858.1,-176.6 6853.06,-174.97 6855.99,-179.39 6858.1,-176.6"/>
<text xml:space="preserve" text-anchor="middle" x="6917.32" y="-195.2" font-family="Helvetica,sans-Serif" font-size="7.00">blocked_by/blocking</text>
</g>
<!-- cool_ideas_WARP_rulial_heat_map -->
<g id="node72" class="node">
<title>cool_ideas_WARP_rulial_heat_map</title>
<path fill="#d4e8f7" stroke="black" d="M8906.3,-320.5C8906.3,-320.5 8815.7,-320.5 8815.7,-320.5 8811.5,-320.5 8807.3,-316.3 8807.3,-312.1 8807.3,-312.1 8807.3,-303.7 8807.3,-303.7 8807.3,-299.5 8811.5,-295.3 8815.7,-295.3 8815.7,-295.3 8906.3,-295.3 8906.3,-295.3 8910.5,-295.3 8914.7,-299.5 8914.7,-303.7 8914.7,-303.7 8914.7,-312.1 8914.7,-312.1 8914.7,-316.3 8910.5,-320.5 8906.3,-320.5"/>
<text xml:space="preserve" text-anchor="middle" x="8861" y="-304.8" font-family="Helvetica,sans-Serif" font-size="8.00">WARP&#45;rulial&#45;heat&#45;map &#45; L</text>
</g>
<!-- cool_ideas_WARP_semantic_drift_in_sessions -->
<g id="node73" class="node">
<title>cool_ideas_WARP_semantic_drift_in_sessions</title>
<path fill="#d4e8f7" stroke="black" d="M9066.43,-320.5C9066.43,-320.5 8937.57,-320.5 8937.57,-320.5 8933.38,-320.5 8929.17,-316.3 8929.17,-312.1 8929.17,-312.1 8929.17,-303.7 8929.17,-303.7 8929.17,-299.5 8933.38,-295.3 8937.57,-295.3 8937.57,-295.3 9066.43,-295.3 9066.43,-295.3 9070.62,-295.3 9074.83,-299.5 9074.83,-303.7 9074.83,-303.7 9074.83,-312.1 9074.83,-312.1 9074.83,-316.3 9070.62,-320.5 9066.43,-320.5"/>
<text xml:space="preserve" text-anchor="middle" x="9002" y="-304.8" font-family="Helvetica,sans-Serif" font-size="8.00">WARP&#45;semantic&#45;drift&#45;in&#45;sessions &#45; M</text>
</g>
<!-- cool_ideas_WARP_semantic_merge_conflict_prediction -->
<g id="node74" class="node">
<title>cool_ideas_WARP_semantic_merge_conflict_prediction</title>
<path fill="#d4e8f7" stroke="black" d="M10232.43,-247.05C10232.43,-247.05 10073.57,-247.05 10073.57,-247.05 10069.38,-247.05 10065.17,-242.85 10065.17,-238.65 10065.17,-238.65 10065.17,-230.25 10065.17,-230.25 10065.17,-226.05 10069.38,-221.85 10073.57,-221.85 10073.57,-221.85 10232.43,-221.85 10232.43,-221.85 10236.62,-221.85 10240.83,-226.05 10240.83,-230.25 10240.83,-230.25 10240.83,-238.65 10240.83,-238.65 10240.83,-242.85 10236.62,-247.05 10232.43,-247.05"/>
<text xml:space="preserve" text-anchor="middle" x="10153" y="-231.35" font-family="Helvetica,sans-Serif" font-size="8.00">WARP&#45;semantic&#45;merge&#45;conflict&#45;prediction &#45; L</text>
</g>
<!-- cool_ideas_WARP_session_filtration -->
<g id="node75" class="node">
<title>cool_ideas_WARP_session_filtration</title>
<path fill="#d4e8f7" stroke="black" d="M9190.8,-320.5C9190.8,-320.5 9097.2,-320.5 9097.2,-320.5 9093,-320.5 9088.8,-316.3 9088.8,-312.1 9088.8,-312.1 9088.8,-303.7 9088.8,-303.7 9088.8,-299.5 9093,-295.3 9097.2,-295.3 9097.2,-295.3 9190.8,-295.3 9190.8,-295.3 9195,-295.3 9199.2,-299.5 9199.2,-303.7 9199.2,-303.7 9199.2,-312.1 9199.2,-312.1 9199.2,-316.3 9195,-320.5 9190.8,-320.5"/>
<text xml:space="preserve" text-anchor="middle" x="9144" y="-304.8" font-family="Helvetica,sans-Serif" font-size="8.00">WARP&#45;session&#45;filtration &#45; L</text>
</g>
<!-- cool_ideas_WARP_shadow_structural_workspaces -->
<g id="node76" class="node">
<title>cool_ideas_WARP_shadow_structural_workspaces</title>
<path fill="#d4e8f7" stroke="black" d="M9372.3,-320.5C9372.3,-320.5 9221.7,-320.5 9221.7,-320.5 9217.5,-320.5 9213.3,-316.3 9213.3,-312.1 9213.3,-312.1 9213.3,-303.7 9213.3,-303.7 9213.3,-299.5 9217.5,-295.3 9221.7,-295.3 9221.7,-295.3 9372.3,-295.3 9372.3,-295.3 9376.5,-295.3 9380.7,-299.5 9380.7,-303.7 9380.7,-303.7 9380.7,-312.1 9380.7,-312.1 9380.7,-316.3 9376.5,-320.5 9372.3,-320.5"/>
<text xml:space="preserve" text-anchor="middle" x="9297" y="-304.8" font-family="Helvetica,sans-Serif" font-size="8.00">WARP&#45;shadow&#45;structural&#45;workspaces &#45; XL</text>
</g>
<!-- cool_ideas_WARP_speculative_merge -->
<g id="node77" class="node">
<title>cool_ideas_WARP_speculative_merge</title>
<path fill="#d4e8f7" stroke="black" d="M9510.55,-320.5C9510.55,-320.5 9403.45,-320.5 9403.45,-320.5 9399.25,-320.5 9395.05,-316.3 9395.05,-312.1 9395.05,-312.1 9395.05,-303.7 9395.05,-303.7 9395.05,-299.5 9399.25,-295.3 9403.45,-295.3 9403.45,-295.3 9510.55,-295.3 9510.55,-295.3 9514.75,-295.3 9518.95,-299.5 9518.95,-303.7 9518.95,-303.7 9518.95,-312.1 9518.95,-312.1 9518.95,-316.3 9514.75,-320.5 9510.55,-320.5"/>
<text xml:space="preserve" text-anchor="middle" x="9457" y="-304.8" font-family="Helvetica,sans-Serif" font-size="8.00">WARP&#45;speculative&#45;merge &#45; XL</text>
</g>
<!-- cool_ideas_WARP_stale_docs_checker -->
<g id="node78" class="node">
<title>cool_ideas_WARP_stale_docs_checker</title>
<path fill="#d4e8f7" stroke="black" d="M9646.8,-320.5C9646.8,-320.5 9541.2,-320.5 9541.2,-320.5 9537,-320.5 9532.8,-316.3 9532.8,-312.1 9532.8,-312.1 9532.8,-303.7 9532.8,-303.7 9532.8,-299.5 9537,-295.3 9541.2,-295.3 9541.2,-295.3 9646.8,-295.3 9646.8,-295.3 9651,-295.3 9655.2,-299.5 9655.2,-303.7 9655.2,-303.7 9655.2,-312.1 9655.2,-312.1 9655.2,-316.3 9651,-320.5 9646.8,-320.5"/>
<text xml:space="preserve" text-anchor="middle" x="9594" y="-304.8" font-family="Helvetica,sans-Serif" font-size="8.00">WARP&#45;stale&#45;docs&#45;checker &#45; M</text>
</g>
<!-- cool_ideas_WARP_stale_docs_checker&#45;&gt;cool_ideas_WARP_drift_sentinel -->
<g id="edge11" class="edge">
<title>cool_ideas_WARP_stale_docs_checker&#45;&gt;cool_ideas_WARP_drift_sentinel</title>
<path fill="none" stroke="#666666" d="M9594,-295.1C9594,-283.9 9594,-266.88 9594,-253.88"/>
<polygon fill="#666666" stroke="#666666" points="9595.75,-254.02 9594,-249.02 9592.25,-254.02 9595.75,-254.02"/>
<text xml:space="preserve" text-anchor="middle" x="9625.5" y="-268.65" font-family="Helvetica,sans-Serif" font-size="7.00">blocked_by/blocking</text>
</g>
<!-- cool_ideas_WARP_structural_drift_detection -->
<g id="node79" class="node">
<title>cool_ideas_WARP_structural_drift_detection</title>
<path fill="#d4e8f7" stroke="black" d="M9800.8,-320.5C9800.8,-320.5 9677.2,-320.5 9677.2,-320.5 9673,-320.5 9668.8,-316.3 9668.8,-312.1 9668.8,-312.1 9668.8,-303.7 9668.8,-303.7 9668.8,-299.5 9673,-295.3 9677.2,-295.3 9677.2,-295.3 9800.8,-295.3 9800.8,-295.3 9805,-295.3 9809.2,-299.5 9809.2,-303.7 9809.2,-303.7 9809.2,-312.1 9809.2,-312.1 9809.2,-316.3 9805,-320.5 9800.8,-320.5"/>
<text xml:space="preserve" text-anchor="middle" x="9739" y="-304.8" font-family="Helvetica,sans-Serif" font-size="8.00">WARP&#45;structural&#45;drift&#45;detection &#45; M</text>
</g>
<!-- cool_ideas_WARP_symbol_heatmap -->
<g id="node81" class="node">
<title>cool_ideas_WARP_symbol_heatmap</title>
<path fill="#d4e8f7" stroke="black" d="M9930.05,-320.5C9930.05,-320.5 9831.95,-320.5 9831.95,-320.5 9827.75,-320.5 9823.55,-316.3 9823.55,-312.1 9823.55,-312.1 9823.55,-303.7 9823.55,-303.7 9823.55,-299.5 9827.75,-295.3 9831.95,-295.3 9831.95,-295.3 9930.05,-295.3 9930.05,-295.3 9934.25,-295.3 9938.45,-299.5 9938.45,-303.7 9938.45,-303.7 9938.45,-312.1 9938.45,-312.1 9938.45,-316.3 9934.25,-320.5 9930.05,-320.5"/>
<text xml:space="preserve" text-anchor="middle" x="9881" y="-304.8" font-family="Helvetica,sans-Serif" font-size="8.00">WARP&#45;symbol&#45;heatmap &#45; M</text>
</g>
<!-- cool_ideas_WARP_symbol_history_timeline -->
<g id="node82" class="node">
<title>cool_ideas_WARP_symbol_history_timeline</title>
<path fill="#d4e8f7" stroke="black" d="M10079.18,-320.5C10079.18,-320.5 9960.82,-320.5 9960.82,-320.5 9956.62,-320.5 9952.42,-316.3 9952.42,-312.1 9952.42,-312.1 9952.42,-303.7 9952.42,-303.7 9952.42,-299.5 9956.62,-295.3 9960.82,-295.3 9960.82,-295.3 10079.18,-295.3 10079.18,-295.3 10083.38,-295.3 10087.58,-299.5 10087.58,-303.7 10087.58,-303.7 10087.58,-312.1 10087.58,-312.1 10087.58,-316.3 10083.38,-320.5 10079.18,-320.5"/>
<text xml:space="preserve" text-anchor="middle" x="10020" y="-304.8" font-family="Helvetica,sans-Serif" font-size="8.00">WARP&#45;symbol&#45;history&#45;timeline &#45; S</text>
</g>
<!-- cool_ideas_WARP_temporal_structural_search -->
<g id="node84" class="node">
<title>cool_ideas_WARP_temporal_structural_search</title>
<path fill="#d4e8f7" stroke="black" d="M9860.68,-247.05C9860.68,-247.05 9727.32,-247.05 9727.32,-247.05 9723.12,-247.05 9718.92,-242.85 9718.92,-238.65 9718.92,-238.65 9718.92,-230.25 9718.92,-230.25 9718.92,-226.05 9723.12,-221.85 9727.32,-221.85 9727.32,-221.85 9860.68,-221.85 9860.68,-221.85 9864.88,-221.85 9869.08,-226.05 9869.08,-230.25 9869.08,-230.25 9869.08,-238.65 9869.08,-238.65 9869.08,-242.85 9864.88,-247.05 9860.68,-247.05"/>
<text xml:space="preserve" text-anchor="middle" x="9794" y="-231.35" font-family="Helvetica,sans-Serif" font-size="8.00">WARP&#45;temporal&#45;structural&#45;search &#45; M</text>
</g>
<!-- cool_ideas_WARP_symbol_history_timeline&#45;&gt;cool_ideas_WARP_temporal_structural_search -->
<g id="edge12" class="edge">
<title>cool_ideas_WARP_symbol_history_timeline&#45;&gt;cool_ideas_WARP_temporal_structural_search</title>
<path fill="none" stroke="#666666" d="M9981.92,-294.86C9942.23,-282.31 9880.1,-262.67 9838.26,-249.44"/>
<polygon fill="#666666" stroke="#666666" points="9838.98,-247.83 9833.68,-248 9837.92,-251.17 9838.98,-247.83"/>
<text xml:space="preserve" text-anchor="middle" x="9945.28" y="-268.65" font-family="Helvetica,sans-Serif" font-size="7.00">blocked_by/blocking</text>
</g>
<!-- cool_ideas_WARP_technical_debt_curvature -->
<g id="node83" class="node">
<title>cool_ideas_WARP_technical_debt_curvature</title>
<path fill="#d4e8f7" stroke="black" d="M10232.43,-320.5C10232.43,-320.5 10109.57,-320.5 10109.57,-320.5 10105.38,-320.5 10101.17,-316.3 10101.17,-312.1 10101.17,-312.1 10101.17,-303.7 10101.17,-303.7 10101.17,-299.5 10105.38,-295.3 10109.57,-295.3 10109.57,-295.3 10232.43,-295.3 10232.43,-295.3 10236.62,-295.3 10240.83,-299.5 10240.83,-303.7 10240.83,-303.7 10240.83,-312.1 10240.83,-312.1 10240.83,-316.3 10236.62,-320.5 10232.43,-320.5"/>
<text xml:space="preserve" text-anchor="middle" x="10171" y="-304.8" font-family="Helvetica,sans-Serif" font-size="8.00">WARP&#45;technical&#45;debt&#45;curvature &#45; L</text>
</g>
<!-- external_git_warp_observer_geometry_ladder__Rung_2_4_ -->
<g id="node85" class="node">
<title>external_git_warp_observer_geometry_ladder__Rung_2_4_</title>
<path fill="#e8f2ff" stroke="black" d="M1079.67,-320.5C1079.67,-320.5 916.32,-320.5 916.32,-320.5 912.12,-320.5 907.92,-316.3 907.92,-312.1 907.92,-312.1 907.92,-303.7 907.92,-303.7 907.92,-299.5 912.12,-295.3 916.32,-295.3 916.32,-295.3 1079.67,-295.3 1079.67,-295.3 1083.88,-295.3 1088.08,-299.5 1088.08,-303.7 1088.08,-303.7 1088.08,-312.1 1088.08,-312.1 1088.08,-316.3 1083.88,-320.5 1079.67,-320.5"/>
<text xml:space="preserve" text-anchor="middle" x="998" y="-304.8" font-family="Helvetica,sans-Serif" font-size="8.00">git&#45;warp observer geometry ladder (Rung 2&#45;4)</text>
</g>
<!-- external_git_warp_observer_geometry_ladder__Rung_2_4_&#45;&gt;v0_7_0_CORE_migrate_to_slice_first_reads -->
<g id="edge13" class="edge">
<title>external_git_warp_observer_geometry_ladder__Rung_2_4_&#45;&gt;v0_7_0_CORE_migrate_to_slice_first_reads</title>
<path fill="none" stroke="#4477aa" stroke-dasharray="5,2" d="M967.7,-294.94C936.5,-282.62 887.82,-263.41 854.28,-250.16"/>
<polygon fill="#4477aa" stroke="#4477aa" points="855.31,-248.69 850.02,-248.48 854.03,-251.95 855.31,-248.69"/>
<text xml:space="preserve" text-anchor="middle" x="944.8" y="-268.65" font-family="Helvetica,sans-Serif" font-size="7.00">blocked_by_external</text>
</g>
<!-- unresolved_CLEAN_CODE_export_diff_semver_signature_as_patch -->
<g id="node86" class="node">
<title>unresolved_CLEAN_CODE_export_diff_semver_signature_as_patch</title>
<path fill="#f2f2f2" stroke="black" stroke-dasharray="5,2" d="M10496.3,-320.5C10496.3,-320.5 10273.7,-320.5 10273.7,-320.5 10269.5,-320.5 10265.3,-316.3 10265.3,-312.1 10265.3,-312.1 10265.3,-303.7 10265.3,-303.7 10265.3,-299.5 10269.5,-295.3 10273.7,-295.3 10273.7,-295.3 10496.3,-295.3 10496.3,-295.3 10500.5,-295.3 10504.7,-299.5 10504.7,-303.7 10504.7,-303.7 10504.7,-312.1 10504.7,-312.1 10504.7,-316.3 10500.5,-320.5 10496.3,-320.5"/>
<text xml:space="preserve" text-anchor="middle" x="10385" y="-304.8" font-family="Helvetica,sans-Serif" font-size="8.00">missing: CLEAN_CODE_export&#45;diff&#45;semver&#45;signature&#45;as&#45;patch</text>
</g>
<!-- unresolved_CLEAN_CODE_export_diff_semver_signature_as_patch&#45;&gt;cool_ideas_WARP_auto_breaking_change_detection -->
<g id="edge14" class="edge">
<title>unresolved_CLEAN_CODE_export_diff_semver_signature_as_patch&#45;&gt;cool_ideas_WARP_auto_breaking_change_detection</title>
<path fill="none" stroke="#cc3333" stroke-dasharray="5,2" d="M10314.56,-294.86C10239.51,-282.03 10121.05,-261.78 10043.69,-248.56"/>
<polygon fill="#cc3333" stroke="#cc3333" points="10044.44,-246.91 10039.22,-247.79 10043.85,-250.36 10044.44,-246.91"/>
<text xml:space="preserve" text-anchor="middle" x="10206.16" y="-268.65" font-family="Helvetica,sans-Serif" font-size="7.00">blocked_by</text>
</g>
<!-- unresolved_CLEAN_CODE_export_diff_semver_signature_as_patch&#45;&gt;cool_ideas_WARP_semantic_merge_conflict_prediction -->
<g id="edge15" class="edge">
<title>unresolved_CLEAN_CODE_export_diff_semver_signature_as_patch&#45;&gt;cool_ideas_WARP_semantic_merge_conflict_prediction</title>
<path fill="none" stroke="#cc3333" stroke-dasharray="5,2" d="M10345.91,-294.86C10305.17,-282.31 10241.39,-262.67 10198.43,-249.44"/>
<polygon fill="#cc3333" stroke="#cc3333" points="10198.99,-247.78 10193.7,-247.98 10197.96,-251.13 10198.99,-247.78"/>
<text xml:space="preserve" text-anchor="middle" x="10293.58" y="-268.65" font-family="Helvetica,sans-Serif" font-size="7.00">blocked_by</text>
</g>
<!-- leg_v07 -->
<g id="node87" class="node">
<title>leg_v07</title>
<path fill="#ffa07a" stroke="black" stroke-width="2" d="M10621,-320.5C10621,-320.5 10537,-320.5 10537,-320.5 10532.8,-320.5 10528.6,-316.3 10528.6,-312.1 10528.6,-312.1 10528.6,-303.7 10528.6,-303.7 10528.6,-299.5 10532.8,-295.3 10537,-295.3 10537,-295.3 10621,-295.3 10621,-295.3 10625.2,-295.3 10629.4,-299.5 10629.4,-303.7 10629.4,-303.7 10629.4,-312.1 10629.4,-312.1 10629.4,-316.3 10625.2,-320.5 10621,-320.5"/>
<text xml:space="preserve" text-anchor="middle" x="10579" y="-305.38" font-family="Helvetica,sans-Serif" font-size="7.00">v0.7.0</text>
</g>
<!-- leg_bad -->
<g id="node88" class="node">
<title>leg_bad</title>
<path fill="#f6b3b3" stroke="black" stroke-width="2" d="M10621,-247.05C10621,-247.05 10537,-247.05 10537,-247.05 10532.8,-247.05 10528.6,-242.85 10528.6,-238.65 10528.6,-238.65 10528.6,-230.25 10528.6,-230.25 10528.6,-226.05 10532.8,-221.85 10537,-221.85 10537,-221.85 10621,-221.85 10621,-221.85 10625.2,-221.85 10629.4,-226.05 10629.4,-230.25 10629.4,-230.25 10629.4,-238.65 10629.4,-238.65 10629.4,-242.85 10625.2,-247.05 10621,-247.05"/>
<text xml:space="preserve" text-anchor="middle" x="10579" y="-231.92" font-family="Helvetica,sans-Serif" font-size="7.00">bad&#45;code</text>
</g>
<!-- leg_v07&#45;&gt;leg_bad -->
<!-- leg_idea -->
<g id="node89" class="node">
<title>leg_idea</title>
<path fill="#d4e8f7" stroke="black" d="M10621,-173.6C10621,-173.6 10537,-173.6 10537,-173.6 10532.8,-173.6 10528.6,-169.4 10528.6,-165.2 10528.6,-165.2 10528.6,-156.8 10528.6,-156.8 10528.6,-152.6 10532.8,-148.4 10537,-148.4 10537,-148.4 10621,-148.4 10621,-148.4 10625.2,-148.4 10629.4,-152.6 10629.4,-156.8 10629.4,-156.8 10629.4,-165.2 10629.4,-165.2 10629.4,-169.4 10625.2,-173.6 10621,-173.6"/>
<text xml:space="preserve" text-anchor="middle" x="10579" y="-158.47" font-family="Helvetica,sans-Serif" font-size="7.00">cool&#45;ideas</text>
</g>
<!-- leg_bad&#45;&gt;leg_idea -->
<!-- leg_external -->
<g id="node90" class="node">
<title>leg_external</title>
<path fill="#e8f2ff" stroke="black" d="M10621,-107.4C10621,-107.4 10537,-107.4 10537,-107.4 10532.8,-107.4 10528.6,-103.2 10528.6,-99 10528.6,-99 10528.6,-90.6 10528.6,-90.6 10528.6,-86.4 10532.8,-82.2 10537,-82.2 10537,-82.2 10621,-82.2 10621,-82.2 10625.2,-82.2 10629.4,-86.4 10629.4,-90.6 10629.4,-90.6 10629.4,-99 10629.4,-99 10629.4,-103.2 10625.2,-107.4 10621,-107.4"/>
<text xml:space="preserve" text-anchor="middle" x="10579" y="-92.28" font-family="Helvetica,sans-Serif" font-size="7.00">external blocker</text>
</g>
<!-- leg_idea&#45;&gt;leg_external -->
<!-- leg_unresolved -->
<g id="node91" class="node">
<title>leg_unresolved</title>
<path fill="#f2f2f2" stroke="black" stroke-dasharray="5,2" d="M10621,-41.2C10621,-41.2 10537,-41.2 10537,-41.2 10532.8,-41.2 10528.6,-37 10528.6,-32.8 10528.6,-32.8 10528.6,-24.4 10528.6,-24.4 10528.6,-20.2 10532.8,-16 10537,-16 10537,-16 10621,-16 10621,-16 10625.2,-16 10629.4,-20.2 10629.4,-24.4 10629.4,-24.4 10629.4,-32.8 10629.4,-32.8 10629.4,-37 10625.2,-41.2 10621,-41.2"/>
<text xml:space="preserve" text-anchor="middle" x="10579" y="-26.08" font-family="Helvetica,sans-Serif" font-size="7.00">unresolved ref</text>
</g>
<!-- leg_external&#45;&gt;leg_unresolved -->
</g>
</svg>
