<?xml version="1.0" encoding="UTF-8" standalone="no"?>
<!DOCTYPE svg PUBLIC "-//W3C//DTD SVG 1.1//EN"
 "http://www.w3.org/Graphics/SVG/1.1/DTD/svg11.dtd">
<!-- Generated by graphviz version 14.1.2 (20260124.0452)
 -->
<!-- Title: backlog Pages: 1 -->
<svg width="11303pt" height="449pt"
 viewBox="0.00 0.00 11303.00 449.00" xmlns="http://www.w3.org/2000/svg" xmlns:xlink="http://www.w3.org/1999/xlink">
<g id="graph0" class="graph" transform="scale(1 1) rotate(0) translate(4 445.2)">
<title>backlog</title>
<polygon fill="white" stroke="none" points="-4,4 -4,-445.2 11299,-445.2 11299,4 -4,4"/>
<text xml:space="preserve" text-anchor="middle" x="5647.5" y="-425.8" font-family="Helvetica,sans-Serif" font-size="12.00">Active backlog graph generated from docs/method/backlog/*/*.md</text>
<g id="clust1" class="cluster">
<title>cluster_v0_8_0</title>
<path fill="#fafafa" stroke="#cccccc" d="M20,-353.5C20,-353.5 1236,-353.5 1236,-353.5 1242,-353.5 1248,-359.5 1248,-365.5 1248,-365.5 1248,-400.45 1248,-400.45 1248,-406.45 1242,-412.45 1236,-412.45 1236,-412.45 20,-412.45 20,-412.45 14,-412.45 8,-406.45 8,-400.45 8,-400.45 8,-365.5 8,-365.5 8,-359.5 14,-353.5 20,-353.5"/>
<text xml:space="preserve" text-anchor="middle" x="35.12" y="-399.9" font-family="Helvetica,sans-Serif" font-size="9.00" fill="#555555">v0.8.0 (7)</text>
</g>
<g id="clust2" class="cluster">
<title>cluster_cool_ideas</title>
<path fill="#fafafa" stroke="#cccccc" d="M1268,-206.6C1268,-206.6 10683,-206.6 10683,-206.6 10689,-206.6 10695,-212.6 10695,-218.6 10695,-218.6 10695,-400.45 10695,-400.45 10695,-406.45 10689,-412.45 10683,-412.45 10683,-412.45 1268,-412.45 1268,-412.45 1262,-412.45 1256,-406.45 1256,-400.45 1256,-400.45 1256,-218.6 1256,-218.6 1256,-212.6 1262,-206.6 1268,-206.6"/>
<text xml:space="preserve" text-anchor="middle" x="1295.5" y="-399.9" font-family="Helvetica,sans-Serif" font-size="9.00" fill="#555555">Cool Ideas (75)</text>
</g>
<g id="clust3" class="cluster">
<title>cluster_external</title>
<path fill="#f8fbff" stroke="#cccccc" d="M10715,-353.5C10715,-353.5 10887,-353.5 10887,-353.5 10893,-353.5 10899,-359.5 10899,-365.5 10899,-365.5 10899,-400.45 10899,-400.45 10899,-406.45 10893,-412.45 10887,-412.45 10887,-412.45 10715,-412.45 10715,-412.45 10709,-412.45 10703,-406.45 10703,-400.45 10703,-400.45 10703,-365.5 10703,-365.5 10703,-359.5 10709,-353.5 10715,-353.5"/>
<text xml:space="preserve" text-anchor="middle" x="10746.25" y="-399.9" font-family="Helvetica,sans-Serif" font-size="9.00" fill="#555555">External blockers</text>
</g>
<g id="clust4" class="cluster">
<title>cluster_unresolved</title>
<path fill="#fff7f7" stroke="#cc3333" stroke-dasharray="5,2" d="M10919,-353.5C10919,-353.5 11151,-353.5 11151,-353.5 11157,-353.5 11163,-359.5 11163,-365.5 11163,-365.5 11163,-400.45 11163,-400.45 11163,-406.45 11157,-412.45 11151,-412.45 11151,-412.45 10919,-412.45 10919,-412.45 10913,-412.45 10907,-406.45 10907,-400.45 10907,-400.45 10907,-365.5 10907,-365.5 10907,-359.5 10913,-353.5 10919,-353.5"/>
<text xml:space="preserve" text-anchor="middle" x="10963.75" y="-399.9" font-family="Helvetica,sans-Serif" font-size="9.00" fill="#555555">Unresolved internal refs</text>
</g>
<g id="clust5" class="cluster">
<title>cluster_legend</title>
<path fill="none" stroke="#dddddd" d="M11183,-8C11183,-8 11275,-8 11275,-8 11281,-8 11287,-14 11287,-20 11287,-20 11287,-399.7 11287,-399.7 11287,-405.7 11281,-411.7 11275,-411.7 11275,-411.7 11183,-411.7 11183,-411.7 11177,-411.7 11171,-405.7 11171,-399.7 11171,-399.7 11171,-20 11171,-20 11171,-14 11177,-8 11183,-8"/>
<text xml:space="preserve" text-anchor="middle" x="11192.5" y="-400.1" font-family="Helvetica,sans-Serif" font-size="8.00" fill="#aaaaaa">Legend</text>
</g>
<!-- v0_8_0_CORE_pr_review_structural_summary -->
<g id="node1" class="node">
<title>v0_8_0_CORE_pr_review_structural_summary</title>
<path fill="#c8e6c9" stroke="black" stroke-width="2" d="M167.92,-386.7C167.92,-386.7 24.08,-386.7 24.08,-386.7 19.88,-386.7 15.67,-382.5 15.67,-378.3 15.67,-378.3 15.67,-369.9 15.67,-369.9 15.67,-365.7 19.88,-361.5 24.08,-361.5 24.08,-361.5 167.92,-361.5 167.92,-361.5 172.12,-361.5 176.32,-365.7 176.32,-369.9 176.32,-369.9 176.32,-378.3 176.32,-378.3 176.32,-382.5 172.12,-386.7 167.92,-386.7"/>
<text xml:space="preserve" text-anchor="middle" x="96" y="-371" font-family="Helvetica,sans-Serif" font-size="8.00">CORE&#45;pr&#45;review&#45;structural&#45;summary &#45; M</text>
</g>
<!-- v0_8_0_CORE_structural_test_coverage_map -->
<g id="node2" class="node">
<title>v0_8_0_CORE_structural_test_coverage_map</title>
<path fill="#c8e6c9" stroke="black" stroke-width="2" d="M340.8,-386.7C340.8,-386.7 199.2,-386.7 199.2,-386.7 195,-386.7 190.8,-382.5 190.8,-378.3 190.8,-378.3 190.8,-369.9 190.8,-369.9 190.8,-365.7 195,-361.5 199.2,-361.5 199.2,-361.5 340.8,-361.5 340.8,-361.5 345,-361.5 349.2,-365.7 349.2,-369.9 349.2,-369.9 349.2,-378.3 349.2,-378.3 349.2,-382.5 345,-386.7 340.8,-386.7"/>
<text xml:space="preserve" text-anchor="middle" x="270" y="-371" font-family="Helvetica,sans-Serif" font-size="8.00">CORE&#45;structural&#45;test&#45;coverage&#45;map &#45; M</text>
</g>
<!-- v0_8_0_CORE_tool_context_injection_contracts -->
<g id="node3" class="node">
<title>v0_8_0_CORE_tool_context_injection_contracts</title>
<path fill="#c8e6c9" stroke="black" stroke-width="2" d="M518.05,-386.7C518.05,-386.7 371.95,-386.7 371.95,-386.7 367.75,-386.7 363.55,-382.5 363.55,-378.3 363.55,-378.3 363.55,-369.9 363.55,-369.9 363.55,-365.7 367.75,-361.5 371.95,-361.5 371.95,-361.5 518.05,-361.5 518.05,-361.5 522.25,-361.5 526.45,-365.7 526.45,-369.9 526.45,-369.9 526.45,-378.3 526.45,-378.3 526.45,-382.5 522.25,-386.7 518.05,-386.7"/>
<text xml:space="preserve" text-anchor="middle" x="445" y="-371" font-family="Helvetica,sans-Serif" font-size="8.00">CORE&#45;tool&#45;context&#45;injection&#45;contracts &#45; M</text>
</g>
<!-- v0_8_0_SURFACE_git_graft_enhance_provenance_hints -->
<g id="node4" class="node">
<title>v0_8_0_SURFACE_git_graft_enhance_provenance_hints</title>
<path fill="#c8e6c9" stroke="black" stroke-width="2" d="M713.43,-386.7C713.43,-386.7 548.57,-386.7 548.57,-386.7 544.38,-386.7 540.17,-382.5 540.17,-378.3 540.17,-378.3 540.17,-369.9 540.17,-369.9 540.17,-365.7 544.38,-361.5 548.57,-361.5 548.57,-361.5 713.43,-361.5 713.43,-361.5 717.62,-361.5 721.83,-365.7 721.83,-369.9 721.83,-369.9 721.83,-378.3 721.83,-378.3 721.83,-382.5 717.62,-386.7 713.43,-386.7"/>
<text xml:space="preserve" text-anchor="middle" x="631" y="-371" font-family="Helvetica,sans-Serif" font-size="8.00">SURFACE&#45;git&#45;graft&#45;enhance&#45;provenance&#45;hints</text>
</g>
<!-- v0_8_0_SURFACE_pr_feedback_resolution_ledger -->
<g id="node5" class="node">
<title>v0_8_0_SURFACE_pr_feedback_resolution_ledger</title>
<path fill="#c8e6c9" stroke="black" stroke-width="2" d="M903.43,-386.7C903.43,-386.7 744.57,-386.7 744.57,-386.7 740.38,-386.7 736.17,-382.5 736.17,-378.3 736.17,-378.3 736.17,-369.9 736.17,-369.9 736.17,-365.7 740.38,-361.5 744.57,-361.5 744.57,-361.5 903.43,-361.5 903.43,-361.5 907.62,-361.5 911.83,-365.7 911.83,-369.9 911.83,-369.9 911.83,-378.3 911.83,-378.3 911.83,-382.5 907.62,-386.7 903.43,-386.7"/>
<text xml:space="preserve" text-anchor="middle" x="824" y="-371" font-family="Helvetica,sans-Serif" font-size="8.00">SURFACE&#45;pr&#45;feedback&#45;resolution&#45;ledger &#45; M</text>
</g>
<!-- v0_8_0_SURFACE_review_cooldown_status -->
<g id="node6" class="node">
<title>v0_8_0_SURFACE_review_cooldown_status</title>
<path fill="#c8e6c9" stroke="black" stroke-width="2" d="M1069.8,-386.7C1069.8,-386.7 934.2,-386.7 934.2,-386.7 930,-386.7 925.8,-382.5 925.8,-378.3 925.8,-378.3 925.8,-369.9 925.8,-369.9 925.8,-365.7 930,-361.5 934.2,-361.5 934.2,-361.5 1069.8,-361.5 1069.8,-361.5 1074,-361.5 1078.2,-365.7 1078.2,-369.9 1078.2,-369.9 1078.2,-378.3 1078.2,-378.3 1078.2,-382.5 1074,-386.7 1069.8,-386.7"/>
<text xml:space="preserve" text-anchor="middle" x="1002" y="-371" font-family="Helvetica,sans-Serif" font-size="8.00">SURFACE&#45;review&#45;cooldown&#45;status &#45; S</text>
</g>
<!-- v0_8_0_TEST_bounded_subprocess_policy -->
<g id="node7" class="node">
<title>v0_8_0_TEST_bounded_subprocess_policy</title>
<path fill="#c8e6c9" stroke="black" stroke-width="2" d="M1231.17,-386.7C1231.17,-386.7 1100.83,-386.7 1100.83,-386.7 1096.62,-386.7 1092.42,-382.5 1092.42,-378.3 1092.42,-378.3 1092.42,-369.9 1092.42,-369.9 1092.42,-365.7 1096.62,-361.5 1100.83,-361.5 1100.83,-361.5 1231.17,-361.5 1231.17,-361.5 1235.38,-361.5 1239.58,-365.7 1239.58,-369.9 1239.58,-369.9 1239.58,-378.3 1239.58,-378.3 1239.58,-382.5 1235.38,-386.7 1231.17,-386.7"/>
<text xml:space="preserve" text-anchor="middle" x="1166" y="-371" font-family="Helvetica,sans-Serif" font-size="8.00">TEST&#45;bounded&#45;subprocess&#45;policy &#45; S</text>
</g>
<!-- cool_ideas_bounded_neighborhood_for_references -->
<g id="node8" class="node">
<title>cool_ideas_bounded_neighborhood_for_references</title>
<path fill="#d4e8f7" stroke="black" d="M1421.17,-386.7C1421.17,-386.7 1272.83,-386.7 1272.83,-386.7 1268.62,-386.7 1264.42,-382.5 1264.42,-378.3 1264.42,-378.3 1264.42,-369.9 1264.42,-369.9 1264.42,-365.7 1268.62,-361.5 1272.83,-361.5 1272.83,-361.5 1421.17,-361.5 1421.17,-361.5 1425.38,-361.5 1429.58,-365.7 1429.58,-369.9 1429.58,-369.9 1429.58,-378.3 1429.58,-378.3 1429.58,-382.5 1425.38,-386.7 1421.17,-386.7"/>
<text xml:space="preserve" text-anchor="middle" x="1347" y="-371" font-family="Helvetica,sans-Serif" font-size="8.00">bounded&#45;neighborhood&#45;for&#45;references &#45; S</text>
</g>
<!-- cool_ideas_CI_001_causal_collapse_visualizer -->
<g id="node9" class="node">
<title>cool_ideas_CI_001_causal_collapse_visualizer</title>
<path fill="#d4e8f7" stroke="black" d="M7581.3,-313.25C7581.3,-313.25 7454.7,-313.25 7454.7,-313.25 7450.5,-313.25 7446.3,-309.05 7446.3,-304.85 7446.3,-304.85 7446.3,-296.45 7446.3,-296.45 7446.3,-292.25 7450.5,-288.05 7454.7,-288.05 7454.7,-288.05 7581.3,-288.05 7581.3,-288.05 7585.5,-288.05 7589.7,-292.25 7589.7,-296.45 7589.7,-296.45 7589.7,-304.85 7589.7,-304.85 7589.7,-309.05 7585.5,-313.25 7581.3,-313.25"/>
<text xml:space="preserve" text-anchor="middle" x="7518" y="-297.55" font-family="Helvetica,sans-Serif" font-size="8.00">CI&#45;001&#45;causal&#45;collapse&#45;visualizer &#45; L</text>
</g>
<!-- cool_ideas_CI_002_deterministic_scenario_replay -->
<g id="node10" class="node">
<title>cool_ideas_CI_002_deterministic_scenario_replay</title>
<path fill="#d4e8f7" stroke="black" d="M1591.67,-386.7C1591.67,-386.7 1452.33,-386.7 1452.33,-386.7 1448.12,-386.7 1443.92,-382.5 1443.92,-378.3 1443.92,-378.3 1443.92,-369.9 1443.92,-369.9 1443.92,-365.7 1448.12,-361.5 1452.33,-361.5 1452.33,-361.5 1591.67,-361.5 1591.67,-361.5 1595.88,-361.5 1600.08,-365.7 1600.08,-369.9 1600.08,-369.9 1600.08,-378.3 1600.08,-378.3 1600.08,-382.5 1595.88,-386.7 1591.67,-386.7"/>
<text xml:space="preserve" text-anchor="middle" x="1522" y="-371" font-family="Helvetica,sans-Serif" font-size="8.00">CI&#45;002&#45;deterministic&#45;scenario&#45;replay &#45; L</text>
</g>
<!-- cool_ideas_CI_003_mcp_native_diff_protocol -->
<g id="node11" class="node">
<title>cool_ideas_CI_003_mcp_native_diff_protocol</title>
<path fill="#d4e8f7" stroke="black" d="M1745.8,-386.7C1745.8,-386.7 1622.2,-386.7 1622.2,-386.7 1618,-386.7 1613.8,-382.5 1613.8,-378.3 1613.8,-378.3 1613.8,-369.9 1613.8,-369.9 1613.8,-365.7 1618,-361.5 1622.2,-361.5 1622.2,-361.5 1745.8,-361.5 1745.8,-361.5 1750,-361.5 1754.2,-365.7 1754.2,-369.9 1754.2,-369.9 1754.2,-378.3 1754.2,-378.3 1754.2,-382.5 1750,-386.7 1745.8,-386.7"/>
<text xml:space="preserve" text-anchor="middle" x="1684" y="-371" font-family="Helvetica,sans-Serif" font-size="8.00">CI&#45;003&#45;mcp&#45;native&#45;diff&#45;protocol &#45; M</text>
</g>
<!-- cool_ideas_CLEAN_CODE_parallel_agent_merge_shared_file_loss -->
<g id="node12" class="node">
<title>cool_ideas_CLEAN_CODE_parallel_agent_merge_shared_file_loss</title>
<path fill="#d4e8f7" stroke="black" d="M1977.05,-386.7C1977.05,-386.7 1776.95,-386.7 1776.95,-386.7 1772.75,-386.7 1768.55,-382.5 1768.55,-378.3 1768.55,-378.3 1768.55,-369.9 1768.55,-369.9 1768.55,-365.7 1772.75,-361.5 1776.95,-361.5 1776.95,-361.5 1977.05,-361.5 1977.05,-361.5 1981.25,-361.5 1985.45,-365.7 1985.45,-369.9 1985.45,-369.9 1985.45,-378.3 1985.45,-378.3 1985.45,-382.5 1981.25,-386.7 1977.05,-386.7"/>
<text xml:space="preserve" text-anchor="middle" x="1877" y="-371" font-family="Helvetica,sans-Serif" font-size="8.00">CLEAN&#45;CODE&#45;parallel&#45;agent&#45;merge&#45;shared&#45;file&#45;loss &#45; M</text>
</g>
<!-- cool_ideas_CORE_agent_handoff_protocol -->
<g id="node13" class="node">
<title>cool_ideas_CORE_agent_handoff_protocol</title>
<path fill="#d4e8f7" stroke="black" d="M2127.92,-386.7C2127.92,-386.7 2008.08,-386.7 2008.08,-386.7 2003.88,-386.7 1999.67,-382.5 1999.67,-378.3 1999.67,-378.3 1999.67,-369.9 1999.67,-369.9 1999.67,-365.7 2003.88,-361.5 2008.08,-361.5 2008.08,-361.5 2127.92,-361.5 2127.92,-361.5 2132.12,-361.5 2136.32,-365.7 2136.32,-369.9 2136.32,-369.9 2136.32,-378.3 2136.32,-378.3 2136.32,-382.5 2132.12,-386.7 2127.92,-386.7"/>
<text xml:space="preserve" text-anchor="middle" x="2068" y="-371" font-family="Helvetica,sans-Serif" font-size="8.00">CORE&#45;agent&#45;handoff&#45;protocol &#45; M</text>
</g>
<!-- cool_ideas_CORE_auto_focus -->
<g id="node14" class="node">
<title>cool_ideas_CORE_auto_focus</title>
<path fill="#d4e8f7" stroke="black" d="M2231.67,-386.7C2231.67,-386.7 2158.33,-386.7 2158.33,-386.7 2154.12,-386.7 2149.93,-382.5 2149.93,-378.3 2149.93,-378.3 2149.93,-369.9 2149.93,-369.9 2149.93,-365.7 2154.12,-361.5 2158.33,-361.5 2158.33,-361.5 2231.67,-361.5 2231.67,-361.5 2235.88,-361.5 2240.07,-365.7 2240.07,-369.9 2240.07,-369.9 2240.07,-378.3 2240.07,-378.3 2240.07,-382.5 2235.88,-386.7 2231.67,-386.7"/>
<text xml:space="preserve" text-anchor="middle" x="2195" y="-371" font-family="Helvetica,sans-Serif" font-size="8.00">CORE&#45;auto&#45;focus &#45; L</text>
</g>
<!-- cool_ideas_CORE_capture_range -->
<g id="node15" class="node">
<title>cool_ideas_CORE_capture_range</title>
<path fill="#d4e8f7" stroke="black" d="M2349.8,-386.7C2349.8,-386.7 2262.2,-386.7 2262.2,-386.7 2258,-386.7 2253.8,-382.5 2253.8,-378.3 2253.8,-378.3 2253.8,-369.9 2253.8,-369.9 2253.8,-365.7 2258,-361.5 2262.2,-361.5 2262.2,-361.5 2349.8,-361.5 2349.8,-361.5 2354,-361.5 2358.2,-365.7 2358.2,-369.9 2358.2,-369.9 2358.2,-378.3 2358.2,-378.3 2358.2,-382.5 2354,-386.7 2349.8,-386.7"/>
<text xml:space="preserve" text-anchor="middle" x="2306" y="-371" font-family="Helvetica,sans-Serif" font-size="8.00">CORE&#45;capture&#45;range &#45; S</text>
</g>
<!-- cool_ideas_CORE_constructor_in_disguise_lint -->
<g id="node16" class="node">
<title>cool_ideas_CORE_constructor_in_disguise_lint</title>
<path fill="#d4e8f7" stroke="black" d="M2511.55,-386.7C2511.55,-386.7 2380.45,-386.7 2380.45,-386.7 2376.25,-386.7 2372.05,-382.5 2372.05,-378.3 2372.05,-378.3 2372.05,-369.9 2372.05,-369.9 2372.05,-365.7 2376.25,-361.5 2380.45,-361.5 2380.45,-361.5 2511.55,-361.5 2511.55,-361.5 2515.75,-361.5 2519.95,-365.7 2519.95,-369.9 2519.95,-369.9 2519.95,-378.3 2519.95,-378.3 2519.95,-382.5 2515.75,-386.7 2511.55,-386.7"/>
<text xml:space="preserve" text-anchor="middle" x="2446" y="-371" font-family="Helvetica,sans-Serif" font-size="8.00">CORE&#45;constructor&#45;in&#45;disguise&#45;lint &#45; M</text>
</g>
<!-- cool_ideas_CORE_context_budget_forecasting -->
<g id="node17" class="node">
<title>cool_ideas_CORE_context_budget_forecasting</title>
<path fill="#d4e8f7" stroke="black" d="M2675.67,-386.7C2675.67,-386.7 2542.33,-386.7 2542.33,-386.7 2538.12,-386.7 2533.93,-382.5 2533.93,-378.3 2533.93,-378.3 2533.93,-369.9 2533.93,-369.9 2533.93,-365.7 2538.12,-361.5 2542.33,-361.5 2542.33,-361.5 2675.67,-361.5 2675.67,-361.5 2679.88,-361.5 2684.07,-365.7 2684.07,-369.9 2684.07,-369.9 2684.07,-378.3 2684.07,-378.3 2684.07,-382.5 2679.88,-386.7 2675.67,-386.7"/>
<text xml:space="preserve" text-anchor="middle" x="2609" y="-371" font-family="Helvetica,sans-Serif" font-size="8.00">CORE&#45;context&#45;budget&#45;forecasting &#45; M</text>
</g>
<!-- cool_ideas_CORE_conversation_primer -->
<g id="node18" class="node">
<title>cool_ideas_CORE_conversation_primer</title>
<path fill="#d4e8f7" stroke="black" d="M2815.67,-386.7C2815.67,-386.7 2706.33,-386.7 2706.33,-386.7 2702.12,-386.7 2697.93,-382.5 2697.93,-378.3 2697.93,-378.3 2697.93,-369.9 2697.93,-369.9 2697.93,-365.7 2702.12,-361.5 2706.33,-361.5 2706.33,-361.5 2815.67,-361.5 2815.67,-361.5 2819.88,-361.5 2824.07,-365.7 2824.07,-369.9 2824.07,-369.9 2824.07,-378.3 2824.07,-378.3 2824.07,-382.5 2819.88,-386.7 2815.67,-386.7"/>
<text xml:space="preserve" text-anchor="middle" x="2761" y="-371" font-family="Helvetica,sans-Serif" font-size="8.00">CORE&#45;conversation&#45;primer &#45; M</text>
</g>
<!-- cool_ideas_CORE_cross_session_resume -->
<g id="node19" class="node">
<title>cool_ideas_CORE_cross_session_resume</title>
<path fill="#d4e8f7" stroke="black" d="M2961.3,-386.7C2961.3,-386.7 2846.7,-386.7 2846.7,-386.7 2842.5,-386.7 2838.3,-382.5 2838.3,-378.3 2838.3,-378.3 2838.3,-369.9 2838.3,-369.9 2838.3,-365.7 2842.5,-361.5 2846.7,-361.5 2846.7,-361.5 2961.3,-361.5 2961.3,-361.5 2965.5,-361.5 2969.7,-365.7 2969.7,-369.9 2969.7,-369.9 2969.7,-378.3 2969.7,-378.3 2969.7,-382.5 2965.5,-386.7 2961.3,-386.7"/>
<text xml:space="preserve" text-anchor="middle" x="2904" y="-371" font-family="Helvetica,sans-Serif" font-size="8.00">CORE&#45;cross&#45;session&#45;resume &#45; S</text>
</g>
<!-- cool_ideas_CORE_graft_as_teacher -->
<g id="node20" class="node">
<title>cool_ideas_CORE_graft_as_teacher</title>
<path fill="#d4e8f7" stroke="black" d="M3086.17,-386.7C3086.17,-386.7 2991.83,-386.7 2991.83,-386.7 2987.62,-386.7 2983.43,-382.5 2983.43,-378.3 2983.43,-378.3 2983.43,-369.9 2983.43,-369.9 2983.43,-365.7 2987.62,-361.5 2991.83,-361.5 2991.83,-361.5 3086.17,-361.5 3086.17,-361.5 3090.38,-361.5 3094.57,-365.7 3094.57,-369.9 3094.57,-369.9 3094.57,-378.3 3094.57,-378.3 3094.57,-382.5 3090.38,-386.7 3086.17,-386.7"/>
<text xml:space="preserve" text-anchor="middle" x="3039" y="-371" font-family="Helvetica,sans-Serif" font-size="8.00">CORE&#45;graft&#45;as&#45;teacher &#45; S</text>
</g>
<!-- cool_ideas_CORE_graft_teach_learning_receipts -->
<g id="node21" class="node">
<title>cool_ideas_CORE_graft_teach_learning_receipts</title>
<path fill="#d4e8f7" stroke="black" d="M3254.92,-386.7C3254.92,-386.7 3117.08,-386.7 3117.08,-386.7 3112.88,-386.7 3108.68,-382.5 3108.68,-378.3 3108.68,-378.3 3108.68,-369.9 3108.68,-369.9 3108.68,-365.7 3112.88,-361.5 3117.08,-361.5 3117.08,-361.5 3254.92,-361.5 3254.92,-361.5 3259.12,-361.5 3263.32,-365.7 3263.32,-369.9 3263.32,-369.9 3263.32,-378.3 3263.32,-378.3 3263.32,-382.5 3259.12,-386.7 3254.92,-386.7"/>
<text xml:space="preserve" text-anchor="middle" x="3186" y="-371" font-family="Helvetica,sans-Serif" font-size="8.00">CORE&#45;graft&#45;teach&#45;learning&#45;receipts &#45; S</text>
</g>
<!-- cool_ideas_CORE_graft_tool_client -->
<g id="node22" class="node">
<title>cool_ideas_CORE_graft_tool_client</title>
<path fill="#d4e8f7" stroke="black" d="M3376.67,-386.7C3376.67,-386.7 3285.33,-386.7 3285.33,-386.7 3281.12,-386.7 3276.93,-382.5 3276.93,-378.3 3276.93,-378.3 3276.93,-369.9 3276.93,-369.9 3276.93,-365.7 3281.12,-361.5 3285.33,-361.5 3285.33,-361.5 3376.67,-361.5 3376.67,-361.5 3380.88,-361.5 3385.07,-365.7 3385.07,-369.9 3385.07,-369.9 3385.07,-378.3 3385.07,-378.3 3385.07,-382.5 3380.88,-386.7 3376.67,-386.7"/>
<text xml:space="preserve" text-anchor="middle" x="3331" y="-371" font-family="Helvetica,sans-Serif" font-size="8.00">CORE&#45;graft&#45;tool&#45;client &#45; M</text>
</g>
<!-- cool_ideas_CORE_horizon_of_readability -->
<g id="node23" class="node">
<title>cool_ideas_CORE_horizon_of_readability</title>
<path fill="#d4e8f7" stroke="black" d="M3520.55,-386.7C3520.55,-386.7 3407.45,-386.7 3407.45,-386.7 3403.25,-386.7 3399.05,-382.5 3399.05,-378.3 3399.05,-378.3 3399.05,-369.9 3399.05,-369.9 3399.05,-365.7 3403.25,-361.5 3407.45,-361.5 3407.45,-361.5 3520.55,-361.5 3520.55,-361.5 3524.75,-361.5 3528.95,-365.7 3528.95,-369.9 3528.95,-369.9 3528.95,-378.3 3528.95,-378.3 3528.95,-382.5 3524.75,-386.7 3520.55,-386.7"/>
<text xml:space="preserve" text-anchor="middle" x="3464" y="-371" font-family="Helvetica,sans-Serif" font-size="8.00">CORE&#45;horizon&#45;of&#45;readability &#45; M</text>
</g>
<!-- cool_ideas_CORE_lagrangian_policy -->
<g id="node24" class="node">
<title>cool_ideas_CORE_lagrangian_policy</title>
<path fill="#d4e8f7" stroke="black" d="M3652.55,-386.7C3652.55,-386.7 3551.45,-386.7 3551.45,-386.7 3547.25,-386.7 3543.05,-382.5 3543.05,-378.3 3543.05,-378.3 3543.05,-369.9 3543.05,-369.9 3543.05,-365.7 3547.25,-361.5 3551.45,-361.5 3551.45,-361.5 3652.55,-361.5 3652.55,-361.5 3656.75,-361.5 3660.95,-365.7 3660.95,-369.9 3660.95,-369.9 3660.95,-378.3 3660.95,-378.3 3660.95,-382.5 3656.75,-386.7 3652.55,-386.7"/>
<text xml:space="preserve" text-anchor="middle" x="3602" y="-371" font-family="Helvetica,sans-Serif" font-size="8.00">CORE&#45;lagrangian&#45;policy &#45; XL</text>
</g>
<!-- cool_ideas_CORE_migrate_to_slice_first_reads -->
<g id="node25" class="node">
<title>cool_ideas_CORE_migrate_to_slice_first_reads</title>
<path fill="#d4e8f7" stroke="black" d="M10306.8,-313.25C10306.8,-313.25 10189.2,-313.25 10189.2,-313.25 10185,-313.25 10180.8,-309.05 10180.8,-304.85 10180.8,-304.85 10180.8,-296.45 10180.8,-296.45 10180.8,-292.25 10185,-288.05 10189.2,-288.05 10189.2,-288.05 10306.8,-288.05 10306.8,-288.05 10311,-288.05 10315.2,-292.25 10315.2,-296.45 10315.2,-296.45 10315.2,-304.85 10315.2,-304.85 10315.2,-309.05 10311,-313.25 10306.8,-313.25"/>
<text xml:space="preserve" text-anchor="middle" x="10248" y="-297.55" font-family="Helvetica,sans-Serif" font-size="8.00">CORE&#45;migrate&#45;to&#45;slice&#45;first&#45;reads</text>
</g>
<!-- cool_ideas_CORE_multi_agent_conflict_detection -->
<g id="node26" class="node">
<title>cool_ideas_CORE_multi_agent_conflict_detection</title>
<path fill="#d4e8f7" stroke="black" d="M3820.92,-386.7C3820.92,-386.7 3683.08,-386.7 3683.08,-386.7 3678.88,-386.7 3674.68,-382.5 3674.68,-378.3 3674.68,-378.3 3674.68,-369.9 3674.68,-369.9 3674.68,-365.7 3678.88,-361.5 3683.08,-361.5 3683.08,-361.5 3820.92,-361.5 3820.92,-361.5 3825.12,-361.5 3829.32,-365.7 3829.32,-369.9 3829.32,-369.9 3829.32,-378.3 3829.32,-378.3 3829.32,-382.5 3825.12,-386.7 3820.92,-386.7"/>
<text xml:space="preserve" text-anchor="middle" x="3752" y="-371" font-family="Helvetica,sans-Serif" font-size="8.00">CORE&#45;multi&#45;agent&#45;conflict&#45;detection &#45; L</text>
</g>
<!-- cool_ideas_CORE_policy_playground -->
<g id="node27" class="node">
<title>cool_ideas_CORE_policy_playground</title>
<path fill="#d4e8f7" stroke="black" d="M3950.42,-386.7C3950.42,-386.7 3851.58,-386.7 3851.58,-386.7 3847.38,-386.7 3843.18,-382.5 3843.18,-378.3 3843.18,-378.3 3843.18,-369.9 3843.18,-369.9 3843.18,-365.7 3847.38,-361.5 3851.58,-361.5 3851.58,-361.5 3950.42,-361.5 3950.42,-361.5 3954.62,-361.5 3958.82,-365.7 3958.82,-369.9 3958.82,-369.9 3958.82,-378.3 3958.82,-378.3 3958.82,-382.5 3954.62,-386.7 3950.42,-386.7"/>
<text xml:space="preserve" text-anchor="middle" x="3901" y="-371" font-family="Helvetica,sans-Serif" font-size="8.00">CORE&#45;policy&#45;playground &#45; S</text>
</g>
<!-- cool_ideas_CORE_policy_profiles -->
<g id="node28" class="node">
<title>cool_ideas_CORE_policy_profiles</title>
<path fill="#d4e8f7" stroke="black" d="M4067.05,-386.7C4067.05,-386.7 3980.95,-386.7 3980.95,-386.7 3976.75,-386.7 3972.55,-382.5 3972.55,-378.3 3972.55,-378.3 3972.55,-369.9 3972.55,-369.9 3972.55,-365.7 3976.75,-361.5 3980.95,-361.5 3980.95,-361.5 4067.05,-361.5 4067.05,-361.5 4071.25,-361.5 4075.45,-365.7 4075.45,-369.9 4075.45,-369.9 4075.45,-378.3 4075.45,-378.3 4075.45,-382.5 4071.25,-386.7 4067.05,-386.7"/>
<text xml:space="preserve" text-anchor="middle" x="4024" y="-371" font-family="Helvetica,sans-Serif" font-size="8.00">CORE&#45;policy&#45;profiles &#45; M</text>
</g>
<!-- cool_ideas_CORE_self_tuning_governor -->
<g id="node29" class="node">
<title>cool_ideas_CORE_self_tuning_governor</title>
<path fill="#d4e8f7" stroke="black" d="M4208.05,-386.7C4208.05,-386.7 4097.95,-386.7 4097.95,-386.7 4093.75,-386.7 4089.55,-382.5 4089.55,-378.3 4089.55,-378.3 4089.55,-369.9 4089.55,-369.9 4089.55,-365.7 4093.75,-361.5 4097.95,-361.5 4097.95,-361.5 4208.05,-361.5 4208.05,-361.5 4212.25,-361.5 4216.45,-365.7 4216.45,-369.9 4216.45,-369.9 4216.45,-378.3 4216.45,-378.3 4216.45,-382.5 4212.25,-386.7 4208.05,-386.7"/>
<text xml:space="preserve" text-anchor="middle" x="4153" y="-371" font-family="Helvetica,sans-Serif" font-size="8.00">CORE&#45;self&#45;tuning&#45;governor &#45; M</text>
</g>
<!-- cool_ideas_CORE_session_knowledge_map -->
<g id="node30" class="node">
<title>cool_ideas_CORE_session_knowledge_map</title>
<path fill="#d4e8f7" stroke="black" d="M4361.43,-386.7C4361.43,-386.7 4238.57,-386.7 4238.57,-386.7 4234.38,-386.7 4230.18,-382.5 4230.18,-378.3 4230.18,-378.3 4230.18,-369.9 4230.18,-369.9 4230.18,-365.7 4234.38,-361.5 4238.57,-361.5 4238.57,-361.5 4361.43,-361.5 4361.43,-361.5 4365.62,-361.5 4369.82,-365.7 4369.82,-369.9 4369.82,-369.9 4369.82,-378.3 4369.82,-378.3 4369.82,-382.5 4365.62,-386.7 4361.43,-386.7"/>
<text xml:space="preserve" text-anchor="middle" x="4300" y="-371" font-family="Helvetica,sans-Serif" font-size="8.00">CORE&#45;session&#45;knowledge&#45;map &#45; S</text>
</g>
<!-- cool_ideas_CORE_speculative_read_cost -->
<g id="node31" class="node">
<title>cool_ideas_CORE_speculative_read_cost</title>
<path fill="#d4e8f7" stroke="black" d="M4504.18,-386.7C4504.18,-386.7 4391.82,-386.7 4391.82,-386.7 4387.62,-386.7 4383.43,-382.5 4383.43,-378.3 4383.43,-378.3 4383.43,-369.9 4383.43,-369.9 4383.43,-365.7 4387.62,-361.5 4391.82,-361.5 4391.82,-361.5 4504.18,-361.5 4504.18,-361.5 4508.38,-361.5 4512.57,-365.7 4512.57,-369.9 4512.57,-369.9 4512.57,-378.3 4512.57,-378.3 4512.57,-382.5 4508.38,-386.7 4504.18,-386.7"/>
<text xml:space="preserve" text-anchor="middle" x="4448" y="-371" font-family="Helvetica,sans-Serif" font-size="8.00">CORE&#45;speculative&#45;read&#45;cost &#45; S</text>
</g>
<!-- cool_ideas_CORE_structural_session_replay -->
<g id="node32" class="node">
<title>cool_ideas_CORE_structural_session_replay</title>
<path fill="#d4e8f7" stroke="black" d="M4660.55,-386.7C4660.55,-386.7 4535.45,-386.7 4535.45,-386.7 4531.25,-386.7 4527.05,-382.5 4527.05,-378.3 4527.05,-378.3 4527.05,-369.9 4527.05,-369.9 4527.05,-365.7 4531.25,-361.5 4535.45,-361.5 4535.45,-361.5 4660.55,-361.5 4660.55,-361.5 4664.75,-361.5 4668.95,-365.7 4668.95,-369.9 4668.95,-369.9 4668.95,-378.3 4668.95,-378.3 4668.95,-382.5 4664.75,-386.7 4660.55,-386.7"/>
<text xml:space="preserve" text-anchor="middle" x="4598" y="-371" font-family="Helvetica,sans-Serif" font-size="8.00">CORE&#45;structural&#45;session&#45;replay &#45; M</text>
</g>
<!-- cool_ideas_CORE_wire_primitives_into_runtime -->
<g id="node33" class="node">
<title>cool_ideas_CORE_wire_primitives_into_runtime</title>
<path fill="#d4e8f7" stroke="black" d="M4826.43,-386.7C4826.43,-386.7 4691.57,-386.7 4691.57,-386.7 4687.38,-386.7 4683.18,-382.5 4683.18,-378.3 4683.18,-378.3 4683.18,-369.9 4683.18,-369.9 4683.18,-365.7 4687.38,-361.5 4691.57,-361.5 4691.57,-361.5 4826.43,-361.5 4826.43,-361.5 4830.62,-361.5 4834.82,-365.7 4834.82,-369.9 4834.82,-369.9 4834.82,-378.3 4834.82,-378.3 4834.82,-382.5 4830.62,-386.7 4826.43,-386.7"/>
<text xml:space="preserve" text-anchor="middle" x="4759" y="-371" font-family="Helvetica,sans-Serif" font-size="8.00">CORE&#45;wire&#45;primitives&#45;into&#45;runtime &#45; M</text>
</g>
<!-- cool_ideas_monitor_tick_ceiling_tracking -->
<g id="node34" class="node">
<title>cool_ideas_monitor_tick_ceiling_tracking</title>
<path fill="#d4e8f7" stroke="black" d="M4964.55,-386.7C4964.55,-386.7 4857.45,-386.7 4857.45,-386.7 4853.25,-386.7 4849.05,-382.5 4849.05,-378.3 4849.05,-378.3 4849.05,-369.9 4849.05,-369.9 4849.05,-365.7 4853.25,-361.5 4857.45,-361.5 4857.45,-361.5 4964.55,-361.5 4964.55,-361.5 4968.75,-361.5 4972.95,-365.7 4972.95,-369.9 4972.95,-369.9 4972.95,-378.3 4972.95,-378.3 4972.95,-382.5 4968.75,-386.7 4964.55,-386.7"/>
<text xml:space="preserve" text-anchor="middle" x="4911" y="-371" font-family="Helvetica,sans-Serif" font-size="8.00">monitor&#45;tick&#45;ceiling&#45;tracking &#45; S</text>
</g>
<!-- cool_ideas_WARP_background_indexing -->
<g id="node50" class="node">
<title>cool_ideas_WARP_background_indexing</title>
<path fill="#d4e8f7" stroke="black" d="M4967.55,-313.25C4967.55,-313.25 4854.45,-313.25 4854.45,-313.25 4850.25,-313.25 4846.05,-309.05 4846.05,-304.85 4846.05,-304.85 4846.05,-296.45 4846.05,-296.45 4846.05,-292.25 4850.25,-288.05 4854.45,-288.05 4854.45,-288.05 4967.55,-288.05 4967.55,-288.05 4971.75,-288.05 4975.95,-292.25 4975.95,-296.45 4975.95,-296.45 4975.95,-304.85 4975.95,-304.85 4975.95,-309.05 4971.75,-313.25 4967.55,-313.25"/>
<text xml:space="preserve" text-anchor="middle" x="4911" y="-297.55" font-family="Helvetica,sans-Serif" font-size="8.00">WARP&#45;background&#45;indexing &#45; M</text>
</g>
<!-- cool_ideas_monitor_tick_ceiling_tracking&#45;&gt;cool_ideas_WARP_background_indexing -->
<g id="edge1" class="edge">
<title>cool_ideas_monitor_tick_ceiling_tracking&#45;&gt;cool_ideas_WARP_background_indexing</title>
<path fill="none" stroke="#666666" d="M4911,-361.3C4911,-350.1 4911,-333.08 4911,-320.08"/>
<polygon fill="#666666" stroke="#666666" points="4912.75,-320.22 4911,-315.22 4909.25,-320.22 4912.75,-320.22"/>
<text xml:space="preserve" text-anchor="middle" x="4942.5" y="-334.85" font-family="Helvetica,sans-Serif" font-size="7.00">blocked_by/blocking</text>
</g>
<!-- cool_ideas_SURFACE_active_causal_workspace_status -->
<g id="node35" class="node">
<title>cool_ideas_SURFACE_active_causal_workspace_status</title>
<path fill="#d4e8f7" stroke="black" d="M5159.05,-386.7C5159.05,-386.7 4994.95,-386.7 4994.95,-386.7 4990.75,-386.7 4986.55,-382.5 4986.55,-378.3 4986.55,-378.3 4986.55,-369.9 4986.55,-369.9 4986.55,-365.7 4990.75,-361.5 4994.95,-361.5 4994.95,-361.5 5159.05,-361.5 5159.05,-361.5 5163.25,-361.5 5167.45,-365.7 5167.45,-369.9 5167.45,-369.9 5167.45,-378.3 5167.45,-378.3 5167.45,-382.5 5163.25,-386.7 5159.05,-386.7"/>
<text xml:space="preserve" text-anchor="middle" x="5077" y="-371" font-family="Helvetica,sans-Serif" font-size="8.00">SURFACE&#45;active&#45;causal&#45;workspace&#45;status &#45; M</text>
</g>
<!-- cool_ideas_SURFACE_ide_native_graft_integration -->
<g id="node40" class="node">
<title>cool_ideas_SURFACE_ide_native_graft_integration</title>
<path fill="#d4e8f7" stroke="black" d="M5152.3,-313.25C5152.3,-313.25 5001.7,-313.25 5001.7,-313.25 4997.5,-313.25 4993.3,-309.05 4993.3,-304.85 4993.3,-304.85 4993.3,-296.45 4993.3,-296.45 4993.3,-292.25 4997.5,-288.05 5001.7,-288.05 5001.7,-288.05 5152.3,-288.05 5152.3,-288.05 5156.5,-288.05 5160.7,-292.25 5160.7,-296.45 5160.7,-296.45 5160.7,-304.85 5160.7,-304.85 5160.7,-309.05 5156.5,-313.25 5152.3,-313.25"/>
<text xml:space="preserve" text-anchor="middle" x="5077" y="-297.55" font-family="Helvetica,sans-Serif" font-size="8.00">SURFACE&#45;ide&#45;native&#45;graft&#45;integration &#45; XL</text>
</g>
<!-- cool_ideas_SURFACE_active_causal_workspace_status&#45;&gt;cool_ideas_SURFACE_ide_native_graft_integration -->
<g id="edge2" class="edge">
<title>cool_ideas_SURFACE_active_causal_workspace_status&#45;&gt;cool_ideas_SURFACE_ide_native_graft_integration</title>
<path fill="none" stroke="#666666" d="M5077,-361.3C5077,-350.1 5077,-333.08 5077,-320.08"/>
<polygon fill="#666666" stroke="#666666" points="5078.75,-320.22 5077,-315.22 5075.25,-320.22 5078.75,-320.22"/>
<text xml:space="preserve" text-anchor="middle" x="5108.5" y="-334.85" font-family="Helvetica,sans-Serif" font-size="7.00">blocked_by/blocking</text>
</g>
<!-- cool_ideas_SURFACE_attach_to_existing_causal_session -->
<g id="node36" class="node">
<title>cool_ideas_SURFACE_attach_to_existing_causal_session</title>
<path fill="#d4e8f7" stroke="black" d="M5358.3,-386.7C5358.3,-386.7 5189.7,-386.7 5189.7,-386.7 5185.5,-386.7 5181.3,-382.5 5181.3,-378.3 5181.3,-378.3 5181.3,-369.9 5181.3,-369.9 5181.3,-365.7 5185.5,-361.5 5189.7,-361.5 5189.7,-361.5 5358.3,-361.5 5358.3,-361.5 5362.5,-361.5 5366.7,-365.7 5366.7,-369.9 5366.7,-369.9 5366.7,-378.3 5366.7,-378.3 5366.7,-382.5 5362.5,-386.7 5358.3,-386.7"/>
<text xml:space="preserve" text-anchor="middle" x="5274" y="-371" font-family="Helvetica,sans-Serif" font-size="8.00">SURFACE&#45;attach&#45;to&#45;existing&#45;causal&#45;session &#45; M</text>
</g>
<!-- cool_ideas_SURFACE_bijou_daemon_control_plane_actions -->
<g id="node37" class="node">
<title>cool_ideas_SURFACE_bijou_daemon_control_plane_actions</title>
<path fill="#d4e8f7" stroke="black" d="M5566.43,-386.7C5566.43,-386.7 5389.57,-386.7 5389.57,-386.7 5385.38,-386.7 5381.18,-382.5 5381.18,-378.3 5381.18,-378.3 5381.18,-369.9 5381.18,-369.9 5381.18,-365.7 5385.38,-361.5 5389.57,-361.5 5389.57,-361.5 5566.43,-361.5 5566.43,-361.5 5570.62,-361.5 5574.82,-365.7 5574.82,-369.9 5574.82,-369.9 5574.82,-378.3 5574.82,-378.3 5574.82,-382.5 5570.62,-386.7 5566.43,-386.7"/>
<text xml:space="preserve" text-anchor="middle" x="5478" y="-371" font-family="Helvetica,sans-Serif" font-size="8.00">SURFACE&#45;bijou&#45;daemon&#45;control&#45;plane&#45;actions &#45; L</text>
</g>
<!-- cool_ideas_SURFACE_bijou_daemon_status_live_refresh -->
<g id="node38" class="node">
<title>cool_ideas_SURFACE_bijou_daemon_status_live_refresh</title>
<path fill="#d4e8f7" stroke="black" d="M5766.3,-386.7C5766.3,-386.7 5597.7,-386.7 5597.7,-386.7 5593.5,-386.7 5589.3,-382.5 5589.3,-378.3 5589.3,-378.3 5589.3,-369.9 5589.3,-369.9 5589.3,-365.7 5593.5,-361.5 5597.7,-361.5 5597.7,-361.5 5766.3,-361.5 5766.3,-361.5 5770.5,-361.5 5774.7,-365.7 5774.7,-369.9 5774.7,-369.9 5774.7,-378.3 5774.7,-378.3 5774.7,-382.5 5770.5,-386.7 5766.3,-386.7"/>
<text xml:space="preserve" text-anchor="middle" x="5682" y="-371" font-family="Helvetica,sans-Serif" font-size="8.00">SURFACE&#45;bijou&#45;daemon&#45;status&#45;live&#45;refresh &#45; M</text>
</g>
<!-- cool_ideas_SURFACE_git_graft_enhance_expanded_git_subcommands -->
<g id="node39" class="node">
<title>cool_ideas_SURFACE_git_graft_enhance_expanded_git_subcommands</title>
<path fill="#d4e8f7" stroke="black" d="M6001.3,-386.7C6001.3,-386.7 5796.7,-386.7 5796.7,-386.7 5792.5,-386.7 5788.3,-382.5 5788.3,-378.3 5788.3,-378.3 5788.3,-369.9 5788.3,-369.9 5788.3,-365.7 5792.5,-361.5 5796.7,-361.5 5796.7,-361.5 6001.3,-361.5 6001.3,-361.5 6005.5,-361.5 6009.7,-365.7 6009.7,-369.9 6009.7,-369.9 6009.7,-378.3 6009.7,-378.3 6009.7,-382.5 6005.5,-386.7 6001.3,-386.7"/>
<text xml:space="preserve" text-anchor="middle" x="5899" y="-371" font-family="Helvetica,sans-Serif" font-size="8.00">SURFACE&#45;git&#45;graft&#45;enhance&#45;expanded&#45;git&#45;subcommands</text>
</g>
<!-- cool_ideas_SURFACE_init_dry_run -->
<g id="node41" class="node">
<title>cool_ideas_SURFACE_init_dry_run</title>
<path fill="#d4e8f7" stroke="black" d="M6122.3,-386.7C6122.3,-386.7 6031.7,-386.7 6031.7,-386.7 6027.5,-386.7 6023.3,-382.5 6023.3,-378.3 6023.3,-378.3 6023.3,-369.9 6023.3,-369.9 6023.3,-365.7 6027.5,-361.5 6031.7,-361.5 6031.7,-361.5 6122.3,-361.5 6122.3,-361.5 6126.5,-361.5 6130.7,-365.7 6130.7,-369.9 6130.7,-369.9 6130.7,-378.3 6130.7,-378.3 6130.7,-382.5 6126.5,-386.7 6122.3,-386.7"/>
<text xml:space="preserve" text-anchor="middle" x="6077" y="-371" font-family="Helvetica,sans-Serif" font-size="8.00">SURFACE&#45;init&#45;dry&#45;run &#45; S</text>
</g>
<!-- cool_ideas_SURFACE_local_history_dag_render_mode_and_count_legend -->
<g id="node42" class="node">
<title>cool_ideas_SURFACE_local_history_dag_render_mode_and_count_legend</title>
<path fill="#d4e8f7" stroke="black" d="M6379.18,-386.7C6379.18,-386.7 6152.82,-386.7 6152.82,-386.7 6148.62,-386.7 6144.43,-382.5 6144.43,-378.3 6144.43,-378.3 6144.43,-369.9 6144.43,-369.9 6144.43,-365.7 6148.62,-361.5 6152.82,-361.5 6152.82,-361.5 6379.18,-361.5 6379.18,-361.5 6383.38,-361.5 6387.57,-365.7 6387.57,-369.9 6387.57,-369.9 6387.57,-378.3 6387.57,-378.3 6387.57,-382.5 6383.38,-386.7 6379.18,-386.7"/>
<text xml:space="preserve" text-anchor="middle" x="6266" y="-371" font-family="Helvetica,sans-Serif" font-size="8.00">SURFACE&#45;local&#45;history&#45;dag&#45;render&#45;mode&#45;and&#45;count&#45;legend &#45; S</text>
</g>
<!-- cool_ideas_SURFACE_non_codex_instruction_bootstrap_parity -->
<g id="node43" class="node">
<title>cool_ideas_SURFACE_non_codex_instruction_bootstrap_parity</title>
<path fill="#d4e8f7" stroke="black" d="M6598.43,-386.7C6598.43,-386.7 6409.57,-386.7 6409.57,-386.7 6405.38,-386.7 6401.18,-382.5 6401.18,-378.3 6401.18,-378.3 6401.18,-369.9 6401.18,-369.9 6401.18,-365.7 6405.38,-361.5 6409.57,-361.5 6409.57,-361.5 6598.43,-361.5 6598.43,-361.5 6602.62,-361.5 6606.82,-365.7 6606.82,-369.9 6606.82,-369.9 6606.82,-378.3 6606.82,-378.3 6606.82,-382.5 6602.62,-386.7 6598.43,-386.7"/>
<text xml:space="preserve" text-anchor="middle" x="6504" y="-371" font-family="Helvetica,sans-Serif" font-size="8.00">SURFACE&#45;non&#45;codex&#45;instruction&#45;bootstrap&#45;parity &#45; M</text>
</g>
<!-- cool_ideas_SURFACE_offer_rename_refactor -->
<g id="node44" class="node">
<title>cool_ideas_SURFACE_offer_rename_refactor</title>
<path fill="#d4e8f7" stroke="black" d="M6758.43,-386.7C6758.43,-386.7 6629.57,-386.7 6629.57,-386.7 6625.38,-386.7 6621.18,-382.5 6621.18,-378.3 6621.18,-378.3 6621.18,-369.9 6621.18,-369.9 6621.18,-365.7 6625.38,-361.5 6629.57,-361.5 6629.57,-361.5 6758.43,-361.5 6758.43,-361.5 6762.62,-361.5 6766.82,-365.7 6766.82,-369.9 6766.82,-369.9 6766.82,-378.3 6766.82,-378.3 6766.82,-382.5 6762.62,-386.7 6758.43,-386.7"/>
<text xml:space="preserve" text-anchor="middle" x="6694" y="-371" font-family="Helvetica,sans-Serif" font-size="8.00">SURFACE&#45;offer&#45;rename&#45;refactor &#45; L</text>
</g>
<!-- cool_ideas_SURFACE_terminal_activity_browser_tui -->
<g id="node45" class="node">
<title>cool_ideas_SURFACE_terminal_activity_browser_tui</title>
<path fill="#d4e8f7" stroke="black" d="M6938.55,-386.7C6938.55,-386.7 6789.45,-386.7 6789.45,-386.7 6785.25,-386.7 6781.05,-382.5 6781.05,-378.3 6781.05,-378.3 6781.05,-369.9 6781.05,-369.9 6781.05,-365.7 6785.25,-361.5 6789.45,-361.5 6789.45,-361.5 6938.55,-361.5 6938.55,-361.5 6942.75,-361.5 6946.95,-365.7 6946.95,-369.9 6946.95,-369.9 6946.95,-378.3 6946.95,-378.3 6946.95,-382.5 6942.75,-386.7 6938.55,-386.7"/>
<text xml:space="preserve" text-anchor="middle" x="6864" y="-371" font-family="Helvetica,sans-Serif" font-size="8.00">SURFACE&#45;terminal&#45;activity&#45;browser&#45;tui &#45; L</text>
</g>
<!-- cool_ideas_traverse_plus_query_hydration_helper -->
<g id="node46" class="node">
<title>cool_ideas_traverse_plus_query_hydration_helper</title>
<path fill="#d4e8f7" stroke="black" d="M7110.8,-386.7C7110.8,-386.7 6969.2,-386.7 6969.2,-386.7 6965,-386.7 6960.8,-382.5 6960.8,-378.3 6960.8,-378.3 6960.8,-369.9 6960.8,-369.9 6960.8,-365.7 6965,-361.5 6969.2,-361.5 6969.2,-361.5 7110.8,-361.5 7110.8,-361.5 7115,-361.5 7119.2,-365.7 7119.2,-369.9 7119.2,-369.9 7119.2,-378.3 7119.2,-378.3 7119.2,-382.5 7115,-386.7 7110.8,-386.7"/>
<text xml:space="preserve" text-anchor="middle" x="7040" y="-371" font-family="Helvetica,sans-Serif" font-size="8.00">traverse&#45;plus&#45;query&#45;hydration&#45;helper &#45; S</text>
</g>
<!-- cool_ideas_WARP_adaptive_projection_selection -->
<g id="node47" class="node">
<title>cool_ideas_WARP_adaptive_projection_selection</title>
<path fill="#d4e8f7" stroke="black" d="M7279.93,-386.7C7279.93,-386.7 7142.07,-386.7 7142.07,-386.7 7137.88,-386.7 7133.68,-382.5 7133.68,-378.3 7133.68,-378.3 7133.68,-369.9 7133.68,-369.9 7133.68,-365.7 7137.88,-361.5 7142.07,-361.5 7142.07,-361.5 7279.93,-361.5 7279.93,-361.5 7284.12,-361.5 7288.32,-365.7 7288.32,-369.9 7288.32,-369.9 7288.32,-378.3 7288.32,-378.3 7288.32,-382.5 7284.12,-386.7 7279.93,-386.7"/>
<text xml:space="preserve" text-anchor="middle" x="7211" y="-371" font-family="Helvetica,sans-Serif" font-size="8.00">WARP&#45;adaptive&#45;projection&#45;selection &#45; L</text>
</g>
<!-- cool_ideas_WARP_agent_action_provenance -->
<g id="node48" class="node">
<title>cool_ideas_WARP_agent_action_provenance</title>
<path fill="#d4e8f7" stroke="black" d="M7441.55,-386.7C7441.55,-386.7 7310.45,-386.7 7310.45,-386.7 7306.25,-386.7 7302.05,-382.5 7302.05,-378.3 7302.05,-378.3 7302.05,-369.9 7302.05,-369.9 7302.05,-365.7 7306.25,-361.5 7310.45,-361.5 7310.45,-361.5 7441.55,-361.5 7441.55,-361.5 7445.75,-361.5 7449.95,-365.7 7449.95,-369.9 7449.95,-369.9 7449.95,-378.3 7449.95,-378.3 7449.95,-382.5 7445.75,-386.7 7441.55,-386.7"/>
<text xml:space="preserve" text-anchor="middle" x="7376" y="-371" font-family="Helvetica,sans-Serif" font-size="8.00">WARP&#45;agent&#45;action&#45;provenance &#45; XL</text>
</g>
<!-- cool_ideas_WARP_agent_action_provenance&#45;&gt;cool_ideas_CI_001_causal_collapse_visualizer -->
<g id="edge3" class="edge">
<title>cool_ideas_WARP_agent_action_provenance&#45;&gt;cool_ideas_CI_001_causal_collapse_visualizer</title>
<path fill="none" stroke="#666666" d="M7401.81,-361.01C7414.04,-355.21 7428.83,-348.1 7442,-341.5 7457.99,-333.48 7475.7,-324.22 7490,-316.64"/>
<polygon fill="#666666" stroke="#666666" points="7490.57,-318.32 7494.16,-314.43 7488.92,-315.23 7490.57,-318.32"/>
<text xml:space="preserve" text-anchor="middle" x="7488.14" y="-334.85" font-family="Helvetica,sans-Serif" font-size="7.00">blocked_by/blocking</text>
</g>
<!-- cool_ideas_WARP_causal_write_tracking -->
<g id="node53" class="node">
<title>cool_ideas_WARP_causal_write_tracking</title>
<path fill="#d4e8f7" stroke="black" d="M7134.05,-313.25C7134.05,-313.25 7023.95,-313.25 7023.95,-313.25 7019.75,-313.25 7015.55,-309.05 7015.55,-304.85 7015.55,-304.85 7015.55,-296.45 7015.55,-296.45 7015.55,-292.25 7019.75,-288.05 7023.95,-288.05 7023.95,-288.05 7134.05,-288.05 7134.05,-288.05 7138.25,-288.05 7142.45,-292.25 7142.45,-296.45 7142.45,-296.45 7142.45,-304.85 7142.45,-304.85 7142.45,-309.05 7138.25,-313.25 7134.05,-313.25"/>
<text xml:space="preserve" text-anchor="middle" x="7079" y="-297.55" font-family="Helvetica,sans-Serif" font-size="8.00">WARP&#45;causal&#45;write&#45;tracking &#45; L</text>
</g>
<!-- cool_ideas_WARP_agent_action_provenance&#45;&gt;cool_ideas_WARP_causal_write_tracking -->
<g id="edge4" class="edge">
<title>cool_ideas_WARP_agent_action_provenance&#45;&gt;cool_ideas_WARP_causal_write_tracking</title>
<path fill="none" stroke="#666666" d="M7328.13,-361.03C7317.27,-358.43 7305.76,-355.78 7295,-353.5 7265.83,-347.32 7258.1,-348 7229,-341.5 7194.63,-333.82 7156.25,-323.6 7126.92,-315.43"/>
<polygon fill="#666666" stroke="#666666" points="7127.55,-313.78 7122.26,-314.12 7126.61,-317.16 7127.55,-313.78"/>
<text xml:space="preserve" text-anchor="middle" x="7260.5" y="-334.85" font-family="Helvetica,sans-Serif" font-size="7.00">blocked_by/blocking</text>
</g>
<!-- cool_ideas_WARP_intent_and_decision_events -->
<g id="node63" class="node">
<title>cool_ideas_WARP_intent_and_decision_events</title>
<path fill="#d4e8f7" stroke="black" d="M7297.3,-313.25C7297.3,-313.25 7164.7,-313.25 7164.7,-313.25 7160.5,-313.25 7156.3,-309.05 7156.3,-304.85 7156.3,-304.85 7156.3,-296.45 7156.3,-296.45 7156.3,-292.25 7160.5,-288.05 7164.7,-288.05 7164.7,-288.05 7297.3,-288.05 7297.3,-288.05 7301.5,-288.05 7305.7,-292.25 7305.7,-296.45 7305.7,-296.45 7305.7,-304.85 7305.7,-304.85 7305.7,-309.05 7301.5,-313.25 7297.3,-313.25"/>
<text xml:space="preserve" text-anchor="middle" x="7231" y="-297.55" font-family="Helvetica,sans-Serif" font-size="8.00">WARP&#45;intent&#45;and&#45;decision&#45;events &#45; M</text>
</g>
<!-- cool_ideas_WARP_agent_action_provenance&#45;&gt;cool_ideas_WARP_intent_and_decision_events -->
<g id="edge5" class="edge">
<title>cool_ideas_WARP_agent_action_provenance&#45;&gt;cool_ideas_WARP_intent_and_decision_events</title>
<path fill="none" stroke="#666666" d="M7350.55,-361.07C7338.27,-355.22 7323.34,-348.06 7310,-341.5 7293.45,-333.36 7275.05,-324.09 7260.17,-316.54"/>
<polygon fill="#666666" stroke="#666666" points="7261.04,-315.03 7255.79,-314.32 7259.46,-318.15 7261.04,-315.03"/>
<text xml:space="preserve" text-anchor="middle" x="7341.5" y="-334.85" font-family="Helvetica,sans-Serif" font-size="7.00">blocked_by/blocking</text>
</g>
<!-- cool_ideas_WARP_provenance_dag -->
<g id="node68" class="node">
<title>cool_ideas_WARP_provenance_dag</title>
<path fill="#d4e8f7" stroke="black" d="M7423.55,-313.25C7423.55,-313.25 7328.45,-313.25 7328.45,-313.25 7324.25,-313.25 7320.05,-309.05 7320.05,-304.85 7320.05,-304.85 7320.05,-296.45 7320.05,-296.45 7320.05,-292.25 7324.25,-288.05 7328.45,-288.05 7328.45,-288.05 7423.55,-288.05 7423.55,-288.05 7427.75,-288.05 7431.95,-292.25 7431.95,-296.45 7431.95,-296.45 7431.95,-304.85 7431.95,-304.85 7431.95,-309.05 7427.75,-313.25 7423.55,-313.25"/>
<text xml:space="preserve" text-anchor="middle" x="7376" y="-297.55" font-family="Helvetica,sans-Serif" font-size="8.00">WARP&#45;provenance&#45;dag &#45; L</text>
</g>
<!-- cool_ideas_WARP_agent_action_provenance&#45;&gt;cool_ideas_WARP_provenance_dag -->
<g id="edge6" class="edge">
<title>cool_ideas_WARP_agent_action_provenance&#45;&gt;cool_ideas_WARP_provenance_dag</title>
<path fill="none" stroke="#666666" d="M7376,-361.3C7376,-350.1 7376,-333.08 7376,-320.08"/>
<polygon fill="#666666" stroke="#666666" points="7377.75,-320.22 7376,-315.22 7374.25,-320.22 7377.75,-320.22"/>
<text xml:space="preserve" text-anchor="middle" x="7407.5" y="-334.85" font-family="Helvetica,sans-Serif" font-size="7.00">blocked_by/blocking</text>
</g>
<!-- cool_ideas_WARP_auto_breaking_change_detection -->
<g id="node49" class="node">
<title>cool_ideas_WARP_auto_breaking_change_detection</title>
<path fill="#d4e8f7" stroke="black" d="M10488.3,-313.25C10488.3,-313.25 10337.7,-313.25 10337.7,-313.25 10333.5,-313.25 10329.3,-309.05 10329.3,-304.85 10329.3,-304.85 10329.3,-296.45 10329.3,-296.45 10329.3,-292.25 10333.5,-288.05 10337.7,-288.05 10337.7,-288.05 10488.3,-288.05 10488.3,-288.05 10492.5,-288.05 10496.7,-292.25 10496.7,-296.45 10496.7,-296.45 10496.7,-304.85 10496.7,-304.85 10496.7,-309.05 10492.5,-313.25 10488.3,-313.25"/>
<text xml:space="preserve" text-anchor="middle" x="10413" y="-297.55" font-family="Helvetica,sans-Serif" font-size="8.00">WARP&#45;auto&#45;breaking&#45;change&#45;detection &#45; L</text>
</g>
<!-- cool_ideas_WARP_budget_elasticity -->
<g id="node51" class="node">
<title>cool_ideas_WARP_budget_elasticity</title>
<path fill="#d4e8f7" stroke="black" d="M7567.93,-386.7C7567.93,-386.7 7472.07,-386.7 7472.07,-386.7 7467.88,-386.7 7463.68,-382.5 7463.68,-378.3 7463.68,-378.3 7463.68,-369.9 7463.68,-369.9 7463.68,-365.7 7467.88,-361.5 7472.07,-361.5 7472.07,-361.5 7567.93,-361.5 7567.93,-361.5 7572.12,-361.5 7576.32,-365.7 7576.32,-369.9 7576.32,-369.9 7576.32,-378.3 7576.32,-378.3 7576.32,-382.5 7572.12,-386.7 7567.93,-386.7"/>
<text xml:space="preserve" text-anchor="middle" x="7520" y="-371" font-family="Helvetica,sans-Serif" font-size="8.00">WARP&#45;budget&#45;elasticity &#45; M</text>
</g>
<!-- cool_ideas_WARP_causal_blame_for_staged_artifacts -->
<g id="node52" class="node">
<title>cool_ideas_WARP_causal_blame_for_staged_artifacts</title>
<path fill="#d4e8f7" stroke="black" d="M7527.18,-239.8C7527.18,-239.8 7372.82,-239.8 7372.82,-239.8 7368.62,-239.8 7364.43,-235.6 7364.43,-231.4 7364.43,-231.4 7364.43,-223 7364.43,-223 7364.43,-218.8 7368.62,-214.6 7372.82,-214.6 7372.82,-214.6 7527.18,-214.6 7527.18,-214.6 7531.38,-214.6 7535.57,-218.8 7535.57,-223 7535.57,-223 7535.57,-231.4 7535.57,-231.4 7535.57,-235.6 7531.38,-239.8 7527.18,-239.8"/>
<text xml:space="preserve" text-anchor="middle" x="7450" y="-224.1" font-family="Helvetica,sans-Serif" font-size="8.00">WARP&#45;causal&#45;blame&#45;for&#45;staged&#45;artifacts &#45; L</text>
</g>
<!-- cool_ideas_WARP_codebase_entropy_trajectory -->
<g id="node54" class="node">
<title>cool_ideas_WARP_codebase_entropy_trajectory</title>
<path fill="#d4e8f7" stroke="black" d="M7737.68,-386.7C7737.68,-386.7 7598.32,-386.7 7598.32,-386.7 7594.12,-386.7 7589.93,-382.5 7589.93,-378.3 7589.93,-378.3 7589.93,-369.9 7589.93,-369.9 7589.93,-365.7 7594.12,-361.5 7598.32,-361.5 7598.32,-361.5 7737.68,-361.5 7737.68,-361.5 7741.88,-361.5 7746.07,-365.7 7746.07,-369.9 7746.07,-369.9 7746.07,-378.3 7746.07,-378.3 7746.07,-382.5 7741.88,-386.7 7737.68,-386.7"/>
<text xml:space="preserve" text-anchor="middle" x="7668" y="-371" font-family="Helvetica,sans-Serif" font-size="8.00">WARP&#45;codebase&#45;entropy&#45;trajectory &#45; M</text>
</g>
<!-- cool_ideas_WARP_counterfactual_refactoring -->
<g id="node56" class="node">
<title>cool_ideas_WARP_counterfactual_refactoring</title>
<path fill="#d4e8f7" stroke="black" d="M7745.68,-313.25C7745.68,-313.25 7612.32,-313.25 7612.32,-313.25 7608.12,-313.25 7603.93,-309.05 7603.93,-304.85 7603.93,-304.85 7603.93,-296.45 7603.93,-296.45 7603.93,-292.25 7608.12,-288.05 7612.32,-288.05 7612.32,-288.05 7745.68,-288.05 7745.68,-288.05 7749.88,-288.05 7754.07,-292.25 7754.07,-296.45 7754.07,-296.45 7754.07,-304.85 7754.07,-304.85 7754.07,-309.05 7749.88,-313.25 7745.68,-313.25"/>
<text xml:space="preserve" text-anchor="middle" x="7679" y="-297.55" font-family="Helvetica,sans-Serif" font-size="8.00">WARP&#45;counterfactual&#45;refactoring &#45; XL</text>
</g>
<!-- cool_ideas_WARP_codebase_entropy_trajectory&#45;&gt;cool_ideas_WARP_counterfactual_refactoring -->
<g id="edge7" class="edge">
<title>cool_ideas_WARP_codebase_entropy_trajectory&#45;&gt;cool_ideas_WARP_counterfactual_refactoring</title>
<path fill="none" stroke="#666666" d="M7669.82,-361.3C7671.54,-350.1 7674.16,-333.08 7676.16,-320.08"/>
<polygon fill="#666666" stroke="#666666" points="7677.88,-320.41 7676.91,-315.2 7674.42,-319.88 7677.88,-320.41"/>
<text xml:space="preserve" text-anchor="middle" x="7705.33" y="-334.85" font-family="Helvetica,sans-Serif" font-size="7.00">blocked_by/blocking</text>
</g>
<!-- cool_ideas_WARP_codebase_signature -->
<g id="node55" class="node">
<title>cool_ideas_WARP_codebase_signature</title>
<path fill="#d4e8f7" stroke="black" d="M7875.55,-386.7C7875.55,-386.7 7768.45,-386.7 7768.45,-386.7 7764.25,-386.7 7760.05,-382.5 7760.05,-378.3 7760.05,-378.3 7760.05,-369.9 7760.05,-369.9 7760.05,-365.7 7764.25,-361.5 7768.45,-361.5 7768.45,-361.5 7875.55,-361.5 7875.55,-361.5 7879.75,-361.5 7883.95,-365.7 7883.95,-369.9 7883.95,-369.9 7883.95,-378.3 7883.95,-378.3 7883.95,-382.5 7879.75,-386.7 7875.55,-386.7"/>
<text xml:space="preserve" text-anchor="middle" x="7822" y="-371" font-family="Helvetica,sans-Serif" font-size="8.00">WARP&#45;codebase&#45;signature &#45; L</text>
</g>
<!-- cool_ideas_WARP_structural_impact_prediction -->
<g id="node78" class="node">
<title>cool_ideas_WARP_structural_impact_prediction</title>
<path fill="#d4e8f7" stroke="black" d="M7748.3,-239.8C7748.3,-239.8 7609.7,-239.8 7609.7,-239.8 7605.5,-239.8 7601.3,-235.6 7601.3,-231.4 7601.3,-231.4 7601.3,-223 7601.3,-223 7601.3,-218.8 7605.5,-214.6 7609.7,-214.6 7609.7,-214.6 7748.3,-214.6 7748.3,-214.6 7752.5,-214.6 7756.7,-218.8 7756.7,-223 7756.7,-223 7756.7,-231.4 7756.7,-231.4 7756.7,-235.6 7752.5,-239.8 7748.3,-239.8"/>
<text xml:space="preserve" text-anchor="middle" x="7679" y="-224.1" font-family="Helvetica,sans-Serif" font-size="8.00">WARP&#45;structural&#45;impact&#45;prediction &#45; XL</text>
</g>
<!-- cool_ideas_WARP_counterfactual_refactoring&#45;&gt;cool_ideas_WARP_structural_impact_prediction -->
<g id="edge8" class="edge">
<title>cool_ideas_WARP_counterfactual_refactoring&#45;&gt;cool_ideas_WARP_structural_impact_prediction</title>
<path fill="none" stroke="#666666" d="M7679,-287.85C7679,-276.65 7679,-259.63 7679,-246.63"/>
<polygon fill="#666666" stroke="#666666" points="7680.75,-246.77 7679,-241.77 7677.25,-246.77 7680.75,-246.77"/>
<text xml:space="preserve" text-anchor="middle" x="7710.5" y="-261.4" font-family="Helvetica,sans-Serif" font-size="7.00">blocked_by/blocking</text>
</g>
<!-- cool_ideas_WARP_dead_symbol_detection -->
<g id="node57" class="node">
<title>cool_ideas_WARP_dead_symbol_detection</title>
<path fill="#d4e8f7" stroke="black" d="M8025.18,-386.7C8025.18,-386.7 7906.82,-386.7 7906.82,-386.7 7902.62,-386.7 7898.43,-382.5 7898.43,-378.3 7898.43,-378.3 7898.43,-369.9 7898.43,-369.9 7898.43,-365.7 7902.62,-361.5 7906.82,-361.5 7906.82,-361.5 8025.18,-361.5 8025.18,-361.5 8029.38,-361.5 8033.57,-365.7 8033.57,-369.9 8033.57,-369.9 8033.57,-378.3 8033.57,-378.3 8033.57,-382.5 8029.38,-386.7 8025.18,-386.7"/>
<text xml:space="preserve" text-anchor="middle" x="7966" y="-371" font-family="Helvetica,sans-Serif" font-size="8.00">WARP&#45;dead&#45;symbol&#45;detection &#45; S</text>
</g>
<!-- cool_ideas_WARP_degeneracy_warning -->
<g id="node58" class="node">
<title>cool_ideas_WARP_degeneracy_warning</title>
<path fill="#d4e8f7" stroke="black" d="M8168.18,-386.7C8168.18,-386.7 8055.82,-386.7 8055.82,-386.7 8051.62,-386.7 8047.43,-382.5 8047.43,-378.3 8047.43,-378.3 8047.43,-369.9 8047.43,-369.9 8047.43,-365.7 8051.62,-361.5 8055.82,-361.5 8055.82,-361.5 8168.18,-361.5 8168.18,-361.5 8172.38,-361.5 8176.57,-365.7 8176.57,-369.9 8176.57,-369.9 8176.57,-378.3 8176.57,-378.3 8176.57,-382.5 8172.38,-386.7 8168.18,-386.7"/>
<text xml:space="preserve" text-anchor="middle" x="8112" y="-371" font-family="Helvetica,sans-Serif" font-size="8.00">WARP&#45;degeneracy&#45;warning &#45; M</text>
</g>
<!-- cool_ideas_WARP_drift_sentinel -->
<g id="node59" class="node">
<title>cool_ideas_WARP_drift_sentinel</title>
<path fill="#d4e8f7" stroke="black" d="M9994.18,-313.25C9994.18,-313.25 9911.82,-313.25 9911.82,-313.25 9907.62,-313.25 9903.42,-309.05 9903.42,-304.85 9903.42,-304.85 9903.42,-296.45 9903.42,-296.45 9903.42,-292.25 9907.62,-288.05 9911.82,-288.05 9911.82,-288.05 9994.18,-288.05 9994.18,-288.05 9998.38,-288.05 10002.58,-292.25 10002.58,-296.45 10002.58,-296.45 10002.58,-304.85 10002.58,-304.85 10002.58,-309.05 9998.38,-313.25 9994.18,-313.25"/>
<text xml:space="preserve" text-anchor="middle" x="9953" y="-297.55" font-family="Helvetica,sans-Serif" font-size="8.00">WARP&#45;drift&#45;sentinel &#45; M</text>
</g>
<!-- cool_ideas_WARP_footprint_parallelism -->
<g id="node60" class="node">
<title>cool_ideas_WARP_footprint_parallelism</title>
<path fill="#d4e8f7" stroke="black" d="M8310.8,-386.7C8310.8,-386.7 8199.2,-386.7 8199.2,-386.7 8195,-386.7 8190.8,-382.5 8190.8,-378.3 8190.8,-378.3 8190.8,-369.9 8190.8,-369.9 8190.8,-365.7 8195,-361.5 8199.2,-361.5 8199.2,-361.5 8310.8,-361.5 8310.8,-361.5 8315,-361.5 8319.2,-365.7 8319.2,-369.9 8319.2,-369.9 8319.2,-378.3 8319.2,-378.3 8319.2,-382.5 8315,-386.7 8310.8,-386.7"/>
<text xml:space="preserve" text-anchor="middle" x="8255" y="-371" font-family="Helvetica,sans-Serif" font-size="8.00">WARP&#45;footprint&#45;parallelism &#45; XL</text>
</g>
<!-- cool_ideas_WARP_graft_pack -->
<g id="node61" class="node">
<title>cool_ideas_WARP_graft_pack</title>
<path fill="#d4e8f7" stroke="black" d="M8416.43,-386.7C8416.43,-386.7 8341.57,-386.7 8341.57,-386.7 8337.38,-386.7 8333.17,-382.5 8333.17,-378.3 8333.17,-378.3 8333.17,-369.9 8333.17,-369.9 8333.17,-365.7 8337.38,-361.5 8341.57,-361.5 8341.57,-361.5 8416.43,-361.5 8416.43,-361.5 8420.62,-361.5 8424.83,-365.7 8424.83,-369.9 8424.83,-369.9 8424.83,-378.3 8424.83,-378.3 8424.83,-382.5 8420.62,-386.7 8416.43,-386.7"/>
<text xml:space="preserve" text-anchor="middle" x="8379" y="-371" font-family="Helvetica,sans-Serif" font-size="8.00">WARP&#45;graft&#45;pack &#45; M</text>
</g>
<!-- cool_ideas_WARP_grouped_aggregate_queries -->
<g id="node62" class="node">
<title>cool_ideas_WARP_grouped_aggregate_queries</title>
<path fill="#d4e8f7" stroke="black" d="M8584.93,-386.7C8584.93,-386.7 8447.07,-386.7 8447.07,-386.7 8442.88,-386.7 8438.67,-382.5 8438.67,-378.3 8438.67,-378.3 8438.67,-369.9 8438.67,-369.9 8438.67,-365.7 8442.88,-361.5 8447.07,-361.5 8447.07,-361.5 8584.93,-361.5 8584.93,-361.5 8589.12,-361.5 8593.33,-365.7 8593.33,-369.9 8593.33,-369.9 8593.33,-378.3 8593.33,-378.3 8593.33,-382.5 8589.12,-386.7 8584.93,-386.7"/>
<text xml:space="preserve" text-anchor="middle" x="8516" y="-371" font-family="Helvetica,sans-Serif" font-size="8.00">WARP&#45;grouped&#45;aggregate&#45;queries &#45; M</text>
</g>
<!-- cool_ideas_WARP_intentional_degeneracy_privacy -->
<g id="node64" class="node">
<title>cool_ideas_WARP_intentional_degeneracy_privacy</title>
<path fill="#d4e8f7" stroke="black" d="M8763.8,-386.7C8763.8,-386.7 8616.2,-386.7 8616.2,-386.7 8612,-386.7 8607.8,-382.5 8607.8,-378.3 8607.8,-378.3 8607.8,-369.9 8607.8,-369.9 8607.8,-365.7 8612,-361.5 8616.2,-361.5 8616.2,-361.5 8763.8,-361.5 8763.8,-361.5 8768,-361.5 8772.2,-365.7 8772.2,-369.9 8772.2,-369.9 8772.2,-378.3 8772.2,-378.3 8772.2,-382.5 8768,-386.7 8763.8,-386.7"/>
<text xml:space="preserve" text-anchor="middle" x="8690" y="-371" font-family="Helvetica,sans-Serif" font-size="8.00">WARP&#45;intentional&#45;degeneracy&#45;privacy &#45; M</text>
</g>
<!-- cool_ideas_WARP_minimum_viable_context -->
<g id="node65" class="node">
<title>cool_ideas_WARP_minimum_viable_context</title>
<path fill="#d4e8f7" stroke="black" d="M8917.43,-386.7C8917.43,-386.7 8794.57,-386.7 8794.57,-386.7 8790.38,-386.7 8786.17,-382.5 8786.17,-378.3 8786.17,-378.3 8786.17,-369.9 8786.17,-369.9 8786.17,-365.7 8790.38,-361.5 8794.57,-361.5 8794.57,-361.5 8917.43,-361.5 8917.43,-361.5 8921.62,-361.5 8925.83,-365.7 8925.83,-369.9 8925.83,-369.9 8925.83,-378.3 8925.83,-378.3 8925.83,-382.5 8921.62,-386.7 8917.43,-386.7"/>
<text xml:space="preserve" text-anchor="middle" x="8856" y="-371" font-family="Helvetica,sans-Serif" font-size="8.00">WARP&#45;minimum&#45;viable&#45;context &#45; M</text>
</g>
<!-- cool_ideas_WARP_outline_diff_commit_trailer -->
<g id="node66" class="node">
<title>cool_ideas_WARP_outline_diff_commit_trailer</title>
<path fill="#d4e8f7" stroke="black" d="M9073.93,-386.7C9073.93,-386.7 8948.07,-386.7 8948.07,-386.7 8943.88,-386.7 8939.67,-382.5 8939.67,-378.3 8939.67,-378.3 8939.67,-369.9 8939.67,-369.9 8939.67,-365.7 8943.88,-361.5 8948.07,-361.5 8948.07,-361.5 9073.93,-361.5 9073.93,-361.5 9078.12,-361.5 9082.33,-365.7 9082.33,-369.9 9082.33,-369.9 9082.33,-378.3 9082.33,-378.3 9082.33,-382.5 9078.12,-386.7 9073.93,-386.7"/>
<text xml:space="preserve" text-anchor="middle" x="9011" y="-371" font-family="Helvetica,sans-Serif" font-size="8.00">WARP&#45;outline&#45;diff&#45;commit&#45;trailer &#45; S</text>
</g>
<!-- cool_ideas_WARP_projection_safety_classes -->
<g id="node67" class="node">
<title>cool_ideas_WARP_projection_safety_classes</title>
<path fill="#d4e8f7" stroke="black" d="M9230.93,-386.7C9230.93,-386.7 9105.07,-386.7 9105.07,-386.7 9100.88,-386.7 9096.67,-382.5 9096.67,-378.3 9096.67,-378.3 9096.67,-369.9 9096.67,-369.9 9096.67,-365.7 9100.88,-361.5 9105.07,-361.5 9105.07,-361.5 9230.93,-361.5 9230.93,-361.5 9235.12,-361.5 9239.33,-365.7 9239.33,-369.9 9239.33,-369.9 9239.33,-378.3 9239.33,-378.3 9239.33,-382.5 9235.12,-386.7 9230.93,-386.7"/>
<text xml:space="preserve" text-anchor="middle" x="9168" y="-371" font-family="Helvetica,sans-Serif" font-size="8.00">WARP&#45;projection&#45;safety&#45;classes &#45; M</text>
</g>
<!-- cool_ideas_WARP_provenance_dag&#45;&gt;cool_ideas_WARP_causal_blame_for_staged_artifacts -->
<g id="edge9" class="edge">
<title>cool_ideas_WARP_provenance_dag&#45;&gt;cool_ideas_WARP_causal_blame_for_staged_artifacts</title>
<path fill="none" stroke="#666666" d="M7388.22,-287.85C7400.46,-276.03 7419.41,-257.74 7433.09,-244.52"/>
<polygon fill="#666666" stroke="#666666" points="7434.04,-246.04 7436.43,-241.31 7431.61,-243.52 7434.04,-246.04"/>
<text xml:space="preserve" text-anchor="middle" x="7446.72" y="-261.4" font-family="Helvetica,sans-Serif" font-size="7.00">blocked_by/blocking</text>
</g>
<!-- cool_ideas_WARP_reasoning_trace_replay -->
<g id="node69" class="node">
<title>cool_ideas_WARP_reasoning_trace_replay</title>
<path fill="#d4e8f7" stroke="black" d="M7341.93,-239.8C7341.93,-239.8 7222.07,-239.8 7222.07,-239.8 7217.88,-239.8 7213.68,-235.6 7213.68,-231.4 7213.68,-231.4 7213.68,-223 7213.68,-223 7213.68,-218.8 7217.88,-214.6 7222.07,-214.6 7222.07,-214.6 7341.93,-214.6 7341.93,-214.6 7346.12,-214.6 7350.32,-218.8 7350.32,-223 7350.32,-223 7350.32,-231.4 7350.32,-231.4 7350.32,-235.6 7346.12,-239.8 7341.93,-239.8"/>
<text xml:space="preserve" text-anchor="middle" x="7282" y="-224.1" font-family="Helvetica,sans-Serif" font-size="8.00">WARP&#45;reasoning&#45;trace&#45;replay &#45; M</text>
</g>
<!-- cool_ideas_WARP_provenance_dag&#45;&gt;cool_ideas_WARP_reasoning_trace_replay -->
<g id="edge10" class="edge">
<title>cool_ideas_WARP_provenance_dag&#45;&gt;cool_ideas_WARP_reasoning_trace_replay</title>
<path fill="none" stroke="#666666" d="M7360.48,-287.85C7344.79,-275.93 7320.44,-257.42 7303.02,-244.18"/>
<polygon fill="#666666" stroke="#666666" points="7304.1,-242.8 7299.06,-241.17 7301.99,-245.59 7304.1,-242.8"/>
<text xml:space="preserve" text-anchor="middle" x="7363.32" y="-261.4" font-family="Helvetica,sans-Serif" font-size="7.00">blocked_by/blocking</text>
</g>
<!-- cool_ideas_WARP_rulial_heat_map -->
<g id="node70" class="node">
<title>cool_ideas_WARP_rulial_heat_map</title>
<path fill="#d4e8f7" stroke="black" d="M9352.3,-386.7C9352.3,-386.7 9261.7,-386.7 9261.7,-386.7 9257.5,-386.7 9253.3,-382.5 9253.3,-378.3 9253.3,-378.3 9253.3,-369.9 9253.3,-369.9 9253.3,-365.7 9257.5,-361.5 9261.7,-361.5 9261.7,-361.5 9352.3,-361.5 9352.3,-361.5 9356.5,-361.5 9360.7,-365.7 9360.7,-369.9 9360.7,-369.9 9360.7,-378.3 9360.7,-378.3 9360.7,-382.5 9356.5,-386.7 9352.3,-386.7"/>
<text xml:space="preserve" text-anchor="middle" x="9307" y="-371" font-family="Helvetica,sans-Serif" font-size="8.00">WARP&#45;rulial&#45;heat&#45;map &#45; L</text>
</g>
<!-- cool_ideas_WARP_semantic_drift_in_sessions -->
<g id="node71" class="node">
<title>cool_ideas_WARP_semantic_drift_in_sessions</title>
<path fill="#d4e8f7" stroke="black" d="M9512.43,-386.7C9512.43,-386.7 9383.57,-386.7 9383.57,-386.7 9379.38,-386.7 9375.17,-382.5 9375.17,-378.3 9375.17,-378.3 9375.17,-369.9 9375.17,-369.9 9375.17,-365.7 9379.38,-361.5 9383.57,-361.5 9383.57,-361.5 9512.43,-361.5 9512.43,-361.5 9516.62,-361.5 9520.83,-365.7 9520.83,-369.9 9520.83,-369.9 9520.83,-378.3 9520.83,-378.3 9520.83,-382.5 9516.62,-386.7 9512.43,-386.7"/>
<text xml:space="preserve" text-anchor="middle" x="9448" y="-371" font-family="Helvetica,sans-Serif" font-size="8.00">WARP&#45;semantic&#45;drift&#45;in&#45;sessions &#45; M</text>
</g>
<!-- cool_ideas_WARP_semantic_merge_conflict_prediction -->
<g id="node72" class="node">
<title>cool_ideas_WARP_semantic_merge_conflict_prediction</title>
<path fill="#d4e8f7" stroke="black" d="M10678.43,-313.25C10678.43,-313.25 10519.57,-313.25 10519.57,-313.25 10515.38,-313.25 10511.17,-309.05 10511.17,-304.85 10511.17,-304.85 10511.17,-296.45 10511.17,-296.45 10511.17,-292.25 10515.38,-288.05 10519.57,-288.05 10519.57,-288.05 10678.43,-288.05 10678.43,-288.05 10682.62,-288.05 10686.83,-292.25 10686.83,-296.45 10686.83,-296.45 10686.83,-304.85 10686.83,-304.85 10686.83,-309.05 10682.62,-313.25 10678.43,-313.25"/>
<text xml:space="preserve" text-anchor="middle" x="10599" y="-297.55" font-family="Helvetica,sans-Serif" font-size="8.00">WARP&#45;semantic&#45;merge&#45;conflict&#45;prediction &#45; L</text>
</g>
<!-- cool_ideas_WARP_session_filtration -->
<g id="node73" class="node">
<title>cool_ideas_WARP_session_filtration</title>
<path fill="#d4e8f7" stroke="black" d="M9636.8,-386.7C9636.8,-386.7 9543.2,-386.7 9543.2,-386.7 9539,-386.7 9534.8,-382.5 9534.8,-378.3 9534.8,-378.3 9534.8,-369.9 9534.8,-369.9 9534.8,-365.7 9539,-361.5 9543.2,-361.5 9543.2,-361.5 9636.8,-361.5 9636.8,-361.5 9641,-361.5 9645.2,-365.7 9645.2,-369.9 9645.2,-369.9 9645.2,-378.3 9645.2,-378.3 9645.2,-382.5 9641,-386.7 9636.8,-386.7"/>
<text xml:space="preserve" text-anchor="middle" x="9590" y="-371" font-family="Helvetica,sans-Serif" font-size="8.00">WARP&#45;session&#45;filtration &#45; L</text>
</g>
<!-- cool_ideas_WARP_shadow_structural_workspaces -->
<g id="node74" class="node">
<title>cool_ideas_WARP_shadow_structural_workspaces</title>
<path fill="#d4e8f7" stroke="black" d="M9818.3,-386.7C9818.3,-386.7 9667.7,-386.7 9667.7,-386.7 9663.5,-386.7 9659.3,-382.5 9659.3,-378.3 9659.3,-378.3 9659.3,-369.9 9659.3,-369.9 9659.3,-365.7 9663.5,-361.5 9667.7,-361.5 9667.7,-361.5 9818.3,-361.5 9818.3,-361.5 9822.5,-361.5 9826.7,-365.7 9826.7,-369.9 9826.7,-369.9 9826.7,-378.3 9826.7,-378.3 9826.7,-382.5 9822.5,-386.7 9818.3,-386.7"/>
<text xml:space="preserve" text-anchor="middle" x="9743" y="-371" font-family="Helvetica,sans-Serif" font-size="8.00">WARP&#45;shadow&#45;structural&#45;workspaces &#45; XL</text>
</g>
<!-- cool_ideas_WARP_speculative_merge -->
<g id="node75" class="node">
<title>cool_ideas_WARP_speculative_merge</title>
<path fill="#d4e8f7" stroke="black" d="M9956.55,-386.7C9956.55,-386.7 9849.45,-386.7 9849.45,-386.7 9845.25,-386.7 9841.05,-382.5 9841.05,-378.3 9841.05,-378.3 9841.05,-369.9 9841.05,-369.9 9841.05,-365.7 9845.25,-361.5 9849.45,-361.5 9849.45,-361.5 9956.55,-361.5 9956.55,-361.5 9960.75,-361.5 9964.95,-365.7 9964.95,-369.9 9964.95,-369.9 9964.95,-378.3 9964.95,-378.3 9964.95,-382.5 9960.75,-386.7 9956.55,-386.7"/>
<text xml:space="preserve" text-anchor="middle" x="9903" y="-371" font-family="Helvetica,sans-Serif" font-size="8.00">WARP&#45;speculative&#45;merge &#45; XL</text>
</g>
<!-- cool_ideas_WARP_stale_docs_checker -->
<g id="node76" class="node">
<title>cool_ideas_WARP_stale_docs_checker</title>
<path fill="#d4e8f7" stroke="black" d="M10092.8,-386.7C10092.8,-386.7 9987.2,-386.7 9987.2,-386.7 9983,-386.7 9978.8,-382.5 9978.8,-378.3 9978.8,-378.3 9978.8,-369.9 9978.8,-369.9 9978.8,-365.7 9983,-361.5 9987.2,-361.5 9987.2,-361.5 10092.8,-361.5 10092.8,-361.5 10097,-361.5 10101.2,-365.7 10101.2,-369.9 10101.2,-369.9 10101.2,-378.3 10101.2,-378.3 10101.2,-382.5 10097,-386.7 10092.8,-386.7"/>
<text xml:space="preserve" text-anchor="middle" x="10040" y="-371" font-family="Helvetica,sans-Serif" font-size="8.00">WARP&#45;stale&#45;docs&#45;checker &#45; M</text>
</g>
<!-- cool_ideas_WARP_stale_docs_checker&#45;&gt;cool_ideas_WARP_drift_sentinel -->
<g id="edge11" class="edge">
<title>cool_ideas_WARP_stale_docs_checker&#45;&gt;cool_ideas_WARP_drift_sentinel</title>
<path fill="none" stroke="#666666" d="M10025.63,-361.3C10011.11,-349.38 9988.58,-330.87 9972.46,-317.63"/>
<polygon fill="#666666" stroke="#666666" points="9973.82,-316.49 9968.85,-314.67 9971.6,-319.19 9973.82,-316.49"/>
<text xml:space="preserve" text-anchor="middle" x="10030.61" y="-334.85" font-family="Helvetica,sans-Serif" font-size="7.00">blocked_by/blocking</text>
</g>
<!-- cool_ideas_WARP_structural_drift_detection -->
<g id="node77" class="node">
<title>cool_ideas_WARP_structural_drift_detection</title>
<path fill="#d4e8f7" stroke="black" d="M10246.8,-386.7C10246.8,-386.7 10123.2,-386.7 10123.2,-386.7 10119,-386.7 10114.8,-382.5 10114.8,-378.3 10114.8,-378.3 10114.8,-369.9 10114.8,-369.9 10114.8,-365.7 10119,-361.5 10123.2,-361.5 10123.2,-361.5 10246.8,-361.5 10246.8,-361.5 10251,-361.5 10255.2,-365.7 10255.2,-369.9 10255.2,-369.9 10255.2,-378.3 10255.2,-378.3 10255.2,-382.5 10251,-386.7 10246.8,-386.7"/>
<text xml:space="preserve" text-anchor="middle" x="10185" y="-371" font-family="Helvetica,sans-Serif" font-size="8.00">WARP&#45;structural&#45;drift&#45;detection &#45; M</text>
</g>
<!-- cool_ideas_WARP_symbol_heatmap -->
<g id="node79" class="node">
<title>cool_ideas_WARP_symbol_heatmap</title>
<path fill="#d4e8f7" stroke="black" d="M10376.05,-386.7C10376.05,-386.7 10277.95,-386.7 10277.95,-386.7 10273.75,-386.7 10269.55,-382.5 10269.55,-378.3 10269.55,-378.3 10269.55,-369.9 10269.55,-369.9 10269.55,-365.7 10273.75,-361.5 10277.95,-361.5 10277.95,-361.5 10376.05,-361.5 10376.05,-361.5 10380.25,-361.5 10384.45,-365.7 10384.45,-369.9 10384.45,-369.9 10384.45,-378.3 10384.45,-378.3 10384.45,-382.5 10380.25,-386.7 10376.05,-386.7"/>
<text xml:space="preserve" text-anchor="middle" x="10327" y="-371" font-family="Helvetica,sans-Serif" font-size="8.00">WARP&#45;symbol&#45;heatmap &#45; M</text>
</g>
<!-- cool_ideas_WARP_symbol_history_timeline -->
<g id="node80" class="node">
<title>cool_ideas_WARP_symbol_history_timeline</title>
<path fill="#d4e8f7" stroke="black" d="M10525.18,-386.7C10525.18,-386.7 10406.82,-386.7 10406.82,-386.7 10402.62,-386.7 10398.42,-382.5 10398.42,-378.3 10398.42,-378.3 10398.42,-369.9 10398.42,-369.9 10398.42,-365.7 10402.62,-361.5 10406.82,-361.5 10406.82,-361.5 10525.18,-361.5 10525.18,-361.5 10529.38,-361.5 10533.58,-365.7 10533.58,-369.9 10533.58,-369.9 10533.58,-378.3 10533.58,-378.3 10533.58,-382.5 10529.38,-386.7 10525.18,-386.7"/>
<text xml:space="preserve" text-anchor="middle" x="10466" y="-371" font-family="Helvetica,sans-Serif" font-size="8.00">WARP&#45;symbol&#45;history&#45;timeline &#45; S</text>
</g>
<!-- cool_ideas_WARP_temporal_structural_search -->
<g id="node82" class="node">
<title>cool_ideas_WARP_temporal_structural_search</title>
<path fill="#d4e8f7" stroke="black" d="M10158.68,-313.25C10158.68,-313.25 10025.32,-313.25 10025.32,-313.25 10021.12,-313.25 10016.92,-309.05 10016.92,-304.85 10016.92,-304.85 10016.92,-296.45 10016.92,-296.45 10016.92,-292.25 10021.12,-288.05 10025.32,-288.05 10025.32,-288.05 10158.68,-288.05 10158.68,-288.05 10162.88,-288.05 10167.08,-292.25 10167.08,-296.45 10167.08,-296.45 10167.08,-304.85 10167.08,-304.85 10167.08,-309.05 10162.88,-313.25 10158.68,-313.25"/>
<text xml:space="preserve" text-anchor="middle" x="10092" y="-297.55" font-family="Helvetica,sans-Serif" font-size="8.00">WARP&#45;temporal&#45;structural&#45;search &#45; M</text>
</g>
<!-- cool_ideas_WARP_symbol_history_timeline&#45;&gt;cool_ideas_WARP_temporal_structural_search -->
<g id="edge12" class="edge">
<title>cool_ideas_WARP_symbol_history_timeline&#45;&gt;cool_ideas_WARP_temporal_structural_search</title>
<path fill="none" stroke="#666666" d="M10425.82,-361.1C10414.64,-358.17 10402.42,-355.35 10391,-353.5 10310.98,-340.53 10288.5,-357.37 10209,-341.5 10180.41,-335.79 10149.21,-324.92 10126.23,-315.97"/>
<polygon fill="#666666" stroke="#666666" points="10126.97,-314.38 10121.68,-314.18 10125.69,-317.64 10126.97,-314.38"/>
<text xml:space="preserve" text-anchor="middle" x="10240.5" y="-334.85" font-family="Helvetica,sans-Serif" font-size="7.00">blocked_by/blocking</text>
</g>
<!-- cool_ideas_WARP_technical_debt_curvature -->
<g id="node81" class="node">
<title>cool_ideas_WARP_technical_debt_curvature</title>
<path fill="#d4e8f7" stroke="black" d="M10678.43,-386.7C10678.43,-386.7 10555.57,-386.7 10555.57,-386.7 10551.38,-386.7 10547.17,-382.5 10547.17,-378.3 10547.17,-378.3 10547.17,-369.9 10547.17,-369.9 10547.17,-365.7 10551.38,-361.5 10555.57,-361.5 10555.57,-361.5 10678.43,-361.5 10678.43,-361.5 10682.62,-361.5 10686.83,-365.7 10686.83,-369.9 10686.83,-369.9 10686.83,-378.3 10686.83,-378.3 10686.83,-382.5 10682.62,-386.7 10678.43,-386.7"/>
<text xml:space="preserve" text-anchor="middle" x="10617" y="-371" font-family="Helvetica,sans-Serif" font-size="8.00">WARP&#45;technical&#45;debt&#45;curvature &#45; L</text>
</g>
<!-- external_git_warp_observer_geometry_ladder__Rung_2_4_ -->
<g id="node83" class="node">
<title>external_git_warp_observer_geometry_ladder__Rung_2_4_</title>
<path fill="#e8f2ff" stroke="black" d="M10882.68,-386.7C10882.68,-386.7 10719.32,-386.7 10719.32,-386.7 10715.12,-386.7 10710.92,-382.5 10710.92,-378.3 10710.92,-378.3 10710.92,-369.9 10710.92,-369.9 10710.92,-365.7 10715.12,-361.5 10719.32,-361.5 10719.32,-361.5 10882.68,-361.5 10882.68,-361.5 10886.88,-361.5 10891.08,-365.7 10891.08,-369.9 10891.08,-369.9 10891.08,-378.3 10891.08,-378.3 10891.08,-382.5 10886.88,-386.7 10882.68,-386.7"/>
<text xml:space="preserve" text-anchor="middle" x="10801" y="-371" font-family="Helvetica,sans-Serif" font-size="8.00">git&#45;warp observer geometry ladder (Rung 2&#45;4)</text>
</g>
<!-- external_git_warp_observer_geometry_ladder__Rung_2_4_&#45;&gt;cool_ideas_CORE_migrate_to_slice_first_reads -->
<g id="edge13" class="edge">
<title>external_git_warp_observer_geometry_ladder__Rung_2_4_&#45;&gt;cool_ideas_CORE_migrate_to_slice_first_reads</title>
<path fill="none" stroke="#4477aa" stroke-dasharray="5,2" d="M10744.54,-361.04C10729.47,-358.18 10713.17,-355.41 10698,-353.5 10613.72,-342.87 10591.71,-350.58 10507.25,-341.5 10424.44,-332.6 10404.31,-325.98 10322,-313.25 10321.86,-313.23 10321.73,-313.21 10321.59,-313.19"/>
<polygon fill="#4477aa" stroke="#4477aa" points="10322.06,-311.49 10316.85,-312.45 10321.52,-314.95 10322.06,-311.49"/>
<text xml:space="preserve" text-anchor="middle" x="10539.12" y="-334.85" font-family="Helvetica,sans-Serif" font-size="7.00">blocked_by_external</text>
</g>
<!-- unresolved_CLEAN_CODE_export_diff_semver_signature_as_patch -->
<g id="node84" class="node">
<title>unresolved_CLEAN_CODE_export_diff_semver_signature_as_patch</title>
<path fill="#f2f2f2" stroke="black" stroke-dasharray="5,2" d="M11146.3,-386.7C11146.3,-386.7 10923.7,-386.7 10923.7,-386.7 10919.5,-386.7 10915.3,-382.5 10915.3,-378.3 10915.3,-378.3 10915.3,-369.9 10915.3,-369.9 10915.3,-365.7 10919.5,-361.5 10923.7,-361.5 10923.7,-361.5 11146.3,-361.5 11146.3,-361.5 11150.5,-361.5 11154.7,-365.7 11154.7,-369.9 11154.7,-369.9 11154.7,-378.3 11154.7,-378.3 11154.7,-382.5 11150.5,-386.7 11146.3,-386.7"/>
<text xml:space="preserve" text-anchor="middle" x="11035" y="-371" font-family="Helvetica,sans-Serif" font-size="8.00">missing: CLEAN_CODE_export&#45;diff&#45;semver&#45;signature&#45;as&#45;patch</text>
</g>
<!-- unresolved_CLEAN_CODE_export_diff_semver_signature_as_patch&#45;&gt;cool_ideas_WARP_auto_breaking_change_detection -->
<g id="edge14" class="edge">
<title>unresolved_CLEAN_CODE_export_diff_semver_signature_as_patch&#45;&gt;cool_ideas_WARP_auto_breaking_change_detection</title>
<path fill="none" stroke="#cc3333" stroke-dasharray="5,2" d="M10958.44,-361.04C10939.99,-358.34 10920.31,-355.65 10902,-353.5 10841.63,-346.4 10826.25,-347.43 10765.75,-341.5 10649.3,-330.09 10620.21,-326.93 10504,-313.25 10503.7,-313.22 10503.41,-313.18 10503.11,-313.14"/>
<polygon fill="#cc3333" stroke="#cc3333" points="10503.47,-311.43 10498.29,-312.57 10503.05,-314.9 10503.47,-311.43"/>
<text xml:space="preserve" text-anchor="middle" x="10783.38" y="-334.85" font-family="Helvetica,sans-Serif" font-size="7.00">blocked_by</text>
</g>
<!-- unresolved_CLEAN_CODE_export_diff_semver_signature_as_patch&#45;&gt;cool_ideas_WARP_semantic_merge_conflict_prediction -->
<g id="edge15" class="edge">
<title>unresolved_CLEAN_CODE_export_diff_semver_signature_as_patch&#45;&gt;cool_ideas_WARP_semantic_merge_conflict_prediction</title>
<path fill="none" stroke="#cc3333" stroke-dasharray="5,2" d="M10961.53,-361.06C10883.24,-348.23 10759.69,-327.98 10678.99,-314.76"/>
<polygon fill="#cc3333" stroke="#cc3333" points="10679.48,-313.07 10674.26,-313.98 10678.91,-316.52 10679.48,-313.07"/>
<text xml:space="preserve" text-anchor="middle" x="10847.7" y="-334.85" font-family="Helvetica,sans-Serif" font-size="7.00">blocked_by</text>
</g>
<!-- leg_v08 -->
<g id="node85" class="node">
<title>leg_v08</title>
<path fill="#c8e6c9" stroke="black" stroke-width="2" d="M11271,-386.7C11271,-386.7 11187,-386.7 11187,-386.7 11182.8,-386.7 11178.6,-382.5 11178.6,-378.3 11178.6,-378.3 11178.6,-369.9 11178.6,-369.9 11178.6,-365.7 11182.8,-361.5 11187,-361.5 11187,-361.5 11271,-361.5 11271,-361.5 11275.2,-361.5 11279.4,-365.7 11279.4,-369.9 11279.4,-369.9 11279.4,-378.3 11279.4,-378.3 11279.4,-382.5 11275.2,-386.7 11271,-386.7"/>
<text xml:space="preserve" text-anchor="middle" x="11229" y="-371.58" font-family="Helvetica,sans-Serif" font-size="7.00">v0.8.0</text>
</g>
<!-- leg_v07 -->
<g id="node86" class="node">
<title>leg_v07</title>
<path fill="#ffa07a" stroke="black" stroke-width="2" d="M11271,-313.25C11271,-313.25 11187,-313.25 11187,-313.25 11182.8,-313.25 11178.6,-309.05 11178.6,-304.85 11178.6,-304.85 11178.6,-296.45 11178.6,-296.45 11178.6,-292.25 11182.8,-288.05 11187,-288.05 11187,-288.05 11271,-288.05 11271,-288.05 11275.2,-288.05 11279.4,-292.25 11279.4,-296.45 11279.4,-296.45 11279.4,-304.85 11279.4,-304.85 11279.4,-309.05 11275.2,-313.25 11271,-313.25"/>
<text xml:space="preserve" text-anchor="middle" x="11229" y="-298.12" font-family="Helvetica,sans-Serif" font-size="7.00">v0.7.0</text>
</g>
<!-- leg_v08&#45;&gt;leg_v07 -->
<!-- leg_bad -->
<g id="node87" class="node">
<title>leg_bad</title>
<path fill="#f6b3b3" stroke="black" stroke-width="2" d="M11271,-239.8C11271,-239.8 11187,-239.8 11187,-239.8 11182.8,-239.8 11178.6,-235.6 11178.6,-231.4 11178.6,-231.4 11178.6,-223 11178.6,-223 11178.6,-218.8 11182.8,-214.6 11187,-214.6 11187,-214.6 11271,-214.6 11271,-214.6 11275.2,-214.6 11279.4,-218.8 11279.4,-223 11279.4,-223 11279.4,-231.4 11279.4,-231.4 11279.4,-235.6 11275.2,-239.8 11271,-239.8"/>
<text xml:space="preserve" text-anchor="middle" x="11229" y="-224.67" font-family="Helvetica,sans-Serif" font-size="7.00">bad&#45;code</text>
</g>
<!-- leg_v07&#45;&gt;leg_bad -->
<!-- leg_idea -->
<g id="node88" class="node">
<title>leg_idea</title>
<path fill="#d4e8f7" stroke="black" d="M11271,-173.6C11271,-173.6 11187,-173.6 11187,-173.6 11182.8,-173.6 11178.6,-169.4 11178.6,-165.2 11178.6,-165.2 11178.6,-156.8 11178.6,-156.8 11178.6,-152.6 11182.8,-148.4 11187,-148.4 11187,-148.4 11271,-148.4 11271,-148.4 11275.2,-148.4 11279.4,-152.6 11279.4,-156.8 11279.4,-156.8 11279.4,-165.2 11279.4,-165.2 11279.4,-169.4 11275.2,-173.6 11271,-173.6"/>
<text xml:space="preserve" text-anchor="middle" x="11229" y="-158.47" font-family="Helvetica,sans-Serif" font-size="7.00">cool&#45;ideas</text>
</g>
<!-- leg_bad&#45;&gt;leg_idea -->
<!-- leg_external -->
<g id="node89" class="node">
<title>leg_external</title>
<path fill="#e8f2ff" stroke="black" d="M11271,-107.4C11271,-107.4 11187,-107.4 11187,-107.4 11182.8,-107.4 11178.6,-103.2 11178.6,-99 11178.6,-99 11178.6,-90.6 11178.6,-90.6 11178.6,-86.4 11182.8,-82.2 11187,-82.2 11187,-82.2 11271,-82.2 11271,-82.2 11275.2,-82.2 11279.4,-86.4 11279.4,-90.6 11279.4,-90.6 11279.4,-99 11279.4,-99 11279.4,-103.2 11275.2,-107.4 11271,-107.4"/>
<text xml:space="preserve" text-anchor="middle" x="11229" y="-92.28" font-family="Helvetica,sans-Serif" font-size="7.00">external blocker</text>
</g>
<!-- leg_idea&#45;&gt;leg_external -->
<!-- leg_unresolved -->
<g id="node90" class="node">
<title>leg_unresolved</title>
<path fill="#f2f2f2" stroke="black" stroke-dasharray="5,2" d="M11271,-41.2C11271,-41.2 11187,-41.2 11187,-41.2 11182.8,-41.2 11178.6,-37 11178.6,-32.8 11178.6,-32.8 11178.6,-24.4 11178.6,-24.4 11178.6,-20.2 11182.8,-16 11187,-16 11187,-16 11271,-16 11271,-16 11275.2,-16 11279.4,-20.2 11279.4,-24.4 11279.4,-24.4 11279.4,-32.8 11279.4,-32.8 11279.4,-37 11275.2,-41.2 11271,-41.2"/>
<text xml:space="preserve" text-anchor="middle" x="11229" y="-26.08" font-family="Helvetica,sans-Serif" font-size="7.00">unresolved ref</text>
</g>
<!-- leg_external&#45;&gt;leg_unresolved -->
</g>
</svg>
