<?xml version="1.0" encoding="UTF-8" standalone="no"?>
<!DOCTYPE svg PUBLIC "-//W3C//DTD SVG 1.1//EN"
 "http://www.w3.org/Graphics/SVG/1.1/DTD/svg11.dtd">
<!-- Generated by graphviz version 14.1.2 (20260124.0452)
 -->
<!-- Title: backlog Pages: 1 -->
<svg width="11312pt" height="383pt"
 viewBox="0.00 0.00 11312.00 383.00" xmlns="http://www.w3.org/2000/svg" xmlns:xlink="http://www.w3.org/1999/xlink">
<g id="graph0" class="graph" transform="scale(1 1) rotate(0) translate(4 379)">
<title>backlog</title>
<polygon fill="white" stroke="none" points="-4,4 -4,-379 11308,-379 11308,4 -4,4"/>
<text xml:space="preserve" text-anchor="middle" x="5652" y="-359.6" font-family="Helvetica,sans-Serif" font-size="12.00">Active backlog graph generated from docs/method/backlog/*/*.md</text>
<g id="clust1" class="cluster">
<title>cluster_asap</title>
<path fill="#fafafa" stroke="#cccccc" d="M20,-287.3C20,-287.3 172,-287.3 172,-287.3 178,-287.3 184,-293.3 184,-299.3 184,-299.3 184,-334.25 184,-334.25 184,-340.25 178,-346.25 172,-346.25 172,-346.25 20,-346.25 20,-346.25 14,-346.25 8,-340.25 8,-334.25 8,-334.25 8,-299.3 8,-299.3 8,-293.3 14,-287.3 20,-287.3"/>
<text xml:space="preserve" text-anchor="middle" x="32.88" y="-333.7" font-family="Helvetica,sans-Serif" font-size="9.00" fill="#555555">asap (1)</text>
</g>
<g id="clust2" class="cluster">
<title>cluster_bad_code</title>
<path fill="#fafafa" stroke="#cccccc" d="M204,-287.3C204,-287.3 520,-287.3 520,-287.3 526,-287.3 532,-293.3 532,-299.3 532,-299.3 532,-334.25 532,-334.25 532,-340.25 526,-346.25 520,-346.25 520,-346.25 204,-346.25 204,-346.25 198,-346.25 192,-340.25 192,-334.25 192,-334.25 192,-299.3 192,-299.3 192,-293.3 198,-287.3 204,-287.3"/>
<text xml:space="preserve" text-anchor="middle" x="226.25" y="-333.7" font-family="Helvetica,sans-Serif" font-size="9.00" fill="#555555">bad&#45;code (2)</text>
</g>
<g id="clust3" class="cluster">
<title>cluster_cool_ideas</title>
<path fill="#fafafa" stroke="#cccccc" d="M552,-140.4C552,-140.4 10692,-140.4 10692,-140.4 10698,-140.4 10704,-146.4 10704,-152.4 10704,-152.4 10704,-334.25 10704,-334.25 10704,-340.25 10698,-346.25 10692,-346.25 10692,-346.25 552,-346.25 552,-346.25 546,-346.25 540,-340.25 540,-334.25 540,-334.25 540,-152.4 540,-152.4 540,-146.4 546,-140.4 552,-140.4"/>
<text xml:space="preserve" text-anchor="middle" x="579.5" y="-333.7" font-family="Helvetica,sans-Serif" font-size="9.00" fill="#555555">Cool Ideas (79)</text>
</g>
<g id="clust4" class="cluster">
<title>cluster_external</title>
<path fill="#f8fbff" stroke="#cccccc" d="M10724,-287.3C10724,-287.3 10896,-287.3 10896,-287.3 10902,-287.3 10908,-293.3 10908,-299.3 10908,-299.3 10908,-334.25 10908,-334.25 10908,-340.25 10902,-346.25 10896,-346.25 10896,-346.25 10724,-346.25 10724,-346.25 10718,-346.25 10712,-340.25 10712,-334.25 10712,-334.25 10712,-299.3 10712,-299.3 10712,-293.3 10718,-287.3 10724,-287.3"/>
<text xml:space="preserve" text-anchor="middle" x="10755.25" y="-333.7" font-family="Helvetica,sans-Serif" font-size="9.00" fill="#555555">External blockers</text>
</g>
<g id="clust5" class="cluster">
<title>cluster_unresolved</title>
<path fill="#fff7f7" stroke="#cc3333" stroke-dasharray="5,2" d="M10928,-287.3C10928,-287.3 11160,-287.3 11160,-287.3 11166,-287.3 11172,-293.3 11172,-299.3 11172,-299.3 11172,-334.25 11172,-334.25 11172,-340.25 11166,-346.25 11160,-346.25 11160,-346.25 10928,-346.25 10928,-346.25 10922,-346.25 10916,-340.25 10916,-334.25 10916,-334.25 10916,-299.3 10916,-299.3 10916,-293.3 10922,-287.3 10928,-287.3"/>
<text xml:space="preserve" text-anchor="middle" x="10972.75" y="-333.7" font-family="Helvetica,sans-Serif" font-size="9.00" fill="#555555">Unresolved internal refs</text>
</g>
<g id="clust6" class="cluster">
<title>cluster_legend</title>
<path fill="none" stroke="#dddddd" d="M11192,-8C11192,-8 11284,-8 11284,-8 11290,-8 11296,-14 11296,-20 11296,-20 11296,-333.5 11296,-333.5 11296,-339.5 11290,-345.5 11284,-345.5 11284,-345.5 11192,-345.5 11192,-345.5 11186,-345.5 11180,-339.5 11180,-333.5 11180,-333.5 11180,-20 11180,-20 11180,-14 11186,-8 11192,-8"/>
<text xml:space="preserve" text-anchor="middle" x="11201.5" y="-333.9" font-family="Helvetica,sans-Serif" font-size="8.00" fill="#aaaaaa">Legend</text>
</g>
<!-- asap_CORE_pr_review_structural_summary -->
<g id="node1" class="node">
<title>asap_CORE_pr_review_structural_summary</title>
<path fill="#e5e7eb" stroke="black" stroke-width="2" d="M167.92,-320.5C167.92,-320.5 24.08,-320.5 24.08,-320.5 19.88,-320.5 15.67,-316.3 15.67,-312.1 15.67,-312.1 15.67,-303.7 15.67,-303.7 15.67,-299.5 19.88,-295.3 24.08,-295.3 24.08,-295.3 167.92,-295.3 167.92,-295.3 172.12,-295.3 176.32,-299.5 176.32,-303.7 176.32,-303.7 176.32,-312.1 176.32,-312.1 176.32,-316.3 172.12,-320.5 167.92,-320.5"/>
<text xml:space="preserve" text-anchor="middle" x="96" y="-304.8" font-family="Helvetica,sans-Serif" font-size="8.00">CORE&#45;pr&#45;review&#45;structural&#45;summary &#45; M</text>
</g>
<!-- bad_code_CORE_tool_context_injection_contracts -->
<g id="node2" class="node">
<title>bad_code_CORE_tool_context_injection_contracts</title>
<path fill="#f6b3b3" stroke="black" stroke-width="2" d="M354.05,-320.5C354.05,-320.5 207.95,-320.5 207.95,-320.5 203.75,-320.5 199.55,-316.3 199.55,-312.1 199.55,-312.1 199.55,-303.7 199.55,-303.7 199.55,-299.5 203.75,-295.3 207.95,-295.3 207.95,-295.3 354.05,-295.3 354.05,-295.3 358.25,-295.3 362.45,-299.5 362.45,-303.7 362.45,-303.7 362.45,-312.1 362.45,-312.1 362.45,-316.3 358.25,-320.5 354.05,-320.5"/>
<text xml:space="preserve" text-anchor="middle" x="281" y="-304.8" font-family="Helvetica,sans-Serif" font-size="8.00">CORE&#45;tool&#45;context&#45;injection&#45;contracts &#45; M</text>
</g>
<!-- bad_code_TEST_bounded_subprocess_policy -->
<g id="node3" class="node">
<title>bad_code_TEST_bounded_subprocess_policy</title>
<path fill="#f6b3b3" stroke="black" stroke-width="2" d="M515.18,-320.5C515.18,-320.5 384.83,-320.5 384.83,-320.5 380.62,-320.5 376.43,-316.3 376.43,-312.1 376.43,-312.1 376.43,-303.7 376.43,-303.7 376.43,-299.5 380.62,-295.3 384.83,-295.3 384.83,-295.3 515.18,-295.3 515.18,-295.3 519.38,-295.3 523.58,-299.5 523.58,-303.7 523.58,-303.7 523.58,-312.1 523.58,-312.1 523.58,-316.3 519.38,-320.5 515.18,-320.5"/>
<text xml:space="preserve" text-anchor="middle" x="450" y="-304.8" font-family="Helvetica,sans-Serif" font-size="8.00">TEST&#45;bounded&#45;subprocess&#45;policy &#45; S</text>
</g>
<!-- cool_ideas_bounded_neighborhood_for_references -->
<g id="node4" class="node">
<title>cool_ideas_bounded_neighborhood_for_references</title>
<path fill="#d4e8f7" stroke="black" d="M705.18,-320.5C705.18,-320.5 556.82,-320.5 556.82,-320.5 552.62,-320.5 548.42,-316.3 548.42,-312.1 548.42,-312.1 548.42,-303.7 548.42,-303.7 548.42,-299.5 552.62,-295.3 556.82,-295.3 556.82,-295.3 705.18,-295.3 705.18,-295.3 709.38,-295.3 713.58,-299.5 713.58,-303.7 713.58,-303.7 713.58,-312.1 713.58,-312.1 713.58,-316.3 709.38,-320.5 705.18,-320.5"/>
<text xml:space="preserve" text-anchor="middle" x="631" y="-304.8" font-family="Helvetica,sans-Serif" font-size="8.00">bounded&#45;neighborhood&#45;for&#45;references &#45; S</text>
</g>
<!-- cool_ideas_CI_001_causal_collapse_visualizer -->
<g id="node5" class="node">
<title>cool_ideas_CI_001_causal_collapse_visualizer</title>
<path fill="#d4e8f7" stroke="black" d="M7590.3,-247.05C7590.3,-247.05 7463.7,-247.05 7463.7,-247.05 7459.5,-247.05 7455.3,-242.85 7455.3,-238.65 7455.3,-238.65 7455.3,-230.25 7455.3,-230.25 7455.3,-226.05 7459.5,-221.85 7463.7,-221.85 7463.7,-221.85 7590.3,-221.85 7590.3,-221.85 7594.5,-221.85 7598.7,-226.05 7598.7,-230.25 7598.7,-230.25 7598.7,-238.65 7598.7,-238.65 7598.7,-242.85 7594.5,-247.05 7590.3,-247.05"/>
<text xml:space="preserve" text-anchor="middle" x="7527" y="-231.35" font-family="Helvetica,sans-Serif" font-size="8.00">CI&#45;001&#45;causal&#45;collapse&#45;visualizer &#45; L</text>
</g>
<!-- cool_ideas_CI_002_deterministic_scenario_replay -->
<g id="node6" class="node">
<title>cool_ideas_CI_002_deterministic_scenario_replay</title>
<path fill="#d4e8f7" stroke="black" d="M875.68,-320.5C875.68,-320.5 736.32,-320.5 736.32,-320.5 732.12,-320.5 727.92,-316.3 727.92,-312.1 727.92,-312.1 727.92,-303.7 727.92,-303.7 727.92,-299.5 732.12,-295.3 736.32,-295.3 736.32,-295.3 875.68,-295.3 875.68,-295.3 879.88,-295.3 884.08,-299.5 884.08,-303.7 884.08,-303.7 884.08,-312.1 884.08,-312.1 884.08,-316.3 879.88,-320.5 875.68,-320.5"/>
<text xml:space="preserve" text-anchor="middle" x="806" y="-304.8" font-family="Helvetica,sans-Serif" font-size="8.00">CI&#45;002&#45;deterministic&#45;scenario&#45;replay &#45; L</text>
</g>
<!-- cool_ideas_CI_003_mcp_native_diff_protocol -->
<g id="node7" class="node">
<title>cool_ideas_CI_003_mcp_native_diff_protocol</title>
<path fill="#d4e8f7" stroke="black" d="M1029.8,-320.5C1029.8,-320.5 906.2,-320.5 906.2,-320.5 902,-320.5 897.8,-316.3 897.8,-312.1 897.8,-312.1 897.8,-303.7 897.8,-303.7 897.8,-299.5 902,-295.3 906.2,-295.3 906.2,-295.3 1029.8,-295.3 1029.8,-295.3 1034,-295.3 1038.2,-299.5 1038.2,-303.7 1038.2,-303.7 1038.2,-312.1 1038.2,-312.1 1038.2,-316.3 1034,-320.5 1029.8,-320.5"/>
<text xml:space="preserve" text-anchor="middle" x="968" y="-304.8" font-family="Helvetica,sans-Serif" font-size="8.00">CI&#45;003&#45;mcp&#45;native&#45;diff&#45;protocol &#45; M</text>
</g>
<!-- cool_ideas_CLEAN_CODE_parallel_agent_merge_shared_file_loss -->
<g id="node8" class="node">
<title>cool_ideas_CLEAN_CODE_parallel_agent_merge_shared_file_loss</title>
<path fill="#d4e8f7" stroke="black" d="M1261.05,-320.5C1261.05,-320.5 1060.95,-320.5 1060.95,-320.5 1056.75,-320.5 1052.55,-316.3 1052.55,-312.1 1052.55,-312.1 1052.55,-303.7 1052.55,-303.7 1052.55,-299.5 1056.75,-295.3 1060.95,-295.3 1060.95,-295.3 1261.05,-295.3 1261.05,-295.3 1265.25,-295.3 1269.45,-299.5 1269.45,-303.7 1269.45,-303.7 1269.45,-312.1 1269.45,-312.1 1269.45,-316.3 1265.25,-320.5 1261.05,-320.5"/>
<text xml:space="preserve" text-anchor="middle" x="1161" y="-304.8" font-family="Helvetica,sans-Serif" font-size="8.00">CLEAN&#45;CODE&#45;parallel&#45;agent&#45;merge&#45;shared&#45;file&#45;loss &#45; M</text>
</g>
<!-- cool_ideas_CORE_agent_handoff_protocol -->
<g id="node9" class="node">
<title>cool_ideas_CORE_agent_handoff_protocol</title>
<path fill="#d4e8f7" stroke="black" d="M1411.92,-320.5C1411.92,-320.5 1292.08,-320.5 1292.08,-320.5 1287.88,-320.5 1283.67,-316.3 1283.67,-312.1 1283.67,-312.1 1283.67,-303.7 1283.67,-303.7 1283.67,-299.5 1287.88,-295.3 1292.08,-295.3 1292.08,-295.3 1411.92,-295.3 1411.92,-295.3 1416.12,-295.3 1420.33,-299.5 1420.33,-303.7 1420.33,-303.7 1420.33,-312.1 1420.33,-312.1 1420.33,-316.3 1416.12,-320.5 1411.92,-320.5"/>
<text xml:space="preserve" text-anchor="middle" x="1352" y="-304.8" font-family="Helvetica,sans-Serif" font-size="8.00">CORE&#45;agent&#45;handoff&#45;protocol &#45; M</text>
</g>
<!-- cool_ideas_CORE_auto_focus -->
<g id="node10" class="node">
<title>cool_ideas_CORE_auto_focus</title>
<path fill="#d4e8f7" stroke="black" d="M1515.67,-320.5C1515.67,-320.5 1442.33,-320.5 1442.33,-320.5 1438.12,-320.5 1433.92,-316.3 1433.92,-312.1 1433.92,-312.1 1433.92,-303.7 1433.92,-303.7 1433.92,-299.5 1438.12,-295.3 1442.33,-295.3 1442.33,-295.3 1515.67,-295.3 1515.67,-295.3 1519.88,-295.3 1524.08,-299.5 1524.08,-303.7 1524.08,-303.7 1524.08,-312.1 1524.08,-312.1 1524.08,-316.3 1519.88,-320.5 1515.67,-320.5"/>
<text xml:space="preserve" text-anchor="middle" x="1479" y="-304.8" font-family="Helvetica,sans-Serif" font-size="8.00">CORE&#45;auto&#45;focus &#45; L</text>
</g>
<!-- cool_ideas_CORE_capture_range -->
<g id="node11" class="node">
<title>cool_ideas_CORE_capture_range</title>
<path fill="#d4e8f7" stroke="black" d="M1633.8,-320.5C1633.8,-320.5 1546.2,-320.5 1546.2,-320.5 1542,-320.5 1537.8,-316.3 1537.8,-312.1 1537.8,-312.1 1537.8,-303.7 1537.8,-303.7 1537.8,-299.5 1542,-295.3 1546.2,-295.3 1546.2,-295.3 1633.8,-295.3 1633.8,-295.3 1638,-295.3 1642.2,-299.5 1642.2,-303.7 1642.2,-303.7 1642.2,-312.1 1642.2,-312.1 1642.2,-316.3 1638,-320.5 1633.8,-320.5"/>
<text xml:space="preserve" text-anchor="middle" x="1590" y="-304.8" font-family="Helvetica,sans-Serif" font-size="8.00">CORE&#45;capture&#45;range &#45; S</text>
</g>
<!-- cool_ideas_CORE_constructor_in_disguise_lint -->
<g id="node12" class="node">
<title>cool_ideas_CORE_constructor_in_disguise_lint</title>
<path fill="#d4e8f7" stroke="black" d="M1795.55,-320.5C1795.55,-320.5 1664.45,-320.5 1664.45,-320.5 1660.25,-320.5 1656.05,-316.3 1656.05,-312.1 1656.05,-312.1 1656.05,-303.7 1656.05,-303.7 1656.05,-299.5 1660.25,-295.3 1664.45,-295.3 1664.45,-295.3 1795.55,-295.3 1795.55,-295.3 1799.75,-295.3 1803.95,-299.5 1803.95,-303.7 1803.95,-303.7 1803.95,-312.1 1803.95,-312.1 1803.95,-316.3 1799.75,-320.5 1795.55,-320.5"/>
<text xml:space="preserve" text-anchor="middle" x="1730" y="-304.8" font-family="Helvetica,sans-Serif" font-size="8.00">CORE&#45;constructor&#45;in&#45;disguise&#45;lint &#45; M</text>
</g>
<!-- cool_ideas_CORE_context_budget_forecasting -->
<g id="node13" class="node">
<title>cool_ideas_CORE_context_budget_forecasting</title>
<path fill="#d4e8f7" stroke="black" d="M1959.67,-320.5C1959.67,-320.5 1826.33,-320.5 1826.33,-320.5 1822.12,-320.5 1817.92,-316.3 1817.92,-312.1 1817.92,-312.1 1817.92,-303.7 1817.92,-303.7 1817.92,-299.5 1822.12,-295.3 1826.33,-295.3 1826.33,-295.3 1959.67,-295.3 1959.67,-295.3 1963.88,-295.3 1968.08,-299.5 1968.08,-303.7 1968.08,-303.7 1968.08,-312.1 1968.08,-312.1 1968.08,-316.3 1963.88,-320.5 1959.67,-320.5"/>
<text xml:space="preserve" text-anchor="middle" x="1893" y="-304.8" font-family="Helvetica,sans-Serif" font-size="8.00">CORE&#45;context&#45;budget&#45;forecasting &#45; M</text>
</g>
<!-- cool_ideas_CORE_conversation_primer -->
<g id="node14" class="node">
<title>cool_ideas_CORE_conversation_primer</title>
<path fill="#d4e8f7" stroke="black" d="M2099.67,-320.5C2099.67,-320.5 1990.33,-320.5 1990.33,-320.5 1986.12,-320.5 1981.92,-316.3 1981.92,-312.1 1981.92,-312.1 1981.92,-303.7 1981.92,-303.7 1981.92,-299.5 1986.12,-295.3 1990.33,-295.3 1990.33,-295.3 2099.67,-295.3 2099.67,-295.3 2103.88,-295.3 2108.07,-299.5 2108.07,-303.7 2108.07,-303.7 2108.07,-312.1 2108.07,-312.1 2108.07,-316.3 2103.88,-320.5 2099.67,-320.5"/>
<text xml:space="preserve" text-anchor="middle" x="2045" y="-304.8" font-family="Helvetica,sans-Serif" font-size="8.00">CORE&#45;conversation&#45;primer &#45; M</text>
</g>
<!-- cool_ideas_CORE_cross_session_resume -->
<g id="node15" class="node">
<title>cool_ideas_CORE_cross_session_resume</title>
<path fill="#d4e8f7" stroke="black" d="M2245.3,-320.5C2245.3,-320.5 2130.7,-320.5 2130.7,-320.5 2126.5,-320.5 2122.3,-316.3 2122.3,-312.1 2122.3,-312.1 2122.3,-303.7 2122.3,-303.7 2122.3,-299.5 2126.5,-295.3 2130.7,-295.3 2130.7,-295.3 2245.3,-295.3 2245.3,-295.3 2249.5,-295.3 2253.7,-299.5 2253.7,-303.7 2253.7,-303.7 2253.7,-312.1 2253.7,-312.1 2253.7,-316.3 2249.5,-320.5 2245.3,-320.5"/>
<text xml:space="preserve" text-anchor="middle" x="2188" y="-304.8" font-family="Helvetica,sans-Serif" font-size="8.00">CORE&#45;cross&#45;session&#45;resume &#45; S</text>
</g>
<!-- cool_ideas_CORE_graft_as_teacher -->
<g id="node16" class="node">
<title>cool_ideas_CORE_graft_as_teacher</title>
<path fill="#d4e8f7" stroke="black" d="M2370.17,-320.5C2370.17,-320.5 2275.83,-320.5 2275.83,-320.5 2271.62,-320.5 2267.43,-316.3 2267.43,-312.1 2267.43,-312.1 2267.43,-303.7 2267.43,-303.7 2267.43,-299.5 2271.62,-295.3 2275.83,-295.3 2275.83,-295.3 2370.17,-295.3 2370.17,-295.3 2374.38,-295.3 2378.57,-299.5 2378.57,-303.7 2378.57,-303.7 2378.57,-312.1 2378.57,-312.1 2378.57,-316.3 2374.38,-320.5 2370.17,-320.5"/>
<text xml:space="preserve" text-anchor="middle" x="2323" y="-304.8" font-family="Helvetica,sans-Serif" font-size="8.00">CORE&#45;graft&#45;as&#45;teacher &#45; S</text>
</g>
<!-- cool_ideas_CORE_graft_teach_learning_receipts -->
<g id="node17" class="node">
<title>cool_ideas_CORE_graft_teach_learning_receipts</title>
<path fill="#d4e8f7" stroke="black" d="M2538.92,-320.5C2538.92,-320.5 2401.08,-320.5 2401.08,-320.5 2396.88,-320.5 2392.68,-316.3 2392.68,-312.1 2392.68,-312.1 2392.68,-303.7 2392.68,-303.7 2392.68,-299.5 2396.88,-295.3 2401.08,-295.3 2401.08,-295.3 2538.92,-295.3 2538.92,-295.3 2543.12,-295.3 2547.32,-299.5 2547.32,-303.7 2547.32,-303.7 2547.32,-312.1 2547.32,-312.1 2547.32,-316.3 2543.12,-320.5 2538.92,-320.5"/>
<text xml:space="preserve" text-anchor="middle" x="2470" y="-304.8" font-family="Helvetica,sans-Serif" font-size="8.00">CORE&#45;graft&#45;teach&#45;learning&#45;receipts &#45; S</text>
</g>
<!-- cool_ideas_CORE_graft_tool_client -->
<g id="node18" class="node">
<title>cool_ideas_CORE_graft_tool_client</title>
<path fill="#d4e8f7" stroke="black" d="M2660.67,-320.5C2660.67,-320.5 2569.33,-320.5 2569.33,-320.5 2565.12,-320.5 2560.93,-316.3 2560.93,-312.1 2560.93,-312.1 2560.93,-303.7 2560.93,-303.7 2560.93,-299.5 2565.12,-295.3 2569.33,-295.3 2569.33,-295.3 2660.67,-295.3 2660.67,-295.3 2664.88,-295.3 2669.07,-299.5 2669.07,-303.7 2669.07,-303.7 2669.07,-312.1 2669.07,-312.1 2669.07,-316.3 2664.88,-320.5 2660.67,-320.5"/>
<text xml:space="preserve" text-anchor="middle" x="2615" y="-304.8" font-family="Helvetica,sans-Serif" font-size="8.00">CORE&#45;graft&#45;tool&#45;client &#45; M</text>
</g>
<!-- cool_ideas_CORE_horizon_of_readability -->
<g id="node19" class="node">
<title>cool_ideas_CORE_horizon_of_readability</title>
<path fill="#d4e8f7" stroke="black" d="M2804.55,-320.5C2804.55,-320.5 2691.45,-320.5 2691.45,-320.5 2687.25,-320.5 2683.05,-316.3 2683.05,-312.1 2683.05,-312.1 2683.05,-303.7 2683.05,-303.7 2683.05,-299.5 2687.25,-295.3 2691.45,-295.3 2691.45,-295.3 2804.55,-295.3 2804.55,-295.3 2808.75,-295.3 2812.95,-299.5 2812.95,-303.7 2812.95,-303.7 2812.95,-312.1 2812.95,-312.1 2812.95,-316.3 2808.75,-320.5 2804.55,-320.5"/>
<text xml:space="preserve" text-anchor="middle" x="2748" y="-304.8" font-family="Helvetica,sans-Serif" font-size="8.00">CORE&#45;horizon&#45;of&#45;readability &#45; M</text>
</g>
<!-- cool_ideas_CORE_lagrangian_policy -->
<g id="node20" class="node">
<title>cool_ideas_CORE_lagrangian_policy</title>
<path fill="#d4e8f7" stroke="black" d="M2936.55,-320.5C2936.55,-320.5 2835.45,-320.5 2835.45,-320.5 2831.25,-320.5 2827.05,-316.3 2827.05,-312.1 2827.05,-312.1 2827.05,-303.7 2827.05,-303.7 2827.05,-299.5 2831.25,-295.3 2835.45,-295.3 2835.45,-295.3 2936.55,-295.3 2936.55,-295.3 2940.75,-295.3 2944.95,-299.5 2944.95,-303.7 2944.95,-303.7 2944.95,-312.1 2944.95,-312.1 2944.95,-316.3 2940.75,-320.5 2936.55,-320.5"/>
<text xml:space="preserve" text-anchor="middle" x="2886" y="-304.8" font-family="Helvetica,sans-Serif" font-size="8.00">CORE&#45;lagrangian&#45;policy &#45; XL</text>
</g>
<!-- cool_ideas_CORE_migrate_to_slice_first_reads -->
<g id="node21" class="node">
<title>cool_ideas_CORE_migrate_to_slice_first_reads</title>
<path fill="#d4e8f7" stroke="black" d="M10315.8,-247.05C10315.8,-247.05 10198.2,-247.05 10198.2,-247.05 10194,-247.05 10189.8,-242.85 10189.8,-238.65 10189.8,-238.65 10189.8,-230.25 10189.8,-230.25 10189.8,-226.05 10194,-221.85 10198.2,-221.85 10198.2,-221.85 10315.8,-221.85 10315.8,-221.85 10320,-221.85 10324.2,-226.05 10324.2,-230.25 10324.2,-230.25 10324.2,-238.65 10324.2,-238.65 10324.2,-242.85 10320,-247.05 10315.8,-247.05"/>
<text xml:space="preserve" text-anchor="middle" x="10257" y="-231.35" font-family="Helvetica,sans-Serif" font-size="8.00">CORE&#45;migrate&#45;to&#45;slice&#45;first&#45;reads</text>
</g>
<!-- cool_ideas_CORE_multi_agent_conflict_detection -->
<g id="node22" class="node">
<title>cool_ideas_CORE_multi_agent_conflict_detection</title>
<path fill="#d4e8f7" stroke="black" d="M3104.92,-320.5C3104.92,-320.5 2967.08,-320.5 2967.08,-320.5 2962.88,-320.5 2958.68,-316.3 2958.68,-312.1 2958.68,-312.1 2958.68,-303.7 2958.68,-303.7 2958.68,-299.5 2962.88,-295.3 2967.08,-295.3 2967.08,-295.3 3104.92,-295.3 3104.92,-295.3 3109.12,-295.3 3113.32,-299.5 3113.32,-303.7 3113.32,-303.7 3113.32,-312.1 3113.32,-312.1 3113.32,-316.3 3109.12,-320.5 3104.92,-320.5"/>
<text xml:space="preserve" text-anchor="middle" x="3036" y="-304.8" font-family="Helvetica,sans-Serif" font-size="8.00">CORE&#45;multi&#45;agent&#45;conflict&#45;detection &#45; L</text>
</g>
<!-- cool_ideas_CORE_policy_playground -->
<g id="node23" class="node">
<title>cool_ideas_CORE_policy_playground</title>
<path fill="#d4e8f7" stroke="black" d="M3234.42,-320.5C3234.42,-320.5 3135.58,-320.5 3135.58,-320.5 3131.38,-320.5 3127.18,-316.3 3127.18,-312.1 3127.18,-312.1 3127.18,-303.7 3127.18,-303.7 3127.18,-299.5 3131.38,-295.3 3135.58,-295.3 3135.58,-295.3 3234.42,-295.3 3234.42,-295.3 3238.62,-295.3 3242.82,-299.5 3242.82,-303.7 3242.82,-303.7 3242.82,-312.1 3242.82,-312.1 3242.82,-316.3 3238.62,-320.5 3234.42,-320.5"/>
<text xml:space="preserve" text-anchor="middle" x="3185" y="-304.8" font-family="Helvetica,sans-Serif" font-size="8.00">CORE&#45;policy&#45;playground &#45; S</text>
</g>
<!-- cool_ideas_CORE_policy_profiles -->
<g id="node24" class="node">
<title>cool_ideas_CORE_policy_profiles</title>
<path fill="#d4e8f7" stroke="black" d="M3351.05,-320.5C3351.05,-320.5 3264.95,-320.5 3264.95,-320.5 3260.75,-320.5 3256.55,-316.3 3256.55,-312.1 3256.55,-312.1 3256.55,-303.7 3256.55,-303.7 3256.55,-299.5 3260.75,-295.3 3264.95,-295.3 3264.95,-295.3 3351.05,-295.3 3351.05,-295.3 3355.25,-295.3 3359.45,-299.5 3359.45,-303.7 3359.45,-303.7 3359.45,-312.1 3359.45,-312.1 3359.45,-316.3 3355.25,-320.5 3351.05,-320.5"/>
<text xml:space="preserve" text-anchor="middle" x="3308" y="-304.8" font-family="Helvetica,sans-Serif" font-size="8.00">CORE&#45;policy&#45;profiles &#45; M</text>
</g>
<!-- cool_ideas_CORE_self_tuning_governor -->
<g id="node25" class="node">
<title>cool_ideas_CORE_self_tuning_governor</title>
<path fill="#d4e8f7" stroke="black" d="M3492.05,-320.5C3492.05,-320.5 3381.95,-320.5 3381.95,-320.5 3377.75,-320.5 3373.55,-316.3 3373.55,-312.1 3373.55,-312.1 3373.55,-303.7 3373.55,-303.7 3373.55,-299.5 3377.75,-295.3 3381.95,-295.3 3381.95,-295.3 3492.05,-295.3 3492.05,-295.3 3496.25,-295.3 3500.45,-299.5 3500.45,-303.7 3500.45,-303.7 3500.45,-312.1 3500.45,-312.1 3500.45,-316.3 3496.25,-320.5 3492.05,-320.5"/>
<text xml:space="preserve" text-anchor="middle" x="3437" y="-304.8" font-family="Helvetica,sans-Serif" font-size="8.00">CORE&#45;self&#45;tuning&#45;governor &#45; M</text>
</g>
<!-- cool_ideas_CORE_session_knowledge_map -->
<g id="node26" class="node">
<title>cool_ideas_CORE_session_knowledge_map</title>
<path fill="#d4e8f7" stroke="black" d="M3645.42,-320.5C3645.42,-320.5 3522.58,-320.5 3522.58,-320.5 3518.38,-320.5 3514.18,-316.3 3514.18,-312.1 3514.18,-312.1 3514.18,-303.7 3514.18,-303.7 3514.18,-299.5 3518.38,-295.3 3522.58,-295.3 3522.58,-295.3 3645.42,-295.3 3645.42,-295.3 3649.62,-295.3 3653.82,-299.5 3653.82,-303.7 3653.82,-303.7 3653.82,-312.1 3653.82,-312.1 3653.82,-316.3 3649.62,-320.5 3645.42,-320.5"/>
<text xml:space="preserve" text-anchor="middle" x="3584" y="-304.8" font-family="Helvetica,sans-Serif" font-size="8.00">CORE&#45;session&#45;knowledge&#45;map &#45; S</text>
</g>
<!-- cool_ideas_CORE_speculative_read_cost -->
<g id="node27" class="node">
<title>cool_ideas_CORE_speculative_read_cost</title>
<path fill="#d4e8f7" stroke="black" d="M3788.17,-320.5C3788.17,-320.5 3675.83,-320.5 3675.83,-320.5 3671.62,-320.5 3667.43,-316.3 3667.43,-312.1 3667.43,-312.1 3667.43,-303.7 3667.43,-303.7 3667.43,-299.5 3671.62,-295.3 3675.83,-295.3 3675.83,-295.3 3788.17,-295.3 3788.17,-295.3 3792.38,-295.3 3796.57,-299.5 3796.57,-303.7 3796.57,-303.7 3796.57,-312.1 3796.57,-312.1 3796.57,-316.3 3792.38,-320.5 3788.17,-320.5"/>
<text xml:space="preserve" text-anchor="middle" x="3732" y="-304.8" font-family="Helvetica,sans-Serif" font-size="8.00">CORE&#45;speculative&#45;read&#45;cost &#45; S</text>
</g>
<!-- cool_ideas_CORE_structural_session_replay -->
<g id="node28" class="node">
<title>cool_ideas_CORE_structural_session_replay</title>
<path fill="#d4e8f7" stroke="black" d="M3944.55,-320.5C3944.55,-320.5 3819.45,-320.5 3819.45,-320.5 3815.25,-320.5 3811.05,-316.3 3811.05,-312.1 3811.05,-312.1 3811.05,-303.7 3811.05,-303.7 3811.05,-299.5 3815.25,-295.3 3819.45,-295.3 3819.45,-295.3 3944.55,-295.3 3944.55,-295.3 3948.75,-295.3 3952.95,-299.5 3952.95,-303.7 3952.95,-303.7 3952.95,-312.1 3952.95,-312.1 3952.95,-316.3 3948.75,-320.5 3944.55,-320.5"/>
<text xml:space="preserve" text-anchor="middle" x="3882" y="-304.8" font-family="Helvetica,sans-Serif" font-size="8.00">CORE&#45;structural&#45;session&#45;replay &#45; M</text>
</g>
<!-- cool_ideas_CORE_structural_test_coverage_map -->
<g id="node29" class="node">
<title>cool_ideas_CORE_structural_test_coverage_map</title>
<path fill="#d4e8f7" stroke="black" d="M4116.8,-320.5C4116.8,-320.5 3975.2,-320.5 3975.2,-320.5 3971,-320.5 3966.8,-316.3 3966.8,-312.1 3966.8,-312.1 3966.8,-303.7 3966.8,-303.7 3966.8,-299.5 3971,-295.3 3975.2,-295.3 3975.2,-295.3 4116.8,-295.3 4116.8,-295.3 4121,-295.3 4125.2,-299.5 4125.2,-303.7 4125.2,-303.7 4125.2,-312.1 4125.2,-312.1 4125.2,-316.3 4121,-320.5 4116.8,-320.5"/>
<text xml:space="preserve" text-anchor="middle" x="4046" y="-304.8" font-family="Helvetica,sans-Serif" font-size="8.00">CORE&#45;structural&#45;test&#45;coverage&#45;map &#45; M</text>
</g>
<!-- cool_ideas_CORE_wire_primitives_into_runtime -->
<g id="node30" class="node">
<title>cool_ideas_CORE_wire_primitives_into_runtime</title>
<path fill="#d4e8f7" stroke="black" d="M4282.43,-320.5C4282.43,-320.5 4147.57,-320.5 4147.57,-320.5 4143.38,-320.5 4139.18,-316.3 4139.18,-312.1 4139.18,-312.1 4139.18,-303.7 4139.18,-303.7 4139.18,-299.5 4143.38,-295.3 4147.57,-295.3 4147.57,-295.3 4282.43,-295.3 4282.43,-295.3 4286.62,-295.3 4290.82,-299.5 4290.82,-303.7 4290.82,-303.7 4290.82,-312.1 4290.82,-312.1 4290.82,-316.3 4286.62,-320.5 4282.43,-320.5"/>
<text xml:space="preserve" text-anchor="middle" x="4215" y="-304.8" font-family="Helvetica,sans-Serif" font-size="8.00">CORE&#45;wire&#45;primitives&#45;into&#45;runtime &#45; M</text>
</g>
<!-- cool_ideas_monitor_tick_ceiling_tracking -->
<g id="node31" class="node">
<title>cool_ideas_monitor_tick_ceiling_tracking</title>
<path fill="#d4e8f7" stroke="black" d="M4420.55,-320.5C4420.55,-320.5 4313.45,-320.5 4313.45,-320.5 4309.25,-320.5 4305.05,-316.3 4305.05,-312.1 4305.05,-312.1 4305.05,-303.7 4305.05,-303.7 4305.05,-299.5 4309.25,-295.3 4313.45,-295.3 4313.45,-295.3 4420.55,-295.3 4420.55,-295.3 4424.75,-295.3 4428.95,-299.5 4428.95,-303.7 4428.95,-303.7 4428.95,-312.1 4428.95,-312.1 4428.95,-316.3 4424.75,-320.5 4420.55,-320.5"/>
<text xml:space="preserve" text-anchor="middle" x="4367" y="-304.8" font-family="Helvetica,sans-Serif" font-size="8.00">monitor&#45;tick&#45;ceiling&#45;tracking &#45; S</text>
</g>
<!-- cool_ideas_WARP_background_indexing -->
<g id="node50" class="node">
<title>cool_ideas_WARP_background_indexing</title>
<path fill="#d4e8f7" stroke="black" d="M4423.55,-247.05C4423.55,-247.05 4310.45,-247.05 4310.45,-247.05 4306.25,-247.05 4302.05,-242.85 4302.05,-238.65 4302.05,-238.65 4302.05,-230.25 4302.05,-230.25 4302.05,-226.05 4306.25,-221.85 4310.45,-221.85 4310.45,-221.85 4423.55,-221.85 4423.55,-221.85 4427.75,-221.85 4431.95,-226.05 4431.95,-230.25 4431.95,-230.25 4431.95,-238.65 4431.95,-238.65 4431.95,-242.85 4427.75,-247.05 4423.55,-247.05"/>
<text xml:space="preserve" text-anchor="middle" x="4367" y="-231.35" font-family="Helvetica,sans-Serif" font-size="8.00">WARP&#45;background&#45;indexing &#45; M</text>
</g>
<!-- cool_ideas_monitor_tick_ceiling_tracking&#45;&gt;cool_ideas_WARP_background_indexing -->
<g id="edge1" class="edge">
<title>cool_ideas_monitor_tick_ceiling_tracking&#45;&gt;cool_ideas_WARP_background_indexing</title>
<path fill="none" stroke="#666666" d="M4367,-295.1C4367,-283.9 4367,-266.88 4367,-253.88"/>
<polygon fill="#666666" stroke="#666666" points="4368.75,-254.02 4367,-249.02 4365.25,-254.02 4368.75,-254.02"/>
<text xml:space="preserve" text-anchor="middle" x="4398.5" y="-268.65" font-family="Helvetica,sans-Serif" font-size="7.00">blocked_by/blocking</text>
</g>
<!-- cool_ideas_SURFACE_active_causal_workspace_status -->
<g id="node32" class="node">
<title>cool_ideas_SURFACE_active_causal_workspace_status</title>
<path fill="#d4e8f7" stroke="black" d="M4615.05,-320.5C4615.05,-320.5 4450.95,-320.5 4450.95,-320.5 4446.75,-320.5 4442.55,-316.3 4442.55,-312.1 4442.55,-312.1 4442.55,-303.7 4442.55,-303.7 4442.55,-299.5 4446.75,-295.3 4450.95,-295.3 4450.95,-295.3 4615.05,-295.3 4615.05,-295.3 4619.25,-295.3 4623.45,-299.5 4623.45,-303.7 4623.45,-303.7 4623.45,-312.1 4623.45,-312.1 4623.45,-316.3 4619.25,-320.5 4615.05,-320.5"/>
<text xml:space="preserve" text-anchor="middle" x="4533" y="-304.8" font-family="Helvetica,sans-Serif" font-size="8.00">SURFACE&#45;active&#45;causal&#45;workspace&#45;status &#45; M</text>
</g>
<!-- cool_ideas_SURFACE_ide_native_graft_integration -->
<g id="node38" class="node">
<title>cool_ideas_SURFACE_ide_native_graft_integration</title>
<path fill="#d4e8f7" stroke="black" d="M4608.3,-247.05C4608.3,-247.05 4457.7,-247.05 4457.7,-247.05 4453.5,-247.05 4449.3,-242.85 4449.3,-238.65 4449.3,-238.65 4449.3,-230.25 4449.3,-230.25 4449.3,-226.05 4453.5,-221.85 4457.7,-221.85 4457.7,-221.85 4608.3,-221.85 4608.3,-221.85 4612.5,-221.85 4616.7,-226.05 4616.7,-230.25 4616.7,-230.25 4616.7,-238.65 4616.7,-238.65 4616.7,-242.85 4612.5,-247.05 4608.3,-247.05"/>
<text xml:space="preserve" text-anchor="middle" x="4533" y="-231.35" font-family="Helvetica,sans-Serif" font-size="8.00">SURFACE&#45;ide&#45;native&#45;graft&#45;integration &#45; XL</text>
</g>
<!-- cool_ideas_SURFACE_active_causal_workspace_status&#45;&gt;cool_ideas_SURFACE_ide_native_graft_integration -->
<g id="edge2" class="edge">
<title>cool_ideas_SURFACE_active_causal_workspace_status&#45;&gt;cool_ideas_SURFACE_ide_native_graft_integration</title>
<path fill="none" stroke="#666666" d="M4533,-295.1C4533,-283.9 4533,-266.88 4533,-253.88"/>
<polygon fill="#666666" stroke="#666666" points="4534.75,-254.02 4533,-249.02 4531.25,-254.02 4534.75,-254.02"/>
<text xml:space="preserve" text-anchor="middle" x="4564.5" y="-268.65" font-family="Helvetica,sans-Serif" font-size="7.00">blocked_by/blocking</text>
</g>
<!-- cool_ideas_SURFACE_attach_to_existing_causal_session -->
<g id="node33" class="node">
<title>cool_ideas_SURFACE_attach_to_existing_causal_session</title>
<path fill="#d4e8f7" stroke="black" d="M4814.3,-320.5C4814.3,-320.5 4645.7,-320.5 4645.7,-320.5 4641.5,-320.5 4637.3,-316.3 4637.3,-312.1 4637.3,-312.1 4637.3,-303.7 4637.3,-303.7 4637.3,-299.5 4641.5,-295.3 4645.7,-295.3 4645.7,-295.3 4814.3,-295.3 4814.3,-295.3 4818.5,-295.3 4822.7,-299.5 4822.7,-303.7 4822.7,-303.7 4822.7,-312.1 4822.7,-312.1 4822.7,-316.3 4818.5,-320.5 4814.3,-320.5"/>
<text xml:space="preserve" text-anchor="middle" x="4730" y="-304.8" font-family="Helvetica,sans-Serif" font-size="8.00">SURFACE&#45;attach&#45;to&#45;existing&#45;causal&#45;session &#45; M</text>
</g>
<!-- cool_ideas_SURFACE_bijou_daemon_control_plane_actions -->
<g id="node34" class="node">
<title>cool_ideas_SURFACE_bijou_daemon_control_plane_actions</title>
<path fill="#d4e8f7" stroke="black" d="M5022.43,-320.5C5022.43,-320.5 4845.57,-320.5 4845.57,-320.5 4841.38,-320.5 4837.18,-316.3 4837.18,-312.1 4837.18,-312.1 4837.18,-303.7 4837.18,-303.7 4837.18,-299.5 4841.38,-295.3 4845.57,-295.3 4845.57,-295.3 5022.43,-295.3 5022.43,-295.3 5026.62,-295.3 5030.82,-299.5 5030.82,-303.7 5030.82,-303.7 5030.82,-312.1 5030.82,-312.1 5030.82,-316.3 5026.62,-320.5 5022.43,-320.5"/>
<text xml:space="preserve" text-anchor="middle" x="4934" y="-304.8" font-family="Helvetica,sans-Serif" font-size="8.00">SURFACE&#45;bijou&#45;daemon&#45;control&#45;plane&#45;actions &#45; L</text>
</g>
<!-- cool_ideas_SURFACE_bijou_daemon_status_live_refresh -->
<g id="node35" class="node">
<title>cool_ideas_SURFACE_bijou_daemon_status_live_refresh</title>
<path fill="#d4e8f7" stroke="black" d="M5222.3,-320.5C5222.3,-320.5 5053.7,-320.5 5053.7,-320.5 5049.5,-320.5 5045.3,-316.3 5045.3,-312.1 5045.3,-312.1 5045.3,-303.7 5045.3,-303.7 5045.3,-299.5 5049.5,-295.3 5053.7,-295.3 5053.7,-295.3 5222.3,-295.3 5222.3,-295.3 5226.5,-295.3 5230.7,-299.5 5230.7,-303.7 5230.7,-303.7 5230.7,-312.1 5230.7,-312.1 5230.7,-316.3 5226.5,-320.5 5222.3,-320.5"/>
<text xml:space="preserve" text-anchor="middle" x="5138" y="-304.8" font-family="Helvetica,sans-Serif" font-size="8.00">SURFACE&#45;bijou&#45;daemon&#45;status&#45;live&#45;refresh &#45; M</text>
</g>
<!-- cool_ideas_SURFACE_git_graft_enhance_expanded_git_subcommands -->
<g id="node36" class="node">
<title>cool_ideas_SURFACE_git_graft_enhance_expanded_git_subcommands</title>
<path fill="#d4e8f7" stroke="black" d="M5457.3,-320.5C5457.3,-320.5 5252.7,-320.5 5252.7,-320.5 5248.5,-320.5 5244.3,-316.3 5244.3,-312.1 5244.3,-312.1 5244.3,-303.7 5244.3,-303.7 5244.3,-299.5 5248.5,-295.3 5252.7,-295.3 5252.7,-295.3 5457.3,-295.3 5457.3,-295.3 5461.5,-295.3 5465.7,-299.5 5465.7,-303.7 5465.7,-303.7 5465.7,-312.1 5465.7,-312.1 5465.7,-316.3 5461.5,-320.5 5457.3,-320.5"/>
<text xml:space="preserve" text-anchor="middle" x="5355" y="-304.8" font-family="Helvetica,sans-Serif" font-size="8.00">SURFACE&#45;git&#45;graft&#45;enhance&#45;expanded&#45;git&#45;subcommands</text>
</g>
<!-- cool_ideas_SURFACE_git_graft_enhance_provenance_hints -->
<g id="node37" class="node">
<title>cool_ideas_SURFACE_git_graft_enhance_provenance_hints</title>
<path fill="#d4e8f7" stroke="black" d="M5653.43,-320.5C5653.43,-320.5 5488.57,-320.5 5488.57,-320.5 5484.38,-320.5 5480.18,-316.3 5480.18,-312.1 5480.18,-312.1 5480.18,-303.7 5480.18,-303.7 5480.18,-299.5 5484.38,-295.3 5488.57,-295.3 5488.57,-295.3 5653.43,-295.3 5653.43,-295.3 5657.62,-295.3 5661.82,-299.5 5661.82,-303.7 5661.82,-303.7 5661.82,-312.1 5661.82,-312.1 5661.82,-316.3 5657.62,-320.5 5653.43,-320.5"/>
<text xml:space="preserve" text-anchor="middle" x="5571" y="-304.8" font-family="Helvetica,sans-Serif" font-size="8.00">SURFACE&#45;git&#45;graft&#45;enhance&#45;provenance&#45;hints</text>
</g>
<!-- cool_ideas_SURFACE_init_dry_run -->
<g id="node39" class="node">
<title>cool_ideas_SURFACE_init_dry_run</title>
<path fill="#d4e8f7" stroke="black" d="M5775.3,-320.5C5775.3,-320.5 5684.7,-320.5 5684.7,-320.5 5680.5,-320.5 5676.3,-316.3 5676.3,-312.1 5676.3,-312.1 5676.3,-303.7 5676.3,-303.7 5676.3,-299.5 5680.5,-295.3 5684.7,-295.3 5684.7,-295.3 5775.3,-295.3 5775.3,-295.3 5779.5,-295.3 5783.7,-299.5 5783.7,-303.7 5783.7,-303.7 5783.7,-312.1 5783.7,-312.1 5783.7,-316.3 5779.5,-320.5 5775.3,-320.5"/>
<text xml:space="preserve" text-anchor="middle" x="5730" y="-304.8" font-family="Helvetica,sans-Serif" font-size="8.00">SURFACE&#45;init&#45;dry&#45;run &#45; S</text>
</g>
<!-- cool_ideas_SURFACE_local_history_dag_render_mode_and_count_legend -->
<g id="node40" class="node">
<title>cool_ideas_SURFACE_local_history_dag_render_mode_and_count_legend</title>
<path fill="#d4e8f7" stroke="black" d="M6032.18,-320.5C6032.18,-320.5 5805.82,-320.5 5805.82,-320.5 5801.62,-320.5 5797.43,-316.3 5797.43,-312.1 5797.43,-312.1 5797.43,-303.7 5797.43,-303.7 5797.43,-299.5 5801.62,-295.3 5805.82,-295.3 5805.82,-295.3 6032.18,-295.3 6032.18,-295.3 6036.38,-295.3 6040.57,-299.5 6040.57,-303.7 6040.57,-303.7 6040.57,-312.1 6040.57,-312.1 6040.57,-316.3 6036.38,-320.5 6032.18,-320.5"/>
<text xml:space="preserve" text-anchor="middle" x="5919" y="-304.8" font-family="Helvetica,sans-Serif" font-size="8.00">SURFACE&#45;local&#45;history&#45;dag&#45;render&#45;mode&#45;and&#45;count&#45;legend &#45; S</text>
</g>
<!-- cool_ideas_SURFACE_non_codex_instruction_bootstrap_parity -->
<g id="node41" class="node">
<title>cool_ideas_SURFACE_non_codex_instruction_bootstrap_parity</title>
<path fill="#d4e8f7" stroke="black" d="M6251.43,-320.5C6251.43,-320.5 6062.57,-320.5 6062.57,-320.5 6058.38,-320.5 6054.18,-316.3 6054.18,-312.1 6054.18,-312.1 6054.18,-303.7 6054.18,-303.7 6054.18,-299.5 6058.38,-295.3 6062.57,-295.3 6062.57,-295.3 6251.43,-295.3 6251.43,-295.3 6255.62,-295.3 6259.82,-299.5 6259.82,-303.7 6259.82,-303.7 6259.82,-312.1 6259.82,-312.1 6259.82,-316.3 6255.62,-320.5 6251.43,-320.5"/>
<text xml:space="preserve" text-anchor="middle" x="6157" y="-304.8" font-family="Helvetica,sans-Serif" font-size="8.00">SURFACE&#45;non&#45;codex&#45;instruction&#45;bootstrap&#45;parity &#45; M</text>
</g>
<!-- cool_ideas_SURFACE_offer_rename_refactor -->
<g id="node42" class="node">
<title>cool_ideas_SURFACE_offer_rename_refactor</title>
<path fill="#d4e8f7" stroke="black" d="M6411.43,-320.5C6411.43,-320.5 6282.57,-320.5 6282.57,-320.5 6278.38,-320.5 6274.18,-316.3 6274.18,-312.1 6274.18,-312.1 6274.18,-303.7 6274.18,-303.7 6274.18,-299.5 6278.38,-295.3 6282.57,-295.3 6282.57,-295.3 6411.43,-295.3 6411.43,-295.3 6415.62,-295.3 6419.82,-299.5 6419.82,-303.7 6419.82,-303.7 6419.82,-312.1 6419.82,-312.1 6419.82,-316.3 6415.62,-320.5 6411.43,-320.5"/>
<text xml:space="preserve" text-anchor="middle" x="6347" y="-304.8" font-family="Helvetica,sans-Serif" font-size="8.00">SURFACE&#45;offer&#45;rename&#45;refactor &#45; L</text>
</g>
<!-- cool_ideas_SURFACE_pr_feedback_resolution_ledger -->
<g id="node43" class="node">
<title>cool_ideas_SURFACE_pr_feedback_resolution_ledger</title>
<path fill="#d4e8f7" stroke="black" d="M6601.43,-320.5C6601.43,-320.5 6442.57,-320.5 6442.57,-320.5 6438.38,-320.5 6434.18,-316.3 6434.18,-312.1 6434.18,-312.1 6434.18,-303.7 6434.18,-303.7 6434.18,-299.5 6438.38,-295.3 6442.57,-295.3 6442.57,-295.3 6601.43,-295.3 6601.43,-295.3 6605.62,-295.3 6609.82,-299.5 6609.82,-303.7 6609.82,-303.7 6609.82,-312.1 6609.82,-312.1 6609.82,-316.3 6605.62,-320.5 6601.43,-320.5"/>
<text xml:space="preserve" text-anchor="middle" x="6522" y="-304.8" font-family="Helvetica,sans-Serif" font-size="8.00">SURFACE&#45;pr&#45;feedback&#45;resolution&#45;ledger &#45; M</text>
</g>
<!-- cool_ideas_SURFACE_review_cooldown_status -->
<g id="node44" class="node">
<title>cool_ideas_SURFACE_review_cooldown_status</title>
<path fill="#d4e8f7" stroke="black" d="M6767.8,-320.5C6767.8,-320.5 6632.2,-320.5 6632.2,-320.5 6628,-320.5 6623.8,-316.3 6623.8,-312.1 6623.8,-312.1 6623.8,-303.7 6623.8,-303.7 6623.8,-299.5 6628,-295.3 6632.2,-295.3 6632.2,-295.3 6767.8,-295.3 6767.8,-295.3 6772,-295.3 6776.2,-299.5 6776.2,-303.7 6776.2,-303.7 6776.2,-312.1 6776.2,-312.1 6776.2,-316.3 6772,-320.5 6767.8,-320.5"/>
<text xml:space="preserve" text-anchor="middle" x="6700" y="-304.8" font-family="Helvetica,sans-Serif" font-size="8.00">SURFACE&#45;review&#45;cooldown&#45;status &#45; S</text>
</g>
<!-- cool_ideas_SURFACE_terminal_activity_browser_tui -->
<g id="node45" class="node">
<title>cool_ideas_SURFACE_terminal_activity_browser_tui</title>
<path fill="#d4e8f7" stroke="black" d="M6947.55,-320.5C6947.55,-320.5 6798.45,-320.5 6798.45,-320.5 6794.25,-320.5 6790.05,-316.3 6790.05,-312.1 6790.05,-312.1 6790.05,-303.7 6790.05,-303.7 6790.05,-299.5 6794.25,-295.3 6798.45,-295.3 6798.45,-295.3 6947.55,-295.3 6947.55,-295.3 6951.75,-295.3 6955.95,-299.5 6955.95,-303.7 6955.95,-303.7 6955.95,-312.1 6955.95,-312.1 6955.95,-316.3 6951.75,-320.5 6947.55,-320.5"/>
<text xml:space="preserve" text-anchor="middle" x="6873" y="-304.8" font-family="Helvetica,sans-Serif" font-size="8.00">SURFACE&#45;terminal&#45;activity&#45;browser&#45;tui &#45; L</text>
</g>
<!-- cool_ideas_traverse_plus_query_hydration_helper -->
<g id="node46" class="node">
<title>cool_ideas_traverse_plus_query_hydration_helper</title>
<path fill="#d4e8f7" stroke="black" d="M7119.8,-320.5C7119.8,-320.5 6978.2,-320.5 6978.2,-320.5 6974,-320.5 6969.8,-316.3 6969.8,-312.1 6969.8,-312.1 6969.8,-303.7 6969.8,-303.7 6969.8,-299.5 6974,-295.3 6978.2,-295.3 6978.2,-295.3 7119.8,-295.3 7119.8,-295.3 7124,-295.3 7128.2,-299.5 7128.2,-303.7 7128.2,-303.7 7128.2,-312.1 7128.2,-312.1 7128.2,-316.3 7124,-320.5 7119.8,-320.5"/>
<text xml:space="preserve" text-anchor="middle" x="7049" y="-304.8" font-family="Helvetica,sans-Serif" font-size="8.00">traverse&#45;plus&#45;query&#45;hydration&#45;helper &#45; S</text>
</g>
<!-- cool_ideas_WARP_adaptive_projection_selection -->
<g id="node47" class="node">
<title>cool_ideas_WARP_adaptive_projection_selection</title>
<path fill="#d4e8f7" stroke="black" d="M7288.93,-320.5C7288.93,-320.5 7151.07,-320.5 7151.07,-320.5 7146.88,-320.5 7142.68,-316.3 7142.68,-312.1 7142.68,-312.1 7142.68,-303.7 7142.68,-303.7 7142.68,-299.5 7146.88,-295.3 7151.07,-295.3 7151.07,-295.3 7288.93,-295.3 7288.93,-295.3 7293.12,-295.3 7297.32,-299.5 7297.32,-303.7 7297.32,-303.7 7297.32,-312.1 7297.32,-312.1 7297.32,-316.3 7293.12,-320.5 7288.93,-320.5"/>
<text xml:space="preserve" text-anchor="middle" x="7220" y="-304.8" font-family="Helvetica,sans-Serif" font-size="8.00">WARP&#45;adaptive&#45;projection&#45;selection &#45; L</text>
</g>
<!-- cool_ideas_WARP_agent_action_provenance -->
<g id="node48" class="node">
<title>cool_ideas_WARP_agent_action_provenance</title>
<path fill="#d4e8f7" stroke="black" d="M7450.55,-320.5C7450.55,-320.5 7319.45,-320.5 7319.45,-320.5 7315.25,-320.5 7311.05,-316.3 7311.05,-312.1 7311.05,-312.1 7311.05,-303.7 7311.05,-303.7 7311.05,-299.5 7315.25,-295.3 7319.45,-295.3 7319.45,-295.3 7450.55,-295.3 7450.55,-295.3 7454.75,-295.3 7458.95,-299.5 7458.95,-303.7 7458.95,-303.7 7458.95,-312.1 7458.95,-312.1 7458.95,-316.3 7454.75,-320.5 7450.55,-320.5"/>
<text xml:space="preserve" text-anchor="middle" x="7385" y="-304.8" font-family="Helvetica,sans-Serif" font-size="8.00">WARP&#45;agent&#45;action&#45;provenance &#45; XL</text>
</g>
<!-- cool_ideas_WARP_agent_action_provenance&#45;&gt;cool_ideas_CI_001_causal_collapse_visualizer -->
<g id="edge3" class="edge">
<title>cool_ideas_WARP_agent_action_provenance&#45;&gt;cool_ideas_CI_001_causal_collapse_visualizer</title>
<path fill="none" stroke="#666666" d="M7410.81,-294.81C7423.04,-289.01 7437.83,-281.9 7451,-275.3 7466.99,-267.28 7484.7,-258.02 7499,-250.44"/>
<polygon fill="#666666" stroke="#666666" points="7499.57,-252.12 7503.16,-248.23 7497.92,-249.03 7499.57,-252.12"/>
<text xml:space="preserve" text-anchor="middle" x="7497.14" y="-268.65" font-family="Helvetica,sans-Serif" font-size="7.00">blocked_by/blocking</text>
</g>
<!-- cool_ideas_WARP_causal_write_tracking -->
<g id="node53" class="node">
<title>cool_ideas_WARP_causal_write_tracking</title>
<path fill="#d4e8f7" stroke="black" d="M7143.05,-247.05C7143.05,-247.05 7032.95,-247.05 7032.95,-247.05 7028.75,-247.05 7024.55,-242.85 7024.55,-238.65 7024.55,-238.65 7024.55,-230.25 7024.55,-230.25 7024.55,-226.05 7028.75,-221.85 7032.95,-221.85 7032.95,-221.85 7143.05,-221.85 7143.05,-221.85 7147.25,-221.85 7151.45,-226.05 7151.45,-230.25 7151.45,-230.25 7151.45,-238.65 7151.45,-238.65 7151.45,-242.85 7147.25,-247.05 7143.05,-247.05"/>
<text xml:space="preserve" text-anchor="middle" x="7088" y="-231.35" font-family="Helvetica,sans-Serif" font-size="8.00">WARP&#45;causal&#45;write&#45;tracking &#45; L</text>
</g>
<!-- cool_ideas_WARP_agent_action_provenance&#45;&gt;cool_ideas_WARP_causal_write_tracking -->
<g id="edge4" class="edge">
<title>cool_ideas_WARP_agent_action_provenance&#45;&gt;cool_ideas_WARP_causal_write_tracking</title>
<path fill="none" stroke="#666666" d="M7337.13,-294.83C7326.27,-292.23 7314.76,-289.58 7304,-287.3 7274.83,-281.12 7267.1,-281.8 7238,-275.3 7203.63,-267.62 7165.25,-257.4 7135.92,-249.23"/>
<polygon fill="#666666" stroke="#666666" points="7136.55,-247.58 7131.26,-247.92 7135.61,-250.96 7136.55,-247.58"/>
<text xml:space="preserve" text-anchor="middle" x="7269.5" y="-268.65" font-family="Helvetica,sans-Serif" font-size="7.00">blocked_by/blocking</text>
</g>
<!-- cool_ideas_WARP_intent_and_decision_events -->
<g id="node63" class="node">
<title>cool_ideas_WARP_intent_and_decision_events</title>
<path fill="#d4e8f7" stroke="black" d="M7306.3,-247.05C7306.3,-247.05 7173.7,-247.05 7173.7,-247.05 7169.5,-247.05 7165.3,-242.85 7165.3,-238.65 7165.3,-238.65 7165.3,-230.25 7165.3,-230.25 7165.3,-226.05 7169.5,-221.85 7173.7,-221.85 7173.7,-221.85 7306.3,-221.85 7306.3,-221.85 7310.5,-221.85 7314.7,-226.05 7314.7,-230.25 7314.7,-230.25 7314.7,-238.65 7314.7,-238.65 7314.7,-242.85 7310.5,-247.05 7306.3,-247.05"/>
<text xml:space="preserve" text-anchor="middle" x="7240" y="-231.35" font-family="Helvetica,sans-Serif" font-size="8.00">WARP&#45;intent&#45;and&#45;decision&#45;events &#45; M</text>
</g>
<!-- cool_ideas_WARP_agent_action_provenance&#45;&gt;cool_ideas_WARP_intent_and_decision_events -->
<g id="edge5" class="edge">
<title>cool_ideas_WARP_agent_action_provenance&#45;&gt;cool_ideas_WARP_intent_and_decision_events</title>
<path fill="none" stroke="#666666" d="M7359.55,-294.87C7347.27,-289.02 7332.34,-281.86 7319,-275.3 7302.45,-267.16 7284.05,-257.89 7269.17,-250.34"/>
<polygon fill="#666666" stroke="#666666" points="7270.04,-248.83 7264.79,-248.12 7268.46,-251.95 7270.04,-248.83"/>
<text xml:space="preserve" text-anchor="middle" x="7350.5" y="-268.65" font-family="Helvetica,sans-Serif" font-size="7.00">blocked_by/blocking</text>
</g>
<!-- cool_ideas_WARP_provenance_dag -->
<g id="node68" class="node">
<title>cool_ideas_WARP_provenance_dag</title>
<path fill="#d4e8f7" stroke="black" d="M7432.55,-247.05C7432.55,-247.05 7337.45,-247.05 7337.45,-247.05 7333.25,-247.05 7329.05,-242.85 7329.05,-238.65 7329.05,-238.65 7329.05,-230.25 7329.05,-230.25 7329.05,-226.05 7333.25,-221.85 7337.45,-221.85 7337.45,-221.85 7432.55,-221.85 7432.55,-221.85 7436.75,-221.85 7440.95,-226.05 7440.95,-230.25 7440.95,-230.25 7440.95,-238.65 7440.95,-238.65 7440.95,-242.85 7436.75,-247.05 7432.55,-247.05"/>
<text xml:space="preserve" text-anchor="middle" x="7385" y="-231.35" font-family="Helvetica,sans-Serif" font-size="8.00">WARP&#45;provenance&#45;dag &#45; L</text>
</g>
<!-- cool_ideas_WARP_agent_action_provenance&#45;&gt;cool_ideas_WARP_provenance_dag -->
<g id="edge6" class="edge">
<title>cool_ideas_WARP_agent_action_provenance&#45;&gt;cool_ideas_WARP_provenance_dag</title>
<path fill="none" stroke="#666666" d="M7385,-295.1C7385,-283.9 7385,-266.88 7385,-253.88"/>
<polygon fill="#666666" stroke="#666666" points="7386.75,-254.02 7385,-249.02 7383.25,-254.02 7386.75,-254.02"/>
<text xml:space="preserve" text-anchor="middle" x="7416.5" y="-268.65" font-family="Helvetica,sans-Serif" font-size="7.00">blocked_by/blocking</text>
</g>
<!-- cool_ideas_WARP_auto_breaking_change_detection -->
<g id="node49" class="node">
<title>cool_ideas_WARP_auto_breaking_change_detection</title>
<path fill="#d4e8f7" stroke="black" d="M10497.3,-247.05C10497.3,-247.05 10346.7,-247.05 10346.7,-247.05 10342.5,-247.05 10338.3,-242.85 10338.3,-238.65 10338.3,-238.65 10338.3,-230.25 10338.3,-230.25 10338.3,-226.05 10342.5,-221.85 10346.7,-221.85 10346.7,-221.85 10497.3,-221.85 10497.3,-221.85 10501.5,-221.85 10505.7,-226.05 10505.7,-230.25 10505.7,-230.25 10505.7,-238.65 10505.7,-238.65 10505.7,-242.85 10501.5,-247.05 10497.3,-247.05"/>
<text xml:space="preserve" text-anchor="middle" x="10422" y="-231.35" font-family="Helvetica,sans-Serif" font-size="8.00">WARP&#45;auto&#45;breaking&#45;change&#45;detection &#45; L</text>
</g>
<!-- cool_ideas_WARP_budget_elasticity -->
<g id="node51" class="node">
<title>cool_ideas_WARP_budget_elasticity</title>
<path fill="#d4e8f7" stroke="black" d="M7576.93,-320.5C7576.93,-320.5 7481.07,-320.5 7481.07,-320.5 7476.88,-320.5 7472.68,-316.3 7472.68,-312.1 7472.68,-312.1 7472.68,-303.7 7472.68,-303.7 7472.68,-299.5 7476.88,-295.3 7481.07,-295.3 7481.07,-295.3 7576.93,-295.3 7576.93,-295.3 7581.12,-295.3 7585.32,-299.5 7585.32,-303.7 7585.32,-303.7 7585.32,-312.1 7585.32,-312.1 7585.32,-316.3 7581.12,-320.5 7576.93,-320.5"/>
<text xml:space="preserve" text-anchor="middle" x="7529" y="-304.8" font-family="Helvetica,sans-Serif" font-size="8.00">WARP&#45;budget&#45;elasticity &#45; M</text>
</g>
<!-- cool_ideas_WARP_causal_blame_for_staged_artifacts -->
<g id="node52" class="node">
<title>cool_ideas_WARP_causal_blame_for_staged_artifacts</title>
<path fill="#d4e8f7" stroke="black" d="M7536.18,-173.6C7536.18,-173.6 7381.82,-173.6 7381.82,-173.6 7377.62,-173.6 7373.43,-169.4 7373.43,-165.2 7373.43,-165.2 7373.43,-156.8 7373.43,-156.8 7373.43,-152.6 7377.62,-148.4 7381.82,-148.4 7381.82,-148.4 7536.18,-148.4 7536.18,-148.4 7540.38,-148.4 7544.57,-152.6 7544.57,-156.8 7544.57,-156.8 7544.57,-165.2 7544.57,-165.2 7544.57,-169.4 7540.38,-173.6 7536.18,-173.6"/>
<text xml:space="preserve" text-anchor="middle" x="7459" y="-157.9" font-family="Helvetica,sans-Serif" font-size="8.00">WARP&#45;causal&#45;blame&#45;for&#45;staged&#45;artifacts &#45; L</text>
</g>
<!-- cool_ideas_WARP_codebase_entropy_trajectory -->
<g id="node54" class="node">
<title>cool_ideas_WARP_codebase_entropy_trajectory</title>
<path fill="#d4e8f7" stroke="black" d="M7746.68,-320.5C7746.68,-320.5 7607.32,-320.5 7607.32,-320.5 7603.12,-320.5 7598.93,-316.3 7598.93,-312.1 7598.93,-312.1 7598.93,-303.7 7598.93,-303.7 7598.93,-299.5 7603.12,-295.3 7607.32,-295.3 7607.32,-295.3 7746.68,-295.3 7746.68,-295.3 7750.88,-295.3 7755.07,-299.5 7755.07,-303.7 7755.07,-303.7 7755.07,-312.1 7755.07,-312.1 7755.07,-316.3 7750.88,-320.5 7746.68,-320.5"/>
<text xml:space="preserve" text-anchor="middle" x="7677" y="-304.8" font-family="Helvetica,sans-Serif" font-size="8.00">WARP&#45;codebase&#45;entropy&#45;trajectory &#45; M</text>
</g>
<!-- cool_ideas_WARP_counterfactual_refactoring -->
<g id="node56" class="node">
<title>cool_ideas_WARP_counterfactual_refactoring</title>
<path fill="#d4e8f7" stroke="black" d="M7754.68,-247.05C7754.68,-247.05 7621.32,-247.05 7621.32,-247.05 7617.12,-247.05 7612.93,-242.85 7612.93,-238.65 7612.93,-238.65 7612.93,-230.25 7612.93,-230.25 7612.93,-226.05 7617.12,-221.85 7621.32,-221.85 7621.32,-221.85 7754.68,-221.85 7754.68,-221.85 7758.88,-221.85 7763.07,-226.05 7763.07,-230.25 7763.07,-230.25 7763.07,-238.65 7763.07,-238.65 7763.07,-242.85 7758.88,-247.05 7754.68,-247.05"/>
<text xml:space="preserve" text-anchor="middle" x="7688" y="-231.35" font-family="Helvetica,sans-Serif" font-size="8.00">WARP&#45;counterfactual&#45;refactoring &#45; XL</text>
</g>
<!-- cool_ideas_WARP_codebase_entropy_trajectory&#45;&gt;cool_ideas_WARP_counterfactual_refactoring -->
<g id="edge7" class="edge">
<title>cool_ideas_WARP_codebase_entropy_trajectory&#45;&gt;cool_ideas_WARP_counterfactual_refactoring</title>
<path fill="none" stroke="#666666" d="M7678.82,-295.1C7680.54,-283.9 7683.16,-266.88 7685.16,-253.88"/>
<polygon fill="#666666" stroke="#666666" points="7686.88,-254.21 7685.91,-249 7683.42,-253.68 7686.88,-254.21"/>
<text xml:space="preserve" text-anchor="middle" x="7714.33" y="-268.65" font-family="Helvetica,sans-Serif" font-size="7.00">blocked_by/blocking</text>
</g>
<!-- cool_ideas_WARP_codebase_signature -->
<g id="node55" class="node">
<title>cool_ideas_WARP_codebase_signature</title>
<path fill="#d4e8f7" stroke="black" d="M7884.55,-320.5C7884.55,-320.5 7777.45,-320.5 7777.45,-320.5 7773.25,-320.5 7769.05,-316.3 7769.05,-312.1 7769.05,-312.1 7769.05,-303.7 7769.05,-303.7 7769.05,-299.5 7773.25,-295.3 7777.45,-295.3 7777.45,-295.3 7884.55,-295.3 7884.55,-295.3 7888.75,-295.3 7892.95,-299.5 7892.95,-303.7 7892.95,-303.7 7892.95,-312.1 7892.95,-312.1 7892.95,-316.3 7888.75,-320.5 7884.55,-320.5"/>
<text xml:space="preserve" text-anchor="middle" x="7831" y="-304.8" font-family="Helvetica,sans-Serif" font-size="8.00">WARP&#45;codebase&#45;signature &#45; L</text>
</g>
<!-- cool_ideas_WARP_structural_impact_prediction -->
<g id="node78" class="node">
<title>cool_ideas_WARP_structural_impact_prediction</title>
<path fill="#d4e8f7" stroke="black" d="M7757.3,-173.6C7757.3,-173.6 7618.7,-173.6 7618.7,-173.6 7614.5,-173.6 7610.3,-169.4 7610.3,-165.2 7610.3,-165.2 7610.3,-156.8 7610.3,-156.8 7610.3,-152.6 7614.5,-148.4 7618.7,-148.4 7618.7,-148.4 7757.3,-148.4 7757.3,-148.4 7761.5,-148.4 7765.7,-152.6 7765.7,-156.8 7765.7,-156.8 7765.7,-165.2 7765.7,-165.2 7765.7,-169.4 7761.5,-173.6 7757.3,-173.6"/>
<text xml:space="preserve" text-anchor="middle" x="7688" y="-157.9" font-family="Helvetica,sans-Serif" font-size="8.00">WARP&#45;structural&#45;impact&#45;prediction &#45; XL</text>
</g>
<!-- cool_ideas_WARP_counterfactual_refactoring&#45;&gt;cool_ideas_WARP_structural_impact_prediction -->
<g id="edge8" class="edge">
<title>cool_ideas_WARP_counterfactual_refactoring&#45;&gt;cool_ideas_WARP_structural_impact_prediction</title>
<path fill="none" stroke="#666666" d="M7688,-221.65C7688,-210.45 7688,-193.43 7688,-180.43"/>
<polygon fill="#666666" stroke="#666666" points="7689.75,-180.57 7688,-175.57 7686.25,-180.57 7689.75,-180.57"/>
<text xml:space="preserve" text-anchor="middle" x="7719.5" y="-195.2" font-family="Helvetica,sans-Serif" font-size="7.00">blocked_by/blocking</text>
</g>
<!-- cool_ideas_WARP_dead_symbol_detection -->
<g id="node57" class="node">
<title>cool_ideas_WARP_dead_symbol_detection</title>
<path fill="#d4e8f7" stroke="black" d="M8034.18,-320.5C8034.18,-320.5 7915.82,-320.5 7915.82,-320.5 7911.62,-320.5 7907.43,-316.3 7907.43,-312.1 7907.43,-312.1 7907.43,-303.7 7907.43,-303.7 7907.43,-299.5 7911.62,-295.3 7915.82,-295.3 7915.82,-295.3 8034.18,-295.3 8034.18,-295.3 8038.38,-295.3 8042.57,-299.5 8042.57,-303.7 8042.57,-303.7 8042.57,-312.1 8042.57,-312.1 8042.57,-316.3 8038.38,-320.5 8034.18,-320.5"/>
<text xml:space="preserve" text-anchor="middle" x="7975" y="-304.8" font-family="Helvetica,sans-Serif" font-size="8.00">WARP&#45;dead&#45;symbol&#45;detection &#45; S</text>
</g>
<!-- cool_ideas_WARP_degeneracy_warning -->
<g id="node58" class="node">
<title>cool_ideas_WARP_degeneracy_warning</title>
<path fill="#d4e8f7" stroke="black" d="M8177.18,-320.5C8177.18,-320.5 8064.82,-320.5 8064.82,-320.5 8060.62,-320.5 8056.43,-316.3 8056.43,-312.1 8056.43,-312.1 8056.43,-303.7 8056.43,-303.7 8056.43,-299.5 8060.62,-295.3 8064.82,-295.3 8064.82,-295.3 8177.18,-295.3 8177.18,-295.3 8181.38,-295.3 8185.57,-299.5 8185.57,-303.7 8185.57,-303.7 8185.57,-312.1 8185.57,-312.1 8185.57,-316.3 8181.38,-320.5 8177.18,-320.5"/>
<text xml:space="preserve" text-anchor="middle" x="8121" y="-304.8" font-family="Helvetica,sans-Serif" font-size="8.00">WARP&#45;degeneracy&#45;warning &#45; M</text>
</g>
<!-- cool_ideas_WARP_drift_sentinel -->
<g id="node59" class="node">
<title>cool_ideas_WARP_drift_sentinel</title>
<path fill="#d4e8f7" stroke="black" d="M10003.18,-247.05C10003.18,-247.05 9920.82,-247.05 9920.82,-247.05 9916.62,-247.05 9912.42,-242.85 9912.42,-238.65 9912.42,-238.65 9912.42,-230.25 9912.42,-230.25 9912.42,-226.05 9916.62,-221.85 9920.82,-221.85 9920.82,-221.85 10003.18,-221.85 10003.18,-221.85 10007.38,-221.85 10011.58,-226.05 10011.58,-230.25 10011.58,-230.25 10011.58,-238.65 10011.58,-238.65 10011.58,-242.85 10007.38,-247.05 10003.18,-247.05"/>
<text xml:space="preserve" text-anchor="middle" x="9962" y="-231.35" font-family="Helvetica,sans-Serif" font-size="8.00">WARP&#45;drift&#45;sentinel &#45; M</text>
</g>
<!-- cool_ideas_WARP_footprint_parallelism -->
<g id="node60" class="node">
<title>cool_ideas_WARP_footprint_parallelism</title>
<path fill="#d4e8f7" stroke="black" d="M8319.8,-320.5C8319.8,-320.5 8208.2,-320.5 8208.2,-320.5 8204,-320.5 8199.8,-316.3 8199.8,-312.1 8199.8,-312.1 8199.8,-303.7 8199.8,-303.7 8199.8,-299.5 8204,-295.3 8208.2,-295.3 8208.2,-295.3 8319.8,-295.3 8319.8,-295.3 8324,-295.3 8328.2,-299.5 8328.2,-303.7 8328.2,-303.7 8328.2,-312.1 8328.2,-312.1 8328.2,-316.3 8324,-320.5 8319.8,-320.5"/>
<text xml:space="preserve" text-anchor="middle" x="8264" y="-304.8" font-family="Helvetica,sans-Serif" font-size="8.00">WARP&#45;footprint&#45;parallelism &#45; XL</text>
</g>
<!-- cool_ideas_WARP_graft_pack -->
<g id="node61" class="node">
<title>cool_ideas_WARP_graft_pack</title>
<path fill="#d4e8f7" stroke="black" d="M8425.43,-320.5C8425.43,-320.5 8350.57,-320.5 8350.57,-320.5 8346.38,-320.5 8342.17,-316.3 8342.17,-312.1 8342.17,-312.1 8342.17,-303.7 8342.17,-303.7 8342.17,-299.5 8346.38,-295.3 8350.57,-295.3 8350.57,-295.3 8425.43,-295.3 8425.43,-295.3 8429.62,-295.3 8433.83,-299.5 8433.83,-303.7 8433.83,-303.7 8433.83,-312.1 8433.83,-312.1 8433.83,-316.3 8429.62,-320.5 8425.43,-320.5"/>
<text xml:space="preserve" text-anchor="middle" x="8388" y="-304.8" font-family="Helvetica,sans-Serif" font-size="8.00">WARP&#45;graft&#45;pack &#45; M</text>
</g>
<!-- cool_ideas_WARP_grouped_aggregate_queries -->
<g id="node62" class="node">
<title>cool_ideas_WARP_grouped_aggregate_queries</title>
<path fill="#d4e8f7" stroke="black" d="M8593.93,-320.5C8593.93,-320.5 8456.07,-320.5 8456.07,-320.5 8451.88,-320.5 8447.67,-316.3 8447.67,-312.1 8447.67,-312.1 8447.67,-303.7 8447.67,-303.7 8447.67,-299.5 8451.88,-295.3 8456.07,-295.3 8456.07,-295.3 8593.93,-295.3 8593.93,-295.3 8598.12,-295.3 8602.33,-299.5 8602.33,-303.7 8602.33,-303.7 8602.33,-312.1 8602.33,-312.1 8602.33,-316.3 8598.12,-320.5 8593.93,-320.5"/>
<text xml:space="preserve" text-anchor="middle" x="8525" y="-304.8" font-family="Helvetica,sans-Serif" font-size="8.00">WARP&#45;grouped&#45;aggregate&#45;queries &#45; M</text>
</g>
<!-- cool_ideas_WARP_intentional_degeneracy_privacy -->
<g id="node64" class="node">
<title>cool_ideas_WARP_intentional_degeneracy_privacy</title>
<path fill="#d4e8f7" stroke="black" d="M8772.8,-320.5C8772.8,-320.5 8625.2,-320.5 8625.2,-320.5 8621,-320.5 8616.8,-316.3 8616.8,-312.1 8616.8,-312.1 8616.8,-303.7 8616.8,-303.7 8616.8,-299.5 8621,-295.3 8625.2,-295.3 8625.2,-295.3 8772.8,-295.3 8772.8,-295.3 8777,-295.3 8781.2,-299.5 8781.2,-303.7 8781.2,-303.7 8781.2,-312.1 8781.2,-312.1 8781.2,-316.3 8777,-320.5 8772.8,-320.5"/>
<text xml:space="preserve" text-anchor="middle" x="8699" y="-304.8" font-family="Helvetica,sans-Serif" font-size="8.00">WARP&#45;intentional&#45;degeneracy&#45;privacy &#45; M</text>
</g>
<!-- cool_ideas_WARP_minimum_viable_context -->
<g id="node65" class="node">
<title>cool_ideas_WARP_minimum_viable_context</title>
<path fill="#d4e8f7" stroke="black" d="M8926.43,-320.5C8926.43,-320.5 8803.57,-320.5 8803.57,-320.5 8799.38,-320.5 8795.17,-316.3 8795.17,-312.1 8795.17,-312.1 8795.17,-303.7 8795.17,-303.7 8795.17,-299.5 8799.38,-295.3 8803.57,-295.3 8803.57,-295.3 8926.43,-295.3 8926.43,-295.3 8930.62,-295.3 8934.83,-299.5 8934.83,-303.7 8934.83,-303.7 8934.83,-312.1 8934.83,-312.1 8934.83,-316.3 8930.62,-320.5 8926.43,-320.5"/>
<text xml:space="preserve" text-anchor="middle" x="8865" y="-304.8" font-family="Helvetica,sans-Serif" font-size="8.00">WARP&#45;minimum&#45;viable&#45;context &#45; M</text>
</g>
<!-- cool_ideas_WARP_outline_diff_commit_trailer -->
<g id="node66" class="node">
<title>cool_ideas_WARP_outline_diff_commit_trailer</title>
<path fill="#d4e8f7" stroke="black" d="M9082.93,-320.5C9082.93,-320.5 8957.07,-320.5 8957.07,-320.5 8952.88,-320.5 8948.67,-316.3 8948.67,-312.1 8948.67,-312.1 8948.67,-303.7 8948.67,-303.7 8948.67,-299.5 8952.88,-295.3 8957.07,-295.3 8957.07,-295.3 9082.93,-295.3 9082.93,-295.3 9087.12,-295.3 9091.33,-299.5 9091.33,-303.7 9091.33,-303.7 9091.33,-312.1 9091.33,-312.1 9091.33,-316.3 9087.12,-320.5 9082.93,-320.5"/>
<text xml:space="preserve" text-anchor="middle" x="9020" y="-304.8" font-family="Helvetica,sans-Serif" font-size="8.00">WARP&#45;outline&#45;diff&#45;commit&#45;trailer &#45; S</text>
</g>
<!-- cool_ideas_WARP_projection_safety_classes -->
<g id="node67" class="node">
<title>cool_ideas_WARP_projection_safety_classes</title>
<path fill="#d4e8f7" stroke="black" d="M9239.93,-320.5C9239.93,-320.5 9114.07,-320.5 9114.07,-320.5 9109.88,-320.5 9105.67,-316.3 9105.67,-312.1 9105.67,-312.1 9105.67,-303.7 9105.67,-303.7 9105.67,-299.5 9109.88,-295.3 9114.07,-295.3 9114.07,-295.3 9239.93,-295.3 9239.93,-295.3 9244.12,-295.3 9248.33,-299.5 9248.33,-303.7 9248.33,-303.7 9248.33,-312.1 9248.33,-312.1 9248.33,-316.3 9244.12,-320.5 9239.93,-320.5"/>
<text xml:space="preserve" text-anchor="middle" x="9177" y="-304.8" font-family="Helvetica,sans-Serif" font-size="8.00">WARP&#45;projection&#45;safety&#45;classes &#45; M</text>
</g>
<!-- cool_ideas_WARP_provenance_dag&#45;&gt;cool_ideas_WARP_causal_blame_for_staged_artifacts -->
<g id="edge9" class="edge">
<title>cool_ideas_WARP_provenance_dag&#45;&gt;cool_ideas_WARP_causal_blame_for_staged_artifacts</title>
<path fill="none" stroke="#666666" d="M7397.22,-221.65C7409.46,-209.83 7428.41,-191.54 7442.09,-178.32"/>
<polygon fill="#666666" stroke="#666666" points="7443.04,-179.84 7445.43,-175.11 7440.61,-177.32 7443.04,-179.84"/>
<text xml:space="preserve" text-anchor="middle" x="7455.72" y="-195.2" font-family="Helvetica,sans-Serif" font-size="7.00">blocked_by/blocking</text>
</g>
<!-- cool_ideas_WARP_reasoning_trace_replay -->
<g id="node69" class="node">
<title>cool_ideas_WARP_reasoning_trace_replay</title>
<path fill="#d4e8f7" stroke="black" d="M7350.93,-173.6C7350.93,-173.6 7231.07,-173.6 7231.07,-173.6 7226.88,-173.6 7222.68,-169.4 7222.68,-165.2 7222.68,-165.2 7222.68,-156.8 7222.68,-156.8 7222.68,-152.6 7226.88,-148.4 7231.07,-148.4 7231.07,-148.4 7350.93,-148.4 7350.93,-148.4 7355.12,-148.4 7359.32,-152.6 7359.32,-156.8 7359.32,-156.8 7359.32,-165.2 7359.32,-165.2 7359.32,-169.4 7355.12,-173.6 7350.93,-173.6"/>
<text xml:space="preserve" text-anchor="middle" x="7291" y="-157.9" font-family="Helvetica,sans-Serif" font-size="8.00">WARP&#45;reasoning&#45;trace&#45;replay &#45; M</text>
</g>
<!-- cool_ideas_WARP_provenance_dag&#45;&gt;cool_ideas_WARP_reasoning_trace_replay -->
<g id="edge10" class="edge">
<title>cool_ideas_WARP_provenance_dag&#45;&gt;cool_ideas_WARP_reasoning_trace_replay</title>
<path fill="none" stroke="#666666" d="M7369.48,-221.65C7353.79,-209.73 7329.44,-191.22 7312.02,-177.98"/>
<polygon fill="#666666" stroke="#666666" points="7313.1,-176.6 7308.06,-174.97 7310.99,-179.39 7313.1,-176.6"/>
<text xml:space="preserve" text-anchor="middle" x="7372.32" y="-195.2" font-family="Helvetica,sans-Serif" font-size="7.00">blocked_by/blocking</text>
</g>
<!-- cool_ideas_WARP_rulial_heat_map -->
<g id="node70" class="node">
<title>cool_ideas_WARP_rulial_heat_map</title>
<path fill="#d4e8f7" stroke="black" d="M9361.3,-320.5C9361.3,-320.5 9270.7,-320.5 9270.7,-320.5 9266.5,-320.5 9262.3,-316.3 9262.3,-312.1 9262.3,-312.1 9262.3,-303.7 9262.3,-303.7 9262.3,-299.5 9266.5,-295.3 9270.7,-295.3 9270.7,-295.3 9361.3,-295.3 9361.3,-295.3 9365.5,-295.3 9369.7,-299.5 9369.7,-303.7 9369.7,-303.7 9369.7,-312.1 9369.7,-312.1 9369.7,-316.3 9365.5,-320.5 9361.3,-320.5"/>
<text xml:space="preserve" text-anchor="middle" x="9316" y="-304.8" font-family="Helvetica,sans-Serif" font-size="8.00">WARP&#45;rulial&#45;heat&#45;map &#45; L</text>
</g>
<!-- cool_ideas_WARP_semantic_drift_in_sessions -->
<g id="node71" class="node">
<title>cool_ideas_WARP_semantic_drift_in_sessions</title>
<path fill="#d4e8f7" stroke="black" d="M9521.43,-320.5C9521.43,-320.5 9392.57,-320.5 9392.57,-320.5 9388.38,-320.5 9384.17,-316.3 9384.17,-312.1 9384.17,-312.1 9384.17,-303.7 9384.17,-303.7 9384.17,-299.5 9388.38,-295.3 9392.57,-295.3 9392.57,-295.3 9521.43,-295.3 9521.43,-295.3 9525.62,-295.3 9529.83,-299.5 9529.83,-303.7 9529.83,-303.7 9529.83,-312.1 9529.83,-312.1 9529.83,-316.3 9525.62,-320.5 9521.43,-320.5"/>
<text xml:space="preserve" text-anchor="middle" x="9457" y="-304.8" font-family="Helvetica,sans-Serif" font-size="8.00">WARP&#45;semantic&#45;drift&#45;in&#45;sessions &#45; M</text>
</g>
<!-- cool_ideas_WARP_semantic_merge_conflict_prediction -->
<g id="node72" class="node">
<title>cool_ideas_WARP_semantic_merge_conflict_prediction</title>
<path fill="#d4e8f7" stroke="black" d="M10687.43,-247.05C10687.43,-247.05 10528.57,-247.05 10528.57,-247.05 10524.38,-247.05 10520.17,-242.85 10520.17,-238.65 10520.17,-238.65 10520.17,-230.25 10520.17,-230.25 10520.17,-226.05 10524.38,-221.85 10528.57,-221.85 10528.57,-221.85 10687.43,-221.85 10687.43,-221.85 10691.62,-221.85 10695.83,-226.05 10695.83,-230.25 10695.83,-230.25 10695.83,-238.65 10695.83,-238.65 10695.83,-242.85 10691.62,-247.05 10687.43,-247.05"/>
<text xml:space="preserve" text-anchor="middle" x="10608" y="-231.35" font-family="Helvetica,sans-Serif" font-size="8.00">WARP&#45;semantic&#45;merge&#45;conflict&#45;prediction &#45; L</text>
</g>
<!-- cool_ideas_WARP_session_filtration -->
<g id="node73" class="node">
<title>cool_ideas_WARP_session_filtration</title>
<path fill="#d4e8f7" stroke="black" d="M9645.8,-320.5C9645.8,-320.5 9552.2,-320.5 9552.2,-320.5 9548,-320.5 9543.8,-316.3 9543.8,-312.1 9543.8,-312.1 9543.8,-303.7 9543.8,-303.7 9543.8,-299.5 9548,-295.3 9552.2,-295.3 9552.2,-295.3 9645.8,-295.3 9645.8,-295.3 9650,-295.3 9654.2,-299.5 9654.2,-303.7 9654.2,-303.7 9654.2,-312.1 9654.2,-312.1 9654.2,-316.3 9650,-320.5 9645.8,-320.5"/>
<text xml:space="preserve" text-anchor="middle" x="9599" y="-304.8" font-family="Helvetica,sans-Serif" font-size="8.00">WARP&#45;session&#45;filtration &#45; L</text>
</g>
<!-- cool_ideas_WARP_shadow_structural_workspaces -->
<g id="node74" class="node">
<title>cool_ideas_WARP_shadow_structural_workspaces</title>
<path fill="#d4e8f7" stroke="black" d="M9827.3,-320.5C9827.3,-320.5 9676.7,-320.5 9676.7,-320.5 9672.5,-320.5 9668.3,-316.3 9668.3,-312.1 9668.3,-312.1 9668.3,-303.7 9668.3,-303.7 9668.3,-299.5 9672.5,-295.3 9676.7,-295.3 9676.7,-295.3 9827.3,-295.3 9827.3,-295.3 9831.5,-295.3 9835.7,-299.5 9835.7,-303.7 9835.7,-303.7 9835.7,-312.1 9835.7,-312.1 9835.7,-316.3 9831.5,-320.5 9827.3,-320.5"/>
<text xml:space="preserve" text-anchor="middle" x="9752" y="-304.8" font-family="Helvetica,sans-Serif" font-size="8.00">WARP&#45;shadow&#45;structural&#45;workspaces &#45; XL</text>
</g>
<!-- cool_ideas_WARP_speculative_merge -->
<g id="node75" class="node">
<title>cool_ideas_WARP_speculative_merge</title>
<path fill="#d4e8f7" stroke="black" d="M9965.55,-320.5C9965.55,-320.5 9858.45,-320.5 9858.45,-320.5 9854.25,-320.5 9850.05,-316.3 9850.05,-312.1 9850.05,-312.1 9850.05,-303.7 9850.05,-303.7 9850.05,-299.5 9854.25,-295.3 9858.45,-295.3 9858.45,-295.3 9965.55,-295.3 9965.55,-295.3 9969.75,-295.3 9973.95,-299.5 9973.95,-303.7 9973.95,-303.7 9973.95,-312.1 9973.95,-312.1 9973.95,-316.3 9969.75,-320.5 9965.55,-320.5"/>
<text xml:space="preserve" text-anchor="middle" x="9912" y="-304.8" font-family="Helvetica,sans-Serif" font-size="8.00">WARP&#45;speculative&#45;merge &#45; XL</text>
</g>
<!-- cool_ideas_WARP_stale_docs_checker -->
<g id="node76" class="node">
<title>cool_ideas_WARP_stale_docs_checker</title>
<path fill="#d4e8f7" stroke="black" d="M10101.8,-320.5C10101.8,-320.5 9996.2,-320.5 9996.2,-320.5 9992,-320.5 9987.8,-316.3 9987.8,-312.1 9987.8,-312.1 9987.8,-303.7 9987.8,-303.7 9987.8,-299.5 9992,-295.3 9996.2,-295.3 9996.2,-295.3 10101.8,-295.3 10101.8,-295.3 10106,-295.3 10110.2,-299.5 10110.2,-303.7 10110.2,-303.7 10110.2,-312.1 10110.2,-312.1 10110.2,-316.3 10106,-320.5 10101.8,-320.5"/>
<text xml:space="preserve" text-anchor="middle" x="10049" y="-304.8" font-family="Helvetica,sans-Serif" font-size="8.00">WARP&#45;stale&#45;docs&#45;checker &#45; M</text>
</g>
<!-- cool_ideas_WARP_stale_docs_checker&#45;&gt;cool_ideas_WARP_drift_sentinel -->
<g id="edge11" class="edge">
<title>cool_ideas_WARP_stale_docs_checker&#45;&gt;cool_ideas_WARP_drift_sentinel</title>
<path fill="none" stroke="#666666" d="M10034.63,-295.1C10020.11,-283.18 9997.58,-264.67 9981.46,-251.43"/>
<polygon fill="#666666" stroke="#666666" points="9982.82,-250.29 9977.85,-248.47 9980.6,-252.99 9982.82,-250.29"/>
<text xml:space="preserve" text-anchor="middle" x="10039.61" y="-268.65" font-family="Helvetica,sans-Serif" font-size="7.00">blocked_by/blocking</text>
</g>
<!-- cool_ideas_WARP_structural_drift_detection -->
<g id="node77" class="node">
<title>cool_ideas_WARP_structural_drift_detection</title>
<path fill="#d4e8f7" stroke="black" d="M10255.8,-320.5C10255.8,-320.5 10132.2,-320.5 10132.2,-320.5 10128,-320.5 10123.8,-316.3 10123.8,-312.1 10123.8,-312.1 10123.8,-303.7 10123.8,-303.7 10123.8,-299.5 10128,-295.3 10132.2,-295.3 10132.2,-295.3 10255.8,-295.3 10255.8,-295.3 10260,-295.3 10264.2,-299.5 10264.2,-303.7 10264.2,-303.7 10264.2,-312.1 10264.2,-312.1 10264.2,-316.3 10260,-320.5 10255.8,-320.5"/>
<text xml:space="preserve" text-anchor="middle" x="10194" y="-304.8" font-family="Helvetica,sans-Serif" font-size="8.00">WARP&#45;structural&#45;drift&#45;detection &#45; M</text>
</g>
<!-- cool_ideas_WARP_symbol_heatmap -->
<g id="node79" class="node">
<title>cool_ideas_WARP_symbol_heatmap</title>
<path fill="#d4e8f7" stroke="black" d="M10385.05,-320.5C10385.05,-320.5 10286.95,-320.5 10286.95,-320.5 10282.75,-320.5 10278.55,-316.3 10278.55,-312.1 10278.55,-312.1 10278.55,-303.7 10278.55,-303.7 10278.55,-299.5 10282.75,-295.3 10286.95,-295.3 10286.95,-295.3 10385.05,-295.3 10385.05,-295.3 10389.25,-295.3 10393.45,-299.5 10393.45,-303.7 10393.45,-303.7 10393.45,-312.1 10393.45,-312.1 10393.45,-316.3 10389.25,-320.5 10385.05,-320.5"/>
<text xml:space="preserve" text-anchor="middle" x="10336" y="-304.8" font-family="Helvetica,sans-Serif" font-size="8.00">WARP&#45;symbol&#45;heatmap &#45; M</text>
</g>
<!-- cool_ideas_WARP_symbol_history_timeline -->
<g id="node80" class="node">
<title>cool_ideas_WARP_symbol_history_timeline</title>
<path fill="#d4e8f7" stroke="black" d="M10534.18,-320.5C10534.18,-320.5 10415.82,-320.5 10415.82,-320.5 10411.62,-320.5 10407.42,-316.3 10407.42,-312.1 10407.42,-312.1 10407.42,-303.7 10407.42,-303.7 10407.42,-299.5 10411.62,-295.3 10415.82,-295.3 10415.82,-295.3 10534.18,-295.3 10534.18,-295.3 10538.38,-295.3 10542.58,-299.5 10542.58,-303.7 10542.58,-303.7 10542.58,-312.1 10542.58,-312.1 10542.58,-316.3 10538.38,-320.5 10534.18,-320.5"/>
<text xml:space="preserve" text-anchor="middle" x="10475" y="-304.8" font-family="Helvetica,sans-Serif" font-size="8.00">WARP&#45;symbol&#45;history&#45;timeline &#45; S</text>
</g>
<!-- cool_ideas_WARP_temporal_structural_search -->
<g id="node82" class="node">
<title>cool_ideas_WARP_temporal_structural_search</title>
<path fill="#d4e8f7" stroke="black" d="M10167.68,-247.05C10167.68,-247.05 10034.32,-247.05 10034.32,-247.05 10030.12,-247.05 10025.92,-242.85 10025.92,-238.65 10025.92,-238.65 10025.92,-230.25 10025.92,-230.25 10025.92,-226.05 10030.12,-221.85 10034.32,-221.85 10034.32,-221.85 10167.68,-221.85 10167.68,-221.85 10171.88,-221.85 10176.08,-226.05 10176.08,-230.25 10176.08,-230.25 10176.08,-238.65 10176.08,-238.65 10176.08,-242.85 10171.88,-247.05 10167.68,-247.05"/>
<text xml:space="preserve" text-anchor="middle" x="10101" y="-231.35" font-family="Helvetica,sans-Serif" font-size="8.00">WARP&#45;temporal&#45;structural&#45;search &#45; M</text>
</g>
<!-- cool_ideas_WARP_symbol_history_timeline&#45;&gt;cool_ideas_WARP_temporal_structural_search -->
<g id="edge12" class="edge">
<title>cool_ideas_WARP_symbol_history_timeline&#45;&gt;cool_ideas_WARP_temporal_structural_search</title>
<path fill="none" stroke="#666666" d="M10434.82,-294.9C10423.64,-291.97 10411.42,-289.15 10400,-287.3 10319.98,-274.33 10297.5,-291.17 10218,-275.3 10189.41,-269.59 10158.21,-258.72 10135.23,-249.77"/>
<polygon fill="#666666" stroke="#666666" points="10135.97,-248.18 10130.68,-247.98 10134.69,-251.44 10135.97,-248.18"/>
<text xml:space="preserve" text-anchor="middle" x="10249.5" y="-268.65" font-family="Helvetica,sans-Serif" font-size="7.00">blocked_by/blocking</text>
</g>
<!-- cool_ideas_WARP_technical_debt_curvature -->
<g id="node81" class="node">
<title>cool_ideas_WARP_technical_debt_curvature</title>
<path fill="#d4e8f7" stroke="black" d="M10687.43,-320.5C10687.43,-320.5 10564.57,-320.5 10564.57,-320.5 10560.38,-320.5 10556.17,-316.3 10556.17,-312.1 10556.17,-312.1 10556.17,-303.7 10556.17,-303.7 10556.17,-299.5 10560.38,-295.3 10564.57,-295.3 10564.57,-295.3 10687.43,-295.3 10687.43,-295.3 10691.62,-295.3 10695.83,-299.5 10695.83,-303.7 10695.83,-303.7 10695.83,-312.1 10695.83,-312.1 10695.83,-316.3 10691.62,-320.5 10687.43,-320.5"/>
<text xml:space="preserve" text-anchor="middle" x="10626" y="-304.8" font-family="Helvetica,sans-Serif" font-size="8.00">WARP&#45;technical&#45;debt&#45;curvature &#45; L</text>
</g>
<!-- external_git_warp_observer_geometry_ladder__Rung_2_4_ -->
<g id="node83" class="node">
<title>external_git_warp_observer_geometry_ladder__Rung_2_4_</title>
<path fill="#e8f2ff" stroke="black" d="M10891.68,-320.5C10891.68,-320.5 10728.32,-320.5 10728.32,-320.5 10724.12,-320.5 10719.92,-316.3 10719.92,-312.1 10719.92,-312.1 10719.92,-303.7 10719.92,-303.7 10719.92,-299.5 10724.12,-295.3 10728.32,-295.3 10728.32,-295.3 10891.68,-295.3 10891.68,-295.3 10895.88,-295.3 10900.08,-299.5 10900.08,-303.7 10900.08,-303.7 10900.08,-312.1 10900.08,-312.1 10900.08,-316.3 10895.88,-320.5 10891.68,-320.5"/>
<text xml:space="preserve" text-anchor="middle" x="10810" y="-304.8" font-family="Helvetica,sans-Serif" font-size="8.00">git&#45;warp observer geometry ladder (Rung 2&#45;4)</text>
</g>
<!-- external_git_warp_observer_geometry_ladder__Rung_2_4_&#45;&gt;cool_ideas_CORE_migrate_to_slice_first_reads -->
<g id="edge13" class="edge">
<title>external_git_warp_observer_geometry_ladder__Rung_2_4_&#45;&gt;cool_ideas_CORE_migrate_to_slice_first_reads</title>
<path fill="none" stroke="#4477aa" stroke-dasharray="5,2" d="M10753.54,-294.84C10738.47,-291.98 10722.17,-289.21 10707,-287.3 10622.72,-276.67 10600.71,-284.38 10516.25,-275.3 10433.44,-266.4 10413.31,-259.78 10331,-247.05 10330.86,-247.03 10330.73,-247.01 10330.59,-246.99"/>
<polygon fill="#4477aa" stroke="#4477aa" points="10331.06,-245.29 10325.85,-246.25 10330.52,-248.75 10331.06,-245.29"/>
<text xml:space="preserve" text-anchor="middle" x="10548.12" y="-268.65" font-family="Helvetica,sans-Serif" font-size="7.00">blocked_by_external</text>
</g>
<!-- unresolved_CLEAN_CODE_export_diff_semver_signature_as_patch -->
<g id="node84" class="node">
<title>unresolved_CLEAN_CODE_export_diff_semver_signature_as_patch</title>
<path fill="#f2f2f2" stroke="black" stroke-dasharray="5,2" d="M11155.3,-320.5C11155.3,-320.5 10932.7,-320.5 10932.7,-320.5 10928.5,-320.5 10924.3,-316.3 10924.3,-312.1 10924.3,-312.1 10924.3,-303.7 10924.3,-303.7 10924.3,-299.5 10928.5,-295.3 10932.7,-295.3 10932.7,-295.3 11155.3,-295.3 11155.3,-295.3 11159.5,-295.3 11163.7,-299.5 11163.7,-303.7 11163.7,-303.7 11163.7,-312.1 11163.7,-312.1 11163.7,-316.3 11159.5,-320.5 11155.3,-320.5"/>
<text xml:space="preserve" text-anchor="middle" x="11044" y="-304.8" font-family="Helvetica,sans-Serif" font-size="8.00">missing: CLEAN_CODE_export&#45;diff&#45;semver&#45;signature&#45;as&#45;patch</text>
</g>
<!-- unresolved_CLEAN_CODE_export_diff_semver_signature_as_patch&#45;&gt;cool_ideas_WARP_auto_breaking_change_detection -->
<g id="edge14" class="edge">
<title>unresolved_CLEAN_CODE_export_diff_semver_signature_as_patch&#45;&gt;cool_ideas_WARP_auto_breaking_change_detection</title>
<path fill="none" stroke="#cc3333" stroke-dasharray="5,2" d="M10967.44,-294.84C10948.99,-292.14 10929.31,-289.45 10911,-287.3 10850.63,-280.2 10835.25,-281.23 10774.75,-275.3 10658.3,-263.89 10629.21,-260.73 10513,-247.05 10512.7,-247.02 10512.41,-246.98 10512.11,-246.94"/>
<polygon fill="#cc3333" stroke="#cc3333" points="10512.47,-245.23 10507.29,-246.37 10512.05,-248.7 10512.47,-245.23"/>
<text xml:space="preserve" text-anchor="middle" x="10792.38" y="-268.65" font-family="Helvetica,sans-Serif" font-size="7.00">blocked_by</text>
</g>
<!-- unresolved_CLEAN_CODE_export_diff_semver_signature_as_patch&#45;&gt;cool_ideas_WARP_semantic_merge_conflict_prediction -->
<g id="edge15" class="edge">
<title>unresolved_CLEAN_CODE_export_diff_semver_signature_as_patch&#45;&gt;cool_ideas_WARP_semantic_merge_conflict_prediction</title>
<path fill="none" stroke="#cc3333" stroke-dasharray="5,2" d="M10970.53,-294.86C10892.24,-282.03 10768.69,-261.78 10687.99,-248.56"/>
<polygon fill="#cc3333" stroke="#cc3333" points="10688.48,-246.87 10683.26,-247.78 10687.91,-250.32 10688.48,-246.87"/>
<text xml:space="preserve" text-anchor="middle" x="10856.7" y="-268.65" font-family="Helvetica,sans-Serif" font-size="7.00">blocked_by</text>
</g>
<!-- leg_v07 -->
<g id="node85" class="node">
<title>leg_v07</title>
<path fill="#ffa07a" stroke="black" stroke-width="2" d="M11280,-320.5C11280,-320.5 11196,-320.5 11196,-320.5 11191.8,-320.5 11187.6,-316.3 11187.6,-312.1 11187.6,-312.1 11187.6,-303.7 11187.6,-303.7 11187.6,-299.5 11191.8,-295.3 11196,-295.3 11196,-295.3 11280,-295.3 11280,-295.3 11284.2,-295.3 11288.4,-299.5 11288.4,-303.7 11288.4,-303.7 11288.4,-312.1 11288.4,-312.1 11288.4,-316.3 11284.2,-320.5 11280,-320.5"/>
<text xml:space="preserve" text-anchor="middle" x="11238" y="-305.38" font-family="Helvetica,sans-Serif" font-size="7.00">v0.7.0</text>
</g>
<!-- leg_bad -->
<g id="node86" class="node">
<title>leg_bad</title>
<path fill="#f6b3b3" stroke="black" stroke-width="2" d="M11280,-247.05C11280,-247.05 11196,-247.05 11196,-247.05 11191.8,-247.05 11187.6,-242.85 11187.6,-238.65 11187.6,-238.65 11187.6,-230.25 11187.6,-230.25 11187.6,-226.05 11191.8,-221.85 11196,-221.85 11196,-221.85 11280,-221.85 11280,-221.85 11284.2,-221.85 11288.4,-226.05 11288.4,-230.25 11288.4,-230.25 11288.4,-238.65 11288.4,-238.65 11288.4,-242.85 11284.2,-247.05 11280,-247.05"/>
<text xml:space="preserve" text-anchor="middle" x="11238" y="-231.92" font-family="Helvetica,sans-Serif" font-size="7.00">bad&#45;code</text>
</g>
<!-- leg_v07&#45;&gt;leg_bad -->
<!-- leg_idea -->
<g id="node87" class="node">
<title>leg_idea</title>
<path fill="#d4e8f7" stroke="black" d="M11280,-173.6C11280,-173.6 11196,-173.6 11196,-173.6 11191.8,-173.6 11187.6,-169.4 11187.6,-165.2 11187.6,-165.2 11187.6,-156.8 11187.6,-156.8 11187.6,-152.6 11191.8,-148.4 11196,-148.4 11196,-148.4 11280,-148.4 11280,-148.4 11284.2,-148.4 11288.4,-152.6 11288.4,-156.8 11288.4,-156.8 11288.4,-165.2 11288.4,-165.2 11288.4,-169.4 11284.2,-173.6 11280,-173.6"/>
<text xml:space="preserve" text-anchor="middle" x="11238" y="-158.47" font-family="Helvetica,sans-Serif" font-size="7.00">cool&#45;ideas</text>
</g>
<!-- leg_bad&#45;&gt;leg_idea -->
<!-- leg_external -->
<g id="node88" class="node">
<title>leg_external</title>
<path fill="#e8f2ff" stroke="black" d="M11280,-107.4C11280,-107.4 11196,-107.4 11196,-107.4 11191.8,-107.4 11187.6,-103.2 11187.6,-99 11187.6,-99 11187.6,-90.6 11187.6,-90.6 11187.6,-86.4 11191.8,-82.2 11196,-82.2 11196,-82.2 11280,-82.2 11280,-82.2 11284.2,-82.2 11288.4,-86.4 11288.4,-90.6 11288.4,-90.6 11288.4,-99 11288.4,-99 11288.4,-103.2 11284.2,-107.4 11280,-107.4"/>
<text xml:space="preserve" text-anchor="middle" x="11238" y="-92.28" font-family="Helvetica,sans-Serif" font-size="7.00">external blocker</text>
</g>
<!-- leg_idea&#45;&gt;leg_external -->
<!-- leg_unresolved -->
<g id="node89" class="node">
<title>leg_unresolved</title>
<path fill="#f2f2f2" stroke="black" stroke-dasharray="5,2" d="M11280,-41.2C11280,-41.2 11196,-41.2 11196,-41.2 11191.8,-41.2 11187.6,-37 11187.6,-32.8 11187.6,-32.8 11187.6,-24.4 11187.6,-24.4 11187.6,-20.2 11191.8,-16 11196,-16 11196,-16 11280,-16 11280,-16 11284.2,-16 11288.4,-20.2 11288.4,-24.4 11288.4,-24.4 11288.4,-32.8 11288.4,-32.8 11288.4,-37 11284.2,-41.2 11280,-41.2"/>
<text xml:space="preserve" text-anchor="middle" x="11238" y="-26.08" font-family="Helvetica,sans-Serif" font-size="7.00">unresolved ref</text>
</g>
<!-- leg_external&#45;&gt;leg_unresolved -->
</g>
</svg>
