<?xml version="1.0" encoding="UTF-8" standalone="no"?>
<!DOCTYPE svg PUBLIC "-//W3C//DTD SVG 1.1//EN"
 "http://www.w3.org/Graphics/SVG/1.1/DTD/svg11.dtd">
<!-- Generated by graphviz version 14.1.2 (20260124.0452)
 -->
<!-- Title: backlog Pages: 1 -->
<svg width="10720pt" height="383pt"
 viewBox="0.00 0.00 10720.00 383.00" xmlns="http://www.w3.org/2000/svg" xmlns:xlink="http://www.w3.org/1999/xlink">
<g id="graph0" class="graph" transform="scale(1 1) rotate(0) translate(4 379)">
<title>backlog</title>
<polygon fill="white" stroke="none" points="-4,4 -4,-379 10716,-379 10716,4 -4,4"/>
<text xml:space="preserve" text-anchor="middle" x="5356" y="-359.6" font-family="Helvetica,sans-Serif" font-size="12.00">Active backlog graph generated from docs/method/backlog/*/*.md</text>
<g id="clust1" class="cluster">
<title>cluster_asap</title>
<path fill="#fafafa" stroke="#cccccc" d="M20,-287.3C20,-287.3 172,-287.3 172,-287.3 178,-287.3 184,-293.3 184,-299.3 184,-299.3 184,-334.25 184,-334.25 184,-340.25 178,-346.25 172,-346.25 172,-346.25 20,-346.25 20,-346.25 14,-346.25 8,-340.25 8,-334.25 8,-334.25 8,-299.3 8,-299.3 8,-293.3 14,-287.3 20,-287.3"/>
<text xml:space="preserve" text-anchor="middle" x="32.88" y="-333.7" font-family="Helvetica,sans-Serif" font-size="9.00" fill="#555555">asap (1)</text>
</g>
<g id="clust2" class="cluster">
<title>cluster_cool_ideas</title>
<path fill="#fafafa" stroke="#cccccc" d="M204,-140.4C204,-140.4 10100,-140.4 10100,-140.4 10106,-140.4 10112,-146.4 10112,-152.4 10112,-152.4 10112,-334.25 10112,-334.25 10112,-340.25 10106,-346.25 10100,-346.25 10100,-346.25 204,-346.25 204,-346.25 198,-346.25 192,-340.25 192,-334.25 192,-334.25 192,-152.4 192,-152.4 192,-146.4 198,-140.4 204,-140.4"/>
<text xml:space="preserve" text-anchor="middle" x="231.5" y="-333.7" font-family="Helvetica,sans-Serif" font-size="9.00" fill="#555555">Cool Ideas (77)</text>
</g>
<g id="clust3" class="cluster">
<title>cluster_external</title>
<path fill="#f8fbff" stroke="#cccccc" d="M10132,-287.3C10132,-287.3 10304,-287.3 10304,-287.3 10310,-287.3 10316,-293.3 10316,-299.3 10316,-299.3 10316,-334.25 10316,-334.25 10316,-340.25 10310,-346.25 10304,-346.25 10304,-346.25 10132,-346.25 10132,-346.25 10126,-346.25 10120,-340.25 10120,-334.25 10120,-334.25 10120,-299.3 10120,-299.3 10120,-293.3 10126,-287.3 10132,-287.3"/>
<text xml:space="preserve" text-anchor="middle" x="10163.25" y="-333.7" font-family="Helvetica,sans-Serif" font-size="9.00" fill="#555555">External blockers</text>
</g>
<g id="clust4" class="cluster">
<title>cluster_unresolved</title>
<path fill="#fff7f7" stroke="#cc3333" stroke-dasharray="5,2" d="M10336,-287.3C10336,-287.3 10568,-287.3 10568,-287.3 10574,-287.3 10580,-293.3 10580,-299.3 10580,-299.3 10580,-334.25 10580,-334.25 10580,-340.25 10574,-346.25 10568,-346.25 10568,-346.25 10336,-346.25 10336,-346.25 10330,-346.25 10324,-340.25 10324,-334.25 10324,-334.25 10324,-299.3 10324,-299.3 10324,-293.3 10330,-287.3 10336,-287.3"/>
<text xml:space="preserve" text-anchor="middle" x="10380.75" y="-333.7" font-family="Helvetica,sans-Serif" font-size="9.00" fill="#555555">Unresolved internal refs</text>
</g>
<g id="clust5" class="cluster">
<title>cluster_legend</title>
<path fill="none" stroke="#dddddd" d="M10600,-8C10600,-8 10692,-8 10692,-8 10698,-8 10704,-14 10704,-20 10704,-20 10704,-333.5 10704,-333.5 10704,-339.5 10698,-345.5 10692,-345.5 10692,-345.5 10600,-345.5 10600,-345.5 10594,-345.5 10588,-339.5 10588,-333.5 10588,-333.5 10588,-20 10588,-20 10588,-14 10594,-8 10600,-8"/>
<text xml:space="preserve" text-anchor="middle" x="10609.5" y="-333.9" font-family="Helvetica,sans-Serif" font-size="8.00" fill="#aaaaaa">Legend</text>
</g>
<!-- asap_CORE_pr_review_structural_summary -->
<g id="node1" class="node">
<title>asap_CORE_pr_review_structural_summary</title>
<path fill="#e5e7eb" stroke="black" stroke-width="2" d="M167.92,-320.5C167.92,-320.5 24.08,-320.5 24.08,-320.5 19.88,-320.5 15.67,-316.3 15.67,-312.1 15.67,-312.1 15.67,-303.7 15.67,-303.7 15.67,-299.5 19.88,-295.3 24.08,-295.3 24.08,-295.3 167.92,-295.3 167.92,-295.3 172.12,-295.3 176.32,-299.5 176.32,-303.7 176.32,-303.7 176.32,-312.1 176.32,-312.1 176.32,-316.3 172.12,-320.5 167.92,-320.5"/>
<text xml:space="preserve" text-anchor="middle" x="96" y="-304.8" font-family="Helvetica,sans-Serif" font-size="8.00">CORE&#45;pr&#45;review&#45;structural&#45;summary &#45; M</text>
</g>
<!-- cool_ideas_bounded_neighborhood_for_references -->
<g id="node2" class="node">
<title>cool_ideas_bounded_neighborhood_for_references</title>
<path fill="#d4e8f7" stroke="black" d="M357.17,-320.5C357.17,-320.5 208.83,-320.5 208.83,-320.5 204.63,-320.5 200.43,-316.3 200.43,-312.1 200.43,-312.1 200.43,-303.7 200.43,-303.7 200.43,-299.5 204.63,-295.3 208.83,-295.3 208.83,-295.3 357.17,-295.3 357.17,-295.3 361.38,-295.3 365.57,-299.5 365.57,-303.7 365.57,-303.7 365.57,-312.1 365.57,-312.1 365.57,-316.3 361.38,-320.5 357.17,-320.5"/>
<text xml:space="preserve" text-anchor="middle" x="283" y="-304.8" font-family="Helvetica,sans-Serif" font-size="8.00">bounded&#45;neighborhood&#45;for&#45;references &#45; S</text>
</g>
<!-- cool_ideas_CI_001_causal_collapse_visualizer -->
<g id="node3" class="node">
<title>cool_ideas_CI_001_causal_collapse_visualizer</title>
<path fill="#d4e8f7" stroke="black" d="M6998.3,-247.05C6998.3,-247.05 6871.7,-247.05 6871.7,-247.05 6867.5,-247.05 6863.3,-242.85 6863.3,-238.65 6863.3,-238.65 6863.3,-230.25 6863.3,-230.25 6863.3,-226.05 6867.5,-221.85 6871.7,-221.85 6871.7,-221.85 6998.3,-221.85 6998.3,-221.85 7002.5,-221.85 7006.7,-226.05 7006.7,-230.25 7006.7,-230.25 7006.7,-238.65 7006.7,-238.65 7006.7,-242.85 7002.5,-247.05 6998.3,-247.05"/>
<text xml:space="preserve" text-anchor="middle" x="6935" y="-231.35" font-family="Helvetica,sans-Serif" font-size="8.00">CI&#45;001&#45;causal&#45;collapse&#45;visualizer &#45; L</text>
</g>
<!-- cool_ideas_CI_002_deterministic_scenario_replay -->
<g id="node4" class="node">
<title>cool_ideas_CI_002_deterministic_scenario_replay</title>
<path fill="#d4e8f7" stroke="black" d="M527.68,-320.5C527.68,-320.5 388.33,-320.5 388.33,-320.5 384.12,-320.5 379.93,-316.3 379.93,-312.1 379.93,-312.1 379.93,-303.7 379.93,-303.7 379.93,-299.5 384.12,-295.3 388.33,-295.3 388.33,-295.3 527.68,-295.3 527.68,-295.3 531.88,-295.3 536.08,-299.5 536.08,-303.7 536.08,-303.7 536.08,-312.1 536.08,-312.1 536.08,-316.3 531.88,-320.5 527.68,-320.5"/>
<text xml:space="preserve" text-anchor="middle" x="458" y="-304.8" font-family="Helvetica,sans-Serif" font-size="8.00">CI&#45;002&#45;deterministic&#45;scenario&#45;replay &#45; L</text>
</g>
<!-- cool_ideas_CI_003_mcp_native_diff_protocol -->
<g id="node5" class="node">
<title>cool_ideas_CI_003_mcp_native_diff_protocol</title>
<path fill="#d4e8f7" stroke="black" d="M681.8,-320.5C681.8,-320.5 558.2,-320.5 558.2,-320.5 554,-320.5 549.8,-316.3 549.8,-312.1 549.8,-312.1 549.8,-303.7 549.8,-303.7 549.8,-299.5 554,-295.3 558.2,-295.3 558.2,-295.3 681.8,-295.3 681.8,-295.3 686,-295.3 690.2,-299.5 690.2,-303.7 690.2,-303.7 690.2,-312.1 690.2,-312.1 690.2,-316.3 686,-320.5 681.8,-320.5"/>
<text xml:space="preserve" text-anchor="middle" x="620" y="-304.8" font-family="Helvetica,sans-Serif" font-size="8.00">CI&#45;003&#45;mcp&#45;native&#45;diff&#45;protocol &#45; M</text>
</g>
<!-- cool_ideas_CLEAN_CODE_parallel_agent_merge_shared_file_loss -->
<g id="node6" class="node">
<title>cool_ideas_CLEAN_CODE_parallel_agent_merge_shared_file_loss</title>
<path fill="#d4e8f7" stroke="black" d="M913.05,-320.5C913.05,-320.5 712.95,-320.5 712.95,-320.5 708.75,-320.5 704.55,-316.3 704.55,-312.1 704.55,-312.1 704.55,-303.7 704.55,-303.7 704.55,-299.5 708.75,-295.3 712.95,-295.3 712.95,-295.3 913.05,-295.3 913.05,-295.3 917.25,-295.3 921.45,-299.5 921.45,-303.7 921.45,-303.7 921.45,-312.1 921.45,-312.1 921.45,-316.3 917.25,-320.5 913.05,-320.5"/>
<text xml:space="preserve" text-anchor="middle" x="813" y="-304.8" font-family="Helvetica,sans-Serif" font-size="8.00">CLEAN&#45;CODE&#45;parallel&#45;agent&#45;merge&#45;shared&#45;file&#45;loss &#45; M</text>
</g>
<!-- cool_ideas_CORE_agent_handoff_protocol -->
<g id="node7" class="node">
<title>cool_ideas_CORE_agent_handoff_protocol</title>
<path fill="#d4e8f7" stroke="black" d="M1063.92,-320.5C1063.92,-320.5 944.07,-320.5 944.07,-320.5 939.88,-320.5 935.67,-316.3 935.67,-312.1 935.67,-312.1 935.67,-303.7 935.67,-303.7 935.67,-299.5 939.88,-295.3 944.07,-295.3 944.07,-295.3 1063.92,-295.3 1063.92,-295.3 1068.12,-295.3 1072.33,-299.5 1072.33,-303.7 1072.33,-303.7 1072.33,-312.1 1072.33,-312.1 1072.33,-316.3 1068.12,-320.5 1063.92,-320.5"/>
<text xml:space="preserve" text-anchor="middle" x="1004" y="-304.8" font-family="Helvetica,sans-Serif" font-size="8.00">CORE&#45;agent&#45;handoff&#45;protocol &#45; M</text>
</g>
<!-- cool_ideas_CORE_auto_focus -->
<g id="node8" class="node">
<title>cool_ideas_CORE_auto_focus</title>
<path fill="#d4e8f7" stroke="black" d="M1167.67,-320.5C1167.67,-320.5 1094.33,-320.5 1094.33,-320.5 1090.12,-320.5 1085.92,-316.3 1085.92,-312.1 1085.92,-312.1 1085.92,-303.7 1085.92,-303.7 1085.92,-299.5 1090.12,-295.3 1094.33,-295.3 1094.33,-295.3 1167.67,-295.3 1167.67,-295.3 1171.88,-295.3 1176.08,-299.5 1176.08,-303.7 1176.08,-303.7 1176.08,-312.1 1176.08,-312.1 1176.08,-316.3 1171.88,-320.5 1167.67,-320.5"/>
<text xml:space="preserve" text-anchor="middle" x="1131" y="-304.8" font-family="Helvetica,sans-Serif" font-size="8.00">CORE&#45;auto&#45;focus &#45; L</text>
</g>
<!-- cool_ideas_CORE_capture_range -->
<g id="node9" class="node">
<title>cool_ideas_CORE_capture_range</title>
<path fill="#d4e8f7" stroke="black" d="M1285.8,-320.5C1285.8,-320.5 1198.2,-320.5 1198.2,-320.5 1194,-320.5 1189.8,-316.3 1189.8,-312.1 1189.8,-312.1 1189.8,-303.7 1189.8,-303.7 1189.8,-299.5 1194,-295.3 1198.2,-295.3 1198.2,-295.3 1285.8,-295.3 1285.8,-295.3 1290,-295.3 1294.2,-299.5 1294.2,-303.7 1294.2,-303.7 1294.2,-312.1 1294.2,-312.1 1294.2,-316.3 1290,-320.5 1285.8,-320.5"/>
<text xml:space="preserve" text-anchor="middle" x="1242" y="-304.8" font-family="Helvetica,sans-Serif" font-size="8.00">CORE&#45;capture&#45;range &#45; S</text>
</g>
<!-- cool_ideas_CORE_constructor_in_disguise_lint -->
<g id="node10" class="node">
<title>cool_ideas_CORE_constructor_in_disguise_lint</title>
<path fill="#d4e8f7" stroke="black" d="M1447.55,-320.5C1447.55,-320.5 1316.45,-320.5 1316.45,-320.5 1312.25,-320.5 1308.05,-316.3 1308.05,-312.1 1308.05,-312.1 1308.05,-303.7 1308.05,-303.7 1308.05,-299.5 1312.25,-295.3 1316.45,-295.3 1316.45,-295.3 1447.55,-295.3 1447.55,-295.3 1451.75,-295.3 1455.95,-299.5 1455.95,-303.7 1455.95,-303.7 1455.95,-312.1 1455.95,-312.1 1455.95,-316.3 1451.75,-320.5 1447.55,-320.5"/>
<text xml:space="preserve" text-anchor="middle" x="1382" y="-304.8" font-family="Helvetica,sans-Serif" font-size="8.00">CORE&#45;constructor&#45;in&#45;disguise&#45;lint &#45; M</text>
</g>
<!-- cool_ideas_CORE_context_budget_forecasting -->
<g id="node11" class="node">
<title>cool_ideas_CORE_context_budget_forecasting</title>
<path fill="#d4e8f7" stroke="black" d="M1611.67,-320.5C1611.67,-320.5 1478.33,-320.5 1478.33,-320.5 1474.12,-320.5 1469.92,-316.3 1469.92,-312.1 1469.92,-312.1 1469.92,-303.7 1469.92,-303.7 1469.92,-299.5 1474.12,-295.3 1478.33,-295.3 1478.33,-295.3 1611.67,-295.3 1611.67,-295.3 1615.88,-295.3 1620.08,-299.5 1620.08,-303.7 1620.08,-303.7 1620.08,-312.1 1620.08,-312.1 1620.08,-316.3 1615.88,-320.5 1611.67,-320.5"/>
<text xml:space="preserve" text-anchor="middle" x="1545" y="-304.8" font-family="Helvetica,sans-Serif" font-size="8.00">CORE&#45;context&#45;budget&#45;forecasting &#45; M</text>
</g>
<!-- cool_ideas_CORE_conversation_primer -->
<g id="node12" class="node">
<title>cool_ideas_CORE_conversation_primer</title>
<path fill="#d4e8f7" stroke="black" d="M1751.67,-320.5C1751.67,-320.5 1642.33,-320.5 1642.33,-320.5 1638.12,-320.5 1633.92,-316.3 1633.92,-312.1 1633.92,-312.1 1633.92,-303.7 1633.92,-303.7 1633.92,-299.5 1638.12,-295.3 1642.33,-295.3 1642.33,-295.3 1751.67,-295.3 1751.67,-295.3 1755.88,-295.3 1760.08,-299.5 1760.08,-303.7 1760.08,-303.7 1760.08,-312.1 1760.08,-312.1 1760.08,-316.3 1755.88,-320.5 1751.67,-320.5"/>
<text xml:space="preserve" text-anchor="middle" x="1697" y="-304.8" font-family="Helvetica,sans-Serif" font-size="8.00">CORE&#45;conversation&#45;primer &#45; M</text>
</g>
<!-- cool_ideas_CORE_cross_session_resume -->
<g id="node13" class="node">
<title>cool_ideas_CORE_cross_session_resume</title>
<path fill="#d4e8f7" stroke="black" d="M1897.3,-320.5C1897.3,-320.5 1782.7,-320.5 1782.7,-320.5 1778.5,-320.5 1774.3,-316.3 1774.3,-312.1 1774.3,-312.1 1774.3,-303.7 1774.3,-303.7 1774.3,-299.5 1778.5,-295.3 1782.7,-295.3 1782.7,-295.3 1897.3,-295.3 1897.3,-295.3 1901.5,-295.3 1905.7,-299.5 1905.7,-303.7 1905.7,-303.7 1905.7,-312.1 1905.7,-312.1 1905.7,-316.3 1901.5,-320.5 1897.3,-320.5"/>
<text xml:space="preserve" text-anchor="middle" x="1840" y="-304.8" font-family="Helvetica,sans-Serif" font-size="8.00">CORE&#45;cross&#45;session&#45;resume &#45; S</text>
</g>
<!-- cool_ideas_CORE_graft_as_teacher -->
<g id="node14" class="node">
<title>cool_ideas_CORE_graft_as_teacher</title>
<path fill="#d4e8f7" stroke="black" d="M2022.17,-320.5C2022.17,-320.5 1927.83,-320.5 1927.83,-320.5 1923.62,-320.5 1919.42,-316.3 1919.42,-312.1 1919.42,-312.1 1919.42,-303.7 1919.42,-303.7 1919.42,-299.5 1923.62,-295.3 1927.83,-295.3 1927.83,-295.3 2022.17,-295.3 2022.17,-295.3 2026.38,-295.3 2030.58,-299.5 2030.58,-303.7 2030.58,-303.7 2030.58,-312.1 2030.58,-312.1 2030.58,-316.3 2026.38,-320.5 2022.17,-320.5"/>
<text xml:space="preserve" text-anchor="middle" x="1975" y="-304.8" font-family="Helvetica,sans-Serif" font-size="8.00">CORE&#45;graft&#45;as&#45;teacher &#45; S</text>
</g>
<!-- cool_ideas_CORE_graft_teach_learning_receipts -->
<g id="node15" class="node">
<title>cool_ideas_CORE_graft_teach_learning_receipts</title>
<path fill="#d4e8f7" stroke="black" d="M2190.92,-320.5C2190.92,-320.5 2053.07,-320.5 2053.07,-320.5 2048.88,-320.5 2044.67,-316.3 2044.67,-312.1 2044.67,-312.1 2044.67,-303.7 2044.67,-303.7 2044.67,-299.5 2048.88,-295.3 2053.07,-295.3 2053.07,-295.3 2190.92,-295.3 2190.92,-295.3 2195.12,-295.3 2199.32,-299.5 2199.32,-303.7 2199.32,-303.7 2199.32,-312.1 2199.32,-312.1 2199.32,-316.3 2195.12,-320.5 2190.92,-320.5"/>
<text xml:space="preserve" text-anchor="middle" x="2122" y="-304.8" font-family="Helvetica,sans-Serif" font-size="8.00">CORE&#45;graft&#45;teach&#45;learning&#45;receipts &#45; S</text>
</g>
<!-- cool_ideas_CORE_horizon_of_readability -->
<g id="node16" class="node">
<title>cool_ideas_CORE_horizon_of_readability</title>
<path fill="#d4e8f7" stroke="black" d="M2334.55,-320.5C2334.55,-320.5 2221.45,-320.5 2221.45,-320.5 2217.25,-320.5 2213.05,-316.3 2213.05,-312.1 2213.05,-312.1 2213.05,-303.7 2213.05,-303.7 2213.05,-299.5 2217.25,-295.3 2221.45,-295.3 2221.45,-295.3 2334.55,-295.3 2334.55,-295.3 2338.75,-295.3 2342.95,-299.5 2342.95,-303.7 2342.95,-303.7 2342.95,-312.1 2342.95,-312.1 2342.95,-316.3 2338.75,-320.5 2334.55,-320.5"/>
<text xml:space="preserve" text-anchor="middle" x="2278" y="-304.8" font-family="Helvetica,sans-Serif" font-size="8.00">CORE&#45;horizon&#45;of&#45;readability &#45; M</text>
</g>
<!-- cool_ideas_CORE_lagrangian_policy -->
<g id="node17" class="node">
<title>cool_ideas_CORE_lagrangian_policy</title>
<path fill="#d4e8f7" stroke="black" d="M2466.55,-320.5C2466.55,-320.5 2365.45,-320.5 2365.45,-320.5 2361.25,-320.5 2357.05,-316.3 2357.05,-312.1 2357.05,-312.1 2357.05,-303.7 2357.05,-303.7 2357.05,-299.5 2361.25,-295.3 2365.45,-295.3 2365.45,-295.3 2466.55,-295.3 2466.55,-295.3 2470.75,-295.3 2474.95,-299.5 2474.95,-303.7 2474.95,-303.7 2474.95,-312.1 2474.95,-312.1 2474.95,-316.3 2470.75,-320.5 2466.55,-320.5"/>
<text xml:space="preserve" text-anchor="middle" x="2416" y="-304.8" font-family="Helvetica,sans-Serif" font-size="8.00">CORE&#45;lagrangian&#45;policy &#45; XL</text>
</g>
<!-- cool_ideas_CORE_migrate_to_slice_first_reads -->
<g id="node18" class="node">
<title>cool_ideas_CORE_migrate_to_slice_first_reads</title>
<path fill="#d4e8f7" stroke="black" d="M9723.8,-247.05C9723.8,-247.05 9606.2,-247.05 9606.2,-247.05 9602,-247.05 9597.8,-242.85 9597.8,-238.65 9597.8,-238.65 9597.8,-230.25 9597.8,-230.25 9597.8,-226.05 9602,-221.85 9606.2,-221.85 9606.2,-221.85 9723.8,-221.85 9723.8,-221.85 9728,-221.85 9732.2,-226.05 9732.2,-230.25 9732.2,-230.25 9732.2,-238.65 9732.2,-238.65 9732.2,-242.85 9728,-247.05 9723.8,-247.05"/>
<text xml:space="preserve" text-anchor="middle" x="9665" y="-231.35" font-family="Helvetica,sans-Serif" font-size="8.00">CORE&#45;migrate&#45;to&#45;slice&#45;first&#45;reads</text>
</g>
<!-- cool_ideas_CORE_multi_agent_conflict_detection -->
<g id="node19" class="node">
<title>cool_ideas_CORE_multi_agent_conflict_detection</title>
<path fill="#d4e8f7" stroke="black" d="M2634.92,-320.5C2634.92,-320.5 2497.08,-320.5 2497.08,-320.5 2492.88,-320.5 2488.68,-316.3 2488.68,-312.1 2488.68,-312.1 2488.68,-303.7 2488.68,-303.7 2488.68,-299.5 2492.88,-295.3 2497.08,-295.3 2497.08,-295.3 2634.92,-295.3 2634.92,-295.3 2639.12,-295.3 2643.32,-299.5 2643.32,-303.7 2643.32,-303.7 2643.32,-312.1 2643.32,-312.1 2643.32,-316.3 2639.12,-320.5 2634.92,-320.5"/>
<text xml:space="preserve" text-anchor="middle" x="2566" y="-304.8" font-family="Helvetica,sans-Serif" font-size="8.00">CORE&#45;multi&#45;agent&#45;conflict&#45;detection &#45; L</text>
</g>
<!-- cool_ideas_CORE_policy_playground -->
<g id="node20" class="node">
<title>cool_ideas_CORE_policy_playground</title>
<path fill="#d4e8f7" stroke="black" d="M2764.42,-320.5C2764.42,-320.5 2665.58,-320.5 2665.58,-320.5 2661.38,-320.5 2657.18,-316.3 2657.18,-312.1 2657.18,-312.1 2657.18,-303.7 2657.18,-303.7 2657.18,-299.5 2661.38,-295.3 2665.58,-295.3 2665.58,-295.3 2764.42,-295.3 2764.42,-295.3 2768.62,-295.3 2772.82,-299.5 2772.82,-303.7 2772.82,-303.7 2772.82,-312.1 2772.82,-312.1 2772.82,-316.3 2768.62,-320.5 2764.42,-320.5"/>
<text xml:space="preserve" text-anchor="middle" x="2715" y="-304.8" font-family="Helvetica,sans-Serif" font-size="8.00">CORE&#45;policy&#45;playground &#45; S</text>
</g>
<!-- cool_ideas_CORE_policy_profiles -->
<g id="node21" class="node">
<title>cool_ideas_CORE_policy_profiles</title>
<path fill="#d4e8f7" stroke="black" d="M2881.05,-320.5C2881.05,-320.5 2794.95,-320.5 2794.95,-320.5 2790.75,-320.5 2786.55,-316.3 2786.55,-312.1 2786.55,-312.1 2786.55,-303.7 2786.55,-303.7 2786.55,-299.5 2790.75,-295.3 2794.95,-295.3 2794.95,-295.3 2881.05,-295.3 2881.05,-295.3 2885.25,-295.3 2889.45,-299.5 2889.45,-303.7 2889.45,-303.7 2889.45,-312.1 2889.45,-312.1 2889.45,-316.3 2885.25,-320.5 2881.05,-320.5"/>
<text xml:space="preserve" text-anchor="middle" x="2838" y="-304.8" font-family="Helvetica,sans-Serif" font-size="8.00">CORE&#45;policy&#45;profiles &#45; M</text>
</g>
<!-- cool_ideas_CORE_self_tuning_governor -->
<g id="node22" class="node">
<title>cool_ideas_CORE_self_tuning_governor</title>
<path fill="#d4e8f7" stroke="black" d="M3022.05,-320.5C3022.05,-320.5 2911.95,-320.5 2911.95,-320.5 2907.75,-320.5 2903.55,-316.3 2903.55,-312.1 2903.55,-312.1 2903.55,-303.7 2903.55,-303.7 2903.55,-299.5 2907.75,-295.3 2911.95,-295.3 2911.95,-295.3 3022.05,-295.3 3022.05,-295.3 3026.25,-295.3 3030.45,-299.5 3030.45,-303.7 3030.45,-303.7 3030.45,-312.1 3030.45,-312.1 3030.45,-316.3 3026.25,-320.5 3022.05,-320.5"/>
<text xml:space="preserve" text-anchor="middle" x="2967" y="-304.8" font-family="Helvetica,sans-Serif" font-size="8.00">CORE&#45;self&#45;tuning&#45;governor &#45; M</text>
</g>
<!-- cool_ideas_CORE_session_knowledge_map -->
<g id="node23" class="node">
<title>cool_ideas_CORE_session_knowledge_map</title>
<path fill="#d4e8f7" stroke="black" d="M3175.42,-320.5C3175.42,-320.5 3052.58,-320.5 3052.58,-320.5 3048.38,-320.5 3044.18,-316.3 3044.18,-312.1 3044.18,-312.1 3044.18,-303.7 3044.18,-303.7 3044.18,-299.5 3048.38,-295.3 3052.58,-295.3 3052.58,-295.3 3175.42,-295.3 3175.42,-295.3 3179.62,-295.3 3183.82,-299.5 3183.82,-303.7 3183.82,-303.7 3183.82,-312.1 3183.82,-312.1 3183.82,-316.3 3179.62,-320.5 3175.42,-320.5"/>
<text xml:space="preserve" text-anchor="middle" x="3114" y="-304.8" font-family="Helvetica,sans-Serif" font-size="8.00">CORE&#45;session&#45;knowledge&#45;map &#45; S</text>
</g>
<!-- cool_ideas_CORE_speculative_read_cost -->
<g id="node24" class="node">
<title>cool_ideas_CORE_speculative_read_cost</title>
<path fill="#d4e8f7" stroke="black" d="M3318.17,-320.5C3318.17,-320.5 3205.83,-320.5 3205.83,-320.5 3201.62,-320.5 3197.43,-316.3 3197.43,-312.1 3197.43,-312.1 3197.43,-303.7 3197.43,-303.7 3197.43,-299.5 3201.62,-295.3 3205.83,-295.3 3205.83,-295.3 3318.17,-295.3 3318.17,-295.3 3322.38,-295.3 3326.57,-299.5 3326.57,-303.7 3326.57,-303.7 3326.57,-312.1 3326.57,-312.1 3326.57,-316.3 3322.38,-320.5 3318.17,-320.5"/>
<text xml:space="preserve" text-anchor="middle" x="3262" y="-304.8" font-family="Helvetica,sans-Serif" font-size="8.00">CORE&#45;speculative&#45;read&#45;cost &#45; S</text>
</g>
<!-- cool_ideas_CORE_structural_session_replay -->
<g id="node25" class="node">
<title>cool_ideas_CORE_structural_session_replay</title>
<path fill="#d4e8f7" stroke="black" d="M3474.55,-320.5C3474.55,-320.5 3349.45,-320.5 3349.45,-320.5 3345.25,-320.5 3341.05,-316.3 3341.05,-312.1 3341.05,-312.1 3341.05,-303.7 3341.05,-303.7 3341.05,-299.5 3345.25,-295.3 3349.45,-295.3 3349.45,-295.3 3474.55,-295.3 3474.55,-295.3 3478.75,-295.3 3482.95,-299.5 3482.95,-303.7 3482.95,-303.7 3482.95,-312.1 3482.95,-312.1 3482.95,-316.3 3478.75,-320.5 3474.55,-320.5"/>
<text xml:space="preserve" text-anchor="middle" x="3412" y="-304.8" font-family="Helvetica,sans-Serif" font-size="8.00">CORE&#45;structural&#45;session&#45;replay &#45; M</text>
</g>
<!-- cool_ideas_CORE_structural_test_coverage_map -->
<g id="node26" class="node">
<title>cool_ideas_CORE_structural_test_coverage_map</title>
<path fill="#d4e8f7" stroke="black" d="M3646.8,-320.5C3646.8,-320.5 3505.2,-320.5 3505.2,-320.5 3501,-320.5 3496.8,-316.3 3496.8,-312.1 3496.8,-312.1 3496.8,-303.7 3496.8,-303.7 3496.8,-299.5 3501,-295.3 3505.2,-295.3 3505.2,-295.3 3646.8,-295.3 3646.8,-295.3 3651,-295.3 3655.2,-299.5 3655.2,-303.7 3655.2,-303.7 3655.2,-312.1 3655.2,-312.1 3655.2,-316.3 3651,-320.5 3646.8,-320.5"/>
<text xml:space="preserve" text-anchor="middle" x="3576" y="-304.8" font-family="Helvetica,sans-Serif" font-size="8.00">CORE&#45;structural&#45;test&#45;coverage&#45;map &#45; M</text>
</g>
<!-- cool_ideas_CORE_wire_primitives_into_runtime -->
<g id="node27" class="node">
<title>cool_ideas_CORE_wire_primitives_into_runtime</title>
<path fill="#d4e8f7" stroke="black" d="M3812.42,-320.5C3812.42,-320.5 3677.58,-320.5 3677.58,-320.5 3673.38,-320.5 3669.18,-316.3 3669.18,-312.1 3669.18,-312.1 3669.18,-303.7 3669.18,-303.7 3669.18,-299.5 3673.38,-295.3 3677.58,-295.3 3677.58,-295.3 3812.42,-295.3 3812.42,-295.3 3816.62,-295.3 3820.82,-299.5 3820.82,-303.7 3820.82,-303.7 3820.82,-312.1 3820.82,-312.1 3820.82,-316.3 3816.62,-320.5 3812.42,-320.5"/>
<text xml:space="preserve" text-anchor="middle" x="3745" y="-304.8" font-family="Helvetica,sans-Serif" font-size="8.00">CORE&#45;wire&#45;primitives&#45;into&#45;runtime &#45; M</text>
</g>
<!-- cool_ideas_monitor_tick_ceiling_tracking -->
<g id="node28" class="node">
<title>cool_ideas_monitor_tick_ceiling_tracking</title>
<path fill="#d4e8f7" stroke="black" d="M3950.55,-320.5C3950.55,-320.5 3843.45,-320.5 3843.45,-320.5 3839.25,-320.5 3835.05,-316.3 3835.05,-312.1 3835.05,-312.1 3835.05,-303.7 3835.05,-303.7 3835.05,-299.5 3839.25,-295.3 3843.45,-295.3 3843.45,-295.3 3950.55,-295.3 3950.55,-295.3 3954.75,-295.3 3958.95,-299.5 3958.95,-303.7 3958.95,-303.7 3958.95,-312.1 3958.95,-312.1 3958.95,-316.3 3954.75,-320.5 3950.55,-320.5"/>
<text xml:space="preserve" text-anchor="middle" x="3897" y="-304.8" font-family="Helvetica,sans-Serif" font-size="8.00">monitor&#45;tick&#45;ceiling&#45;tracking &#45; S</text>
</g>
<!-- cool_ideas_WARP_background_indexing -->
<g id="node46" class="node">
<title>cool_ideas_WARP_background_indexing</title>
<path fill="#d4e8f7" stroke="black" d="M3953.55,-247.05C3953.55,-247.05 3840.45,-247.05 3840.45,-247.05 3836.25,-247.05 3832.05,-242.85 3832.05,-238.65 3832.05,-238.65 3832.05,-230.25 3832.05,-230.25 3832.05,-226.05 3836.25,-221.85 3840.45,-221.85 3840.45,-221.85 3953.55,-221.85 3953.55,-221.85 3957.75,-221.85 3961.95,-226.05 3961.95,-230.25 3961.95,-230.25 3961.95,-238.65 3961.95,-238.65 3961.95,-242.85 3957.75,-247.05 3953.55,-247.05"/>
<text xml:space="preserve" text-anchor="middle" x="3897" y="-231.35" font-family="Helvetica,sans-Serif" font-size="8.00">WARP&#45;background&#45;indexing &#45; M</text>
</g>
<!-- cool_ideas_monitor_tick_ceiling_tracking&#45;&gt;cool_ideas_WARP_background_indexing -->
<g id="edge1" class="edge">
<title>cool_ideas_monitor_tick_ceiling_tracking&#45;&gt;cool_ideas_WARP_background_indexing</title>
<path fill="none" stroke="#666666" d="M3897,-295.1C3897,-283.9 3897,-266.88 3897,-253.88"/>
<polygon fill="#666666" stroke="#666666" points="3898.75,-254.02 3897,-249.02 3895.25,-254.02 3898.75,-254.02"/>
<text xml:space="preserve" text-anchor="middle" x="3928.5" y="-268.65" font-family="Helvetica,sans-Serif" font-size="7.00">blocked_by/blocking</text>
</g>
<!-- cool_ideas_SURFACE_active_causal_workspace_status -->
<g id="node29" class="node">
<title>cool_ideas_SURFACE_active_causal_workspace_status</title>
<path fill="#d4e8f7" stroke="black" d="M4145.05,-320.5C4145.05,-320.5 3980.95,-320.5 3980.95,-320.5 3976.75,-320.5 3972.55,-316.3 3972.55,-312.1 3972.55,-312.1 3972.55,-303.7 3972.55,-303.7 3972.55,-299.5 3976.75,-295.3 3980.95,-295.3 3980.95,-295.3 4145.05,-295.3 4145.05,-295.3 4149.25,-295.3 4153.45,-299.5 4153.45,-303.7 4153.45,-303.7 4153.45,-312.1 4153.45,-312.1 4153.45,-316.3 4149.25,-320.5 4145.05,-320.5"/>
<text xml:space="preserve" text-anchor="middle" x="4063" y="-304.8" font-family="Helvetica,sans-Serif" font-size="8.00">SURFACE&#45;active&#45;causal&#45;workspace&#45;status &#45; M</text>
</g>
<!-- cool_ideas_SURFACE_ide_native_graft_integration -->
<g id="node35" class="node">
<title>cool_ideas_SURFACE_ide_native_graft_integration</title>
<path fill="#d4e8f7" stroke="black" d="M4138.3,-247.05C4138.3,-247.05 3987.7,-247.05 3987.7,-247.05 3983.5,-247.05 3979.3,-242.85 3979.3,-238.65 3979.3,-238.65 3979.3,-230.25 3979.3,-230.25 3979.3,-226.05 3983.5,-221.85 3987.7,-221.85 3987.7,-221.85 4138.3,-221.85 4138.3,-221.85 4142.5,-221.85 4146.7,-226.05 4146.7,-230.25 4146.7,-230.25 4146.7,-238.65 4146.7,-238.65 4146.7,-242.85 4142.5,-247.05 4138.3,-247.05"/>
<text xml:space="preserve" text-anchor="middle" x="4063" y="-231.35" font-family="Helvetica,sans-Serif" font-size="8.00">SURFACE&#45;ide&#45;native&#45;graft&#45;integration &#45; XL</text>
</g>
<!-- cool_ideas_SURFACE_active_causal_workspace_status&#45;&gt;cool_ideas_SURFACE_ide_native_graft_integration -->
<g id="edge2" class="edge">
<title>cool_ideas_SURFACE_active_causal_workspace_status&#45;&gt;cool_ideas_SURFACE_ide_native_graft_integration</title>
<path fill="none" stroke="#666666" d="M4063,-295.1C4063,-283.9 4063,-266.88 4063,-253.88"/>
<polygon fill="#666666" stroke="#666666" points="4064.75,-254.02 4063,-249.02 4061.25,-254.02 4064.75,-254.02"/>
<text xml:space="preserve" text-anchor="middle" x="4094.5" y="-268.65" font-family="Helvetica,sans-Serif" font-size="7.00">blocked_by/blocking</text>
</g>
<!-- cool_ideas_SURFACE_attach_to_existing_causal_session -->
<g id="node30" class="node">
<title>cool_ideas_SURFACE_attach_to_existing_causal_session</title>
<path fill="#d4e8f7" stroke="black" d="M4344.3,-320.5C4344.3,-320.5 4175.7,-320.5 4175.7,-320.5 4171.5,-320.5 4167.3,-316.3 4167.3,-312.1 4167.3,-312.1 4167.3,-303.7 4167.3,-303.7 4167.3,-299.5 4171.5,-295.3 4175.7,-295.3 4175.7,-295.3 4344.3,-295.3 4344.3,-295.3 4348.5,-295.3 4352.7,-299.5 4352.7,-303.7 4352.7,-303.7 4352.7,-312.1 4352.7,-312.1 4352.7,-316.3 4348.5,-320.5 4344.3,-320.5"/>
<text xml:space="preserve" text-anchor="middle" x="4260" y="-304.8" font-family="Helvetica,sans-Serif" font-size="8.00">SURFACE&#45;attach&#45;to&#45;existing&#45;causal&#45;session &#45; M</text>
</g>
<!-- cool_ideas_SURFACE_bijou_daemon_control_plane_actions -->
<g id="node31" class="node">
<title>cool_ideas_SURFACE_bijou_daemon_control_plane_actions</title>
<path fill="#d4e8f7" stroke="black" d="M4552.43,-320.5C4552.43,-320.5 4375.57,-320.5 4375.57,-320.5 4371.38,-320.5 4367.18,-316.3 4367.18,-312.1 4367.18,-312.1 4367.18,-303.7 4367.18,-303.7 4367.18,-299.5 4371.38,-295.3 4375.57,-295.3 4375.57,-295.3 4552.43,-295.3 4552.43,-295.3 4556.62,-295.3 4560.82,-299.5 4560.82,-303.7 4560.82,-303.7 4560.82,-312.1 4560.82,-312.1 4560.82,-316.3 4556.62,-320.5 4552.43,-320.5"/>
<text xml:space="preserve" text-anchor="middle" x="4464" y="-304.8" font-family="Helvetica,sans-Serif" font-size="8.00">SURFACE&#45;bijou&#45;daemon&#45;control&#45;plane&#45;actions &#45; L</text>
</g>
<!-- cool_ideas_SURFACE_bijou_daemon_status_live_refresh -->
<g id="node32" class="node">
<title>cool_ideas_SURFACE_bijou_daemon_status_live_refresh</title>
<path fill="#d4e8f7" stroke="black" d="M4752.3,-320.5C4752.3,-320.5 4583.7,-320.5 4583.7,-320.5 4579.5,-320.5 4575.3,-316.3 4575.3,-312.1 4575.3,-312.1 4575.3,-303.7 4575.3,-303.7 4575.3,-299.5 4579.5,-295.3 4583.7,-295.3 4583.7,-295.3 4752.3,-295.3 4752.3,-295.3 4756.5,-295.3 4760.7,-299.5 4760.7,-303.7 4760.7,-303.7 4760.7,-312.1 4760.7,-312.1 4760.7,-316.3 4756.5,-320.5 4752.3,-320.5"/>
<text xml:space="preserve" text-anchor="middle" x="4668" y="-304.8" font-family="Helvetica,sans-Serif" font-size="8.00">SURFACE&#45;bijou&#45;daemon&#45;status&#45;live&#45;refresh &#45; M</text>
</g>
<!-- cool_ideas_SURFACE_git_graft_enhance_expanded_git_subcommands -->
<g id="node33" class="node">
<title>cool_ideas_SURFACE_git_graft_enhance_expanded_git_subcommands</title>
<path fill="#d4e8f7" stroke="black" d="M4987.3,-320.5C4987.3,-320.5 4782.7,-320.5 4782.7,-320.5 4778.5,-320.5 4774.3,-316.3 4774.3,-312.1 4774.3,-312.1 4774.3,-303.7 4774.3,-303.7 4774.3,-299.5 4778.5,-295.3 4782.7,-295.3 4782.7,-295.3 4987.3,-295.3 4987.3,-295.3 4991.5,-295.3 4995.7,-299.5 4995.7,-303.7 4995.7,-303.7 4995.7,-312.1 4995.7,-312.1 4995.7,-316.3 4991.5,-320.5 4987.3,-320.5"/>
<text xml:space="preserve" text-anchor="middle" x="4885" y="-304.8" font-family="Helvetica,sans-Serif" font-size="8.00">SURFACE&#45;git&#45;graft&#45;enhance&#45;expanded&#45;git&#45;subcommands</text>
</g>
<!-- cool_ideas_SURFACE_git_graft_enhance_provenance_hints -->
<g id="node34" class="node">
<title>cool_ideas_SURFACE_git_graft_enhance_provenance_hints</title>
<path fill="#d4e8f7" stroke="black" d="M5183.43,-320.5C5183.43,-320.5 5018.57,-320.5 5018.57,-320.5 5014.38,-320.5 5010.18,-316.3 5010.18,-312.1 5010.18,-312.1 5010.18,-303.7 5010.18,-303.7 5010.18,-299.5 5014.38,-295.3 5018.57,-295.3 5018.57,-295.3 5183.43,-295.3 5183.43,-295.3 5187.62,-295.3 5191.82,-299.5 5191.82,-303.7 5191.82,-303.7 5191.82,-312.1 5191.82,-312.1 5191.82,-316.3 5187.62,-320.5 5183.43,-320.5"/>
<text xml:space="preserve" text-anchor="middle" x="5101" y="-304.8" font-family="Helvetica,sans-Serif" font-size="8.00">SURFACE&#45;git&#45;graft&#45;enhance&#45;provenance&#45;hints</text>
</g>
<!-- cool_ideas_SURFACE_local_history_dag_render_mode_and_count_legend -->
<g id="node36" class="node">
<title>cool_ideas_SURFACE_local_history_dag_render_mode_and_count_legend</title>
<path fill="#d4e8f7" stroke="black" d="M5440.18,-320.5C5440.18,-320.5 5213.82,-320.5 5213.82,-320.5 5209.62,-320.5 5205.43,-316.3 5205.43,-312.1 5205.43,-312.1 5205.43,-303.7 5205.43,-303.7 5205.43,-299.5 5209.62,-295.3 5213.82,-295.3 5213.82,-295.3 5440.18,-295.3 5440.18,-295.3 5444.38,-295.3 5448.57,-299.5 5448.57,-303.7 5448.57,-303.7 5448.57,-312.1 5448.57,-312.1 5448.57,-316.3 5444.38,-320.5 5440.18,-320.5"/>
<text xml:space="preserve" text-anchor="middle" x="5327" y="-304.8" font-family="Helvetica,sans-Serif" font-size="8.00">SURFACE&#45;local&#45;history&#45;dag&#45;render&#45;mode&#45;and&#45;count&#45;legend &#45; S</text>
</g>
<!-- cool_ideas_SURFACE_non_codex_instruction_bootstrap_parity -->
<g id="node37" class="node">
<title>cool_ideas_SURFACE_non_codex_instruction_bootstrap_parity</title>
<path fill="#d4e8f7" stroke="black" d="M5659.43,-320.5C5659.43,-320.5 5470.57,-320.5 5470.57,-320.5 5466.38,-320.5 5462.18,-316.3 5462.18,-312.1 5462.18,-312.1 5462.18,-303.7 5462.18,-303.7 5462.18,-299.5 5466.38,-295.3 5470.57,-295.3 5470.57,-295.3 5659.43,-295.3 5659.43,-295.3 5663.62,-295.3 5667.82,-299.5 5667.82,-303.7 5667.82,-303.7 5667.82,-312.1 5667.82,-312.1 5667.82,-316.3 5663.62,-320.5 5659.43,-320.5"/>
<text xml:space="preserve" text-anchor="middle" x="5565" y="-304.8" font-family="Helvetica,sans-Serif" font-size="8.00">SURFACE&#45;non&#45;codex&#45;instruction&#45;bootstrap&#45;parity &#45; M</text>
</g>
<!-- cool_ideas_SURFACE_offer_rename_refactor -->
<g id="node38" class="node">
<title>cool_ideas_SURFACE_offer_rename_refactor</title>
<path fill="#d4e8f7" stroke="black" d="M5819.43,-320.5C5819.43,-320.5 5690.57,-320.5 5690.57,-320.5 5686.38,-320.5 5682.18,-316.3 5682.18,-312.1 5682.18,-312.1 5682.18,-303.7 5682.18,-303.7 5682.18,-299.5 5686.38,-295.3 5690.57,-295.3 5690.57,-295.3 5819.43,-295.3 5819.43,-295.3 5823.62,-295.3 5827.82,-299.5 5827.82,-303.7 5827.82,-303.7 5827.82,-312.1 5827.82,-312.1 5827.82,-316.3 5823.62,-320.5 5819.43,-320.5"/>
<text xml:space="preserve" text-anchor="middle" x="5755" y="-304.8" font-family="Helvetica,sans-Serif" font-size="8.00">SURFACE&#45;offer&#45;rename&#45;refactor &#45; L</text>
</g>
<!-- cool_ideas_SURFACE_pr_feedback_resolution_ledger -->
<g id="node39" class="node">
<title>cool_ideas_SURFACE_pr_feedback_resolution_ledger</title>
<path fill="#d4e8f7" stroke="black" d="M6009.43,-320.5C6009.43,-320.5 5850.57,-320.5 5850.57,-320.5 5846.38,-320.5 5842.18,-316.3 5842.18,-312.1 5842.18,-312.1 5842.18,-303.7 5842.18,-303.7 5842.18,-299.5 5846.38,-295.3 5850.57,-295.3 5850.57,-295.3 6009.43,-295.3 6009.43,-295.3 6013.62,-295.3 6017.82,-299.5 6017.82,-303.7 6017.82,-303.7 6017.82,-312.1 6017.82,-312.1 6017.82,-316.3 6013.62,-320.5 6009.43,-320.5"/>
<text xml:space="preserve" text-anchor="middle" x="5930" y="-304.8" font-family="Helvetica,sans-Serif" font-size="8.00">SURFACE&#45;pr&#45;feedback&#45;resolution&#45;ledger &#45; M</text>
</g>
<!-- cool_ideas_SURFACE_review_cooldown_status -->
<g id="node40" class="node">
<title>cool_ideas_SURFACE_review_cooldown_status</title>
<path fill="#d4e8f7" stroke="black" d="M6175.8,-320.5C6175.8,-320.5 6040.2,-320.5 6040.2,-320.5 6036,-320.5 6031.8,-316.3 6031.8,-312.1 6031.8,-312.1 6031.8,-303.7 6031.8,-303.7 6031.8,-299.5 6036,-295.3 6040.2,-295.3 6040.2,-295.3 6175.8,-295.3 6175.8,-295.3 6180,-295.3 6184.2,-299.5 6184.2,-303.7 6184.2,-303.7 6184.2,-312.1 6184.2,-312.1 6184.2,-316.3 6180,-320.5 6175.8,-320.5"/>
<text xml:space="preserve" text-anchor="middle" x="6108" y="-304.8" font-family="Helvetica,sans-Serif" font-size="8.00">SURFACE&#45;review&#45;cooldown&#45;status &#45; S</text>
</g>
<!-- cool_ideas_SURFACE_terminal_activity_browser_tui -->
<g id="node41" class="node">
<title>cool_ideas_SURFACE_terminal_activity_browser_tui</title>
<path fill="#d4e8f7" stroke="black" d="M6355.55,-320.5C6355.55,-320.5 6206.45,-320.5 6206.45,-320.5 6202.25,-320.5 6198.05,-316.3 6198.05,-312.1 6198.05,-312.1 6198.05,-303.7 6198.05,-303.7 6198.05,-299.5 6202.25,-295.3 6206.45,-295.3 6206.45,-295.3 6355.55,-295.3 6355.55,-295.3 6359.75,-295.3 6363.95,-299.5 6363.95,-303.7 6363.95,-303.7 6363.95,-312.1 6363.95,-312.1 6363.95,-316.3 6359.75,-320.5 6355.55,-320.5"/>
<text xml:space="preserve" text-anchor="middle" x="6281" y="-304.8" font-family="Helvetica,sans-Serif" font-size="8.00">SURFACE&#45;terminal&#45;activity&#45;browser&#45;tui &#45; L</text>
</g>
<!-- cool_ideas_traverse_plus_query_hydration_helper -->
<g id="node42" class="node">
<title>cool_ideas_traverse_plus_query_hydration_helper</title>
<path fill="#d4e8f7" stroke="black" d="M6527.8,-320.5C6527.8,-320.5 6386.2,-320.5 6386.2,-320.5 6382,-320.5 6377.8,-316.3 6377.8,-312.1 6377.8,-312.1 6377.8,-303.7 6377.8,-303.7 6377.8,-299.5 6382,-295.3 6386.2,-295.3 6386.2,-295.3 6527.8,-295.3 6527.8,-295.3 6532,-295.3 6536.2,-299.5 6536.2,-303.7 6536.2,-303.7 6536.2,-312.1 6536.2,-312.1 6536.2,-316.3 6532,-320.5 6527.8,-320.5"/>
<text xml:space="preserve" text-anchor="middle" x="6457" y="-304.8" font-family="Helvetica,sans-Serif" font-size="8.00">traverse&#45;plus&#45;query&#45;hydration&#45;helper &#45; S</text>
</g>
<!-- cool_ideas_WARP_adaptive_projection_selection -->
<g id="node43" class="node">
<title>cool_ideas_WARP_adaptive_projection_selection</title>
<path fill="#d4e8f7" stroke="black" d="M6696.93,-320.5C6696.93,-320.5 6559.07,-320.5 6559.07,-320.5 6554.88,-320.5 6550.68,-316.3 6550.68,-312.1 6550.68,-312.1 6550.68,-303.7 6550.68,-303.7 6550.68,-299.5 6554.88,-295.3 6559.07,-295.3 6559.07,-295.3 6696.93,-295.3 6696.93,-295.3 6701.12,-295.3 6705.32,-299.5 6705.32,-303.7 6705.32,-303.7 6705.32,-312.1 6705.32,-312.1 6705.32,-316.3 6701.12,-320.5 6696.93,-320.5"/>
<text xml:space="preserve" text-anchor="middle" x="6628" y="-304.8" font-family="Helvetica,sans-Serif" font-size="8.00">WARP&#45;adaptive&#45;projection&#45;selection &#45; L</text>
</g>
<!-- cool_ideas_WARP_agent_action_provenance -->
<g id="node44" class="node">
<title>cool_ideas_WARP_agent_action_provenance</title>
<path fill="#d4e8f7" stroke="black" d="M6858.55,-320.5C6858.55,-320.5 6727.45,-320.5 6727.45,-320.5 6723.25,-320.5 6719.05,-316.3 6719.05,-312.1 6719.05,-312.1 6719.05,-303.7 6719.05,-303.7 6719.05,-299.5 6723.25,-295.3 6727.45,-295.3 6727.45,-295.3 6858.55,-295.3 6858.55,-295.3 6862.75,-295.3 6866.95,-299.5 6866.95,-303.7 6866.95,-303.7 6866.95,-312.1 6866.95,-312.1 6866.95,-316.3 6862.75,-320.5 6858.55,-320.5"/>
<text xml:space="preserve" text-anchor="middle" x="6793" y="-304.8" font-family="Helvetica,sans-Serif" font-size="8.00">WARP&#45;agent&#45;action&#45;provenance &#45; XL</text>
</g>
<!-- cool_ideas_WARP_agent_action_provenance&#45;&gt;cool_ideas_CI_001_causal_collapse_visualizer -->
<g id="edge3" class="edge">
<title>cool_ideas_WARP_agent_action_provenance&#45;&gt;cool_ideas_CI_001_causal_collapse_visualizer</title>
<path fill="none" stroke="#666666" d="M6818.81,-294.81C6831.04,-289.01 6845.83,-281.9 6859,-275.3 6874.99,-267.28 6892.7,-258.02 6907,-250.44"/>
<polygon fill="#666666" stroke="#666666" points="6907.57,-252.12 6911.16,-248.23 6905.92,-249.03 6907.57,-252.12"/>
<text xml:space="preserve" text-anchor="middle" x="6905.14" y="-268.65" font-family="Helvetica,sans-Serif" font-size="7.00">blocked_by/blocking</text>
</g>
<!-- cool_ideas_WARP_causal_write_tracking -->
<g id="node49" class="node">
<title>cool_ideas_WARP_causal_write_tracking</title>
<path fill="#d4e8f7" stroke="black" d="M6551.05,-247.05C6551.05,-247.05 6440.95,-247.05 6440.95,-247.05 6436.75,-247.05 6432.55,-242.85 6432.55,-238.65 6432.55,-238.65 6432.55,-230.25 6432.55,-230.25 6432.55,-226.05 6436.75,-221.85 6440.95,-221.85 6440.95,-221.85 6551.05,-221.85 6551.05,-221.85 6555.25,-221.85 6559.45,-226.05 6559.45,-230.25 6559.45,-230.25 6559.45,-238.65 6559.45,-238.65 6559.45,-242.85 6555.25,-247.05 6551.05,-247.05"/>
<text xml:space="preserve" text-anchor="middle" x="6496" y="-231.35" font-family="Helvetica,sans-Serif" font-size="8.00">WARP&#45;causal&#45;write&#45;tracking &#45; L</text>
</g>
<!-- cool_ideas_WARP_agent_action_provenance&#45;&gt;cool_ideas_WARP_causal_write_tracking -->
<g id="edge4" class="edge">
<title>cool_ideas_WARP_agent_action_provenance&#45;&gt;cool_ideas_WARP_causal_write_tracking</title>
<path fill="none" stroke="#666666" d="M6745.13,-294.83C6734.27,-292.23 6722.76,-289.58 6712,-287.3 6682.83,-281.12 6675.1,-281.8 6646,-275.3 6611.63,-267.62 6573.25,-257.4 6543.92,-249.23"/>
<polygon fill="#666666" stroke="#666666" points="6544.55,-247.58 6539.26,-247.92 6543.61,-250.96 6544.55,-247.58"/>
<text xml:space="preserve" text-anchor="middle" x="6677.5" y="-268.65" font-family="Helvetica,sans-Serif" font-size="7.00">blocked_by/blocking</text>
</g>
<!-- cool_ideas_WARP_intent_and_decision_events -->
<g id="node59" class="node">
<title>cool_ideas_WARP_intent_and_decision_events</title>
<path fill="#d4e8f7" stroke="black" d="M6714.3,-247.05C6714.3,-247.05 6581.7,-247.05 6581.7,-247.05 6577.5,-247.05 6573.3,-242.85 6573.3,-238.65 6573.3,-238.65 6573.3,-230.25 6573.3,-230.25 6573.3,-226.05 6577.5,-221.85 6581.7,-221.85 6581.7,-221.85 6714.3,-221.85 6714.3,-221.85 6718.5,-221.85 6722.7,-226.05 6722.7,-230.25 6722.7,-230.25 6722.7,-238.65 6722.7,-238.65 6722.7,-242.85 6718.5,-247.05 6714.3,-247.05"/>
<text xml:space="preserve" text-anchor="middle" x="6648" y="-231.35" font-family="Helvetica,sans-Serif" font-size="8.00">WARP&#45;intent&#45;and&#45;decision&#45;events &#45; M</text>
</g>
<!-- cool_ideas_WARP_agent_action_provenance&#45;&gt;cool_ideas_WARP_intent_and_decision_events -->
<g id="edge5" class="edge">
<title>cool_ideas_WARP_agent_action_provenance&#45;&gt;cool_ideas_WARP_intent_and_decision_events</title>
<path fill="none" stroke="#666666" d="M6767.55,-294.87C6755.27,-289.02 6740.34,-281.86 6727,-275.3 6710.45,-267.16 6692.05,-257.89 6677.17,-250.34"/>
<polygon fill="#666666" stroke="#666666" points="6678.04,-248.83 6672.79,-248.12 6676.46,-251.95 6678.04,-248.83"/>
<text xml:space="preserve" text-anchor="middle" x="6758.5" y="-268.65" font-family="Helvetica,sans-Serif" font-size="7.00">blocked_by/blocking</text>
</g>
<!-- cool_ideas_WARP_provenance_dag -->
<g id="node64" class="node">
<title>cool_ideas_WARP_provenance_dag</title>
<path fill="#d4e8f7" stroke="black" d="M6840.55,-247.05C6840.55,-247.05 6745.45,-247.05 6745.45,-247.05 6741.25,-247.05 6737.05,-242.85 6737.05,-238.65 6737.05,-238.65 6737.05,-230.25 6737.05,-230.25 6737.05,-226.05 6741.25,-221.85 6745.45,-221.85 6745.45,-221.85 6840.55,-221.85 6840.55,-221.85 6844.75,-221.85 6848.95,-226.05 6848.95,-230.25 6848.95,-230.25 6848.95,-238.65 6848.95,-238.65 6848.95,-242.85 6844.75,-247.05 6840.55,-247.05"/>
<text xml:space="preserve" text-anchor="middle" x="6793" y="-231.35" font-family="Helvetica,sans-Serif" font-size="8.00">WARP&#45;provenance&#45;dag &#45; L</text>
</g>
<!-- cool_ideas_WARP_agent_action_provenance&#45;&gt;cool_ideas_WARP_provenance_dag -->
<g id="edge6" class="edge">
<title>cool_ideas_WARP_agent_action_provenance&#45;&gt;cool_ideas_WARP_provenance_dag</title>
<path fill="none" stroke="#666666" d="M6793,-295.1C6793,-283.9 6793,-266.88 6793,-253.88"/>
<polygon fill="#666666" stroke="#666666" points="6794.75,-254.02 6793,-249.02 6791.25,-254.02 6794.75,-254.02"/>
<text xml:space="preserve" text-anchor="middle" x="6824.5" y="-268.65" font-family="Helvetica,sans-Serif" font-size="7.00">blocked_by/blocking</text>
</g>
<!-- cool_ideas_WARP_auto_breaking_change_detection -->
<g id="node45" class="node">
<title>cool_ideas_WARP_auto_breaking_change_detection</title>
<path fill="#d4e8f7" stroke="black" d="M9905.3,-247.05C9905.3,-247.05 9754.7,-247.05 9754.7,-247.05 9750.5,-247.05 9746.3,-242.85 9746.3,-238.65 9746.3,-238.65 9746.3,-230.25 9746.3,-230.25 9746.3,-226.05 9750.5,-221.85 9754.7,-221.85 9754.7,-221.85 9905.3,-221.85 9905.3,-221.85 9909.5,-221.85 9913.7,-226.05 9913.7,-230.25 9913.7,-230.25 9913.7,-238.65 9913.7,-238.65 9913.7,-242.85 9909.5,-247.05 9905.3,-247.05"/>
<text xml:space="preserve" text-anchor="middle" x="9830" y="-231.35" font-family="Helvetica,sans-Serif" font-size="8.00">WARP&#45;auto&#45;breaking&#45;change&#45;detection &#45; L</text>
</g>
<!-- cool_ideas_WARP_budget_elasticity -->
<g id="node47" class="node">
<title>cool_ideas_WARP_budget_elasticity</title>
<path fill="#d4e8f7" stroke="black" d="M6984.93,-320.5C6984.93,-320.5 6889.07,-320.5 6889.07,-320.5 6884.88,-320.5 6880.68,-316.3 6880.68,-312.1 6880.68,-312.1 6880.68,-303.7 6880.68,-303.7 6880.68,-299.5 6884.88,-295.3 6889.07,-295.3 6889.07,-295.3 6984.93,-295.3 6984.93,-295.3 6989.12,-295.3 6993.32,-299.5 6993.32,-303.7 6993.32,-303.7 6993.32,-312.1 6993.32,-312.1 6993.32,-316.3 6989.12,-320.5 6984.93,-320.5"/>
<text xml:space="preserve" text-anchor="middle" x="6937" y="-304.8" font-family="Helvetica,sans-Serif" font-size="8.00">WARP&#45;budget&#45;elasticity &#45; M</text>
</g>
<!-- cool_ideas_WARP_causal_blame_for_staged_artifacts -->
<g id="node48" class="node">
<title>cool_ideas_WARP_causal_blame_for_staged_artifacts</title>
<path fill="#d4e8f7" stroke="black" d="M6944.18,-173.6C6944.18,-173.6 6789.82,-173.6 6789.82,-173.6 6785.62,-173.6 6781.43,-169.4 6781.43,-165.2 6781.43,-165.2 6781.43,-156.8 6781.43,-156.8 6781.43,-152.6 6785.62,-148.4 6789.82,-148.4 6789.82,-148.4 6944.18,-148.4 6944.18,-148.4 6948.38,-148.4 6952.57,-152.6 6952.57,-156.8 6952.57,-156.8 6952.57,-165.2 6952.57,-165.2 6952.57,-169.4 6948.38,-173.6 6944.18,-173.6"/>
<text xml:space="preserve" text-anchor="middle" x="6867" y="-157.9" font-family="Helvetica,sans-Serif" font-size="8.00">WARP&#45;causal&#45;blame&#45;for&#45;staged&#45;artifacts &#45; L</text>
</g>
<!-- cool_ideas_WARP_codebase_entropy_trajectory -->
<g id="node50" class="node">
<title>cool_ideas_WARP_codebase_entropy_trajectory</title>
<path fill="#d4e8f7" stroke="black" d="M7154.68,-320.5C7154.68,-320.5 7015.32,-320.5 7015.32,-320.5 7011.12,-320.5 7006.93,-316.3 7006.93,-312.1 7006.93,-312.1 7006.93,-303.7 7006.93,-303.7 7006.93,-299.5 7011.12,-295.3 7015.32,-295.3 7015.32,-295.3 7154.68,-295.3 7154.68,-295.3 7158.88,-295.3 7163.07,-299.5 7163.07,-303.7 7163.07,-303.7 7163.07,-312.1 7163.07,-312.1 7163.07,-316.3 7158.88,-320.5 7154.68,-320.5"/>
<text xml:space="preserve" text-anchor="middle" x="7085" y="-304.8" font-family="Helvetica,sans-Serif" font-size="8.00">WARP&#45;codebase&#45;entropy&#45;trajectory &#45; M</text>
</g>
<!-- cool_ideas_WARP_counterfactual_refactoring -->
<g id="node52" class="node">
<title>cool_ideas_WARP_counterfactual_refactoring</title>
<path fill="#d4e8f7" stroke="black" d="M7162.68,-247.05C7162.68,-247.05 7029.32,-247.05 7029.32,-247.05 7025.12,-247.05 7020.93,-242.85 7020.93,-238.65 7020.93,-238.65 7020.93,-230.25 7020.93,-230.25 7020.93,-226.05 7025.12,-221.85 7029.32,-221.85 7029.32,-221.85 7162.68,-221.85 7162.68,-221.85 7166.88,-221.85 7171.07,-226.05 7171.07,-230.25 7171.07,-230.25 7171.07,-238.65 7171.07,-238.65 7171.07,-242.85 7166.88,-247.05 7162.68,-247.05"/>
<text xml:space="preserve" text-anchor="middle" x="7096" y="-231.35" font-family="Helvetica,sans-Serif" font-size="8.00">WARP&#45;counterfactual&#45;refactoring &#45; XL</text>
</g>
<!-- cool_ideas_WARP_codebase_entropy_trajectory&#45;&gt;cool_ideas_WARP_counterfactual_refactoring -->
<g id="edge7" class="edge">
<title>cool_ideas_WARP_codebase_entropy_trajectory&#45;&gt;cool_ideas_WARP_counterfactual_refactoring</title>
<path fill="none" stroke="#666666" d="M7086.82,-295.1C7088.54,-283.9 7091.16,-266.88 7093.16,-253.88"/>
<polygon fill="#666666" stroke="#666666" points="7094.88,-254.21 7093.91,-249 7091.42,-253.68 7094.88,-254.21"/>
<text xml:space="preserve" text-anchor="middle" x="7122.33" y="-268.65" font-family="Helvetica,sans-Serif" font-size="7.00">blocked_by/blocking</text>
</g>
<!-- cool_ideas_WARP_codebase_signature -->
<g id="node51" class="node">
<title>cool_ideas_WARP_codebase_signature</title>
<path fill="#d4e8f7" stroke="black" d="M7292.55,-320.5C7292.55,-320.5 7185.45,-320.5 7185.45,-320.5 7181.25,-320.5 7177.05,-316.3 7177.05,-312.1 7177.05,-312.1 7177.05,-303.7 7177.05,-303.7 7177.05,-299.5 7181.25,-295.3 7185.45,-295.3 7185.45,-295.3 7292.55,-295.3 7292.55,-295.3 7296.75,-295.3 7300.95,-299.5 7300.95,-303.7 7300.95,-303.7 7300.95,-312.1 7300.95,-312.1 7300.95,-316.3 7296.75,-320.5 7292.55,-320.5"/>
<text xml:space="preserve" text-anchor="middle" x="7239" y="-304.8" font-family="Helvetica,sans-Serif" font-size="8.00">WARP&#45;codebase&#45;signature &#45; L</text>
</g>
<!-- cool_ideas_WARP_structural_impact_prediction -->
<g id="node74" class="node">
<title>cool_ideas_WARP_structural_impact_prediction</title>
<path fill="#d4e8f7" stroke="black" d="M7165.3,-173.6C7165.3,-173.6 7026.7,-173.6 7026.7,-173.6 7022.5,-173.6 7018.3,-169.4 7018.3,-165.2 7018.3,-165.2 7018.3,-156.8 7018.3,-156.8 7018.3,-152.6 7022.5,-148.4 7026.7,-148.4 7026.7,-148.4 7165.3,-148.4 7165.3,-148.4 7169.5,-148.4 7173.7,-152.6 7173.7,-156.8 7173.7,-156.8 7173.7,-165.2 7173.7,-165.2 7173.7,-169.4 7169.5,-173.6 7165.3,-173.6"/>
<text xml:space="preserve" text-anchor="middle" x="7096" y="-157.9" font-family="Helvetica,sans-Serif" font-size="8.00">WARP&#45;structural&#45;impact&#45;prediction &#45; XL</text>
</g>
<!-- cool_ideas_WARP_counterfactual_refactoring&#45;&gt;cool_ideas_WARP_structural_impact_prediction -->
<g id="edge8" class="edge">
<title>cool_ideas_WARP_counterfactual_refactoring&#45;&gt;cool_ideas_WARP_structural_impact_prediction</title>
<path fill="none" stroke="#666666" d="M7096,-221.65C7096,-210.45 7096,-193.43 7096,-180.43"/>
<polygon fill="#666666" stroke="#666666" points="7097.75,-180.57 7096,-175.57 7094.25,-180.57 7097.75,-180.57"/>
<text xml:space="preserve" text-anchor="middle" x="7127.5" y="-195.2" font-family="Helvetica,sans-Serif" font-size="7.00">blocked_by/blocking</text>
</g>
<!-- cool_ideas_WARP_dead_symbol_detection -->
<g id="node53" class="node">
<title>cool_ideas_WARP_dead_symbol_detection</title>
<path fill="#d4e8f7" stroke="black" d="M7442.18,-320.5C7442.18,-320.5 7323.82,-320.5 7323.82,-320.5 7319.62,-320.5 7315.43,-316.3 7315.43,-312.1 7315.43,-312.1 7315.43,-303.7 7315.43,-303.7 7315.43,-299.5 7319.62,-295.3 7323.82,-295.3 7323.82,-295.3 7442.18,-295.3 7442.18,-295.3 7446.38,-295.3 7450.57,-299.5 7450.57,-303.7 7450.57,-303.7 7450.57,-312.1 7450.57,-312.1 7450.57,-316.3 7446.38,-320.5 7442.18,-320.5"/>
<text xml:space="preserve" text-anchor="middle" x="7383" y="-304.8" font-family="Helvetica,sans-Serif" font-size="8.00">WARP&#45;dead&#45;symbol&#45;detection &#45; S</text>
</g>
<!-- cool_ideas_WARP_degeneracy_warning -->
<g id="node54" class="node">
<title>cool_ideas_WARP_degeneracy_warning</title>
<path fill="#d4e8f7" stroke="black" d="M7585.18,-320.5C7585.18,-320.5 7472.82,-320.5 7472.82,-320.5 7468.62,-320.5 7464.43,-316.3 7464.43,-312.1 7464.43,-312.1 7464.43,-303.7 7464.43,-303.7 7464.43,-299.5 7468.62,-295.3 7472.82,-295.3 7472.82,-295.3 7585.18,-295.3 7585.18,-295.3 7589.38,-295.3 7593.57,-299.5 7593.57,-303.7 7593.57,-303.7 7593.57,-312.1 7593.57,-312.1 7593.57,-316.3 7589.38,-320.5 7585.18,-320.5"/>
<text xml:space="preserve" text-anchor="middle" x="7529" y="-304.8" font-family="Helvetica,sans-Serif" font-size="8.00">WARP&#45;degeneracy&#45;warning &#45; M</text>
</g>
<!-- cool_ideas_WARP_drift_sentinel -->
<g id="node55" class="node">
<title>cool_ideas_WARP_drift_sentinel</title>
<path fill="#d4e8f7" stroke="black" d="M9411.18,-247.05C9411.18,-247.05 9328.82,-247.05 9328.82,-247.05 9324.62,-247.05 9320.42,-242.85 9320.42,-238.65 9320.42,-238.65 9320.42,-230.25 9320.42,-230.25 9320.42,-226.05 9324.62,-221.85 9328.82,-221.85 9328.82,-221.85 9411.18,-221.85 9411.18,-221.85 9415.38,-221.85 9419.58,-226.05 9419.58,-230.25 9419.58,-230.25 9419.58,-238.65 9419.58,-238.65 9419.58,-242.85 9415.38,-247.05 9411.18,-247.05"/>
<text xml:space="preserve" text-anchor="middle" x="9370" y="-231.35" font-family="Helvetica,sans-Serif" font-size="8.00">WARP&#45;drift&#45;sentinel &#45; M</text>
</g>
<!-- cool_ideas_WARP_footprint_parallelism -->
<g id="node56" class="node">
<title>cool_ideas_WARP_footprint_parallelism</title>
<path fill="#d4e8f7" stroke="black" d="M7727.8,-320.5C7727.8,-320.5 7616.2,-320.5 7616.2,-320.5 7612,-320.5 7607.8,-316.3 7607.8,-312.1 7607.8,-312.1 7607.8,-303.7 7607.8,-303.7 7607.8,-299.5 7612,-295.3 7616.2,-295.3 7616.2,-295.3 7727.8,-295.3 7727.8,-295.3 7732,-295.3 7736.2,-299.5 7736.2,-303.7 7736.2,-303.7 7736.2,-312.1 7736.2,-312.1 7736.2,-316.3 7732,-320.5 7727.8,-320.5"/>
<text xml:space="preserve" text-anchor="middle" x="7672" y="-304.8" font-family="Helvetica,sans-Serif" font-size="8.00">WARP&#45;footprint&#45;parallelism &#45; XL</text>
</g>
<!-- cool_ideas_WARP_graft_pack -->
<g id="node57" class="node">
<title>cool_ideas_WARP_graft_pack</title>
<path fill="#d4e8f7" stroke="black" d="M7833.43,-320.5C7833.43,-320.5 7758.57,-320.5 7758.57,-320.5 7754.38,-320.5 7750.18,-316.3 7750.18,-312.1 7750.18,-312.1 7750.18,-303.7 7750.18,-303.7 7750.18,-299.5 7754.38,-295.3 7758.57,-295.3 7758.57,-295.3 7833.43,-295.3 7833.43,-295.3 7837.62,-295.3 7841.82,-299.5 7841.82,-303.7 7841.82,-303.7 7841.82,-312.1 7841.82,-312.1 7841.82,-316.3 7837.62,-320.5 7833.43,-320.5"/>
<text xml:space="preserve" text-anchor="middle" x="7796" y="-304.8" font-family="Helvetica,sans-Serif" font-size="8.00">WARP&#45;graft&#45;pack &#45; M</text>
</g>
<!-- cool_ideas_WARP_grouped_aggregate_queries -->
<g id="node58" class="node">
<title>cool_ideas_WARP_grouped_aggregate_queries</title>
<path fill="#d4e8f7" stroke="black" d="M8001.93,-320.5C8001.93,-320.5 7864.07,-320.5 7864.07,-320.5 7859.88,-320.5 7855.68,-316.3 7855.68,-312.1 7855.68,-312.1 7855.68,-303.7 7855.68,-303.7 7855.68,-299.5 7859.88,-295.3 7864.07,-295.3 7864.07,-295.3 8001.93,-295.3 8001.93,-295.3 8006.12,-295.3 8010.32,-299.5 8010.32,-303.7 8010.32,-303.7 8010.32,-312.1 8010.32,-312.1 8010.32,-316.3 8006.12,-320.5 8001.93,-320.5"/>
<text xml:space="preserve" text-anchor="middle" x="7933" y="-304.8" font-family="Helvetica,sans-Serif" font-size="8.00">WARP&#45;grouped&#45;aggregate&#45;queries &#45; M</text>
</g>
<!-- cool_ideas_WARP_intentional_degeneracy_privacy -->
<g id="node60" class="node">
<title>cool_ideas_WARP_intentional_degeneracy_privacy</title>
<path fill="#d4e8f7" stroke="black" d="M8180.8,-320.5C8180.8,-320.5 8033.2,-320.5 8033.2,-320.5 8029,-320.5 8024.8,-316.3 8024.8,-312.1 8024.8,-312.1 8024.8,-303.7 8024.8,-303.7 8024.8,-299.5 8029,-295.3 8033.2,-295.3 8033.2,-295.3 8180.8,-295.3 8180.8,-295.3 8185,-295.3 8189.2,-299.5 8189.2,-303.7 8189.2,-303.7 8189.2,-312.1 8189.2,-312.1 8189.2,-316.3 8185,-320.5 8180.8,-320.5"/>
<text xml:space="preserve" text-anchor="middle" x="8107" y="-304.8" font-family="Helvetica,sans-Serif" font-size="8.00">WARP&#45;intentional&#45;degeneracy&#45;privacy &#45; M</text>
</g>
<!-- cool_ideas_WARP_minimum_viable_context -->
<g id="node61" class="node">
<title>cool_ideas_WARP_minimum_viable_context</title>
<path fill="#d4e8f7" stroke="black" d="M8334.43,-320.5C8334.43,-320.5 8211.57,-320.5 8211.57,-320.5 8207.38,-320.5 8203.17,-316.3 8203.17,-312.1 8203.17,-312.1 8203.17,-303.7 8203.17,-303.7 8203.17,-299.5 8207.38,-295.3 8211.57,-295.3 8211.57,-295.3 8334.43,-295.3 8334.43,-295.3 8338.62,-295.3 8342.83,-299.5 8342.83,-303.7 8342.83,-303.7 8342.83,-312.1 8342.83,-312.1 8342.83,-316.3 8338.62,-320.5 8334.43,-320.5"/>
<text xml:space="preserve" text-anchor="middle" x="8273" y="-304.8" font-family="Helvetica,sans-Serif" font-size="8.00">WARP&#45;minimum&#45;viable&#45;context &#45; M</text>
</g>
<!-- cool_ideas_WARP_outline_diff_commit_trailer -->
<g id="node62" class="node">
<title>cool_ideas_WARP_outline_diff_commit_trailer</title>
<path fill="#d4e8f7" stroke="black" d="M8490.93,-320.5C8490.93,-320.5 8365.07,-320.5 8365.07,-320.5 8360.88,-320.5 8356.67,-316.3 8356.67,-312.1 8356.67,-312.1 8356.67,-303.7 8356.67,-303.7 8356.67,-299.5 8360.88,-295.3 8365.07,-295.3 8365.07,-295.3 8490.93,-295.3 8490.93,-295.3 8495.12,-295.3 8499.33,-299.5 8499.33,-303.7 8499.33,-303.7 8499.33,-312.1 8499.33,-312.1 8499.33,-316.3 8495.12,-320.5 8490.93,-320.5"/>
<text xml:space="preserve" text-anchor="middle" x="8428" y="-304.8" font-family="Helvetica,sans-Serif" font-size="8.00">WARP&#45;outline&#45;diff&#45;commit&#45;trailer &#45; S</text>
</g>
<!-- cool_ideas_WARP_projection_safety_classes -->
<g id="node63" class="node">
<title>cool_ideas_WARP_projection_safety_classes</title>
<path fill="#d4e8f7" stroke="black" d="M8647.93,-320.5C8647.93,-320.5 8522.07,-320.5 8522.07,-320.5 8517.88,-320.5 8513.67,-316.3 8513.67,-312.1 8513.67,-312.1 8513.67,-303.7 8513.67,-303.7 8513.67,-299.5 8517.88,-295.3 8522.07,-295.3 8522.07,-295.3 8647.93,-295.3 8647.93,-295.3 8652.12,-295.3 8656.33,-299.5 8656.33,-303.7 8656.33,-303.7 8656.33,-312.1 8656.33,-312.1 8656.33,-316.3 8652.12,-320.5 8647.93,-320.5"/>
<text xml:space="preserve" text-anchor="middle" x="8585" y="-304.8" font-family="Helvetica,sans-Serif" font-size="8.00">WARP&#45;projection&#45;safety&#45;classes &#45; M</text>
</g>
<!-- cool_ideas_WARP_provenance_dag&#45;&gt;cool_ideas_WARP_causal_blame_for_staged_artifacts -->
<g id="edge9" class="edge">
<title>cool_ideas_WARP_provenance_dag&#45;&gt;cool_ideas_WARP_causal_blame_for_staged_artifacts</title>
<path fill="none" stroke="#666666" d="M6805.22,-221.65C6817.46,-209.83 6836.41,-191.54 6850.09,-178.32"/>
<polygon fill="#666666" stroke="#666666" points="6851.04,-179.84 6853.43,-175.11 6848.61,-177.32 6851.04,-179.84"/>
<text xml:space="preserve" text-anchor="middle" x="6863.72" y="-195.2" font-family="Helvetica,sans-Serif" font-size="7.00">blocked_by/blocking</text>
</g>
<!-- cool_ideas_WARP_reasoning_trace_replay -->
<g id="node65" class="node">
<title>cool_ideas_WARP_reasoning_trace_replay</title>
<path fill="#d4e8f7" stroke="black" d="M6758.93,-173.6C6758.93,-173.6 6639.07,-173.6 6639.07,-173.6 6634.88,-173.6 6630.68,-169.4 6630.68,-165.2 6630.68,-165.2 6630.68,-156.8 6630.68,-156.8 6630.68,-152.6 6634.88,-148.4 6639.07,-148.4 6639.07,-148.4 6758.93,-148.4 6758.93,-148.4 6763.12,-148.4 6767.32,-152.6 6767.32,-156.8 6767.32,-156.8 6767.32,-165.2 6767.32,-165.2 6767.32,-169.4 6763.12,-173.6 6758.93,-173.6"/>
<text xml:space="preserve" text-anchor="middle" x="6699" y="-157.9" font-family="Helvetica,sans-Serif" font-size="8.00">WARP&#45;reasoning&#45;trace&#45;replay &#45; M</text>
</g>
<!-- cool_ideas_WARP_provenance_dag&#45;&gt;cool_ideas_WARP_reasoning_trace_replay -->
<g id="edge10" class="edge">
<title>cool_ideas_WARP_provenance_dag&#45;&gt;cool_ideas_WARP_reasoning_trace_replay</title>
<path fill="none" stroke="#666666" d="M6777.48,-221.65C6761.79,-209.73 6737.44,-191.22 6720.02,-177.98"/>
<polygon fill="#666666" stroke="#666666" points="6721.1,-176.6 6716.06,-174.97 6718.99,-179.39 6721.1,-176.6"/>
<text xml:space="preserve" text-anchor="middle" x="6780.32" y="-195.2" font-family="Helvetica,sans-Serif" font-size="7.00">blocked_by/blocking</text>
</g>
<!-- cool_ideas_WARP_rulial_heat_map -->
<g id="node66" class="node">
<title>cool_ideas_WARP_rulial_heat_map</title>
<path fill="#d4e8f7" stroke="black" d="M8769.3,-320.5C8769.3,-320.5 8678.7,-320.5 8678.7,-320.5 8674.5,-320.5 8670.3,-316.3 8670.3,-312.1 8670.3,-312.1 8670.3,-303.7 8670.3,-303.7 8670.3,-299.5 8674.5,-295.3 8678.7,-295.3 8678.7,-295.3 8769.3,-295.3 8769.3,-295.3 8773.5,-295.3 8777.7,-299.5 8777.7,-303.7 8777.7,-303.7 8777.7,-312.1 8777.7,-312.1 8777.7,-316.3 8773.5,-320.5 8769.3,-320.5"/>
<text xml:space="preserve" text-anchor="middle" x="8724" y="-304.8" font-family="Helvetica,sans-Serif" font-size="8.00">WARP&#45;rulial&#45;heat&#45;map &#45; L</text>
</g>
<!-- cool_ideas_WARP_semantic_drift_in_sessions -->
<g id="node67" class="node">
<title>cool_ideas_WARP_semantic_drift_in_sessions</title>
<path fill="#d4e8f7" stroke="black" d="M8929.43,-320.5C8929.43,-320.5 8800.57,-320.5 8800.57,-320.5 8796.38,-320.5 8792.17,-316.3 8792.17,-312.1 8792.17,-312.1 8792.17,-303.7 8792.17,-303.7 8792.17,-299.5 8796.38,-295.3 8800.57,-295.3 8800.57,-295.3 8929.43,-295.3 8929.43,-295.3 8933.62,-295.3 8937.83,-299.5 8937.83,-303.7 8937.83,-303.7 8937.83,-312.1 8937.83,-312.1 8937.83,-316.3 8933.62,-320.5 8929.43,-320.5"/>
<text xml:space="preserve" text-anchor="middle" x="8865" y="-304.8" font-family="Helvetica,sans-Serif" font-size="8.00">WARP&#45;semantic&#45;drift&#45;in&#45;sessions &#45; M</text>
</g>
<!-- cool_ideas_WARP_semantic_merge_conflict_prediction -->
<g id="node68" class="node">
<title>cool_ideas_WARP_semantic_merge_conflict_prediction</title>
<path fill="#d4e8f7" stroke="black" d="M10095.43,-247.05C10095.43,-247.05 9936.57,-247.05 9936.57,-247.05 9932.38,-247.05 9928.17,-242.85 9928.17,-238.65 9928.17,-238.65 9928.17,-230.25 9928.17,-230.25 9928.17,-226.05 9932.38,-221.85 9936.57,-221.85 9936.57,-221.85 10095.43,-221.85 10095.43,-221.85 10099.62,-221.85 10103.83,-226.05 10103.83,-230.25 10103.83,-230.25 10103.83,-238.65 10103.83,-238.65 10103.83,-242.85 10099.62,-247.05 10095.43,-247.05"/>
<text xml:space="preserve" text-anchor="middle" x="10016" y="-231.35" font-family="Helvetica,sans-Serif" font-size="8.00">WARP&#45;semantic&#45;merge&#45;conflict&#45;prediction &#45; L</text>
</g>
<!-- cool_ideas_WARP_session_filtration -->
<g id="node69" class="node">
<title>cool_ideas_WARP_session_filtration</title>
<path fill="#d4e8f7" stroke="black" d="M9053.8,-320.5C9053.8,-320.5 8960.2,-320.5 8960.2,-320.5 8956,-320.5 8951.8,-316.3 8951.8,-312.1 8951.8,-312.1 8951.8,-303.7 8951.8,-303.7 8951.8,-299.5 8956,-295.3 8960.2,-295.3 8960.2,-295.3 9053.8,-295.3 9053.8,-295.3 9058,-295.3 9062.2,-299.5 9062.2,-303.7 9062.2,-303.7 9062.2,-312.1 9062.2,-312.1 9062.2,-316.3 9058,-320.5 9053.8,-320.5"/>
<text xml:space="preserve" text-anchor="middle" x="9007" y="-304.8" font-family="Helvetica,sans-Serif" font-size="8.00">WARP&#45;session&#45;filtration &#45; L</text>
</g>
<!-- cool_ideas_WARP_shadow_structural_workspaces -->
<g id="node70" class="node">
<title>cool_ideas_WARP_shadow_structural_workspaces</title>
<path fill="#d4e8f7" stroke="black" d="M9235.3,-320.5C9235.3,-320.5 9084.7,-320.5 9084.7,-320.5 9080.5,-320.5 9076.3,-316.3 9076.3,-312.1 9076.3,-312.1 9076.3,-303.7 9076.3,-303.7 9076.3,-299.5 9080.5,-295.3 9084.7,-295.3 9084.7,-295.3 9235.3,-295.3 9235.3,-295.3 9239.5,-295.3 9243.7,-299.5 9243.7,-303.7 9243.7,-303.7 9243.7,-312.1 9243.7,-312.1 9243.7,-316.3 9239.5,-320.5 9235.3,-320.5"/>
<text xml:space="preserve" text-anchor="middle" x="9160" y="-304.8" font-family="Helvetica,sans-Serif" font-size="8.00">WARP&#45;shadow&#45;structural&#45;workspaces &#45; XL</text>
</g>
<!-- cool_ideas_WARP_speculative_merge -->
<g id="node71" class="node">
<title>cool_ideas_WARP_speculative_merge</title>
<path fill="#d4e8f7" stroke="black" d="M9373.55,-320.5C9373.55,-320.5 9266.45,-320.5 9266.45,-320.5 9262.25,-320.5 9258.05,-316.3 9258.05,-312.1 9258.05,-312.1 9258.05,-303.7 9258.05,-303.7 9258.05,-299.5 9262.25,-295.3 9266.45,-295.3 9266.45,-295.3 9373.55,-295.3 9373.55,-295.3 9377.75,-295.3 9381.95,-299.5 9381.95,-303.7 9381.95,-303.7 9381.95,-312.1 9381.95,-312.1 9381.95,-316.3 9377.75,-320.5 9373.55,-320.5"/>
<text xml:space="preserve" text-anchor="middle" x="9320" y="-304.8" font-family="Helvetica,sans-Serif" font-size="8.00">WARP&#45;speculative&#45;merge &#45; XL</text>
</g>
<!-- cool_ideas_WARP_stale_docs_checker -->
<g id="node72" class="node">
<title>cool_ideas_WARP_stale_docs_checker</title>
<path fill="#d4e8f7" stroke="black" d="M9509.8,-320.5C9509.8,-320.5 9404.2,-320.5 9404.2,-320.5 9400,-320.5 9395.8,-316.3 9395.8,-312.1 9395.8,-312.1 9395.8,-303.7 9395.8,-303.7 9395.8,-299.5 9400,-295.3 9404.2,-295.3 9404.2,-295.3 9509.8,-295.3 9509.8,-295.3 9514,-295.3 9518.2,-299.5 9518.2,-303.7 9518.2,-303.7 9518.2,-312.1 9518.2,-312.1 9518.2,-316.3 9514,-320.5 9509.8,-320.5"/>
<text xml:space="preserve" text-anchor="middle" x="9457" y="-304.8" font-family="Helvetica,sans-Serif" font-size="8.00">WARP&#45;stale&#45;docs&#45;checker &#45; M</text>
</g>
<!-- cool_ideas_WARP_stale_docs_checker&#45;&gt;cool_ideas_WARP_drift_sentinel -->
<g id="edge11" class="edge">
<title>cool_ideas_WARP_stale_docs_checker&#45;&gt;cool_ideas_WARP_drift_sentinel</title>
<path fill="none" stroke="#666666" d="M9442.63,-295.1C9428.11,-283.18 9405.58,-264.67 9389.46,-251.43"/>
<polygon fill="#666666" stroke="#666666" points="9390.82,-250.29 9385.85,-248.47 9388.6,-252.99 9390.82,-250.29"/>
<text xml:space="preserve" text-anchor="middle" x="9447.61" y="-268.65" font-family="Helvetica,sans-Serif" font-size="7.00">blocked_by/blocking</text>
</g>
<!-- cool_ideas_WARP_structural_drift_detection -->
<g id="node73" class="node">
<title>cool_ideas_WARP_structural_drift_detection</title>
<path fill="#d4e8f7" stroke="black" d="M9663.8,-320.5C9663.8,-320.5 9540.2,-320.5 9540.2,-320.5 9536,-320.5 9531.8,-316.3 9531.8,-312.1 9531.8,-312.1 9531.8,-303.7 9531.8,-303.7 9531.8,-299.5 9536,-295.3 9540.2,-295.3 9540.2,-295.3 9663.8,-295.3 9663.8,-295.3 9668,-295.3 9672.2,-299.5 9672.2,-303.7 9672.2,-303.7 9672.2,-312.1 9672.2,-312.1 9672.2,-316.3 9668,-320.5 9663.8,-320.5"/>
<text xml:space="preserve" text-anchor="middle" x="9602" y="-304.8" font-family="Helvetica,sans-Serif" font-size="8.00">WARP&#45;structural&#45;drift&#45;detection &#45; M</text>
</g>
<!-- cool_ideas_WARP_symbol_heatmap -->
<g id="node75" class="node">
<title>cool_ideas_WARP_symbol_heatmap</title>
<path fill="#d4e8f7" stroke="black" d="M9793.05,-320.5C9793.05,-320.5 9694.95,-320.5 9694.95,-320.5 9690.75,-320.5 9686.55,-316.3 9686.55,-312.1 9686.55,-312.1 9686.55,-303.7 9686.55,-303.7 9686.55,-299.5 9690.75,-295.3 9694.95,-295.3 9694.95,-295.3 9793.05,-295.3 9793.05,-295.3 9797.25,-295.3 9801.45,-299.5 9801.45,-303.7 9801.45,-303.7 9801.45,-312.1 9801.45,-312.1 9801.45,-316.3 9797.25,-320.5 9793.05,-320.5"/>
<text xml:space="preserve" text-anchor="middle" x="9744" y="-304.8" font-family="Helvetica,sans-Serif" font-size="8.00">WARP&#45;symbol&#45;heatmap &#45; M</text>
</g>
<!-- cool_ideas_WARP_symbol_history_timeline -->
<g id="node76" class="node">
<title>cool_ideas_WARP_symbol_history_timeline</title>
<path fill="#d4e8f7" stroke="black" d="M9942.18,-320.5C9942.18,-320.5 9823.82,-320.5 9823.82,-320.5 9819.62,-320.5 9815.42,-316.3 9815.42,-312.1 9815.42,-312.1 9815.42,-303.7 9815.42,-303.7 9815.42,-299.5 9819.62,-295.3 9823.82,-295.3 9823.82,-295.3 9942.18,-295.3 9942.18,-295.3 9946.38,-295.3 9950.58,-299.5 9950.58,-303.7 9950.58,-303.7 9950.58,-312.1 9950.58,-312.1 9950.58,-316.3 9946.38,-320.5 9942.18,-320.5"/>
<text xml:space="preserve" text-anchor="middle" x="9883" y="-304.8" font-family="Helvetica,sans-Serif" font-size="8.00">WARP&#45;symbol&#45;history&#45;timeline &#45; S</text>
</g>
<!-- cool_ideas_WARP_temporal_structural_search -->
<g id="node78" class="node">
<title>cool_ideas_WARP_temporal_structural_search</title>
<path fill="#d4e8f7" stroke="black" d="M9575.68,-247.05C9575.68,-247.05 9442.32,-247.05 9442.32,-247.05 9438.12,-247.05 9433.92,-242.85 9433.92,-238.65 9433.92,-238.65 9433.92,-230.25 9433.92,-230.25 9433.92,-226.05 9438.12,-221.85 9442.32,-221.85 9442.32,-221.85 9575.68,-221.85 9575.68,-221.85 9579.88,-221.85 9584.08,-226.05 9584.08,-230.25 9584.08,-230.25 9584.08,-238.65 9584.08,-238.65 9584.08,-242.85 9579.88,-247.05 9575.68,-247.05"/>
<text xml:space="preserve" text-anchor="middle" x="9509" y="-231.35" font-family="Helvetica,sans-Serif" font-size="8.00">WARP&#45;temporal&#45;structural&#45;search &#45; M</text>
</g>
<!-- cool_ideas_WARP_symbol_history_timeline&#45;&gt;cool_ideas_WARP_temporal_structural_search -->
<g id="edge12" class="edge">
<title>cool_ideas_WARP_symbol_history_timeline&#45;&gt;cool_ideas_WARP_temporal_structural_search</title>
<path fill="none" stroke="#666666" d="M9842.82,-294.9C9831.64,-291.97 9819.42,-289.15 9808,-287.3 9727.98,-274.33 9705.5,-291.17 9626,-275.3 9597.41,-269.59 9566.21,-258.72 9543.23,-249.77"/>
<polygon fill="#666666" stroke="#666666" points="9543.97,-248.18 9538.68,-247.98 9542.69,-251.44 9543.97,-248.18"/>
<text xml:space="preserve" text-anchor="middle" x="9657.5" y="-268.65" font-family="Helvetica,sans-Serif" font-size="7.00">blocked_by/blocking</text>
</g>
<!-- cool_ideas_WARP_technical_debt_curvature -->
<g id="node77" class="node">
<title>cool_ideas_WARP_technical_debt_curvature</title>
<path fill="#d4e8f7" stroke="black" d="M10095.43,-320.5C10095.43,-320.5 9972.57,-320.5 9972.57,-320.5 9968.38,-320.5 9964.17,-316.3 9964.17,-312.1 9964.17,-312.1 9964.17,-303.7 9964.17,-303.7 9964.17,-299.5 9968.38,-295.3 9972.57,-295.3 9972.57,-295.3 10095.43,-295.3 10095.43,-295.3 10099.62,-295.3 10103.83,-299.5 10103.83,-303.7 10103.83,-303.7 10103.83,-312.1 10103.83,-312.1 10103.83,-316.3 10099.62,-320.5 10095.43,-320.5"/>
<text xml:space="preserve" text-anchor="middle" x="10034" y="-304.8" font-family="Helvetica,sans-Serif" font-size="8.00">WARP&#45;technical&#45;debt&#45;curvature &#45; L</text>
</g>
<!-- external_git_warp_observer_geometry_ladder__Rung_2_4_ -->
<g id="node79" class="node">
<title>external_git_warp_observer_geometry_ladder__Rung_2_4_</title>
<path fill="#e8f2ff" stroke="black" d="M10299.68,-320.5C10299.68,-320.5 10136.32,-320.5 10136.32,-320.5 10132.12,-320.5 10127.92,-316.3 10127.92,-312.1 10127.92,-312.1 10127.92,-303.7 10127.92,-303.7 10127.92,-299.5 10132.12,-295.3 10136.32,-295.3 10136.32,-295.3 10299.68,-295.3 10299.68,-295.3 10303.88,-295.3 10308.08,-299.5 10308.08,-303.7 10308.08,-303.7 10308.08,-312.1 10308.08,-312.1 10308.08,-316.3 10303.88,-320.5 10299.68,-320.5"/>
<text xml:space="preserve" text-anchor="middle" x="10218" y="-304.8" font-family="Helvetica,sans-Serif" font-size="8.00">git&#45;warp observer geometry ladder (Rung 2&#45;4)</text>
</g>
<!-- external_git_warp_observer_geometry_ladder__Rung_2_4_&#45;&gt;cool_ideas_CORE_migrate_to_slice_first_reads -->
<g id="edge13" class="edge">
<title>external_git_warp_observer_geometry_ladder__Rung_2_4_&#45;&gt;cool_ideas_CORE_migrate_to_slice_first_reads</title>
<path fill="none" stroke="#4477aa" stroke-dasharray="5,2" d="M10161.54,-294.84C10146.47,-291.98 10130.17,-289.21 10115,-287.3 10030.72,-276.67 10008.71,-284.38 9924.25,-275.3 9841.44,-266.4 9821.31,-259.78 9739,-247.05 9738.86,-247.03 9738.73,-247.01 9738.59,-246.99"/>
<polygon fill="#4477aa" stroke="#4477aa" points="9739.06,-245.29 9733.85,-246.25 9738.52,-248.75 9739.06,-245.29"/>
<text xml:space="preserve" text-anchor="middle" x="9956.12" y="-268.65" font-family="Helvetica,sans-Serif" font-size="7.00">blocked_by_external</text>
</g>
<!-- unresolved_CLEAN_CODE_export_diff_semver_signature_as_patch -->
<g id="node80" class="node">
<title>unresolved_CLEAN_CODE_export_diff_semver_signature_as_patch</title>
<path fill="#f2f2f2" stroke="black" stroke-dasharray="5,2" d="M10563.3,-320.5C10563.3,-320.5 10340.7,-320.5 10340.7,-320.5 10336.5,-320.5 10332.3,-316.3 10332.3,-312.1 10332.3,-312.1 10332.3,-303.7 10332.3,-303.7 10332.3,-299.5 10336.5,-295.3 10340.7,-295.3 10340.7,-295.3 10563.3,-295.3 10563.3,-295.3 10567.5,-295.3 10571.7,-299.5 10571.7,-303.7 10571.7,-303.7 10571.7,-312.1 10571.7,-312.1 10571.7,-316.3 10567.5,-320.5 10563.3,-320.5"/>
<text xml:space="preserve" text-anchor="middle" x="10452" y="-304.8" font-family="Helvetica,sans-Serif" font-size="8.00">missing: CLEAN_CODE_export&#45;diff&#45;semver&#45;signature&#45;as&#45;patch</text>
</g>
<!-- unresolved_CLEAN_CODE_export_diff_semver_signature_as_patch&#45;&gt;cool_ideas_WARP_auto_breaking_change_detection -->
<g id="edge14" class="edge">
<title>unresolved_CLEAN_CODE_export_diff_semver_signature_as_patch&#45;&gt;cool_ideas_WARP_auto_breaking_change_detection</title>
<path fill="none" stroke="#cc3333" stroke-dasharray="5,2" d="M10375.44,-294.84C10356.99,-292.14 10337.31,-289.45 10319,-287.3 10258.63,-280.2 10243.25,-281.23 10182.75,-275.3 10066.3,-263.89 10037.21,-260.73 9921,-247.05 9920.7,-247.02 9920.41,-246.98 9920.11,-246.94"/>
<polygon fill="#cc3333" stroke="#cc3333" points="9920.47,-245.23 9915.29,-246.37 9920.05,-248.7 9920.47,-245.23"/>
<text xml:space="preserve" text-anchor="middle" x="10200.38" y="-268.65" font-family="Helvetica,sans-Serif" font-size="7.00">blocked_by</text>
</g>
<!-- unresolved_CLEAN_CODE_export_diff_semver_signature_as_patch&#45;&gt;cool_ideas_WARP_semantic_merge_conflict_prediction -->
<g id="edge15" class="edge">
<title>unresolved_CLEAN_CODE_export_diff_semver_signature_as_patch&#45;&gt;cool_ideas_WARP_semantic_merge_conflict_prediction</title>
<path fill="none" stroke="#cc3333" stroke-dasharray="5,2" d="M10378.53,-294.86C10300.24,-282.03 10176.69,-261.78 10095.99,-248.56"/>
<polygon fill="#cc3333" stroke="#cc3333" points="10096.48,-246.87 10091.26,-247.78 10095.91,-250.32 10096.48,-246.87"/>
<text xml:space="preserve" text-anchor="middle" x="10264.7" y="-268.65" font-family="Helvetica,sans-Serif" font-size="7.00">blocked_by</text>
</g>
<!-- leg_v07 -->
<g id="node81" class="node">
<title>leg_v07</title>
<path fill="#ffa07a" stroke="black" stroke-width="2" d="M10688,-320.5C10688,-320.5 10604,-320.5 10604,-320.5 10599.8,-320.5 10595.6,-316.3 10595.6,-312.1 10595.6,-312.1 10595.6,-303.7 10595.6,-303.7 10595.6,-299.5 10599.8,-295.3 10604,-295.3 10604,-295.3 10688,-295.3 10688,-295.3 10692.2,-295.3 10696.4,-299.5 10696.4,-303.7 10696.4,-303.7 10696.4,-312.1 10696.4,-312.1 10696.4,-316.3 10692.2,-320.5 10688,-320.5"/>
<text xml:space="preserve" text-anchor="middle" x="10646" y="-305.38" font-family="Helvetica,sans-Serif" font-size="7.00">v0.7.0</text>
</g>
<!-- leg_bad -->
<g id="node82" class="node">
<title>leg_bad</title>
<path fill="#f6b3b3" stroke="black" stroke-width="2" d="M10688,-247.05C10688,-247.05 10604,-247.05 10604,-247.05 10599.8,-247.05 10595.6,-242.85 10595.6,-238.65 10595.6,-238.65 10595.6,-230.25 10595.6,-230.25 10595.6,-226.05 10599.8,-221.85 10604,-221.85 10604,-221.85 10688,-221.85 10688,-221.85 10692.2,-221.85 10696.4,-226.05 10696.4,-230.25 10696.4,-230.25 10696.4,-238.65 10696.4,-238.65 10696.4,-242.85 10692.2,-247.05 10688,-247.05"/>
<text xml:space="preserve" text-anchor="middle" x="10646" y="-231.92" font-family="Helvetica,sans-Serif" font-size="7.00">bad&#45;code</text>
</g>
<!-- leg_v07&#45;&gt;leg_bad -->
<!-- leg_idea -->
<g id="node83" class="node">
<title>leg_idea</title>
<path fill="#d4e8f7" stroke="black" d="M10688,-173.6C10688,-173.6 10604,-173.6 10604,-173.6 10599.8,-173.6 10595.6,-169.4 10595.6,-165.2 10595.6,-165.2 10595.6,-156.8 10595.6,-156.8 10595.6,-152.6 10599.8,-148.4 10604,-148.4 10604,-148.4 10688,-148.4 10688,-148.4 10692.2,-148.4 10696.4,-152.6 10696.4,-156.8 10696.4,-156.8 10696.4,-165.2 10696.4,-165.2 10696.4,-169.4 10692.2,-173.6 10688,-173.6"/>
<text xml:space="preserve" text-anchor="middle" x="10646" y="-158.47" font-family="Helvetica,sans-Serif" font-size="7.00">cool&#45;ideas</text>
</g>
<!-- leg_bad&#45;&gt;leg_idea -->
<!-- leg_external -->
<g id="node84" class="node">
<title>leg_external</title>
<path fill="#e8f2ff" stroke="black" d="M10688,-107.4C10688,-107.4 10604,-107.4 10604,-107.4 10599.8,-107.4 10595.6,-103.2 10595.6,-99 10595.6,-99 10595.6,-90.6 10595.6,-90.6 10595.6,-86.4 10599.8,-82.2 10604,-82.2 10604,-82.2 10688,-82.2 10688,-82.2 10692.2,-82.2 10696.4,-86.4 10696.4,-90.6 10696.4,-90.6 10696.4,-99 10696.4,-99 10696.4,-103.2 10692.2,-107.4 10688,-107.4"/>
<text xml:space="preserve" text-anchor="middle" x="10646" y="-92.28" font-family="Helvetica,sans-Serif" font-size="7.00">external blocker</text>
</g>
<!-- leg_idea&#45;&gt;leg_external -->
<!-- leg_unresolved -->
<g id="node85" class="node">
<title>leg_unresolved</title>
<path fill="#f2f2f2" stroke="black" stroke-dasharray="5,2" d="M10688,-41.2C10688,-41.2 10604,-41.2 10604,-41.2 10599.8,-41.2 10595.6,-37 10595.6,-32.8 10595.6,-32.8 10595.6,-24.4 10595.6,-24.4 10595.6,-20.2 10599.8,-16 10604,-16 10604,-16 10688,-16 10688,-16 10692.2,-16 10696.4,-20.2 10696.4,-24.4 10696.4,-24.4 10696.4,-32.8 10696.4,-32.8 10696.4,-37 10692.2,-41.2 10688,-41.2"/>
<text xml:space="preserve" text-anchor="middle" x="10646" y="-26.08" font-family="Helvetica,sans-Serif" font-size="7.00">unresolved ref</text>
</g>
<!-- leg_external&#45;&gt;leg_unresolved -->
</g>
</svg>
