<?xml version="1.0" encoding="UTF-8" standalone="no"?>
<!DOCTYPE svg PUBLIC "-//W3C//DTD SVG 1.1//EN"
 "http://www.w3.org/Graphics/SVG/1.1/DTD/svg11.dtd">
<!-- Generated by graphviz version 14.1.2 (20260124.0452)
 -->
<!-- Title: backlog Pages: 1 -->
<svg width="14533pt" height="449pt"
 viewBox="0.00 0.00 14533.00 449.00" xmlns="http://www.w3.org/2000/svg" xmlns:xlink="http://www.w3.org/1999/xlink">
<g id="graph0" class="graph" transform="scale(1 1) rotate(0) translate(4 445.2)">
<title>backlog</title>
<polygon fill="white" stroke="none" points="-4,4 -4,-445.2 14529,-445.2 14529,4 -4,4"/>
<text xml:space="preserve" text-anchor="middle" x="7262.5" y="-425.8" font-family="Helvetica,sans-Serif" font-size="12.00">Active backlog graph generated from docs/method/backlog/*/*.md</text>
<g id="clust1" class="cluster">
<title>cluster_up_next</title>
<path fill="#fafafa" stroke="#cccccc" d="M20,-353.5C20,-353.5 184,-353.5 184,-353.5 190,-353.5 196,-359.5 196,-365.5 196,-365.5 196,-400.45 196,-400.45 196,-406.45 190,-412.45 184,-412.45 184,-412.45 20,-412.45 20,-412.45 14,-412.45 8,-406.45 8,-400.45 8,-400.45 8,-365.5 8,-365.5 8,-359.5 14,-353.5 20,-353.5"/>
<text xml:space="preserve" text-anchor="middle" x="38.12" y="-399.9" font-family="Helvetica,sans-Serif" font-size="9.00" fill="#555555">up&#45;next (1)</text>
</g>
<g id="clust2" class="cluster">
<title>cluster_v0_8_0</title>
<path fill="#fafafa" stroke="#cccccc" d="M216,-353.5C216,-353.5 4255,-353.5 4255,-353.5 4261,-353.5 4267,-359.5 4267,-365.5 4267,-365.5 4267,-400.45 4267,-400.45 4267,-406.45 4261,-412.45 4255,-412.45 4255,-412.45 216,-412.45 216,-412.45 210,-412.45 204,-406.45 204,-400.45 204,-400.45 204,-365.5 204,-365.5 204,-359.5 210,-353.5 216,-353.5"/>
<text xml:space="preserve" text-anchor="middle" x="233.75" y="-399.9" font-family="Helvetica,sans-Serif" font-size="9.00" fill="#555555">v0.8.0 (26)</text>
</g>
<g id="clust3" class="cluster">
<title>cluster_bad_code</title>
<path fill="#fafafa" stroke="#cccccc" d="M14103,-353.5C14103,-353.5 14381,-353.5 14381,-353.5 14387,-353.5 14393,-359.5 14393,-365.5 14393,-365.5 14393,-400.45 14393,-400.45 14393,-406.45 14387,-412.45 14381,-412.45 14381,-412.45 14103,-412.45 14103,-412.45 14097,-412.45 14091,-406.45 14091,-400.45 14091,-400.45 14091,-365.5 14091,-365.5 14091,-359.5 14097,-353.5 14103,-353.5"/>
<text xml:space="preserve" text-anchor="middle" x="14125.25" y="-399.9" font-family="Helvetica,sans-Serif" font-size="9.00" fill="#555555">bad&#45;code (1)</text>
</g>
<g id="clust4" class="cluster">
<title>cluster_cool_ideas</title>
<path fill="#fafafa" stroke="#cccccc" d="M4287,-206.6C4287,-206.6 13603,-206.6 13603,-206.6 13609,-206.6 13615,-212.6 13615,-218.6 13615,-218.6 13615,-400.45 13615,-400.45 13615,-406.45 13609,-412.45 13603,-412.45 13603,-412.45 4287,-412.45 4287,-412.45 4281,-412.45 4275,-406.45 4275,-400.45 4275,-400.45 4275,-218.6 4275,-218.6 4275,-212.6 4281,-206.6 4287,-206.6"/>
<text xml:space="preserve" text-anchor="middle" x="4314.5" y="-399.9" font-family="Helvetica,sans-Serif" font-size="9.00" fill="#555555">Cool Ideas (74)</text>
</g>
<g id="clust5" class="cluster">
<title>cluster_external</title>
<path fill="#f8fbff" stroke="#cccccc" d="M13635,-353.5C13635,-353.5 13807,-353.5 13807,-353.5 13813,-353.5 13819,-359.5 13819,-365.5 13819,-365.5 13819,-400.45 13819,-400.45 13819,-406.45 13813,-412.45 13807,-412.45 13807,-412.45 13635,-412.45 13635,-412.45 13629,-412.45 13623,-406.45 13623,-400.45 13623,-400.45 13623,-365.5 13623,-365.5 13623,-359.5 13629,-353.5 13635,-353.5"/>
<text xml:space="preserve" text-anchor="middle" x="13666.25" y="-399.9" font-family="Helvetica,sans-Serif" font-size="9.00" fill="#555555">External blockers</text>
</g>
<g id="clust6" class="cluster">
<title>cluster_unresolved</title>
<path fill="#fff7f7" stroke="#cc3333" stroke-dasharray="5,2" d="M13839,-353.5C13839,-353.5 14071,-353.5 14071,-353.5 14077,-353.5 14083,-359.5 14083,-365.5 14083,-365.5 14083,-400.45 14083,-400.45 14083,-406.45 14077,-412.45 14071,-412.45 14071,-412.45 13839,-412.45 13839,-412.45 13833,-412.45 13827,-406.45 13827,-400.45 13827,-400.45 13827,-365.5 13827,-365.5 13827,-359.5 13833,-353.5 13839,-353.5"/>
<text xml:space="preserve" text-anchor="middle" x="13883.75" y="-399.9" font-family="Helvetica,sans-Serif" font-size="9.00" fill="#555555">Unresolved internal refs</text>
</g>
<g id="clust7" class="cluster">
<title>cluster_legend</title>
<path fill="none" stroke="#dddddd" d="M14413,-8C14413,-8 14505,-8 14505,-8 14511,-8 14517,-14 14517,-20 14517,-20 14517,-399.7 14517,-399.7 14517,-405.7 14511,-411.7 14505,-411.7 14505,-411.7 14413,-411.7 14413,-411.7 14407,-411.7 14401,-405.7 14401,-399.7 14401,-399.7 14401,-20 14401,-20 14401,-14 14407,-8 14413,-8"/>
<text xml:space="preserve" text-anchor="middle" x="14422.5" y="-400.1" font-family="Helvetica,sans-Serif" font-size="8.00" fill="#aaaaaa">Legend</text>
</g>
<!-- up_next_CORE_continuum_structural_reading_port -->
<g id="node1" class="node">
<title>up_next_CORE_continuum_structural_reading_port</title>
<path fill="#e5e7eb" stroke="black" stroke-width="2" d="M179.92,-386.7C179.92,-386.7 24.08,-386.7 24.08,-386.7 19.88,-386.7 15.67,-382.5 15.67,-378.3 15.67,-378.3 15.67,-369.9 15.67,-369.9 15.67,-365.7 19.88,-361.5 24.08,-361.5 24.08,-361.5 179.92,-361.5 179.92,-361.5 184.12,-361.5 188.32,-365.7 188.32,-369.9 188.32,-369.9 188.32,-378.3 188.32,-378.3 188.32,-382.5 184.12,-386.7 179.92,-386.7"/>
<text xml:space="preserve" text-anchor="middle" x="102" y="-371" font-family="Helvetica,sans-Serif" font-size="8.00">CORE&#45;continuum&#45;structural&#45;reading&#45;port &#45; L</text>
</g>
<!-- v0_8_0_CORE_c_structural_parsing -->
<g id="node2" class="node">
<title>v0_8_0_CORE_c_structural_parsing</title>
<path fill="#c8e6c9" stroke="black" stroke-width="2" d="M327.55,-386.7C327.55,-386.7 220.45,-386.7 220.45,-386.7 216.25,-386.7 212.05,-382.5 212.05,-378.3 212.05,-378.3 212.05,-369.9 212.05,-369.9 212.05,-365.7 216.25,-361.5 220.45,-361.5 220.45,-361.5 327.55,-361.5 327.55,-361.5 331.75,-361.5 335.95,-365.7 335.95,-369.9 335.95,-369.9 335.95,-378.3 335.95,-378.3 335.95,-382.5 331.75,-386.7 327.55,-386.7"/>
<text xml:space="preserve" text-anchor="middle" x="274" y="-371" font-family="Helvetica,sans-Serif" font-size="8.00">CORE&#45;c&#45;structural&#45;parsing &#45; M</text>
</g>
<!-- v0_8_0_CORE_cpp_structural_parsing -->
<g id="node3" class="node">
<title>v0_8_0_CORE_cpp_structural_parsing</title>
<path fill="#c8e6c9" stroke="black" stroke-width="2" d="M471.92,-386.7C471.92,-386.7 358.08,-386.7 358.08,-386.7 353.88,-386.7 349.68,-382.5 349.68,-378.3 349.68,-378.3 349.68,-369.9 349.68,-369.9 349.68,-365.7 353.88,-361.5 358.08,-361.5 358.08,-361.5 471.92,-361.5 471.92,-361.5 476.12,-361.5 480.32,-365.7 480.32,-369.9 480.32,-369.9 480.32,-378.3 480.32,-378.3 480.32,-382.5 476.12,-386.7 471.92,-386.7"/>
<text xml:space="preserve" text-anchor="middle" x="415" y="-371" font-family="Helvetica,sans-Serif" font-size="8.00">CORE&#45;cpp&#45;structural&#45;parsing &#45; L</text>
</g>
<!-- v0_8_0_CORE_csharp_structural_parsing -->
<g id="node4" class="node">
<title>v0_8_0_CORE_csharp_structural_parsing</title>
<path fill="#c8e6c9" stroke="black" stroke-width="2" d="M629.68,-386.7C629.68,-386.7 502.33,-386.7 502.33,-386.7 498.12,-386.7 493.93,-382.5 493.93,-378.3 493.93,-378.3 493.93,-369.9 493.93,-369.9 493.93,-365.7 498.12,-361.5 502.33,-361.5 502.33,-361.5 629.68,-361.5 629.68,-361.5 633.88,-361.5 638.08,-365.7 638.08,-369.9 638.08,-369.9 638.08,-378.3 638.08,-378.3 638.08,-382.5 633.88,-386.7 629.68,-386.7"/>
<text xml:space="preserve" text-anchor="middle" x="566" y="-371" font-family="Helvetica,sans-Serif" font-size="8.00">CORE&#45;csharp&#45;structural&#45;parsing &#45; M</text>
</g>
<!-- v0_8_0_CORE_go_structural_parsing -->
<g id="node5" class="node">
<title>v0_8_0_CORE_go_structural_parsing</title>
<path fill="#c8e6c9" stroke="black" stroke-width="2" d="M771.43,-386.7C771.43,-386.7 660.57,-386.7 660.57,-386.7 656.38,-386.7 652.17,-382.5 652.17,-378.3 652.17,-378.3 652.17,-369.9 652.17,-369.9 652.17,-365.7 656.38,-361.5 660.57,-361.5 660.57,-361.5 771.43,-361.5 771.43,-361.5 775.62,-361.5 779.83,-365.7 779.83,-369.9 779.83,-369.9 779.83,-378.3 779.83,-378.3 779.83,-382.5 775.62,-386.7 771.43,-386.7"/>
<text xml:space="preserve" text-anchor="middle" x="716" y="-371" font-family="Helvetica,sans-Serif" font-size="8.00">CORE&#45;go&#45;structural&#45;parsing &#45; S</text>
</g>
<!-- v0_8_0_CORE_hcl_structured_config -->
<g id="node6" class="node">
<title>v0_8_0_CORE_hcl_structured_config</title>
<path fill="#c8e6c9" stroke="black" stroke-width="2" d="M913.43,-386.7C913.43,-386.7 802.57,-386.7 802.57,-386.7 798.38,-386.7 794.17,-382.5 794.17,-378.3 794.17,-378.3 794.17,-369.9 794.17,-369.9 794.17,-365.7 798.38,-361.5 802.57,-361.5 802.57,-361.5 913.43,-361.5 913.43,-361.5 917.62,-361.5 921.83,-365.7 921.83,-369.9 921.83,-369.9 921.83,-378.3 921.83,-378.3 921.83,-382.5 917.62,-386.7 913.43,-386.7"/>
<text xml:space="preserve" text-anchor="middle" x="858" y="-371" font-family="Helvetica,sans-Serif" font-size="8.00">CORE&#45;hcl&#45;structured&#45;config &#45; M</text>
</g>
<!-- v0_8_0_CORE_java_structural_parsing -->
<g id="node7" class="node">
<title>v0_8_0_CORE_java_structural_parsing</title>
<path fill="#c8e6c9" stroke="black" stroke-width="2" d="M1061.8,-386.7C1061.8,-386.7 944.2,-386.7 944.2,-386.7 940,-386.7 935.8,-382.5 935.8,-378.3 935.8,-378.3 935.8,-369.9 935.8,-369.9 935.8,-365.7 940,-361.5 944.2,-361.5 944.2,-361.5 1061.8,-361.5 1061.8,-361.5 1066,-361.5 1070.2,-365.7 1070.2,-369.9 1070.2,-369.9 1070.2,-378.3 1070.2,-378.3 1070.2,-382.5 1066,-386.7 1061.8,-386.7"/>
<text xml:space="preserve" text-anchor="middle" x="1003" y="-371" font-family="Helvetica,sans-Serif" font-size="8.00">CORE&#45;java&#45;structural&#45;parsing &#45; M</text>
</g>
<!-- v0_8_0_CORE_json_structured_config -->
<g id="node8" class="node">
<title>v0_8_0_CORE_json_structured_config</title>
<path fill="#c8e6c9" stroke="black" stroke-width="2" d="M1206.92,-386.7C1206.92,-386.7 1093.08,-386.7 1093.08,-386.7 1088.88,-386.7 1084.67,-382.5 1084.67,-378.3 1084.67,-378.3 1084.67,-369.9 1084.67,-369.9 1084.67,-365.7 1088.88,-361.5 1093.08,-361.5 1093.08,-361.5 1206.92,-361.5 1206.92,-361.5 1211.12,-361.5 1215.33,-365.7 1215.33,-369.9 1215.33,-369.9 1215.33,-378.3 1215.33,-378.3 1215.33,-382.5 1211.12,-386.7 1206.92,-386.7"/>
<text xml:space="preserve" text-anchor="middle" x="1150" y="-371" font-family="Helvetica,sans-Serif" font-size="8.00">CORE&#45;json&#45;structured&#45;config &#45; S</text>
</g>
<!-- v0_8_0_CORE_jupyter_notebook_structure -->
<g id="node9" class="node">
<title>v0_8_0_CORE_jupyter_notebook_structure</title>
<path fill="#c8e6c9" stroke="black" stroke-width="2" d="M1370.3,-386.7C1370.3,-386.7 1237.7,-386.7 1237.7,-386.7 1233.5,-386.7 1229.3,-382.5 1229.3,-378.3 1229.3,-378.3 1229.3,-369.9 1229.3,-369.9 1229.3,-365.7 1233.5,-361.5 1237.7,-361.5 1237.7,-361.5 1370.3,-361.5 1370.3,-361.5 1374.5,-361.5 1378.7,-365.7 1378.7,-369.9 1378.7,-369.9 1378.7,-378.3 1378.7,-378.3 1378.7,-382.5 1374.5,-386.7 1370.3,-386.7"/>
<text xml:space="preserve" text-anchor="middle" x="1304" y="-371" font-family="Helvetica,sans-Serif" font-size="8.00">CORE&#45;jupyter&#45;notebook&#45;structure &#45; M</text>
</g>
<!-- v0_8_0_CORE_kotlin_structural_parsing -->
<g id="node10" class="node">
<title>v0_8_0_CORE_kotlin_structural_parsing</title>
<path fill="#c8e6c9" stroke="black" stroke-width="2" d="M1522.67,-386.7C1522.67,-386.7 1401.33,-386.7 1401.33,-386.7 1397.12,-386.7 1392.92,-382.5 1392.92,-378.3 1392.92,-378.3 1392.92,-369.9 1392.92,-369.9 1392.92,-365.7 1397.12,-361.5 1401.33,-361.5 1401.33,-361.5 1522.67,-361.5 1522.67,-361.5 1526.88,-361.5 1531.08,-365.7 1531.08,-369.9 1531.08,-369.9 1531.08,-378.3 1531.08,-378.3 1531.08,-382.5 1526.88,-386.7 1522.67,-386.7"/>
<text xml:space="preserve" text-anchor="middle" x="1462" y="-371" font-family="Helvetica,sans-Serif" font-size="8.00">CORE&#45;kotlin&#45;structural&#45;parsing &#45; M</text>
</g>
<!-- v0_8_0_CORE_php_structural_parsing -->
<g id="node11" class="node">
<title>v0_8_0_CORE_php_structural_parsing</title>
<path fill="#c8e6c9" stroke="black" stroke-width="2" d="M1670.42,-386.7C1670.42,-386.7 1553.58,-386.7 1553.58,-386.7 1549.38,-386.7 1545.17,-382.5 1545.17,-378.3 1545.17,-378.3 1545.17,-369.9 1545.17,-369.9 1545.17,-365.7 1549.38,-361.5 1553.58,-361.5 1553.58,-361.5 1670.42,-361.5 1670.42,-361.5 1674.62,-361.5 1678.83,-365.7 1678.83,-369.9 1678.83,-369.9 1678.83,-378.3 1678.83,-378.3 1678.83,-382.5 1674.62,-386.7 1670.42,-386.7"/>
<text xml:space="preserve" text-anchor="middle" x="1612" y="-371" font-family="Helvetica,sans-Serif" font-size="8.00">CORE&#45;php&#45;structural&#45;parsing &#45; M</text>
</g>
<!-- v0_8_0_CORE_pr_review_structural_summary -->
<g id="node12" class="node">
<title>v0_8_0_CORE_pr_review_structural_summary</title>
<path fill="#c8e6c9" stroke="black" stroke-width="2" d="M1844.92,-386.7C1844.92,-386.7 1701.08,-386.7 1701.08,-386.7 1696.88,-386.7 1692.67,-382.5 1692.67,-378.3 1692.67,-378.3 1692.67,-369.9 1692.67,-369.9 1692.67,-365.7 1696.88,-361.5 1701.08,-361.5 1701.08,-361.5 1844.92,-361.5 1844.92,-361.5 1849.12,-361.5 1853.33,-365.7 1853.33,-369.9 1853.33,-369.9 1853.33,-378.3 1853.33,-378.3 1853.33,-382.5 1849.12,-386.7 1844.92,-386.7"/>
<text xml:space="preserve" text-anchor="middle" x="1773" y="-371" font-family="Helvetica,sans-Serif" font-size="8.00">CORE&#45;pr&#45;review&#45;structural&#45;summary &#45; M</text>
</g>
<!-- v0_8_0_CORE_python_structural_parsing -->
<g id="node13" class="node">
<title>v0_8_0_CORE_python_structural_parsing</title>
<path fill="#c8e6c9" stroke="black" stroke-width="2" d="M2001.92,-386.7C2001.92,-386.7 1876.08,-386.7 1876.08,-386.7 1871.88,-386.7 1867.67,-382.5 1867.67,-378.3 1867.67,-378.3 1867.67,-369.9 1867.67,-369.9 1867.67,-365.7 1871.88,-361.5 1876.08,-361.5 1876.08,-361.5 2001.92,-361.5 2001.92,-361.5 2006.12,-361.5 2010.33,-365.7 2010.33,-369.9 2010.33,-369.9 2010.33,-378.3 2010.33,-378.3 2010.33,-382.5 2006.12,-386.7 2001.92,-386.7"/>
<text xml:space="preserve" text-anchor="middle" x="1939" y="-371" font-family="Helvetica,sans-Serif" font-size="8.00">CORE&#45;python&#45;structural&#45;parsing &#45; S</text>
</g>
<!-- v0_8_0_CORE_ruby_structural_parsing -->
<g id="node14" class="node">
<title>v0_8_0_CORE_ruby_structural_parsing</title>
<path fill="#c8e6c9" stroke="black" stroke-width="2" d="M2151.55,-386.7C2151.55,-386.7 2032.45,-386.7 2032.45,-386.7 2028.25,-386.7 2024.05,-382.5 2024.05,-378.3 2024.05,-378.3 2024.05,-369.9 2024.05,-369.9 2024.05,-365.7 2028.25,-361.5 2032.45,-361.5 2032.45,-361.5 2151.55,-361.5 2151.55,-361.5 2155.75,-361.5 2159.95,-365.7 2159.95,-369.9 2159.95,-369.9 2159.95,-378.3 2159.95,-378.3 2159.95,-382.5 2155.75,-386.7 2151.55,-386.7"/>
<text xml:space="preserve" text-anchor="middle" x="2092" y="-371" font-family="Helvetica,sans-Serif" font-size="8.00">CORE&#45;ruby&#45;structural&#45;parsing &#45; M</text>
</g>
<!-- v0_8_0_CORE_shell_structural_parsing -->
<g id="node15" class="node">
<title>v0_8_0_CORE_shell_structural_parsing</title>
<path fill="#c8e6c9" stroke="black" stroke-width="2" d="M2301.55,-386.7C2301.55,-386.7 2182.45,-386.7 2182.45,-386.7 2178.25,-386.7 2174.05,-382.5 2174.05,-378.3 2174.05,-378.3 2174.05,-369.9 2174.05,-369.9 2174.05,-365.7 2178.25,-361.5 2182.45,-361.5 2182.45,-361.5 2301.55,-361.5 2301.55,-361.5 2305.75,-361.5 2309.95,-365.7 2309.95,-369.9 2309.95,-369.9 2309.95,-378.3 2309.95,-378.3 2309.95,-382.5 2305.75,-386.7 2301.55,-386.7"/>
<text xml:space="preserve" text-anchor="middle" x="2242" y="-371" font-family="Helvetica,sans-Serif" font-size="8.00">CORE&#45;shell&#45;structural&#45;parsing &#45; M</text>
</g>
<!-- v0_8_0_CORE_sql_structural_parsing -->
<g id="node16" class="node">
<title>v0_8_0_CORE_sql_structural_parsing</title>
<path fill="#c8e6c9" stroke="black" stroke-width="2" d="M2445.55,-386.7C2445.55,-386.7 2332.45,-386.7 2332.45,-386.7 2328.25,-386.7 2324.05,-382.5 2324.05,-378.3 2324.05,-378.3 2324.05,-369.9 2324.05,-369.9 2324.05,-365.7 2328.25,-361.5 2332.45,-361.5 2332.45,-361.5 2445.55,-361.5 2445.55,-361.5 2449.75,-361.5 2453.95,-365.7 2453.95,-369.9 2453.95,-369.9 2453.95,-378.3 2453.95,-378.3 2453.95,-382.5 2449.75,-386.7 2445.55,-386.7"/>
<text xml:space="preserve" text-anchor="middle" x="2389" y="-371" font-family="Helvetica,sans-Serif" font-size="8.00">CORE&#45;sql&#45;structural&#45;parsing &#45; M</text>
</g>
<!-- v0_8_0_CORE_structural_test_coverage_map -->
<g id="node17" class="node">
<title>v0_8_0_CORE_structural_test_coverage_map</title>
<path fill="#c8e6c9" stroke="black" stroke-width="2" d="M2617.8,-386.7C2617.8,-386.7 2476.2,-386.7 2476.2,-386.7 2472,-386.7 2467.8,-382.5 2467.8,-378.3 2467.8,-378.3 2467.8,-369.9 2467.8,-369.9 2467.8,-365.7 2472,-361.5 2476.2,-361.5 2476.2,-361.5 2617.8,-361.5 2617.8,-361.5 2622,-361.5 2626.2,-365.7 2626.2,-369.9 2626.2,-369.9 2626.2,-378.3 2626.2,-378.3 2626.2,-382.5 2622,-386.7 2617.8,-386.7"/>
<text xml:space="preserve" text-anchor="middle" x="2547" y="-371" font-family="Helvetica,sans-Serif" font-size="8.00">CORE&#45;structural&#45;test&#45;coverage&#45;map &#45; M</text>
</g>
<!-- v0_8_0_CORE_swift_structural_parsing -->
<g id="node18" class="node">
<title>v0_8_0_CORE_swift_structural_parsing</title>
<path fill="#c8e6c9" stroke="black" stroke-width="2" d="M2767.55,-386.7C2767.55,-386.7 2648.45,-386.7 2648.45,-386.7 2644.25,-386.7 2640.05,-382.5 2640.05,-378.3 2640.05,-378.3 2640.05,-369.9 2640.05,-369.9 2640.05,-365.7 2644.25,-361.5 2648.45,-361.5 2648.45,-361.5 2767.55,-361.5 2767.55,-361.5 2771.75,-361.5 2775.95,-365.7 2775.95,-369.9 2775.95,-369.9 2775.95,-378.3 2775.95,-378.3 2775.95,-382.5 2771.75,-386.7 2767.55,-386.7"/>
<text xml:space="preserve" text-anchor="middle" x="2708" y="-371" font-family="Helvetica,sans-Serif" font-size="8.00">CORE&#45;swift&#45;structural&#45;parsing &#45; M</text>
</g>
<!-- v0_8_0_CORE_toml_structured_config -->
<g id="node19" class="node">
<title>v0_8_0_CORE_toml_structured_config</title>
<path fill="#c8e6c9" stroke="black" stroke-width="2" d="M2913.3,-386.7C2913.3,-386.7 2798.7,-386.7 2798.7,-386.7 2794.5,-386.7 2790.3,-382.5 2790.3,-378.3 2790.3,-378.3 2790.3,-369.9 2790.3,-369.9 2790.3,-365.7 2794.5,-361.5 2798.7,-361.5 2798.7,-361.5 2913.3,-361.5 2913.3,-361.5 2917.5,-361.5 2921.7,-365.7 2921.7,-369.9 2921.7,-369.9 2921.7,-378.3 2921.7,-378.3 2921.7,-382.5 2917.5,-386.7 2913.3,-386.7"/>
<text xml:space="preserve" text-anchor="middle" x="2856" y="-371" font-family="Helvetica,sans-Serif" font-size="8.00">CORE&#45;toml&#45;structured&#45;config &#45; S</text>
</g>
<!-- v0_8_0_CORE_tool_context_injection_contracts -->
<g id="node20" class="node">
<title>v0_8_0_CORE_tool_context_injection_contracts</title>
<path fill="#c8e6c9" stroke="black" stroke-width="2" d="M3090.05,-386.7C3090.05,-386.7 2943.95,-386.7 2943.95,-386.7 2939.75,-386.7 2935.55,-382.5 2935.55,-378.3 2935.55,-378.3 2935.55,-369.9 2935.55,-369.9 2935.55,-365.7 2939.75,-361.5 2943.95,-361.5 2943.95,-361.5 3090.05,-361.5 3090.05,-361.5 3094.25,-361.5 3098.45,-365.7 3098.45,-369.9 3098.45,-369.9 3098.45,-378.3 3098.45,-378.3 3098.45,-382.5 3094.25,-386.7 3090.05,-386.7"/>
<text xml:space="preserve" text-anchor="middle" x="3017" y="-371" font-family="Helvetica,sans-Serif" font-size="8.00">CORE&#45;tool&#45;context&#45;injection&#45;contracts &#45; M</text>
</g>
<!-- v0_8_0_CORE_yaml_structured_config -->
<g id="node21" class="node">
<title>v0_8_0_CORE_yaml_structured_config</title>
<path fill="#c8e6c9" stroke="black" stroke-width="2" d="M3238.8,-386.7C3238.8,-386.7 3121.2,-386.7 3121.2,-386.7 3117,-386.7 3112.8,-382.5 3112.8,-378.3 3112.8,-378.3 3112.8,-369.9 3112.8,-369.9 3112.8,-365.7 3117,-361.5 3121.2,-361.5 3121.2,-361.5 3238.8,-361.5 3238.8,-361.5 3243,-361.5 3247.2,-365.7 3247.2,-369.9 3247.2,-369.9 3247.2,-378.3 3247.2,-378.3 3247.2,-382.5 3243,-386.7 3238.8,-386.7"/>
<text xml:space="preserve" text-anchor="middle" x="3180" y="-371" font-family="Helvetica,sans-Serif" font-size="8.00">CORE&#45;yaml&#45;structured&#45;config &#45; M</text>
</g>
<!-- v0_8_0_SURFACE_git_graft_enhance_provenance_hints -->
<g id="node22" class="node">
<title>v0_8_0_SURFACE_git_graft_enhance_provenance_hints</title>
<path fill="#c8e6c9" stroke="black" stroke-width="2" d="M3434.42,-386.7C3434.42,-386.7 3269.58,-386.7 3269.58,-386.7 3265.38,-386.7 3261.18,-382.5 3261.18,-378.3 3261.18,-378.3 3261.18,-369.9 3261.18,-369.9 3261.18,-365.7 3265.38,-361.5 3269.58,-361.5 3269.58,-361.5 3434.42,-361.5 3434.42,-361.5 3438.62,-361.5 3442.82,-365.7 3442.82,-369.9 3442.82,-369.9 3442.82,-378.3 3442.82,-378.3 3442.82,-382.5 3438.62,-386.7 3434.42,-386.7"/>
<text xml:space="preserve" text-anchor="middle" x="3352" y="-371" font-family="Helvetica,sans-Serif" font-size="8.00">SURFACE&#45;git&#45;graft&#45;enhance&#45;provenance&#45;hints</text>
</g>
<!-- v0_8_0_SURFACE_pr_feedback_resolution_ledger -->
<g id="node23" class="node">
<title>v0_8_0_SURFACE_pr_feedback_resolution_ledger</title>
<path fill="#c8e6c9" stroke="black" stroke-width="2" d="M3624.42,-386.7C3624.42,-386.7 3465.58,-386.7 3465.58,-386.7 3461.38,-386.7 3457.18,-382.5 3457.18,-378.3 3457.18,-378.3 3457.18,-369.9 3457.18,-369.9 3457.18,-365.7 3461.38,-361.5 3465.58,-361.5 3465.58,-361.5 3624.42,-361.5 3624.42,-361.5 3628.62,-361.5 3632.82,-365.7 3632.82,-369.9 3632.82,-369.9 3632.82,-378.3 3632.82,-378.3 3632.82,-382.5 3628.62,-386.7 3624.42,-386.7"/>
<text xml:space="preserve" text-anchor="middle" x="3545" y="-371" font-family="Helvetica,sans-Serif" font-size="8.00">SURFACE&#45;pr&#45;feedback&#45;resolution&#45;ledger &#45; M</text>
</g>
<!-- v0_8_0_SURFACE_review_cooldown_status -->
<g id="node24" class="node">
<title>v0_8_0_SURFACE_review_cooldown_status</title>
<path fill="#c8e6c9" stroke="black" stroke-width="2" d="M3790.8,-386.7C3790.8,-386.7 3655.2,-386.7 3655.2,-386.7 3651,-386.7 3646.8,-382.5 3646.8,-378.3 3646.8,-378.3 3646.8,-369.9 3646.8,-369.9 3646.8,-365.7 3651,-361.5 3655.2,-361.5 3655.2,-361.5 3790.8,-361.5 3790.8,-361.5 3795,-361.5 3799.2,-365.7 3799.2,-369.9 3799.2,-369.9 3799.2,-378.3 3799.2,-378.3 3799.2,-382.5 3795,-386.7 3790.8,-386.7"/>
<text xml:space="preserve" text-anchor="middle" x="3723" y="-371" font-family="Helvetica,sans-Serif" font-size="8.00">SURFACE&#45;review&#45;cooldown&#45;status &#45; S</text>
</g>
<!-- v0_8_0_TEST_bounded_subprocess_policy -->
<g id="node25" class="node">
<title>v0_8_0_TEST_bounded_subprocess_policy</title>
<path fill="#c8e6c9" stroke="black" stroke-width="2" d="M3952.17,-386.7C3952.17,-386.7 3821.83,-386.7 3821.83,-386.7 3817.62,-386.7 3813.43,-382.5 3813.43,-378.3 3813.43,-378.3 3813.43,-369.9 3813.43,-369.9 3813.43,-365.7 3817.62,-361.5 3821.83,-361.5 3821.83,-361.5 3952.17,-361.5 3952.17,-361.5 3956.38,-361.5 3960.57,-365.7 3960.57,-369.9 3960.57,-369.9 3960.57,-378.3 3960.57,-378.3 3960.57,-382.5 3956.38,-386.7 3952.17,-386.7"/>
<text xml:space="preserve" text-anchor="middle" x="3887" y="-371" font-family="Helvetica,sans-Serif" font-size="8.00">TEST&#45;bounded&#45;subprocess&#45;policy &#45; S</text>
</g>
<!-- v0_8_0_WARP_dead_symbol_detection -->
<g id="node26" class="node">
<title>v0_8_0_WARP_dead_symbol_detection</title>
<path fill="#c8e6c9" stroke="black" stroke-width="2" d="M4101.18,-386.7C4101.18,-386.7 3982.83,-386.7 3982.83,-386.7 3978.62,-386.7 3974.43,-382.5 3974.43,-378.3 3974.43,-378.3 3974.43,-369.9 3974.43,-369.9 3974.43,-365.7 3978.62,-361.5 3982.83,-361.5 3982.83,-361.5 4101.18,-361.5 4101.18,-361.5 4105.38,-361.5 4109.57,-365.7 4109.57,-369.9 4109.57,-369.9 4109.57,-378.3 4109.57,-378.3 4109.57,-382.5 4105.38,-386.7 4101.18,-386.7"/>
<text xml:space="preserve" text-anchor="middle" x="4042" y="-371" font-family="Helvetica,sans-Serif" font-size="8.00">WARP&#45;dead&#45;symbol&#45;detection &#45; S</text>
</g>
<!-- v0_8_0_WARP_symbol_history_timeline -->
<g id="node27" class="node">
<title>v0_8_0_WARP_symbol_history_timeline</title>
<path fill="#c8e6c9" stroke="black" stroke-width="2" d="M4250.18,-386.7C4250.18,-386.7 4131.82,-386.7 4131.82,-386.7 4127.62,-386.7 4123.43,-382.5 4123.43,-378.3 4123.43,-378.3 4123.43,-369.9 4123.43,-369.9 4123.43,-365.7 4127.62,-361.5 4131.82,-361.5 4131.82,-361.5 4250.18,-361.5 4250.18,-361.5 4254.38,-361.5 4258.57,-365.7 4258.57,-369.9 4258.57,-369.9 4258.57,-378.3 4258.57,-378.3 4258.57,-382.5 4254.38,-386.7 4250.18,-386.7"/>
<text xml:space="preserve" text-anchor="middle" x="4191" y="-371" font-family="Helvetica,sans-Serif" font-size="8.00">WARP&#45;symbol&#45;history&#45;timeline &#45; S</text>
</g>
<!-- cool_ideas_WARP_temporal_structural_search -->
<g id="node102" class="node">
<title>cool_ideas_WARP_temporal_structural_search</title>
<path fill="#d4e8f7" stroke="black" d="M4424.68,-313.25C4424.68,-313.25 4291.32,-313.25 4291.32,-313.25 4287.12,-313.25 4282.93,-309.05 4282.93,-304.85 4282.93,-304.85 4282.93,-296.45 4282.93,-296.45 4282.93,-292.25 4287.12,-288.05 4291.32,-288.05 4291.32,-288.05 4424.68,-288.05 4424.68,-288.05 4428.88,-288.05 4433.07,-292.25 4433.07,-296.45 4433.07,-296.45 4433.07,-304.85 4433.07,-304.85 4433.07,-309.05 4428.88,-313.25 4424.68,-313.25"/>
<text xml:space="preserve" text-anchor="middle" x="4358" y="-297.55" font-family="Helvetica,sans-Serif" font-size="8.00">WARP&#45;temporal&#45;structural&#45;search &#45; M</text>
</g>
<!-- v0_8_0_WARP_symbol_history_timeline&#45;&gt;cool_ideas_WARP_temporal_structural_search -->
<g id="edge15" class="edge">
<title>v0_8_0_WARP_symbol_history_timeline&#45;&gt;cool_ideas_WARP_temporal_structural_search</title>
<path fill="none" stroke="#666666" d="M4220.09,-360.65C4249,-348.28 4293.33,-329.32 4323.88,-316.25"/>
<polygon fill="#666666" stroke="#666666" points="4324.5,-317.89 4328.41,-314.31 4323.12,-314.67 4324.5,-317.89"/>
<text xml:space="preserve" text-anchor="middle" x="4311.01" y="-334.85" font-family="Helvetica,sans-Serif" font-size="7.00">blocked_by/blocking</text>
</g>
<!-- bad_code_CLEAN_remaining_structural_warp_reads_bypass_structural_reading_port -->
<g id="node28" class="node">
<title>bad_code_CLEAN_remaining_structural_warp_reads_bypass_structural_reading_port</title>
<path fill="#f6b3b3" stroke="black" stroke-width="2" d="M14376.18,-386.7C14376.18,-386.7 14107.82,-386.7 14107.82,-386.7 14103.62,-386.7 14099.42,-382.5 14099.42,-378.3 14099.42,-378.3 14099.42,-369.9 14099.42,-369.9 14099.42,-365.7 14103.62,-361.5 14107.82,-361.5 14107.82,-361.5 14376.18,-361.5 14376.18,-361.5 14380.38,-361.5 14384.58,-365.7 14384.58,-369.9 14384.58,-369.9 14384.58,-378.3 14384.58,-378.3 14384.58,-382.5 14380.38,-386.7 14376.18,-386.7"/>
<text xml:space="preserve" text-anchor="middle" x="14242" y="-371" font-family="Helvetica,sans-Serif" font-size="8.00">CLEAN&#45;remaining&#45;structural&#45;warp&#45;reads&#45;bypass&#45;structural&#45;reading&#45;port &#45; M</text>
</g>
<!-- cool_ideas_bounded_neighborhood_for_references -->
<g id="node29" class="node">
<title>cool_ideas_bounded_neighborhood_for_references</title>
<path fill="#d4e8f7" stroke="black" d="M4440.18,-386.7C4440.18,-386.7 4291.82,-386.7 4291.82,-386.7 4287.62,-386.7 4283.43,-382.5 4283.43,-378.3 4283.43,-378.3 4283.43,-369.9 4283.43,-369.9 4283.43,-365.7 4287.62,-361.5 4291.82,-361.5 4291.82,-361.5 4440.18,-361.5 4440.18,-361.5 4444.38,-361.5 4448.57,-365.7 4448.57,-369.9 4448.57,-369.9 4448.57,-378.3 4448.57,-378.3 4448.57,-382.5 4444.38,-386.7 4440.18,-386.7"/>
<text xml:space="preserve" text-anchor="middle" x="4366" y="-371" font-family="Helvetica,sans-Serif" font-size="8.00">bounded&#45;neighborhood&#45;for&#45;references &#45; S</text>
</g>
<!-- cool_ideas_CI_001_causal_collapse_visualizer -->
<g id="node30" class="node">
<title>cool_ideas_CI_001_causal_collapse_visualizer</title>
<path fill="#d4e8f7" stroke="black" d="M10356.3,-313.25C10356.3,-313.25 10229.7,-313.25 10229.7,-313.25 10225.5,-313.25 10221.3,-309.05 10221.3,-304.85 10221.3,-304.85 10221.3,-296.45 10221.3,-296.45 10221.3,-292.25 10225.5,-288.05 10229.7,-288.05 10229.7,-288.05 10356.3,-288.05 10356.3,-288.05 10360.5,-288.05 10364.7,-292.25 10364.7,-296.45 10364.7,-296.45 10364.7,-304.85 10364.7,-304.85 10364.7,-309.05 10360.5,-313.25 10356.3,-313.25"/>
<text xml:space="preserve" text-anchor="middle" x="10293" y="-297.55" font-family="Helvetica,sans-Serif" font-size="8.00">CI&#45;001&#45;causal&#45;collapse&#45;visualizer &#45; L</text>
</g>
<!-- cool_ideas_CI_002_deterministic_scenario_replay -->
<g id="node31" class="node">
<title>cool_ideas_CI_002_deterministic_scenario_replay</title>
<path fill="#d4e8f7" stroke="black" d="M4610.68,-386.7C4610.68,-386.7 4471.32,-386.7 4471.32,-386.7 4467.12,-386.7 4462.93,-382.5 4462.93,-378.3 4462.93,-378.3 4462.93,-369.9 4462.93,-369.9 4462.93,-365.7 4467.12,-361.5 4471.32,-361.5 4471.32,-361.5 4610.68,-361.5 4610.68,-361.5 4614.88,-361.5 4619.07,-365.7 4619.07,-369.9 4619.07,-369.9 4619.07,-378.3 4619.07,-378.3 4619.07,-382.5 4614.88,-386.7 4610.68,-386.7"/>
<text xml:space="preserve" text-anchor="middle" x="4541" y="-371" font-family="Helvetica,sans-Serif" font-size="8.00">CI&#45;002&#45;deterministic&#45;scenario&#45;replay &#45; L</text>
</g>
<!-- cool_ideas_CI_003_mcp_native_diff_protocol -->
<g id="node32" class="node">
<title>cool_ideas_CI_003_mcp_native_diff_protocol</title>
<path fill="#d4e8f7" stroke="black" d="M4764.8,-386.7C4764.8,-386.7 4641.2,-386.7 4641.2,-386.7 4637,-386.7 4632.8,-382.5 4632.8,-378.3 4632.8,-378.3 4632.8,-369.9 4632.8,-369.9 4632.8,-365.7 4637,-361.5 4641.2,-361.5 4641.2,-361.5 4764.8,-361.5 4764.8,-361.5 4769,-361.5 4773.2,-365.7 4773.2,-369.9 4773.2,-369.9 4773.2,-378.3 4773.2,-378.3 4773.2,-382.5 4769,-386.7 4764.8,-386.7"/>
<text xml:space="preserve" text-anchor="middle" x="4703" y="-371" font-family="Helvetica,sans-Serif" font-size="8.00">CI&#45;003&#45;mcp&#45;native&#45;diff&#45;protocol &#45; M</text>
</g>
<!-- cool_ideas_CLEAN_CODE_parallel_agent_merge_shared_file_loss -->
<g id="node33" class="node">
<title>cool_ideas_CLEAN_CODE_parallel_agent_merge_shared_file_loss</title>
<path fill="#d4e8f7" stroke="black" d="M4996.05,-386.7C4996.05,-386.7 4795.95,-386.7 4795.95,-386.7 4791.75,-386.7 4787.55,-382.5 4787.55,-378.3 4787.55,-378.3 4787.55,-369.9 4787.55,-369.9 4787.55,-365.7 4791.75,-361.5 4795.95,-361.5 4795.95,-361.5 4996.05,-361.5 4996.05,-361.5 5000.25,-361.5 5004.45,-365.7 5004.45,-369.9 5004.45,-369.9 5004.45,-378.3 5004.45,-378.3 5004.45,-382.5 5000.25,-386.7 4996.05,-386.7"/>
<text xml:space="preserve" text-anchor="middle" x="4896" y="-371" font-family="Helvetica,sans-Serif" font-size="8.00">CLEAN&#45;CODE&#45;parallel&#45;agent&#45;merge&#45;shared&#45;file&#45;loss &#45; M</text>
</g>
<!-- cool_ideas_CORE_agent_handoff_protocol -->
<g id="node34" class="node">
<title>cool_ideas_CORE_agent_handoff_protocol</title>
<path fill="#d4e8f7" stroke="black" d="M5146.93,-386.7C5146.93,-386.7 5027.07,-386.7 5027.07,-386.7 5022.88,-386.7 5018.68,-382.5 5018.68,-378.3 5018.68,-378.3 5018.68,-369.9 5018.68,-369.9 5018.68,-365.7 5022.88,-361.5 5027.07,-361.5 5027.07,-361.5 5146.93,-361.5 5146.93,-361.5 5151.12,-361.5 5155.32,-365.7 5155.32,-369.9 5155.32,-369.9 5155.32,-378.3 5155.32,-378.3 5155.32,-382.5 5151.12,-386.7 5146.93,-386.7"/>
<text xml:space="preserve" text-anchor="middle" x="5087" y="-371" font-family="Helvetica,sans-Serif" font-size="8.00">CORE&#45;agent&#45;handoff&#45;protocol &#45; M</text>
</g>
<!-- cool_ideas_CORE_auto_focus -->
<g id="node35" class="node">
<title>cool_ideas_CORE_auto_focus</title>
<path fill="#d4e8f7" stroke="black" d="M5250.68,-386.7C5250.68,-386.7 5177.32,-386.7 5177.32,-386.7 5173.12,-386.7 5168.93,-382.5 5168.93,-378.3 5168.93,-378.3 5168.93,-369.9 5168.93,-369.9 5168.93,-365.7 5173.12,-361.5 5177.32,-361.5 5177.32,-361.5 5250.68,-361.5 5250.68,-361.5 5254.88,-361.5 5259.07,-365.7 5259.07,-369.9 5259.07,-369.9 5259.07,-378.3 5259.07,-378.3 5259.07,-382.5 5254.88,-386.7 5250.68,-386.7"/>
<text xml:space="preserve" text-anchor="middle" x="5214" y="-371" font-family="Helvetica,sans-Serif" font-size="8.00">CORE&#45;auto&#45;focus &#45; L</text>
</g>
<!-- cool_ideas_CORE_capture_range -->
<g id="node36" class="node">
<title>cool_ideas_CORE_capture_range</title>
<path fill="#d4e8f7" stroke="black" d="M5368.8,-386.7C5368.8,-386.7 5281.2,-386.7 5281.2,-386.7 5277,-386.7 5272.8,-382.5 5272.8,-378.3 5272.8,-378.3 5272.8,-369.9 5272.8,-369.9 5272.8,-365.7 5277,-361.5 5281.2,-361.5 5281.2,-361.5 5368.8,-361.5 5368.8,-361.5 5373,-361.5 5377.2,-365.7 5377.2,-369.9 5377.2,-369.9 5377.2,-378.3 5377.2,-378.3 5377.2,-382.5 5373,-386.7 5368.8,-386.7"/>
<text xml:space="preserve" text-anchor="middle" x="5325" y="-371" font-family="Helvetica,sans-Serif" font-size="8.00">CORE&#45;capture&#45;range &#45; S</text>
</g>
<!-- cool_ideas_CORE_constructor_in_disguise_lint -->
<g id="node37" class="node">
<title>cool_ideas_CORE_constructor_in_disguise_lint</title>
<path fill="#d4e8f7" stroke="black" d="M5530.55,-386.7C5530.55,-386.7 5399.45,-386.7 5399.45,-386.7 5395.25,-386.7 5391.05,-382.5 5391.05,-378.3 5391.05,-378.3 5391.05,-369.9 5391.05,-369.9 5391.05,-365.7 5395.25,-361.5 5399.45,-361.5 5399.45,-361.5 5530.55,-361.5 5530.55,-361.5 5534.75,-361.5 5538.95,-365.7 5538.95,-369.9 5538.95,-369.9 5538.95,-378.3 5538.95,-378.3 5538.95,-382.5 5534.75,-386.7 5530.55,-386.7"/>
<text xml:space="preserve" text-anchor="middle" x="5465" y="-371" font-family="Helvetica,sans-Serif" font-size="8.00">CORE&#45;constructor&#45;in&#45;disguise&#45;lint &#45; M</text>
</g>
<!-- cool_ideas_CORE_context_budget_forecasting -->
<g id="node38" class="node">
<title>cool_ideas_CORE_context_budget_forecasting</title>
<path fill="#d4e8f7" stroke="black" d="M5694.68,-386.7C5694.68,-386.7 5561.32,-386.7 5561.32,-386.7 5557.12,-386.7 5552.93,-382.5 5552.93,-378.3 5552.93,-378.3 5552.93,-369.9 5552.93,-369.9 5552.93,-365.7 5557.12,-361.5 5561.32,-361.5 5561.32,-361.5 5694.68,-361.5 5694.68,-361.5 5698.88,-361.5 5703.07,-365.7 5703.07,-369.9 5703.07,-369.9 5703.07,-378.3 5703.07,-378.3 5703.07,-382.5 5698.88,-386.7 5694.68,-386.7"/>
<text xml:space="preserve" text-anchor="middle" x="5628" y="-371" font-family="Helvetica,sans-Serif" font-size="8.00">CORE&#45;context&#45;budget&#45;forecasting &#45; M</text>
</g>
<!-- cool_ideas_CORE_conversation_primer -->
<g id="node39" class="node">
<title>cool_ideas_CORE_conversation_primer</title>
<path fill="#d4e8f7" stroke="black" d="M5834.68,-386.7C5834.68,-386.7 5725.32,-386.7 5725.32,-386.7 5721.12,-386.7 5716.93,-382.5 5716.93,-378.3 5716.93,-378.3 5716.93,-369.9 5716.93,-369.9 5716.93,-365.7 5721.12,-361.5 5725.32,-361.5 5725.32,-361.5 5834.68,-361.5 5834.68,-361.5 5838.88,-361.5 5843.07,-365.7 5843.07,-369.9 5843.07,-369.9 5843.07,-378.3 5843.07,-378.3 5843.07,-382.5 5838.88,-386.7 5834.68,-386.7"/>
<text xml:space="preserve" text-anchor="middle" x="5780" y="-371" font-family="Helvetica,sans-Serif" font-size="8.00">CORE&#45;conversation&#45;primer &#45; M</text>
</g>
<!-- cool_ideas_CORE_cross_session_resume -->
<g id="node40" class="node">
<title>cool_ideas_CORE_cross_session_resume</title>
<path fill="#d4e8f7" stroke="black" d="M5980.3,-386.7C5980.3,-386.7 5865.7,-386.7 5865.7,-386.7 5861.5,-386.7 5857.3,-382.5 5857.3,-378.3 5857.3,-378.3 5857.3,-369.9 5857.3,-369.9 5857.3,-365.7 5861.5,-361.5 5865.7,-361.5 5865.7,-361.5 5980.3,-361.5 5980.3,-361.5 5984.5,-361.5 5988.7,-365.7 5988.7,-369.9 5988.7,-369.9 5988.7,-378.3 5988.7,-378.3 5988.7,-382.5 5984.5,-386.7 5980.3,-386.7"/>
<text xml:space="preserve" text-anchor="middle" x="5923" y="-371" font-family="Helvetica,sans-Serif" font-size="8.00">CORE&#45;cross&#45;session&#45;resume &#45; S</text>
</g>
<!-- cool_ideas_CORE_graft_as_teacher -->
<g id="node41" class="node">
<title>cool_ideas_CORE_graft_as_teacher</title>
<path fill="#d4e8f7" stroke="black" d="M6105.18,-386.7C6105.18,-386.7 6010.82,-386.7 6010.82,-386.7 6006.62,-386.7 6002.43,-382.5 6002.43,-378.3 6002.43,-378.3 6002.43,-369.9 6002.43,-369.9 6002.43,-365.7 6006.62,-361.5 6010.82,-361.5 6010.82,-361.5 6105.18,-361.5 6105.18,-361.5 6109.38,-361.5 6113.57,-365.7 6113.57,-369.9 6113.57,-369.9 6113.57,-378.3 6113.57,-378.3 6113.57,-382.5 6109.38,-386.7 6105.18,-386.7"/>
<text xml:space="preserve" text-anchor="middle" x="6058" y="-371" font-family="Helvetica,sans-Serif" font-size="8.00">CORE&#45;graft&#45;as&#45;teacher &#45; S</text>
</g>
<!-- cool_ideas_CORE_graft_teach_learning_receipts -->
<g id="node42" class="node">
<title>cool_ideas_CORE_graft_teach_learning_receipts</title>
<path fill="#d4e8f7" stroke="black" d="M6273.93,-386.7C6273.93,-386.7 6136.07,-386.7 6136.07,-386.7 6131.88,-386.7 6127.68,-382.5 6127.68,-378.3 6127.68,-378.3 6127.68,-369.9 6127.68,-369.9 6127.68,-365.7 6131.88,-361.5 6136.07,-361.5 6136.07,-361.5 6273.93,-361.5 6273.93,-361.5 6278.12,-361.5 6282.32,-365.7 6282.32,-369.9 6282.32,-369.9 6282.32,-378.3 6282.32,-378.3 6282.32,-382.5 6278.12,-386.7 6273.93,-386.7"/>
<text xml:space="preserve" text-anchor="middle" x="6205" y="-371" font-family="Helvetica,sans-Serif" font-size="8.00">CORE&#45;graft&#45;teach&#45;learning&#45;receipts &#45; S</text>
</g>
<!-- cool_ideas_CORE_graft_tool_client -->
<g id="node43" class="node">
<title>cool_ideas_CORE_graft_tool_client</title>
<path fill="#d4e8f7" stroke="black" d="M6395.68,-386.7C6395.68,-386.7 6304.32,-386.7 6304.32,-386.7 6300.12,-386.7 6295.93,-382.5 6295.93,-378.3 6295.93,-378.3 6295.93,-369.9 6295.93,-369.9 6295.93,-365.7 6300.12,-361.5 6304.32,-361.5 6304.32,-361.5 6395.68,-361.5 6395.68,-361.5 6399.88,-361.5 6404.07,-365.7 6404.07,-369.9 6404.07,-369.9 6404.07,-378.3 6404.07,-378.3 6404.07,-382.5 6399.88,-386.7 6395.68,-386.7"/>
<text xml:space="preserve" text-anchor="middle" x="6350" y="-371" font-family="Helvetica,sans-Serif" font-size="8.00">CORE&#45;graft&#45;tool&#45;client &#45; M</text>
</g>
<!-- cool_ideas_CORE_horizon_of_readability -->
<g id="node44" class="node">
<title>cool_ideas_CORE_horizon_of_readability</title>
<path fill="#d4e8f7" stroke="black" d="M6539.55,-386.7C6539.55,-386.7 6426.45,-386.7 6426.45,-386.7 6422.25,-386.7 6418.05,-382.5 6418.05,-378.3 6418.05,-378.3 6418.05,-369.9 6418.05,-369.9 6418.05,-365.7 6422.25,-361.5 6426.45,-361.5 6426.45,-361.5 6539.55,-361.5 6539.55,-361.5 6543.75,-361.5 6547.95,-365.7 6547.95,-369.9 6547.95,-369.9 6547.95,-378.3 6547.95,-378.3 6547.95,-382.5 6543.75,-386.7 6539.55,-386.7"/>
<text xml:space="preserve" text-anchor="middle" x="6483" y="-371" font-family="Helvetica,sans-Serif" font-size="8.00">CORE&#45;horizon&#45;of&#45;readability &#45; M</text>
</g>
<!-- cool_ideas_CORE_lagrangian_policy -->
<g id="node45" class="node">
<title>cool_ideas_CORE_lagrangian_policy</title>
<path fill="#d4e8f7" stroke="black" d="M6671.55,-386.7C6671.55,-386.7 6570.45,-386.7 6570.45,-386.7 6566.25,-386.7 6562.05,-382.5 6562.05,-378.3 6562.05,-378.3 6562.05,-369.9 6562.05,-369.9 6562.05,-365.7 6566.25,-361.5 6570.45,-361.5 6570.45,-361.5 6671.55,-361.5 6671.55,-361.5 6675.75,-361.5 6679.95,-365.7 6679.95,-369.9 6679.95,-369.9 6679.95,-378.3 6679.95,-378.3 6679.95,-382.5 6675.75,-386.7 6671.55,-386.7"/>
<text xml:space="preserve" text-anchor="middle" x="6621" y="-371" font-family="Helvetica,sans-Serif" font-size="8.00">CORE&#45;lagrangian&#45;policy &#45; XL</text>
</g>
<!-- cool_ideas_CORE_migrate_to_slice_first_reads -->
<g id="node46" class="node">
<title>cool_ideas_CORE_migrate_to_slice_first_reads</title>
<path fill="#d4e8f7" stroke="black" d="M13226.8,-313.25C13226.8,-313.25 13109.2,-313.25 13109.2,-313.25 13105,-313.25 13100.8,-309.05 13100.8,-304.85 13100.8,-304.85 13100.8,-296.45 13100.8,-296.45 13100.8,-292.25 13105,-288.05 13109.2,-288.05 13109.2,-288.05 13226.8,-288.05 13226.8,-288.05 13231,-288.05 13235.2,-292.25 13235.2,-296.45 13235.2,-296.45 13235.2,-304.85 13235.2,-304.85 13235.2,-309.05 13231,-313.25 13226.8,-313.25"/>
<text xml:space="preserve" text-anchor="middle" x="13168" y="-297.55" font-family="Helvetica,sans-Serif" font-size="8.00">CORE&#45;migrate&#45;to&#45;slice&#45;first&#45;reads</text>
</g>
<!-- cool_ideas_CORE_multi_agent_conflict_detection -->
<g id="node47" class="node">
<title>cool_ideas_CORE_multi_agent_conflict_detection</title>
<path fill="#d4e8f7" stroke="black" d="M6839.93,-386.7C6839.93,-386.7 6702.07,-386.7 6702.07,-386.7 6697.88,-386.7 6693.68,-382.5 6693.68,-378.3 6693.68,-378.3 6693.68,-369.9 6693.68,-369.9 6693.68,-365.7 6697.88,-361.5 6702.07,-361.5 6702.07,-361.5 6839.93,-361.5 6839.93,-361.5 6844.12,-361.5 6848.32,-365.7 6848.32,-369.9 6848.32,-369.9 6848.32,-378.3 6848.32,-378.3 6848.32,-382.5 6844.12,-386.7 6839.93,-386.7"/>
<text xml:space="preserve" text-anchor="middle" x="6771" y="-371" font-family="Helvetica,sans-Serif" font-size="8.00">CORE&#45;multi&#45;agent&#45;conflict&#45;detection &#45; L</text>
</g>
<!-- cool_ideas_CORE_policy_playground -->
<g id="node48" class="node">
<title>cool_ideas_CORE_policy_playground</title>
<path fill="#d4e8f7" stroke="black" d="M6969.43,-386.7C6969.43,-386.7 6870.57,-386.7 6870.57,-386.7 6866.38,-386.7 6862.18,-382.5 6862.18,-378.3 6862.18,-378.3 6862.18,-369.9 6862.18,-369.9 6862.18,-365.7 6866.38,-361.5 6870.57,-361.5 6870.57,-361.5 6969.43,-361.5 6969.43,-361.5 6973.62,-361.5 6977.82,-365.7 6977.82,-369.9 6977.82,-369.9 6977.82,-378.3 6977.82,-378.3 6977.82,-382.5 6973.62,-386.7 6969.43,-386.7"/>
<text xml:space="preserve" text-anchor="middle" x="6920" y="-371" font-family="Helvetica,sans-Serif" font-size="8.00">CORE&#45;policy&#45;playground &#45; S</text>
</g>
<!-- cool_ideas_CORE_policy_profiles -->
<g id="node49" class="node">
<title>cool_ideas_CORE_policy_profiles</title>
<path fill="#d4e8f7" stroke="black" d="M7086.05,-386.7C7086.05,-386.7 6999.95,-386.7 6999.95,-386.7 6995.75,-386.7 6991.55,-382.5 6991.55,-378.3 6991.55,-378.3 6991.55,-369.9 6991.55,-369.9 6991.55,-365.7 6995.75,-361.5 6999.95,-361.5 6999.95,-361.5 7086.05,-361.5 7086.05,-361.5 7090.25,-361.5 7094.45,-365.7 7094.45,-369.9 7094.45,-369.9 7094.45,-378.3 7094.45,-378.3 7094.45,-382.5 7090.25,-386.7 7086.05,-386.7"/>
<text xml:space="preserve" text-anchor="middle" x="7043" y="-371" font-family="Helvetica,sans-Serif" font-size="8.00">CORE&#45;policy&#45;profiles &#45; M</text>
</g>
<!-- cool_ideas_CORE_self_tuning_governor -->
<g id="node50" class="node">
<title>cool_ideas_CORE_self_tuning_governor</title>
<path fill="#d4e8f7" stroke="black" d="M7227.05,-386.7C7227.05,-386.7 7116.95,-386.7 7116.95,-386.7 7112.75,-386.7 7108.55,-382.5 7108.55,-378.3 7108.55,-378.3 7108.55,-369.9 7108.55,-369.9 7108.55,-365.7 7112.75,-361.5 7116.95,-361.5 7116.95,-361.5 7227.05,-361.5 7227.05,-361.5 7231.25,-361.5 7235.45,-365.7 7235.45,-369.9 7235.45,-369.9 7235.45,-378.3 7235.45,-378.3 7235.45,-382.5 7231.25,-386.7 7227.05,-386.7"/>
<text xml:space="preserve" text-anchor="middle" x="7172" y="-371" font-family="Helvetica,sans-Serif" font-size="8.00">CORE&#45;self&#45;tuning&#45;governor &#45; M</text>
</g>
<!-- cool_ideas_CORE_session_knowledge_map -->
<g id="node51" class="node">
<title>cool_ideas_CORE_session_knowledge_map</title>
<path fill="#d4e8f7" stroke="black" d="M7380.43,-386.7C7380.43,-386.7 7257.57,-386.7 7257.57,-386.7 7253.38,-386.7 7249.18,-382.5 7249.18,-378.3 7249.18,-378.3 7249.18,-369.9 7249.18,-369.9 7249.18,-365.7 7253.38,-361.5 7257.57,-361.5 7257.57,-361.5 7380.43,-361.5 7380.43,-361.5 7384.62,-361.5 7388.82,-365.7 7388.82,-369.9 7388.82,-369.9 7388.82,-378.3 7388.82,-378.3 7388.82,-382.5 7384.62,-386.7 7380.43,-386.7"/>
<text xml:space="preserve" text-anchor="middle" x="7319" y="-371" font-family="Helvetica,sans-Serif" font-size="8.00">CORE&#45;session&#45;knowledge&#45;map &#45; S</text>
</g>
<!-- cool_ideas_CORE_speculative_read_cost -->
<g id="node52" class="node">
<title>cool_ideas_CORE_speculative_read_cost</title>
<path fill="#d4e8f7" stroke="black" d="M7523.18,-386.7C7523.18,-386.7 7410.82,-386.7 7410.82,-386.7 7406.62,-386.7 7402.43,-382.5 7402.43,-378.3 7402.43,-378.3 7402.43,-369.9 7402.43,-369.9 7402.43,-365.7 7406.62,-361.5 7410.82,-361.5 7410.82,-361.5 7523.18,-361.5 7523.18,-361.5 7527.38,-361.5 7531.57,-365.7 7531.57,-369.9 7531.57,-369.9 7531.57,-378.3 7531.57,-378.3 7531.57,-382.5 7527.38,-386.7 7523.18,-386.7"/>
<text xml:space="preserve" text-anchor="middle" x="7467" y="-371" font-family="Helvetica,sans-Serif" font-size="8.00">CORE&#45;speculative&#45;read&#45;cost &#45; S</text>
</g>
<!-- cool_ideas_CORE_structural_session_replay -->
<g id="node53" class="node">
<title>cool_ideas_CORE_structural_session_replay</title>
<path fill="#d4e8f7" stroke="black" d="M7679.55,-386.7C7679.55,-386.7 7554.45,-386.7 7554.45,-386.7 7550.25,-386.7 7546.05,-382.5 7546.05,-378.3 7546.05,-378.3 7546.05,-369.9 7546.05,-369.9 7546.05,-365.7 7550.25,-361.5 7554.45,-361.5 7554.45,-361.5 7679.55,-361.5 7679.55,-361.5 7683.75,-361.5 7687.95,-365.7 7687.95,-369.9 7687.95,-369.9 7687.95,-378.3 7687.95,-378.3 7687.95,-382.5 7683.75,-386.7 7679.55,-386.7"/>
<text xml:space="preserve" text-anchor="middle" x="7617" y="-371" font-family="Helvetica,sans-Serif" font-size="8.00">CORE&#45;structural&#45;session&#45;replay &#45; M</text>
</g>
<!-- cool_ideas_CORE_wire_primitives_into_runtime -->
<g id="node54" class="node">
<title>cool_ideas_CORE_wire_primitives_into_runtime</title>
<path fill="#d4e8f7" stroke="black" d="M7845.43,-386.7C7845.43,-386.7 7710.57,-386.7 7710.57,-386.7 7706.38,-386.7 7702.18,-382.5 7702.18,-378.3 7702.18,-378.3 7702.18,-369.9 7702.18,-369.9 7702.18,-365.7 7706.38,-361.5 7710.57,-361.5 7710.57,-361.5 7845.43,-361.5 7845.43,-361.5 7849.62,-361.5 7853.82,-365.7 7853.82,-369.9 7853.82,-369.9 7853.82,-378.3 7853.82,-378.3 7853.82,-382.5 7849.62,-386.7 7845.43,-386.7"/>
<text xml:space="preserve" text-anchor="middle" x="7778" y="-371" font-family="Helvetica,sans-Serif" font-size="8.00">CORE&#45;wire&#45;primitives&#45;into&#45;runtime &#45; M</text>
</g>
<!-- cool_ideas_monitor_tick_ceiling_tracking -->
<g id="node55" class="node">
<title>cool_ideas_monitor_tick_ceiling_tracking</title>
<path fill="#d4e8f7" stroke="black" d="M7983.55,-386.7C7983.55,-386.7 7876.45,-386.7 7876.45,-386.7 7872.25,-386.7 7868.05,-382.5 7868.05,-378.3 7868.05,-378.3 7868.05,-369.9 7868.05,-369.9 7868.05,-365.7 7872.25,-361.5 7876.45,-361.5 7876.45,-361.5 7983.55,-361.5 7983.55,-361.5 7987.75,-361.5 7991.95,-365.7 7991.95,-369.9 7991.95,-369.9 7991.95,-378.3 7991.95,-378.3 7991.95,-382.5 7987.75,-386.7 7983.55,-386.7"/>
<text xml:space="preserve" text-anchor="middle" x="7930" y="-371" font-family="Helvetica,sans-Serif" font-size="8.00">monitor&#45;tick&#45;ceiling&#45;tracking &#45; S</text>
</g>
<!-- cool_ideas_WARP_background_indexing -->
<g id="node72" class="node">
<title>cool_ideas_WARP_background_indexing</title>
<path fill="#d4e8f7" stroke="black" d="M7986.55,-313.25C7986.55,-313.25 7873.45,-313.25 7873.45,-313.25 7869.25,-313.25 7865.05,-309.05 7865.05,-304.85 7865.05,-304.85 7865.05,-296.45 7865.05,-296.45 7865.05,-292.25 7869.25,-288.05 7873.45,-288.05 7873.45,-288.05 7986.55,-288.05 7986.55,-288.05 7990.75,-288.05 7994.95,-292.25 7994.95,-296.45 7994.95,-296.45 7994.95,-304.85 7994.95,-304.85 7994.95,-309.05 7990.75,-313.25 7986.55,-313.25"/>
<text xml:space="preserve" text-anchor="middle" x="7930" y="-297.55" font-family="Helvetica,sans-Serif" font-size="8.00">WARP&#45;background&#45;indexing &#45; M</text>
</g>
<!-- cool_ideas_monitor_tick_ceiling_tracking&#45;&gt;cool_ideas_WARP_background_indexing -->
<g id="edge1" class="edge">
<title>cool_ideas_monitor_tick_ceiling_tracking&#45;&gt;cool_ideas_WARP_background_indexing</title>
<path fill="none" stroke="#666666" d="M7930,-361.3C7930,-350.1 7930,-333.08 7930,-320.08"/>
<polygon fill="#666666" stroke="#666666" points="7931.75,-320.22 7930,-315.22 7928.25,-320.22 7931.75,-320.22"/>
<text xml:space="preserve" text-anchor="middle" x="7961.5" y="-334.85" font-family="Helvetica,sans-Serif" font-size="7.00">blocked_by/blocking</text>
</g>
<!-- cool_ideas_SURFACE_active_causal_workspace_status -->
<g id="node56" class="node">
<title>cool_ideas_SURFACE_active_causal_workspace_status</title>
<path fill="#d4e8f7" stroke="black" d="M8178.05,-386.7C8178.05,-386.7 8013.95,-386.7 8013.95,-386.7 8009.75,-386.7 8005.55,-382.5 8005.55,-378.3 8005.55,-378.3 8005.55,-369.9 8005.55,-369.9 8005.55,-365.7 8009.75,-361.5 8013.95,-361.5 8013.95,-361.5 8178.05,-361.5 8178.05,-361.5 8182.25,-361.5 8186.45,-365.7 8186.45,-369.9 8186.45,-369.9 8186.45,-378.3 8186.45,-378.3 8186.45,-382.5 8182.25,-386.7 8178.05,-386.7"/>
<text xml:space="preserve" text-anchor="middle" x="8096" y="-371" font-family="Helvetica,sans-Serif" font-size="8.00">SURFACE&#45;active&#45;causal&#45;workspace&#45;status &#45; M</text>
</g>
<!-- cool_ideas_SURFACE_ide_native_graft_integration -->
<g id="node62" class="node">
<title>cool_ideas_SURFACE_ide_native_graft_integration</title>
<path fill="#d4e8f7" stroke="black" d="M8171.3,-313.25C8171.3,-313.25 8020.7,-313.25 8020.7,-313.25 8016.5,-313.25 8012.3,-309.05 8012.3,-304.85 8012.3,-304.85 8012.3,-296.45 8012.3,-296.45 8012.3,-292.25 8016.5,-288.05 8020.7,-288.05 8020.7,-288.05 8171.3,-288.05 8171.3,-288.05 8175.5,-288.05 8179.7,-292.25 8179.7,-296.45 8179.7,-296.45 8179.7,-304.85 8179.7,-304.85 8179.7,-309.05 8175.5,-313.25 8171.3,-313.25"/>
<text xml:space="preserve" text-anchor="middle" x="8096" y="-297.55" font-family="Helvetica,sans-Serif" font-size="8.00">SURFACE&#45;ide&#45;native&#45;graft&#45;integration &#45; XL</text>
</g>
<!-- cool_ideas_SURFACE_active_causal_workspace_status&#45;&gt;cool_ideas_SURFACE_ide_native_graft_integration -->
<g id="edge2" class="edge">
<title>cool_ideas_SURFACE_active_causal_workspace_status&#45;&gt;cool_ideas_SURFACE_ide_native_graft_integration</title>
<path fill="none" stroke="#666666" d="M8096,-361.3C8096,-350.1 8096,-333.08 8096,-320.08"/>
<polygon fill="#666666" stroke="#666666" points="8097.75,-320.22 8096,-315.22 8094.25,-320.22 8097.75,-320.22"/>
<text xml:space="preserve" text-anchor="middle" x="8127.5" y="-334.85" font-family="Helvetica,sans-Serif" font-size="7.00">blocked_by/blocking</text>
</g>
<!-- cool_ideas_SURFACE_attach_to_existing_causal_session -->
<g id="node57" class="node">
<title>cool_ideas_SURFACE_attach_to_existing_causal_session</title>
<path fill="#d4e8f7" stroke="black" d="M8377.3,-386.7C8377.3,-386.7 8208.7,-386.7 8208.7,-386.7 8204.5,-386.7 8200.3,-382.5 8200.3,-378.3 8200.3,-378.3 8200.3,-369.9 8200.3,-369.9 8200.3,-365.7 8204.5,-361.5 8208.7,-361.5 8208.7,-361.5 8377.3,-361.5 8377.3,-361.5 8381.5,-361.5 8385.7,-365.7 8385.7,-369.9 8385.7,-369.9 8385.7,-378.3 8385.7,-378.3 8385.7,-382.5 8381.5,-386.7 8377.3,-386.7"/>
<text xml:space="preserve" text-anchor="middle" x="8293" y="-371" font-family="Helvetica,sans-Serif" font-size="8.00">SURFACE&#45;attach&#45;to&#45;existing&#45;causal&#45;session &#45; M</text>
</g>
<!-- cool_ideas_SURFACE_bijou_daemon_control_plane_actions -->
<g id="node58" class="node">
<title>cool_ideas_SURFACE_bijou_daemon_control_plane_actions</title>
<path fill="#d4e8f7" stroke="black" d="M8585.43,-386.7C8585.43,-386.7 8408.57,-386.7 8408.57,-386.7 8404.38,-386.7 8400.17,-382.5 8400.17,-378.3 8400.17,-378.3 8400.17,-369.9 8400.17,-369.9 8400.17,-365.7 8404.38,-361.5 8408.57,-361.5 8408.57,-361.5 8585.43,-361.5 8585.43,-361.5 8589.62,-361.5 8593.83,-365.7 8593.83,-369.9 8593.83,-369.9 8593.83,-378.3 8593.83,-378.3 8593.83,-382.5 8589.62,-386.7 8585.43,-386.7"/>
<text xml:space="preserve" text-anchor="middle" x="8497" y="-371" font-family="Helvetica,sans-Serif" font-size="8.00">SURFACE&#45;bijou&#45;daemon&#45;control&#45;plane&#45;actions &#45; L</text>
</g>
<!-- cool_ideas_SURFACE_bijou_daemon_status_live_refresh -->
<g id="node59" class="node">
<title>cool_ideas_SURFACE_bijou_daemon_status_live_refresh</title>
<path fill="#d4e8f7" stroke="black" d="M8785.3,-386.7C8785.3,-386.7 8616.7,-386.7 8616.7,-386.7 8612.5,-386.7 8608.3,-382.5 8608.3,-378.3 8608.3,-378.3 8608.3,-369.9 8608.3,-369.9 8608.3,-365.7 8612.5,-361.5 8616.7,-361.5 8616.7,-361.5 8785.3,-361.5 8785.3,-361.5 8789.5,-361.5 8793.7,-365.7 8793.7,-369.9 8793.7,-369.9 8793.7,-378.3 8793.7,-378.3 8793.7,-382.5 8789.5,-386.7 8785.3,-386.7"/>
<text xml:space="preserve" text-anchor="middle" x="8701" y="-371" font-family="Helvetica,sans-Serif" font-size="8.00">SURFACE&#45;bijou&#45;daemon&#45;status&#45;live&#45;refresh &#45; M</text>
</g>
<!-- cool_ideas_SURFACE_git_graft_enhance_expanded_git_subcommands -->
<g id="node60" class="node">
<title>cool_ideas_SURFACE_git_graft_enhance_expanded_git_subcommands</title>
<path fill="#d4e8f7" stroke="black" d="M9020.3,-386.7C9020.3,-386.7 8815.7,-386.7 8815.7,-386.7 8811.5,-386.7 8807.3,-382.5 8807.3,-378.3 8807.3,-378.3 8807.3,-369.9 8807.3,-369.9 8807.3,-365.7 8811.5,-361.5 8815.7,-361.5 8815.7,-361.5 9020.3,-361.5 9020.3,-361.5 9024.5,-361.5 9028.7,-365.7 9028.7,-369.9 9028.7,-369.9 9028.7,-378.3 9028.7,-378.3 9028.7,-382.5 9024.5,-386.7 9020.3,-386.7"/>
<text xml:space="preserve" text-anchor="middle" x="8918" y="-371" font-family="Helvetica,sans-Serif" font-size="8.00">SURFACE&#45;git&#45;graft&#45;enhance&#45;expanded&#45;git&#45;subcommands</text>
</g>
<!-- cool_ideas_SURFACE_graft_review_pr_number_adapter -->
<g id="node61" class="node">
<title>cool_ideas_SURFACE_graft_review_pr_number_adapter</title>
<path fill="#d4e8f7" stroke="black" d="M9218.93,-386.7C9218.93,-386.7 9051.07,-386.7 9051.07,-386.7 9046.88,-386.7 9042.67,-382.5 9042.67,-378.3 9042.67,-378.3 9042.67,-369.9 9042.67,-369.9 9042.67,-365.7 9046.88,-361.5 9051.07,-361.5 9051.07,-361.5 9218.93,-361.5 9218.93,-361.5 9223.12,-361.5 9227.33,-365.7 9227.33,-369.9 9227.33,-369.9 9227.33,-378.3 9227.33,-378.3 9227.33,-382.5 9223.12,-386.7 9218.93,-386.7"/>
<text xml:space="preserve" text-anchor="middle" x="9135" y="-371" font-family="Helvetica,sans-Serif" font-size="8.00">SURFACE&#45;graft&#45;review&#45;pr&#45;number&#45;adapter &#45; M</text>
</g>
<!-- cool_ideas_SURFACE_init_dry_run -->
<g id="node63" class="node">
<title>cool_ideas_SURFACE_init_dry_run</title>
<path fill="#d4e8f7" stroke="black" d="M9340.3,-386.7C9340.3,-386.7 9249.7,-386.7 9249.7,-386.7 9245.5,-386.7 9241.3,-382.5 9241.3,-378.3 9241.3,-378.3 9241.3,-369.9 9241.3,-369.9 9241.3,-365.7 9245.5,-361.5 9249.7,-361.5 9249.7,-361.5 9340.3,-361.5 9340.3,-361.5 9344.5,-361.5 9348.7,-365.7 9348.7,-369.9 9348.7,-369.9 9348.7,-378.3 9348.7,-378.3 9348.7,-382.5 9344.5,-386.7 9340.3,-386.7"/>
<text xml:space="preserve" text-anchor="middle" x="9295" y="-371" font-family="Helvetica,sans-Serif" font-size="8.00">SURFACE&#45;init&#45;dry&#45;run &#45; S</text>
</g>
<!-- cool_ideas_SURFACE_local_history_dag_render_mode_and_count_legend -->
<g id="node64" class="node">
<title>cool_ideas_SURFACE_local_history_dag_render_mode_and_count_legend</title>
<path fill="#d4e8f7" stroke="black" d="M9597.18,-386.7C9597.18,-386.7 9370.82,-386.7 9370.82,-386.7 9366.62,-386.7 9362.42,-382.5 9362.42,-378.3 9362.42,-378.3 9362.42,-369.9 9362.42,-369.9 9362.42,-365.7 9366.62,-361.5 9370.82,-361.5 9370.82,-361.5 9597.18,-361.5 9597.18,-361.5 9601.38,-361.5 9605.58,-365.7 9605.58,-369.9 9605.58,-369.9 9605.58,-378.3 9605.58,-378.3 9605.58,-382.5 9601.38,-386.7 9597.18,-386.7"/>
<text xml:space="preserve" text-anchor="middle" x="9484" y="-371" font-family="Helvetica,sans-Serif" font-size="8.00">SURFACE&#45;local&#45;history&#45;dag&#45;render&#45;mode&#45;and&#45;count&#45;legend &#45; S</text>
</g>
<!-- cool_ideas_SURFACE_non_codex_instruction_bootstrap_parity -->
<g id="node65" class="node">
<title>cool_ideas_SURFACE_non_codex_instruction_bootstrap_parity</title>
<path fill="#d4e8f7" stroke="black" d="M9816.43,-386.7C9816.43,-386.7 9627.57,-386.7 9627.57,-386.7 9623.38,-386.7 9619.17,-382.5 9619.17,-378.3 9619.17,-378.3 9619.17,-369.9 9619.17,-369.9 9619.17,-365.7 9623.38,-361.5 9627.57,-361.5 9627.57,-361.5 9816.43,-361.5 9816.43,-361.5 9820.62,-361.5 9824.83,-365.7 9824.83,-369.9 9824.83,-369.9 9824.83,-378.3 9824.83,-378.3 9824.83,-382.5 9820.62,-386.7 9816.43,-386.7"/>
<text xml:space="preserve" text-anchor="middle" x="9722" y="-371" font-family="Helvetica,sans-Serif" font-size="8.00">SURFACE&#45;non&#45;codex&#45;instruction&#45;bootstrap&#45;parity &#45; M</text>
</g>
<!-- cool_ideas_SURFACE_offer_rename_refactor -->
<g id="node66" class="node">
<title>cool_ideas_SURFACE_offer_rename_refactor</title>
<path fill="#d4e8f7" stroke="black" d="M9976.43,-386.7C9976.43,-386.7 9847.57,-386.7 9847.57,-386.7 9843.38,-386.7 9839.17,-382.5 9839.17,-378.3 9839.17,-378.3 9839.17,-369.9 9839.17,-369.9 9839.17,-365.7 9843.38,-361.5 9847.57,-361.5 9847.57,-361.5 9976.43,-361.5 9976.43,-361.5 9980.62,-361.5 9984.83,-365.7 9984.83,-369.9 9984.83,-369.9 9984.83,-378.3 9984.83,-378.3 9984.83,-382.5 9980.62,-386.7 9976.43,-386.7"/>
<text xml:space="preserve" text-anchor="middle" x="9912" y="-371" font-family="Helvetica,sans-Serif" font-size="8.00">SURFACE&#45;offer&#45;rename&#45;refactor &#45; L</text>
</g>
<!-- cool_ideas_SURFACE_terminal_activity_browser_tui -->
<g id="node67" class="node">
<title>cool_ideas_SURFACE_terminal_activity_browser_tui</title>
<path fill="#d4e8f7" stroke="black" d="M10156.55,-386.7C10156.55,-386.7 10007.45,-386.7 10007.45,-386.7 10003.25,-386.7 9999.05,-382.5 9999.05,-378.3 9999.05,-378.3 9999.05,-369.9 9999.05,-369.9 9999.05,-365.7 10003.25,-361.5 10007.45,-361.5 10007.45,-361.5 10156.55,-361.5 10156.55,-361.5 10160.75,-361.5 10164.95,-365.7 10164.95,-369.9 10164.95,-369.9 10164.95,-378.3 10164.95,-378.3 10164.95,-382.5 10160.75,-386.7 10156.55,-386.7"/>
<text xml:space="preserve" text-anchor="middle" x="10082" y="-371" font-family="Helvetica,sans-Serif" font-size="8.00">SURFACE&#45;terminal&#45;activity&#45;browser&#45;tui &#45; L</text>
</g>
<!-- cool_ideas_traverse_plus_query_hydration_helper -->
<g id="node68" class="node">
<title>cool_ideas_traverse_plus_query_hydration_helper</title>
<path fill="#d4e8f7" stroke="black" d="M10328.8,-386.7C10328.8,-386.7 10187.2,-386.7 10187.2,-386.7 10183,-386.7 10178.8,-382.5 10178.8,-378.3 10178.8,-378.3 10178.8,-369.9 10178.8,-369.9 10178.8,-365.7 10183,-361.5 10187.2,-361.5 10187.2,-361.5 10328.8,-361.5 10328.8,-361.5 10333,-361.5 10337.2,-365.7 10337.2,-369.9 10337.2,-369.9 10337.2,-378.3 10337.2,-378.3 10337.2,-382.5 10333,-386.7 10328.8,-386.7"/>
<text xml:space="preserve" text-anchor="middle" x="10258" y="-371" font-family="Helvetica,sans-Serif" font-size="8.00">traverse&#45;plus&#45;query&#45;hydration&#45;helper &#45; S</text>
</g>
<!-- cool_ideas_WARP_adaptive_projection_selection -->
<g id="node69" class="node">
<title>cool_ideas_WARP_adaptive_projection_selection</title>
<path fill="#d4e8f7" stroke="black" d="M10497.93,-386.7C10497.93,-386.7 10360.07,-386.7 10360.07,-386.7 10355.88,-386.7 10351.67,-382.5 10351.67,-378.3 10351.67,-378.3 10351.67,-369.9 10351.67,-369.9 10351.67,-365.7 10355.88,-361.5 10360.07,-361.5 10360.07,-361.5 10497.93,-361.5 10497.93,-361.5 10502.12,-361.5 10506.33,-365.7 10506.33,-369.9 10506.33,-369.9 10506.33,-378.3 10506.33,-378.3 10506.33,-382.5 10502.12,-386.7 10497.93,-386.7"/>
<text xml:space="preserve" text-anchor="middle" x="10429" y="-371" font-family="Helvetica,sans-Serif" font-size="8.00">WARP&#45;adaptive&#45;projection&#45;selection &#45; L</text>
</g>
<!-- cool_ideas_WARP_agent_action_provenance -->
<g id="node70" class="node">
<title>cool_ideas_WARP_agent_action_provenance</title>
<path fill="#d4e8f7" stroke="black" d="M10659.55,-386.7C10659.55,-386.7 10528.45,-386.7 10528.45,-386.7 10524.25,-386.7 10520.05,-382.5 10520.05,-378.3 10520.05,-378.3 10520.05,-369.9 10520.05,-369.9 10520.05,-365.7 10524.25,-361.5 10528.45,-361.5 10528.45,-361.5 10659.55,-361.5 10659.55,-361.5 10663.75,-361.5 10667.95,-365.7 10667.95,-369.9 10667.95,-369.9 10667.95,-378.3 10667.95,-378.3 10667.95,-382.5 10663.75,-386.7 10659.55,-386.7"/>
<text xml:space="preserve" text-anchor="middle" x="10594" y="-371" font-family="Helvetica,sans-Serif" font-size="8.00">WARP&#45;agent&#45;action&#45;provenance &#45; XL</text>
</g>
<!-- cool_ideas_WARP_agent_action_provenance&#45;&gt;cool_ideas_CI_001_causal_collapse_visualizer -->
<g id="edge3" class="edge">
<title>cool_ideas_WARP_agent_action_provenance&#45;&gt;cool_ideas_CI_001_causal_collapse_visualizer</title>
<path fill="none" stroke="#666666" d="M10546.13,-361.03C10535.27,-358.43 10523.76,-355.78 10513,-353.5 10483.83,-347.32 10476.12,-347.91 10447,-341.5 10411.75,-333.74 10372.35,-323.52 10342.23,-315.37"/>
<polygon fill="#666666" stroke="#666666" points="10342.69,-313.68 10337.4,-314.06 10341.77,-317.06 10342.69,-313.68"/>
<text xml:space="preserve" text-anchor="middle" x="10478.5" y="-334.85" font-family="Helvetica,sans-Serif" font-size="7.00">blocked_by/blocking</text>
</g>
<!-- cool_ideas_WARP_causal_write_tracking -->
<g id="node75" class="node">
<title>cool_ideas_WARP_causal_write_tracking</title>
<path fill="#d4e8f7" stroke="black" d="M10497.05,-313.25C10497.05,-313.25 10386.95,-313.25 10386.95,-313.25 10382.75,-313.25 10378.55,-309.05 10378.55,-304.85 10378.55,-304.85 10378.55,-296.45 10378.55,-296.45 10378.55,-292.25 10382.75,-288.05 10386.95,-288.05 10386.95,-288.05 10497.05,-288.05 10497.05,-288.05 10501.25,-288.05 10505.45,-292.25 10505.45,-296.45 10505.45,-296.45 10505.45,-304.85 10505.45,-304.85 10505.45,-309.05 10501.25,-313.25 10497.05,-313.25"/>
<text xml:space="preserve" text-anchor="middle" x="10442" y="-297.55" font-family="Helvetica,sans-Serif" font-size="8.00">WARP&#45;causal&#45;write&#45;tracking &#45; L</text>
</g>
<!-- cool_ideas_WARP_agent_action_provenance&#45;&gt;cool_ideas_WARP_causal_write_tracking -->
<g id="edge4" class="edge">
<title>cool_ideas_WARP_agent_action_provenance&#45;&gt;cool_ideas_WARP_causal_write_tracking</title>
<path fill="none" stroke="#666666" d="M10568.56,-361.14C10542.36,-348.83 10501.5,-329.62 10473.33,-316.38"/>
<polygon fill="#666666" stroke="#666666" points="10474.16,-314.84 10468.89,-314.29 10472.67,-318 10474.16,-314.84"/>
<text xml:space="preserve" text-anchor="middle" x="10554.06" y="-334.85" font-family="Helvetica,sans-Serif" font-size="7.00">blocked_by/blocking</text>
</g>
<!-- cool_ideas_WARP_intent_and_decision_events -->
<g id="node84" class="node">
<title>cool_ideas_WARP_intent_and_decision_events</title>
<path fill="#d4e8f7" stroke="black" d="M10660.3,-313.25C10660.3,-313.25 10527.7,-313.25 10527.7,-313.25 10523.5,-313.25 10519.3,-309.05 10519.3,-304.85 10519.3,-304.85 10519.3,-296.45 10519.3,-296.45 10519.3,-292.25 10523.5,-288.05 10527.7,-288.05 10527.7,-288.05 10660.3,-288.05 10660.3,-288.05 10664.5,-288.05 10668.7,-292.25 10668.7,-296.45 10668.7,-296.45 10668.7,-304.85 10668.7,-304.85 10668.7,-309.05 10664.5,-313.25 10660.3,-313.25"/>
<text xml:space="preserve" text-anchor="middle" x="10594" y="-297.55" font-family="Helvetica,sans-Serif" font-size="8.00">WARP&#45;intent&#45;and&#45;decision&#45;events &#45; M</text>
</g>
<!-- cool_ideas_WARP_agent_action_provenance&#45;&gt;cool_ideas_WARP_intent_and_decision_events -->
<g id="edge5" class="edge">
<title>cool_ideas_WARP_agent_action_provenance&#45;&gt;cool_ideas_WARP_intent_and_decision_events</title>
<path fill="none" stroke="#666666" d="M10594,-361.3C10594,-350.1 10594,-333.08 10594,-320.08"/>
<polygon fill="#666666" stroke="#666666" points="10595.75,-320.22 10594,-315.22 10592.25,-320.22 10595.75,-320.22"/>
<text xml:space="preserve" text-anchor="middle" x="10625.5" y="-334.85" font-family="Helvetica,sans-Serif" font-size="7.00">blocked_by/blocking</text>
</g>
<!-- cool_ideas_WARP_provenance_dag -->
<g id="node89" class="node">
<title>cool_ideas_WARP_provenance_dag</title>
<path fill="#d4e8f7" stroke="black" d="M10786.55,-313.25C10786.55,-313.25 10691.45,-313.25 10691.45,-313.25 10687.25,-313.25 10683.05,-309.05 10683.05,-304.85 10683.05,-304.85 10683.05,-296.45 10683.05,-296.45 10683.05,-292.25 10687.25,-288.05 10691.45,-288.05 10691.45,-288.05 10786.55,-288.05 10786.55,-288.05 10790.75,-288.05 10794.95,-292.25 10794.95,-296.45 10794.95,-296.45 10794.95,-304.85 10794.95,-304.85 10794.95,-309.05 10790.75,-313.25 10786.55,-313.25"/>
<text xml:space="preserve" text-anchor="middle" x="10739" y="-297.55" font-family="Helvetica,sans-Serif" font-size="8.00">WARP&#45;provenance&#45;dag &#45; L</text>
</g>
<!-- cool_ideas_WARP_agent_action_provenance&#45;&gt;cool_ideas_WARP_provenance_dag -->
<g id="edge6" class="edge">
<title>cool_ideas_WARP_agent_action_provenance&#45;&gt;cool_ideas_WARP_provenance_dag</title>
<path fill="none" stroke="#666666" d="M10619.45,-361.07C10631.73,-355.22 10646.66,-348.06 10660,-341.5 10676.55,-333.36 10694.95,-324.09 10709.83,-316.54"/>
<polygon fill="#666666" stroke="#666666" points="10710.54,-318.15 10714.21,-314.32 10708.96,-315.03 10710.54,-318.15"/>
<text xml:space="preserve" text-anchor="middle" x="10706.67" y="-334.85" font-family="Helvetica,sans-Serif" font-size="7.00">blocked_by/blocking</text>
</g>
<!-- cool_ideas_WARP_auto_breaking_change_detection -->
<g id="node71" class="node">
<title>cool_ideas_WARP_auto_breaking_change_detection</title>
<path fill="#d4e8f7" stroke="black" d="M13408.3,-313.25C13408.3,-313.25 13257.7,-313.25 13257.7,-313.25 13253.5,-313.25 13249.3,-309.05 13249.3,-304.85 13249.3,-304.85 13249.3,-296.45 13249.3,-296.45 13249.3,-292.25 13253.5,-288.05 13257.7,-288.05 13257.7,-288.05 13408.3,-288.05 13408.3,-288.05 13412.5,-288.05 13416.7,-292.25 13416.7,-296.45 13416.7,-296.45 13416.7,-304.85 13416.7,-304.85 13416.7,-309.05 13412.5,-313.25 13408.3,-313.25"/>
<text xml:space="preserve" text-anchor="middle" x="13333" y="-297.55" font-family="Helvetica,sans-Serif" font-size="8.00">WARP&#45;auto&#45;breaking&#45;change&#45;detection &#45; L</text>
</g>
<!-- cool_ideas_WARP_budget_elasticity -->
<g id="node73" class="node">
<title>cool_ideas_WARP_budget_elasticity</title>
<path fill="#d4e8f7" stroke="black" d="M10785.93,-386.7C10785.93,-386.7 10690.07,-386.7 10690.07,-386.7 10685.88,-386.7 10681.67,-382.5 10681.67,-378.3 10681.67,-378.3 10681.67,-369.9 10681.67,-369.9 10681.67,-365.7 10685.88,-361.5 10690.07,-361.5 10690.07,-361.5 10785.93,-361.5 10785.93,-361.5 10790.12,-361.5 10794.33,-365.7 10794.33,-369.9 10794.33,-369.9 10794.33,-378.3 10794.33,-378.3 10794.33,-382.5 10790.12,-386.7 10785.93,-386.7"/>
<text xml:space="preserve" text-anchor="middle" x="10738" y="-371" font-family="Helvetica,sans-Serif" font-size="8.00">WARP&#45;budget&#45;elasticity &#45; M</text>
</g>
<!-- cool_ideas_WARP_causal_blame_for_staged_artifacts -->
<g id="node74" class="node">
<title>cool_ideas_WARP_causal_blame_for_staged_artifacts</title>
<path fill="#d4e8f7" stroke="black" d="M10816.18,-239.8C10816.18,-239.8 10661.82,-239.8 10661.82,-239.8 10657.62,-239.8 10653.42,-235.6 10653.42,-231.4 10653.42,-231.4 10653.42,-223 10653.42,-223 10653.42,-218.8 10657.62,-214.6 10661.82,-214.6 10661.82,-214.6 10816.18,-214.6 10816.18,-214.6 10820.38,-214.6 10824.58,-218.8 10824.58,-223 10824.58,-223 10824.58,-231.4 10824.58,-231.4 10824.58,-235.6 10820.38,-239.8 10816.18,-239.8"/>
<text xml:space="preserve" text-anchor="middle" x="10739" y="-224.1" font-family="Helvetica,sans-Serif" font-size="8.00">WARP&#45;causal&#45;blame&#45;for&#45;staged&#45;artifacts &#45; L</text>
</g>
<!-- cool_ideas_WARP_codebase_entropy_trajectory -->
<g id="node76" class="node">
<title>cool_ideas_WARP_codebase_entropy_trajectory</title>
<path fill="#d4e8f7" stroke="black" d="M10955.68,-386.7C10955.68,-386.7 10816.32,-386.7 10816.32,-386.7 10812.12,-386.7 10807.92,-382.5 10807.92,-378.3 10807.92,-378.3 10807.92,-369.9 10807.92,-369.9 10807.92,-365.7 10812.12,-361.5 10816.32,-361.5 10816.32,-361.5 10955.68,-361.5 10955.68,-361.5 10959.88,-361.5 10964.08,-365.7 10964.08,-369.9 10964.08,-369.9 10964.08,-378.3 10964.08,-378.3 10964.08,-382.5 10959.88,-386.7 10955.68,-386.7"/>
<text xml:space="preserve" text-anchor="middle" x="10886" y="-371" font-family="Helvetica,sans-Serif" font-size="8.00">WARP&#45;codebase&#45;entropy&#45;trajectory &#45; M</text>
</g>
<!-- cool_ideas_WARP_counterfactual_refactoring -->
<g id="node78" class="node">
<title>cool_ideas_WARP_counterfactual_refactoring</title>
<path fill="#d4e8f7" stroke="black" d="M10971.68,-313.25C10971.68,-313.25 10838.32,-313.25 10838.32,-313.25 10834.12,-313.25 10829.92,-309.05 10829.92,-304.85 10829.92,-304.85 10829.92,-296.45 10829.92,-296.45 10829.92,-292.25 10834.12,-288.05 10838.32,-288.05 10838.32,-288.05 10971.68,-288.05 10971.68,-288.05 10975.88,-288.05 10980.08,-292.25 10980.08,-296.45 10980.08,-296.45 10980.08,-304.85 10980.08,-304.85 10980.08,-309.05 10975.88,-313.25 10971.68,-313.25"/>
<text xml:space="preserve" text-anchor="middle" x="10905" y="-297.55" font-family="Helvetica,sans-Serif" font-size="8.00">WARP&#45;counterfactual&#45;refactoring &#45; XL</text>
</g>
<!-- cool_ideas_WARP_codebase_entropy_trajectory&#45;&gt;cool_ideas_WARP_counterfactual_refactoring -->
<g id="edge7" class="edge">
<title>cool_ideas_WARP_codebase_entropy_trajectory&#45;&gt;cool_ideas_WARP_counterfactual_refactoring</title>
<path fill="none" stroke="#666666" d="M10889.14,-361.3C10892.14,-349.99 10896.73,-332.76 10900.19,-319.73"/>
<polygon fill="#666666" stroke="#666666" points="10901.81,-320.45 10901.41,-315.17 10898.43,-319.55 10901.81,-320.45"/>
<text xml:space="preserve" text-anchor="middle" x="10927.57" y="-334.85" font-family="Helvetica,sans-Serif" font-size="7.00">blocked_by/blocking</text>
</g>
<!-- cool_ideas_WARP_codebase_signature -->
<g id="node77" class="node">
<title>cool_ideas_WARP_codebase_signature</title>
<path fill="#d4e8f7" stroke="black" d="M11093.55,-386.7C11093.55,-386.7 10986.45,-386.7 10986.45,-386.7 10982.25,-386.7 10978.05,-382.5 10978.05,-378.3 10978.05,-378.3 10978.05,-369.9 10978.05,-369.9 10978.05,-365.7 10982.25,-361.5 10986.45,-361.5 10986.45,-361.5 11093.55,-361.5 11093.55,-361.5 11097.75,-361.5 11101.95,-365.7 11101.95,-369.9 11101.95,-369.9 11101.95,-378.3 11101.95,-378.3 11101.95,-382.5 11097.75,-386.7 11093.55,-386.7"/>
<text xml:space="preserve" text-anchor="middle" x="11040" y="-371" font-family="Helvetica,sans-Serif" font-size="8.00">WARP&#45;codebase&#45;signature &#45; L</text>
</g>
<!-- cool_ideas_WARP_structural_impact_prediction -->
<g id="node99" class="node">
<title>cool_ideas_WARP_structural_impact_prediction</title>
<path fill="#d4e8f7" stroke="black" d="M10985.3,-239.8C10985.3,-239.8 10846.7,-239.8 10846.7,-239.8 10842.5,-239.8 10838.3,-235.6 10838.3,-231.4 10838.3,-231.4 10838.3,-223 10838.3,-223 10838.3,-218.8 10842.5,-214.6 10846.7,-214.6 10846.7,-214.6 10985.3,-214.6 10985.3,-214.6 10989.5,-214.6 10993.7,-218.8 10993.7,-223 10993.7,-223 10993.7,-231.4 10993.7,-231.4 10993.7,-235.6 10989.5,-239.8 10985.3,-239.8"/>
<text xml:space="preserve" text-anchor="middle" x="10916" y="-224.1" font-family="Helvetica,sans-Serif" font-size="8.00">WARP&#45;structural&#45;impact&#45;prediction &#45; XL</text>
</g>
<!-- cool_ideas_WARP_counterfactual_refactoring&#45;&gt;cool_ideas_WARP_structural_impact_prediction -->
<g id="edge8" class="edge">
<title>cool_ideas_WARP_counterfactual_refactoring&#45;&gt;cool_ideas_WARP_structural_impact_prediction</title>
<path fill="none" stroke="#666666" d="M10906.82,-287.85C10908.54,-276.65 10911.16,-259.63 10913.16,-246.63"/>
<polygon fill="#666666" stroke="#666666" points="10914.88,-246.96 10913.91,-241.75 10911.42,-246.43 10914.88,-246.96"/>
<text xml:space="preserve" text-anchor="middle" x="10942.33" y="-261.4" font-family="Helvetica,sans-Serif" font-size="7.00">blocked_by/blocking</text>
</g>
<!-- cool_ideas_WARP_degeneracy_warning -->
<g id="node79" class="node">
<title>cool_ideas_WARP_degeneracy_warning</title>
<path fill="#d4e8f7" stroke="black" d="M11237.18,-386.7C11237.18,-386.7 11124.82,-386.7 11124.82,-386.7 11120.62,-386.7 11116.42,-382.5 11116.42,-378.3 11116.42,-378.3 11116.42,-369.9 11116.42,-369.9 11116.42,-365.7 11120.62,-361.5 11124.82,-361.5 11124.82,-361.5 11237.18,-361.5 11237.18,-361.5 11241.38,-361.5 11245.58,-365.7 11245.58,-369.9 11245.58,-369.9 11245.58,-378.3 11245.58,-378.3 11245.58,-382.5 11241.38,-386.7 11237.18,-386.7"/>
<text xml:space="preserve" text-anchor="middle" x="11181" y="-371" font-family="Helvetica,sans-Serif" font-size="8.00">WARP&#45;degeneracy&#45;warning &#45; M</text>
</g>
<!-- cool_ideas_WARP_drift_sentinel -->
<g id="node80" class="node">
<title>cool_ideas_WARP_drift_sentinel</title>
<path fill="#d4e8f7" stroke="black" d="M13078.18,-313.25C13078.18,-313.25 12995.82,-313.25 12995.82,-313.25 12991.62,-313.25 12987.42,-309.05 12987.42,-304.85 12987.42,-304.85 12987.42,-296.45 12987.42,-296.45 12987.42,-292.25 12991.62,-288.05 12995.82,-288.05 12995.82,-288.05 13078.18,-288.05 13078.18,-288.05 13082.38,-288.05 13086.58,-292.25 13086.58,-296.45 13086.58,-296.45 13086.58,-304.85 13086.58,-304.85 13086.58,-309.05 13082.38,-313.25 13078.18,-313.25"/>
<text xml:space="preserve" text-anchor="middle" x="13037" y="-297.55" font-family="Helvetica,sans-Serif" font-size="8.00">WARP&#45;drift&#45;sentinel &#45; M</text>
</g>
<!-- cool_ideas_WARP_footprint_parallelism -->
<g id="node81" class="node">
<title>cool_ideas_WARP_footprint_parallelism</title>
<path fill="#d4e8f7" stroke="black" d="M11379.8,-386.7C11379.8,-386.7 11268.2,-386.7 11268.2,-386.7 11264,-386.7 11259.8,-382.5 11259.8,-378.3 11259.8,-378.3 11259.8,-369.9 11259.8,-369.9 11259.8,-365.7 11264,-361.5 11268.2,-361.5 11268.2,-361.5 11379.8,-361.5 11379.8,-361.5 11384,-361.5 11388.2,-365.7 11388.2,-369.9 11388.2,-369.9 11388.2,-378.3 11388.2,-378.3 11388.2,-382.5 11384,-386.7 11379.8,-386.7"/>
<text xml:space="preserve" text-anchor="middle" x="11324" y="-371" font-family="Helvetica,sans-Serif" font-size="8.00">WARP&#45;footprint&#45;parallelism &#45; XL</text>
</g>
<!-- cool_ideas_WARP_graft_pack -->
<g id="node82" class="node">
<title>cool_ideas_WARP_graft_pack</title>
<path fill="#d4e8f7" stroke="black" d="M11485.43,-386.7C11485.43,-386.7 11410.57,-386.7 11410.57,-386.7 11406.38,-386.7 11402.17,-382.5 11402.17,-378.3 11402.17,-378.3 11402.17,-369.9 11402.17,-369.9 11402.17,-365.7 11406.38,-361.5 11410.57,-361.5 11410.57,-361.5 11485.43,-361.5 11485.43,-361.5 11489.62,-361.5 11493.83,-365.7 11493.83,-369.9 11493.83,-369.9 11493.83,-378.3 11493.83,-378.3 11493.83,-382.5 11489.62,-386.7 11485.43,-386.7"/>
<text xml:space="preserve" text-anchor="middle" x="11448" y="-371" font-family="Helvetica,sans-Serif" font-size="8.00">WARP&#45;graft&#45;pack &#45; M</text>
</g>
<!-- cool_ideas_WARP_grouped_aggregate_queries -->
<g id="node83" class="node">
<title>cool_ideas_WARP_grouped_aggregate_queries</title>
<path fill="#d4e8f7" stroke="black" d="M11653.93,-386.7C11653.93,-386.7 11516.07,-386.7 11516.07,-386.7 11511.88,-386.7 11507.67,-382.5 11507.67,-378.3 11507.67,-378.3 11507.67,-369.9 11507.67,-369.9 11507.67,-365.7 11511.88,-361.5 11516.07,-361.5 11516.07,-361.5 11653.93,-361.5 11653.93,-361.5 11658.12,-361.5 11662.33,-365.7 11662.33,-369.9 11662.33,-369.9 11662.33,-378.3 11662.33,-378.3 11662.33,-382.5 11658.12,-386.7 11653.93,-386.7"/>
<text xml:space="preserve" text-anchor="middle" x="11585" y="-371" font-family="Helvetica,sans-Serif" font-size="8.00">WARP&#45;grouped&#45;aggregate&#45;queries &#45; M</text>
</g>
<!-- cool_ideas_WARP_intentional_degeneracy_privacy -->
<g id="node85" class="node">
<title>cool_ideas_WARP_intentional_degeneracy_privacy</title>
<path fill="#d4e8f7" stroke="black" d="M11832.8,-386.7C11832.8,-386.7 11685.2,-386.7 11685.2,-386.7 11681,-386.7 11676.8,-382.5 11676.8,-378.3 11676.8,-378.3 11676.8,-369.9 11676.8,-369.9 11676.8,-365.7 11681,-361.5 11685.2,-361.5 11685.2,-361.5 11832.8,-361.5 11832.8,-361.5 11837,-361.5 11841.2,-365.7 11841.2,-369.9 11841.2,-369.9 11841.2,-378.3 11841.2,-378.3 11841.2,-382.5 11837,-386.7 11832.8,-386.7"/>
<text xml:space="preserve" text-anchor="middle" x="11759" y="-371" font-family="Helvetica,sans-Serif" font-size="8.00">WARP&#45;intentional&#45;degeneracy&#45;privacy &#45; M</text>
</g>
<!-- cool_ideas_WARP_minimum_viable_context -->
<g id="node86" class="node">
<title>cool_ideas_WARP_minimum_viable_context</title>
<path fill="#d4e8f7" stroke="black" d="M11986.43,-386.7C11986.43,-386.7 11863.57,-386.7 11863.57,-386.7 11859.38,-386.7 11855.17,-382.5 11855.17,-378.3 11855.17,-378.3 11855.17,-369.9 11855.17,-369.9 11855.17,-365.7 11859.38,-361.5 11863.57,-361.5 11863.57,-361.5 11986.43,-361.5 11986.43,-361.5 11990.62,-361.5 11994.83,-365.7 11994.83,-369.9 11994.83,-369.9 11994.83,-378.3 11994.83,-378.3 11994.83,-382.5 11990.62,-386.7 11986.43,-386.7"/>
<text xml:space="preserve" text-anchor="middle" x="11925" y="-371" font-family="Helvetica,sans-Serif" font-size="8.00">WARP&#45;minimum&#45;viable&#45;context &#45; M</text>
</g>
<!-- cool_ideas_WARP_outline_diff_commit_trailer -->
<g id="node87" class="node">
<title>cool_ideas_WARP_outline_diff_commit_trailer</title>
<path fill="#d4e8f7" stroke="black" d="M12142.93,-386.7C12142.93,-386.7 12017.07,-386.7 12017.07,-386.7 12012.88,-386.7 12008.67,-382.5 12008.67,-378.3 12008.67,-378.3 12008.67,-369.9 12008.67,-369.9 12008.67,-365.7 12012.88,-361.5 12017.07,-361.5 12017.07,-361.5 12142.93,-361.5 12142.93,-361.5 12147.12,-361.5 12151.33,-365.7 12151.33,-369.9 12151.33,-369.9 12151.33,-378.3 12151.33,-378.3 12151.33,-382.5 12147.12,-386.7 12142.93,-386.7"/>
<text xml:space="preserve" text-anchor="middle" x="12080" y="-371" font-family="Helvetica,sans-Serif" font-size="8.00">WARP&#45;outline&#45;diff&#45;commit&#45;trailer &#45; S</text>
</g>
<!-- cool_ideas_WARP_projection_safety_classes -->
<g id="node88" class="node">
<title>cool_ideas_WARP_projection_safety_classes</title>
<path fill="#d4e8f7" stroke="black" d="M12299.93,-386.7C12299.93,-386.7 12174.07,-386.7 12174.07,-386.7 12169.88,-386.7 12165.67,-382.5 12165.67,-378.3 12165.67,-378.3 12165.67,-369.9 12165.67,-369.9 12165.67,-365.7 12169.88,-361.5 12174.07,-361.5 12174.07,-361.5 12299.93,-361.5 12299.93,-361.5 12304.12,-361.5 12308.33,-365.7 12308.33,-369.9 12308.33,-369.9 12308.33,-378.3 12308.33,-378.3 12308.33,-382.5 12304.12,-386.7 12299.93,-386.7"/>
<text xml:space="preserve" text-anchor="middle" x="12237" y="-371" font-family="Helvetica,sans-Serif" font-size="8.00">WARP&#45;projection&#45;safety&#45;classes &#45; M</text>
</g>
<!-- cool_ideas_WARP_provenance_dag&#45;&gt;cool_ideas_WARP_causal_blame_for_staged_artifacts -->
<g id="edge9" class="edge">
<title>cool_ideas_WARP_provenance_dag&#45;&gt;cool_ideas_WARP_causal_blame_for_staged_artifacts</title>
<path fill="none" stroke="#666666" d="M10739,-287.85C10739,-276.65 10739,-259.63 10739,-246.63"/>
<polygon fill="#666666" stroke="#666666" points="10740.75,-246.77 10739,-241.77 10737.25,-246.77 10740.75,-246.77"/>
<text xml:space="preserve" text-anchor="middle" x="10770.5" y="-261.4" font-family="Helvetica,sans-Serif" font-size="7.00">blocked_by/blocking</text>
</g>
<!-- cool_ideas_WARP_reasoning_trace_replay -->
<g id="node90" class="node">
<title>cool_ideas_WARP_reasoning_trace_replay</title>
<path fill="#d4e8f7" stroke="black" d="M10630.93,-239.8C10630.93,-239.8 10511.07,-239.8 10511.07,-239.8 10506.88,-239.8 10502.67,-235.6 10502.67,-231.4 10502.67,-231.4 10502.67,-223 10502.67,-223 10502.67,-218.8 10506.88,-214.6 10511.07,-214.6 10511.07,-214.6 10630.93,-214.6 10630.93,-214.6 10635.12,-214.6 10639.33,-218.8 10639.33,-223 10639.33,-223 10639.33,-231.4 10639.33,-231.4 10639.33,-235.6 10635.12,-239.8 10630.93,-239.8"/>
<text xml:space="preserve" text-anchor="middle" x="10571" y="-224.1" font-family="Helvetica,sans-Serif" font-size="8.00">WARP&#45;reasoning&#45;trace&#45;replay &#45; M</text>
</g>
<!-- cool_ideas_WARP_provenance_dag&#45;&gt;cool_ideas_WARP_reasoning_trace_replay -->
<g id="edge10" class="edge">
<title>cool_ideas_WARP_provenance_dag&#45;&gt;cool_ideas_WARP_reasoning_trace_replay</title>
<path fill="none" stroke="#666666" d="M10710.88,-287.69C10681.69,-275.27 10636.01,-255.85 10604.85,-242.6"/>
<polygon fill="#666666" stroke="#666666" points="10605.89,-241.14 10600.6,-240.79 10604.52,-244.36 10605.89,-241.14"/>
<text xml:space="preserve" text-anchor="middle" x="10691.54" y="-261.4" font-family="Helvetica,sans-Serif" font-size="7.00">blocked_by/blocking</text>
</g>
<!-- cool_ideas_WARP_rulial_heat_map -->
<g id="node91" class="node">
<title>cool_ideas_WARP_rulial_heat_map</title>
<path fill="#d4e8f7" stroke="black" d="M12421.3,-386.7C12421.3,-386.7 12330.7,-386.7 12330.7,-386.7 12326.5,-386.7 12322.3,-382.5 12322.3,-378.3 12322.3,-378.3 12322.3,-369.9 12322.3,-369.9 12322.3,-365.7 12326.5,-361.5 12330.7,-361.5 12330.7,-361.5 12421.3,-361.5 12421.3,-361.5 12425.5,-361.5 12429.7,-365.7 12429.7,-369.9 12429.7,-369.9 12429.7,-378.3 12429.7,-378.3 12429.7,-382.5 12425.5,-386.7 12421.3,-386.7"/>
<text xml:space="preserve" text-anchor="middle" x="12376" y="-371" font-family="Helvetica,sans-Serif" font-size="8.00">WARP&#45;rulial&#45;heat&#45;map &#45; L</text>
</g>
<!-- cool_ideas_WARP_semantic_drift_in_sessions -->
<g id="node92" class="node">
<title>cool_ideas_WARP_semantic_drift_in_sessions</title>
<path fill="#d4e8f7" stroke="black" d="M12581.43,-386.7C12581.43,-386.7 12452.57,-386.7 12452.57,-386.7 12448.38,-386.7 12444.17,-382.5 12444.17,-378.3 12444.17,-378.3 12444.17,-369.9 12444.17,-369.9 12444.17,-365.7 12448.38,-361.5 12452.57,-361.5 12452.57,-361.5 12581.43,-361.5 12581.43,-361.5 12585.62,-361.5 12589.83,-365.7 12589.83,-369.9 12589.83,-369.9 12589.83,-378.3 12589.83,-378.3 12589.83,-382.5 12585.62,-386.7 12581.43,-386.7"/>
<text xml:space="preserve" text-anchor="middle" x="12517" y="-371" font-family="Helvetica,sans-Serif" font-size="8.00">WARP&#45;semantic&#45;drift&#45;in&#45;sessions &#45; M</text>
</g>
<!-- cool_ideas_WARP_semantic_merge_conflict_prediction -->
<g id="node93" class="node">
<title>cool_ideas_WARP_semantic_merge_conflict_prediction</title>
<path fill="#d4e8f7" stroke="black" d="M13598.43,-313.25C13598.43,-313.25 13439.57,-313.25 13439.57,-313.25 13435.38,-313.25 13431.17,-309.05 13431.17,-304.85 13431.17,-304.85 13431.17,-296.45 13431.17,-296.45 13431.17,-292.25 13435.38,-288.05 13439.57,-288.05 13439.57,-288.05 13598.43,-288.05 13598.43,-288.05 13602.62,-288.05 13606.83,-292.25 13606.83,-296.45 13606.83,-296.45 13606.83,-304.85 13606.83,-304.85 13606.83,-309.05 13602.62,-313.25 13598.43,-313.25"/>
<text xml:space="preserve" text-anchor="middle" x="13519" y="-297.55" font-family="Helvetica,sans-Serif" font-size="8.00">WARP&#45;semantic&#45;merge&#45;conflict&#45;prediction &#45; L</text>
</g>
<!-- cool_ideas_WARP_session_filtration -->
<g id="node94" class="node">
<title>cool_ideas_WARP_session_filtration</title>
<path fill="#d4e8f7" stroke="black" d="M12705.8,-386.7C12705.8,-386.7 12612.2,-386.7 12612.2,-386.7 12608,-386.7 12603.8,-382.5 12603.8,-378.3 12603.8,-378.3 12603.8,-369.9 12603.8,-369.9 12603.8,-365.7 12608,-361.5 12612.2,-361.5 12612.2,-361.5 12705.8,-361.5 12705.8,-361.5 12710,-361.5 12714.2,-365.7 12714.2,-369.9 12714.2,-369.9 12714.2,-378.3 12714.2,-378.3 12714.2,-382.5 12710,-386.7 12705.8,-386.7"/>
<text xml:space="preserve" text-anchor="middle" x="12659" y="-371" font-family="Helvetica,sans-Serif" font-size="8.00">WARP&#45;session&#45;filtration &#45; L</text>
</g>
<!-- cool_ideas_WARP_shadow_structural_workspaces -->
<g id="node95" class="node">
<title>cool_ideas_WARP_shadow_structural_workspaces</title>
<path fill="#d4e8f7" stroke="black" d="M12887.3,-386.7C12887.3,-386.7 12736.7,-386.7 12736.7,-386.7 12732.5,-386.7 12728.3,-382.5 12728.3,-378.3 12728.3,-378.3 12728.3,-369.9 12728.3,-369.9 12728.3,-365.7 12732.5,-361.5 12736.7,-361.5 12736.7,-361.5 12887.3,-361.5 12887.3,-361.5 12891.5,-361.5 12895.7,-365.7 12895.7,-369.9 12895.7,-369.9 12895.7,-378.3 12895.7,-378.3 12895.7,-382.5 12891.5,-386.7 12887.3,-386.7"/>
<text xml:space="preserve" text-anchor="middle" x="12812" y="-371" font-family="Helvetica,sans-Serif" font-size="8.00">WARP&#45;shadow&#45;structural&#45;workspaces &#45; XL</text>
</g>
<!-- cool_ideas_WARP_speculative_merge -->
<g id="node96" class="node">
<title>cool_ideas_WARP_speculative_merge</title>
<path fill="#d4e8f7" stroke="black" d="M13025.55,-386.7C13025.55,-386.7 12918.45,-386.7 12918.45,-386.7 12914.25,-386.7 12910.05,-382.5 12910.05,-378.3 12910.05,-378.3 12910.05,-369.9 12910.05,-369.9 12910.05,-365.7 12914.25,-361.5 12918.45,-361.5 12918.45,-361.5 13025.55,-361.5 13025.55,-361.5 13029.75,-361.5 13033.95,-365.7 13033.95,-369.9 13033.95,-369.9 13033.95,-378.3 13033.95,-378.3 13033.95,-382.5 13029.75,-386.7 13025.55,-386.7"/>
<text xml:space="preserve" text-anchor="middle" x="12972" y="-371" font-family="Helvetica,sans-Serif" font-size="8.00">WARP&#45;speculative&#45;merge &#45; XL</text>
</g>
<!-- cool_ideas_WARP_stale_docs_checker -->
<g id="node97" class="node">
<title>cool_ideas_WARP_stale_docs_checker</title>
<path fill="#d4e8f7" stroke="black" d="M13161.8,-386.7C13161.8,-386.7 13056.2,-386.7 13056.2,-386.7 13052,-386.7 13047.8,-382.5 13047.8,-378.3 13047.8,-378.3 13047.8,-369.9 13047.8,-369.9 13047.8,-365.7 13052,-361.5 13056.2,-361.5 13056.2,-361.5 13161.8,-361.5 13161.8,-361.5 13166,-361.5 13170.2,-365.7 13170.2,-369.9 13170.2,-369.9 13170.2,-378.3 13170.2,-378.3 13170.2,-382.5 13166,-386.7 13161.8,-386.7"/>
<text xml:space="preserve" text-anchor="middle" x="13109" y="-371" font-family="Helvetica,sans-Serif" font-size="8.00">WARP&#45;stale&#45;docs&#45;checker &#45; M</text>
</g>
<!-- cool_ideas_WARP_stale_docs_checker&#45;&gt;cool_ideas_WARP_drift_sentinel -->
<g id="edge11" class="edge">
<title>cool_ideas_WARP_stale_docs_checker&#45;&gt;cool_ideas_WARP_drift_sentinel</title>
<path fill="none" stroke="#666666" d="M13097.11,-361.3C13085.2,-349.48 13066.76,-331.19 13053.45,-317.97"/>
<polygon fill="#666666" stroke="#666666" points="13055,-317.05 13050.22,-314.77 13052.54,-319.54 13055,-317.05"/>
<text xml:space="preserve" text-anchor="middle" x="13106.66" y="-334.85" font-family="Helvetica,sans-Serif" font-size="7.00">blocked_by/blocking</text>
</g>
<!-- cool_ideas_WARP_structural_drift_detection -->
<g id="node98" class="node">
<title>cool_ideas_WARP_structural_drift_detection</title>
<path fill="#d4e8f7" stroke="black" d="M13315.8,-386.7C13315.8,-386.7 13192.2,-386.7 13192.2,-386.7 13188,-386.7 13183.8,-382.5 13183.8,-378.3 13183.8,-378.3 13183.8,-369.9 13183.8,-369.9 13183.8,-365.7 13188,-361.5 13192.2,-361.5 13192.2,-361.5 13315.8,-361.5 13315.8,-361.5 13320,-361.5 13324.2,-365.7 13324.2,-369.9 13324.2,-369.9 13324.2,-378.3 13324.2,-378.3 13324.2,-382.5 13320,-386.7 13315.8,-386.7"/>
<text xml:space="preserve" text-anchor="middle" x="13254" y="-371" font-family="Helvetica,sans-Serif" font-size="8.00">WARP&#45;structural&#45;drift&#45;detection &#45; M</text>
</g>
<!-- cool_ideas_WARP_symbol_heatmap -->
<g id="node100" class="node">
<title>cool_ideas_WARP_symbol_heatmap</title>
<path fill="#d4e8f7" stroke="black" d="M13445.05,-386.7C13445.05,-386.7 13346.95,-386.7 13346.95,-386.7 13342.75,-386.7 13338.55,-382.5 13338.55,-378.3 13338.55,-378.3 13338.55,-369.9 13338.55,-369.9 13338.55,-365.7 13342.75,-361.5 13346.95,-361.5 13346.95,-361.5 13445.05,-361.5 13445.05,-361.5 13449.25,-361.5 13453.45,-365.7 13453.45,-369.9 13453.45,-369.9 13453.45,-378.3 13453.45,-378.3 13453.45,-382.5 13449.25,-386.7 13445.05,-386.7"/>
<text xml:space="preserve" text-anchor="middle" x="13396" y="-371" font-family="Helvetica,sans-Serif" font-size="8.00">WARP&#45;symbol&#45;heatmap &#45; M</text>
</g>
<!-- cool_ideas_WARP_technical_debt_curvature -->
<g id="node101" class="node">
<title>cool_ideas_WARP_technical_debt_curvature</title>
<path fill="#d4e8f7" stroke="black" d="M13598.43,-386.7C13598.43,-386.7 13475.57,-386.7 13475.57,-386.7 13471.38,-386.7 13467.17,-382.5 13467.17,-378.3 13467.17,-378.3 13467.17,-369.9 13467.17,-369.9 13467.17,-365.7 13471.38,-361.5 13475.57,-361.5 13475.57,-361.5 13598.43,-361.5 13598.43,-361.5 13602.62,-361.5 13606.83,-365.7 13606.83,-369.9 13606.83,-369.9 13606.83,-378.3 13606.83,-378.3 13606.83,-382.5 13602.62,-386.7 13598.43,-386.7"/>
<text xml:space="preserve" text-anchor="middle" x="13537" y="-371" font-family="Helvetica,sans-Serif" font-size="8.00">WARP&#45;technical&#45;debt&#45;curvature &#45; L</text>
</g>
<!-- external_git_warp_observer_geometry_ladder__Rung_2_4_ -->
<g id="node103" class="node">
<title>external_git_warp_observer_geometry_ladder__Rung_2_4_</title>
<path fill="#e8f2ff" stroke="black" d="M13802.68,-386.7C13802.68,-386.7 13639.32,-386.7 13639.32,-386.7 13635.12,-386.7 13630.92,-382.5 13630.92,-378.3 13630.92,-378.3 13630.92,-369.9 13630.92,-369.9 13630.92,-365.7 13635.12,-361.5 13639.32,-361.5 13639.32,-361.5 13802.68,-361.5 13802.68,-361.5 13806.88,-361.5 13811.08,-365.7 13811.08,-369.9 13811.08,-369.9 13811.08,-378.3 13811.08,-378.3 13811.08,-382.5 13806.88,-386.7 13802.68,-386.7"/>
<text xml:space="preserve" text-anchor="middle" x="13721" y="-371" font-family="Helvetica,sans-Serif" font-size="8.00">git&#45;warp observer geometry ladder (Rung 2&#45;4)</text>
</g>
<!-- external_git_warp_observer_geometry_ladder__Rung_2_4_&#45;&gt;cool_ideas_CORE_migrate_to_slice_first_reads -->
<g id="edge12" class="edge">
<title>external_git_warp_observer_geometry_ladder__Rung_2_4_&#45;&gt;cool_ideas_CORE_migrate_to_slice_first_reads</title>
<path fill="none" stroke="#4477aa" stroke-dasharray="5,2" d="M13664.54,-361.04C13649.47,-358.18 13633.17,-355.41 13618,-353.5 13533.72,-342.87 13511.71,-350.58 13427.25,-341.5 13344.44,-332.6 13324.31,-325.98 13242,-313.25 13241.86,-313.23 13241.73,-313.21 13241.59,-313.19"/>
<polygon fill="#4477aa" stroke="#4477aa" points="13242.06,-311.49 13236.85,-312.45 13241.52,-314.95 13242.06,-311.49"/>
<text xml:space="preserve" text-anchor="middle" x="13459.12" y="-334.85" font-family="Helvetica,sans-Serif" font-size="7.00">blocked_by_external</text>
</g>
<!-- unresolved_CLEAN_CODE_export_diff_semver_signature_as_patch -->
<g id="node104" class="node">
<title>unresolved_CLEAN_CODE_export_diff_semver_signature_as_patch</title>
<path fill="#f2f2f2" stroke="black" stroke-dasharray="5,2" d="M14066.3,-386.7C14066.3,-386.7 13843.7,-386.7 13843.7,-386.7 13839.5,-386.7 13835.3,-382.5 13835.3,-378.3 13835.3,-378.3 13835.3,-369.9 13835.3,-369.9 13835.3,-365.7 13839.5,-361.5 13843.7,-361.5 13843.7,-361.5 14066.3,-361.5 14066.3,-361.5 14070.5,-361.5 14074.7,-365.7 14074.7,-369.9 14074.7,-369.9 14074.7,-378.3 14074.7,-378.3 14074.7,-382.5 14070.5,-386.7 14066.3,-386.7"/>
<text xml:space="preserve" text-anchor="middle" x="13955" y="-371" font-family="Helvetica,sans-Serif" font-size="8.00">missing: CLEAN_CODE_export&#45;diff&#45;semver&#45;signature&#45;as&#45;patch</text>
</g>
<!-- unresolved_CLEAN_CODE_export_diff_semver_signature_as_patch&#45;&gt;cool_ideas_WARP_auto_breaking_change_detection -->
<g id="edge13" class="edge">
<title>unresolved_CLEAN_CODE_export_diff_semver_signature_as_patch&#45;&gt;cool_ideas_WARP_auto_breaking_change_detection</title>
<path fill="none" stroke="#cc3333" stroke-dasharray="5,2" d="M13878.44,-361.04C13859.99,-358.34 13840.31,-355.65 13822,-353.5 13761.63,-346.4 13746.25,-347.43 13685.75,-341.5 13569.3,-330.09 13540.21,-326.93 13424,-313.25 13423.7,-313.22 13423.41,-313.18 13423.11,-313.14"/>
<polygon fill="#cc3333" stroke="#cc3333" points="13423.47,-311.43 13418.29,-312.57 13423.05,-314.9 13423.47,-311.43"/>
<text xml:space="preserve" text-anchor="middle" x="13703.38" y="-334.85" font-family="Helvetica,sans-Serif" font-size="7.00">blocked_by</text>
</g>
<!-- unresolved_CLEAN_CODE_export_diff_semver_signature_as_patch&#45;&gt;cool_ideas_WARP_semantic_merge_conflict_prediction -->
<g id="edge14" class="edge">
<title>unresolved_CLEAN_CODE_export_diff_semver_signature_as_patch&#45;&gt;cool_ideas_WARP_semantic_merge_conflict_prediction</title>
<path fill="none" stroke="#cc3333" stroke-dasharray="5,2" d="M13881.53,-361.06C13803.24,-348.23 13679.69,-327.98 13598.99,-314.76"/>
<polygon fill="#cc3333" stroke="#cc3333" points="13599.48,-313.07 13594.26,-313.98 13598.91,-316.52 13599.48,-313.07"/>
<text xml:space="preserve" text-anchor="middle" x="13767.7" y="-334.85" font-family="Helvetica,sans-Serif" font-size="7.00">blocked_by</text>
</g>
<!-- leg_v08 -->
<g id="node105" class="node">
<title>leg_v08</title>
<path fill="#c8e6c9" stroke="black" stroke-width="2" d="M14501,-386.7C14501,-386.7 14417,-386.7 14417,-386.7 14412.8,-386.7 14408.6,-382.5 14408.6,-378.3 14408.6,-378.3 14408.6,-369.9 14408.6,-369.9 14408.6,-365.7 14412.8,-361.5 14417,-361.5 14417,-361.5 14501,-361.5 14501,-361.5 14505.2,-361.5 14509.4,-365.7 14509.4,-369.9 14509.4,-369.9 14509.4,-378.3 14509.4,-378.3 14509.4,-382.5 14505.2,-386.7 14501,-386.7"/>
<text xml:space="preserve" text-anchor="middle" x="14459" y="-371.58" font-family="Helvetica,sans-Serif" font-size="7.00">v0.8.0</text>
</g>
<!-- leg_v07 -->
<g id="node106" class="node">
<title>leg_v07</title>
<path fill="#ffa07a" stroke="black" stroke-width="2" d="M14501,-313.25C14501,-313.25 14417,-313.25 14417,-313.25 14412.8,-313.25 14408.6,-309.05 14408.6,-304.85 14408.6,-304.85 14408.6,-296.45 14408.6,-296.45 14408.6,-292.25 14412.8,-288.05 14417,-288.05 14417,-288.05 14501,-288.05 14501,-288.05 14505.2,-288.05 14509.4,-292.25 14509.4,-296.45 14509.4,-296.45 14509.4,-304.85 14509.4,-304.85 14509.4,-309.05 14505.2,-313.25 14501,-313.25"/>
<text xml:space="preserve" text-anchor="middle" x="14459" y="-298.12" font-family="Helvetica,sans-Serif" font-size="7.00">v0.7.0</text>
</g>
<!-- leg_v08&#45;&gt;leg_v07 -->
<!-- leg_bad -->
<g id="node107" class="node">
<title>leg_bad</title>
<path fill="#f6b3b3" stroke="black" stroke-width="2" d="M14501,-239.8C14501,-239.8 14417,-239.8 14417,-239.8 14412.8,-239.8 14408.6,-235.6 14408.6,-231.4 14408.6,-231.4 14408.6,-223 14408.6,-223 14408.6,-218.8 14412.8,-214.6 14417,-214.6 14417,-214.6 14501,-214.6 14501,-214.6 14505.2,-214.6 14509.4,-218.8 14509.4,-223 14509.4,-223 14509.4,-231.4 14509.4,-231.4 14509.4,-235.6 14505.2,-239.8 14501,-239.8"/>
<text xml:space="preserve" text-anchor="middle" x="14459" y="-224.67" font-family="Helvetica,sans-Serif" font-size="7.00">bad&#45;code</text>
</g>
<!-- leg_v07&#45;&gt;leg_bad -->
<!-- leg_idea -->
<g id="node108" class="node">
<title>leg_idea</title>
<path fill="#d4e8f7" stroke="black" d="M14501,-173.6C14501,-173.6 14417,-173.6 14417,-173.6 14412.8,-173.6 14408.6,-169.4 14408.6,-165.2 14408.6,-165.2 14408.6,-156.8 14408.6,-156.8 14408.6,-152.6 14412.8,-148.4 14417,-148.4 14417,-148.4 14501,-148.4 14501,-148.4 14505.2,-148.4 14509.4,-152.6 14509.4,-156.8 14509.4,-156.8 14509.4,-165.2 14509.4,-165.2 14509.4,-169.4 14505.2,-173.6 14501,-173.6"/>
<text xml:space="preserve" text-anchor="middle" x="14459" y="-158.47" font-family="Helvetica,sans-Serif" font-size="7.00">cool&#45;ideas</text>
</g>
<!-- leg_bad&#45;&gt;leg_idea -->
<!-- leg_external -->
<g id="node109" class="node">
<title>leg_external</title>
<path fill="#e8f2ff" stroke="black" d="M14501,-107.4C14501,-107.4 14417,-107.4 14417,-107.4 14412.8,-107.4 14408.6,-103.2 14408.6,-99 14408.6,-99 14408.6,-90.6 14408.6,-90.6 14408.6,-86.4 14412.8,-82.2 14417,-82.2 14417,-82.2 14501,-82.2 14501,-82.2 14505.2,-82.2 14509.4,-86.4 14509.4,-90.6 14509.4,-90.6 14509.4,-99 14509.4,-99 14509.4,-103.2 14505.2,-107.4 14501,-107.4"/>
<text xml:space="preserve" text-anchor="middle" x="14459" y="-92.28" font-family="Helvetica,sans-Serif" font-size="7.00">external blocker</text>
</g>
<!-- leg_idea&#45;&gt;leg_external -->
<!-- leg_unresolved -->
<g id="node110" class="node">
<title>leg_unresolved</title>
<path fill="#f2f2f2" stroke="black" stroke-dasharray="5,2" d="M14501,-41.2C14501,-41.2 14417,-41.2 14417,-41.2 14412.8,-41.2 14408.6,-37 14408.6,-32.8 14408.6,-32.8 14408.6,-24.4 14408.6,-24.4 14408.6,-20.2 14412.8,-16 14417,-16 14417,-16 14501,-16 14501,-16 14505.2,-16 14509.4,-20.2 14509.4,-24.4 14509.4,-24.4 14509.4,-32.8 14509.4,-32.8 14509.4,-37 14505.2,-41.2 14501,-41.2"/>
<text xml:space="preserve" text-anchor="middle" x="14459" y="-26.08" font-family="Helvetica,sans-Serif" font-size="7.00">unresolved ref</text>
</g>
<!-- leg_external&#45;&gt;leg_unresolved -->
</g>
</svg>
