<?xml version="1.0" encoding="UTF-8" standalone="no"?>
<!DOCTYPE svg PUBLIC "-//W3C//DTD SVG 1.1//EN"
 "http://www.w3.org/Graphics/SVG/1.1/DTD/svg11.dtd">
<!-- Generated by graphviz version 14.1.2 (20260124.0452)
 -->
<!-- Title: backlog Pages: 1 -->
<svg width="10718pt" height="383pt"
 viewBox="0.00 0.00 10718.00 383.00" xmlns="http://www.w3.org/2000/svg" xmlns:xlink="http://www.w3.org/1999/xlink">
<g id="graph0" class="graph" transform="scale(1 1) rotate(0) translate(4 379)">
<title>backlog</title>
<polygon fill="white" stroke="none" points="-4,4 -4,-379 10714,-379 10714,4 -4,4"/>
<text xml:space="preserve" text-anchor="middle" x="5355" y="-359.6" font-family="Helvetica,sans-Serif" font-size="12.00">Active backlog graph generated from docs/method/backlog/*/*.md</text>
<g id="clust1" class="cluster">
<title>cluster_asap</title>
<path fill="#fafafa" stroke="#cccccc" d="M20,-287.3C20,-287.3 132,-287.3 132,-287.3 138,-287.3 144,-293.3 144,-299.3 144,-299.3 144,-334.25 144,-334.25 144,-340.25 138,-346.25 132,-346.25 132,-346.25 20,-346.25 20,-346.25 14,-346.25 8,-340.25 8,-334.25 8,-334.25 8,-299.3 8,-299.3 8,-293.3 14,-287.3 20,-287.3"/>
<text xml:space="preserve" text-anchor="middle" x="32.88" y="-333.7" font-family="Helvetica,sans-Serif" font-size="9.00" fill="#555555">asap (1)</text>
</g>
<g id="clust2" class="cluster">
<title>cluster_cool_ideas</title>
<path fill="#fafafa" stroke="#cccccc" d="M164,-140.4C164,-140.4 10098,-140.4 10098,-140.4 10104,-140.4 10110,-146.4 10110,-152.4 10110,-152.4 10110,-334.25 10110,-334.25 10110,-340.25 10104,-346.25 10098,-346.25 10098,-346.25 164,-346.25 164,-346.25 158,-346.25 152,-340.25 152,-334.25 152,-334.25 152,-152.4 152,-152.4 152,-146.4 158,-140.4 164,-140.4"/>
<text xml:space="preserve" text-anchor="middle" x="191.5" y="-333.7" font-family="Helvetica,sans-Serif" font-size="9.00" fill="#555555">Cool Ideas (78)</text>
</g>
<g id="clust3" class="cluster">
<title>cluster_external</title>
<path fill="#f8fbff" stroke="#cccccc" d="M10130,-287.3C10130,-287.3 10302,-287.3 10302,-287.3 10308,-287.3 10314,-293.3 10314,-299.3 10314,-299.3 10314,-334.25 10314,-334.25 10314,-340.25 10308,-346.25 10302,-346.25 10302,-346.25 10130,-346.25 10130,-346.25 10124,-346.25 10118,-340.25 10118,-334.25 10118,-334.25 10118,-299.3 10118,-299.3 10118,-293.3 10124,-287.3 10130,-287.3"/>
<text xml:space="preserve" text-anchor="middle" x="10161.25" y="-333.7" font-family="Helvetica,sans-Serif" font-size="9.00" fill="#555555">External blockers</text>
</g>
<g id="clust4" class="cluster">
<title>cluster_unresolved</title>
<path fill="#fff7f7" stroke="#cc3333" stroke-dasharray="5,2" d="M10334,-287.3C10334,-287.3 10566,-287.3 10566,-287.3 10572,-287.3 10578,-293.3 10578,-299.3 10578,-299.3 10578,-334.25 10578,-334.25 10578,-340.25 10572,-346.25 10566,-346.25 10566,-346.25 10334,-346.25 10334,-346.25 10328,-346.25 10322,-340.25 10322,-334.25 10322,-334.25 10322,-299.3 10322,-299.3 10322,-293.3 10328,-287.3 10334,-287.3"/>
<text xml:space="preserve" text-anchor="middle" x="10378.75" y="-333.7" font-family="Helvetica,sans-Serif" font-size="9.00" fill="#555555">Unresolved internal refs</text>
</g>
<g id="clust5" class="cluster">
<title>cluster_legend</title>
<path fill="none" stroke="#dddddd" d="M10598,-8C10598,-8 10690,-8 10690,-8 10696,-8 10702,-14 10702,-20 10702,-20 10702,-333.5 10702,-333.5 10702,-339.5 10696,-345.5 10690,-345.5 10690,-345.5 10598,-345.5 10598,-345.5 10592,-345.5 10586,-339.5 10586,-333.5 10586,-333.5 10586,-20 10586,-20 10586,-14 10592,-8 10598,-8"/>
<text xml:space="preserve" text-anchor="middle" x="10607.5" y="-333.9" font-family="Helvetica,sans-Serif" font-size="8.00" fill="#aaaaaa">Legend</text>
</g>
<!-- asap_CORE_backlog_status_tool -->
<g id="node1" class="node">
<title>asap_CORE_backlog_status_tool</title>
<path fill="#e5e7eb" stroke="black" stroke-width="2" d="M127.67,-320.5C127.67,-320.5 24.33,-320.5 24.33,-320.5 20.13,-320.5 15.92,-316.3 15.92,-312.1 15.92,-312.1 15.92,-303.7 15.92,-303.7 15.92,-299.5 20.13,-295.3 24.33,-295.3 24.33,-295.3 127.67,-295.3 127.67,-295.3 131.87,-295.3 136.07,-299.5 136.07,-303.7 136.07,-303.7 136.07,-312.1 136.07,-312.1 136.07,-316.3 131.87,-320.5 127.67,-320.5"/>
<text xml:space="preserve" text-anchor="middle" x="76" y="-304.8" font-family="Helvetica,sans-Serif" font-size="8.00">CORE&#45;backlog&#45;status&#45;tool &#45; S</text>
</g>
<!-- cool_ideas_bounded_neighborhood_for_references -->
<g id="node2" class="node">
<title>cool_ideas_bounded_neighborhood_for_references</title>
<path fill="#d4e8f7" stroke="black" d="M317.17,-320.5C317.17,-320.5 168.83,-320.5 168.83,-320.5 164.63,-320.5 160.43,-316.3 160.43,-312.1 160.43,-312.1 160.43,-303.7 160.43,-303.7 160.43,-299.5 164.63,-295.3 168.83,-295.3 168.83,-295.3 317.17,-295.3 317.17,-295.3 321.38,-295.3 325.57,-299.5 325.57,-303.7 325.57,-303.7 325.57,-312.1 325.57,-312.1 325.57,-316.3 321.38,-320.5 317.17,-320.5"/>
<text xml:space="preserve" text-anchor="middle" x="243" y="-304.8" font-family="Helvetica,sans-Serif" font-size="8.00">bounded&#45;neighborhood&#45;for&#45;references &#45; S</text>
</g>
<!-- cool_ideas_CI_001_causal_collapse_visualizer -->
<g id="node3" class="node">
<title>cool_ideas_CI_001_causal_collapse_visualizer</title>
<path fill="#d4e8f7" stroke="black" d="M6888.3,-247.05C6888.3,-247.05 6761.7,-247.05 6761.7,-247.05 6757.5,-247.05 6753.3,-242.85 6753.3,-238.65 6753.3,-238.65 6753.3,-230.25 6753.3,-230.25 6753.3,-226.05 6757.5,-221.85 6761.7,-221.85 6761.7,-221.85 6888.3,-221.85 6888.3,-221.85 6892.5,-221.85 6896.7,-226.05 6896.7,-230.25 6896.7,-230.25 6896.7,-238.65 6896.7,-238.65 6896.7,-242.85 6892.5,-247.05 6888.3,-247.05"/>
<text xml:space="preserve" text-anchor="middle" x="6825" y="-231.35" font-family="Helvetica,sans-Serif" font-size="8.00">CI&#45;001&#45;causal&#45;collapse&#45;visualizer &#45; L</text>
</g>
<!-- cool_ideas_CI_002_deterministic_scenario_replay -->
<g id="node4" class="node">
<title>cool_ideas_CI_002_deterministic_scenario_replay</title>
<path fill="#d4e8f7" stroke="black" d="M487.67,-320.5C487.67,-320.5 348.33,-320.5 348.33,-320.5 344.12,-320.5 339.93,-316.3 339.93,-312.1 339.93,-312.1 339.93,-303.7 339.93,-303.7 339.93,-299.5 344.12,-295.3 348.33,-295.3 348.33,-295.3 487.67,-295.3 487.67,-295.3 491.88,-295.3 496.07,-299.5 496.07,-303.7 496.07,-303.7 496.07,-312.1 496.07,-312.1 496.07,-316.3 491.88,-320.5 487.67,-320.5"/>
<text xml:space="preserve" text-anchor="middle" x="418" y="-304.8" font-family="Helvetica,sans-Serif" font-size="8.00">CI&#45;002&#45;deterministic&#45;scenario&#45;replay &#45; L</text>
</g>
<!-- cool_ideas_CI_003_mcp_native_diff_protocol -->
<g id="node5" class="node">
<title>cool_ideas_CI_003_mcp_native_diff_protocol</title>
<path fill="#d4e8f7" stroke="black" d="M641.8,-320.5C641.8,-320.5 518.2,-320.5 518.2,-320.5 514,-320.5 509.8,-316.3 509.8,-312.1 509.8,-312.1 509.8,-303.7 509.8,-303.7 509.8,-299.5 514,-295.3 518.2,-295.3 518.2,-295.3 641.8,-295.3 641.8,-295.3 646,-295.3 650.2,-299.5 650.2,-303.7 650.2,-303.7 650.2,-312.1 650.2,-312.1 650.2,-316.3 646,-320.5 641.8,-320.5"/>
<text xml:space="preserve" text-anchor="middle" x="580" y="-304.8" font-family="Helvetica,sans-Serif" font-size="8.00">CI&#45;003&#45;mcp&#45;native&#45;diff&#45;protocol &#45; M</text>
</g>
<!-- cool_ideas_CLEAN_CODE_parallel_agent_merge_shared_file_loss -->
<g id="node6" class="node">
<title>cool_ideas_CLEAN_CODE_parallel_agent_merge_shared_file_loss</title>
<path fill="#d4e8f7" stroke="black" d="M873.05,-320.5C873.05,-320.5 672.95,-320.5 672.95,-320.5 668.75,-320.5 664.55,-316.3 664.55,-312.1 664.55,-312.1 664.55,-303.7 664.55,-303.7 664.55,-299.5 668.75,-295.3 672.95,-295.3 672.95,-295.3 873.05,-295.3 873.05,-295.3 877.25,-295.3 881.45,-299.5 881.45,-303.7 881.45,-303.7 881.45,-312.1 881.45,-312.1 881.45,-316.3 877.25,-320.5 873.05,-320.5"/>
<text xml:space="preserve" text-anchor="middle" x="773" y="-304.8" font-family="Helvetica,sans-Serif" font-size="8.00">CLEAN&#45;CODE&#45;parallel&#45;agent&#45;merge&#45;shared&#45;file&#45;loss &#45; M</text>
</g>
<!-- cool_ideas_CORE_agent_handoff_protocol -->
<g id="node7" class="node">
<title>cool_ideas_CORE_agent_handoff_protocol</title>
<path fill="#d4e8f7" stroke="black" d="M1023.93,-320.5C1023.93,-320.5 904.07,-320.5 904.07,-320.5 899.88,-320.5 895.67,-316.3 895.67,-312.1 895.67,-312.1 895.67,-303.7 895.67,-303.7 895.67,-299.5 899.88,-295.3 904.07,-295.3 904.07,-295.3 1023.93,-295.3 1023.93,-295.3 1028.12,-295.3 1032.33,-299.5 1032.33,-303.7 1032.33,-303.7 1032.33,-312.1 1032.33,-312.1 1032.33,-316.3 1028.12,-320.5 1023.93,-320.5"/>
<text xml:space="preserve" text-anchor="middle" x="964" y="-304.8" font-family="Helvetica,sans-Serif" font-size="8.00">CORE&#45;agent&#45;handoff&#45;protocol &#45; M</text>
</g>
<!-- cool_ideas_CORE_auto_focus -->
<g id="node8" class="node">
<title>cool_ideas_CORE_auto_focus</title>
<path fill="#d4e8f7" stroke="black" d="M1127.67,-320.5C1127.67,-320.5 1054.33,-320.5 1054.33,-320.5 1050.12,-320.5 1045.92,-316.3 1045.92,-312.1 1045.92,-312.1 1045.92,-303.7 1045.92,-303.7 1045.92,-299.5 1050.12,-295.3 1054.33,-295.3 1054.33,-295.3 1127.67,-295.3 1127.67,-295.3 1131.88,-295.3 1136.08,-299.5 1136.08,-303.7 1136.08,-303.7 1136.08,-312.1 1136.08,-312.1 1136.08,-316.3 1131.88,-320.5 1127.67,-320.5"/>
<text xml:space="preserve" text-anchor="middle" x="1091" y="-304.8" font-family="Helvetica,sans-Serif" font-size="8.00">CORE&#45;auto&#45;focus &#45; L</text>
</g>
<!-- cool_ideas_CORE_capture_range -->
<g id="node9" class="node">
<title>cool_ideas_CORE_capture_range</title>
<path fill="#d4e8f7" stroke="black" d="M1245.8,-320.5C1245.8,-320.5 1158.2,-320.5 1158.2,-320.5 1154,-320.5 1149.8,-316.3 1149.8,-312.1 1149.8,-312.1 1149.8,-303.7 1149.8,-303.7 1149.8,-299.5 1154,-295.3 1158.2,-295.3 1158.2,-295.3 1245.8,-295.3 1245.8,-295.3 1250,-295.3 1254.2,-299.5 1254.2,-303.7 1254.2,-303.7 1254.2,-312.1 1254.2,-312.1 1254.2,-316.3 1250,-320.5 1245.8,-320.5"/>
<text xml:space="preserve" text-anchor="middle" x="1202" y="-304.8" font-family="Helvetica,sans-Serif" font-size="8.00">CORE&#45;capture&#45;range &#45; S</text>
</g>
<!-- cool_ideas_CORE_constructor_in_disguise_lint -->
<g id="node10" class="node">
<title>cool_ideas_CORE_constructor_in_disguise_lint</title>
<path fill="#d4e8f7" stroke="black" d="M1407.55,-320.5C1407.55,-320.5 1276.45,-320.5 1276.45,-320.5 1272.25,-320.5 1268.05,-316.3 1268.05,-312.1 1268.05,-312.1 1268.05,-303.7 1268.05,-303.7 1268.05,-299.5 1272.25,-295.3 1276.45,-295.3 1276.45,-295.3 1407.55,-295.3 1407.55,-295.3 1411.75,-295.3 1415.95,-299.5 1415.95,-303.7 1415.95,-303.7 1415.95,-312.1 1415.95,-312.1 1415.95,-316.3 1411.75,-320.5 1407.55,-320.5"/>
<text xml:space="preserve" text-anchor="middle" x="1342" y="-304.8" font-family="Helvetica,sans-Serif" font-size="8.00">CORE&#45;constructor&#45;in&#45;disguise&#45;lint &#45; M</text>
</g>
<!-- cool_ideas_CORE_context_budget_forecasting -->
<g id="node11" class="node">
<title>cool_ideas_CORE_context_budget_forecasting</title>
<path fill="#d4e8f7" stroke="black" d="M1571.67,-320.5C1571.67,-320.5 1438.33,-320.5 1438.33,-320.5 1434.12,-320.5 1429.92,-316.3 1429.92,-312.1 1429.92,-312.1 1429.92,-303.7 1429.92,-303.7 1429.92,-299.5 1434.12,-295.3 1438.33,-295.3 1438.33,-295.3 1571.67,-295.3 1571.67,-295.3 1575.88,-295.3 1580.08,-299.5 1580.08,-303.7 1580.08,-303.7 1580.08,-312.1 1580.08,-312.1 1580.08,-316.3 1575.88,-320.5 1571.67,-320.5"/>
<text xml:space="preserve" text-anchor="middle" x="1505" y="-304.8" font-family="Helvetica,sans-Serif" font-size="8.00">CORE&#45;context&#45;budget&#45;forecasting &#45; M</text>
</g>
<!-- cool_ideas_CORE_conversation_primer -->
<g id="node12" class="node">
<title>cool_ideas_CORE_conversation_primer</title>
<path fill="#d4e8f7" stroke="black" d="M1711.67,-320.5C1711.67,-320.5 1602.33,-320.5 1602.33,-320.5 1598.12,-320.5 1593.92,-316.3 1593.92,-312.1 1593.92,-312.1 1593.92,-303.7 1593.92,-303.7 1593.92,-299.5 1598.12,-295.3 1602.33,-295.3 1602.33,-295.3 1711.67,-295.3 1711.67,-295.3 1715.88,-295.3 1720.08,-299.5 1720.08,-303.7 1720.08,-303.7 1720.08,-312.1 1720.08,-312.1 1720.08,-316.3 1715.88,-320.5 1711.67,-320.5"/>
<text xml:space="preserve" text-anchor="middle" x="1657" y="-304.8" font-family="Helvetica,sans-Serif" font-size="8.00">CORE&#45;conversation&#45;primer &#45; M</text>
</g>
<!-- cool_ideas_CORE_cross_session_resume -->
<g id="node13" class="node">
<title>cool_ideas_CORE_cross_session_resume</title>
<path fill="#d4e8f7" stroke="black" d="M1857.3,-320.5C1857.3,-320.5 1742.7,-320.5 1742.7,-320.5 1738.5,-320.5 1734.3,-316.3 1734.3,-312.1 1734.3,-312.1 1734.3,-303.7 1734.3,-303.7 1734.3,-299.5 1738.5,-295.3 1742.7,-295.3 1742.7,-295.3 1857.3,-295.3 1857.3,-295.3 1861.5,-295.3 1865.7,-299.5 1865.7,-303.7 1865.7,-303.7 1865.7,-312.1 1865.7,-312.1 1865.7,-316.3 1861.5,-320.5 1857.3,-320.5"/>
<text xml:space="preserve" text-anchor="middle" x="1800" y="-304.8" font-family="Helvetica,sans-Serif" font-size="8.00">CORE&#45;cross&#45;session&#45;resume &#45; S</text>
</g>
<!-- cool_ideas_CORE_graft_as_teacher -->
<g id="node14" class="node">
<title>cool_ideas_CORE_graft_as_teacher</title>
<path fill="#d4e8f7" stroke="black" d="M1982.17,-320.5C1982.17,-320.5 1887.83,-320.5 1887.83,-320.5 1883.62,-320.5 1879.42,-316.3 1879.42,-312.1 1879.42,-312.1 1879.42,-303.7 1879.42,-303.7 1879.42,-299.5 1883.62,-295.3 1887.83,-295.3 1887.83,-295.3 1982.17,-295.3 1982.17,-295.3 1986.38,-295.3 1990.58,-299.5 1990.58,-303.7 1990.58,-303.7 1990.58,-312.1 1990.58,-312.1 1990.58,-316.3 1986.38,-320.5 1982.17,-320.5"/>
<text xml:space="preserve" text-anchor="middle" x="1935" y="-304.8" font-family="Helvetica,sans-Serif" font-size="8.00">CORE&#45;graft&#45;as&#45;teacher &#45; S</text>
</g>
<!-- cool_ideas_CORE_graft_doctor -->
<g id="node15" class="node">
<title>cool_ideas_CORE_graft_doctor</title>
<path fill="#d4e8f7" stroke="black" d="M2093.05,-320.5C2093.05,-320.5 2012.95,-320.5 2012.95,-320.5 2008.75,-320.5 2004.55,-316.3 2004.55,-312.1 2004.55,-312.1 2004.55,-303.7 2004.55,-303.7 2004.55,-299.5 2008.75,-295.3 2012.95,-295.3 2012.95,-295.3 2093.05,-295.3 2093.05,-295.3 2097.25,-295.3 2101.45,-299.5 2101.45,-303.7 2101.45,-303.7 2101.45,-312.1 2101.45,-312.1 2101.45,-316.3 2097.25,-320.5 2093.05,-320.5"/>
<text xml:space="preserve" text-anchor="middle" x="2053" y="-304.8" font-family="Helvetica,sans-Serif" font-size="8.00">CORE&#45;graft&#45;doctor &#45; M</text>
</g>
<!-- cool_ideas_CORE_graft_teach_learning_receipts -->
<g id="node16" class="node">
<title>cool_ideas_CORE_graft_teach_learning_receipts</title>
<path fill="#d4e8f7" stroke="black" d="M2261.92,-320.5C2261.92,-320.5 2124.08,-320.5 2124.08,-320.5 2119.88,-320.5 2115.68,-316.3 2115.68,-312.1 2115.68,-312.1 2115.68,-303.7 2115.68,-303.7 2115.68,-299.5 2119.88,-295.3 2124.08,-295.3 2124.08,-295.3 2261.92,-295.3 2261.92,-295.3 2266.12,-295.3 2270.32,-299.5 2270.32,-303.7 2270.32,-303.7 2270.32,-312.1 2270.32,-312.1 2270.32,-316.3 2266.12,-320.5 2261.92,-320.5"/>
<text xml:space="preserve" text-anchor="middle" x="2193" y="-304.8" font-family="Helvetica,sans-Serif" font-size="8.00">CORE&#45;graft&#45;teach&#45;learning&#45;receipts &#45; S</text>
</g>
<!-- cool_ideas_CORE_horizon_of_readability -->
<g id="node17" class="node">
<title>cool_ideas_CORE_horizon_of_readability</title>
<path fill="#d4e8f7" stroke="black" d="M2405.55,-320.5C2405.55,-320.5 2292.45,-320.5 2292.45,-320.5 2288.25,-320.5 2284.05,-316.3 2284.05,-312.1 2284.05,-312.1 2284.05,-303.7 2284.05,-303.7 2284.05,-299.5 2288.25,-295.3 2292.45,-295.3 2292.45,-295.3 2405.55,-295.3 2405.55,-295.3 2409.75,-295.3 2413.95,-299.5 2413.95,-303.7 2413.95,-303.7 2413.95,-312.1 2413.95,-312.1 2413.95,-316.3 2409.75,-320.5 2405.55,-320.5"/>
<text xml:space="preserve" text-anchor="middle" x="2349" y="-304.8" font-family="Helvetica,sans-Serif" font-size="8.00">CORE&#45;horizon&#45;of&#45;readability &#45; M</text>
</g>
<!-- cool_ideas_CORE_lagrangian_policy -->
<g id="node18" class="node">
<title>cool_ideas_CORE_lagrangian_policy</title>
<path fill="#d4e8f7" stroke="black" d="M2537.55,-320.5C2537.55,-320.5 2436.45,-320.5 2436.45,-320.5 2432.25,-320.5 2428.05,-316.3 2428.05,-312.1 2428.05,-312.1 2428.05,-303.7 2428.05,-303.7 2428.05,-299.5 2432.25,-295.3 2436.45,-295.3 2436.45,-295.3 2537.55,-295.3 2537.55,-295.3 2541.75,-295.3 2545.95,-299.5 2545.95,-303.7 2545.95,-303.7 2545.95,-312.1 2545.95,-312.1 2545.95,-316.3 2541.75,-320.5 2537.55,-320.5"/>
<text xml:space="preserve" text-anchor="middle" x="2487" y="-304.8" font-family="Helvetica,sans-Serif" font-size="8.00">CORE&#45;lagrangian&#45;policy &#45; XL</text>
</g>
<!-- cool_ideas_CORE_migrate_to_slice_first_reads -->
<g id="node19" class="node">
<title>cool_ideas_CORE_migrate_to_slice_first_reads</title>
<path fill="#d4e8f7" stroke="black" d="M9721.8,-247.05C9721.8,-247.05 9604.2,-247.05 9604.2,-247.05 9600,-247.05 9595.8,-242.85 9595.8,-238.65 9595.8,-238.65 9595.8,-230.25 9595.8,-230.25 9595.8,-226.05 9600,-221.85 9604.2,-221.85 9604.2,-221.85 9721.8,-221.85 9721.8,-221.85 9726,-221.85 9730.2,-226.05 9730.2,-230.25 9730.2,-230.25 9730.2,-238.65 9730.2,-238.65 9730.2,-242.85 9726,-247.05 9721.8,-247.05"/>
<text xml:space="preserve" text-anchor="middle" x="9663" y="-231.35" font-family="Helvetica,sans-Serif" font-size="8.00">CORE&#45;migrate&#45;to&#45;slice&#45;first&#45;reads</text>
</g>
<!-- cool_ideas_CORE_multi_agent_conflict_detection -->
<g id="node20" class="node">
<title>cool_ideas_CORE_multi_agent_conflict_detection</title>
<path fill="#d4e8f7" stroke="black" d="M2705.92,-320.5C2705.92,-320.5 2568.08,-320.5 2568.08,-320.5 2563.88,-320.5 2559.68,-316.3 2559.68,-312.1 2559.68,-312.1 2559.68,-303.7 2559.68,-303.7 2559.68,-299.5 2563.88,-295.3 2568.08,-295.3 2568.08,-295.3 2705.92,-295.3 2705.92,-295.3 2710.12,-295.3 2714.32,-299.5 2714.32,-303.7 2714.32,-303.7 2714.32,-312.1 2714.32,-312.1 2714.32,-316.3 2710.12,-320.5 2705.92,-320.5"/>
<text xml:space="preserve" text-anchor="middle" x="2637" y="-304.8" font-family="Helvetica,sans-Serif" font-size="8.00">CORE&#45;multi&#45;agent&#45;conflict&#45;detection &#45; L</text>
</g>
<!-- cool_ideas_CORE_policy_playground -->
<g id="node21" class="node">
<title>cool_ideas_CORE_policy_playground</title>
<path fill="#d4e8f7" stroke="black" d="M2835.42,-320.5C2835.42,-320.5 2736.58,-320.5 2736.58,-320.5 2732.38,-320.5 2728.18,-316.3 2728.18,-312.1 2728.18,-312.1 2728.18,-303.7 2728.18,-303.7 2728.18,-299.5 2732.38,-295.3 2736.58,-295.3 2736.58,-295.3 2835.42,-295.3 2835.42,-295.3 2839.62,-295.3 2843.82,-299.5 2843.82,-303.7 2843.82,-303.7 2843.82,-312.1 2843.82,-312.1 2843.82,-316.3 2839.62,-320.5 2835.42,-320.5"/>
<text xml:space="preserve" text-anchor="middle" x="2786" y="-304.8" font-family="Helvetica,sans-Serif" font-size="8.00">CORE&#45;policy&#45;playground &#45; S</text>
</g>
<!-- cool_ideas_CORE_policy_profiles -->
<g id="node22" class="node">
<title>cool_ideas_CORE_policy_profiles</title>
<path fill="#d4e8f7" stroke="black" d="M2952.05,-320.5C2952.05,-320.5 2865.95,-320.5 2865.95,-320.5 2861.75,-320.5 2857.55,-316.3 2857.55,-312.1 2857.55,-312.1 2857.55,-303.7 2857.55,-303.7 2857.55,-299.5 2861.75,-295.3 2865.95,-295.3 2865.95,-295.3 2952.05,-295.3 2952.05,-295.3 2956.25,-295.3 2960.45,-299.5 2960.45,-303.7 2960.45,-303.7 2960.45,-312.1 2960.45,-312.1 2960.45,-316.3 2956.25,-320.5 2952.05,-320.5"/>
<text xml:space="preserve" text-anchor="middle" x="2909" y="-304.8" font-family="Helvetica,sans-Serif" font-size="8.00">CORE&#45;policy&#45;profiles &#45; M</text>
</g>
<!-- cool_ideas_CORE_pr_review_structural_summary -->
<g id="node23" class="node">
<title>cool_ideas_CORE_pr_review_structural_summary</title>
<path fill="#d4e8f7" stroke="black" d="M3126.92,-320.5C3126.92,-320.5 2983.08,-320.5 2983.08,-320.5 2978.88,-320.5 2974.68,-316.3 2974.68,-312.1 2974.68,-312.1 2974.68,-303.7 2974.68,-303.7 2974.68,-299.5 2978.88,-295.3 2983.08,-295.3 2983.08,-295.3 3126.92,-295.3 3126.92,-295.3 3131.12,-295.3 3135.32,-299.5 3135.32,-303.7 3135.32,-303.7 3135.32,-312.1 3135.32,-312.1 3135.32,-316.3 3131.12,-320.5 3126.92,-320.5"/>
<text xml:space="preserve" text-anchor="middle" x="3055" y="-304.8" font-family="Helvetica,sans-Serif" font-size="8.00">CORE&#45;pr&#45;review&#45;structural&#45;summary &#45; M</text>
</g>
<!-- cool_ideas_CORE_self_tuning_governor -->
<g id="node24" class="node">
<title>cool_ideas_CORE_self_tuning_governor</title>
<path fill="#d4e8f7" stroke="black" d="M3268.05,-320.5C3268.05,-320.5 3157.95,-320.5 3157.95,-320.5 3153.75,-320.5 3149.55,-316.3 3149.55,-312.1 3149.55,-312.1 3149.55,-303.7 3149.55,-303.7 3149.55,-299.5 3153.75,-295.3 3157.95,-295.3 3157.95,-295.3 3268.05,-295.3 3268.05,-295.3 3272.25,-295.3 3276.45,-299.5 3276.45,-303.7 3276.45,-303.7 3276.45,-312.1 3276.45,-312.1 3276.45,-316.3 3272.25,-320.5 3268.05,-320.5"/>
<text xml:space="preserve" text-anchor="middle" x="3213" y="-304.8" font-family="Helvetica,sans-Serif" font-size="8.00">CORE&#45;self&#45;tuning&#45;governor &#45; M</text>
</g>
<!-- cool_ideas_CORE_session_knowledge_map -->
<g id="node25" class="node">
<title>cool_ideas_CORE_session_knowledge_map</title>
<path fill="#d4e8f7" stroke="black" d="M3421.42,-320.5C3421.42,-320.5 3298.58,-320.5 3298.58,-320.5 3294.38,-320.5 3290.18,-316.3 3290.18,-312.1 3290.18,-312.1 3290.18,-303.7 3290.18,-303.7 3290.18,-299.5 3294.38,-295.3 3298.58,-295.3 3298.58,-295.3 3421.42,-295.3 3421.42,-295.3 3425.62,-295.3 3429.82,-299.5 3429.82,-303.7 3429.82,-303.7 3429.82,-312.1 3429.82,-312.1 3429.82,-316.3 3425.62,-320.5 3421.42,-320.5"/>
<text xml:space="preserve" text-anchor="middle" x="3360" y="-304.8" font-family="Helvetica,sans-Serif" font-size="8.00">CORE&#45;session&#45;knowledge&#45;map &#45; S</text>
</g>
<!-- cool_ideas_CORE_speculative_read_cost -->
<g id="node26" class="node">
<title>cool_ideas_CORE_speculative_read_cost</title>
<path fill="#d4e8f7" stroke="black" d="M3564.17,-320.5C3564.17,-320.5 3451.83,-320.5 3451.83,-320.5 3447.62,-320.5 3443.43,-316.3 3443.43,-312.1 3443.43,-312.1 3443.43,-303.7 3443.43,-303.7 3443.43,-299.5 3447.62,-295.3 3451.83,-295.3 3451.83,-295.3 3564.17,-295.3 3564.17,-295.3 3568.38,-295.3 3572.57,-299.5 3572.57,-303.7 3572.57,-303.7 3572.57,-312.1 3572.57,-312.1 3572.57,-316.3 3568.38,-320.5 3564.17,-320.5"/>
<text xml:space="preserve" text-anchor="middle" x="3508" y="-304.8" font-family="Helvetica,sans-Serif" font-size="8.00">CORE&#45;speculative&#45;read&#45;cost &#45; S</text>
</g>
<!-- cool_ideas_CORE_structural_session_replay -->
<g id="node27" class="node">
<title>cool_ideas_CORE_structural_session_replay</title>
<path fill="#d4e8f7" stroke="black" d="M3720.55,-320.5C3720.55,-320.5 3595.45,-320.5 3595.45,-320.5 3591.25,-320.5 3587.05,-316.3 3587.05,-312.1 3587.05,-312.1 3587.05,-303.7 3587.05,-303.7 3587.05,-299.5 3591.25,-295.3 3595.45,-295.3 3595.45,-295.3 3720.55,-295.3 3720.55,-295.3 3724.75,-295.3 3728.95,-299.5 3728.95,-303.7 3728.95,-303.7 3728.95,-312.1 3728.95,-312.1 3728.95,-316.3 3724.75,-320.5 3720.55,-320.5"/>
<text xml:space="preserve" text-anchor="middle" x="3658" y="-304.8" font-family="Helvetica,sans-Serif" font-size="8.00">CORE&#45;structural&#45;session&#45;replay &#45; M</text>
</g>
<!-- cool_ideas_CORE_structural_test_coverage_map -->
<g id="node28" class="node">
<title>cool_ideas_CORE_structural_test_coverage_map</title>
<path fill="#d4e8f7" stroke="black" d="M3892.8,-320.5C3892.8,-320.5 3751.2,-320.5 3751.2,-320.5 3747,-320.5 3742.8,-316.3 3742.8,-312.1 3742.8,-312.1 3742.8,-303.7 3742.8,-303.7 3742.8,-299.5 3747,-295.3 3751.2,-295.3 3751.2,-295.3 3892.8,-295.3 3892.8,-295.3 3897,-295.3 3901.2,-299.5 3901.2,-303.7 3901.2,-303.7 3901.2,-312.1 3901.2,-312.1 3901.2,-316.3 3897,-320.5 3892.8,-320.5"/>
<text xml:space="preserve" text-anchor="middle" x="3822" y="-304.8" font-family="Helvetica,sans-Serif" font-size="8.00">CORE&#45;structural&#45;test&#45;coverage&#45;map &#45; M</text>
</g>
<!-- cool_ideas_CORE_wire_primitives_into_runtime -->
<g id="node29" class="node">
<title>cool_ideas_CORE_wire_primitives_into_runtime</title>
<path fill="#d4e8f7" stroke="black" d="M4058.42,-320.5C4058.42,-320.5 3923.58,-320.5 3923.58,-320.5 3919.38,-320.5 3915.18,-316.3 3915.18,-312.1 3915.18,-312.1 3915.18,-303.7 3915.18,-303.7 3915.18,-299.5 3919.38,-295.3 3923.58,-295.3 3923.58,-295.3 4058.42,-295.3 4058.42,-295.3 4062.62,-295.3 4066.82,-299.5 4066.82,-303.7 4066.82,-303.7 4066.82,-312.1 4066.82,-312.1 4066.82,-316.3 4062.62,-320.5 4058.42,-320.5"/>
<text xml:space="preserve" text-anchor="middle" x="3991" y="-304.8" font-family="Helvetica,sans-Serif" font-size="8.00">CORE&#45;wire&#45;primitives&#45;into&#45;runtime &#45; M</text>
</g>
<!-- cool_ideas_monitor_tick_ceiling_tracking -->
<g id="node30" class="node">
<title>cool_ideas_monitor_tick_ceiling_tracking</title>
<path fill="#d4e8f7" stroke="black" d="M4196.55,-320.5C4196.55,-320.5 4089.45,-320.5 4089.45,-320.5 4085.25,-320.5 4081.05,-316.3 4081.05,-312.1 4081.05,-312.1 4081.05,-303.7 4081.05,-303.7 4081.05,-299.5 4085.25,-295.3 4089.45,-295.3 4089.45,-295.3 4196.55,-295.3 4196.55,-295.3 4200.75,-295.3 4204.95,-299.5 4204.95,-303.7 4204.95,-303.7 4204.95,-312.1 4204.95,-312.1 4204.95,-316.3 4200.75,-320.5 4196.55,-320.5"/>
<text xml:space="preserve" text-anchor="middle" x="4143" y="-304.8" font-family="Helvetica,sans-Serif" font-size="8.00">monitor&#45;tick&#45;ceiling&#45;tracking &#45; S</text>
</g>
<!-- cool_ideas_WARP_background_indexing -->
<g id="node46" class="node">
<title>cool_ideas_WARP_background_indexing</title>
<path fill="#d4e8f7" stroke="black" d="M4199.55,-247.05C4199.55,-247.05 4086.45,-247.05 4086.45,-247.05 4082.25,-247.05 4078.05,-242.85 4078.05,-238.65 4078.05,-238.65 4078.05,-230.25 4078.05,-230.25 4078.05,-226.05 4082.25,-221.85 4086.45,-221.85 4086.45,-221.85 4199.55,-221.85 4199.55,-221.85 4203.75,-221.85 4207.95,-226.05 4207.95,-230.25 4207.95,-230.25 4207.95,-238.65 4207.95,-238.65 4207.95,-242.85 4203.75,-247.05 4199.55,-247.05"/>
<text xml:space="preserve" text-anchor="middle" x="4143" y="-231.35" font-family="Helvetica,sans-Serif" font-size="8.00">WARP&#45;background&#45;indexing &#45; M</text>
</g>
<!-- cool_ideas_monitor_tick_ceiling_tracking&#45;&gt;cool_ideas_WARP_background_indexing -->
<g id="edge1" class="edge">
<title>cool_ideas_monitor_tick_ceiling_tracking&#45;&gt;cool_ideas_WARP_background_indexing</title>
<path fill="none" stroke="#666666" d="M4143,-295.1C4143,-283.9 4143,-266.88 4143,-253.88"/>
<polygon fill="#666666" stroke="#666666" points="4144.75,-254.02 4143,-249.02 4141.25,-254.02 4144.75,-254.02"/>
<text xml:space="preserve" text-anchor="middle" x="4174.5" y="-268.65" font-family="Helvetica,sans-Serif" font-size="7.00">blocked_by/blocking</text>
</g>
<!-- cool_ideas_SURFACE_active_causal_workspace_status -->
<g id="node31" class="node">
<title>cool_ideas_SURFACE_active_causal_workspace_status</title>
<path fill="#d4e8f7" stroke="black" d="M4391.05,-320.5C4391.05,-320.5 4226.95,-320.5 4226.95,-320.5 4222.75,-320.5 4218.55,-316.3 4218.55,-312.1 4218.55,-312.1 4218.55,-303.7 4218.55,-303.7 4218.55,-299.5 4222.75,-295.3 4226.95,-295.3 4226.95,-295.3 4391.05,-295.3 4391.05,-295.3 4395.25,-295.3 4399.45,-299.5 4399.45,-303.7 4399.45,-303.7 4399.45,-312.1 4399.45,-312.1 4399.45,-316.3 4395.25,-320.5 4391.05,-320.5"/>
<text xml:space="preserve" text-anchor="middle" x="4309" y="-304.8" font-family="Helvetica,sans-Serif" font-size="8.00">SURFACE&#45;active&#45;causal&#45;workspace&#45;status &#45; M</text>
</g>
<!-- cool_ideas_SURFACE_ide_native_graft_integration -->
<g id="node37" class="node">
<title>cool_ideas_SURFACE_ide_native_graft_integration</title>
<path fill="#d4e8f7" stroke="black" d="M4384.3,-247.05C4384.3,-247.05 4233.7,-247.05 4233.7,-247.05 4229.5,-247.05 4225.3,-242.85 4225.3,-238.65 4225.3,-238.65 4225.3,-230.25 4225.3,-230.25 4225.3,-226.05 4229.5,-221.85 4233.7,-221.85 4233.7,-221.85 4384.3,-221.85 4384.3,-221.85 4388.5,-221.85 4392.7,-226.05 4392.7,-230.25 4392.7,-230.25 4392.7,-238.65 4392.7,-238.65 4392.7,-242.85 4388.5,-247.05 4384.3,-247.05"/>
<text xml:space="preserve" text-anchor="middle" x="4309" y="-231.35" font-family="Helvetica,sans-Serif" font-size="8.00">SURFACE&#45;ide&#45;native&#45;graft&#45;integration &#45; XL</text>
</g>
<!-- cool_ideas_SURFACE_active_causal_workspace_status&#45;&gt;cool_ideas_SURFACE_ide_native_graft_integration -->
<g id="edge2" class="edge">
<title>cool_ideas_SURFACE_active_causal_workspace_status&#45;&gt;cool_ideas_SURFACE_ide_native_graft_integration</title>
<path fill="none" stroke="#666666" d="M4309,-295.1C4309,-283.9 4309,-266.88 4309,-253.88"/>
<polygon fill="#666666" stroke="#666666" points="4310.75,-254.02 4309,-249.02 4307.25,-254.02 4310.75,-254.02"/>
<text xml:space="preserve" text-anchor="middle" x="4340.5" y="-268.65" font-family="Helvetica,sans-Serif" font-size="7.00">blocked_by/blocking</text>
</g>
<!-- cool_ideas_SURFACE_attach_to_existing_causal_session -->
<g id="node32" class="node">
<title>cool_ideas_SURFACE_attach_to_existing_causal_session</title>
<path fill="#d4e8f7" stroke="black" d="M4590.3,-320.5C4590.3,-320.5 4421.7,-320.5 4421.7,-320.5 4417.5,-320.5 4413.3,-316.3 4413.3,-312.1 4413.3,-312.1 4413.3,-303.7 4413.3,-303.7 4413.3,-299.5 4417.5,-295.3 4421.7,-295.3 4421.7,-295.3 4590.3,-295.3 4590.3,-295.3 4594.5,-295.3 4598.7,-299.5 4598.7,-303.7 4598.7,-303.7 4598.7,-312.1 4598.7,-312.1 4598.7,-316.3 4594.5,-320.5 4590.3,-320.5"/>
<text xml:space="preserve" text-anchor="middle" x="4506" y="-304.8" font-family="Helvetica,sans-Serif" font-size="8.00">SURFACE&#45;attach&#45;to&#45;existing&#45;causal&#45;session &#45; M</text>
</g>
<!-- cool_ideas_SURFACE_bijou_daemon_control_plane_actions -->
<g id="node33" class="node">
<title>cool_ideas_SURFACE_bijou_daemon_control_plane_actions</title>
<path fill="#d4e8f7" stroke="black" d="M4798.43,-320.5C4798.43,-320.5 4621.57,-320.5 4621.57,-320.5 4617.38,-320.5 4613.18,-316.3 4613.18,-312.1 4613.18,-312.1 4613.18,-303.7 4613.18,-303.7 4613.18,-299.5 4617.38,-295.3 4621.57,-295.3 4621.57,-295.3 4798.43,-295.3 4798.43,-295.3 4802.62,-295.3 4806.82,-299.5 4806.82,-303.7 4806.82,-303.7 4806.82,-312.1 4806.82,-312.1 4806.82,-316.3 4802.62,-320.5 4798.43,-320.5"/>
<text xml:space="preserve" text-anchor="middle" x="4710" y="-304.8" font-family="Helvetica,sans-Serif" font-size="8.00">SURFACE&#45;bijou&#45;daemon&#45;control&#45;plane&#45;actions &#45; L</text>
</g>
<!-- cool_ideas_SURFACE_bijou_daemon_status_live_refresh -->
<g id="node34" class="node">
<title>cool_ideas_SURFACE_bijou_daemon_status_live_refresh</title>
<path fill="#d4e8f7" stroke="black" d="M4998.3,-320.5C4998.3,-320.5 4829.7,-320.5 4829.7,-320.5 4825.5,-320.5 4821.3,-316.3 4821.3,-312.1 4821.3,-312.1 4821.3,-303.7 4821.3,-303.7 4821.3,-299.5 4825.5,-295.3 4829.7,-295.3 4829.7,-295.3 4998.3,-295.3 4998.3,-295.3 5002.5,-295.3 5006.7,-299.5 5006.7,-303.7 5006.7,-303.7 5006.7,-312.1 5006.7,-312.1 5006.7,-316.3 5002.5,-320.5 4998.3,-320.5"/>
<text xml:space="preserve" text-anchor="middle" x="4914" y="-304.8" font-family="Helvetica,sans-Serif" font-size="8.00">SURFACE&#45;bijou&#45;daemon&#45;status&#45;live&#45;refresh &#45; M</text>
</g>
<!-- cool_ideas_SURFACE_git_graft_enhance_expanded_git_subcommands -->
<g id="node35" class="node">
<title>cool_ideas_SURFACE_git_graft_enhance_expanded_git_subcommands</title>
<path fill="#d4e8f7" stroke="black" d="M5233.3,-320.5C5233.3,-320.5 5028.7,-320.5 5028.7,-320.5 5024.5,-320.5 5020.3,-316.3 5020.3,-312.1 5020.3,-312.1 5020.3,-303.7 5020.3,-303.7 5020.3,-299.5 5024.5,-295.3 5028.7,-295.3 5028.7,-295.3 5233.3,-295.3 5233.3,-295.3 5237.5,-295.3 5241.7,-299.5 5241.7,-303.7 5241.7,-303.7 5241.7,-312.1 5241.7,-312.1 5241.7,-316.3 5237.5,-320.5 5233.3,-320.5"/>
<text xml:space="preserve" text-anchor="middle" x="5131" y="-304.8" font-family="Helvetica,sans-Serif" font-size="8.00">SURFACE&#45;git&#45;graft&#45;enhance&#45;expanded&#45;git&#45;subcommands</text>
</g>
<!-- cool_ideas_SURFACE_git_graft_enhance_provenance_hints -->
<g id="node36" class="node">
<title>cool_ideas_SURFACE_git_graft_enhance_provenance_hints</title>
<path fill="#d4e8f7" stroke="black" d="M5429.43,-320.5C5429.43,-320.5 5264.57,-320.5 5264.57,-320.5 5260.38,-320.5 5256.18,-316.3 5256.18,-312.1 5256.18,-312.1 5256.18,-303.7 5256.18,-303.7 5256.18,-299.5 5260.38,-295.3 5264.57,-295.3 5264.57,-295.3 5429.43,-295.3 5429.43,-295.3 5433.62,-295.3 5437.82,-299.5 5437.82,-303.7 5437.82,-303.7 5437.82,-312.1 5437.82,-312.1 5437.82,-316.3 5433.62,-320.5 5429.43,-320.5"/>
<text xml:space="preserve" text-anchor="middle" x="5347" y="-304.8" font-family="Helvetica,sans-Serif" font-size="8.00">SURFACE&#45;git&#45;graft&#45;enhance&#45;provenance&#45;hints</text>
</g>
<!-- cool_ideas_SURFACE_local_history_dag_render_mode_and_count_legend -->
<g id="node38" class="node">
<title>cool_ideas_SURFACE_local_history_dag_render_mode_and_count_legend</title>
<path fill="#d4e8f7" stroke="black" d="M5686.18,-320.5C5686.18,-320.5 5459.82,-320.5 5459.82,-320.5 5455.62,-320.5 5451.43,-316.3 5451.43,-312.1 5451.43,-312.1 5451.43,-303.7 5451.43,-303.7 5451.43,-299.5 5455.62,-295.3 5459.82,-295.3 5459.82,-295.3 5686.18,-295.3 5686.18,-295.3 5690.38,-295.3 5694.57,-299.5 5694.57,-303.7 5694.57,-303.7 5694.57,-312.1 5694.57,-312.1 5694.57,-316.3 5690.38,-320.5 5686.18,-320.5"/>
<text xml:space="preserve" text-anchor="middle" x="5573" y="-304.8" font-family="Helvetica,sans-Serif" font-size="8.00">SURFACE&#45;local&#45;history&#45;dag&#45;render&#45;mode&#45;and&#45;count&#45;legend &#45; S</text>
</g>
<!-- cool_ideas_SURFACE_non_codex_instruction_bootstrap_parity -->
<g id="node39" class="node">
<title>cool_ideas_SURFACE_non_codex_instruction_bootstrap_parity</title>
<path fill="#d4e8f7" stroke="black" d="M5905.43,-320.5C5905.43,-320.5 5716.57,-320.5 5716.57,-320.5 5712.38,-320.5 5708.18,-316.3 5708.18,-312.1 5708.18,-312.1 5708.18,-303.7 5708.18,-303.7 5708.18,-299.5 5712.38,-295.3 5716.57,-295.3 5716.57,-295.3 5905.43,-295.3 5905.43,-295.3 5909.62,-295.3 5913.82,-299.5 5913.82,-303.7 5913.82,-303.7 5913.82,-312.1 5913.82,-312.1 5913.82,-316.3 5909.62,-320.5 5905.43,-320.5"/>
<text xml:space="preserve" text-anchor="middle" x="5811" y="-304.8" font-family="Helvetica,sans-Serif" font-size="8.00">SURFACE&#45;non&#45;codex&#45;instruction&#45;bootstrap&#45;parity &#45; M</text>
</g>
<!-- cool_ideas_SURFACE_offer_rename_refactor -->
<g id="node40" class="node">
<title>cool_ideas_SURFACE_offer_rename_refactor</title>
<path fill="#d4e8f7" stroke="black" d="M6065.43,-320.5C6065.43,-320.5 5936.57,-320.5 5936.57,-320.5 5932.38,-320.5 5928.18,-316.3 5928.18,-312.1 5928.18,-312.1 5928.18,-303.7 5928.18,-303.7 5928.18,-299.5 5932.38,-295.3 5936.57,-295.3 5936.57,-295.3 6065.43,-295.3 6065.43,-295.3 6069.62,-295.3 6073.82,-299.5 6073.82,-303.7 6073.82,-303.7 6073.82,-312.1 6073.82,-312.1 6073.82,-316.3 6069.62,-320.5 6065.43,-320.5"/>
<text xml:space="preserve" text-anchor="middle" x="6001" y="-304.8" font-family="Helvetica,sans-Serif" font-size="8.00">SURFACE&#45;offer&#45;rename&#45;refactor &#45; L</text>
</g>
<!-- cool_ideas_SURFACE_terminal_activity_browser_tui -->
<g id="node41" class="node">
<title>cool_ideas_SURFACE_terminal_activity_browser_tui</title>
<path fill="#d4e8f7" stroke="black" d="M6245.55,-320.5C6245.55,-320.5 6096.45,-320.5 6096.45,-320.5 6092.25,-320.5 6088.05,-316.3 6088.05,-312.1 6088.05,-312.1 6088.05,-303.7 6088.05,-303.7 6088.05,-299.5 6092.25,-295.3 6096.45,-295.3 6096.45,-295.3 6245.55,-295.3 6245.55,-295.3 6249.75,-295.3 6253.95,-299.5 6253.95,-303.7 6253.95,-303.7 6253.95,-312.1 6253.95,-312.1 6253.95,-316.3 6249.75,-320.5 6245.55,-320.5"/>
<text xml:space="preserve" text-anchor="middle" x="6171" y="-304.8" font-family="Helvetica,sans-Serif" font-size="8.00">SURFACE&#45;terminal&#45;activity&#45;browser&#45;tui &#45; L</text>
</g>
<!-- cool_ideas_traverse_plus_query_hydration_helper -->
<g id="node42" class="node">
<title>cool_ideas_traverse_plus_query_hydration_helper</title>
<path fill="#d4e8f7" stroke="black" d="M6417.8,-320.5C6417.8,-320.5 6276.2,-320.5 6276.2,-320.5 6272,-320.5 6267.8,-316.3 6267.8,-312.1 6267.8,-312.1 6267.8,-303.7 6267.8,-303.7 6267.8,-299.5 6272,-295.3 6276.2,-295.3 6276.2,-295.3 6417.8,-295.3 6417.8,-295.3 6422,-295.3 6426.2,-299.5 6426.2,-303.7 6426.2,-303.7 6426.2,-312.1 6426.2,-312.1 6426.2,-316.3 6422,-320.5 6417.8,-320.5"/>
<text xml:space="preserve" text-anchor="middle" x="6347" y="-304.8" font-family="Helvetica,sans-Serif" font-size="8.00">traverse&#45;plus&#45;query&#45;hydration&#45;helper &#45; S</text>
</g>
<!-- cool_ideas_WARP_adaptive_projection_selection -->
<g id="node43" class="node">
<title>cool_ideas_WARP_adaptive_projection_selection</title>
<path fill="#d4e8f7" stroke="black" d="M6586.93,-320.5C6586.93,-320.5 6449.07,-320.5 6449.07,-320.5 6444.88,-320.5 6440.68,-316.3 6440.68,-312.1 6440.68,-312.1 6440.68,-303.7 6440.68,-303.7 6440.68,-299.5 6444.88,-295.3 6449.07,-295.3 6449.07,-295.3 6586.93,-295.3 6586.93,-295.3 6591.12,-295.3 6595.32,-299.5 6595.32,-303.7 6595.32,-303.7 6595.32,-312.1 6595.32,-312.1 6595.32,-316.3 6591.12,-320.5 6586.93,-320.5"/>
<text xml:space="preserve" text-anchor="middle" x="6518" y="-304.8" font-family="Helvetica,sans-Serif" font-size="8.00">WARP&#45;adaptive&#45;projection&#45;selection &#45; L</text>
</g>
<!-- cool_ideas_WARP_agent_action_provenance -->
<g id="node44" class="node">
<title>cool_ideas_WARP_agent_action_provenance</title>
<path fill="#d4e8f7" stroke="black" d="M6748.55,-320.5C6748.55,-320.5 6617.45,-320.5 6617.45,-320.5 6613.25,-320.5 6609.05,-316.3 6609.05,-312.1 6609.05,-312.1 6609.05,-303.7 6609.05,-303.7 6609.05,-299.5 6613.25,-295.3 6617.45,-295.3 6617.45,-295.3 6748.55,-295.3 6748.55,-295.3 6752.75,-295.3 6756.95,-299.5 6756.95,-303.7 6756.95,-303.7 6756.95,-312.1 6756.95,-312.1 6756.95,-316.3 6752.75,-320.5 6748.55,-320.5"/>
<text xml:space="preserve" text-anchor="middle" x="6683" y="-304.8" font-family="Helvetica,sans-Serif" font-size="8.00">WARP&#45;agent&#45;action&#45;provenance &#45; XL</text>
</g>
<!-- cool_ideas_WARP_agent_action_provenance&#45;&gt;cool_ideas_CI_001_causal_collapse_visualizer -->
<g id="edge3" class="edge">
<title>cool_ideas_WARP_agent_action_provenance&#45;&gt;cool_ideas_CI_001_causal_collapse_visualizer</title>
<path fill="none" stroke="#666666" d="M6708.81,-294.81C6721.04,-289.01 6735.83,-281.9 6749,-275.3 6764.99,-267.28 6782.7,-258.02 6797,-250.44"/>
<polygon fill="#666666" stroke="#666666" points="6797.57,-252.12 6801.16,-248.23 6795.92,-249.03 6797.57,-252.12"/>
<text xml:space="preserve" text-anchor="middle" x="6795.14" y="-268.65" font-family="Helvetica,sans-Serif" font-size="7.00">blocked_by/blocking</text>
</g>
<!-- cool_ideas_WARP_causal_write_tracking -->
<g id="node49" class="node">
<title>cool_ideas_WARP_causal_write_tracking</title>
<path fill="#d4e8f7" stroke="black" d="M6441.05,-247.05C6441.05,-247.05 6330.95,-247.05 6330.95,-247.05 6326.75,-247.05 6322.55,-242.85 6322.55,-238.65 6322.55,-238.65 6322.55,-230.25 6322.55,-230.25 6322.55,-226.05 6326.75,-221.85 6330.95,-221.85 6330.95,-221.85 6441.05,-221.85 6441.05,-221.85 6445.25,-221.85 6449.45,-226.05 6449.45,-230.25 6449.45,-230.25 6449.45,-238.65 6449.45,-238.65 6449.45,-242.85 6445.25,-247.05 6441.05,-247.05"/>
<text xml:space="preserve" text-anchor="middle" x="6386" y="-231.35" font-family="Helvetica,sans-Serif" font-size="8.00">WARP&#45;causal&#45;write&#45;tracking &#45; L</text>
</g>
<!-- cool_ideas_WARP_agent_action_provenance&#45;&gt;cool_ideas_WARP_causal_write_tracking -->
<g id="edge4" class="edge">
<title>cool_ideas_WARP_agent_action_provenance&#45;&gt;cool_ideas_WARP_causal_write_tracking</title>
<path fill="none" stroke="#666666" d="M6635.13,-294.83C6624.27,-292.23 6612.76,-289.58 6602,-287.3 6572.83,-281.12 6565.1,-281.8 6536,-275.3 6501.63,-267.62 6463.25,-257.4 6433.92,-249.23"/>
<polygon fill="#666666" stroke="#666666" points="6434.55,-247.58 6429.26,-247.92 6433.61,-250.96 6434.55,-247.58"/>
<text xml:space="preserve" text-anchor="middle" x="6567.5" y="-268.65" font-family="Helvetica,sans-Serif" font-size="7.00">blocked_by/blocking</text>
</g>
<!-- cool_ideas_WARP_intent_and_decision_events -->
<g id="node59" class="node">
<title>cool_ideas_WARP_intent_and_decision_events</title>
<path fill="#d4e8f7" stroke="black" d="M6604.3,-247.05C6604.3,-247.05 6471.7,-247.05 6471.7,-247.05 6467.5,-247.05 6463.3,-242.85 6463.3,-238.65 6463.3,-238.65 6463.3,-230.25 6463.3,-230.25 6463.3,-226.05 6467.5,-221.85 6471.7,-221.85 6471.7,-221.85 6604.3,-221.85 6604.3,-221.85 6608.5,-221.85 6612.7,-226.05 6612.7,-230.25 6612.7,-230.25 6612.7,-238.65 6612.7,-238.65 6612.7,-242.85 6608.5,-247.05 6604.3,-247.05"/>
<text xml:space="preserve" text-anchor="middle" x="6538" y="-231.35" font-family="Helvetica,sans-Serif" font-size="8.00">WARP&#45;intent&#45;and&#45;decision&#45;events &#45; M</text>
</g>
<!-- cool_ideas_WARP_agent_action_provenance&#45;&gt;cool_ideas_WARP_intent_and_decision_events -->
<g id="edge5" class="edge">
<title>cool_ideas_WARP_agent_action_provenance&#45;&gt;cool_ideas_WARP_intent_and_decision_events</title>
<path fill="none" stroke="#666666" d="M6657.55,-294.87C6645.27,-289.02 6630.34,-281.86 6617,-275.3 6600.45,-267.16 6582.05,-257.89 6567.17,-250.34"/>
<polygon fill="#666666" stroke="#666666" points="6568.04,-248.83 6562.79,-248.12 6566.46,-251.95 6568.04,-248.83"/>
<text xml:space="preserve" text-anchor="middle" x="6648.5" y="-268.65" font-family="Helvetica,sans-Serif" font-size="7.00">blocked_by/blocking</text>
</g>
<!-- cool_ideas_WARP_provenance_dag -->
<g id="node65" class="node">
<title>cool_ideas_WARP_provenance_dag</title>
<path fill="#d4e8f7" stroke="black" d="M6730.55,-247.05C6730.55,-247.05 6635.45,-247.05 6635.45,-247.05 6631.25,-247.05 6627.05,-242.85 6627.05,-238.65 6627.05,-238.65 6627.05,-230.25 6627.05,-230.25 6627.05,-226.05 6631.25,-221.85 6635.45,-221.85 6635.45,-221.85 6730.55,-221.85 6730.55,-221.85 6734.75,-221.85 6738.95,-226.05 6738.95,-230.25 6738.95,-230.25 6738.95,-238.65 6738.95,-238.65 6738.95,-242.85 6734.75,-247.05 6730.55,-247.05"/>
<text xml:space="preserve" text-anchor="middle" x="6683" y="-231.35" font-family="Helvetica,sans-Serif" font-size="8.00">WARP&#45;provenance&#45;dag &#45; L</text>
</g>
<!-- cool_ideas_WARP_agent_action_provenance&#45;&gt;cool_ideas_WARP_provenance_dag -->
<g id="edge6" class="edge">
<title>cool_ideas_WARP_agent_action_provenance&#45;&gt;cool_ideas_WARP_provenance_dag</title>
<path fill="none" stroke="#666666" d="M6683,-295.1C6683,-283.9 6683,-266.88 6683,-253.88"/>
<polygon fill="#666666" stroke="#666666" points="6684.75,-254.02 6683,-249.02 6681.25,-254.02 6684.75,-254.02"/>
<text xml:space="preserve" text-anchor="middle" x="6714.5" y="-268.65" font-family="Helvetica,sans-Serif" font-size="7.00">blocked_by/blocking</text>
</g>
<!-- cool_ideas_WARP_auto_breaking_change_detection -->
<g id="node45" class="node">
<title>cool_ideas_WARP_auto_breaking_change_detection</title>
<path fill="#d4e8f7" stroke="black" d="M9903.3,-247.05C9903.3,-247.05 9752.7,-247.05 9752.7,-247.05 9748.5,-247.05 9744.3,-242.85 9744.3,-238.65 9744.3,-238.65 9744.3,-230.25 9744.3,-230.25 9744.3,-226.05 9748.5,-221.85 9752.7,-221.85 9752.7,-221.85 9903.3,-221.85 9903.3,-221.85 9907.5,-221.85 9911.7,-226.05 9911.7,-230.25 9911.7,-230.25 9911.7,-238.65 9911.7,-238.65 9911.7,-242.85 9907.5,-247.05 9903.3,-247.05"/>
<text xml:space="preserve" text-anchor="middle" x="9828" y="-231.35" font-family="Helvetica,sans-Serif" font-size="8.00">WARP&#45;auto&#45;breaking&#45;change&#45;detection &#45; L</text>
</g>
<!-- cool_ideas_WARP_budget_elasticity -->
<g id="node47" class="node">
<title>cool_ideas_WARP_budget_elasticity</title>
<path fill="#d4e8f7" stroke="black" d="M6874.93,-320.5C6874.93,-320.5 6779.07,-320.5 6779.07,-320.5 6774.88,-320.5 6770.68,-316.3 6770.68,-312.1 6770.68,-312.1 6770.68,-303.7 6770.68,-303.7 6770.68,-299.5 6774.88,-295.3 6779.07,-295.3 6779.07,-295.3 6874.93,-295.3 6874.93,-295.3 6879.12,-295.3 6883.32,-299.5 6883.32,-303.7 6883.32,-303.7 6883.32,-312.1 6883.32,-312.1 6883.32,-316.3 6879.12,-320.5 6874.93,-320.5"/>
<text xml:space="preserve" text-anchor="middle" x="6827" y="-304.8" font-family="Helvetica,sans-Serif" font-size="8.00">WARP&#45;budget&#45;elasticity &#45; M</text>
</g>
<!-- cool_ideas_WARP_causal_blame_for_staged_artifacts -->
<g id="node48" class="node">
<title>cool_ideas_WARP_causal_blame_for_staged_artifacts</title>
<path fill="#d4e8f7" stroke="black" d="M6834.18,-173.6C6834.18,-173.6 6679.82,-173.6 6679.82,-173.6 6675.62,-173.6 6671.43,-169.4 6671.43,-165.2 6671.43,-165.2 6671.43,-156.8 6671.43,-156.8 6671.43,-152.6 6675.62,-148.4 6679.82,-148.4 6679.82,-148.4 6834.18,-148.4 6834.18,-148.4 6838.38,-148.4 6842.57,-152.6 6842.57,-156.8 6842.57,-156.8 6842.57,-165.2 6842.57,-165.2 6842.57,-169.4 6838.38,-173.6 6834.18,-173.6"/>
<text xml:space="preserve" text-anchor="middle" x="6757" y="-157.9" font-family="Helvetica,sans-Serif" font-size="8.00">WARP&#45;causal&#45;blame&#45;for&#45;staged&#45;artifacts &#45; L</text>
</g>
<!-- cool_ideas_WARP_codebase_entropy_trajectory -->
<g id="node50" class="node">
<title>cool_ideas_WARP_codebase_entropy_trajectory</title>
<path fill="#d4e8f7" stroke="black" d="M7044.68,-320.5C7044.68,-320.5 6905.32,-320.5 6905.32,-320.5 6901.12,-320.5 6896.93,-316.3 6896.93,-312.1 6896.93,-312.1 6896.93,-303.7 6896.93,-303.7 6896.93,-299.5 6901.12,-295.3 6905.32,-295.3 6905.32,-295.3 7044.68,-295.3 7044.68,-295.3 7048.88,-295.3 7053.07,-299.5 7053.07,-303.7 7053.07,-303.7 7053.07,-312.1 7053.07,-312.1 7053.07,-316.3 7048.88,-320.5 7044.68,-320.5"/>
<text xml:space="preserve" text-anchor="middle" x="6975" y="-304.8" font-family="Helvetica,sans-Serif" font-size="8.00">WARP&#45;codebase&#45;entropy&#45;trajectory &#45; M</text>
</g>
<!-- cool_ideas_WARP_counterfactual_refactoring -->
<g id="node52" class="node">
<title>cool_ideas_WARP_counterfactual_refactoring</title>
<path fill="#d4e8f7" stroke="black" d="M7052.68,-247.05C7052.68,-247.05 6919.32,-247.05 6919.32,-247.05 6915.12,-247.05 6910.93,-242.85 6910.93,-238.65 6910.93,-238.65 6910.93,-230.25 6910.93,-230.25 6910.93,-226.05 6915.12,-221.85 6919.32,-221.85 6919.32,-221.85 7052.68,-221.85 7052.68,-221.85 7056.88,-221.85 7061.07,-226.05 7061.07,-230.25 7061.07,-230.25 7061.07,-238.65 7061.07,-238.65 7061.07,-242.85 7056.88,-247.05 7052.68,-247.05"/>
<text xml:space="preserve" text-anchor="middle" x="6986" y="-231.35" font-family="Helvetica,sans-Serif" font-size="8.00">WARP&#45;counterfactual&#45;refactoring &#45; XL</text>
</g>
<!-- cool_ideas_WARP_codebase_entropy_trajectory&#45;&gt;cool_ideas_WARP_counterfactual_refactoring -->
<g id="edge7" class="edge">
<title>cool_ideas_WARP_codebase_entropy_trajectory&#45;&gt;cool_ideas_WARP_counterfactual_refactoring</title>
<path fill="none" stroke="#666666" d="M6976.82,-295.1C6978.54,-283.9 6981.16,-266.88 6983.16,-253.88"/>
<polygon fill="#666666" stroke="#666666" points="6984.88,-254.21 6983.91,-249 6981.42,-253.68 6984.88,-254.21"/>
<text xml:space="preserve" text-anchor="middle" x="7012.33" y="-268.65" font-family="Helvetica,sans-Serif" font-size="7.00">blocked_by/blocking</text>
</g>
<!-- cool_ideas_WARP_codebase_signature -->
<g id="node51" class="node">
<title>cool_ideas_WARP_codebase_signature</title>
<path fill="#d4e8f7" stroke="black" d="M7182.55,-320.5C7182.55,-320.5 7075.45,-320.5 7075.45,-320.5 7071.25,-320.5 7067.05,-316.3 7067.05,-312.1 7067.05,-312.1 7067.05,-303.7 7067.05,-303.7 7067.05,-299.5 7071.25,-295.3 7075.45,-295.3 7075.45,-295.3 7182.55,-295.3 7182.55,-295.3 7186.75,-295.3 7190.95,-299.5 7190.95,-303.7 7190.95,-303.7 7190.95,-312.1 7190.95,-312.1 7190.95,-316.3 7186.75,-320.5 7182.55,-320.5"/>
<text xml:space="preserve" text-anchor="middle" x="7129" y="-304.8" font-family="Helvetica,sans-Serif" font-size="8.00">WARP&#45;codebase&#45;signature &#45; L</text>
</g>
<!-- cool_ideas_WARP_structural_impact_prediction -->
<g id="node75" class="node">
<title>cool_ideas_WARP_structural_impact_prediction</title>
<path fill="#d4e8f7" stroke="black" d="M7055.3,-173.6C7055.3,-173.6 6916.7,-173.6 6916.7,-173.6 6912.5,-173.6 6908.3,-169.4 6908.3,-165.2 6908.3,-165.2 6908.3,-156.8 6908.3,-156.8 6908.3,-152.6 6912.5,-148.4 6916.7,-148.4 6916.7,-148.4 7055.3,-148.4 7055.3,-148.4 7059.5,-148.4 7063.7,-152.6 7063.7,-156.8 7063.7,-156.8 7063.7,-165.2 7063.7,-165.2 7063.7,-169.4 7059.5,-173.6 7055.3,-173.6"/>
<text xml:space="preserve" text-anchor="middle" x="6986" y="-157.9" font-family="Helvetica,sans-Serif" font-size="8.00">WARP&#45;structural&#45;impact&#45;prediction &#45; XL</text>
</g>
<!-- cool_ideas_WARP_counterfactual_refactoring&#45;&gt;cool_ideas_WARP_structural_impact_prediction -->
<g id="edge8" class="edge">
<title>cool_ideas_WARP_counterfactual_refactoring&#45;&gt;cool_ideas_WARP_structural_impact_prediction</title>
<path fill="none" stroke="#666666" d="M6986,-221.65C6986,-210.45 6986,-193.43 6986,-180.43"/>
<polygon fill="#666666" stroke="#666666" points="6987.75,-180.57 6986,-175.57 6984.25,-180.57 6987.75,-180.57"/>
<text xml:space="preserve" text-anchor="middle" x="7017.5" y="-195.2" font-family="Helvetica,sans-Serif" font-size="7.00">blocked_by/blocking</text>
</g>
<!-- cool_ideas_WARP_dead_symbol_detection -->
<g id="node53" class="node">
<title>cool_ideas_WARP_dead_symbol_detection</title>
<path fill="#d4e8f7" stroke="black" d="M7332.18,-320.5C7332.18,-320.5 7213.82,-320.5 7213.82,-320.5 7209.62,-320.5 7205.43,-316.3 7205.43,-312.1 7205.43,-312.1 7205.43,-303.7 7205.43,-303.7 7205.43,-299.5 7209.62,-295.3 7213.82,-295.3 7213.82,-295.3 7332.18,-295.3 7332.18,-295.3 7336.38,-295.3 7340.57,-299.5 7340.57,-303.7 7340.57,-303.7 7340.57,-312.1 7340.57,-312.1 7340.57,-316.3 7336.38,-320.5 7332.18,-320.5"/>
<text xml:space="preserve" text-anchor="middle" x="7273" y="-304.8" font-family="Helvetica,sans-Serif" font-size="8.00">WARP&#45;dead&#45;symbol&#45;detection &#45; S</text>
</g>
<!-- cool_ideas_WARP_degeneracy_warning -->
<g id="node54" class="node">
<title>cool_ideas_WARP_degeneracy_warning</title>
<path fill="#d4e8f7" stroke="black" d="M7475.18,-320.5C7475.18,-320.5 7362.82,-320.5 7362.82,-320.5 7358.62,-320.5 7354.43,-316.3 7354.43,-312.1 7354.43,-312.1 7354.43,-303.7 7354.43,-303.7 7354.43,-299.5 7358.62,-295.3 7362.82,-295.3 7362.82,-295.3 7475.18,-295.3 7475.18,-295.3 7479.38,-295.3 7483.57,-299.5 7483.57,-303.7 7483.57,-303.7 7483.57,-312.1 7483.57,-312.1 7483.57,-316.3 7479.38,-320.5 7475.18,-320.5"/>
<text xml:space="preserve" text-anchor="middle" x="7419" y="-304.8" font-family="Helvetica,sans-Serif" font-size="8.00">WARP&#45;degeneracy&#45;warning &#45; M</text>
</g>
<!-- cool_ideas_WARP_drift_sentinel -->
<g id="node55" class="node">
<title>cool_ideas_WARP_drift_sentinel</title>
<path fill="#d4e8f7" stroke="black" d="M9409.18,-247.05C9409.18,-247.05 9326.82,-247.05 9326.82,-247.05 9322.62,-247.05 9318.42,-242.85 9318.42,-238.65 9318.42,-238.65 9318.42,-230.25 9318.42,-230.25 9318.42,-226.05 9322.62,-221.85 9326.82,-221.85 9326.82,-221.85 9409.18,-221.85 9409.18,-221.85 9413.38,-221.85 9417.58,-226.05 9417.58,-230.25 9417.58,-230.25 9417.58,-238.65 9417.58,-238.65 9417.58,-242.85 9413.38,-247.05 9409.18,-247.05"/>
<text xml:space="preserve" text-anchor="middle" x="9368" y="-231.35" font-family="Helvetica,sans-Serif" font-size="8.00">WARP&#45;drift&#45;sentinel &#45; M</text>
</g>
<!-- cool_ideas_WARP_footprint_parallelism -->
<g id="node56" class="node">
<title>cool_ideas_WARP_footprint_parallelism</title>
<path fill="#d4e8f7" stroke="black" d="M7617.8,-320.5C7617.8,-320.5 7506.2,-320.5 7506.2,-320.5 7502,-320.5 7497.8,-316.3 7497.8,-312.1 7497.8,-312.1 7497.8,-303.7 7497.8,-303.7 7497.8,-299.5 7502,-295.3 7506.2,-295.3 7506.2,-295.3 7617.8,-295.3 7617.8,-295.3 7622,-295.3 7626.2,-299.5 7626.2,-303.7 7626.2,-303.7 7626.2,-312.1 7626.2,-312.1 7626.2,-316.3 7622,-320.5 7617.8,-320.5"/>
<text xml:space="preserve" text-anchor="middle" x="7562" y="-304.8" font-family="Helvetica,sans-Serif" font-size="8.00">WARP&#45;footprint&#45;parallelism &#45; XL</text>
</g>
<!-- cool_ideas_WARP_graft_pack -->
<g id="node57" class="node">
<title>cool_ideas_WARP_graft_pack</title>
<path fill="#d4e8f7" stroke="black" d="M7723.43,-320.5C7723.43,-320.5 7648.57,-320.5 7648.57,-320.5 7644.38,-320.5 7640.18,-316.3 7640.18,-312.1 7640.18,-312.1 7640.18,-303.7 7640.18,-303.7 7640.18,-299.5 7644.38,-295.3 7648.57,-295.3 7648.57,-295.3 7723.43,-295.3 7723.43,-295.3 7727.62,-295.3 7731.82,-299.5 7731.82,-303.7 7731.82,-303.7 7731.82,-312.1 7731.82,-312.1 7731.82,-316.3 7727.62,-320.5 7723.43,-320.5"/>
<text xml:space="preserve" text-anchor="middle" x="7686" y="-304.8" font-family="Helvetica,sans-Serif" font-size="8.00">WARP&#45;graft&#45;pack &#45; M</text>
</g>
<!-- cool_ideas_WARP_grouped_aggregate_queries -->
<g id="node58" class="node">
<title>cool_ideas_WARP_grouped_aggregate_queries</title>
<path fill="#d4e8f7" stroke="black" d="M7891.93,-320.5C7891.93,-320.5 7754.07,-320.5 7754.07,-320.5 7749.88,-320.5 7745.68,-316.3 7745.68,-312.1 7745.68,-312.1 7745.68,-303.7 7745.68,-303.7 7745.68,-299.5 7749.88,-295.3 7754.07,-295.3 7754.07,-295.3 7891.93,-295.3 7891.93,-295.3 7896.12,-295.3 7900.32,-299.5 7900.32,-303.7 7900.32,-303.7 7900.32,-312.1 7900.32,-312.1 7900.32,-316.3 7896.12,-320.5 7891.93,-320.5"/>
<text xml:space="preserve" text-anchor="middle" x="7823" y="-304.8" font-family="Helvetica,sans-Serif" font-size="8.00">WARP&#45;grouped&#45;aggregate&#45;queries &#45; M</text>
</g>
<!-- cool_ideas_WARP_intentional_degeneracy_privacy -->
<g id="node60" class="node">
<title>cool_ideas_WARP_intentional_degeneracy_privacy</title>
<path fill="#d4e8f7" stroke="black" d="M8070.8,-320.5C8070.8,-320.5 7923.2,-320.5 7923.2,-320.5 7919,-320.5 7914.8,-316.3 7914.8,-312.1 7914.8,-312.1 7914.8,-303.7 7914.8,-303.7 7914.8,-299.5 7919,-295.3 7923.2,-295.3 7923.2,-295.3 8070.8,-295.3 8070.8,-295.3 8075,-295.3 8079.2,-299.5 8079.2,-303.7 8079.2,-303.7 8079.2,-312.1 8079.2,-312.1 8079.2,-316.3 8075,-320.5 8070.8,-320.5"/>
<text xml:space="preserve" text-anchor="middle" x="7997" y="-304.8" font-family="Helvetica,sans-Serif" font-size="8.00">WARP&#45;intentional&#45;degeneracy&#45;privacy &#45; M</text>
</g>
<!-- cool_ideas_WARP_lsp_enrichment -->
<g id="node61" class="node">
<title>cool_ideas_WARP_lsp_enrichment</title>
<path fill="#d4e8f7" stroke="black" d="M8178.55,-320.5C8178.55,-320.5 8101.45,-320.5 8101.45,-320.5 8097.25,-320.5 8093.05,-316.3 8093.05,-312.1 8093.05,-312.1 8093.05,-303.7 8093.05,-303.7 8093.05,-299.5 8097.25,-295.3 8101.45,-295.3 8101.45,-295.3 8178.55,-295.3 8178.55,-295.3 8182.75,-295.3 8186.95,-299.5 8186.95,-303.7 8186.95,-303.7 8186.95,-312.1 8186.95,-312.1 8186.95,-316.3 8182.75,-320.5 8178.55,-320.5"/>
<text xml:space="preserve" text-anchor="middle" x="8140" y="-304.8" font-family="Helvetica,sans-Serif" font-size="8.00">WARP&#45;lsp&#45;enrichment</text>
</g>
<!-- cool_ideas_WARP_minimum_viable_context -->
<g id="node62" class="node">
<title>cool_ideas_WARP_minimum_viable_context</title>
<path fill="#d4e8f7" stroke="black" d="M8332.43,-320.5C8332.43,-320.5 8209.57,-320.5 8209.57,-320.5 8205.38,-320.5 8201.17,-316.3 8201.17,-312.1 8201.17,-312.1 8201.17,-303.7 8201.17,-303.7 8201.17,-299.5 8205.38,-295.3 8209.57,-295.3 8209.57,-295.3 8332.43,-295.3 8332.43,-295.3 8336.62,-295.3 8340.83,-299.5 8340.83,-303.7 8340.83,-303.7 8340.83,-312.1 8340.83,-312.1 8340.83,-316.3 8336.62,-320.5 8332.43,-320.5"/>
<text xml:space="preserve" text-anchor="middle" x="8271" y="-304.8" font-family="Helvetica,sans-Serif" font-size="8.00">WARP&#45;minimum&#45;viable&#45;context &#45; M</text>
</g>
<!-- cool_ideas_WARP_outline_diff_commit_trailer -->
<g id="node63" class="node">
<title>cool_ideas_WARP_outline_diff_commit_trailer</title>
<path fill="#d4e8f7" stroke="black" d="M8488.93,-320.5C8488.93,-320.5 8363.07,-320.5 8363.07,-320.5 8358.88,-320.5 8354.67,-316.3 8354.67,-312.1 8354.67,-312.1 8354.67,-303.7 8354.67,-303.7 8354.67,-299.5 8358.88,-295.3 8363.07,-295.3 8363.07,-295.3 8488.93,-295.3 8488.93,-295.3 8493.12,-295.3 8497.33,-299.5 8497.33,-303.7 8497.33,-303.7 8497.33,-312.1 8497.33,-312.1 8497.33,-316.3 8493.12,-320.5 8488.93,-320.5"/>
<text xml:space="preserve" text-anchor="middle" x="8426" y="-304.8" font-family="Helvetica,sans-Serif" font-size="8.00">WARP&#45;outline&#45;diff&#45;commit&#45;trailer &#45; S</text>
</g>
<!-- cool_ideas_WARP_projection_safety_classes -->
<g id="node64" class="node">
<title>cool_ideas_WARP_projection_safety_classes</title>
<path fill="#d4e8f7" stroke="black" d="M8645.93,-320.5C8645.93,-320.5 8520.07,-320.5 8520.07,-320.5 8515.88,-320.5 8511.67,-316.3 8511.67,-312.1 8511.67,-312.1 8511.67,-303.7 8511.67,-303.7 8511.67,-299.5 8515.88,-295.3 8520.07,-295.3 8520.07,-295.3 8645.93,-295.3 8645.93,-295.3 8650.12,-295.3 8654.33,-299.5 8654.33,-303.7 8654.33,-303.7 8654.33,-312.1 8654.33,-312.1 8654.33,-316.3 8650.12,-320.5 8645.93,-320.5"/>
<text xml:space="preserve" text-anchor="middle" x="8583" y="-304.8" font-family="Helvetica,sans-Serif" font-size="8.00">WARP&#45;projection&#45;safety&#45;classes &#45; M</text>
</g>
<!-- cool_ideas_WARP_provenance_dag&#45;&gt;cool_ideas_WARP_causal_blame_for_staged_artifacts -->
<g id="edge9" class="edge">
<title>cool_ideas_WARP_provenance_dag&#45;&gt;cool_ideas_WARP_causal_blame_for_staged_artifacts</title>
<path fill="none" stroke="#666666" d="M6695.22,-221.65C6707.46,-209.83 6726.41,-191.54 6740.09,-178.32"/>
<polygon fill="#666666" stroke="#666666" points="6741.04,-179.84 6743.43,-175.11 6738.61,-177.32 6741.04,-179.84"/>
<text xml:space="preserve" text-anchor="middle" x="6753.72" y="-195.2" font-family="Helvetica,sans-Serif" font-size="7.00">blocked_by/blocking</text>
</g>
<!-- cool_ideas_WARP_reasoning_trace_replay -->
<g id="node66" class="node">
<title>cool_ideas_WARP_reasoning_trace_replay</title>
<path fill="#d4e8f7" stroke="black" d="M6648.93,-173.6C6648.93,-173.6 6529.07,-173.6 6529.07,-173.6 6524.88,-173.6 6520.68,-169.4 6520.68,-165.2 6520.68,-165.2 6520.68,-156.8 6520.68,-156.8 6520.68,-152.6 6524.88,-148.4 6529.07,-148.4 6529.07,-148.4 6648.93,-148.4 6648.93,-148.4 6653.12,-148.4 6657.32,-152.6 6657.32,-156.8 6657.32,-156.8 6657.32,-165.2 6657.32,-165.2 6657.32,-169.4 6653.12,-173.6 6648.93,-173.6"/>
<text xml:space="preserve" text-anchor="middle" x="6589" y="-157.9" font-family="Helvetica,sans-Serif" font-size="8.00">WARP&#45;reasoning&#45;trace&#45;replay &#45; M</text>
</g>
<!-- cool_ideas_WARP_provenance_dag&#45;&gt;cool_ideas_WARP_reasoning_trace_replay -->
<g id="edge10" class="edge">
<title>cool_ideas_WARP_provenance_dag&#45;&gt;cool_ideas_WARP_reasoning_trace_replay</title>
<path fill="none" stroke="#666666" d="M6667.48,-221.65C6651.79,-209.73 6627.44,-191.22 6610.02,-177.98"/>
<polygon fill="#666666" stroke="#666666" points="6611.1,-176.6 6606.06,-174.97 6608.99,-179.39 6611.1,-176.6"/>
<text xml:space="preserve" text-anchor="middle" x="6670.32" y="-195.2" font-family="Helvetica,sans-Serif" font-size="7.00">blocked_by/blocking</text>
</g>
<!-- cool_ideas_WARP_rulial_heat_map -->
<g id="node67" class="node">
<title>cool_ideas_WARP_rulial_heat_map</title>
<path fill="#d4e8f7" stroke="black" d="M8767.3,-320.5C8767.3,-320.5 8676.7,-320.5 8676.7,-320.5 8672.5,-320.5 8668.3,-316.3 8668.3,-312.1 8668.3,-312.1 8668.3,-303.7 8668.3,-303.7 8668.3,-299.5 8672.5,-295.3 8676.7,-295.3 8676.7,-295.3 8767.3,-295.3 8767.3,-295.3 8771.5,-295.3 8775.7,-299.5 8775.7,-303.7 8775.7,-303.7 8775.7,-312.1 8775.7,-312.1 8775.7,-316.3 8771.5,-320.5 8767.3,-320.5"/>
<text xml:space="preserve" text-anchor="middle" x="8722" y="-304.8" font-family="Helvetica,sans-Serif" font-size="8.00">WARP&#45;rulial&#45;heat&#45;map &#45; L</text>
</g>
<!-- cool_ideas_WARP_semantic_drift_in_sessions -->
<g id="node68" class="node">
<title>cool_ideas_WARP_semantic_drift_in_sessions</title>
<path fill="#d4e8f7" stroke="black" d="M8927.43,-320.5C8927.43,-320.5 8798.57,-320.5 8798.57,-320.5 8794.38,-320.5 8790.17,-316.3 8790.17,-312.1 8790.17,-312.1 8790.17,-303.7 8790.17,-303.7 8790.17,-299.5 8794.38,-295.3 8798.57,-295.3 8798.57,-295.3 8927.43,-295.3 8927.43,-295.3 8931.62,-295.3 8935.83,-299.5 8935.83,-303.7 8935.83,-303.7 8935.83,-312.1 8935.83,-312.1 8935.83,-316.3 8931.62,-320.5 8927.43,-320.5"/>
<text xml:space="preserve" text-anchor="middle" x="8863" y="-304.8" font-family="Helvetica,sans-Serif" font-size="8.00">WARP&#45;semantic&#45;drift&#45;in&#45;sessions &#45; M</text>
</g>
<!-- cool_ideas_WARP_semantic_merge_conflict_prediction -->
<g id="node69" class="node">
<title>cool_ideas_WARP_semantic_merge_conflict_prediction</title>
<path fill="#d4e8f7" stroke="black" d="M10093.43,-247.05C10093.43,-247.05 9934.57,-247.05 9934.57,-247.05 9930.38,-247.05 9926.17,-242.85 9926.17,-238.65 9926.17,-238.65 9926.17,-230.25 9926.17,-230.25 9926.17,-226.05 9930.38,-221.85 9934.57,-221.85 9934.57,-221.85 10093.43,-221.85 10093.43,-221.85 10097.62,-221.85 10101.83,-226.05 10101.83,-230.25 10101.83,-230.25 10101.83,-238.65 10101.83,-238.65 10101.83,-242.85 10097.62,-247.05 10093.43,-247.05"/>
<text xml:space="preserve" text-anchor="middle" x="10014" y="-231.35" font-family="Helvetica,sans-Serif" font-size="8.00">WARP&#45;semantic&#45;merge&#45;conflict&#45;prediction &#45; L</text>
</g>
<!-- cool_ideas_WARP_session_filtration -->
<g id="node70" class="node">
<title>cool_ideas_WARP_session_filtration</title>
<path fill="#d4e8f7" stroke="black" d="M9051.8,-320.5C9051.8,-320.5 8958.2,-320.5 8958.2,-320.5 8954,-320.5 8949.8,-316.3 8949.8,-312.1 8949.8,-312.1 8949.8,-303.7 8949.8,-303.7 8949.8,-299.5 8954,-295.3 8958.2,-295.3 8958.2,-295.3 9051.8,-295.3 9051.8,-295.3 9056,-295.3 9060.2,-299.5 9060.2,-303.7 9060.2,-303.7 9060.2,-312.1 9060.2,-312.1 9060.2,-316.3 9056,-320.5 9051.8,-320.5"/>
<text xml:space="preserve" text-anchor="middle" x="9005" y="-304.8" font-family="Helvetica,sans-Serif" font-size="8.00">WARP&#45;session&#45;filtration &#45; L</text>
</g>
<!-- cool_ideas_WARP_shadow_structural_workspaces -->
<g id="node71" class="node">
<title>cool_ideas_WARP_shadow_structural_workspaces</title>
<path fill="#d4e8f7" stroke="black" d="M9233.3,-320.5C9233.3,-320.5 9082.7,-320.5 9082.7,-320.5 9078.5,-320.5 9074.3,-316.3 9074.3,-312.1 9074.3,-312.1 9074.3,-303.7 9074.3,-303.7 9074.3,-299.5 9078.5,-295.3 9082.7,-295.3 9082.7,-295.3 9233.3,-295.3 9233.3,-295.3 9237.5,-295.3 9241.7,-299.5 9241.7,-303.7 9241.7,-303.7 9241.7,-312.1 9241.7,-312.1 9241.7,-316.3 9237.5,-320.5 9233.3,-320.5"/>
<text xml:space="preserve" text-anchor="middle" x="9158" y="-304.8" font-family="Helvetica,sans-Serif" font-size="8.00">WARP&#45;shadow&#45;structural&#45;workspaces &#45; XL</text>
</g>
<!-- cool_ideas_WARP_speculative_merge -->
<g id="node72" class="node">
<title>cool_ideas_WARP_speculative_merge</title>
<path fill="#d4e8f7" stroke="black" d="M9371.55,-320.5C9371.55,-320.5 9264.45,-320.5 9264.45,-320.5 9260.25,-320.5 9256.05,-316.3 9256.05,-312.1 9256.05,-312.1 9256.05,-303.7 9256.05,-303.7 9256.05,-299.5 9260.25,-295.3 9264.45,-295.3 9264.45,-295.3 9371.55,-295.3 9371.55,-295.3 9375.75,-295.3 9379.95,-299.5 9379.95,-303.7 9379.95,-303.7 9379.95,-312.1 9379.95,-312.1 9379.95,-316.3 9375.75,-320.5 9371.55,-320.5"/>
<text xml:space="preserve" text-anchor="middle" x="9318" y="-304.8" font-family="Helvetica,sans-Serif" font-size="8.00">WARP&#45;speculative&#45;merge &#45; XL</text>
</g>
<!-- cool_ideas_WARP_stale_docs_checker -->
<g id="node73" class="node">
<title>cool_ideas_WARP_stale_docs_checker</title>
<path fill="#d4e8f7" stroke="black" d="M9507.8,-320.5C9507.8,-320.5 9402.2,-320.5 9402.2,-320.5 9398,-320.5 9393.8,-316.3 9393.8,-312.1 9393.8,-312.1 9393.8,-303.7 9393.8,-303.7 9393.8,-299.5 9398,-295.3 9402.2,-295.3 9402.2,-295.3 9507.8,-295.3 9507.8,-295.3 9512,-295.3 9516.2,-299.5 9516.2,-303.7 9516.2,-303.7 9516.2,-312.1 9516.2,-312.1 9516.2,-316.3 9512,-320.5 9507.8,-320.5"/>
<text xml:space="preserve" text-anchor="middle" x="9455" y="-304.8" font-family="Helvetica,sans-Serif" font-size="8.00">WARP&#45;stale&#45;docs&#45;checker &#45; M</text>
</g>
<!-- cool_ideas_WARP_stale_docs_checker&#45;&gt;cool_ideas_WARP_drift_sentinel -->
<g id="edge11" class="edge">
<title>cool_ideas_WARP_stale_docs_checker&#45;&gt;cool_ideas_WARP_drift_sentinel</title>
<path fill="none" stroke="#666666" d="M9440.63,-295.1C9426.11,-283.18 9403.58,-264.67 9387.46,-251.43"/>
<polygon fill="#666666" stroke="#666666" points="9388.82,-250.29 9383.85,-248.47 9386.6,-252.99 9388.82,-250.29"/>
<text xml:space="preserve" text-anchor="middle" x="9445.61" y="-268.65" font-family="Helvetica,sans-Serif" font-size="7.00">blocked_by/blocking</text>
</g>
<!-- cool_ideas_WARP_structural_drift_detection -->
<g id="node74" class="node">
<title>cool_ideas_WARP_structural_drift_detection</title>
<path fill="#d4e8f7" stroke="black" d="M9661.8,-320.5C9661.8,-320.5 9538.2,-320.5 9538.2,-320.5 9534,-320.5 9529.8,-316.3 9529.8,-312.1 9529.8,-312.1 9529.8,-303.7 9529.8,-303.7 9529.8,-299.5 9534,-295.3 9538.2,-295.3 9538.2,-295.3 9661.8,-295.3 9661.8,-295.3 9666,-295.3 9670.2,-299.5 9670.2,-303.7 9670.2,-303.7 9670.2,-312.1 9670.2,-312.1 9670.2,-316.3 9666,-320.5 9661.8,-320.5"/>
<text xml:space="preserve" text-anchor="middle" x="9600" y="-304.8" font-family="Helvetica,sans-Serif" font-size="8.00">WARP&#45;structural&#45;drift&#45;detection &#45; M</text>
</g>
<!-- cool_ideas_WARP_symbol_heatmap -->
<g id="node76" class="node">
<title>cool_ideas_WARP_symbol_heatmap</title>
<path fill="#d4e8f7" stroke="black" d="M9791.05,-320.5C9791.05,-320.5 9692.95,-320.5 9692.95,-320.5 9688.75,-320.5 9684.55,-316.3 9684.55,-312.1 9684.55,-312.1 9684.55,-303.7 9684.55,-303.7 9684.55,-299.5 9688.75,-295.3 9692.95,-295.3 9692.95,-295.3 9791.05,-295.3 9791.05,-295.3 9795.25,-295.3 9799.45,-299.5 9799.45,-303.7 9799.45,-303.7 9799.45,-312.1 9799.45,-312.1 9799.45,-316.3 9795.25,-320.5 9791.05,-320.5"/>
<text xml:space="preserve" text-anchor="middle" x="9742" y="-304.8" font-family="Helvetica,sans-Serif" font-size="8.00">WARP&#45;symbol&#45;heatmap &#45; M</text>
</g>
<!-- cool_ideas_WARP_symbol_history_timeline -->
<g id="node77" class="node">
<title>cool_ideas_WARP_symbol_history_timeline</title>
<path fill="#d4e8f7" stroke="black" d="M9940.18,-320.5C9940.18,-320.5 9821.82,-320.5 9821.82,-320.5 9817.62,-320.5 9813.42,-316.3 9813.42,-312.1 9813.42,-312.1 9813.42,-303.7 9813.42,-303.7 9813.42,-299.5 9817.62,-295.3 9821.82,-295.3 9821.82,-295.3 9940.18,-295.3 9940.18,-295.3 9944.38,-295.3 9948.58,-299.5 9948.58,-303.7 9948.58,-303.7 9948.58,-312.1 9948.58,-312.1 9948.58,-316.3 9944.38,-320.5 9940.18,-320.5"/>
<text xml:space="preserve" text-anchor="middle" x="9881" y="-304.8" font-family="Helvetica,sans-Serif" font-size="8.00">WARP&#45;symbol&#45;history&#45;timeline &#45; S</text>
</g>
<!-- cool_ideas_WARP_temporal_structural_search -->
<g id="node79" class="node">
<title>cool_ideas_WARP_temporal_structural_search</title>
<path fill="#d4e8f7" stroke="black" d="M9573.68,-247.05C9573.68,-247.05 9440.32,-247.05 9440.32,-247.05 9436.12,-247.05 9431.92,-242.85 9431.92,-238.65 9431.92,-238.65 9431.92,-230.25 9431.92,-230.25 9431.92,-226.05 9436.12,-221.85 9440.32,-221.85 9440.32,-221.85 9573.68,-221.85 9573.68,-221.85 9577.88,-221.85 9582.08,-226.05 9582.08,-230.25 9582.08,-230.25 9582.08,-238.65 9582.08,-238.65 9582.08,-242.85 9577.88,-247.05 9573.68,-247.05"/>
<text xml:space="preserve" text-anchor="middle" x="9507" y="-231.35" font-family="Helvetica,sans-Serif" font-size="8.00">WARP&#45;temporal&#45;structural&#45;search &#45; M</text>
</g>
<!-- cool_ideas_WARP_symbol_history_timeline&#45;&gt;cool_ideas_WARP_temporal_structural_search -->
<g id="edge12" class="edge">
<title>cool_ideas_WARP_symbol_history_timeline&#45;&gt;cool_ideas_WARP_temporal_structural_search</title>
<path fill="none" stroke="#666666" d="M9840.82,-294.9C9829.64,-291.97 9817.42,-289.15 9806,-287.3 9725.98,-274.33 9703.5,-291.17 9624,-275.3 9595.41,-269.59 9564.21,-258.72 9541.23,-249.77"/>
<polygon fill="#666666" stroke="#666666" points="9541.97,-248.18 9536.68,-247.98 9540.69,-251.44 9541.97,-248.18"/>
<text xml:space="preserve" text-anchor="middle" x="9655.5" y="-268.65" font-family="Helvetica,sans-Serif" font-size="7.00">blocked_by/blocking</text>
</g>
<!-- cool_ideas_WARP_technical_debt_curvature -->
<g id="node78" class="node">
<title>cool_ideas_WARP_technical_debt_curvature</title>
<path fill="#d4e8f7" stroke="black" d="M10093.43,-320.5C10093.43,-320.5 9970.57,-320.5 9970.57,-320.5 9966.38,-320.5 9962.17,-316.3 9962.17,-312.1 9962.17,-312.1 9962.17,-303.7 9962.17,-303.7 9962.17,-299.5 9966.38,-295.3 9970.57,-295.3 9970.57,-295.3 10093.43,-295.3 10093.43,-295.3 10097.62,-295.3 10101.83,-299.5 10101.83,-303.7 10101.83,-303.7 10101.83,-312.1 10101.83,-312.1 10101.83,-316.3 10097.62,-320.5 10093.43,-320.5"/>
<text xml:space="preserve" text-anchor="middle" x="10032" y="-304.8" font-family="Helvetica,sans-Serif" font-size="8.00">WARP&#45;technical&#45;debt&#45;curvature &#45; L</text>
</g>
<!-- external_git_warp_observer_geometry_ladder__Rung_2_4_ -->
<g id="node80" class="node">
<title>external_git_warp_observer_geometry_ladder__Rung_2_4_</title>
<path fill="#e8f2ff" stroke="black" d="M10297.68,-320.5C10297.68,-320.5 10134.32,-320.5 10134.32,-320.5 10130.12,-320.5 10125.92,-316.3 10125.92,-312.1 10125.92,-312.1 10125.92,-303.7 10125.92,-303.7 10125.92,-299.5 10130.12,-295.3 10134.32,-295.3 10134.32,-295.3 10297.68,-295.3 10297.68,-295.3 10301.88,-295.3 10306.08,-299.5 10306.08,-303.7 10306.08,-303.7 10306.08,-312.1 10306.08,-312.1 10306.08,-316.3 10301.88,-320.5 10297.68,-320.5"/>
<text xml:space="preserve" text-anchor="middle" x="10216" y="-304.8" font-family="Helvetica,sans-Serif" font-size="8.00">git&#45;warp observer geometry ladder (Rung 2&#45;4)</text>
</g>
<!-- external_git_warp_observer_geometry_ladder__Rung_2_4_&#45;&gt;cool_ideas_CORE_migrate_to_slice_first_reads -->
<g id="edge13" class="edge">
<title>external_git_warp_observer_geometry_ladder__Rung_2_4_&#45;&gt;cool_ideas_CORE_migrate_to_slice_first_reads</title>
<path fill="none" stroke="#4477aa" stroke-dasharray="5,2" d="M10159.54,-294.84C10144.47,-291.98 10128.17,-289.21 10113,-287.3 10028.72,-276.67 10006.71,-284.38 9922.25,-275.3 9839.44,-266.4 9819.31,-259.78 9737,-247.05 9736.86,-247.03 9736.73,-247.01 9736.59,-246.99"/>
<polygon fill="#4477aa" stroke="#4477aa" points="9737.06,-245.29 9731.85,-246.25 9736.52,-248.75 9737.06,-245.29"/>
<text xml:space="preserve" text-anchor="middle" x="9954.12" y="-268.65" font-family="Helvetica,sans-Serif" font-size="7.00">blocked_by_external</text>
</g>
<!-- unresolved_CLEAN_CODE_export_diff_semver_signature_as_patch -->
<g id="node81" class="node">
<title>unresolved_CLEAN_CODE_export_diff_semver_signature_as_patch</title>
<path fill="#f2f2f2" stroke="black" stroke-dasharray="5,2" d="M10561.3,-320.5C10561.3,-320.5 10338.7,-320.5 10338.7,-320.5 10334.5,-320.5 10330.3,-316.3 10330.3,-312.1 10330.3,-312.1 10330.3,-303.7 10330.3,-303.7 10330.3,-299.5 10334.5,-295.3 10338.7,-295.3 10338.7,-295.3 10561.3,-295.3 10561.3,-295.3 10565.5,-295.3 10569.7,-299.5 10569.7,-303.7 10569.7,-303.7 10569.7,-312.1 10569.7,-312.1 10569.7,-316.3 10565.5,-320.5 10561.3,-320.5"/>
<text xml:space="preserve" text-anchor="middle" x="10450" y="-304.8" font-family="Helvetica,sans-Serif" font-size="8.00">missing: CLEAN_CODE_export&#45;diff&#45;semver&#45;signature&#45;as&#45;patch</text>
</g>
<!-- unresolved_CLEAN_CODE_export_diff_semver_signature_as_patch&#45;&gt;cool_ideas_WARP_auto_breaking_change_detection -->
<g id="edge14" class="edge">
<title>unresolved_CLEAN_CODE_export_diff_semver_signature_as_patch&#45;&gt;cool_ideas_WARP_auto_breaking_change_detection</title>
<path fill="none" stroke="#cc3333" stroke-dasharray="5,2" d="M10373.44,-294.84C10354.99,-292.14 10335.31,-289.45 10317,-287.3 10256.63,-280.2 10241.25,-281.23 10180.75,-275.3 10064.3,-263.89 10035.21,-260.73 9919,-247.05 9918.7,-247.02 9918.41,-246.98 9918.11,-246.94"/>
<polygon fill="#cc3333" stroke="#cc3333" points="9918.47,-245.23 9913.29,-246.37 9918.05,-248.7 9918.47,-245.23"/>
<text xml:space="preserve" text-anchor="middle" x="10198.38" y="-268.65" font-family="Helvetica,sans-Serif" font-size="7.00">blocked_by</text>
</g>
<!-- unresolved_CLEAN_CODE_export_diff_semver_signature_as_patch&#45;&gt;cool_ideas_WARP_semantic_merge_conflict_prediction -->
<g id="edge15" class="edge">
<title>unresolved_CLEAN_CODE_export_diff_semver_signature_as_patch&#45;&gt;cool_ideas_WARP_semantic_merge_conflict_prediction</title>
<path fill="none" stroke="#cc3333" stroke-dasharray="5,2" d="M10376.53,-294.86C10298.24,-282.03 10174.69,-261.78 10093.99,-248.56"/>
<polygon fill="#cc3333" stroke="#cc3333" points="10094.48,-246.87 10089.26,-247.78 10093.91,-250.32 10094.48,-246.87"/>
<text xml:space="preserve" text-anchor="middle" x="10262.7" y="-268.65" font-family="Helvetica,sans-Serif" font-size="7.00">blocked_by</text>
</g>
<!-- leg_v07 -->
<g id="node82" class="node">
<title>leg_v07</title>
<path fill="#ffa07a" stroke="black" stroke-width="2" d="M10686,-320.5C10686,-320.5 10602,-320.5 10602,-320.5 10597.8,-320.5 10593.6,-316.3 10593.6,-312.1 10593.6,-312.1 10593.6,-303.7 10593.6,-303.7 10593.6,-299.5 10597.8,-295.3 10602,-295.3 10602,-295.3 10686,-295.3 10686,-295.3 10690.2,-295.3 10694.4,-299.5 10694.4,-303.7 10694.4,-303.7 10694.4,-312.1 10694.4,-312.1 10694.4,-316.3 10690.2,-320.5 10686,-320.5"/>
<text xml:space="preserve" text-anchor="middle" x="10644" y="-305.38" font-family="Helvetica,sans-Serif" font-size="7.00">v0.7.0</text>
</g>
<!-- leg_bad -->
<g id="node83" class="node">
<title>leg_bad</title>
<path fill="#f6b3b3" stroke="black" stroke-width="2" d="M10686,-247.05C10686,-247.05 10602,-247.05 10602,-247.05 10597.8,-247.05 10593.6,-242.85 10593.6,-238.65 10593.6,-238.65 10593.6,-230.25 10593.6,-230.25 10593.6,-226.05 10597.8,-221.85 10602,-221.85 10602,-221.85 10686,-221.85 10686,-221.85 10690.2,-221.85 10694.4,-226.05 10694.4,-230.25 10694.4,-230.25 10694.4,-238.65 10694.4,-238.65 10694.4,-242.85 10690.2,-247.05 10686,-247.05"/>
<text xml:space="preserve" text-anchor="middle" x="10644" y="-231.92" font-family="Helvetica,sans-Serif" font-size="7.00">bad&#45;code</text>
</g>
<!-- leg_v07&#45;&gt;leg_bad -->
<!-- leg_idea -->
<g id="node84" class="node">
<title>leg_idea</title>
<path fill="#d4e8f7" stroke="black" d="M10686,-173.6C10686,-173.6 10602,-173.6 10602,-173.6 10597.8,-173.6 10593.6,-169.4 10593.6,-165.2 10593.6,-165.2 10593.6,-156.8 10593.6,-156.8 10593.6,-152.6 10597.8,-148.4 10602,-148.4 10602,-148.4 10686,-148.4 10686,-148.4 10690.2,-148.4 10694.4,-152.6 10694.4,-156.8 10694.4,-156.8 10694.4,-165.2 10694.4,-165.2 10694.4,-169.4 10690.2,-173.6 10686,-173.6"/>
<text xml:space="preserve" text-anchor="middle" x="10644" y="-158.47" font-family="Helvetica,sans-Serif" font-size="7.00">cool&#45;ideas</text>
</g>
<!-- leg_bad&#45;&gt;leg_idea -->
<!-- leg_external -->
<g id="node85" class="node">
<title>leg_external</title>
<path fill="#e8f2ff" stroke="black" d="M10686,-107.4C10686,-107.4 10602,-107.4 10602,-107.4 10597.8,-107.4 10593.6,-103.2 10593.6,-99 10593.6,-99 10593.6,-90.6 10593.6,-90.6 10593.6,-86.4 10597.8,-82.2 10602,-82.2 10602,-82.2 10686,-82.2 10686,-82.2 10690.2,-82.2 10694.4,-86.4 10694.4,-90.6 10694.4,-90.6 10694.4,-99 10694.4,-99 10694.4,-103.2 10690.2,-107.4 10686,-107.4"/>
<text xml:space="preserve" text-anchor="middle" x="10644" y="-92.28" font-family="Helvetica,sans-Serif" font-size="7.00">external blocker</text>
</g>
<!-- leg_idea&#45;&gt;leg_external -->
<!-- leg_unresolved -->
<g id="node86" class="node">
<title>leg_unresolved</title>
<path fill="#f2f2f2" stroke="black" stroke-dasharray="5,2" d="M10686,-41.2C10686,-41.2 10602,-41.2 10602,-41.2 10597.8,-41.2 10593.6,-37 10593.6,-32.8 10593.6,-32.8 10593.6,-24.4 10593.6,-24.4 10593.6,-20.2 10597.8,-16 10602,-16 10602,-16 10686,-16 10686,-16 10690.2,-16 10694.4,-20.2 10694.4,-24.4 10694.4,-24.4 10694.4,-32.8 10694.4,-32.8 10694.4,-37 10690.2,-41.2 10686,-41.2"/>
<text xml:space="preserve" text-anchor="middle" x="10644" y="-26.08" font-family="Helvetica,sans-Serif" font-size="7.00">unresolved ref</text>
</g>
<!-- leg_external&#45;&gt;leg_unresolved -->
</g>
</svg>
