<?xml version="1.0" encoding="UTF-8" standalone="no"?>
<!DOCTYPE svg PUBLIC "-//W3C//DTD SVG 1.1//EN"
 "http://www.w3.org/Graphics/SVG/1.1/DTD/svg11.dtd">
<!-- Generated by graphviz version 14.1.2 (20260124.0452)
 -->
<!-- Title: backlog Pages: 1 -->
<svg width="11303pt" height="449pt"
 viewBox="0.00 0.00 11303.00 449.00" xmlns="http://www.w3.org/2000/svg" xmlns:xlink="http://www.w3.org/1999/xlink">
<g id="graph0" class="graph" transform="scale(1 1) rotate(0) translate(4 445.2)">
<title>backlog</title>
<polygon fill="white" stroke="none" points="-4,4 -4,-445.2 11299,-445.2 11299,4 -4,4"/>
<text xml:space="preserve" text-anchor="middle" x="5647.5" y="-425.8" font-family="Helvetica,sans-Serif" font-size="12.00">Active backlog graph generated from docs/method/backlog/*/*.md</text>
<g id="clust1" class="cluster">
<title>cluster_v0_8_0</title>
<path fill="#fafafa" stroke="#cccccc" d="M20,-353.5C20,-353.5 1534,-353.5 1534,-353.5 1540,-353.5 1546,-359.5 1546,-365.5 1546,-365.5 1546,-400.45 1546,-400.45 1546,-406.45 1540,-412.45 1534,-412.45 1534,-412.45 20,-412.45 20,-412.45 14,-412.45 8,-406.45 8,-400.45 8,-400.45 8,-365.5 8,-365.5 8,-359.5 14,-353.5 20,-353.5"/>
<text xml:space="preserve" text-anchor="middle" x="35.12" y="-399.9" font-family="Helvetica,sans-Serif" font-size="9.00" fill="#555555">v0.8.0 (9)</text>
</g>
<g id="clust2" class="cluster">
<title>cluster_cool_ideas</title>
<path fill="#fafafa" stroke="#cccccc" d="M1566,-206.6C1566,-206.6 10683,-206.6 10683,-206.6 10689,-206.6 10695,-212.6 10695,-218.6 10695,-218.6 10695,-400.45 10695,-400.45 10695,-406.45 10689,-412.45 10683,-412.45 10683,-412.45 1566,-412.45 1566,-412.45 1560,-412.45 1554,-406.45 1554,-400.45 1554,-400.45 1554,-218.6 1554,-218.6 1554,-212.6 1560,-206.6 1566,-206.6"/>
<text xml:space="preserve" text-anchor="middle" x="1593.5" y="-399.9" font-family="Helvetica,sans-Serif" font-size="9.00" fill="#555555">Cool Ideas (73)</text>
</g>
<g id="clust3" class="cluster">
<title>cluster_external</title>
<path fill="#f8fbff" stroke="#cccccc" d="M10715,-353.5C10715,-353.5 10887,-353.5 10887,-353.5 10893,-353.5 10899,-359.5 10899,-365.5 10899,-365.5 10899,-400.45 10899,-400.45 10899,-406.45 10893,-412.45 10887,-412.45 10887,-412.45 10715,-412.45 10715,-412.45 10709,-412.45 10703,-406.45 10703,-400.45 10703,-400.45 10703,-365.5 10703,-365.5 10703,-359.5 10709,-353.5 10715,-353.5"/>
<text xml:space="preserve" text-anchor="middle" x="10746.25" y="-399.9" font-family="Helvetica,sans-Serif" font-size="9.00" fill="#555555">External blockers</text>
</g>
<g id="clust4" class="cluster">
<title>cluster_unresolved</title>
<path fill="#fff7f7" stroke="#cc3333" stroke-dasharray="5,2" d="M10919,-353.5C10919,-353.5 11151,-353.5 11151,-353.5 11157,-353.5 11163,-359.5 11163,-365.5 11163,-365.5 11163,-400.45 11163,-400.45 11163,-406.45 11157,-412.45 11151,-412.45 11151,-412.45 10919,-412.45 10919,-412.45 10913,-412.45 10907,-406.45 10907,-400.45 10907,-400.45 10907,-365.5 10907,-365.5 10907,-359.5 10913,-353.5 10919,-353.5"/>
<text xml:space="preserve" text-anchor="middle" x="10963.75" y="-399.9" font-family="Helvetica,sans-Serif" font-size="9.00" fill="#555555">Unresolved internal refs</text>
</g>
<g id="clust5" class="cluster">
<title>cluster_legend</title>
<path fill="none" stroke="#dddddd" d="M11183,-8C11183,-8 11275,-8 11275,-8 11281,-8 11287,-14 11287,-20 11287,-20 11287,-399.7 11287,-399.7 11287,-405.7 11281,-411.7 11275,-411.7 11275,-411.7 11183,-411.7 11183,-411.7 11177,-411.7 11171,-405.7 11171,-399.7 11171,-399.7 11171,-20 11171,-20 11171,-14 11177,-8 11183,-8"/>
<text xml:space="preserve" text-anchor="middle" x="11192.5" y="-400.1" font-family="Helvetica,sans-Serif" font-size="8.00" fill="#aaaaaa">Legend</text>
</g>
<!-- v0_8_0_CORE_pr_review_structural_summary -->
<g id="node1" class="node">
<title>v0_8_0_CORE_pr_review_structural_summary</title>
<path fill="#c8e6c9" stroke="black" stroke-width="2" d="M167.92,-386.7C167.92,-386.7 24.08,-386.7 24.08,-386.7 19.88,-386.7 15.67,-382.5 15.67,-378.3 15.67,-378.3 15.67,-369.9 15.67,-369.9 15.67,-365.7 19.88,-361.5 24.08,-361.5 24.08,-361.5 167.92,-361.5 167.92,-361.5 172.12,-361.5 176.32,-365.7 176.32,-369.9 176.32,-369.9 176.32,-378.3 176.32,-378.3 176.32,-382.5 172.12,-386.7 167.92,-386.7"/>
<text xml:space="preserve" text-anchor="middle" x="96" y="-371" font-family="Helvetica,sans-Serif" font-size="8.00">CORE&#45;pr&#45;review&#45;structural&#45;summary &#45; M</text>
</g>
<!-- v0_8_0_CORE_structural_test_coverage_map -->
<g id="node2" class="node">
<title>v0_8_0_CORE_structural_test_coverage_map</title>
<path fill="#c8e6c9" stroke="black" stroke-width="2" d="M340.8,-386.7C340.8,-386.7 199.2,-386.7 199.2,-386.7 195,-386.7 190.8,-382.5 190.8,-378.3 190.8,-378.3 190.8,-369.9 190.8,-369.9 190.8,-365.7 195,-361.5 199.2,-361.5 199.2,-361.5 340.8,-361.5 340.8,-361.5 345,-361.5 349.2,-365.7 349.2,-369.9 349.2,-369.9 349.2,-378.3 349.2,-378.3 349.2,-382.5 345,-386.7 340.8,-386.7"/>
<text xml:space="preserve" text-anchor="middle" x="270" y="-371" font-family="Helvetica,sans-Serif" font-size="8.00">CORE&#45;structural&#45;test&#45;coverage&#45;map &#45; M</text>
</g>
<!-- v0_8_0_CORE_tool_context_injection_contracts -->
<g id="node3" class="node">
<title>v0_8_0_CORE_tool_context_injection_contracts</title>
<path fill="#c8e6c9" stroke="black" stroke-width="2" d="M518.05,-386.7C518.05,-386.7 371.95,-386.7 371.95,-386.7 367.75,-386.7 363.55,-382.5 363.55,-378.3 363.55,-378.3 363.55,-369.9 363.55,-369.9 363.55,-365.7 367.75,-361.5 371.95,-361.5 371.95,-361.5 518.05,-361.5 518.05,-361.5 522.25,-361.5 526.45,-365.7 526.45,-369.9 526.45,-369.9 526.45,-378.3 526.45,-378.3 526.45,-382.5 522.25,-386.7 518.05,-386.7"/>
<text xml:space="preserve" text-anchor="middle" x="445" y="-371" font-family="Helvetica,sans-Serif" font-size="8.00">CORE&#45;tool&#45;context&#45;injection&#45;contracts &#45; M</text>
</g>
<!-- v0_8_0_SURFACE_git_graft_enhance_provenance_hints -->
<g id="node4" class="node">
<title>v0_8_0_SURFACE_git_graft_enhance_provenance_hints</title>
<path fill="#c8e6c9" stroke="black" stroke-width="2" d="M713.43,-386.7C713.43,-386.7 548.57,-386.7 548.57,-386.7 544.38,-386.7 540.17,-382.5 540.17,-378.3 540.17,-378.3 540.17,-369.9 540.17,-369.9 540.17,-365.7 544.38,-361.5 548.57,-361.5 548.57,-361.5 713.43,-361.5 713.43,-361.5 717.62,-361.5 721.83,-365.7 721.83,-369.9 721.83,-369.9 721.83,-378.3 721.83,-378.3 721.83,-382.5 717.62,-386.7 713.43,-386.7"/>
<text xml:space="preserve" text-anchor="middle" x="631" y="-371" font-family="Helvetica,sans-Serif" font-size="8.00">SURFACE&#45;git&#45;graft&#45;enhance&#45;provenance&#45;hints</text>
</g>
<!-- v0_8_0_SURFACE_pr_feedback_resolution_ledger -->
<g id="node5" class="node">
<title>v0_8_0_SURFACE_pr_feedback_resolution_ledger</title>
<path fill="#c8e6c9" stroke="black" stroke-width="2" d="M903.43,-386.7C903.43,-386.7 744.57,-386.7 744.57,-386.7 740.38,-386.7 736.17,-382.5 736.17,-378.3 736.17,-378.3 736.17,-369.9 736.17,-369.9 736.17,-365.7 740.38,-361.5 744.57,-361.5 744.57,-361.5 903.43,-361.5 903.43,-361.5 907.62,-361.5 911.83,-365.7 911.83,-369.9 911.83,-369.9 911.83,-378.3 911.83,-378.3 911.83,-382.5 907.62,-386.7 903.43,-386.7"/>
<text xml:space="preserve" text-anchor="middle" x="824" y="-371" font-family="Helvetica,sans-Serif" font-size="8.00">SURFACE&#45;pr&#45;feedback&#45;resolution&#45;ledger &#45; M</text>
</g>
<!-- v0_8_0_SURFACE_review_cooldown_status -->
<g id="node6" class="node">
<title>v0_8_0_SURFACE_review_cooldown_status</title>
<path fill="#c8e6c9" stroke="black" stroke-width="2" d="M1069.8,-386.7C1069.8,-386.7 934.2,-386.7 934.2,-386.7 930,-386.7 925.8,-382.5 925.8,-378.3 925.8,-378.3 925.8,-369.9 925.8,-369.9 925.8,-365.7 930,-361.5 934.2,-361.5 934.2,-361.5 1069.8,-361.5 1069.8,-361.5 1074,-361.5 1078.2,-365.7 1078.2,-369.9 1078.2,-369.9 1078.2,-378.3 1078.2,-378.3 1078.2,-382.5 1074,-386.7 1069.8,-386.7"/>
<text xml:space="preserve" text-anchor="middle" x="1002" y="-371" font-family="Helvetica,sans-Serif" font-size="8.00">SURFACE&#45;review&#45;cooldown&#45;status &#45; S</text>
</g>
<!-- v0_8_0_TEST_bounded_subprocess_policy -->
<g id="node7" class="node">
<title>v0_8_0_TEST_bounded_subprocess_policy</title>
<path fill="#c8e6c9" stroke="black" stroke-width="2" d="M1231.17,-386.7C1231.17,-386.7 1100.83,-386.7 1100.83,-386.7 1096.62,-386.7 1092.42,-382.5 1092.42,-378.3 1092.42,-378.3 1092.42,-369.9 1092.42,-369.9 1092.42,-365.7 1096.62,-361.5 1100.83,-361.5 1100.83,-361.5 1231.17,-361.5 1231.17,-361.5 1235.38,-361.5 1239.58,-365.7 1239.58,-369.9 1239.58,-369.9 1239.58,-378.3 1239.58,-378.3 1239.58,-382.5 1235.38,-386.7 1231.17,-386.7"/>
<text xml:space="preserve" text-anchor="middle" x="1166" y="-371" font-family="Helvetica,sans-Serif" font-size="8.00">TEST&#45;bounded&#45;subprocess&#45;policy &#45; S</text>
</g>
<!-- v0_8_0_WARP_dead_symbol_detection -->
<g id="node8" class="node">
<title>v0_8_0_WARP_dead_symbol_detection</title>
<path fill="#c8e6c9" stroke="black" stroke-width="2" d="M1380.17,-386.7C1380.17,-386.7 1261.83,-386.7 1261.83,-386.7 1257.62,-386.7 1253.42,-382.5 1253.42,-378.3 1253.42,-378.3 1253.42,-369.9 1253.42,-369.9 1253.42,-365.7 1257.62,-361.5 1261.83,-361.5 1261.83,-361.5 1380.17,-361.5 1380.17,-361.5 1384.38,-361.5 1388.58,-365.7 1388.58,-369.9 1388.58,-369.9 1388.58,-378.3 1388.58,-378.3 1388.58,-382.5 1384.38,-386.7 1380.17,-386.7"/>
<text xml:space="preserve" text-anchor="middle" x="1321" y="-371" font-family="Helvetica,sans-Serif" font-size="8.00">WARP&#45;dead&#45;symbol&#45;detection &#45; S</text>
</g>
<!-- v0_8_0_WARP_symbol_history_timeline -->
<g id="node9" class="node">
<title>v0_8_0_WARP_symbol_history_timeline</title>
<path fill="#c8e6c9" stroke="black" stroke-width="2" d="M1529.17,-386.7C1529.17,-386.7 1410.83,-386.7 1410.83,-386.7 1406.62,-386.7 1402.42,-382.5 1402.42,-378.3 1402.42,-378.3 1402.42,-369.9 1402.42,-369.9 1402.42,-365.7 1406.62,-361.5 1410.83,-361.5 1410.83,-361.5 1529.17,-361.5 1529.17,-361.5 1533.38,-361.5 1537.58,-365.7 1537.58,-369.9 1537.58,-369.9 1537.58,-378.3 1537.58,-378.3 1537.58,-382.5 1533.38,-386.7 1529.17,-386.7"/>
<text xml:space="preserve" text-anchor="middle" x="1470" y="-371" font-family="Helvetica,sans-Serif" font-size="8.00">WARP&#45;symbol&#45;history&#45;timeline &#45; S</text>
</g>
<!-- cool_ideas_WARP_temporal_structural_search -->
<g id="node82" class="node">
<title>cool_ideas_WARP_temporal_structural_search</title>
<path fill="#d4e8f7" stroke="black" d="M1703.67,-313.25C1703.67,-313.25 1570.33,-313.25 1570.33,-313.25 1566.12,-313.25 1561.92,-309.05 1561.92,-304.85 1561.92,-304.85 1561.92,-296.45 1561.92,-296.45 1561.92,-292.25 1566.12,-288.05 1570.33,-288.05 1570.33,-288.05 1703.67,-288.05 1703.67,-288.05 1707.88,-288.05 1712.08,-292.25 1712.08,-296.45 1712.08,-296.45 1712.08,-304.85 1712.08,-304.85 1712.08,-309.05 1707.88,-313.25 1703.67,-313.25"/>
<text xml:space="preserve" text-anchor="middle" x="1637" y="-297.55" font-family="Helvetica,sans-Serif" font-size="8.00">WARP&#45;temporal&#45;structural&#45;search &#45; M</text>
</g>
<!-- v0_8_0_WARP_symbol_history_timeline&#45;&gt;cool_ideas_WARP_temporal_structural_search -->
<g id="edge15" class="edge">
<title>v0_8_0_WARP_symbol_history_timeline&#45;&gt;cool_ideas_WARP_temporal_structural_search</title>
<path fill="none" stroke="#666666" d="M1499.09,-360.65C1528,-348.28 1572.33,-329.32 1602.88,-316.25"/>
<polygon fill="#666666" stroke="#666666" points="1603.5,-317.89 1607.41,-314.31 1602.12,-314.67 1603.5,-317.89"/>
<text xml:space="preserve" text-anchor="middle" x="1590.01" y="-334.85" font-family="Helvetica,sans-Serif" font-size="7.00">blocked_by/blocking</text>
</g>
<!-- cool_ideas_bounded_neighborhood_for_references -->
<g id="node10" class="node">
<title>cool_ideas_bounded_neighborhood_for_references</title>
<path fill="#d4e8f7" stroke="black" d="M1719.17,-386.7C1719.17,-386.7 1570.83,-386.7 1570.83,-386.7 1566.62,-386.7 1562.42,-382.5 1562.42,-378.3 1562.42,-378.3 1562.42,-369.9 1562.42,-369.9 1562.42,-365.7 1566.62,-361.5 1570.83,-361.5 1570.83,-361.5 1719.17,-361.5 1719.17,-361.5 1723.38,-361.5 1727.58,-365.7 1727.58,-369.9 1727.58,-369.9 1727.58,-378.3 1727.58,-378.3 1727.58,-382.5 1723.38,-386.7 1719.17,-386.7"/>
<text xml:space="preserve" text-anchor="middle" x="1645" y="-371" font-family="Helvetica,sans-Serif" font-size="8.00">bounded&#45;neighborhood&#45;for&#45;references &#45; S</text>
</g>
<!-- cool_ideas_CI_001_causal_collapse_visualizer -->
<g id="node11" class="node">
<title>cool_ideas_CI_001_causal_collapse_visualizer</title>
<path fill="#d4e8f7" stroke="black" d="M7436.3,-313.25C7436.3,-313.25 7309.7,-313.25 7309.7,-313.25 7305.5,-313.25 7301.3,-309.05 7301.3,-304.85 7301.3,-304.85 7301.3,-296.45 7301.3,-296.45 7301.3,-292.25 7305.5,-288.05 7309.7,-288.05 7309.7,-288.05 7436.3,-288.05 7436.3,-288.05 7440.5,-288.05 7444.7,-292.25 7444.7,-296.45 7444.7,-296.45 7444.7,-304.85 7444.7,-304.85 7444.7,-309.05 7440.5,-313.25 7436.3,-313.25"/>
<text xml:space="preserve" text-anchor="middle" x="7373" y="-297.55" font-family="Helvetica,sans-Serif" font-size="8.00">CI&#45;001&#45;causal&#45;collapse&#45;visualizer &#45; L</text>
</g>
<!-- cool_ideas_CI_002_deterministic_scenario_replay -->
<g id="node12" class="node">
<title>cool_ideas_CI_002_deterministic_scenario_replay</title>
<path fill="#d4e8f7" stroke="black" d="M1889.67,-386.7C1889.67,-386.7 1750.33,-386.7 1750.33,-386.7 1746.12,-386.7 1741.92,-382.5 1741.92,-378.3 1741.92,-378.3 1741.92,-369.9 1741.92,-369.9 1741.92,-365.7 1746.12,-361.5 1750.33,-361.5 1750.33,-361.5 1889.67,-361.5 1889.67,-361.5 1893.88,-361.5 1898.08,-365.7 1898.08,-369.9 1898.08,-369.9 1898.08,-378.3 1898.08,-378.3 1898.08,-382.5 1893.88,-386.7 1889.67,-386.7"/>
<text xml:space="preserve" text-anchor="middle" x="1820" y="-371" font-family="Helvetica,sans-Serif" font-size="8.00">CI&#45;002&#45;deterministic&#45;scenario&#45;replay &#45; L</text>
</g>
<!-- cool_ideas_CI_003_mcp_native_diff_protocol -->
<g id="node13" class="node">
<title>cool_ideas_CI_003_mcp_native_diff_protocol</title>
<path fill="#d4e8f7" stroke="black" d="M2043.8,-386.7C2043.8,-386.7 1920.2,-386.7 1920.2,-386.7 1916,-386.7 1911.8,-382.5 1911.8,-378.3 1911.8,-378.3 1911.8,-369.9 1911.8,-369.9 1911.8,-365.7 1916,-361.5 1920.2,-361.5 1920.2,-361.5 2043.8,-361.5 2043.8,-361.5 2048,-361.5 2052.2,-365.7 2052.2,-369.9 2052.2,-369.9 2052.2,-378.3 2052.2,-378.3 2052.2,-382.5 2048,-386.7 2043.8,-386.7"/>
<text xml:space="preserve" text-anchor="middle" x="1982" y="-371" font-family="Helvetica,sans-Serif" font-size="8.00">CI&#45;003&#45;mcp&#45;native&#45;diff&#45;protocol &#45; M</text>
</g>
<!-- cool_ideas_CLEAN_CODE_parallel_agent_merge_shared_file_loss -->
<g id="node14" class="node">
<title>cool_ideas_CLEAN_CODE_parallel_agent_merge_shared_file_loss</title>
<path fill="#d4e8f7" stroke="black" d="M2275.05,-386.7C2275.05,-386.7 2074.95,-386.7 2074.95,-386.7 2070.75,-386.7 2066.55,-382.5 2066.55,-378.3 2066.55,-378.3 2066.55,-369.9 2066.55,-369.9 2066.55,-365.7 2070.75,-361.5 2074.95,-361.5 2074.95,-361.5 2275.05,-361.5 2275.05,-361.5 2279.25,-361.5 2283.45,-365.7 2283.45,-369.9 2283.45,-369.9 2283.45,-378.3 2283.45,-378.3 2283.45,-382.5 2279.25,-386.7 2275.05,-386.7"/>
<text xml:space="preserve" text-anchor="middle" x="2175" y="-371" font-family="Helvetica,sans-Serif" font-size="8.00">CLEAN&#45;CODE&#45;parallel&#45;agent&#45;merge&#45;shared&#45;file&#45;loss &#45; M</text>
</g>
<!-- cool_ideas_CORE_agent_handoff_protocol -->
<g id="node15" class="node">
<title>cool_ideas_CORE_agent_handoff_protocol</title>
<path fill="#d4e8f7" stroke="black" d="M2425.92,-386.7C2425.92,-386.7 2306.08,-386.7 2306.08,-386.7 2301.88,-386.7 2297.68,-382.5 2297.68,-378.3 2297.68,-378.3 2297.68,-369.9 2297.68,-369.9 2297.68,-365.7 2301.88,-361.5 2306.08,-361.5 2306.08,-361.5 2425.92,-361.5 2425.92,-361.5 2430.12,-361.5 2434.32,-365.7 2434.32,-369.9 2434.32,-369.9 2434.32,-378.3 2434.32,-378.3 2434.32,-382.5 2430.12,-386.7 2425.92,-386.7"/>
<text xml:space="preserve" text-anchor="middle" x="2366" y="-371" font-family="Helvetica,sans-Serif" font-size="8.00">CORE&#45;agent&#45;handoff&#45;protocol &#45; M</text>
</g>
<!-- cool_ideas_CORE_auto_focus -->
<g id="node16" class="node">
<title>cool_ideas_CORE_auto_focus</title>
<path fill="#d4e8f7" stroke="black" d="M2529.67,-386.7C2529.67,-386.7 2456.33,-386.7 2456.33,-386.7 2452.12,-386.7 2447.93,-382.5 2447.93,-378.3 2447.93,-378.3 2447.93,-369.9 2447.93,-369.9 2447.93,-365.7 2452.12,-361.5 2456.33,-361.5 2456.33,-361.5 2529.67,-361.5 2529.67,-361.5 2533.88,-361.5 2538.07,-365.7 2538.07,-369.9 2538.07,-369.9 2538.07,-378.3 2538.07,-378.3 2538.07,-382.5 2533.88,-386.7 2529.67,-386.7"/>
<text xml:space="preserve" text-anchor="middle" x="2493" y="-371" font-family="Helvetica,sans-Serif" font-size="8.00">CORE&#45;auto&#45;focus &#45; L</text>
</g>
<!-- cool_ideas_CORE_capture_range -->
<g id="node17" class="node">
<title>cool_ideas_CORE_capture_range</title>
<path fill="#d4e8f7" stroke="black" d="M2647.8,-386.7C2647.8,-386.7 2560.2,-386.7 2560.2,-386.7 2556,-386.7 2551.8,-382.5 2551.8,-378.3 2551.8,-378.3 2551.8,-369.9 2551.8,-369.9 2551.8,-365.7 2556,-361.5 2560.2,-361.5 2560.2,-361.5 2647.8,-361.5 2647.8,-361.5 2652,-361.5 2656.2,-365.7 2656.2,-369.9 2656.2,-369.9 2656.2,-378.3 2656.2,-378.3 2656.2,-382.5 2652,-386.7 2647.8,-386.7"/>
<text xml:space="preserve" text-anchor="middle" x="2604" y="-371" font-family="Helvetica,sans-Serif" font-size="8.00">CORE&#45;capture&#45;range &#45; S</text>
</g>
<!-- cool_ideas_CORE_constructor_in_disguise_lint -->
<g id="node18" class="node">
<title>cool_ideas_CORE_constructor_in_disguise_lint</title>
<path fill="#d4e8f7" stroke="black" d="M2809.55,-386.7C2809.55,-386.7 2678.45,-386.7 2678.45,-386.7 2674.25,-386.7 2670.05,-382.5 2670.05,-378.3 2670.05,-378.3 2670.05,-369.9 2670.05,-369.9 2670.05,-365.7 2674.25,-361.5 2678.45,-361.5 2678.45,-361.5 2809.55,-361.5 2809.55,-361.5 2813.75,-361.5 2817.95,-365.7 2817.95,-369.9 2817.95,-369.9 2817.95,-378.3 2817.95,-378.3 2817.95,-382.5 2813.75,-386.7 2809.55,-386.7"/>
<text xml:space="preserve" text-anchor="middle" x="2744" y="-371" font-family="Helvetica,sans-Serif" font-size="8.00">CORE&#45;constructor&#45;in&#45;disguise&#45;lint &#45; M</text>
</g>
<!-- cool_ideas_CORE_context_budget_forecasting -->
<g id="node19" class="node">
<title>cool_ideas_CORE_context_budget_forecasting</title>
<path fill="#d4e8f7" stroke="black" d="M2973.67,-386.7C2973.67,-386.7 2840.33,-386.7 2840.33,-386.7 2836.12,-386.7 2831.93,-382.5 2831.93,-378.3 2831.93,-378.3 2831.93,-369.9 2831.93,-369.9 2831.93,-365.7 2836.12,-361.5 2840.33,-361.5 2840.33,-361.5 2973.67,-361.5 2973.67,-361.5 2977.88,-361.5 2982.07,-365.7 2982.07,-369.9 2982.07,-369.9 2982.07,-378.3 2982.07,-378.3 2982.07,-382.5 2977.88,-386.7 2973.67,-386.7"/>
<text xml:space="preserve" text-anchor="middle" x="2907" y="-371" font-family="Helvetica,sans-Serif" font-size="8.00">CORE&#45;context&#45;budget&#45;forecasting &#45; M</text>
</g>
<!-- cool_ideas_CORE_conversation_primer -->
<g id="node20" class="node">
<title>cool_ideas_CORE_conversation_primer</title>
<path fill="#d4e8f7" stroke="black" d="M3113.67,-386.7C3113.67,-386.7 3004.33,-386.7 3004.33,-386.7 3000.12,-386.7 2995.93,-382.5 2995.93,-378.3 2995.93,-378.3 2995.93,-369.9 2995.93,-369.9 2995.93,-365.7 3000.12,-361.5 3004.33,-361.5 3004.33,-361.5 3113.67,-361.5 3113.67,-361.5 3117.88,-361.5 3122.07,-365.7 3122.07,-369.9 3122.07,-369.9 3122.07,-378.3 3122.07,-378.3 3122.07,-382.5 3117.88,-386.7 3113.67,-386.7"/>
<text xml:space="preserve" text-anchor="middle" x="3059" y="-371" font-family="Helvetica,sans-Serif" font-size="8.00">CORE&#45;conversation&#45;primer &#45; M</text>
</g>
<!-- cool_ideas_CORE_cross_session_resume -->
<g id="node21" class="node">
<title>cool_ideas_CORE_cross_session_resume</title>
<path fill="#d4e8f7" stroke="black" d="M3259.3,-386.7C3259.3,-386.7 3144.7,-386.7 3144.7,-386.7 3140.5,-386.7 3136.3,-382.5 3136.3,-378.3 3136.3,-378.3 3136.3,-369.9 3136.3,-369.9 3136.3,-365.7 3140.5,-361.5 3144.7,-361.5 3144.7,-361.5 3259.3,-361.5 3259.3,-361.5 3263.5,-361.5 3267.7,-365.7 3267.7,-369.9 3267.7,-369.9 3267.7,-378.3 3267.7,-378.3 3267.7,-382.5 3263.5,-386.7 3259.3,-386.7"/>
<text xml:space="preserve" text-anchor="middle" x="3202" y="-371" font-family="Helvetica,sans-Serif" font-size="8.00">CORE&#45;cross&#45;session&#45;resume &#45; S</text>
</g>
<!-- cool_ideas_CORE_graft_as_teacher -->
<g id="node22" class="node">
<title>cool_ideas_CORE_graft_as_teacher</title>
<path fill="#d4e8f7" stroke="black" d="M3384.17,-386.7C3384.17,-386.7 3289.83,-386.7 3289.83,-386.7 3285.62,-386.7 3281.43,-382.5 3281.43,-378.3 3281.43,-378.3 3281.43,-369.9 3281.43,-369.9 3281.43,-365.7 3285.62,-361.5 3289.83,-361.5 3289.83,-361.5 3384.17,-361.5 3384.17,-361.5 3388.38,-361.5 3392.57,-365.7 3392.57,-369.9 3392.57,-369.9 3392.57,-378.3 3392.57,-378.3 3392.57,-382.5 3388.38,-386.7 3384.17,-386.7"/>
<text xml:space="preserve" text-anchor="middle" x="3337" y="-371" font-family="Helvetica,sans-Serif" font-size="8.00">CORE&#45;graft&#45;as&#45;teacher &#45; S</text>
</g>
<!-- cool_ideas_CORE_graft_teach_learning_receipts -->
<g id="node23" class="node">
<title>cool_ideas_CORE_graft_teach_learning_receipts</title>
<path fill="#d4e8f7" stroke="black" d="M3552.92,-386.7C3552.92,-386.7 3415.08,-386.7 3415.08,-386.7 3410.88,-386.7 3406.68,-382.5 3406.68,-378.3 3406.68,-378.3 3406.68,-369.9 3406.68,-369.9 3406.68,-365.7 3410.88,-361.5 3415.08,-361.5 3415.08,-361.5 3552.92,-361.5 3552.92,-361.5 3557.12,-361.5 3561.32,-365.7 3561.32,-369.9 3561.32,-369.9 3561.32,-378.3 3561.32,-378.3 3561.32,-382.5 3557.12,-386.7 3552.92,-386.7"/>
<text xml:space="preserve" text-anchor="middle" x="3484" y="-371" font-family="Helvetica,sans-Serif" font-size="8.00">CORE&#45;graft&#45;teach&#45;learning&#45;receipts &#45; S</text>
</g>
<!-- cool_ideas_CORE_graft_tool_client -->
<g id="node24" class="node">
<title>cool_ideas_CORE_graft_tool_client</title>
<path fill="#d4e8f7" stroke="black" d="M3674.67,-386.7C3674.67,-386.7 3583.33,-386.7 3583.33,-386.7 3579.12,-386.7 3574.93,-382.5 3574.93,-378.3 3574.93,-378.3 3574.93,-369.9 3574.93,-369.9 3574.93,-365.7 3579.12,-361.5 3583.33,-361.5 3583.33,-361.5 3674.67,-361.5 3674.67,-361.5 3678.88,-361.5 3683.07,-365.7 3683.07,-369.9 3683.07,-369.9 3683.07,-378.3 3683.07,-378.3 3683.07,-382.5 3678.88,-386.7 3674.67,-386.7"/>
<text xml:space="preserve" text-anchor="middle" x="3629" y="-371" font-family="Helvetica,sans-Serif" font-size="8.00">CORE&#45;graft&#45;tool&#45;client &#45; M</text>
</g>
<!-- cool_ideas_CORE_horizon_of_readability -->
<g id="node25" class="node">
<title>cool_ideas_CORE_horizon_of_readability</title>
<path fill="#d4e8f7" stroke="black" d="M3818.55,-386.7C3818.55,-386.7 3705.45,-386.7 3705.45,-386.7 3701.25,-386.7 3697.05,-382.5 3697.05,-378.3 3697.05,-378.3 3697.05,-369.9 3697.05,-369.9 3697.05,-365.7 3701.25,-361.5 3705.45,-361.5 3705.45,-361.5 3818.55,-361.5 3818.55,-361.5 3822.75,-361.5 3826.95,-365.7 3826.95,-369.9 3826.95,-369.9 3826.95,-378.3 3826.95,-378.3 3826.95,-382.5 3822.75,-386.7 3818.55,-386.7"/>
<text xml:space="preserve" text-anchor="middle" x="3762" y="-371" font-family="Helvetica,sans-Serif" font-size="8.00">CORE&#45;horizon&#45;of&#45;readability &#45; M</text>
</g>
<!-- cool_ideas_CORE_lagrangian_policy -->
<g id="node26" class="node">
<title>cool_ideas_CORE_lagrangian_policy</title>
<path fill="#d4e8f7" stroke="black" d="M3950.55,-386.7C3950.55,-386.7 3849.45,-386.7 3849.45,-386.7 3845.25,-386.7 3841.05,-382.5 3841.05,-378.3 3841.05,-378.3 3841.05,-369.9 3841.05,-369.9 3841.05,-365.7 3845.25,-361.5 3849.45,-361.5 3849.45,-361.5 3950.55,-361.5 3950.55,-361.5 3954.75,-361.5 3958.95,-365.7 3958.95,-369.9 3958.95,-369.9 3958.95,-378.3 3958.95,-378.3 3958.95,-382.5 3954.75,-386.7 3950.55,-386.7"/>
<text xml:space="preserve" text-anchor="middle" x="3900" y="-371" font-family="Helvetica,sans-Serif" font-size="8.00">CORE&#45;lagrangian&#45;policy &#45; XL</text>
</g>
<!-- cool_ideas_CORE_migrate_to_slice_first_reads -->
<g id="node27" class="node">
<title>cool_ideas_CORE_migrate_to_slice_first_reads</title>
<path fill="#d4e8f7" stroke="black" d="M10306.8,-313.25C10306.8,-313.25 10189.2,-313.25 10189.2,-313.25 10185,-313.25 10180.8,-309.05 10180.8,-304.85 10180.8,-304.85 10180.8,-296.45 10180.8,-296.45 10180.8,-292.25 10185,-288.05 10189.2,-288.05 10189.2,-288.05 10306.8,-288.05 10306.8,-288.05 10311,-288.05 10315.2,-292.25 10315.2,-296.45 10315.2,-296.45 10315.2,-304.85 10315.2,-304.85 10315.2,-309.05 10311,-313.25 10306.8,-313.25"/>
<text xml:space="preserve" text-anchor="middle" x="10248" y="-297.55" font-family="Helvetica,sans-Serif" font-size="8.00">CORE&#45;migrate&#45;to&#45;slice&#45;first&#45;reads</text>
</g>
<!-- cool_ideas_CORE_multi_agent_conflict_detection -->
<g id="node28" class="node">
<title>cool_ideas_CORE_multi_agent_conflict_detection</title>
<path fill="#d4e8f7" stroke="black" d="M4118.93,-386.7C4118.93,-386.7 3981.08,-386.7 3981.08,-386.7 3976.88,-386.7 3972.68,-382.5 3972.68,-378.3 3972.68,-378.3 3972.68,-369.9 3972.68,-369.9 3972.68,-365.7 3976.88,-361.5 3981.08,-361.5 3981.08,-361.5 4118.93,-361.5 4118.93,-361.5 4123.12,-361.5 4127.32,-365.7 4127.32,-369.9 4127.32,-369.9 4127.32,-378.3 4127.32,-378.3 4127.32,-382.5 4123.12,-386.7 4118.93,-386.7"/>
<text xml:space="preserve" text-anchor="middle" x="4050" y="-371" font-family="Helvetica,sans-Serif" font-size="8.00">CORE&#45;multi&#45;agent&#45;conflict&#45;detection &#45; L</text>
</g>
<!-- cool_ideas_CORE_policy_playground -->
<g id="node29" class="node">
<title>cool_ideas_CORE_policy_playground</title>
<path fill="#d4e8f7" stroke="black" d="M4248.43,-386.7C4248.43,-386.7 4149.57,-386.7 4149.57,-386.7 4145.38,-386.7 4141.18,-382.5 4141.18,-378.3 4141.18,-378.3 4141.18,-369.9 4141.18,-369.9 4141.18,-365.7 4145.38,-361.5 4149.57,-361.5 4149.57,-361.5 4248.43,-361.5 4248.43,-361.5 4252.62,-361.5 4256.82,-365.7 4256.82,-369.9 4256.82,-369.9 4256.82,-378.3 4256.82,-378.3 4256.82,-382.5 4252.62,-386.7 4248.43,-386.7"/>
<text xml:space="preserve" text-anchor="middle" x="4199" y="-371" font-family="Helvetica,sans-Serif" font-size="8.00">CORE&#45;policy&#45;playground &#45; S</text>
</g>
<!-- cool_ideas_CORE_policy_profiles -->
<g id="node30" class="node">
<title>cool_ideas_CORE_policy_profiles</title>
<path fill="#d4e8f7" stroke="black" d="M4365.05,-386.7C4365.05,-386.7 4278.95,-386.7 4278.95,-386.7 4274.75,-386.7 4270.55,-382.5 4270.55,-378.3 4270.55,-378.3 4270.55,-369.9 4270.55,-369.9 4270.55,-365.7 4274.75,-361.5 4278.95,-361.5 4278.95,-361.5 4365.05,-361.5 4365.05,-361.5 4369.25,-361.5 4373.45,-365.7 4373.45,-369.9 4373.45,-369.9 4373.45,-378.3 4373.45,-378.3 4373.45,-382.5 4369.25,-386.7 4365.05,-386.7"/>
<text xml:space="preserve" text-anchor="middle" x="4322" y="-371" font-family="Helvetica,sans-Serif" font-size="8.00">CORE&#45;policy&#45;profiles &#45; M</text>
</g>
<!-- cool_ideas_CORE_self_tuning_governor -->
<g id="node31" class="node">
<title>cool_ideas_CORE_self_tuning_governor</title>
<path fill="#d4e8f7" stroke="black" d="M4506.05,-386.7C4506.05,-386.7 4395.95,-386.7 4395.95,-386.7 4391.75,-386.7 4387.55,-382.5 4387.55,-378.3 4387.55,-378.3 4387.55,-369.9 4387.55,-369.9 4387.55,-365.7 4391.75,-361.5 4395.95,-361.5 4395.95,-361.5 4506.05,-361.5 4506.05,-361.5 4510.25,-361.5 4514.45,-365.7 4514.45,-369.9 4514.45,-369.9 4514.45,-378.3 4514.45,-378.3 4514.45,-382.5 4510.25,-386.7 4506.05,-386.7"/>
<text xml:space="preserve" text-anchor="middle" x="4451" y="-371" font-family="Helvetica,sans-Serif" font-size="8.00">CORE&#45;self&#45;tuning&#45;governor &#45; M</text>
</g>
<!-- cool_ideas_CORE_session_knowledge_map -->
<g id="node32" class="node">
<title>cool_ideas_CORE_session_knowledge_map</title>
<path fill="#d4e8f7" stroke="black" d="M4659.43,-386.7C4659.43,-386.7 4536.57,-386.7 4536.57,-386.7 4532.38,-386.7 4528.18,-382.5 4528.18,-378.3 4528.18,-378.3 4528.18,-369.9 4528.18,-369.9 4528.18,-365.7 4532.38,-361.5 4536.57,-361.5 4536.57,-361.5 4659.43,-361.5 4659.43,-361.5 4663.62,-361.5 4667.82,-365.7 4667.82,-369.9 4667.82,-369.9 4667.82,-378.3 4667.82,-378.3 4667.82,-382.5 4663.62,-386.7 4659.43,-386.7"/>
<text xml:space="preserve" text-anchor="middle" x="4598" y="-371" font-family="Helvetica,sans-Serif" font-size="8.00">CORE&#45;session&#45;knowledge&#45;map &#45; S</text>
</g>
<!-- cool_ideas_CORE_speculative_read_cost -->
<g id="node33" class="node">
<title>cool_ideas_CORE_speculative_read_cost</title>
<path fill="#d4e8f7" stroke="black" d="M4802.18,-386.7C4802.18,-386.7 4689.82,-386.7 4689.82,-386.7 4685.62,-386.7 4681.43,-382.5 4681.43,-378.3 4681.43,-378.3 4681.43,-369.9 4681.43,-369.9 4681.43,-365.7 4685.62,-361.5 4689.82,-361.5 4689.82,-361.5 4802.18,-361.5 4802.18,-361.5 4806.38,-361.5 4810.57,-365.7 4810.57,-369.9 4810.57,-369.9 4810.57,-378.3 4810.57,-378.3 4810.57,-382.5 4806.38,-386.7 4802.18,-386.7"/>
<text xml:space="preserve" text-anchor="middle" x="4746" y="-371" font-family="Helvetica,sans-Serif" font-size="8.00">CORE&#45;speculative&#45;read&#45;cost &#45; S</text>
</g>
<!-- cool_ideas_CORE_structural_session_replay -->
<g id="node34" class="node">
<title>cool_ideas_CORE_structural_session_replay</title>
<path fill="#d4e8f7" stroke="black" d="M4958.55,-386.7C4958.55,-386.7 4833.45,-386.7 4833.45,-386.7 4829.25,-386.7 4825.05,-382.5 4825.05,-378.3 4825.05,-378.3 4825.05,-369.9 4825.05,-369.9 4825.05,-365.7 4829.25,-361.5 4833.45,-361.5 4833.45,-361.5 4958.55,-361.5 4958.55,-361.5 4962.75,-361.5 4966.95,-365.7 4966.95,-369.9 4966.95,-369.9 4966.95,-378.3 4966.95,-378.3 4966.95,-382.5 4962.75,-386.7 4958.55,-386.7"/>
<text xml:space="preserve" text-anchor="middle" x="4896" y="-371" font-family="Helvetica,sans-Serif" font-size="8.00">CORE&#45;structural&#45;session&#45;replay &#45; M</text>
</g>
<!-- cool_ideas_CORE_wire_primitives_into_runtime -->
<g id="node35" class="node">
<title>cool_ideas_CORE_wire_primitives_into_runtime</title>
<path fill="#d4e8f7" stroke="black" d="M5124.43,-386.7C5124.43,-386.7 4989.57,-386.7 4989.57,-386.7 4985.38,-386.7 4981.18,-382.5 4981.18,-378.3 4981.18,-378.3 4981.18,-369.9 4981.18,-369.9 4981.18,-365.7 4985.38,-361.5 4989.57,-361.5 4989.57,-361.5 5124.43,-361.5 5124.43,-361.5 5128.62,-361.5 5132.82,-365.7 5132.82,-369.9 5132.82,-369.9 5132.82,-378.3 5132.82,-378.3 5132.82,-382.5 5128.62,-386.7 5124.43,-386.7"/>
<text xml:space="preserve" text-anchor="middle" x="5057" y="-371" font-family="Helvetica,sans-Serif" font-size="8.00">CORE&#45;wire&#45;primitives&#45;into&#45;runtime &#45; M</text>
</g>
<!-- cool_ideas_monitor_tick_ceiling_tracking -->
<g id="node36" class="node">
<title>cool_ideas_monitor_tick_ceiling_tracking</title>
<path fill="#d4e8f7" stroke="black" d="M5262.55,-386.7C5262.55,-386.7 5155.45,-386.7 5155.45,-386.7 5151.25,-386.7 5147.05,-382.5 5147.05,-378.3 5147.05,-378.3 5147.05,-369.9 5147.05,-369.9 5147.05,-365.7 5151.25,-361.5 5155.45,-361.5 5155.45,-361.5 5262.55,-361.5 5262.55,-361.5 5266.75,-361.5 5270.95,-365.7 5270.95,-369.9 5270.95,-369.9 5270.95,-378.3 5270.95,-378.3 5270.95,-382.5 5266.75,-386.7 5262.55,-386.7"/>
<text xml:space="preserve" text-anchor="middle" x="5209" y="-371" font-family="Helvetica,sans-Serif" font-size="8.00">monitor&#45;tick&#45;ceiling&#45;tracking &#45; S</text>
</g>
<!-- cool_ideas_WARP_background_indexing -->
<g id="node52" class="node">
<title>cool_ideas_WARP_background_indexing</title>
<path fill="#d4e8f7" stroke="black" d="M5265.55,-313.25C5265.55,-313.25 5152.45,-313.25 5152.45,-313.25 5148.25,-313.25 5144.05,-309.05 5144.05,-304.85 5144.05,-304.85 5144.05,-296.45 5144.05,-296.45 5144.05,-292.25 5148.25,-288.05 5152.45,-288.05 5152.45,-288.05 5265.55,-288.05 5265.55,-288.05 5269.75,-288.05 5273.95,-292.25 5273.95,-296.45 5273.95,-296.45 5273.95,-304.85 5273.95,-304.85 5273.95,-309.05 5269.75,-313.25 5265.55,-313.25"/>
<text xml:space="preserve" text-anchor="middle" x="5209" y="-297.55" font-family="Helvetica,sans-Serif" font-size="8.00">WARP&#45;background&#45;indexing &#45; M</text>
</g>
<!-- cool_ideas_monitor_tick_ceiling_tracking&#45;&gt;cool_ideas_WARP_background_indexing -->
<g id="edge1" class="edge">
<title>cool_ideas_monitor_tick_ceiling_tracking&#45;&gt;cool_ideas_WARP_background_indexing</title>
<path fill="none" stroke="#666666" d="M5209,-361.3C5209,-350.1 5209,-333.08 5209,-320.08"/>
<polygon fill="#666666" stroke="#666666" points="5210.75,-320.22 5209,-315.22 5207.25,-320.22 5210.75,-320.22"/>
<text xml:space="preserve" text-anchor="middle" x="5240.5" y="-334.85" font-family="Helvetica,sans-Serif" font-size="7.00">blocked_by/blocking</text>
</g>
<!-- cool_ideas_SURFACE_active_causal_workspace_status -->
<g id="node37" class="node">
<title>cool_ideas_SURFACE_active_causal_workspace_status</title>
<path fill="#d4e8f7" stroke="black" d="M5457.05,-386.7C5457.05,-386.7 5292.95,-386.7 5292.95,-386.7 5288.75,-386.7 5284.55,-382.5 5284.55,-378.3 5284.55,-378.3 5284.55,-369.9 5284.55,-369.9 5284.55,-365.7 5288.75,-361.5 5292.95,-361.5 5292.95,-361.5 5457.05,-361.5 5457.05,-361.5 5461.25,-361.5 5465.45,-365.7 5465.45,-369.9 5465.45,-369.9 5465.45,-378.3 5465.45,-378.3 5465.45,-382.5 5461.25,-386.7 5457.05,-386.7"/>
<text xml:space="preserve" text-anchor="middle" x="5375" y="-371" font-family="Helvetica,sans-Serif" font-size="8.00">SURFACE&#45;active&#45;causal&#45;workspace&#45;status &#45; M</text>
</g>
<!-- cool_ideas_SURFACE_ide_native_graft_integration -->
<g id="node42" class="node">
<title>cool_ideas_SURFACE_ide_native_graft_integration</title>
<path fill="#d4e8f7" stroke="black" d="M5450.3,-313.25C5450.3,-313.25 5299.7,-313.25 5299.7,-313.25 5295.5,-313.25 5291.3,-309.05 5291.3,-304.85 5291.3,-304.85 5291.3,-296.45 5291.3,-296.45 5291.3,-292.25 5295.5,-288.05 5299.7,-288.05 5299.7,-288.05 5450.3,-288.05 5450.3,-288.05 5454.5,-288.05 5458.7,-292.25 5458.7,-296.45 5458.7,-296.45 5458.7,-304.85 5458.7,-304.85 5458.7,-309.05 5454.5,-313.25 5450.3,-313.25"/>
<text xml:space="preserve" text-anchor="middle" x="5375" y="-297.55" font-family="Helvetica,sans-Serif" font-size="8.00">SURFACE&#45;ide&#45;native&#45;graft&#45;integration &#45; XL</text>
</g>
<!-- cool_ideas_SURFACE_active_causal_workspace_status&#45;&gt;cool_ideas_SURFACE_ide_native_graft_integration -->
<g id="edge2" class="edge">
<title>cool_ideas_SURFACE_active_causal_workspace_status&#45;&gt;cool_ideas_SURFACE_ide_native_graft_integration</title>
<path fill="none" stroke="#666666" d="M5375,-361.3C5375,-350.1 5375,-333.08 5375,-320.08"/>
<polygon fill="#666666" stroke="#666666" points="5376.75,-320.22 5375,-315.22 5373.25,-320.22 5376.75,-320.22"/>
<text xml:space="preserve" text-anchor="middle" x="5406.5" y="-334.85" font-family="Helvetica,sans-Serif" font-size="7.00">blocked_by/blocking</text>
</g>
<!-- cool_ideas_SURFACE_attach_to_existing_causal_session -->
<g id="node38" class="node">
<title>cool_ideas_SURFACE_attach_to_existing_causal_session</title>
<path fill="#d4e8f7" stroke="black" d="M5656.3,-386.7C5656.3,-386.7 5487.7,-386.7 5487.7,-386.7 5483.5,-386.7 5479.3,-382.5 5479.3,-378.3 5479.3,-378.3 5479.3,-369.9 5479.3,-369.9 5479.3,-365.7 5483.5,-361.5 5487.7,-361.5 5487.7,-361.5 5656.3,-361.5 5656.3,-361.5 5660.5,-361.5 5664.7,-365.7 5664.7,-369.9 5664.7,-369.9 5664.7,-378.3 5664.7,-378.3 5664.7,-382.5 5660.5,-386.7 5656.3,-386.7"/>
<text xml:space="preserve" text-anchor="middle" x="5572" y="-371" font-family="Helvetica,sans-Serif" font-size="8.00">SURFACE&#45;attach&#45;to&#45;existing&#45;causal&#45;session &#45; M</text>
</g>
<!-- cool_ideas_SURFACE_bijou_daemon_control_plane_actions -->
<g id="node39" class="node">
<title>cool_ideas_SURFACE_bijou_daemon_control_plane_actions</title>
<path fill="#d4e8f7" stroke="black" d="M5864.43,-386.7C5864.43,-386.7 5687.57,-386.7 5687.57,-386.7 5683.38,-386.7 5679.18,-382.5 5679.18,-378.3 5679.18,-378.3 5679.18,-369.9 5679.18,-369.9 5679.18,-365.7 5683.38,-361.5 5687.57,-361.5 5687.57,-361.5 5864.43,-361.5 5864.43,-361.5 5868.62,-361.5 5872.82,-365.7 5872.82,-369.9 5872.82,-369.9 5872.82,-378.3 5872.82,-378.3 5872.82,-382.5 5868.62,-386.7 5864.43,-386.7"/>
<text xml:space="preserve" text-anchor="middle" x="5776" y="-371" font-family="Helvetica,sans-Serif" font-size="8.00">SURFACE&#45;bijou&#45;daemon&#45;control&#45;plane&#45;actions &#45; L</text>
</g>
<!-- cool_ideas_SURFACE_bijou_daemon_status_live_refresh -->
<g id="node40" class="node">
<title>cool_ideas_SURFACE_bijou_daemon_status_live_refresh</title>
<path fill="#d4e8f7" stroke="black" d="M6064.3,-386.7C6064.3,-386.7 5895.7,-386.7 5895.7,-386.7 5891.5,-386.7 5887.3,-382.5 5887.3,-378.3 5887.3,-378.3 5887.3,-369.9 5887.3,-369.9 5887.3,-365.7 5891.5,-361.5 5895.7,-361.5 5895.7,-361.5 6064.3,-361.5 6064.3,-361.5 6068.5,-361.5 6072.7,-365.7 6072.7,-369.9 6072.7,-369.9 6072.7,-378.3 6072.7,-378.3 6072.7,-382.5 6068.5,-386.7 6064.3,-386.7"/>
<text xml:space="preserve" text-anchor="middle" x="5980" y="-371" font-family="Helvetica,sans-Serif" font-size="8.00">SURFACE&#45;bijou&#45;daemon&#45;status&#45;live&#45;refresh &#45; M</text>
</g>
<!-- cool_ideas_SURFACE_git_graft_enhance_expanded_git_subcommands -->
<g id="node41" class="node">
<title>cool_ideas_SURFACE_git_graft_enhance_expanded_git_subcommands</title>
<path fill="#d4e8f7" stroke="black" d="M6299.3,-386.7C6299.3,-386.7 6094.7,-386.7 6094.7,-386.7 6090.5,-386.7 6086.3,-382.5 6086.3,-378.3 6086.3,-378.3 6086.3,-369.9 6086.3,-369.9 6086.3,-365.7 6090.5,-361.5 6094.7,-361.5 6094.7,-361.5 6299.3,-361.5 6299.3,-361.5 6303.5,-361.5 6307.7,-365.7 6307.7,-369.9 6307.7,-369.9 6307.7,-378.3 6307.7,-378.3 6307.7,-382.5 6303.5,-386.7 6299.3,-386.7"/>
<text xml:space="preserve" text-anchor="middle" x="6197" y="-371" font-family="Helvetica,sans-Serif" font-size="8.00">SURFACE&#45;git&#45;graft&#45;enhance&#45;expanded&#45;git&#45;subcommands</text>
</g>
<!-- cool_ideas_SURFACE_init_dry_run -->
<g id="node43" class="node">
<title>cool_ideas_SURFACE_init_dry_run</title>
<path fill="#d4e8f7" stroke="black" d="M6420.3,-386.7C6420.3,-386.7 6329.7,-386.7 6329.7,-386.7 6325.5,-386.7 6321.3,-382.5 6321.3,-378.3 6321.3,-378.3 6321.3,-369.9 6321.3,-369.9 6321.3,-365.7 6325.5,-361.5 6329.7,-361.5 6329.7,-361.5 6420.3,-361.5 6420.3,-361.5 6424.5,-361.5 6428.7,-365.7 6428.7,-369.9 6428.7,-369.9 6428.7,-378.3 6428.7,-378.3 6428.7,-382.5 6424.5,-386.7 6420.3,-386.7"/>
<text xml:space="preserve" text-anchor="middle" x="6375" y="-371" font-family="Helvetica,sans-Serif" font-size="8.00">SURFACE&#45;init&#45;dry&#45;run &#45; S</text>
</g>
<!-- cool_ideas_SURFACE_local_history_dag_render_mode_and_count_legend -->
<g id="node44" class="node">
<title>cool_ideas_SURFACE_local_history_dag_render_mode_and_count_legend</title>
<path fill="#d4e8f7" stroke="black" d="M6677.18,-386.7C6677.18,-386.7 6450.82,-386.7 6450.82,-386.7 6446.62,-386.7 6442.43,-382.5 6442.43,-378.3 6442.43,-378.3 6442.43,-369.9 6442.43,-369.9 6442.43,-365.7 6446.62,-361.5 6450.82,-361.5 6450.82,-361.5 6677.18,-361.5 6677.18,-361.5 6681.38,-361.5 6685.57,-365.7 6685.57,-369.9 6685.57,-369.9 6685.57,-378.3 6685.57,-378.3 6685.57,-382.5 6681.38,-386.7 6677.18,-386.7"/>
<text xml:space="preserve" text-anchor="middle" x="6564" y="-371" font-family="Helvetica,sans-Serif" font-size="8.00">SURFACE&#45;local&#45;history&#45;dag&#45;render&#45;mode&#45;and&#45;count&#45;legend &#45; S</text>
</g>
<!-- cool_ideas_SURFACE_non_codex_instruction_bootstrap_parity -->
<g id="node45" class="node">
<title>cool_ideas_SURFACE_non_codex_instruction_bootstrap_parity</title>
<path fill="#d4e8f7" stroke="black" d="M6896.43,-386.7C6896.43,-386.7 6707.57,-386.7 6707.57,-386.7 6703.38,-386.7 6699.18,-382.5 6699.18,-378.3 6699.18,-378.3 6699.18,-369.9 6699.18,-369.9 6699.18,-365.7 6703.38,-361.5 6707.57,-361.5 6707.57,-361.5 6896.43,-361.5 6896.43,-361.5 6900.62,-361.5 6904.82,-365.7 6904.82,-369.9 6904.82,-369.9 6904.82,-378.3 6904.82,-378.3 6904.82,-382.5 6900.62,-386.7 6896.43,-386.7"/>
<text xml:space="preserve" text-anchor="middle" x="6802" y="-371" font-family="Helvetica,sans-Serif" font-size="8.00">SURFACE&#45;non&#45;codex&#45;instruction&#45;bootstrap&#45;parity &#45; M</text>
</g>
<!-- cool_ideas_SURFACE_offer_rename_refactor -->
<g id="node46" class="node">
<title>cool_ideas_SURFACE_offer_rename_refactor</title>
<path fill="#d4e8f7" stroke="black" d="M7056.43,-386.7C7056.43,-386.7 6927.57,-386.7 6927.57,-386.7 6923.38,-386.7 6919.18,-382.5 6919.18,-378.3 6919.18,-378.3 6919.18,-369.9 6919.18,-369.9 6919.18,-365.7 6923.38,-361.5 6927.57,-361.5 6927.57,-361.5 7056.43,-361.5 7056.43,-361.5 7060.62,-361.5 7064.82,-365.7 7064.82,-369.9 7064.82,-369.9 7064.82,-378.3 7064.82,-378.3 7064.82,-382.5 7060.62,-386.7 7056.43,-386.7"/>
<text xml:space="preserve" text-anchor="middle" x="6992" y="-371" font-family="Helvetica,sans-Serif" font-size="8.00">SURFACE&#45;offer&#45;rename&#45;refactor &#45; L</text>
</g>
<!-- cool_ideas_SURFACE_terminal_activity_browser_tui -->
<g id="node47" class="node">
<title>cool_ideas_SURFACE_terminal_activity_browser_tui</title>
<path fill="#d4e8f7" stroke="black" d="M7236.55,-386.7C7236.55,-386.7 7087.45,-386.7 7087.45,-386.7 7083.25,-386.7 7079.05,-382.5 7079.05,-378.3 7079.05,-378.3 7079.05,-369.9 7079.05,-369.9 7079.05,-365.7 7083.25,-361.5 7087.45,-361.5 7087.45,-361.5 7236.55,-361.5 7236.55,-361.5 7240.75,-361.5 7244.95,-365.7 7244.95,-369.9 7244.95,-369.9 7244.95,-378.3 7244.95,-378.3 7244.95,-382.5 7240.75,-386.7 7236.55,-386.7"/>
<text xml:space="preserve" text-anchor="middle" x="7162" y="-371" font-family="Helvetica,sans-Serif" font-size="8.00">SURFACE&#45;terminal&#45;activity&#45;browser&#45;tui &#45; L</text>
</g>
<!-- cool_ideas_traverse_plus_query_hydration_helper -->
<g id="node48" class="node">
<title>cool_ideas_traverse_plus_query_hydration_helper</title>
<path fill="#d4e8f7" stroke="black" d="M7408.8,-386.7C7408.8,-386.7 7267.2,-386.7 7267.2,-386.7 7263,-386.7 7258.8,-382.5 7258.8,-378.3 7258.8,-378.3 7258.8,-369.9 7258.8,-369.9 7258.8,-365.7 7263,-361.5 7267.2,-361.5 7267.2,-361.5 7408.8,-361.5 7408.8,-361.5 7413,-361.5 7417.2,-365.7 7417.2,-369.9 7417.2,-369.9 7417.2,-378.3 7417.2,-378.3 7417.2,-382.5 7413,-386.7 7408.8,-386.7"/>
<text xml:space="preserve" text-anchor="middle" x="7338" y="-371" font-family="Helvetica,sans-Serif" font-size="8.00">traverse&#45;plus&#45;query&#45;hydration&#45;helper &#45; S</text>
</g>
<!-- cool_ideas_WARP_adaptive_projection_selection -->
<g id="node49" class="node">
<title>cool_ideas_WARP_adaptive_projection_selection</title>
<path fill="#d4e8f7" stroke="black" d="M7577.93,-386.7C7577.93,-386.7 7440.07,-386.7 7440.07,-386.7 7435.88,-386.7 7431.68,-382.5 7431.68,-378.3 7431.68,-378.3 7431.68,-369.9 7431.68,-369.9 7431.68,-365.7 7435.88,-361.5 7440.07,-361.5 7440.07,-361.5 7577.93,-361.5 7577.93,-361.5 7582.12,-361.5 7586.32,-365.7 7586.32,-369.9 7586.32,-369.9 7586.32,-378.3 7586.32,-378.3 7586.32,-382.5 7582.12,-386.7 7577.93,-386.7"/>
<text xml:space="preserve" text-anchor="middle" x="7509" y="-371" font-family="Helvetica,sans-Serif" font-size="8.00">WARP&#45;adaptive&#45;projection&#45;selection &#45; L</text>
</g>
<!-- cool_ideas_WARP_agent_action_provenance -->
<g id="node50" class="node">
<title>cool_ideas_WARP_agent_action_provenance</title>
<path fill="#d4e8f7" stroke="black" d="M7739.55,-386.7C7739.55,-386.7 7608.45,-386.7 7608.45,-386.7 7604.25,-386.7 7600.05,-382.5 7600.05,-378.3 7600.05,-378.3 7600.05,-369.9 7600.05,-369.9 7600.05,-365.7 7604.25,-361.5 7608.45,-361.5 7608.45,-361.5 7739.55,-361.5 7739.55,-361.5 7743.75,-361.5 7747.95,-365.7 7747.95,-369.9 7747.95,-369.9 7747.95,-378.3 7747.95,-378.3 7747.95,-382.5 7743.75,-386.7 7739.55,-386.7"/>
<text xml:space="preserve" text-anchor="middle" x="7674" y="-371" font-family="Helvetica,sans-Serif" font-size="8.00">WARP&#45;agent&#45;action&#45;provenance &#45; XL</text>
</g>
<!-- cool_ideas_WARP_agent_action_provenance&#45;&gt;cool_ideas_CI_001_causal_collapse_visualizer -->
<g id="edge3" class="edge">
<title>cool_ideas_WARP_agent_action_provenance&#45;&gt;cool_ideas_CI_001_causal_collapse_visualizer</title>
<path fill="none" stroke="#666666" d="M7626.13,-361.03C7615.27,-358.43 7603.76,-355.78 7593,-353.5 7563.83,-347.32 7556.12,-347.91 7527,-341.5 7491.75,-333.74 7452.35,-323.52 7422.23,-315.37"/>
<polygon fill="#666666" stroke="#666666" points="7422.69,-313.68 7417.4,-314.06 7421.77,-317.06 7422.69,-313.68"/>
<text xml:space="preserve" text-anchor="middle" x="7558.5" y="-334.85" font-family="Helvetica,sans-Serif" font-size="7.00">blocked_by/blocking</text>
</g>
<!-- cool_ideas_WARP_causal_write_tracking -->
<g id="node55" class="node">
<title>cool_ideas_WARP_causal_write_tracking</title>
<path fill="#d4e8f7" stroke="black" d="M7577.05,-313.25C7577.05,-313.25 7466.95,-313.25 7466.95,-313.25 7462.75,-313.25 7458.55,-309.05 7458.55,-304.85 7458.55,-304.85 7458.55,-296.45 7458.55,-296.45 7458.55,-292.25 7462.75,-288.05 7466.95,-288.05 7466.95,-288.05 7577.05,-288.05 7577.05,-288.05 7581.25,-288.05 7585.45,-292.25 7585.45,-296.45 7585.45,-296.45 7585.45,-304.85 7585.45,-304.85 7585.45,-309.05 7581.25,-313.25 7577.05,-313.25"/>
<text xml:space="preserve" text-anchor="middle" x="7522" y="-297.55" font-family="Helvetica,sans-Serif" font-size="8.00">WARP&#45;causal&#45;write&#45;tracking &#45; L</text>
</g>
<!-- cool_ideas_WARP_agent_action_provenance&#45;&gt;cool_ideas_WARP_causal_write_tracking -->
<g id="edge4" class="edge">
<title>cool_ideas_WARP_agent_action_provenance&#45;&gt;cool_ideas_WARP_causal_write_tracking</title>
<path fill="none" stroke="#666666" d="M7648.56,-361.14C7622.36,-348.83 7581.5,-329.62 7553.33,-316.38"/>
<polygon fill="#666666" stroke="#666666" points="7554.16,-314.84 7548.89,-314.29 7552.67,-318 7554.16,-314.84"/>
<text xml:space="preserve" text-anchor="middle" x="7634.06" y="-334.85" font-family="Helvetica,sans-Serif" font-size="7.00">blocked_by/blocking</text>
</g>
<!-- cool_ideas_WARP_intent_and_decision_events -->
<g id="node64" class="node">
<title>cool_ideas_WARP_intent_and_decision_events</title>
<path fill="#d4e8f7" stroke="black" d="M7740.3,-313.25C7740.3,-313.25 7607.7,-313.25 7607.7,-313.25 7603.5,-313.25 7599.3,-309.05 7599.3,-304.85 7599.3,-304.85 7599.3,-296.45 7599.3,-296.45 7599.3,-292.25 7603.5,-288.05 7607.7,-288.05 7607.7,-288.05 7740.3,-288.05 7740.3,-288.05 7744.5,-288.05 7748.7,-292.25 7748.7,-296.45 7748.7,-296.45 7748.7,-304.85 7748.7,-304.85 7748.7,-309.05 7744.5,-313.25 7740.3,-313.25"/>
<text xml:space="preserve" text-anchor="middle" x="7674" y="-297.55" font-family="Helvetica,sans-Serif" font-size="8.00">WARP&#45;intent&#45;and&#45;decision&#45;events &#45; M</text>
</g>
<!-- cool_ideas_WARP_agent_action_provenance&#45;&gt;cool_ideas_WARP_intent_and_decision_events -->
<g id="edge5" class="edge">
<title>cool_ideas_WARP_agent_action_provenance&#45;&gt;cool_ideas_WARP_intent_and_decision_events</title>
<path fill="none" stroke="#666666" d="M7674,-361.3C7674,-350.1 7674,-333.08 7674,-320.08"/>
<polygon fill="#666666" stroke="#666666" points="7675.75,-320.22 7674,-315.22 7672.25,-320.22 7675.75,-320.22"/>
<text xml:space="preserve" text-anchor="middle" x="7705.5" y="-334.85" font-family="Helvetica,sans-Serif" font-size="7.00">blocked_by/blocking</text>
</g>
<!-- cool_ideas_WARP_provenance_dag -->
<g id="node69" class="node">
<title>cool_ideas_WARP_provenance_dag</title>
<path fill="#d4e8f7" stroke="black" d="M7866.55,-313.25C7866.55,-313.25 7771.45,-313.25 7771.45,-313.25 7767.25,-313.25 7763.05,-309.05 7763.05,-304.85 7763.05,-304.85 7763.05,-296.45 7763.05,-296.45 7763.05,-292.25 7767.25,-288.05 7771.45,-288.05 7771.45,-288.05 7866.55,-288.05 7866.55,-288.05 7870.75,-288.05 7874.95,-292.25 7874.95,-296.45 7874.95,-296.45 7874.95,-304.85 7874.95,-304.85 7874.95,-309.05 7870.75,-313.25 7866.55,-313.25"/>
<text xml:space="preserve" text-anchor="middle" x="7819" y="-297.55" font-family="Helvetica,sans-Serif" font-size="8.00">WARP&#45;provenance&#45;dag &#45; L</text>
</g>
<!-- cool_ideas_WARP_agent_action_provenance&#45;&gt;cool_ideas_WARP_provenance_dag -->
<g id="edge6" class="edge">
<title>cool_ideas_WARP_agent_action_provenance&#45;&gt;cool_ideas_WARP_provenance_dag</title>
<path fill="none" stroke="#666666" d="M7699.45,-361.07C7711.73,-355.22 7726.66,-348.06 7740,-341.5 7756.55,-333.36 7774.95,-324.09 7789.83,-316.54"/>
<polygon fill="#666666" stroke="#666666" points="7790.54,-318.15 7794.21,-314.32 7788.96,-315.03 7790.54,-318.15"/>
<text xml:space="preserve" text-anchor="middle" x="7786.67" y="-334.85" font-family="Helvetica,sans-Serif" font-size="7.00">blocked_by/blocking</text>
</g>
<!-- cool_ideas_WARP_auto_breaking_change_detection -->
<g id="node51" class="node">
<title>cool_ideas_WARP_auto_breaking_change_detection</title>
<path fill="#d4e8f7" stroke="black" d="M10488.3,-313.25C10488.3,-313.25 10337.7,-313.25 10337.7,-313.25 10333.5,-313.25 10329.3,-309.05 10329.3,-304.85 10329.3,-304.85 10329.3,-296.45 10329.3,-296.45 10329.3,-292.25 10333.5,-288.05 10337.7,-288.05 10337.7,-288.05 10488.3,-288.05 10488.3,-288.05 10492.5,-288.05 10496.7,-292.25 10496.7,-296.45 10496.7,-296.45 10496.7,-304.85 10496.7,-304.85 10496.7,-309.05 10492.5,-313.25 10488.3,-313.25"/>
<text xml:space="preserve" text-anchor="middle" x="10413" y="-297.55" font-family="Helvetica,sans-Serif" font-size="8.00">WARP&#45;auto&#45;breaking&#45;change&#45;detection &#45; L</text>
</g>
<!-- cool_ideas_WARP_budget_elasticity -->
<g id="node53" class="node">
<title>cool_ideas_WARP_budget_elasticity</title>
<path fill="#d4e8f7" stroke="black" d="M7865.93,-386.7C7865.93,-386.7 7770.07,-386.7 7770.07,-386.7 7765.88,-386.7 7761.68,-382.5 7761.68,-378.3 7761.68,-378.3 7761.68,-369.9 7761.68,-369.9 7761.68,-365.7 7765.88,-361.5 7770.07,-361.5 7770.07,-361.5 7865.93,-361.5 7865.93,-361.5 7870.12,-361.5 7874.32,-365.7 7874.32,-369.9 7874.32,-369.9 7874.32,-378.3 7874.32,-378.3 7874.32,-382.5 7870.12,-386.7 7865.93,-386.7"/>
<text xml:space="preserve" text-anchor="middle" x="7818" y="-371" font-family="Helvetica,sans-Serif" font-size="8.00">WARP&#45;budget&#45;elasticity &#45; M</text>
</g>
<!-- cool_ideas_WARP_causal_blame_for_staged_artifacts -->
<g id="node54" class="node">
<title>cool_ideas_WARP_causal_blame_for_staged_artifacts</title>
<path fill="#d4e8f7" stroke="black" d="M7896.18,-239.8C7896.18,-239.8 7741.82,-239.8 7741.82,-239.8 7737.62,-239.8 7733.43,-235.6 7733.43,-231.4 7733.43,-231.4 7733.43,-223 7733.43,-223 7733.43,-218.8 7737.62,-214.6 7741.82,-214.6 7741.82,-214.6 7896.18,-214.6 7896.18,-214.6 7900.38,-214.6 7904.57,-218.8 7904.57,-223 7904.57,-223 7904.57,-231.4 7904.57,-231.4 7904.57,-235.6 7900.38,-239.8 7896.18,-239.8"/>
<text xml:space="preserve" text-anchor="middle" x="7819" y="-224.1" font-family="Helvetica,sans-Serif" font-size="8.00">WARP&#45;causal&#45;blame&#45;for&#45;staged&#45;artifacts &#45; L</text>
</g>
<!-- cool_ideas_WARP_codebase_entropy_trajectory -->
<g id="node56" class="node">
<title>cool_ideas_WARP_codebase_entropy_trajectory</title>
<path fill="#d4e8f7" stroke="black" d="M8035.68,-386.7C8035.68,-386.7 7896.32,-386.7 7896.32,-386.7 7892.12,-386.7 7887.93,-382.5 7887.93,-378.3 7887.93,-378.3 7887.93,-369.9 7887.93,-369.9 7887.93,-365.7 7892.12,-361.5 7896.32,-361.5 7896.32,-361.5 8035.68,-361.5 8035.68,-361.5 8039.88,-361.5 8044.07,-365.7 8044.07,-369.9 8044.07,-369.9 8044.07,-378.3 8044.07,-378.3 8044.07,-382.5 8039.88,-386.7 8035.68,-386.7"/>
<text xml:space="preserve" text-anchor="middle" x="7966" y="-371" font-family="Helvetica,sans-Serif" font-size="8.00">WARP&#45;codebase&#45;entropy&#45;trajectory &#45; M</text>
</g>
<!-- cool_ideas_WARP_counterfactual_refactoring -->
<g id="node58" class="node">
<title>cool_ideas_WARP_counterfactual_refactoring</title>
<path fill="#d4e8f7" stroke="black" d="M8051.68,-313.25C8051.68,-313.25 7918.32,-313.25 7918.32,-313.25 7914.12,-313.25 7909.93,-309.05 7909.93,-304.85 7909.93,-304.85 7909.93,-296.45 7909.93,-296.45 7909.93,-292.25 7914.12,-288.05 7918.32,-288.05 7918.32,-288.05 8051.68,-288.05 8051.68,-288.05 8055.88,-288.05 8060.07,-292.25 8060.07,-296.45 8060.07,-296.45 8060.07,-304.85 8060.07,-304.85 8060.07,-309.05 8055.88,-313.25 8051.68,-313.25"/>
<text xml:space="preserve" text-anchor="middle" x="7985" y="-297.55" font-family="Helvetica,sans-Serif" font-size="8.00">WARP&#45;counterfactual&#45;refactoring &#45; XL</text>
</g>
<!-- cool_ideas_WARP_codebase_entropy_trajectory&#45;&gt;cool_ideas_WARP_counterfactual_refactoring -->
<g id="edge7" class="edge">
<title>cool_ideas_WARP_codebase_entropy_trajectory&#45;&gt;cool_ideas_WARP_counterfactual_refactoring</title>
<path fill="none" stroke="#666666" d="M7969.14,-361.3C7972.14,-349.99 7976.73,-332.76 7980.19,-319.73"/>
<polygon fill="#666666" stroke="#666666" points="7981.81,-320.45 7981.41,-315.17 7978.43,-319.55 7981.81,-320.45"/>
<text xml:space="preserve" text-anchor="middle" x="8007.57" y="-334.85" font-family="Helvetica,sans-Serif" font-size="7.00">blocked_by/blocking</text>
</g>
<!-- cool_ideas_WARP_codebase_signature -->
<g id="node57" class="node">
<title>cool_ideas_WARP_codebase_signature</title>
<path fill="#d4e8f7" stroke="black" d="M8173.55,-386.7C8173.55,-386.7 8066.45,-386.7 8066.45,-386.7 8062.25,-386.7 8058.05,-382.5 8058.05,-378.3 8058.05,-378.3 8058.05,-369.9 8058.05,-369.9 8058.05,-365.7 8062.25,-361.5 8066.45,-361.5 8066.45,-361.5 8173.55,-361.5 8173.55,-361.5 8177.75,-361.5 8181.95,-365.7 8181.95,-369.9 8181.95,-369.9 8181.95,-378.3 8181.95,-378.3 8181.95,-382.5 8177.75,-386.7 8173.55,-386.7"/>
<text xml:space="preserve" text-anchor="middle" x="8120" y="-371" font-family="Helvetica,sans-Serif" font-size="8.00">WARP&#45;codebase&#45;signature &#45; L</text>
</g>
<!-- cool_ideas_WARP_structural_impact_prediction -->
<g id="node79" class="node">
<title>cool_ideas_WARP_structural_impact_prediction</title>
<path fill="#d4e8f7" stroke="black" d="M8065.3,-239.8C8065.3,-239.8 7926.7,-239.8 7926.7,-239.8 7922.5,-239.8 7918.3,-235.6 7918.3,-231.4 7918.3,-231.4 7918.3,-223 7918.3,-223 7918.3,-218.8 7922.5,-214.6 7926.7,-214.6 7926.7,-214.6 8065.3,-214.6 8065.3,-214.6 8069.5,-214.6 8073.7,-218.8 8073.7,-223 8073.7,-223 8073.7,-231.4 8073.7,-231.4 8073.7,-235.6 8069.5,-239.8 8065.3,-239.8"/>
<text xml:space="preserve" text-anchor="middle" x="7996" y="-224.1" font-family="Helvetica,sans-Serif" font-size="8.00">WARP&#45;structural&#45;impact&#45;prediction &#45; XL</text>
</g>
<!-- cool_ideas_WARP_counterfactual_refactoring&#45;&gt;cool_ideas_WARP_structural_impact_prediction -->
<g id="edge8" class="edge">
<title>cool_ideas_WARP_counterfactual_refactoring&#45;&gt;cool_ideas_WARP_structural_impact_prediction</title>
<path fill="none" stroke="#666666" d="M7986.82,-287.85C7988.54,-276.65 7991.16,-259.63 7993.16,-246.63"/>
<polygon fill="#666666" stroke="#666666" points="7994.88,-246.96 7993.91,-241.75 7991.42,-246.43 7994.88,-246.96"/>
<text xml:space="preserve" text-anchor="middle" x="8022.33" y="-261.4" font-family="Helvetica,sans-Serif" font-size="7.00">blocked_by/blocking</text>
</g>
<!-- cool_ideas_WARP_degeneracy_warning -->
<g id="node59" class="node">
<title>cool_ideas_WARP_degeneracy_warning</title>
<path fill="#d4e8f7" stroke="black" d="M8317.18,-386.7C8317.18,-386.7 8204.82,-386.7 8204.82,-386.7 8200.62,-386.7 8196.42,-382.5 8196.42,-378.3 8196.42,-378.3 8196.42,-369.9 8196.42,-369.9 8196.42,-365.7 8200.62,-361.5 8204.82,-361.5 8204.82,-361.5 8317.18,-361.5 8317.18,-361.5 8321.38,-361.5 8325.58,-365.7 8325.58,-369.9 8325.58,-369.9 8325.58,-378.3 8325.58,-378.3 8325.58,-382.5 8321.38,-386.7 8317.18,-386.7"/>
<text xml:space="preserve" text-anchor="middle" x="8261" y="-371" font-family="Helvetica,sans-Serif" font-size="8.00">WARP&#45;degeneracy&#45;warning &#45; M</text>
</g>
<!-- cool_ideas_WARP_drift_sentinel -->
<g id="node60" class="node">
<title>cool_ideas_WARP_drift_sentinel</title>
<path fill="#d4e8f7" stroke="black" d="M10158.18,-313.25C10158.18,-313.25 10075.82,-313.25 10075.82,-313.25 10071.62,-313.25 10067.42,-309.05 10067.42,-304.85 10067.42,-304.85 10067.42,-296.45 10067.42,-296.45 10067.42,-292.25 10071.62,-288.05 10075.82,-288.05 10075.82,-288.05 10158.18,-288.05 10158.18,-288.05 10162.38,-288.05 10166.58,-292.25 10166.58,-296.45 10166.58,-296.45 10166.58,-304.85 10166.58,-304.85 10166.58,-309.05 10162.38,-313.25 10158.18,-313.25"/>
<text xml:space="preserve" text-anchor="middle" x="10117" y="-297.55" font-family="Helvetica,sans-Serif" font-size="8.00">WARP&#45;drift&#45;sentinel &#45; M</text>
</g>
<!-- cool_ideas_WARP_footprint_parallelism -->
<g id="node61" class="node">
<title>cool_ideas_WARP_footprint_parallelism</title>
<path fill="#d4e8f7" stroke="black" d="M8459.8,-386.7C8459.8,-386.7 8348.2,-386.7 8348.2,-386.7 8344,-386.7 8339.8,-382.5 8339.8,-378.3 8339.8,-378.3 8339.8,-369.9 8339.8,-369.9 8339.8,-365.7 8344,-361.5 8348.2,-361.5 8348.2,-361.5 8459.8,-361.5 8459.8,-361.5 8464,-361.5 8468.2,-365.7 8468.2,-369.9 8468.2,-369.9 8468.2,-378.3 8468.2,-378.3 8468.2,-382.5 8464,-386.7 8459.8,-386.7"/>
<text xml:space="preserve" text-anchor="middle" x="8404" y="-371" font-family="Helvetica,sans-Serif" font-size="8.00">WARP&#45;footprint&#45;parallelism &#45; XL</text>
</g>
<!-- cool_ideas_WARP_graft_pack -->
<g id="node62" class="node">
<title>cool_ideas_WARP_graft_pack</title>
<path fill="#d4e8f7" stroke="black" d="M8565.43,-386.7C8565.43,-386.7 8490.57,-386.7 8490.57,-386.7 8486.38,-386.7 8482.17,-382.5 8482.17,-378.3 8482.17,-378.3 8482.17,-369.9 8482.17,-369.9 8482.17,-365.7 8486.38,-361.5 8490.57,-361.5 8490.57,-361.5 8565.43,-361.5 8565.43,-361.5 8569.62,-361.5 8573.83,-365.7 8573.83,-369.9 8573.83,-369.9 8573.83,-378.3 8573.83,-378.3 8573.83,-382.5 8569.62,-386.7 8565.43,-386.7"/>
<text xml:space="preserve" text-anchor="middle" x="8528" y="-371" font-family="Helvetica,sans-Serif" font-size="8.00">WARP&#45;graft&#45;pack &#45; M</text>
</g>
<!-- cool_ideas_WARP_grouped_aggregate_queries -->
<g id="node63" class="node">
<title>cool_ideas_WARP_grouped_aggregate_queries</title>
<path fill="#d4e8f7" stroke="black" d="M8733.93,-386.7C8733.93,-386.7 8596.07,-386.7 8596.07,-386.7 8591.88,-386.7 8587.67,-382.5 8587.67,-378.3 8587.67,-378.3 8587.67,-369.9 8587.67,-369.9 8587.67,-365.7 8591.88,-361.5 8596.07,-361.5 8596.07,-361.5 8733.93,-361.5 8733.93,-361.5 8738.12,-361.5 8742.33,-365.7 8742.33,-369.9 8742.33,-369.9 8742.33,-378.3 8742.33,-378.3 8742.33,-382.5 8738.12,-386.7 8733.93,-386.7"/>
<text xml:space="preserve" text-anchor="middle" x="8665" y="-371" font-family="Helvetica,sans-Serif" font-size="8.00">WARP&#45;grouped&#45;aggregate&#45;queries &#45; M</text>
</g>
<!-- cool_ideas_WARP_intentional_degeneracy_privacy -->
<g id="node65" class="node">
<title>cool_ideas_WARP_intentional_degeneracy_privacy</title>
<path fill="#d4e8f7" stroke="black" d="M8912.8,-386.7C8912.8,-386.7 8765.2,-386.7 8765.2,-386.7 8761,-386.7 8756.8,-382.5 8756.8,-378.3 8756.8,-378.3 8756.8,-369.9 8756.8,-369.9 8756.8,-365.7 8761,-361.5 8765.2,-361.5 8765.2,-361.5 8912.8,-361.5 8912.8,-361.5 8917,-361.5 8921.2,-365.7 8921.2,-369.9 8921.2,-369.9 8921.2,-378.3 8921.2,-378.3 8921.2,-382.5 8917,-386.7 8912.8,-386.7"/>
<text xml:space="preserve" text-anchor="middle" x="8839" y="-371" font-family="Helvetica,sans-Serif" font-size="8.00">WARP&#45;intentional&#45;degeneracy&#45;privacy &#45; M</text>
</g>
<!-- cool_ideas_WARP_minimum_viable_context -->
<g id="node66" class="node">
<title>cool_ideas_WARP_minimum_viable_context</title>
<path fill="#d4e8f7" stroke="black" d="M9066.43,-386.7C9066.43,-386.7 8943.57,-386.7 8943.57,-386.7 8939.38,-386.7 8935.17,-382.5 8935.17,-378.3 8935.17,-378.3 8935.17,-369.9 8935.17,-369.9 8935.17,-365.7 8939.38,-361.5 8943.57,-361.5 8943.57,-361.5 9066.43,-361.5 9066.43,-361.5 9070.62,-361.5 9074.83,-365.7 9074.83,-369.9 9074.83,-369.9 9074.83,-378.3 9074.83,-378.3 9074.83,-382.5 9070.62,-386.7 9066.43,-386.7"/>
<text xml:space="preserve" text-anchor="middle" x="9005" y="-371" font-family="Helvetica,sans-Serif" font-size="8.00">WARP&#45;minimum&#45;viable&#45;context &#45; M</text>
</g>
<!-- cool_ideas_WARP_outline_diff_commit_trailer -->
<g id="node67" class="node">
<title>cool_ideas_WARP_outline_diff_commit_trailer</title>
<path fill="#d4e8f7" stroke="black" d="M9222.93,-386.7C9222.93,-386.7 9097.07,-386.7 9097.07,-386.7 9092.88,-386.7 9088.67,-382.5 9088.67,-378.3 9088.67,-378.3 9088.67,-369.9 9088.67,-369.9 9088.67,-365.7 9092.88,-361.5 9097.07,-361.5 9097.07,-361.5 9222.93,-361.5 9222.93,-361.5 9227.12,-361.5 9231.33,-365.7 9231.33,-369.9 9231.33,-369.9 9231.33,-378.3 9231.33,-378.3 9231.33,-382.5 9227.12,-386.7 9222.93,-386.7"/>
<text xml:space="preserve" text-anchor="middle" x="9160" y="-371" font-family="Helvetica,sans-Serif" font-size="8.00">WARP&#45;outline&#45;diff&#45;commit&#45;trailer &#45; S</text>
</g>
<!-- cool_ideas_WARP_projection_safety_classes -->
<g id="node68" class="node">
<title>cool_ideas_WARP_projection_safety_classes</title>
<path fill="#d4e8f7" stroke="black" d="M9379.93,-386.7C9379.93,-386.7 9254.07,-386.7 9254.07,-386.7 9249.88,-386.7 9245.67,-382.5 9245.67,-378.3 9245.67,-378.3 9245.67,-369.9 9245.67,-369.9 9245.67,-365.7 9249.88,-361.5 9254.07,-361.5 9254.07,-361.5 9379.93,-361.5 9379.93,-361.5 9384.12,-361.5 9388.33,-365.7 9388.33,-369.9 9388.33,-369.9 9388.33,-378.3 9388.33,-378.3 9388.33,-382.5 9384.12,-386.7 9379.93,-386.7"/>
<text xml:space="preserve" text-anchor="middle" x="9317" y="-371" font-family="Helvetica,sans-Serif" font-size="8.00">WARP&#45;projection&#45;safety&#45;classes &#45; M</text>
</g>
<!-- cool_ideas_WARP_provenance_dag&#45;&gt;cool_ideas_WARP_causal_blame_for_staged_artifacts -->
<g id="edge9" class="edge">
<title>cool_ideas_WARP_provenance_dag&#45;&gt;cool_ideas_WARP_causal_blame_for_staged_artifacts</title>
<path fill="none" stroke="#666666" d="M7819,-287.85C7819,-276.65 7819,-259.63 7819,-246.63"/>
<polygon fill="#666666" stroke="#666666" points="7820.75,-246.77 7819,-241.77 7817.25,-246.77 7820.75,-246.77"/>
<text xml:space="preserve" text-anchor="middle" x="7850.5" y="-261.4" font-family="Helvetica,sans-Serif" font-size="7.00">blocked_by/blocking</text>
</g>
<!-- cool_ideas_WARP_reasoning_trace_replay -->
<g id="node70" class="node">
<title>cool_ideas_WARP_reasoning_trace_replay</title>
<path fill="#d4e8f7" stroke="black" d="M7710.93,-239.8C7710.93,-239.8 7591.07,-239.8 7591.07,-239.8 7586.88,-239.8 7582.68,-235.6 7582.68,-231.4 7582.68,-231.4 7582.68,-223 7582.68,-223 7582.68,-218.8 7586.88,-214.6 7591.07,-214.6 7591.07,-214.6 7710.93,-214.6 7710.93,-214.6 7715.12,-214.6 7719.32,-218.8 7719.32,-223 7719.32,-223 7719.32,-231.4 7719.32,-231.4 7719.32,-235.6 7715.12,-239.8 7710.93,-239.8"/>
<text xml:space="preserve" text-anchor="middle" x="7651" y="-224.1" font-family="Helvetica,sans-Serif" font-size="8.00">WARP&#45;reasoning&#45;trace&#45;replay &#45; M</text>
</g>
<!-- cool_ideas_WARP_provenance_dag&#45;&gt;cool_ideas_WARP_reasoning_trace_replay -->
<g id="edge10" class="edge">
<title>cool_ideas_WARP_provenance_dag&#45;&gt;cool_ideas_WARP_reasoning_trace_replay</title>
<path fill="none" stroke="#666666" d="M7790.88,-287.69C7761.69,-275.27 7716.01,-255.85 7684.85,-242.6"/>
<polygon fill="#666666" stroke="#666666" points="7685.89,-241.14 7680.6,-240.79 7684.52,-244.36 7685.89,-241.14"/>
<text xml:space="preserve" text-anchor="middle" x="7771.54" y="-261.4" font-family="Helvetica,sans-Serif" font-size="7.00">blocked_by/blocking</text>
</g>
<!-- cool_ideas_WARP_rulial_heat_map -->
<g id="node71" class="node">
<title>cool_ideas_WARP_rulial_heat_map</title>
<path fill="#d4e8f7" stroke="black" d="M9501.3,-386.7C9501.3,-386.7 9410.7,-386.7 9410.7,-386.7 9406.5,-386.7 9402.3,-382.5 9402.3,-378.3 9402.3,-378.3 9402.3,-369.9 9402.3,-369.9 9402.3,-365.7 9406.5,-361.5 9410.7,-361.5 9410.7,-361.5 9501.3,-361.5 9501.3,-361.5 9505.5,-361.5 9509.7,-365.7 9509.7,-369.9 9509.7,-369.9 9509.7,-378.3 9509.7,-378.3 9509.7,-382.5 9505.5,-386.7 9501.3,-386.7"/>
<text xml:space="preserve" text-anchor="middle" x="9456" y="-371" font-family="Helvetica,sans-Serif" font-size="8.00">WARP&#45;rulial&#45;heat&#45;map &#45; L</text>
</g>
<!-- cool_ideas_WARP_semantic_drift_in_sessions -->
<g id="node72" class="node">
<title>cool_ideas_WARP_semantic_drift_in_sessions</title>
<path fill="#d4e8f7" stroke="black" d="M9661.43,-386.7C9661.43,-386.7 9532.57,-386.7 9532.57,-386.7 9528.38,-386.7 9524.17,-382.5 9524.17,-378.3 9524.17,-378.3 9524.17,-369.9 9524.17,-369.9 9524.17,-365.7 9528.38,-361.5 9532.57,-361.5 9532.57,-361.5 9661.43,-361.5 9661.43,-361.5 9665.62,-361.5 9669.83,-365.7 9669.83,-369.9 9669.83,-369.9 9669.83,-378.3 9669.83,-378.3 9669.83,-382.5 9665.62,-386.7 9661.43,-386.7"/>
<text xml:space="preserve" text-anchor="middle" x="9597" y="-371" font-family="Helvetica,sans-Serif" font-size="8.00">WARP&#45;semantic&#45;drift&#45;in&#45;sessions &#45; M</text>
</g>
<!-- cool_ideas_WARP_semantic_merge_conflict_prediction -->
<g id="node73" class="node">
<title>cool_ideas_WARP_semantic_merge_conflict_prediction</title>
<path fill="#d4e8f7" stroke="black" d="M10678.43,-313.25C10678.43,-313.25 10519.57,-313.25 10519.57,-313.25 10515.38,-313.25 10511.17,-309.05 10511.17,-304.85 10511.17,-304.85 10511.17,-296.45 10511.17,-296.45 10511.17,-292.25 10515.38,-288.05 10519.57,-288.05 10519.57,-288.05 10678.43,-288.05 10678.43,-288.05 10682.62,-288.05 10686.83,-292.25 10686.83,-296.45 10686.83,-296.45 10686.83,-304.85 10686.83,-304.85 10686.83,-309.05 10682.62,-313.25 10678.43,-313.25"/>
<text xml:space="preserve" text-anchor="middle" x="10599" y="-297.55" font-family="Helvetica,sans-Serif" font-size="8.00">WARP&#45;semantic&#45;merge&#45;conflict&#45;prediction &#45; L</text>
</g>
<!-- cool_ideas_WARP_session_filtration -->
<g id="node74" class="node">
<title>cool_ideas_WARP_session_filtration</title>
<path fill="#d4e8f7" stroke="black" d="M9785.8,-386.7C9785.8,-386.7 9692.2,-386.7 9692.2,-386.7 9688,-386.7 9683.8,-382.5 9683.8,-378.3 9683.8,-378.3 9683.8,-369.9 9683.8,-369.9 9683.8,-365.7 9688,-361.5 9692.2,-361.5 9692.2,-361.5 9785.8,-361.5 9785.8,-361.5 9790,-361.5 9794.2,-365.7 9794.2,-369.9 9794.2,-369.9 9794.2,-378.3 9794.2,-378.3 9794.2,-382.5 9790,-386.7 9785.8,-386.7"/>
<text xml:space="preserve" text-anchor="middle" x="9739" y="-371" font-family="Helvetica,sans-Serif" font-size="8.00">WARP&#45;session&#45;filtration &#45; L</text>
</g>
<!-- cool_ideas_WARP_shadow_structural_workspaces -->
<g id="node75" class="node">
<title>cool_ideas_WARP_shadow_structural_workspaces</title>
<path fill="#d4e8f7" stroke="black" d="M9967.3,-386.7C9967.3,-386.7 9816.7,-386.7 9816.7,-386.7 9812.5,-386.7 9808.3,-382.5 9808.3,-378.3 9808.3,-378.3 9808.3,-369.9 9808.3,-369.9 9808.3,-365.7 9812.5,-361.5 9816.7,-361.5 9816.7,-361.5 9967.3,-361.5 9967.3,-361.5 9971.5,-361.5 9975.7,-365.7 9975.7,-369.9 9975.7,-369.9 9975.7,-378.3 9975.7,-378.3 9975.7,-382.5 9971.5,-386.7 9967.3,-386.7"/>
<text xml:space="preserve" text-anchor="middle" x="9892" y="-371" font-family="Helvetica,sans-Serif" font-size="8.00">WARP&#45;shadow&#45;structural&#45;workspaces &#45; XL</text>
</g>
<!-- cool_ideas_WARP_speculative_merge -->
<g id="node76" class="node">
<title>cool_ideas_WARP_speculative_merge</title>
<path fill="#d4e8f7" stroke="black" d="M10105.55,-386.7C10105.55,-386.7 9998.45,-386.7 9998.45,-386.7 9994.25,-386.7 9990.05,-382.5 9990.05,-378.3 9990.05,-378.3 9990.05,-369.9 9990.05,-369.9 9990.05,-365.7 9994.25,-361.5 9998.45,-361.5 9998.45,-361.5 10105.55,-361.5 10105.55,-361.5 10109.75,-361.5 10113.95,-365.7 10113.95,-369.9 10113.95,-369.9 10113.95,-378.3 10113.95,-378.3 10113.95,-382.5 10109.75,-386.7 10105.55,-386.7"/>
<text xml:space="preserve" text-anchor="middle" x="10052" y="-371" font-family="Helvetica,sans-Serif" font-size="8.00">WARP&#45;speculative&#45;merge &#45; XL</text>
</g>
<!-- cool_ideas_WARP_stale_docs_checker -->
<g id="node77" class="node">
<title>cool_ideas_WARP_stale_docs_checker</title>
<path fill="#d4e8f7" stroke="black" d="M10241.8,-386.7C10241.8,-386.7 10136.2,-386.7 10136.2,-386.7 10132,-386.7 10127.8,-382.5 10127.8,-378.3 10127.8,-378.3 10127.8,-369.9 10127.8,-369.9 10127.8,-365.7 10132,-361.5 10136.2,-361.5 10136.2,-361.5 10241.8,-361.5 10241.8,-361.5 10246,-361.5 10250.2,-365.7 10250.2,-369.9 10250.2,-369.9 10250.2,-378.3 10250.2,-378.3 10250.2,-382.5 10246,-386.7 10241.8,-386.7"/>
<text xml:space="preserve" text-anchor="middle" x="10189" y="-371" font-family="Helvetica,sans-Serif" font-size="8.00">WARP&#45;stale&#45;docs&#45;checker &#45; M</text>
</g>
<!-- cool_ideas_WARP_stale_docs_checker&#45;&gt;cool_ideas_WARP_drift_sentinel -->
<g id="edge11" class="edge">
<title>cool_ideas_WARP_stale_docs_checker&#45;&gt;cool_ideas_WARP_drift_sentinel</title>
<path fill="none" stroke="#666666" d="M10177.11,-361.3C10165.2,-349.48 10146.76,-331.19 10133.45,-317.97"/>
<polygon fill="#666666" stroke="#666666" points="10135,-317.05 10130.22,-314.77 10132.54,-319.54 10135,-317.05"/>
<text xml:space="preserve" text-anchor="middle" x="10186.66" y="-334.85" font-family="Helvetica,sans-Serif" font-size="7.00">blocked_by/blocking</text>
</g>
<!-- cool_ideas_WARP_structural_drift_detection -->
<g id="node78" class="node">
<title>cool_ideas_WARP_structural_drift_detection</title>
<path fill="#d4e8f7" stroke="black" d="M10395.8,-386.7C10395.8,-386.7 10272.2,-386.7 10272.2,-386.7 10268,-386.7 10263.8,-382.5 10263.8,-378.3 10263.8,-378.3 10263.8,-369.9 10263.8,-369.9 10263.8,-365.7 10268,-361.5 10272.2,-361.5 10272.2,-361.5 10395.8,-361.5 10395.8,-361.5 10400,-361.5 10404.2,-365.7 10404.2,-369.9 10404.2,-369.9 10404.2,-378.3 10404.2,-378.3 10404.2,-382.5 10400,-386.7 10395.8,-386.7"/>
<text xml:space="preserve" text-anchor="middle" x="10334" y="-371" font-family="Helvetica,sans-Serif" font-size="8.00">WARP&#45;structural&#45;drift&#45;detection &#45; M</text>
</g>
<!-- cool_ideas_WARP_symbol_heatmap -->
<g id="node80" class="node">
<title>cool_ideas_WARP_symbol_heatmap</title>
<path fill="#d4e8f7" stroke="black" d="M10525.05,-386.7C10525.05,-386.7 10426.95,-386.7 10426.95,-386.7 10422.75,-386.7 10418.55,-382.5 10418.55,-378.3 10418.55,-378.3 10418.55,-369.9 10418.55,-369.9 10418.55,-365.7 10422.75,-361.5 10426.95,-361.5 10426.95,-361.5 10525.05,-361.5 10525.05,-361.5 10529.25,-361.5 10533.45,-365.7 10533.45,-369.9 10533.45,-369.9 10533.45,-378.3 10533.45,-378.3 10533.45,-382.5 10529.25,-386.7 10525.05,-386.7"/>
<text xml:space="preserve" text-anchor="middle" x="10476" y="-371" font-family="Helvetica,sans-Serif" font-size="8.00">WARP&#45;symbol&#45;heatmap &#45; M</text>
</g>
<!-- cool_ideas_WARP_technical_debt_curvature -->
<g id="node81" class="node">
<title>cool_ideas_WARP_technical_debt_curvature</title>
<path fill="#d4e8f7" stroke="black" d="M10678.43,-386.7C10678.43,-386.7 10555.57,-386.7 10555.57,-386.7 10551.38,-386.7 10547.17,-382.5 10547.17,-378.3 10547.17,-378.3 10547.17,-369.9 10547.17,-369.9 10547.17,-365.7 10551.38,-361.5 10555.57,-361.5 10555.57,-361.5 10678.43,-361.5 10678.43,-361.5 10682.62,-361.5 10686.83,-365.7 10686.83,-369.9 10686.83,-369.9 10686.83,-378.3 10686.83,-378.3 10686.83,-382.5 10682.62,-386.7 10678.43,-386.7"/>
<text xml:space="preserve" text-anchor="middle" x="10617" y="-371" font-family="Helvetica,sans-Serif" font-size="8.00">WARP&#45;technical&#45;debt&#45;curvature &#45; L</text>
</g>
<!-- external_git_warp_observer_geometry_ladder__Rung_2_4_ -->
<g id="node83" class="node">
<title>external_git_warp_observer_geometry_ladder__Rung_2_4_</title>
<path fill="#e8f2ff" stroke="black" d="M10882.68,-386.7C10882.68,-386.7 10719.32,-386.7 10719.32,-386.7 10715.12,-386.7 10710.92,-382.5 10710.92,-378.3 10710.92,-378.3 10710.92,-369.9 10710.92,-369.9 10710.92,-365.7 10715.12,-361.5 10719.32,-361.5 10719.32,-361.5 10882.68,-361.5 10882.68,-361.5 10886.88,-361.5 10891.08,-365.7 10891.08,-369.9 10891.08,-369.9 10891.08,-378.3 10891.08,-378.3 10891.08,-382.5 10886.88,-386.7 10882.68,-386.7"/>
<text xml:space="preserve" text-anchor="middle" x="10801" y="-371" font-family="Helvetica,sans-Serif" font-size="8.00">git&#45;warp observer geometry ladder (Rung 2&#45;4)</text>
</g>
<!-- external_git_warp_observer_geometry_ladder__Rung_2_4_&#45;&gt;cool_ideas_CORE_migrate_to_slice_first_reads -->
<g id="edge12" class="edge">
<title>external_git_warp_observer_geometry_ladder__Rung_2_4_&#45;&gt;cool_ideas_CORE_migrate_to_slice_first_reads</title>
<path fill="none" stroke="#4477aa" stroke-dasharray="5,2" d="M10744.54,-361.04C10729.47,-358.18 10713.17,-355.41 10698,-353.5 10613.72,-342.87 10591.71,-350.58 10507.25,-341.5 10424.44,-332.6 10404.31,-325.98 10322,-313.25 10321.86,-313.23 10321.73,-313.21 10321.59,-313.19"/>
<polygon fill="#4477aa" stroke="#4477aa" points="10322.06,-311.49 10316.85,-312.45 10321.52,-314.95 10322.06,-311.49"/>
<text xml:space="preserve" text-anchor="middle" x="10539.12" y="-334.85" font-family="Helvetica,sans-Serif" font-size="7.00">blocked_by_external</text>
</g>
<!-- unresolved_CLEAN_CODE_export_diff_semver_signature_as_patch -->
<g id="node84" class="node">
<title>unresolved_CLEAN_CODE_export_diff_semver_signature_as_patch</title>
<path fill="#f2f2f2" stroke="black" stroke-dasharray="5,2" d="M11146.3,-386.7C11146.3,-386.7 10923.7,-386.7 10923.7,-386.7 10919.5,-386.7 10915.3,-382.5 10915.3,-378.3 10915.3,-378.3 10915.3,-369.9 10915.3,-369.9 10915.3,-365.7 10919.5,-361.5 10923.7,-361.5 10923.7,-361.5 11146.3,-361.5 11146.3,-361.5 11150.5,-361.5 11154.7,-365.7 11154.7,-369.9 11154.7,-369.9 11154.7,-378.3 11154.7,-378.3 11154.7,-382.5 11150.5,-386.7 11146.3,-386.7"/>
<text xml:space="preserve" text-anchor="middle" x="11035" y="-371" font-family="Helvetica,sans-Serif" font-size="8.00">missing: CLEAN_CODE_export&#45;diff&#45;semver&#45;signature&#45;as&#45;patch</text>
</g>
<!-- unresolved_CLEAN_CODE_export_diff_semver_signature_as_patch&#45;&gt;cool_ideas_WARP_auto_breaking_change_detection -->
<g id="edge13" class="edge">
<title>unresolved_CLEAN_CODE_export_diff_semver_signature_as_patch&#45;&gt;cool_ideas_WARP_auto_breaking_change_detection</title>
<path fill="none" stroke="#cc3333" stroke-dasharray="5,2" d="M10958.44,-361.04C10939.99,-358.34 10920.31,-355.65 10902,-353.5 10841.63,-346.4 10826.25,-347.43 10765.75,-341.5 10649.3,-330.09 10620.21,-326.93 10504,-313.25 10503.7,-313.22 10503.41,-313.18 10503.11,-313.14"/>
<polygon fill="#cc3333" stroke="#cc3333" points="10503.47,-311.43 10498.29,-312.57 10503.05,-314.9 10503.47,-311.43"/>
<text xml:space="preserve" text-anchor="middle" x="10783.38" y="-334.85" font-family="Helvetica,sans-Serif" font-size="7.00">blocked_by</text>
</g>
<!-- unresolved_CLEAN_CODE_export_diff_semver_signature_as_patch&#45;&gt;cool_ideas_WARP_semantic_merge_conflict_prediction -->
<g id="edge14" class="edge">
<title>unresolved_CLEAN_CODE_export_diff_semver_signature_as_patch&#45;&gt;cool_ideas_WARP_semantic_merge_conflict_prediction</title>
<path fill="none" stroke="#cc3333" stroke-dasharray="5,2" d="M10961.53,-361.06C10883.24,-348.23 10759.69,-327.98 10678.99,-314.76"/>
<polygon fill="#cc3333" stroke="#cc3333" points="10679.48,-313.07 10674.26,-313.98 10678.91,-316.52 10679.48,-313.07"/>
<text xml:space="preserve" text-anchor="middle" x="10847.7" y="-334.85" font-family="Helvetica,sans-Serif" font-size="7.00">blocked_by</text>
</g>
<!-- leg_v08 -->
<g id="node85" class="node">
<title>leg_v08</title>
<path fill="#c8e6c9" stroke="black" stroke-width="2" d="M11271,-386.7C11271,-386.7 11187,-386.7 11187,-386.7 11182.8,-386.7 11178.6,-382.5 11178.6,-378.3 11178.6,-378.3 11178.6,-369.9 11178.6,-369.9 11178.6,-365.7 11182.8,-361.5 11187,-361.5 11187,-361.5 11271,-361.5 11271,-361.5 11275.2,-361.5 11279.4,-365.7 11279.4,-369.9 11279.4,-369.9 11279.4,-378.3 11279.4,-378.3 11279.4,-382.5 11275.2,-386.7 11271,-386.7"/>
<text xml:space="preserve" text-anchor="middle" x="11229" y="-371.58" font-family="Helvetica,sans-Serif" font-size="7.00">v0.8.0</text>
</g>
<!-- leg_v07 -->
<g id="node86" class="node">
<title>leg_v07</title>
<path fill="#ffa07a" stroke="black" stroke-width="2" d="M11271,-313.25C11271,-313.25 11187,-313.25 11187,-313.25 11182.8,-313.25 11178.6,-309.05 11178.6,-304.85 11178.6,-304.85 11178.6,-296.45 11178.6,-296.45 11178.6,-292.25 11182.8,-288.05 11187,-288.05 11187,-288.05 11271,-288.05 11271,-288.05 11275.2,-288.05 11279.4,-292.25 11279.4,-296.45 11279.4,-296.45 11279.4,-304.85 11279.4,-304.85 11279.4,-309.05 11275.2,-313.25 11271,-313.25"/>
<text xml:space="preserve" text-anchor="middle" x="11229" y="-298.12" font-family="Helvetica,sans-Serif" font-size="7.00">v0.7.0</text>
</g>
<!-- leg_v08&#45;&gt;leg_v07 -->
<!-- leg_bad -->
<g id="node87" class="node">
<title>leg_bad</title>
<path fill="#f6b3b3" stroke="black" stroke-width="2" d="M11271,-239.8C11271,-239.8 11187,-239.8 11187,-239.8 11182.8,-239.8 11178.6,-235.6 11178.6,-231.4 11178.6,-231.4 11178.6,-223 11178.6,-223 11178.6,-218.8 11182.8,-214.6 11187,-214.6 11187,-214.6 11271,-214.6 11271,-214.6 11275.2,-214.6 11279.4,-218.8 11279.4,-223 11279.4,-223 11279.4,-231.4 11279.4,-231.4 11279.4,-235.6 11275.2,-239.8 11271,-239.8"/>
<text xml:space="preserve" text-anchor="middle" x="11229" y="-224.67" font-family="Helvetica,sans-Serif" font-size="7.00">bad&#45;code</text>
</g>
<!-- leg_v07&#45;&gt;leg_bad -->
<!-- leg_idea -->
<g id="node88" class="node">
<title>leg_idea</title>
<path fill="#d4e8f7" stroke="black" d="M11271,-173.6C11271,-173.6 11187,-173.6 11187,-173.6 11182.8,-173.6 11178.6,-169.4 11178.6,-165.2 11178.6,-165.2 11178.6,-156.8 11178.6,-156.8 11178.6,-152.6 11182.8,-148.4 11187,-148.4 11187,-148.4 11271,-148.4 11271,-148.4 11275.2,-148.4 11279.4,-152.6 11279.4,-156.8 11279.4,-156.8 11279.4,-165.2 11279.4,-165.2 11279.4,-169.4 11275.2,-173.6 11271,-173.6"/>
<text xml:space="preserve" text-anchor="middle" x="11229" y="-158.47" font-family="Helvetica,sans-Serif" font-size="7.00">cool&#45;ideas</text>
</g>
<!-- leg_bad&#45;&gt;leg_idea -->
<!-- leg_external -->
<g id="node89" class="node">
<title>leg_external</title>
<path fill="#e8f2ff" stroke="black" d="M11271,-107.4C11271,-107.4 11187,-107.4 11187,-107.4 11182.8,-107.4 11178.6,-103.2 11178.6,-99 11178.6,-99 11178.6,-90.6 11178.6,-90.6 11178.6,-86.4 11182.8,-82.2 11187,-82.2 11187,-82.2 11271,-82.2 11271,-82.2 11275.2,-82.2 11279.4,-86.4 11279.4,-90.6 11279.4,-90.6 11279.4,-99 11279.4,-99 11279.4,-103.2 11275.2,-107.4 11271,-107.4"/>
<text xml:space="preserve" text-anchor="middle" x="11229" y="-92.28" font-family="Helvetica,sans-Serif" font-size="7.00">external blocker</text>
</g>
<!-- leg_idea&#45;&gt;leg_external -->
<!-- leg_unresolved -->
<g id="node90" class="node">
<title>leg_unresolved</title>
<path fill="#f2f2f2" stroke="black" stroke-dasharray="5,2" d="M11271,-41.2C11271,-41.2 11187,-41.2 11187,-41.2 11182.8,-41.2 11178.6,-37 11178.6,-32.8 11178.6,-32.8 11178.6,-24.4 11178.6,-24.4 11178.6,-20.2 11182.8,-16 11187,-16 11187,-16 11271,-16 11271,-16 11275.2,-16 11279.4,-20.2 11279.4,-24.4 11279.4,-24.4 11279.4,-32.8 11279.4,-32.8 11279.4,-37 11275.2,-41.2 11271,-41.2"/>
<text xml:space="preserve" text-anchor="middle" x="11229" y="-26.08" font-family="Helvetica,sans-Serif" font-size="7.00">unresolved ref</text>
</g>
<!-- leg_external&#45;&gt;leg_unresolved -->
</g>
</svg>
