<?xml version="1.0" encoding="UTF-8" standalone="no"?>
<!DOCTYPE svg PUBLIC "-//W3C//DTD SVG 1.1//EN"
 "http://www.w3.org/Graphics/SVG/1.1/DTD/svg11.dtd">
<!-- Generated by graphviz version 14.1.2 (20260124.0452)
 -->
<!-- Title: backlog Pages: 1 -->
<svg width="10655pt" height="383pt"
 viewBox="0.00 0.00 10655.00 383.00" xmlns="http://www.w3.org/2000/svg" xmlns:xlink="http://www.w3.org/1999/xlink">
<g id="graph0" class="graph" transform="scale(1 1) rotate(0) translate(4 379)">
<title>backlog</title>
<polygon fill="white" stroke="none" points="-4,4 -4,-379 10651,-379 10651,4 -4,4"/>
<text xml:space="preserve" text-anchor="middle" x="5323.5" y="-359.6" font-family="Helvetica,sans-Serif" font-size="12.00">Active backlog graph generated from docs/method/backlog/*/*.md</text>
<g id="clust1" class="cluster">
<title>cluster_v0_7_0</title>
<path fill="#fafafa" stroke="#cccccc" d="M20,-213.85C20,-213.85 882,-213.85 882,-213.85 888,-213.85 894,-219.85 894,-225.85 894,-225.85 894,-334.25 894,-334.25 894,-340.25 888,-346.25 882,-346.25 882,-346.25 20,-346.25 20,-346.25 14,-346.25 8,-340.25 8,-334.25 8,-334.25 8,-225.85 8,-225.85 8,-219.85 14,-213.85 20,-213.85"/>
<text xml:space="preserve" text-anchor="middle" x="35.12" y="-333.7" font-family="Helvetica,sans-Serif" font-size="9.00" fill="#555555">v0.7.0 (9)</text>
</g>
<g id="clust2" class="cluster">
<title>cluster_cool_ideas</title>
<path fill="#fafafa" stroke="#cccccc" d="M1118,-140.4C1118,-140.4 10239,-140.4 10239,-140.4 10245,-140.4 10251,-146.4 10251,-152.4 10251,-152.4 10251,-334.25 10251,-334.25 10251,-340.25 10245,-346.25 10239,-346.25 10239,-346.25 1118,-346.25 1118,-346.25 1112,-346.25 1106,-340.25 1106,-334.25 1106,-334.25 1106,-152.4 1106,-152.4 1106,-146.4 1112,-140.4 1118,-140.4"/>
<text xml:space="preserve" text-anchor="middle" x="1145.5" y="-333.7" font-family="Helvetica,sans-Serif" font-size="9.00" fill="#555555">Cool Ideas (73)</text>
</g>
<g id="clust3" class="cluster">
<title>cluster_external</title>
<path fill="#f8fbff" stroke="#cccccc" d="M914,-287.3C914,-287.3 1086,-287.3 1086,-287.3 1092,-287.3 1098,-293.3 1098,-299.3 1098,-299.3 1098,-334.25 1098,-334.25 1098,-340.25 1092,-346.25 1086,-346.25 1086,-346.25 914,-346.25 914,-346.25 908,-346.25 902,-340.25 902,-334.25 902,-334.25 902,-299.3 902,-299.3 902,-293.3 908,-287.3 914,-287.3"/>
<text xml:space="preserve" text-anchor="middle" x="945.25" y="-333.7" font-family="Helvetica,sans-Serif" font-size="9.00" fill="#555555">External blockers</text>
</g>
<g id="clust4" class="cluster">
<title>cluster_unresolved</title>
<path fill="#fff7f7" stroke="#cc3333" stroke-dasharray="5,2" d="M10271,-287.3C10271,-287.3 10503,-287.3 10503,-287.3 10509,-287.3 10515,-293.3 10515,-299.3 10515,-299.3 10515,-334.25 10515,-334.25 10515,-340.25 10509,-346.25 10503,-346.25 10503,-346.25 10271,-346.25 10271,-346.25 10265,-346.25 10259,-340.25 10259,-334.25 10259,-334.25 10259,-299.3 10259,-299.3 10259,-293.3 10265,-287.3 10271,-287.3"/>
<text xml:space="preserve" text-anchor="middle" x="10315.75" y="-333.7" font-family="Helvetica,sans-Serif" font-size="9.00" fill="#555555">Unresolved internal refs</text>
</g>
<g id="clust5" class="cluster">
<title>cluster_legend</title>
<path fill="none" stroke="#dddddd" d="M10535,-8C10535,-8 10627,-8 10627,-8 10633,-8 10639,-14 10639,-20 10639,-20 10639,-333.5 10639,-333.5 10639,-339.5 10633,-345.5 10627,-345.5 10627,-345.5 10535,-345.5 10535,-345.5 10529,-345.5 10523,-339.5 10523,-333.5 10523,-333.5 10523,-20 10523,-20 10523,-14 10529,-8 10535,-8"/>
<text xml:space="preserve" text-anchor="middle" x="10544.5" y="-333.9" font-family="Helvetica,sans-Serif" font-size="8.00" fill="#aaaaaa">Legend</text>
</g>
<!-- v0_7_0_CORE_agent_drift_warning -->
<g id="node1" class="node">
<title>v0_7_0_CORE_agent_drift_warning</title>
<path fill="#ffa07a" stroke="black" stroke-width="2" d="M622.05,-247.05C622.05,-247.05 529.95,-247.05 529.95,-247.05 525.75,-247.05 521.55,-242.85 521.55,-238.65 521.55,-238.65 521.55,-230.25 521.55,-230.25 521.55,-226.05 525.75,-221.85 529.95,-221.85 529.95,-221.85 622.05,-221.85 622.05,-221.85 626.25,-221.85 630.45,-226.05 630.45,-230.25 630.45,-230.25 630.45,-238.65 630.45,-238.65 630.45,-242.85 626.25,-247.05 622.05,-247.05"/>
<text xml:space="preserve" text-anchor="middle" x="576" y="-231.35" font-family="Helvetica,sans-Serif" font-size="8.00">CORE&#45;agent&#45;drift&#45;warning</text>
</g>
<!-- v0_7_0_CORE_git_graft_enhance -->
<g id="node2" class="node">
<title>v0_7_0_CORE_git_graft_enhance</title>
<path fill="#ffa07a" stroke="black" stroke-width="2" d="M328.68,-247.05C328.68,-247.05 243.33,-247.05 243.33,-247.05 239.12,-247.05 234.93,-242.85 234.93,-238.65 234.93,-238.65 234.93,-230.25 234.93,-230.25 234.93,-226.05 239.12,-221.85 243.33,-221.85 243.33,-221.85 328.68,-221.85 328.68,-221.85 332.88,-221.85 337.07,-226.05 337.07,-230.25 337.07,-230.25 337.07,-238.65 337.07,-238.65 337.07,-242.85 332.88,-247.05 328.68,-247.05"/>
<text xml:space="preserve" text-anchor="middle" x="286" y="-231.35" font-family="Helvetica,sans-Serif" font-size="8.00">CORE&#45;git&#45;graft&#45;enhance</text>
</g>
<!-- v0_7_0_CORE_migrate_path_ops_to_port -->
<g id="node3" class="node">
<title>v0_7_0_CORE_migrate_path_ops_to_port</title>
<path fill="#ffa07a" stroke="black" stroke-width="2" d="M137.17,-320.5C137.17,-320.5 24.83,-320.5 24.83,-320.5 20.63,-320.5 16.42,-316.3 16.42,-312.1 16.42,-312.1 16.42,-303.7 16.42,-303.7 16.42,-299.5 20.63,-295.3 24.83,-295.3 24.83,-295.3 137.17,-295.3 137.17,-295.3 141.37,-295.3 145.57,-299.5 145.57,-303.7 145.57,-303.7 145.57,-312.1 145.57,-312.1 145.57,-316.3 141.37,-320.5 137.17,-320.5"/>
<text xml:space="preserve" text-anchor="middle" x="81" y="-304.8" font-family="Helvetica,sans-Serif" font-size="8.00">CORE&#45;migrate&#45;path&#45;ops&#45;to&#45;port</text>
</g>
<!-- v0_7_0_CORE_migrate_to_slice_first_reads -->
<g id="node4" class="node">
<title>v0_7_0_CORE_migrate_to_slice_first_reads</title>
<path fill="#ffa07a" stroke="black" stroke-width="2" d="M877.8,-247.05C877.8,-247.05 760.2,-247.05 760.2,-247.05 756,-247.05 751.8,-242.85 751.8,-238.65 751.8,-238.65 751.8,-230.25 751.8,-230.25 751.8,-226.05 756,-221.85 760.2,-221.85 760.2,-221.85 877.8,-221.85 877.8,-221.85 882,-221.85 886.2,-226.05 886.2,-230.25 886.2,-230.25 886.2,-238.65 886.2,-238.65 886.2,-242.85 882,-247.05 877.8,-247.05"/>
<text xml:space="preserve" text-anchor="middle" x="819" y="-231.35" font-family="Helvetica,sans-Serif" font-size="8.00">CORE&#45;migrate&#45;to&#45;slice&#45;first&#45;reads</text>
</g>
<!-- v0_7_0_CORE_rewrite_structural_blame_to_use_warp_worldline_provenance -->
<g id="node5" class="node">
<title>v0_7_0_CORE_rewrite_structural_blame_to_use_warp_worldline_provenance</title>
<path fill="#ffa07a" stroke="black" stroke-width="2" d="M403.68,-320.5C403.68,-320.5 168.32,-320.5 168.32,-320.5 164.12,-320.5 159.92,-316.3 159.92,-312.1 159.92,-312.1 159.92,-303.7 159.92,-303.7 159.92,-299.5 164.12,-295.3 168.32,-295.3 168.32,-295.3 403.68,-295.3 403.68,-295.3 407.88,-295.3 412.08,-299.5 412.08,-303.7 412.08,-303.7 412.08,-312.1 412.08,-312.1 412.08,-316.3 407.88,-320.5 403.68,-320.5"/>
<text xml:space="preserve" text-anchor="middle" x="286" y="-304.8" font-family="Helvetica,sans-Serif" font-size="8.00">CORE&#45;rewrite&#45;structural&#45;blame&#45;to&#45;use&#45;warp&#45;worldline&#45;provenance</text>
</g>
<!-- v0_7_0_CORE_rewrite_structural_blame_to_use_warp_worldline_provenance&#45;&gt;v0_7_0_CORE_git_graft_enhance -->
<g id="edge16" class="edge">
<title>v0_7_0_CORE_rewrite_structural_blame_to_use_warp_worldline_provenance&#45;&gt;v0_7_0_CORE_git_graft_enhance</title>
<path fill="none" stroke="#666666" d="M286,-294.45C286,-283.29 286,-266.74 286,-254.01"/>
<polygon fill="#666666" stroke="#666666" points="287.75,-254.27 286,-249.27 284.25,-254.27 287.75,-254.27"/>
<text xml:space="preserve" text-anchor="middle" x="317.5" y="-268.65" font-family="Helvetica,sans-Serif" font-size="7.00">blocked_by/blocking</text>
</g>
<!-- v0_7_0_SURFACE_agent_dx_governed_edit -->
<g id="node6" class="node">
<title>v0_7_0_SURFACE_agent_dx_governed_edit</title>
<path fill="#ffa07a" stroke="black" stroke-width="2" d="M557.43,-320.5C557.43,-320.5 434.58,-320.5 434.58,-320.5 430.38,-320.5 426.18,-316.3 426.18,-312.1 426.18,-312.1 426.18,-303.7 426.18,-303.7 426.18,-299.5 430.38,-295.3 434.58,-295.3 434.58,-295.3 557.43,-295.3 557.43,-295.3 561.62,-295.3 565.83,-299.5 565.83,-303.7 565.83,-303.7 565.83,-312.1 565.83,-312.1 565.83,-316.3 561.62,-320.5 557.43,-320.5"/>
<text xml:space="preserve" text-anchor="middle" x="496" y="-304.8" font-family="Helvetica,sans-Serif" font-size="8.00">SURFACE&#45;agent&#45;dx&#45;governed&#45;edit</text>
</g>
<!-- v0_7_0_SURFACE_agent_dx_governed_edit&#45;&gt;v0_7_0_CORE_agent_drift_warning -->
<g id="edge17" class="edge">
<title>v0_7_0_SURFACE_agent_dx_governed_edit&#45;&gt;v0_7_0_CORE_agent_drift_warning</title>
<path fill="none" stroke="#666666" d="M513.18,-294.5C520.69,-288.87 529.48,-281.99 537,-275.3 545.15,-268.06 553.68,-259.48 560.67,-252.13"/>
<polygon fill="#666666" stroke="#666666" points="561.62,-253.68 563.77,-248.85 559.07,-251.28 561.62,-253.68"/>
<text xml:space="preserve" text-anchor="middle" x="576.33" y="-268.65" font-family="Helvetica,sans-Serif" font-size="7.00">blocked_by/blocking</text>
</g>
<!-- v0_7_0_SURFACE_governed_write_tools -->
<g id="node8" class="node">
<title>v0_7_0_SURFACE_governed_write_tools</title>
<path fill="#ffa07a" stroke="black" stroke-width="2" d="M499.18,-247.05C499.18,-247.05 386.82,-247.05 386.82,-247.05 382.62,-247.05 378.43,-242.85 378.43,-238.65 378.43,-238.65 378.43,-230.25 378.43,-230.25 378.43,-226.05 382.62,-221.85 386.82,-221.85 386.82,-221.85 499.18,-221.85 499.18,-221.85 503.38,-221.85 507.57,-226.05 507.57,-230.25 507.57,-230.25 507.57,-238.65 507.57,-238.65 507.57,-242.85 503.38,-247.05 499.18,-247.05"/>
<text xml:space="preserve" text-anchor="middle" x="443" y="-231.35" font-family="Helvetica,sans-Serif" font-size="8.00">SURFACE&#45;governed&#45;write&#45;tools</text>
</g>
<!-- v0_7_0_SURFACE_agent_dx_governed_edit&#45;&gt;v0_7_0_SURFACE_governed_write_tools -->
<g id="edge18" class="edge">
<title>v0_7_0_SURFACE_agent_dx_governed_edit&#45;&gt;v0_7_0_SURFACE_governed_write_tools</title>
<path fill="none" stroke="#666666" d="M486.77,-294.45C478.26,-282.98 465.53,-265.83 456,-252.97"/>
<polygon fill="#666666" stroke="#666666" points="457.41,-251.94 453.03,-248.97 454.6,-254.03 457.41,-251.94"/>
<text xml:space="preserve" text-anchor="middle" x="502.59" y="-268.65" font-family="Helvetica,sans-Serif" font-size="7.00">blocked_by/blocking</text>
</g>
<!-- v0_7_0_SURFACE_bijou_tui_for_graft_daemon_control_plane -->
<g id="node7" class="node">
<title>v0_7_0_SURFACE_bijou_tui_for_graft_daemon_control_plane</title>
<path fill="#ffa07a" stroke="black" stroke-width="2" d="M769.3,-320.5C769.3,-320.5 588.7,-320.5 588.7,-320.5 584.5,-320.5 580.3,-316.3 580.3,-312.1 580.3,-312.1 580.3,-303.7 580.3,-303.7 580.3,-299.5 584.5,-295.3 588.7,-295.3 588.7,-295.3 769.3,-295.3 769.3,-295.3 773.5,-295.3 777.7,-299.5 777.7,-303.7 777.7,-303.7 777.7,-312.1 777.7,-312.1 777.7,-316.3 773.5,-320.5 769.3,-320.5"/>
<text xml:space="preserve" text-anchor="middle" x="679" y="-304.8" font-family="Helvetica,sans-Serif" font-size="8.00">SURFACE&#45;bijou&#45;tui&#45;for&#45;graft&#45;daemon&#45;control&#45;plane</text>
</g>
<!-- v0_7_0_WARP_lsp_enrichment -->
<g id="node9" class="node">
<title>v0_7_0_WARP_lsp_enrichment</title>
<path fill="#ffa07a" stroke="black" stroke-width="2" d="M877.55,-320.5C877.55,-320.5 800.45,-320.5 800.45,-320.5 796.25,-320.5 792.05,-316.3 792.05,-312.1 792.05,-312.1 792.05,-303.7 792.05,-303.7 792.05,-299.5 796.25,-295.3 800.45,-295.3 800.45,-295.3 877.55,-295.3 877.55,-295.3 881.75,-295.3 885.95,-299.5 885.95,-303.7 885.95,-303.7 885.95,-312.1 885.95,-312.1 885.95,-316.3 881.75,-320.5 877.55,-320.5"/>
<text xml:space="preserve" text-anchor="middle" x="839" y="-304.8" font-family="Helvetica,sans-Serif" font-size="8.00">WARP&#45;lsp&#45;enrichment</text>
</g>
<!-- cool_ideas_bounded_neighborhood_for_references -->
<g id="node10" class="node">
<title>cool_ideas_bounded_neighborhood_for_references</title>
<path fill="#d4e8f7" stroke="black" d="M1271.17,-320.5C1271.17,-320.5 1122.83,-320.5 1122.83,-320.5 1118.62,-320.5 1114.42,-316.3 1114.42,-312.1 1114.42,-312.1 1114.42,-303.7 1114.42,-303.7 1114.42,-299.5 1118.62,-295.3 1122.83,-295.3 1122.83,-295.3 1271.17,-295.3 1271.17,-295.3 1275.38,-295.3 1279.58,-299.5 1279.58,-303.7 1279.58,-303.7 1279.58,-312.1 1279.58,-312.1 1279.58,-316.3 1275.38,-320.5 1271.17,-320.5"/>
<text xml:space="preserve" text-anchor="middle" x="1197" y="-304.8" font-family="Helvetica,sans-Serif" font-size="8.00">bounded&#45;neighborhood&#45;for&#45;references &#45; S</text>
</g>
<!-- cool_ideas_CI_001_causal_collapse_visualizer -->
<g id="node11" class="node">
<title>cool_ideas_CI_001_causal_collapse_visualizer</title>
<path fill="#d4e8f7" stroke="black" d="M7137.3,-247.05C7137.3,-247.05 7010.7,-247.05 7010.7,-247.05 7006.5,-247.05 7002.3,-242.85 7002.3,-238.65 7002.3,-238.65 7002.3,-230.25 7002.3,-230.25 7002.3,-226.05 7006.5,-221.85 7010.7,-221.85 7010.7,-221.85 7137.3,-221.85 7137.3,-221.85 7141.5,-221.85 7145.7,-226.05 7145.7,-230.25 7145.7,-230.25 7145.7,-238.65 7145.7,-238.65 7145.7,-242.85 7141.5,-247.05 7137.3,-247.05"/>
<text xml:space="preserve" text-anchor="middle" x="7074" y="-231.35" font-family="Helvetica,sans-Serif" font-size="8.00">CI&#45;001&#45;causal&#45;collapse&#45;visualizer &#45; L</text>
</g>
<!-- cool_ideas_CI_002_deterministic_scenario_replay -->
<g id="node12" class="node">
<title>cool_ideas_CI_002_deterministic_scenario_replay</title>
<path fill="#d4e8f7" stroke="black" d="M1441.67,-320.5C1441.67,-320.5 1302.33,-320.5 1302.33,-320.5 1298.12,-320.5 1293.92,-316.3 1293.92,-312.1 1293.92,-312.1 1293.92,-303.7 1293.92,-303.7 1293.92,-299.5 1298.12,-295.3 1302.33,-295.3 1302.33,-295.3 1441.67,-295.3 1441.67,-295.3 1445.88,-295.3 1450.08,-299.5 1450.08,-303.7 1450.08,-303.7 1450.08,-312.1 1450.08,-312.1 1450.08,-316.3 1445.88,-320.5 1441.67,-320.5"/>
<text xml:space="preserve" text-anchor="middle" x="1372" y="-304.8" font-family="Helvetica,sans-Serif" font-size="8.00">CI&#45;002&#45;deterministic&#45;scenario&#45;replay &#45; L</text>
</g>
<!-- cool_ideas_CI_003_mcp_native_diff_protocol -->
<g id="node13" class="node">
<title>cool_ideas_CI_003_mcp_native_diff_protocol</title>
<path fill="#d4e8f7" stroke="black" d="M1595.8,-320.5C1595.8,-320.5 1472.2,-320.5 1472.2,-320.5 1468,-320.5 1463.8,-316.3 1463.8,-312.1 1463.8,-312.1 1463.8,-303.7 1463.8,-303.7 1463.8,-299.5 1468,-295.3 1472.2,-295.3 1472.2,-295.3 1595.8,-295.3 1595.8,-295.3 1600,-295.3 1604.2,-299.5 1604.2,-303.7 1604.2,-303.7 1604.2,-312.1 1604.2,-312.1 1604.2,-316.3 1600,-320.5 1595.8,-320.5"/>
<text xml:space="preserve" text-anchor="middle" x="1534" y="-304.8" font-family="Helvetica,sans-Serif" font-size="8.00">CI&#45;003&#45;mcp&#45;native&#45;diff&#45;protocol &#45; M</text>
</g>
<!-- cool_ideas_CLEAN_CODE_parallel_agent_merge_shared_file_loss -->
<g id="node14" class="node">
<title>cool_ideas_CLEAN_CODE_parallel_agent_merge_shared_file_loss</title>
<path fill="#d4e8f7" stroke="black" d="M1827.05,-320.5C1827.05,-320.5 1626.95,-320.5 1626.95,-320.5 1622.75,-320.5 1618.55,-316.3 1618.55,-312.1 1618.55,-312.1 1618.55,-303.7 1618.55,-303.7 1618.55,-299.5 1622.75,-295.3 1626.95,-295.3 1626.95,-295.3 1827.05,-295.3 1827.05,-295.3 1831.25,-295.3 1835.45,-299.5 1835.45,-303.7 1835.45,-303.7 1835.45,-312.1 1835.45,-312.1 1835.45,-316.3 1831.25,-320.5 1827.05,-320.5"/>
<text xml:space="preserve" text-anchor="middle" x="1727" y="-304.8" font-family="Helvetica,sans-Serif" font-size="8.00">CLEAN&#45;CODE&#45;parallel&#45;agent&#45;merge&#45;shared&#45;file&#45;loss &#45; M</text>
</g>
<!-- cool_ideas_CORE_agent_handoff_protocol -->
<g id="node15" class="node">
<title>cool_ideas_CORE_agent_handoff_protocol</title>
<path fill="#d4e8f7" stroke="black" d="M1977.92,-320.5C1977.92,-320.5 1858.08,-320.5 1858.08,-320.5 1853.88,-320.5 1849.67,-316.3 1849.67,-312.1 1849.67,-312.1 1849.67,-303.7 1849.67,-303.7 1849.67,-299.5 1853.88,-295.3 1858.08,-295.3 1858.08,-295.3 1977.92,-295.3 1977.92,-295.3 1982.12,-295.3 1986.33,-299.5 1986.33,-303.7 1986.33,-303.7 1986.33,-312.1 1986.33,-312.1 1986.33,-316.3 1982.12,-320.5 1977.92,-320.5"/>
<text xml:space="preserve" text-anchor="middle" x="1918" y="-304.8" font-family="Helvetica,sans-Serif" font-size="8.00">CORE&#45;agent&#45;handoff&#45;protocol &#45; M</text>
</g>
<!-- cool_ideas_CORE_auto_focus -->
<g id="node16" class="node">
<title>cool_ideas_CORE_auto_focus</title>
<path fill="#d4e8f7" stroke="black" d="M2081.67,-320.5C2081.67,-320.5 2008.33,-320.5 2008.33,-320.5 2004.12,-320.5 1999.92,-316.3 1999.92,-312.1 1999.92,-312.1 1999.92,-303.7 1999.92,-303.7 1999.92,-299.5 2004.12,-295.3 2008.33,-295.3 2008.33,-295.3 2081.67,-295.3 2081.67,-295.3 2085.88,-295.3 2090.07,-299.5 2090.07,-303.7 2090.07,-303.7 2090.07,-312.1 2090.07,-312.1 2090.07,-316.3 2085.88,-320.5 2081.67,-320.5"/>
<text xml:space="preserve" text-anchor="middle" x="2045" y="-304.8" font-family="Helvetica,sans-Serif" font-size="8.00">CORE&#45;auto&#45;focus &#45; L</text>
</g>
<!-- cool_ideas_CORE_backlog_status_tool -->
<g id="node17" class="node">
<title>cool_ideas_CORE_backlog_status_tool</title>
<path fill="#d4e8f7" stroke="black" d="M2215.67,-320.5C2215.67,-320.5 2112.33,-320.5 2112.33,-320.5 2108.12,-320.5 2103.93,-316.3 2103.93,-312.1 2103.93,-312.1 2103.93,-303.7 2103.93,-303.7 2103.93,-299.5 2108.12,-295.3 2112.33,-295.3 2112.33,-295.3 2215.67,-295.3 2215.67,-295.3 2219.88,-295.3 2224.07,-299.5 2224.07,-303.7 2224.07,-303.7 2224.07,-312.1 2224.07,-312.1 2224.07,-316.3 2219.88,-320.5 2215.67,-320.5"/>
<text xml:space="preserve" text-anchor="middle" x="2164" y="-304.8" font-family="Helvetica,sans-Serif" font-size="8.00">CORE&#45;backlog&#45;status&#45;tool &#45; S</text>
</g>
<!-- cool_ideas_CORE_capture_range -->
<g id="node18" class="node">
<title>cool_ideas_CORE_capture_range</title>
<path fill="#d4e8f7" stroke="black" d="M2333.8,-320.5C2333.8,-320.5 2246.2,-320.5 2246.2,-320.5 2242,-320.5 2237.8,-316.3 2237.8,-312.1 2237.8,-312.1 2237.8,-303.7 2237.8,-303.7 2237.8,-299.5 2242,-295.3 2246.2,-295.3 2246.2,-295.3 2333.8,-295.3 2333.8,-295.3 2338,-295.3 2342.2,-299.5 2342.2,-303.7 2342.2,-303.7 2342.2,-312.1 2342.2,-312.1 2342.2,-316.3 2338,-320.5 2333.8,-320.5"/>
<text xml:space="preserve" text-anchor="middle" x="2290" y="-304.8" font-family="Helvetica,sans-Serif" font-size="8.00">CORE&#45;capture&#45;range &#45; S</text>
</g>
<!-- cool_ideas_CORE_constructor_in_disguise_lint -->
<g id="node19" class="node">
<title>cool_ideas_CORE_constructor_in_disguise_lint</title>
<path fill="#d4e8f7" stroke="black" d="M2495.55,-320.5C2495.55,-320.5 2364.45,-320.5 2364.45,-320.5 2360.25,-320.5 2356.05,-316.3 2356.05,-312.1 2356.05,-312.1 2356.05,-303.7 2356.05,-303.7 2356.05,-299.5 2360.25,-295.3 2364.45,-295.3 2364.45,-295.3 2495.55,-295.3 2495.55,-295.3 2499.75,-295.3 2503.95,-299.5 2503.95,-303.7 2503.95,-303.7 2503.95,-312.1 2503.95,-312.1 2503.95,-316.3 2499.75,-320.5 2495.55,-320.5"/>
<text xml:space="preserve" text-anchor="middle" x="2430" y="-304.8" font-family="Helvetica,sans-Serif" font-size="8.00">CORE&#45;constructor&#45;in&#45;disguise&#45;lint &#45; M</text>
</g>
<!-- cool_ideas_CORE_context_budget_forecasting -->
<g id="node20" class="node">
<title>cool_ideas_CORE_context_budget_forecasting</title>
<path fill="#d4e8f7" stroke="black" d="M2659.67,-320.5C2659.67,-320.5 2526.33,-320.5 2526.33,-320.5 2522.12,-320.5 2517.93,-316.3 2517.93,-312.1 2517.93,-312.1 2517.93,-303.7 2517.93,-303.7 2517.93,-299.5 2522.12,-295.3 2526.33,-295.3 2526.33,-295.3 2659.67,-295.3 2659.67,-295.3 2663.88,-295.3 2668.07,-299.5 2668.07,-303.7 2668.07,-303.7 2668.07,-312.1 2668.07,-312.1 2668.07,-316.3 2663.88,-320.5 2659.67,-320.5"/>
<text xml:space="preserve" text-anchor="middle" x="2593" y="-304.8" font-family="Helvetica,sans-Serif" font-size="8.00">CORE&#45;context&#45;budget&#45;forecasting &#45; M</text>
</g>
<!-- cool_ideas_CORE_conversation_primer -->
<g id="node21" class="node">
<title>cool_ideas_CORE_conversation_primer</title>
<path fill="#d4e8f7" stroke="black" d="M2799.67,-320.5C2799.67,-320.5 2690.33,-320.5 2690.33,-320.5 2686.12,-320.5 2681.93,-316.3 2681.93,-312.1 2681.93,-312.1 2681.93,-303.7 2681.93,-303.7 2681.93,-299.5 2686.12,-295.3 2690.33,-295.3 2690.33,-295.3 2799.67,-295.3 2799.67,-295.3 2803.88,-295.3 2808.07,-299.5 2808.07,-303.7 2808.07,-303.7 2808.07,-312.1 2808.07,-312.1 2808.07,-316.3 2803.88,-320.5 2799.67,-320.5"/>
<text xml:space="preserve" text-anchor="middle" x="2745" y="-304.8" font-family="Helvetica,sans-Serif" font-size="8.00">CORE&#45;conversation&#45;primer &#45; M</text>
</g>
<!-- cool_ideas_CORE_cross_session_resume -->
<g id="node22" class="node">
<title>cool_ideas_CORE_cross_session_resume</title>
<path fill="#d4e8f7" stroke="black" d="M2945.3,-320.5C2945.3,-320.5 2830.7,-320.5 2830.7,-320.5 2826.5,-320.5 2822.3,-316.3 2822.3,-312.1 2822.3,-312.1 2822.3,-303.7 2822.3,-303.7 2822.3,-299.5 2826.5,-295.3 2830.7,-295.3 2830.7,-295.3 2945.3,-295.3 2945.3,-295.3 2949.5,-295.3 2953.7,-299.5 2953.7,-303.7 2953.7,-303.7 2953.7,-312.1 2953.7,-312.1 2953.7,-316.3 2949.5,-320.5 2945.3,-320.5"/>
<text xml:space="preserve" text-anchor="middle" x="2888" y="-304.8" font-family="Helvetica,sans-Serif" font-size="8.00">CORE&#45;cross&#45;session&#45;resume &#45; S</text>
</g>
<!-- cool_ideas_CORE_graft_as_teacher -->
<g id="node23" class="node">
<title>cool_ideas_CORE_graft_as_teacher</title>
<path fill="#d4e8f7" stroke="black" d="M3070.17,-320.5C3070.17,-320.5 2975.83,-320.5 2975.83,-320.5 2971.62,-320.5 2967.43,-316.3 2967.43,-312.1 2967.43,-312.1 2967.43,-303.7 2967.43,-303.7 2967.43,-299.5 2971.62,-295.3 2975.83,-295.3 2975.83,-295.3 3070.17,-295.3 3070.17,-295.3 3074.38,-295.3 3078.57,-299.5 3078.57,-303.7 3078.57,-303.7 3078.57,-312.1 3078.57,-312.1 3078.57,-316.3 3074.38,-320.5 3070.17,-320.5"/>
<text xml:space="preserve" text-anchor="middle" x="3023" y="-304.8" font-family="Helvetica,sans-Serif" font-size="8.00">CORE&#45;graft&#45;as&#45;teacher &#45; S</text>
</g>
<!-- cool_ideas_CORE_graft_doctor -->
<g id="node24" class="node">
<title>cool_ideas_CORE_graft_doctor</title>
<path fill="#d4e8f7" stroke="black" d="M3181.05,-320.5C3181.05,-320.5 3100.95,-320.5 3100.95,-320.5 3096.75,-320.5 3092.55,-316.3 3092.55,-312.1 3092.55,-312.1 3092.55,-303.7 3092.55,-303.7 3092.55,-299.5 3096.75,-295.3 3100.95,-295.3 3100.95,-295.3 3181.05,-295.3 3181.05,-295.3 3185.25,-295.3 3189.45,-299.5 3189.45,-303.7 3189.45,-303.7 3189.45,-312.1 3189.45,-312.1 3189.45,-316.3 3185.25,-320.5 3181.05,-320.5"/>
<text xml:space="preserve" text-anchor="middle" x="3141" y="-304.8" font-family="Helvetica,sans-Serif" font-size="8.00">CORE&#45;graft&#45;doctor &#45; M</text>
</g>
<!-- cool_ideas_CORE_graft_teach_learning_receipts -->
<g id="node25" class="node">
<title>cool_ideas_CORE_graft_teach_learning_receipts</title>
<path fill="#d4e8f7" stroke="black" d="M3349.92,-320.5C3349.92,-320.5 3212.08,-320.5 3212.08,-320.5 3207.88,-320.5 3203.68,-316.3 3203.68,-312.1 3203.68,-312.1 3203.68,-303.7 3203.68,-303.7 3203.68,-299.5 3207.88,-295.3 3212.08,-295.3 3212.08,-295.3 3349.92,-295.3 3349.92,-295.3 3354.12,-295.3 3358.32,-299.5 3358.32,-303.7 3358.32,-303.7 3358.32,-312.1 3358.32,-312.1 3358.32,-316.3 3354.12,-320.5 3349.92,-320.5"/>
<text xml:space="preserve" text-anchor="middle" x="3281" y="-304.8" font-family="Helvetica,sans-Serif" font-size="8.00">CORE&#45;graft&#45;teach&#45;learning&#45;receipts &#45; S</text>
</g>
<!-- cool_ideas_CORE_horizon_of_readability -->
<g id="node26" class="node">
<title>cool_ideas_CORE_horizon_of_readability</title>
<path fill="#d4e8f7" stroke="black" d="M3493.55,-320.5C3493.55,-320.5 3380.45,-320.5 3380.45,-320.5 3376.25,-320.5 3372.05,-316.3 3372.05,-312.1 3372.05,-312.1 3372.05,-303.7 3372.05,-303.7 3372.05,-299.5 3376.25,-295.3 3380.45,-295.3 3380.45,-295.3 3493.55,-295.3 3493.55,-295.3 3497.75,-295.3 3501.95,-299.5 3501.95,-303.7 3501.95,-303.7 3501.95,-312.1 3501.95,-312.1 3501.95,-316.3 3497.75,-320.5 3493.55,-320.5"/>
<text xml:space="preserve" text-anchor="middle" x="3437" y="-304.8" font-family="Helvetica,sans-Serif" font-size="8.00">CORE&#45;horizon&#45;of&#45;readability &#45; M</text>
</g>
<!-- cool_ideas_CORE_lagrangian_policy -->
<g id="node27" class="node">
<title>cool_ideas_CORE_lagrangian_policy</title>
<path fill="#d4e8f7" stroke="black" d="M3625.55,-320.5C3625.55,-320.5 3524.45,-320.5 3524.45,-320.5 3520.25,-320.5 3516.05,-316.3 3516.05,-312.1 3516.05,-312.1 3516.05,-303.7 3516.05,-303.7 3516.05,-299.5 3520.25,-295.3 3524.45,-295.3 3524.45,-295.3 3625.55,-295.3 3625.55,-295.3 3629.75,-295.3 3633.95,-299.5 3633.95,-303.7 3633.95,-303.7 3633.95,-312.1 3633.95,-312.1 3633.95,-316.3 3629.75,-320.5 3625.55,-320.5"/>
<text xml:space="preserve" text-anchor="middle" x="3575" y="-304.8" font-family="Helvetica,sans-Serif" font-size="8.00">CORE&#45;lagrangian&#45;policy &#45; XL</text>
</g>
<!-- cool_ideas_CORE_multi_agent_conflict_detection -->
<g id="node28" class="node">
<title>cool_ideas_CORE_multi_agent_conflict_detection</title>
<path fill="#d4e8f7" stroke="black" d="M3793.92,-320.5C3793.92,-320.5 3656.08,-320.5 3656.08,-320.5 3651.88,-320.5 3647.68,-316.3 3647.68,-312.1 3647.68,-312.1 3647.68,-303.7 3647.68,-303.7 3647.68,-299.5 3651.88,-295.3 3656.08,-295.3 3656.08,-295.3 3793.92,-295.3 3793.92,-295.3 3798.12,-295.3 3802.32,-299.5 3802.32,-303.7 3802.32,-303.7 3802.32,-312.1 3802.32,-312.1 3802.32,-316.3 3798.12,-320.5 3793.92,-320.5"/>
<text xml:space="preserve" text-anchor="middle" x="3725" y="-304.8" font-family="Helvetica,sans-Serif" font-size="8.00">CORE&#45;multi&#45;agent&#45;conflict&#45;detection &#45; L</text>
</g>
<!-- cool_ideas_CORE_policy_playground -->
<g id="node29" class="node">
<title>cool_ideas_CORE_policy_playground</title>
<path fill="#d4e8f7" stroke="black" d="M3923.42,-320.5C3923.42,-320.5 3824.58,-320.5 3824.58,-320.5 3820.38,-320.5 3816.18,-316.3 3816.18,-312.1 3816.18,-312.1 3816.18,-303.7 3816.18,-303.7 3816.18,-299.5 3820.38,-295.3 3824.58,-295.3 3824.58,-295.3 3923.42,-295.3 3923.42,-295.3 3927.62,-295.3 3931.82,-299.5 3931.82,-303.7 3931.82,-303.7 3931.82,-312.1 3931.82,-312.1 3931.82,-316.3 3927.62,-320.5 3923.42,-320.5"/>
<text xml:space="preserve" text-anchor="middle" x="3874" y="-304.8" font-family="Helvetica,sans-Serif" font-size="8.00">CORE&#45;policy&#45;playground &#45; S</text>
</g>
<!-- cool_ideas_CORE_policy_profiles -->
<g id="node30" class="node">
<title>cool_ideas_CORE_policy_profiles</title>
<path fill="#d4e8f7" stroke="black" d="M4040.05,-320.5C4040.05,-320.5 3953.95,-320.5 3953.95,-320.5 3949.75,-320.5 3945.55,-316.3 3945.55,-312.1 3945.55,-312.1 3945.55,-303.7 3945.55,-303.7 3945.55,-299.5 3949.75,-295.3 3953.95,-295.3 3953.95,-295.3 4040.05,-295.3 4040.05,-295.3 4044.25,-295.3 4048.45,-299.5 4048.45,-303.7 4048.45,-303.7 4048.45,-312.1 4048.45,-312.1 4048.45,-316.3 4044.25,-320.5 4040.05,-320.5"/>
<text xml:space="preserve" text-anchor="middle" x="3997" y="-304.8" font-family="Helvetica,sans-Serif" font-size="8.00">CORE&#45;policy&#45;profiles &#45; M</text>
</g>
<!-- cool_ideas_CORE_pr_review_structural_summary -->
<g id="node31" class="node">
<title>cool_ideas_CORE_pr_review_structural_summary</title>
<path fill="#d4e8f7" stroke="black" d="M4214.93,-320.5C4214.93,-320.5 4071.08,-320.5 4071.08,-320.5 4066.88,-320.5 4062.68,-316.3 4062.68,-312.1 4062.68,-312.1 4062.68,-303.7 4062.68,-303.7 4062.68,-299.5 4066.88,-295.3 4071.08,-295.3 4071.08,-295.3 4214.93,-295.3 4214.93,-295.3 4219.12,-295.3 4223.32,-299.5 4223.32,-303.7 4223.32,-303.7 4223.32,-312.1 4223.32,-312.1 4223.32,-316.3 4219.12,-320.5 4214.93,-320.5"/>
<text xml:space="preserve" text-anchor="middle" x="4143" y="-304.8" font-family="Helvetica,sans-Serif" font-size="8.00">CORE&#45;pr&#45;review&#45;structural&#45;summary &#45; M</text>
</g>
<!-- cool_ideas_CORE_self_tuning_governor -->
<g id="node32" class="node">
<title>cool_ideas_CORE_self_tuning_governor</title>
<path fill="#d4e8f7" stroke="black" d="M4356.05,-320.5C4356.05,-320.5 4245.95,-320.5 4245.95,-320.5 4241.75,-320.5 4237.55,-316.3 4237.55,-312.1 4237.55,-312.1 4237.55,-303.7 4237.55,-303.7 4237.55,-299.5 4241.75,-295.3 4245.95,-295.3 4245.95,-295.3 4356.05,-295.3 4356.05,-295.3 4360.25,-295.3 4364.45,-299.5 4364.45,-303.7 4364.45,-303.7 4364.45,-312.1 4364.45,-312.1 4364.45,-316.3 4360.25,-320.5 4356.05,-320.5"/>
<text xml:space="preserve" text-anchor="middle" x="4301" y="-304.8" font-family="Helvetica,sans-Serif" font-size="8.00">CORE&#45;self&#45;tuning&#45;governor &#45; M</text>
</g>
<!-- cool_ideas_CORE_session_knowledge_map -->
<g id="node33" class="node">
<title>cool_ideas_CORE_session_knowledge_map</title>
<path fill="#d4e8f7" stroke="black" d="M4509.43,-320.5C4509.43,-320.5 4386.57,-320.5 4386.57,-320.5 4382.38,-320.5 4378.18,-316.3 4378.18,-312.1 4378.18,-312.1 4378.18,-303.7 4378.18,-303.7 4378.18,-299.5 4382.38,-295.3 4386.57,-295.3 4386.57,-295.3 4509.43,-295.3 4509.43,-295.3 4513.62,-295.3 4517.82,-299.5 4517.82,-303.7 4517.82,-303.7 4517.82,-312.1 4517.82,-312.1 4517.82,-316.3 4513.62,-320.5 4509.43,-320.5"/>
<text xml:space="preserve" text-anchor="middle" x="4448" y="-304.8" font-family="Helvetica,sans-Serif" font-size="8.00">CORE&#45;session&#45;knowledge&#45;map &#45; S</text>
</g>
<!-- cool_ideas_CORE_speculative_read_cost -->
<g id="node34" class="node">
<title>cool_ideas_CORE_speculative_read_cost</title>
<path fill="#d4e8f7" stroke="black" d="M4652.18,-320.5C4652.18,-320.5 4539.82,-320.5 4539.82,-320.5 4535.62,-320.5 4531.43,-316.3 4531.43,-312.1 4531.43,-312.1 4531.43,-303.7 4531.43,-303.7 4531.43,-299.5 4535.62,-295.3 4539.82,-295.3 4539.82,-295.3 4652.18,-295.3 4652.18,-295.3 4656.38,-295.3 4660.57,-299.5 4660.57,-303.7 4660.57,-303.7 4660.57,-312.1 4660.57,-312.1 4660.57,-316.3 4656.38,-320.5 4652.18,-320.5"/>
<text xml:space="preserve" text-anchor="middle" x="4596" y="-304.8" font-family="Helvetica,sans-Serif" font-size="8.00">CORE&#45;speculative&#45;read&#45;cost &#45; S</text>
</g>
<!-- cool_ideas_CORE_structural_session_replay -->
<g id="node35" class="node">
<title>cool_ideas_CORE_structural_session_replay</title>
<path fill="#d4e8f7" stroke="black" d="M4808.55,-320.5C4808.55,-320.5 4683.45,-320.5 4683.45,-320.5 4679.25,-320.5 4675.05,-316.3 4675.05,-312.1 4675.05,-312.1 4675.05,-303.7 4675.05,-303.7 4675.05,-299.5 4679.25,-295.3 4683.45,-295.3 4683.45,-295.3 4808.55,-295.3 4808.55,-295.3 4812.75,-295.3 4816.95,-299.5 4816.95,-303.7 4816.95,-303.7 4816.95,-312.1 4816.95,-312.1 4816.95,-316.3 4812.75,-320.5 4808.55,-320.5"/>
<text xml:space="preserve" text-anchor="middle" x="4746" y="-304.8" font-family="Helvetica,sans-Serif" font-size="8.00">CORE&#45;structural&#45;session&#45;replay &#45; M</text>
</g>
<!-- cool_ideas_CORE_structural_test_coverage_map -->
<g id="node36" class="node">
<title>cool_ideas_CORE_structural_test_coverage_map</title>
<path fill="#d4e8f7" stroke="black" d="M4980.8,-320.5C4980.8,-320.5 4839.2,-320.5 4839.2,-320.5 4835,-320.5 4830.8,-316.3 4830.8,-312.1 4830.8,-312.1 4830.8,-303.7 4830.8,-303.7 4830.8,-299.5 4835,-295.3 4839.2,-295.3 4839.2,-295.3 4980.8,-295.3 4980.8,-295.3 4985,-295.3 4989.2,-299.5 4989.2,-303.7 4989.2,-303.7 4989.2,-312.1 4989.2,-312.1 4989.2,-316.3 4985,-320.5 4980.8,-320.5"/>
<text xml:space="preserve" text-anchor="middle" x="4910" y="-304.8" font-family="Helvetica,sans-Serif" font-size="8.00">CORE&#45;structural&#45;test&#45;coverage&#45;map &#45; M</text>
</g>
<!-- cool_ideas_CORE_wire_primitives_into_runtime -->
<g id="node37" class="node">
<title>cool_ideas_CORE_wire_primitives_into_runtime</title>
<path fill="#d4e8f7" stroke="black" d="M5146.43,-320.5C5146.43,-320.5 5011.57,-320.5 5011.57,-320.5 5007.38,-320.5 5003.18,-316.3 5003.18,-312.1 5003.18,-312.1 5003.18,-303.7 5003.18,-303.7 5003.18,-299.5 5007.38,-295.3 5011.57,-295.3 5011.57,-295.3 5146.43,-295.3 5146.43,-295.3 5150.62,-295.3 5154.82,-299.5 5154.82,-303.7 5154.82,-303.7 5154.82,-312.1 5154.82,-312.1 5154.82,-316.3 5150.62,-320.5 5146.43,-320.5"/>
<text xml:space="preserve" text-anchor="middle" x="5079" y="-304.8" font-family="Helvetica,sans-Serif" font-size="8.00">CORE&#45;wire&#45;primitives&#45;into&#45;runtime &#45; M</text>
</g>
<!-- cool_ideas_monitor_tick_ceiling_tracking -->
<g id="node38" class="node">
<title>cool_ideas_monitor_tick_ceiling_tracking</title>
<path fill="#d4e8f7" stroke="black" d="M5284.55,-320.5C5284.55,-320.5 5177.45,-320.5 5177.45,-320.5 5173.25,-320.5 5169.05,-316.3 5169.05,-312.1 5169.05,-312.1 5169.05,-303.7 5169.05,-303.7 5169.05,-299.5 5173.25,-295.3 5177.45,-295.3 5177.45,-295.3 5284.55,-295.3 5284.55,-295.3 5288.75,-295.3 5292.95,-299.5 5292.95,-303.7 5292.95,-303.7 5292.95,-312.1 5292.95,-312.1 5292.95,-316.3 5288.75,-320.5 5284.55,-320.5"/>
<text xml:space="preserve" text-anchor="middle" x="5231" y="-304.8" font-family="Helvetica,sans-Serif" font-size="8.00">monitor&#45;tick&#45;ceiling&#45;tracking &#45; S</text>
</g>
<!-- cool_ideas_WARP_background_indexing -->
<g id="node50" class="node">
<title>cool_ideas_WARP_background_indexing</title>
<path fill="#d4e8f7" stroke="black" d="M5287.55,-247.05C5287.55,-247.05 5174.45,-247.05 5174.45,-247.05 5170.25,-247.05 5166.05,-242.85 5166.05,-238.65 5166.05,-238.65 5166.05,-230.25 5166.05,-230.25 5166.05,-226.05 5170.25,-221.85 5174.45,-221.85 5174.45,-221.85 5287.55,-221.85 5287.55,-221.85 5291.75,-221.85 5295.95,-226.05 5295.95,-230.25 5295.95,-230.25 5295.95,-238.65 5295.95,-238.65 5295.95,-242.85 5291.75,-247.05 5287.55,-247.05"/>
<text xml:space="preserve" text-anchor="middle" x="5231" y="-231.35" font-family="Helvetica,sans-Serif" font-size="8.00">WARP&#45;background&#45;indexing &#45; M</text>
</g>
<!-- cool_ideas_monitor_tick_ceiling_tracking&#45;&gt;cool_ideas_WARP_background_indexing -->
<g id="edge1" class="edge">
<title>cool_ideas_monitor_tick_ceiling_tracking&#45;&gt;cool_ideas_WARP_background_indexing</title>
<path fill="none" stroke="#666666" d="M5231,-295.1C5231,-283.9 5231,-266.88 5231,-253.88"/>
<polygon fill="#666666" stroke="#666666" points="5232.75,-254.02 5231,-249.02 5229.25,-254.02 5232.75,-254.02"/>
<text xml:space="preserve" text-anchor="middle" x="5262.5" y="-268.65" font-family="Helvetica,sans-Serif" font-size="7.00">blocked_by/blocking</text>
</g>
<!-- cool_ideas_SURFACE_active_causal_workspace_status -->
<g id="node39" class="node">
<title>cool_ideas_SURFACE_active_causal_workspace_status</title>
<path fill="#d4e8f7" stroke="black" d="M5479.05,-320.5C5479.05,-320.5 5314.95,-320.5 5314.95,-320.5 5310.75,-320.5 5306.55,-316.3 5306.55,-312.1 5306.55,-312.1 5306.55,-303.7 5306.55,-303.7 5306.55,-299.5 5310.75,-295.3 5314.95,-295.3 5314.95,-295.3 5479.05,-295.3 5479.05,-295.3 5483.25,-295.3 5487.45,-299.5 5487.45,-303.7 5487.45,-303.7 5487.45,-312.1 5487.45,-312.1 5487.45,-316.3 5483.25,-320.5 5479.05,-320.5"/>
<text xml:space="preserve" text-anchor="middle" x="5397" y="-304.8" font-family="Helvetica,sans-Serif" font-size="8.00">SURFACE&#45;active&#45;causal&#45;workspace&#45;status &#45; M</text>
</g>
<!-- cool_ideas_SURFACE_ide_native_graft_integration -->
<g id="node41" class="node">
<title>cool_ideas_SURFACE_ide_native_graft_integration</title>
<path fill="#d4e8f7" stroke="black" d="M5472.3,-247.05C5472.3,-247.05 5321.7,-247.05 5321.7,-247.05 5317.5,-247.05 5313.3,-242.85 5313.3,-238.65 5313.3,-238.65 5313.3,-230.25 5313.3,-230.25 5313.3,-226.05 5317.5,-221.85 5321.7,-221.85 5321.7,-221.85 5472.3,-221.85 5472.3,-221.85 5476.5,-221.85 5480.7,-226.05 5480.7,-230.25 5480.7,-230.25 5480.7,-238.65 5480.7,-238.65 5480.7,-242.85 5476.5,-247.05 5472.3,-247.05"/>
<text xml:space="preserve" text-anchor="middle" x="5397" y="-231.35" font-family="Helvetica,sans-Serif" font-size="8.00">SURFACE&#45;ide&#45;native&#45;graft&#45;integration &#45; XL</text>
</g>
<!-- cool_ideas_SURFACE_active_causal_workspace_status&#45;&gt;cool_ideas_SURFACE_ide_native_graft_integration -->
<g id="edge2" class="edge">
<title>cool_ideas_SURFACE_active_causal_workspace_status&#45;&gt;cool_ideas_SURFACE_ide_native_graft_integration</title>
<path fill="none" stroke="#666666" d="M5397,-295.1C5397,-283.9 5397,-266.88 5397,-253.88"/>
<polygon fill="#666666" stroke="#666666" points="5398.75,-254.02 5397,-249.02 5395.25,-254.02 5398.75,-254.02"/>
<text xml:space="preserve" text-anchor="middle" x="5428.5" y="-268.65" font-family="Helvetica,sans-Serif" font-size="7.00">blocked_by/blocking</text>
</g>
<!-- cool_ideas_SURFACE_attach_to_existing_causal_session -->
<g id="node40" class="node">
<title>cool_ideas_SURFACE_attach_to_existing_causal_session</title>
<path fill="#d4e8f7" stroke="black" d="M5678.3,-320.5C5678.3,-320.5 5509.7,-320.5 5509.7,-320.5 5505.5,-320.5 5501.3,-316.3 5501.3,-312.1 5501.3,-312.1 5501.3,-303.7 5501.3,-303.7 5501.3,-299.5 5505.5,-295.3 5509.7,-295.3 5509.7,-295.3 5678.3,-295.3 5678.3,-295.3 5682.5,-295.3 5686.7,-299.5 5686.7,-303.7 5686.7,-303.7 5686.7,-312.1 5686.7,-312.1 5686.7,-316.3 5682.5,-320.5 5678.3,-320.5"/>
<text xml:space="preserve" text-anchor="middle" x="5594" y="-304.8" font-family="Helvetica,sans-Serif" font-size="8.00">SURFACE&#45;attach&#45;to&#45;existing&#45;causal&#45;session &#45; M</text>
</g>
<!-- cool_ideas_SURFACE_local_history_dag_render_mode_and_count_legend -->
<g id="node42" class="node">
<title>cool_ideas_SURFACE_local_history_dag_render_mode_and_count_legend</title>
<path fill="#d4e8f7" stroke="black" d="M5935.18,-320.5C5935.18,-320.5 5708.82,-320.5 5708.82,-320.5 5704.62,-320.5 5700.43,-316.3 5700.43,-312.1 5700.43,-312.1 5700.43,-303.7 5700.43,-303.7 5700.43,-299.5 5704.62,-295.3 5708.82,-295.3 5708.82,-295.3 5935.18,-295.3 5935.18,-295.3 5939.38,-295.3 5943.57,-299.5 5943.57,-303.7 5943.57,-303.7 5943.57,-312.1 5943.57,-312.1 5943.57,-316.3 5939.38,-320.5 5935.18,-320.5"/>
<text xml:space="preserve" text-anchor="middle" x="5822" y="-304.8" font-family="Helvetica,sans-Serif" font-size="8.00">SURFACE&#45;local&#45;history&#45;dag&#45;render&#45;mode&#45;and&#45;count&#45;legend &#45; S</text>
</g>
<!-- cool_ideas_SURFACE_non_codex_instruction_bootstrap_parity -->
<g id="node43" class="node">
<title>cool_ideas_SURFACE_non_codex_instruction_bootstrap_parity</title>
<path fill="#d4e8f7" stroke="black" d="M6154.43,-320.5C6154.43,-320.5 5965.57,-320.5 5965.57,-320.5 5961.38,-320.5 5957.18,-316.3 5957.18,-312.1 5957.18,-312.1 5957.18,-303.7 5957.18,-303.7 5957.18,-299.5 5961.38,-295.3 5965.57,-295.3 5965.57,-295.3 6154.43,-295.3 6154.43,-295.3 6158.62,-295.3 6162.82,-299.5 6162.82,-303.7 6162.82,-303.7 6162.82,-312.1 6162.82,-312.1 6162.82,-316.3 6158.62,-320.5 6154.43,-320.5"/>
<text xml:space="preserve" text-anchor="middle" x="6060" y="-304.8" font-family="Helvetica,sans-Serif" font-size="8.00">SURFACE&#45;non&#45;codex&#45;instruction&#45;bootstrap&#45;parity &#45; M</text>
</g>
<!-- cool_ideas_SURFACE_offer_rename_refactor -->
<g id="node44" class="node">
<title>cool_ideas_SURFACE_offer_rename_refactor</title>
<path fill="#d4e8f7" stroke="black" d="M6314.43,-320.5C6314.43,-320.5 6185.57,-320.5 6185.57,-320.5 6181.38,-320.5 6177.18,-316.3 6177.18,-312.1 6177.18,-312.1 6177.18,-303.7 6177.18,-303.7 6177.18,-299.5 6181.38,-295.3 6185.57,-295.3 6185.57,-295.3 6314.43,-295.3 6314.43,-295.3 6318.62,-295.3 6322.82,-299.5 6322.82,-303.7 6322.82,-303.7 6322.82,-312.1 6322.82,-312.1 6322.82,-316.3 6318.62,-320.5 6314.43,-320.5"/>
<text xml:space="preserve" text-anchor="middle" x="6250" y="-304.8" font-family="Helvetica,sans-Serif" font-size="8.00">SURFACE&#45;offer&#45;rename&#45;refactor &#45; L</text>
</g>
<!-- cool_ideas_SURFACE_terminal_activity_browser_tui -->
<g id="node45" class="node">
<title>cool_ideas_SURFACE_terminal_activity_browser_tui</title>
<path fill="#d4e8f7" stroke="black" d="M6494.55,-320.5C6494.55,-320.5 6345.45,-320.5 6345.45,-320.5 6341.25,-320.5 6337.05,-316.3 6337.05,-312.1 6337.05,-312.1 6337.05,-303.7 6337.05,-303.7 6337.05,-299.5 6341.25,-295.3 6345.45,-295.3 6345.45,-295.3 6494.55,-295.3 6494.55,-295.3 6498.75,-295.3 6502.95,-299.5 6502.95,-303.7 6502.95,-303.7 6502.95,-312.1 6502.95,-312.1 6502.95,-316.3 6498.75,-320.5 6494.55,-320.5"/>
<text xml:space="preserve" text-anchor="middle" x="6420" y="-304.8" font-family="Helvetica,sans-Serif" font-size="8.00">SURFACE&#45;terminal&#45;activity&#45;browser&#45;tui &#45; L</text>
</g>
<!-- cool_ideas_traverse_plus_query_hydration_helper -->
<g id="node46" class="node">
<title>cool_ideas_traverse_plus_query_hydration_helper</title>
<path fill="#d4e8f7" stroke="black" d="M6666.8,-320.5C6666.8,-320.5 6525.2,-320.5 6525.2,-320.5 6521,-320.5 6516.8,-316.3 6516.8,-312.1 6516.8,-312.1 6516.8,-303.7 6516.8,-303.7 6516.8,-299.5 6521,-295.3 6525.2,-295.3 6525.2,-295.3 6666.8,-295.3 6666.8,-295.3 6671,-295.3 6675.2,-299.5 6675.2,-303.7 6675.2,-303.7 6675.2,-312.1 6675.2,-312.1 6675.2,-316.3 6671,-320.5 6666.8,-320.5"/>
<text xml:space="preserve" text-anchor="middle" x="6596" y="-304.8" font-family="Helvetica,sans-Serif" font-size="8.00">traverse&#45;plus&#45;query&#45;hydration&#45;helper &#45; S</text>
</g>
<!-- cool_ideas_WARP_adaptive_projection_selection -->
<g id="node47" class="node">
<title>cool_ideas_WARP_adaptive_projection_selection</title>
<path fill="#d4e8f7" stroke="black" d="M6835.93,-320.5C6835.93,-320.5 6698.07,-320.5 6698.07,-320.5 6693.88,-320.5 6689.68,-316.3 6689.68,-312.1 6689.68,-312.1 6689.68,-303.7 6689.68,-303.7 6689.68,-299.5 6693.88,-295.3 6698.07,-295.3 6698.07,-295.3 6835.93,-295.3 6835.93,-295.3 6840.12,-295.3 6844.32,-299.5 6844.32,-303.7 6844.32,-303.7 6844.32,-312.1 6844.32,-312.1 6844.32,-316.3 6840.12,-320.5 6835.93,-320.5"/>
<text xml:space="preserve" text-anchor="middle" x="6767" y="-304.8" font-family="Helvetica,sans-Serif" font-size="8.00">WARP&#45;adaptive&#45;projection&#45;selection &#45; L</text>
</g>
<!-- cool_ideas_WARP_agent_action_provenance -->
<g id="node48" class="node">
<title>cool_ideas_WARP_agent_action_provenance</title>
<path fill="#d4e8f7" stroke="black" d="M6997.55,-320.5C6997.55,-320.5 6866.45,-320.5 6866.45,-320.5 6862.25,-320.5 6858.05,-316.3 6858.05,-312.1 6858.05,-312.1 6858.05,-303.7 6858.05,-303.7 6858.05,-299.5 6862.25,-295.3 6866.45,-295.3 6866.45,-295.3 6997.55,-295.3 6997.55,-295.3 7001.75,-295.3 7005.95,-299.5 7005.95,-303.7 7005.95,-303.7 7005.95,-312.1 7005.95,-312.1 7005.95,-316.3 7001.75,-320.5 6997.55,-320.5"/>
<text xml:space="preserve" text-anchor="middle" x="6932" y="-304.8" font-family="Helvetica,sans-Serif" font-size="8.00">WARP&#45;agent&#45;action&#45;provenance &#45; XL</text>
</g>
<!-- cool_ideas_WARP_agent_action_provenance&#45;&gt;cool_ideas_CI_001_causal_collapse_visualizer -->
<g id="edge3" class="edge">
<title>cool_ideas_WARP_agent_action_provenance&#45;&gt;cool_ideas_CI_001_causal_collapse_visualizer</title>
<path fill="none" stroke="#666666" d="M6957.81,-294.81C6970.04,-289.01 6984.83,-281.9 6998,-275.3 7013.99,-267.28 7031.7,-258.02 7046,-250.44"/>
<polygon fill="#666666" stroke="#666666" points="7046.57,-252.12 7050.16,-248.23 7044.92,-249.03 7046.57,-252.12"/>
<text xml:space="preserve" text-anchor="middle" x="7044.14" y="-268.65" font-family="Helvetica,sans-Serif" font-size="7.00">blocked_by/blocking</text>
</g>
<!-- cool_ideas_WARP_causal_write_tracking -->
<g id="node53" class="node">
<title>cool_ideas_WARP_causal_write_tracking</title>
<path fill="#d4e8f7" stroke="black" d="M6690.05,-247.05C6690.05,-247.05 6579.95,-247.05 6579.95,-247.05 6575.75,-247.05 6571.55,-242.85 6571.55,-238.65 6571.55,-238.65 6571.55,-230.25 6571.55,-230.25 6571.55,-226.05 6575.75,-221.85 6579.95,-221.85 6579.95,-221.85 6690.05,-221.85 6690.05,-221.85 6694.25,-221.85 6698.45,-226.05 6698.45,-230.25 6698.45,-230.25 6698.45,-238.65 6698.45,-238.65 6698.45,-242.85 6694.25,-247.05 6690.05,-247.05"/>
<text xml:space="preserve" text-anchor="middle" x="6635" y="-231.35" font-family="Helvetica,sans-Serif" font-size="8.00">WARP&#45;causal&#45;write&#45;tracking &#45; L</text>
</g>
<!-- cool_ideas_WARP_agent_action_provenance&#45;&gt;cool_ideas_WARP_causal_write_tracking -->
<g id="edge4" class="edge">
<title>cool_ideas_WARP_agent_action_provenance&#45;&gt;cool_ideas_WARP_causal_write_tracking</title>
<path fill="none" stroke="#666666" d="M6884.13,-294.83C6873.27,-292.23 6861.76,-289.58 6851,-287.3 6821.83,-281.12 6814.1,-281.8 6785,-275.3 6750.63,-267.62 6712.25,-257.4 6682.92,-249.23"/>
<polygon fill="#666666" stroke="#666666" points="6683.55,-247.58 6678.26,-247.92 6682.61,-250.96 6683.55,-247.58"/>
<text xml:space="preserve" text-anchor="middle" x="6816.5" y="-268.65" font-family="Helvetica,sans-Serif" font-size="7.00">blocked_by/blocking</text>
</g>
<!-- cool_ideas_WARP_intent_and_decision_events -->
<g id="node63" class="node">
<title>cool_ideas_WARP_intent_and_decision_events</title>
<path fill="#d4e8f7" stroke="black" d="M6853.3,-247.05C6853.3,-247.05 6720.7,-247.05 6720.7,-247.05 6716.5,-247.05 6712.3,-242.85 6712.3,-238.65 6712.3,-238.65 6712.3,-230.25 6712.3,-230.25 6712.3,-226.05 6716.5,-221.85 6720.7,-221.85 6720.7,-221.85 6853.3,-221.85 6853.3,-221.85 6857.5,-221.85 6861.7,-226.05 6861.7,-230.25 6861.7,-230.25 6861.7,-238.65 6861.7,-238.65 6861.7,-242.85 6857.5,-247.05 6853.3,-247.05"/>
<text xml:space="preserve" text-anchor="middle" x="6787" y="-231.35" font-family="Helvetica,sans-Serif" font-size="8.00">WARP&#45;intent&#45;and&#45;decision&#45;events &#45; M</text>
</g>
<!-- cool_ideas_WARP_agent_action_provenance&#45;&gt;cool_ideas_WARP_intent_and_decision_events -->
<g id="edge5" class="edge">
<title>cool_ideas_WARP_agent_action_provenance&#45;&gt;cool_ideas_WARP_intent_and_decision_events</title>
<path fill="none" stroke="#666666" d="M6906.55,-294.87C6894.27,-289.02 6879.34,-281.86 6866,-275.3 6849.45,-267.16 6831.05,-257.89 6816.17,-250.34"/>
<polygon fill="#666666" stroke="#666666" points="6817.04,-248.83 6811.79,-248.12 6815.46,-251.95 6817.04,-248.83"/>
<text xml:space="preserve" text-anchor="middle" x="6897.5" y="-268.65" font-family="Helvetica,sans-Serif" font-size="7.00">blocked_by/blocking</text>
</g>
<!-- cool_ideas_WARP_provenance_dag -->
<g id="node68" class="node">
<title>cool_ideas_WARP_provenance_dag</title>
<path fill="#d4e8f7" stroke="black" d="M6979.55,-247.05C6979.55,-247.05 6884.45,-247.05 6884.45,-247.05 6880.25,-247.05 6876.05,-242.85 6876.05,-238.65 6876.05,-238.65 6876.05,-230.25 6876.05,-230.25 6876.05,-226.05 6880.25,-221.85 6884.45,-221.85 6884.45,-221.85 6979.55,-221.85 6979.55,-221.85 6983.75,-221.85 6987.95,-226.05 6987.95,-230.25 6987.95,-230.25 6987.95,-238.65 6987.95,-238.65 6987.95,-242.85 6983.75,-247.05 6979.55,-247.05"/>
<text xml:space="preserve" text-anchor="middle" x="6932" y="-231.35" font-family="Helvetica,sans-Serif" font-size="8.00">WARP&#45;provenance&#45;dag &#45; L</text>
</g>
<!-- cool_ideas_WARP_agent_action_provenance&#45;&gt;cool_ideas_WARP_provenance_dag -->
<g id="edge6" class="edge">
<title>cool_ideas_WARP_agent_action_provenance&#45;&gt;cool_ideas_WARP_provenance_dag</title>
<path fill="none" stroke="#666666" d="M6932,-295.1C6932,-283.9 6932,-266.88 6932,-253.88"/>
<polygon fill="#666666" stroke="#666666" points="6933.75,-254.02 6932,-249.02 6930.25,-254.02 6933.75,-254.02"/>
<text xml:space="preserve" text-anchor="middle" x="6963.5" y="-268.65" font-family="Helvetica,sans-Serif" font-size="7.00">blocked_by/blocking</text>
</g>
<!-- cool_ideas_WARP_auto_breaking_change_detection -->
<g id="node49" class="node">
<title>cool_ideas_WARP_auto_breaking_change_detection</title>
<path fill="#d4e8f7" stroke="black" d="M10044.3,-247.05C10044.3,-247.05 9893.7,-247.05 9893.7,-247.05 9889.5,-247.05 9885.3,-242.85 9885.3,-238.65 9885.3,-238.65 9885.3,-230.25 9885.3,-230.25 9885.3,-226.05 9889.5,-221.85 9893.7,-221.85 9893.7,-221.85 10044.3,-221.85 10044.3,-221.85 10048.5,-221.85 10052.7,-226.05 10052.7,-230.25 10052.7,-230.25 10052.7,-238.65 10052.7,-238.65 10052.7,-242.85 10048.5,-247.05 10044.3,-247.05"/>
<text xml:space="preserve" text-anchor="middle" x="9969" y="-231.35" font-family="Helvetica,sans-Serif" font-size="8.00">WARP&#45;auto&#45;breaking&#45;change&#45;detection &#45; L</text>
</g>
<!-- cool_ideas_WARP_budget_elasticity -->
<g id="node51" class="node">
<title>cool_ideas_WARP_budget_elasticity</title>
<path fill="#d4e8f7" stroke="black" d="M7123.93,-320.5C7123.93,-320.5 7028.07,-320.5 7028.07,-320.5 7023.88,-320.5 7019.68,-316.3 7019.68,-312.1 7019.68,-312.1 7019.68,-303.7 7019.68,-303.7 7019.68,-299.5 7023.88,-295.3 7028.07,-295.3 7028.07,-295.3 7123.93,-295.3 7123.93,-295.3 7128.12,-295.3 7132.32,-299.5 7132.32,-303.7 7132.32,-303.7 7132.32,-312.1 7132.32,-312.1 7132.32,-316.3 7128.12,-320.5 7123.93,-320.5"/>
<text xml:space="preserve" text-anchor="middle" x="7076" y="-304.8" font-family="Helvetica,sans-Serif" font-size="8.00">WARP&#45;budget&#45;elasticity &#45; M</text>
</g>
<!-- cool_ideas_WARP_causal_blame_for_staged_artifacts -->
<g id="node52" class="node">
<title>cool_ideas_WARP_causal_blame_for_staged_artifacts</title>
<path fill="#d4e8f7" stroke="black" d="M7083.18,-173.6C7083.18,-173.6 6928.82,-173.6 6928.82,-173.6 6924.62,-173.6 6920.43,-169.4 6920.43,-165.2 6920.43,-165.2 6920.43,-156.8 6920.43,-156.8 6920.43,-152.6 6924.62,-148.4 6928.82,-148.4 6928.82,-148.4 7083.18,-148.4 7083.18,-148.4 7087.38,-148.4 7091.57,-152.6 7091.57,-156.8 7091.57,-156.8 7091.57,-165.2 7091.57,-165.2 7091.57,-169.4 7087.38,-173.6 7083.18,-173.6"/>
<text xml:space="preserve" text-anchor="middle" x="7006" y="-157.9" font-family="Helvetica,sans-Serif" font-size="8.00">WARP&#45;causal&#45;blame&#45;for&#45;staged&#45;artifacts &#45; L</text>
</g>
<!-- cool_ideas_WARP_codebase_entropy_trajectory -->
<g id="node54" class="node">
<title>cool_ideas_WARP_codebase_entropy_trajectory</title>
<path fill="#d4e8f7" stroke="black" d="M7293.68,-320.5C7293.68,-320.5 7154.32,-320.5 7154.32,-320.5 7150.12,-320.5 7145.93,-316.3 7145.93,-312.1 7145.93,-312.1 7145.93,-303.7 7145.93,-303.7 7145.93,-299.5 7150.12,-295.3 7154.32,-295.3 7154.32,-295.3 7293.68,-295.3 7293.68,-295.3 7297.88,-295.3 7302.07,-299.5 7302.07,-303.7 7302.07,-303.7 7302.07,-312.1 7302.07,-312.1 7302.07,-316.3 7297.88,-320.5 7293.68,-320.5"/>
<text xml:space="preserve" text-anchor="middle" x="7224" y="-304.8" font-family="Helvetica,sans-Serif" font-size="8.00">WARP&#45;codebase&#45;entropy&#45;trajectory &#45; M</text>
</g>
<!-- cool_ideas_WARP_counterfactual_refactoring -->
<g id="node56" class="node">
<title>cool_ideas_WARP_counterfactual_refactoring</title>
<path fill="#d4e8f7" stroke="black" d="M7301.68,-247.05C7301.68,-247.05 7168.32,-247.05 7168.32,-247.05 7164.12,-247.05 7159.93,-242.85 7159.93,-238.65 7159.93,-238.65 7159.93,-230.25 7159.93,-230.25 7159.93,-226.05 7164.12,-221.85 7168.32,-221.85 7168.32,-221.85 7301.68,-221.85 7301.68,-221.85 7305.88,-221.85 7310.07,-226.05 7310.07,-230.25 7310.07,-230.25 7310.07,-238.65 7310.07,-238.65 7310.07,-242.85 7305.88,-247.05 7301.68,-247.05"/>
<text xml:space="preserve" text-anchor="middle" x="7235" y="-231.35" font-family="Helvetica,sans-Serif" font-size="8.00">WARP&#45;counterfactual&#45;refactoring &#45; XL</text>
</g>
<!-- cool_ideas_WARP_codebase_entropy_trajectory&#45;&gt;cool_ideas_WARP_counterfactual_refactoring -->
<g id="edge7" class="edge">
<title>cool_ideas_WARP_codebase_entropy_trajectory&#45;&gt;cool_ideas_WARP_counterfactual_refactoring</title>
<path fill="none" stroke="#666666" d="M7225.82,-295.1C7227.54,-283.9 7230.16,-266.88 7232.16,-253.88"/>
<polygon fill="#666666" stroke="#666666" points="7233.88,-254.21 7232.91,-249 7230.42,-253.68 7233.88,-254.21"/>
<text xml:space="preserve" text-anchor="middle" x="7261.33" y="-268.65" font-family="Helvetica,sans-Serif" font-size="7.00">blocked_by/blocking</text>
</g>
<!-- cool_ideas_WARP_codebase_signature -->
<g id="node55" class="node">
<title>cool_ideas_WARP_codebase_signature</title>
<path fill="#d4e8f7" stroke="black" d="M7431.55,-320.5C7431.55,-320.5 7324.45,-320.5 7324.45,-320.5 7320.25,-320.5 7316.05,-316.3 7316.05,-312.1 7316.05,-312.1 7316.05,-303.7 7316.05,-303.7 7316.05,-299.5 7320.25,-295.3 7324.45,-295.3 7324.45,-295.3 7431.55,-295.3 7431.55,-295.3 7435.75,-295.3 7439.95,-299.5 7439.95,-303.7 7439.95,-303.7 7439.95,-312.1 7439.95,-312.1 7439.95,-316.3 7435.75,-320.5 7431.55,-320.5"/>
<text xml:space="preserve" text-anchor="middle" x="7378" y="-304.8" font-family="Helvetica,sans-Serif" font-size="8.00">WARP&#45;codebase&#45;signature &#45; L</text>
</g>
<!-- cool_ideas_WARP_structural_impact_prediction -->
<g id="node78" class="node">
<title>cool_ideas_WARP_structural_impact_prediction</title>
<path fill="#d4e8f7" stroke="black" d="M7304.3,-173.6C7304.3,-173.6 7165.7,-173.6 7165.7,-173.6 7161.5,-173.6 7157.3,-169.4 7157.3,-165.2 7157.3,-165.2 7157.3,-156.8 7157.3,-156.8 7157.3,-152.6 7161.5,-148.4 7165.7,-148.4 7165.7,-148.4 7304.3,-148.4 7304.3,-148.4 7308.5,-148.4 7312.7,-152.6 7312.7,-156.8 7312.7,-156.8 7312.7,-165.2 7312.7,-165.2 7312.7,-169.4 7308.5,-173.6 7304.3,-173.6"/>
<text xml:space="preserve" text-anchor="middle" x="7235" y="-157.9" font-family="Helvetica,sans-Serif" font-size="8.00">WARP&#45;structural&#45;impact&#45;prediction &#45; XL</text>
</g>
<!-- cool_ideas_WARP_counterfactual_refactoring&#45;&gt;cool_ideas_WARP_structural_impact_prediction -->
<g id="edge8" class="edge">
<title>cool_ideas_WARP_counterfactual_refactoring&#45;&gt;cool_ideas_WARP_structural_impact_prediction</title>
<path fill="none" stroke="#666666" d="M7235,-221.65C7235,-210.45 7235,-193.43 7235,-180.43"/>
<polygon fill="#666666" stroke="#666666" points="7236.75,-180.57 7235,-175.57 7233.25,-180.57 7236.75,-180.57"/>
<text xml:space="preserve" text-anchor="middle" x="7266.5" y="-195.2" font-family="Helvetica,sans-Serif" font-size="7.00">blocked_by/blocking</text>
</g>
<!-- cool_ideas_WARP_dead_symbol_detection -->
<g id="node57" class="node">
<title>cool_ideas_WARP_dead_symbol_detection</title>
<path fill="#d4e8f7" stroke="black" d="M7581.18,-320.5C7581.18,-320.5 7462.82,-320.5 7462.82,-320.5 7458.62,-320.5 7454.43,-316.3 7454.43,-312.1 7454.43,-312.1 7454.43,-303.7 7454.43,-303.7 7454.43,-299.5 7458.62,-295.3 7462.82,-295.3 7462.82,-295.3 7581.18,-295.3 7581.18,-295.3 7585.38,-295.3 7589.57,-299.5 7589.57,-303.7 7589.57,-303.7 7589.57,-312.1 7589.57,-312.1 7589.57,-316.3 7585.38,-320.5 7581.18,-320.5"/>
<text xml:space="preserve" text-anchor="middle" x="7522" y="-304.8" font-family="Helvetica,sans-Serif" font-size="8.00">WARP&#45;dead&#45;symbol&#45;detection &#45; S</text>
</g>
<!-- cool_ideas_WARP_degeneracy_warning -->
<g id="node58" class="node">
<title>cool_ideas_WARP_degeneracy_warning</title>
<path fill="#d4e8f7" stroke="black" d="M7724.18,-320.5C7724.18,-320.5 7611.82,-320.5 7611.82,-320.5 7607.62,-320.5 7603.43,-316.3 7603.43,-312.1 7603.43,-312.1 7603.43,-303.7 7603.43,-303.7 7603.43,-299.5 7607.62,-295.3 7611.82,-295.3 7611.82,-295.3 7724.18,-295.3 7724.18,-295.3 7728.38,-295.3 7732.57,-299.5 7732.57,-303.7 7732.57,-303.7 7732.57,-312.1 7732.57,-312.1 7732.57,-316.3 7728.38,-320.5 7724.18,-320.5"/>
<text xml:space="preserve" text-anchor="middle" x="7668" y="-304.8" font-family="Helvetica,sans-Serif" font-size="8.00">WARP&#45;degeneracy&#45;warning &#45; M</text>
</g>
<!-- cool_ideas_WARP_drift_sentinel -->
<g id="node59" class="node">
<title>cool_ideas_WARP_drift_sentinel</title>
<path fill="#d4e8f7" stroke="black" d="M9637.18,-247.05C9637.18,-247.05 9554.82,-247.05 9554.82,-247.05 9550.62,-247.05 9546.42,-242.85 9546.42,-238.65 9546.42,-238.65 9546.42,-230.25 9546.42,-230.25 9546.42,-226.05 9550.62,-221.85 9554.82,-221.85 9554.82,-221.85 9637.18,-221.85 9637.18,-221.85 9641.38,-221.85 9645.58,-226.05 9645.58,-230.25 9645.58,-230.25 9645.58,-238.65 9645.58,-238.65 9645.58,-242.85 9641.38,-247.05 9637.18,-247.05"/>
<text xml:space="preserve" text-anchor="middle" x="9596" y="-231.35" font-family="Helvetica,sans-Serif" font-size="8.00">WARP&#45;drift&#45;sentinel &#45; M</text>
</g>
<!-- cool_ideas_WARP_footprint_parallelism -->
<g id="node60" class="node">
<title>cool_ideas_WARP_footprint_parallelism</title>
<path fill="#d4e8f7" stroke="black" d="M7866.8,-320.5C7866.8,-320.5 7755.2,-320.5 7755.2,-320.5 7751,-320.5 7746.8,-316.3 7746.8,-312.1 7746.8,-312.1 7746.8,-303.7 7746.8,-303.7 7746.8,-299.5 7751,-295.3 7755.2,-295.3 7755.2,-295.3 7866.8,-295.3 7866.8,-295.3 7871,-295.3 7875.2,-299.5 7875.2,-303.7 7875.2,-303.7 7875.2,-312.1 7875.2,-312.1 7875.2,-316.3 7871,-320.5 7866.8,-320.5"/>
<text xml:space="preserve" text-anchor="middle" x="7811" y="-304.8" font-family="Helvetica,sans-Serif" font-size="8.00">WARP&#45;footprint&#45;parallelism &#45; XL</text>
</g>
<!-- cool_ideas_WARP_graft_pack -->
<g id="node61" class="node">
<title>cool_ideas_WARP_graft_pack</title>
<path fill="#d4e8f7" stroke="black" d="M7972.43,-320.5C7972.43,-320.5 7897.57,-320.5 7897.57,-320.5 7893.38,-320.5 7889.18,-316.3 7889.18,-312.1 7889.18,-312.1 7889.18,-303.7 7889.18,-303.7 7889.18,-299.5 7893.38,-295.3 7897.57,-295.3 7897.57,-295.3 7972.43,-295.3 7972.43,-295.3 7976.62,-295.3 7980.82,-299.5 7980.82,-303.7 7980.82,-303.7 7980.82,-312.1 7980.82,-312.1 7980.82,-316.3 7976.62,-320.5 7972.43,-320.5"/>
<text xml:space="preserve" text-anchor="middle" x="7935" y="-304.8" font-family="Helvetica,sans-Serif" font-size="8.00">WARP&#45;graft&#45;pack &#45; M</text>
</g>
<!-- cool_ideas_WARP_grouped_aggregate_queries -->
<g id="node62" class="node">
<title>cool_ideas_WARP_grouped_aggregate_queries</title>
<path fill="#d4e8f7" stroke="black" d="M8140.93,-320.5C8140.93,-320.5 8003.07,-320.5 8003.07,-320.5 7998.88,-320.5 7994.68,-316.3 7994.68,-312.1 7994.68,-312.1 7994.68,-303.7 7994.68,-303.7 7994.68,-299.5 7998.88,-295.3 8003.07,-295.3 8003.07,-295.3 8140.93,-295.3 8140.93,-295.3 8145.12,-295.3 8149.32,-299.5 8149.32,-303.7 8149.32,-303.7 8149.32,-312.1 8149.32,-312.1 8149.32,-316.3 8145.12,-320.5 8140.93,-320.5"/>
<text xml:space="preserve" text-anchor="middle" x="8072" y="-304.8" font-family="Helvetica,sans-Serif" font-size="8.00">WARP&#45;grouped&#45;aggregate&#45;queries &#45; M</text>
</g>
<!-- cool_ideas_WARP_intentional_degeneracy_privacy -->
<g id="node64" class="node">
<title>cool_ideas_WARP_intentional_degeneracy_privacy</title>
<path fill="#d4e8f7" stroke="black" d="M8319.8,-320.5C8319.8,-320.5 8172.2,-320.5 8172.2,-320.5 8168,-320.5 8163.8,-316.3 8163.8,-312.1 8163.8,-312.1 8163.8,-303.7 8163.8,-303.7 8163.8,-299.5 8168,-295.3 8172.2,-295.3 8172.2,-295.3 8319.8,-295.3 8319.8,-295.3 8324,-295.3 8328.2,-299.5 8328.2,-303.7 8328.2,-303.7 8328.2,-312.1 8328.2,-312.1 8328.2,-316.3 8324,-320.5 8319.8,-320.5"/>
<text xml:space="preserve" text-anchor="middle" x="8246" y="-304.8" font-family="Helvetica,sans-Serif" font-size="8.00">WARP&#45;intentional&#45;degeneracy&#45;privacy &#45; M</text>
</g>
<!-- cool_ideas_WARP_minimum_viable_context -->
<g id="node65" class="node">
<title>cool_ideas_WARP_minimum_viable_context</title>
<path fill="#d4e8f7" stroke="black" d="M8473.43,-320.5C8473.43,-320.5 8350.57,-320.5 8350.57,-320.5 8346.38,-320.5 8342.17,-316.3 8342.17,-312.1 8342.17,-312.1 8342.17,-303.7 8342.17,-303.7 8342.17,-299.5 8346.38,-295.3 8350.57,-295.3 8350.57,-295.3 8473.43,-295.3 8473.43,-295.3 8477.62,-295.3 8481.83,-299.5 8481.83,-303.7 8481.83,-303.7 8481.83,-312.1 8481.83,-312.1 8481.83,-316.3 8477.62,-320.5 8473.43,-320.5"/>
<text xml:space="preserve" text-anchor="middle" x="8412" y="-304.8" font-family="Helvetica,sans-Serif" font-size="8.00">WARP&#45;minimum&#45;viable&#45;context &#45; M</text>
</g>
<!-- cool_ideas_WARP_outline_diff_commit_trailer -->
<g id="node66" class="node">
<title>cool_ideas_WARP_outline_diff_commit_trailer</title>
<path fill="#d4e8f7" stroke="black" d="M8629.93,-320.5C8629.93,-320.5 8504.07,-320.5 8504.07,-320.5 8499.88,-320.5 8495.67,-316.3 8495.67,-312.1 8495.67,-312.1 8495.67,-303.7 8495.67,-303.7 8495.67,-299.5 8499.88,-295.3 8504.07,-295.3 8504.07,-295.3 8629.93,-295.3 8629.93,-295.3 8634.12,-295.3 8638.33,-299.5 8638.33,-303.7 8638.33,-303.7 8638.33,-312.1 8638.33,-312.1 8638.33,-316.3 8634.12,-320.5 8629.93,-320.5"/>
<text xml:space="preserve" text-anchor="middle" x="8567" y="-304.8" font-family="Helvetica,sans-Serif" font-size="8.00">WARP&#45;outline&#45;diff&#45;commit&#45;trailer &#45; S</text>
</g>
<!-- cool_ideas_WARP_projection_safety_classes -->
<g id="node67" class="node">
<title>cool_ideas_WARP_projection_safety_classes</title>
<path fill="#d4e8f7" stroke="black" d="M8786.93,-320.5C8786.93,-320.5 8661.07,-320.5 8661.07,-320.5 8656.88,-320.5 8652.67,-316.3 8652.67,-312.1 8652.67,-312.1 8652.67,-303.7 8652.67,-303.7 8652.67,-299.5 8656.88,-295.3 8661.07,-295.3 8661.07,-295.3 8786.93,-295.3 8786.93,-295.3 8791.12,-295.3 8795.33,-299.5 8795.33,-303.7 8795.33,-303.7 8795.33,-312.1 8795.33,-312.1 8795.33,-316.3 8791.12,-320.5 8786.93,-320.5"/>
<text xml:space="preserve" text-anchor="middle" x="8724" y="-304.8" font-family="Helvetica,sans-Serif" font-size="8.00">WARP&#45;projection&#45;safety&#45;classes &#45; M</text>
</g>
<!-- cool_ideas_WARP_provenance_dag&#45;&gt;cool_ideas_WARP_causal_blame_for_staged_artifacts -->
<g id="edge9" class="edge">
<title>cool_ideas_WARP_provenance_dag&#45;&gt;cool_ideas_WARP_causal_blame_for_staged_artifacts</title>
<path fill="none" stroke="#666666" d="M6944.22,-221.65C6956.46,-209.83 6975.41,-191.54 6989.09,-178.32"/>
<polygon fill="#666666" stroke="#666666" points="6990.04,-179.84 6992.43,-175.11 6987.61,-177.32 6990.04,-179.84"/>
<text xml:space="preserve" text-anchor="middle" x="7002.72" y="-195.2" font-family="Helvetica,sans-Serif" font-size="7.00">blocked_by/blocking</text>
</g>
<!-- cool_ideas_WARP_reasoning_trace_replay -->
<g id="node69" class="node">
<title>cool_ideas_WARP_reasoning_trace_replay</title>
<path fill="#d4e8f7" stroke="black" d="M6897.93,-173.6C6897.93,-173.6 6778.07,-173.6 6778.07,-173.6 6773.88,-173.6 6769.68,-169.4 6769.68,-165.2 6769.68,-165.2 6769.68,-156.8 6769.68,-156.8 6769.68,-152.6 6773.88,-148.4 6778.07,-148.4 6778.07,-148.4 6897.93,-148.4 6897.93,-148.4 6902.12,-148.4 6906.32,-152.6 6906.32,-156.8 6906.32,-156.8 6906.32,-165.2 6906.32,-165.2 6906.32,-169.4 6902.12,-173.6 6897.93,-173.6"/>
<text xml:space="preserve" text-anchor="middle" x="6838" y="-157.9" font-family="Helvetica,sans-Serif" font-size="8.00">WARP&#45;reasoning&#45;trace&#45;replay &#45; M</text>
</g>
<!-- cool_ideas_WARP_provenance_dag&#45;&gt;cool_ideas_WARP_reasoning_trace_replay -->
<g id="edge10" class="edge">
<title>cool_ideas_WARP_provenance_dag&#45;&gt;cool_ideas_WARP_reasoning_trace_replay</title>
<path fill="none" stroke="#666666" d="M6916.48,-221.65C6900.79,-209.73 6876.44,-191.22 6859.02,-177.98"/>
<polygon fill="#666666" stroke="#666666" points="6860.1,-176.6 6855.06,-174.97 6857.99,-179.39 6860.1,-176.6"/>
<text xml:space="preserve" text-anchor="middle" x="6919.32" y="-195.2" font-family="Helvetica,sans-Serif" font-size="7.00">blocked_by/blocking</text>
</g>
<!-- cool_ideas_WARP_rulial_heat_map -->
<g id="node70" class="node">
<title>cool_ideas_WARP_rulial_heat_map</title>
<path fill="#d4e8f7" stroke="black" d="M8908.3,-320.5C8908.3,-320.5 8817.7,-320.5 8817.7,-320.5 8813.5,-320.5 8809.3,-316.3 8809.3,-312.1 8809.3,-312.1 8809.3,-303.7 8809.3,-303.7 8809.3,-299.5 8813.5,-295.3 8817.7,-295.3 8817.7,-295.3 8908.3,-295.3 8908.3,-295.3 8912.5,-295.3 8916.7,-299.5 8916.7,-303.7 8916.7,-303.7 8916.7,-312.1 8916.7,-312.1 8916.7,-316.3 8912.5,-320.5 8908.3,-320.5"/>
<text xml:space="preserve" text-anchor="middle" x="8863" y="-304.8" font-family="Helvetica,sans-Serif" font-size="8.00">WARP&#45;rulial&#45;heat&#45;map &#45; L</text>
</g>
<!-- cool_ideas_WARP_semantic_drift_in_sessions -->
<g id="node71" class="node">
<title>cool_ideas_WARP_semantic_drift_in_sessions</title>
<path fill="#d4e8f7" stroke="black" d="M9068.43,-320.5C9068.43,-320.5 8939.57,-320.5 8939.57,-320.5 8935.38,-320.5 8931.17,-316.3 8931.17,-312.1 8931.17,-312.1 8931.17,-303.7 8931.17,-303.7 8931.17,-299.5 8935.38,-295.3 8939.57,-295.3 8939.57,-295.3 9068.43,-295.3 9068.43,-295.3 9072.62,-295.3 9076.83,-299.5 9076.83,-303.7 9076.83,-303.7 9076.83,-312.1 9076.83,-312.1 9076.83,-316.3 9072.62,-320.5 9068.43,-320.5"/>
<text xml:space="preserve" text-anchor="middle" x="9004" y="-304.8" font-family="Helvetica,sans-Serif" font-size="8.00">WARP&#45;semantic&#45;drift&#45;in&#45;sessions &#45; M</text>
</g>
<!-- cool_ideas_WARP_semantic_merge_conflict_prediction -->
<g id="node72" class="node">
<title>cool_ideas_WARP_semantic_merge_conflict_prediction</title>
<path fill="#d4e8f7" stroke="black" d="M10234.43,-247.05C10234.43,-247.05 10075.57,-247.05 10075.57,-247.05 10071.38,-247.05 10067.17,-242.85 10067.17,-238.65 10067.17,-238.65 10067.17,-230.25 10067.17,-230.25 10067.17,-226.05 10071.38,-221.85 10075.57,-221.85 10075.57,-221.85 10234.43,-221.85 10234.43,-221.85 10238.62,-221.85 10242.83,-226.05 10242.83,-230.25 10242.83,-230.25 10242.83,-238.65 10242.83,-238.65 10242.83,-242.85 10238.62,-247.05 10234.43,-247.05"/>
<text xml:space="preserve" text-anchor="middle" x="10155" y="-231.35" font-family="Helvetica,sans-Serif" font-size="8.00">WARP&#45;semantic&#45;merge&#45;conflict&#45;prediction &#45; L</text>
</g>
<!-- cool_ideas_WARP_session_filtration -->
<g id="node73" class="node">
<title>cool_ideas_WARP_session_filtration</title>
<path fill="#d4e8f7" stroke="black" d="M9192.8,-320.5C9192.8,-320.5 9099.2,-320.5 9099.2,-320.5 9095,-320.5 9090.8,-316.3 9090.8,-312.1 9090.8,-312.1 9090.8,-303.7 9090.8,-303.7 9090.8,-299.5 9095,-295.3 9099.2,-295.3 9099.2,-295.3 9192.8,-295.3 9192.8,-295.3 9197,-295.3 9201.2,-299.5 9201.2,-303.7 9201.2,-303.7 9201.2,-312.1 9201.2,-312.1 9201.2,-316.3 9197,-320.5 9192.8,-320.5"/>
<text xml:space="preserve" text-anchor="middle" x="9146" y="-304.8" font-family="Helvetica,sans-Serif" font-size="8.00">WARP&#45;session&#45;filtration &#45; L</text>
</g>
<!-- cool_ideas_WARP_shadow_structural_workspaces -->
<g id="node74" class="node">
<title>cool_ideas_WARP_shadow_structural_workspaces</title>
<path fill="#d4e8f7" stroke="black" d="M9374.3,-320.5C9374.3,-320.5 9223.7,-320.5 9223.7,-320.5 9219.5,-320.5 9215.3,-316.3 9215.3,-312.1 9215.3,-312.1 9215.3,-303.7 9215.3,-303.7 9215.3,-299.5 9219.5,-295.3 9223.7,-295.3 9223.7,-295.3 9374.3,-295.3 9374.3,-295.3 9378.5,-295.3 9382.7,-299.5 9382.7,-303.7 9382.7,-303.7 9382.7,-312.1 9382.7,-312.1 9382.7,-316.3 9378.5,-320.5 9374.3,-320.5"/>
<text xml:space="preserve" text-anchor="middle" x="9299" y="-304.8" font-family="Helvetica,sans-Serif" font-size="8.00">WARP&#45;shadow&#45;structural&#45;workspaces &#45; XL</text>
</g>
<!-- cool_ideas_WARP_speculative_merge -->
<g id="node75" class="node">
<title>cool_ideas_WARP_speculative_merge</title>
<path fill="#d4e8f7" stroke="black" d="M9512.55,-320.5C9512.55,-320.5 9405.45,-320.5 9405.45,-320.5 9401.25,-320.5 9397.05,-316.3 9397.05,-312.1 9397.05,-312.1 9397.05,-303.7 9397.05,-303.7 9397.05,-299.5 9401.25,-295.3 9405.45,-295.3 9405.45,-295.3 9512.55,-295.3 9512.55,-295.3 9516.75,-295.3 9520.95,-299.5 9520.95,-303.7 9520.95,-303.7 9520.95,-312.1 9520.95,-312.1 9520.95,-316.3 9516.75,-320.5 9512.55,-320.5"/>
<text xml:space="preserve" text-anchor="middle" x="9459" y="-304.8" font-family="Helvetica,sans-Serif" font-size="8.00">WARP&#45;speculative&#45;merge &#45; XL</text>
</g>
<!-- cool_ideas_WARP_stale_docs_checker -->
<g id="node76" class="node">
<title>cool_ideas_WARP_stale_docs_checker</title>
<path fill="#d4e8f7" stroke="black" d="M9648.8,-320.5C9648.8,-320.5 9543.2,-320.5 9543.2,-320.5 9539,-320.5 9534.8,-316.3 9534.8,-312.1 9534.8,-312.1 9534.8,-303.7 9534.8,-303.7 9534.8,-299.5 9539,-295.3 9543.2,-295.3 9543.2,-295.3 9648.8,-295.3 9648.8,-295.3 9653,-295.3 9657.2,-299.5 9657.2,-303.7 9657.2,-303.7 9657.2,-312.1 9657.2,-312.1 9657.2,-316.3 9653,-320.5 9648.8,-320.5"/>
<text xml:space="preserve" text-anchor="middle" x="9596" y="-304.8" font-family="Helvetica,sans-Serif" font-size="8.00">WARP&#45;stale&#45;docs&#45;checker &#45; M</text>
</g>
<!-- cool_ideas_WARP_stale_docs_checker&#45;&gt;cool_ideas_WARP_drift_sentinel -->
<g id="edge11" class="edge">
<title>cool_ideas_WARP_stale_docs_checker&#45;&gt;cool_ideas_WARP_drift_sentinel</title>
<path fill="none" stroke="#666666" d="M9596,-295.1C9596,-283.9 9596,-266.88 9596,-253.88"/>
<polygon fill="#666666" stroke="#666666" points="9597.75,-254.02 9596,-249.02 9594.25,-254.02 9597.75,-254.02"/>
<text xml:space="preserve" text-anchor="middle" x="9627.5" y="-268.65" font-family="Helvetica,sans-Serif" font-size="7.00">blocked_by/blocking</text>
</g>
<!-- cool_ideas_WARP_structural_drift_detection -->
<g id="node77" class="node">
<title>cool_ideas_WARP_structural_drift_detection</title>
<path fill="#d4e8f7" stroke="black" d="M9802.8,-320.5C9802.8,-320.5 9679.2,-320.5 9679.2,-320.5 9675,-320.5 9670.8,-316.3 9670.8,-312.1 9670.8,-312.1 9670.8,-303.7 9670.8,-303.7 9670.8,-299.5 9675,-295.3 9679.2,-295.3 9679.2,-295.3 9802.8,-295.3 9802.8,-295.3 9807,-295.3 9811.2,-299.5 9811.2,-303.7 9811.2,-303.7 9811.2,-312.1 9811.2,-312.1 9811.2,-316.3 9807,-320.5 9802.8,-320.5"/>
<text xml:space="preserve" text-anchor="middle" x="9741" y="-304.8" font-family="Helvetica,sans-Serif" font-size="8.00">WARP&#45;structural&#45;drift&#45;detection &#45; M</text>
</g>
<!-- cool_ideas_WARP_symbol_heatmap -->
<g id="node79" class="node">
<title>cool_ideas_WARP_symbol_heatmap</title>
<path fill="#d4e8f7" stroke="black" d="M9932.05,-320.5C9932.05,-320.5 9833.95,-320.5 9833.95,-320.5 9829.75,-320.5 9825.55,-316.3 9825.55,-312.1 9825.55,-312.1 9825.55,-303.7 9825.55,-303.7 9825.55,-299.5 9829.75,-295.3 9833.95,-295.3 9833.95,-295.3 9932.05,-295.3 9932.05,-295.3 9936.25,-295.3 9940.45,-299.5 9940.45,-303.7 9940.45,-303.7 9940.45,-312.1 9940.45,-312.1 9940.45,-316.3 9936.25,-320.5 9932.05,-320.5"/>
<text xml:space="preserve" text-anchor="middle" x="9883" y="-304.8" font-family="Helvetica,sans-Serif" font-size="8.00">WARP&#45;symbol&#45;heatmap &#45; M</text>
</g>
<!-- cool_ideas_WARP_symbol_history_timeline -->
<g id="node80" class="node">
<title>cool_ideas_WARP_symbol_history_timeline</title>
<path fill="#d4e8f7" stroke="black" d="M10081.18,-320.5C10081.18,-320.5 9962.82,-320.5 9962.82,-320.5 9958.62,-320.5 9954.42,-316.3 9954.42,-312.1 9954.42,-312.1 9954.42,-303.7 9954.42,-303.7 9954.42,-299.5 9958.62,-295.3 9962.82,-295.3 9962.82,-295.3 10081.18,-295.3 10081.18,-295.3 10085.38,-295.3 10089.58,-299.5 10089.58,-303.7 10089.58,-303.7 10089.58,-312.1 10089.58,-312.1 10089.58,-316.3 10085.38,-320.5 10081.18,-320.5"/>
<text xml:space="preserve" text-anchor="middle" x="10022" y="-304.8" font-family="Helvetica,sans-Serif" font-size="8.00">WARP&#45;symbol&#45;history&#45;timeline &#45; S</text>
</g>
<!-- cool_ideas_WARP_temporal_structural_search -->
<g id="node82" class="node">
<title>cool_ideas_WARP_temporal_structural_search</title>
<path fill="#d4e8f7" stroke="black" d="M9862.68,-247.05C9862.68,-247.05 9729.32,-247.05 9729.32,-247.05 9725.12,-247.05 9720.92,-242.85 9720.92,-238.65 9720.92,-238.65 9720.92,-230.25 9720.92,-230.25 9720.92,-226.05 9725.12,-221.85 9729.32,-221.85 9729.32,-221.85 9862.68,-221.85 9862.68,-221.85 9866.88,-221.85 9871.08,-226.05 9871.08,-230.25 9871.08,-230.25 9871.08,-238.65 9871.08,-238.65 9871.08,-242.85 9866.88,-247.05 9862.68,-247.05"/>
<text xml:space="preserve" text-anchor="middle" x="9796" y="-231.35" font-family="Helvetica,sans-Serif" font-size="8.00">WARP&#45;temporal&#45;structural&#45;search &#45; M</text>
</g>
<!-- cool_ideas_WARP_symbol_history_timeline&#45;&gt;cool_ideas_WARP_temporal_structural_search -->
<g id="edge12" class="edge">
<title>cool_ideas_WARP_symbol_history_timeline&#45;&gt;cool_ideas_WARP_temporal_structural_search</title>
<path fill="none" stroke="#666666" d="M9983.92,-294.86C9944.23,-282.31 9882.1,-262.67 9840.26,-249.44"/>
<polygon fill="#666666" stroke="#666666" points="9840.98,-247.83 9835.68,-248 9839.92,-251.17 9840.98,-247.83"/>
<text xml:space="preserve" text-anchor="middle" x="9947.28" y="-268.65" font-family="Helvetica,sans-Serif" font-size="7.00">blocked_by/blocking</text>
</g>
<!-- cool_ideas_WARP_technical_debt_curvature -->
<g id="node81" class="node">
<title>cool_ideas_WARP_technical_debt_curvature</title>
<path fill="#d4e8f7" stroke="black" d="M10234.43,-320.5C10234.43,-320.5 10111.57,-320.5 10111.57,-320.5 10107.38,-320.5 10103.17,-316.3 10103.17,-312.1 10103.17,-312.1 10103.17,-303.7 10103.17,-303.7 10103.17,-299.5 10107.38,-295.3 10111.57,-295.3 10111.57,-295.3 10234.43,-295.3 10234.43,-295.3 10238.62,-295.3 10242.83,-299.5 10242.83,-303.7 10242.83,-303.7 10242.83,-312.1 10242.83,-312.1 10242.83,-316.3 10238.62,-320.5 10234.43,-320.5"/>
<text xml:space="preserve" text-anchor="middle" x="10173" y="-304.8" font-family="Helvetica,sans-Serif" font-size="8.00">WARP&#45;technical&#45;debt&#45;curvature &#45; L</text>
</g>
<!-- external_git_warp_observer_geometry_ladder__Rung_2_4_ -->
<g id="node83" class="node">
<title>external_git_warp_observer_geometry_ladder__Rung_2_4_</title>
<path fill="#e8f2ff" stroke="black" d="M1081.67,-320.5C1081.67,-320.5 918.32,-320.5 918.32,-320.5 914.12,-320.5 909.92,-316.3 909.92,-312.1 909.92,-312.1 909.92,-303.7 909.92,-303.7 909.92,-299.5 914.12,-295.3 918.32,-295.3 918.32,-295.3 1081.67,-295.3 1081.67,-295.3 1085.88,-295.3 1090.08,-299.5 1090.08,-303.7 1090.08,-303.7 1090.08,-312.1 1090.08,-312.1 1090.08,-316.3 1085.88,-320.5 1081.67,-320.5"/>
<text xml:space="preserve" text-anchor="middle" x="1000" y="-304.8" font-family="Helvetica,sans-Serif" font-size="8.00">git&#45;warp observer geometry ladder (Rung 2&#45;4)</text>
</g>
<!-- external_git_warp_observer_geometry_ladder__Rung_2_4_&#45;&gt;v0_7_0_CORE_migrate_to_slice_first_reads -->
<g id="edge13" class="edge">
<title>external_git_warp_observer_geometry_ladder__Rung_2_4_&#45;&gt;v0_7_0_CORE_migrate_to_slice_first_reads</title>
<path fill="none" stroke="#4477aa" stroke-dasharray="5,2" d="M969.7,-294.94C938.5,-282.62 889.82,-263.41 856.28,-250.16"/>
<polygon fill="#4477aa" stroke="#4477aa" points="857.31,-248.69 852.02,-248.48 856.03,-251.95 857.31,-248.69"/>
<text xml:space="preserve" text-anchor="middle" x="946.8" y="-268.65" font-family="Helvetica,sans-Serif" font-size="7.00">blocked_by_external</text>
</g>
<!-- unresolved_CLEAN_CODE_export_diff_semver_signature_as_patch -->
<g id="node84" class="node">
<title>unresolved_CLEAN_CODE_export_diff_semver_signature_as_patch</title>
<path fill="#f2f2f2" stroke="black" stroke-dasharray="5,2" d="M10498.3,-320.5C10498.3,-320.5 10275.7,-320.5 10275.7,-320.5 10271.5,-320.5 10267.3,-316.3 10267.3,-312.1 10267.3,-312.1 10267.3,-303.7 10267.3,-303.7 10267.3,-299.5 10271.5,-295.3 10275.7,-295.3 10275.7,-295.3 10498.3,-295.3 10498.3,-295.3 10502.5,-295.3 10506.7,-299.5 10506.7,-303.7 10506.7,-303.7 10506.7,-312.1 10506.7,-312.1 10506.7,-316.3 10502.5,-320.5 10498.3,-320.5"/>
<text xml:space="preserve" text-anchor="middle" x="10387" y="-304.8" font-family="Helvetica,sans-Serif" font-size="8.00">missing: CLEAN_CODE_export&#45;diff&#45;semver&#45;signature&#45;as&#45;patch</text>
</g>
<!-- unresolved_CLEAN_CODE_export_diff_semver_signature_as_patch&#45;&gt;cool_ideas_WARP_auto_breaking_change_detection -->
<g id="edge14" class="edge">
<title>unresolved_CLEAN_CODE_export_diff_semver_signature_as_patch&#45;&gt;cool_ideas_WARP_auto_breaking_change_detection</title>
<path fill="none" stroke="#cc3333" stroke-dasharray="5,2" d="M10316.56,-294.86C10241.51,-282.03 10123.05,-261.78 10045.69,-248.56"/>
<polygon fill="#cc3333" stroke="#cc3333" points="10046.44,-246.91 10041.22,-247.79 10045.85,-250.36 10046.44,-246.91"/>
<text xml:space="preserve" text-anchor="middle" x="10208.16" y="-268.65" font-family="Helvetica,sans-Serif" font-size="7.00">blocked_by</text>
</g>
<!-- unresolved_CLEAN_CODE_export_diff_semver_signature_as_patch&#45;&gt;cool_ideas_WARP_semantic_merge_conflict_prediction -->
<g id="edge15" class="edge">
<title>unresolved_CLEAN_CODE_export_diff_semver_signature_as_patch&#45;&gt;cool_ideas_WARP_semantic_merge_conflict_prediction</title>
<path fill="none" stroke="#cc3333" stroke-dasharray="5,2" d="M10347.91,-294.86C10307.17,-282.31 10243.39,-262.67 10200.43,-249.44"/>
<polygon fill="#cc3333" stroke="#cc3333" points="10200.99,-247.78 10195.7,-247.98 10199.96,-251.13 10200.99,-247.78"/>
<text xml:space="preserve" text-anchor="middle" x="10295.58" y="-268.65" font-family="Helvetica,sans-Serif" font-size="7.00">blocked_by</text>
</g>
<!-- leg_v07 -->
<g id="node85" class="node">
<title>leg_v07</title>
<path fill="#ffa07a" stroke="black" stroke-width="2" d="M10623,-320.5C10623,-320.5 10539,-320.5 10539,-320.5 10534.8,-320.5 10530.6,-316.3 10530.6,-312.1 10530.6,-312.1 10530.6,-303.7 10530.6,-303.7 10530.6,-299.5 10534.8,-295.3 10539,-295.3 10539,-295.3 10623,-295.3 10623,-295.3 10627.2,-295.3 10631.4,-299.5 10631.4,-303.7 10631.4,-303.7 10631.4,-312.1 10631.4,-312.1 10631.4,-316.3 10627.2,-320.5 10623,-320.5"/>
<text xml:space="preserve" text-anchor="middle" x="10581" y="-305.38" font-family="Helvetica,sans-Serif" font-size="7.00">v0.7.0</text>
</g>
<!-- leg_bad -->
<g id="node86" class="node">
<title>leg_bad</title>
<path fill="#f6b3b3" stroke="black" stroke-width="2" d="M10623,-247.05C10623,-247.05 10539,-247.05 10539,-247.05 10534.8,-247.05 10530.6,-242.85 10530.6,-238.65 10530.6,-238.65 10530.6,-230.25 10530.6,-230.25 10530.6,-226.05 10534.8,-221.85 10539,-221.85 10539,-221.85 10623,-221.85 10623,-221.85 10627.2,-221.85 10631.4,-226.05 10631.4,-230.25 10631.4,-230.25 10631.4,-238.65 10631.4,-238.65 10631.4,-242.85 10627.2,-247.05 10623,-247.05"/>
<text xml:space="preserve" text-anchor="middle" x="10581" y="-231.92" font-family="Helvetica,sans-Serif" font-size="7.00">bad&#45;code</text>
</g>
<!-- leg_v07&#45;&gt;leg_bad -->
<!-- leg_idea -->
<g id="node87" class="node">
<title>leg_idea</title>
<path fill="#d4e8f7" stroke="black" d="M10623,-173.6C10623,-173.6 10539,-173.6 10539,-173.6 10534.8,-173.6 10530.6,-169.4 10530.6,-165.2 10530.6,-165.2 10530.6,-156.8 10530.6,-156.8 10530.6,-152.6 10534.8,-148.4 10539,-148.4 10539,-148.4 10623,-148.4 10623,-148.4 10627.2,-148.4 10631.4,-152.6 10631.4,-156.8 10631.4,-156.8 10631.4,-165.2 10631.4,-165.2 10631.4,-169.4 10627.2,-173.6 10623,-173.6"/>
<text xml:space="preserve" text-anchor="middle" x="10581" y="-158.47" font-family="Helvetica,sans-Serif" font-size="7.00">cool&#45;ideas</text>
</g>
<!-- leg_bad&#45;&gt;leg_idea -->
<!-- leg_external -->
<g id="node88" class="node">
<title>leg_external</title>
<path fill="#e8f2ff" stroke="black" d="M10623,-107.4C10623,-107.4 10539,-107.4 10539,-107.4 10534.8,-107.4 10530.6,-103.2 10530.6,-99 10530.6,-99 10530.6,-90.6 10530.6,-90.6 10530.6,-86.4 10534.8,-82.2 10539,-82.2 10539,-82.2 10623,-82.2 10623,-82.2 10627.2,-82.2 10631.4,-86.4 10631.4,-90.6 10631.4,-90.6 10631.4,-99 10631.4,-99 10631.4,-103.2 10627.2,-107.4 10623,-107.4"/>
<text xml:space="preserve" text-anchor="middle" x="10581" y="-92.28" font-family="Helvetica,sans-Serif" font-size="7.00">external blocker</text>
</g>
<!-- leg_idea&#45;&gt;leg_external -->
<!-- leg_unresolved -->
<g id="node89" class="node">
<title>leg_unresolved</title>
<path fill="#f2f2f2" stroke="black" stroke-dasharray="5,2" d="M10623,-41.2C10623,-41.2 10539,-41.2 10539,-41.2 10534.8,-41.2 10530.6,-37 10530.6,-32.8 10530.6,-32.8 10530.6,-24.4 10530.6,-24.4 10530.6,-20.2 10534.8,-16 10539,-16 10539,-16 10623,-16 10623,-16 10627.2,-16 10631.4,-20.2 10631.4,-24.4 10631.4,-24.4 10631.4,-32.8 10631.4,-32.8 10631.4,-37 10627.2,-41.2 10623,-41.2"/>
<text xml:space="preserve" text-anchor="middle" x="10581" y="-26.08" font-family="Helvetica,sans-Serif" font-size="7.00">unresolved ref</text>
</g>
<!-- leg_external&#45;&gt;leg_unresolved -->
</g>
</svg>
