<?xml version="1.0" encoding="UTF-8" standalone="no"?>
<!DOCTYPE svg PUBLIC "-//W3C//DTD SVG 1.1//EN"
 "http://www.w3.org/Graphics/SVG/1.1/DTD/svg11.dtd">
<!-- Generated by graphviz version 14.1.2 (20260124.0452)
 -->
<!-- Title: backlog Pages: 1 -->
<svg width="10758pt" height="383pt"
 viewBox="0.00 0.00 10758.00 383.00" xmlns="http://www.w3.org/2000/svg" xmlns:xlink="http://www.w3.org/1999/xlink">
<g id="graph0" class="graph" transform="scale(1 1) rotate(0) translate(4 379)">
<title>backlog</title>
<polygon fill="white" stroke="none" points="-4,4 -4,-379 10754,-379 10754,4 -4,4"/>
<text xml:space="preserve" text-anchor="middle" x="5375" y="-359.6" font-family="Helvetica,sans-Serif" font-size="12.00">Active backlog graph generated from docs/method/backlog/*/*.md</text>
<g id="clust1" class="cluster">
<title>cluster_v0_7_0</title>
<path fill="#fafafa" stroke="#cccccc" d="M20,-213.85C20,-213.85 146,-213.85 146,-213.85 152,-213.85 158,-219.85 158,-225.85 158,-225.85 158,-334.25 158,-334.25 158,-340.25 152,-346.25 146,-346.25 146,-346.25 20,-346.25 20,-346.25 14,-346.25 8,-340.25 8,-334.25 8,-334.25 8,-225.85 8,-225.85 8,-219.85 14,-213.85 20,-213.85"/>
<text xml:space="preserve" text-anchor="middle" x="35.12" y="-333.7" font-family="Helvetica,sans-Serif" font-size="9.00" fill="#555555">v0.7.0 (2)</text>
</g>
<g id="clust2" class="cluster">
<title>cluster_cool_ideas</title>
<path fill="#fafafa" stroke="#cccccc" d="M382,-140.4C382,-140.4 10342,-140.4 10342,-140.4 10348,-140.4 10354,-146.4 10354,-152.4 10354,-152.4 10354,-334.25 10354,-334.25 10354,-340.25 10348,-346.25 10342,-346.25 10342,-346.25 382,-346.25 382,-346.25 376,-346.25 370,-340.25 370,-334.25 370,-334.25 370,-152.4 370,-152.4 370,-146.4 376,-140.4 382,-140.4"/>
<text xml:space="preserve" text-anchor="middle" x="409.5" y="-333.7" font-family="Helvetica,sans-Serif" font-size="9.00" fill="#555555">Cool Ideas (77)</text>
</g>
<g id="clust3" class="cluster">
<title>cluster_external</title>
<path fill="#f8fbff" stroke="#cccccc" d="M178,-287.3C178,-287.3 350,-287.3 350,-287.3 356,-287.3 362,-293.3 362,-299.3 362,-299.3 362,-334.25 362,-334.25 362,-340.25 356,-346.25 350,-346.25 350,-346.25 178,-346.25 178,-346.25 172,-346.25 166,-340.25 166,-334.25 166,-334.25 166,-299.3 166,-299.3 166,-293.3 172,-287.3 178,-287.3"/>
<text xml:space="preserve" text-anchor="middle" x="209.25" y="-333.7" font-family="Helvetica,sans-Serif" font-size="9.00" fill="#555555">External blockers</text>
</g>
<g id="clust4" class="cluster">
<title>cluster_unresolved</title>
<path fill="#fff7f7" stroke="#cc3333" stroke-dasharray="5,2" d="M10374,-287.3C10374,-287.3 10606,-287.3 10606,-287.3 10612,-287.3 10618,-293.3 10618,-299.3 10618,-299.3 10618,-334.25 10618,-334.25 10618,-340.25 10612,-346.25 10606,-346.25 10606,-346.25 10374,-346.25 10374,-346.25 10368,-346.25 10362,-340.25 10362,-334.25 10362,-334.25 10362,-299.3 10362,-299.3 10362,-293.3 10368,-287.3 10374,-287.3"/>
<text xml:space="preserve" text-anchor="middle" x="10418.75" y="-333.7" font-family="Helvetica,sans-Serif" font-size="9.00" fill="#555555">Unresolved internal refs</text>
</g>
<g id="clust5" class="cluster">
<title>cluster_legend</title>
<path fill="none" stroke="#dddddd" d="M10638,-8C10638,-8 10730,-8 10730,-8 10736,-8 10742,-14 10742,-20 10742,-20 10742,-333.5 10742,-333.5 10742,-339.5 10736,-345.5 10730,-345.5 10730,-345.5 10638,-345.5 10638,-345.5 10632,-345.5 10626,-339.5 10626,-333.5 10626,-333.5 10626,-20 10626,-20 10626,-14 10632,-8 10638,-8"/>
<text xml:space="preserve" text-anchor="middle" x="10647.5" y="-333.9" font-family="Helvetica,sans-Serif" font-size="8.00" fill="#aaaaaa">Legend</text>
</g>
<!-- v0_7_0_CORE_migrate_to_slice_first_reads -->
<g id="node1" class="node">
<title>v0_7_0_CORE_migrate_to_slice_first_reads</title>
<path fill="#ffa07a" stroke="black" stroke-width="2" d="M141.8,-247.05C141.8,-247.05 24.2,-247.05 24.2,-247.05 20,-247.05 15.8,-242.85 15.8,-238.65 15.8,-238.65 15.8,-230.25 15.8,-230.25 15.8,-226.05 20,-221.85 24.2,-221.85 24.2,-221.85 141.8,-221.85 141.8,-221.85 146,-221.85 150.2,-226.05 150.2,-230.25 150.2,-230.25 150.2,-238.65 150.2,-238.65 150.2,-242.85 146,-247.05 141.8,-247.05"/>
<text xml:space="preserve" text-anchor="middle" x="83" y="-231.35" font-family="Helvetica,sans-Serif" font-size="8.00">CORE&#45;migrate&#45;to&#45;slice&#45;first&#45;reads</text>
</g>
<!-- v0_7_0_WARP_lsp_enrichment -->
<g id="node2" class="node">
<title>v0_7_0_WARP_lsp_enrichment</title>
<path fill="#ffa07a" stroke="black" stroke-width="2" d="M121.55,-320.5C121.55,-320.5 44.45,-320.5 44.45,-320.5 40.25,-320.5 36.05,-316.3 36.05,-312.1 36.05,-312.1 36.05,-303.7 36.05,-303.7 36.05,-299.5 40.25,-295.3 44.45,-295.3 44.45,-295.3 121.55,-295.3 121.55,-295.3 125.75,-295.3 129.95,-299.5 129.95,-303.7 129.95,-303.7 129.95,-312.1 129.95,-312.1 129.95,-316.3 125.75,-320.5 121.55,-320.5"/>
<text xml:space="preserve" text-anchor="middle" x="83" y="-304.8" font-family="Helvetica,sans-Serif" font-size="8.00">WARP&#45;lsp&#45;enrichment</text>
</g>
<!-- cool_ideas_bounded_neighborhood_for_references -->
<g id="node3" class="node">
<title>cool_ideas_bounded_neighborhood_for_references</title>
<path fill="#d4e8f7" stroke="black" d="M535.18,-320.5C535.18,-320.5 386.83,-320.5 386.83,-320.5 382.62,-320.5 378.43,-316.3 378.43,-312.1 378.43,-312.1 378.43,-303.7 378.43,-303.7 378.43,-299.5 382.62,-295.3 386.83,-295.3 386.83,-295.3 535.18,-295.3 535.18,-295.3 539.38,-295.3 543.58,-299.5 543.58,-303.7 543.58,-303.7 543.58,-312.1 543.58,-312.1 543.58,-316.3 539.38,-320.5 535.18,-320.5"/>
<text xml:space="preserve" text-anchor="middle" x="461" y="-304.8" font-family="Helvetica,sans-Serif" font-size="8.00">bounded&#45;neighborhood&#45;for&#45;references &#45; S</text>
</g>
<!-- cool_ideas_CI_001_causal_collapse_visualizer -->
<g id="node4" class="node">
<title>cool_ideas_CI_001_causal_collapse_visualizer</title>
<path fill="#d4e8f7" stroke="black" d="M7240.3,-247.05C7240.3,-247.05 7113.7,-247.05 7113.7,-247.05 7109.5,-247.05 7105.3,-242.85 7105.3,-238.65 7105.3,-238.65 7105.3,-230.25 7105.3,-230.25 7105.3,-226.05 7109.5,-221.85 7113.7,-221.85 7113.7,-221.85 7240.3,-221.85 7240.3,-221.85 7244.5,-221.85 7248.7,-226.05 7248.7,-230.25 7248.7,-230.25 7248.7,-238.65 7248.7,-238.65 7248.7,-242.85 7244.5,-247.05 7240.3,-247.05"/>
<text xml:space="preserve" text-anchor="middle" x="7177" y="-231.35" font-family="Helvetica,sans-Serif" font-size="8.00">CI&#45;001&#45;causal&#45;collapse&#45;visualizer &#45; L</text>
</g>
<!-- cool_ideas_CI_002_deterministic_scenario_replay -->
<g id="node5" class="node">
<title>cool_ideas_CI_002_deterministic_scenario_replay</title>
<path fill="#d4e8f7" stroke="black" d="M705.68,-320.5C705.68,-320.5 566.32,-320.5 566.32,-320.5 562.12,-320.5 557.92,-316.3 557.92,-312.1 557.92,-312.1 557.92,-303.7 557.92,-303.7 557.92,-299.5 562.12,-295.3 566.32,-295.3 566.32,-295.3 705.68,-295.3 705.68,-295.3 709.88,-295.3 714.08,-299.5 714.08,-303.7 714.08,-303.7 714.08,-312.1 714.08,-312.1 714.08,-316.3 709.88,-320.5 705.68,-320.5"/>
<text xml:space="preserve" text-anchor="middle" x="636" y="-304.8" font-family="Helvetica,sans-Serif" font-size="8.00">CI&#45;002&#45;deterministic&#45;scenario&#45;replay &#45; L</text>
</g>
<!-- cool_ideas_CI_003_mcp_native_diff_protocol -->
<g id="node6" class="node">
<title>cool_ideas_CI_003_mcp_native_diff_protocol</title>
<path fill="#d4e8f7" stroke="black" d="M859.8,-320.5C859.8,-320.5 736.2,-320.5 736.2,-320.5 732,-320.5 727.8,-316.3 727.8,-312.1 727.8,-312.1 727.8,-303.7 727.8,-303.7 727.8,-299.5 732,-295.3 736.2,-295.3 736.2,-295.3 859.8,-295.3 859.8,-295.3 864,-295.3 868.2,-299.5 868.2,-303.7 868.2,-303.7 868.2,-312.1 868.2,-312.1 868.2,-316.3 864,-320.5 859.8,-320.5"/>
<text xml:space="preserve" text-anchor="middle" x="798" y="-304.8" font-family="Helvetica,sans-Serif" font-size="8.00">CI&#45;003&#45;mcp&#45;native&#45;diff&#45;protocol &#45; M</text>
</g>
<!-- cool_ideas_CLEAN_CODE_parallel_agent_merge_shared_file_loss -->
<g id="node7" class="node">
<title>cool_ideas_CLEAN_CODE_parallel_agent_merge_shared_file_loss</title>
<path fill="#d4e8f7" stroke="black" d="M1091.05,-320.5C1091.05,-320.5 890.95,-320.5 890.95,-320.5 886.75,-320.5 882.55,-316.3 882.55,-312.1 882.55,-312.1 882.55,-303.7 882.55,-303.7 882.55,-299.5 886.75,-295.3 890.95,-295.3 890.95,-295.3 1091.05,-295.3 1091.05,-295.3 1095.25,-295.3 1099.45,-299.5 1099.45,-303.7 1099.45,-303.7 1099.45,-312.1 1099.45,-312.1 1099.45,-316.3 1095.25,-320.5 1091.05,-320.5"/>
<text xml:space="preserve" text-anchor="middle" x="991" y="-304.8" font-family="Helvetica,sans-Serif" font-size="8.00">CLEAN&#45;CODE&#45;parallel&#45;agent&#45;merge&#45;shared&#45;file&#45;loss &#45; M</text>
</g>
<!-- cool_ideas_CORE_agent_handoff_protocol -->
<g id="node8" class="node">
<title>cool_ideas_CORE_agent_handoff_protocol</title>
<path fill="#d4e8f7" stroke="black" d="M1241.92,-320.5C1241.92,-320.5 1122.08,-320.5 1122.08,-320.5 1117.88,-320.5 1113.67,-316.3 1113.67,-312.1 1113.67,-312.1 1113.67,-303.7 1113.67,-303.7 1113.67,-299.5 1117.88,-295.3 1122.08,-295.3 1122.08,-295.3 1241.92,-295.3 1241.92,-295.3 1246.12,-295.3 1250.33,-299.5 1250.33,-303.7 1250.33,-303.7 1250.33,-312.1 1250.33,-312.1 1250.33,-316.3 1246.12,-320.5 1241.92,-320.5"/>
<text xml:space="preserve" text-anchor="middle" x="1182" y="-304.8" font-family="Helvetica,sans-Serif" font-size="8.00">CORE&#45;agent&#45;handoff&#45;protocol &#45; M</text>
</g>
<!-- cool_ideas_CORE_auto_focus -->
<g id="node9" class="node">
<title>cool_ideas_CORE_auto_focus</title>
<path fill="#d4e8f7" stroke="black" d="M1345.67,-320.5C1345.67,-320.5 1272.33,-320.5 1272.33,-320.5 1268.12,-320.5 1263.92,-316.3 1263.92,-312.1 1263.92,-312.1 1263.92,-303.7 1263.92,-303.7 1263.92,-299.5 1268.12,-295.3 1272.33,-295.3 1272.33,-295.3 1345.67,-295.3 1345.67,-295.3 1349.88,-295.3 1354.08,-299.5 1354.08,-303.7 1354.08,-303.7 1354.08,-312.1 1354.08,-312.1 1354.08,-316.3 1349.88,-320.5 1345.67,-320.5"/>
<text xml:space="preserve" text-anchor="middle" x="1309" y="-304.8" font-family="Helvetica,sans-Serif" font-size="8.00">CORE&#45;auto&#45;focus &#45; L</text>
</g>
<!-- cool_ideas_CORE_backlog_status_tool -->
<g id="node10" class="node">
<title>cool_ideas_CORE_backlog_status_tool</title>
<path fill="#d4e8f7" stroke="black" d="M1479.67,-320.5C1479.67,-320.5 1376.33,-320.5 1376.33,-320.5 1372.12,-320.5 1367.92,-316.3 1367.92,-312.1 1367.92,-312.1 1367.92,-303.7 1367.92,-303.7 1367.92,-299.5 1372.12,-295.3 1376.33,-295.3 1376.33,-295.3 1479.67,-295.3 1479.67,-295.3 1483.88,-295.3 1488.08,-299.5 1488.08,-303.7 1488.08,-303.7 1488.08,-312.1 1488.08,-312.1 1488.08,-316.3 1483.88,-320.5 1479.67,-320.5"/>
<text xml:space="preserve" text-anchor="middle" x="1428" y="-304.8" font-family="Helvetica,sans-Serif" font-size="8.00">CORE&#45;backlog&#45;status&#45;tool &#45; S</text>
</g>
<!-- cool_ideas_CORE_capture_range -->
<g id="node11" class="node">
<title>cool_ideas_CORE_capture_range</title>
<path fill="#d4e8f7" stroke="black" d="M1597.8,-320.5C1597.8,-320.5 1510.2,-320.5 1510.2,-320.5 1506,-320.5 1501.8,-316.3 1501.8,-312.1 1501.8,-312.1 1501.8,-303.7 1501.8,-303.7 1501.8,-299.5 1506,-295.3 1510.2,-295.3 1510.2,-295.3 1597.8,-295.3 1597.8,-295.3 1602,-295.3 1606.2,-299.5 1606.2,-303.7 1606.2,-303.7 1606.2,-312.1 1606.2,-312.1 1606.2,-316.3 1602,-320.5 1597.8,-320.5"/>
<text xml:space="preserve" text-anchor="middle" x="1554" y="-304.8" font-family="Helvetica,sans-Serif" font-size="8.00">CORE&#45;capture&#45;range &#45; S</text>
</g>
<!-- cool_ideas_CORE_constructor_in_disguise_lint -->
<g id="node12" class="node">
<title>cool_ideas_CORE_constructor_in_disguise_lint</title>
<path fill="#d4e8f7" stroke="black" d="M1759.55,-320.5C1759.55,-320.5 1628.45,-320.5 1628.45,-320.5 1624.25,-320.5 1620.05,-316.3 1620.05,-312.1 1620.05,-312.1 1620.05,-303.7 1620.05,-303.7 1620.05,-299.5 1624.25,-295.3 1628.45,-295.3 1628.45,-295.3 1759.55,-295.3 1759.55,-295.3 1763.75,-295.3 1767.95,-299.5 1767.95,-303.7 1767.95,-303.7 1767.95,-312.1 1767.95,-312.1 1767.95,-316.3 1763.75,-320.5 1759.55,-320.5"/>
<text xml:space="preserve" text-anchor="middle" x="1694" y="-304.8" font-family="Helvetica,sans-Serif" font-size="8.00">CORE&#45;constructor&#45;in&#45;disguise&#45;lint &#45; M</text>
</g>
<!-- cool_ideas_CORE_context_budget_forecasting -->
<g id="node13" class="node">
<title>cool_ideas_CORE_context_budget_forecasting</title>
<path fill="#d4e8f7" stroke="black" d="M1923.67,-320.5C1923.67,-320.5 1790.33,-320.5 1790.33,-320.5 1786.12,-320.5 1781.92,-316.3 1781.92,-312.1 1781.92,-312.1 1781.92,-303.7 1781.92,-303.7 1781.92,-299.5 1786.12,-295.3 1790.33,-295.3 1790.33,-295.3 1923.67,-295.3 1923.67,-295.3 1927.88,-295.3 1932.08,-299.5 1932.08,-303.7 1932.08,-303.7 1932.08,-312.1 1932.08,-312.1 1932.08,-316.3 1927.88,-320.5 1923.67,-320.5"/>
<text xml:space="preserve" text-anchor="middle" x="1857" y="-304.8" font-family="Helvetica,sans-Serif" font-size="8.00">CORE&#45;context&#45;budget&#45;forecasting &#45; M</text>
</g>
<!-- cool_ideas_CORE_conversation_primer -->
<g id="node14" class="node">
<title>cool_ideas_CORE_conversation_primer</title>
<path fill="#d4e8f7" stroke="black" d="M2063.67,-320.5C2063.67,-320.5 1954.33,-320.5 1954.33,-320.5 1950.12,-320.5 1945.92,-316.3 1945.92,-312.1 1945.92,-312.1 1945.92,-303.7 1945.92,-303.7 1945.92,-299.5 1950.12,-295.3 1954.33,-295.3 1954.33,-295.3 2063.67,-295.3 2063.67,-295.3 2067.88,-295.3 2072.07,-299.5 2072.07,-303.7 2072.07,-303.7 2072.07,-312.1 2072.07,-312.1 2072.07,-316.3 2067.88,-320.5 2063.67,-320.5"/>
<text xml:space="preserve" text-anchor="middle" x="2009" y="-304.8" font-family="Helvetica,sans-Serif" font-size="8.00">CORE&#45;conversation&#45;primer &#45; M</text>
</g>
<!-- cool_ideas_CORE_cross_session_resume -->
<g id="node15" class="node">
<title>cool_ideas_CORE_cross_session_resume</title>
<path fill="#d4e8f7" stroke="black" d="M2209.3,-320.5C2209.3,-320.5 2094.7,-320.5 2094.7,-320.5 2090.5,-320.5 2086.3,-316.3 2086.3,-312.1 2086.3,-312.1 2086.3,-303.7 2086.3,-303.7 2086.3,-299.5 2090.5,-295.3 2094.7,-295.3 2094.7,-295.3 2209.3,-295.3 2209.3,-295.3 2213.5,-295.3 2217.7,-299.5 2217.7,-303.7 2217.7,-303.7 2217.7,-312.1 2217.7,-312.1 2217.7,-316.3 2213.5,-320.5 2209.3,-320.5"/>
<text xml:space="preserve" text-anchor="middle" x="2152" y="-304.8" font-family="Helvetica,sans-Serif" font-size="8.00">CORE&#45;cross&#45;session&#45;resume &#45; S</text>
</g>
<!-- cool_ideas_CORE_graft_as_teacher -->
<g id="node16" class="node">
<title>cool_ideas_CORE_graft_as_teacher</title>
<path fill="#d4e8f7" stroke="black" d="M2334.17,-320.5C2334.17,-320.5 2239.83,-320.5 2239.83,-320.5 2235.62,-320.5 2231.43,-316.3 2231.43,-312.1 2231.43,-312.1 2231.43,-303.7 2231.43,-303.7 2231.43,-299.5 2235.62,-295.3 2239.83,-295.3 2239.83,-295.3 2334.17,-295.3 2334.17,-295.3 2338.38,-295.3 2342.57,-299.5 2342.57,-303.7 2342.57,-303.7 2342.57,-312.1 2342.57,-312.1 2342.57,-316.3 2338.38,-320.5 2334.17,-320.5"/>
<text xml:space="preserve" text-anchor="middle" x="2287" y="-304.8" font-family="Helvetica,sans-Serif" font-size="8.00">CORE&#45;graft&#45;as&#45;teacher &#45; S</text>
</g>
<!-- cool_ideas_CORE_graft_doctor -->
<g id="node17" class="node">
<title>cool_ideas_CORE_graft_doctor</title>
<path fill="#d4e8f7" stroke="black" d="M2445.05,-320.5C2445.05,-320.5 2364.95,-320.5 2364.95,-320.5 2360.75,-320.5 2356.55,-316.3 2356.55,-312.1 2356.55,-312.1 2356.55,-303.7 2356.55,-303.7 2356.55,-299.5 2360.75,-295.3 2364.95,-295.3 2364.95,-295.3 2445.05,-295.3 2445.05,-295.3 2449.25,-295.3 2453.45,-299.5 2453.45,-303.7 2453.45,-303.7 2453.45,-312.1 2453.45,-312.1 2453.45,-316.3 2449.25,-320.5 2445.05,-320.5"/>
<text xml:space="preserve" text-anchor="middle" x="2405" y="-304.8" font-family="Helvetica,sans-Serif" font-size="8.00">CORE&#45;graft&#45;doctor &#45; M</text>
</g>
<!-- cool_ideas_CORE_graft_teach_learning_receipts -->
<g id="node18" class="node">
<title>cool_ideas_CORE_graft_teach_learning_receipts</title>
<path fill="#d4e8f7" stroke="black" d="M2613.92,-320.5C2613.92,-320.5 2476.08,-320.5 2476.08,-320.5 2471.88,-320.5 2467.68,-316.3 2467.68,-312.1 2467.68,-312.1 2467.68,-303.7 2467.68,-303.7 2467.68,-299.5 2471.88,-295.3 2476.08,-295.3 2476.08,-295.3 2613.92,-295.3 2613.92,-295.3 2618.12,-295.3 2622.32,-299.5 2622.32,-303.7 2622.32,-303.7 2622.32,-312.1 2622.32,-312.1 2622.32,-316.3 2618.12,-320.5 2613.92,-320.5"/>
<text xml:space="preserve" text-anchor="middle" x="2545" y="-304.8" font-family="Helvetica,sans-Serif" font-size="8.00">CORE&#45;graft&#45;teach&#45;learning&#45;receipts &#45; S</text>
</g>
<!-- cool_ideas_CORE_horizon_of_readability -->
<g id="node19" class="node">
<title>cool_ideas_CORE_horizon_of_readability</title>
<path fill="#d4e8f7" stroke="black" d="M2757.55,-320.5C2757.55,-320.5 2644.45,-320.5 2644.45,-320.5 2640.25,-320.5 2636.05,-316.3 2636.05,-312.1 2636.05,-312.1 2636.05,-303.7 2636.05,-303.7 2636.05,-299.5 2640.25,-295.3 2644.45,-295.3 2644.45,-295.3 2757.55,-295.3 2757.55,-295.3 2761.75,-295.3 2765.95,-299.5 2765.95,-303.7 2765.95,-303.7 2765.95,-312.1 2765.95,-312.1 2765.95,-316.3 2761.75,-320.5 2757.55,-320.5"/>
<text xml:space="preserve" text-anchor="middle" x="2701" y="-304.8" font-family="Helvetica,sans-Serif" font-size="8.00">CORE&#45;horizon&#45;of&#45;readability &#45; M</text>
</g>
<!-- cool_ideas_CORE_lagrangian_policy -->
<g id="node20" class="node">
<title>cool_ideas_CORE_lagrangian_policy</title>
<path fill="#d4e8f7" stroke="black" d="M2889.55,-320.5C2889.55,-320.5 2788.45,-320.5 2788.45,-320.5 2784.25,-320.5 2780.05,-316.3 2780.05,-312.1 2780.05,-312.1 2780.05,-303.7 2780.05,-303.7 2780.05,-299.5 2784.25,-295.3 2788.45,-295.3 2788.45,-295.3 2889.55,-295.3 2889.55,-295.3 2893.75,-295.3 2897.95,-299.5 2897.95,-303.7 2897.95,-303.7 2897.95,-312.1 2897.95,-312.1 2897.95,-316.3 2893.75,-320.5 2889.55,-320.5"/>
<text xml:space="preserve" text-anchor="middle" x="2839" y="-304.8" font-family="Helvetica,sans-Serif" font-size="8.00">CORE&#45;lagrangian&#45;policy &#45; XL</text>
</g>
<!-- cool_ideas_CORE_multi_agent_conflict_detection -->
<g id="node21" class="node">
<title>cool_ideas_CORE_multi_agent_conflict_detection</title>
<path fill="#d4e8f7" stroke="black" d="M3057.92,-320.5C3057.92,-320.5 2920.08,-320.5 2920.08,-320.5 2915.88,-320.5 2911.68,-316.3 2911.68,-312.1 2911.68,-312.1 2911.68,-303.7 2911.68,-303.7 2911.68,-299.5 2915.88,-295.3 2920.08,-295.3 2920.08,-295.3 3057.92,-295.3 3057.92,-295.3 3062.12,-295.3 3066.32,-299.5 3066.32,-303.7 3066.32,-303.7 3066.32,-312.1 3066.32,-312.1 3066.32,-316.3 3062.12,-320.5 3057.92,-320.5"/>
<text xml:space="preserve" text-anchor="middle" x="2989" y="-304.8" font-family="Helvetica,sans-Serif" font-size="8.00">CORE&#45;multi&#45;agent&#45;conflict&#45;detection &#45; L</text>
</g>
<!-- cool_ideas_CORE_policy_playground -->
<g id="node22" class="node">
<title>cool_ideas_CORE_policy_playground</title>
<path fill="#d4e8f7" stroke="black" d="M3187.42,-320.5C3187.42,-320.5 3088.58,-320.5 3088.58,-320.5 3084.38,-320.5 3080.18,-316.3 3080.18,-312.1 3080.18,-312.1 3080.18,-303.7 3080.18,-303.7 3080.18,-299.5 3084.38,-295.3 3088.58,-295.3 3088.58,-295.3 3187.42,-295.3 3187.42,-295.3 3191.62,-295.3 3195.82,-299.5 3195.82,-303.7 3195.82,-303.7 3195.82,-312.1 3195.82,-312.1 3195.82,-316.3 3191.62,-320.5 3187.42,-320.5"/>
<text xml:space="preserve" text-anchor="middle" x="3138" y="-304.8" font-family="Helvetica,sans-Serif" font-size="8.00">CORE&#45;policy&#45;playground &#45; S</text>
</g>
<!-- cool_ideas_CORE_policy_profiles -->
<g id="node23" class="node">
<title>cool_ideas_CORE_policy_profiles</title>
<path fill="#d4e8f7" stroke="black" d="M3304.05,-320.5C3304.05,-320.5 3217.95,-320.5 3217.95,-320.5 3213.75,-320.5 3209.55,-316.3 3209.55,-312.1 3209.55,-312.1 3209.55,-303.7 3209.55,-303.7 3209.55,-299.5 3213.75,-295.3 3217.95,-295.3 3217.95,-295.3 3304.05,-295.3 3304.05,-295.3 3308.25,-295.3 3312.45,-299.5 3312.45,-303.7 3312.45,-303.7 3312.45,-312.1 3312.45,-312.1 3312.45,-316.3 3308.25,-320.5 3304.05,-320.5"/>
<text xml:space="preserve" text-anchor="middle" x="3261" y="-304.8" font-family="Helvetica,sans-Serif" font-size="8.00">CORE&#45;policy&#45;profiles &#45; M</text>
</g>
<!-- cool_ideas_CORE_pr_review_structural_summary -->
<g id="node24" class="node">
<title>cool_ideas_CORE_pr_review_structural_summary</title>
<path fill="#d4e8f7" stroke="black" d="M3478.92,-320.5C3478.92,-320.5 3335.08,-320.5 3335.08,-320.5 3330.88,-320.5 3326.68,-316.3 3326.68,-312.1 3326.68,-312.1 3326.68,-303.7 3326.68,-303.7 3326.68,-299.5 3330.88,-295.3 3335.08,-295.3 3335.08,-295.3 3478.92,-295.3 3478.92,-295.3 3483.12,-295.3 3487.32,-299.5 3487.32,-303.7 3487.32,-303.7 3487.32,-312.1 3487.32,-312.1 3487.32,-316.3 3483.12,-320.5 3478.92,-320.5"/>
<text xml:space="preserve" text-anchor="middle" x="3407" y="-304.8" font-family="Helvetica,sans-Serif" font-size="8.00">CORE&#45;pr&#45;review&#45;structural&#45;summary &#45; M</text>
</g>
<!-- cool_ideas_CORE_self_tuning_governor -->
<g id="node25" class="node">
<title>cool_ideas_CORE_self_tuning_governor</title>
<path fill="#d4e8f7" stroke="black" d="M3620.05,-320.5C3620.05,-320.5 3509.95,-320.5 3509.95,-320.5 3505.75,-320.5 3501.55,-316.3 3501.55,-312.1 3501.55,-312.1 3501.55,-303.7 3501.55,-303.7 3501.55,-299.5 3505.75,-295.3 3509.95,-295.3 3509.95,-295.3 3620.05,-295.3 3620.05,-295.3 3624.25,-295.3 3628.45,-299.5 3628.45,-303.7 3628.45,-303.7 3628.45,-312.1 3628.45,-312.1 3628.45,-316.3 3624.25,-320.5 3620.05,-320.5"/>
<text xml:space="preserve" text-anchor="middle" x="3565" y="-304.8" font-family="Helvetica,sans-Serif" font-size="8.00">CORE&#45;self&#45;tuning&#45;governor &#45; M</text>
</g>
<!-- cool_ideas_CORE_session_knowledge_map -->
<g id="node26" class="node">
<title>cool_ideas_CORE_session_knowledge_map</title>
<path fill="#d4e8f7" stroke="black" d="M3773.42,-320.5C3773.42,-320.5 3650.58,-320.5 3650.58,-320.5 3646.38,-320.5 3642.18,-316.3 3642.18,-312.1 3642.18,-312.1 3642.18,-303.7 3642.18,-303.7 3642.18,-299.5 3646.38,-295.3 3650.58,-295.3 3650.58,-295.3 3773.42,-295.3 3773.42,-295.3 3777.62,-295.3 3781.82,-299.5 3781.82,-303.7 3781.82,-303.7 3781.82,-312.1 3781.82,-312.1 3781.82,-316.3 3777.62,-320.5 3773.42,-320.5"/>
<text xml:space="preserve" text-anchor="middle" x="3712" y="-304.8" font-family="Helvetica,sans-Serif" font-size="8.00">CORE&#45;session&#45;knowledge&#45;map &#45; S</text>
</g>
<!-- cool_ideas_CORE_speculative_read_cost -->
<g id="node27" class="node">
<title>cool_ideas_CORE_speculative_read_cost</title>
<path fill="#d4e8f7" stroke="black" d="M3916.17,-320.5C3916.17,-320.5 3803.83,-320.5 3803.83,-320.5 3799.62,-320.5 3795.43,-316.3 3795.43,-312.1 3795.43,-312.1 3795.43,-303.7 3795.43,-303.7 3795.43,-299.5 3799.62,-295.3 3803.83,-295.3 3803.83,-295.3 3916.17,-295.3 3916.17,-295.3 3920.38,-295.3 3924.57,-299.5 3924.57,-303.7 3924.57,-303.7 3924.57,-312.1 3924.57,-312.1 3924.57,-316.3 3920.38,-320.5 3916.17,-320.5"/>
<text xml:space="preserve" text-anchor="middle" x="3860" y="-304.8" font-family="Helvetica,sans-Serif" font-size="8.00">CORE&#45;speculative&#45;read&#45;cost &#45; S</text>
</g>
<!-- cool_ideas_CORE_structural_session_replay -->
<g id="node28" class="node">
<title>cool_ideas_CORE_structural_session_replay</title>
<path fill="#d4e8f7" stroke="black" d="M4072.55,-320.5C4072.55,-320.5 3947.45,-320.5 3947.45,-320.5 3943.25,-320.5 3939.05,-316.3 3939.05,-312.1 3939.05,-312.1 3939.05,-303.7 3939.05,-303.7 3939.05,-299.5 3943.25,-295.3 3947.45,-295.3 3947.45,-295.3 4072.55,-295.3 4072.55,-295.3 4076.75,-295.3 4080.95,-299.5 4080.95,-303.7 4080.95,-303.7 4080.95,-312.1 4080.95,-312.1 4080.95,-316.3 4076.75,-320.5 4072.55,-320.5"/>
<text xml:space="preserve" text-anchor="middle" x="4010" y="-304.8" font-family="Helvetica,sans-Serif" font-size="8.00">CORE&#45;structural&#45;session&#45;replay &#45; M</text>
</g>
<!-- cool_ideas_CORE_structural_test_coverage_map -->
<g id="node29" class="node">
<title>cool_ideas_CORE_structural_test_coverage_map</title>
<path fill="#d4e8f7" stroke="black" d="M4244.8,-320.5C4244.8,-320.5 4103.2,-320.5 4103.2,-320.5 4099,-320.5 4094.8,-316.3 4094.8,-312.1 4094.8,-312.1 4094.8,-303.7 4094.8,-303.7 4094.8,-299.5 4099,-295.3 4103.2,-295.3 4103.2,-295.3 4244.8,-295.3 4244.8,-295.3 4249,-295.3 4253.2,-299.5 4253.2,-303.7 4253.2,-303.7 4253.2,-312.1 4253.2,-312.1 4253.2,-316.3 4249,-320.5 4244.8,-320.5"/>
<text xml:space="preserve" text-anchor="middle" x="4174" y="-304.8" font-family="Helvetica,sans-Serif" font-size="8.00">CORE&#45;structural&#45;test&#45;coverage&#45;map &#45; M</text>
</g>
<!-- cool_ideas_CORE_wire_primitives_into_runtime -->
<g id="node30" class="node">
<title>cool_ideas_CORE_wire_primitives_into_runtime</title>
<path fill="#d4e8f7" stroke="black" d="M4410.43,-320.5C4410.43,-320.5 4275.57,-320.5 4275.57,-320.5 4271.38,-320.5 4267.18,-316.3 4267.18,-312.1 4267.18,-312.1 4267.18,-303.7 4267.18,-303.7 4267.18,-299.5 4271.38,-295.3 4275.57,-295.3 4275.57,-295.3 4410.43,-295.3 4410.43,-295.3 4414.62,-295.3 4418.82,-299.5 4418.82,-303.7 4418.82,-303.7 4418.82,-312.1 4418.82,-312.1 4418.82,-316.3 4414.62,-320.5 4410.43,-320.5"/>
<text xml:space="preserve" text-anchor="middle" x="4343" y="-304.8" font-family="Helvetica,sans-Serif" font-size="8.00">CORE&#45;wire&#45;primitives&#45;into&#45;runtime &#45; M</text>
</g>
<!-- cool_ideas_monitor_tick_ceiling_tracking -->
<g id="node31" class="node">
<title>cool_ideas_monitor_tick_ceiling_tracking</title>
<path fill="#d4e8f7" stroke="black" d="M4548.55,-320.5C4548.55,-320.5 4441.45,-320.5 4441.45,-320.5 4437.25,-320.5 4433.05,-316.3 4433.05,-312.1 4433.05,-312.1 4433.05,-303.7 4433.05,-303.7 4433.05,-299.5 4437.25,-295.3 4441.45,-295.3 4441.45,-295.3 4548.55,-295.3 4548.55,-295.3 4552.75,-295.3 4556.95,-299.5 4556.95,-303.7 4556.95,-303.7 4556.95,-312.1 4556.95,-312.1 4556.95,-316.3 4552.75,-320.5 4548.55,-320.5"/>
<text xml:space="preserve" text-anchor="middle" x="4495" y="-304.8" font-family="Helvetica,sans-Serif" font-size="8.00">monitor&#45;tick&#45;ceiling&#45;tracking &#45; S</text>
</g>
<!-- cool_ideas_WARP_background_indexing -->
<g id="node47" class="node">
<title>cool_ideas_WARP_background_indexing</title>
<path fill="#d4e8f7" stroke="black" d="M4551.55,-247.05C4551.55,-247.05 4438.45,-247.05 4438.45,-247.05 4434.25,-247.05 4430.05,-242.85 4430.05,-238.65 4430.05,-238.65 4430.05,-230.25 4430.05,-230.25 4430.05,-226.05 4434.25,-221.85 4438.45,-221.85 4438.45,-221.85 4551.55,-221.85 4551.55,-221.85 4555.75,-221.85 4559.95,-226.05 4559.95,-230.25 4559.95,-230.25 4559.95,-238.65 4559.95,-238.65 4559.95,-242.85 4555.75,-247.05 4551.55,-247.05"/>
<text xml:space="preserve" text-anchor="middle" x="4495" y="-231.35" font-family="Helvetica,sans-Serif" font-size="8.00">WARP&#45;background&#45;indexing &#45; M</text>
</g>
<!-- cool_ideas_monitor_tick_ceiling_tracking&#45;&gt;cool_ideas_WARP_background_indexing -->
<g id="edge1" class="edge">
<title>cool_ideas_monitor_tick_ceiling_tracking&#45;&gt;cool_ideas_WARP_background_indexing</title>
<path fill="none" stroke="#666666" d="M4495,-295.1C4495,-283.9 4495,-266.88 4495,-253.88"/>
<polygon fill="#666666" stroke="#666666" points="4496.75,-254.02 4495,-249.02 4493.25,-254.02 4496.75,-254.02"/>
<text xml:space="preserve" text-anchor="middle" x="4526.5" y="-268.65" font-family="Helvetica,sans-Serif" font-size="7.00">blocked_by/blocking</text>
</g>
<!-- cool_ideas_SURFACE_active_causal_workspace_status -->
<g id="node32" class="node">
<title>cool_ideas_SURFACE_active_causal_workspace_status</title>
<path fill="#d4e8f7" stroke="black" d="M4743.05,-320.5C4743.05,-320.5 4578.95,-320.5 4578.95,-320.5 4574.75,-320.5 4570.55,-316.3 4570.55,-312.1 4570.55,-312.1 4570.55,-303.7 4570.55,-303.7 4570.55,-299.5 4574.75,-295.3 4578.95,-295.3 4578.95,-295.3 4743.05,-295.3 4743.05,-295.3 4747.25,-295.3 4751.45,-299.5 4751.45,-303.7 4751.45,-303.7 4751.45,-312.1 4751.45,-312.1 4751.45,-316.3 4747.25,-320.5 4743.05,-320.5"/>
<text xml:space="preserve" text-anchor="middle" x="4661" y="-304.8" font-family="Helvetica,sans-Serif" font-size="8.00">SURFACE&#45;active&#45;causal&#45;workspace&#45;status &#45; M</text>
</g>
<!-- cool_ideas_SURFACE_ide_native_graft_integration -->
<g id="node38" class="node">
<title>cool_ideas_SURFACE_ide_native_graft_integration</title>
<path fill="#d4e8f7" stroke="black" d="M4736.3,-247.05C4736.3,-247.05 4585.7,-247.05 4585.7,-247.05 4581.5,-247.05 4577.3,-242.85 4577.3,-238.65 4577.3,-238.65 4577.3,-230.25 4577.3,-230.25 4577.3,-226.05 4581.5,-221.85 4585.7,-221.85 4585.7,-221.85 4736.3,-221.85 4736.3,-221.85 4740.5,-221.85 4744.7,-226.05 4744.7,-230.25 4744.7,-230.25 4744.7,-238.65 4744.7,-238.65 4744.7,-242.85 4740.5,-247.05 4736.3,-247.05"/>
<text xml:space="preserve" text-anchor="middle" x="4661" y="-231.35" font-family="Helvetica,sans-Serif" font-size="8.00">SURFACE&#45;ide&#45;native&#45;graft&#45;integration &#45; XL</text>
</g>
<!-- cool_ideas_SURFACE_active_causal_workspace_status&#45;&gt;cool_ideas_SURFACE_ide_native_graft_integration -->
<g id="edge2" class="edge">
<title>cool_ideas_SURFACE_active_causal_workspace_status&#45;&gt;cool_ideas_SURFACE_ide_native_graft_integration</title>
<path fill="none" stroke="#666666" d="M4661,-295.1C4661,-283.9 4661,-266.88 4661,-253.88"/>
<polygon fill="#666666" stroke="#666666" points="4662.75,-254.02 4661,-249.02 4659.25,-254.02 4662.75,-254.02"/>
<text xml:space="preserve" text-anchor="middle" x="4692.5" y="-268.65" font-family="Helvetica,sans-Serif" font-size="7.00">blocked_by/blocking</text>
</g>
<!-- cool_ideas_SURFACE_attach_to_existing_causal_session -->
<g id="node33" class="node">
<title>cool_ideas_SURFACE_attach_to_existing_causal_session</title>
<path fill="#d4e8f7" stroke="black" d="M4942.3,-320.5C4942.3,-320.5 4773.7,-320.5 4773.7,-320.5 4769.5,-320.5 4765.3,-316.3 4765.3,-312.1 4765.3,-312.1 4765.3,-303.7 4765.3,-303.7 4765.3,-299.5 4769.5,-295.3 4773.7,-295.3 4773.7,-295.3 4942.3,-295.3 4942.3,-295.3 4946.5,-295.3 4950.7,-299.5 4950.7,-303.7 4950.7,-303.7 4950.7,-312.1 4950.7,-312.1 4950.7,-316.3 4946.5,-320.5 4942.3,-320.5"/>
<text xml:space="preserve" text-anchor="middle" x="4858" y="-304.8" font-family="Helvetica,sans-Serif" font-size="8.00">SURFACE&#45;attach&#45;to&#45;existing&#45;causal&#45;session &#45; M</text>
</g>
<!-- cool_ideas_SURFACE_bijou_daemon_control_plane_actions -->
<g id="node34" class="node">
<title>cool_ideas_SURFACE_bijou_daemon_control_plane_actions</title>
<path fill="#d4e8f7" stroke="black" d="M5150.43,-320.5C5150.43,-320.5 4973.57,-320.5 4973.57,-320.5 4969.38,-320.5 4965.18,-316.3 4965.18,-312.1 4965.18,-312.1 4965.18,-303.7 4965.18,-303.7 4965.18,-299.5 4969.38,-295.3 4973.57,-295.3 4973.57,-295.3 5150.43,-295.3 5150.43,-295.3 5154.62,-295.3 5158.82,-299.5 5158.82,-303.7 5158.82,-303.7 5158.82,-312.1 5158.82,-312.1 5158.82,-316.3 5154.62,-320.5 5150.43,-320.5"/>
<text xml:space="preserve" text-anchor="middle" x="5062" y="-304.8" font-family="Helvetica,sans-Serif" font-size="8.00">SURFACE&#45;bijou&#45;daemon&#45;control&#45;plane&#45;actions &#45; L</text>
</g>
<!-- cool_ideas_SURFACE_bijou_daemon_status_live_refresh -->
<g id="node35" class="node">
<title>cool_ideas_SURFACE_bijou_daemon_status_live_refresh</title>
<path fill="#d4e8f7" stroke="black" d="M5350.3,-320.5C5350.3,-320.5 5181.7,-320.5 5181.7,-320.5 5177.5,-320.5 5173.3,-316.3 5173.3,-312.1 5173.3,-312.1 5173.3,-303.7 5173.3,-303.7 5173.3,-299.5 5177.5,-295.3 5181.7,-295.3 5181.7,-295.3 5350.3,-295.3 5350.3,-295.3 5354.5,-295.3 5358.7,-299.5 5358.7,-303.7 5358.7,-303.7 5358.7,-312.1 5358.7,-312.1 5358.7,-316.3 5354.5,-320.5 5350.3,-320.5"/>
<text xml:space="preserve" text-anchor="middle" x="5266" y="-304.8" font-family="Helvetica,sans-Serif" font-size="8.00">SURFACE&#45;bijou&#45;daemon&#45;status&#45;live&#45;refresh &#45; M</text>
</g>
<!-- cool_ideas_SURFACE_git_graft_enhance_expanded_git_subcommands -->
<g id="node36" class="node">
<title>cool_ideas_SURFACE_git_graft_enhance_expanded_git_subcommands</title>
<path fill="#d4e8f7" stroke="black" d="M5585.3,-320.5C5585.3,-320.5 5380.7,-320.5 5380.7,-320.5 5376.5,-320.5 5372.3,-316.3 5372.3,-312.1 5372.3,-312.1 5372.3,-303.7 5372.3,-303.7 5372.3,-299.5 5376.5,-295.3 5380.7,-295.3 5380.7,-295.3 5585.3,-295.3 5585.3,-295.3 5589.5,-295.3 5593.7,-299.5 5593.7,-303.7 5593.7,-303.7 5593.7,-312.1 5593.7,-312.1 5593.7,-316.3 5589.5,-320.5 5585.3,-320.5"/>
<text xml:space="preserve" text-anchor="middle" x="5483" y="-304.8" font-family="Helvetica,sans-Serif" font-size="8.00">SURFACE&#45;git&#45;graft&#45;enhance&#45;expanded&#45;git&#45;subcommands</text>
</g>
<!-- cool_ideas_SURFACE_git_graft_enhance_provenance_hints -->
<g id="node37" class="node">
<title>cool_ideas_SURFACE_git_graft_enhance_provenance_hints</title>
<path fill="#d4e8f7" stroke="black" d="M5781.43,-320.5C5781.43,-320.5 5616.57,-320.5 5616.57,-320.5 5612.38,-320.5 5608.18,-316.3 5608.18,-312.1 5608.18,-312.1 5608.18,-303.7 5608.18,-303.7 5608.18,-299.5 5612.38,-295.3 5616.57,-295.3 5616.57,-295.3 5781.43,-295.3 5781.43,-295.3 5785.62,-295.3 5789.82,-299.5 5789.82,-303.7 5789.82,-303.7 5789.82,-312.1 5789.82,-312.1 5789.82,-316.3 5785.62,-320.5 5781.43,-320.5"/>
<text xml:space="preserve" text-anchor="middle" x="5699" y="-304.8" font-family="Helvetica,sans-Serif" font-size="8.00">SURFACE&#45;git&#45;graft&#45;enhance&#45;provenance&#45;hints</text>
</g>
<!-- cool_ideas_SURFACE_local_history_dag_render_mode_and_count_legend -->
<g id="node39" class="node">
<title>cool_ideas_SURFACE_local_history_dag_render_mode_and_count_legend</title>
<path fill="#d4e8f7" stroke="black" d="M6038.18,-320.5C6038.18,-320.5 5811.82,-320.5 5811.82,-320.5 5807.62,-320.5 5803.43,-316.3 5803.43,-312.1 5803.43,-312.1 5803.43,-303.7 5803.43,-303.7 5803.43,-299.5 5807.62,-295.3 5811.82,-295.3 5811.82,-295.3 6038.18,-295.3 6038.18,-295.3 6042.38,-295.3 6046.57,-299.5 6046.57,-303.7 6046.57,-303.7 6046.57,-312.1 6046.57,-312.1 6046.57,-316.3 6042.38,-320.5 6038.18,-320.5"/>
<text xml:space="preserve" text-anchor="middle" x="5925" y="-304.8" font-family="Helvetica,sans-Serif" font-size="8.00">SURFACE&#45;local&#45;history&#45;dag&#45;render&#45;mode&#45;and&#45;count&#45;legend &#45; S</text>
</g>
<!-- cool_ideas_SURFACE_non_codex_instruction_bootstrap_parity -->
<g id="node40" class="node">
<title>cool_ideas_SURFACE_non_codex_instruction_bootstrap_parity</title>
<path fill="#d4e8f7" stroke="black" d="M6257.43,-320.5C6257.43,-320.5 6068.57,-320.5 6068.57,-320.5 6064.38,-320.5 6060.18,-316.3 6060.18,-312.1 6060.18,-312.1 6060.18,-303.7 6060.18,-303.7 6060.18,-299.5 6064.38,-295.3 6068.57,-295.3 6068.57,-295.3 6257.43,-295.3 6257.43,-295.3 6261.62,-295.3 6265.82,-299.5 6265.82,-303.7 6265.82,-303.7 6265.82,-312.1 6265.82,-312.1 6265.82,-316.3 6261.62,-320.5 6257.43,-320.5"/>
<text xml:space="preserve" text-anchor="middle" x="6163" y="-304.8" font-family="Helvetica,sans-Serif" font-size="8.00">SURFACE&#45;non&#45;codex&#45;instruction&#45;bootstrap&#45;parity &#45; M</text>
</g>
<!-- cool_ideas_SURFACE_offer_rename_refactor -->
<g id="node41" class="node">
<title>cool_ideas_SURFACE_offer_rename_refactor</title>
<path fill="#d4e8f7" stroke="black" d="M6417.43,-320.5C6417.43,-320.5 6288.57,-320.5 6288.57,-320.5 6284.38,-320.5 6280.18,-316.3 6280.18,-312.1 6280.18,-312.1 6280.18,-303.7 6280.18,-303.7 6280.18,-299.5 6284.38,-295.3 6288.57,-295.3 6288.57,-295.3 6417.43,-295.3 6417.43,-295.3 6421.62,-295.3 6425.82,-299.5 6425.82,-303.7 6425.82,-303.7 6425.82,-312.1 6425.82,-312.1 6425.82,-316.3 6421.62,-320.5 6417.43,-320.5"/>
<text xml:space="preserve" text-anchor="middle" x="6353" y="-304.8" font-family="Helvetica,sans-Serif" font-size="8.00">SURFACE&#45;offer&#45;rename&#45;refactor &#45; L</text>
</g>
<!-- cool_ideas_SURFACE_terminal_activity_browser_tui -->
<g id="node42" class="node">
<title>cool_ideas_SURFACE_terminal_activity_browser_tui</title>
<path fill="#d4e8f7" stroke="black" d="M6597.55,-320.5C6597.55,-320.5 6448.45,-320.5 6448.45,-320.5 6444.25,-320.5 6440.05,-316.3 6440.05,-312.1 6440.05,-312.1 6440.05,-303.7 6440.05,-303.7 6440.05,-299.5 6444.25,-295.3 6448.45,-295.3 6448.45,-295.3 6597.55,-295.3 6597.55,-295.3 6601.75,-295.3 6605.95,-299.5 6605.95,-303.7 6605.95,-303.7 6605.95,-312.1 6605.95,-312.1 6605.95,-316.3 6601.75,-320.5 6597.55,-320.5"/>
<text xml:space="preserve" text-anchor="middle" x="6523" y="-304.8" font-family="Helvetica,sans-Serif" font-size="8.00">SURFACE&#45;terminal&#45;activity&#45;browser&#45;tui &#45; L</text>
</g>
<!-- cool_ideas_traverse_plus_query_hydration_helper -->
<g id="node43" class="node">
<title>cool_ideas_traverse_plus_query_hydration_helper</title>
<path fill="#d4e8f7" stroke="black" d="M6769.8,-320.5C6769.8,-320.5 6628.2,-320.5 6628.2,-320.5 6624,-320.5 6619.8,-316.3 6619.8,-312.1 6619.8,-312.1 6619.8,-303.7 6619.8,-303.7 6619.8,-299.5 6624,-295.3 6628.2,-295.3 6628.2,-295.3 6769.8,-295.3 6769.8,-295.3 6774,-295.3 6778.2,-299.5 6778.2,-303.7 6778.2,-303.7 6778.2,-312.1 6778.2,-312.1 6778.2,-316.3 6774,-320.5 6769.8,-320.5"/>
<text xml:space="preserve" text-anchor="middle" x="6699" y="-304.8" font-family="Helvetica,sans-Serif" font-size="8.00">traverse&#45;plus&#45;query&#45;hydration&#45;helper &#45; S</text>
</g>
<!-- cool_ideas_WARP_adaptive_projection_selection -->
<g id="node44" class="node">
<title>cool_ideas_WARP_adaptive_projection_selection</title>
<path fill="#d4e8f7" stroke="black" d="M6938.93,-320.5C6938.93,-320.5 6801.07,-320.5 6801.07,-320.5 6796.88,-320.5 6792.68,-316.3 6792.68,-312.1 6792.68,-312.1 6792.68,-303.7 6792.68,-303.7 6792.68,-299.5 6796.88,-295.3 6801.07,-295.3 6801.07,-295.3 6938.93,-295.3 6938.93,-295.3 6943.12,-295.3 6947.32,-299.5 6947.32,-303.7 6947.32,-303.7 6947.32,-312.1 6947.32,-312.1 6947.32,-316.3 6943.12,-320.5 6938.93,-320.5"/>
<text xml:space="preserve" text-anchor="middle" x="6870" y="-304.8" font-family="Helvetica,sans-Serif" font-size="8.00">WARP&#45;adaptive&#45;projection&#45;selection &#45; L</text>
</g>
<!-- cool_ideas_WARP_agent_action_provenance -->
<g id="node45" class="node">
<title>cool_ideas_WARP_agent_action_provenance</title>
<path fill="#d4e8f7" stroke="black" d="M7100.55,-320.5C7100.55,-320.5 6969.45,-320.5 6969.45,-320.5 6965.25,-320.5 6961.05,-316.3 6961.05,-312.1 6961.05,-312.1 6961.05,-303.7 6961.05,-303.7 6961.05,-299.5 6965.25,-295.3 6969.45,-295.3 6969.45,-295.3 7100.55,-295.3 7100.55,-295.3 7104.75,-295.3 7108.95,-299.5 7108.95,-303.7 7108.95,-303.7 7108.95,-312.1 7108.95,-312.1 7108.95,-316.3 7104.75,-320.5 7100.55,-320.5"/>
<text xml:space="preserve" text-anchor="middle" x="7035" y="-304.8" font-family="Helvetica,sans-Serif" font-size="8.00">WARP&#45;agent&#45;action&#45;provenance &#45; XL</text>
</g>
<!-- cool_ideas_WARP_agent_action_provenance&#45;&gt;cool_ideas_CI_001_causal_collapse_visualizer -->
<g id="edge3" class="edge">
<title>cool_ideas_WARP_agent_action_provenance&#45;&gt;cool_ideas_CI_001_causal_collapse_visualizer</title>
<path fill="none" stroke="#666666" d="M7081.86,-294.88C7097.39,-289.94 7114.41,-283.43 7129,-275.3 7140.49,-268.89 7151.89,-259.59 7160.69,-251.58"/>
<polygon fill="#666666" stroke="#666666" points="7161.72,-253.02 7164.19,-248.33 7159.34,-250.45 7161.72,-253.02"/>
<text xml:space="preserve" text-anchor="middle" x="7172" y="-268.65" font-family="Helvetica,sans-Serif" font-size="7.00">blocked_by/blocking</text>
</g>
<!-- cool_ideas_WARP_causal_write_tracking -->
<g id="node50" class="node">
<title>cool_ideas_WARP_causal_write_tracking</title>
<path fill="#d4e8f7" stroke="black" d="M6793.05,-247.05C6793.05,-247.05 6682.95,-247.05 6682.95,-247.05 6678.75,-247.05 6674.55,-242.85 6674.55,-238.65 6674.55,-238.65 6674.55,-230.25 6674.55,-230.25 6674.55,-226.05 6678.75,-221.85 6682.95,-221.85 6682.95,-221.85 6793.05,-221.85 6793.05,-221.85 6797.25,-221.85 6801.45,-226.05 6801.45,-230.25 6801.45,-230.25 6801.45,-238.65 6801.45,-238.65 6801.45,-242.85 6797.25,-247.05 6793.05,-247.05"/>
<text xml:space="preserve" text-anchor="middle" x="6738" y="-231.35" font-family="Helvetica,sans-Serif" font-size="8.00">WARP&#45;causal&#45;write&#45;tracking &#45; L</text>
</g>
<!-- cool_ideas_WARP_agent_action_provenance&#45;&gt;cool_ideas_WARP_causal_write_tracking -->
<g id="edge4" class="edge">
<title>cool_ideas_WARP_agent_action_provenance&#45;&gt;cool_ideas_WARP_causal_write_tracking</title>
<path fill="none" stroke="#666666" d="M6985.31,-294.86C6974.97,-292.36 6964.13,-289.74 6954,-287.3 6899.86,-274.25 6838.08,-259.43 6794.49,-248.98"/>
<polygon fill="#666666" stroke="#666666" points="6794.94,-247.29 6789.67,-247.83 6794.12,-250.69 6794.94,-247.29"/>
<text xml:space="preserve" text-anchor="middle" x="6932.17" y="-268.65" font-family="Helvetica,sans-Serif" font-size="7.00">blocked_by/blocking</text>
</g>
<!-- cool_ideas_WARP_intent_and_decision_events -->
<g id="node60" class="node">
<title>cool_ideas_WARP_intent_and_decision_events</title>
<path fill="#d4e8f7" stroke="black" d="M6956.3,-247.05C6956.3,-247.05 6823.7,-247.05 6823.7,-247.05 6819.5,-247.05 6815.3,-242.85 6815.3,-238.65 6815.3,-238.65 6815.3,-230.25 6815.3,-230.25 6815.3,-226.05 6819.5,-221.85 6823.7,-221.85 6823.7,-221.85 6956.3,-221.85 6956.3,-221.85 6960.5,-221.85 6964.7,-226.05 6964.7,-230.25 6964.7,-230.25 6964.7,-238.65 6964.7,-238.65 6964.7,-242.85 6960.5,-247.05 6956.3,-247.05"/>
<text xml:space="preserve" text-anchor="middle" x="6890" y="-231.35" font-family="Helvetica,sans-Serif" font-size="8.00">WARP&#45;intent&#45;and&#45;decision&#45;events &#45; M</text>
</g>
<!-- cool_ideas_WARP_agent_action_provenance&#45;&gt;cool_ideas_WARP_intent_and_decision_events -->
<g id="edge5" class="edge">
<title>cool_ideas_WARP_agent_action_provenance&#45;&gt;cool_ideas_WARP_intent_and_decision_events</title>
<path fill="none" stroke="#666666" d="M7010.73,-294.94C6985.74,-282.63 6946.76,-263.42 6919.89,-250.18"/>
<polygon fill="#666666" stroke="#666666" points="6920.97,-248.76 6915.71,-248.12 6919.42,-251.9 6920.97,-248.76"/>
<text xml:space="preserve" text-anchor="middle" x="6998.35" y="-268.65" font-family="Helvetica,sans-Serif" font-size="7.00">blocked_by/blocking</text>
</g>
<!-- cool_ideas_WARP_provenance_dag -->
<g id="node65" class="node">
<title>cool_ideas_WARP_provenance_dag</title>
<path fill="#d4e8f7" stroke="black" d="M7082.55,-247.05C7082.55,-247.05 6987.45,-247.05 6987.45,-247.05 6983.25,-247.05 6979.05,-242.85 6979.05,-238.65 6979.05,-238.65 6979.05,-230.25 6979.05,-230.25 6979.05,-226.05 6983.25,-221.85 6987.45,-221.85 6987.45,-221.85 7082.55,-221.85 7082.55,-221.85 7086.75,-221.85 7090.95,-226.05 7090.95,-230.25 7090.95,-230.25 7090.95,-238.65 7090.95,-238.65 7090.95,-242.85 7086.75,-247.05 7082.55,-247.05"/>
<text xml:space="preserve" text-anchor="middle" x="7035" y="-231.35" font-family="Helvetica,sans-Serif" font-size="8.00">WARP&#45;provenance&#45;dag &#45; L</text>
</g>
<!-- cool_ideas_WARP_agent_action_provenance&#45;&gt;cool_ideas_WARP_provenance_dag -->
<g id="edge6" class="edge">
<title>cool_ideas_WARP_agent_action_provenance&#45;&gt;cool_ideas_WARP_provenance_dag</title>
<path fill="none" stroke="#666666" d="M7035,-295.1C7035,-283.9 7035,-266.88 7035,-253.88"/>
<polygon fill="#666666" stroke="#666666" points="7036.75,-254.02 7035,-249.02 7033.25,-254.02 7036.75,-254.02"/>
<text xml:space="preserve" text-anchor="middle" x="7066.5" y="-268.65" font-family="Helvetica,sans-Serif" font-size="7.00">blocked_by/blocking</text>
</g>
<!-- cool_ideas_WARP_auto_breaking_change_detection -->
<g id="node46" class="node">
<title>cool_ideas_WARP_auto_breaking_change_detection</title>
<path fill="#d4e8f7" stroke="black" d="M10147.3,-247.05C10147.3,-247.05 9996.7,-247.05 9996.7,-247.05 9992.5,-247.05 9988.3,-242.85 9988.3,-238.65 9988.3,-238.65 9988.3,-230.25 9988.3,-230.25 9988.3,-226.05 9992.5,-221.85 9996.7,-221.85 9996.7,-221.85 10147.3,-221.85 10147.3,-221.85 10151.5,-221.85 10155.7,-226.05 10155.7,-230.25 10155.7,-230.25 10155.7,-238.65 10155.7,-238.65 10155.7,-242.85 10151.5,-247.05 10147.3,-247.05"/>
<text xml:space="preserve" text-anchor="middle" x="10072" y="-231.35" font-family="Helvetica,sans-Serif" font-size="8.00">WARP&#45;auto&#45;breaking&#45;change&#45;detection &#45; L</text>
</g>
<!-- cool_ideas_WARP_budget_elasticity -->
<g id="node48" class="node">
<title>cool_ideas_WARP_budget_elasticity</title>
<path fill="#d4e8f7" stroke="black" d="M7226.93,-320.5C7226.93,-320.5 7131.07,-320.5 7131.07,-320.5 7126.88,-320.5 7122.68,-316.3 7122.68,-312.1 7122.68,-312.1 7122.68,-303.7 7122.68,-303.7 7122.68,-299.5 7126.88,-295.3 7131.07,-295.3 7131.07,-295.3 7226.93,-295.3 7226.93,-295.3 7231.12,-295.3 7235.32,-299.5 7235.32,-303.7 7235.32,-303.7 7235.32,-312.1 7235.32,-312.1 7235.32,-316.3 7231.12,-320.5 7226.93,-320.5"/>
<text xml:space="preserve" text-anchor="middle" x="7179" y="-304.8" font-family="Helvetica,sans-Serif" font-size="8.00">WARP&#45;budget&#45;elasticity &#45; M</text>
</g>
<!-- cool_ideas_WARP_causal_blame_for_staged_artifacts -->
<g id="node49" class="node">
<title>cool_ideas_WARP_causal_blame_for_staged_artifacts</title>
<path fill="#d4e8f7" stroke="black" d="M7186.18,-173.6C7186.18,-173.6 7031.82,-173.6 7031.82,-173.6 7027.62,-173.6 7023.43,-169.4 7023.43,-165.2 7023.43,-165.2 7023.43,-156.8 7023.43,-156.8 7023.43,-152.6 7027.62,-148.4 7031.82,-148.4 7031.82,-148.4 7186.18,-148.4 7186.18,-148.4 7190.38,-148.4 7194.57,-152.6 7194.57,-156.8 7194.57,-156.8 7194.57,-165.2 7194.57,-165.2 7194.57,-169.4 7190.38,-173.6 7186.18,-173.6"/>
<text xml:space="preserve" text-anchor="middle" x="7109" y="-157.9" font-family="Helvetica,sans-Serif" font-size="8.00">WARP&#45;causal&#45;blame&#45;for&#45;staged&#45;artifacts &#45; L</text>
</g>
<!-- cool_ideas_WARP_codebase_entropy_trajectory -->
<g id="node51" class="node">
<title>cool_ideas_WARP_codebase_entropy_trajectory</title>
<path fill="#d4e8f7" stroke="black" d="M7396.68,-320.5C7396.68,-320.5 7257.32,-320.5 7257.32,-320.5 7253.12,-320.5 7248.93,-316.3 7248.93,-312.1 7248.93,-312.1 7248.93,-303.7 7248.93,-303.7 7248.93,-299.5 7253.12,-295.3 7257.32,-295.3 7257.32,-295.3 7396.68,-295.3 7396.68,-295.3 7400.88,-295.3 7405.07,-299.5 7405.07,-303.7 7405.07,-303.7 7405.07,-312.1 7405.07,-312.1 7405.07,-316.3 7400.88,-320.5 7396.68,-320.5"/>
<text xml:space="preserve" text-anchor="middle" x="7327" y="-304.8" font-family="Helvetica,sans-Serif" font-size="8.00">WARP&#45;codebase&#45;entropy&#45;trajectory &#45; M</text>
</g>
<!-- cool_ideas_WARP_counterfactual_refactoring -->
<g id="node53" class="node">
<title>cool_ideas_WARP_counterfactual_refactoring</title>
<path fill="#d4e8f7" stroke="black" d="M7404.68,-247.05C7404.68,-247.05 7271.32,-247.05 7271.32,-247.05 7267.12,-247.05 7262.93,-242.85 7262.93,-238.65 7262.93,-238.65 7262.93,-230.25 7262.93,-230.25 7262.93,-226.05 7267.12,-221.85 7271.32,-221.85 7271.32,-221.85 7404.68,-221.85 7404.68,-221.85 7408.88,-221.85 7413.07,-226.05 7413.07,-230.25 7413.07,-230.25 7413.07,-238.65 7413.07,-238.65 7413.07,-242.85 7408.88,-247.05 7404.68,-247.05"/>
<text xml:space="preserve" text-anchor="middle" x="7338" y="-231.35" font-family="Helvetica,sans-Serif" font-size="8.00">WARP&#45;counterfactual&#45;refactoring &#45; XL</text>
</g>
<!-- cool_ideas_WARP_codebase_entropy_trajectory&#45;&gt;cool_ideas_WARP_counterfactual_refactoring -->
<g id="edge7" class="edge">
<title>cool_ideas_WARP_codebase_entropy_trajectory&#45;&gt;cool_ideas_WARP_counterfactual_refactoring</title>
<path fill="none" stroke="#666666" d="M7328.82,-295.1C7330.54,-283.9 7333.16,-266.88 7335.16,-253.88"/>
<polygon fill="#666666" stroke="#666666" points="7336.88,-254.21 7335.91,-249 7333.42,-253.68 7336.88,-254.21"/>
<text xml:space="preserve" text-anchor="middle" x="7364.33" y="-268.65" font-family="Helvetica,sans-Serif" font-size="7.00">blocked_by/blocking</text>
</g>
<!-- cool_ideas_WARP_codebase_signature -->
<g id="node52" class="node">
<title>cool_ideas_WARP_codebase_signature</title>
<path fill="#d4e8f7" stroke="black" d="M7534.55,-320.5C7534.55,-320.5 7427.45,-320.5 7427.45,-320.5 7423.25,-320.5 7419.05,-316.3 7419.05,-312.1 7419.05,-312.1 7419.05,-303.7 7419.05,-303.7 7419.05,-299.5 7423.25,-295.3 7427.45,-295.3 7427.45,-295.3 7534.55,-295.3 7534.55,-295.3 7538.75,-295.3 7542.95,-299.5 7542.95,-303.7 7542.95,-303.7 7542.95,-312.1 7542.95,-312.1 7542.95,-316.3 7538.75,-320.5 7534.55,-320.5"/>
<text xml:space="preserve" text-anchor="middle" x="7481" y="-304.8" font-family="Helvetica,sans-Serif" font-size="8.00">WARP&#45;codebase&#45;signature &#45; L</text>
</g>
<!-- cool_ideas_WARP_structural_impact_prediction -->
<g id="node75" class="node">
<title>cool_ideas_WARP_structural_impact_prediction</title>
<path fill="#d4e8f7" stroke="black" d="M7407.3,-173.6C7407.3,-173.6 7268.7,-173.6 7268.7,-173.6 7264.5,-173.6 7260.3,-169.4 7260.3,-165.2 7260.3,-165.2 7260.3,-156.8 7260.3,-156.8 7260.3,-152.6 7264.5,-148.4 7268.7,-148.4 7268.7,-148.4 7407.3,-148.4 7407.3,-148.4 7411.5,-148.4 7415.7,-152.6 7415.7,-156.8 7415.7,-156.8 7415.7,-165.2 7415.7,-165.2 7415.7,-169.4 7411.5,-173.6 7407.3,-173.6"/>
<text xml:space="preserve" text-anchor="middle" x="7338" y="-157.9" font-family="Helvetica,sans-Serif" font-size="8.00">WARP&#45;structural&#45;impact&#45;prediction &#45; XL</text>
</g>
<!-- cool_ideas_WARP_counterfactual_refactoring&#45;&gt;cool_ideas_WARP_structural_impact_prediction -->
<g id="edge8" class="edge">
<title>cool_ideas_WARP_counterfactual_refactoring&#45;&gt;cool_ideas_WARP_structural_impact_prediction</title>
<path fill="none" stroke="#666666" d="M7338,-221.65C7338,-210.45 7338,-193.43 7338,-180.43"/>
<polygon fill="#666666" stroke="#666666" points="7339.75,-180.57 7338,-175.57 7336.25,-180.57 7339.75,-180.57"/>
<text xml:space="preserve" text-anchor="middle" x="7369.5" y="-195.2" font-family="Helvetica,sans-Serif" font-size="7.00">blocked_by/blocking</text>
</g>
<!-- cool_ideas_WARP_dead_symbol_detection -->
<g id="node54" class="node">
<title>cool_ideas_WARP_dead_symbol_detection</title>
<path fill="#d4e8f7" stroke="black" d="M7684.18,-320.5C7684.18,-320.5 7565.82,-320.5 7565.82,-320.5 7561.62,-320.5 7557.43,-316.3 7557.43,-312.1 7557.43,-312.1 7557.43,-303.7 7557.43,-303.7 7557.43,-299.5 7561.62,-295.3 7565.82,-295.3 7565.82,-295.3 7684.18,-295.3 7684.18,-295.3 7688.38,-295.3 7692.57,-299.5 7692.57,-303.7 7692.57,-303.7 7692.57,-312.1 7692.57,-312.1 7692.57,-316.3 7688.38,-320.5 7684.18,-320.5"/>
<text xml:space="preserve" text-anchor="middle" x="7625" y="-304.8" font-family="Helvetica,sans-Serif" font-size="8.00">WARP&#45;dead&#45;symbol&#45;detection &#45; S</text>
</g>
<!-- cool_ideas_WARP_degeneracy_warning -->
<g id="node55" class="node">
<title>cool_ideas_WARP_degeneracy_warning</title>
<path fill="#d4e8f7" stroke="black" d="M7827.18,-320.5C7827.18,-320.5 7714.82,-320.5 7714.82,-320.5 7710.62,-320.5 7706.43,-316.3 7706.43,-312.1 7706.43,-312.1 7706.43,-303.7 7706.43,-303.7 7706.43,-299.5 7710.62,-295.3 7714.82,-295.3 7714.82,-295.3 7827.18,-295.3 7827.18,-295.3 7831.38,-295.3 7835.57,-299.5 7835.57,-303.7 7835.57,-303.7 7835.57,-312.1 7835.57,-312.1 7835.57,-316.3 7831.38,-320.5 7827.18,-320.5"/>
<text xml:space="preserve" text-anchor="middle" x="7771" y="-304.8" font-family="Helvetica,sans-Serif" font-size="8.00">WARP&#45;degeneracy&#45;warning &#45; M</text>
</g>
<!-- cool_ideas_WARP_drift_sentinel -->
<g id="node56" class="node">
<title>cool_ideas_WARP_drift_sentinel</title>
<path fill="#d4e8f7" stroke="black" d="M9740.18,-247.05C9740.18,-247.05 9657.82,-247.05 9657.82,-247.05 9653.62,-247.05 9649.42,-242.85 9649.42,-238.65 9649.42,-238.65 9649.42,-230.25 9649.42,-230.25 9649.42,-226.05 9653.62,-221.85 9657.82,-221.85 9657.82,-221.85 9740.18,-221.85 9740.18,-221.85 9744.38,-221.85 9748.58,-226.05 9748.58,-230.25 9748.58,-230.25 9748.58,-238.65 9748.58,-238.65 9748.58,-242.85 9744.38,-247.05 9740.18,-247.05"/>
<text xml:space="preserve" text-anchor="middle" x="9699" y="-231.35" font-family="Helvetica,sans-Serif" font-size="8.00">WARP&#45;drift&#45;sentinel &#45; M</text>
</g>
<!-- cool_ideas_WARP_footprint_parallelism -->
<g id="node57" class="node">
<title>cool_ideas_WARP_footprint_parallelism</title>
<path fill="#d4e8f7" stroke="black" d="M7969.8,-320.5C7969.8,-320.5 7858.2,-320.5 7858.2,-320.5 7854,-320.5 7849.8,-316.3 7849.8,-312.1 7849.8,-312.1 7849.8,-303.7 7849.8,-303.7 7849.8,-299.5 7854,-295.3 7858.2,-295.3 7858.2,-295.3 7969.8,-295.3 7969.8,-295.3 7974,-295.3 7978.2,-299.5 7978.2,-303.7 7978.2,-303.7 7978.2,-312.1 7978.2,-312.1 7978.2,-316.3 7974,-320.5 7969.8,-320.5"/>
<text xml:space="preserve" text-anchor="middle" x="7914" y="-304.8" font-family="Helvetica,sans-Serif" font-size="8.00">WARP&#45;footprint&#45;parallelism &#45; XL</text>
</g>
<!-- cool_ideas_WARP_graft_pack -->
<g id="node58" class="node">
<title>cool_ideas_WARP_graft_pack</title>
<path fill="#d4e8f7" stroke="black" d="M8075.43,-320.5C8075.43,-320.5 8000.57,-320.5 8000.57,-320.5 7996.38,-320.5 7992.18,-316.3 7992.18,-312.1 7992.18,-312.1 7992.18,-303.7 7992.18,-303.7 7992.18,-299.5 7996.38,-295.3 8000.57,-295.3 8000.57,-295.3 8075.43,-295.3 8075.43,-295.3 8079.62,-295.3 8083.82,-299.5 8083.82,-303.7 8083.82,-303.7 8083.82,-312.1 8083.82,-312.1 8083.82,-316.3 8079.62,-320.5 8075.43,-320.5"/>
<text xml:space="preserve" text-anchor="middle" x="8038" y="-304.8" font-family="Helvetica,sans-Serif" font-size="8.00">WARP&#45;graft&#45;pack &#45; M</text>
</g>
<!-- cool_ideas_WARP_grouped_aggregate_queries -->
<g id="node59" class="node">
<title>cool_ideas_WARP_grouped_aggregate_queries</title>
<path fill="#d4e8f7" stroke="black" d="M8243.93,-320.5C8243.93,-320.5 8106.07,-320.5 8106.07,-320.5 8101.88,-320.5 8097.68,-316.3 8097.68,-312.1 8097.68,-312.1 8097.68,-303.7 8097.68,-303.7 8097.68,-299.5 8101.88,-295.3 8106.07,-295.3 8106.07,-295.3 8243.93,-295.3 8243.93,-295.3 8248.12,-295.3 8252.33,-299.5 8252.33,-303.7 8252.33,-303.7 8252.33,-312.1 8252.33,-312.1 8252.33,-316.3 8248.12,-320.5 8243.93,-320.5"/>
<text xml:space="preserve" text-anchor="middle" x="8175" y="-304.8" font-family="Helvetica,sans-Serif" font-size="8.00">WARP&#45;grouped&#45;aggregate&#45;queries &#45; M</text>
</g>
<!-- cool_ideas_WARP_intentional_degeneracy_privacy -->
<g id="node61" class="node">
<title>cool_ideas_WARP_intentional_degeneracy_privacy</title>
<path fill="#d4e8f7" stroke="black" d="M8422.8,-320.5C8422.8,-320.5 8275.2,-320.5 8275.2,-320.5 8271,-320.5 8266.8,-316.3 8266.8,-312.1 8266.8,-312.1 8266.8,-303.7 8266.8,-303.7 8266.8,-299.5 8271,-295.3 8275.2,-295.3 8275.2,-295.3 8422.8,-295.3 8422.8,-295.3 8427,-295.3 8431.2,-299.5 8431.2,-303.7 8431.2,-303.7 8431.2,-312.1 8431.2,-312.1 8431.2,-316.3 8427,-320.5 8422.8,-320.5"/>
<text xml:space="preserve" text-anchor="middle" x="8349" y="-304.8" font-family="Helvetica,sans-Serif" font-size="8.00">WARP&#45;intentional&#45;degeneracy&#45;privacy &#45; M</text>
</g>
<!-- cool_ideas_WARP_minimum_viable_context -->
<g id="node62" class="node">
<title>cool_ideas_WARP_minimum_viable_context</title>
<path fill="#d4e8f7" stroke="black" d="M8576.43,-320.5C8576.43,-320.5 8453.57,-320.5 8453.57,-320.5 8449.38,-320.5 8445.17,-316.3 8445.17,-312.1 8445.17,-312.1 8445.17,-303.7 8445.17,-303.7 8445.17,-299.5 8449.38,-295.3 8453.57,-295.3 8453.57,-295.3 8576.43,-295.3 8576.43,-295.3 8580.62,-295.3 8584.83,-299.5 8584.83,-303.7 8584.83,-303.7 8584.83,-312.1 8584.83,-312.1 8584.83,-316.3 8580.62,-320.5 8576.43,-320.5"/>
<text xml:space="preserve" text-anchor="middle" x="8515" y="-304.8" font-family="Helvetica,sans-Serif" font-size="8.00">WARP&#45;minimum&#45;viable&#45;context &#45; M</text>
</g>
<!-- cool_ideas_WARP_outline_diff_commit_trailer -->
<g id="node63" class="node">
<title>cool_ideas_WARP_outline_diff_commit_trailer</title>
<path fill="#d4e8f7" stroke="black" d="M8732.93,-320.5C8732.93,-320.5 8607.07,-320.5 8607.07,-320.5 8602.88,-320.5 8598.67,-316.3 8598.67,-312.1 8598.67,-312.1 8598.67,-303.7 8598.67,-303.7 8598.67,-299.5 8602.88,-295.3 8607.07,-295.3 8607.07,-295.3 8732.93,-295.3 8732.93,-295.3 8737.12,-295.3 8741.33,-299.5 8741.33,-303.7 8741.33,-303.7 8741.33,-312.1 8741.33,-312.1 8741.33,-316.3 8737.12,-320.5 8732.93,-320.5"/>
<text xml:space="preserve" text-anchor="middle" x="8670" y="-304.8" font-family="Helvetica,sans-Serif" font-size="8.00">WARP&#45;outline&#45;diff&#45;commit&#45;trailer &#45; S</text>
</g>
<!-- cool_ideas_WARP_projection_safety_classes -->
<g id="node64" class="node">
<title>cool_ideas_WARP_projection_safety_classes</title>
<path fill="#d4e8f7" stroke="black" d="M8889.93,-320.5C8889.93,-320.5 8764.07,-320.5 8764.07,-320.5 8759.88,-320.5 8755.67,-316.3 8755.67,-312.1 8755.67,-312.1 8755.67,-303.7 8755.67,-303.7 8755.67,-299.5 8759.88,-295.3 8764.07,-295.3 8764.07,-295.3 8889.93,-295.3 8889.93,-295.3 8894.12,-295.3 8898.33,-299.5 8898.33,-303.7 8898.33,-303.7 8898.33,-312.1 8898.33,-312.1 8898.33,-316.3 8894.12,-320.5 8889.93,-320.5"/>
<text xml:space="preserve" text-anchor="middle" x="8827" y="-304.8" font-family="Helvetica,sans-Serif" font-size="8.00">WARP&#45;projection&#45;safety&#45;classes &#45; M</text>
</g>
<!-- cool_ideas_WARP_provenance_dag&#45;&gt;cool_ideas_WARP_causal_blame_for_staged_artifacts -->
<g id="edge9" class="edge">
<title>cool_ideas_WARP_provenance_dag&#45;&gt;cool_ideas_WARP_causal_blame_for_staged_artifacts</title>
<path fill="none" stroke="#666666" d="M7047.22,-221.65C7059.46,-209.83 7078.41,-191.54 7092.09,-178.32"/>
<polygon fill="#666666" stroke="#666666" points="7093.04,-179.84 7095.43,-175.11 7090.61,-177.32 7093.04,-179.84"/>
<text xml:space="preserve" text-anchor="middle" x="7105.72" y="-195.2" font-family="Helvetica,sans-Serif" font-size="7.00">blocked_by/blocking</text>
</g>
<!-- cool_ideas_WARP_reasoning_trace_replay -->
<g id="node66" class="node">
<title>cool_ideas_WARP_reasoning_trace_replay</title>
<path fill="#d4e8f7" stroke="black" d="M7000.93,-173.6C7000.93,-173.6 6881.07,-173.6 6881.07,-173.6 6876.88,-173.6 6872.68,-169.4 6872.68,-165.2 6872.68,-165.2 6872.68,-156.8 6872.68,-156.8 6872.68,-152.6 6876.88,-148.4 6881.07,-148.4 6881.07,-148.4 7000.93,-148.4 7000.93,-148.4 7005.12,-148.4 7009.32,-152.6 7009.32,-156.8 7009.32,-156.8 7009.32,-165.2 7009.32,-165.2 7009.32,-169.4 7005.12,-173.6 7000.93,-173.6"/>
<text xml:space="preserve" text-anchor="middle" x="6941" y="-157.9" font-family="Helvetica,sans-Serif" font-size="8.00">WARP&#45;reasoning&#45;trace&#45;replay &#45; M</text>
</g>
<!-- cool_ideas_WARP_provenance_dag&#45;&gt;cool_ideas_WARP_reasoning_trace_replay -->
<g id="edge10" class="edge">
<title>cool_ideas_WARP_provenance_dag&#45;&gt;cool_ideas_WARP_reasoning_trace_replay</title>
<path fill="none" stroke="#666666" d="M7019.48,-221.65C7003.79,-209.73 6979.44,-191.22 6962.02,-177.98"/>
<polygon fill="#666666" stroke="#666666" points="6963.1,-176.6 6958.06,-174.97 6960.99,-179.39 6963.1,-176.6"/>
<text xml:space="preserve" text-anchor="middle" x="7022.32" y="-195.2" font-family="Helvetica,sans-Serif" font-size="7.00">blocked_by/blocking</text>
</g>
<!-- cool_ideas_WARP_rulial_heat_map -->
<g id="node67" class="node">
<title>cool_ideas_WARP_rulial_heat_map</title>
<path fill="#d4e8f7" stroke="black" d="M9011.3,-320.5C9011.3,-320.5 8920.7,-320.5 8920.7,-320.5 8916.5,-320.5 8912.3,-316.3 8912.3,-312.1 8912.3,-312.1 8912.3,-303.7 8912.3,-303.7 8912.3,-299.5 8916.5,-295.3 8920.7,-295.3 8920.7,-295.3 9011.3,-295.3 9011.3,-295.3 9015.5,-295.3 9019.7,-299.5 9019.7,-303.7 9019.7,-303.7 9019.7,-312.1 9019.7,-312.1 9019.7,-316.3 9015.5,-320.5 9011.3,-320.5"/>
<text xml:space="preserve" text-anchor="middle" x="8966" y="-304.8" font-family="Helvetica,sans-Serif" font-size="8.00">WARP&#45;rulial&#45;heat&#45;map &#45; L</text>
</g>
<!-- cool_ideas_WARP_semantic_drift_in_sessions -->
<g id="node68" class="node">
<title>cool_ideas_WARP_semantic_drift_in_sessions</title>
<path fill="#d4e8f7" stroke="black" d="M9171.43,-320.5C9171.43,-320.5 9042.57,-320.5 9042.57,-320.5 9038.38,-320.5 9034.17,-316.3 9034.17,-312.1 9034.17,-312.1 9034.17,-303.7 9034.17,-303.7 9034.17,-299.5 9038.38,-295.3 9042.57,-295.3 9042.57,-295.3 9171.43,-295.3 9171.43,-295.3 9175.62,-295.3 9179.83,-299.5 9179.83,-303.7 9179.83,-303.7 9179.83,-312.1 9179.83,-312.1 9179.83,-316.3 9175.62,-320.5 9171.43,-320.5"/>
<text xml:space="preserve" text-anchor="middle" x="9107" y="-304.8" font-family="Helvetica,sans-Serif" font-size="8.00">WARP&#45;semantic&#45;drift&#45;in&#45;sessions &#45; M</text>
</g>
<!-- cool_ideas_WARP_semantic_merge_conflict_prediction -->
<g id="node69" class="node">
<title>cool_ideas_WARP_semantic_merge_conflict_prediction</title>
<path fill="#d4e8f7" stroke="black" d="M10337.43,-247.05C10337.43,-247.05 10178.57,-247.05 10178.57,-247.05 10174.38,-247.05 10170.17,-242.85 10170.17,-238.65 10170.17,-238.65 10170.17,-230.25 10170.17,-230.25 10170.17,-226.05 10174.38,-221.85 10178.57,-221.85 10178.57,-221.85 10337.43,-221.85 10337.43,-221.85 10341.62,-221.85 10345.83,-226.05 10345.83,-230.25 10345.83,-230.25 10345.83,-238.65 10345.83,-238.65 10345.83,-242.85 10341.62,-247.05 10337.43,-247.05"/>
<text xml:space="preserve" text-anchor="middle" x="10258" y="-231.35" font-family="Helvetica,sans-Serif" font-size="8.00">WARP&#45;semantic&#45;merge&#45;conflict&#45;prediction &#45; L</text>
</g>
<!-- cool_ideas_WARP_session_filtration -->
<g id="node70" class="node">
<title>cool_ideas_WARP_session_filtration</title>
<path fill="#d4e8f7" stroke="black" d="M9295.8,-320.5C9295.8,-320.5 9202.2,-320.5 9202.2,-320.5 9198,-320.5 9193.8,-316.3 9193.8,-312.1 9193.8,-312.1 9193.8,-303.7 9193.8,-303.7 9193.8,-299.5 9198,-295.3 9202.2,-295.3 9202.2,-295.3 9295.8,-295.3 9295.8,-295.3 9300,-295.3 9304.2,-299.5 9304.2,-303.7 9304.2,-303.7 9304.2,-312.1 9304.2,-312.1 9304.2,-316.3 9300,-320.5 9295.8,-320.5"/>
<text xml:space="preserve" text-anchor="middle" x="9249" y="-304.8" font-family="Helvetica,sans-Serif" font-size="8.00">WARP&#45;session&#45;filtration &#45; L</text>
</g>
<!-- cool_ideas_WARP_shadow_structural_workspaces -->
<g id="node71" class="node">
<title>cool_ideas_WARP_shadow_structural_workspaces</title>
<path fill="#d4e8f7" stroke="black" d="M9477.3,-320.5C9477.3,-320.5 9326.7,-320.5 9326.7,-320.5 9322.5,-320.5 9318.3,-316.3 9318.3,-312.1 9318.3,-312.1 9318.3,-303.7 9318.3,-303.7 9318.3,-299.5 9322.5,-295.3 9326.7,-295.3 9326.7,-295.3 9477.3,-295.3 9477.3,-295.3 9481.5,-295.3 9485.7,-299.5 9485.7,-303.7 9485.7,-303.7 9485.7,-312.1 9485.7,-312.1 9485.7,-316.3 9481.5,-320.5 9477.3,-320.5"/>
<text xml:space="preserve" text-anchor="middle" x="9402" y="-304.8" font-family="Helvetica,sans-Serif" font-size="8.00">WARP&#45;shadow&#45;structural&#45;workspaces &#45; XL</text>
</g>
<!-- cool_ideas_WARP_speculative_merge -->
<g id="node72" class="node">
<title>cool_ideas_WARP_speculative_merge</title>
<path fill="#d4e8f7" stroke="black" d="M9615.55,-320.5C9615.55,-320.5 9508.45,-320.5 9508.45,-320.5 9504.25,-320.5 9500.05,-316.3 9500.05,-312.1 9500.05,-312.1 9500.05,-303.7 9500.05,-303.7 9500.05,-299.5 9504.25,-295.3 9508.45,-295.3 9508.45,-295.3 9615.55,-295.3 9615.55,-295.3 9619.75,-295.3 9623.95,-299.5 9623.95,-303.7 9623.95,-303.7 9623.95,-312.1 9623.95,-312.1 9623.95,-316.3 9619.75,-320.5 9615.55,-320.5"/>
<text xml:space="preserve" text-anchor="middle" x="9562" y="-304.8" font-family="Helvetica,sans-Serif" font-size="8.00">WARP&#45;speculative&#45;merge &#45; XL</text>
</g>
<!-- cool_ideas_WARP_stale_docs_checker -->
<g id="node73" class="node">
<title>cool_ideas_WARP_stale_docs_checker</title>
<path fill="#d4e8f7" stroke="black" d="M9751.8,-320.5C9751.8,-320.5 9646.2,-320.5 9646.2,-320.5 9642,-320.5 9637.8,-316.3 9637.8,-312.1 9637.8,-312.1 9637.8,-303.7 9637.8,-303.7 9637.8,-299.5 9642,-295.3 9646.2,-295.3 9646.2,-295.3 9751.8,-295.3 9751.8,-295.3 9756,-295.3 9760.2,-299.5 9760.2,-303.7 9760.2,-303.7 9760.2,-312.1 9760.2,-312.1 9760.2,-316.3 9756,-320.5 9751.8,-320.5"/>
<text xml:space="preserve" text-anchor="middle" x="9699" y="-304.8" font-family="Helvetica,sans-Serif" font-size="8.00">WARP&#45;stale&#45;docs&#45;checker &#45; M</text>
</g>
<!-- cool_ideas_WARP_stale_docs_checker&#45;&gt;cool_ideas_WARP_drift_sentinel -->
<g id="edge11" class="edge">
<title>cool_ideas_WARP_stale_docs_checker&#45;&gt;cool_ideas_WARP_drift_sentinel</title>
<path fill="none" stroke="#666666" d="M9699,-295.1C9699,-283.9 9699,-266.88 9699,-253.88"/>
<polygon fill="#666666" stroke="#666666" points="9700.75,-254.02 9699,-249.02 9697.25,-254.02 9700.75,-254.02"/>
<text xml:space="preserve" text-anchor="middle" x="9730.5" y="-268.65" font-family="Helvetica,sans-Serif" font-size="7.00">blocked_by/blocking</text>
</g>
<!-- cool_ideas_WARP_structural_drift_detection -->
<g id="node74" class="node">
<title>cool_ideas_WARP_structural_drift_detection</title>
<path fill="#d4e8f7" stroke="black" d="M9905.8,-320.5C9905.8,-320.5 9782.2,-320.5 9782.2,-320.5 9778,-320.5 9773.8,-316.3 9773.8,-312.1 9773.8,-312.1 9773.8,-303.7 9773.8,-303.7 9773.8,-299.5 9778,-295.3 9782.2,-295.3 9782.2,-295.3 9905.8,-295.3 9905.8,-295.3 9910,-295.3 9914.2,-299.5 9914.2,-303.7 9914.2,-303.7 9914.2,-312.1 9914.2,-312.1 9914.2,-316.3 9910,-320.5 9905.8,-320.5"/>
<text xml:space="preserve" text-anchor="middle" x="9844" y="-304.8" font-family="Helvetica,sans-Serif" font-size="8.00">WARP&#45;structural&#45;drift&#45;detection &#45; M</text>
</g>
<!-- cool_ideas_WARP_symbol_heatmap -->
<g id="node76" class="node">
<title>cool_ideas_WARP_symbol_heatmap</title>
<path fill="#d4e8f7" stroke="black" d="M10035.05,-320.5C10035.05,-320.5 9936.95,-320.5 9936.95,-320.5 9932.75,-320.5 9928.55,-316.3 9928.55,-312.1 9928.55,-312.1 9928.55,-303.7 9928.55,-303.7 9928.55,-299.5 9932.75,-295.3 9936.95,-295.3 9936.95,-295.3 10035.05,-295.3 10035.05,-295.3 10039.25,-295.3 10043.45,-299.5 10043.45,-303.7 10043.45,-303.7 10043.45,-312.1 10043.45,-312.1 10043.45,-316.3 10039.25,-320.5 10035.05,-320.5"/>
<text xml:space="preserve" text-anchor="middle" x="9986" y="-304.8" font-family="Helvetica,sans-Serif" font-size="8.00">WARP&#45;symbol&#45;heatmap &#45; M</text>
</g>
<!-- cool_ideas_WARP_symbol_history_timeline -->
<g id="node77" class="node">
<title>cool_ideas_WARP_symbol_history_timeline</title>
<path fill="#d4e8f7" stroke="black" d="M10184.18,-320.5C10184.18,-320.5 10065.82,-320.5 10065.82,-320.5 10061.62,-320.5 10057.42,-316.3 10057.42,-312.1 10057.42,-312.1 10057.42,-303.7 10057.42,-303.7 10057.42,-299.5 10061.62,-295.3 10065.82,-295.3 10065.82,-295.3 10184.18,-295.3 10184.18,-295.3 10188.38,-295.3 10192.58,-299.5 10192.58,-303.7 10192.58,-303.7 10192.58,-312.1 10192.58,-312.1 10192.58,-316.3 10188.38,-320.5 10184.18,-320.5"/>
<text xml:space="preserve" text-anchor="middle" x="10125" y="-304.8" font-family="Helvetica,sans-Serif" font-size="8.00">WARP&#45;symbol&#45;history&#45;timeline &#45; S</text>
</g>
<!-- cool_ideas_WARP_temporal_structural_search -->
<g id="node79" class="node">
<title>cool_ideas_WARP_temporal_structural_search</title>
<path fill="#d4e8f7" stroke="black" d="M9965.68,-247.05C9965.68,-247.05 9832.32,-247.05 9832.32,-247.05 9828.12,-247.05 9823.92,-242.85 9823.92,-238.65 9823.92,-238.65 9823.92,-230.25 9823.92,-230.25 9823.92,-226.05 9828.12,-221.85 9832.32,-221.85 9832.32,-221.85 9965.68,-221.85 9965.68,-221.85 9969.88,-221.85 9974.08,-226.05 9974.08,-230.25 9974.08,-230.25 9974.08,-238.65 9974.08,-238.65 9974.08,-242.85 9969.88,-247.05 9965.68,-247.05"/>
<text xml:space="preserve" text-anchor="middle" x="9899" y="-231.35" font-family="Helvetica,sans-Serif" font-size="8.00">WARP&#45;temporal&#45;structural&#45;search &#45; M</text>
</g>
<!-- cool_ideas_WARP_symbol_history_timeline&#45;&gt;cool_ideas_WARP_temporal_structural_search -->
<g id="edge12" class="edge">
<title>cool_ideas_WARP_symbol_history_timeline&#45;&gt;cool_ideas_WARP_temporal_structural_search</title>
<path fill="none" stroke="#666666" d="M10086.92,-294.86C10047.23,-282.31 9985.1,-262.67 9943.26,-249.44"/>
<polygon fill="#666666" stroke="#666666" points="9943.98,-247.83 9938.68,-248 9942.92,-251.17 9943.98,-247.83"/>
<text xml:space="preserve" text-anchor="middle" x="10050.28" y="-268.65" font-family="Helvetica,sans-Serif" font-size="7.00">blocked_by/blocking</text>
</g>
<!-- cool_ideas_WARP_technical_debt_curvature -->
<g id="node78" class="node">
<title>cool_ideas_WARP_technical_debt_curvature</title>
<path fill="#d4e8f7" stroke="black" d="M10337.43,-320.5C10337.43,-320.5 10214.57,-320.5 10214.57,-320.5 10210.38,-320.5 10206.17,-316.3 10206.17,-312.1 10206.17,-312.1 10206.17,-303.7 10206.17,-303.7 10206.17,-299.5 10210.38,-295.3 10214.57,-295.3 10214.57,-295.3 10337.43,-295.3 10337.43,-295.3 10341.62,-295.3 10345.83,-299.5 10345.83,-303.7 10345.83,-303.7 10345.83,-312.1 10345.83,-312.1 10345.83,-316.3 10341.62,-320.5 10337.43,-320.5"/>
<text xml:space="preserve" text-anchor="middle" x="10276" y="-304.8" font-family="Helvetica,sans-Serif" font-size="8.00">WARP&#45;technical&#45;debt&#45;curvature &#45; L</text>
</g>
<!-- external_git_warp_observer_geometry_ladder__Rung_2_4_ -->
<g id="node80" class="node">
<title>external_git_warp_observer_geometry_ladder__Rung_2_4_</title>
<path fill="#e8f2ff" stroke="black" d="M345.67,-320.5C345.67,-320.5 182.33,-320.5 182.33,-320.5 178.13,-320.5 173.93,-316.3 173.93,-312.1 173.93,-312.1 173.93,-303.7 173.93,-303.7 173.93,-299.5 178.13,-295.3 182.33,-295.3 182.33,-295.3 345.67,-295.3 345.67,-295.3 349.88,-295.3 354.07,-299.5 354.07,-303.7 354.07,-303.7 354.07,-312.1 354.07,-312.1 354.07,-316.3 349.88,-320.5 345.67,-320.5"/>
<text xml:space="preserve" text-anchor="middle" x="264" y="-304.8" font-family="Helvetica,sans-Serif" font-size="8.00">git&#45;warp observer geometry ladder (Rung 2&#45;4)</text>
</g>
<!-- external_git_warp_observer_geometry_ladder__Rung_2_4_&#45;&gt;v0_7_0_CORE_migrate_to_slice_first_reads -->
<g id="edge13" class="edge">
<title>external_git_warp_observer_geometry_ladder__Rung_2_4_&#45;&gt;v0_7_0_CORE_migrate_to_slice_first_reads</title>
<path fill="none" stroke="#4477aa" stroke-dasharray="5,2" d="M233.7,-294.94C202.5,-282.62 153.82,-263.41 120.28,-250.16"/>
<polygon fill="#4477aa" stroke="#4477aa" points="121.31,-248.69 116.02,-248.48 120.03,-251.95 121.31,-248.69"/>
<text xml:space="preserve" text-anchor="middle" x="210.8" y="-268.65" font-family="Helvetica,sans-Serif" font-size="7.00">blocked_by_external</text>
</g>
<!-- unresolved_CLEAN_CODE_export_diff_semver_signature_as_patch -->
<g id="node81" class="node">
<title>unresolved_CLEAN_CODE_export_diff_semver_signature_as_patch</title>
<path fill="#f2f2f2" stroke="black" stroke-dasharray="5,2" d="M10601.3,-320.5C10601.3,-320.5 10378.7,-320.5 10378.7,-320.5 10374.5,-320.5 10370.3,-316.3 10370.3,-312.1 10370.3,-312.1 10370.3,-303.7 10370.3,-303.7 10370.3,-299.5 10374.5,-295.3 10378.7,-295.3 10378.7,-295.3 10601.3,-295.3 10601.3,-295.3 10605.5,-295.3 10609.7,-299.5 10609.7,-303.7 10609.7,-303.7 10609.7,-312.1 10609.7,-312.1 10609.7,-316.3 10605.5,-320.5 10601.3,-320.5"/>
<text xml:space="preserve" text-anchor="middle" x="10490" y="-304.8" font-family="Helvetica,sans-Serif" font-size="8.00">missing: CLEAN_CODE_export&#45;diff&#45;semver&#45;signature&#45;as&#45;patch</text>
</g>
<!-- unresolved_CLEAN_CODE_export_diff_semver_signature_as_patch&#45;&gt;cool_ideas_WARP_auto_breaking_change_detection -->
<g id="edge14" class="edge">
<title>unresolved_CLEAN_CODE_export_diff_semver_signature_as_patch&#45;&gt;cool_ideas_WARP_auto_breaking_change_detection</title>
<path fill="none" stroke="#cc3333" stroke-dasharray="5,2" d="M10419.56,-294.86C10344.51,-282.03 10226.05,-261.78 10148.69,-248.56"/>
<polygon fill="#cc3333" stroke="#cc3333" points="10149.44,-246.91 10144.22,-247.79 10148.85,-250.36 10149.44,-246.91"/>
<text xml:space="preserve" text-anchor="middle" x="10311.16" y="-268.65" font-family="Helvetica,sans-Serif" font-size="7.00">blocked_by</text>
</g>
<!-- unresolved_CLEAN_CODE_export_diff_semver_signature_as_patch&#45;&gt;cool_ideas_WARP_semantic_merge_conflict_prediction -->
<g id="edge15" class="edge">
<title>unresolved_CLEAN_CODE_export_diff_semver_signature_as_patch&#45;&gt;cool_ideas_WARP_semantic_merge_conflict_prediction</title>
<path fill="none" stroke="#cc3333" stroke-dasharray="5,2" d="M10450.91,-294.86C10410.17,-282.31 10346.39,-262.67 10303.43,-249.44"/>
<polygon fill="#cc3333" stroke="#cc3333" points="10303.99,-247.78 10298.7,-247.98 10302.96,-251.13 10303.99,-247.78"/>
<text xml:space="preserve" text-anchor="middle" x="10398.58" y="-268.65" font-family="Helvetica,sans-Serif" font-size="7.00">blocked_by</text>
</g>
<!-- leg_v07 -->
<g id="node82" class="node">
<title>leg_v07</title>
<path fill="#ffa07a" stroke="black" stroke-width="2" d="M10726,-320.5C10726,-320.5 10642,-320.5 10642,-320.5 10637.8,-320.5 10633.6,-316.3 10633.6,-312.1 10633.6,-312.1 10633.6,-303.7 10633.6,-303.7 10633.6,-299.5 10637.8,-295.3 10642,-295.3 10642,-295.3 10726,-295.3 10726,-295.3 10730.2,-295.3 10734.4,-299.5 10734.4,-303.7 10734.4,-303.7 10734.4,-312.1 10734.4,-312.1 10734.4,-316.3 10730.2,-320.5 10726,-320.5"/>
<text xml:space="preserve" text-anchor="middle" x="10684" y="-305.38" font-family="Helvetica,sans-Serif" font-size="7.00">v0.7.0</text>
</g>
<!-- leg_bad -->
<g id="node83" class="node">
<title>leg_bad</title>
<path fill="#f6b3b3" stroke="black" stroke-width="2" d="M10726,-247.05C10726,-247.05 10642,-247.05 10642,-247.05 10637.8,-247.05 10633.6,-242.85 10633.6,-238.65 10633.6,-238.65 10633.6,-230.25 10633.6,-230.25 10633.6,-226.05 10637.8,-221.85 10642,-221.85 10642,-221.85 10726,-221.85 10726,-221.85 10730.2,-221.85 10734.4,-226.05 10734.4,-230.25 10734.4,-230.25 10734.4,-238.65 10734.4,-238.65 10734.4,-242.85 10730.2,-247.05 10726,-247.05"/>
<text xml:space="preserve" text-anchor="middle" x="10684" y="-231.92" font-family="Helvetica,sans-Serif" font-size="7.00">bad&#45;code</text>
</g>
<!-- leg_v07&#45;&gt;leg_bad -->
<!-- leg_idea -->
<g id="node84" class="node">
<title>leg_idea</title>
<path fill="#d4e8f7" stroke="black" d="M10726,-173.6C10726,-173.6 10642,-173.6 10642,-173.6 10637.8,-173.6 10633.6,-169.4 10633.6,-165.2 10633.6,-165.2 10633.6,-156.8 10633.6,-156.8 10633.6,-152.6 10637.8,-148.4 10642,-148.4 10642,-148.4 10726,-148.4 10726,-148.4 10730.2,-148.4 10734.4,-152.6 10734.4,-156.8 10734.4,-156.8 10734.4,-165.2 10734.4,-165.2 10734.4,-169.4 10730.2,-173.6 10726,-173.6"/>
<text xml:space="preserve" text-anchor="middle" x="10684" y="-158.47" font-family="Helvetica,sans-Serif" font-size="7.00">cool&#45;ideas</text>
</g>
<!-- leg_bad&#45;&gt;leg_idea -->
<!-- leg_external -->
<g id="node85" class="node">
<title>leg_external</title>
<path fill="#e8f2ff" stroke="black" d="M10726,-107.4C10726,-107.4 10642,-107.4 10642,-107.4 10637.8,-107.4 10633.6,-103.2 10633.6,-99 10633.6,-99 10633.6,-90.6 10633.6,-90.6 10633.6,-86.4 10637.8,-82.2 10642,-82.2 10642,-82.2 10726,-82.2 10726,-82.2 10730.2,-82.2 10734.4,-86.4 10734.4,-90.6 10734.4,-90.6 10734.4,-99 10734.4,-99 10734.4,-103.2 10730.2,-107.4 10726,-107.4"/>
<text xml:space="preserve" text-anchor="middle" x="10684" y="-92.28" font-family="Helvetica,sans-Serif" font-size="7.00">external blocker</text>
</g>
<!-- leg_idea&#45;&gt;leg_external -->
<!-- leg_unresolved -->
<g id="node86" class="node">
<title>leg_unresolved</title>
<path fill="#f2f2f2" stroke="black" stroke-dasharray="5,2" d="M10726,-41.2C10726,-41.2 10642,-41.2 10642,-41.2 10637.8,-41.2 10633.6,-37 10633.6,-32.8 10633.6,-32.8 10633.6,-24.4 10633.6,-24.4 10633.6,-20.2 10637.8,-16 10642,-16 10642,-16 10726,-16 10726,-16 10730.2,-16 10734.4,-20.2 10734.4,-24.4 10734.4,-24.4 10734.4,-32.8 10734.4,-32.8 10734.4,-37 10730.2,-41.2 10726,-41.2"/>
<text xml:space="preserve" text-anchor="middle" x="10684" y="-26.08" font-family="Helvetica,sans-Serif" font-size="7.00">unresolved ref</text>
</g>
<!-- leg_external&#45;&gt;leg_unresolved -->
</g>
</svg>
