<?xml version="1.0" encoding="UTF-8" standalone="no"?>
<!DOCTYPE svg PUBLIC "-//W3C//DTD SVG 1.1//EN"
 "http://www.w3.org/Graphics/SVG/1.1/DTD/svg11.dtd">
<!-- Generated by graphviz version 14.1.2 (20260124.0452)
 -->
<!-- Title: backlog Pages: 1 -->
<svg width="13082pt" height="226pt"
 viewBox="0.00 0.00 13082.00 226.00" xmlns="http://www.w3.org/2000/svg" xmlns:xlink="http://www.w3.org/1999/xlink">
<g id="graph0" class="graph" transform="scale(1 1) rotate(0) translate(4 222.1)">
<title>backlog</title>
<polygon fill="white" stroke="none" points="-4,4 -4,-222.1 13078,-222.1 13078,4 -4,4"/>
<text xml:space="preserve" text-anchor="middle" x="6537" y="-202.7" font-family="Helvetica,sans-Serif" font-size="12.00">Active backlog graph generated from docs/method/backlog/*/*.md on 2026&#45;04&#45;26</text>
<g id="clust1" class="cluster">
<title>cluster_v0_7_0</title>
<path fill="#fafafa" stroke="#cccccc" d="M20,-130.4C20,-130.4 1777,-130.4 1777,-130.4 1783,-130.4 1789,-136.4 1789,-142.4 1789,-142.4 1789,-177.35 1789,-177.35 1789,-183.35 1783,-189.35 1777,-189.35 1777,-189.35 20,-189.35 20,-189.35 14,-189.35 8,-183.35 8,-177.35 8,-177.35 8,-142.4 8,-142.4 8,-136.4 14,-130.4 20,-130.4"/>
<text xml:space="preserve" text-anchor="middle" x="37" y="-176.8" font-family="Helvetica,sans-Serif" font-size="9.00" fill="#555555">v0.7.0 (11)</text>
</g>
<g id="clust2" class="cluster">
<title>cluster_cool_ideas</title>
<path fill="#fafafa" stroke="#cccccc" d="M1809,-130.4C1809,-130.4 12944,-130.4 12944,-130.4 12950,-130.4 12956,-136.4 12956,-142.4 12956,-142.4 12956,-177.35 12956,-177.35 12956,-183.35 12950,-189.35 12944,-189.35 12944,-189.35 1809,-189.35 1809,-189.35 1803,-189.35 1797,-183.35 1797,-177.35 1797,-177.35 1797,-142.4 1797,-142.4 1797,-136.4 1803,-130.4 1809,-130.4"/>
<text xml:space="preserve" text-anchor="middle" x="1836.5" y="-176.8" font-family="Helvetica,sans-Serif" font-size="9.00" fill="#555555">Cool Ideas (73)</text>
</g>
<g id="clust3" class="cluster">
<title>cluster_legend</title>
<path fill="none" stroke="#dddddd" d="M12976,-8C12976,-8 13054,-8 13054,-8 13060,-8 13066,-14 13066,-20 13066,-20 13066,-176.6 13066,-176.6 13066,-182.6 13060,-188.6 13054,-188.6 13054,-188.6 12976,-188.6 12976,-188.6 12970,-188.6 12964,-182.6 12964,-176.6 12964,-176.6 12964,-20 12964,-20 12964,-14 12970,-8 12976,-8"/>
<text xml:space="preserve" text-anchor="middle" x="12985.5" y="-177" font-family="Helvetica,sans-Serif" font-size="8.00" fill="#aaaaaa">Legend</text>
</g>
<!-- v0_7_0_CORE_agent_drift_warning -->
<g id="node1" class="node">
<title>v0_7_0_CORE_agent_drift_warning</title>
<path fill="#ffa07a" stroke="black" stroke-width="2" d="M116.05,-163.6C116.05,-163.6 23.95,-163.6 23.95,-163.6 19.75,-163.6 15.55,-159.4 15.55,-155.2 15.55,-155.2 15.55,-146.8 15.55,-146.8 15.55,-142.6 19.75,-138.4 23.95,-138.4 23.95,-138.4 116.05,-138.4 116.05,-138.4 120.25,-138.4 124.45,-142.6 124.45,-146.8 124.45,-146.8 124.45,-155.2 124.45,-155.2 124.45,-159.4 120.25,-163.6 116.05,-163.6"/>
<text xml:space="preserve" text-anchor="middle" x="70" y="-147.9" font-family="Helvetica,sans-Serif" font-size="8.00">CORE&#45;agent&#45;drift&#45;warning</text>
</g>
<!-- v0_7_0_CORE_daemon_aware_stdio_bridge_for_mcp_clients -->
<g id="node2" class="node">
<title>v0_7_0_CORE_daemon_aware_stdio_bridge_for_mcp_clients</title>
<path fill="#ffa07a" stroke="black" stroke-width="2" d="M322.55,-163.6C322.55,-163.6 143.45,-163.6 143.45,-163.6 139.25,-163.6 135.05,-159.4 135.05,-155.2 135.05,-155.2 135.05,-146.8 135.05,-146.8 135.05,-142.6 139.25,-138.4 143.45,-138.4 143.45,-138.4 322.55,-138.4 322.55,-138.4 326.75,-138.4 330.95,-142.6 330.95,-146.8 330.95,-146.8 330.95,-155.2 330.95,-155.2 330.95,-159.4 326.75,-163.6 322.55,-163.6"/>
<text xml:space="preserve" text-anchor="middle" x="233" y="-147.9" font-family="Helvetica,sans-Serif" font-size="8.00">CORE&#45;daemon&#45;aware&#45;stdio&#45;bridge&#45;for&#45;mcp&#45;clients</text>
</g>
<!-- v0_7_0_CORE_git_graft_enhance -->
<g id="node3" class="node">
<title>v0_7_0_CORE_git_graft_enhance</title>
<path fill="#ffa07a" stroke="black" stroke-width="2" d="M435.68,-163.6C435.68,-163.6 350.32,-163.6 350.32,-163.6 346.12,-163.6 341.93,-159.4 341.93,-155.2 341.93,-155.2 341.93,-146.8 341.93,-146.8 341.93,-142.6 346.12,-138.4 350.32,-138.4 350.32,-138.4 435.68,-138.4 435.68,-138.4 439.88,-138.4 444.07,-142.6 444.07,-146.8 444.07,-146.8 444.07,-155.2 444.07,-155.2 444.07,-159.4 439.88,-163.6 435.68,-163.6"/>
<text xml:space="preserve" text-anchor="middle" x="393" y="-147.9" font-family="Helvetica,sans-Serif" font-size="8.00">CORE&#45;git&#45;graft&#45;enhance</text>
</g>
<!-- v0_7_0_CORE_migrate_path_ops_to_port -->
<g id="node4" class="node">
<title>v0_7_0_CORE_migrate_path_ops_to_port</title>
<path fill="#ffa07a" stroke="black" stroke-width="2" d="M576.18,-163.6C576.18,-163.6 463.82,-163.6 463.82,-163.6 459.62,-163.6 455.43,-159.4 455.43,-155.2 455.43,-155.2 455.43,-146.8 455.43,-146.8 455.43,-142.6 459.62,-138.4 463.82,-138.4 463.82,-138.4 576.18,-138.4 576.18,-138.4 580.38,-138.4 584.58,-142.6 584.58,-146.8 584.58,-146.8 584.58,-155.2 584.58,-155.2 584.58,-159.4 580.38,-163.6 576.18,-163.6"/>
<text xml:space="preserve" text-anchor="middle" x="520" y="-147.9" font-family="Helvetica,sans-Serif" font-size="8.00">CORE&#45;migrate&#45;path&#45;ops&#45;to&#45;port</text>
</g>
<!-- v0_7_0_CORE_migrate_to_slice_first_reads -->
<g id="node5" class="node">
<title>v0_7_0_CORE_migrate_to_slice_first_reads</title>
<path fill="#ffa07a" stroke="black" stroke-width="2" d="M721.8,-163.6C721.8,-163.6 604.2,-163.6 604.2,-163.6 600,-163.6 595.8,-159.4 595.8,-155.2 595.8,-155.2 595.8,-146.8 595.8,-146.8 595.8,-142.6 600,-138.4 604.2,-138.4 604.2,-138.4 721.8,-138.4 721.8,-138.4 726,-138.4 730.2,-142.6 730.2,-146.8 730.2,-146.8 730.2,-155.2 730.2,-155.2 730.2,-159.4 726,-163.6 721.8,-163.6"/>
<text xml:space="preserve" text-anchor="middle" x="663" y="-147.9" font-family="Helvetica,sans-Serif" font-size="8.00">CORE&#45;migrate&#45;to&#45;slice&#45;first&#45;reads</text>
</g>
<!-- v0_7_0_CORE_opt_in_daemon_mode_mcp_bootstrap -->
<g id="node6" class="node">
<title>v0_7_0_CORE_opt_in_daemon_mode_mcp_bootstrap</title>
<path fill="#ffa07a" stroke="black" stroke-width="2" d="M904.18,-163.6C904.18,-163.6 749.82,-163.6 749.82,-163.6 745.62,-163.6 741.42,-159.4 741.42,-155.2 741.42,-155.2 741.42,-146.8 741.42,-146.8 741.42,-142.6 745.62,-138.4 749.82,-138.4 749.82,-138.4 904.18,-138.4 904.18,-138.4 908.38,-138.4 912.58,-142.6 912.58,-146.8 912.58,-146.8 912.58,-155.2 912.58,-155.2 912.58,-159.4 908.38,-163.6 904.18,-163.6"/>
<text xml:space="preserve" text-anchor="middle" x="827" y="-147.9" font-family="Helvetica,sans-Serif" font-size="8.00">CORE&#45;opt&#45;in&#45;daemon&#45;mode&#45;mcp&#45;bootstrap</text>
</g>
<!-- v0_7_0_CORE_rewrite_structural_blame_to_use_warp_worldline_provenance -->
<g id="node7" class="node">
<title>v0_7_0_CORE_rewrite_structural_blame_to_use_warp_worldline_provenance</title>
<path fill="#ffa07a" stroke="black" stroke-width="2" d="M1167.67,-163.6C1167.67,-163.6 932.32,-163.6 932.32,-163.6 928.12,-163.6 923.92,-159.4 923.92,-155.2 923.92,-155.2 923.92,-146.8 923.92,-146.8 923.92,-142.6 928.12,-138.4 932.32,-138.4 932.32,-138.4 1167.67,-138.4 1167.67,-138.4 1171.88,-138.4 1176.08,-142.6 1176.08,-146.8 1176.08,-146.8 1176.08,-155.2 1176.08,-155.2 1176.08,-159.4 1171.88,-163.6 1167.67,-163.6"/>
<text xml:space="preserve" text-anchor="middle" x="1050" y="-147.9" font-family="Helvetica,sans-Serif" font-size="8.00">CORE&#45;rewrite&#45;structural&#45;blame&#45;to&#45;use&#45;warp&#45;worldline&#45;provenance</text>
</g>
<!-- v0_7_0_SURFACE_agent_dx_governed_edit -->
<g id="node8" class="node">
<title>v0_7_0_SURFACE_agent_dx_governed_edit</title>
<path fill="#ffa07a" stroke="black" stroke-width="2" d="M1318.42,-163.6C1318.42,-163.6 1195.58,-163.6 1195.58,-163.6 1191.38,-163.6 1187.17,-159.4 1187.17,-155.2 1187.17,-155.2 1187.17,-146.8 1187.17,-146.8 1187.17,-142.6 1191.38,-138.4 1195.58,-138.4 1195.58,-138.4 1318.42,-138.4 1318.42,-138.4 1322.62,-138.4 1326.83,-142.6 1326.83,-146.8 1326.83,-146.8 1326.83,-155.2 1326.83,-155.2 1326.83,-159.4 1322.62,-163.6 1318.42,-163.6"/>
<text xml:space="preserve" text-anchor="middle" x="1257" y="-147.9" font-family="Helvetica,sans-Serif" font-size="8.00">SURFACE&#45;agent&#45;dx&#45;governed&#45;edit</text>
</g>
<!-- v0_7_0_SURFACE_bijou_tui_for_graft_daemon_control_plane -->
<g id="node9" class="node">
<title>v0_7_0_SURFACE_bijou_tui_for_graft_daemon_control_plane</title>
<path fill="#ffa07a" stroke="black" stroke-width="2" d="M1527.3,-163.6C1527.3,-163.6 1346.7,-163.6 1346.7,-163.6 1342.5,-163.6 1338.3,-159.4 1338.3,-155.2 1338.3,-155.2 1338.3,-146.8 1338.3,-146.8 1338.3,-142.6 1342.5,-138.4 1346.7,-138.4 1346.7,-138.4 1527.3,-138.4 1527.3,-138.4 1531.5,-138.4 1535.7,-142.6 1535.7,-146.8 1535.7,-146.8 1535.7,-155.2 1535.7,-155.2 1535.7,-159.4 1531.5,-163.6 1527.3,-163.6"/>
<text xml:space="preserve" text-anchor="middle" x="1437" y="-147.9" font-family="Helvetica,sans-Serif" font-size="8.00">SURFACE&#45;bijou&#45;tui&#45;for&#45;graft&#45;daemon&#45;control&#45;plane</text>
</g>
<!-- v0_7_0_SURFACE_governed_write_tools -->
<g id="node10" class="node">
<title>v0_7_0_SURFACE_governed_write_tools</title>
<path fill="#ffa07a" stroke="black" stroke-width="2" d="M1667.17,-163.6C1667.17,-163.6 1554.83,-163.6 1554.83,-163.6 1550.62,-163.6 1546.42,-159.4 1546.42,-155.2 1546.42,-155.2 1546.42,-146.8 1546.42,-146.8 1546.42,-142.6 1550.62,-138.4 1554.83,-138.4 1554.83,-138.4 1667.17,-138.4 1667.17,-138.4 1671.38,-138.4 1675.58,-142.6 1675.58,-146.8 1675.58,-146.8 1675.58,-155.2 1675.58,-155.2 1675.58,-159.4 1671.38,-163.6 1667.17,-163.6"/>
<text xml:space="preserve" text-anchor="middle" x="1611" y="-147.9" font-family="Helvetica,sans-Serif" font-size="8.00">SURFACE&#45;governed&#45;write&#45;tools</text>
</g>
<!-- v0_7_0_WARP_lsp_enrichment -->
<g id="node11" class="node">
<title>v0_7_0_WARP_lsp_enrichment</title>
<path fill="#ffa07a" stroke="black" stroke-width="2" d="M1772.55,-163.6C1772.55,-163.6 1695.45,-163.6 1695.45,-163.6 1691.25,-163.6 1687.05,-159.4 1687.05,-155.2 1687.05,-155.2 1687.05,-146.8 1687.05,-146.8 1687.05,-142.6 1691.25,-138.4 1695.45,-138.4 1695.45,-138.4 1772.55,-138.4 1772.55,-138.4 1776.75,-138.4 1780.95,-142.6 1780.95,-146.8 1780.95,-146.8 1780.95,-155.2 1780.95,-155.2 1780.95,-159.4 1776.75,-163.6 1772.55,-163.6"/>
<text xml:space="preserve" text-anchor="middle" x="1734" y="-147.9" font-family="Helvetica,sans-Serif" font-size="8.00">WARP&#45;lsp&#45;enrichment</text>
</g>
<!-- cool_ideas_CI_001_causal_collapse_visualizer -->
<g id="node12" class="node">
<title>cool_ideas_CI_001_causal_collapse_visualizer</title>
<path fill="#d4e8f7" stroke="black" d="M1940.3,-163.6C1940.3,-163.6 1813.7,-163.6 1813.7,-163.6 1809.5,-163.6 1805.3,-159.4 1805.3,-155.2 1805.3,-155.2 1805.3,-146.8 1805.3,-146.8 1805.3,-142.6 1809.5,-138.4 1813.7,-138.4 1813.7,-138.4 1940.3,-138.4 1940.3,-138.4 1944.5,-138.4 1948.7,-142.6 1948.7,-146.8 1948.7,-146.8 1948.7,-155.2 1948.7,-155.2 1948.7,-159.4 1944.5,-163.6 1940.3,-163.6"/>
<text xml:space="preserve" text-anchor="middle" x="1877" y="-147.9" font-family="Helvetica,sans-Serif" font-size="8.00">CI&#45;001&#45;causal&#45;collapse&#45;visualizer &#45; L</text>
</g>
<!-- cool_ideas_CI_002_deterministic_scenario_replay -->
<g id="node13" class="node">
<title>cool_ideas_CI_002_deterministic_scenario_replay</title>
<path fill="#d4e8f7" stroke="black" d="M2107.67,-163.6C2107.67,-163.6 1968.33,-163.6 1968.33,-163.6 1964.12,-163.6 1959.92,-159.4 1959.92,-155.2 1959.92,-155.2 1959.92,-146.8 1959.92,-146.8 1959.92,-142.6 1964.12,-138.4 1968.33,-138.4 1968.33,-138.4 2107.67,-138.4 2107.67,-138.4 2111.88,-138.4 2116.07,-142.6 2116.07,-146.8 2116.07,-146.8 2116.07,-155.2 2116.07,-155.2 2116.07,-159.4 2111.88,-163.6 2107.67,-163.6"/>
<text xml:space="preserve" text-anchor="middle" x="2038" y="-147.9" font-family="Helvetica,sans-Serif" font-size="8.00">CI&#45;002&#45;deterministic&#45;scenario&#45;replay &#45; L</text>
</g>
<!-- cool_ideas_CI_003_mcp_native_diff_protocol -->
<g id="node14" class="node">
<title>cool_ideas_CI_003_mcp_native_diff_protocol</title>
<path fill="#d4e8f7" stroke="black" d="M2258.8,-163.6C2258.8,-163.6 2135.2,-163.6 2135.2,-163.6 2131,-163.6 2126.8,-159.4 2126.8,-155.2 2126.8,-155.2 2126.8,-146.8 2126.8,-146.8 2126.8,-142.6 2131,-138.4 2135.2,-138.4 2135.2,-138.4 2258.8,-138.4 2258.8,-138.4 2263,-138.4 2267.2,-142.6 2267.2,-146.8 2267.2,-146.8 2267.2,-155.2 2267.2,-155.2 2267.2,-159.4 2263,-163.6 2258.8,-163.6"/>
<text xml:space="preserve" text-anchor="middle" x="2197" y="-147.9" font-family="Helvetica,sans-Serif" font-size="8.00">CI&#45;003&#45;mcp&#45;native&#45;diff&#45;protocol &#45; M</text>
</g>
<!-- cool_ideas_CLEAN_CODE_parallel_agent_merge_shared_file_loss -->
<g id="node15" class="node">
<title>cool_ideas_CLEAN_CODE_parallel_agent_merge_shared_file_loss</title>
<path fill="#d4e8f7" stroke="black" d="M2487.05,-163.6C2487.05,-163.6 2286.95,-163.6 2286.95,-163.6 2282.75,-163.6 2278.55,-159.4 2278.55,-155.2 2278.55,-155.2 2278.55,-146.8 2278.55,-146.8 2278.55,-142.6 2282.75,-138.4 2286.95,-138.4 2286.95,-138.4 2487.05,-138.4 2487.05,-138.4 2491.25,-138.4 2495.45,-142.6 2495.45,-146.8 2495.45,-146.8 2495.45,-155.2 2495.45,-155.2 2495.45,-159.4 2491.25,-163.6 2487.05,-163.6"/>
<text xml:space="preserve" text-anchor="middle" x="2387" y="-147.9" font-family="Helvetica,sans-Serif" font-size="8.00">CLEAN&#45;CODE&#45;parallel&#45;agent&#45;merge&#45;shared&#45;file&#45;loss &#45; M</text>
</g>
<!-- cool_ideas_CORE_agent_handoff_protocol -->
<g id="node16" class="node">
<title>cool_ideas_CORE_agent_handoff_protocol</title>
<path fill="#d4e8f7" stroke="black" d="M2634.92,-163.6C2634.92,-163.6 2515.08,-163.6 2515.08,-163.6 2510.88,-163.6 2506.68,-159.4 2506.68,-155.2 2506.68,-155.2 2506.68,-146.8 2506.68,-146.8 2506.68,-142.6 2510.88,-138.4 2515.08,-138.4 2515.08,-138.4 2634.92,-138.4 2634.92,-138.4 2639.12,-138.4 2643.32,-142.6 2643.32,-146.8 2643.32,-146.8 2643.32,-155.2 2643.32,-155.2 2643.32,-159.4 2639.12,-163.6 2634.92,-163.6"/>
<text xml:space="preserve" text-anchor="middle" x="2575" y="-147.9" font-family="Helvetica,sans-Serif" font-size="8.00">CORE&#45;agent&#45;handoff&#45;protocol &#45; M</text>
</g>
<!-- cool_ideas_CORE_auto_focus -->
<g id="node17" class="node">
<title>cool_ideas_CORE_auto_focus</title>
<path fill="#d4e8f7" stroke="black" d="M2735.67,-163.6C2735.67,-163.6 2662.33,-163.6 2662.33,-163.6 2658.12,-163.6 2653.93,-159.4 2653.93,-155.2 2653.93,-155.2 2653.93,-146.8 2653.93,-146.8 2653.93,-142.6 2658.12,-138.4 2662.33,-138.4 2662.33,-138.4 2735.67,-138.4 2735.67,-138.4 2739.88,-138.4 2744.07,-142.6 2744.07,-146.8 2744.07,-146.8 2744.07,-155.2 2744.07,-155.2 2744.07,-159.4 2739.88,-163.6 2735.67,-163.6"/>
<text xml:space="preserve" text-anchor="middle" x="2699" y="-147.9" font-family="Helvetica,sans-Serif" font-size="8.00">CORE&#45;auto&#45;focus &#45; L</text>
</g>
<!-- cool_ideas_CORE_backlog_status_tool -->
<g id="node18" class="node">
<title>cool_ideas_CORE_backlog_status_tool</title>
<path fill="#d4e8f7" stroke="black" d="M2866.67,-163.6C2866.67,-163.6 2763.33,-163.6 2763.33,-163.6 2759.12,-163.6 2754.93,-159.4 2754.93,-155.2 2754.93,-155.2 2754.93,-146.8 2754.93,-146.8 2754.93,-142.6 2759.12,-138.4 2763.33,-138.4 2763.33,-138.4 2866.67,-138.4 2866.67,-138.4 2870.88,-138.4 2875.07,-142.6 2875.07,-146.8 2875.07,-146.8 2875.07,-155.2 2875.07,-155.2 2875.07,-159.4 2870.88,-163.6 2866.67,-163.6"/>
<text xml:space="preserve" text-anchor="middle" x="2815" y="-147.9" font-family="Helvetica,sans-Serif" font-size="8.00">CORE&#45;backlog&#45;status&#45;tool &#45; S</text>
</g>
<!-- cool_ideas_CORE_capture_range -->
<g id="node19" class="node">
<title>cool_ideas_CORE_capture_range</title>
<path fill="#d4e8f7" stroke="black" d="M2981.8,-163.6C2981.8,-163.6 2894.2,-163.6 2894.2,-163.6 2890,-163.6 2885.8,-159.4 2885.8,-155.2 2885.8,-155.2 2885.8,-146.8 2885.8,-146.8 2885.8,-142.6 2890,-138.4 2894.2,-138.4 2894.2,-138.4 2981.8,-138.4 2981.8,-138.4 2986,-138.4 2990.2,-142.6 2990.2,-146.8 2990.2,-146.8 2990.2,-155.2 2990.2,-155.2 2990.2,-159.4 2986,-163.6 2981.8,-163.6"/>
<text xml:space="preserve" text-anchor="middle" x="2938" y="-147.9" font-family="Helvetica,sans-Serif" font-size="8.00">CORE&#45;capture&#45;range &#45; S</text>
</g>
<!-- cool_ideas_CORE_constructor_in_disguise_lint -->
<g id="node20" class="node">
<title>cool_ideas_CORE_constructor_in_disguise_lint</title>
<path fill="#d4e8f7" stroke="black" d="M3140.55,-163.6C3140.55,-163.6 3009.45,-163.6 3009.45,-163.6 3005.25,-163.6 3001.05,-159.4 3001.05,-155.2 3001.05,-155.2 3001.05,-146.8 3001.05,-146.8 3001.05,-142.6 3005.25,-138.4 3009.45,-138.4 3009.45,-138.4 3140.55,-138.4 3140.55,-138.4 3144.75,-138.4 3148.95,-142.6 3148.95,-146.8 3148.95,-146.8 3148.95,-155.2 3148.95,-155.2 3148.95,-159.4 3144.75,-163.6 3140.55,-163.6"/>
<text xml:space="preserve" text-anchor="middle" x="3075" y="-147.9" font-family="Helvetica,sans-Serif" font-size="8.00">CORE&#45;constructor&#45;in&#45;disguise&#45;lint &#45; M</text>
</g>
<!-- cool_ideas_CORE_context_budget_forecasting -->
<g id="node21" class="node">
<title>cool_ideas_CORE_context_budget_forecasting</title>
<path fill="#d4e8f7" stroke="black" d="M3301.67,-163.6C3301.67,-163.6 3168.33,-163.6 3168.33,-163.6 3164.12,-163.6 3159.93,-159.4 3159.93,-155.2 3159.93,-155.2 3159.93,-146.8 3159.93,-146.8 3159.93,-142.6 3164.12,-138.4 3168.33,-138.4 3168.33,-138.4 3301.67,-138.4 3301.67,-138.4 3305.88,-138.4 3310.07,-142.6 3310.07,-146.8 3310.07,-146.8 3310.07,-155.2 3310.07,-155.2 3310.07,-159.4 3305.88,-163.6 3301.67,-163.6"/>
<text xml:space="preserve" text-anchor="middle" x="3235" y="-147.9" font-family="Helvetica,sans-Serif" font-size="8.00">CORE&#45;context&#45;budget&#45;forecasting &#45; M</text>
</g>
<!-- cool_ideas_CORE_conversation_primer -->
<g id="node22" class="node">
<title>cool_ideas_CORE_conversation_primer</title>
<path fill="#d4e8f7" stroke="black" d="M3438.67,-163.6C3438.67,-163.6 3329.33,-163.6 3329.33,-163.6 3325.12,-163.6 3320.93,-159.4 3320.93,-155.2 3320.93,-155.2 3320.93,-146.8 3320.93,-146.8 3320.93,-142.6 3325.12,-138.4 3329.33,-138.4 3329.33,-138.4 3438.67,-138.4 3438.67,-138.4 3442.88,-138.4 3447.07,-142.6 3447.07,-146.8 3447.07,-146.8 3447.07,-155.2 3447.07,-155.2 3447.07,-159.4 3442.88,-163.6 3438.67,-163.6"/>
<text xml:space="preserve" text-anchor="middle" x="3384" y="-147.9" font-family="Helvetica,sans-Serif" font-size="8.00">CORE&#45;conversation&#45;primer &#45; M</text>
</g>
<!-- cool_ideas_CORE_cross_session_resume -->
<g id="node23" class="node">
<title>cool_ideas_CORE_cross_session_resume</title>
<path fill="#d4e8f7" stroke="black" d="M3581.3,-163.6C3581.3,-163.6 3466.7,-163.6 3466.7,-163.6 3462.5,-163.6 3458.3,-159.4 3458.3,-155.2 3458.3,-155.2 3458.3,-146.8 3458.3,-146.8 3458.3,-142.6 3462.5,-138.4 3466.7,-138.4 3466.7,-138.4 3581.3,-138.4 3581.3,-138.4 3585.5,-138.4 3589.7,-142.6 3589.7,-146.8 3589.7,-146.8 3589.7,-155.2 3589.7,-155.2 3589.7,-159.4 3585.5,-163.6 3581.3,-163.6"/>
<text xml:space="preserve" text-anchor="middle" x="3524" y="-147.9" font-family="Helvetica,sans-Serif" font-size="8.00">CORE&#45;cross&#45;session&#45;resume &#45; S</text>
</g>
<!-- cool_ideas_CORE_graft_as_teacher -->
<g id="node24" class="node">
<title>cool_ideas_CORE_graft_as_teacher</title>
<path fill="#d4e8f7" stroke="black" d="M3703.17,-163.6C3703.17,-163.6 3608.83,-163.6 3608.83,-163.6 3604.62,-163.6 3600.43,-159.4 3600.43,-155.2 3600.43,-155.2 3600.43,-146.8 3600.43,-146.8 3600.43,-142.6 3604.62,-138.4 3608.83,-138.4 3608.83,-138.4 3703.17,-138.4 3703.17,-138.4 3707.38,-138.4 3711.57,-142.6 3711.57,-146.8 3711.57,-146.8 3711.57,-155.2 3711.57,-155.2 3711.57,-159.4 3707.38,-163.6 3703.17,-163.6"/>
<text xml:space="preserve" text-anchor="middle" x="3656" y="-147.9" font-family="Helvetica,sans-Serif" font-size="8.00">CORE&#45;graft&#45;as&#45;teacher &#45; S</text>
</g>
<!-- cool_ideas_CORE_graft_doctor -->
<g id="node25" class="node">
<title>cool_ideas_CORE_graft_doctor</title>
<path fill="#d4e8f7" stroke="black" d="M3811.05,-163.6C3811.05,-163.6 3730.95,-163.6 3730.95,-163.6 3726.75,-163.6 3722.55,-159.4 3722.55,-155.2 3722.55,-155.2 3722.55,-146.8 3722.55,-146.8 3722.55,-142.6 3726.75,-138.4 3730.95,-138.4 3730.95,-138.4 3811.05,-138.4 3811.05,-138.4 3815.25,-138.4 3819.45,-142.6 3819.45,-146.8 3819.45,-146.8 3819.45,-155.2 3819.45,-155.2 3819.45,-159.4 3815.25,-163.6 3811.05,-163.6"/>
<text xml:space="preserve" text-anchor="middle" x="3771" y="-147.9" font-family="Helvetica,sans-Serif" font-size="8.00">CORE&#45;graft&#45;doctor &#45; M</text>
</g>
<!-- cool_ideas_CORE_graft_teach_learning_receipts -->
<g id="node26" class="node">
<title>cool_ideas_CORE_graft_teach_learning_receipts</title>
<path fill="#d4e8f7" stroke="black" d="M3976.92,-163.6C3976.92,-163.6 3839.08,-163.6 3839.08,-163.6 3834.88,-163.6 3830.68,-159.4 3830.68,-155.2 3830.68,-155.2 3830.68,-146.8 3830.68,-146.8 3830.68,-142.6 3834.88,-138.4 3839.08,-138.4 3839.08,-138.4 3976.92,-138.4 3976.92,-138.4 3981.12,-138.4 3985.32,-142.6 3985.32,-146.8 3985.32,-146.8 3985.32,-155.2 3985.32,-155.2 3985.32,-159.4 3981.12,-163.6 3976.92,-163.6"/>
<text xml:space="preserve" text-anchor="middle" x="3908" y="-147.9" font-family="Helvetica,sans-Serif" font-size="8.00">CORE&#45;graft&#45;teach&#45;learning&#45;receipts &#45; S</text>
</g>
<!-- cool_ideas_CORE_horizon_of_readability -->
<g id="node27" class="node">
<title>cool_ideas_CORE_horizon_of_readability</title>
<path fill="#d4e8f7" stroke="black" d="M4117.55,-163.6C4117.55,-163.6 4004.45,-163.6 4004.45,-163.6 4000.25,-163.6 3996.05,-159.4 3996.05,-155.2 3996.05,-155.2 3996.05,-146.8 3996.05,-146.8 3996.05,-142.6 4000.25,-138.4 4004.45,-138.4 4004.45,-138.4 4117.55,-138.4 4117.55,-138.4 4121.75,-138.4 4125.95,-142.6 4125.95,-146.8 4125.95,-146.8 4125.95,-155.2 4125.95,-155.2 4125.95,-159.4 4121.75,-163.6 4117.55,-163.6"/>
<text xml:space="preserve" text-anchor="middle" x="4061" y="-147.9" font-family="Helvetica,sans-Serif" font-size="8.00">CORE&#45;horizon&#45;of&#45;readability &#45; M</text>
</g>
<!-- cool_ideas_CORE_lagrangian_policy -->
<g id="node28" class="node">
<title>cool_ideas_CORE_lagrangian_policy</title>
<path fill="#d4e8f7" stroke="black" d="M4246.55,-163.6C4246.55,-163.6 4145.45,-163.6 4145.45,-163.6 4141.25,-163.6 4137.05,-159.4 4137.05,-155.2 4137.05,-155.2 4137.05,-146.8 4137.05,-146.8 4137.05,-142.6 4141.25,-138.4 4145.45,-138.4 4145.45,-138.4 4246.55,-138.4 4246.55,-138.4 4250.75,-138.4 4254.95,-142.6 4254.95,-146.8 4254.95,-146.8 4254.95,-155.2 4254.95,-155.2 4254.95,-159.4 4250.75,-163.6 4246.55,-163.6"/>
<text xml:space="preserve" text-anchor="middle" x="4196" y="-147.9" font-family="Helvetica,sans-Serif" font-size="8.00">CORE&#45;lagrangian&#45;policy &#45; XL</text>
</g>
<!-- cool_ideas_CORE_multi_agent_conflict_detection -->
<g id="node29" class="node">
<title>cool_ideas_CORE_multi_agent_conflict_detection</title>
<path fill="#d4e8f7" stroke="black" d="M4411.93,-163.6C4411.93,-163.6 4274.07,-163.6 4274.07,-163.6 4269.88,-163.6 4265.68,-159.4 4265.68,-155.2 4265.68,-155.2 4265.68,-146.8 4265.68,-146.8 4265.68,-142.6 4269.88,-138.4 4274.07,-138.4 4274.07,-138.4 4411.93,-138.4 4411.93,-138.4 4416.12,-138.4 4420.32,-142.6 4420.32,-146.8 4420.32,-146.8 4420.32,-155.2 4420.32,-155.2 4420.32,-159.4 4416.12,-163.6 4411.93,-163.6"/>
<text xml:space="preserve" text-anchor="middle" x="4343" y="-147.9" font-family="Helvetica,sans-Serif" font-size="8.00">CORE&#45;multi&#45;agent&#45;conflict&#45;detection &#45; L</text>
</g>
<!-- cool_ideas_CORE_policy_playground -->
<g id="node30" class="node">
<title>cool_ideas_CORE_policy_playground</title>
<path fill="#d4e8f7" stroke="black" d="M4538.43,-163.6C4538.43,-163.6 4439.57,-163.6 4439.57,-163.6 4435.38,-163.6 4431.18,-159.4 4431.18,-155.2 4431.18,-155.2 4431.18,-146.8 4431.18,-146.8 4431.18,-142.6 4435.38,-138.4 4439.57,-138.4 4439.57,-138.4 4538.43,-138.4 4538.43,-138.4 4542.62,-138.4 4546.82,-142.6 4546.82,-146.8 4546.82,-146.8 4546.82,-155.2 4546.82,-155.2 4546.82,-159.4 4542.62,-163.6 4538.43,-163.6"/>
<text xml:space="preserve" text-anchor="middle" x="4489" y="-147.9" font-family="Helvetica,sans-Serif" font-size="8.00">CORE&#45;policy&#45;playground &#45; S</text>
</g>
<!-- cool_ideas_CORE_policy_profiles -->
<g id="node31" class="node">
<title>cool_ideas_CORE_policy_profiles</title>
<path fill="#d4e8f7" stroke="black" d="M4652.05,-163.6C4652.05,-163.6 4565.95,-163.6 4565.95,-163.6 4561.75,-163.6 4557.55,-159.4 4557.55,-155.2 4557.55,-155.2 4557.55,-146.8 4557.55,-146.8 4557.55,-142.6 4561.75,-138.4 4565.95,-138.4 4565.95,-138.4 4652.05,-138.4 4652.05,-138.4 4656.25,-138.4 4660.45,-142.6 4660.45,-146.8 4660.45,-146.8 4660.45,-155.2 4660.45,-155.2 4660.45,-159.4 4656.25,-163.6 4652.05,-163.6"/>
<text xml:space="preserve" text-anchor="middle" x="4609" y="-147.9" font-family="Helvetica,sans-Serif" font-size="8.00">CORE&#45;policy&#45;profiles &#45; M</text>
</g>
<!-- cool_ideas_CORE_pr_review_structural_summary -->
<g id="node32" class="node">
<title>cool_ideas_CORE_pr_review_structural_summary</title>
<path fill="#d4e8f7" stroke="black" d="M4823.93,-163.6C4823.93,-163.6 4680.07,-163.6 4680.07,-163.6 4675.88,-163.6 4671.68,-159.4 4671.68,-155.2 4671.68,-155.2 4671.68,-146.8 4671.68,-146.8 4671.68,-142.6 4675.88,-138.4 4680.07,-138.4 4680.07,-138.4 4823.93,-138.4 4823.93,-138.4 4828.12,-138.4 4832.32,-142.6 4832.32,-146.8 4832.32,-146.8 4832.32,-155.2 4832.32,-155.2 4832.32,-159.4 4828.12,-163.6 4823.93,-163.6"/>
<text xml:space="preserve" text-anchor="middle" x="4752" y="-147.9" font-family="Helvetica,sans-Serif" font-size="8.00">CORE&#45;pr&#45;review&#45;structural&#45;summary &#45; M</text>
</g>
<!-- cool_ideas_CORE_self_tuning_governor -->
<g id="node33" class="node">
<title>cool_ideas_CORE_self_tuning_governor</title>
<path fill="#d4e8f7" stroke="black" d="M4962.05,-163.6C4962.05,-163.6 4851.95,-163.6 4851.95,-163.6 4847.75,-163.6 4843.55,-159.4 4843.55,-155.2 4843.55,-155.2 4843.55,-146.8 4843.55,-146.8 4843.55,-142.6 4847.75,-138.4 4851.95,-138.4 4851.95,-138.4 4962.05,-138.4 4962.05,-138.4 4966.25,-138.4 4970.45,-142.6 4970.45,-146.8 4970.45,-146.8 4970.45,-155.2 4970.45,-155.2 4970.45,-159.4 4966.25,-163.6 4962.05,-163.6"/>
<text xml:space="preserve" text-anchor="middle" x="4907" y="-147.9" font-family="Helvetica,sans-Serif" font-size="8.00">CORE&#45;self&#45;tuning&#45;governor &#45; M</text>
</g>
<!-- cool_ideas_CORE_session_knowledge_map -->
<g id="node34" class="node">
<title>cool_ideas_CORE_session_knowledge_map</title>
<path fill="#d4e8f7" stroke="black" d="M5112.43,-163.6C5112.43,-163.6 4989.57,-163.6 4989.57,-163.6 4985.38,-163.6 4981.18,-159.4 4981.18,-155.2 4981.18,-155.2 4981.18,-146.8 4981.18,-146.8 4981.18,-142.6 4985.38,-138.4 4989.57,-138.4 4989.57,-138.4 5112.43,-138.4 5112.43,-138.4 5116.62,-138.4 5120.82,-142.6 5120.82,-146.8 5120.82,-146.8 5120.82,-155.2 5120.82,-155.2 5120.82,-159.4 5116.62,-163.6 5112.43,-163.6"/>
<text xml:space="preserve" text-anchor="middle" x="5051" y="-147.9" font-family="Helvetica,sans-Serif" font-size="8.00">CORE&#45;session&#45;knowledge&#45;map &#45; S</text>
</g>
<!-- cool_ideas_CORE_speculative_read_cost -->
<g id="node35" class="node">
<title>cool_ideas_CORE_speculative_read_cost</title>
<path fill="#d4e8f7" stroke="black" d="M5252.18,-163.6C5252.18,-163.6 5139.82,-163.6 5139.82,-163.6 5135.62,-163.6 5131.43,-159.4 5131.43,-155.2 5131.43,-155.2 5131.43,-146.8 5131.43,-146.8 5131.43,-142.6 5135.62,-138.4 5139.82,-138.4 5139.82,-138.4 5252.18,-138.4 5252.18,-138.4 5256.38,-138.4 5260.57,-142.6 5260.57,-146.8 5260.57,-146.8 5260.57,-155.2 5260.57,-155.2 5260.57,-159.4 5256.38,-163.6 5252.18,-163.6"/>
<text xml:space="preserve" text-anchor="middle" x="5196" y="-147.9" font-family="Helvetica,sans-Serif" font-size="8.00">CORE&#45;speculative&#45;read&#45;cost &#45; S</text>
</g>
<!-- cool_ideas_CORE_structural_session_replay -->
<g id="node36" class="node">
<title>cool_ideas_CORE_structural_session_replay</title>
<path fill="#d4e8f7" stroke="black" d="M5405.55,-163.6C5405.55,-163.6 5280.45,-163.6 5280.45,-163.6 5276.25,-163.6 5272.05,-159.4 5272.05,-155.2 5272.05,-155.2 5272.05,-146.8 5272.05,-146.8 5272.05,-142.6 5276.25,-138.4 5280.45,-138.4 5280.45,-138.4 5405.55,-138.4 5405.55,-138.4 5409.75,-138.4 5413.95,-142.6 5413.95,-146.8 5413.95,-146.8 5413.95,-155.2 5413.95,-155.2 5413.95,-159.4 5409.75,-163.6 5405.55,-163.6"/>
<text xml:space="preserve" text-anchor="middle" x="5343" y="-147.9" font-family="Helvetica,sans-Serif" font-size="8.00">CORE&#45;structural&#45;session&#45;replay &#45; M</text>
</g>
<!-- cool_ideas_CORE_structural_test_coverage_map -->
<g id="node37" class="node">
<title>cool_ideas_CORE_structural_test_coverage_map</title>
<path fill="#d4e8f7" stroke="black" d="M5574.8,-163.6C5574.8,-163.6 5433.2,-163.6 5433.2,-163.6 5429,-163.6 5424.8,-159.4 5424.8,-155.2 5424.8,-155.2 5424.8,-146.8 5424.8,-146.8 5424.8,-142.6 5429,-138.4 5433.2,-138.4 5433.2,-138.4 5574.8,-138.4 5574.8,-138.4 5579,-138.4 5583.2,-142.6 5583.2,-146.8 5583.2,-146.8 5583.2,-155.2 5583.2,-155.2 5583.2,-159.4 5579,-163.6 5574.8,-163.6"/>
<text xml:space="preserve" text-anchor="middle" x="5504" y="-147.9" font-family="Helvetica,sans-Serif" font-size="8.00">CORE&#45;structural&#45;test&#45;coverage&#45;map &#45; M</text>
</g>
<!-- cool_ideas_CORE_wire_primitives_into_runtime -->
<g id="node38" class="node">
<title>cool_ideas_CORE_wire_primitives_into_runtime</title>
<path fill="#d4e8f7" stroke="black" d="M5737.43,-163.6C5737.43,-163.6 5602.57,-163.6 5602.57,-163.6 5598.38,-163.6 5594.18,-159.4 5594.18,-155.2 5594.18,-155.2 5594.18,-146.8 5594.18,-146.8 5594.18,-142.6 5598.38,-138.4 5602.57,-138.4 5602.57,-138.4 5737.43,-138.4 5737.43,-138.4 5741.62,-138.4 5745.82,-142.6 5745.82,-146.8 5745.82,-146.8 5745.82,-155.2 5745.82,-155.2 5745.82,-159.4 5741.62,-163.6 5737.43,-163.6"/>
<text xml:space="preserve" text-anchor="middle" x="5670" y="-147.9" font-family="Helvetica,sans-Serif" font-size="8.00">CORE&#45;wire&#45;primitives&#45;into&#45;runtime &#45; M</text>
</g>
<!-- cool_ideas_SURFACE_active_causal_workspace_status -->
<g id="node39" class="node">
<title>cool_ideas_SURFACE_active_causal_workspace_status</title>
<path fill="#d4e8f7" stroke="black" d="M5929.05,-163.6C5929.05,-163.6 5764.95,-163.6 5764.95,-163.6 5760.75,-163.6 5756.55,-159.4 5756.55,-155.2 5756.55,-155.2 5756.55,-146.8 5756.55,-146.8 5756.55,-142.6 5760.75,-138.4 5764.95,-138.4 5764.95,-138.4 5929.05,-138.4 5929.05,-138.4 5933.25,-138.4 5937.45,-142.6 5937.45,-146.8 5937.45,-146.8 5937.45,-155.2 5937.45,-155.2 5937.45,-159.4 5933.25,-163.6 5929.05,-163.6"/>
<text xml:space="preserve" text-anchor="middle" x="5847" y="-147.9" font-family="Helvetica,sans-Serif" font-size="8.00">SURFACE&#45;active&#45;causal&#45;workspace&#45;status &#45; M</text>
</g>
<!-- cool_ideas_SURFACE_attach_to_existing_causal_session -->
<g id="node40" class="node">
<title>cool_ideas_SURFACE_attach_to_existing_causal_session</title>
<path fill="#d4e8f7" stroke="black" d="M6125.3,-163.6C6125.3,-163.6 5956.7,-163.6 5956.7,-163.6 5952.5,-163.6 5948.3,-159.4 5948.3,-155.2 5948.3,-155.2 5948.3,-146.8 5948.3,-146.8 5948.3,-142.6 5952.5,-138.4 5956.7,-138.4 5956.7,-138.4 6125.3,-138.4 6125.3,-138.4 6129.5,-138.4 6133.7,-142.6 6133.7,-146.8 6133.7,-146.8 6133.7,-155.2 6133.7,-155.2 6133.7,-159.4 6129.5,-163.6 6125.3,-163.6"/>
<text xml:space="preserve" text-anchor="middle" x="6041" y="-147.9" font-family="Helvetica,sans-Serif" font-size="8.00">SURFACE&#45;attach&#45;to&#45;existing&#45;causal&#45;session &#45; M</text>
</g>
<!-- cool_ideas_SURFACE_ide_native_graft_integration -->
<g id="node41" class="node">
<title>cool_ideas_SURFACE_ide_native_graft_integration</title>
<path fill="#d4e8f7" stroke="black" d="M6303.3,-163.6C6303.3,-163.6 6152.7,-163.6 6152.7,-163.6 6148.5,-163.6 6144.3,-159.4 6144.3,-155.2 6144.3,-155.2 6144.3,-146.8 6144.3,-146.8 6144.3,-142.6 6148.5,-138.4 6152.7,-138.4 6152.7,-138.4 6303.3,-138.4 6303.3,-138.4 6307.5,-138.4 6311.7,-142.6 6311.7,-146.8 6311.7,-146.8 6311.7,-155.2 6311.7,-155.2 6311.7,-159.4 6307.5,-163.6 6303.3,-163.6"/>
<text xml:space="preserve" text-anchor="middle" x="6228" y="-147.9" font-family="Helvetica,sans-Serif" font-size="8.00">SURFACE&#45;ide&#45;native&#45;graft&#45;integration &#45; XL</text>
</g>
<!-- cool_ideas_SURFACE_local_history_dag_render_mode_and_count_legend -->
<g id="node42" class="node">
<title>cool_ideas_SURFACE_local_history_dag_render_mode_and_count_legend</title>
<path fill="#d4e8f7" stroke="black" d="M6557.18,-163.6C6557.18,-163.6 6330.82,-163.6 6330.82,-163.6 6326.62,-163.6 6322.43,-159.4 6322.43,-155.2 6322.43,-155.2 6322.43,-146.8 6322.43,-146.8 6322.43,-142.6 6326.62,-138.4 6330.82,-138.4 6330.82,-138.4 6557.18,-138.4 6557.18,-138.4 6561.38,-138.4 6565.57,-142.6 6565.57,-146.8 6565.57,-146.8 6565.57,-155.2 6565.57,-155.2 6565.57,-159.4 6561.38,-163.6 6557.18,-163.6"/>
<text xml:space="preserve" text-anchor="middle" x="6444" y="-147.9" font-family="Helvetica,sans-Serif" font-size="8.00">SURFACE&#45;local&#45;history&#45;dag&#45;render&#45;mode&#45;and&#45;count&#45;legend &#45; S</text>
</g>
<!-- cool_ideas_SURFACE_non_codex_instruction_bootstrap_parity -->
<g id="node43" class="node">
<title>cool_ideas_SURFACE_non_codex_instruction_bootstrap_parity</title>
<path fill="#d4e8f7" stroke="black" d="M6773.43,-163.6C6773.43,-163.6 6584.57,-163.6 6584.57,-163.6 6580.38,-163.6 6576.18,-159.4 6576.18,-155.2 6576.18,-155.2 6576.18,-146.8 6576.18,-146.8 6576.18,-142.6 6580.38,-138.4 6584.57,-138.4 6584.57,-138.4 6773.43,-138.4 6773.43,-138.4 6777.62,-138.4 6781.82,-142.6 6781.82,-146.8 6781.82,-146.8 6781.82,-155.2 6781.82,-155.2 6781.82,-159.4 6777.62,-163.6 6773.43,-163.6"/>
<text xml:space="preserve" text-anchor="middle" x="6679" y="-147.9" font-family="Helvetica,sans-Serif" font-size="8.00">SURFACE&#45;non&#45;codex&#45;instruction&#45;bootstrap&#45;parity &#45; M</text>
</g>
<!-- cool_ideas_SURFACE_offer_rename_refactor -->
<g id="node44" class="node">
<title>cool_ideas_SURFACE_offer_rename_refactor</title>
<path fill="#d4e8f7" stroke="black" d="M6930.43,-163.6C6930.43,-163.6 6801.57,-163.6 6801.57,-163.6 6797.38,-163.6 6793.18,-159.4 6793.18,-155.2 6793.18,-155.2 6793.18,-146.8 6793.18,-146.8 6793.18,-142.6 6797.38,-138.4 6801.57,-138.4 6801.57,-138.4 6930.43,-138.4 6930.43,-138.4 6934.62,-138.4 6938.82,-142.6 6938.82,-146.8 6938.82,-146.8 6938.82,-155.2 6938.82,-155.2 6938.82,-159.4 6934.62,-163.6 6930.43,-163.6"/>
<text xml:space="preserve" text-anchor="middle" x="6866" y="-147.9" font-family="Helvetica,sans-Serif" font-size="8.00">SURFACE&#45;offer&#45;rename&#45;refactor &#45; L</text>
</g>
<!-- cool_ideas_SURFACE_terminal_activity_browser_tui -->
<g id="node45" class="node">
<title>cool_ideas_SURFACE_terminal_activity_browser_tui</title>
<path fill="#d4e8f7" stroke="black" d="M7107.55,-163.6C7107.55,-163.6 6958.45,-163.6 6958.45,-163.6 6954.25,-163.6 6950.05,-159.4 6950.05,-155.2 6950.05,-155.2 6950.05,-146.8 6950.05,-146.8 6950.05,-142.6 6954.25,-138.4 6958.45,-138.4 6958.45,-138.4 7107.55,-138.4 7107.55,-138.4 7111.75,-138.4 7115.95,-142.6 7115.95,-146.8 7115.95,-146.8 7115.95,-155.2 7115.95,-155.2 7115.95,-159.4 7111.75,-163.6 7107.55,-163.6"/>
<text xml:space="preserve" text-anchor="middle" x="7033" y="-147.9" font-family="Helvetica,sans-Serif" font-size="8.00">SURFACE&#45;terminal&#45;activity&#45;browser&#45;tui &#45; L</text>
</g>
<!-- cool_ideas_WARP_adaptive_projection_selection -->
<g id="node46" class="node">
<title>cool_ideas_WARP_adaptive_projection_selection</title>
<path fill="#d4e8f7" stroke="black" d="M7272.93,-163.6C7272.93,-163.6 7135.07,-163.6 7135.07,-163.6 7130.88,-163.6 7126.68,-159.4 7126.68,-155.2 7126.68,-155.2 7126.68,-146.8 7126.68,-146.8 7126.68,-142.6 7130.88,-138.4 7135.07,-138.4 7135.07,-138.4 7272.93,-138.4 7272.93,-138.4 7277.12,-138.4 7281.32,-142.6 7281.32,-146.8 7281.32,-146.8 7281.32,-155.2 7281.32,-155.2 7281.32,-159.4 7277.12,-163.6 7272.93,-163.6"/>
<text xml:space="preserve" text-anchor="middle" x="7204" y="-147.9" font-family="Helvetica,sans-Serif" font-size="8.00">WARP&#45;adaptive&#45;projection&#45;selection &#45; L</text>
</g>
<!-- cool_ideas_WARP_agent_action_provenance -->
<g id="node47" class="node">
<title>cool_ideas_WARP_agent_action_provenance</title>
<path fill="#d4e8f7" stroke="black" d="M7431.55,-163.6C7431.55,-163.6 7300.45,-163.6 7300.45,-163.6 7296.25,-163.6 7292.05,-159.4 7292.05,-155.2 7292.05,-155.2 7292.05,-146.8 7292.05,-146.8 7292.05,-142.6 7296.25,-138.4 7300.45,-138.4 7300.45,-138.4 7431.55,-138.4 7431.55,-138.4 7435.75,-138.4 7439.95,-142.6 7439.95,-146.8 7439.95,-146.8 7439.95,-155.2 7439.95,-155.2 7439.95,-159.4 7435.75,-163.6 7431.55,-163.6"/>
<text xml:space="preserve" text-anchor="middle" x="7366" y="-147.9" font-family="Helvetica,sans-Serif" font-size="8.00">WARP&#45;agent&#45;action&#45;provenance &#45; XL</text>
</g>
<!-- cool_ideas_WARP_auto_breaking_change_detection -->
<g id="node48" class="node">
<title>cool_ideas_WARP_auto_breaking_change_detection</title>
<path fill="#d4e8f7" stroke="black" d="M7610.3,-163.6C7610.3,-163.6 7459.7,-163.6 7459.7,-163.6 7455.5,-163.6 7451.3,-159.4 7451.3,-155.2 7451.3,-155.2 7451.3,-146.8 7451.3,-146.8 7451.3,-142.6 7455.5,-138.4 7459.7,-138.4 7459.7,-138.4 7610.3,-138.4 7610.3,-138.4 7614.5,-138.4 7618.7,-142.6 7618.7,-146.8 7618.7,-146.8 7618.7,-155.2 7618.7,-155.2 7618.7,-159.4 7614.5,-163.6 7610.3,-163.6"/>
<text xml:space="preserve" text-anchor="middle" x="7535" y="-147.9" font-family="Helvetica,sans-Serif" font-size="8.00">WARP&#45;auto&#45;breaking&#45;change&#45;detection &#45; L</text>
</g>
<!-- cool_ideas_WARP_background_indexing -->
<g id="node49" class="node">
<title>cool_ideas_WARP_background_indexing</title>
<path fill="#d4e8f7" stroke="black" d="M7751.55,-163.6C7751.55,-163.6 7638.45,-163.6 7638.45,-163.6 7634.25,-163.6 7630.05,-159.4 7630.05,-155.2 7630.05,-155.2 7630.05,-146.8 7630.05,-146.8 7630.05,-142.6 7634.25,-138.4 7638.45,-138.4 7638.45,-138.4 7751.55,-138.4 7751.55,-138.4 7755.75,-138.4 7759.95,-142.6 7759.95,-146.8 7759.95,-146.8 7759.95,-155.2 7759.95,-155.2 7759.95,-159.4 7755.75,-163.6 7751.55,-163.6"/>
<text xml:space="preserve" text-anchor="middle" x="7695" y="-147.9" font-family="Helvetica,sans-Serif" font-size="8.00">WARP&#45;background&#45;indexing &#45; M</text>
</g>
<!-- cool_ideas_WARP_budget_elasticity -->
<g id="node50" class="node">
<title>cool_ideas_WARP_budget_elasticity</title>
<path fill="#d4e8f7" stroke="black" d="M7874.93,-163.6C7874.93,-163.6 7779.07,-163.6 7779.07,-163.6 7774.88,-163.6 7770.68,-159.4 7770.68,-155.2 7770.68,-155.2 7770.68,-146.8 7770.68,-146.8 7770.68,-142.6 7774.88,-138.4 7779.07,-138.4 7779.07,-138.4 7874.93,-138.4 7874.93,-138.4 7879.12,-138.4 7883.32,-142.6 7883.32,-146.8 7883.32,-146.8 7883.32,-155.2 7883.32,-155.2 7883.32,-159.4 7879.12,-163.6 7874.93,-163.6"/>
<text xml:space="preserve" text-anchor="middle" x="7827" y="-147.9" font-family="Helvetica,sans-Serif" font-size="8.00">WARP&#45;budget&#45;elasticity &#45; M</text>
</g>
<!-- cool_ideas_WARP_causal_blame_for_staged_artifacts -->
<g id="node51" class="node">
<title>cool_ideas_WARP_causal_blame_for_staged_artifacts</title>
<path fill="#d4e8f7" stroke="black" d="M8057.18,-163.6C8057.18,-163.6 7902.82,-163.6 7902.82,-163.6 7898.62,-163.6 7894.43,-159.4 7894.43,-155.2 7894.43,-155.2 7894.43,-146.8 7894.43,-146.8 7894.43,-142.6 7898.62,-138.4 7902.82,-138.4 7902.82,-138.4 8057.18,-138.4 8057.18,-138.4 8061.38,-138.4 8065.57,-142.6 8065.57,-146.8 8065.57,-146.8 8065.57,-155.2 8065.57,-155.2 8065.57,-159.4 8061.38,-163.6 8057.18,-163.6"/>
<text xml:space="preserve" text-anchor="middle" x="7980" y="-147.9" font-family="Helvetica,sans-Serif" font-size="8.00">WARP&#45;causal&#45;blame&#45;for&#45;staged&#45;artifacts &#45; L</text>
</g>
<!-- cool_ideas_WARP_causal_write_tracking -->
<g id="node52" class="node">
<title>cool_ideas_WARP_causal_write_tracking</title>
<path fill="#d4e8f7" stroke="black" d="M8195.05,-163.6C8195.05,-163.6 8084.95,-163.6 8084.95,-163.6 8080.75,-163.6 8076.55,-159.4 8076.55,-155.2 8076.55,-155.2 8076.55,-146.8 8076.55,-146.8 8076.55,-142.6 8080.75,-138.4 8084.95,-138.4 8084.95,-138.4 8195.05,-138.4 8195.05,-138.4 8199.25,-138.4 8203.45,-142.6 8203.45,-146.8 8203.45,-146.8 8203.45,-155.2 8203.45,-155.2 8203.45,-159.4 8199.25,-163.6 8195.05,-163.6"/>
<text xml:space="preserve" text-anchor="middle" x="8140" y="-147.9" font-family="Helvetica,sans-Serif" font-size="8.00">WARP&#45;causal&#45;write&#45;tracking &#45; L</text>
</g>
<!-- cool_ideas_WARP_codebase_entropy_trajectory -->
<g id="node53" class="node">
<title>cool_ideas_WARP_codebase_entropy_trajectory</title>
<path fill="#d4e8f7" stroke="black" d="M8362.68,-163.6C8362.68,-163.6 8223.32,-163.6 8223.32,-163.6 8219.12,-163.6 8214.92,-159.4 8214.92,-155.2 8214.92,-155.2 8214.92,-146.8 8214.92,-146.8 8214.92,-142.6 8219.12,-138.4 8223.32,-138.4 8223.32,-138.4 8362.68,-138.4 8362.68,-138.4 8366.88,-138.4 8371.08,-142.6 8371.08,-146.8 8371.08,-146.8 8371.08,-155.2 8371.08,-155.2 8371.08,-159.4 8366.88,-163.6 8362.68,-163.6"/>
<text xml:space="preserve" text-anchor="middle" x="8293" y="-147.9" font-family="Helvetica,sans-Serif" font-size="8.00">WARP&#45;codebase&#45;entropy&#45;trajectory &#45; M</text>
</g>
<!-- cool_ideas_WARP_codebase_signature -->
<g id="node54" class="node">
<title>cool_ideas_WARP_codebase_signature</title>
<path fill="#d4e8f7" stroke="black" d="M8497.55,-163.6C8497.55,-163.6 8390.45,-163.6 8390.45,-163.6 8386.25,-163.6 8382.05,-159.4 8382.05,-155.2 8382.05,-155.2 8382.05,-146.8 8382.05,-146.8 8382.05,-142.6 8386.25,-138.4 8390.45,-138.4 8390.45,-138.4 8497.55,-138.4 8497.55,-138.4 8501.75,-138.4 8505.95,-142.6 8505.95,-146.8 8505.95,-146.8 8505.95,-155.2 8505.95,-155.2 8505.95,-159.4 8501.75,-163.6 8497.55,-163.6"/>
<text xml:space="preserve" text-anchor="middle" x="8444" y="-147.9" font-family="Helvetica,sans-Serif" font-size="8.00">WARP&#45;codebase&#45;signature &#45; L</text>
</g>
<!-- cool_ideas_WARP_counterfactual_refactoring -->
<g id="node55" class="node">
<title>cool_ideas_WARP_counterfactual_refactoring</title>
<path fill="#d4e8f7" stroke="black" d="M8658.68,-163.6C8658.68,-163.6 8525.32,-163.6 8525.32,-163.6 8521.12,-163.6 8516.92,-159.4 8516.92,-155.2 8516.92,-155.2 8516.92,-146.8 8516.92,-146.8 8516.92,-142.6 8521.12,-138.4 8525.32,-138.4 8525.32,-138.4 8658.68,-138.4 8658.68,-138.4 8662.88,-138.4 8667.08,-142.6 8667.08,-146.8 8667.08,-146.8 8667.08,-155.2 8667.08,-155.2 8667.08,-159.4 8662.88,-163.6 8658.68,-163.6"/>
<text xml:space="preserve" text-anchor="middle" x="8592" y="-147.9" font-family="Helvetica,sans-Serif" font-size="8.00">WARP&#45;counterfactual&#45;refactoring &#45; XL</text>
</g>
<!-- cool_ideas_WARP_dead_symbol_detection -->
<g id="node56" class="node">
<title>cool_ideas_WARP_dead_symbol_detection</title>
<path fill="#d4e8f7" stroke="black" d="M8805.18,-163.6C8805.18,-163.6 8686.82,-163.6 8686.82,-163.6 8682.62,-163.6 8678.42,-159.4 8678.42,-155.2 8678.42,-155.2 8678.42,-146.8 8678.42,-146.8 8678.42,-142.6 8682.62,-138.4 8686.82,-138.4 8686.82,-138.4 8805.18,-138.4 8805.18,-138.4 8809.38,-138.4 8813.58,-142.6 8813.58,-146.8 8813.58,-146.8 8813.58,-155.2 8813.58,-155.2 8813.58,-159.4 8809.38,-163.6 8805.18,-163.6"/>
<text xml:space="preserve" text-anchor="middle" x="8746" y="-147.9" font-family="Helvetica,sans-Serif" font-size="8.00">WARP&#45;dead&#45;symbol&#45;detection &#45; S</text>
</g>
<!-- cool_ideas_WARP_degeneracy_warning -->
<g id="node57" class="node">
<title>cool_ideas_WARP_degeneracy_warning</title>
<path fill="#d4e8f7" stroke="black" d="M8945.18,-163.6C8945.18,-163.6 8832.82,-163.6 8832.82,-163.6 8828.62,-163.6 8824.42,-159.4 8824.42,-155.2 8824.42,-155.2 8824.42,-146.8 8824.42,-146.8 8824.42,-142.6 8828.62,-138.4 8832.82,-138.4 8832.82,-138.4 8945.18,-138.4 8945.18,-138.4 8949.38,-138.4 8953.58,-142.6 8953.58,-146.8 8953.58,-146.8 8953.58,-155.2 8953.58,-155.2 8953.58,-159.4 8949.38,-163.6 8945.18,-163.6"/>
<text xml:space="preserve" text-anchor="middle" x="8889" y="-147.9" font-family="Helvetica,sans-Serif" font-size="8.00">WARP&#45;degeneracy&#45;warning &#45; M</text>
</g>
<!-- cool_ideas_WARP_drift_sentinel -->
<g id="node58" class="node">
<title>cool_ideas_WARP_drift_sentinel</title>
<path fill="#d4e8f7" stroke="black" d="M9055.18,-163.6C9055.18,-163.6 8972.82,-163.6 8972.82,-163.6 8968.62,-163.6 8964.42,-159.4 8964.42,-155.2 8964.42,-155.2 8964.42,-146.8 8964.42,-146.8 8964.42,-142.6 8968.62,-138.4 8972.82,-138.4 8972.82,-138.4 9055.18,-138.4 9055.18,-138.4 9059.38,-138.4 9063.58,-142.6 9063.58,-146.8 9063.58,-146.8 9063.58,-155.2 9063.58,-155.2 9063.58,-159.4 9059.38,-163.6 9055.18,-163.6"/>
<text xml:space="preserve" text-anchor="middle" x="9014" y="-147.9" font-family="Helvetica,sans-Serif" font-size="8.00">WARP&#45;drift&#45;sentinel &#45; M</text>
</g>
<!-- cool_ideas_WARP_footprint_parallelism -->
<g id="node59" class="node">
<title>cool_ideas_WARP_footprint_parallelism</title>
<path fill="#d4e8f7" stroke="black" d="M9194.8,-163.6C9194.8,-163.6 9083.2,-163.6 9083.2,-163.6 9079,-163.6 9074.8,-159.4 9074.8,-155.2 9074.8,-155.2 9074.8,-146.8 9074.8,-146.8 9074.8,-142.6 9079,-138.4 9083.2,-138.4 9083.2,-138.4 9194.8,-138.4 9194.8,-138.4 9199,-138.4 9203.2,-142.6 9203.2,-146.8 9203.2,-146.8 9203.2,-155.2 9203.2,-155.2 9203.2,-159.4 9199,-163.6 9194.8,-163.6"/>
<text xml:space="preserve" text-anchor="middle" x="9139" y="-147.9" font-family="Helvetica,sans-Serif" font-size="8.00">WARP&#45;footprint&#45;parallelism &#45; XL</text>
</g>
<!-- cool_ideas_WARP_graft_pack -->
<g id="node60" class="node">
<title>cool_ideas_WARP_graft_pack</title>
<path fill="#d4e8f7" stroke="black" d="M9297.43,-163.6C9297.43,-163.6 9222.57,-163.6 9222.57,-163.6 9218.38,-163.6 9214.17,-159.4 9214.17,-155.2 9214.17,-155.2 9214.17,-146.8 9214.17,-146.8 9214.17,-142.6 9218.38,-138.4 9222.57,-138.4 9222.57,-138.4 9297.43,-138.4 9297.43,-138.4 9301.62,-138.4 9305.83,-142.6 9305.83,-146.8 9305.83,-146.8 9305.83,-155.2 9305.83,-155.2 9305.83,-159.4 9301.62,-163.6 9297.43,-163.6"/>
<text xml:space="preserve" text-anchor="middle" x="9260" y="-147.9" font-family="Helvetica,sans-Serif" font-size="8.00">WARP&#45;graft&#45;pack &#45; M</text>
</g>
<!-- cool_ideas_WARP_grouped_aggregate_queries -->
<g id="node61" class="node">
<title>cool_ideas_WARP_grouped_aggregate_queries</title>
<path fill="#d4e8f7" stroke="black" d="M9462.93,-163.6C9462.93,-163.6 9325.07,-163.6 9325.07,-163.6 9320.88,-163.6 9316.67,-159.4 9316.67,-155.2 9316.67,-155.2 9316.67,-146.8 9316.67,-146.8 9316.67,-142.6 9320.88,-138.4 9325.07,-138.4 9325.07,-138.4 9462.93,-138.4 9462.93,-138.4 9467.12,-138.4 9471.33,-142.6 9471.33,-146.8 9471.33,-146.8 9471.33,-155.2 9471.33,-155.2 9471.33,-159.4 9467.12,-163.6 9462.93,-163.6"/>
<text xml:space="preserve" text-anchor="middle" x="9394" y="-147.9" font-family="Helvetica,sans-Serif" font-size="8.00">WARP&#45;grouped&#45;aggregate&#45;queries &#45; M</text>
</g>
<!-- cool_ideas_WARP_intent_and_decision_events -->
<g id="node62" class="node">
<title>cool_ideas_WARP_intent_and_decision_events</title>
<path fill="#d4e8f7" stroke="black" d="M9623.3,-163.6C9623.3,-163.6 9490.7,-163.6 9490.7,-163.6 9486.5,-163.6 9482.3,-159.4 9482.3,-155.2 9482.3,-155.2 9482.3,-146.8 9482.3,-146.8 9482.3,-142.6 9486.5,-138.4 9490.7,-138.4 9490.7,-138.4 9623.3,-138.4 9623.3,-138.4 9627.5,-138.4 9631.7,-142.6 9631.7,-146.8 9631.7,-146.8 9631.7,-155.2 9631.7,-155.2 9631.7,-159.4 9627.5,-163.6 9623.3,-163.6"/>
<text xml:space="preserve" text-anchor="middle" x="9557" y="-147.9" font-family="Helvetica,sans-Serif" font-size="8.00">WARP&#45;intent&#45;and&#45;decision&#45;events &#45; M</text>
</g>
<!-- cool_ideas_WARP_intentional_degeneracy_privacy -->
<g id="node63" class="node">
<title>cool_ideas_WARP_intentional_degeneracy_privacy</title>
<path fill="#d4e8f7" stroke="black" d="M9798.8,-163.6C9798.8,-163.6 9651.2,-163.6 9651.2,-163.6 9647,-163.6 9642.8,-159.4 9642.8,-155.2 9642.8,-155.2 9642.8,-146.8 9642.8,-146.8 9642.8,-142.6 9647,-138.4 9651.2,-138.4 9651.2,-138.4 9798.8,-138.4 9798.8,-138.4 9803,-138.4 9807.2,-142.6 9807.2,-146.8 9807.2,-146.8 9807.2,-155.2 9807.2,-155.2 9807.2,-159.4 9803,-163.6 9798.8,-163.6"/>
<text xml:space="preserve" text-anchor="middle" x="9725" y="-147.9" font-family="Helvetica,sans-Serif" font-size="8.00">WARP&#45;intentional&#45;degeneracy&#45;privacy &#45; M</text>
</g>
<!-- cool_ideas_WARP_minimum_viable_context -->
<g id="node64" class="node">
<title>cool_ideas_WARP_minimum_viable_context</title>
<path fill="#d4e8f7" stroke="black" d="M9949.43,-163.6C9949.43,-163.6 9826.57,-163.6 9826.57,-163.6 9822.38,-163.6 9818.17,-159.4 9818.17,-155.2 9818.17,-155.2 9818.17,-146.8 9818.17,-146.8 9818.17,-142.6 9822.38,-138.4 9826.57,-138.4 9826.57,-138.4 9949.43,-138.4 9949.43,-138.4 9953.62,-138.4 9957.83,-142.6 9957.83,-146.8 9957.83,-146.8 9957.83,-155.2 9957.83,-155.2 9957.83,-159.4 9953.62,-163.6 9949.43,-163.6"/>
<text xml:space="preserve" text-anchor="middle" x="9888" y="-147.9" font-family="Helvetica,sans-Serif" font-size="8.00">WARP&#45;minimum&#45;viable&#45;context &#45; M</text>
</g>
<!-- cool_ideas_WARP_outline_diff_commit_trailer -->
<g id="node65" class="node">
<title>cool_ideas_WARP_outline_diff_commit_trailer</title>
<path fill="#d4e8f7" stroke="black" d="M10102.93,-163.6C10102.93,-163.6 9977.07,-163.6 9977.07,-163.6 9972.88,-163.6 9968.67,-159.4 9968.67,-155.2 9968.67,-155.2 9968.67,-146.8 9968.67,-146.8 9968.67,-142.6 9972.88,-138.4 9977.07,-138.4 9977.07,-138.4 10102.93,-138.4 10102.93,-138.4 10107.12,-138.4 10111.33,-142.6 10111.33,-146.8 10111.33,-146.8 10111.33,-155.2 10111.33,-155.2 10111.33,-159.4 10107.12,-163.6 10102.93,-163.6"/>
<text xml:space="preserve" text-anchor="middle" x="10040" y="-147.9" font-family="Helvetica,sans-Serif" font-size="8.00">WARP&#45;outline&#45;diff&#45;commit&#45;trailer &#45; S</text>
</g>
<!-- cool_ideas_WARP_projection_safety_classes -->
<g id="node66" class="node">
<title>cool_ideas_WARP_projection_safety_classes</title>
<path fill="#d4e8f7" stroke="black" d="M10256.93,-163.6C10256.93,-163.6 10131.07,-163.6 10131.07,-163.6 10126.88,-163.6 10122.67,-159.4 10122.67,-155.2 10122.67,-155.2 10122.67,-146.8 10122.67,-146.8 10122.67,-142.6 10126.88,-138.4 10131.07,-138.4 10131.07,-138.4 10256.93,-138.4 10256.93,-138.4 10261.12,-138.4 10265.33,-142.6 10265.33,-146.8 10265.33,-146.8 10265.33,-155.2 10265.33,-155.2 10265.33,-159.4 10261.12,-163.6 10256.93,-163.6"/>
<text xml:space="preserve" text-anchor="middle" x="10194" y="-147.9" font-family="Helvetica,sans-Serif" font-size="8.00">WARP&#45;projection&#45;safety&#45;classes &#45; M</text>
</g>
<!-- cool_ideas_WARP_provenance_dag -->
<g id="node67" class="node">
<title>cool_ideas_WARP_provenance_dag</title>
<path fill="#d4e8f7" stroke="black" d="M10379.55,-163.6C10379.55,-163.6 10284.45,-163.6 10284.45,-163.6 10280.25,-163.6 10276.05,-159.4 10276.05,-155.2 10276.05,-155.2 10276.05,-146.8 10276.05,-146.8 10276.05,-142.6 10280.25,-138.4 10284.45,-138.4 10284.45,-138.4 10379.55,-138.4 10379.55,-138.4 10383.75,-138.4 10387.95,-142.6 10387.95,-146.8 10387.95,-146.8 10387.95,-155.2 10387.95,-155.2 10387.95,-159.4 10383.75,-163.6 10379.55,-163.6"/>
<text xml:space="preserve" text-anchor="middle" x="10332" y="-147.9" font-family="Helvetica,sans-Serif" font-size="8.00">WARP&#45;provenance&#45;dag &#45; L</text>
</g>
<!-- cool_ideas_WARP_reasoning_trace_replay -->
<g id="node68" class="node">
<title>cool_ideas_WARP_reasoning_trace_replay</title>
<path fill="#d4e8f7" stroke="black" d="M10526.93,-163.6C10526.93,-163.6 10407.07,-163.6 10407.07,-163.6 10402.88,-163.6 10398.67,-159.4 10398.67,-155.2 10398.67,-155.2 10398.67,-146.8 10398.67,-146.8 10398.67,-142.6 10402.88,-138.4 10407.07,-138.4 10407.07,-138.4 10526.93,-138.4 10526.93,-138.4 10531.12,-138.4 10535.33,-142.6 10535.33,-146.8 10535.33,-146.8 10535.33,-155.2 10535.33,-155.2 10535.33,-159.4 10531.12,-163.6 10526.93,-163.6"/>
<text xml:space="preserve" text-anchor="middle" x="10467" y="-147.9" font-family="Helvetica,sans-Serif" font-size="8.00">WARP&#45;reasoning&#45;trace&#45;replay &#45; M</text>
</g>
<!-- cool_ideas_WARP_rulial_heat_map -->
<g id="node69" class="node">
<title>cool_ideas_WARP_rulial_heat_map</title>
<path fill="#d4e8f7" stroke="black" d="M10645.3,-163.6C10645.3,-163.6 10554.7,-163.6 10554.7,-163.6 10550.5,-163.6 10546.3,-159.4 10546.3,-155.2 10546.3,-155.2 10546.3,-146.8 10546.3,-146.8 10546.3,-142.6 10550.5,-138.4 10554.7,-138.4 10554.7,-138.4 10645.3,-138.4 10645.3,-138.4 10649.5,-138.4 10653.7,-142.6 10653.7,-146.8 10653.7,-146.8 10653.7,-155.2 10653.7,-155.2 10653.7,-159.4 10649.5,-163.6 10645.3,-163.6"/>
<text xml:space="preserve" text-anchor="middle" x="10600" y="-147.9" font-family="Helvetica,sans-Serif" font-size="8.00">WARP&#45;rulial&#45;heat&#45;map &#45; L</text>
</g>
<!-- cool_ideas_WARP_semantic_drift_in_sessions -->
<g id="node70" class="node">
<title>cool_ideas_WARP_semantic_drift_in_sessions</title>
<path fill="#d4e8f7" stroke="black" d="M10802.43,-163.6C10802.43,-163.6 10673.57,-163.6 10673.57,-163.6 10669.38,-163.6 10665.17,-159.4 10665.17,-155.2 10665.17,-155.2 10665.17,-146.8 10665.17,-146.8 10665.17,-142.6 10669.38,-138.4 10673.57,-138.4 10673.57,-138.4 10802.43,-138.4 10802.43,-138.4 10806.62,-138.4 10810.83,-142.6 10810.83,-146.8 10810.83,-146.8 10810.83,-155.2 10810.83,-155.2 10810.83,-159.4 10806.62,-163.6 10802.43,-163.6"/>
<text xml:space="preserve" text-anchor="middle" x="10738" y="-147.9" font-family="Helvetica,sans-Serif" font-size="8.00">WARP&#45;semantic&#45;drift&#45;in&#45;sessions &#45; M</text>
</g>
<!-- cool_ideas_WARP_semantic_merge_conflict_prediction -->
<g id="node71" class="node">
<title>cool_ideas_WARP_semantic_merge_conflict_prediction</title>
<path fill="#d4e8f7" stroke="black" d="M10989.43,-163.6C10989.43,-163.6 10830.57,-163.6 10830.57,-163.6 10826.38,-163.6 10822.17,-159.4 10822.17,-155.2 10822.17,-155.2 10822.17,-146.8 10822.17,-146.8 10822.17,-142.6 10826.38,-138.4 10830.57,-138.4 10830.57,-138.4 10989.43,-138.4 10989.43,-138.4 10993.62,-138.4 10997.83,-142.6 10997.83,-146.8 10997.83,-146.8 10997.83,-155.2 10997.83,-155.2 10997.83,-159.4 10993.62,-163.6 10989.43,-163.6"/>
<text xml:space="preserve" text-anchor="middle" x="10910" y="-147.9" font-family="Helvetica,sans-Serif" font-size="8.00">WARP&#45;semantic&#45;merge&#45;conflict&#45;prediction &#45; L</text>
</g>
<!-- cool_ideas_WARP_session_filtration -->
<g id="node72" class="node">
<title>cool_ideas_WARP_session_filtration</title>
<path fill="#d4e8f7" stroke="black" d="M11110.8,-163.6C11110.8,-163.6 11017.2,-163.6 11017.2,-163.6 11013,-163.6 11008.8,-159.4 11008.8,-155.2 11008.8,-155.2 11008.8,-146.8 11008.8,-146.8 11008.8,-142.6 11013,-138.4 11017.2,-138.4 11017.2,-138.4 11110.8,-138.4 11110.8,-138.4 11115,-138.4 11119.2,-142.6 11119.2,-146.8 11119.2,-146.8 11119.2,-155.2 11119.2,-155.2 11119.2,-159.4 11115,-163.6 11110.8,-163.6"/>
<text xml:space="preserve" text-anchor="middle" x="11064" y="-147.9" font-family="Helvetica,sans-Serif" font-size="8.00">WARP&#45;session&#45;filtration &#45; L</text>
</g>
<!-- cool_ideas_WARP_shadow_structural_workspaces -->
<g id="node73" class="node">
<title>cool_ideas_WARP_shadow_structural_workspaces</title>
<path fill="#d4e8f7" stroke="black" d="M11289.3,-163.6C11289.3,-163.6 11138.7,-163.6 11138.7,-163.6 11134.5,-163.6 11130.3,-159.4 11130.3,-155.2 11130.3,-155.2 11130.3,-146.8 11130.3,-146.8 11130.3,-142.6 11134.5,-138.4 11138.7,-138.4 11138.7,-138.4 11289.3,-138.4 11289.3,-138.4 11293.5,-138.4 11297.7,-142.6 11297.7,-146.8 11297.7,-146.8 11297.7,-155.2 11297.7,-155.2 11297.7,-159.4 11293.5,-163.6 11289.3,-163.6"/>
<text xml:space="preserve" text-anchor="middle" x="11214" y="-147.9" font-family="Helvetica,sans-Serif" font-size="8.00">WARP&#45;shadow&#45;structural&#45;workspaces &#45; XL</text>
</g>
<!-- cool_ideas_WARP_speculative_merge -->
<g id="node74" class="node">
<title>cool_ideas_WARP_speculative_merge</title>
<path fill="#d4e8f7" stroke="black" d="M11424.55,-163.6C11424.55,-163.6 11317.45,-163.6 11317.45,-163.6 11313.25,-163.6 11309.05,-159.4 11309.05,-155.2 11309.05,-155.2 11309.05,-146.8 11309.05,-146.8 11309.05,-142.6 11313.25,-138.4 11317.45,-138.4 11317.45,-138.4 11424.55,-138.4 11424.55,-138.4 11428.75,-138.4 11432.95,-142.6 11432.95,-146.8 11432.95,-146.8 11432.95,-155.2 11432.95,-155.2 11432.95,-159.4 11428.75,-163.6 11424.55,-163.6"/>
<text xml:space="preserve" text-anchor="middle" x="11371" y="-147.9" font-family="Helvetica,sans-Serif" font-size="8.00">WARP&#45;speculative&#45;merge &#45; XL</text>
</g>
<!-- cool_ideas_WARP_stale_docs_checker -->
<g id="node75" class="node">
<title>cool_ideas_WARP_stale_docs_checker</title>
<path fill="#d4e8f7" stroke="black" d="M11557.8,-163.6C11557.8,-163.6 11452.2,-163.6 11452.2,-163.6 11448,-163.6 11443.8,-159.4 11443.8,-155.2 11443.8,-155.2 11443.8,-146.8 11443.8,-146.8 11443.8,-142.6 11448,-138.4 11452.2,-138.4 11452.2,-138.4 11557.8,-138.4 11557.8,-138.4 11562,-138.4 11566.2,-142.6 11566.2,-146.8 11566.2,-146.8 11566.2,-155.2 11566.2,-155.2 11566.2,-159.4 11562,-163.6 11557.8,-163.6"/>
<text xml:space="preserve" text-anchor="middle" x="11505" y="-147.9" font-family="Helvetica,sans-Serif" font-size="8.00">WARP&#45;stale&#45;docs&#45;checker &#45; M</text>
</g>
<!-- cool_ideas_WARP_structural_drift_detection -->
<g id="node76" class="node">
<title>cool_ideas_WARP_structural_drift_detection</title>
<path fill="#d4e8f7" stroke="black" d="M11708.8,-163.6C11708.8,-163.6 11585.2,-163.6 11585.2,-163.6 11581,-163.6 11576.8,-159.4 11576.8,-155.2 11576.8,-155.2 11576.8,-146.8 11576.8,-146.8 11576.8,-142.6 11581,-138.4 11585.2,-138.4 11585.2,-138.4 11708.8,-138.4 11708.8,-138.4 11713,-138.4 11717.2,-142.6 11717.2,-146.8 11717.2,-146.8 11717.2,-155.2 11717.2,-155.2 11717.2,-159.4 11713,-163.6 11708.8,-163.6"/>
<text xml:space="preserve" text-anchor="middle" x="11647" y="-147.9" font-family="Helvetica,sans-Serif" font-size="8.00">WARP&#45;structural&#45;drift&#45;detection &#45; M</text>
</g>
<!-- cool_ideas_WARP_structural_impact_prediction -->
<g id="node77" class="node">
<title>cool_ideas_WARP_structural_impact_prediction</title>
<path fill="#d4e8f7" stroke="black" d="M11875.3,-163.6C11875.3,-163.6 11736.7,-163.6 11736.7,-163.6 11732.5,-163.6 11728.3,-159.4 11728.3,-155.2 11728.3,-155.2 11728.3,-146.8 11728.3,-146.8 11728.3,-142.6 11732.5,-138.4 11736.7,-138.4 11736.7,-138.4 11875.3,-138.4 11875.3,-138.4 11879.5,-138.4 11883.7,-142.6 11883.7,-146.8 11883.7,-146.8 11883.7,-155.2 11883.7,-155.2 11883.7,-159.4 11879.5,-163.6 11875.3,-163.6"/>
<text xml:space="preserve" text-anchor="middle" x="11806" y="-147.9" font-family="Helvetica,sans-Serif" font-size="8.00">WARP&#45;structural&#45;impact&#45;prediction &#45; XL</text>
</g>
<!-- cool_ideas_WARP_symbol_heatmap -->
<g id="node78" class="node">
<title>cool_ideas_WARP_symbol_heatmap</title>
<path fill="#d4e8f7" stroke="black" d="M12001.05,-163.6C12001.05,-163.6 11902.95,-163.6 11902.95,-163.6 11898.75,-163.6 11894.55,-159.4 11894.55,-155.2 11894.55,-155.2 11894.55,-146.8 11894.55,-146.8 11894.55,-142.6 11898.75,-138.4 11902.95,-138.4 11902.95,-138.4 12001.05,-138.4 12001.05,-138.4 12005.25,-138.4 12009.45,-142.6 12009.45,-146.8 12009.45,-146.8 12009.45,-155.2 12009.45,-155.2 12009.45,-159.4 12005.25,-163.6 12001.05,-163.6"/>
<text xml:space="preserve" text-anchor="middle" x="11952" y="-147.9" font-family="Helvetica,sans-Serif" font-size="8.00">WARP&#45;symbol&#45;heatmap &#45; M</text>
</g>
<!-- cool_ideas_WARP_symbol_history_timeline -->
<g id="node79" class="node">
<title>cool_ideas_WARP_symbol_history_timeline</title>
<path fill="#d4e8f7" stroke="black" d="M12147.18,-163.6C12147.18,-163.6 12028.82,-163.6 12028.82,-163.6 12024.62,-163.6 12020.42,-159.4 12020.42,-155.2 12020.42,-155.2 12020.42,-146.8 12020.42,-146.8 12020.42,-142.6 12024.62,-138.4 12028.82,-138.4 12028.82,-138.4 12147.18,-138.4 12147.18,-138.4 12151.38,-138.4 12155.58,-142.6 12155.58,-146.8 12155.58,-146.8 12155.58,-155.2 12155.58,-155.2 12155.58,-159.4 12151.38,-163.6 12147.18,-163.6"/>
<text xml:space="preserve" text-anchor="middle" x="12088" y="-147.9" font-family="Helvetica,sans-Serif" font-size="8.00">WARP&#45;symbol&#45;history&#45;timeline &#45; S</text>
</g>
<!-- cool_ideas_WARP_technical_debt_curvature -->
<g id="node80" class="node">
<title>cool_ideas_WARP_technical_debt_curvature</title>
<path fill="#d4e8f7" stroke="black" d="M12297.43,-163.6C12297.43,-163.6 12174.57,-163.6 12174.57,-163.6 12170.38,-163.6 12166.17,-159.4 12166.17,-155.2 12166.17,-155.2 12166.17,-146.8 12166.17,-146.8 12166.17,-142.6 12170.38,-138.4 12174.57,-138.4 12174.57,-138.4 12297.43,-138.4 12297.43,-138.4 12301.62,-138.4 12305.83,-142.6 12305.83,-146.8 12305.83,-146.8 12305.83,-155.2 12305.83,-155.2 12305.83,-159.4 12301.62,-163.6 12297.43,-163.6"/>
<text xml:space="preserve" text-anchor="middle" x="12236" y="-147.9" font-family="Helvetica,sans-Serif" font-size="8.00">WARP&#45;technical&#45;debt&#45;curvature &#45; L</text>
</g>
<!-- cool_ideas_WARP_temporal_structural_search -->
<g id="node81" class="node">
<title>cool_ideas_WARP_temporal_structural_search</title>
<path fill="#d4e8f7" stroke="black" d="M12458.68,-163.6C12458.68,-163.6 12325.32,-163.6 12325.32,-163.6 12321.12,-163.6 12316.92,-159.4 12316.92,-155.2 12316.92,-155.2 12316.92,-146.8 12316.92,-146.8 12316.92,-142.6 12321.12,-138.4 12325.32,-138.4 12325.32,-138.4 12458.68,-138.4 12458.68,-138.4 12462.88,-138.4 12467.08,-142.6 12467.08,-146.8 12467.08,-146.8 12467.08,-155.2 12467.08,-155.2 12467.08,-159.4 12462.88,-163.6 12458.68,-163.6"/>
<text xml:space="preserve" text-anchor="middle" x="12392" y="-147.9" font-family="Helvetica,sans-Serif" font-size="8.00">WARP&#45;temporal&#45;structural&#45;search &#45; M</text>
</g>
<!-- cool_ideas_bounded_neighborhood_for_references -->
<g id="node82" class="node">
<title>cool_ideas_bounded_neighborhood_for_references</title>
<path fill="#d4e8f7" stroke="black" d="M12635.18,-163.6C12635.18,-163.6 12486.82,-163.6 12486.82,-163.6 12482.62,-163.6 12478.42,-159.4 12478.42,-155.2 12478.42,-155.2 12478.42,-146.8 12478.42,-146.8 12478.42,-142.6 12482.62,-138.4 12486.82,-138.4 12486.82,-138.4 12635.18,-138.4 12635.18,-138.4 12639.38,-138.4 12643.58,-142.6 12643.58,-146.8 12643.58,-146.8 12643.58,-155.2 12643.58,-155.2 12643.58,-159.4 12639.38,-163.6 12635.18,-163.6"/>
<text xml:space="preserve" text-anchor="middle" x="12561" y="-147.9" font-family="Helvetica,sans-Serif" font-size="8.00">bounded&#45;neighborhood&#45;for&#45;references &#45; S</text>
</g>
<!-- cool_ideas_monitor_tick_ceiling_tracking -->
<g id="node83" class="node">
<title>cool_ideas_monitor_tick_ceiling_tracking</title>
<path fill="#d4e8f7" stroke="black" d="M12770.55,-163.6C12770.55,-163.6 12663.45,-163.6 12663.45,-163.6 12659.25,-163.6 12655.05,-159.4 12655.05,-155.2 12655.05,-155.2 12655.05,-146.8 12655.05,-146.8 12655.05,-142.6 12659.25,-138.4 12663.45,-138.4 12663.45,-138.4 12770.55,-138.4 12770.55,-138.4 12774.75,-138.4 12778.95,-142.6 12778.95,-146.8 12778.95,-146.8 12778.95,-155.2 12778.95,-155.2 12778.95,-159.4 12774.75,-163.6 12770.55,-163.6"/>
<text xml:space="preserve" text-anchor="middle" x="12717" y="-147.9" font-family="Helvetica,sans-Serif" font-size="8.00">monitor&#45;tick&#45;ceiling&#45;tracking &#45; S</text>
</g>
<!-- cool_ideas_traverse_plus_query_hydration_helper -->
<g id="node84" class="node">
<title>cool_ideas_traverse_plus_query_hydration_helper</title>
<path fill="#d4e8f7" stroke="black" d="M12939.8,-163.6C12939.8,-163.6 12798.2,-163.6 12798.2,-163.6 12794,-163.6 12789.8,-159.4 12789.8,-155.2 12789.8,-155.2 12789.8,-146.8 12789.8,-146.8 12789.8,-142.6 12794,-138.4 12798.2,-138.4 12798.2,-138.4 12939.8,-138.4 12939.8,-138.4 12944,-138.4 12948.2,-142.6 12948.2,-146.8 12948.2,-146.8 12948.2,-155.2 12948.2,-155.2 12948.2,-159.4 12944,-163.6 12939.8,-163.6"/>
<text xml:space="preserve" text-anchor="middle" x="12869" y="-147.9" font-family="Helvetica,sans-Serif" font-size="8.00">traverse&#45;plus&#45;query&#45;hydration&#45;helper &#45; S</text>
</g>
<!-- leg_v07 -->
<g id="node85" class="node">
<title>leg_v07</title>
<path fill="#ffa07a" stroke="black" stroke-width="2" d="M13049.8,-163.6C13049.8,-163.6 12980.2,-163.6 12980.2,-163.6 12976,-163.6 12971.8,-159.4 12971.8,-155.2 12971.8,-155.2 12971.8,-146.8 12971.8,-146.8 12971.8,-142.6 12976,-138.4 12980.2,-138.4 12980.2,-138.4 13049.8,-138.4 13049.8,-138.4 13054,-138.4 13058.2,-142.6 13058.2,-146.8 13058.2,-146.8 13058.2,-155.2 13058.2,-155.2 13058.2,-159.4 13054,-163.6 13049.8,-163.6"/>
<text xml:space="preserve" text-anchor="middle" x="13015" y="-148.47" font-family="Helvetica,sans-Serif" font-size="7.00">v0.7.0</text>
</g>
<!-- leg_bad -->
<g id="node86" class="node">
<title>leg_bad</title>
<path fill="#f6b3b3" stroke="black" stroke-width="2" d="M13049.8,-102.4C13049.8,-102.4 12980.2,-102.4 12980.2,-102.4 12976,-102.4 12971.8,-98.2 12971.8,-94 12971.8,-94 12971.8,-85.6 12971.8,-85.6 12971.8,-81.4 12976,-77.2 12980.2,-77.2 12980.2,-77.2 13049.8,-77.2 13049.8,-77.2 13054,-77.2 13058.2,-81.4 13058.2,-85.6 13058.2,-85.6 13058.2,-94 13058.2,-94 13058.2,-98.2 13054,-102.4 13049.8,-102.4"/>
<text xml:space="preserve" text-anchor="middle" x="13015" y="-87.28" font-family="Helvetica,sans-Serif" font-size="7.00">bad&#45;code</text>
</g>
<!-- leg_v07&#45;&gt;leg_bad -->
<!-- leg_idea -->
<g id="node87" class="node">
<title>leg_idea</title>
<path fill="#d4e8f7" stroke="black" d="M13049.8,-41.2C13049.8,-41.2 12980.2,-41.2 12980.2,-41.2 12976,-41.2 12971.8,-37 12971.8,-32.8 12971.8,-32.8 12971.8,-24.4 12971.8,-24.4 12971.8,-20.2 12976,-16 12980.2,-16 12980.2,-16 13049.8,-16 13049.8,-16 13054,-16 13058.2,-20.2 13058.2,-24.4 13058.2,-24.4 13058.2,-32.8 13058.2,-32.8 13058.2,-37 13054,-41.2 13049.8,-41.2"/>
<text xml:space="preserve" text-anchor="middle" x="13015" y="-26.08" font-family="Helvetica,sans-Serif" font-size="7.00">cool&#45;ideas</text>
</g>
<!-- leg_bad&#45;&gt;leg_idea -->
</g>
</svg>
