<?xml version="1.0" encoding="UTF-8" standalone="no"?>
<!DOCTYPE svg PUBLIC "-//W3C//DTD SVG 1.1//EN"
 "http://www.w3.org/Graphics/SVG/1.1/DTD/svg11.dtd">
<!-- Generated by graphviz version 14.1.2 (20260124.0452)
 -->
<!-- Title: backlog Pages: 1 -->
<svg width="10984pt" height="383pt"
 viewBox="0.00 0.00 10984.00 383.00" xmlns="http://www.w3.org/2000/svg" xmlns:xlink="http://www.w3.org/1999/xlink">
<g id="graph0" class="graph" transform="scale(1 1) rotate(0) translate(4 379)">
<title>backlog</title>
<polygon fill="white" stroke="none" points="-4,4 -4,-379 10980,-379 10980,4 -4,4"/>
<text xml:space="preserve" text-anchor="middle" x="5488" y="-359.6" font-family="Helvetica,sans-Serif" font-size="12.00">Active backlog graph generated from docs/method/backlog/*/*.md</text>
<g id="clust1" class="cluster">
<title>cluster_v0_7_0</title>
<path fill="#fafafa" stroke="#cccccc" d="M20,-213.85C20,-213.85 372,-213.85 372,-213.85 378,-213.85 384,-219.85 384,-225.85 384,-225.85 384,-334.25 384,-334.25 384,-340.25 378,-346.25 372,-346.25 372,-346.25 20,-346.25 20,-346.25 14,-346.25 8,-340.25 8,-334.25 8,-334.25 8,-225.85 8,-225.85 8,-219.85 14,-213.85 20,-213.85"/>
<text xml:space="preserve" text-anchor="middle" x="35.12" y="-333.7" font-family="Helvetica,sans-Serif" font-size="9.00" fill="#555555">v0.7.0 (4)</text>
</g>
<g id="clust2" class="cluster">
<title>cluster_cool_ideas</title>
<path fill="#fafafa" stroke="#cccccc" d="M608,-140.4C608,-140.4 10568,-140.4 10568,-140.4 10574,-140.4 10580,-146.4 10580,-152.4 10580,-152.4 10580,-334.25 10580,-334.25 10580,-340.25 10574,-346.25 10568,-346.25 10568,-346.25 608,-346.25 608,-346.25 602,-346.25 596,-340.25 596,-334.25 596,-334.25 596,-152.4 596,-152.4 596,-146.4 602,-140.4 608,-140.4"/>
<text xml:space="preserve" text-anchor="middle" x="635.5" y="-333.7" font-family="Helvetica,sans-Serif" font-size="9.00" fill="#555555">Cool Ideas (77)</text>
</g>
<g id="clust3" class="cluster">
<title>cluster_external</title>
<path fill="#f8fbff" stroke="#cccccc" d="M404,-287.3C404,-287.3 576,-287.3 576,-287.3 582,-287.3 588,-293.3 588,-299.3 588,-299.3 588,-334.25 588,-334.25 588,-340.25 582,-346.25 576,-346.25 576,-346.25 404,-346.25 404,-346.25 398,-346.25 392,-340.25 392,-334.25 392,-334.25 392,-299.3 392,-299.3 392,-293.3 398,-287.3 404,-287.3"/>
<text xml:space="preserve" text-anchor="middle" x="435.25" y="-333.7" font-family="Helvetica,sans-Serif" font-size="9.00" fill="#555555">External blockers</text>
</g>
<g id="clust4" class="cluster">
<title>cluster_unresolved</title>
<path fill="#fff7f7" stroke="#cc3333" stroke-dasharray="5,2" d="M10600,-287.3C10600,-287.3 10832,-287.3 10832,-287.3 10838,-287.3 10844,-293.3 10844,-299.3 10844,-299.3 10844,-334.25 10844,-334.25 10844,-340.25 10838,-346.25 10832,-346.25 10832,-346.25 10600,-346.25 10600,-346.25 10594,-346.25 10588,-340.25 10588,-334.25 10588,-334.25 10588,-299.3 10588,-299.3 10588,-293.3 10594,-287.3 10600,-287.3"/>
<text xml:space="preserve" text-anchor="middle" x="10644.75" y="-333.7" font-family="Helvetica,sans-Serif" font-size="9.00" fill="#555555">Unresolved internal refs</text>
</g>
<g id="clust5" class="cluster">
<title>cluster_legend</title>
<path fill="none" stroke="#dddddd" d="M10864,-8C10864,-8 10956,-8 10956,-8 10962,-8 10968,-14 10968,-20 10968,-20 10968,-333.5 10968,-333.5 10968,-339.5 10962,-345.5 10956,-345.5 10956,-345.5 10864,-345.5 10864,-345.5 10858,-345.5 10852,-339.5 10852,-333.5 10852,-333.5 10852,-20 10852,-20 10852,-14 10858,-8 10864,-8"/>
<text xml:space="preserve" text-anchor="middle" x="10873.5" y="-333.9" font-family="Helvetica,sans-Serif" font-size="8.00" fill="#aaaaaa">Legend</text>
</g>
<!-- v0_7_0_CORE_agent_drift_warning -->
<g id="node1" class="node">
<title>v0_7_0_CORE_agent_drift_warning</title>
<path fill="#ffa07a" stroke="black" stroke-width="2" d="M116.05,-320.5C116.05,-320.5 23.95,-320.5 23.95,-320.5 19.75,-320.5 15.55,-316.3 15.55,-312.1 15.55,-312.1 15.55,-303.7 15.55,-303.7 15.55,-299.5 19.75,-295.3 23.95,-295.3 23.95,-295.3 116.05,-295.3 116.05,-295.3 120.25,-295.3 124.45,-299.5 124.45,-303.7 124.45,-303.7 124.45,-312.1 124.45,-312.1 124.45,-316.3 120.25,-320.5 116.05,-320.5"/>
<text xml:space="preserve" text-anchor="middle" x="70" y="-304.8" font-family="Helvetica,sans-Serif" font-size="8.00">CORE&#45;agent&#45;drift&#45;warning</text>
</g>
<!-- v0_7_0_CORE_migrate_to_slice_first_reads -->
<g id="node2" class="node">
<title>v0_7_0_CORE_migrate_to_slice_first_reads</title>
<path fill="#ffa07a" stroke="black" stroke-width="2" d="M367.8,-247.05C367.8,-247.05 250.2,-247.05 250.2,-247.05 246,-247.05 241.8,-242.85 241.8,-238.65 241.8,-238.65 241.8,-230.25 241.8,-230.25 241.8,-226.05 246,-221.85 250.2,-221.85 250.2,-221.85 367.8,-221.85 367.8,-221.85 372,-221.85 376.2,-226.05 376.2,-230.25 376.2,-230.25 376.2,-238.65 376.2,-238.65 376.2,-242.85 372,-247.05 367.8,-247.05"/>
<text xml:space="preserve" text-anchor="middle" x="309" y="-231.35" font-family="Helvetica,sans-Serif" font-size="8.00">CORE&#45;migrate&#45;to&#45;slice&#45;first&#45;reads</text>
</g>
<!-- v0_7_0_SURFACE_governed_write_tools -->
<g id="node3" class="node">
<title>v0_7_0_SURFACE_governed_write_tools</title>
<path fill="#ffa07a" stroke="black" stroke-width="2" d="M259.17,-320.5C259.17,-320.5 146.83,-320.5 146.83,-320.5 142.63,-320.5 138.43,-316.3 138.43,-312.1 138.43,-312.1 138.43,-303.7 138.43,-303.7 138.43,-299.5 142.63,-295.3 146.83,-295.3 146.83,-295.3 259.17,-295.3 259.17,-295.3 263.38,-295.3 267.57,-299.5 267.57,-303.7 267.57,-303.7 267.57,-312.1 267.57,-312.1 267.57,-316.3 263.38,-320.5 259.17,-320.5"/>
<text xml:space="preserve" text-anchor="middle" x="203" y="-304.8" font-family="Helvetica,sans-Serif" font-size="8.00">SURFACE&#45;governed&#45;write&#45;tools</text>
</g>
<!-- v0_7_0_WARP_lsp_enrichment -->
<g id="node4" class="node">
<title>v0_7_0_WARP_lsp_enrichment</title>
<path fill="#ffa07a" stroke="black" stroke-width="2" d="M367.55,-320.5C367.55,-320.5 290.45,-320.5 290.45,-320.5 286.25,-320.5 282.05,-316.3 282.05,-312.1 282.05,-312.1 282.05,-303.7 282.05,-303.7 282.05,-299.5 286.25,-295.3 290.45,-295.3 290.45,-295.3 367.55,-295.3 367.55,-295.3 371.75,-295.3 375.95,-299.5 375.95,-303.7 375.95,-303.7 375.95,-312.1 375.95,-312.1 375.95,-316.3 371.75,-320.5 367.55,-320.5"/>
<text xml:space="preserve" text-anchor="middle" x="329" y="-304.8" font-family="Helvetica,sans-Serif" font-size="8.00">WARP&#45;lsp&#45;enrichment</text>
</g>
<!-- cool_ideas_bounded_neighborhood_for_references -->
<g id="node5" class="node">
<title>cool_ideas_bounded_neighborhood_for_references</title>
<path fill="#d4e8f7" stroke="black" d="M761.18,-320.5C761.18,-320.5 612.82,-320.5 612.82,-320.5 608.62,-320.5 604.42,-316.3 604.42,-312.1 604.42,-312.1 604.42,-303.7 604.42,-303.7 604.42,-299.5 608.62,-295.3 612.82,-295.3 612.82,-295.3 761.18,-295.3 761.18,-295.3 765.38,-295.3 769.58,-299.5 769.58,-303.7 769.58,-303.7 769.58,-312.1 769.58,-312.1 769.58,-316.3 765.38,-320.5 761.18,-320.5"/>
<text xml:space="preserve" text-anchor="middle" x="687" y="-304.8" font-family="Helvetica,sans-Serif" font-size="8.00">bounded&#45;neighborhood&#45;for&#45;references &#45; S</text>
</g>
<!-- cool_ideas_CI_001_causal_collapse_visualizer -->
<g id="node6" class="node">
<title>cool_ideas_CI_001_causal_collapse_visualizer</title>
<path fill="#d4e8f7" stroke="black" d="M7466.3,-247.05C7466.3,-247.05 7339.7,-247.05 7339.7,-247.05 7335.5,-247.05 7331.3,-242.85 7331.3,-238.65 7331.3,-238.65 7331.3,-230.25 7331.3,-230.25 7331.3,-226.05 7335.5,-221.85 7339.7,-221.85 7339.7,-221.85 7466.3,-221.85 7466.3,-221.85 7470.5,-221.85 7474.7,-226.05 7474.7,-230.25 7474.7,-230.25 7474.7,-238.65 7474.7,-238.65 7474.7,-242.85 7470.5,-247.05 7466.3,-247.05"/>
<text xml:space="preserve" text-anchor="middle" x="7403" y="-231.35" font-family="Helvetica,sans-Serif" font-size="8.00">CI&#45;001&#45;causal&#45;collapse&#45;visualizer &#45; L</text>
</g>
<!-- cool_ideas_CI_002_deterministic_scenario_replay -->
<g id="node7" class="node">
<title>cool_ideas_CI_002_deterministic_scenario_replay</title>
<path fill="#d4e8f7" stroke="black" d="M931.68,-320.5C931.68,-320.5 792.32,-320.5 792.32,-320.5 788.12,-320.5 783.92,-316.3 783.92,-312.1 783.92,-312.1 783.92,-303.7 783.92,-303.7 783.92,-299.5 788.12,-295.3 792.32,-295.3 792.32,-295.3 931.68,-295.3 931.68,-295.3 935.88,-295.3 940.08,-299.5 940.08,-303.7 940.08,-303.7 940.08,-312.1 940.08,-312.1 940.08,-316.3 935.88,-320.5 931.68,-320.5"/>
<text xml:space="preserve" text-anchor="middle" x="862" y="-304.8" font-family="Helvetica,sans-Serif" font-size="8.00">CI&#45;002&#45;deterministic&#45;scenario&#45;replay &#45; L</text>
</g>
<!-- cool_ideas_CI_003_mcp_native_diff_protocol -->
<g id="node8" class="node">
<title>cool_ideas_CI_003_mcp_native_diff_protocol</title>
<path fill="#d4e8f7" stroke="black" d="M1085.8,-320.5C1085.8,-320.5 962.2,-320.5 962.2,-320.5 958,-320.5 953.8,-316.3 953.8,-312.1 953.8,-312.1 953.8,-303.7 953.8,-303.7 953.8,-299.5 958,-295.3 962.2,-295.3 962.2,-295.3 1085.8,-295.3 1085.8,-295.3 1090,-295.3 1094.2,-299.5 1094.2,-303.7 1094.2,-303.7 1094.2,-312.1 1094.2,-312.1 1094.2,-316.3 1090,-320.5 1085.8,-320.5"/>
<text xml:space="preserve" text-anchor="middle" x="1024" y="-304.8" font-family="Helvetica,sans-Serif" font-size="8.00">CI&#45;003&#45;mcp&#45;native&#45;diff&#45;protocol &#45; M</text>
</g>
<!-- cool_ideas_CLEAN_CODE_parallel_agent_merge_shared_file_loss -->
<g id="node9" class="node">
<title>cool_ideas_CLEAN_CODE_parallel_agent_merge_shared_file_loss</title>
<path fill="#d4e8f7" stroke="black" d="M1317.05,-320.5C1317.05,-320.5 1116.95,-320.5 1116.95,-320.5 1112.75,-320.5 1108.55,-316.3 1108.55,-312.1 1108.55,-312.1 1108.55,-303.7 1108.55,-303.7 1108.55,-299.5 1112.75,-295.3 1116.95,-295.3 1116.95,-295.3 1317.05,-295.3 1317.05,-295.3 1321.25,-295.3 1325.45,-299.5 1325.45,-303.7 1325.45,-303.7 1325.45,-312.1 1325.45,-312.1 1325.45,-316.3 1321.25,-320.5 1317.05,-320.5"/>
<text xml:space="preserve" text-anchor="middle" x="1217" y="-304.8" font-family="Helvetica,sans-Serif" font-size="8.00">CLEAN&#45;CODE&#45;parallel&#45;agent&#45;merge&#45;shared&#45;file&#45;loss &#45; M</text>
</g>
<!-- cool_ideas_CORE_agent_handoff_protocol -->
<g id="node10" class="node">
<title>cool_ideas_CORE_agent_handoff_protocol</title>
<path fill="#d4e8f7" stroke="black" d="M1467.92,-320.5C1467.92,-320.5 1348.08,-320.5 1348.08,-320.5 1343.88,-320.5 1339.67,-316.3 1339.67,-312.1 1339.67,-312.1 1339.67,-303.7 1339.67,-303.7 1339.67,-299.5 1343.88,-295.3 1348.08,-295.3 1348.08,-295.3 1467.92,-295.3 1467.92,-295.3 1472.12,-295.3 1476.33,-299.5 1476.33,-303.7 1476.33,-303.7 1476.33,-312.1 1476.33,-312.1 1476.33,-316.3 1472.12,-320.5 1467.92,-320.5"/>
<text xml:space="preserve" text-anchor="middle" x="1408" y="-304.8" font-family="Helvetica,sans-Serif" font-size="8.00">CORE&#45;agent&#45;handoff&#45;protocol &#45; M</text>
</g>
<!-- cool_ideas_CORE_auto_focus -->
<g id="node11" class="node">
<title>cool_ideas_CORE_auto_focus</title>
<path fill="#d4e8f7" stroke="black" d="M1571.67,-320.5C1571.67,-320.5 1498.33,-320.5 1498.33,-320.5 1494.12,-320.5 1489.92,-316.3 1489.92,-312.1 1489.92,-312.1 1489.92,-303.7 1489.92,-303.7 1489.92,-299.5 1494.12,-295.3 1498.33,-295.3 1498.33,-295.3 1571.67,-295.3 1571.67,-295.3 1575.88,-295.3 1580.08,-299.5 1580.08,-303.7 1580.08,-303.7 1580.08,-312.1 1580.08,-312.1 1580.08,-316.3 1575.88,-320.5 1571.67,-320.5"/>
<text xml:space="preserve" text-anchor="middle" x="1535" y="-304.8" font-family="Helvetica,sans-Serif" font-size="8.00">CORE&#45;auto&#45;focus &#45; L</text>
</g>
<!-- cool_ideas_CORE_backlog_status_tool -->
<g id="node12" class="node">
<title>cool_ideas_CORE_backlog_status_tool</title>
<path fill="#d4e8f7" stroke="black" d="M1705.67,-320.5C1705.67,-320.5 1602.33,-320.5 1602.33,-320.5 1598.12,-320.5 1593.92,-316.3 1593.92,-312.1 1593.92,-312.1 1593.92,-303.7 1593.92,-303.7 1593.92,-299.5 1598.12,-295.3 1602.33,-295.3 1602.33,-295.3 1705.67,-295.3 1705.67,-295.3 1709.88,-295.3 1714.08,-299.5 1714.08,-303.7 1714.08,-303.7 1714.08,-312.1 1714.08,-312.1 1714.08,-316.3 1709.88,-320.5 1705.67,-320.5"/>
<text xml:space="preserve" text-anchor="middle" x="1654" y="-304.8" font-family="Helvetica,sans-Serif" font-size="8.00">CORE&#45;backlog&#45;status&#45;tool &#45; S</text>
</g>
<!-- cool_ideas_CORE_capture_range -->
<g id="node13" class="node">
<title>cool_ideas_CORE_capture_range</title>
<path fill="#d4e8f7" stroke="black" d="M1823.8,-320.5C1823.8,-320.5 1736.2,-320.5 1736.2,-320.5 1732,-320.5 1727.8,-316.3 1727.8,-312.1 1727.8,-312.1 1727.8,-303.7 1727.8,-303.7 1727.8,-299.5 1732,-295.3 1736.2,-295.3 1736.2,-295.3 1823.8,-295.3 1823.8,-295.3 1828,-295.3 1832.2,-299.5 1832.2,-303.7 1832.2,-303.7 1832.2,-312.1 1832.2,-312.1 1832.2,-316.3 1828,-320.5 1823.8,-320.5"/>
<text xml:space="preserve" text-anchor="middle" x="1780" y="-304.8" font-family="Helvetica,sans-Serif" font-size="8.00">CORE&#45;capture&#45;range &#45; S</text>
</g>
<!-- cool_ideas_CORE_constructor_in_disguise_lint -->
<g id="node14" class="node">
<title>cool_ideas_CORE_constructor_in_disguise_lint</title>
<path fill="#d4e8f7" stroke="black" d="M1985.55,-320.5C1985.55,-320.5 1854.45,-320.5 1854.45,-320.5 1850.25,-320.5 1846.05,-316.3 1846.05,-312.1 1846.05,-312.1 1846.05,-303.7 1846.05,-303.7 1846.05,-299.5 1850.25,-295.3 1854.45,-295.3 1854.45,-295.3 1985.55,-295.3 1985.55,-295.3 1989.75,-295.3 1993.95,-299.5 1993.95,-303.7 1993.95,-303.7 1993.95,-312.1 1993.95,-312.1 1993.95,-316.3 1989.75,-320.5 1985.55,-320.5"/>
<text xml:space="preserve" text-anchor="middle" x="1920" y="-304.8" font-family="Helvetica,sans-Serif" font-size="8.00">CORE&#45;constructor&#45;in&#45;disguise&#45;lint &#45; M</text>
</g>
<!-- cool_ideas_CORE_context_budget_forecasting -->
<g id="node15" class="node">
<title>cool_ideas_CORE_context_budget_forecasting</title>
<path fill="#d4e8f7" stroke="black" d="M2149.67,-320.5C2149.67,-320.5 2016.33,-320.5 2016.33,-320.5 2012.12,-320.5 2007.92,-316.3 2007.92,-312.1 2007.92,-312.1 2007.92,-303.7 2007.92,-303.7 2007.92,-299.5 2012.12,-295.3 2016.33,-295.3 2016.33,-295.3 2149.67,-295.3 2149.67,-295.3 2153.88,-295.3 2158.07,-299.5 2158.07,-303.7 2158.07,-303.7 2158.07,-312.1 2158.07,-312.1 2158.07,-316.3 2153.88,-320.5 2149.67,-320.5"/>
<text xml:space="preserve" text-anchor="middle" x="2083" y="-304.8" font-family="Helvetica,sans-Serif" font-size="8.00">CORE&#45;context&#45;budget&#45;forecasting &#45; M</text>
</g>
<!-- cool_ideas_CORE_conversation_primer -->
<g id="node16" class="node">
<title>cool_ideas_CORE_conversation_primer</title>
<path fill="#d4e8f7" stroke="black" d="M2289.67,-320.5C2289.67,-320.5 2180.33,-320.5 2180.33,-320.5 2176.12,-320.5 2171.93,-316.3 2171.93,-312.1 2171.93,-312.1 2171.93,-303.7 2171.93,-303.7 2171.93,-299.5 2176.12,-295.3 2180.33,-295.3 2180.33,-295.3 2289.67,-295.3 2289.67,-295.3 2293.88,-295.3 2298.07,-299.5 2298.07,-303.7 2298.07,-303.7 2298.07,-312.1 2298.07,-312.1 2298.07,-316.3 2293.88,-320.5 2289.67,-320.5"/>
<text xml:space="preserve" text-anchor="middle" x="2235" y="-304.8" font-family="Helvetica,sans-Serif" font-size="8.00">CORE&#45;conversation&#45;primer &#45; M</text>
</g>
<!-- cool_ideas_CORE_cross_session_resume -->
<g id="node17" class="node">
<title>cool_ideas_CORE_cross_session_resume</title>
<path fill="#d4e8f7" stroke="black" d="M2435.3,-320.5C2435.3,-320.5 2320.7,-320.5 2320.7,-320.5 2316.5,-320.5 2312.3,-316.3 2312.3,-312.1 2312.3,-312.1 2312.3,-303.7 2312.3,-303.7 2312.3,-299.5 2316.5,-295.3 2320.7,-295.3 2320.7,-295.3 2435.3,-295.3 2435.3,-295.3 2439.5,-295.3 2443.7,-299.5 2443.7,-303.7 2443.7,-303.7 2443.7,-312.1 2443.7,-312.1 2443.7,-316.3 2439.5,-320.5 2435.3,-320.5"/>
<text xml:space="preserve" text-anchor="middle" x="2378" y="-304.8" font-family="Helvetica,sans-Serif" font-size="8.00">CORE&#45;cross&#45;session&#45;resume &#45; S</text>
</g>
<!-- cool_ideas_CORE_graft_as_teacher -->
<g id="node18" class="node">
<title>cool_ideas_CORE_graft_as_teacher</title>
<path fill="#d4e8f7" stroke="black" d="M2560.17,-320.5C2560.17,-320.5 2465.83,-320.5 2465.83,-320.5 2461.62,-320.5 2457.43,-316.3 2457.43,-312.1 2457.43,-312.1 2457.43,-303.7 2457.43,-303.7 2457.43,-299.5 2461.62,-295.3 2465.83,-295.3 2465.83,-295.3 2560.17,-295.3 2560.17,-295.3 2564.38,-295.3 2568.57,-299.5 2568.57,-303.7 2568.57,-303.7 2568.57,-312.1 2568.57,-312.1 2568.57,-316.3 2564.38,-320.5 2560.17,-320.5"/>
<text xml:space="preserve" text-anchor="middle" x="2513" y="-304.8" font-family="Helvetica,sans-Serif" font-size="8.00">CORE&#45;graft&#45;as&#45;teacher &#45; S</text>
</g>
<!-- cool_ideas_CORE_graft_doctor -->
<g id="node19" class="node">
<title>cool_ideas_CORE_graft_doctor</title>
<path fill="#d4e8f7" stroke="black" d="M2671.05,-320.5C2671.05,-320.5 2590.95,-320.5 2590.95,-320.5 2586.75,-320.5 2582.55,-316.3 2582.55,-312.1 2582.55,-312.1 2582.55,-303.7 2582.55,-303.7 2582.55,-299.5 2586.75,-295.3 2590.95,-295.3 2590.95,-295.3 2671.05,-295.3 2671.05,-295.3 2675.25,-295.3 2679.45,-299.5 2679.45,-303.7 2679.45,-303.7 2679.45,-312.1 2679.45,-312.1 2679.45,-316.3 2675.25,-320.5 2671.05,-320.5"/>
<text xml:space="preserve" text-anchor="middle" x="2631" y="-304.8" font-family="Helvetica,sans-Serif" font-size="8.00">CORE&#45;graft&#45;doctor &#45; M</text>
</g>
<!-- cool_ideas_CORE_graft_teach_learning_receipts -->
<g id="node20" class="node">
<title>cool_ideas_CORE_graft_teach_learning_receipts</title>
<path fill="#d4e8f7" stroke="black" d="M2839.92,-320.5C2839.92,-320.5 2702.08,-320.5 2702.08,-320.5 2697.88,-320.5 2693.68,-316.3 2693.68,-312.1 2693.68,-312.1 2693.68,-303.7 2693.68,-303.7 2693.68,-299.5 2697.88,-295.3 2702.08,-295.3 2702.08,-295.3 2839.92,-295.3 2839.92,-295.3 2844.12,-295.3 2848.32,-299.5 2848.32,-303.7 2848.32,-303.7 2848.32,-312.1 2848.32,-312.1 2848.32,-316.3 2844.12,-320.5 2839.92,-320.5"/>
<text xml:space="preserve" text-anchor="middle" x="2771" y="-304.8" font-family="Helvetica,sans-Serif" font-size="8.00">CORE&#45;graft&#45;teach&#45;learning&#45;receipts &#45; S</text>
</g>
<!-- cool_ideas_CORE_horizon_of_readability -->
<g id="node21" class="node">
<title>cool_ideas_CORE_horizon_of_readability</title>
<path fill="#d4e8f7" stroke="black" d="M2983.55,-320.5C2983.55,-320.5 2870.45,-320.5 2870.45,-320.5 2866.25,-320.5 2862.05,-316.3 2862.05,-312.1 2862.05,-312.1 2862.05,-303.7 2862.05,-303.7 2862.05,-299.5 2866.25,-295.3 2870.45,-295.3 2870.45,-295.3 2983.55,-295.3 2983.55,-295.3 2987.75,-295.3 2991.95,-299.5 2991.95,-303.7 2991.95,-303.7 2991.95,-312.1 2991.95,-312.1 2991.95,-316.3 2987.75,-320.5 2983.55,-320.5"/>
<text xml:space="preserve" text-anchor="middle" x="2927" y="-304.8" font-family="Helvetica,sans-Serif" font-size="8.00">CORE&#45;horizon&#45;of&#45;readability &#45; M</text>
</g>
<!-- cool_ideas_CORE_lagrangian_policy -->
<g id="node22" class="node">
<title>cool_ideas_CORE_lagrangian_policy</title>
<path fill="#d4e8f7" stroke="black" d="M3115.55,-320.5C3115.55,-320.5 3014.45,-320.5 3014.45,-320.5 3010.25,-320.5 3006.05,-316.3 3006.05,-312.1 3006.05,-312.1 3006.05,-303.7 3006.05,-303.7 3006.05,-299.5 3010.25,-295.3 3014.45,-295.3 3014.45,-295.3 3115.55,-295.3 3115.55,-295.3 3119.75,-295.3 3123.95,-299.5 3123.95,-303.7 3123.95,-303.7 3123.95,-312.1 3123.95,-312.1 3123.95,-316.3 3119.75,-320.5 3115.55,-320.5"/>
<text xml:space="preserve" text-anchor="middle" x="3065" y="-304.8" font-family="Helvetica,sans-Serif" font-size="8.00">CORE&#45;lagrangian&#45;policy &#45; XL</text>
</g>
<!-- cool_ideas_CORE_multi_agent_conflict_detection -->
<g id="node23" class="node">
<title>cool_ideas_CORE_multi_agent_conflict_detection</title>
<path fill="#d4e8f7" stroke="black" d="M3283.92,-320.5C3283.92,-320.5 3146.08,-320.5 3146.08,-320.5 3141.88,-320.5 3137.68,-316.3 3137.68,-312.1 3137.68,-312.1 3137.68,-303.7 3137.68,-303.7 3137.68,-299.5 3141.88,-295.3 3146.08,-295.3 3146.08,-295.3 3283.92,-295.3 3283.92,-295.3 3288.12,-295.3 3292.32,-299.5 3292.32,-303.7 3292.32,-303.7 3292.32,-312.1 3292.32,-312.1 3292.32,-316.3 3288.12,-320.5 3283.92,-320.5"/>
<text xml:space="preserve" text-anchor="middle" x="3215" y="-304.8" font-family="Helvetica,sans-Serif" font-size="8.00">CORE&#45;multi&#45;agent&#45;conflict&#45;detection &#45; L</text>
</g>
<!-- cool_ideas_CORE_policy_playground -->
<g id="node24" class="node">
<title>cool_ideas_CORE_policy_playground</title>
<path fill="#d4e8f7" stroke="black" d="M3413.42,-320.5C3413.42,-320.5 3314.58,-320.5 3314.58,-320.5 3310.38,-320.5 3306.18,-316.3 3306.18,-312.1 3306.18,-312.1 3306.18,-303.7 3306.18,-303.7 3306.18,-299.5 3310.38,-295.3 3314.58,-295.3 3314.58,-295.3 3413.42,-295.3 3413.42,-295.3 3417.62,-295.3 3421.82,-299.5 3421.82,-303.7 3421.82,-303.7 3421.82,-312.1 3421.82,-312.1 3421.82,-316.3 3417.62,-320.5 3413.42,-320.5"/>
<text xml:space="preserve" text-anchor="middle" x="3364" y="-304.8" font-family="Helvetica,sans-Serif" font-size="8.00">CORE&#45;policy&#45;playground &#45; S</text>
</g>
<!-- cool_ideas_CORE_policy_profiles -->
<g id="node25" class="node">
<title>cool_ideas_CORE_policy_profiles</title>
<path fill="#d4e8f7" stroke="black" d="M3530.05,-320.5C3530.05,-320.5 3443.95,-320.5 3443.95,-320.5 3439.75,-320.5 3435.55,-316.3 3435.55,-312.1 3435.55,-312.1 3435.55,-303.7 3435.55,-303.7 3435.55,-299.5 3439.75,-295.3 3443.95,-295.3 3443.95,-295.3 3530.05,-295.3 3530.05,-295.3 3534.25,-295.3 3538.45,-299.5 3538.45,-303.7 3538.45,-303.7 3538.45,-312.1 3538.45,-312.1 3538.45,-316.3 3534.25,-320.5 3530.05,-320.5"/>
<text xml:space="preserve" text-anchor="middle" x="3487" y="-304.8" font-family="Helvetica,sans-Serif" font-size="8.00">CORE&#45;policy&#45;profiles &#45; M</text>
</g>
<!-- cool_ideas_CORE_pr_review_structural_summary -->
<g id="node26" class="node">
<title>cool_ideas_CORE_pr_review_structural_summary</title>
<path fill="#d4e8f7" stroke="black" d="M3704.92,-320.5C3704.92,-320.5 3561.08,-320.5 3561.08,-320.5 3556.88,-320.5 3552.68,-316.3 3552.68,-312.1 3552.68,-312.1 3552.68,-303.7 3552.68,-303.7 3552.68,-299.5 3556.88,-295.3 3561.08,-295.3 3561.08,-295.3 3704.92,-295.3 3704.92,-295.3 3709.12,-295.3 3713.32,-299.5 3713.32,-303.7 3713.32,-303.7 3713.32,-312.1 3713.32,-312.1 3713.32,-316.3 3709.12,-320.5 3704.92,-320.5"/>
<text xml:space="preserve" text-anchor="middle" x="3633" y="-304.8" font-family="Helvetica,sans-Serif" font-size="8.00">CORE&#45;pr&#45;review&#45;structural&#45;summary &#45; M</text>
</g>
<!-- cool_ideas_CORE_self_tuning_governor -->
<g id="node27" class="node">
<title>cool_ideas_CORE_self_tuning_governor</title>
<path fill="#d4e8f7" stroke="black" d="M3846.05,-320.5C3846.05,-320.5 3735.95,-320.5 3735.95,-320.5 3731.75,-320.5 3727.55,-316.3 3727.55,-312.1 3727.55,-312.1 3727.55,-303.7 3727.55,-303.7 3727.55,-299.5 3731.75,-295.3 3735.95,-295.3 3735.95,-295.3 3846.05,-295.3 3846.05,-295.3 3850.25,-295.3 3854.45,-299.5 3854.45,-303.7 3854.45,-303.7 3854.45,-312.1 3854.45,-312.1 3854.45,-316.3 3850.25,-320.5 3846.05,-320.5"/>
<text xml:space="preserve" text-anchor="middle" x="3791" y="-304.8" font-family="Helvetica,sans-Serif" font-size="8.00">CORE&#45;self&#45;tuning&#45;governor &#45; M</text>
</g>
<!-- cool_ideas_CORE_session_knowledge_map -->
<g id="node28" class="node">
<title>cool_ideas_CORE_session_knowledge_map</title>
<path fill="#d4e8f7" stroke="black" d="M3999.42,-320.5C3999.42,-320.5 3876.58,-320.5 3876.58,-320.5 3872.38,-320.5 3868.18,-316.3 3868.18,-312.1 3868.18,-312.1 3868.18,-303.7 3868.18,-303.7 3868.18,-299.5 3872.38,-295.3 3876.58,-295.3 3876.58,-295.3 3999.42,-295.3 3999.42,-295.3 4003.62,-295.3 4007.82,-299.5 4007.82,-303.7 4007.82,-303.7 4007.82,-312.1 4007.82,-312.1 4007.82,-316.3 4003.62,-320.5 3999.42,-320.5"/>
<text xml:space="preserve" text-anchor="middle" x="3938" y="-304.8" font-family="Helvetica,sans-Serif" font-size="8.00">CORE&#45;session&#45;knowledge&#45;map &#45; S</text>
</g>
<!-- cool_ideas_CORE_speculative_read_cost -->
<g id="node29" class="node">
<title>cool_ideas_CORE_speculative_read_cost</title>
<path fill="#d4e8f7" stroke="black" d="M4142.18,-320.5C4142.18,-320.5 4029.83,-320.5 4029.83,-320.5 4025.62,-320.5 4021.43,-316.3 4021.43,-312.1 4021.43,-312.1 4021.43,-303.7 4021.43,-303.7 4021.43,-299.5 4025.62,-295.3 4029.83,-295.3 4029.83,-295.3 4142.18,-295.3 4142.18,-295.3 4146.38,-295.3 4150.57,-299.5 4150.57,-303.7 4150.57,-303.7 4150.57,-312.1 4150.57,-312.1 4150.57,-316.3 4146.38,-320.5 4142.18,-320.5"/>
<text xml:space="preserve" text-anchor="middle" x="4086" y="-304.8" font-family="Helvetica,sans-Serif" font-size="8.00">CORE&#45;speculative&#45;read&#45;cost &#45; S</text>
</g>
<!-- cool_ideas_CORE_structural_session_replay -->
<g id="node30" class="node">
<title>cool_ideas_CORE_structural_session_replay</title>
<path fill="#d4e8f7" stroke="black" d="M4298.55,-320.5C4298.55,-320.5 4173.45,-320.5 4173.45,-320.5 4169.25,-320.5 4165.05,-316.3 4165.05,-312.1 4165.05,-312.1 4165.05,-303.7 4165.05,-303.7 4165.05,-299.5 4169.25,-295.3 4173.45,-295.3 4173.45,-295.3 4298.55,-295.3 4298.55,-295.3 4302.75,-295.3 4306.95,-299.5 4306.95,-303.7 4306.95,-303.7 4306.95,-312.1 4306.95,-312.1 4306.95,-316.3 4302.75,-320.5 4298.55,-320.5"/>
<text xml:space="preserve" text-anchor="middle" x="4236" y="-304.8" font-family="Helvetica,sans-Serif" font-size="8.00">CORE&#45;structural&#45;session&#45;replay &#45; M</text>
</g>
<!-- cool_ideas_CORE_structural_test_coverage_map -->
<g id="node31" class="node">
<title>cool_ideas_CORE_structural_test_coverage_map</title>
<path fill="#d4e8f7" stroke="black" d="M4470.8,-320.5C4470.8,-320.5 4329.2,-320.5 4329.2,-320.5 4325,-320.5 4320.8,-316.3 4320.8,-312.1 4320.8,-312.1 4320.8,-303.7 4320.8,-303.7 4320.8,-299.5 4325,-295.3 4329.2,-295.3 4329.2,-295.3 4470.8,-295.3 4470.8,-295.3 4475,-295.3 4479.2,-299.5 4479.2,-303.7 4479.2,-303.7 4479.2,-312.1 4479.2,-312.1 4479.2,-316.3 4475,-320.5 4470.8,-320.5"/>
<text xml:space="preserve" text-anchor="middle" x="4400" y="-304.8" font-family="Helvetica,sans-Serif" font-size="8.00">CORE&#45;structural&#45;test&#45;coverage&#45;map &#45; M</text>
</g>
<!-- cool_ideas_CORE_wire_primitives_into_runtime -->
<g id="node32" class="node">
<title>cool_ideas_CORE_wire_primitives_into_runtime</title>
<path fill="#d4e8f7" stroke="black" d="M4636.43,-320.5C4636.43,-320.5 4501.57,-320.5 4501.57,-320.5 4497.38,-320.5 4493.18,-316.3 4493.18,-312.1 4493.18,-312.1 4493.18,-303.7 4493.18,-303.7 4493.18,-299.5 4497.38,-295.3 4501.57,-295.3 4501.57,-295.3 4636.43,-295.3 4636.43,-295.3 4640.62,-295.3 4644.82,-299.5 4644.82,-303.7 4644.82,-303.7 4644.82,-312.1 4644.82,-312.1 4644.82,-316.3 4640.62,-320.5 4636.43,-320.5"/>
<text xml:space="preserve" text-anchor="middle" x="4569" y="-304.8" font-family="Helvetica,sans-Serif" font-size="8.00">CORE&#45;wire&#45;primitives&#45;into&#45;runtime &#45; M</text>
</g>
<!-- cool_ideas_monitor_tick_ceiling_tracking -->
<g id="node33" class="node">
<title>cool_ideas_monitor_tick_ceiling_tracking</title>
<path fill="#d4e8f7" stroke="black" d="M4774.55,-320.5C4774.55,-320.5 4667.45,-320.5 4667.45,-320.5 4663.25,-320.5 4659.05,-316.3 4659.05,-312.1 4659.05,-312.1 4659.05,-303.7 4659.05,-303.7 4659.05,-299.5 4663.25,-295.3 4667.45,-295.3 4667.45,-295.3 4774.55,-295.3 4774.55,-295.3 4778.75,-295.3 4782.95,-299.5 4782.95,-303.7 4782.95,-303.7 4782.95,-312.1 4782.95,-312.1 4782.95,-316.3 4778.75,-320.5 4774.55,-320.5"/>
<text xml:space="preserve" text-anchor="middle" x="4721" y="-304.8" font-family="Helvetica,sans-Serif" font-size="8.00">monitor&#45;tick&#45;ceiling&#45;tracking &#45; S</text>
</g>
<!-- cool_ideas_WARP_background_indexing -->
<g id="node49" class="node">
<title>cool_ideas_WARP_background_indexing</title>
<path fill="#d4e8f7" stroke="black" d="M4777.55,-247.05C4777.55,-247.05 4664.45,-247.05 4664.45,-247.05 4660.25,-247.05 4656.05,-242.85 4656.05,-238.65 4656.05,-238.65 4656.05,-230.25 4656.05,-230.25 4656.05,-226.05 4660.25,-221.85 4664.45,-221.85 4664.45,-221.85 4777.55,-221.85 4777.55,-221.85 4781.75,-221.85 4785.95,-226.05 4785.95,-230.25 4785.95,-230.25 4785.95,-238.65 4785.95,-238.65 4785.95,-242.85 4781.75,-247.05 4777.55,-247.05"/>
<text xml:space="preserve" text-anchor="middle" x="4721" y="-231.35" font-family="Helvetica,sans-Serif" font-size="8.00">WARP&#45;background&#45;indexing &#45; M</text>
</g>
<!-- cool_ideas_monitor_tick_ceiling_tracking&#45;&gt;cool_ideas_WARP_background_indexing -->
<g id="edge1" class="edge">
<title>cool_ideas_monitor_tick_ceiling_tracking&#45;&gt;cool_ideas_WARP_background_indexing</title>
<path fill="none" stroke="#666666" d="M4721,-295.1C4721,-283.9 4721,-266.88 4721,-253.88"/>
<polygon fill="#666666" stroke="#666666" points="4722.75,-254.02 4721,-249.02 4719.25,-254.02 4722.75,-254.02"/>
<text xml:space="preserve" text-anchor="middle" x="4752.5" y="-268.65" font-family="Helvetica,sans-Serif" font-size="7.00">blocked_by/blocking</text>
</g>
<!-- cool_ideas_SURFACE_active_causal_workspace_status -->
<g id="node34" class="node">
<title>cool_ideas_SURFACE_active_causal_workspace_status</title>
<path fill="#d4e8f7" stroke="black" d="M4969.05,-320.5C4969.05,-320.5 4804.95,-320.5 4804.95,-320.5 4800.75,-320.5 4796.55,-316.3 4796.55,-312.1 4796.55,-312.1 4796.55,-303.7 4796.55,-303.7 4796.55,-299.5 4800.75,-295.3 4804.95,-295.3 4804.95,-295.3 4969.05,-295.3 4969.05,-295.3 4973.25,-295.3 4977.45,-299.5 4977.45,-303.7 4977.45,-303.7 4977.45,-312.1 4977.45,-312.1 4977.45,-316.3 4973.25,-320.5 4969.05,-320.5"/>
<text xml:space="preserve" text-anchor="middle" x="4887" y="-304.8" font-family="Helvetica,sans-Serif" font-size="8.00">SURFACE&#45;active&#45;causal&#45;workspace&#45;status &#45; M</text>
</g>
<!-- cool_ideas_SURFACE_ide_native_graft_integration -->
<g id="node40" class="node">
<title>cool_ideas_SURFACE_ide_native_graft_integration</title>
<path fill="#d4e8f7" stroke="black" d="M4962.3,-247.05C4962.3,-247.05 4811.7,-247.05 4811.7,-247.05 4807.5,-247.05 4803.3,-242.85 4803.3,-238.65 4803.3,-238.65 4803.3,-230.25 4803.3,-230.25 4803.3,-226.05 4807.5,-221.85 4811.7,-221.85 4811.7,-221.85 4962.3,-221.85 4962.3,-221.85 4966.5,-221.85 4970.7,-226.05 4970.7,-230.25 4970.7,-230.25 4970.7,-238.65 4970.7,-238.65 4970.7,-242.85 4966.5,-247.05 4962.3,-247.05"/>
<text xml:space="preserve" text-anchor="middle" x="4887" y="-231.35" font-family="Helvetica,sans-Serif" font-size="8.00">SURFACE&#45;ide&#45;native&#45;graft&#45;integration &#45; XL</text>
</g>
<!-- cool_ideas_SURFACE_active_causal_workspace_status&#45;&gt;cool_ideas_SURFACE_ide_native_graft_integration -->
<g id="edge2" class="edge">
<title>cool_ideas_SURFACE_active_causal_workspace_status&#45;&gt;cool_ideas_SURFACE_ide_native_graft_integration</title>
<path fill="none" stroke="#666666" d="M4887,-295.1C4887,-283.9 4887,-266.88 4887,-253.88"/>
<polygon fill="#666666" stroke="#666666" points="4888.75,-254.02 4887,-249.02 4885.25,-254.02 4888.75,-254.02"/>
<text xml:space="preserve" text-anchor="middle" x="4918.5" y="-268.65" font-family="Helvetica,sans-Serif" font-size="7.00">blocked_by/blocking</text>
</g>
<!-- cool_ideas_SURFACE_attach_to_existing_causal_session -->
<g id="node35" class="node">
<title>cool_ideas_SURFACE_attach_to_existing_causal_session</title>
<path fill="#d4e8f7" stroke="black" d="M5168.3,-320.5C5168.3,-320.5 4999.7,-320.5 4999.7,-320.5 4995.5,-320.5 4991.3,-316.3 4991.3,-312.1 4991.3,-312.1 4991.3,-303.7 4991.3,-303.7 4991.3,-299.5 4995.5,-295.3 4999.7,-295.3 4999.7,-295.3 5168.3,-295.3 5168.3,-295.3 5172.5,-295.3 5176.7,-299.5 5176.7,-303.7 5176.7,-303.7 5176.7,-312.1 5176.7,-312.1 5176.7,-316.3 5172.5,-320.5 5168.3,-320.5"/>
<text xml:space="preserve" text-anchor="middle" x="5084" y="-304.8" font-family="Helvetica,sans-Serif" font-size="8.00">SURFACE&#45;attach&#45;to&#45;existing&#45;causal&#45;session &#45; M</text>
</g>
<!-- cool_ideas_SURFACE_bijou_daemon_control_plane_actions -->
<g id="node36" class="node">
<title>cool_ideas_SURFACE_bijou_daemon_control_plane_actions</title>
<path fill="#d4e8f7" stroke="black" d="M5376.43,-320.5C5376.43,-320.5 5199.57,-320.5 5199.57,-320.5 5195.38,-320.5 5191.18,-316.3 5191.18,-312.1 5191.18,-312.1 5191.18,-303.7 5191.18,-303.7 5191.18,-299.5 5195.38,-295.3 5199.57,-295.3 5199.57,-295.3 5376.43,-295.3 5376.43,-295.3 5380.62,-295.3 5384.82,-299.5 5384.82,-303.7 5384.82,-303.7 5384.82,-312.1 5384.82,-312.1 5384.82,-316.3 5380.62,-320.5 5376.43,-320.5"/>
<text xml:space="preserve" text-anchor="middle" x="5288" y="-304.8" font-family="Helvetica,sans-Serif" font-size="8.00">SURFACE&#45;bijou&#45;daemon&#45;control&#45;plane&#45;actions &#45; L</text>
</g>
<!-- cool_ideas_SURFACE_bijou_daemon_status_live_refresh -->
<g id="node37" class="node">
<title>cool_ideas_SURFACE_bijou_daemon_status_live_refresh</title>
<path fill="#d4e8f7" stroke="black" d="M5576.3,-320.5C5576.3,-320.5 5407.7,-320.5 5407.7,-320.5 5403.5,-320.5 5399.3,-316.3 5399.3,-312.1 5399.3,-312.1 5399.3,-303.7 5399.3,-303.7 5399.3,-299.5 5403.5,-295.3 5407.7,-295.3 5407.7,-295.3 5576.3,-295.3 5576.3,-295.3 5580.5,-295.3 5584.7,-299.5 5584.7,-303.7 5584.7,-303.7 5584.7,-312.1 5584.7,-312.1 5584.7,-316.3 5580.5,-320.5 5576.3,-320.5"/>
<text xml:space="preserve" text-anchor="middle" x="5492" y="-304.8" font-family="Helvetica,sans-Serif" font-size="8.00">SURFACE&#45;bijou&#45;daemon&#45;status&#45;live&#45;refresh &#45; M</text>
</g>
<!-- cool_ideas_SURFACE_git_graft_enhance_expanded_git_subcommands -->
<g id="node38" class="node">
<title>cool_ideas_SURFACE_git_graft_enhance_expanded_git_subcommands</title>
<path fill="#d4e8f7" stroke="black" d="M5811.3,-320.5C5811.3,-320.5 5606.7,-320.5 5606.7,-320.5 5602.5,-320.5 5598.3,-316.3 5598.3,-312.1 5598.3,-312.1 5598.3,-303.7 5598.3,-303.7 5598.3,-299.5 5602.5,-295.3 5606.7,-295.3 5606.7,-295.3 5811.3,-295.3 5811.3,-295.3 5815.5,-295.3 5819.7,-299.5 5819.7,-303.7 5819.7,-303.7 5819.7,-312.1 5819.7,-312.1 5819.7,-316.3 5815.5,-320.5 5811.3,-320.5"/>
<text xml:space="preserve" text-anchor="middle" x="5709" y="-304.8" font-family="Helvetica,sans-Serif" font-size="8.00">SURFACE&#45;git&#45;graft&#45;enhance&#45;expanded&#45;git&#45;subcommands</text>
</g>
<!-- cool_ideas_SURFACE_git_graft_enhance_provenance_hints -->
<g id="node39" class="node">
<title>cool_ideas_SURFACE_git_graft_enhance_provenance_hints</title>
<path fill="#d4e8f7" stroke="black" d="M6007.43,-320.5C6007.43,-320.5 5842.57,-320.5 5842.57,-320.5 5838.38,-320.5 5834.18,-316.3 5834.18,-312.1 5834.18,-312.1 5834.18,-303.7 5834.18,-303.7 5834.18,-299.5 5838.38,-295.3 5842.57,-295.3 5842.57,-295.3 6007.43,-295.3 6007.43,-295.3 6011.62,-295.3 6015.82,-299.5 6015.82,-303.7 6015.82,-303.7 6015.82,-312.1 6015.82,-312.1 6015.82,-316.3 6011.62,-320.5 6007.43,-320.5"/>
<text xml:space="preserve" text-anchor="middle" x="5925" y="-304.8" font-family="Helvetica,sans-Serif" font-size="8.00">SURFACE&#45;git&#45;graft&#45;enhance&#45;provenance&#45;hints</text>
</g>
<!-- cool_ideas_SURFACE_local_history_dag_render_mode_and_count_legend -->
<g id="node41" class="node">
<title>cool_ideas_SURFACE_local_history_dag_render_mode_and_count_legend</title>
<path fill="#d4e8f7" stroke="black" d="M6264.18,-320.5C6264.18,-320.5 6037.82,-320.5 6037.82,-320.5 6033.62,-320.5 6029.43,-316.3 6029.43,-312.1 6029.43,-312.1 6029.43,-303.7 6029.43,-303.7 6029.43,-299.5 6033.62,-295.3 6037.82,-295.3 6037.82,-295.3 6264.18,-295.3 6264.18,-295.3 6268.38,-295.3 6272.57,-299.5 6272.57,-303.7 6272.57,-303.7 6272.57,-312.1 6272.57,-312.1 6272.57,-316.3 6268.38,-320.5 6264.18,-320.5"/>
<text xml:space="preserve" text-anchor="middle" x="6151" y="-304.8" font-family="Helvetica,sans-Serif" font-size="8.00">SURFACE&#45;local&#45;history&#45;dag&#45;render&#45;mode&#45;and&#45;count&#45;legend &#45; S</text>
</g>
<!-- cool_ideas_SURFACE_non_codex_instruction_bootstrap_parity -->
<g id="node42" class="node">
<title>cool_ideas_SURFACE_non_codex_instruction_bootstrap_parity</title>
<path fill="#d4e8f7" stroke="black" d="M6483.43,-320.5C6483.43,-320.5 6294.57,-320.5 6294.57,-320.5 6290.38,-320.5 6286.18,-316.3 6286.18,-312.1 6286.18,-312.1 6286.18,-303.7 6286.18,-303.7 6286.18,-299.5 6290.38,-295.3 6294.57,-295.3 6294.57,-295.3 6483.43,-295.3 6483.43,-295.3 6487.62,-295.3 6491.82,-299.5 6491.82,-303.7 6491.82,-303.7 6491.82,-312.1 6491.82,-312.1 6491.82,-316.3 6487.62,-320.5 6483.43,-320.5"/>
<text xml:space="preserve" text-anchor="middle" x="6389" y="-304.8" font-family="Helvetica,sans-Serif" font-size="8.00">SURFACE&#45;non&#45;codex&#45;instruction&#45;bootstrap&#45;parity &#45; M</text>
</g>
<!-- cool_ideas_SURFACE_offer_rename_refactor -->
<g id="node43" class="node">
<title>cool_ideas_SURFACE_offer_rename_refactor</title>
<path fill="#d4e8f7" stroke="black" d="M6643.43,-320.5C6643.43,-320.5 6514.57,-320.5 6514.57,-320.5 6510.38,-320.5 6506.18,-316.3 6506.18,-312.1 6506.18,-312.1 6506.18,-303.7 6506.18,-303.7 6506.18,-299.5 6510.38,-295.3 6514.57,-295.3 6514.57,-295.3 6643.43,-295.3 6643.43,-295.3 6647.62,-295.3 6651.82,-299.5 6651.82,-303.7 6651.82,-303.7 6651.82,-312.1 6651.82,-312.1 6651.82,-316.3 6647.62,-320.5 6643.43,-320.5"/>
<text xml:space="preserve" text-anchor="middle" x="6579" y="-304.8" font-family="Helvetica,sans-Serif" font-size="8.00">SURFACE&#45;offer&#45;rename&#45;refactor &#45; L</text>
</g>
<!-- cool_ideas_SURFACE_terminal_activity_browser_tui -->
<g id="node44" class="node">
<title>cool_ideas_SURFACE_terminal_activity_browser_tui</title>
<path fill="#d4e8f7" stroke="black" d="M6823.55,-320.5C6823.55,-320.5 6674.45,-320.5 6674.45,-320.5 6670.25,-320.5 6666.05,-316.3 6666.05,-312.1 6666.05,-312.1 6666.05,-303.7 6666.05,-303.7 6666.05,-299.5 6670.25,-295.3 6674.45,-295.3 6674.45,-295.3 6823.55,-295.3 6823.55,-295.3 6827.75,-295.3 6831.95,-299.5 6831.95,-303.7 6831.95,-303.7 6831.95,-312.1 6831.95,-312.1 6831.95,-316.3 6827.75,-320.5 6823.55,-320.5"/>
<text xml:space="preserve" text-anchor="middle" x="6749" y="-304.8" font-family="Helvetica,sans-Serif" font-size="8.00">SURFACE&#45;terminal&#45;activity&#45;browser&#45;tui &#45; L</text>
</g>
<!-- cool_ideas_traverse_plus_query_hydration_helper -->
<g id="node45" class="node">
<title>cool_ideas_traverse_plus_query_hydration_helper</title>
<path fill="#d4e8f7" stroke="black" d="M6995.8,-320.5C6995.8,-320.5 6854.2,-320.5 6854.2,-320.5 6850,-320.5 6845.8,-316.3 6845.8,-312.1 6845.8,-312.1 6845.8,-303.7 6845.8,-303.7 6845.8,-299.5 6850,-295.3 6854.2,-295.3 6854.2,-295.3 6995.8,-295.3 6995.8,-295.3 7000,-295.3 7004.2,-299.5 7004.2,-303.7 7004.2,-303.7 7004.2,-312.1 7004.2,-312.1 7004.2,-316.3 7000,-320.5 6995.8,-320.5"/>
<text xml:space="preserve" text-anchor="middle" x="6925" y="-304.8" font-family="Helvetica,sans-Serif" font-size="8.00">traverse&#45;plus&#45;query&#45;hydration&#45;helper &#45; S</text>
</g>
<!-- cool_ideas_WARP_adaptive_projection_selection -->
<g id="node46" class="node">
<title>cool_ideas_WARP_adaptive_projection_selection</title>
<path fill="#d4e8f7" stroke="black" d="M7164.93,-320.5C7164.93,-320.5 7027.07,-320.5 7027.07,-320.5 7022.88,-320.5 7018.68,-316.3 7018.68,-312.1 7018.68,-312.1 7018.68,-303.7 7018.68,-303.7 7018.68,-299.5 7022.88,-295.3 7027.07,-295.3 7027.07,-295.3 7164.93,-295.3 7164.93,-295.3 7169.12,-295.3 7173.32,-299.5 7173.32,-303.7 7173.32,-303.7 7173.32,-312.1 7173.32,-312.1 7173.32,-316.3 7169.12,-320.5 7164.93,-320.5"/>
<text xml:space="preserve" text-anchor="middle" x="7096" y="-304.8" font-family="Helvetica,sans-Serif" font-size="8.00">WARP&#45;adaptive&#45;projection&#45;selection &#45; L</text>
</g>
<!-- cool_ideas_WARP_agent_action_provenance -->
<g id="node47" class="node">
<title>cool_ideas_WARP_agent_action_provenance</title>
<path fill="#d4e8f7" stroke="black" d="M7326.55,-320.5C7326.55,-320.5 7195.45,-320.5 7195.45,-320.5 7191.25,-320.5 7187.05,-316.3 7187.05,-312.1 7187.05,-312.1 7187.05,-303.7 7187.05,-303.7 7187.05,-299.5 7191.25,-295.3 7195.45,-295.3 7195.45,-295.3 7326.55,-295.3 7326.55,-295.3 7330.75,-295.3 7334.95,-299.5 7334.95,-303.7 7334.95,-303.7 7334.95,-312.1 7334.95,-312.1 7334.95,-316.3 7330.75,-320.5 7326.55,-320.5"/>
<text xml:space="preserve" text-anchor="middle" x="7261" y="-304.8" font-family="Helvetica,sans-Serif" font-size="8.00">WARP&#45;agent&#45;action&#45;provenance &#45; XL</text>
</g>
<!-- cool_ideas_WARP_agent_action_provenance&#45;&gt;cool_ideas_CI_001_causal_collapse_visualizer -->
<g id="edge3" class="edge">
<title>cool_ideas_WARP_agent_action_provenance&#45;&gt;cool_ideas_CI_001_causal_collapse_visualizer</title>
<path fill="none" stroke="#666666" d="M7307.86,-294.88C7323.39,-289.94 7340.41,-283.43 7355,-275.3 7366.49,-268.89 7377.89,-259.59 7386.69,-251.58"/>
<polygon fill="#666666" stroke="#666666" points="7387.72,-253.02 7390.19,-248.33 7385.34,-250.45 7387.72,-253.02"/>
<text xml:space="preserve" text-anchor="middle" x="7398" y="-268.65" font-family="Helvetica,sans-Serif" font-size="7.00">blocked_by/blocking</text>
</g>
<!-- cool_ideas_WARP_causal_write_tracking -->
<g id="node52" class="node">
<title>cool_ideas_WARP_causal_write_tracking</title>
<path fill="#d4e8f7" stroke="black" d="M7019.05,-247.05C7019.05,-247.05 6908.95,-247.05 6908.95,-247.05 6904.75,-247.05 6900.55,-242.85 6900.55,-238.65 6900.55,-238.65 6900.55,-230.25 6900.55,-230.25 6900.55,-226.05 6904.75,-221.85 6908.95,-221.85 6908.95,-221.85 7019.05,-221.85 7019.05,-221.85 7023.25,-221.85 7027.45,-226.05 7027.45,-230.25 7027.45,-230.25 7027.45,-238.65 7027.45,-238.65 7027.45,-242.85 7023.25,-247.05 7019.05,-247.05"/>
<text xml:space="preserve" text-anchor="middle" x="6964" y="-231.35" font-family="Helvetica,sans-Serif" font-size="8.00">WARP&#45;causal&#45;write&#45;tracking &#45; L</text>
</g>
<!-- cool_ideas_WARP_agent_action_provenance&#45;&gt;cool_ideas_WARP_causal_write_tracking -->
<g id="edge4" class="edge">
<title>cool_ideas_WARP_agent_action_provenance&#45;&gt;cool_ideas_WARP_causal_write_tracking</title>
<path fill="none" stroke="#666666" d="M7211.31,-294.86C7200.97,-292.36 7190.13,-289.74 7180,-287.3 7125.86,-274.25 7064.08,-259.43 7020.49,-248.98"/>
<polygon fill="#666666" stroke="#666666" points="7020.94,-247.29 7015.67,-247.83 7020.12,-250.69 7020.94,-247.29"/>
<text xml:space="preserve" text-anchor="middle" x="7158.17" y="-268.65" font-family="Helvetica,sans-Serif" font-size="7.00">blocked_by/blocking</text>
</g>
<!-- cool_ideas_WARP_intent_and_decision_events -->
<g id="node62" class="node">
<title>cool_ideas_WARP_intent_and_decision_events</title>
<path fill="#d4e8f7" stroke="black" d="M7182.3,-247.05C7182.3,-247.05 7049.7,-247.05 7049.7,-247.05 7045.5,-247.05 7041.3,-242.85 7041.3,-238.65 7041.3,-238.65 7041.3,-230.25 7041.3,-230.25 7041.3,-226.05 7045.5,-221.85 7049.7,-221.85 7049.7,-221.85 7182.3,-221.85 7182.3,-221.85 7186.5,-221.85 7190.7,-226.05 7190.7,-230.25 7190.7,-230.25 7190.7,-238.65 7190.7,-238.65 7190.7,-242.85 7186.5,-247.05 7182.3,-247.05"/>
<text xml:space="preserve" text-anchor="middle" x="7116" y="-231.35" font-family="Helvetica,sans-Serif" font-size="8.00">WARP&#45;intent&#45;and&#45;decision&#45;events &#45; M</text>
</g>
<!-- cool_ideas_WARP_agent_action_provenance&#45;&gt;cool_ideas_WARP_intent_and_decision_events -->
<g id="edge5" class="edge">
<title>cool_ideas_WARP_agent_action_provenance&#45;&gt;cool_ideas_WARP_intent_and_decision_events</title>
<path fill="none" stroke="#666666" d="M7236.73,-294.94C7211.74,-282.63 7172.76,-263.42 7145.89,-250.18"/>
<polygon fill="#666666" stroke="#666666" points="7146.97,-248.76 7141.71,-248.12 7145.42,-251.9 7146.97,-248.76"/>
<text xml:space="preserve" text-anchor="middle" x="7224.35" y="-268.65" font-family="Helvetica,sans-Serif" font-size="7.00">blocked_by/blocking</text>
</g>
<!-- cool_ideas_WARP_provenance_dag -->
<g id="node67" class="node">
<title>cool_ideas_WARP_provenance_dag</title>
<path fill="#d4e8f7" stroke="black" d="M7308.55,-247.05C7308.55,-247.05 7213.45,-247.05 7213.45,-247.05 7209.25,-247.05 7205.05,-242.85 7205.05,-238.65 7205.05,-238.65 7205.05,-230.25 7205.05,-230.25 7205.05,-226.05 7209.25,-221.85 7213.45,-221.85 7213.45,-221.85 7308.55,-221.85 7308.55,-221.85 7312.75,-221.85 7316.95,-226.05 7316.95,-230.25 7316.95,-230.25 7316.95,-238.65 7316.95,-238.65 7316.95,-242.85 7312.75,-247.05 7308.55,-247.05"/>
<text xml:space="preserve" text-anchor="middle" x="7261" y="-231.35" font-family="Helvetica,sans-Serif" font-size="8.00">WARP&#45;provenance&#45;dag &#45; L</text>
</g>
<!-- cool_ideas_WARP_agent_action_provenance&#45;&gt;cool_ideas_WARP_provenance_dag -->
<g id="edge6" class="edge">
<title>cool_ideas_WARP_agent_action_provenance&#45;&gt;cool_ideas_WARP_provenance_dag</title>
<path fill="none" stroke="#666666" d="M7261,-295.1C7261,-283.9 7261,-266.88 7261,-253.88"/>
<polygon fill="#666666" stroke="#666666" points="7262.75,-254.02 7261,-249.02 7259.25,-254.02 7262.75,-254.02"/>
<text xml:space="preserve" text-anchor="middle" x="7292.5" y="-268.65" font-family="Helvetica,sans-Serif" font-size="7.00">blocked_by/blocking</text>
</g>
<!-- cool_ideas_WARP_auto_breaking_change_detection -->
<g id="node48" class="node">
<title>cool_ideas_WARP_auto_breaking_change_detection</title>
<path fill="#d4e8f7" stroke="black" d="M10373.3,-247.05C10373.3,-247.05 10222.7,-247.05 10222.7,-247.05 10218.5,-247.05 10214.3,-242.85 10214.3,-238.65 10214.3,-238.65 10214.3,-230.25 10214.3,-230.25 10214.3,-226.05 10218.5,-221.85 10222.7,-221.85 10222.7,-221.85 10373.3,-221.85 10373.3,-221.85 10377.5,-221.85 10381.7,-226.05 10381.7,-230.25 10381.7,-230.25 10381.7,-238.65 10381.7,-238.65 10381.7,-242.85 10377.5,-247.05 10373.3,-247.05"/>
<text xml:space="preserve" text-anchor="middle" x="10298" y="-231.35" font-family="Helvetica,sans-Serif" font-size="8.00">WARP&#45;auto&#45;breaking&#45;change&#45;detection &#45; L</text>
</g>
<!-- cool_ideas_WARP_budget_elasticity -->
<g id="node50" class="node">
<title>cool_ideas_WARP_budget_elasticity</title>
<path fill="#d4e8f7" stroke="black" d="M7452.93,-320.5C7452.93,-320.5 7357.07,-320.5 7357.07,-320.5 7352.88,-320.5 7348.68,-316.3 7348.68,-312.1 7348.68,-312.1 7348.68,-303.7 7348.68,-303.7 7348.68,-299.5 7352.88,-295.3 7357.07,-295.3 7357.07,-295.3 7452.93,-295.3 7452.93,-295.3 7457.12,-295.3 7461.32,-299.5 7461.32,-303.7 7461.32,-303.7 7461.32,-312.1 7461.32,-312.1 7461.32,-316.3 7457.12,-320.5 7452.93,-320.5"/>
<text xml:space="preserve" text-anchor="middle" x="7405" y="-304.8" font-family="Helvetica,sans-Serif" font-size="8.00">WARP&#45;budget&#45;elasticity &#45; M</text>
</g>
<!-- cool_ideas_WARP_causal_blame_for_staged_artifacts -->
<g id="node51" class="node">
<title>cool_ideas_WARP_causal_blame_for_staged_artifacts</title>
<path fill="#d4e8f7" stroke="black" d="M7412.18,-173.6C7412.18,-173.6 7257.82,-173.6 7257.82,-173.6 7253.62,-173.6 7249.43,-169.4 7249.43,-165.2 7249.43,-165.2 7249.43,-156.8 7249.43,-156.8 7249.43,-152.6 7253.62,-148.4 7257.82,-148.4 7257.82,-148.4 7412.18,-148.4 7412.18,-148.4 7416.38,-148.4 7420.57,-152.6 7420.57,-156.8 7420.57,-156.8 7420.57,-165.2 7420.57,-165.2 7420.57,-169.4 7416.38,-173.6 7412.18,-173.6"/>
<text xml:space="preserve" text-anchor="middle" x="7335" y="-157.9" font-family="Helvetica,sans-Serif" font-size="8.00">WARP&#45;causal&#45;blame&#45;for&#45;staged&#45;artifacts &#45; L</text>
</g>
<!-- cool_ideas_WARP_codebase_entropy_trajectory -->
<g id="node53" class="node">
<title>cool_ideas_WARP_codebase_entropy_trajectory</title>
<path fill="#d4e8f7" stroke="black" d="M7622.68,-320.5C7622.68,-320.5 7483.32,-320.5 7483.32,-320.5 7479.12,-320.5 7474.93,-316.3 7474.93,-312.1 7474.93,-312.1 7474.93,-303.7 7474.93,-303.7 7474.93,-299.5 7479.12,-295.3 7483.32,-295.3 7483.32,-295.3 7622.68,-295.3 7622.68,-295.3 7626.88,-295.3 7631.07,-299.5 7631.07,-303.7 7631.07,-303.7 7631.07,-312.1 7631.07,-312.1 7631.07,-316.3 7626.88,-320.5 7622.68,-320.5"/>
<text xml:space="preserve" text-anchor="middle" x="7553" y="-304.8" font-family="Helvetica,sans-Serif" font-size="8.00">WARP&#45;codebase&#45;entropy&#45;trajectory &#45; M</text>
</g>
<!-- cool_ideas_WARP_counterfactual_refactoring -->
<g id="node55" class="node">
<title>cool_ideas_WARP_counterfactual_refactoring</title>
<path fill="#d4e8f7" stroke="black" d="M7630.68,-247.05C7630.68,-247.05 7497.32,-247.05 7497.32,-247.05 7493.12,-247.05 7488.93,-242.85 7488.93,-238.65 7488.93,-238.65 7488.93,-230.25 7488.93,-230.25 7488.93,-226.05 7493.12,-221.85 7497.32,-221.85 7497.32,-221.85 7630.68,-221.85 7630.68,-221.85 7634.88,-221.85 7639.07,-226.05 7639.07,-230.25 7639.07,-230.25 7639.07,-238.65 7639.07,-238.65 7639.07,-242.85 7634.88,-247.05 7630.68,-247.05"/>
<text xml:space="preserve" text-anchor="middle" x="7564" y="-231.35" font-family="Helvetica,sans-Serif" font-size="8.00">WARP&#45;counterfactual&#45;refactoring &#45; XL</text>
</g>
<!-- cool_ideas_WARP_codebase_entropy_trajectory&#45;&gt;cool_ideas_WARP_counterfactual_refactoring -->
<g id="edge7" class="edge">
<title>cool_ideas_WARP_codebase_entropy_trajectory&#45;&gt;cool_ideas_WARP_counterfactual_refactoring</title>
<path fill="none" stroke="#666666" d="M7554.82,-295.1C7556.54,-283.9 7559.16,-266.88 7561.16,-253.88"/>
<polygon fill="#666666" stroke="#666666" points="7562.88,-254.21 7561.91,-249 7559.42,-253.68 7562.88,-254.21"/>
<text xml:space="preserve" text-anchor="middle" x="7590.33" y="-268.65" font-family="Helvetica,sans-Serif" font-size="7.00">blocked_by/blocking</text>
</g>
<!-- cool_ideas_WARP_codebase_signature -->
<g id="node54" class="node">
<title>cool_ideas_WARP_codebase_signature</title>
<path fill="#d4e8f7" stroke="black" d="M7760.55,-320.5C7760.55,-320.5 7653.45,-320.5 7653.45,-320.5 7649.25,-320.5 7645.05,-316.3 7645.05,-312.1 7645.05,-312.1 7645.05,-303.7 7645.05,-303.7 7645.05,-299.5 7649.25,-295.3 7653.45,-295.3 7653.45,-295.3 7760.55,-295.3 7760.55,-295.3 7764.75,-295.3 7768.95,-299.5 7768.95,-303.7 7768.95,-303.7 7768.95,-312.1 7768.95,-312.1 7768.95,-316.3 7764.75,-320.5 7760.55,-320.5"/>
<text xml:space="preserve" text-anchor="middle" x="7707" y="-304.8" font-family="Helvetica,sans-Serif" font-size="8.00">WARP&#45;codebase&#45;signature &#45; L</text>
</g>
<!-- cool_ideas_WARP_structural_impact_prediction -->
<g id="node77" class="node">
<title>cool_ideas_WARP_structural_impact_prediction</title>
<path fill="#d4e8f7" stroke="black" d="M7633.3,-173.6C7633.3,-173.6 7494.7,-173.6 7494.7,-173.6 7490.5,-173.6 7486.3,-169.4 7486.3,-165.2 7486.3,-165.2 7486.3,-156.8 7486.3,-156.8 7486.3,-152.6 7490.5,-148.4 7494.7,-148.4 7494.7,-148.4 7633.3,-148.4 7633.3,-148.4 7637.5,-148.4 7641.7,-152.6 7641.7,-156.8 7641.7,-156.8 7641.7,-165.2 7641.7,-165.2 7641.7,-169.4 7637.5,-173.6 7633.3,-173.6"/>
<text xml:space="preserve" text-anchor="middle" x="7564" y="-157.9" font-family="Helvetica,sans-Serif" font-size="8.00">WARP&#45;structural&#45;impact&#45;prediction &#45; XL</text>
</g>
<!-- cool_ideas_WARP_counterfactual_refactoring&#45;&gt;cool_ideas_WARP_structural_impact_prediction -->
<g id="edge8" class="edge">
<title>cool_ideas_WARP_counterfactual_refactoring&#45;&gt;cool_ideas_WARP_structural_impact_prediction</title>
<path fill="none" stroke="#666666" d="M7564,-221.65C7564,-210.45 7564,-193.43 7564,-180.43"/>
<polygon fill="#666666" stroke="#666666" points="7565.75,-180.57 7564,-175.57 7562.25,-180.57 7565.75,-180.57"/>
<text xml:space="preserve" text-anchor="middle" x="7595.5" y="-195.2" font-family="Helvetica,sans-Serif" font-size="7.00">blocked_by/blocking</text>
</g>
<!-- cool_ideas_WARP_dead_symbol_detection -->
<g id="node56" class="node">
<title>cool_ideas_WARP_dead_symbol_detection</title>
<path fill="#d4e8f7" stroke="black" d="M7910.18,-320.5C7910.18,-320.5 7791.82,-320.5 7791.82,-320.5 7787.62,-320.5 7783.43,-316.3 7783.43,-312.1 7783.43,-312.1 7783.43,-303.7 7783.43,-303.7 7783.43,-299.5 7787.62,-295.3 7791.82,-295.3 7791.82,-295.3 7910.18,-295.3 7910.18,-295.3 7914.38,-295.3 7918.57,-299.5 7918.57,-303.7 7918.57,-303.7 7918.57,-312.1 7918.57,-312.1 7918.57,-316.3 7914.38,-320.5 7910.18,-320.5"/>
<text xml:space="preserve" text-anchor="middle" x="7851" y="-304.8" font-family="Helvetica,sans-Serif" font-size="8.00">WARP&#45;dead&#45;symbol&#45;detection &#45; S</text>
</g>
<!-- cool_ideas_WARP_degeneracy_warning -->
<g id="node57" class="node">
<title>cool_ideas_WARP_degeneracy_warning</title>
<path fill="#d4e8f7" stroke="black" d="M8053.18,-320.5C8053.18,-320.5 7940.82,-320.5 7940.82,-320.5 7936.62,-320.5 7932.43,-316.3 7932.43,-312.1 7932.43,-312.1 7932.43,-303.7 7932.43,-303.7 7932.43,-299.5 7936.62,-295.3 7940.82,-295.3 7940.82,-295.3 8053.18,-295.3 8053.18,-295.3 8057.38,-295.3 8061.57,-299.5 8061.57,-303.7 8061.57,-303.7 8061.57,-312.1 8061.57,-312.1 8061.57,-316.3 8057.38,-320.5 8053.18,-320.5"/>
<text xml:space="preserve" text-anchor="middle" x="7997" y="-304.8" font-family="Helvetica,sans-Serif" font-size="8.00">WARP&#45;degeneracy&#45;warning &#45; M</text>
</g>
<!-- cool_ideas_WARP_drift_sentinel -->
<g id="node58" class="node">
<title>cool_ideas_WARP_drift_sentinel</title>
<path fill="#d4e8f7" stroke="black" d="M9966.18,-247.05C9966.18,-247.05 9883.82,-247.05 9883.82,-247.05 9879.62,-247.05 9875.42,-242.85 9875.42,-238.65 9875.42,-238.65 9875.42,-230.25 9875.42,-230.25 9875.42,-226.05 9879.62,-221.85 9883.82,-221.85 9883.82,-221.85 9966.18,-221.85 9966.18,-221.85 9970.38,-221.85 9974.58,-226.05 9974.58,-230.25 9974.58,-230.25 9974.58,-238.65 9974.58,-238.65 9974.58,-242.85 9970.38,-247.05 9966.18,-247.05"/>
<text xml:space="preserve" text-anchor="middle" x="9925" y="-231.35" font-family="Helvetica,sans-Serif" font-size="8.00">WARP&#45;drift&#45;sentinel &#45; M</text>
</g>
<!-- cool_ideas_WARP_footprint_parallelism -->
<g id="node59" class="node">
<title>cool_ideas_WARP_footprint_parallelism</title>
<path fill="#d4e8f7" stroke="black" d="M8195.8,-320.5C8195.8,-320.5 8084.2,-320.5 8084.2,-320.5 8080,-320.5 8075.8,-316.3 8075.8,-312.1 8075.8,-312.1 8075.8,-303.7 8075.8,-303.7 8075.8,-299.5 8080,-295.3 8084.2,-295.3 8084.2,-295.3 8195.8,-295.3 8195.8,-295.3 8200,-295.3 8204.2,-299.5 8204.2,-303.7 8204.2,-303.7 8204.2,-312.1 8204.2,-312.1 8204.2,-316.3 8200,-320.5 8195.8,-320.5"/>
<text xml:space="preserve" text-anchor="middle" x="8140" y="-304.8" font-family="Helvetica,sans-Serif" font-size="8.00">WARP&#45;footprint&#45;parallelism &#45; XL</text>
</g>
<!-- cool_ideas_WARP_graft_pack -->
<g id="node60" class="node">
<title>cool_ideas_WARP_graft_pack</title>
<path fill="#d4e8f7" stroke="black" d="M8301.43,-320.5C8301.43,-320.5 8226.57,-320.5 8226.57,-320.5 8222.38,-320.5 8218.17,-316.3 8218.17,-312.1 8218.17,-312.1 8218.17,-303.7 8218.17,-303.7 8218.17,-299.5 8222.38,-295.3 8226.57,-295.3 8226.57,-295.3 8301.43,-295.3 8301.43,-295.3 8305.62,-295.3 8309.83,-299.5 8309.83,-303.7 8309.83,-303.7 8309.83,-312.1 8309.83,-312.1 8309.83,-316.3 8305.62,-320.5 8301.43,-320.5"/>
<text xml:space="preserve" text-anchor="middle" x="8264" y="-304.8" font-family="Helvetica,sans-Serif" font-size="8.00">WARP&#45;graft&#45;pack &#45; M</text>
</g>
<!-- cool_ideas_WARP_grouped_aggregate_queries -->
<g id="node61" class="node">
<title>cool_ideas_WARP_grouped_aggregate_queries</title>
<path fill="#d4e8f7" stroke="black" d="M8469.93,-320.5C8469.93,-320.5 8332.07,-320.5 8332.07,-320.5 8327.88,-320.5 8323.67,-316.3 8323.67,-312.1 8323.67,-312.1 8323.67,-303.7 8323.67,-303.7 8323.67,-299.5 8327.88,-295.3 8332.07,-295.3 8332.07,-295.3 8469.93,-295.3 8469.93,-295.3 8474.12,-295.3 8478.33,-299.5 8478.33,-303.7 8478.33,-303.7 8478.33,-312.1 8478.33,-312.1 8478.33,-316.3 8474.12,-320.5 8469.93,-320.5"/>
<text xml:space="preserve" text-anchor="middle" x="8401" y="-304.8" font-family="Helvetica,sans-Serif" font-size="8.00">WARP&#45;grouped&#45;aggregate&#45;queries &#45; M</text>
</g>
<!-- cool_ideas_WARP_intentional_degeneracy_privacy -->
<g id="node63" class="node">
<title>cool_ideas_WARP_intentional_degeneracy_privacy</title>
<path fill="#d4e8f7" stroke="black" d="M8648.8,-320.5C8648.8,-320.5 8501.2,-320.5 8501.2,-320.5 8497,-320.5 8492.8,-316.3 8492.8,-312.1 8492.8,-312.1 8492.8,-303.7 8492.8,-303.7 8492.8,-299.5 8497,-295.3 8501.2,-295.3 8501.2,-295.3 8648.8,-295.3 8648.8,-295.3 8653,-295.3 8657.2,-299.5 8657.2,-303.7 8657.2,-303.7 8657.2,-312.1 8657.2,-312.1 8657.2,-316.3 8653,-320.5 8648.8,-320.5"/>
<text xml:space="preserve" text-anchor="middle" x="8575" y="-304.8" font-family="Helvetica,sans-Serif" font-size="8.00">WARP&#45;intentional&#45;degeneracy&#45;privacy &#45; M</text>
</g>
<!-- cool_ideas_WARP_minimum_viable_context -->
<g id="node64" class="node">
<title>cool_ideas_WARP_minimum_viable_context</title>
<path fill="#d4e8f7" stroke="black" d="M8802.43,-320.5C8802.43,-320.5 8679.57,-320.5 8679.57,-320.5 8675.38,-320.5 8671.17,-316.3 8671.17,-312.1 8671.17,-312.1 8671.17,-303.7 8671.17,-303.7 8671.17,-299.5 8675.38,-295.3 8679.57,-295.3 8679.57,-295.3 8802.43,-295.3 8802.43,-295.3 8806.62,-295.3 8810.83,-299.5 8810.83,-303.7 8810.83,-303.7 8810.83,-312.1 8810.83,-312.1 8810.83,-316.3 8806.62,-320.5 8802.43,-320.5"/>
<text xml:space="preserve" text-anchor="middle" x="8741" y="-304.8" font-family="Helvetica,sans-Serif" font-size="8.00">WARP&#45;minimum&#45;viable&#45;context &#45; M</text>
</g>
<!-- cool_ideas_WARP_outline_diff_commit_trailer -->
<g id="node65" class="node">
<title>cool_ideas_WARP_outline_diff_commit_trailer</title>
<path fill="#d4e8f7" stroke="black" d="M8958.93,-320.5C8958.93,-320.5 8833.07,-320.5 8833.07,-320.5 8828.88,-320.5 8824.67,-316.3 8824.67,-312.1 8824.67,-312.1 8824.67,-303.7 8824.67,-303.7 8824.67,-299.5 8828.88,-295.3 8833.07,-295.3 8833.07,-295.3 8958.93,-295.3 8958.93,-295.3 8963.12,-295.3 8967.33,-299.5 8967.33,-303.7 8967.33,-303.7 8967.33,-312.1 8967.33,-312.1 8967.33,-316.3 8963.12,-320.5 8958.93,-320.5"/>
<text xml:space="preserve" text-anchor="middle" x="8896" y="-304.8" font-family="Helvetica,sans-Serif" font-size="8.00">WARP&#45;outline&#45;diff&#45;commit&#45;trailer &#45; S</text>
</g>
<!-- cool_ideas_WARP_projection_safety_classes -->
<g id="node66" class="node">
<title>cool_ideas_WARP_projection_safety_classes</title>
<path fill="#d4e8f7" stroke="black" d="M9115.93,-320.5C9115.93,-320.5 8990.07,-320.5 8990.07,-320.5 8985.88,-320.5 8981.67,-316.3 8981.67,-312.1 8981.67,-312.1 8981.67,-303.7 8981.67,-303.7 8981.67,-299.5 8985.88,-295.3 8990.07,-295.3 8990.07,-295.3 9115.93,-295.3 9115.93,-295.3 9120.12,-295.3 9124.33,-299.5 9124.33,-303.7 9124.33,-303.7 9124.33,-312.1 9124.33,-312.1 9124.33,-316.3 9120.12,-320.5 9115.93,-320.5"/>
<text xml:space="preserve" text-anchor="middle" x="9053" y="-304.8" font-family="Helvetica,sans-Serif" font-size="8.00">WARP&#45;projection&#45;safety&#45;classes &#45; M</text>
</g>
<!-- cool_ideas_WARP_provenance_dag&#45;&gt;cool_ideas_WARP_causal_blame_for_staged_artifacts -->
<g id="edge9" class="edge">
<title>cool_ideas_WARP_provenance_dag&#45;&gt;cool_ideas_WARP_causal_blame_for_staged_artifacts</title>
<path fill="none" stroke="#666666" d="M7273.22,-221.65C7285.46,-209.83 7304.41,-191.54 7318.09,-178.32"/>
<polygon fill="#666666" stroke="#666666" points="7319.04,-179.84 7321.43,-175.11 7316.61,-177.32 7319.04,-179.84"/>
<text xml:space="preserve" text-anchor="middle" x="7331.72" y="-195.2" font-family="Helvetica,sans-Serif" font-size="7.00">blocked_by/blocking</text>
</g>
<!-- cool_ideas_WARP_reasoning_trace_replay -->
<g id="node68" class="node">
<title>cool_ideas_WARP_reasoning_trace_replay</title>
<path fill="#d4e8f7" stroke="black" d="M7226.93,-173.6C7226.93,-173.6 7107.07,-173.6 7107.07,-173.6 7102.88,-173.6 7098.68,-169.4 7098.68,-165.2 7098.68,-165.2 7098.68,-156.8 7098.68,-156.8 7098.68,-152.6 7102.88,-148.4 7107.07,-148.4 7107.07,-148.4 7226.93,-148.4 7226.93,-148.4 7231.12,-148.4 7235.32,-152.6 7235.32,-156.8 7235.32,-156.8 7235.32,-165.2 7235.32,-165.2 7235.32,-169.4 7231.12,-173.6 7226.93,-173.6"/>
<text xml:space="preserve" text-anchor="middle" x="7167" y="-157.9" font-family="Helvetica,sans-Serif" font-size="8.00">WARP&#45;reasoning&#45;trace&#45;replay &#45; M</text>
</g>
<!-- cool_ideas_WARP_provenance_dag&#45;&gt;cool_ideas_WARP_reasoning_trace_replay -->
<g id="edge10" class="edge">
<title>cool_ideas_WARP_provenance_dag&#45;&gt;cool_ideas_WARP_reasoning_trace_replay</title>
<path fill="none" stroke="#666666" d="M7245.48,-221.65C7229.79,-209.73 7205.44,-191.22 7188.02,-177.98"/>
<polygon fill="#666666" stroke="#666666" points="7189.1,-176.6 7184.06,-174.97 7186.99,-179.39 7189.1,-176.6"/>
<text xml:space="preserve" text-anchor="middle" x="7248.32" y="-195.2" font-family="Helvetica,sans-Serif" font-size="7.00">blocked_by/blocking</text>
</g>
<!-- cool_ideas_WARP_rulial_heat_map -->
<g id="node69" class="node">
<title>cool_ideas_WARP_rulial_heat_map</title>
<path fill="#d4e8f7" stroke="black" d="M9237.3,-320.5C9237.3,-320.5 9146.7,-320.5 9146.7,-320.5 9142.5,-320.5 9138.3,-316.3 9138.3,-312.1 9138.3,-312.1 9138.3,-303.7 9138.3,-303.7 9138.3,-299.5 9142.5,-295.3 9146.7,-295.3 9146.7,-295.3 9237.3,-295.3 9237.3,-295.3 9241.5,-295.3 9245.7,-299.5 9245.7,-303.7 9245.7,-303.7 9245.7,-312.1 9245.7,-312.1 9245.7,-316.3 9241.5,-320.5 9237.3,-320.5"/>
<text xml:space="preserve" text-anchor="middle" x="9192" y="-304.8" font-family="Helvetica,sans-Serif" font-size="8.00">WARP&#45;rulial&#45;heat&#45;map &#45; L</text>
</g>
<!-- cool_ideas_WARP_semantic_drift_in_sessions -->
<g id="node70" class="node">
<title>cool_ideas_WARP_semantic_drift_in_sessions</title>
<path fill="#d4e8f7" stroke="black" d="M9397.43,-320.5C9397.43,-320.5 9268.57,-320.5 9268.57,-320.5 9264.38,-320.5 9260.17,-316.3 9260.17,-312.1 9260.17,-312.1 9260.17,-303.7 9260.17,-303.7 9260.17,-299.5 9264.38,-295.3 9268.57,-295.3 9268.57,-295.3 9397.43,-295.3 9397.43,-295.3 9401.62,-295.3 9405.83,-299.5 9405.83,-303.7 9405.83,-303.7 9405.83,-312.1 9405.83,-312.1 9405.83,-316.3 9401.62,-320.5 9397.43,-320.5"/>
<text xml:space="preserve" text-anchor="middle" x="9333" y="-304.8" font-family="Helvetica,sans-Serif" font-size="8.00">WARP&#45;semantic&#45;drift&#45;in&#45;sessions &#45; M</text>
</g>
<!-- cool_ideas_WARP_semantic_merge_conflict_prediction -->
<g id="node71" class="node">
<title>cool_ideas_WARP_semantic_merge_conflict_prediction</title>
<path fill="#d4e8f7" stroke="black" d="M10563.43,-247.05C10563.43,-247.05 10404.57,-247.05 10404.57,-247.05 10400.38,-247.05 10396.17,-242.85 10396.17,-238.65 10396.17,-238.65 10396.17,-230.25 10396.17,-230.25 10396.17,-226.05 10400.38,-221.85 10404.57,-221.85 10404.57,-221.85 10563.43,-221.85 10563.43,-221.85 10567.62,-221.85 10571.83,-226.05 10571.83,-230.25 10571.83,-230.25 10571.83,-238.65 10571.83,-238.65 10571.83,-242.85 10567.62,-247.05 10563.43,-247.05"/>
<text xml:space="preserve" text-anchor="middle" x="10484" y="-231.35" font-family="Helvetica,sans-Serif" font-size="8.00">WARP&#45;semantic&#45;merge&#45;conflict&#45;prediction &#45; L</text>
</g>
<!-- cool_ideas_WARP_session_filtration -->
<g id="node72" class="node">
<title>cool_ideas_WARP_session_filtration</title>
<path fill="#d4e8f7" stroke="black" d="M9521.8,-320.5C9521.8,-320.5 9428.2,-320.5 9428.2,-320.5 9424,-320.5 9419.8,-316.3 9419.8,-312.1 9419.8,-312.1 9419.8,-303.7 9419.8,-303.7 9419.8,-299.5 9424,-295.3 9428.2,-295.3 9428.2,-295.3 9521.8,-295.3 9521.8,-295.3 9526,-295.3 9530.2,-299.5 9530.2,-303.7 9530.2,-303.7 9530.2,-312.1 9530.2,-312.1 9530.2,-316.3 9526,-320.5 9521.8,-320.5"/>
<text xml:space="preserve" text-anchor="middle" x="9475" y="-304.8" font-family="Helvetica,sans-Serif" font-size="8.00">WARP&#45;session&#45;filtration &#45; L</text>
</g>
<!-- cool_ideas_WARP_shadow_structural_workspaces -->
<g id="node73" class="node">
<title>cool_ideas_WARP_shadow_structural_workspaces</title>
<path fill="#d4e8f7" stroke="black" d="M9703.3,-320.5C9703.3,-320.5 9552.7,-320.5 9552.7,-320.5 9548.5,-320.5 9544.3,-316.3 9544.3,-312.1 9544.3,-312.1 9544.3,-303.7 9544.3,-303.7 9544.3,-299.5 9548.5,-295.3 9552.7,-295.3 9552.7,-295.3 9703.3,-295.3 9703.3,-295.3 9707.5,-295.3 9711.7,-299.5 9711.7,-303.7 9711.7,-303.7 9711.7,-312.1 9711.7,-312.1 9711.7,-316.3 9707.5,-320.5 9703.3,-320.5"/>
<text xml:space="preserve" text-anchor="middle" x="9628" y="-304.8" font-family="Helvetica,sans-Serif" font-size="8.00">WARP&#45;shadow&#45;structural&#45;workspaces &#45; XL</text>
</g>
<!-- cool_ideas_WARP_speculative_merge -->
<g id="node74" class="node">
<title>cool_ideas_WARP_speculative_merge</title>
<path fill="#d4e8f7" stroke="black" d="M9841.55,-320.5C9841.55,-320.5 9734.45,-320.5 9734.45,-320.5 9730.25,-320.5 9726.05,-316.3 9726.05,-312.1 9726.05,-312.1 9726.05,-303.7 9726.05,-303.7 9726.05,-299.5 9730.25,-295.3 9734.45,-295.3 9734.45,-295.3 9841.55,-295.3 9841.55,-295.3 9845.75,-295.3 9849.95,-299.5 9849.95,-303.7 9849.95,-303.7 9849.95,-312.1 9849.95,-312.1 9849.95,-316.3 9845.75,-320.5 9841.55,-320.5"/>
<text xml:space="preserve" text-anchor="middle" x="9788" y="-304.8" font-family="Helvetica,sans-Serif" font-size="8.00">WARP&#45;speculative&#45;merge &#45; XL</text>
</g>
<!-- cool_ideas_WARP_stale_docs_checker -->
<g id="node75" class="node">
<title>cool_ideas_WARP_stale_docs_checker</title>
<path fill="#d4e8f7" stroke="black" d="M9977.8,-320.5C9977.8,-320.5 9872.2,-320.5 9872.2,-320.5 9868,-320.5 9863.8,-316.3 9863.8,-312.1 9863.8,-312.1 9863.8,-303.7 9863.8,-303.7 9863.8,-299.5 9868,-295.3 9872.2,-295.3 9872.2,-295.3 9977.8,-295.3 9977.8,-295.3 9982,-295.3 9986.2,-299.5 9986.2,-303.7 9986.2,-303.7 9986.2,-312.1 9986.2,-312.1 9986.2,-316.3 9982,-320.5 9977.8,-320.5"/>
<text xml:space="preserve" text-anchor="middle" x="9925" y="-304.8" font-family="Helvetica,sans-Serif" font-size="8.00">WARP&#45;stale&#45;docs&#45;checker &#45; M</text>
</g>
<!-- cool_ideas_WARP_stale_docs_checker&#45;&gt;cool_ideas_WARP_drift_sentinel -->
<g id="edge11" class="edge">
<title>cool_ideas_WARP_stale_docs_checker&#45;&gt;cool_ideas_WARP_drift_sentinel</title>
<path fill="none" stroke="#666666" d="M9925,-295.1C9925,-283.9 9925,-266.88 9925,-253.88"/>
<polygon fill="#666666" stroke="#666666" points="9926.75,-254.02 9925,-249.02 9923.25,-254.02 9926.75,-254.02"/>
<text xml:space="preserve" text-anchor="middle" x="9956.5" y="-268.65" font-family="Helvetica,sans-Serif" font-size="7.00">blocked_by/blocking</text>
</g>
<!-- cool_ideas_WARP_structural_drift_detection -->
<g id="node76" class="node">
<title>cool_ideas_WARP_structural_drift_detection</title>
<path fill="#d4e8f7" stroke="black" d="M10131.8,-320.5C10131.8,-320.5 10008.2,-320.5 10008.2,-320.5 10004,-320.5 9999.8,-316.3 9999.8,-312.1 9999.8,-312.1 9999.8,-303.7 9999.8,-303.7 9999.8,-299.5 10004,-295.3 10008.2,-295.3 10008.2,-295.3 10131.8,-295.3 10131.8,-295.3 10136,-295.3 10140.2,-299.5 10140.2,-303.7 10140.2,-303.7 10140.2,-312.1 10140.2,-312.1 10140.2,-316.3 10136,-320.5 10131.8,-320.5"/>
<text xml:space="preserve" text-anchor="middle" x="10070" y="-304.8" font-family="Helvetica,sans-Serif" font-size="8.00">WARP&#45;structural&#45;drift&#45;detection &#45; M</text>
</g>
<!-- cool_ideas_WARP_symbol_heatmap -->
<g id="node78" class="node">
<title>cool_ideas_WARP_symbol_heatmap</title>
<path fill="#d4e8f7" stroke="black" d="M10261.05,-320.5C10261.05,-320.5 10162.95,-320.5 10162.95,-320.5 10158.75,-320.5 10154.55,-316.3 10154.55,-312.1 10154.55,-312.1 10154.55,-303.7 10154.55,-303.7 10154.55,-299.5 10158.75,-295.3 10162.95,-295.3 10162.95,-295.3 10261.05,-295.3 10261.05,-295.3 10265.25,-295.3 10269.45,-299.5 10269.45,-303.7 10269.45,-303.7 10269.45,-312.1 10269.45,-312.1 10269.45,-316.3 10265.25,-320.5 10261.05,-320.5"/>
<text xml:space="preserve" text-anchor="middle" x="10212" y="-304.8" font-family="Helvetica,sans-Serif" font-size="8.00">WARP&#45;symbol&#45;heatmap &#45; M</text>
</g>
<!-- cool_ideas_WARP_symbol_history_timeline -->
<g id="node79" class="node">
<title>cool_ideas_WARP_symbol_history_timeline</title>
<path fill="#d4e8f7" stroke="black" d="M10410.18,-320.5C10410.18,-320.5 10291.82,-320.5 10291.82,-320.5 10287.62,-320.5 10283.42,-316.3 10283.42,-312.1 10283.42,-312.1 10283.42,-303.7 10283.42,-303.7 10283.42,-299.5 10287.62,-295.3 10291.82,-295.3 10291.82,-295.3 10410.18,-295.3 10410.18,-295.3 10414.38,-295.3 10418.58,-299.5 10418.58,-303.7 10418.58,-303.7 10418.58,-312.1 10418.58,-312.1 10418.58,-316.3 10414.38,-320.5 10410.18,-320.5"/>
<text xml:space="preserve" text-anchor="middle" x="10351" y="-304.8" font-family="Helvetica,sans-Serif" font-size="8.00">WARP&#45;symbol&#45;history&#45;timeline &#45; S</text>
</g>
<!-- cool_ideas_WARP_temporal_structural_search -->
<g id="node81" class="node">
<title>cool_ideas_WARP_temporal_structural_search</title>
<path fill="#d4e8f7" stroke="black" d="M10191.68,-247.05C10191.68,-247.05 10058.32,-247.05 10058.32,-247.05 10054.12,-247.05 10049.92,-242.85 10049.92,-238.65 10049.92,-238.65 10049.92,-230.25 10049.92,-230.25 10049.92,-226.05 10054.12,-221.85 10058.32,-221.85 10058.32,-221.85 10191.68,-221.85 10191.68,-221.85 10195.88,-221.85 10200.08,-226.05 10200.08,-230.25 10200.08,-230.25 10200.08,-238.65 10200.08,-238.65 10200.08,-242.85 10195.88,-247.05 10191.68,-247.05"/>
<text xml:space="preserve" text-anchor="middle" x="10125" y="-231.35" font-family="Helvetica,sans-Serif" font-size="8.00">WARP&#45;temporal&#45;structural&#45;search &#45; M</text>
</g>
<!-- cool_ideas_WARP_symbol_history_timeline&#45;&gt;cool_ideas_WARP_temporal_structural_search -->
<g id="edge12" class="edge">
<title>cool_ideas_WARP_symbol_history_timeline&#45;&gt;cool_ideas_WARP_temporal_structural_search</title>
<path fill="none" stroke="#666666" d="M10312.92,-294.86C10273.23,-282.31 10211.1,-262.67 10169.26,-249.44"/>
<polygon fill="#666666" stroke="#666666" points="10169.98,-247.83 10164.68,-248 10168.92,-251.17 10169.98,-247.83"/>
<text xml:space="preserve" text-anchor="middle" x="10276.28" y="-268.65" font-family="Helvetica,sans-Serif" font-size="7.00">blocked_by/blocking</text>
</g>
<!-- cool_ideas_WARP_technical_debt_curvature -->
<g id="node80" class="node">
<title>cool_ideas_WARP_technical_debt_curvature</title>
<path fill="#d4e8f7" stroke="black" d="M10563.43,-320.5C10563.43,-320.5 10440.57,-320.5 10440.57,-320.5 10436.38,-320.5 10432.17,-316.3 10432.17,-312.1 10432.17,-312.1 10432.17,-303.7 10432.17,-303.7 10432.17,-299.5 10436.38,-295.3 10440.57,-295.3 10440.57,-295.3 10563.43,-295.3 10563.43,-295.3 10567.62,-295.3 10571.83,-299.5 10571.83,-303.7 10571.83,-303.7 10571.83,-312.1 10571.83,-312.1 10571.83,-316.3 10567.62,-320.5 10563.43,-320.5"/>
<text xml:space="preserve" text-anchor="middle" x="10502" y="-304.8" font-family="Helvetica,sans-Serif" font-size="8.00">WARP&#45;technical&#45;debt&#45;curvature &#45; L</text>
</g>
<!-- external_git_warp_observer_geometry_ladder__Rung_2_4_ -->
<g id="node82" class="node">
<title>external_git_warp_observer_geometry_ladder__Rung_2_4_</title>
<path fill="#e8f2ff" stroke="black" d="M571.68,-320.5C571.68,-320.5 408.33,-320.5 408.33,-320.5 404.12,-320.5 399.93,-316.3 399.93,-312.1 399.93,-312.1 399.93,-303.7 399.93,-303.7 399.93,-299.5 404.12,-295.3 408.33,-295.3 408.33,-295.3 571.68,-295.3 571.68,-295.3 575.88,-295.3 580.08,-299.5 580.08,-303.7 580.08,-303.7 580.08,-312.1 580.08,-312.1 580.08,-316.3 575.88,-320.5 571.68,-320.5"/>
<text xml:space="preserve" text-anchor="middle" x="490" y="-304.8" font-family="Helvetica,sans-Serif" font-size="8.00">git&#45;warp observer geometry ladder (Rung 2&#45;4)</text>
</g>
<!-- external_git_warp_observer_geometry_ladder__Rung_2_4_&#45;&gt;v0_7_0_CORE_migrate_to_slice_first_reads -->
<g id="edge13" class="edge">
<title>external_git_warp_observer_geometry_ladder__Rung_2_4_&#45;&gt;v0_7_0_CORE_migrate_to_slice_first_reads</title>
<path fill="none" stroke="#4477aa" stroke-dasharray="5,2" d="M459.7,-294.94C428.5,-282.62 379.82,-263.41 346.28,-250.16"/>
<polygon fill="#4477aa" stroke="#4477aa" points="347.31,-248.69 342.02,-248.48 346.03,-251.95 347.31,-248.69"/>
<text xml:space="preserve" text-anchor="middle" x="436.8" y="-268.65" font-family="Helvetica,sans-Serif" font-size="7.00">blocked_by_external</text>
</g>
<!-- unresolved_CLEAN_CODE_export_diff_semver_signature_as_patch -->
<g id="node83" class="node">
<title>unresolved_CLEAN_CODE_export_diff_semver_signature_as_patch</title>
<path fill="#f2f2f2" stroke="black" stroke-dasharray="5,2" d="M10827.3,-320.5C10827.3,-320.5 10604.7,-320.5 10604.7,-320.5 10600.5,-320.5 10596.3,-316.3 10596.3,-312.1 10596.3,-312.1 10596.3,-303.7 10596.3,-303.7 10596.3,-299.5 10600.5,-295.3 10604.7,-295.3 10604.7,-295.3 10827.3,-295.3 10827.3,-295.3 10831.5,-295.3 10835.7,-299.5 10835.7,-303.7 10835.7,-303.7 10835.7,-312.1 10835.7,-312.1 10835.7,-316.3 10831.5,-320.5 10827.3,-320.5"/>
<text xml:space="preserve" text-anchor="middle" x="10716" y="-304.8" font-family="Helvetica,sans-Serif" font-size="8.00">missing: CLEAN_CODE_export&#45;diff&#45;semver&#45;signature&#45;as&#45;patch</text>
</g>
<!-- unresolved_CLEAN_CODE_export_diff_semver_signature_as_patch&#45;&gt;cool_ideas_WARP_auto_breaking_change_detection -->
<g id="edge14" class="edge">
<title>unresolved_CLEAN_CODE_export_diff_semver_signature_as_patch&#45;&gt;cool_ideas_WARP_auto_breaking_change_detection</title>
<path fill="none" stroke="#cc3333" stroke-dasharray="5,2" d="M10645.56,-294.86C10570.51,-282.03 10452.05,-261.78 10374.69,-248.56"/>
<polygon fill="#cc3333" stroke="#cc3333" points="10375.44,-246.91 10370.22,-247.79 10374.85,-250.36 10375.44,-246.91"/>
<text xml:space="preserve" text-anchor="middle" x="10537.16" y="-268.65" font-family="Helvetica,sans-Serif" font-size="7.00">blocked_by</text>
</g>
<!-- unresolved_CLEAN_CODE_export_diff_semver_signature_as_patch&#45;&gt;cool_ideas_WARP_semantic_merge_conflict_prediction -->
<g id="edge15" class="edge">
<title>unresolved_CLEAN_CODE_export_diff_semver_signature_as_patch&#45;&gt;cool_ideas_WARP_semantic_merge_conflict_prediction</title>
<path fill="none" stroke="#cc3333" stroke-dasharray="5,2" d="M10676.91,-294.86C10636.17,-282.31 10572.39,-262.67 10529.43,-249.44"/>
<polygon fill="#cc3333" stroke="#cc3333" points="10529.99,-247.78 10524.7,-247.98 10528.96,-251.13 10529.99,-247.78"/>
<text xml:space="preserve" text-anchor="middle" x="10624.58" y="-268.65" font-family="Helvetica,sans-Serif" font-size="7.00">blocked_by</text>
</g>
<!-- leg_v07 -->
<g id="node84" class="node">
<title>leg_v07</title>
<path fill="#ffa07a" stroke="black" stroke-width="2" d="M10952,-320.5C10952,-320.5 10868,-320.5 10868,-320.5 10863.8,-320.5 10859.6,-316.3 10859.6,-312.1 10859.6,-312.1 10859.6,-303.7 10859.6,-303.7 10859.6,-299.5 10863.8,-295.3 10868,-295.3 10868,-295.3 10952,-295.3 10952,-295.3 10956.2,-295.3 10960.4,-299.5 10960.4,-303.7 10960.4,-303.7 10960.4,-312.1 10960.4,-312.1 10960.4,-316.3 10956.2,-320.5 10952,-320.5"/>
<text xml:space="preserve" text-anchor="middle" x="10910" y="-305.38" font-family="Helvetica,sans-Serif" font-size="7.00">v0.7.0</text>
</g>
<!-- leg_bad -->
<g id="node85" class="node">
<title>leg_bad</title>
<path fill="#f6b3b3" stroke="black" stroke-width="2" d="M10952,-247.05C10952,-247.05 10868,-247.05 10868,-247.05 10863.8,-247.05 10859.6,-242.85 10859.6,-238.65 10859.6,-238.65 10859.6,-230.25 10859.6,-230.25 10859.6,-226.05 10863.8,-221.85 10868,-221.85 10868,-221.85 10952,-221.85 10952,-221.85 10956.2,-221.85 10960.4,-226.05 10960.4,-230.25 10960.4,-230.25 10960.4,-238.65 10960.4,-238.65 10960.4,-242.85 10956.2,-247.05 10952,-247.05"/>
<text xml:space="preserve" text-anchor="middle" x="10910" y="-231.92" font-family="Helvetica,sans-Serif" font-size="7.00">bad&#45;code</text>
</g>
<!-- leg_v07&#45;&gt;leg_bad -->
<!-- leg_idea -->
<g id="node86" class="node">
<title>leg_idea</title>
<path fill="#d4e8f7" stroke="black" d="M10952,-173.6C10952,-173.6 10868,-173.6 10868,-173.6 10863.8,-173.6 10859.6,-169.4 10859.6,-165.2 10859.6,-165.2 10859.6,-156.8 10859.6,-156.8 10859.6,-152.6 10863.8,-148.4 10868,-148.4 10868,-148.4 10952,-148.4 10952,-148.4 10956.2,-148.4 10960.4,-152.6 10960.4,-156.8 10960.4,-156.8 10960.4,-165.2 10960.4,-165.2 10960.4,-169.4 10956.2,-173.6 10952,-173.6"/>
<text xml:space="preserve" text-anchor="middle" x="10910" y="-158.47" font-family="Helvetica,sans-Serif" font-size="7.00">cool&#45;ideas</text>
</g>
<!-- leg_bad&#45;&gt;leg_idea -->
<!-- leg_external -->
<g id="node87" class="node">
<title>leg_external</title>
<path fill="#e8f2ff" stroke="black" d="M10952,-107.4C10952,-107.4 10868,-107.4 10868,-107.4 10863.8,-107.4 10859.6,-103.2 10859.6,-99 10859.6,-99 10859.6,-90.6 10859.6,-90.6 10859.6,-86.4 10863.8,-82.2 10868,-82.2 10868,-82.2 10952,-82.2 10952,-82.2 10956.2,-82.2 10960.4,-86.4 10960.4,-90.6 10960.4,-90.6 10960.4,-99 10960.4,-99 10960.4,-103.2 10956.2,-107.4 10952,-107.4"/>
<text xml:space="preserve" text-anchor="middle" x="10910" y="-92.28" font-family="Helvetica,sans-Serif" font-size="7.00">external blocker</text>
</g>
<!-- leg_idea&#45;&gt;leg_external -->
<!-- leg_unresolved -->
<g id="node88" class="node">
<title>leg_unresolved</title>
<path fill="#f2f2f2" stroke="black" stroke-dasharray="5,2" d="M10952,-41.2C10952,-41.2 10868,-41.2 10868,-41.2 10863.8,-41.2 10859.6,-37 10859.6,-32.8 10859.6,-32.8 10859.6,-24.4 10859.6,-24.4 10859.6,-20.2 10863.8,-16 10868,-16 10868,-16 10952,-16 10952,-16 10956.2,-16 10960.4,-20.2 10960.4,-24.4 10960.4,-24.4 10960.4,-32.8 10960.4,-32.8 10960.4,-37 10956.2,-41.2 10952,-41.2"/>
<text xml:space="preserve" text-anchor="middle" x="10910" y="-26.08" font-family="Helvetica,sans-Serif" font-size="7.00">unresolved ref</text>
</g>
<!-- leg_external&#45;&gt;leg_unresolved -->
</g>
</svg>
