<?xml version="1.0" encoding="UTF-8" standalone="no"?>
<!DOCTYPE svg PUBLIC "-//W3C//DTD SVG 1.1//EN"
 "http://www.w3.org/Graphics/SVG/1.1/DTD/svg11.dtd">
<!-- Generated by graphviz version 14.1.2 (20260124.0452)
 -->
<!-- Title: backlog Pages: 1 -->
<svg width="13236pt" height="226pt"
 viewBox="0.00 0.00 13236.00 226.00" xmlns="http://www.w3.org/2000/svg" xmlns:xlink="http://www.w3.org/1999/xlink">
<g id="graph0" class="graph" transform="scale(1 1) rotate(0) translate(4 222.1)">
<title>backlog</title>
<polygon fill="white" stroke="none" points="-4,4 -4,-222.1 13232,-222.1 13232,4 -4,4"/>
<text xml:space="preserve" text-anchor="middle" x="6614" y="-202.7" font-family="Helvetica,sans-Serif" font-size="12.00">Active backlog graph generated from docs/method/backlog/*/*.md on 2026&#45;04&#45;26</text>
<g id="clust1" class="cluster">
<title>cluster_v0_7_0</title>
<path fill="#fafafa" stroke="#cccccc" d="M20,-130.4C20,-130.4 1777,-130.4 1777,-130.4 1783,-130.4 1789,-136.4 1789,-142.4 1789,-142.4 1789,-177.35 1789,-177.35 1789,-183.35 1783,-189.35 1777,-189.35 1777,-189.35 20,-189.35 20,-189.35 14,-189.35 8,-183.35 8,-177.35 8,-177.35 8,-142.4 8,-142.4 8,-136.4 14,-130.4 20,-130.4"/>
<text xml:space="preserve" text-anchor="middle" x="37" y="-176.8" font-family="Helvetica,sans-Serif" font-size="9.00" fill="#555555">v0.7.0 (11)</text>
</g>
<g id="clust2" class="cluster">
<title>cluster_bad_code</title>
<path fill="#fafafa" stroke="#cccccc" d="M1809,-130.4C1809,-130.4 1931,-130.4 1931,-130.4 1937,-130.4 1943,-136.4 1943,-142.4 1943,-142.4 1943,-177.35 1943,-177.35 1943,-183.35 1937,-189.35 1931,-189.35 1931,-189.35 1809,-189.35 1809,-189.35 1803,-189.35 1797,-183.35 1797,-177.35 1797,-177.35 1797,-142.4 1797,-142.4 1797,-136.4 1803,-130.4 1809,-130.4"/>
<text xml:space="preserve" text-anchor="middle" x="1832.38" y="-176.8" font-family="Helvetica,sans-Serif" font-size="9.00" fill="#555555">Bad Code (1)</text>
</g>
<g id="clust3" class="cluster">
<title>cluster_cool_ideas</title>
<path fill="#fafafa" stroke="#cccccc" d="M1963,-130.4C1963,-130.4 13098,-130.4 13098,-130.4 13104,-130.4 13110,-136.4 13110,-142.4 13110,-142.4 13110,-177.35 13110,-177.35 13110,-183.35 13104,-189.35 13098,-189.35 13098,-189.35 1963,-189.35 1963,-189.35 1957,-189.35 1951,-183.35 1951,-177.35 1951,-177.35 1951,-142.4 1951,-142.4 1951,-136.4 1957,-130.4 1963,-130.4"/>
<text xml:space="preserve" text-anchor="middle" x="1990.5" y="-176.8" font-family="Helvetica,sans-Serif" font-size="9.00" fill="#555555">Cool Ideas (73)</text>
</g>
<g id="clust4" class="cluster">
<title>cluster_legend</title>
<path fill="none" stroke="#dddddd" d="M13130,-8C13130,-8 13208,-8 13208,-8 13214,-8 13220,-14 13220,-20 13220,-20 13220,-176.6 13220,-176.6 13220,-182.6 13214,-188.6 13208,-188.6 13208,-188.6 13130,-188.6 13130,-188.6 13124,-188.6 13118,-182.6 13118,-176.6 13118,-176.6 13118,-20 13118,-20 13118,-14 13124,-8 13130,-8"/>
<text xml:space="preserve" text-anchor="middle" x="13139.5" y="-177" font-family="Helvetica,sans-Serif" font-size="8.00" fill="#aaaaaa">Legend</text>
</g>
<!-- v0_7_0_CORE_agent_drift_warning -->
<g id="node1" class="node">
<title>v0_7_0_CORE_agent_drift_warning</title>
<path fill="#ffa07a" stroke="black" stroke-width="2" d="M116.05,-163.6C116.05,-163.6 23.95,-163.6 23.95,-163.6 19.75,-163.6 15.55,-159.4 15.55,-155.2 15.55,-155.2 15.55,-146.8 15.55,-146.8 15.55,-142.6 19.75,-138.4 23.95,-138.4 23.95,-138.4 116.05,-138.4 116.05,-138.4 120.25,-138.4 124.45,-142.6 124.45,-146.8 124.45,-146.8 124.45,-155.2 124.45,-155.2 124.45,-159.4 120.25,-163.6 116.05,-163.6"/>
<text xml:space="preserve" text-anchor="middle" x="70" y="-147.9" font-family="Helvetica,sans-Serif" font-size="8.00">CORE&#45;agent&#45;drift&#45;warning</text>
</g>
<!-- v0_7_0_CORE_daemon_aware_stdio_bridge_for_mcp_clients -->
<g id="node2" class="node">
<title>v0_7_0_CORE_daemon_aware_stdio_bridge_for_mcp_clients</title>
<path fill="#ffa07a" stroke="black" stroke-width="2" d="M322.55,-163.6C322.55,-163.6 143.45,-163.6 143.45,-163.6 139.25,-163.6 135.05,-159.4 135.05,-155.2 135.05,-155.2 135.05,-146.8 135.05,-146.8 135.05,-142.6 139.25,-138.4 143.45,-138.4 143.45,-138.4 322.55,-138.4 322.55,-138.4 326.75,-138.4 330.95,-142.6 330.95,-146.8 330.95,-146.8 330.95,-155.2 330.95,-155.2 330.95,-159.4 326.75,-163.6 322.55,-163.6"/>
<text xml:space="preserve" text-anchor="middle" x="233" y="-147.9" font-family="Helvetica,sans-Serif" font-size="8.00">CORE&#45;daemon&#45;aware&#45;stdio&#45;bridge&#45;for&#45;mcp&#45;clients</text>
</g>
<!-- v0_7_0_CORE_git_graft_enhance -->
<g id="node3" class="node">
<title>v0_7_0_CORE_git_graft_enhance</title>
<path fill="#ffa07a" stroke="black" stroke-width="2" d="M435.68,-163.6C435.68,-163.6 350.32,-163.6 350.32,-163.6 346.12,-163.6 341.93,-159.4 341.93,-155.2 341.93,-155.2 341.93,-146.8 341.93,-146.8 341.93,-142.6 346.12,-138.4 350.32,-138.4 350.32,-138.4 435.68,-138.4 435.68,-138.4 439.88,-138.4 444.07,-142.6 444.07,-146.8 444.07,-146.8 444.07,-155.2 444.07,-155.2 444.07,-159.4 439.88,-163.6 435.68,-163.6"/>
<text xml:space="preserve" text-anchor="middle" x="393" y="-147.9" font-family="Helvetica,sans-Serif" font-size="8.00">CORE&#45;git&#45;graft&#45;enhance</text>
</g>
<!-- v0_7_0_CORE_migrate_path_ops_to_port -->
<g id="node4" class="node">
<title>v0_7_0_CORE_migrate_path_ops_to_port</title>
<path fill="#ffa07a" stroke="black" stroke-width="2" d="M576.18,-163.6C576.18,-163.6 463.82,-163.6 463.82,-163.6 459.62,-163.6 455.43,-159.4 455.43,-155.2 455.43,-155.2 455.43,-146.8 455.43,-146.8 455.43,-142.6 459.62,-138.4 463.82,-138.4 463.82,-138.4 576.18,-138.4 576.18,-138.4 580.38,-138.4 584.58,-142.6 584.58,-146.8 584.58,-146.8 584.58,-155.2 584.58,-155.2 584.58,-159.4 580.38,-163.6 576.18,-163.6"/>
<text xml:space="preserve" text-anchor="middle" x="520" y="-147.9" font-family="Helvetica,sans-Serif" font-size="8.00">CORE&#45;migrate&#45;path&#45;ops&#45;to&#45;port</text>
</g>
<!-- v0_7_0_CORE_migrate_to_slice_first_reads -->
<g id="node5" class="node">
<title>v0_7_0_CORE_migrate_to_slice_first_reads</title>
<path fill="#ffa07a" stroke="black" stroke-width="2" d="M721.8,-163.6C721.8,-163.6 604.2,-163.6 604.2,-163.6 600,-163.6 595.8,-159.4 595.8,-155.2 595.8,-155.2 595.8,-146.8 595.8,-146.8 595.8,-142.6 600,-138.4 604.2,-138.4 604.2,-138.4 721.8,-138.4 721.8,-138.4 726,-138.4 730.2,-142.6 730.2,-146.8 730.2,-146.8 730.2,-155.2 730.2,-155.2 730.2,-159.4 726,-163.6 721.8,-163.6"/>
<text xml:space="preserve" text-anchor="middle" x="663" y="-147.9" font-family="Helvetica,sans-Serif" font-size="8.00">CORE&#45;migrate&#45;to&#45;slice&#45;first&#45;reads</text>
</g>
<!-- v0_7_0_CORE_opt_in_daemon_mode_mcp_bootstrap -->
<g id="node6" class="node">
<title>v0_7_0_CORE_opt_in_daemon_mode_mcp_bootstrap</title>
<path fill="#ffa07a" stroke="black" stroke-width="2" d="M904.18,-163.6C904.18,-163.6 749.82,-163.6 749.82,-163.6 745.62,-163.6 741.42,-159.4 741.42,-155.2 741.42,-155.2 741.42,-146.8 741.42,-146.8 741.42,-142.6 745.62,-138.4 749.82,-138.4 749.82,-138.4 904.18,-138.4 904.18,-138.4 908.38,-138.4 912.58,-142.6 912.58,-146.8 912.58,-146.8 912.58,-155.2 912.58,-155.2 912.58,-159.4 908.38,-163.6 904.18,-163.6"/>
<text xml:space="preserve" text-anchor="middle" x="827" y="-147.9" font-family="Helvetica,sans-Serif" font-size="8.00">CORE&#45;opt&#45;in&#45;daemon&#45;mode&#45;mcp&#45;bootstrap</text>
</g>
<!-- v0_7_0_CORE_rewrite_structural_blame_to_use_warp_worldline_provenance -->
<g id="node7" class="node">
<title>v0_7_0_CORE_rewrite_structural_blame_to_use_warp_worldline_provenance</title>
<path fill="#ffa07a" stroke="black" stroke-width="2" d="M1167.67,-163.6C1167.67,-163.6 932.32,-163.6 932.32,-163.6 928.12,-163.6 923.92,-159.4 923.92,-155.2 923.92,-155.2 923.92,-146.8 923.92,-146.8 923.92,-142.6 928.12,-138.4 932.32,-138.4 932.32,-138.4 1167.67,-138.4 1167.67,-138.4 1171.88,-138.4 1176.08,-142.6 1176.08,-146.8 1176.08,-146.8 1176.08,-155.2 1176.08,-155.2 1176.08,-159.4 1171.88,-163.6 1167.67,-163.6"/>
<text xml:space="preserve" text-anchor="middle" x="1050" y="-147.9" font-family="Helvetica,sans-Serif" font-size="8.00">CORE&#45;rewrite&#45;structural&#45;blame&#45;to&#45;use&#45;warp&#45;worldline&#45;provenance</text>
</g>
<!-- v0_7_0_SURFACE_agent_dx_governed_edit -->
<g id="node8" class="node">
<title>v0_7_0_SURFACE_agent_dx_governed_edit</title>
<path fill="#ffa07a" stroke="black" stroke-width="2" d="M1318.42,-163.6C1318.42,-163.6 1195.58,-163.6 1195.58,-163.6 1191.38,-163.6 1187.17,-159.4 1187.17,-155.2 1187.17,-155.2 1187.17,-146.8 1187.17,-146.8 1187.17,-142.6 1191.38,-138.4 1195.58,-138.4 1195.58,-138.4 1318.42,-138.4 1318.42,-138.4 1322.62,-138.4 1326.83,-142.6 1326.83,-146.8 1326.83,-146.8 1326.83,-155.2 1326.83,-155.2 1326.83,-159.4 1322.62,-163.6 1318.42,-163.6"/>
<text xml:space="preserve" text-anchor="middle" x="1257" y="-147.9" font-family="Helvetica,sans-Serif" font-size="8.00">SURFACE&#45;agent&#45;dx&#45;governed&#45;edit</text>
</g>
<!-- v0_7_0_SURFACE_bijou_tui_for_graft_daemon_control_plane -->
<g id="node9" class="node">
<title>v0_7_0_SURFACE_bijou_tui_for_graft_daemon_control_plane</title>
<path fill="#ffa07a" stroke="black" stroke-width="2" d="M1527.3,-163.6C1527.3,-163.6 1346.7,-163.6 1346.7,-163.6 1342.5,-163.6 1338.3,-159.4 1338.3,-155.2 1338.3,-155.2 1338.3,-146.8 1338.3,-146.8 1338.3,-142.6 1342.5,-138.4 1346.7,-138.4 1346.7,-138.4 1527.3,-138.4 1527.3,-138.4 1531.5,-138.4 1535.7,-142.6 1535.7,-146.8 1535.7,-146.8 1535.7,-155.2 1535.7,-155.2 1535.7,-159.4 1531.5,-163.6 1527.3,-163.6"/>
<text xml:space="preserve" text-anchor="middle" x="1437" y="-147.9" font-family="Helvetica,sans-Serif" font-size="8.00">SURFACE&#45;bijou&#45;tui&#45;for&#45;graft&#45;daemon&#45;control&#45;plane</text>
</g>
<!-- v0_7_0_SURFACE_governed_write_tools -->
<g id="node10" class="node">
<title>v0_7_0_SURFACE_governed_write_tools</title>
<path fill="#ffa07a" stroke="black" stroke-width="2" d="M1667.17,-163.6C1667.17,-163.6 1554.83,-163.6 1554.83,-163.6 1550.62,-163.6 1546.42,-159.4 1546.42,-155.2 1546.42,-155.2 1546.42,-146.8 1546.42,-146.8 1546.42,-142.6 1550.62,-138.4 1554.83,-138.4 1554.83,-138.4 1667.17,-138.4 1667.17,-138.4 1671.38,-138.4 1675.58,-142.6 1675.58,-146.8 1675.58,-146.8 1675.58,-155.2 1675.58,-155.2 1675.58,-159.4 1671.38,-163.6 1667.17,-163.6"/>
<text xml:space="preserve" text-anchor="middle" x="1611" y="-147.9" font-family="Helvetica,sans-Serif" font-size="8.00">SURFACE&#45;governed&#45;write&#45;tools</text>
</g>
<!-- v0_7_0_WARP_lsp_enrichment -->
<g id="node11" class="node">
<title>v0_7_0_WARP_lsp_enrichment</title>
<path fill="#ffa07a" stroke="black" stroke-width="2" d="M1772.55,-163.6C1772.55,-163.6 1695.45,-163.6 1695.45,-163.6 1691.25,-163.6 1687.05,-159.4 1687.05,-155.2 1687.05,-155.2 1687.05,-146.8 1687.05,-146.8 1687.05,-142.6 1691.25,-138.4 1695.45,-138.4 1695.45,-138.4 1772.55,-138.4 1772.55,-138.4 1776.75,-138.4 1780.95,-142.6 1780.95,-146.8 1780.95,-146.8 1780.95,-155.2 1780.95,-155.2 1780.95,-159.4 1776.75,-163.6 1772.55,-163.6"/>
<text xml:space="preserve" text-anchor="middle" x="1734" y="-147.9" font-family="Helvetica,sans-Serif" font-size="8.00">WARP&#45;lsp&#45;enrichment</text>
</g>
<!-- bad_code_dead_code_old_git_operations -->
<g id="node12" class="node">
<title>bad_code_dead_code_old_git_operations</title>
<path fill="#f6b3b3" stroke="black" stroke-width="2" d="M1926.92,-163.6C1926.92,-163.6 1813.08,-163.6 1813.08,-163.6 1808.88,-163.6 1804.67,-159.4 1804.67,-155.2 1804.67,-155.2 1804.67,-146.8 1804.67,-146.8 1804.67,-142.6 1808.88,-138.4 1813.08,-138.4 1813.08,-138.4 1926.92,-138.4 1926.92,-138.4 1931.12,-138.4 1935.33,-142.6 1935.33,-146.8 1935.33,-146.8 1935.33,-155.2 1935.33,-155.2 1935.33,-159.4 1931.12,-163.6 1926.92,-163.6"/>
<text xml:space="preserve" text-anchor="middle" x="1870" y="-147.9" font-family="Helvetica,sans-Serif" font-size="8.00">dead&#45;code&#45;old&#45;git&#45;operations &#45; S</text>
</g>
<!-- cool_ideas_CI_001_causal_collapse_visualizer -->
<g id="node13" class="node">
<title>cool_ideas_CI_001_causal_collapse_visualizer</title>
<path fill="#d4e8f7" stroke="black" d="M2094.3,-163.6C2094.3,-163.6 1967.7,-163.6 1967.7,-163.6 1963.5,-163.6 1959.3,-159.4 1959.3,-155.2 1959.3,-155.2 1959.3,-146.8 1959.3,-146.8 1959.3,-142.6 1963.5,-138.4 1967.7,-138.4 1967.7,-138.4 2094.3,-138.4 2094.3,-138.4 2098.5,-138.4 2102.7,-142.6 2102.7,-146.8 2102.7,-146.8 2102.7,-155.2 2102.7,-155.2 2102.7,-159.4 2098.5,-163.6 2094.3,-163.6"/>
<text xml:space="preserve" text-anchor="middle" x="2031" y="-147.9" font-family="Helvetica,sans-Serif" font-size="8.00">CI&#45;001&#45;causal&#45;collapse&#45;visualizer &#45; L</text>
</g>
<!-- cool_ideas_CI_002_deterministic_scenario_replay -->
<g id="node14" class="node">
<title>cool_ideas_CI_002_deterministic_scenario_replay</title>
<path fill="#d4e8f7" stroke="black" d="M2261.67,-163.6C2261.67,-163.6 2122.33,-163.6 2122.33,-163.6 2118.12,-163.6 2113.93,-159.4 2113.93,-155.2 2113.93,-155.2 2113.93,-146.8 2113.93,-146.8 2113.93,-142.6 2118.12,-138.4 2122.33,-138.4 2122.33,-138.4 2261.67,-138.4 2261.67,-138.4 2265.88,-138.4 2270.07,-142.6 2270.07,-146.8 2270.07,-146.8 2270.07,-155.2 2270.07,-155.2 2270.07,-159.4 2265.88,-163.6 2261.67,-163.6"/>
<text xml:space="preserve" text-anchor="middle" x="2192" y="-147.9" font-family="Helvetica,sans-Serif" font-size="8.00">CI&#45;002&#45;deterministic&#45;scenario&#45;replay &#45; L</text>
</g>
<!-- cool_ideas_CI_003_mcp_native_diff_protocol -->
<g id="node15" class="node">
<title>cool_ideas_CI_003_mcp_native_diff_protocol</title>
<path fill="#d4e8f7" stroke="black" d="M2412.8,-163.6C2412.8,-163.6 2289.2,-163.6 2289.2,-163.6 2285,-163.6 2280.8,-159.4 2280.8,-155.2 2280.8,-155.2 2280.8,-146.8 2280.8,-146.8 2280.8,-142.6 2285,-138.4 2289.2,-138.4 2289.2,-138.4 2412.8,-138.4 2412.8,-138.4 2417,-138.4 2421.2,-142.6 2421.2,-146.8 2421.2,-146.8 2421.2,-155.2 2421.2,-155.2 2421.2,-159.4 2417,-163.6 2412.8,-163.6"/>
<text xml:space="preserve" text-anchor="middle" x="2351" y="-147.9" font-family="Helvetica,sans-Serif" font-size="8.00">CI&#45;003&#45;mcp&#45;native&#45;diff&#45;protocol &#45; M</text>
</g>
<!-- cool_ideas_CLEAN_CODE_parallel_agent_merge_shared_file_loss -->
<g id="node16" class="node">
<title>cool_ideas_CLEAN_CODE_parallel_agent_merge_shared_file_loss</title>
<path fill="#d4e8f7" stroke="black" d="M2641.05,-163.6C2641.05,-163.6 2440.95,-163.6 2440.95,-163.6 2436.75,-163.6 2432.55,-159.4 2432.55,-155.2 2432.55,-155.2 2432.55,-146.8 2432.55,-146.8 2432.55,-142.6 2436.75,-138.4 2440.95,-138.4 2440.95,-138.4 2641.05,-138.4 2641.05,-138.4 2645.25,-138.4 2649.45,-142.6 2649.45,-146.8 2649.45,-146.8 2649.45,-155.2 2649.45,-155.2 2649.45,-159.4 2645.25,-163.6 2641.05,-163.6"/>
<text xml:space="preserve" text-anchor="middle" x="2541" y="-147.9" font-family="Helvetica,sans-Serif" font-size="8.00">CLEAN&#45;CODE&#45;parallel&#45;agent&#45;merge&#45;shared&#45;file&#45;loss &#45; M</text>
</g>
<!-- cool_ideas_CORE_agent_handoff_protocol -->
<g id="node17" class="node">
<title>cool_ideas_CORE_agent_handoff_protocol</title>
<path fill="#d4e8f7" stroke="black" d="M2788.92,-163.6C2788.92,-163.6 2669.08,-163.6 2669.08,-163.6 2664.88,-163.6 2660.68,-159.4 2660.68,-155.2 2660.68,-155.2 2660.68,-146.8 2660.68,-146.8 2660.68,-142.6 2664.88,-138.4 2669.08,-138.4 2669.08,-138.4 2788.92,-138.4 2788.92,-138.4 2793.12,-138.4 2797.32,-142.6 2797.32,-146.8 2797.32,-146.8 2797.32,-155.2 2797.32,-155.2 2797.32,-159.4 2793.12,-163.6 2788.92,-163.6"/>
<text xml:space="preserve" text-anchor="middle" x="2729" y="-147.9" font-family="Helvetica,sans-Serif" font-size="8.00">CORE&#45;agent&#45;handoff&#45;protocol &#45; M</text>
</g>
<!-- cool_ideas_CORE_auto_focus -->
<g id="node18" class="node">
<title>cool_ideas_CORE_auto_focus</title>
<path fill="#d4e8f7" stroke="black" d="M2889.67,-163.6C2889.67,-163.6 2816.33,-163.6 2816.33,-163.6 2812.12,-163.6 2807.93,-159.4 2807.93,-155.2 2807.93,-155.2 2807.93,-146.8 2807.93,-146.8 2807.93,-142.6 2812.12,-138.4 2816.33,-138.4 2816.33,-138.4 2889.67,-138.4 2889.67,-138.4 2893.88,-138.4 2898.07,-142.6 2898.07,-146.8 2898.07,-146.8 2898.07,-155.2 2898.07,-155.2 2898.07,-159.4 2893.88,-163.6 2889.67,-163.6"/>
<text xml:space="preserve" text-anchor="middle" x="2853" y="-147.9" font-family="Helvetica,sans-Serif" font-size="8.00">CORE&#45;auto&#45;focus &#45; L</text>
</g>
<!-- cool_ideas_CORE_backlog_status_tool -->
<g id="node19" class="node">
<title>cool_ideas_CORE_backlog_status_tool</title>
<path fill="#d4e8f7" stroke="black" d="M3020.67,-163.6C3020.67,-163.6 2917.33,-163.6 2917.33,-163.6 2913.12,-163.6 2908.93,-159.4 2908.93,-155.2 2908.93,-155.2 2908.93,-146.8 2908.93,-146.8 2908.93,-142.6 2913.12,-138.4 2917.33,-138.4 2917.33,-138.4 3020.67,-138.4 3020.67,-138.4 3024.88,-138.4 3029.07,-142.6 3029.07,-146.8 3029.07,-146.8 3029.07,-155.2 3029.07,-155.2 3029.07,-159.4 3024.88,-163.6 3020.67,-163.6"/>
<text xml:space="preserve" text-anchor="middle" x="2969" y="-147.9" font-family="Helvetica,sans-Serif" font-size="8.00">CORE&#45;backlog&#45;status&#45;tool &#45; S</text>
</g>
<!-- cool_ideas_CORE_capture_range -->
<g id="node20" class="node">
<title>cool_ideas_CORE_capture_range</title>
<path fill="#d4e8f7" stroke="black" d="M3135.8,-163.6C3135.8,-163.6 3048.2,-163.6 3048.2,-163.6 3044,-163.6 3039.8,-159.4 3039.8,-155.2 3039.8,-155.2 3039.8,-146.8 3039.8,-146.8 3039.8,-142.6 3044,-138.4 3048.2,-138.4 3048.2,-138.4 3135.8,-138.4 3135.8,-138.4 3140,-138.4 3144.2,-142.6 3144.2,-146.8 3144.2,-146.8 3144.2,-155.2 3144.2,-155.2 3144.2,-159.4 3140,-163.6 3135.8,-163.6"/>
<text xml:space="preserve" text-anchor="middle" x="3092" y="-147.9" font-family="Helvetica,sans-Serif" font-size="8.00">CORE&#45;capture&#45;range &#45; S</text>
</g>
<!-- cool_ideas_CORE_constructor_in_disguise_lint -->
<g id="node21" class="node">
<title>cool_ideas_CORE_constructor_in_disguise_lint</title>
<path fill="#d4e8f7" stroke="black" d="M3294.55,-163.6C3294.55,-163.6 3163.45,-163.6 3163.45,-163.6 3159.25,-163.6 3155.05,-159.4 3155.05,-155.2 3155.05,-155.2 3155.05,-146.8 3155.05,-146.8 3155.05,-142.6 3159.25,-138.4 3163.45,-138.4 3163.45,-138.4 3294.55,-138.4 3294.55,-138.4 3298.75,-138.4 3302.95,-142.6 3302.95,-146.8 3302.95,-146.8 3302.95,-155.2 3302.95,-155.2 3302.95,-159.4 3298.75,-163.6 3294.55,-163.6"/>
<text xml:space="preserve" text-anchor="middle" x="3229" y="-147.9" font-family="Helvetica,sans-Serif" font-size="8.00">CORE&#45;constructor&#45;in&#45;disguise&#45;lint &#45; M</text>
</g>
<!-- cool_ideas_CORE_context_budget_forecasting -->
<g id="node22" class="node">
<title>cool_ideas_CORE_context_budget_forecasting</title>
<path fill="#d4e8f7" stroke="black" d="M3455.67,-163.6C3455.67,-163.6 3322.33,-163.6 3322.33,-163.6 3318.12,-163.6 3313.93,-159.4 3313.93,-155.2 3313.93,-155.2 3313.93,-146.8 3313.93,-146.8 3313.93,-142.6 3318.12,-138.4 3322.33,-138.4 3322.33,-138.4 3455.67,-138.4 3455.67,-138.4 3459.88,-138.4 3464.07,-142.6 3464.07,-146.8 3464.07,-146.8 3464.07,-155.2 3464.07,-155.2 3464.07,-159.4 3459.88,-163.6 3455.67,-163.6"/>
<text xml:space="preserve" text-anchor="middle" x="3389" y="-147.9" font-family="Helvetica,sans-Serif" font-size="8.00">CORE&#45;context&#45;budget&#45;forecasting &#45; M</text>
</g>
<!-- cool_ideas_CORE_conversation_primer -->
<g id="node23" class="node">
<title>cool_ideas_CORE_conversation_primer</title>
<path fill="#d4e8f7" stroke="black" d="M3592.67,-163.6C3592.67,-163.6 3483.33,-163.6 3483.33,-163.6 3479.12,-163.6 3474.93,-159.4 3474.93,-155.2 3474.93,-155.2 3474.93,-146.8 3474.93,-146.8 3474.93,-142.6 3479.12,-138.4 3483.33,-138.4 3483.33,-138.4 3592.67,-138.4 3592.67,-138.4 3596.88,-138.4 3601.07,-142.6 3601.07,-146.8 3601.07,-146.8 3601.07,-155.2 3601.07,-155.2 3601.07,-159.4 3596.88,-163.6 3592.67,-163.6"/>
<text xml:space="preserve" text-anchor="middle" x="3538" y="-147.9" font-family="Helvetica,sans-Serif" font-size="8.00">CORE&#45;conversation&#45;primer &#45; M</text>
</g>
<!-- cool_ideas_CORE_cross_session_resume -->
<g id="node24" class="node">
<title>cool_ideas_CORE_cross_session_resume</title>
<path fill="#d4e8f7" stroke="black" d="M3735.3,-163.6C3735.3,-163.6 3620.7,-163.6 3620.7,-163.6 3616.5,-163.6 3612.3,-159.4 3612.3,-155.2 3612.3,-155.2 3612.3,-146.8 3612.3,-146.8 3612.3,-142.6 3616.5,-138.4 3620.7,-138.4 3620.7,-138.4 3735.3,-138.4 3735.3,-138.4 3739.5,-138.4 3743.7,-142.6 3743.7,-146.8 3743.7,-146.8 3743.7,-155.2 3743.7,-155.2 3743.7,-159.4 3739.5,-163.6 3735.3,-163.6"/>
<text xml:space="preserve" text-anchor="middle" x="3678" y="-147.9" font-family="Helvetica,sans-Serif" font-size="8.00">CORE&#45;cross&#45;session&#45;resume &#45; S</text>
</g>
<!-- cool_ideas_CORE_graft_as_teacher -->
<g id="node25" class="node">
<title>cool_ideas_CORE_graft_as_teacher</title>
<path fill="#d4e8f7" stroke="black" d="M3857.17,-163.6C3857.17,-163.6 3762.83,-163.6 3762.83,-163.6 3758.62,-163.6 3754.43,-159.4 3754.43,-155.2 3754.43,-155.2 3754.43,-146.8 3754.43,-146.8 3754.43,-142.6 3758.62,-138.4 3762.83,-138.4 3762.83,-138.4 3857.17,-138.4 3857.17,-138.4 3861.38,-138.4 3865.57,-142.6 3865.57,-146.8 3865.57,-146.8 3865.57,-155.2 3865.57,-155.2 3865.57,-159.4 3861.38,-163.6 3857.17,-163.6"/>
<text xml:space="preserve" text-anchor="middle" x="3810" y="-147.9" font-family="Helvetica,sans-Serif" font-size="8.00">CORE&#45;graft&#45;as&#45;teacher &#45; S</text>
</g>
<!-- cool_ideas_CORE_graft_doctor -->
<g id="node26" class="node">
<title>cool_ideas_CORE_graft_doctor</title>
<path fill="#d4e8f7" stroke="black" d="M3965.05,-163.6C3965.05,-163.6 3884.95,-163.6 3884.95,-163.6 3880.75,-163.6 3876.55,-159.4 3876.55,-155.2 3876.55,-155.2 3876.55,-146.8 3876.55,-146.8 3876.55,-142.6 3880.75,-138.4 3884.95,-138.4 3884.95,-138.4 3965.05,-138.4 3965.05,-138.4 3969.25,-138.4 3973.45,-142.6 3973.45,-146.8 3973.45,-146.8 3973.45,-155.2 3973.45,-155.2 3973.45,-159.4 3969.25,-163.6 3965.05,-163.6"/>
<text xml:space="preserve" text-anchor="middle" x="3925" y="-147.9" font-family="Helvetica,sans-Serif" font-size="8.00">CORE&#45;graft&#45;doctor &#45; M</text>
</g>
<!-- cool_ideas_CORE_graft_teach_learning_receipts -->
<g id="node27" class="node">
<title>cool_ideas_CORE_graft_teach_learning_receipts</title>
<path fill="#d4e8f7" stroke="black" d="M4130.93,-163.6C4130.93,-163.6 3993.08,-163.6 3993.08,-163.6 3988.88,-163.6 3984.68,-159.4 3984.68,-155.2 3984.68,-155.2 3984.68,-146.8 3984.68,-146.8 3984.68,-142.6 3988.88,-138.4 3993.08,-138.4 3993.08,-138.4 4130.93,-138.4 4130.93,-138.4 4135.12,-138.4 4139.32,-142.6 4139.32,-146.8 4139.32,-146.8 4139.32,-155.2 4139.32,-155.2 4139.32,-159.4 4135.12,-163.6 4130.93,-163.6"/>
<text xml:space="preserve" text-anchor="middle" x="4062" y="-147.9" font-family="Helvetica,sans-Serif" font-size="8.00">CORE&#45;graft&#45;teach&#45;learning&#45;receipts &#45; S</text>
</g>
<!-- cool_ideas_CORE_horizon_of_readability -->
<g id="node28" class="node">
<title>cool_ideas_CORE_horizon_of_readability</title>
<path fill="#d4e8f7" stroke="black" d="M4271.55,-163.6C4271.55,-163.6 4158.45,-163.6 4158.45,-163.6 4154.25,-163.6 4150.05,-159.4 4150.05,-155.2 4150.05,-155.2 4150.05,-146.8 4150.05,-146.8 4150.05,-142.6 4154.25,-138.4 4158.45,-138.4 4158.45,-138.4 4271.55,-138.4 4271.55,-138.4 4275.75,-138.4 4279.95,-142.6 4279.95,-146.8 4279.95,-146.8 4279.95,-155.2 4279.95,-155.2 4279.95,-159.4 4275.75,-163.6 4271.55,-163.6"/>
<text xml:space="preserve" text-anchor="middle" x="4215" y="-147.9" font-family="Helvetica,sans-Serif" font-size="8.00">CORE&#45;horizon&#45;of&#45;readability &#45; M</text>
</g>
<!-- cool_ideas_CORE_lagrangian_policy -->
<g id="node29" class="node">
<title>cool_ideas_CORE_lagrangian_policy</title>
<path fill="#d4e8f7" stroke="black" d="M4400.55,-163.6C4400.55,-163.6 4299.45,-163.6 4299.45,-163.6 4295.25,-163.6 4291.05,-159.4 4291.05,-155.2 4291.05,-155.2 4291.05,-146.8 4291.05,-146.8 4291.05,-142.6 4295.25,-138.4 4299.45,-138.4 4299.45,-138.4 4400.55,-138.4 4400.55,-138.4 4404.75,-138.4 4408.95,-142.6 4408.95,-146.8 4408.95,-146.8 4408.95,-155.2 4408.95,-155.2 4408.95,-159.4 4404.75,-163.6 4400.55,-163.6"/>
<text xml:space="preserve" text-anchor="middle" x="4350" y="-147.9" font-family="Helvetica,sans-Serif" font-size="8.00">CORE&#45;lagrangian&#45;policy &#45; XL</text>
</g>
<!-- cool_ideas_CORE_multi_agent_conflict_detection -->
<g id="node30" class="node">
<title>cool_ideas_CORE_multi_agent_conflict_detection</title>
<path fill="#d4e8f7" stroke="black" d="M4565.93,-163.6C4565.93,-163.6 4428.07,-163.6 4428.07,-163.6 4423.88,-163.6 4419.68,-159.4 4419.68,-155.2 4419.68,-155.2 4419.68,-146.8 4419.68,-146.8 4419.68,-142.6 4423.88,-138.4 4428.07,-138.4 4428.07,-138.4 4565.93,-138.4 4565.93,-138.4 4570.12,-138.4 4574.32,-142.6 4574.32,-146.8 4574.32,-146.8 4574.32,-155.2 4574.32,-155.2 4574.32,-159.4 4570.12,-163.6 4565.93,-163.6"/>
<text xml:space="preserve" text-anchor="middle" x="4497" y="-147.9" font-family="Helvetica,sans-Serif" font-size="8.00">CORE&#45;multi&#45;agent&#45;conflict&#45;detection &#45; L</text>
</g>
<!-- cool_ideas_CORE_policy_playground -->
<g id="node31" class="node">
<title>cool_ideas_CORE_policy_playground</title>
<path fill="#d4e8f7" stroke="black" d="M4692.43,-163.6C4692.43,-163.6 4593.57,-163.6 4593.57,-163.6 4589.38,-163.6 4585.18,-159.4 4585.18,-155.2 4585.18,-155.2 4585.18,-146.8 4585.18,-146.8 4585.18,-142.6 4589.38,-138.4 4593.57,-138.4 4593.57,-138.4 4692.43,-138.4 4692.43,-138.4 4696.62,-138.4 4700.82,-142.6 4700.82,-146.8 4700.82,-146.8 4700.82,-155.2 4700.82,-155.2 4700.82,-159.4 4696.62,-163.6 4692.43,-163.6"/>
<text xml:space="preserve" text-anchor="middle" x="4643" y="-147.9" font-family="Helvetica,sans-Serif" font-size="8.00">CORE&#45;policy&#45;playground &#45; S</text>
</g>
<!-- cool_ideas_CORE_policy_profiles -->
<g id="node32" class="node">
<title>cool_ideas_CORE_policy_profiles</title>
<path fill="#d4e8f7" stroke="black" d="M4806.05,-163.6C4806.05,-163.6 4719.95,-163.6 4719.95,-163.6 4715.75,-163.6 4711.55,-159.4 4711.55,-155.2 4711.55,-155.2 4711.55,-146.8 4711.55,-146.8 4711.55,-142.6 4715.75,-138.4 4719.95,-138.4 4719.95,-138.4 4806.05,-138.4 4806.05,-138.4 4810.25,-138.4 4814.45,-142.6 4814.45,-146.8 4814.45,-146.8 4814.45,-155.2 4814.45,-155.2 4814.45,-159.4 4810.25,-163.6 4806.05,-163.6"/>
<text xml:space="preserve" text-anchor="middle" x="4763" y="-147.9" font-family="Helvetica,sans-Serif" font-size="8.00">CORE&#45;policy&#45;profiles &#45; M</text>
</g>
<!-- cool_ideas_CORE_pr_review_structural_summary -->
<g id="node33" class="node">
<title>cool_ideas_CORE_pr_review_structural_summary</title>
<path fill="#d4e8f7" stroke="black" d="M4977.93,-163.6C4977.93,-163.6 4834.07,-163.6 4834.07,-163.6 4829.88,-163.6 4825.68,-159.4 4825.68,-155.2 4825.68,-155.2 4825.68,-146.8 4825.68,-146.8 4825.68,-142.6 4829.88,-138.4 4834.07,-138.4 4834.07,-138.4 4977.93,-138.4 4977.93,-138.4 4982.12,-138.4 4986.32,-142.6 4986.32,-146.8 4986.32,-146.8 4986.32,-155.2 4986.32,-155.2 4986.32,-159.4 4982.12,-163.6 4977.93,-163.6"/>
<text xml:space="preserve" text-anchor="middle" x="4906" y="-147.9" font-family="Helvetica,sans-Serif" font-size="8.00">CORE&#45;pr&#45;review&#45;structural&#45;summary &#45; M</text>
</g>
<!-- cool_ideas_CORE_self_tuning_governor -->
<g id="node34" class="node">
<title>cool_ideas_CORE_self_tuning_governor</title>
<path fill="#d4e8f7" stroke="black" d="M5116.05,-163.6C5116.05,-163.6 5005.95,-163.6 5005.95,-163.6 5001.75,-163.6 4997.55,-159.4 4997.55,-155.2 4997.55,-155.2 4997.55,-146.8 4997.55,-146.8 4997.55,-142.6 5001.75,-138.4 5005.95,-138.4 5005.95,-138.4 5116.05,-138.4 5116.05,-138.4 5120.25,-138.4 5124.45,-142.6 5124.45,-146.8 5124.45,-146.8 5124.45,-155.2 5124.45,-155.2 5124.45,-159.4 5120.25,-163.6 5116.05,-163.6"/>
<text xml:space="preserve" text-anchor="middle" x="5061" y="-147.9" font-family="Helvetica,sans-Serif" font-size="8.00">CORE&#45;self&#45;tuning&#45;governor &#45; M</text>
</g>
<!-- cool_ideas_CORE_session_knowledge_map -->
<g id="node35" class="node">
<title>cool_ideas_CORE_session_knowledge_map</title>
<path fill="#d4e8f7" stroke="black" d="M5266.43,-163.6C5266.43,-163.6 5143.57,-163.6 5143.57,-163.6 5139.38,-163.6 5135.18,-159.4 5135.18,-155.2 5135.18,-155.2 5135.18,-146.8 5135.18,-146.8 5135.18,-142.6 5139.38,-138.4 5143.57,-138.4 5143.57,-138.4 5266.43,-138.4 5266.43,-138.4 5270.62,-138.4 5274.82,-142.6 5274.82,-146.8 5274.82,-146.8 5274.82,-155.2 5274.82,-155.2 5274.82,-159.4 5270.62,-163.6 5266.43,-163.6"/>
<text xml:space="preserve" text-anchor="middle" x="5205" y="-147.9" font-family="Helvetica,sans-Serif" font-size="8.00">CORE&#45;session&#45;knowledge&#45;map &#45; S</text>
</g>
<!-- cool_ideas_CORE_speculative_read_cost -->
<g id="node36" class="node">
<title>cool_ideas_CORE_speculative_read_cost</title>
<path fill="#d4e8f7" stroke="black" d="M5406.18,-163.6C5406.18,-163.6 5293.82,-163.6 5293.82,-163.6 5289.62,-163.6 5285.43,-159.4 5285.43,-155.2 5285.43,-155.2 5285.43,-146.8 5285.43,-146.8 5285.43,-142.6 5289.62,-138.4 5293.82,-138.4 5293.82,-138.4 5406.18,-138.4 5406.18,-138.4 5410.38,-138.4 5414.57,-142.6 5414.57,-146.8 5414.57,-146.8 5414.57,-155.2 5414.57,-155.2 5414.57,-159.4 5410.38,-163.6 5406.18,-163.6"/>
<text xml:space="preserve" text-anchor="middle" x="5350" y="-147.9" font-family="Helvetica,sans-Serif" font-size="8.00">CORE&#45;speculative&#45;read&#45;cost &#45; S</text>
</g>
<!-- cool_ideas_CORE_structural_session_replay -->
<g id="node37" class="node">
<title>cool_ideas_CORE_structural_session_replay</title>
<path fill="#d4e8f7" stroke="black" d="M5559.55,-163.6C5559.55,-163.6 5434.45,-163.6 5434.45,-163.6 5430.25,-163.6 5426.05,-159.4 5426.05,-155.2 5426.05,-155.2 5426.05,-146.8 5426.05,-146.8 5426.05,-142.6 5430.25,-138.4 5434.45,-138.4 5434.45,-138.4 5559.55,-138.4 5559.55,-138.4 5563.75,-138.4 5567.95,-142.6 5567.95,-146.8 5567.95,-146.8 5567.95,-155.2 5567.95,-155.2 5567.95,-159.4 5563.75,-163.6 5559.55,-163.6"/>
<text xml:space="preserve" text-anchor="middle" x="5497" y="-147.9" font-family="Helvetica,sans-Serif" font-size="8.00">CORE&#45;structural&#45;session&#45;replay &#45; M</text>
</g>
<!-- cool_ideas_CORE_structural_test_coverage_map -->
<g id="node38" class="node">
<title>cool_ideas_CORE_structural_test_coverage_map</title>
<path fill="#d4e8f7" stroke="black" d="M5728.8,-163.6C5728.8,-163.6 5587.2,-163.6 5587.2,-163.6 5583,-163.6 5578.8,-159.4 5578.8,-155.2 5578.8,-155.2 5578.8,-146.8 5578.8,-146.8 5578.8,-142.6 5583,-138.4 5587.2,-138.4 5587.2,-138.4 5728.8,-138.4 5728.8,-138.4 5733,-138.4 5737.2,-142.6 5737.2,-146.8 5737.2,-146.8 5737.2,-155.2 5737.2,-155.2 5737.2,-159.4 5733,-163.6 5728.8,-163.6"/>
<text xml:space="preserve" text-anchor="middle" x="5658" y="-147.9" font-family="Helvetica,sans-Serif" font-size="8.00">CORE&#45;structural&#45;test&#45;coverage&#45;map &#45; M</text>
</g>
<!-- cool_ideas_CORE_wire_primitives_into_runtime -->
<g id="node39" class="node">
<title>cool_ideas_CORE_wire_primitives_into_runtime</title>
<path fill="#d4e8f7" stroke="black" d="M5891.43,-163.6C5891.43,-163.6 5756.57,-163.6 5756.57,-163.6 5752.38,-163.6 5748.18,-159.4 5748.18,-155.2 5748.18,-155.2 5748.18,-146.8 5748.18,-146.8 5748.18,-142.6 5752.38,-138.4 5756.57,-138.4 5756.57,-138.4 5891.43,-138.4 5891.43,-138.4 5895.62,-138.4 5899.82,-142.6 5899.82,-146.8 5899.82,-146.8 5899.82,-155.2 5899.82,-155.2 5899.82,-159.4 5895.62,-163.6 5891.43,-163.6"/>
<text xml:space="preserve" text-anchor="middle" x="5824" y="-147.9" font-family="Helvetica,sans-Serif" font-size="8.00">CORE&#45;wire&#45;primitives&#45;into&#45;runtime &#45; M</text>
</g>
<!-- cool_ideas_SURFACE_active_causal_workspace_status -->
<g id="node40" class="node">
<title>cool_ideas_SURFACE_active_causal_workspace_status</title>
<path fill="#d4e8f7" stroke="black" d="M6083.05,-163.6C6083.05,-163.6 5918.95,-163.6 5918.95,-163.6 5914.75,-163.6 5910.55,-159.4 5910.55,-155.2 5910.55,-155.2 5910.55,-146.8 5910.55,-146.8 5910.55,-142.6 5914.75,-138.4 5918.95,-138.4 5918.95,-138.4 6083.05,-138.4 6083.05,-138.4 6087.25,-138.4 6091.45,-142.6 6091.45,-146.8 6091.45,-146.8 6091.45,-155.2 6091.45,-155.2 6091.45,-159.4 6087.25,-163.6 6083.05,-163.6"/>
<text xml:space="preserve" text-anchor="middle" x="6001" y="-147.9" font-family="Helvetica,sans-Serif" font-size="8.00">SURFACE&#45;active&#45;causal&#45;workspace&#45;status &#45; M</text>
</g>
<!-- cool_ideas_SURFACE_attach_to_existing_causal_session -->
<g id="node41" class="node">
<title>cool_ideas_SURFACE_attach_to_existing_causal_session</title>
<path fill="#d4e8f7" stroke="black" d="M6279.3,-163.6C6279.3,-163.6 6110.7,-163.6 6110.7,-163.6 6106.5,-163.6 6102.3,-159.4 6102.3,-155.2 6102.3,-155.2 6102.3,-146.8 6102.3,-146.8 6102.3,-142.6 6106.5,-138.4 6110.7,-138.4 6110.7,-138.4 6279.3,-138.4 6279.3,-138.4 6283.5,-138.4 6287.7,-142.6 6287.7,-146.8 6287.7,-146.8 6287.7,-155.2 6287.7,-155.2 6287.7,-159.4 6283.5,-163.6 6279.3,-163.6"/>
<text xml:space="preserve" text-anchor="middle" x="6195" y="-147.9" font-family="Helvetica,sans-Serif" font-size="8.00">SURFACE&#45;attach&#45;to&#45;existing&#45;causal&#45;session &#45; M</text>
</g>
<!-- cool_ideas_SURFACE_ide_native_graft_integration -->
<g id="node42" class="node">
<title>cool_ideas_SURFACE_ide_native_graft_integration</title>
<path fill="#d4e8f7" stroke="black" d="M6457.3,-163.6C6457.3,-163.6 6306.7,-163.6 6306.7,-163.6 6302.5,-163.6 6298.3,-159.4 6298.3,-155.2 6298.3,-155.2 6298.3,-146.8 6298.3,-146.8 6298.3,-142.6 6302.5,-138.4 6306.7,-138.4 6306.7,-138.4 6457.3,-138.4 6457.3,-138.4 6461.5,-138.4 6465.7,-142.6 6465.7,-146.8 6465.7,-146.8 6465.7,-155.2 6465.7,-155.2 6465.7,-159.4 6461.5,-163.6 6457.3,-163.6"/>
<text xml:space="preserve" text-anchor="middle" x="6382" y="-147.9" font-family="Helvetica,sans-Serif" font-size="8.00">SURFACE&#45;ide&#45;native&#45;graft&#45;integration &#45; XL</text>
</g>
<!-- cool_ideas_SURFACE_local_history_dag_render_mode_and_count_legend -->
<g id="node43" class="node">
<title>cool_ideas_SURFACE_local_history_dag_render_mode_and_count_legend</title>
<path fill="#d4e8f7" stroke="black" d="M6711.18,-163.6C6711.18,-163.6 6484.82,-163.6 6484.82,-163.6 6480.62,-163.6 6476.43,-159.4 6476.43,-155.2 6476.43,-155.2 6476.43,-146.8 6476.43,-146.8 6476.43,-142.6 6480.62,-138.4 6484.82,-138.4 6484.82,-138.4 6711.18,-138.4 6711.18,-138.4 6715.38,-138.4 6719.57,-142.6 6719.57,-146.8 6719.57,-146.8 6719.57,-155.2 6719.57,-155.2 6719.57,-159.4 6715.38,-163.6 6711.18,-163.6"/>
<text xml:space="preserve" text-anchor="middle" x="6598" y="-147.9" font-family="Helvetica,sans-Serif" font-size="8.00">SURFACE&#45;local&#45;history&#45;dag&#45;render&#45;mode&#45;and&#45;count&#45;legend &#45; S</text>
</g>
<!-- cool_ideas_SURFACE_non_codex_instruction_bootstrap_parity -->
<g id="node44" class="node">
<title>cool_ideas_SURFACE_non_codex_instruction_bootstrap_parity</title>
<path fill="#d4e8f7" stroke="black" d="M6927.43,-163.6C6927.43,-163.6 6738.57,-163.6 6738.57,-163.6 6734.38,-163.6 6730.18,-159.4 6730.18,-155.2 6730.18,-155.2 6730.18,-146.8 6730.18,-146.8 6730.18,-142.6 6734.38,-138.4 6738.57,-138.4 6738.57,-138.4 6927.43,-138.4 6927.43,-138.4 6931.62,-138.4 6935.82,-142.6 6935.82,-146.8 6935.82,-146.8 6935.82,-155.2 6935.82,-155.2 6935.82,-159.4 6931.62,-163.6 6927.43,-163.6"/>
<text xml:space="preserve" text-anchor="middle" x="6833" y="-147.9" font-family="Helvetica,sans-Serif" font-size="8.00">SURFACE&#45;non&#45;codex&#45;instruction&#45;bootstrap&#45;parity &#45; M</text>
</g>
<!-- cool_ideas_SURFACE_offer_rename_refactor -->
<g id="node45" class="node">
<title>cool_ideas_SURFACE_offer_rename_refactor</title>
<path fill="#d4e8f7" stroke="black" d="M7084.43,-163.6C7084.43,-163.6 6955.57,-163.6 6955.57,-163.6 6951.38,-163.6 6947.18,-159.4 6947.18,-155.2 6947.18,-155.2 6947.18,-146.8 6947.18,-146.8 6947.18,-142.6 6951.38,-138.4 6955.57,-138.4 6955.57,-138.4 7084.43,-138.4 7084.43,-138.4 7088.62,-138.4 7092.82,-142.6 7092.82,-146.8 7092.82,-146.8 7092.82,-155.2 7092.82,-155.2 7092.82,-159.4 7088.62,-163.6 7084.43,-163.6"/>
<text xml:space="preserve" text-anchor="middle" x="7020" y="-147.9" font-family="Helvetica,sans-Serif" font-size="8.00">SURFACE&#45;offer&#45;rename&#45;refactor &#45; L</text>
</g>
<!-- cool_ideas_SURFACE_terminal_activity_browser_tui -->
<g id="node46" class="node">
<title>cool_ideas_SURFACE_terminal_activity_browser_tui</title>
<path fill="#d4e8f7" stroke="black" d="M7261.55,-163.6C7261.55,-163.6 7112.45,-163.6 7112.45,-163.6 7108.25,-163.6 7104.05,-159.4 7104.05,-155.2 7104.05,-155.2 7104.05,-146.8 7104.05,-146.8 7104.05,-142.6 7108.25,-138.4 7112.45,-138.4 7112.45,-138.4 7261.55,-138.4 7261.55,-138.4 7265.75,-138.4 7269.95,-142.6 7269.95,-146.8 7269.95,-146.8 7269.95,-155.2 7269.95,-155.2 7269.95,-159.4 7265.75,-163.6 7261.55,-163.6"/>
<text xml:space="preserve" text-anchor="middle" x="7187" y="-147.9" font-family="Helvetica,sans-Serif" font-size="8.00">SURFACE&#45;terminal&#45;activity&#45;browser&#45;tui &#45; L</text>
</g>
<!-- cool_ideas_WARP_adaptive_projection_selection -->
<g id="node47" class="node">
<title>cool_ideas_WARP_adaptive_projection_selection</title>
<path fill="#d4e8f7" stroke="black" d="M7426.93,-163.6C7426.93,-163.6 7289.07,-163.6 7289.07,-163.6 7284.88,-163.6 7280.68,-159.4 7280.68,-155.2 7280.68,-155.2 7280.68,-146.8 7280.68,-146.8 7280.68,-142.6 7284.88,-138.4 7289.07,-138.4 7289.07,-138.4 7426.93,-138.4 7426.93,-138.4 7431.12,-138.4 7435.32,-142.6 7435.32,-146.8 7435.32,-146.8 7435.32,-155.2 7435.32,-155.2 7435.32,-159.4 7431.12,-163.6 7426.93,-163.6"/>
<text xml:space="preserve" text-anchor="middle" x="7358" y="-147.9" font-family="Helvetica,sans-Serif" font-size="8.00">WARP&#45;adaptive&#45;projection&#45;selection &#45; L</text>
</g>
<!-- cool_ideas_WARP_agent_action_provenance -->
<g id="node48" class="node">
<title>cool_ideas_WARP_agent_action_provenance</title>
<path fill="#d4e8f7" stroke="black" d="M7585.55,-163.6C7585.55,-163.6 7454.45,-163.6 7454.45,-163.6 7450.25,-163.6 7446.05,-159.4 7446.05,-155.2 7446.05,-155.2 7446.05,-146.8 7446.05,-146.8 7446.05,-142.6 7450.25,-138.4 7454.45,-138.4 7454.45,-138.4 7585.55,-138.4 7585.55,-138.4 7589.75,-138.4 7593.95,-142.6 7593.95,-146.8 7593.95,-146.8 7593.95,-155.2 7593.95,-155.2 7593.95,-159.4 7589.75,-163.6 7585.55,-163.6"/>
<text xml:space="preserve" text-anchor="middle" x="7520" y="-147.9" font-family="Helvetica,sans-Serif" font-size="8.00">WARP&#45;agent&#45;action&#45;provenance &#45; XL</text>
</g>
<!-- cool_ideas_WARP_auto_breaking_change_detection -->
<g id="node49" class="node">
<title>cool_ideas_WARP_auto_breaking_change_detection</title>
<path fill="#d4e8f7" stroke="black" d="M7764.3,-163.6C7764.3,-163.6 7613.7,-163.6 7613.7,-163.6 7609.5,-163.6 7605.3,-159.4 7605.3,-155.2 7605.3,-155.2 7605.3,-146.8 7605.3,-146.8 7605.3,-142.6 7609.5,-138.4 7613.7,-138.4 7613.7,-138.4 7764.3,-138.4 7764.3,-138.4 7768.5,-138.4 7772.7,-142.6 7772.7,-146.8 7772.7,-146.8 7772.7,-155.2 7772.7,-155.2 7772.7,-159.4 7768.5,-163.6 7764.3,-163.6"/>
<text xml:space="preserve" text-anchor="middle" x="7689" y="-147.9" font-family="Helvetica,sans-Serif" font-size="8.00">WARP&#45;auto&#45;breaking&#45;change&#45;detection &#45; L</text>
</g>
<!-- cool_ideas_WARP_background_indexing -->
<g id="node50" class="node">
<title>cool_ideas_WARP_background_indexing</title>
<path fill="#d4e8f7" stroke="black" d="M7905.55,-163.6C7905.55,-163.6 7792.45,-163.6 7792.45,-163.6 7788.25,-163.6 7784.05,-159.4 7784.05,-155.2 7784.05,-155.2 7784.05,-146.8 7784.05,-146.8 7784.05,-142.6 7788.25,-138.4 7792.45,-138.4 7792.45,-138.4 7905.55,-138.4 7905.55,-138.4 7909.75,-138.4 7913.95,-142.6 7913.95,-146.8 7913.95,-146.8 7913.95,-155.2 7913.95,-155.2 7913.95,-159.4 7909.75,-163.6 7905.55,-163.6"/>
<text xml:space="preserve" text-anchor="middle" x="7849" y="-147.9" font-family="Helvetica,sans-Serif" font-size="8.00">WARP&#45;background&#45;indexing &#45; M</text>
</g>
<!-- cool_ideas_WARP_budget_elasticity -->
<g id="node51" class="node">
<title>cool_ideas_WARP_budget_elasticity</title>
<path fill="#d4e8f7" stroke="black" d="M8028.93,-163.6C8028.93,-163.6 7933.07,-163.6 7933.07,-163.6 7928.88,-163.6 7924.68,-159.4 7924.68,-155.2 7924.68,-155.2 7924.68,-146.8 7924.68,-146.8 7924.68,-142.6 7928.88,-138.4 7933.07,-138.4 7933.07,-138.4 8028.93,-138.4 8028.93,-138.4 8033.12,-138.4 8037.32,-142.6 8037.32,-146.8 8037.32,-146.8 8037.32,-155.2 8037.32,-155.2 8037.32,-159.4 8033.12,-163.6 8028.93,-163.6"/>
<text xml:space="preserve" text-anchor="middle" x="7981" y="-147.9" font-family="Helvetica,sans-Serif" font-size="8.00">WARP&#45;budget&#45;elasticity &#45; M</text>
</g>
<!-- cool_ideas_WARP_causal_blame_for_staged_artifacts -->
<g id="node52" class="node">
<title>cool_ideas_WARP_causal_blame_for_staged_artifacts</title>
<path fill="#d4e8f7" stroke="black" d="M8211.18,-163.6C8211.18,-163.6 8056.82,-163.6 8056.82,-163.6 8052.62,-163.6 8048.43,-159.4 8048.43,-155.2 8048.43,-155.2 8048.43,-146.8 8048.43,-146.8 8048.43,-142.6 8052.62,-138.4 8056.82,-138.4 8056.82,-138.4 8211.18,-138.4 8211.18,-138.4 8215.38,-138.4 8219.58,-142.6 8219.58,-146.8 8219.58,-146.8 8219.58,-155.2 8219.58,-155.2 8219.58,-159.4 8215.38,-163.6 8211.18,-163.6"/>
<text xml:space="preserve" text-anchor="middle" x="8134" y="-147.9" font-family="Helvetica,sans-Serif" font-size="8.00">WARP&#45;causal&#45;blame&#45;for&#45;staged&#45;artifacts &#45; L</text>
</g>
<!-- cool_ideas_WARP_causal_write_tracking -->
<g id="node53" class="node">
<title>cool_ideas_WARP_causal_write_tracking</title>
<path fill="#d4e8f7" stroke="black" d="M8349.05,-163.6C8349.05,-163.6 8238.95,-163.6 8238.95,-163.6 8234.75,-163.6 8230.55,-159.4 8230.55,-155.2 8230.55,-155.2 8230.55,-146.8 8230.55,-146.8 8230.55,-142.6 8234.75,-138.4 8238.95,-138.4 8238.95,-138.4 8349.05,-138.4 8349.05,-138.4 8353.25,-138.4 8357.45,-142.6 8357.45,-146.8 8357.45,-146.8 8357.45,-155.2 8357.45,-155.2 8357.45,-159.4 8353.25,-163.6 8349.05,-163.6"/>
<text xml:space="preserve" text-anchor="middle" x="8294" y="-147.9" font-family="Helvetica,sans-Serif" font-size="8.00">WARP&#45;causal&#45;write&#45;tracking &#45; L</text>
</g>
<!-- cool_ideas_WARP_codebase_entropy_trajectory -->
<g id="node54" class="node">
<title>cool_ideas_WARP_codebase_entropy_trajectory</title>
<path fill="#d4e8f7" stroke="black" d="M8516.68,-163.6C8516.68,-163.6 8377.32,-163.6 8377.32,-163.6 8373.12,-163.6 8368.92,-159.4 8368.92,-155.2 8368.92,-155.2 8368.92,-146.8 8368.92,-146.8 8368.92,-142.6 8373.12,-138.4 8377.32,-138.4 8377.32,-138.4 8516.68,-138.4 8516.68,-138.4 8520.88,-138.4 8525.08,-142.6 8525.08,-146.8 8525.08,-146.8 8525.08,-155.2 8525.08,-155.2 8525.08,-159.4 8520.88,-163.6 8516.68,-163.6"/>
<text xml:space="preserve" text-anchor="middle" x="8447" y="-147.9" font-family="Helvetica,sans-Serif" font-size="8.00">WARP&#45;codebase&#45;entropy&#45;trajectory &#45; M</text>
</g>
<!-- cool_ideas_WARP_codebase_signature -->
<g id="node55" class="node">
<title>cool_ideas_WARP_codebase_signature</title>
<path fill="#d4e8f7" stroke="black" d="M8651.55,-163.6C8651.55,-163.6 8544.45,-163.6 8544.45,-163.6 8540.25,-163.6 8536.05,-159.4 8536.05,-155.2 8536.05,-155.2 8536.05,-146.8 8536.05,-146.8 8536.05,-142.6 8540.25,-138.4 8544.45,-138.4 8544.45,-138.4 8651.55,-138.4 8651.55,-138.4 8655.75,-138.4 8659.95,-142.6 8659.95,-146.8 8659.95,-146.8 8659.95,-155.2 8659.95,-155.2 8659.95,-159.4 8655.75,-163.6 8651.55,-163.6"/>
<text xml:space="preserve" text-anchor="middle" x="8598" y="-147.9" font-family="Helvetica,sans-Serif" font-size="8.00">WARP&#45;codebase&#45;signature &#45; L</text>
</g>
<!-- cool_ideas_WARP_counterfactual_refactoring -->
<g id="node56" class="node">
<title>cool_ideas_WARP_counterfactual_refactoring</title>
<path fill="#d4e8f7" stroke="black" d="M8812.68,-163.6C8812.68,-163.6 8679.32,-163.6 8679.32,-163.6 8675.12,-163.6 8670.92,-159.4 8670.92,-155.2 8670.92,-155.2 8670.92,-146.8 8670.92,-146.8 8670.92,-142.6 8675.12,-138.4 8679.32,-138.4 8679.32,-138.4 8812.68,-138.4 8812.68,-138.4 8816.88,-138.4 8821.08,-142.6 8821.08,-146.8 8821.08,-146.8 8821.08,-155.2 8821.08,-155.2 8821.08,-159.4 8816.88,-163.6 8812.68,-163.6"/>
<text xml:space="preserve" text-anchor="middle" x="8746" y="-147.9" font-family="Helvetica,sans-Serif" font-size="8.00">WARP&#45;counterfactual&#45;refactoring &#45; XL</text>
</g>
<!-- cool_ideas_WARP_dead_symbol_detection -->
<g id="node57" class="node">
<title>cool_ideas_WARP_dead_symbol_detection</title>
<path fill="#d4e8f7" stroke="black" d="M8959.18,-163.6C8959.18,-163.6 8840.82,-163.6 8840.82,-163.6 8836.62,-163.6 8832.42,-159.4 8832.42,-155.2 8832.42,-155.2 8832.42,-146.8 8832.42,-146.8 8832.42,-142.6 8836.62,-138.4 8840.82,-138.4 8840.82,-138.4 8959.18,-138.4 8959.18,-138.4 8963.38,-138.4 8967.58,-142.6 8967.58,-146.8 8967.58,-146.8 8967.58,-155.2 8967.58,-155.2 8967.58,-159.4 8963.38,-163.6 8959.18,-163.6"/>
<text xml:space="preserve" text-anchor="middle" x="8900" y="-147.9" font-family="Helvetica,sans-Serif" font-size="8.00">WARP&#45;dead&#45;symbol&#45;detection &#45; S</text>
</g>
<!-- cool_ideas_WARP_degeneracy_warning -->
<g id="node58" class="node">
<title>cool_ideas_WARP_degeneracy_warning</title>
<path fill="#d4e8f7" stroke="black" d="M9099.18,-163.6C9099.18,-163.6 8986.82,-163.6 8986.82,-163.6 8982.62,-163.6 8978.42,-159.4 8978.42,-155.2 8978.42,-155.2 8978.42,-146.8 8978.42,-146.8 8978.42,-142.6 8982.62,-138.4 8986.82,-138.4 8986.82,-138.4 9099.18,-138.4 9099.18,-138.4 9103.38,-138.4 9107.58,-142.6 9107.58,-146.8 9107.58,-146.8 9107.58,-155.2 9107.58,-155.2 9107.58,-159.4 9103.38,-163.6 9099.18,-163.6"/>
<text xml:space="preserve" text-anchor="middle" x="9043" y="-147.9" font-family="Helvetica,sans-Serif" font-size="8.00">WARP&#45;degeneracy&#45;warning &#45; M</text>
</g>
<!-- cool_ideas_WARP_drift_sentinel -->
<g id="node59" class="node">
<title>cool_ideas_WARP_drift_sentinel</title>
<path fill="#d4e8f7" stroke="black" d="M9209.18,-163.6C9209.18,-163.6 9126.82,-163.6 9126.82,-163.6 9122.62,-163.6 9118.42,-159.4 9118.42,-155.2 9118.42,-155.2 9118.42,-146.8 9118.42,-146.8 9118.42,-142.6 9122.62,-138.4 9126.82,-138.4 9126.82,-138.4 9209.18,-138.4 9209.18,-138.4 9213.38,-138.4 9217.58,-142.6 9217.58,-146.8 9217.58,-146.8 9217.58,-155.2 9217.58,-155.2 9217.58,-159.4 9213.38,-163.6 9209.18,-163.6"/>
<text xml:space="preserve" text-anchor="middle" x="9168" y="-147.9" font-family="Helvetica,sans-Serif" font-size="8.00">WARP&#45;drift&#45;sentinel &#45; M</text>
</g>
<!-- cool_ideas_WARP_footprint_parallelism -->
<g id="node60" class="node">
<title>cool_ideas_WARP_footprint_parallelism</title>
<path fill="#d4e8f7" stroke="black" d="M9348.8,-163.6C9348.8,-163.6 9237.2,-163.6 9237.2,-163.6 9233,-163.6 9228.8,-159.4 9228.8,-155.2 9228.8,-155.2 9228.8,-146.8 9228.8,-146.8 9228.8,-142.6 9233,-138.4 9237.2,-138.4 9237.2,-138.4 9348.8,-138.4 9348.8,-138.4 9353,-138.4 9357.2,-142.6 9357.2,-146.8 9357.2,-146.8 9357.2,-155.2 9357.2,-155.2 9357.2,-159.4 9353,-163.6 9348.8,-163.6"/>
<text xml:space="preserve" text-anchor="middle" x="9293" y="-147.9" font-family="Helvetica,sans-Serif" font-size="8.00">WARP&#45;footprint&#45;parallelism &#45; XL</text>
</g>
<!-- cool_ideas_WARP_graft_pack -->
<g id="node61" class="node">
<title>cool_ideas_WARP_graft_pack</title>
<path fill="#d4e8f7" stroke="black" d="M9451.43,-163.6C9451.43,-163.6 9376.57,-163.6 9376.57,-163.6 9372.38,-163.6 9368.17,-159.4 9368.17,-155.2 9368.17,-155.2 9368.17,-146.8 9368.17,-146.8 9368.17,-142.6 9372.38,-138.4 9376.57,-138.4 9376.57,-138.4 9451.43,-138.4 9451.43,-138.4 9455.62,-138.4 9459.83,-142.6 9459.83,-146.8 9459.83,-146.8 9459.83,-155.2 9459.83,-155.2 9459.83,-159.4 9455.62,-163.6 9451.43,-163.6"/>
<text xml:space="preserve" text-anchor="middle" x="9414" y="-147.9" font-family="Helvetica,sans-Serif" font-size="8.00">WARP&#45;graft&#45;pack &#45; M</text>
</g>
<!-- cool_ideas_WARP_grouped_aggregate_queries -->
<g id="node62" class="node">
<title>cool_ideas_WARP_grouped_aggregate_queries</title>
<path fill="#d4e8f7" stroke="black" d="M9616.93,-163.6C9616.93,-163.6 9479.07,-163.6 9479.07,-163.6 9474.88,-163.6 9470.67,-159.4 9470.67,-155.2 9470.67,-155.2 9470.67,-146.8 9470.67,-146.8 9470.67,-142.6 9474.88,-138.4 9479.07,-138.4 9479.07,-138.4 9616.93,-138.4 9616.93,-138.4 9621.12,-138.4 9625.33,-142.6 9625.33,-146.8 9625.33,-146.8 9625.33,-155.2 9625.33,-155.2 9625.33,-159.4 9621.12,-163.6 9616.93,-163.6"/>
<text xml:space="preserve" text-anchor="middle" x="9548" y="-147.9" font-family="Helvetica,sans-Serif" font-size="8.00">WARP&#45;grouped&#45;aggregate&#45;queries &#45; M</text>
</g>
<!-- cool_ideas_WARP_intent_and_decision_events -->
<g id="node63" class="node">
<title>cool_ideas_WARP_intent_and_decision_events</title>
<path fill="#d4e8f7" stroke="black" d="M9777.3,-163.6C9777.3,-163.6 9644.7,-163.6 9644.7,-163.6 9640.5,-163.6 9636.3,-159.4 9636.3,-155.2 9636.3,-155.2 9636.3,-146.8 9636.3,-146.8 9636.3,-142.6 9640.5,-138.4 9644.7,-138.4 9644.7,-138.4 9777.3,-138.4 9777.3,-138.4 9781.5,-138.4 9785.7,-142.6 9785.7,-146.8 9785.7,-146.8 9785.7,-155.2 9785.7,-155.2 9785.7,-159.4 9781.5,-163.6 9777.3,-163.6"/>
<text xml:space="preserve" text-anchor="middle" x="9711" y="-147.9" font-family="Helvetica,sans-Serif" font-size="8.00">WARP&#45;intent&#45;and&#45;decision&#45;events &#45; M</text>
</g>
<!-- cool_ideas_WARP_intentional_degeneracy_privacy -->
<g id="node64" class="node">
<title>cool_ideas_WARP_intentional_degeneracy_privacy</title>
<path fill="#d4e8f7" stroke="black" d="M9952.8,-163.6C9952.8,-163.6 9805.2,-163.6 9805.2,-163.6 9801,-163.6 9796.8,-159.4 9796.8,-155.2 9796.8,-155.2 9796.8,-146.8 9796.8,-146.8 9796.8,-142.6 9801,-138.4 9805.2,-138.4 9805.2,-138.4 9952.8,-138.4 9952.8,-138.4 9957,-138.4 9961.2,-142.6 9961.2,-146.8 9961.2,-146.8 9961.2,-155.2 9961.2,-155.2 9961.2,-159.4 9957,-163.6 9952.8,-163.6"/>
<text xml:space="preserve" text-anchor="middle" x="9879" y="-147.9" font-family="Helvetica,sans-Serif" font-size="8.00">WARP&#45;intentional&#45;degeneracy&#45;privacy &#45; M</text>
</g>
<!-- cool_ideas_WARP_minimum_viable_context -->
<g id="node65" class="node">
<title>cool_ideas_WARP_minimum_viable_context</title>
<path fill="#d4e8f7" stroke="black" d="M10103.43,-163.6C10103.43,-163.6 9980.57,-163.6 9980.57,-163.6 9976.38,-163.6 9972.17,-159.4 9972.17,-155.2 9972.17,-155.2 9972.17,-146.8 9972.17,-146.8 9972.17,-142.6 9976.38,-138.4 9980.57,-138.4 9980.57,-138.4 10103.43,-138.4 10103.43,-138.4 10107.62,-138.4 10111.83,-142.6 10111.83,-146.8 10111.83,-146.8 10111.83,-155.2 10111.83,-155.2 10111.83,-159.4 10107.62,-163.6 10103.43,-163.6"/>
<text xml:space="preserve" text-anchor="middle" x="10042" y="-147.9" font-family="Helvetica,sans-Serif" font-size="8.00">WARP&#45;minimum&#45;viable&#45;context &#45; M</text>
</g>
<!-- cool_ideas_WARP_outline_diff_commit_trailer -->
<g id="node66" class="node">
<title>cool_ideas_WARP_outline_diff_commit_trailer</title>
<path fill="#d4e8f7" stroke="black" d="M10256.93,-163.6C10256.93,-163.6 10131.07,-163.6 10131.07,-163.6 10126.88,-163.6 10122.67,-159.4 10122.67,-155.2 10122.67,-155.2 10122.67,-146.8 10122.67,-146.8 10122.67,-142.6 10126.88,-138.4 10131.07,-138.4 10131.07,-138.4 10256.93,-138.4 10256.93,-138.4 10261.12,-138.4 10265.33,-142.6 10265.33,-146.8 10265.33,-146.8 10265.33,-155.2 10265.33,-155.2 10265.33,-159.4 10261.12,-163.6 10256.93,-163.6"/>
<text xml:space="preserve" text-anchor="middle" x="10194" y="-147.9" font-family="Helvetica,sans-Serif" font-size="8.00">WARP&#45;outline&#45;diff&#45;commit&#45;trailer &#45; S</text>
</g>
<!-- cool_ideas_WARP_projection_safety_classes -->
<g id="node67" class="node">
<title>cool_ideas_WARP_projection_safety_classes</title>
<path fill="#d4e8f7" stroke="black" d="M10410.93,-163.6C10410.93,-163.6 10285.07,-163.6 10285.07,-163.6 10280.88,-163.6 10276.67,-159.4 10276.67,-155.2 10276.67,-155.2 10276.67,-146.8 10276.67,-146.8 10276.67,-142.6 10280.88,-138.4 10285.07,-138.4 10285.07,-138.4 10410.93,-138.4 10410.93,-138.4 10415.12,-138.4 10419.33,-142.6 10419.33,-146.8 10419.33,-146.8 10419.33,-155.2 10419.33,-155.2 10419.33,-159.4 10415.12,-163.6 10410.93,-163.6"/>
<text xml:space="preserve" text-anchor="middle" x="10348" y="-147.9" font-family="Helvetica,sans-Serif" font-size="8.00">WARP&#45;projection&#45;safety&#45;classes &#45; M</text>
</g>
<!-- cool_ideas_WARP_provenance_dag -->
<g id="node68" class="node">
<title>cool_ideas_WARP_provenance_dag</title>
<path fill="#d4e8f7" stroke="black" d="M10533.55,-163.6C10533.55,-163.6 10438.45,-163.6 10438.45,-163.6 10434.25,-163.6 10430.05,-159.4 10430.05,-155.2 10430.05,-155.2 10430.05,-146.8 10430.05,-146.8 10430.05,-142.6 10434.25,-138.4 10438.45,-138.4 10438.45,-138.4 10533.55,-138.4 10533.55,-138.4 10537.75,-138.4 10541.95,-142.6 10541.95,-146.8 10541.95,-146.8 10541.95,-155.2 10541.95,-155.2 10541.95,-159.4 10537.75,-163.6 10533.55,-163.6"/>
<text xml:space="preserve" text-anchor="middle" x="10486" y="-147.9" font-family="Helvetica,sans-Serif" font-size="8.00">WARP&#45;provenance&#45;dag &#45; L</text>
</g>
<!-- cool_ideas_WARP_reasoning_trace_replay -->
<g id="node69" class="node">
<title>cool_ideas_WARP_reasoning_trace_replay</title>
<path fill="#d4e8f7" stroke="black" d="M10680.93,-163.6C10680.93,-163.6 10561.07,-163.6 10561.07,-163.6 10556.88,-163.6 10552.67,-159.4 10552.67,-155.2 10552.67,-155.2 10552.67,-146.8 10552.67,-146.8 10552.67,-142.6 10556.88,-138.4 10561.07,-138.4 10561.07,-138.4 10680.93,-138.4 10680.93,-138.4 10685.12,-138.4 10689.33,-142.6 10689.33,-146.8 10689.33,-146.8 10689.33,-155.2 10689.33,-155.2 10689.33,-159.4 10685.12,-163.6 10680.93,-163.6"/>
<text xml:space="preserve" text-anchor="middle" x="10621" y="-147.9" font-family="Helvetica,sans-Serif" font-size="8.00">WARP&#45;reasoning&#45;trace&#45;replay &#45; M</text>
</g>
<!-- cool_ideas_WARP_rulial_heat_map -->
<g id="node70" class="node">
<title>cool_ideas_WARP_rulial_heat_map</title>
<path fill="#d4e8f7" stroke="black" d="M10799.3,-163.6C10799.3,-163.6 10708.7,-163.6 10708.7,-163.6 10704.5,-163.6 10700.3,-159.4 10700.3,-155.2 10700.3,-155.2 10700.3,-146.8 10700.3,-146.8 10700.3,-142.6 10704.5,-138.4 10708.7,-138.4 10708.7,-138.4 10799.3,-138.4 10799.3,-138.4 10803.5,-138.4 10807.7,-142.6 10807.7,-146.8 10807.7,-146.8 10807.7,-155.2 10807.7,-155.2 10807.7,-159.4 10803.5,-163.6 10799.3,-163.6"/>
<text xml:space="preserve" text-anchor="middle" x="10754" y="-147.9" font-family="Helvetica,sans-Serif" font-size="8.00">WARP&#45;rulial&#45;heat&#45;map &#45; L</text>
</g>
<!-- cool_ideas_WARP_semantic_drift_in_sessions -->
<g id="node71" class="node">
<title>cool_ideas_WARP_semantic_drift_in_sessions</title>
<path fill="#d4e8f7" stroke="black" d="M10956.43,-163.6C10956.43,-163.6 10827.57,-163.6 10827.57,-163.6 10823.38,-163.6 10819.17,-159.4 10819.17,-155.2 10819.17,-155.2 10819.17,-146.8 10819.17,-146.8 10819.17,-142.6 10823.38,-138.4 10827.57,-138.4 10827.57,-138.4 10956.43,-138.4 10956.43,-138.4 10960.62,-138.4 10964.83,-142.6 10964.83,-146.8 10964.83,-146.8 10964.83,-155.2 10964.83,-155.2 10964.83,-159.4 10960.62,-163.6 10956.43,-163.6"/>
<text xml:space="preserve" text-anchor="middle" x="10892" y="-147.9" font-family="Helvetica,sans-Serif" font-size="8.00">WARP&#45;semantic&#45;drift&#45;in&#45;sessions &#45; M</text>
</g>
<!-- cool_ideas_WARP_semantic_merge_conflict_prediction -->
<g id="node72" class="node">
<title>cool_ideas_WARP_semantic_merge_conflict_prediction</title>
<path fill="#d4e8f7" stroke="black" d="M11143.43,-163.6C11143.43,-163.6 10984.57,-163.6 10984.57,-163.6 10980.38,-163.6 10976.17,-159.4 10976.17,-155.2 10976.17,-155.2 10976.17,-146.8 10976.17,-146.8 10976.17,-142.6 10980.38,-138.4 10984.57,-138.4 10984.57,-138.4 11143.43,-138.4 11143.43,-138.4 11147.62,-138.4 11151.83,-142.6 11151.83,-146.8 11151.83,-146.8 11151.83,-155.2 11151.83,-155.2 11151.83,-159.4 11147.62,-163.6 11143.43,-163.6"/>
<text xml:space="preserve" text-anchor="middle" x="11064" y="-147.9" font-family="Helvetica,sans-Serif" font-size="8.00">WARP&#45;semantic&#45;merge&#45;conflict&#45;prediction &#45; L</text>
</g>
<!-- cool_ideas_WARP_session_filtration -->
<g id="node73" class="node">
<title>cool_ideas_WARP_session_filtration</title>
<path fill="#d4e8f7" stroke="black" d="M11264.8,-163.6C11264.8,-163.6 11171.2,-163.6 11171.2,-163.6 11167,-163.6 11162.8,-159.4 11162.8,-155.2 11162.8,-155.2 11162.8,-146.8 11162.8,-146.8 11162.8,-142.6 11167,-138.4 11171.2,-138.4 11171.2,-138.4 11264.8,-138.4 11264.8,-138.4 11269,-138.4 11273.2,-142.6 11273.2,-146.8 11273.2,-146.8 11273.2,-155.2 11273.2,-155.2 11273.2,-159.4 11269,-163.6 11264.8,-163.6"/>
<text xml:space="preserve" text-anchor="middle" x="11218" y="-147.9" font-family="Helvetica,sans-Serif" font-size="8.00">WARP&#45;session&#45;filtration &#45; L</text>
</g>
<!-- cool_ideas_WARP_shadow_structural_workspaces -->
<g id="node74" class="node">
<title>cool_ideas_WARP_shadow_structural_workspaces</title>
<path fill="#d4e8f7" stroke="black" d="M11443.3,-163.6C11443.3,-163.6 11292.7,-163.6 11292.7,-163.6 11288.5,-163.6 11284.3,-159.4 11284.3,-155.2 11284.3,-155.2 11284.3,-146.8 11284.3,-146.8 11284.3,-142.6 11288.5,-138.4 11292.7,-138.4 11292.7,-138.4 11443.3,-138.4 11443.3,-138.4 11447.5,-138.4 11451.7,-142.6 11451.7,-146.8 11451.7,-146.8 11451.7,-155.2 11451.7,-155.2 11451.7,-159.4 11447.5,-163.6 11443.3,-163.6"/>
<text xml:space="preserve" text-anchor="middle" x="11368" y="-147.9" font-family="Helvetica,sans-Serif" font-size="8.00">WARP&#45;shadow&#45;structural&#45;workspaces &#45; XL</text>
</g>
<!-- cool_ideas_WARP_speculative_merge -->
<g id="node75" class="node">
<title>cool_ideas_WARP_speculative_merge</title>
<path fill="#d4e8f7" stroke="black" d="M11578.55,-163.6C11578.55,-163.6 11471.45,-163.6 11471.45,-163.6 11467.25,-163.6 11463.05,-159.4 11463.05,-155.2 11463.05,-155.2 11463.05,-146.8 11463.05,-146.8 11463.05,-142.6 11467.25,-138.4 11471.45,-138.4 11471.45,-138.4 11578.55,-138.4 11578.55,-138.4 11582.75,-138.4 11586.95,-142.6 11586.95,-146.8 11586.95,-146.8 11586.95,-155.2 11586.95,-155.2 11586.95,-159.4 11582.75,-163.6 11578.55,-163.6"/>
<text xml:space="preserve" text-anchor="middle" x="11525" y="-147.9" font-family="Helvetica,sans-Serif" font-size="8.00">WARP&#45;speculative&#45;merge &#45; XL</text>
</g>
<!-- cool_ideas_WARP_stale_docs_checker -->
<g id="node76" class="node">
<title>cool_ideas_WARP_stale_docs_checker</title>
<path fill="#d4e8f7" stroke="black" d="M11711.8,-163.6C11711.8,-163.6 11606.2,-163.6 11606.2,-163.6 11602,-163.6 11597.8,-159.4 11597.8,-155.2 11597.8,-155.2 11597.8,-146.8 11597.8,-146.8 11597.8,-142.6 11602,-138.4 11606.2,-138.4 11606.2,-138.4 11711.8,-138.4 11711.8,-138.4 11716,-138.4 11720.2,-142.6 11720.2,-146.8 11720.2,-146.8 11720.2,-155.2 11720.2,-155.2 11720.2,-159.4 11716,-163.6 11711.8,-163.6"/>
<text xml:space="preserve" text-anchor="middle" x="11659" y="-147.9" font-family="Helvetica,sans-Serif" font-size="8.00">WARP&#45;stale&#45;docs&#45;checker &#45; M</text>
</g>
<!-- cool_ideas_WARP_structural_drift_detection -->
<g id="node77" class="node">
<title>cool_ideas_WARP_structural_drift_detection</title>
<path fill="#d4e8f7" stroke="black" d="M11862.8,-163.6C11862.8,-163.6 11739.2,-163.6 11739.2,-163.6 11735,-163.6 11730.8,-159.4 11730.8,-155.2 11730.8,-155.2 11730.8,-146.8 11730.8,-146.8 11730.8,-142.6 11735,-138.4 11739.2,-138.4 11739.2,-138.4 11862.8,-138.4 11862.8,-138.4 11867,-138.4 11871.2,-142.6 11871.2,-146.8 11871.2,-146.8 11871.2,-155.2 11871.2,-155.2 11871.2,-159.4 11867,-163.6 11862.8,-163.6"/>
<text xml:space="preserve" text-anchor="middle" x="11801" y="-147.9" font-family="Helvetica,sans-Serif" font-size="8.00">WARP&#45;structural&#45;drift&#45;detection &#45; M</text>
</g>
<!-- cool_ideas_WARP_structural_impact_prediction -->
<g id="node78" class="node">
<title>cool_ideas_WARP_structural_impact_prediction</title>
<path fill="#d4e8f7" stroke="black" d="M12029.3,-163.6C12029.3,-163.6 11890.7,-163.6 11890.7,-163.6 11886.5,-163.6 11882.3,-159.4 11882.3,-155.2 11882.3,-155.2 11882.3,-146.8 11882.3,-146.8 11882.3,-142.6 11886.5,-138.4 11890.7,-138.4 11890.7,-138.4 12029.3,-138.4 12029.3,-138.4 12033.5,-138.4 12037.7,-142.6 12037.7,-146.8 12037.7,-146.8 12037.7,-155.2 12037.7,-155.2 12037.7,-159.4 12033.5,-163.6 12029.3,-163.6"/>
<text xml:space="preserve" text-anchor="middle" x="11960" y="-147.9" font-family="Helvetica,sans-Serif" font-size="8.00">WARP&#45;structural&#45;impact&#45;prediction &#45; XL</text>
</g>
<!-- cool_ideas_WARP_symbol_heatmap -->
<g id="node79" class="node">
<title>cool_ideas_WARP_symbol_heatmap</title>
<path fill="#d4e8f7" stroke="black" d="M12155.05,-163.6C12155.05,-163.6 12056.95,-163.6 12056.95,-163.6 12052.75,-163.6 12048.55,-159.4 12048.55,-155.2 12048.55,-155.2 12048.55,-146.8 12048.55,-146.8 12048.55,-142.6 12052.75,-138.4 12056.95,-138.4 12056.95,-138.4 12155.05,-138.4 12155.05,-138.4 12159.25,-138.4 12163.45,-142.6 12163.45,-146.8 12163.45,-146.8 12163.45,-155.2 12163.45,-155.2 12163.45,-159.4 12159.25,-163.6 12155.05,-163.6"/>
<text xml:space="preserve" text-anchor="middle" x="12106" y="-147.9" font-family="Helvetica,sans-Serif" font-size="8.00">WARP&#45;symbol&#45;heatmap &#45; M</text>
</g>
<!-- cool_ideas_WARP_symbol_history_timeline -->
<g id="node80" class="node">
<title>cool_ideas_WARP_symbol_history_timeline</title>
<path fill="#d4e8f7" stroke="black" d="M12301.18,-163.6C12301.18,-163.6 12182.82,-163.6 12182.82,-163.6 12178.62,-163.6 12174.42,-159.4 12174.42,-155.2 12174.42,-155.2 12174.42,-146.8 12174.42,-146.8 12174.42,-142.6 12178.62,-138.4 12182.82,-138.4 12182.82,-138.4 12301.18,-138.4 12301.18,-138.4 12305.38,-138.4 12309.58,-142.6 12309.58,-146.8 12309.58,-146.8 12309.58,-155.2 12309.58,-155.2 12309.58,-159.4 12305.38,-163.6 12301.18,-163.6"/>
<text xml:space="preserve" text-anchor="middle" x="12242" y="-147.9" font-family="Helvetica,sans-Serif" font-size="8.00">WARP&#45;symbol&#45;history&#45;timeline &#45; S</text>
</g>
<!-- cool_ideas_WARP_technical_debt_curvature -->
<g id="node81" class="node">
<title>cool_ideas_WARP_technical_debt_curvature</title>
<path fill="#d4e8f7" stroke="black" d="M12451.43,-163.6C12451.43,-163.6 12328.57,-163.6 12328.57,-163.6 12324.38,-163.6 12320.17,-159.4 12320.17,-155.2 12320.17,-155.2 12320.17,-146.8 12320.17,-146.8 12320.17,-142.6 12324.38,-138.4 12328.57,-138.4 12328.57,-138.4 12451.43,-138.4 12451.43,-138.4 12455.62,-138.4 12459.83,-142.6 12459.83,-146.8 12459.83,-146.8 12459.83,-155.2 12459.83,-155.2 12459.83,-159.4 12455.62,-163.6 12451.43,-163.6"/>
<text xml:space="preserve" text-anchor="middle" x="12390" y="-147.9" font-family="Helvetica,sans-Serif" font-size="8.00">WARP&#45;technical&#45;debt&#45;curvature &#45; L</text>
</g>
<!-- cool_ideas_WARP_temporal_structural_search -->
<g id="node82" class="node">
<title>cool_ideas_WARP_temporal_structural_search</title>
<path fill="#d4e8f7" stroke="black" d="M12612.68,-163.6C12612.68,-163.6 12479.32,-163.6 12479.32,-163.6 12475.12,-163.6 12470.92,-159.4 12470.92,-155.2 12470.92,-155.2 12470.92,-146.8 12470.92,-146.8 12470.92,-142.6 12475.12,-138.4 12479.32,-138.4 12479.32,-138.4 12612.68,-138.4 12612.68,-138.4 12616.88,-138.4 12621.08,-142.6 12621.08,-146.8 12621.08,-146.8 12621.08,-155.2 12621.08,-155.2 12621.08,-159.4 12616.88,-163.6 12612.68,-163.6"/>
<text xml:space="preserve" text-anchor="middle" x="12546" y="-147.9" font-family="Helvetica,sans-Serif" font-size="8.00">WARP&#45;temporal&#45;structural&#45;search &#45; M</text>
</g>
<!-- cool_ideas_bounded_neighborhood_for_references -->
<g id="node83" class="node">
<title>cool_ideas_bounded_neighborhood_for_references</title>
<path fill="#d4e8f7" stroke="black" d="M12789.18,-163.6C12789.18,-163.6 12640.82,-163.6 12640.82,-163.6 12636.62,-163.6 12632.42,-159.4 12632.42,-155.2 12632.42,-155.2 12632.42,-146.8 12632.42,-146.8 12632.42,-142.6 12636.62,-138.4 12640.82,-138.4 12640.82,-138.4 12789.18,-138.4 12789.18,-138.4 12793.38,-138.4 12797.58,-142.6 12797.58,-146.8 12797.58,-146.8 12797.58,-155.2 12797.58,-155.2 12797.58,-159.4 12793.38,-163.6 12789.18,-163.6"/>
<text xml:space="preserve" text-anchor="middle" x="12715" y="-147.9" font-family="Helvetica,sans-Serif" font-size="8.00">bounded&#45;neighborhood&#45;for&#45;references &#45; S</text>
</g>
<!-- cool_ideas_monitor_tick_ceiling_tracking -->
<g id="node84" class="node">
<title>cool_ideas_monitor_tick_ceiling_tracking</title>
<path fill="#d4e8f7" stroke="black" d="M12924.55,-163.6C12924.55,-163.6 12817.45,-163.6 12817.45,-163.6 12813.25,-163.6 12809.05,-159.4 12809.05,-155.2 12809.05,-155.2 12809.05,-146.8 12809.05,-146.8 12809.05,-142.6 12813.25,-138.4 12817.45,-138.4 12817.45,-138.4 12924.55,-138.4 12924.55,-138.4 12928.75,-138.4 12932.95,-142.6 12932.95,-146.8 12932.95,-146.8 12932.95,-155.2 12932.95,-155.2 12932.95,-159.4 12928.75,-163.6 12924.55,-163.6"/>
<text xml:space="preserve" text-anchor="middle" x="12871" y="-147.9" font-family="Helvetica,sans-Serif" font-size="8.00">monitor&#45;tick&#45;ceiling&#45;tracking &#45; S</text>
</g>
<!-- cool_ideas_traverse_plus_query_hydration_helper -->
<g id="node85" class="node">
<title>cool_ideas_traverse_plus_query_hydration_helper</title>
<path fill="#d4e8f7" stroke="black" d="M13093.8,-163.6C13093.8,-163.6 12952.2,-163.6 12952.2,-163.6 12948,-163.6 12943.8,-159.4 12943.8,-155.2 12943.8,-155.2 12943.8,-146.8 12943.8,-146.8 12943.8,-142.6 12948,-138.4 12952.2,-138.4 12952.2,-138.4 13093.8,-138.4 13093.8,-138.4 13098,-138.4 13102.2,-142.6 13102.2,-146.8 13102.2,-146.8 13102.2,-155.2 13102.2,-155.2 13102.2,-159.4 13098,-163.6 13093.8,-163.6"/>
<text xml:space="preserve" text-anchor="middle" x="13023" y="-147.9" font-family="Helvetica,sans-Serif" font-size="8.00">traverse&#45;plus&#45;query&#45;hydration&#45;helper &#45; S</text>
</g>
<!-- leg_v07 -->
<g id="node86" class="node">
<title>leg_v07</title>
<path fill="#ffa07a" stroke="black" stroke-width="2" d="M13203.8,-163.6C13203.8,-163.6 13134.2,-163.6 13134.2,-163.6 13130,-163.6 13125.8,-159.4 13125.8,-155.2 13125.8,-155.2 13125.8,-146.8 13125.8,-146.8 13125.8,-142.6 13130,-138.4 13134.2,-138.4 13134.2,-138.4 13203.8,-138.4 13203.8,-138.4 13208,-138.4 13212.2,-142.6 13212.2,-146.8 13212.2,-146.8 13212.2,-155.2 13212.2,-155.2 13212.2,-159.4 13208,-163.6 13203.8,-163.6"/>
<text xml:space="preserve" text-anchor="middle" x="13169" y="-148.47" font-family="Helvetica,sans-Serif" font-size="7.00">v0.7.0</text>
</g>
<!-- leg_bad -->
<g id="node87" class="node">
<title>leg_bad</title>
<path fill="#f6b3b3" stroke="black" stroke-width="2" d="M13203.8,-102.4C13203.8,-102.4 13134.2,-102.4 13134.2,-102.4 13130,-102.4 13125.8,-98.2 13125.8,-94 13125.8,-94 13125.8,-85.6 13125.8,-85.6 13125.8,-81.4 13130,-77.2 13134.2,-77.2 13134.2,-77.2 13203.8,-77.2 13203.8,-77.2 13208,-77.2 13212.2,-81.4 13212.2,-85.6 13212.2,-85.6 13212.2,-94 13212.2,-94 13212.2,-98.2 13208,-102.4 13203.8,-102.4"/>
<text xml:space="preserve" text-anchor="middle" x="13169" y="-87.28" font-family="Helvetica,sans-Serif" font-size="7.00">bad&#45;code</text>
</g>
<!-- leg_v07&#45;&gt;leg_bad -->
<!-- leg_idea -->
<g id="node88" class="node">
<title>leg_idea</title>
<path fill="#d4e8f7" stroke="black" d="M13203.8,-41.2C13203.8,-41.2 13134.2,-41.2 13134.2,-41.2 13130,-41.2 13125.8,-37 13125.8,-32.8 13125.8,-32.8 13125.8,-24.4 13125.8,-24.4 13125.8,-20.2 13130,-16 13134.2,-16 13134.2,-16 13203.8,-16 13203.8,-16 13208,-16 13212.2,-20.2 13212.2,-24.4 13212.2,-24.4 13212.2,-32.8 13212.2,-32.8 13212.2,-37 13208,-41.2 13203.8,-41.2"/>
<text xml:space="preserve" text-anchor="middle" x="13169" y="-26.08" font-family="Helvetica,sans-Serif" font-size="7.00">cool&#45;ideas</text>
</g>
<!-- leg_bad&#45;&gt;leg_idea -->
</g>
</svg>
