<?xml version="1.0" encoding="UTF-8" standalone="no"?>
<!DOCTYPE svg PUBLIC "-//W3C//DTD SVG 1.1//EN"
 "http://www.w3.org/Graphics/SVG/1.1/DTD/svg11.dtd">
<!-- Generated by graphviz version 14.1.2 (20260124.0452)
 -->
<!-- Title: backlog Pages: 1 -->
<svg width="8299pt" height="267pt"
 viewBox="0.00 0.00 8299.00 267.00" xmlns="http://www.w3.org/2000/svg" xmlns:xlink="http://www.w3.org/1999/xlink">
<g id="graph0" class="graph" transform="scale(1 1) rotate(0) translate(4 262.55)">
<title>backlog</title>
<polygon fill="white" stroke="none" points="-4,4 -4,-262.55 8295,-262.55 8295,4 -4,4"/>
<g id="clust1" class="cluster">
<title>cluster_graph_indexing</title>
<path fill="#fafafa" stroke="#cccccc" d="M20,-191.6C20,-191.6 240,-191.6 240,-191.6 246,-191.6 252,-197.6 252,-203.6 252,-203.6 252,-238.55 252,-238.55 252,-244.55 246,-250.55 240,-250.55 240,-250.55 20,-250.55 20,-250.55 14,-250.55 8,-244.55 8,-238.55 8,-238.55 8,-203.6 8,-203.6 8,-197.6 14,-191.6 20,-191.6"/>
<text xml:space="preserve" text-anchor="middle" x="54.25" y="-238" font-family="Helvetica,sans-Serif" font-size="9.00" fill="#555555">Graph Indexing (2)</text>
</g>
<g id="clust2" class="cluster">
<title>cluster_structural_queries</title>
<path fill="#fafafa" stroke="#cccccc" d="M1669,-191.6C1669,-191.6 2488,-191.6 2488,-191.6 2494,-191.6 2500,-197.6 2500,-203.6 2500,-203.6 2500,-238.55 2500,-238.55 2500,-244.55 2494,-250.55 2488,-250.55 2488,-250.55 1669,-250.55 1669,-250.55 1663,-250.55 1657,-244.55 1657,-238.55 1657,-238.55 1657,-203.6 1657,-203.6 1657,-197.6 1663,-191.6 1669,-191.6"/>
<text xml:space="preserve" text-anchor="middle" x="1708.5" y="-238" font-family="Helvetica,sans-Serif" font-size="9.00" fill="#555555">Structural Queries (6)</text>
</g>
<g id="clust3" class="cluster">
<title>cluster_structural_metrics</title>
<path fill="#fafafa" stroke="#cccccc" d="M2520,-69.2C2520,-69.2 3074,-69.2 3074,-69.2 3080,-69.2 3086,-75.2 3086,-81.2 3086,-81.2 3086,-238.55 3086,-238.55 3086,-244.55 3080,-250.55 3074,-250.55 3074,-250.55 2520,-250.55 2520,-250.55 2514,-250.55 2508,-244.55 2508,-238.55 2508,-238.55 2508,-81.2 2508,-81.2 2508,-75.2 2514,-69.2 2520,-69.2"/>
<text xml:space="preserve" text-anchor="middle" x="2558" y="-238" font-family="Helvetica,sans-Serif" font-size="9.00" fill="#555555">Structural Metrics (8)</text>
</g>
<g id="clust4" class="cluster">
<title>cluster_export_analysis</title>
<path fill="#fafafa" stroke="#cccccc" d="M4319,-130.4C4319,-130.4 4576,-130.4 4576,-130.4 4582,-130.4 4588,-136.4 4588,-142.4 4588,-142.4 4588,-238.55 4588,-238.55 4588,-244.55 4582,-250.55 4576,-250.55 4576,-250.55 4319,-250.55 4319,-250.55 4313,-250.55 4307,-244.55 4307,-238.55 4307,-238.55 4307,-142.4 4307,-142.4 4307,-136.4 4313,-130.4 4319,-130.4"/>
<text xml:space="preserve" text-anchor="middle" x="4353.25" y="-238" font-family="Helvetica,sans-Serif" font-size="9.00" fill="#555555">Export Analysis (3)</text>
</g>
<g id="clust5" class="cluster">
<title>cluster_docs_integrity</title>
<path fill="#fafafa" stroke="#cccccc" d="M4608,-191.6C4608,-191.6 4795,-191.6 4795,-191.6 4801,-191.6 4807,-197.6 4807,-203.6 4807,-203.6 4807,-238.55 4807,-238.55 4807,-244.55 4801,-250.55 4795,-250.55 4795,-250.55 4608,-250.55 4608,-250.55 4602,-250.55 4596,-244.55 4596,-238.55 4596,-238.55 4596,-203.6 4596,-203.6 4596,-197.6 4602,-191.6 4608,-191.6"/>
<text xml:space="preserve" text-anchor="middle" x="4638.5" y="-238" font-family="Helvetica,sans-Serif" font-size="9.00" fill="#555555">Docs Integrity (2)</text>
</g>
<g id="clust6" class="cluster">
<title>cluster_provenance</title>
<path fill="#fafafa" stroke="#cccccc" d="M4827,-69.2C4827,-69.2 5279,-69.2 5279,-69.2 5285,-69.2 5291,-75.2 5291,-81.2 5291,-81.2 5291,-238.55 5291,-238.55 5291,-244.55 5285,-250.55 5279,-250.55 5279,-250.55 4827,-250.55 4827,-250.55 4821,-250.55 4815,-244.55 4815,-238.55 4815,-238.55 4815,-81.2 4815,-81.2 4815,-75.2 4821,-69.2 4827,-69.2"/>
<text xml:space="preserve" text-anchor="middle" x="4854.5" y="-238" font-family="Helvetica,sans-Serif" font-size="9.00" fill="#555555">Provenance (7)</text>
</g>
<g id="clust7" class="cluster">
<title>cluster_policy</title>
<path fill="#fafafa" stroke="#cccccc" d="M3106,-69.2C3106,-69.2 3802,-69.2 3802,-69.2 3808,-69.2 3814,-75.2 3814,-81.2 3814,-81.2 3814,-238.55 3814,-238.55 3814,-244.55 3808,-250.55 3802,-250.55 3802,-250.55 3106,-250.55 3106,-250.55 3100,-250.55 3094,-244.55 3094,-238.55 3094,-238.55 3094,-81.2 3094,-81.2 3094,-75.2 3100,-69.2 3106,-69.2"/>
<text xml:space="preserve" text-anchor="middle" x="3121.12" y="-238" font-family="Helvetica,sans-Serif" font-size="9.00" fill="#555555">Policy (8)</text>
</g>
<g id="clust8" class="cluster">
<title>cluster_projection</title>
<path fill="#fafafa" stroke="#cccccc" d="M5311,-191.6C5311,-191.6 6138,-191.6 6138,-191.6 6144,-191.6 6150,-197.6 6150,-203.6 6150,-203.6 6150,-238.55 6150,-238.55 6150,-244.55 6144,-250.55 6138,-250.55 6138,-250.55 5311,-250.55 5311,-250.55 5305,-250.55 5299,-244.55 5299,-238.55 5299,-238.55 5299,-203.6 5299,-203.6 5299,-197.6 5305,-191.6 5311,-191.6"/>
<text xml:space="preserve" text-anchor="middle" x="5334.38" y="-238" font-family="Helvetica,sans-Serif" font-size="9.00" fill="#555555">Projection (7)</text>
</g>
<g id="clust9" class="cluster">
<title>cluster_speculative</title>
<path fill="#fafafa" stroke="#cccccc" d="M3834,-8C3834,-8 4287,-8 4287,-8 4293,-8 4299,-14 4299,-20 4299,-20 4299,-238.55 4299,-238.55 4299,-244.55 4293,-250.55 4287,-250.55 4287,-250.55 3834,-250.55 3834,-250.55 3828,-250.55 3822,-244.55 3822,-238.55 3822,-238.55 3822,-20 3822,-20 3822,-14 3828,-8 3834,-8"/>
<text xml:space="preserve" text-anchor="middle" x="3860.75" y="-238" font-family="Helvetica,sans-Serif" font-size="9.00" fill="#555555">Speculative (6)</text>
</g>
<g id="clust10" class="cluster">
<title>cluster_session</title>
<path fill="#fafafa" stroke="#cccccc" d="M6170,-191.6C6170,-191.6 7217,-191.6 7217,-191.6 7223,-191.6 7229,-197.6 7229,-203.6 7229,-203.6 7229,-238.55 7229,-238.55 7229,-244.55 7223,-250.55 7217,-250.55 7217,-250.55 6170,-250.55 6170,-250.55 6164,-250.55 6158,-244.55 6158,-238.55 6158,-238.55 6158,-203.6 6158,-203.6 6158,-197.6 6164,-191.6 6170,-191.6"/>
<text xml:space="preserve" text-anchor="middle" x="6189.25" y="-238" font-family="Helvetica,sans-Serif" font-size="9.00" fill="#555555">Session (9)</text>
</g>
<g id="clust11" class="cluster">
<title>cluster_agent_safety</title>
<path fill="#fafafa" stroke="#cccccc" d="M7249,-130.4C7249,-130.4 8011,-130.4 8011,-130.4 8017,-130.4 8023,-136.4 8023,-142.4 8023,-142.4 8023,-238.55 8023,-238.55 8023,-244.55 8017,-250.55 8011,-250.55 8011,-250.55 7249,-250.55 7249,-250.55 7243,-250.55 7237,-244.55 7237,-238.55 7237,-238.55 7237,-142.4 7237,-142.4 7237,-136.4 7243,-130.4 7249,-130.4"/>
<text xml:space="preserve" text-anchor="middle" x="7277.62" y="-238" font-family="Helvetica,sans-Serif" font-size="9.00" fill="#555555">Agent Safety (8)</text>
</g>
<g id="clust12" class="cluster">
<title>cluster_surface</title>
<path fill="#fafafa" stroke="#cccccc" d="M272,-130.4C272,-130.4 1637,-130.4 1637,-130.4 1643,-130.4 1649,-136.4 1649,-142.4 1649,-142.4 1649,-238.55 1649,-238.55 1649,-244.55 1643,-250.55 1637,-250.55 1637,-250.55 272,-250.55 272,-250.55 266,-250.55 260,-244.55 260,-238.55 260,-238.55 260,-142.4 260,-142.4 260,-136.4 266,-130.4 272,-130.4"/>
<text xml:space="preserve" text-anchor="middle" x="293.12" y="-238" font-family="Helvetica,sans-Serif" font-size="9.00" fill="#555555">Surface (13)</text>
</g>
<g id="clust13" class="cluster">
<title>cluster_daemon</title>
<path fill="#fafafa" stroke="#cccccc" d="M8043,-69.2C8043,-69.2 8183,-69.2 8183,-69.2 8189,-69.2 8195,-75.2 8195,-81.2 8195,-81.2 8195,-238.55 8195,-238.55 8195,-244.55 8189,-250.55 8183,-250.55 8183,-250.55 8043,-250.55 8043,-250.55 8037,-250.55 8031,-244.55 8031,-238.55 8031,-238.55 8031,-81.2 8031,-81.2 8031,-75.2 8037,-69.2 8043,-69.2"/>
<text xml:space="preserve" text-anchor="middle" x="8063.38" y="-238" font-family="Helvetica,sans-Serif" font-size="9.00" fill="#555555">Daemon (3)</text>
</g>
<g id="clust14" class="cluster">
<title>cluster_legend</title>
<path fill="none" stroke="#dddddd" d="M8215,-8C8215,-8 8271,-8 8271,-8 8277,-8 8283,-14 8283,-20 8283,-20 8283,-237.8 8283,-237.8 8283,-243.8 8277,-249.8 8271,-249.8 8271,-249.8 8215,-249.8 8215,-249.8 8209,-249.8 8203,-243.8 8203,-237.8 8203,-237.8 8203,-20 8203,-20 8203,-14 8209,-8 8215,-8"/>
<text xml:space="preserve" text-anchor="middle" x="8224.5" y="-238.2" font-family="Helvetica,sans-Serif" font-size="8.00" fill="#aaaaaa">Legend</text>
</g>
<!-- WARP_background_indexing -->
<g id="node1" class="node">
<title>WARP_background_indexing</title>
<path fill="#b0d4f1" stroke="black" stroke-width="2" d="M109.68,-224.8C109.68,-224.8 24.32,-224.8 24.32,-224.8 20.12,-224.8 15.92,-220.6 15.92,-216.4 15.92,-216.4 15.92,-208 15.92,-208 15.92,-203.8 20.12,-199.6 24.32,-199.6 24.32,-199.6 109.68,-199.6 109.68,-199.6 113.88,-199.6 118.08,-203.8 118.08,-208 118.08,-208 118.08,-216.4 118.08,-216.4 118.08,-220.6 113.88,-224.8 109.68,-224.8"/>
<text xml:space="preserve" text-anchor="middle" x="67" y="-209.1" font-family="Helvetica,sans-Serif" font-size="8.00">background&#45;indexing · M</text>
</g>
<!-- WARP_outline_diff_commit_trailer -->
<g id="node2" class="node">
<title>WARP_outline_diff_commit_trailer</title>
<path fill="#d4e8f7" stroke="black" d="M236.05,-224.8C236.05,-224.8 137.95,-224.8 137.95,-224.8 133.75,-224.8 129.55,-220.6 129.55,-216.4 129.55,-216.4 129.55,-208 129.55,-208 129.55,-203.8 133.75,-199.6 137.95,-199.6 137.95,-199.6 236.05,-199.6 236.05,-199.6 240.25,-199.6 244.45,-203.8 244.45,-208 244.45,-208 244.45,-216.4 244.45,-216.4 244.45,-220.6 240.25,-224.8 236.05,-224.8"/>
<text xml:space="preserve" text-anchor="middle" x="187" y="-209.1" font-family="Helvetica,sans-Serif" font-size="8.00">outline&#45;diff&#45;commit&#45;trailer · S</text>
</g>
<!-- CORE_migrate_path_ops_to_port -->
<g id="node3" class="node">
<title>CORE_migrate_path_ops_to_port</title>
<path fill="#ffa07a" stroke="black" stroke-width="2" d="M1780.92,-224.8C1780.92,-224.8 1673.08,-224.8 1673.08,-224.8 1668.88,-224.8 1664.67,-220.6 1664.67,-216.4 1664.67,-216.4 1664.67,-208 1664.67,-208 1664.67,-203.8 1668.88,-199.6 1673.08,-199.6 1673.08,-199.6 1780.92,-199.6 1780.92,-199.6 1785.12,-199.6 1789.33,-203.8 1789.33,-208 1789.33,-208 1789.33,-216.4 1789.33,-216.4 1789.33,-220.6 1785.12,-224.8 1780.92,-224.8"/>
<text xml:space="preserve" text-anchor="middle" x="1727" y="-209.1" font-family="Helvetica,sans-Serif" font-size="8.00">migrate&#45;path&#45;ops&#45;to&#45;port [v0.7]</text>
</g>
<!-- CORE_rewrite_structural_blame_to_use_warp_worldline_provenance -->
<g id="node4" class="node">
<title>CORE_rewrite_structural_blame_to_use_warp_worldline_provenance</title>
<path fill="#ffa07a" stroke="black" stroke-width="2" d="M1923.3,-224.8C1923.3,-224.8 1808.7,-224.8 1808.7,-224.8 1804.5,-224.8 1800.3,-220.6 1800.3,-216.4 1800.3,-216.4 1800.3,-208 1800.3,-208 1800.3,-203.8 1804.5,-199.6 1808.7,-199.6 1808.7,-199.6 1923.3,-199.6 1923.3,-199.6 1927.5,-199.6 1931.7,-203.8 1931.7,-208 1931.7,-208 1931.7,-216.4 1931.7,-216.4 1931.7,-220.6 1927.5,-224.8 1923.3,-224.8"/>
<text xml:space="preserve" text-anchor="middle" x="1866" y="-209.1" font-family="Helvetica,sans-Serif" font-size="8.00">rewrite&#45;structural&#45;blame&#45;... [v0.7]</text>
</g>
<!-- CORE_git_graft_enhance -->
<g id="node70" class="node">
<title>CORE_git_graft_enhance</title>
<path fill="#ffa07a" stroke="black" d="M1632.42,-163.6C1632.42,-163.6 1551.58,-163.6 1551.58,-163.6 1547.38,-163.6 1543.17,-159.4 1543.17,-155.2 1543.17,-155.2 1543.17,-146.8 1543.17,-146.8 1543.17,-142.6 1547.38,-138.4 1551.58,-138.4 1551.58,-138.4 1632.42,-138.4 1632.42,-138.4 1636.62,-138.4 1640.83,-142.6 1640.83,-146.8 1640.83,-146.8 1640.83,-155.2 1640.83,-155.2 1640.83,-159.4 1636.62,-163.6 1632.42,-163.6"/>
<text xml:space="preserve" text-anchor="middle" x="1592" y="-147.9" font-family="Helvetica,sans-Serif" font-size="8.00">git&#45;graft&#45;enhance [v0.7]</text>
</g>
<!-- CORE_rewrite_structural_blame_to_use_warp_worldline_provenance&#45;&gt;CORE_git_graft_enhance -->
<g id="edge16" class="edge">
<title>CORE_rewrite_structural_blame_to_use_warp_worldline_provenance&#45;&gt;CORE_git_graft_enhance</title>
<path fill="none" stroke="#cc3333" stroke-width="2" stroke-dasharray="5,2" d="M1822.58,-198.65C1813.5,-196.18 1803.96,-193.71 1795,-191.6 1745.91,-180.05 1689.58,-169.26 1648.73,-161.86"/>
<polygon fill="#cc3333" stroke="#cc3333" stroke-width="2" points="1649.25,-160.18 1644.01,-161.01 1648.63,-163.62 1649.25,-160.18"/>
</g>
<!-- CORE_rewrite_structural_churn_to_use_warp_aggregate_queries -->
<g id="node5" class="node">
<title>CORE_rewrite_structural_churn_to_use_warp_aggregate_queries</title>
<path fill="#ffa07a" stroke="black" stroke-width="2" d="M2064.55,-224.8C2064.55,-224.8 1951.45,-224.8 1951.45,-224.8 1947.25,-224.8 1943.05,-220.6 1943.05,-216.4 1943.05,-216.4 1943.05,-208 1943.05,-208 1943.05,-203.8 1947.25,-199.6 1951.45,-199.6 1951.45,-199.6 2064.55,-199.6 2064.55,-199.6 2068.75,-199.6 2072.95,-203.8 2072.95,-208 2072.95,-208 2072.95,-216.4 2072.95,-216.4 2072.95,-220.6 2068.75,-224.8 2064.55,-224.8"/>
<text xml:space="preserve" text-anchor="middle" x="2008" y="-209.1" font-family="Helvetica,sans-Serif" font-size="8.00">rewrite&#45;structural&#45;churn&#45;... [v0.7]</text>
</g>
<!-- WARP_refactor_difficulty_score -->
<g id="node9" class="node">
<title>WARP_refactor_difficulty_score</title>
<path fill="#ffa07a" stroke="black" stroke-width="2" d="M2777.17,-163.6C2777.17,-163.6 2676.83,-163.6 2676.83,-163.6 2672.62,-163.6 2668.43,-159.4 2668.43,-155.2 2668.43,-155.2 2668.43,-146.8 2668.43,-146.8 2668.43,-142.6 2672.62,-138.4 2676.83,-138.4 2676.83,-138.4 2777.17,-138.4 2777.17,-138.4 2781.38,-138.4 2785.57,-142.6 2785.57,-146.8 2785.57,-146.8 2785.57,-155.2 2785.57,-155.2 2785.57,-159.4 2781.38,-163.6 2777.17,-163.6"/>
<text xml:space="preserve" text-anchor="middle" x="2727" y="-147.9" font-family="Helvetica,sans-Serif" font-size="8.00">refactor&#45;difficulty&#45;score [v0.7]</text>
</g>
<!-- CORE_rewrite_structural_churn_to_use_warp_aggregate_queries&#45;&gt;WARP_refactor_difficulty_score -->
<g id="edge18" class="edge">
<title>CORE_rewrite_structural_churn_to_use_warp_aggregate_queries&#45;&gt;WARP_refactor_difficulty_score</title>
<path fill="none" stroke="#cc3333" stroke-width="2" stroke-dasharray="5,2" d="M2047.28,-198.63C2057.21,-195.89 2067.92,-193.3 2078,-191.6 2288.01,-156.2 2540.97,-151.47 2659.51,-151.43"/>
<polygon fill="#cc3333" stroke="#cc3333" stroke-width="2" points="2659.44,-153.18 2664.44,-151.43 2659.44,-149.68 2659.44,-153.18"/>
</g>
<!-- WARP_codebase_entropy_trajectory -->
<g id="node12" class="node">
<title>WARP_codebase_entropy_trajectory</title>
<path fill="#b0d4f1" stroke="black" d="M2992.8,-163.6C2992.8,-163.6 2881.2,-163.6 2881.2,-163.6 2877,-163.6 2872.8,-159.4 2872.8,-155.2 2872.8,-155.2 2872.8,-146.8 2872.8,-146.8 2872.8,-142.6 2877,-138.4 2881.2,-138.4 2881.2,-138.4 2992.8,-138.4 2992.8,-138.4 2997,-138.4 3001.2,-142.6 3001.2,-146.8 3001.2,-146.8 3001.2,-155.2 3001.2,-155.2 3001.2,-159.4 2997,-163.6 2992.8,-163.6"/>
<text xml:space="preserve" text-anchor="middle" x="2937" y="-147.9" font-family="Helvetica,sans-Serif" font-size="8.00">codebase&#45;entropy&#45;trajectory · M</text>
</g>
<!-- CORE_rewrite_structural_churn_to_use_warp_aggregate_queries&#45;&gt;WARP_codebase_entropy_trajectory -->
<g id="edge17" class="edge">
<title>CORE_rewrite_structural_churn_to_use_warp_aggregate_queries&#45;&gt;WARP_codebase_entropy_trajectory</title>
<path fill="none" stroke="#cc3333" stroke-width="2" stroke-dasharray="5,2" d="M2046.52,-198.68C2056.66,-195.86 2067.65,-193.23 2078,-191.6 2391.28,-142.29 2474.42,-182.38 2791,-163.6 2814.94,-162.18 2841.07,-160.23 2864.51,-158.34"/>
<polygon fill="#cc3333" stroke="#cc3333" stroke-width="2" points="2864.5,-160.09 2869.34,-157.94 2864.21,-156.6 2864.5,-160.09"/>
</g>
<!-- CORE_rewrite_structural_log_to_use_warp_worldline_queries -->
<g id="node6" class="node">
<title>CORE_rewrite_structural_log_to_use_warp_worldline_queries</title>
<path fill="#ffa07a" stroke="black" stroke-width="2" d="M2202.05,-224.8C2202.05,-224.8 2091.95,-224.8 2091.95,-224.8 2087.75,-224.8 2083.55,-220.6 2083.55,-216.4 2083.55,-216.4 2083.55,-208 2083.55,-208 2083.55,-203.8 2087.75,-199.6 2091.95,-199.6 2091.95,-199.6 2202.05,-199.6 2202.05,-199.6 2206.25,-199.6 2210.45,-203.8 2210.45,-208 2210.45,-208 2210.45,-216.4 2210.45,-216.4 2210.45,-220.6 2206.25,-224.8 2202.05,-224.8"/>
<text xml:space="preserve" text-anchor="middle" x="2147" y="-209.1" font-family="Helvetica,sans-Serif" font-size="8.00">rewrite&#45;structural&#45;log&#45;to... [v0.7]</text>
</g>
<!-- bounded_neighborhood_for_references -->
<g id="node7" class="node">
<title>bounded_neighborhood_for_references</title>
<path fill="#d4e8f7" stroke="black" d="M2346.05,-224.8C2346.05,-224.8 2229.95,-224.8 2229.95,-224.8 2225.75,-224.8 2221.55,-220.6 2221.55,-216.4 2221.55,-216.4 2221.55,-208 2221.55,-208 2221.55,-203.8 2225.75,-199.6 2229.95,-199.6 2229.95,-199.6 2346.05,-199.6 2346.05,-199.6 2350.25,-199.6 2354.45,-203.8 2354.45,-208 2354.45,-208 2354.45,-216.4 2354.45,-216.4 2354.45,-220.6 2350.25,-224.8 2346.05,-224.8"/>
<text xml:space="preserve" text-anchor="middle" x="2288" y="-209.1" font-family="Helvetica,sans-Serif" font-size="8.00">bounded&#45;neighborhood&#45;for&#45;... · S</text>
</g>
<!-- traverse_plus_query_hydration_helper -->
<g id="node8" class="node">
<title>traverse_plus_query_hydration_helper</title>
<path fill="#d4e8f7" stroke="black" d="M2483.67,-224.8C2483.67,-224.8 2374.33,-224.8 2374.33,-224.8 2370.12,-224.8 2365.93,-220.6 2365.93,-216.4 2365.93,-216.4 2365.93,-208 2365.93,-208 2365.93,-203.8 2370.12,-199.6 2374.33,-199.6 2374.33,-199.6 2483.67,-199.6 2483.67,-199.6 2487.88,-199.6 2492.07,-203.8 2492.07,-208 2492.07,-208 2492.07,-216.4 2492.07,-216.4 2492.07,-220.6 2487.88,-224.8 2483.67,-224.8"/>
<text xml:space="preserve" text-anchor="middle" x="2429" y="-209.1" font-family="Helvetica,sans-Serif" font-size="8.00">traverse&#45;plus&#45;query&#45;hydra... · S</text>
</g>
<!-- WARP_technical_debt_curvature -->
<g id="node15" class="node">
<title>WARP_technical_debt_curvature</title>
<path fill="#8ec5e5" stroke="black" d="M2774.55,-102.4C2774.55,-102.4 2679.45,-102.4 2679.45,-102.4 2675.25,-102.4 2671.05,-98.2 2671.05,-94 2671.05,-94 2671.05,-85.6 2671.05,-85.6 2671.05,-81.4 2675.25,-77.2 2679.45,-77.2 2679.45,-77.2 2774.55,-77.2 2774.55,-77.2 2778.75,-77.2 2782.95,-81.4 2782.95,-85.6 2782.95,-85.6 2782.95,-94 2782.95,-94 2782.95,-98.2 2778.75,-102.4 2774.55,-102.4"/>
<text xml:space="preserve" text-anchor="middle" x="2727" y="-86.7" font-family="Helvetica,sans-Serif" font-size="8.00">technical&#45;debt&#45;curvature · L</text>
</g>
<!-- WARP_refactor_difficulty_score&#45;&gt;WARP_technical_debt_curvature -->
<g id="edge9" class="edge">
<title>WARP_refactor_difficulty_score&#45;&gt;WARP_technical_debt_curvature</title>
<path fill="none" stroke="#888888" d="M2727,-137.45C2727,-129.14 2727,-118.13 2727,-108.88"/>
<polygon fill="#888888" stroke="#888888" points="2728.75,-109.04 2727,-104.04 2725.25,-109.04 2728.75,-109.04"/>
</g>
<!-- CORE_lagrangian_policy -->
<g id="node29" class="node">
<title>CORE_lagrangian_policy</title>
<path fill="#7eb6e0" stroke="black" stroke-width="2" d="M3184.05,-102.4C3184.05,-102.4 3109.95,-102.4 3109.95,-102.4 3105.75,-102.4 3101.55,-98.2 3101.55,-94 3101.55,-94 3101.55,-85.6 3101.55,-85.6 3101.55,-81.4 3105.75,-77.2 3109.95,-77.2 3109.95,-77.2 3184.05,-77.2 3184.05,-77.2 3188.25,-77.2 3192.45,-81.4 3192.45,-85.6 3192.45,-85.6 3192.45,-94 3192.45,-94 3192.45,-98.2 3188.25,-102.4 3184.05,-102.4"/>
<text xml:space="preserve" text-anchor="middle" x="3147" y="-86.7" font-family="Helvetica,sans-Serif" font-size="8.00">lagrangian&#45;policy · XL</text>
</g>
<!-- WARP_refactor_difficulty_score&#45;&gt;CORE_lagrangian_policy -->
<g id="edge20" class="edge">
<title>WARP_refactor_difficulty_score&#45;&gt;CORE_lagrangian_policy</title>
<path fill="none" stroke="#cc3333" stroke-width="2" stroke-dasharray="5,2" d="M2786.24,-141.53C2811.17,-138.01 2840.48,-133.94 2867,-130.4 2965.14,-117.31 2990.26,-118.18 3088,-102.4 3089.67,-102.13 3091.37,-101.85 3093.09,-101.55"/>
<polygon fill="#cc3333" stroke="#cc3333" stroke-width="2" points="3093.07,-103.33 3097.69,-100.74 3092.47,-99.89 3093.07,-103.33"/>
</g>
<!-- CORE_constructor_in_disguise_lint -->
<g id="node10" class="node">
<title>CORE_constructor_in_disguise_lint</title>
<path fill="#b0d4f1" stroke="black" d="M2628.05,-224.8C2628.05,-224.8 2523.95,-224.8 2523.95,-224.8 2519.75,-224.8 2515.55,-220.6 2515.55,-216.4 2515.55,-216.4 2515.55,-208 2515.55,-208 2515.55,-203.8 2519.75,-199.6 2523.95,-199.6 2523.95,-199.6 2628.05,-199.6 2628.05,-199.6 2632.25,-199.6 2636.45,-203.8 2636.45,-208 2636.45,-208 2636.45,-216.4 2636.45,-216.4 2636.45,-220.6 2632.25,-224.8 2628.05,-224.8"/>
<text xml:space="preserve" text-anchor="middle" x="2576" y="-209.1" font-family="Helvetica,sans-Serif" font-size="8.00">constructor&#45;in&#45;disguise&#45;lint · M</text>
</g>
<!-- CORE_sludge_detector -->
<g id="node11" class="node">
<title>CORE_sludge_detector</title>
<path fill="#ffa07a" stroke="black" d="M2730.42,-224.8C2730.42,-224.8 2655.58,-224.8 2655.58,-224.8 2651.38,-224.8 2647.18,-220.6 2647.18,-216.4 2647.18,-216.4 2647.18,-208 2647.18,-208 2647.18,-203.8 2651.38,-199.6 2655.58,-199.6 2655.58,-199.6 2730.42,-199.6 2730.42,-199.6 2734.62,-199.6 2738.82,-203.8 2738.82,-208 2738.82,-208 2738.82,-216.4 2738.82,-216.4 2738.82,-220.6 2734.62,-224.8 2730.42,-224.8"/>
<text xml:space="preserve" text-anchor="middle" x="2693" y="-209.1" font-family="Helvetica,sans-Serif" font-size="8.00">sludge&#45;detector [v0.7]</text>
</g>
<!-- WARP_counterfactual_refactoring -->
<g id="node44" class="node">
<title>WARP_counterfactual_refactoring</title>
<path fill="#7eb6e0" stroke="black" stroke-width="2" d="M3944.8,-102.4C3944.8,-102.4 3839.2,-102.4 3839.2,-102.4 3835,-102.4 3830.8,-98.2 3830.8,-94 3830.8,-94 3830.8,-85.6 3830.8,-85.6 3830.8,-81.4 3835,-77.2 3839.2,-77.2 3839.2,-77.2 3944.8,-77.2 3944.8,-77.2 3949,-77.2 3953.2,-81.4 3953.2,-85.6 3953.2,-85.6 3953.2,-94 3953.2,-94 3953.2,-98.2 3949,-102.4 3944.8,-102.4"/>
<text xml:space="preserve" text-anchor="middle" x="3892" y="-86.7" font-family="Helvetica,sans-Serif" font-size="8.00">counterfactual&#45;refactoring · XL</text>
</g>
<!-- WARP_codebase_entropy_trajectory&#45;&gt;WARP_counterfactual_refactoring -->
<g id="edge19" class="edge">
<title>WARP_codebase_entropy_trajectory&#45;&gt;WARP_counterfactual_refactoring</title>
<path fill="none" stroke="#cc3333" stroke-width="2" stroke-dasharray="5,2" d="M3001.68,-148.65C3147.4,-145.14 3512.34,-133.72 3816,-102.4 3817.97,-102.2 3819.98,-101.98 3822,-101.74"/>
<polygon fill="#cc3333" stroke="#cc3333" stroke-width="2" points="3822.09,-103.5 3826.84,-101.16 3821.67,-100.02 3822.09,-103.5"/>
</g>
<!-- WARP_codebase_signature -->
<g id="node13" class="node">
<title>WARP_codebase_signature</title>
<path fill="#8ec5e5" stroke="black" d="M2837.67,-224.8C2837.67,-224.8 2758.33,-224.8 2758.33,-224.8 2754.12,-224.8 2749.93,-220.6 2749.93,-216.4 2749.93,-216.4 2749.93,-208 2749.93,-208 2749.93,-203.8 2754.12,-199.6 2758.33,-199.6 2758.33,-199.6 2837.67,-199.6 2837.67,-199.6 2841.88,-199.6 2846.07,-203.8 2846.07,-208 2846.07,-208 2846.07,-216.4 2846.07,-216.4 2846.07,-220.6 2841.88,-224.8 2837.67,-224.8"/>
<text xml:space="preserve" text-anchor="middle" x="2798" y="-209.1" font-family="Helvetica,sans-Serif" font-size="8.00">codebase&#45;signature · L</text>
</g>
<!-- WARP_symbol_heatmap -->
<g id="node14" class="node">
<title>WARP_symbol_heatmap</title>
<path fill="#b0d4f1" stroke="black" d="M2936.17,-224.8C2936.17,-224.8 2865.83,-224.8 2865.83,-224.8 2861.62,-224.8 2857.43,-220.6 2857.43,-216.4 2857.43,-216.4 2857.43,-208 2857.43,-208 2857.43,-203.8 2861.62,-199.6 2865.83,-199.6 2865.83,-199.6 2936.17,-199.6 2936.17,-199.6 2940.38,-199.6 2944.57,-203.8 2944.57,-208 2944.57,-208 2944.57,-216.4 2944.57,-216.4 2944.57,-220.6 2940.38,-224.8 2936.17,-224.8"/>
<text xml:space="preserve" text-anchor="middle" x="2901" y="-209.1" font-family="Helvetica,sans-Serif" font-size="8.00">symbol&#45;heatmap · M</text>
</g>
<!-- WARP_temporal_structural_search -->
<g id="node16" class="node">
<title>WARP_temporal_structural_search</title>
<path fill="#b0d4f1" stroke="black" d="M3069.8,-224.8C3069.8,-224.8 2964.2,-224.8 2964.2,-224.8 2960,-224.8 2955.8,-220.6 2955.8,-216.4 2955.8,-216.4 2955.8,-208 2955.8,-208 2955.8,-203.8 2960,-199.6 2964.2,-199.6 2964.2,-199.6 3069.8,-199.6 3069.8,-199.6 3074,-199.6 3078.2,-203.8 3078.2,-208 3078.2,-208 3078.2,-216.4 3078.2,-216.4 3078.2,-220.6 3074,-224.8 3069.8,-224.8"/>
<text xml:space="preserve" text-anchor="middle" x="3017" y="-209.1" font-family="Helvetica,sans-Serif" font-size="8.00">temporal&#45;structural&#45;search · M</text>
</g>
<!-- CLEAN_CODE_export_diff_semver_signature_as_patch -->
<g id="node17" class="node">
<title>CLEAN_CODE_export_diff_semver_signature_as_patch</title>
<path fill="#ffa07a" stroke="black" stroke-width="2" d="M4504.68,-224.8C4504.68,-224.8 4389.32,-224.8 4389.32,-224.8 4385.12,-224.8 4380.93,-220.6 4380.93,-216.4 4380.93,-216.4 4380.93,-208 4380.93,-208 4380.93,-203.8 4385.12,-199.6 4389.32,-199.6 4389.32,-199.6 4504.68,-199.6 4504.68,-199.6 4508.88,-199.6 4513.07,-203.8 4513.07,-208 4513.07,-208 4513.07,-216.4 4513.07,-216.4 4513.07,-220.6 4508.88,-224.8 4504.68,-224.8"/>
<text xml:space="preserve" text-anchor="middle" x="4447" y="-209.1" font-family="Helvetica,sans-Serif" font-size="8.00">export&#45;diff&#45;semver&#45;signat... [v0.7]</text>
</g>
<!-- WARP_auto_breaking_change_detection -->
<g id="node18" class="node">
<title>WARP_auto_breaking_change_detection</title>
<path fill="#8ec5e5" stroke="black" stroke-width="2" d="M4436.55,-163.6C4436.55,-163.6 4323.45,-163.6 4323.45,-163.6 4319.25,-163.6 4315.05,-159.4 4315.05,-155.2 4315.05,-155.2 4315.05,-146.8 4315.05,-146.8 4315.05,-142.6 4319.25,-138.4 4323.45,-138.4 4323.45,-138.4 4436.55,-138.4 4436.55,-138.4 4440.75,-138.4 4444.95,-142.6 4444.95,-146.8 4444.95,-146.8 4444.95,-155.2 4444.95,-155.2 4444.95,-159.4 4440.75,-163.6 4436.55,-163.6"/>
<text xml:space="preserve" text-anchor="middle" x="4380" y="-147.9" font-family="Helvetica,sans-Serif" font-size="8.00">auto&#45;breaking&#45;change&#45;dete... · L</text>
</g>
<!-- CLEAN_CODE_export_diff_semver_signature_as_patch&#45;&gt;WARP_auto_breaking_change_detection -->
<g id="edge14" class="edge">
<title>CLEAN_CODE_export_diff_semver_signature_as_patch&#45;&gt;WARP_auto_breaking_change_detection</title>
<path fill="none" stroke="#888888" d="M4432.79,-198.65C4422.93,-189.93 4409.69,-178.23 4398.93,-168.73"/>
<polygon fill="#888888" stroke="#888888" points="4400.23,-167.54 4395.32,-165.54 4397.91,-170.16 4400.23,-167.54"/>
</g>
<!-- WARP_semantic_merge_conflict_prediction -->
<g id="node19" class="node">
<title>WARP_semantic_merge_conflict_prediction</title>
<path fill="#8ec5e5" stroke="black" d="M4571.93,-163.6C4571.93,-163.6 4464.07,-163.6 4464.07,-163.6 4459.88,-163.6 4455.68,-159.4 4455.68,-155.2 4455.68,-155.2 4455.68,-146.8 4455.68,-146.8 4455.68,-142.6 4459.88,-138.4 4464.07,-138.4 4464.07,-138.4 4571.93,-138.4 4571.93,-138.4 4576.12,-138.4 4580.32,-142.6 4580.32,-146.8 4580.32,-146.8 4580.32,-155.2 4580.32,-155.2 4580.32,-159.4 4576.12,-163.6 4571.93,-163.6"/>
<text xml:space="preserve" text-anchor="middle" x="4518" y="-147.9" font-family="Helvetica,sans-Serif" font-size="8.00">semantic&#45;merge&#45;conflict&#45;p... · L</text>
</g>
<!-- CLEAN_CODE_export_diff_semver_signature_as_patch&#45;&gt;WARP_semantic_merge_conflict_prediction -->
<g id="edge15" class="edge">
<title>CLEAN_CODE_export_diff_semver_signature_as_patch&#45;&gt;WARP_semantic_merge_conflict_prediction</title>
<path fill="none" stroke="#888888" d="M4462.06,-198.65C4472.89,-189.62 4487.56,-177.38 4499.17,-167.7"/>
<polygon fill="#888888" stroke="#888888" points="4500.05,-169.25 4502.77,-164.7 4497.81,-166.56 4500.05,-169.25"/>
</g>
<!-- WARP_drift_sentinel -->
<g id="node20" class="node">
<title>WARP_drift_sentinel</title>
<path fill="#b0d4f1" stroke="black" stroke-width="2" d="M4667.3,-224.8C4667.3,-224.8 4612.7,-224.8 4612.7,-224.8 4608.5,-224.8 4604.3,-220.6 4604.3,-216.4 4604.3,-216.4 4604.3,-208 4604.3,-208 4604.3,-203.8 4608.5,-199.6 4612.7,-199.6 4612.7,-199.6 4667.3,-199.6 4667.3,-199.6 4671.5,-199.6 4675.7,-203.8 4675.7,-208 4675.7,-208 4675.7,-216.4 4675.7,-216.4 4675.7,-220.6 4671.5,-224.8 4667.3,-224.8"/>
<text xml:space="preserve" text-anchor="middle" x="4640" y="-209.1" font-family="Helvetica,sans-Serif" font-size="8.00">drift&#45;sentinel · M</text>
</g>
<!-- WARP_structural_drift_detection -->
<g id="node21" class="node">
<title>WARP_structural_drift_detection</title>
<path fill="#b0d4f1" stroke="black" d="M4790.93,-224.8C4790.93,-224.8 4695.07,-224.8 4695.07,-224.8 4690.88,-224.8 4686.68,-220.6 4686.68,-216.4 4686.68,-216.4 4686.68,-208 4686.68,-208 4686.68,-203.8 4690.88,-199.6 4695.07,-199.6 4695.07,-199.6 4790.93,-199.6 4790.93,-199.6 4795.12,-199.6 4799.32,-203.8 4799.32,-208 4799.32,-208 4799.32,-216.4 4799.32,-216.4 4799.32,-220.6 4795.12,-224.8 4790.93,-224.8"/>
<text xml:space="preserve" text-anchor="middle" x="4743" y="-209.1" font-family="Helvetica,sans-Serif" font-size="8.00">structural&#45;drift&#45;detection · M</text>
</g>
<!-- WARP_agent_action_provenance -->
<g id="node22" class="node">
<title>WARP_agent_action_provenance</title>
<path fill="#7eb6e0" stroke="black" stroke-width="2" d="M5091.68,-224.8C5091.68,-224.8 4988.32,-224.8 4988.32,-224.8 4984.12,-224.8 4979.93,-220.6 4979.93,-216.4 4979.93,-216.4 4979.93,-208 4979.93,-208 4979.93,-203.8 4984.12,-199.6 4988.32,-199.6 4988.32,-199.6 5091.68,-199.6 5091.68,-199.6 5095.88,-199.6 5100.07,-203.8 5100.07,-208 5100.07,-208 5100.07,-216.4 5100.07,-216.4 5100.07,-220.6 5095.88,-224.8 5091.68,-224.8"/>
<text xml:space="preserve" text-anchor="middle" x="5040" y="-209.1" font-family="Helvetica,sans-Serif" font-size="8.00">agent&#45;action&#45;provenance · XL</text>
</g>
<!-- WARP_provenance_dag -->
<g id="node23" class="node">
<title>WARP_provenance_dag</title>
<path fill="#8ec5e5" stroke="black" stroke-width="2" d="M4898.68,-163.6C4898.68,-163.6 4831.32,-163.6 4831.32,-163.6 4827.12,-163.6 4822.93,-159.4 4822.93,-155.2 4822.93,-155.2 4822.93,-146.8 4822.93,-146.8 4822.93,-142.6 4827.12,-138.4 4831.32,-138.4 4831.32,-138.4 4898.68,-138.4 4898.68,-138.4 4902.88,-138.4 4907.07,-142.6 4907.07,-146.8 4907.07,-146.8 4907.07,-155.2 4907.07,-155.2 4907.07,-159.4 4902.88,-163.6 4898.68,-163.6"/>
<text xml:space="preserve" text-anchor="middle" x="4865" y="-147.9" font-family="Helvetica,sans-Serif" font-size="8.00">provenance&#45;dag · L</text>
</g>
<!-- WARP_agent_action_provenance&#45;&gt;WARP_provenance_dag -->
<g id="edge6" class="edge">
<title>WARP_agent_action_provenance&#45;&gt;WARP_provenance_dag</title>
<path fill="none" stroke="#888888" d="M5002.89,-198.65C4975.16,-189.27 4937.2,-176.42 4908.12,-166.59"/>
<polygon fill="#888888" stroke="#888888" points="4908.79,-164.97 4903.49,-165.02 4907.67,-168.28 4908.79,-164.97"/>
</g>
<!-- CI_001_causal_collapse_visualizer -->
<g id="node24" class="node">
<title>CI_001_causal_collapse_visualizer</title>
<path fill="#8ec5e5" stroke="black" d="M5031.8,-163.6C5031.8,-163.6 4926.2,-163.6 4926.2,-163.6 4922,-163.6 4917.8,-159.4 4917.8,-155.2 4917.8,-155.2 4917.8,-146.8 4917.8,-146.8 4917.8,-142.6 4922,-138.4 4926.2,-138.4 4926.2,-138.4 5031.8,-138.4 5031.8,-138.4 5036,-138.4 5040.2,-142.6 5040.2,-146.8 5040.2,-146.8 5040.2,-155.2 5040.2,-155.2 5040.2,-159.4 5036,-163.6 5031.8,-163.6"/>
<text xml:space="preserve" text-anchor="middle" x="4979" y="-147.9" font-family="Helvetica,sans-Serif" font-size="8.00">CI&#45;001&#45;causal&#45;collapse&#45;vi... · L</text>
</g>
<!-- WARP_agent_action_provenance&#45;&gt;CI_001_causal_collapse_visualizer -->
<g id="edge3" class="edge">
<title>WARP_agent_action_provenance&#45;&gt;CI_001_causal_collapse_visualizer</title>
<path fill="none" stroke="#888888" d="M5027.06,-198.65C5017.93,-189.78 5005.6,-177.82 4995.72,-168.22"/>
<polygon fill="#888888" stroke="#888888" points="4996.98,-167.01 4992.17,-164.79 4994.54,-169.52 4996.98,-167.01"/>
</g>
<!-- WARP_causal_write_tracking -->
<g id="node26" class="node">
<title>WARP_causal_write_tracking</title>
<path fill="#8ec5e5" stroke="black" d="M5142.18,-163.6C5142.18,-163.6 5059.82,-163.6 5059.82,-163.6 5055.62,-163.6 5051.43,-159.4 5051.43,-155.2 5051.43,-155.2 5051.43,-146.8 5051.43,-146.8 5051.43,-142.6 5055.62,-138.4 5059.82,-138.4 5059.82,-138.4 5142.18,-138.4 5142.18,-138.4 5146.38,-138.4 5150.57,-142.6 5150.57,-146.8 5150.57,-146.8 5150.57,-155.2 5150.57,-155.2 5150.57,-159.4 5146.38,-163.6 5142.18,-163.6"/>
<text xml:space="preserve" text-anchor="middle" x="5101" y="-147.9" font-family="Helvetica,sans-Serif" font-size="8.00">causal&#45;write&#45;tracking · L</text>
</g>
<!-- WARP_agent_action_provenance&#45;&gt;WARP_causal_write_tracking -->
<g id="edge4" class="edge">
<title>WARP_agent_action_provenance&#45;&gt;WARP_causal_write_tracking</title>
<path fill="none" stroke="#888888" d="M5052.94,-198.65C5062.07,-189.78 5074.4,-177.82 5084.28,-168.22"/>
<polygon fill="#888888" stroke="#888888" points="5085.46,-169.52 5087.83,-164.79 5083.02,-167.01 5085.46,-169.52"/>
</g>
<!-- WARP_intent_and_decision_events -->
<g id="node27" class="node">
<title>WARP_intent_and_decision_events</title>
<path fill="#b0d4f1" stroke="black" d="M5274.43,-163.6C5274.43,-163.6 5169.57,-163.6 5169.57,-163.6 5165.38,-163.6 5161.18,-159.4 5161.18,-155.2 5161.18,-155.2 5161.18,-146.8 5161.18,-146.8 5161.18,-142.6 5165.38,-138.4 5169.57,-138.4 5169.57,-138.4 5274.43,-138.4 5274.43,-138.4 5278.62,-138.4 5282.82,-142.6 5282.82,-146.8 5282.82,-146.8 5282.82,-155.2 5282.82,-155.2 5282.82,-159.4 5278.62,-163.6 5274.43,-163.6"/>
<text xml:space="preserve" text-anchor="middle" x="5222" y="-147.9" font-family="Helvetica,sans-Serif" font-size="8.00">intent&#45;and&#45;decision&#45;events · M</text>
</g>
<!-- WARP_agent_action_provenance&#45;&gt;WARP_intent_and_decision_events -->
<g id="edge5" class="edge">
<title>WARP_agent_action_provenance&#45;&gt;WARP_intent_and_decision_events</title>
<path fill="none" stroke="#888888" d="M5078.6,-198.65C5108.04,-189.07 5148.59,-175.88 5179.06,-165.97"/>
<polygon fill="#888888" stroke="#888888" points="5179.36,-167.71 5183.57,-164.5 5178.28,-164.38 5179.36,-167.71"/>
</g>
<!-- WARP_causal_blame_for_staged_artifacts -->
<g id="node25" class="node">
<title>WARP_causal_blame_for_staged_artifacts</title>
<path fill="#8ec5e5" stroke="black" d="M4941.05,-102.4C4941.05,-102.4 4830.95,-102.4 4830.95,-102.4 4826.75,-102.4 4822.55,-98.2 4822.55,-94 4822.55,-94 4822.55,-85.6 4822.55,-85.6 4822.55,-81.4 4826.75,-77.2 4830.95,-77.2 4830.95,-77.2 4941.05,-77.2 4941.05,-77.2 4945.25,-77.2 4949.45,-81.4 4949.45,-85.6 4949.45,-85.6 4949.45,-94 4949.45,-94 4949.45,-98.2 4945.25,-102.4 4941.05,-102.4"/>
<text xml:space="preserve" text-anchor="middle" x="4886" y="-86.7" font-family="Helvetica,sans-Serif" font-size="8.00">causal&#45;blame&#45;for&#45;staged&#45;a... · L</text>
</g>
<!-- WARP_provenance_dag&#45;&gt;WARP_causal_blame_for_staged_artifacts -->
<g id="edge1" class="edge">
<title>WARP_provenance_dag&#45;&gt;WARP_causal_blame_for_staged_artifacts</title>
<path fill="none" stroke="#888888" d="M4869.45,-137.45C4872.43,-129.06 4876.38,-117.91 4879.68,-108.61"/>
<polygon fill="#888888" stroke="#888888" points="4881.31,-109.26 4881.33,-103.96 4878.01,-108.09 4881.31,-109.26"/>
</g>
<!-- WARP_reasoning_trace_replay -->
<g id="node28" class="node">
<title>WARP_reasoning_trace_replay</title>
<path fill="#b0d4f1" stroke="black" d="M5061.05,-102.4C5061.05,-102.4 4968.95,-102.4 4968.95,-102.4 4964.75,-102.4 4960.55,-98.2 4960.55,-94 4960.55,-94 4960.55,-85.6 4960.55,-85.6 4960.55,-81.4 4964.75,-77.2 4968.95,-77.2 4968.95,-77.2 5061.05,-77.2 5061.05,-77.2 5065.25,-77.2 5069.45,-81.4 5069.45,-85.6 5069.45,-85.6 5069.45,-94 5069.45,-94 5069.45,-98.2 5065.25,-102.4 5061.05,-102.4"/>
<text xml:space="preserve" text-anchor="middle" x="5015" y="-86.7" font-family="Helvetica,sans-Serif" font-size="8.00">reasoning&#45;trace&#45;replay · M</text>
</g>
<!-- WARP_provenance_dag&#45;&gt;WARP_reasoning_trace_replay -->
<g id="edge2" class="edge">
<title>WARP_provenance_dag&#45;&gt;WARP_reasoning_trace_replay</title>
<path fill="none" stroke="#888888" d="M4896.81,-137.45C4920.78,-127.99 4953.66,-115.01 4978.66,-105.14"/>
<polygon fill="#888888" stroke="#888888" points="4979.1,-106.85 4983.11,-103.39 4977.81,-103.59 4979.1,-106.85"/>
</g>
<!-- CORE_policy_profiles -->
<g id="node30" class="node">
<title>CORE_policy_profiles</title>
<path fill="#b0d4f1" stroke="black" stroke-width="2" d="M3169.55,-224.8C3169.55,-224.8 3110.45,-224.8 3110.45,-224.8 3106.25,-224.8 3102.05,-220.6 3102.05,-216.4 3102.05,-216.4 3102.05,-208 3102.05,-208 3102.05,-203.8 3106.25,-199.6 3110.45,-199.6 3110.45,-199.6 3169.55,-199.6 3169.55,-199.6 3173.75,-199.6 3177.95,-203.8 3177.95,-208 3177.95,-208 3177.95,-216.4 3177.95,-216.4 3177.95,-220.6 3173.75,-224.8 3169.55,-224.8"/>
<text xml:space="preserve" text-anchor="middle" x="3140" y="-209.1" font-family="Helvetica,sans-Serif" font-size="8.00">policy&#45;profiles · M</text>
</g>
<!-- CORE_auto_focus -->
<g id="node31" class="node">
<title>CORE_auto_focus</title>
<path fill="#8ec5e5" stroke="black" d="M3244.17,-224.8C3244.17,-224.8 3197.83,-224.8 3197.83,-224.8 3193.62,-224.8 3189.43,-220.6 3189.43,-216.4 3189.43,-216.4 3189.43,-208 3189.43,-208 3189.43,-203.8 3193.62,-199.6 3197.83,-199.6 3197.83,-199.6 3244.17,-199.6 3244.17,-199.6 3248.38,-199.6 3252.57,-203.8 3252.57,-208 3252.57,-208 3252.57,-216.4 3252.57,-216.4 3252.57,-220.6 3248.38,-224.8 3244.17,-224.8"/>
<text xml:space="preserve" text-anchor="middle" x="3221" y="-209.1" font-family="Helvetica,sans-Serif" font-size="8.00">auto&#45;focus · L</text>
</g>
<!-- CORE_context_budget_forecasting -->
<g id="node32" class="node">
<title>CORE_context_budget_forecasting</title>
<path fill="#b0d4f1" stroke="black" d="M3378.17,-224.8C3378.17,-224.8 3271.83,-224.8 3271.83,-224.8 3267.62,-224.8 3263.43,-220.6 3263.43,-216.4 3263.43,-216.4 3263.43,-208 3263.43,-208 3263.43,-203.8 3267.62,-199.6 3271.83,-199.6 3271.83,-199.6 3378.17,-199.6 3378.17,-199.6 3382.38,-199.6 3386.57,-203.8 3386.57,-208 3386.57,-208 3386.57,-216.4 3386.57,-216.4 3386.57,-220.6 3382.38,-224.8 3378.17,-224.8"/>
<text xml:space="preserve" text-anchor="middle" x="3325" y="-209.1" font-family="Helvetica,sans-Serif" font-size="8.00">context&#45;budget&#45;forecasting · M</text>
</g>
<!-- CORE_policy_playground -->
<g id="node33" class="node">
<title>CORE_policy_playground</title>
<path fill="#d4e8f7" stroke="black" d="M3477.92,-224.8C3477.92,-224.8 3406.08,-224.8 3406.08,-224.8 3401.88,-224.8 3397.68,-220.6 3397.68,-216.4 3397.68,-216.4 3397.68,-208 3397.68,-208 3397.68,-203.8 3401.88,-199.6 3406.08,-199.6 3406.08,-199.6 3477.92,-199.6 3477.92,-199.6 3482.12,-199.6 3486.32,-203.8 3486.32,-208 3486.32,-208 3486.32,-216.4 3486.32,-216.4 3486.32,-220.6 3482.12,-224.8 3477.92,-224.8"/>
<text xml:space="preserve" text-anchor="middle" x="3442" y="-209.1" font-family="Helvetica,sans-Serif" font-size="8.00">policy&#45;playground · S</text>
</g>
<!-- CORE_self_tuning_governor -->
<g id="node34" class="node">
<title>CORE_self_tuning_governor</title>
<path fill="#b0d4f1" stroke="black" d="M3588.55,-224.8C3588.55,-224.8 3505.45,-224.8 3505.45,-224.8 3501.25,-224.8 3497.05,-220.6 3497.05,-216.4 3497.05,-216.4 3497.05,-208 3497.05,-208 3497.05,-203.8 3501.25,-199.6 3505.45,-199.6 3505.45,-199.6 3588.55,-199.6 3588.55,-199.6 3592.75,-199.6 3596.95,-203.8 3596.95,-208 3596.95,-208 3596.95,-216.4 3596.95,-216.4 3596.95,-220.6 3592.75,-224.8 3588.55,-224.8"/>
<text xml:space="preserve" text-anchor="middle" x="3547" y="-209.1" font-family="Helvetica,sans-Serif" font-size="8.00">self&#45;tuning&#45;governor · M</text>
</g>
<!-- CORE_speculative_read_cost -->
<g id="node35" class="node">
<title>CORE_speculative_read_cost</title>
<path fill="#d4e8f7" stroke="black" d="M3701.67,-224.8C3701.67,-224.8 3616.33,-224.8 3616.33,-224.8 3612.12,-224.8 3607.93,-220.6 3607.93,-216.4 3607.93,-216.4 3607.93,-208 3607.93,-208 3607.93,-203.8 3612.12,-199.6 3616.33,-199.6 3616.33,-199.6 3701.67,-199.6 3701.67,-199.6 3705.88,-199.6 3710.07,-203.8 3710.07,-208 3710.07,-208 3710.07,-216.4 3710.07,-216.4 3710.07,-220.6 3705.88,-224.8 3701.67,-224.8"/>
<text xml:space="preserve" text-anchor="middle" x="3659" y="-209.1" font-family="Helvetica,sans-Serif" font-size="8.00">speculative&#45;read&#45;cost · S</text>
</g>
<!-- WARP_budget_elasticity -->
<g id="node36" class="node">
<title>WARP_budget_elasticity</title>
<path fill="#b0d4f1" stroke="black" d="M3798.05,-224.8C3798.05,-224.8 3729.95,-224.8 3729.95,-224.8 3725.75,-224.8 3721.55,-220.6 3721.55,-216.4 3721.55,-216.4 3721.55,-208 3721.55,-208 3721.55,-203.8 3725.75,-199.6 3729.95,-199.6 3729.95,-199.6 3798.05,-199.6 3798.05,-199.6 3802.25,-199.6 3806.45,-203.8 3806.45,-208 3806.45,-208 3806.45,-216.4 3806.45,-216.4 3806.45,-220.6 3802.25,-224.8 3798.05,-224.8"/>
<text xml:space="preserve" text-anchor="middle" x="3764" y="-209.1" font-family="Helvetica,sans-Serif" font-size="8.00">budget&#45;elasticity · M</text>
</g>
<!-- CORE_migrate_to_slice_first_reads -->
<g id="node37" class="node">
<title>CORE_migrate_to_slice_first_reads</title>
<path fill="#ffa07a" stroke="black" stroke-width="2" d="M5428.55,-224.8C5428.55,-224.8 5315.45,-224.8 5315.45,-224.8 5311.25,-224.8 5307.05,-220.6 5307.05,-216.4 5307.05,-216.4 5307.05,-208 5307.05,-208 5307.05,-203.8 5311.25,-199.6 5315.45,-199.6 5315.45,-199.6 5428.55,-199.6 5428.55,-199.6 5432.75,-199.6 5436.95,-203.8 5436.95,-208 5436.95,-208 5436.95,-216.4 5436.95,-216.4 5436.95,-220.6 5432.75,-224.8 5428.55,-224.8"/>
<text xml:space="preserve" text-anchor="middle" x="5372" y="-209.1" font-family="Helvetica,sans-Serif" font-size="8.00">migrate&#45;to&#45;slice&#45;first&#45;reads [v0.7]</text>
</g>
<!-- WARP_adaptive_projection_selection -->
<g id="node38" class="node">
<title>WARP_adaptive_projection_selection</title>
<path fill="#8ec5e5" stroke="black" stroke-width="2" d="M5560.05,-224.8C5560.05,-224.8 5455.95,-224.8 5455.95,-224.8 5451.75,-224.8 5447.55,-220.6 5447.55,-216.4 5447.55,-216.4 5447.55,-208 5447.55,-208 5447.55,-203.8 5451.75,-199.6 5455.95,-199.6 5455.95,-199.6 5560.05,-199.6 5560.05,-199.6 5564.25,-199.6 5568.45,-203.8 5568.45,-208 5568.45,-208 5568.45,-216.4 5568.45,-216.4 5568.45,-220.6 5564.25,-224.8 5560.05,-224.8"/>
<text xml:space="preserve" text-anchor="middle" x="5508" y="-209.1" font-family="Helvetica,sans-Serif" font-size="8.00">adaptive&#45;projection&#45;selec... · L</text>
</g>
<!-- WARP_projection_safety_classes -->
<g id="node39" class="node">
<title>WARP_projection_safety_classes</title>
<path fill="#b0d4f1" stroke="black" stroke-width="2" d="M5686.05,-224.8C5686.05,-224.8 5587.95,-224.8 5587.95,-224.8 5583.75,-224.8 5579.55,-220.6 5579.55,-216.4 5579.55,-216.4 5579.55,-208 5579.55,-208 5579.55,-203.8 5583.75,-199.6 5587.95,-199.6 5587.95,-199.6 5686.05,-199.6 5686.05,-199.6 5690.25,-199.6 5694.45,-203.8 5694.45,-208 5694.45,-208 5694.45,-216.4 5694.45,-216.4 5694.45,-220.6 5690.25,-224.8 5686.05,-224.8"/>
<text xml:space="preserve" text-anchor="middle" x="5637" y="-209.1" font-family="Helvetica,sans-Serif" font-size="8.00">projection&#45;safety&#45;classes · M</text>
</g>
<!-- CORE_horizon_of_readability -->
<g id="node40" class="node">
<title>CORE_horizon_of_readability</title>
<path fill="#b0d4f1" stroke="black" d="M5800.05,-224.8C5800.05,-224.8 5713.95,-224.8 5713.95,-224.8 5709.75,-224.8 5705.55,-220.6 5705.55,-216.4 5705.55,-216.4 5705.55,-208 5705.55,-208 5705.55,-203.8 5709.75,-199.6 5713.95,-199.6 5713.95,-199.6 5800.05,-199.6 5800.05,-199.6 5804.25,-199.6 5808.45,-203.8 5808.45,-208 5808.45,-208 5808.45,-216.4 5808.45,-216.4 5808.45,-220.6 5804.25,-224.8 5800.05,-224.8"/>
<text xml:space="preserve" text-anchor="middle" x="5757" y="-209.1" font-family="Helvetica,sans-Serif" font-size="8.00">horizon&#45;of&#45;readability · M</text>
</g>
<!-- WARP_footprint_parallelism -->
<g id="node41" class="node">
<title>WARP_footprint_parallelism</title>
<path fill="#7eb6e0" stroke="black" d="M5911.93,-224.8C5911.93,-224.8 5828.07,-224.8 5828.07,-224.8 5823.88,-224.8 5819.68,-220.6 5819.68,-216.4 5819.68,-216.4 5819.68,-208 5819.68,-208 5819.68,-203.8 5823.88,-199.6 5828.07,-199.6 5828.07,-199.6 5911.93,-199.6 5911.93,-199.6 5916.12,-199.6 5920.32,-203.8 5920.32,-208 5920.32,-208 5920.32,-216.4 5920.32,-216.4 5920.32,-220.6 5916.12,-224.8 5911.93,-224.8"/>
<text xml:space="preserve" text-anchor="middle" x="5870" y="-209.1" font-family="Helvetica,sans-Serif" font-size="8.00">footprint&#45;parallelism · XL</text>
</g>
<!-- WARP_semantic_drift_in_sessions -->
<g id="node42" class="node">
<title>WARP_semantic_drift_in_sessions</title>
<path fill="#b0d4f1" stroke="black" d="M6040.55,-224.8C6040.55,-224.8 5939.45,-224.8 5939.45,-224.8 5935.25,-224.8 5931.05,-220.6 5931.05,-216.4 5931.05,-216.4 5931.05,-208 5931.05,-208 5931.05,-203.8 5935.25,-199.6 5939.45,-199.6 5939.45,-199.6 6040.55,-199.6 6040.55,-199.6 6044.75,-199.6 6048.95,-203.8 6048.95,-208 6048.95,-208 6048.95,-216.4 6048.95,-216.4 6048.95,-220.6 6044.75,-224.8 6040.55,-224.8"/>
<text xml:space="preserve" text-anchor="middle" x="5990" y="-209.1" font-family="Helvetica,sans-Serif" font-size="8.00">semantic&#45;drift&#45;in&#45;sessions · M</text>
</g>
<!-- WARP_session_filtration -->
<g id="node43" class="node">
<title>WARP_session_filtration</title>
<path fill="#8ec5e5" stroke="black" d="M6133.93,-224.8C6133.93,-224.8 6068.07,-224.8 6068.07,-224.8 6063.88,-224.8 6059.68,-220.6 6059.68,-216.4 6059.68,-216.4 6059.68,-208 6059.68,-208 6059.68,-203.8 6063.88,-199.6 6068.07,-199.6 6068.07,-199.6 6133.93,-199.6 6133.93,-199.6 6138.12,-199.6 6142.32,-203.8 6142.32,-208 6142.32,-208 6142.32,-216.4 6142.32,-216.4 6142.32,-220.6 6138.12,-224.8 6133.93,-224.8"/>
<text xml:space="preserve" text-anchor="middle" x="6101" y="-209.1" font-family="Helvetica,sans-Serif" font-size="8.00">session&#45;filtration · L</text>
</g>
<!-- WARP_structural_impact_prediction -->
<g id="node46" class="node">
<title>WARP_structural_impact_prediction</title>
<path fill="#7eb6e0" stroke="black" stroke-width="2" d="M3949.42,-41.2C3949.42,-41.2 3838.58,-41.2 3838.58,-41.2 3834.38,-41.2 3830.18,-37 3830.18,-32.8 3830.18,-32.8 3830.18,-24.4 3830.18,-24.4 3830.18,-20.2 3834.38,-16 3838.58,-16 3838.58,-16 3949.42,-16 3949.42,-16 3953.62,-16 3957.82,-20.2 3957.82,-24.4 3957.82,-24.4 3957.82,-32.8 3957.82,-32.8 3957.82,-37 3953.62,-41.2 3949.42,-41.2"/>
<text xml:space="preserve" text-anchor="middle" x="3894" y="-25.5" font-family="Helvetica,sans-Serif" font-size="8.00">structural&#45;impact&#45;prediction · XL</text>
</g>
<!-- WARP_counterfactual_refactoring&#45;&gt;WARP_structural_impact_prediction -->
<g id="edge8" class="edge">
<title>WARP_counterfactual_refactoring&#45;&gt;WARP_structural_impact_prediction</title>
<path fill="none" stroke="#888888" d="M3892.42,-76.25C3892.7,-68.16 3893.06,-57.5 3893.36,-48.42"/>
<polygon fill="#888888" stroke="#888888" points="3895.11,-48.71 3893.53,-43.65 3891.61,-48.59 3895.11,-48.71"/>
</g>
<!-- WARP_speculative_merge -->
<g id="node45" class="node">
<title>WARP_speculative_merge</title>
<path fill="#7eb6e0" stroke="black" stroke-width="2" d="M3917.67,-224.8C3917.67,-224.8 3838.33,-224.8 3838.33,-224.8 3834.12,-224.8 3829.93,-220.6 3829.93,-216.4 3829.93,-216.4 3829.93,-208 3829.93,-208 3829.93,-203.8 3834.12,-199.6 3838.33,-199.6 3838.33,-199.6 3917.67,-199.6 3917.67,-199.6 3921.88,-199.6 3926.07,-203.8 3926.07,-208 3926.07,-208 3926.07,-216.4 3926.07,-216.4 3926.07,-220.6 3921.88,-224.8 3917.67,-224.8"/>
<text xml:space="preserve" text-anchor="middle" x="3878" y="-209.1" font-family="Helvetica,sans-Serif" font-size="8.00">speculative&#45;merge · XL</text>
</g>
<!-- WARP_minimum_viable_context -->
<g id="node47" class="node">
<title>WARP_minimum_viable_context</title>
<path fill="#b0d4f1" stroke="black" d="M4040.55,-224.8C4040.55,-224.8 3945.45,-224.8 3945.45,-224.8 3941.25,-224.8 3937.05,-220.6 3937.05,-216.4 3937.05,-216.4 3937.05,-208 3937.05,-208 3937.05,-203.8 3941.25,-199.6 3945.45,-199.6 3945.45,-199.6 4040.55,-199.6 4040.55,-199.6 4044.75,-199.6 4048.95,-203.8 4048.95,-208 4048.95,-208 4048.95,-216.4 4048.95,-216.4 4048.95,-220.6 4044.75,-224.8 4040.55,-224.8"/>
<text xml:space="preserve" text-anchor="middle" x="3993" y="-209.1" font-family="Helvetica,sans-Serif" font-size="8.00">minimum&#45;viable&#45;context · M</text>
</g>
<!-- WARP_rulial_heat_map -->
<g id="node48" class="node">
<title>WARP_rulial_heat_map</title>
<path fill="#8ec5e5" stroke="black" d="M4131.43,-224.8C4131.43,-224.8 4068.58,-224.8 4068.58,-224.8 4064.38,-224.8 4060.18,-220.6 4060.18,-216.4 4060.18,-216.4 4060.18,-208 4060.18,-208 4060.18,-203.8 4064.38,-199.6 4068.58,-199.6 4068.58,-199.6 4131.43,-199.6 4131.43,-199.6 4135.62,-199.6 4139.82,-203.8 4139.82,-208 4139.82,-208 4139.82,-216.4 4139.82,-216.4 4139.82,-220.6 4135.62,-224.8 4131.43,-224.8"/>
<text xml:space="preserve" text-anchor="middle" x="4100" y="-209.1" font-family="Helvetica,sans-Serif" font-size="8.00">rulial&#45;heat&#45;map · L</text>
</g>
<!-- WARP_shadow_structural_workspaces -->
<g id="node49" class="node">
<title>WARP_shadow_structural_workspaces</title>
<path fill="#7eb6e0" stroke="black" d="M4282.43,-224.8C4282.43,-224.8 4159.57,-224.8 4159.57,-224.8 4155.38,-224.8 4151.18,-220.6 4151.18,-216.4 4151.18,-216.4 4151.18,-208 4151.18,-208 4151.18,-203.8 4155.38,-199.6 4159.57,-199.6 4159.57,-199.6 4282.43,-199.6 4282.43,-199.6 4286.62,-199.6 4290.82,-203.8 4290.82,-208 4290.82,-208 4290.82,-216.4 4290.82,-216.4 4290.82,-220.6 4286.62,-224.8 4282.43,-224.8"/>
<text xml:space="preserve" text-anchor="middle" x="4221" y="-209.1" font-family="Helvetica,sans-Serif" font-size="8.00">shadow&#45;structural&#45;workspaces · XL</text>
</g>
<!-- CORE_codebase_orientation_map -->
<g id="node50" class="node">
<title>CORE_codebase_orientation_map</title>
<path fill="#ffa07a" stroke="black" stroke-width="2" d="M6287.55,-224.8C6287.55,-224.8 6174.45,-224.8 6174.45,-224.8 6170.25,-224.8 6166.05,-220.6 6166.05,-216.4 6166.05,-216.4 6166.05,-208 6166.05,-208 6166.05,-203.8 6170.25,-199.6 6174.45,-199.6 6174.45,-199.6 6287.55,-199.6 6287.55,-199.6 6291.75,-199.6 6295.95,-203.8 6295.95,-208 6295.95,-208 6295.95,-216.4 6295.95,-216.4 6295.95,-220.6 6291.75,-224.8 6287.55,-224.8"/>
<text xml:space="preserve" text-anchor="middle" x="6231" y="-209.1" font-family="Helvetica,sans-Serif" font-size="8.00">codebase&#45;orientation&#45;map [v0.7]</text>
</g>
<!-- CORE_conversation_primer -->
<g id="node51" class="node">
<title>CORE_conversation_primer</title>
<path fill="#b0d4f1" stroke="black" stroke-width="2" d="M6398.18,-224.8C6398.18,-224.8 6315.82,-224.8 6315.82,-224.8 6311.62,-224.8 6307.43,-220.6 6307.43,-216.4 6307.43,-216.4 6307.43,-208 6307.43,-208 6307.43,-203.8 6311.62,-199.6 6315.82,-199.6 6315.82,-199.6 6398.18,-199.6 6398.18,-199.6 6402.38,-199.6 6406.57,-203.8 6406.57,-208 6406.57,-208 6406.57,-216.4 6406.57,-216.4 6406.57,-220.6 6402.38,-224.8 6398.18,-224.8"/>
<text xml:space="preserve" text-anchor="middle" x="6357" y="-209.1" font-family="Helvetica,sans-Serif" font-size="8.00">conversation&#45;primer · M</text>
</g>
<!-- CORE_cross_session_resume -->
<g id="node52" class="node">
<title>CORE_cross_session_resume</title>
<path fill="#d4e8f7" stroke="black" stroke-width="2" d="M6513.8,-224.8C6513.8,-224.8 6426.2,-224.8 6426.2,-224.8 6422,-224.8 6417.8,-220.6 6417.8,-216.4 6417.8,-216.4 6417.8,-208 6417.8,-208 6417.8,-203.8 6422,-199.6 6426.2,-199.6 6426.2,-199.6 6513.8,-199.6 6513.8,-199.6 6518,-199.6 6522.2,-203.8 6522.2,-208 6522.2,-208 6522.2,-216.4 6522.2,-216.4 6522.2,-220.6 6518,-224.8 6513.8,-224.8"/>
<text xml:space="preserve" text-anchor="middle" x="6470" y="-209.1" font-family="Helvetica,sans-Serif" font-size="8.00">cross&#45;session&#45;resume · S</text>
</g>
<!-- CI_002_deterministic_scenario_replay -->
<g id="node53" class="node">
<title>CI_002_deterministic_scenario_replay</title>
<path fill="#8ec5e5" stroke="black" d="M6648.55,-224.8C6648.55,-224.8 6541.45,-224.8 6541.45,-224.8 6537.25,-224.8 6533.05,-220.6 6533.05,-216.4 6533.05,-216.4 6533.05,-208 6533.05,-208 6533.05,-203.8 6537.25,-199.6 6541.45,-199.6 6541.45,-199.6 6648.55,-199.6 6648.55,-199.6 6652.75,-199.6 6656.95,-203.8 6656.95,-208 6656.95,-208 6656.95,-216.4 6656.95,-216.4 6656.95,-220.6 6652.75,-224.8 6648.55,-224.8"/>
<text xml:space="preserve" text-anchor="middle" x="6595" y="-209.1" font-family="Helvetica,sans-Serif" font-size="8.00">CI&#45;002&#45;deterministic&#45;scen... · L</text>
</g>
<!-- CORE_agent_handoff_protocol -->
<g id="node54" class="node">
<title>CORE_agent_handoff_protocol</title>
<path fill="#b0d4f1" stroke="black" d="M6769.43,-224.8C6769.43,-224.8 6676.57,-224.8 6676.57,-224.8 6672.38,-224.8 6668.18,-220.6 6668.18,-216.4 6668.18,-216.4 6668.18,-208 6668.18,-208 6668.18,-203.8 6672.38,-199.6 6676.57,-199.6 6676.57,-199.6 6769.43,-199.6 6769.43,-199.6 6773.62,-199.6 6777.82,-203.8 6777.82,-208 6777.82,-208 6777.82,-216.4 6777.82,-216.4 6777.82,-220.6 6773.62,-224.8 6769.43,-224.8"/>
<text xml:space="preserve" text-anchor="middle" x="6723" y="-209.1" font-family="Helvetica,sans-Serif" font-size="8.00">agent&#45;handoff&#45;protocol · M</text>
</g>
<!-- CORE_capture_range -->
<g id="node55" class="node">
<title>CORE_capture_range</title>
<path fill="#d4e8f7" stroke="black" d="M6858.3,-224.8C6858.3,-224.8 6797.7,-224.8 6797.7,-224.8 6793.5,-224.8 6789.3,-220.6 6789.3,-216.4 6789.3,-216.4 6789.3,-208 6789.3,-208 6789.3,-203.8 6793.5,-199.6 6797.7,-199.6 6797.7,-199.6 6858.3,-199.6 6858.3,-199.6 6862.5,-199.6 6866.7,-203.8 6866.7,-208 6866.7,-208 6866.7,-216.4 6866.7,-216.4 6866.7,-220.6 6862.5,-224.8 6858.3,-224.8"/>
<text xml:space="preserve" text-anchor="middle" x="6828" y="-209.1" font-family="Helvetica,sans-Serif" font-size="8.00">capture&#45;range · S</text>
</g>
<!-- CORE_graft_as_teacher -->
<g id="node56" class="node">
<title>CORE_graft_as_teacher</title>
<path fill="#d4e8f7" stroke="black" d="M6953.68,-224.8C6953.68,-224.8 6886.32,-224.8 6886.32,-224.8 6882.12,-224.8 6877.93,-220.6 6877.93,-216.4 6877.93,-216.4 6877.93,-208 6877.93,-208 6877.93,-203.8 6882.12,-199.6 6886.32,-199.6 6886.32,-199.6 6953.68,-199.6 6953.68,-199.6 6957.88,-199.6 6962.07,-203.8 6962.07,-208 6962.07,-208 6962.07,-216.4 6962.07,-216.4 6962.07,-220.6 6957.88,-224.8 6953.68,-224.8"/>
<text xml:space="preserve" text-anchor="middle" x="6920" y="-209.1" font-family="Helvetica,sans-Serif" font-size="8.00">graft&#45;as&#45;teacher · S</text>
</g>
<!-- CORE_graft_teach_learning_receipts -->
<g id="node57" class="node">
<title>CORE_graft_teach_learning_receipts</title>
<path fill="#d4e8f7" stroke="black" d="M7086.8,-224.8C7086.8,-224.8 6981.2,-224.8 6981.2,-224.8 6977,-224.8 6972.8,-220.6 6972.8,-216.4 6972.8,-216.4 6972.8,-208 6972.8,-208 6972.8,-203.8 6977,-199.6 6981.2,-199.6 6981.2,-199.6 7086.8,-199.6 7086.8,-199.6 7091,-199.6 7095.2,-203.8 7095.2,-208 7095.2,-208 7095.2,-216.4 7095.2,-216.4 7095.2,-220.6 7091,-224.8 7086.8,-224.8"/>
<text xml:space="preserve" text-anchor="middle" x="7034" y="-209.1" font-family="Helvetica,sans-Serif" font-size="8.00">graft&#45;teach&#45;learning&#45;rece... · S</text>
</g>
<!-- CORE_structural_session_replay -->
<g id="node58" class="node">
<title>CORE_structural_session_replay</title>
<path fill="#b0d4f1" stroke="black" d="M7213.05,-224.8C7213.05,-224.8 7114.95,-224.8 7114.95,-224.8 7110.75,-224.8 7106.55,-220.6 7106.55,-216.4 7106.55,-216.4 7106.55,-208 7106.55,-208 7106.55,-203.8 7110.75,-199.6 7114.95,-199.6 7114.95,-199.6 7213.05,-199.6 7213.05,-199.6 7217.25,-199.6 7221.45,-203.8 7221.45,-208 7221.45,-208 7221.45,-216.4 7221.45,-216.4 7221.45,-220.6 7217.25,-224.8 7213.05,-224.8"/>
<text xml:space="preserve" text-anchor="middle" x="7164" y="-209.1" font-family="Helvetica,sans-Serif" font-size="8.00">structural&#45;session&#45;replay · M</text>
</g>
<!-- CORE_agent_drift_warning -->
<g id="node59" class="node">
<title>CORE_agent_drift_warning</title>
<path fill="#ffa07a" stroke="black" stroke-width="2" d="M7418.8,-163.6C7418.8,-163.6 7331.2,-163.6 7331.2,-163.6 7327,-163.6 7322.8,-159.4 7322.8,-155.2 7322.8,-155.2 7322.8,-146.8 7322.8,-146.8 7322.8,-142.6 7327,-138.4 7331.2,-138.4 7331.2,-138.4 7418.8,-138.4 7418.8,-138.4 7423,-138.4 7427.2,-142.6 7427.2,-146.8 7427.2,-146.8 7427.2,-155.2 7427.2,-155.2 7427.2,-159.4 7423,-163.6 7418.8,-163.6"/>
<text xml:space="preserve" text-anchor="middle" x="7375" y="-147.9" font-family="Helvetica,sans-Serif" font-size="8.00">agent&#45;drift&#45;warning [v0.7]</text>
</g>
<!-- CORE_multi_agent_conflict_detection -->
<g id="node60" class="node">
<title>CORE_multi_agent_conflict_detection</title>
<path fill="#8ec5e5" stroke="black" stroke-width="2" d="M7354.55,-224.8C7354.55,-224.8 7253.45,-224.8 7253.45,-224.8 7249.25,-224.8 7245.05,-220.6 7245.05,-216.4 7245.05,-216.4 7245.05,-208 7245.05,-208 7245.05,-203.8 7249.25,-199.6 7253.45,-199.6 7253.45,-199.6 7354.55,-199.6 7354.55,-199.6 7358.75,-199.6 7362.95,-203.8 7362.95,-208 7362.95,-208 7362.95,-216.4 7362.95,-216.4 7362.95,-220.6 7358.75,-224.8 7354.55,-224.8"/>
<text xml:space="preserve" text-anchor="middle" x="7304" y="-209.1" font-family="Helvetica,sans-Serif" font-size="8.00">multi&#45;agent&#45;conflict&#45;dete... · L</text>
</g>
<!-- SURFACE_agent_dx_governed_edit -->
<g id="node61" class="node">
<title>SURFACE_agent_dx_governed_edit</title>
<path fill="#ffa07a" stroke="black" stroke-width="2" d="M7485.68,-224.8C7485.68,-224.8 7382.32,-224.8 7382.32,-224.8 7378.12,-224.8 7373.93,-220.6 7373.93,-216.4 7373.93,-216.4 7373.93,-208 7373.93,-208 7373.93,-203.8 7378.12,-199.6 7382.32,-199.6 7382.32,-199.6 7485.68,-199.6 7485.68,-199.6 7489.88,-199.6 7494.07,-203.8 7494.07,-208 7494.07,-208 7494.07,-216.4 7494.07,-216.4 7494.07,-220.6 7489.88,-224.8 7485.68,-224.8"/>
<text xml:space="preserve" text-anchor="middle" x="7434" y="-209.1" font-family="Helvetica,sans-Serif" font-size="8.00">agent&#45;dx&#45;governed&#45;edit [v0.7]</text>
</g>
<!-- SURFACE_agent_dx_governed_edit&#45;&gt;CORE_agent_drift_warning -->
<g id="edge12" class="edge">
<title>SURFACE_agent_dx_governed_edit&#45;&gt;CORE_agent_drift_warning</title>
<path fill="none" stroke="#888888" d="M7421.49,-198.65C7412.88,-190.01 7401.35,-178.44 7391.93,-168.99"/>
<polygon fill="#888888" stroke="#888888" points="7393.33,-167.91 7388.56,-165.61 7390.85,-170.39 7393.33,-167.91"/>
</g>
<!-- SURFACE_governed_write_tools -->
<g id="node62" class="node">
<title>SURFACE_governed_write_tools</title>
<path fill="#ffa07a" stroke="black" stroke-width="2" d="M7539.43,-163.6C7539.43,-163.6 7446.57,-163.6 7446.57,-163.6 7442.38,-163.6 7438.18,-159.4 7438.18,-155.2 7438.18,-155.2 7438.18,-146.8 7438.18,-146.8 7438.18,-142.6 7442.38,-138.4 7446.57,-138.4 7446.57,-138.4 7539.43,-138.4 7539.43,-138.4 7543.62,-138.4 7547.82,-142.6 7547.82,-146.8 7547.82,-146.8 7547.82,-155.2 7547.82,-155.2 7547.82,-159.4 7543.62,-163.6 7539.43,-163.6"/>
<text xml:space="preserve" text-anchor="middle" x="7493" y="-147.9" font-family="Helvetica,sans-Serif" font-size="8.00">governed&#45;write&#45;tools [v0.7]</text>
</g>
<!-- SURFACE_agent_dx_governed_edit&#45;&gt;SURFACE_governed_write_tools -->
<g id="edge13" class="edge">
<title>SURFACE_agent_dx_governed_edit&#45;&gt;SURFACE_governed_write_tools</title>
<path fill="none" stroke="#888888" d="M7446.51,-198.65C7455.12,-190.01 7466.65,-178.44 7476.07,-168.99"/>
<polygon fill="#888888" stroke="#888888" points="7477.15,-170.39 7479.44,-165.61 7474.67,-167.91 7477.15,-170.39"/>
</g>
<!-- CLEAN_CODE_parallel_agent_merge_shared_file_loss -->
<g id="node63" class="node">
<title>CLEAN_CODE_parallel_agent_merge_shared_file_loss</title>
<path fill="#b0d4f1" stroke="black" d="M7624.43,-224.8C7624.43,-224.8 7513.57,-224.8 7513.57,-224.8 7509.38,-224.8 7505.18,-220.6 7505.18,-216.4 7505.18,-216.4 7505.18,-208 7505.18,-208 7505.18,-203.8 7509.38,-199.6 7513.57,-199.6 7513.57,-199.6 7624.43,-199.6 7624.43,-199.6 7628.62,-199.6 7632.82,-203.8 7632.82,-208 7632.82,-208 7632.82,-216.4 7632.82,-216.4 7632.82,-220.6 7628.62,-224.8 7624.43,-224.8"/>
<text xml:space="preserve" text-anchor="middle" x="7569" y="-209.1" font-family="Helvetica,sans-Serif" font-size="8.00">parallel&#45;agent&#45;merge&#45;shar... · M</text>
</g>
<!-- CORE_agent_worktree_hygiene -->
<g id="node64" class="node">
<title>CORE_agent_worktree_hygiene</title>
<path fill="#ffa07a" stroke="black" d="M7757.43,-224.8C7757.43,-224.8 7652.57,-224.8 7652.57,-224.8 7648.38,-224.8 7644.18,-220.6 7644.18,-216.4 7644.18,-216.4 7644.18,-208 7644.18,-208 7644.18,-203.8 7648.38,-199.6 7652.57,-199.6 7652.57,-199.6 7757.43,-199.6 7757.43,-199.6 7761.62,-199.6 7765.82,-203.8 7765.82,-208 7765.82,-208 7765.82,-216.4 7765.82,-216.4 7765.82,-220.6 7761.62,-224.8 7757.43,-224.8"/>
<text xml:space="preserve" text-anchor="middle" x="7705" y="-209.1" font-family="Helvetica,sans-Serif" font-size="8.00">agent&#45;worktree&#45;hygiene [v0.7]</text>
</g>
<!-- WARP_degeneracy_warning -->
<g id="node65" class="node">
<title>WARP_degeneracy_warning</title>
<path fill="#b0d4f1" stroke="black" d="M7870.3,-224.8C7870.3,-224.8 7785.7,-224.8 7785.7,-224.8 7781.5,-224.8 7777.3,-220.6 7777.3,-216.4 7777.3,-216.4 7777.3,-208 7777.3,-208 7777.3,-203.8 7781.5,-199.6 7785.7,-199.6 7785.7,-199.6 7870.3,-199.6 7870.3,-199.6 7874.5,-199.6 7878.7,-203.8 7878.7,-208 7878.7,-208 7878.7,-216.4 7878.7,-216.4 7878.7,-220.6 7874.5,-224.8 7870.3,-224.8"/>
<text xml:space="preserve" text-anchor="middle" x="7828" y="-209.1" font-family="Helvetica,sans-Serif" font-size="8.00">degeneracy&#45;warning · M</text>
</g>
<!-- WARP_intentional_degeneracy_privacy -->
<g id="node66" class="node">
<title>WARP_intentional_degeneracy_privacy</title>
<path fill="#b0d4f1" stroke="black" d="M8006.3,-224.8C8006.3,-224.8 7897.7,-224.8 7897.7,-224.8 7893.5,-224.8 7889.3,-220.6 7889.3,-216.4 7889.3,-216.4 7889.3,-208 7889.3,-208 7889.3,-203.8 7893.5,-199.6 7897.7,-199.6 7897.7,-199.6 8006.3,-199.6 8006.3,-199.6 8010.5,-199.6 8014.7,-203.8 8014.7,-208 8014.7,-208 8014.7,-216.4 8014.7,-216.4 8014.7,-220.6 8010.5,-224.8 8006.3,-224.8"/>
<text xml:space="preserve" text-anchor="middle" x="7952" y="-209.1" font-family="Helvetica,sans-Serif" font-size="8.00">intentional&#45;degeneracy&#45;pr... · M</text>
</g>
<!-- SURFACE_active_causal_workspace_status -->
<g id="node67" class="node">
<title>SURFACE_active_causal_workspace_status</title>
<path fill="#b0d4f1" stroke="black" stroke-width="2" d="M387.8,-224.8C387.8,-224.8 276.2,-224.8 276.2,-224.8 272,-224.8 267.8,-220.6 267.8,-216.4 267.8,-216.4 267.8,-208 267.8,-208 267.8,-203.8 272,-199.6 276.2,-199.6 276.2,-199.6 387.8,-199.6 387.8,-199.6 392,-199.6 396.2,-203.8 396.2,-208 396.2,-208 396.2,-216.4 396.2,-216.4 396.2,-220.6 392,-224.8 387.8,-224.8"/>
<text xml:space="preserve" text-anchor="middle" x="332" y="-209.1" font-family="Helvetica,sans-Serif" font-size="8.00">active&#45;causal&#45;workspace&#45;s... · M</text>
</g>
<!-- SURFACE_ide_native_graft_integration -->
<g id="node68" class="node">
<title>SURFACE_ide_native_graft_integration</title>
<path fill="#7eb6e0" stroke="black" stroke-width="2" d="M386.3,-163.6C386.3,-163.6 277.7,-163.6 277.7,-163.6 273.5,-163.6 269.3,-159.4 269.3,-155.2 269.3,-155.2 269.3,-146.8 269.3,-146.8 269.3,-142.6 273.5,-138.4 277.7,-138.4 277.7,-138.4 386.3,-138.4 386.3,-138.4 390.5,-138.4 394.7,-142.6 394.7,-146.8 394.7,-146.8 394.7,-155.2 394.7,-155.2 394.7,-159.4 390.5,-163.6 386.3,-163.6"/>
<text xml:space="preserve" text-anchor="middle" x="332" y="-147.9" font-family="Helvetica,sans-Serif" font-size="8.00">ide&#45;native&#45;graft&#45;integration · XL</text>
</g>
<!-- SURFACE_active_causal_workspace_status&#45;&gt;SURFACE_ide_native_graft_integration -->
<g id="edge7" class="edge">
<title>SURFACE_active_causal_workspace_status&#45;&gt;SURFACE_ide_native_graft_integration</title>
<path fill="none" stroke="#888888" d="M332,-198.65C332,-190.56 332,-179.9 332,-170.82"/>
<polygon fill="#888888" stroke="#888888" points="333.75,-171.05 332,-166.05 330.25,-171.05 333.75,-171.05"/>
</g>
<!-- CI_003_mcp_native_diff_protocol -->
<g id="node69" class="node">
<title>CI_003_mcp_native_diff_protocol</title>
<path fill="#b0d4f1" stroke="black" d="M523.93,-224.8C523.93,-224.8 416.07,-224.8 416.07,-224.8 411.88,-224.8 407.68,-220.6 407.68,-216.4 407.68,-216.4 407.68,-208 407.68,-208 407.68,-203.8 411.88,-199.6 416.07,-199.6 416.07,-199.6 523.93,-199.6 523.93,-199.6 528.12,-199.6 532.33,-203.8 532.33,-208 532.33,-208 532.33,-216.4 532.33,-216.4 532.33,-220.6 528.12,-224.8 523.93,-224.8"/>
<text xml:space="preserve" text-anchor="middle" x="470" y="-209.1" font-family="Helvetica,sans-Serif" font-size="8.00">CI&#45;003&#45;mcp&#45;native&#45;diff&#45;pr... · M</text>
</g>
<!-- CORE_pr_review_structural_summary -->
<g id="node71" class="node">
<title>CORE_pr_review_structural_summary</title>
<path fill="#b0d4f1" stroke="black" d="M668.43,-224.8C668.43,-224.8 551.57,-224.8 551.57,-224.8 547.38,-224.8 543.17,-220.6 543.17,-216.4 543.17,-216.4 543.17,-208 543.17,-208 543.17,-203.8 547.38,-199.6 551.57,-199.6 551.57,-199.6 668.43,-199.6 668.43,-199.6 672.62,-199.6 676.83,-203.8 676.83,-208 676.83,-208 676.83,-216.4 676.83,-216.4 676.83,-220.6 672.62,-224.8 668.43,-224.8"/>
<text xml:space="preserve" text-anchor="middle" x="610" y="-209.1" font-family="Helvetica,sans-Serif" font-size="8.00">pr&#45;review&#45;structural&#45;summary · M</text>
</g>
<!-- CORE_structural_test_coverage_map -->
<g id="node72" class="node">
<title>CORE_structural_test_coverage_map</title>
<path fill="#b0d4f1" stroke="black" d="M811.3,-224.8C811.3,-224.8 696.7,-224.8 696.7,-224.8 692.5,-224.8 688.3,-220.6 688.3,-216.4 688.3,-216.4 688.3,-208 688.3,-208 688.3,-203.8 692.5,-199.6 696.7,-199.6 696.7,-199.6 811.3,-199.6 811.3,-199.6 815.5,-199.6 819.7,-203.8 819.7,-208 819.7,-208 819.7,-216.4 819.7,-216.4 819.7,-220.6 815.5,-224.8 811.3,-224.8"/>
<text xml:space="preserve" text-anchor="middle" x="754" y="-209.1" font-family="Helvetica,sans-Serif" font-size="8.00">structural&#45;test&#45;coverage&#45;map · M</text>
</g>
<!-- SURFACE_attach_to_existing_causal_session -->
<g id="node73" class="node">
<title>SURFACE_attach_to_existing_causal_session</title>
<path fill="#b0d4f1" stroke="black" d="M943.05,-224.8C943.05,-224.8 838.95,-224.8 838.95,-224.8 834.75,-224.8 830.55,-220.6 830.55,-216.4 830.55,-216.4 830.55,-208 830.55,-208 830.55,-203.8 834.75,-199.6 838.95,-199.6 838.95,-199.6 943.05,-199.6 943.05,-199.6 947.25,-199.6 951.45,-203.8 951.45,-208 951.45,-208 951.45,-216.4 951.45,-216.4 951.45,-220.6 947.25,-224.8 943.05,-224.8"/>
<text xml:space="preserve" text-anchor="middle" x="891" y="-209.1" font-family="Helvetica,sans-Serif" font-size="8.00">attach&#45;to&#45;existing&#45;causal... · M</text>
</g>
<!-- SURFACE_local_history_dag_render_mode_and_count_legend -->
<g id="node74" class="node">
<title>SURFACE_local_history_dag_render_mode_and_count_legend</title>
<path fill="#d4e8f7" stroke="black" d="M1075.42,-224.8C1075.42,-224.8 970.57,-224.8 970.57,-224.8 966.38,-224.8 962.17,-220.6 962.17,-216.4 962.17,-216.4 962.17,-208 962.17,-208 962.17,-203.8 966.38,-199.6 970.57,-199.6 970.57,-199.6 1075.42,-199.6 1075.42,-199.6 1079.62,-199.6 1083.83,-203.8 1083.83,-208 1083.83,-208 1083.83,-216.4 1083.83,-216.4 1083.83,-220.6 1079.62,-224.8 1075.42,-224.8"/>
<text xml:space="preserve" text-anchor="middle" x="1023" y="-209.1" font-family="Helvetica,sans-Serif" font-size="8.00">local&#45;history&#45;dag&#45;render&#45;... · S</text>
</g>
<!-- SURFACE_non_codex_instruction_bootstrap_parity -->
<g id="node75" class="node">
<title>SURFACE_non_codex_instruction_bootstrap_parity</title>
<path fill="#b0d4f1" stroke="black" d="M1214.42,-224.8C1214.42,-224.8 1103.58,-224.8 1103.58,-224.8 1099.38,-224.8 1095.17,-220.6 1095.17,-216.4 1095.17,-216.4 1095.17,-208 1095.17,-208 1095.17,-203.8 1099.38,-199.6 1103.58,-199.6 1103.58,-199.6 1214.42,-199.6 1214.42,-199.6 1218.62,-199.6 1222.83,-203.8 1222.83,-208 1222.83,-208 1222.83,-216.4 1222.83,-216.4 1222.83,-220.6 1218.62,-224.8 1214.42,-224.8"/>
<text xml:space="preserve" text-anchor="middle" x="1159" y="-209.1" font-family="Helvetica,sans-Serif" font-size="8.00">non&#45;codex&#45;instruction&#45;boo... · M</text>
</g>
<!-- SURFACE_offer_rename_refactor -->
<g id="node76" class="node">
<title>SURFACE_offer_rename_refactor</title>
<path fill="#8ec5e5" stroke="black" d="M1329.42,-224.8C1329.42,-224.8 1242.58,-224.8 1242.58,-224.8 1238.38,-224.8 1234.17,-220.6 1234.17,-216.4 1234.17,-216.4 1234.17,-208 1234.17,-208 1234.17,-203.8 1238.38,-199.6 1242.58,-199.6 1242.58,-199.6 1329.42,-199.6 1329.42,-199.6 1333.62,-199.6 1337.83,-203.8 1337.83,-208 1337.83,-208 1337.83,-216.4 1337.83,-216.4 1337.83,-220.6 1333.62,-224.8 1329.42,-224.8"/>
<text xml:space="preserve" text-anchor="middle" x="1286" y="-209.1" font-family="Helvetica,sans-Serif" font-size="8.00">offer&#45;rename&#45;refactor · L</text>
</g>
<!-- SURFACE_terminal_activity_browser_tui -->
<g id="node77" class="node">
<title>SURFACE_terminal_activity_browser_tui</title>
<path fill="#8ec5e5" stroke="black" d="M1458.92,-224.8C1458.92,-224.8 1357.08,-224.8 1357.08,-224.8 1352.88,-224.8 1348.67,-220.6 1348.67,-216.4 1348.67,-216.4 1348.67,-208 1348.67,-208 1348.67,-203.8 1352.88,-199.6 1357.08,-199.6 1357.08,-199.6 1458.92,-199.6 1458.92,-199.6 1463.12,-199.6 1467.33,-203.8 1467.33,-208 1467.33,-208 1467.33,-216.4 1467.33,-216.4 1467.33,-220.6 1463.12,-224.8 1458.92,-224.8"/>
<text xml:space="preserve" text-anchor="middle" x="1408" y="-209.1" font-family="Helvetica,sans-Serif" font-size="8.00">terminal&#45;activity&#45;browser... · L</text>
</g>
<!-- WARP_graft_pack -->
<g id="node78" class="node">
<title>WARP_graft_pack</title>
<path fill="#b0d4f1" stroke="black" d="M1533.55,-224.8C1533.55,-224.8 1486.45,-224.8 1486.45,-224.8 1482.25,-224.8 1478.05,-220.6 1478.05,-216.4 1478.05,-216.4 1478.05,-208 1478.05,-208 1478.05,-203.8 1482.25,-199.6 1486.45,-199.6 1486.45,-199.6 1533.55,-199.6 1533.55,-199.6 1537.75,-199.6 1541.95,-203.8 1541.95,-208 1541.95,-208 1541.95,-216.4 1541.95,-216.4 1541.95,-220.6 1537.75,-224.8 1533.55,-224.8"/>
<text xml:space="preserve" text-anchor="middle" x="1510" y="-209.1" font-family="Helvetica,sans-Serif" font-size="8.00">graft&#45;pack · M</text>
</g>
<!-- WARP_lsp_enrichment -->
<g id="node79" class="node">
<title>WARP_lsp_enrichment</title>
<path fill="#ffa07a" stroke="black" d="M1632.92,-224.8C1632.92,-224.8 1561.08,-224.8 1561.08,-224.8 1556.88,-224.8 1552.67,-220.6 1552.67,-216.4 1552.67,-216.4 1552.67,-208 1552.67,-208 1552.67,-203.8 1556.88,-199.6 1561.08,-199.6 1561.08,-199.6 1632.92,-199.6 1632.92,-199.6 1637.12,-199.6 1641.33,-203.8 1641.33,-208 1641.33,-208 1641.33,-216.4 1641.33,-216.4 1641.33,-220.6 1637.12,-224.8 1632.92,-224.8"/>
<text xml:space="preserve" text-anchor="middle" x="1597" y="-209.1" font-family="Helvetica,sans-Serif" font-size="8.00">lsp&#45;enrichment [v0.7]</text>
</g>
<!-- CORE_daemon_aware_stdio_bridge_for_mcp_clients -->
<g id="node80" class="node">
<title>CORE_daemon_aware_stdio_bridge_for_mcp_clients</title>
<path fill="#ffa07a" stroke="black" stroke-width="2" d="M8175.93,-224.8C8175.93,-224.8 8050.07,-224.8 8050.07,-224.8 8045.88,-224.8 8041.68,-220.6 8041.68,-216.4 8041.68,-216.4 8041.68,-208 8041.68,-208 8041.68,-203.8 8045.88,-199.6 8050.07,-199.6 8050.07,-199.6 8175.93,-199.6 8175.93,-199.6 8180.12,-199.6 8184.32,-203.8 8184.32,-208 8184.32,-208 8184.32,-216.4 8184.32,-216.4 8184.32,-220.6 8180.12,-224.8 8175.93,-224.8"/>
<text xml:space="preserve" text-anchor="middle" x="8113" y="-209.1" font-family="Helvetica,sans-Serif" font-size="8.00">daemon&#45;aware&#45;stdio&#45;bridge... [v0.7]</text>
</g>
<!-- CORE_opt_in_daemon_mode_mcp_bootstrap -->
<g id="node81" class="node">
<title>CORE_opt_in_daemon_mode_mcp_bootstrap</title>
<path fill="#ffa07a" stroke="black" stroke-width="2" d="M8178.93,-163.6C8178.93,-163.6 8047.07,-163.6 8047.07,-163.6 8042.88,-163.6 8038.68,-159.4 8038.68,-155.2 8038.68,-155.2 8038.68,-146.8 8038.68,-146.8 8038.68,-142.6 8042.88,-138.4 8047.07,-138.4 8047.07,-138.4 8178.93,-138.4 8178.93,-138.4 8183.12,-138.4 8187.32,-142.6 8187.32,-146.8 8187.32,-146.8 8187.32,-155.2 8187.32,-155.2 8187.32,-159.4 8183.12,-163.6 8178.93,-163.6"/>
<text xml:space="preserve" text-anchor="middle" x="8113" y="-147.9" font-family="Helvetica,sans-Serif" font-size="8.00">opt&#45;in&#45;daemon&#45;mode&#45;mcp&#45;bo... [v0.7]</text>
</g>
<!-- CORE_daemon_aware_stdio_bridge_for_mcp_clients&#45;&gt;CORE_opt_in_daemon_mode_mcp_bootstrap -->
<g id="edge11" class="edge">
<title>CORE_daemon_aware_stdio_bridge_for_mcp_clients&#45;&gt;CORE_opt_in_daemon_mode_mcp_bootstrap</title>
<path fill="none" stroke="#888888" d="M8113,-198.65C8113,-190.56 8113,-179.9 8113,-170.82"/>
<polygon fill="#888888" stroke="#888888" points="8114.75,-171.05 8113,-166.05 8111.25,-171.05 8114.75,-171.05"/>
</g>
<!-- SURFACE_bijou_tui_for_graft_daemon_control_plane -->
<g id="node82" class="node">
<title>SURFACE_bijou_tui_for_graft_daemon_control_plane</title>
<path fill="#ffa07a" stroke="black" d="M8169.93,-102.4C8169.93,-102.4 8056.07,-102.4 8056.07,-102.4 8051.88,-102.4 8047.68,-98.2 8047.68,-94 8047.68,-94 8047.68,-85.6 8047.68,-85.6 8047.68,-81.4 8051.88,-77.2 8056.07,-77.2 8056.07,-77.2 8169.93,-77.2 8169.93,-77.2 8174.12,-77.2 8178.32,-81.4 8178.32,-85.6 8178.32,-85.6 8178.32,-94 8178.32,-94 8178.32,-98.2 8174.12,-102.4 8169.93,-102.4"/>
<text xml:space="preserve" text-anchor="middle" x="8113" y="-86.7" font-family="Helvetica,sans-Serif" font-size="8.00">bijou&#45;tui&#45;for&#45;graft&#45;daemo... [v0.7]</text>
</g>
<!-- CORE_opt_in_daemon_mode_mcp_bootstrap&#45;&gt;SURFACE_bijou_tui_for_graft_daemon_control_plane -->
<g id="edge10" class="edge">
<title>CORE_opt_in_daemon_mode_mcp_bootstrap&#45;&gt;SURFACE_bijou_tui_for_graft_daemon_control_plane</title>
<path fill="none" stroke="#888888" d="M8113,-137.45C8113,-129.14 8113,-118.13 8113,-108.88"/>
<polygon fill="#888888" stroke="#888888" points="8114.75,-109.04 8113,-104.04 8111.25,-109.04 8114.75,-109.04"/>
</g>
<!-- leg_trunk -->
<g id="node83" class="node">
<title>leg_trunk</title>
<path fill="#b0d4f1" stroke="black" stroke-width="2" d="M8267,-224.8C8267,-224.8 8219,-224.8 8219,-224.8 8214.8,-224.8 8210.6,-220.6 8210.6,-216.4 8210.6,-216.4 8210.6,-208 8210.6,-208 8210.6,-203.8 8214.8,-199.6 8219,-199.6 8219,-199.6 8267,-199.6 8267,-199.6 8271.2,-199.6 8275.4,-203.8 8275.4,-208 8275.4,-208 8275.4,-216.4 8275.4,-216.4 8275.4,-220.6 8271.2,-224.8 8267,-224.8"/>
<text xml:space="preserve" text-anchor="middle" x="8243" y="-209.67" font-family="Helvetica,sans-Serif" font-size="7.00">trunk (bold)</text>
</g>
<!-- leg_leaf -->
<g id="node84" class="node">
<title>leg_leaf</title>
<path fill="#b0d4f1" stroke="black" d="M8267,-163.6C8267,-163.6 8219,-163.6 8219,-163.6 8214.8,-163.6 8210.6,-159.4 8210.6,-155.2 8210.6,-155.2 8210.6,-146.8 8210.6,-146.8 8210.6,-142.6 8214.8,-138.4 8219,-138.4 8219,-138.4 8267,-138.4 8267,-138.4 8271.2,-138.4 8275.4,-142.6 8275.4,-146.8 8275.4,-146.8 8275.4,-155.2 8275.4,-155.2 8275.4,-159.4 8271.2,-163.6 8267,-163.6"/>
<text xml:space="preserve" text-anchor="middle" x="8243" y="-148.47" font-family="Helvetica,sans-Serif" font-size="7.00">leaf (thin)</text>
</g>
<!-- leg_trunk&#45;&gt;leg_leaf -->
<!-- leg_v07 -->
<g id="node85" class="node">
<title>leg_v07</title>
<path fill="#ffa07a" stroke="black" d="M8267,-102.4C8267,-102.4 8219,-102.4 8219,-102.4 8214.8,-102.4 8210.6,-98.2 8210.6,-94 8210.6,-94 8210.6,-85.6 8210.6,-85.6 8210.6,-81.4 8214.8,-77.2 8219,-77.2 8219,-77.2 8267,-77.2 8267,-77.2 8271.2,-77.2 8275.4,-81.4 8275.4,-85.6 8275.4,-85.6 8275.4,-94 8275.4,-94 8275.4,-98.2 8271.2,-102.4 8267,-102.4"/>
<text xml:space="preserve" text-anchor="middle" x="8243" y="-87.28" font-family="Helvetica,sans-Serif" font-size="7.00">v0.7.0</text>
</g>
<!-- leg_leaf&#45;&gt;leg_v07 -->
<!-- leg_seam -->
<g id="node86" class="node">
<title>leg_seam</title>
<path fill="white" stroke="black" d="M8267,-41.2C8267,-41.2 8219,-41.2 8219,-41.2 8214.8,-41.2 8210.6,-37 8210.6,-32.8 8210.6,-32.8 8210.6,-24.4 8210.6,-24.4 8210.6,-20.2 8214.8,-16 8219,-16 8219,-16 8267,-16 8267,-16 8271.2,-16 8275.4,-20.2 8275.4,-24.4 8275.4,-24.4 8275.4,-32.8 8275.4,-32.8 8275.4,-37 8271.2,-41.2 8267,-41.2"/>
<text xml:space="preserve" text-anchor="middle" x="8243" y="-30.2" font-family="Helvetica,sans-Serif" font-size="7.00">cross&#45;feature</text>
<text xml:space="preserve" text-anchor="middle" x="8243" y="-21.95" font-family="Helvetica,sans-Serif" font-size="7.00">seam</text>
</g>
<!-- leg_v07&#45;&gt;leg_seam -->
</g>
</svg>
