<?xml version="1.0" encoding="UTF-8" standalone="no"?>
<!DOCTYPE svg PUBLIC "-//W3C//DTD SVG 1.1//EN"
 "http://www.w3.org/Graphics/SVG/1.1/DTD/svg11.dtd">
<!-- Generated by graphviz version 14.1.2 (20260124.0452)
 -->
<!-- Title: backlog Pages: 1 -->
<svg width="10700pt" height="383pt"
 viewBox="0.00 0.00 10700.00 383.00" xmlns="http://www.w3.org/2000/svg" xmlns:xlink="http://www.w3.org/1999/xlink">
<g id="graph0" class="graph" transform="scale(1 1) rotate(0) translate(4 379)">
<title>backlog</title>
<polygon fill="white" stroke="none" points="-4,4 -4,-379 10696,-379 10696,4 -4,4"/>
<text xml:space="preserve" text-anchor="middle" x="5346" y="-359.6" font-family="Helvetica,sans-Serif" font-size="12.00">Active backlog graph generated from docs/method/backlog/*/*.md</text>
<g id="clust1" class="cluster">
<title>cluster_v0_7_0</title>
<path fill="#fafafa" stroke="#cccccc" d="M20,-213.85C20,-213.85 519,-213.85 519,-213.85 525,-213.85 531,-219.85 531,-225.85 531,-225.85 531,-334.25 531,-334.25 531,-340.25 525,-346.25 519,-346.25 519,-346.25 20,-346.25 20,-346.25 14,-346.25 8,-340.25 8,-334.25 8,-334.25 8,-225.85 8,-225.85 8,-219.85 14,-213.85 20,-213.85"/>
<text xml:space="preserve" text-anchor="middle" x="35.12" y="-333.7" font-family="Helvetica,sans-Serif" font-size="9.00" fill="#555555">v0.7.0 (7)</text>
</g>
<g id="clust2" class="cluster">
<title>cluster_cool_ideas</title>
<path fill="#fafafa" stroke="#cccccc" d="M755,-140.4C755,-140.4 10284,-140.4 10284,-140.4 10290,-140.4 10296,-146.4 10296,-152.4 10296,-152.4 10296,-334.25 10296,-334.25 10296,-340.25 10290,-346.25 10284,-346.25 10284,-346.25 755,-346.25 755,-346.25 749,-346.25 743,-340.25 743,-334.25 743,-334.25 743,-152.4 743,-152.4 743,-146.4 749,-140.4 755,-140.4"/>
<text xml:space="preserve" text-anchor="middle" x="782.5" y="-333.7" font-family="Helvetica,sans-Serif" font-size="9.00" fill="#555555">Cool Ideas (75)</text>
</g>
<g id="clust3" class="cluster">
<title>cluster_external</title>
<path fill="#f8fbff" stroke="#cccccc" d="M551,-287.3C551,-287.3 723,-287.3 723,-287.3 729,-287.3 735,-293.3 735,-299.3 735,-299.3 735,-334.25 735,-334.25 735,-340.25 729,-346.25 723,-346.25 723,-346.25 551,-346.25 551,-346.25 545,-346.25 539,-340.25 539,-334.25 539,-334.25 539,-299.3 539,-299.3 539,-293.3 545,-287.3 551,-287.3"/>
<text xml:space="preserve" text-anchor="middle" x="582.25" y="-333.7" font-family="Helvetica,sans-Serif" font-size="9.00" fill="#555555">External blockers</text>
</g>
<g id="clust4" class="cluster">
<title>cluster_unresolved</title>
<path fill="#fff7f7" stroke="#cc3333" stroke-dasharray="5,2" d="M10316,-287.3C10316,-287.3 10548,-287.3 10548,-287.3 10554,-287.3 10560,-293.3 10560,-299.3 10560,-299.3 10560,-334.25 10560,-334.25 10560,-340.25 10554,-346.25 10548,-346.25 10548,-346.25 10316,-346.25 10316,-346.25 10310,-346.25 10304,-340.25 10304,-334.25 10304,-334.25 10304,-299.3 10304,-299.3 10304,-293.3 10310,-287.3 10316,-287.3"/>
<text xml:space="preserve" text-anchor="middle" x="10360.75" y="-333.7" font-family="Helvetica,sans-Serif" font-size="9.00" fill="#555555">Unresolved internal refs</text>
</g>
<g id="clust5" class="cluster">
<title>cluster_legend</title>
<path fill="none" stroke="#dddddd" d="M10580,-8C10580,-8 10672,-8 10672,-8 10678,-8 10684,-14 10684,-20 10684,-20 10684,-333.5 10684,-333.5 10684,-339.5 10678,-345.5 10672,-345.5 10672,-345.5 10580,-345.5 10580,-345.5 10574,-345.5 10568,-339.5 10568,-333.5 10568,-333.5 10568,-20 10568,-20 10568,-14 10574,-8 10580,-8"/>
<text xml:space="preserve" text-anchor="middle" x="10589.5" y="-333.9" font-family="Helvetica,sans-Serif" font-size="8.00" fill="#aaaaaa">Legend</text>
</g>
<!-- v0_7_0_CORE_agent_drift_warning -->
<g id="node1" class="node">
<title>v0_7_0_CORE_agent_drift_warning</title>
<path fill="#ffa07a" stroke="black" stroke-width="2" d="M223.05,-247.05C223.05,-247.05 130.95,-247.05 130.95,-247.05 126.75,-247.05 122.55,-242.85 122.55,-238.65 122.55,-238.65 122.55,-230.25 122.55,-230.25 122.55,-226.05 126.75,-221.85 130.95,-221.85 130.95,-221.85 223.05,-221.85 223.05,-221.85 227.25,-221.85 231.45,-226.05 231.45,-230.25 231.45,-230.25 231.45,-238.65 231.45,-238.65 231.45,-242.85 227.25,-247.05 223.05,-247.05"/>
<text xml:space="preserve" text-anchor="middle" x="177" y="-231.35" font-family="Helvetica,sans-Serif" font-size="8.00">CORE&#45;agent&#45;drift&#45;warning</text>
</g>
<!-- v0_7_0_CORE_git_graft_enhance -->
<g id="node2" class="node">
<title>v0_7_0_CORE_git_graft_enhance</title>
<path fill="#ffa07a" stroke="black" stroke-width="2" d="M109.67,-320.5C109.67,-320.5 24.33,-320.5 24.33,-320.5 20.13,-320.5 15.92,-316.3 15.92,-312.1 15.92,-312.1 15.92,-303.7 15.92,-303.7 15.92,-299.5 20.13,-295.3 24.33,-295.3 24.33,-295.3 109.67,-295.3 109.67,-295.3 113.87,-295.3 118.08,-299.5 118.08,-303.7 118.08,-303.7 118.08,-312.1 118.08,-312.1 118.08,-316.3 113.88,-320.5 109.67,-320.5"/>
<text xml:space="preserve" text-anchor="middle" x="67" y="-304.8" font-family="Helvetica,sans-Serif" font-size="8.00">CORE&#45;git&#45;graft&#45;enhance</text>
</g>
<!-- v0_7_0_CORE_migrate_path_ops_to_port -->
<g id="node3" class="node">
<title>v0_7_0_CORE_migrate_path_ops_to_port</title>
<path fill="#ffa07a" stroke="black" stroke-width="2" d="M253.17,-320.5C253.17,-320.5 140.83,-320.5 140.83,-320.5 136.63,-320.5 132.43,-316.3 132.43,-312.1 132.43,-312.1 132.43,-303.7 132.43,-303.7 132.43,-299.5 136.63,-295.3 140.83,-295.3 140.83,-295.3 253.17,-295.3 253.17,-295.3 257.38,-295.3 261.57,-299.5 261.57,-303.7 261.57,-303.7 261.57,-312.1 261.57,-312.1 261.57,-316.3 257.38,-320.5 253.17,-320.5"/>
<text xml:space="preserve" text-anchor="middle" x="197" y="-304.8" font-family="Helvetica,sans-Serif" font-size="8.00">CORE&#45;migrate&#45;path&#45;ops&#45;to&#45;port</text>
</g>
<!-- v0_7_0_CORE_migrate_to_slice_first_reads -->
<g id="node4" class="node">
<title>v0_7_0_CORE_migrate_to_slice_first_reads</title>
<path fill="#ffa07a" stroke="black" stroke-width="2" d="M514.8,-247.05C514.8,-247.05 397.2,-247.05 397.2,-247.05 393,-247.05 388.8,-242.85 388.8,-238.65 388.8,-238.65 388.8,-230.25 388.8,-230.25 388.8,-226.05 393,-221.85 397.2,-221.85 397.2,-221.85 514.8,-221.85 514.8,-221.85 519,-221.85 523.2,-226.05 523.2,-230.25 523.2,-230.25 523.2,-238.65 523.2,-238.65 523.2,-242.85 519,-247.05 514.8,-247.05"/>
<text xml:space="preserve" text-anchor="middle" x="456" y="-231.35" font-family="Helvetica,sans-Serif" font-size="8.00">CORE&#45;migrate&#45;to&#45;slice&#45;first&#45;reads</text>
</g>
<!-- v0_7_0_SURFACE_agent_dx_governed_edit -->
<g id="node5" class="node">
<title>v0_7_0_SURFACE_agent_dx_governed_edit</title>
<path fill="#ffa07a" stroke="black" stroke-width="2" d="M406.42,-320.5C406.42,-320.5 283.58,-320.5 283.58,-320.5 279.38,-320.5 275.18,-316.3 275.18,-312.1 275.18,-312.1 275.18,-303.7 275.18,-303.7 275.18,-299.5 279.38,-295.3 283.58,-295.3 283.58,-295.3 406.42,-295.3 406.42,-295.3 410.62,-295.3 414.82,-299.5 414.82,-303.7 414.82,-303.7 414.82,-312.1 414.82,-312.1 414.82,-316.3 410.62,-320.5 406.42,-320.5"/>
<text xml:space="preserve" text-anchor="middle" x="345" y="-304.8" font-family="Helvetica,sans-Serif" font-size="8.00">SURFACE&#45;agent&#45;dx&#45;governed&#45;edit</text>
</g>
<!-- v0_7_0_SURFACE_agent_dx_governed_edit&#45;&gt;v0_7_0_CORE_agent_drift_warning -->
<g id="edge16" class="edge">
<title>v0_7_0_SURFACE_agent_dx_governed_edit&#45;&gt;v0_7_0_CORE_agent_drift_warning</title>
<path fill="none" stroke="#666666" d="M309.15,-294.4C293.87,-288.86 275.94,-282.07 260,-275.3 242.18,-267.73 222.64,-258.4 207,-250.67"/>
<polygon fill="#666666" stroke="#666666" points="208.04,-249.23 202.78,-248.58 206.48,-252.37 208.04,-249.23"/>
<text xml:space="preserve" text-anchor="middle" x="291.5" y="-268.65" font-family="Helvetica,sans-Serif" font-size="7.00">blocked_by/blocking</text>
</g>
<!-- v0_7_0_SURFACE_governed_write_tools -->
<g id="node6" class="node">
<title>v0_7_0_SURFACE_governed_write_tools</title>
<path fill="#ffa07a" stroke="black" stroke-width="2" d="M366.18,-247.05C366.18,-247.05 253.83,-247.05 253.83,-247.05 249.62,-247.05 245.43,-242.85 245.43,-238.65 245.43,-238.65 245.43,-230.25 245.43,-230.25 245.43,-226.05 249.62,-221.85 253.83,-221.85 253.83,-221.85 366.18,-221.85 366.18,-221.85 370.38,-221.85 374.57,-226.05 374.57,-230.25 374.57,-230.25 374.57,-238.65 374.57,-238.65 374.57,-242.85 370.38,-247.05 366.18,-247.05"/>
<text xml:space="preserve" text-anchor="middle" x="310" y="-231.35" font-family="Helvetica,sans-Serif" font-size="8.00">SURFACE&#45;governed&#45;write&#45;tools</text>
</g>
<!-- v0_7_0_SURFACE_agent_dx_governed_edit&#45;&gt;v0_7_0_SURFACE_governed_write_tools -->
<g id="edge17" class="edge">
<title>v0_7_0_SURFACE_agent_dx_governed_edit&#45;&gt;v0_7_0_SURFACE_governed_write_tools</title>
<path fill="none" stroke="#666666" d="M338.9,-294.45C333.33,-283.08 325.03,-266.13 318.75,-253.32"/>
<polygon fill="#666666" stroke="#666666" points="320.46,-252.83 316.69,-249.11 317.32,-254.37 320.46,-252.83"/>
<text xml:space="preserve" text-anchor="middle" x="360.05" y="-268.65" font-family="Helvetica,sans-Serif" font-size="7.00">blocked_by/blocking</text>
</g>
<!-- v0_7_0_WARP_lsp_enrichment -->
<g id="node7" class="node">
<title>v0_7_0_WARP_lsp_enrichment</title>
<path fill="#ffa07a" stroke="black" stroke-width="2" d="M514.55,-320.5C514.55,-320.5 437.45,-320.5 437.45,-320.5 433.25,-320.5 429.05,-316.3 429.05,-312.1 429.05,-312.1 429.05,-303.7 429.05,-303.7 429.05,-299.5 433.25,-295.3 437.45,-295.3 437.45,-295.3 514.55,-295.3 514.55,-295.3 518.75,-295.3 522.95,-299.5 522.95,-303.7 522.95,-303.7 522.95,-312.1 522.95,-312.1 522.95,-316.3 518.75,-320.5 514.55,-320.5"/>
<text xml:space="preserve" text-anchor="middle" x="476" y="-304.8" font-family="Helvetica,sans-Serif" font-size="8.00">WARP&#45;lsp&#45;enrichment</text>
</g>
<!-- cool_ideas_bounded_neighborhood_for_references -->
<g id="node8" class="node">
<title>cool_ideas_bounded_neighborhood_for_references</title>
<path fill="#d4e8f7" stroke="black" d="M908.18,-320.5C908.18,-320.5 759.82,-320.5 759.82,-320.5 755.62,-320.5 751.42,-316.3 751.42,-312.1 751.42,-312.1 751.42,-303.7 751.42,-303.7 751.42,-299.5 755.62,-295.3 759.82,-295.3 759.82,-295.3 908.18,-295.3 908.18,-295.3 912.38,-295.3 916.58,-299.5 916.58,-303.7 916.58,-303.7 916.58,-312.1 916.58,-312.1 916.58,-316.3 912.38,-320.5 908.18,-320.5"/>
<text xml:space="preserve" text-anchor="middle" x="834" y="-304.8" font-family="Helvetica,sans-Serif" font-size="8.00">bounded&#45;neighborhood&#45;for&#45;references &#45; S</text>
</g>
<!-- cool_ideas_CI_001_causal_collapse_visualizer -->
<g id="node9" class="node">
<title>cool_ideas_CI_001_causal_collapse_visualizer</title>
<path fill="#d4e8f7" stroke="black" d="M7182.3,-247.05C7182.3,-247.05 7055.7,-247.05 7055.7,-247.05 7051.5,-247.05 7047.3,-242.85 7047.3,-238.65 7047.3,-238.65 7047.3,-230.25 7047.3,-230.25 7047.3,-226.05 7051.5,-221.85 7055.7,-221.85 7055.7,-221.85 7182.3,-221.85 7182.3,-221.85 7186.5,-221.85 7190.7,-226.05 7190.7,-230.25 7190.7,-230.25 7190.7,-238.65 7190.7,-238.65 7190.7,-242.85 7186.5,-247.05 7182.3,-247.05"/>
<text xml:space="preserve" text-anchor="middle" x="7119" y="-231.35" font-family="Helvetica,sans-Serif" font-size="8.00">CI&#45;001&#45;causal&#45;collapse&#45;visualizer &#45; L</text>
</g>
<!-- cool_ideas_CI_002_deterministic_scenario_replay -->
<g id="node10" class="node">
<title>cool_ideas_CI_002_deterministic_scenario_replay</title>
<path fill="#d4e8f7" stroke="black" d="M1078.67,-320.5C1078.67,-320.5 939.32,-320.5 939.32,-320.5 935.12,-320.5 930.92,-316.3 930.92,-312.1 930.92,-312.1 930.92,-303.7 930.92,-303.7 930.92,-299.5 935.12,-295.3 939.32,-295.3 939.32,-295.3 1078.67,-295.3 1078.67,-295.3 1082.88,-295.3 1087.08,-299.5 1087.08,-303.7 1087.08,-303.7 1087.08,-312.1 1087.08,-312.1 1087.08,-316.3 1082.88,-320.5 1078.67,-320.5"/>
<text xml:space="preserve" text-anchor="middle" x="1009" y="-304.8" font-family="Helvetica,sans-Serif" font-size="8.00">CI&#45;002&#45;deterministic&#45;scenario&#45;replay &#45; L</text>
</g>
<!-- cool_ideas_CI_003_mcp_native_diff_protocol -->
<g id="node11" class="node">
<title>cool_ideas_CI_003_mcp_native_diff_protocol</title>
<path fill="#d4e8f7" stroke="black" d="M1232.8,-320.5C1232.8,-320.5 1109.2,-320.5 1109.2,-320.5 1105,-320.5 1100.8,-316.3 1100.8,-312.1 1100.8,-312.1 1100.8,-303.7 1100.8,-303.7 1100.8,-299.5 1105,-295.3 1109.2,-295.3 1109.2,-295.3 1232.8,-295.3 1232.8,-295.3 1237,-295.3 1241.2,-299.5 1241.2,-303.7 1241.2,-303.7 1241.2,-312.1 1241.2,-312.1 1241.2,-316.3 1237,-320.5 1232.8,-320.5"/>
<text xml:space="preserve" text-anchor="middle" x="1171" y="-304.8" font-family="Helvetica,sans-Serif" font-size="8.00">CI&#45;003&#45;mcp&#45;native&#45;diff&#45;protocol &#45; M</text>
</g>
<!-- cool_ideas_CLEAN_CODE_parallel_agent_merge_shared_file_loss -->
<g id="node12" class="node">
<title>cool_ideas_CLEAN_CODE_parallel_agent_merge_shared_file_loss</title>
<path fill="#d4e8f7" stroke="black" d="M1464.05,-320.5C1464.05,-320.5 1263.95,-320.5 1263.95,-320.5 1259.75,-320.5 1255.55,-316.3 1255.55,-312.1 1255.55,-312.1 1255.55,-303.7 1255.55,-303.7 1255.55,-299.5 1259.75,-295.3 1263.95,-295.3 1263.95,-295.3 1464.05,-295.3 1464.05,-295.3 1468.25,-295.3 1472.45,-299.5 1472.45,-303.7 1472.45,-303.7 1472.45,-312.1 1472.45,-312.1 1472.45,-316.3 1468.25,-320.5 1464.05,-320.5"/>
<text xml:space="preserve" text-anchor="middle" x="1364" y="-304.8" font-family="Helvetica,sans-Serif" font-size="8.00">CLEAN&#45;CODE&#45;parallel&#45;agent&#45;merge&#45;shared&#45;file&#45;loss &#45; M</text>
</g>
<!-- cool_ideas_CORE_agent_handoff_protocol -->
<g id="node13" class="node">
<title>cool_ideas_CORE_agent_handoff_protocol</title>
<path fill="#d4e8f7" stroke="black" d="M1614.92,-320.5C1614.92,-320.5 1495.08,-320.5 1495.08,-320.5 1490.88,-320.5 1486.67,-316.3 1486.67,-312.1 1486.67,-312.1 1486.67,-303.7 1486.67,-303.7 1486.67,-299.5 1490.88,-295.3 1495.08,-295.3 1495.08,-295.3 1614.92,-295.3 1614.92,-295.3 1619.12,-295.3 1623.33,-299.5 1623.33,-303.7 1623.33,-303.7 1623.33,-312.1 1623.33,-312.1 1623.33,-316.3 1619.12,-320.5 1614.92,-320.5"/>
<text xml:space="preserve" text-anchor="middle" x="1555" y="-304.8" font-family="Helvetica,sans-Serif" font-size="8.00">CORE&#45;agent&#45;handoff&#45;protocol &#45; M</text>
</g>
<!-- cool_ideas_CORE_auto_focus -->
<g id="node14" class="node">
<title>cool_ideas_CORE_auto_focus</title>
<path fill="#d4e8f7" stroke="black" d="M1718.67,-320.5C1718.67,-320.5 1645.33,-320.5 1645.33,-320.5 1641.12,-320.5 1636.92,-316.3 1636.92,-312.1 1636.92,-312.1 1636.92,-303.7 1636.92,-303.7 1636.92,-299.5 1641.12,-295.3 1645.33,-295.3 1645.33,-295.3 1718.67,-295.3 1718.67,-295.3 1722.88,-295.3 1727.08,-299.5 1727.08,-303.7 1727.08,-303.7 1727.08,-312.1 1727.08,-312.1 1727.08,-316.3 1722.88,-320.5 1718.67,-320.5"/>
<text xml:space="preserve" text-anchor="middle" x="1682" y="-304.8" font-family="Helvetica,sans-Serif" font-size="8.00">CORE&#45;auto&#45;focus &#45; L</text>
</g>
<!-- cool_ideas_CORE_backlog_status_tool -->
<g id="node15" class="node">
<title>cool_ideas_CORE_backlog_status_tool</title>
<path fill="#d4e8f7" stroke="black" d="M1852.67,-320.5C1852.67,-320.5 1749.33,-320.5 1749.33,-320.5 1745.12,-320.5 1740.92,-316.3 1740.92,-312.1 1740.92,-312.1 1740.92,-303.7 1740.92,-303.7 1740.92,-299.5 1745.12,-295.3 1749.33,-295.3 1749.33,-295.3 1852.67,-295.3 1852.67,-295.3 1856.88,-295.3 1861.08,-299.5 1861.08,-303.7 1861.08,-303.7 1861.08,-312.1 1861.08,-312.1 1861.08,-316.3 1856.88,-320.5 1852.67,-320.5"/>
<text xml:space="preserve" text-anchor="middle" x="1801" y="-304.8" font-family="Helvetica,sans-Serif" font-size="8.00">CORE&#45;backlog&#45;status&#45;tool &#45; S</text>
</g>
<!-- cool_ideas_CORE_capture_range -->
<g id="node16" class="node">
<title>cool_ideas_CORE_capture_range</title>
<path fill="#d4e8f7" stroke="black" d="M1970.8,-320.5C1970.8,-320.5 1883.2,-320.5 1883.2,-320.5 1879,-320.5 1874.8,-316.3 1874.8,-312.1 1874.8,-312.1 1874.8,-303.7 1874.8,-303.7 1874.8,-299.5 1879,-295.3 1883.2,-295.3 1883.2,-295.3 1970.8,-295.3 1970.8,-295.3 1975,-295.3 1979.2,-299.5 1979.2,-303.7 1979.2,-303.7 1979.2,-312.1 1979.2,-312.1 1979.2,-316.3 1975,-320.5 1970.8,-320.5"/>
<text xml:space="preserve" text-anchor="middle" x="1927" y="-304.8" font-family="Helvetica,sans-Serif" font-size="8.00">CORE&#45;capture&#45;range &#45; S</text>
</g>
<!-- cool_ideas_CORE_constructor_in_disguise_lint -->
<g id="node17" class="node">
<title>cool_ideas_CORE_constructor_in_disguise_lint</title>
<path fill="#d4e8f7" stroke="black" d="M2132.55,-320.5C2132.55,-320.5 2001.45,-320.5 2001.45,-320.5 1997.25,-320.5 1993.05,-316.3 1993.05,-312.1 1993.05,-312.1 1993.05,-303.7 1993.05,-303.7 1993.05,-299.5 1997.25,-295.3 2001.45,-295.3 2001.45,-295.3 2132.55,-295.3 2132.55,-295.3 2136.75,-295.3 2140.95,-299.5 2140.95,-303.7 2140.95,-303.7 2140.95,-312.1 2140.95,-312.1 2140.95,-316.3 2136.75,-320.5 2132.55,-320.5"/>
<text xml:space="preserve" text-anchor="middle" x="2067" y="-304.8" font-family="Helvetica,sans-Serif" font-size="8.00">CORE&#45;constructor&#45;in&#45;disguise&#45;lint &#45; M</text>
</g>
<!-- cool_ideas_CORE_context_budget_forecasting -->
<g id="node18" class="node">
<title>cool_ideas_CORE_context_budget_forecasting</title>
<path fill="#d4e8f7" stroke="black" d="M2296.67,-320.5C2296.67,-320.5 2163.33,-320.5 2163.33,-320.5 2159.12,-320.5 2154.93,-316.3 2154.93,-312.1 2154.93,-312.1 2154.93,-303.7 2154.93,-303.7 2154.93,-299.5 2159.12,-295.3 2163.33,-295.3 2163.33,-295.3 2296.67,-295.3 2296.67,-295.3 2300.88,-295.3 2305.07,-299.5 2305.07,-303.7 2305.07,-303.7 2305.07,-312.1 2305.07,-312.1 2305.07,-316.3 2300.88,-320.5 2296.67,-320.5"/>
<text xml:space="preserve" text-anchor="middle" x="2230" y="-304.8" font-family="Helvetica,sans-Serif" font-size="8.00">CORE&#45;context&#45;budget&#45;forecasting &#45; M</text>
</g>
<!-- cool_ideas_CORE_conversation_primer -->
<g id="node19" class="node">
<title>cool_ideas_CORE_conversation_primer</title>
<path fill="#d4e8f7" stroke="black" d="M2436.67,-320.5C2436.67,-320.5 2327.33,-320.5 2327.33,-320.5 2323.12,-320.5 2318.93,-316.3 2318.93,-312.1 2318.93,-312.1 2318.93,-303.7 2318.93,-303.7 2318.93,-299.5 2323.12,-295.3 2327.33,-295.3 2327.33,-295.3 2436.67,-295.3 2436.67,-295.3 2440.88,-295.3 2445.07,-299.5 2445.07,-303.7 2445.07,-303.7 2445.07,-312.1 2445.07,-312.1 2445.07,-316.3 2440.88,-320.5 2436.67,-320.5"/>
<text xml:space="preserve" text-anchor="middle" x="2382" y="-304.8" font-family="Helvetica,sans-Serif" font-size="8.00">CORE&#45;conversation&#45;primer &#45; M</text>
</g>
<!-- cool_ideas_CORE_cross_session_resume -->
<g id="node20" class="node">
<title>cool_ideas_CORE_cross_session_resume</title>
<path fill="#d4e8f7" stroke="black" d="M2582.3,-320.5C2582.3,-320.5 2467.7,-320.5 2467.7,-320.5 2463.5,-320.5 2459.3,-316.3 2459.3,-312.1 2459.3,-312.1 2459.3,-303.7 2459.3,-303.7 2459.3,-299.5 2463.5,-295.3 2467.7,-295.3 2467.7,-295.3 2582.3,-295.3 2582.3,-295.3 2586.5,-295.3 2590.7,-299.5 2590.7,-303.7 2590.7,-303.7 2590.7,-312.1 2590.7,-312.1 2590.7,-316.3 2586.5,-320.5 2582.3,-320.5"/>
<text xml:space="preserve" text-anchor="middle" x="2525" y="-304.8" font-family="Helvetica,sans-Serif" font-size="8.00">CORE&#45;cross&#45;session&#45;resume &#45; S</text>
</g>
<!-- cool_ideas_CORE_graft_as_teacher -->
<g id="node21" class="node">
<title>cool_ideas_CORE_graft_as_teacher</title>
<path fill="#d4e8f7" stroke="black" d="M2707.17,-320.5C2707.17,-320.5 2612.83,-320.5 2612.83,-320.5 2608.62,-320.5 2604.43,-316.3 2604.43,-312.1 2604.43,-312.1 2604.43,-303.7 2604.43,-303.7 2604.43,-299.5 2608.62,-295.3 2612.83,-295.3 2612.83,-295.3 2707.17,-295.3 2707.17,-295.3 2711.38,-295.3 2715.57,-299.5 2715.57,-303.7 2715.57,-303.7 2715.57,-312.1 2715.57,-312.1 2715.57,-316.3 2711.38,-320.5 2707.17,-320.5"/>
<text xml:space="preserve" text-anchor="middle" x="2660" y="-304.8" font-family="Helvetica,sans-Serif" font-size="8.00">CORE&#45;graft&#45;as&#45;teacher &#45; S</text>
</g>
<!-- cool_ideas_CORE_graft_doctor -->
<g id="node22" class="node">
<title>cool_ideas_CORE_graft_doctor</title>
<path fill="#d4e8f7" stroke="black" d="M2818.05,-320.5C2818.05,-320.5 2737.95,-320.5 2737.95,-320.5 2733.75,-320.5 2729.55,-316.3 2729.55,-312.1 2729.55,-312.1 2729.55,-303.7 2729.55,-303.7 2729.55,-299.5 2733.75,-295.3 2737.95,-295.3 2737.95,-295.3 2818.05,-295.3 2818.05,-295.3 2822.25,-295.3 2826.45,-299.5 2826.45,-303.7 2826.45,-303.7 2826.45,-312.1 2826.45,-312.1 2826.45,-316.3 2822.25,-320.5 2818.05,-320.5"/>
<text xml:space="preserve" text-anchor="middle" x="2778" y="-304.8" font-family="Helvetica,sans-Serif" font-size="8.00">CORE&#45;graft&#45;doctor &#45; M</text>
</g>
<!-- cool_ideas_CORE_graft_teach_learning_receipts -->
<g id="node23" class="node">
<title>cool_ideas_CORE_graft_teach_learning_receipts</title>
<path fill="#d4e8f7" stroke="black" d="M2986.92,-320.5C2986.92,-320.5 2849.08,-320.5 2849.08,-320.5 2844.88,-320.5 2840.68,-316.3 2840.68,-312.1 2840.68,-312.1 2840.68,-303.7 2840.68,-303.7 2840.68,-299.5 2844.88,-295.3 2849.08,-295.3 2849.08,-295.3 2986.92,-295.3 2986.92,-295.3 2991.12,-295.3 2995.32,-299.5 2995.32,-303.7 2995.32,-303.7 2995.32,-312.1 2995.32,-312.1 2995.32,-316.3 2991.12,-320.5 2986.92,-320.5"/>
<text xml:space="preserve" text-anchor="middle" x="2918" y="-304.8" font-family="Helvetica,sans-Serif" font-size="8.00">CORE&#45;graft&#45;teach&#45;learning&#45;receipts &#45; S</text>
</g>
<!-- cool_ideas_CORE_horizon_of_readability -->
<g id="node24" class="node">
<title>cool_ideas_CORE_horizon_of_readability</title>
<path fill="#d4e8f7" stroke="black" d="M3130.55,-320.5C3130.55,-320.5 3017.45,-320.5 3017.45,-320.5 3013.25,-320.5 3009.05,-316.3 3009.05,-312.1 3009.05,-312.1 3009.05,-303.7 3009.05,-303.7 3009.05,-299.5 3013.25,-295.3 3017.45,-295.3 3017.45,-295.3 3130.55,-295.3 3130.55,-295.3 3134.75,-295.3 3138.95,-299.5 3138.95,-303.7 3138.95,-303.7 3138.95,-312.1 3138.95,-312.1 3138.95,-316.3 3134.75,-320.5 3130.55,-320.5"/>
<text xml:space="preserve" text-anchor="middle" x="3074" y="-304.8" font-family="Helvetica,sans-Serif" font-size="8.00">CORE&#45;horizon&#45;of&#45;readability &#45; M</text>
</g>
<!-- cool_ideas_CORE_lagrangian_policy -->
<g id="node25" class="node">
<title>cool_ideas_CORE_lagrangian_policy</title>
<path fill="#d4e8f7" stroke="black" d="M3262.55,-320.5C3262.55,-320.5 3161.45,-320.5 3161.45,-320.5 3157.25,-320.5 3153.05,-316.3 3153.05,-312.1 3153.05,-312.1 3153.05,-303.7 3153.05,-303.7 3153.05,-299.5 3157.25,-295.3 3161.45,-295.3 3161.45,-295.3 3262.55,-295.3 3262.55,-295.3 3266.75,-295.3 3270.95,-299.5 3270.95,-303.7 3270.95,-303.7 3270.95,-312.1 3270.95,-312.1 3270.95,-316.3 3266.75,-320.5 3262.55,-320.5"/>
<text xml:space="preserve" text-anchor="middle" x="3212" y="-304.8" font-family="Helvetica,sans-Serif" font-size="8.00">CORE&#45;lagrangian&#45;policy &#45; XL</text>
</g>
<!-- cool_ideas_CORE_multi_agent_conflict_detection -->
<g id="node26" class="node">
<title>cool_ideas_CORE_multi_agent_conflict_detection</title>
<path fill="#d4e8f7" stroke="black" d="M3430.92,-320.5C3430.92,-320.5 3293.08,-320.5 3293.08,-320.5 3288.88,-320.5 3284.68,-316.3 3284.68,-312.1 3284.68,-312.1 3284.68,-303.7 3284.68,-303.7 3284.68,-299.5 3288.88,-295.3 3293.08,-295.3 3293.08,-295.3 3430.92,-295.3 3430.92,-295.3 3435.12,-295.3 3439.32,-299.5 3439.32,-303.7 3439.32,-303.7 3439.32,-312.1 3439.32,-312.1 3439.32,-316.3 3435.12,-320.5 3430.92,-320.5"/>
<text xml:space="preserve" text-anchor="middle" x="3362" y="-304.8" font-family="Helvetica,sans-Serif" font-size="8.00">CORE&#45;multi&#45;agent&#45;conflict&#45;detection &#45; L</text>
</g>
<!-- cool_ideas_CORE_policy_playground -->
<g id="node27" class="node">
<title>cool_ideas_CORE_policy_playground</title>
<path fill="#d4e8f7" stroke="black" d="M3560.42,-320.5C3560.42,-320.5 3461.58,-320.5 3461.58,-320.5 3457.38,-320.5 3453.18,-316.3 3453.18,-312.1 3453.18,-312.1 3453.18,-303.7 3453.18,-303.7 3453.18,-299.5 3457.38,-295.3 3461.58,-295.3 3461.58,-295.3 3560.42,-295.3 3560.42,-295.3 3564.62,-295.3 3568.82,-299.5 3568.82,-303.7 3568.82,-303.7 3568.82,-312.1 3568.82,-312.1 3568.82,-316.3 3564.62,-320.5 3560.42,-320.5"/>
<text xml:space="preserve" text-anchor="middle" x="3511" y="-304.8" font-family="Helvetica,sans-Serif" font-size="8.00">CORE&#45;policy&#45;playground &#45; S</text>
</g>
<!-- cool_ideas_CORE_policy_profiles -->
<g id="node28" class="node">
<title>cool_ideas_CORE_policy_profiles</title>
<path fill="#d4e8f7" stroke="black" d="M3677.05,-320.5C3677.05,-320.5 3590.95,-320.5 3590.95,-320.5 3586.75,-320.5 3582.55,-316.3 3582.55,-312.1 3582.55,-312.1 3582.55,-303.7 3582.55,-303.7 3582.55,-299.5 3586.75,-295.3 3590.95,-295.3 3590.95,-295.3 3677.05,-295.3 3677.05,-295.3 3681.25,-295.3 3685.45,-299.5 3685.45,-303.7 3685.45,-303.7 3685.45,-312.1 3685.45,-312.1 3685.45,-316.3 3681.25,-320.5 3677.05,-320.5"/>
<text xml:space="preserve" text-anchor="middle" x="3634" y="-304.8" font-family="Helvetica,sans-Serif" font-size="8.00">CORE&#45;policy&#45;profiles &#45; M</text>
</g>
<!-- cool_ideas_CORE_pr_review_structural_summary -->
<g id="node29" class="node">
<title>cool_ideas_CORE_pr_review_structural_summary</title>
<path fill="#d4e8f7" stroke="black" d="M3851.92,-320.5C3851.92,-320.5 3708.08,-320.5 3708.08,-320.5 3703.88,-320.5 3699.68,-316.3 3699.68,-312.1 3699.68,-312.1 3699.68,-303.7 3699.68,-303.7 3699.68,-299.5 3703.88,-295.3 3708.08,-295.3 3708.08,-295.3 3851.92,-295.3 3851.92,-295.3 3856.12,-295.3 3860.32,-299.5 3860.32,-303.7 3860.32,-303.7 3860.32,-312.1 3860.32,-312.1 3860.32,-316.3 3856.12,-320.5 3851.92,-320.5"/>
<text xml:space="preserve" text-anchor="middle" x="3780" y="-304.8" font-family="Helvetica,sans-Serif" font-size="8.00">CORE&#45;pr&#45;review&#45;structural&#45;summary &#45; M</text>
</g>
<!-- cool_ideas_CORE_self_tuning_governor -->
<g id="node30" class="node">
<title>cool_ideas_CORE_self_tuning_governor</title>
<path fill="#d4e8f7" stroke="black" d="M3993.05,-320.5C3993.05,-320.5 3882.95,-320.5 3882.95,-320.5 3878.75,-320.5 3874.55,-316.3 3874.55,-312.1 3874.55,-312.1 3874.55,-303.7 3874.55,-303.7 3874.55,-299.5 3878.75,-295.3 3882.95,-295.3 3882.95,-295.3 3993.05,-295.3 3993.05,-295.3 3997.25,-295.3 4001.45,-299.5 4001.45,-303.7 4001.45,-303.7 4001.45,-312.1 4001.45,-312.1 4001.45,-316.3 3997.25,-320.5 3993.05,-320.5"/>
<text xml:space="preserve" text-anchor="middle" x="3938" y="-304.8" font-family="Helvetica,sans-Serif" font-size="8.00">CORE&#45;self&#45;tuning&#45;governor &#45; M</text>
</g>
<!-- cool_ideas_CORE_session_knowledge_map -->
<g id="node31" class="node">
<title>cool_ideas_CORE_session_knowledge_map</title>
<path fill="#d4e8f7" stroke="black" d="M4146.43,-320.5C4146.43,-320.5 4023.58,-320.5 4023.58,-320.5 4019.38,-320.5 4015.18,-316.3 4015.18,-312.1 4015.18,-312.1 4015.18,-303.7 4015.18,-303.7 4015.18,-299.5 4019.38,-295.3 4023.58,-295.3 4023.58,-295.3 4146.43,-295.3 4146.43,-295.3 4150.62,-295.3 4154.82,-299.5 4154.82,-303.7 4154.82,-303.7 4154.82,-312.1 4154.82,-312.1 4154.82,-316.3 4150.62,-320.5 4146.43,-320.5"/>
<text xml:space="preserve" text-anchor="middle" x="4085" y="-304.8" font-family="Helvetica,sans-Serif" font-size="8.00">CORE&#45;session&#45;knowledge&#45;map &#45; S</text>
</g>
<!-- cool_ideas_CORE_speculative_read_cost -->
<g id="node32" class="node">
<title>cool_ideas_CORE_speculative_read_cost</title>
<path fill="#d4e8f7" stroke="black" d="M4289.18,-320.5C4289.18,-320.5 4176.82,-320.5 4176.82,-320.5 4172.62,-320.5 4168.43,-316.3 4168.43,-312.1 4168.43,-312.1 4168.43,-303.7 4168.43,-303.7 4168.43,-299.5 4172.62,-295.3 4176.82,-295.3 4176.82,-295.3 4289.18,-295.3 4289.18,-295.3 4293.38,-295.3 4297.57,-299.5 4297.57,-303.7 4297.57,-303.7 4297.57,-312.1 4297.57,-312.1 4297.57,-316.3 4293.38,-320.5 4289.18,-320.5"/>
<text xml:space="preserve" text-anchor="middle" x="4233" y="-304.8" font-family="Helvetica,sans-Serif" font-size="8.00">CORE&#45;speculative&#45;read&#45;cost &#45; S</text>
</g>
<!-- cool_ideas_CORE_structural_session_replay -->
<g id="node33" class="node">
<title>cool_ideas_CORE_structural_session_replay</title>
<path fill="#d4e8f7" stroke="black" d="M4445.55,-320.5C4445.55,-320.5 4320.45,-320.5 4320.45,-320.5 4316.25,-320.5 4312.05,-316.3 4312.05,-312.1 4312.05,-312.1 4312.05,-303.7 4312.05,-303.7 4312.05,-299.5 4316.25,-295.3 4320.45,-295.3 4320.45,-295.3 4445.55,-295.3 4445.55,-295.3 4449.75,-295.3 4453.95,-299.5 4453.95,-303.7 4453.95,-303.7 4453.95,-312.1 4453.95,-312.1 4453.95,-316.3 4449.75,-320.5 4445.55,-320.5"/>
<text xml:space="preserve" text-anchor="middle" x="4383" y="-304.8" font-family="Helvetica,sans-Serif" font-size="8.00">CORE&#45;structural&#45;session&#45;replay &#45; M</text>
</g>
<!-- cool_ideas_CORE_structural_test_coverage_map -->
<g id="node34" class="node">
<title>cool_ideas_CORE_structural_test_coverage_map</title>
<path fill="#d4e8f7" stroke="black" d="M4617.8,-320.5C4617.8,-320.5 4476.2,-320.5 4476.2,-320.5 4472,-320.5 4467.8,-316.3 4467.8,-312.1 4467.8,-312.1 4467.8,-303.7 4467.8,-303.7 4467.8,-299.5 4472,-295.3 4476.2,-295.3 4476.2,-295.3 4617.8,-295.3 4617.8,-295.3 4622,-295.3 4626.2,-299.5 4626.2,-303.7 4626.2,-303.7 4626.2,-312.1 4626.2,-312.1 4626.2,-316.3 4622,-320.5 4617.8,-320.5"/>
<text xml:space="preserve" text-anchor="middle" x="4547" y="-304.8" font-family="Helvetica,sans-Serif" font-size="8.00">CORE&#45;structural&#45;test&#45;coverage&#45;map &#45; M</text>
</g>
<!-- cool_ideas_CORE_wire_primitives_into_runtime -->
<g id="node35" class="node">
<title>cool_ideas_CORE_wire_primitives_into_runtime</title>
<path fill="#d4e8f7" stroke="black" d="M4783.43,-320.5C4783.43,-320.5 4648.57,-320.5 4648.57,-320.5 4644.38,-320.5 4640.18,-316.3 4640.18,-312.1 4640.18,-312.1 4640.18,-303.7 4640.18,-303.7 4640.18,-299.5 4644.38,-295.3 4648.57,-295.3 4648.57,-295.3 4783.43,-295.3 4783.43,-295.3 4787.62,-295.3 4791.82,-299.5 4791.82,-303.7 4791.82,-303.7 4791.82,-312.1 4791.82,-312.1 4791.82,-316.3 4787.62,-320.5 4783.43,-320.5"/>
<text xml:space="preserve" text-anchor="middle" x="4716" y="-304.8" font-family="Helvetica,sans-Serif" font-size="8.00">CORE&#45;wire&#45;primitives&#45;into&#45;runtime &#45; M</text>
</g>
<!-- cool_ideas_monitor_tick_ceiling_tracking -->
<g id="node36" class="node">
<title>cool_ideas_monitor_tick_ceiling_tracking</title>
<path fill="#d4e8f7" stroke="black" d="M4921.55,-320.5C4921.55,-320.5 4814.45,-320.5 4814.45,-320.5 4810.25,-320.5 4806.05,-316.3 4806.05,-312.1 4806.05,-312.1 4806.05,-303.7 4806.05,-303.7 4806.05,-299.5 4810.25,-295.3 4814.45,-295.3 4814.45,-295.3 4921.55,-295.3 4921.55,-295.3 4925.75,-295.3 4929.95,-299.5 4929.95,-303.7 4929.95,-303.7 4929.95,-312.1 4929.95,-312.1 4929.95,-316.3 4925.75,-320.5 4921.55,-320.5"/>
<text xml:space="preserve" text-anchor="middle" x="4868" y="-304.8" font-family="Helvetica,sans-Serif" font-size="8.00">monitor&#45;tick&#45;ceiling&#45;tracking &#45; S</text>
</g>
<!-- cool_ideas_WARP_background_indexing -->
<g id="node50" class="node">
<title>cool_ideas_WARP_background_indexing</title>
<path fill="#d4e8f7" stroke="black" d="M4924.55,-247.05C4924.55,-247.05 4811.45,-247.05 4811.45,-247.05 4807.25,-247.05 4803.05,-242.85 4803.05,-238.65 4803.05,-238.65 4803.05,-230.25 4803.05,-230.25 4803.05,-226.05 4807.25,-221.85 4811.45,-221.85 4811.45,-221.85 4924.55,-221.85 4924.55,-221.85 4928.75,-221.85 4932.95,-226.05 4932.95,-230.25 4932.95,-230.25 4932.95,-238.65 4932.95,-238.65 4932.95,-242.85 4928.75,-247.05 4924.55,-247.05"/>
<text xml:space="preserve" text-anchor="middle" x="4868" y="-231.35" font-family="Helvetica,sans-Serif" font-size="8.00">WARP&#45;background&#45;indexing &#45; M</text>
</g>
<!-- cool_ideas_monitor_tick_ceiling_tracking&#45;&gt;cool_ideas_WARP_background_indexing -->
<g id="edge1" class="edge">
<title>cool_ideas_monitor_tick_ceiling_tracking&#45;&gt;cool_ideas_WARP_background_indexing</title>
<path fill="none" stroke="#666666" d="M4868,-295.1C4868,-283.9 4868,-266.88 4868,-253.88"/>
<polygon fill="#666666" stroke="#666666" points="4869.75,-254.02 4868,-249.02 4866.25,-254.02 4869.75,-254.02"/>
<text xml:space="preserve" text-anchor="middle" x="4899.5" y="-268.65" font-family="Helvetica,sans-Serif" font-size="7.00">blocked_by/blocking</text>
</g>
<!-- cool_ideas_SURFACE_active_causal_workspace_status -->
<g id="node37" class="node">
<title>cool_ideas_SURFACE_active_causal_workspace_status</title>
<path fill="#d4e8f7" stroke="black" d="M5116.05,-320.5C5116.05,-320.5 4951.95,-320.5 4951.95,-320.5 4947.75,-320.5 4943.55,-316.3 4943.55,-312.1 4943.55,-312.1 4943.55,-303.7 4943.55,-303.7 4943.55,-299.5 4947.75,-295.3 4951.95,-295.3 4951.95,-295.3 5116.05,-295.3 5116.05,-295.3 5120.25,-295.3 5124.45,-299.5 5124.45,-303.7 5124.45,-303.7 5124.45,-312.1 5124.45,-312.1 5124.45,-316.3 5120.25,-320.5 5116.05,-320.5"/>
<text xml:space="preserve" text-anchor="middle" x="5034" y="-304.8" font-family="Helvetica,sans-Serif" font-size="8.00">SURFACE&#45;active&#45;causal&#45;workspace&#45;status &#45; M</text>
</g>
<!-- cool_ideas_SURFACE_ide_native_graft_integration -->
<g id="node41" class="node">
<title>cool_ideas_SURFACE_ide_native_graft_integration</title>
<path fill="#d4e8f7" stroke="black" d="M5109.3,-247.05C5109.3,-247.05 4958.7,-247.05 4958.7,-247.05 4954.5,-247.05 4950.3,-242.85 4950.3,-238.65 4950.3,-238.65 4950.3,-230.25 4950.3,-230.25 4950.3,-226.05 4954.5,-221.85 4958.7,-221.85 4958.7,-221.85 5109.3,-221.85 5109.3,-221.85 5113.5,-221.85 5117.7,-226.05 5117.7,-230.25 5117.7,-230.25 5117.7,-238.65 5117.7,-238.65 5117.7,-242.85 5113.5,-247.05 5109.3,-247.05"/>
<text xml:space="preserve" text-anchor="middle" x="5034" y="-231.35" font-family="Helvetica,sans-Serif" font-size="8.00">SURFACE&#45;ide&#45;native&#45;graft&#45;integration &#45; XL</text>
</g>
<!-- cool_ideas_SURFACE_active_causal_workspace_status&#45;&gt;cool_ideas_SURFACE_ide_native_graft_integration -->
<g id="edge2" class="edge">
<title>cool_ideas_SURFACE_active_causal_workspace_status&#45;&gt;cool_ideas_SURFACE_ide_native_graft_integration</title>
<path fill="none" stroke="#666666" d="M5034,-295.1C5034,-283.9 5034,-266.88 5034,-253.88"/>
<polygon fill="#666666" stroke="#666666" points="5035.75,-254.02 5034,-249.02 5032.25,-254.02 5035.75,-254.02"/>
<text xml:space="preserve" text-anchor="middle" x="5065.5" y="-268.65" font-family="Helvetica,sans-Serif" font-size="7.00">blocked_by/blocking</text>
</g>
<!-- cool_ideas_SURFACE_attach_to_existing_causal_session -->
<g id="node38" class="node">
<title>cool_ideas_SURFACE_attach_to_existing_causal_session</title>
<path fill="#d4e8f7" stroke="black" d="M5315.3,-320.5C5315.3,-320.5 5146.7,-320.5 5146.7,-320.5 5142.5,-320.5 5138.3,-316.3 5138.3,-312.1 5138.3,-312.1 5138.3,-303.7 5138.3,-303.7 5138.3,-299.5 5142.5,-295.3 5146.7,-295.3 5146.7,-295.3 5315.3,-295.3 5315.3,-295.3 5319.5,-295.3 5323.7,-299.5 5323.7,-303.7 5323.7,-303.7 5323.7,-312.1 5323.7,-312.1 5323.7,-316.3 5319.5,-320.5 5315.3,-320.5"/>
<text xml:space="preserve" text-anchor="middle" x="5231" y="-304.8" font-family="Helvetica,sans-Serif" font-size="8.00">SURFACE&#45;attach&#45;to&#45;existing&#45;causal&#45;session &#45; M</text>
</g>
<!-- cool_ideas_SURFACE_bijou_daemon_control_plane_actions -->
<g id="node39" class="node">
<title>cool_ideas_SURFACE_bijou_daemon_control_plane_actions</title>
<path fill="#d4e8f7" stroke="black" d="M5523.43,-320.5C5523.43,-320.5 5346.57,-320.5 5346.57,-320.5 5342.38,-320.5 5338.18,-316.3 5338.18,-312.1 5338.18,-312.1 5338.18,-303.7 5338.18,-303.7 5338.18,-299.5 5342.38,-295.3 5346.57,-295.3 5346.57,-295.3 5523.43,-295.3 5523.43,-295.3 5527.62,-295.3 5531.82,-299.5 5531.82,-303.7 5531.82,-303.7 5531.82,-312.1 5531.82,-312.1 5531.82,-316.3 5527.62,-320.5 5523.43,-320.5"/>
<text xml:space="preserve" text-anchor="middle" x="5435" y="-304.8" font-family="Helvetica,sans-Serif" font-size="8.00">SURFACE&#45;bijou&#45;daemon&#45;control&#45;plane&#45;actions &#45; L</text>
</g>
<!-- cool_ideas_SURFACE_bijou_daemon_status_live_refresh -->
<g id="node40" class="node">
<title>cool_ideas_SURFACE_bijou_daemon_status_live_refresh</title>
<path fill="#d4e8f7" stroke="black" d="M5723.3,-320.5C5723.3,-320.5 5554.7,-320.5 5554.7,-320.5 5550.5,-320.5 5546.3,-316.3 5546.3,-312.1 5546.3,-312.1 5546.3,-303.7 5546.3,-303.7 5546.3,-299.5 5550.5,-295.3 5554.7,-295.3 5554.7,-295.3 5723.3,-295.3 5723.3,-295.3 5727.5,-295.3 5731.7,-299.5 5731.7,-303.7 5731.7,-303.7 5731.7,-312.1 5731.7,-312.1 5731.7,-316.3 5727.5,-320.5 5723.3,-320.5"/>
<text xml:space="preserve" text-anchor="middle" x="5639" y="-304.8" font-family="Helvetica,sans-Serif" font-size="8.00">SURFACE&#45;bijou&#45;daemon&#45;status&#45;live&#45;refresh &#45; M</text>
</g>
<!-- cool_ideas_SURFACE_local_history_dag_render_mode_and_count_legend -->
<g id="node42" class="node">
<title>cool_ideas_SURFACE_local_history_dag_render_mode_and_count_legend</title>
<path fill="#d4e8f7" stroke="black" d="M5980.18,-320.5C5980.18,-320.5 5753.82,-320.5 5753.82,-320.5 5749.62,-320.5 5745.43,-316.3 5745.43,-312.1 5745.43,-312.1 5745.43,-303.7 5745.43,-303.7 5745.43,-299.5 5749.62,-295.3 5753.82,-295.3 5753.82,-295.3 5980.18,-295.3 5980.18,-295.3 5984.38,-295.3 5988.57,-299.5 5988.57,-303.7 5988.57,-303.7 5988.57,-312.1 5988.57,-312.1 5988.57,-316.3 5984.38,-320.5 5980.18,-320.5"/>
<text xml:space="preserve" text-anchor="middle" x="5867" y="-304.8" font-family="Helvetica,sans-Serif" font-size="8.00">SURFACE&#45;local&#45;history&#45;dag&#45;render&#45;mode&#45;and&#45;count&#45;legend &#45; S</text>
</g>
<!-- cool_ideas_SURFACE_non_codex_instruction_bootstrap_parity -->
<g id="node43" class="node">
<title>cool_ideas_SURFACE_non_codex_instruction_bootstrap_parity</title>
<path fill="#d4e8f7" stroke="black" d="M6199.43,-320.5C6199.43,-320.5 6010.57,-320.5 6010.57,-320.5 6006.38,-320.5 6002.18,-316.3 6002.18,-312.1 6002.18,-312.1 6002.18,-303.7 6002.18,-303.7 6002.18,-299.5 6006.38,-295.3 6010.57,-295.3 6010.57,-295.3 6199.43,-295.3 6199.43,-295.3 6203.62,-295.3 6207.82,-299.5 6207.82,-303.7 6207.82,-303.7 6207.82,-312.1 6207.82,-312.1 6207.82,-316.3 6203.62,-320.5 6199.43,-320.5"/>
<text xml:space="preserve" text-anchor="middle" x="6105" y="-304.8" font-family="Helvetica,sans-Serif" font-size="8.00">SURFACE&#45;non&#45;codex&#45;instruction&#45;bootstrap&#45;parity &#45; M</text>
</g>
<!-- cool_ideas_SURFACE_offer_rename_refactor -->
<g id="node44" class="node">
<title>cool_ideas_SURFACE_offer_rename_refactor</title>
<path fill="#d4e8f7" stroke="black" d="M6359.43,-320.5C6359.43,-320.5 6230.57,-320.5 6230.57,-320.5 6226.38,-320.5 6222.18,-316.3 6222.18,-312.1 6222.18,-312.1 6222.18,-303.7 6222.18,-303.7 6222.18,-299.5 6226.38,-295.3 6230.57,-295.3 6230.57,-295.3 6359.43,-295.3 6359.43,-295.3 6363.62,-295.3 6367.82,-299.5 6367.82,-303.7 6367.82,-303.7 6367.82,-312.1 6367.82,-312.1 6367.82,-316.3 6363.62,-320.5 6359.43,-320.5"/>
<text xml:space="preserve" text-anchor="middle" x="6295" y="-304.8" font-family="Helvetica,sans-Serif" font-size="8.00">SURFACE&#45;offer&#45;rename&#45;refactor &#45; L</text>
</g>
<!-- cool_ideas_SURFACE_terminal_activity_browser_tui -->
<g id="node45" class="node">
<title>cool_ideas_SURFACE_terminal_activity_browser_tui</title>
<path fill="#d4e8f7" stroke="black" d="M6539.55,-320.5C6539.55,-320.5 6390.45,-320.5 6390.45,-320.5 6386.25,-320.5 6382.05,-316.3 6382.05,-312.1 6382.05,-312.1 6382.05,-303.7 6382.05,-303.7 6382.05,-299.5 6386.25,-295.3 6390.45,-295.3 6390.45,-295.3 6539.55,-295.3 6539.55,-295.3 6543.75,-295.3 6547.95,-299.5 6547.95,-303.7 6547.95,-303.7 6547.95,-312.1 6547.95,-312.1 6547.95,-316.3 6543.75,-320.5 6539.55,-320.5"/>
<text xml:space="preserve" text-anchor="middle" x="6465" y="-304.8" font-family="Helvetica,sans-Serif" font-size="8.00">SURFACE&#45;terminal&#45;activity&#45;browser&#45;tui &#45; L</text>
</g>
<!-- cool_ideas_traverse_plus_query_hydration_helper -->
<g id="node46" class="node">
<title>cool_ideas_traverse_plus_query_hydration_helper</title>
<path fill="#d4e8f7" stroke="black" d="M6711.8,-320.5C6711.8,-320.5 6570.2,-320.5 6570.2,-320.5 6566,-320.5 6561.8,-316.3 6561.8,-312.1 6561.8,-312.1 6561.8,-303.7 6561.8,-303.7 6561.8,-299.5 6566,-295.3 6570.2,-295.3 6570.2,-295.3 6711.8,-295.3 6711.8,-295.3 6716,-295.3 6720.2,-299.5 6720.2,-303.7 6720.2,-303.7 6720.2,-312.1 6720.2,-312.1 6720.2,-316.3 6716,-320.5 6711.8,-320.5"/>
<text xml:space="preserve" text-anchor="middle" x="6641" y="-304.8" font-family="Helvetica,sans-Serif" font-size="8.00">traverse&#45;plus&#45;query&#45;hydration&#45;helper &#45; S</text>
</g>
<!-- cool_ideas_WARP_adaptive_projection_selection -->
<g id="node47" class="node">
<title>cool_ideas_WARP_adaptive_projection_selection</title>
<path fill="#d4e8f7" stroke="black" d="M6880.93,-320.5C6880.93,-320.5 6743.07,-320.5 6743.07,-320.5 6738.88,-320.5 6734.68,-316.3 6734.68,-312.1 6734.68,-312.1 6734.68,-303.7 6734.68,-303.7 6734.68,-299.5 6738.88,-295.3 6743.07,-295.3 6743.07,-295.3 6880.93,-295.3 6880.93,-295.3 6885.12,-295.3 6889.32,-299.5 6889.32,-303.7 6889.32,-303.7 6889.32,-312.1 6889.32,-312.1 6889.32,-316.3 6885.12,-320.5 6880.93,-320.5"/>
<text xml:space="preserve" text-anchor="middle" x="6812" y="-304.8" font-family="Helvetica,sans-Serif" font-size="8.00">WARP&#45;adaptive&#45;projection&#45;selection &#45; L</text>
</g>
<!-- cool_ideas_WARP_agent_action_provenance -->
<g id="node48" class="node">
<title>cool_ideas_WARP_agent_action_provenance</title>
<path fill="#d4e8f7" stroke="black" d="M7042.55,-320.5C7042.55,-320.5 6911.45,-320.5 6911.45,-320.5 6907.25,-320.5 6903.05,-316.3 6903.05,-312.1 6903.05,-312.1 6903.05,-303.7 6903.05,-303.7 6903.05,-299.5 6907.25,-295.3 6911.45,-295.3 6911.45,-295.3 7042.55,-295.3 7042.55,-295.3 7046.75,-295.3 7050.95,-299.5 7050.95,-303.7 7050.95,-303.7 7050.95,-312.1 7050.95,-312.1 7050.95,-316.3 7046.75,-320.5 7042.55,-320.5"/>
<text xml:space="preserve" text-anchor="middle" x="6977" y="-304.8" font-family="Helvetica,sans-Serif" font-size="8.00">WARP&#45;agent&#45;action&#45;provenance &#45; XL</text>
</g>
<!-- cool_ideas_WARP_agent_action_provenance&#45;&gt;cool_ideas_CI_001_causal_collapse_visualizer -->
<g id="edge3" class="edge">
<title>cool_ideas_WARP_agent_action_provenance&#45;&gt;cool_ideas_CI_001_causal_collapse_visualizer</title>
<path fill="none" stroke="#666666" d="M7002.81,-294.81C7015.04,-289.01 7029.83,-281.9 7043,-275.3 7058.99,-267.28 7076.7,-258.02 7091,-250.44"/>
<polygon fill="#666666" stroke="#666666" points="7091.57,-252.12 7095.16,-248.23 7089.92,-249.03 7091.57,-252.12"/>
<text xml:space="preserve" text-anchor="middle" x="7089.14" y="-268.65" font-family="Helvetica,sans-Serif" font-size="7.00">blocked_by/blocking</text>
</g>
<!-- cool_ideas_WARP_causal_write_tracking -->
<g id="node53" class="node">
<title>cool_ideas_WARP_causal_write_tracking</title>
<path fill="#d4e8f7" stroke="black" d="M6735.05,-247.05C6735.05,-247.05 6624.95,-247.05 6624.95,-247.05 6620.75,-247.05 6616.55,-242.85 6616.55,-238.65 6616.55,-238.65 6616.55,-230.25 6616.55,-230.25 6616.55,-226.05 6620.75,-221.85 6624.95,-221.85 6624.95,-221.85 6735.05,-221.85 6735.05,-221.85 6739.25,-221.85 6743.45,-226.05 6743.45,-230.25 6743.45,-230.25 6743.45,-238.65 6743.45,-238.65 6743.45,-242.85 6739.25,-247.05 6735.05,-247.05"/>
<text xml:space="preserve" text-anchor="middle" x="6680" y="-231.35" font-family="Helvetica,sans-Serif" font-size="8.00">WARP&#45;causal&#45;write&#45;tracking &#45; L</text>
</g>
<!-- cool_ideas_WARP_agent_action_provenance&#45;&gt;cool_ideas_WARP_causal_write_tracking -->
<g id="edge4" class="edge">
<title>cool_ideas_WARP_agent_action_provenance&#45;&gt;cool_ideas_WARP_causal_write_tracking</title>
<path fill="none" stroke="#666666" d="M6929.13,-294.83C6918.27,-292.23 6906.76,-289.58 6896,-287.3 6866.83,-281.12 6859.1,-281.8 6830,-275.3 6795.63,-267.62 6757.25,-257.4 6727.92,-249.23"/>
<polygon fill="#666666" stroke="#666666" points="6728.55,-247.58 6723.26,-247.92 6727.61,-250.96 6728.55,-247.58"/>
<text xml:space="preserve" text-anchor="middle" x="6861.5" y="-268.65" font-family="Helvetica,sans-Serif" font-size="7.00">blocked_by/blocking</text>
</g>
<!-- cool_ideas_WARP_intent_and_decision_events -->
<g id="node63" class="node">
<title>cool_ideas_WARP_intent_and_decision_events</title>
<path fill="#d4e8f7" stroke="black" d="M6898.3,-247.05C6898.3,-247.05 6765.7,-247.05 6765.7,-247.05 6761.5,-247.05 6757.3,-242.85 6757.3,-238.65 6757.3,-238.65 6757.3,-230.25 6757.3,-230.25 6757.3,-226.05 6761.5,-221.85 6765.7,-221.85 6765.7,-221.85 6898.3,-221.85 6898.3,-221.85 6902.5,-221.85 6906.7,-226.05 6906.7,-230.25 6906.7,-230.25 6906.7,-238.65 6906.7,-238.65 6906.7,-242.85 6902.5,-247.05 6898.3,-247.05"/>
<text xml:space="preserve" text-anchor="middle" x="6832" y="-231.35" font-family="Helvetica,sans-Serif" font-size="8.00">WARP&#45;intent&#45;and&#45;decision&#45;events &#45; M</text>
</g>
<!-- cool_ideas_WARP_agent_action_provenance&#45;&gt;cool_ideas_WARP_intent_and_decision_events -->
<g id="edge5" class="edge">
<title>cool_ideas_WARP_agent_action_provenance&#45;&gt;cool_ideas_WARP_intent_and_decision_events</title>
<path fill="none" stroke="#666666" d="M6951.55,-294.87C6939.27,-289.02 6924.34,-281.86 6911,-275.3 6894.45,-267.16 6876.05,-257.89 6861.17,-250.34"/>
<polygon fill="#666666" stroke="#666666" points="6862.04,-248.83 6856.79,-248.12 6860.46,-251.95 6862.04,-248.83"/>
<text xml:space="preserve" text-anchor="middle" x="6942.5" y="-268.65" font-family="Helvetica,sans-Serif" font-size="7.00">blocked_by/blocking</text>
</g>
<!-- cool_ideas_WARP_provenance_dag -->
<g id="node68" class="node">
<title>cool_ideas_WARP_provenance_dag</title>
<path fill="#d4e8f7" stroke="black" d="M7024.55,-247.05C7024.55,-247.05 6929.45,-247.05 6929.45,-247.05 6925.25,-247.05 6921.05,-242.85 6921.05,-238.65 6921.05,-238.65 6921.05,-230.25 6921.05,-230.25 6921.05,-226.05 6925.25,-221.85 6929.45,-221.85 6929.45,-221.85 7024.55,-221.85 7024.55,-221.85 7028.75,-221.85 7032.95,-226.05 7032.95,-230.25 7032.95,-230.25 7032.95,-238.65 7032.95,-238.65 7032.95,-242.85 7028.75,-247.05 7024.55,-247.05"/>
<text xml:space="preserve" text-anchor="middle" x="6977" y="-231.35" font-family="Helvetica,sans-Serif" font-size="8.00">WARP&#45;provenance&#45;dag &#45; L</text>
</g>
<!-- cool_ideas_WARP_agent_action_provenance&#45;&gt;cool_ideas_WARP_provenance_dag -->
<g id="edge6" class="edge">
<title>cool_ideas_WARP_agent_action_provenance&#45;&gt;cool_ideas_WARP_provenance_dag</title>
<path fill="none" stroke="#666666" d="M6977,-295.1C6977,-283.9 6977,-266.88 6977,-253.88"/>
<polygon fill="#666666" stroke="#666666" points="6978.75,-254.02 6977,-249.02 6975.25,-254.02 6978.75,-254.02"/>
<text xml:space="preserve" text-anchor="middle" x="7008.5" y="-268.65" font-family="Helvetica,sans-Serif" font-size="7.00">blocked_by/blocking</text>
</g>
<!-- cool_ideas_WARP_auto_breaking_change_detection -->
<g id="node49" class="node">
<title>cool_ideas_WARP_auto_breaking_change_detection</title>
<path fill="#d4e8f7" stroke="black" d="M10089.3,-247.05C10089.3,-247.05 9938.7,-247.05 9938.7,-247.05 9934.5,-247.05 9930.3,-242.85 9930.3,-238.65 9930.3,-238.65 9930.3,-230.25 9930.3,-230.25 9930.3,-226.05 9934.5,-221.85 9938.7,-221.85 9938.7,-221.85 10089.3,-221.85 10089.3,-221.85 10093.5,-221.85 10097.7,-226.05 10097.7,-230.25 10097.7,-230.25 10097.7,-238.65 10097.7,-238.65 10097.7,-242.85 10093.5,-247.05 10089.3,-247.05"/>
<text xml:space="preserve" text-anchor="middle" x="10014" y="-231.35" font-family="Helvetica,sans-Serif" font-size="8.00">WARP&#45;auto&#45;breaking&#45;change&#45;detection &#45; L</text>
</g>
<!-- cool_ideas_WARP_budget_elasticity -->
<g id="node51" class="node">
<title>cool_ideas_WARP_budget_elasticity</title>
<path fill="#d4e8f7" stroke="black" d="M7168.93,-320.5C7168.93,-320.5 7073.07,-320.5 7073.07,-320.5 7068.88,-320.5 7064.68,-316.3 7064.68,-312.1 7064.68,-312.1 7064.68,-303.7 7064.68,-303.7 7064.68,-299.5 7068.88,-295.3 7073.07,-295.3 7073.07,-295.3 7168.93,-295.3 7168.93,-295.3 7173.12,-295.3 7177.32,-299.5 7177.32,-303.7 7177.32,-303.7 7177.32,-312.1 7177.32,-312.1 7177.32,-316.3 7173.12,-320.5 7168.93,-320.5"/>
<text xml:space="preserve" text-anchor="middle" x="7121" y="-304.8" font-family="Helvetica,sans-Serif" font-size="8.00">WARP&#45;budget&#45;elasticity &#45; M</text>
</g>
<!-- cool_ideas_WARP_causal_blame_for_staged_artifacts -->
<g id="node52" class="node">
<title>cool_ideas_WARP_causal_blame_for_staged_artifacts</title>
<path fill="#d4e8f7" stroke="black" d="M7128.18,-173.6C7128.18,-173.6 6973.82,-173.6 6973.82,-173.6 6969.62,-173.6 6965.43,-169.4 6965.43,-165.2 6965.43,-165.2 6965.43,-156.8 6965.43,-156.8 6965.43,-152.6 6969.62,-148.4 6973.82,-148.4 6973.82,-148.4 7128.18,-148.4 7128.18,-148.4 7132.38,-148.4 7136.57,-152.6 7136.57,-156.8 7136.57,-156.8 7136.57,-165.2 7136.57,-165.2 7136.57,-169.4 7132.38,-173.6 7128.18,-173.6"/>
<text xml:space="preserve" text-anchor="middle" x="7051" y="-157.9" font-family="Helvetica,sans-Serif" font-size="8.00">WARP&#45;causal&#45;blame&#45;for&#45;staged&#45;artifacts &#45; L</text>
</g>
<!-- cool_ideas_WARP_codebase_entropy_trajectory -->
<g id="node54" class="node">
<title>cool_ideas_WARP_codebase_entropy_trajectory</title>
<path fill="#d4e8f7" stroke="black" d="M7338.68,-320.5C7338.68,-320.5 7199.32,-320.5 7199.32,-320.5 7195.12,-320.5 7190.93,-316.3 7190.93,-312.1 7190.93,-312.1 7190.93,-303.7 7190.93,-303.7 7190.93,-299.5 7195.12,-295.3 7199.32,-295.3 7199.32,-295.3 7338.68,-295.3 7338.68,-295.3 7342.88,-295.3 7347.07,-299.5 7347.07,-303.7 7347.07,-303.7 7347.07,-312.1 7347.07,-312.1 7347.07,-316.3 7342.88,-320.5 7338.68,-320.5"/>
<text xml:space="preserve" text-anchor="middle" x="7269" y="-304.8" font-family="Helvetica,sans-Serif" font-size="8.00">WARP&#45;codebase&#45;entropy&#45;trajectory &#45; M</text>
</g>
<!-- cool_ideas_WARP_counterfactual_refactoring -->
<g id="node56" class="node">
<title>cool_ideas_WARP_counterfactual_refactoring</title>
<path fill="#d4e8f7" stroke="black" d="M7346.68,-247.05C7346.68,-247.05 7213.32,-247.05 7213.32,-247.05 7209.12,-247.05 7204.93,-242.85 7204.93,-238.65 7204.93,-238.65 7204.93,-230.25 7204.93,-230.25 7204.93,-226.05 7209.12,-221.85 7213.32,-221.85 7213.32,-221.85 7346.68,-221.85 7346.68,-221.85 7350.88,-221.85 7355.07,-226.05 7355.07,-230.25 7355.07,-230.25 7355.07,-238.65 7355.07,-238.65 7355.07,-242.85 7350.88,-247.05 7346.68,-247.05"/>
<text xml:space="preserve" text-anchor="middle" x="7280" y="-231.35" font-family="Helvetica,sans-Serif" font-size="8.00">WARP&#45;counterfactual&#45;refactoring &#45; XL</text>
</g>
<!-- cool_ideas_WARP_codebase_entropy_trajectory&#45;&gt;cool_ideas_WARP_counterfactual_refactoring -->
<g id="edge7" class="edge">
<title>cool_ideas_WARP_codebase_entropy_trajectory&#45;&gt;cool_ideas_WARP_counterfactual_refactoring</title>
<path fill="none" stroke="#666666" d="M7270.82,-295.1C7272.54,-283.9 7275.16,-266.88 7277.16,-253.88"/>
<polygon fill="#666666" stroke="#666666" points="7278.88,-254.21 7277.91,-249 7275.42,-253.68 7278.88,-254.21"/>
<text xml:space="preserve" text-anchor="middle" x="7306.33" y="-268.65" font-family="Helvetica,sans-Serif" font-size="7.00">blocked_by/blocking</text>
</g>
<!-- cool_ideas_WARP_codebase_signature -->
<g id="node55" class="node">
<title>cool_ideas_WARP_codebase_signature</title>
<path fill="#d4e8f7" stroke="black" d="M7476.55,-320.5C7476.55,-320.5 7369.45,-320.5 7369.45,-320.5 7365.25,-320.5 7361.05,-316.3 7361.05,-312.1 7361.05,-312.1 7361.05,-303.7 7361.05,-303.7 7361.05,-299.5 7365.25,-295.3 7369.45,-295.3 7369.45,-295.3 7476.55,-295.3 7476.55,-295.3 7480.75,-295.3 7484.95,-299.5 7484.95,-303.7 7484.95,-303.7 7484.95,-312.1 7484.95,-312.1 7484.95,-316.3 7480.75,-320.5 7476.55,-320.5"/>
<text xml:space="preserve" text-anchor="middle" x="7423" y="-304.8" font-family="Helvetica,sans-Serif" font-size="8.00">WARP&#45;codebase&#45;signature &#45; L</text>
</g>
<!-- cool_ideas_WARP_structural_impact_prediction -->
<g id="node78" class="node">
<title>cool_ideas_WARP_structural_impact_prediction</title>
<path fill="#d4e8f7" stroke="black" d="M7349.3,-173.6C7349.3,-173.6 7210.7,-173.6 7210.7,-173.6 7206.5,-173.6 7202.3,-169.4 7202.3,-165.2 7202.3,-165.2 7202.3,-156.8 7202.3,-156.8 7202.3,-152.6 7206.5,-148.4 7210.7,-148.4 7210.7,-148.4 7349.3,-148.4 7349.3,-148.4 7353.5,-148.4 7357.7,-152.6 7357.7,-156.8 7357.7,-156.8 7357.7,-165.2 7357.7,-165.2 7357.7,-169.4 7353.5,-173.6 7349.3,-173.6"/>
<text xml:space="preserve" text-anchor="middle" x="7280" y="-157.9" font-family="Helvetica,sans-Serif" font-size="8.00">WARP&#45;structural&#45;impact&#45;prediction &#45; XL</text>
</g>
<!-- cool_ideas_WARP_counterfactual_refactoring&#45;&gt;cool_ideas_WARP_structural_impact_prediction -->
<g id="edge8" class="edge">
<title>cool_ideas_WARP_counterfactual_refactoring&#45;&gt;cool_ideas_WARP_structural_impact_prediction</title>
<path fill="none" stroke="#666666" d="M7280,-221.65C7280,-210.45 7280,-193.43 7280,-180.43"/>
<polygon fill="#666666" stroke="#666666" points="7281.75,-180.57 7280,-175.57 7278.25,-180.57 7281.75,-180.57"/>
<text xml:space="preserve" text-anchor="middle" x="7311.5" y="-195.2" font-family="Helvetica,sans-Serif" font-size="7.00">blocked_by/blocking</text>
</g>
<!-- cool_ideas_WARP_dead_symbol_detection -->
<g id="node57" class="node">
<title>cool_ideas_WARP_dead_symbol_detection</title>
<path fill="#d4e8f7" stroke="black" d="M7626.18,-320.5C7626.18,-320.5 7507.82,-320.5 7507.82,-320.5 7503.62,-320.5 7499.43,-316.3 7499.43,-312.1 7499.43,-312.1 7499.43,-303.7 7499.43,-303.7 7499.43,-299.5 7503.62,-295.3 7507.82,-295.3 7507.82,-295.3 7626.18,-295.3 7626.18,-295.3 7630.38,-295.3 7634.57,-299.5 7634.57,-303.7 7634.57,-303.7 7634.57,-312.1 7634.57,-312.1 7634.57,-316.3 7630.38,-320.5 7626.18,-320.5"/>
<text xml:space="preserve" text-anchor="middle" x="7567" y="-304.8" font-family="Helvetica,sans-Serif" font-size="8.00">WARP&#45;dead&#45;symbol&#45;detection &#45; S</text>
</g>
<!-- cool_ideas_WARP_degeneracy_warning -->
<g id="node58" class="node">
<title>cool_ideas_WARP_degeneracy_warning</title>
<path fill="#d4e8f7" stroke="black" d="M7769.18,-320.5C7769.18,-320.5 7656.82,-320.5 7656.82,-320.5 7652.62,-320.5 7648.43,-316.3 7648.43,-312.1 7648.43,-312.1 7648.43,-303.7 7648.43,-303.7 7648.43,-299.5 7652.62,-295.3 7656.82,-295.3 7656.82,-295.3 7769.18,-295.3 7769.18,-295.3 7773.38,-295.3 7777.57,-299.5 7777.57,-303.7 7777.57,-303.7 7777.57,-312.1 7777.57,-312.1 7777.57,-316.3 7773.38,-320.5 7769.18,-320.5"/>
<text xml:space="preserve" text-anchor="middle" x="7713" y="-304.8" font-family="Helvetica,sans-Serif" font-size="8.00">WARP&#45;degeneracy&#45;warning &#45; M</text>
</g>
<!-- cool_ideas_WARP_drift_sentinel -->
<g id="node59" class="node">
<title>cool_ideas_WARP_drift_sentinel</title>
<path fill="#d4e8f7" stroke="black" d="M9682.18,-247.05C9682.18,-247.05 9599.82,-247.05 9599.82,-247.05 9595.62,-247.05 9591.42,-242.85 9591.42,-238.65 9591.42,-238.65 9591.42,-230.25 9591.42,-230.25 9591.42,-226.05 9595.62,-221.85 9599.82,-221.85 9599.82,-221.85 9682.18,-221.85 9682.18,-221.85 9686.38,-221.85 9690.58,-226.05 9690.58,-230.25 9690.58,-230.25 9690.58,-238.65 9690.58,-238.65 9690.58,-242.85 9686.38,-247.05 9682.18,-247.05"/>
<text xml:space="preserve" text-anchor="middle" x="9641" y="-231.35" font-family="Helvetica,sans-Serif" font-size="8.00">WARP&#45;drift&#45;sentinel &#45; M</text>
</g>
<!-- cool_ideas_WARP_footprint_parallelism -->
<g id="node60" class="node">
<title>cool_ideas_WARP_footprint_parallelism</title>
<path fill="#d4e8f7" stroke="black" d="M7911.8,-320.5C7911.8,-320.5 7800.2,-320.5 7800.2,-320.5 7796,-320.5 7791.8,-316.3 7791.8,-312.1 7791.8,-312.1 7791.8,-303.7 7791.8,-303.7 7791.8,-299.5 7796,-295.3 7800.2,-295.3 7800.2,-295.3 7911.8,-295.3 7911.8,-295.3 7916,-295.3 7920.2,-299.5 7920.2,-303.7 7920.2,-303.7 7920.2,-312.1 7920.2,-312.1 7920.2,-316.3 7916,-320.5 7911.8,-320.5"/>
<text xml:space="preserve" text-anchor="middle" x="7856" y="-304.8" font-family="Helvetica,sans-Serif" font-size="8.00">WARP&#45;footprint&#45;parallelism &#45; XL</text>
</g>
<!-- cool_ideas_WARP_graft_pack -->
<g id="node61" class="node">
<title>cool_ideas_WARP_graft_pack</title>
<path fill="#d4e8f7" stroke="black" d="M8017.43,-320.5C8017.43,-320.5 7942.57,-320.5 7942.57,-320.5 7938.38,-320.5 7934.18,-316.3 7934.18,-312.1 7934.18,-312.1 7934.18,-303.7 7934.18,-303.7 7934.18,-299.5 7938.38,-295.3 7942.57,-295.3 7942.57,-295.3 8017.43,-295.3 8017.43,-295.3 8021.62,-295.3 8025.82,-299.5 8025.82,-303.7 8025.82,-303.7 8025.82,-312.1 8025.82,-312.1 8025.82,-316.3 8021.62,-320.5 8017.43,-320.5"/>
<text xml:space="preserve" text-anchor="middle" x="7980" y="-304.8" font-family="Helvetica,sans-Serif" font-size="8.00">WARP&#45;graft&#45;pack &#45; M</text>
</g>
<!-- cool_ideas_WARP_grouped_aggregate_queries -->
<g id="node62" class="node">
<title>cool_ideas_WARP_grouped_aggregate_queries</title>
<path fill="#d4e8f7" stroke="black" d="M8185.93,-320.5C8185.93,-320.5 8048.07,-320.5 8048.07,-320.5 8043.88,-320.5 8039.68,-316.3 8039.68,-312.1 8039.68,-312.1 8039.68,-303.7 8039.68,-303.7 8039.68,-299.5 8043.88,-295.3 8048.07,-295.3 8048.07,-295.3 8185.93,-295.3 8185.93,-295.3 8190.13,-295.3 8194.33,-299.5 8194.33,-303.7 8194.33,-303.7 8194.33,-312.1 8194.33,-312.1 8194.33,-316.3 8190.13,-320.5 8185.93,-320.5"/>
<text xml:space="preserve" text-anchor="middle" x="8117" y="-304.8" font-family="Helvetica,sans-Serif" font-size="8.00">WARP&#45;grouped&#45;aggregate&#45;queries &#45; M</text>
</g>
<!-- cool_ideas_WARP_intentional_degeneracy_privacy -->
<g id="node64" class="node">
<title>cool_ideas_WARP_intentional_degeneracy_privacy</title>
<path fill="#d4e8f7" stroke="black" d="M8364.8,-320.5C8364.8,-320.5 8217.2,-320.5 8217.2,-320.5 8213,-320.5 8208.8,-316.3 8208.8,-312.1 8208.8,-312.1 8208.8,-303.7 8208.8,-303.7 8208.8,-299.5 8213,-295.3 8217.2,-295.3 8217.2,-295.3 8364.8,-295.3 8364.8,-295.3 8369,-295.3 8373.2,-299.5 8373.2,-303.7 8373.2,-303.7 8373.2,-312.1 8373.2,-312.1 8373.2,-316.3 8369,-320.5 8364.8,-320.5"/>
<text xml:space="preserve" text-anchor="middle" x="8291" y="-304.8" font-family="Helvetica,sans-Serif" font-size="8.00">WARP&#45;intentional&#45;degeneracy&#45;privacy &#45; M</text>
</g>
<!-- cool_ideas_WARP_minimum_viable_context -->
<g id="node65" class="node">
<title>cool_ideas_WARP_minimum_viable_context</title>
<path fill="#d4e8f7" stroke="black" d="M8518.43,-320.5C8518.43,-320.5 8395.57,-320.5 8395.57,-320.5 8391.38,-320.5 8387.17,-316.3 8387.17,-312.1 8387.17,-312.1 8387.17,-303.7 8387.17,-303.7 8387.17,-299.5 8391.38,-295.3 8395.57,-295.3 8395.57,-295.3 8518.43,-295.3 8518.43,-295.3 8522.62,-295.3 8526.83,-299.5 8526.83,-303.7 8526.83,-303.7 8526.83,-312.1 8526.83,-312.1 8526.83,-316.3 8522.62,-320.5 8518.43,-320.5"/>
<text xml:space="preserve" text-anchor="middle" x="8457" y="-304.8" font-family="Helvetica,sans-Serif" font-size="8.00">WARP&#45;minimum&#45;viable&#45;context &#45; M</text>
</g>
<!-- cool_ideas_WARP_outline_diff_commit_trailer -->
<g id="node66" class="node">
<title>cool_ideas_WARP_outline_diff_commit_trailer</title>
<path fill="#d4e8f7" stroke="black" d="M8674.93,-320.5C8674.93,-320.5 8549.07,-320.5 8549.07,-320.5 8544.88,-320.5 8540.67,-316.3 8540.67,-312.1 8540.67,-312.1 8540.67,-303.7 8540.67,-303.7 8540.67,-299.5 8544.88,-295.3 8549.07,-295.3 8549.07,-295.3 8674.93,-295.3 8674.93,-295.3 8679.12,-295.3 8683.33,-299.5 8683.33,-303.7 8683.33,-303.7 8683.33,-312.1 8683.33,-312.1 8683.33,-316.3 8679.12,-320.5 8674.93,-320.5"/>
<text xml:space="preserve" text-anchor="middle" x="8612" y="-304.8" font-family="Helvetica,sans-Serif" font-size="8.00">WARP&#45;outline&#45;diff&#45;commit&#45;trailer &#45; S</text>
</g>
<!-- cool_ideas_WARP_projection_safety_classes -->
<g id="node67" class="node">
<title>cool_ideas_WARP_projection_safety_classes</title>
<path fill="#d4e8f7" stroke="black" d="M8831.93,-320.5C8831.93,-320.5 8706.07,-320.5 8706.07,-320.5 8701.88,-320.5 8697.67,-316.3 8697.67,-312.1 8697.67,-312.1 8697.67,-303.7 8697.67,-303.7 8697.67,-299.5 8701.88,-295.3 8706.07,-295.3 8706.07,-295.3 8831.93,-295.3 8831.93,-295.3 8836.12,-295.3 8840.33,-299.5 8840.33,-303.7 8840.33,-303.7 8840.33,-312.1 8840.33,-312.1 8840.33,-316.3 8836.12,-320.5 8831.93,-320.5"/>
<text xml:space="preserve" text-anchor="middle" x="8769" y="-304.8" font-family="Helvetica,sans-Serif" font-size="8.00">WARP&#45;projection&#45;safety&#45;classes &#45; M</text>
</g>
<!-- cool_ideas_WARP_provenance_dag&#45;&gt;cool_ideas_WARP_causal_blame_for_staged_artifacts -->
<g id="edge9" class="edge">
<title>cool_ideas_WARP_provenance_dag&#45;&gt;cool_ideas_WARP_causal_blame_for_staged_artifacts</title>
<path fill="none" stroke="#666666" d="M6989.22,-221.65C7001.46,-209.83 7020.41,-191.54 7034.09,-178.32"/>
<polygon fill="#666666" stroke="#666666" points="7035.04,-179.84 7037.43,-175.11 7032.61,-177.32 7035.04,-179.84"/>
<text xml:space="preserve" text-anchor="middle" x="7047.72" y="-195.2" font-family="Helvetica,sans-Serif" font-size="7.00">blocked_by/blocking</text>
</g>
<!-- cool_ideas_WARP_reasoning_trace_replay -->
<g id="node69" class="node">
<title>cool_ideas_WARP_reasoning_trace_replay</title>
<path fill="#d4e8f7" stroke="black" d="M6942.93,-173.6C6942.93,-173.6 6823.07,-173.6 6823.07,-173.6 6818.88,-173.6 6814.68,-169.4 6814.68,-165.2 6814.68,-165.2 6814.68,-156.8 6814.68,-156.8 6814.68,-152.6 6818.88,-148.4 6823.07,-148.4 6823.07,-148.4 6942.93,-148.4 6942.93,-148.4 6947.12,-148.4 6951.32,-152.6 6951.32,-156.8 6951.32,-156.8 6951.32,-165.2 6951.32,-165.2 6951.32,-169.4 6947.12,-173.6 6942.93,-173.6"/>
<text xml:space="preserve" text-anchor="middle" x="6883" y="-157.9" font-family="Helvetica,sans-Serif" font-size="8.00">WARP&#45;reasoning&#45;trace&#45;replay &#45; M</text>
</g>
<!-- cool_ideas_WARP_provenance_dag&#45;&gt;cool_ideas_WARP_reasoning_trace_replay -->
<g id="edge10" class="edge">
<title>cool_ideas_WARP_provenance_dag&#45;&gt;cool_ideas_WARP_reasoning_trace_replay</title>
<path fill="none" stroke="#666666" d="M6961.48,-221.65C6945.79,-209.73 6921.44,-191.22 6904.02,-177.98"/>
<polygon fill="#666666" stroke="#666666" points="6905.1,-176.6 6900.06,-174.97 6902.99,-179.39 6905.1,-176.6"/>
<text xml:space="preserve" text-anchor="middle" x="6964.32" y="-195.2" font-family="Helvetica,sans-Serif" font-size="7.00">blocked_by/blocking</text>
</g>
<!-- cool_ideas_WARP_rulial_heat_map -->
<g id="node70" class="node">
<title>cool_ideas_WARP_rulial_heat_map</title>
<path fill="#d4e8f7" stroke="black" d="M8953.3,-320.5C8953.3,-320.5 8862.7,-320.5 8862.7,-320.5 8858.5,-320.5 8854.3,-316.3 8854.3,-312.1 8854.3,-312.1 8854.3,-303.7 8854.3,-303.7 8854.3,-299.5 8858.5,-295.3 8862.7,-295.3 8862.7,-295.3 8953.3,-295.3 8953.3,-295.3 8957.5,-295.3 8961.7,-299.5 8961.7,-303.7 8961.7,-303.7 8961.7,-312.1 8961.7,-312.1 8961.7,-316.3 8957.5,-320.5 8953.3,-320.5"/>
<text xml:space="preserve" text-anchor="middle" x="8908" y="-304.8" font-family="Helvetica,sans-Serif" font-size="8.00">WARP&#45;rulial&#45;heat&#45;map &#45; L</text>
</g>
<!-- cool_ideas_WARP_semantic_drift_in_sessions -->
<g id="node71" class="node">
<title>cool_ideas_WARP_semantic_drift_in_sessions</title>
<path fill="#d4e8f7" stroke="black" d="M9113.43,-320.5C9113.43,-320.5 8984.57,-320.5 8984.57,-320.5 8980.38,-320.5 8976.17,-316.3 8976.17,-312.1 8976.17,-312.1 8976.17,-303.7 8976.17,-303.7 8976.17,-299.5 8980.38,-295.3 8984.57,-295.3 8984.57,-295.3 9113.43,-295.3 9113.43,-295.3 9117.62,-295.3 9121.83,-299.5 9121.83,-303.7 9121.83,-303.7 9121.83,-312.1 9121.83,-312.1 9121.83,-316.3 9117.62,-320.5 9113.43,-320.5"/>
<text xml:space="preserve" text-anchor="middle" x="9049" y="-304.8" font-family="Helvetica,sans-Serif" font-size="8.00">WARP&#45;semantic&#45;drift&#45;in&#45;sessions &#45; M</text>
</g>
<!-- cool_ideas_WARP_semantic_merge_conflict_prediction -->
<g id="node72" class="node">
<title>cool_ideas_WARP_semantic_merge_conflict_prediction</title>
<path fill="#d4e8f7" stroke="black" d="M10279.43,-247.05C10279.43,-247.05 10120.57,-247.05 10120.57,-247.05 10116.38,-247.05 10112.17,-242.85 10112.17,-238.65 10112.17,-238.65 10112.17,-230.25 10112.17,-230.25 10112.17,-226.05 10116.38,-221.85 10120.57,-221.85 10120.57,-221.85 10279.43,-221.85 10279.43,-221.85 10283.62,-221.85 10287.83,-226.05 10287.83,-230.25 10287.83,-230.25 10287.83,-238.65 10287.83,-238.65 10287.83,-242.85 10283.62,-247.05 10279.43,-247.05"/>
<text xml:space="preserve" text-anchor="middle" x="10200" y="-231.35" font-family="Helvetica,sans-Serif" font-size="8.00">WARP&#45;semantic&#45;merge&#45;conflict&#45;prediction &#45; L</text>
</g>
<!-- cool_ideas_WARP_session_filtration -->
<g id="node73" class="node">
<title>cool_ideas_WARP_session_filtration</title>
<path fill="#d4e8f7" stroke="black" d="M9237.8,-320.5C9237.8,-320.5 9144.2,-320.5 9144.2,-320.5 9140,-320.5 9135.8,-316.3 9135.8,-312.1 9135.8,-312.1 9135.8,-303.7 9135.8,-303.7 9135.8,-299.5 9140,-295.3 9144.2,-295.3 9144.2,-295.3 9237.8,-295.3 9237.8,-295.3 9242,-295.3 9246.2,-299.5 9246.2,-303.7 9246.2,-303.7 9246.2,-312.1 9246.2,-312.1 9246.2,-316.3 9242,-320.5 9237.8,-320.5"/>
<text xml:space="preserve" text-anchor="middle" x="9191" y="-304.8" font-family="Helvetica,sans-Serif" font-size="8.00">WARP&#45;session&#45;filtration &#45; L</text>
</g>
<!-- cool_ideas_WARP_shadow_structural_workspaces -->
<g id="node74" class="node">
<title>cool_ideas_WARP_shadow_structural_workspaces</title>
<path fill="#d4e8f7" stroke="black" d="M9419.3,-320.5C9419.3,-320.5 9268.7,-320.5 9268.7,-320.5 9264.5,-320.5 9260.3,-316.3 9260.3,-312.1 9260.3,-312.1 9260.3,-303.7 9260.3,-303.7 9260.3,-299.5 9264.5,-295.3 9268.7,-295.3 9268.7,-295.3 9419.3,-295.3 9419.3,-295.3 9423.5,-295.3 9427.7,-299.5 9427.7,-303.7 9427.7,-303.7 9427.7,-312.1 9427.7,-312.1 9427.7,-316.3 9423.5,-320.5 9419.3,-320.5"/>
<text xml:space="preserve" text-anchor="middle" x="9344" y="-304.8" font-family="Helvetica,sans-Serif" font-size="8.00">WARP&#45;shadow&#45;structural&#45;workspaces &#45; XL</text>
</g>
<!-- cool_ideas_WARP_speculative_merge -->
<g id="node75" class="node">
<title>cool_ideas_WARP_speculative_merge</title>
<path fill="#d4e8f7" stroke="black" d="M9557.55,-320.5C9557.55,-320.5 9450.45,-320.5 9450.45,-320.5 9446.25,-320.5 9442.05,-316.3 9442.05,-312.1 9442.05,-312.1 9442.05,-303.7 9442.05,-303.7 9442.05,-299.5 9446.25,-295.3 9450.45,-295.3 9450.45,-295.3 9557.55,-295.3 9557.55,-295.3 9561.75,-295.3 9565.95,-299.5 9565.95,-303.7 9565.95,-303.7 9565.95,-312.1 9565.95,-312.1 9565.95,-316.3 9561.75,-320.5 9557.55,-320.5"/>
<text xml:space="preserve" text-anchor="middle" x="9504" y="-304.8" font-family="Helvetica,sans-Serif" font-size="8.00">WARP&#45;speculative&#45;merge &#45; XL</text>
</g>
<!-- cool_ideas_WARP_stale_docs_checker -->
<g id="node76" class="node">
<title>cool_ideas_WARP_stale_docs_checker</title>
<path fill="#d4e8f7" stroke="black" d="M9693.8,-320.5C9693.8,-320.5 9588.2,-320.5 9588.2,-320.5 9584,-320.5 9579.8,-316.3 9579.8,-312.1 9579.8,-312.1 9579.8,-303.7 9579.8,-303.7 9579.8,-299.5 9584,-295.3 9588.2,-295.3 9588.2,-295.3 9693.8,-295.3 9693.8,-295.3 9698,-295.3 9702.2,-299.5 9702.2,-303.7 9702.2,-303.7 9702.2,-312.1 9702.2,-312.1 9702.2,-316.3 9698,-320.5 9693.8,-320.5"/>
<text xml:space="preserve" text-anchor="middle" x="9641" y="-304.8" font-family="Helvetica,sans-Serif" font-size="8.00">WARP&#45;stale&#45;docs&#45;checker &#45; M</text>
</g>
<!-- cool_ideas_WARP_stale_docs_checker&#45;&gt;cool_ideas_WARP_drift_sentinel -->
<g id="edge11" class="edge">
<title>cool_ideas_WARP_stale_docs_checker&#45;&gt;cool_ideas_WARP_drift_sentinel</title>
<path fill="none" stroke="#666666" d="M9641,-295.1C9641,-283.9 9641,-266.88 9641,-253.88"/>
<polygon fill="#666666" stroke="#666666" points="9642.75,-254.02 9641,-249.02 9639.25,-254.02 9642.75,-254.02"/>
<text xml:space="preserve" text-anchor="middle" x="9672.5" y="-268.65" font-family="Helvetica,sans-Serif" font-size="7.00">blocked_by/blocking</text>
</g>
<!-- cool_ideas_WARP_structural_drift_detection -->
<g id="node77" class="node">
<title>cool_ideas_WARP_structural_drift_detection</title>
<path fill="#d4e8f7" stroke="black" d="M9847.8,-320.5C9847.8,-320.5 9724.2,-320.5 9724.2,-320.5 9720,-320.5 9715.8,-316.3 9715.8,-312.1 9715.8,-312.1 9715.8,-303.7 9715.8,-303.7 9715.8,-299.5 9720,-295.3 9724.2,-295.3 9724.2,-295.3 9847.8,-295.3 9847.8,-295.3 9852,-295.3 9856.2,-299.5 9856.2,-303.7 9856.2,-303.7 9856.2,-312.1 9856.2,-312.1 9856.2,-316.3 9852,-320.5 9847.8,-320.5"/>
<text xml:space="preserve" text-anchor="middle" x="9786" y="-304.8" font-family="Helvetica,sans-Serif" font-size="8.00">WARP&#45;structural&#45;drift&#45;detection &#45; M</text>
</g>
<!-- cool_ideas_WARP_symbol_heatmap -->
<g id="node79" class="node">
<title>cool_ideas_WARP_symbol_heatmap</title>
<path fill="#d4e8f7" stroke="black" d="M9977.05,-320.5C9977.05,-320.5 9878.95,-320.5 9878.95,-320.5 9874.75,-320.5 9870.55,-316.3 9870.55,-312.1 9870.55,-312.1 9870.55,-303.7 9870.55,-303.7 9870.55,-299.5 9874.75,-295.3 9878.95,-295.3 9878.95,-295.3 9977.05,-295.3 9977.05,-295.3 9981.25,-295.3 9985.45,-299.5 9985.45,-303.7 9985.45,-303.7 9985.45,-312.1 9985.45,-312.1 9985.45,-316.3 9981.25,-320.5 9977.05,-320.5"/>
<text xml:space="preserve" text-anchor="middle" x="9928" y="-304.8" font-family="Helvetica,sans-Serif" font-size="8.00">WARP&#45;symbol&#45;heatmap &#45; M</text>
</g>
<!-- cool_ideas_WARP_symbol_history_timeline -->
<g id="node80" class="node">
<title>cool_ideas_WARP_symbol_history_timeline</title>
<path fill="#d4e8f7" stroke="black" d="M10126.18,-320.5C10126.18,-320.5 10007.82,-320.5 10007.82,-320.5 10003.62,-320.5 9999.42,-316.3 9999.42,-312.1 9999.42,-312.1 9999.42,-303.7 9999.42,-303.7 9999.42,-299.5 10003.62,-295.3 10007.82,-295.3 10007.82,-295.3 10126.18,-295.3 10126.18,-295.3 10130.38,-295.3 10134.58,-299.5 10134.58,-303.7 10134.58,-303.7 10134.58,-312.1 10134.58,-312.1 10134.58,-316.3 10130.38,-320.5 10126.18,-320.5"/>
<text xml:space="preserve" text-anchor="middle" x="10067" y="-304.8" font-family="Helvetica,sans-Serif" font-size="8.00">WARP&#45;symbol&#45;history&#45;timeline &#45; S</text>
</g>
<!-- cool_ideas_WARP_temporal_structural_search -->
<g id="node82" class="node">
<title>cool_ideas_WARP_temporal_structural_search</title>
<path fill="#d4e8f7" stroke="black" d="M9907.68,-247.05C9907.68,-247.05 9774.32,-247.05 9774.32,-247.05 9770.12,-247.05 9765.92,-242.85 9765.92,-238.65 9765.92,-238.65 9765.92,-230.25 9765.92,-230.25 9765.92,-226.05 9770.12,-221.85 9774.32,-221.85 9774.32,-221.85 9907.68,-221.85 9907.68,-221.85 9911.88,-221.85 9916.08,-226.05 9916.08,-230.25 9916.08,-230.25 9916.08,-238.65 9916.08,-238.65 9916.08,-242.85 9911.88,-247.05 9907.68,-247.05"/>
<text xml:space="preserve" text-anchor="middle" x="9841" y="-231.35" font-family="Helvetica,sans-Serif" font-size="8.00">WARP&#45;temporal&#45;structural&#45;search &#45; M</text>
</g>
<!-- cool_ideas_WARP_symbol_history_timeline&#45;&gt;cool_ideas_WARP_temporal_structural_search -->
<g id="edge12" class="edge">
<title>cool_ideas_WARP_symbol_history_timeline&#45;&gt;cool_ideas_WARP_temporal_structural_search</title>
<path fill="none" stroke="#666666" d="M10028.92,-294.86C9989.23,-282.31 9927.1,-262.67 9885.26,-249.44"/>
<polygon fill="#666666" stroke="#666666" points="9885.98,-247.83 9880.68,-248 9884.92,-251.17 9885.98,-247.83"/>
<text xml:space="preserve" text-anchor="middle" x="9992.28" y="-268.65" font-family="Helvetica,sans-Serif" font-size="7.00">blocked_by/blocking</text>
</g>
<!-- cool_ideas_WARP_technical_debt_curvature -->
<g id="node81" class="node">
<title>cool_ideas_WARP_technical_debt_curvature</title>
<path fill="#d4e8f7" stroke="black" d="M10279.43,-320.5C10279.43,-320.5 10156.57,-320.5 10156.57,-320.5 10152.38,-320.5 10148.17,-316.3 10148.17,-312.1 10148.17,-312.1 10148.17,-303.7 10148.17,-303.7 10148.17,-299.5 10152.38,-295.3 10156.57,-295.3 10156.57,-295.3 10279.43,-295.3 10279.43,-295.3 10283.62,-295.3 10287.83,-299.5 10287.83,-303.7 10287.83,-303.7 10287.83,-312.1 10287.83,-312.1 10287.83,-316.3 10283.62,-320.5 10279.43,-320.5"/>
<text xml:space="preserve" text-anchor="middle" x="10218" y="-304.8" font-family="Helvetica,sans-Serif" font-size="8.00">WARP&#45;technical&#45;debt&#45;curvature &#45; L</text>
</g>
<!-- external_git_warp_observer_geometry_ladder__Rung_2_4_ -->
<g id="node83" class="node">
<title>external_git_warp_observer_geometry_ladder__Rung_2_4_</title>
<path fill="#e8f2ff" stroke="black" d="M718.68,-320.5C718.68,-320.5 555.32,-320.5 555.32,-320.5 551.12,-320.5 546.92,-316.3 546.92,-312.1 546.92,-312.1 546.92,-303.7 546.92,-303.7 546.92,-299.5 551.12,-295.3 555.32,-295.3 555.32,-295.3 718.68,-295.3 718.68,-295.3 722.88,-295.3 727.08,-299.5 727.08,-303.7 727.08,-303.7 727.08,-312.1 727.08,-312.1 727.08,-316.3 722.88,-320.5 718.68,-320.5"/>
<text xml:space="preserve" text-anchor="middle" x="637" y="-304.8" font-family="Helvetica,sans-Serif" font-size="8.00">git&#45;warp observer geometry ladder (Rung 2&#45;4)</text>
</g>
<!-- external_git_warp_observer_geometry_ladder__Rung_2_4_&#45;&gt;v0_7_0_CORE_migrate_to_slice_first_reads -->
<g id="edge13" class="edge">
<title>external_git_warp_observer_geometry_ladder__Rung_2_4_&#45;&gt;v0_7_0_CORE_migrate_to_slice_first_reads</title>
<path fill="none" stroke="#4477aa" stroke-dasharray="5,2" d="M606.7,-294.94C575.5,-282.62 526.82,-263.41 493.28,-250.16"/>
<polygon fill="#4477aa" stroke="#4477aa" points="494.31,-248.69 489.02,-248.48 493.03,-251.95 494.31,-248.69"/>
<text xml:space="preserve" text-anchor="middle" x="583.8" y="-268.65" font-family="Helvetica,sans-Serif" font-size="7.00">blocked_by_external</text>
</g>
<!-- unresolved_CLEAN_CODE_export_diff_semver_signature_as_patch -->
<g id="node84" class="node">
<title>unresolved_CLEAN_CODE_export_diff_semver_signature_as_patch</title>
<path fill="#f2f2f2" stroke="black" stroke-dasharray="5,2" d="M10543.3,-320.5C10543.3,-320.5 10320.7,-320.5 10320.7,-320.5 10316.5,-320.5 10312.3,-316.3 10312.3,-312.1 10312.3,-312.1 10312.3,-303.7 10312.3,-303.7 10312.3,-299.5 10316.5,-295.3 10320.7,-295.3 10320.7,-295.3 10543.3,-295.3 10543.3,-295.3 10547.5,-295.3 10551.7,-299.5 10551.7,-303.7 10551.7,-303.7 10551.7,-312.1 10551.7,-312.1 10551.7,-316.3 10547.5,-320.5 10543.3,-320.5"/>
<text xml:space="preserve" text-anchor="middle" x="10432" y="-304.8" font-family="Helvetica,sans-Serif" font-size="8.00">missing: CLEAN_CODE_export&#45;diff&#45;semver&#45;signature&#45;as&#45;patch</text>
</g>
<!-- unresolved_CLEAN_CODE_export_diff_semver_signature_as_patch&#45;&gt;cool_ideas_WARP_auto_breaking_change_detection -->
<g id="edge14" class="edge">
<title>unresolved_CLEAN_CODE_export_diff_semver_signature_as_patch&#45;&gt;cool_ideas_WARP_auto_breaking_change_detection</title>
<path fill="none" stroke="#cc3333" stroke-dasharray="5,2" d="M10361.56,-294.86C10286.51,-282.03 10168.05,-261.78 10090.69,-248.56"/>
<polygon fill="#cc3333" stroke="#cc3333" points="10091.44,-246.91 10086.22,-247.79 10090.85,-250.36 10091.44,-246.91"/>
<text xml:space="preserve" text-anchor="middle" x="10253.16" y="-268.65" font-family="Helvetica,sans-Serif" font-size="7.00">blocked_by</text>
</g>
<!-- unresolved_CLEAN_CODE_export_diff_semver_signature_as_patch&#45;&gt;cool_ideas_WARP_semantic_merge_conflict_prediction -->
<g id="edge15" class="edge">
<title>unresolved_CLEAN_CODE_export_diff_semver_signature_as_patch&#45;&gt;cool_ideas_WARP_semantic_merge_conflict_prediction</title>
<path fill="none" stroke="#cc3333" stroke-dasharray="5,2" d="M10392.91,-294.86C10352.17,-282.31 10288.39,-262.67 10245.43,-249.44"/>
<polygon fill="#cc3333" stroke="#cc3333" points="10245.99,-247.78 10240.7,-247.98 10244.96,-251.13 10245.99,-247.78"/>
<text xml:space="preserve" text-anchor="middle" x="10340.58" y="-268.65" font-family="Helvetica,sans-Serif" font-size="7.00">blocked_by</text>
</g>
<!-- leg_v07 -->
<g id="node85" class="node">
<title>leg_v07</title>
<path fill="#ffa07a" stroke="black" stroke-width="2" d="M10668,-320.5C10668,-320.5 10584,-320.5 10584,-320.5 10579.8,-320.5 10575.6,-316.3 10575.6,-312.1 10575.6,-312.1 10575.6,-303.7 10575.6,-303.7 10575.6,-299.5 10579.8,-295.3 10584,-295.3 10584,-295.3 10668,-295.3 10668,-295.3 10672.2,-295.3 10676.4,-299.5 10676.4,-303.7 10676.4,-303.7 10676.4,-312.1 10676.4,-312.1 10676.4,-316.3 10672.2,-320.5 10668,-320.5"/>
<text xml:space="preserve" text-anchor="middle" x="10626" y="-305.38" font-family="Helvetica,sans-Serif" font-size="7.00">v0.7.0</text>
</g>
<!-- leg_bad -->
<g id="node86" class="node">
<title>leg_bad</title>
<path fill="#f6b3b3" stroke="black" stroke-width="2" d="M10668,-247.05C10668,-247.05 10584,-247.05 10584,-247.05 10579.8,-247.05 10575.6,-242.85 10575.6,-238.65 10575.6,-238.65 10575.6,-230.25 10575.6,-230.25 10575.6,-226.05 10579.8,-221.85 10584,-221.85 10584,-221.85 10668,-221.85 10668,-221.85 10672.2,-221.85 10676.4,-226.05 10676.4,-230.25 10676.4,-230.25 10676.4,-238.65 10676.4,-238.65 10676.4,-242.85 10672.2,-247.05 10668,-247.05"/>
<text xml:space="preserve" text-anchor="middle" x="10626" y="-231.92" font-family="Helvetica,sans-Serif" font-size="7.00">bad&#45;code</text>
</g>
<!-- leg_v07&#45;&gt;leg_bad -->
<!-- leg_idea -->
<g id="node87" class="node">
<title>leg_idea</title>
<path fill="#d4e8f7" stroke="black" d="M10668,-173.6C10668,-173.6 10584,-173.6 10584,-173.6 10579.8,-173.6 10575.6,-169.4 10575.6,-165.2 10575.6,-165.2 10575.6,-156.8 10575.6,-156.8 10575.6,-152.6 10579.8,-148.4 10584,-148.4 10584,-148.4 10668,-148.4 10668,-148.4 10672.2,-148.4 10676.4,-152.6 10676.4,-156.8 10676.4,-156.8 10676.4,-165.2 10676.4,-165.2 10676.4,-169.4 10672.2,-173.6 10668,-173.6"/>
<text xml:space="preserve" text-anchor="middle" x="10626" y="-158.47" font-family="Helvetica,sans-Serif" font-size="7.00">cool&#45;ideas</text>
</g>
<!-- leg_bad&#45;&gt;leg_idea -->
<!-- leg_external -->
<g id="node88" class="node">
<title>leg_external</title>
<path fill="#e8f2ff" stroke="black" d="M10668,-107.4C10668,-107.4 10584,-107.4 10584,-107.4 10579.8,-107.4 10575.6,-103.2 10575.6,-99 10575.6,-99 10575.6,-90.6 10575.6,-90.6 10575.6,-86.4 10579.8,-82.2 10584,-82.2 10584,-82.2 10668,-82.2 10668,-82.2 10672.2,-82.2 10676.4,-86.4 10676.4,-90.6 10676.4,-90.6 10676.4,-99 10676.4,-99 10676.4,-103.2 10672.2,-107.4 10668,-107.4"/>
<text xml:space="preserve" text-anchor="middle" x="10626" y="-92.28" font-family="Helvetica,sans-Serif" font-size="7.00">external blocker</text>
</g>
<!-- leg_idea&#45;&gt;leg_external -->
<!-- leg_unresolved -->
<g id="node89" class="node">
<title>leg_unresolved</title>
<path fill="#f2f2f2" stroke="black" stroke-dasharray="5,2" d="M10668,-41.2C10668,-41.2 10584,-41.2 10584,-41.2 10579.8,-41.2 10575.6,-37 10575.6,-32.8 10575.6,-32.8 10575.6,-24.4 10575.6,-24.4 10575.6,-20.2 10579.8,-16 10584,-16 10584,-16 10668,-16 10668,-16 10672.2,-16 10676.4,-20.2 10676.4,-24.4 10676.4,-24.4 10676.4,-32.8 10676.4,-32.8 10676.4,-37 10672.2,-41.2 10668,-41.2"/>
<text xml:space="preserve" text-anchor="middle" x="10626" y="-26.08" font-family="Helvetica,sans-Serif" font-size="7.00">unresolved ref</text>
</g>
<!-- leg_external&#45;&gt;leg_unresolved -->
</g>
</svg>
