<?xml version="1.0" encoding="UTF-8" standalone="no"?>
<!DOCTYPE svg PUBLIC "-//W3C//DTD SVG 1.1//EN"
 "http://www.w3.org/Graphics/SVG/1.1/DTD/svg11.dtd">
<!-- Generated by graphviz version 14.1.2 (20260124.0452)
 -->
<!-- Title: backlog Pages: 1 -->
<svg width="10619pt" height="383pt"
 viewBox="0.00 0.00 10619.00 383.00" xmlns="http://www.w3.org/2000/svg" xmlns:xlink="http://www.w3.org/1999/xlink">
<g id="graph0" class="graph" transform="scale(1 1) rotate(0) translate(4 379)">
<title>backlog</title>
<polygon fill="white" stroke="none" points="-4,4 -4,-379 10615,-379 10615,4 -4,4"/>
<text xml:space="preserve" text-anchor="middle" x="5305.5" y="-359.6" font-family="Helvetica,sans-Serif" font-size="12.00">Active backlog graph generated from docs/method/backlog/*/*.md</text>
<g id="clust1" class="cluster">
<title>cluster_v0_7_0</title>
<path fill="#fafafa" stroke="#cccccc" d="M224,-213.85C224,-213.85 1050,-213.85 1050,-213.85 1056,-213.85 1062,-219.85 1062,-225.85 1062,-225.85 1062,-334.25 1062,-334.25 1062,-340.25 1056,-346.25 1050,-346.25 1050,-346.25 224,-346.25 224,-346.25 218,-346.25 212,-340.25 212,-334.25 212,-334.25 212,-225.85 212,-225.85 212,-219.85 218,-213.85 224,-213.85"/>
<text xml:space="preserve" text-anchor="middle" x="239.12" y="-333.7" font-family="Helvetica,sans-Serif" font-size="9.00" fill="#555555">v0.7.0 (9)</text>
</g>
<g id="clust2" class="cluster">
<title>cluster_cool_ideas</title>
<path fill="#fafafa" stroke="#cccccc" d="M1082,-140.4C1082,-140.4 10203,-140.4 10203,-140.4 10209,-140.4 10215,-146.4 10215,-152.4 10215,-152.4 10215,-334.25 10215,-334.25 10215,-340.25 10209,-346.25 10203,-346.25 10203,-346.25 1082,-346.25 1082,-346.25 1076,-346.25 1070,-340.25 1070,-334.25 1070,-334.25 1070,-152.4 1070,-152.4 1070,-146.4 1076,-140.4 1082,-140.4"/>
<text xml:space="preserve" text-anchor="middle" x="1109.5" y="-333.7" font-family="Helvetica,sans-Serif" font-size="9.00" fill="#555555">Cool Ideas (75)</text>
</g>
<g id="clust3" class="cluster">
<title>cluster_external</title>
<path fill="#f8fbff" stroke="#cccccc" d="M20,-287.3C20,-287.3 192,-287.3 192,-287.3 198,-287.3 204,-293.3 204,-299.3 204,-299.3 204,-334.25 204,-334.25 204,-340.25 198,-346.25 192,-346.25 192,-346.25 20,-346.25 20,-346.25 14,-346.25 8,-340.25 8,-334.25 8,-334.25 8,-299.3 8,-299.3 8,-293.3 14,-287.3 20,-287.3"/>
<text xml:space="preserve" text-anchor="middle" x="51.25" y="-333.7" font-family="Helvetica,sans-Serif" font-size="9.00" fill="#555555">External blockers</text>
</g>
<g id="clust4" class="cluster">
<title>cluster_unresolved</title>
<path fill="#fff7f7" stroke="#cc3333" stroke-dasharray="5,2" d="M10235,-287.3C10235,-287.3 10467,-287.3 10467,-287.3 10473,-287.3 10479,-293.3 10479,-299.3 10479,-299.3 10479,-334.25 10479,-334.25 10479,-340.25 10473,-346.25 10467,-346.25 10467,-346.25 10235,-346.25 10235,-346.25 10229,-346.25 10223,-340.25 10223,-334.25 10223,-334.25 10223,-299.3 10223,-299.3 10223,-293.3 10229,-287.3 10235,-287.3"/>
<text xml:space="preserve" text-anchor="middle" x="10279.75" y="-333.7" font-family="Helvetica,sans-Serif" font-size="9.00" fill="#555555">Unresolved internal refs</text>
</g>
<g id="clust5" class="cluster">
<title>cluster_legend</title>
<path fill="none" stroke="#dddddd" d="M10499,-8C10499,-8 10591,-8 10591,-8 10597,-8 10603,-14 10603,-20 10603,-20 10603,-333.5 10603,-333.5 10603,-339.5 10597,-345.5 10591,-345.5 10591,-345.5 10499,-345.5 10499,-345.5 10493,-345.5 10487,-339.5 10487,-333.5 10487,-333.5 10487,-20 10487,-20 10487,-14 10493,-8 10499,-8"/>
<text xml:space="preserve" text-anchor="middle" x="10508.5" y="-333.9" font-family="Helvetica,sans-Serif" font-size="8.00" fill="#aaaaaa">Legend</text>
</g>
<!-- v0_7_0_CORE_agent_drift_warning -->
<g id="node1" class="node">
<title>v0_7_0_CORE_agent_drift_warning</title>
<path fill="#ffa07a" stroke="black" stroke-width="2" d="M660.05,-247.05C660.05,-247.05 567.95,-247.05 567.95,-247.05 563.75,-247.05 559.55,-242.85 559.55,-238.65 559.55,-238.65 559.55,-230.25 559.55,-230.25 559.55,-226.05 563.75,-221.85 567.95,-221.85 567.95,-221.85 660.05,-221.85 660.05,-221.85 664.25,-221.85 668.45,-226.05 668.45,-230.25 668.45,-230.25 668.45,-238.65 668.45,-238.65 668.45,-242.85 664.25,-247.05 660.05,-247.05"/>
<text xml:space="preserve" text-anchor="middle" x="614" y="-231.35" font-family="Helvetica,sans-Serif" font-size="8.00">CORE&#45;agent&#45;drift&#45;warning</text>
</g>
<!-- v0_7_0_CORE_git_graft_enhance -->
<g id="node2" class="node">
<title>v0_7_0_CORE_git_graft_enhance</title>
<path fill="#ffa07a" stroke="black" stroke-width="2" d="M532.68,-247.05C532.68,-247.05 447.32,-247.05 447.32,-247.05 443.12,-247.05 438.93,-242.85 438.93,-238.65 438.93,-238.65 438.93,-230.25 438.93,-230.25 438.93,-226.05 443.12,-221.85 447.32,-221.85 447.32,-221.85 532.68,-221.85 532.68,-221.85 536.88,-221.85 541.08,-226.05 541.08,-230.25 541.08,-230.25 541.08,-238.65 541.08,-238.65 541.08,-242.85 536.88,-247.05 532.68,-247.05"/>
<text xml:space="preserve" text-anchor="middle" x="490" y="-231.35" font-family="Helvetica,sans-Serif" font-size="8.00">CORE&#45;git&#45;graft&#45;enhance</text>
</g>
<!-- v0_7_0_CORE_migrate_path_ops_to_port -->
<g id="node3" class="node">
<title>v0_7_0_CORE_migrate_path_ops_to_port</title>
<path fill="#ffa07a" stroke="black" stroke-width="2" d="M341.17,-320.5C341.17,-320.5 228.83,-320.5 228.83,-320.5 224.63,-320.5 220.43,-316.3 220.43,-312.1 220.43,-312.1 220.43,-303.7 220.43,-303.7 220.43,-299.5 224.63,-295.3 228.83,-295.3 228.83,-295.3 341.17,-295.3 341.17,-295.3 345.38,-295.3 349.57,-299.5 349.57,-303.7 349.57,-303.7 349.57,-312.1 349.57,-312.1 349.57,-316.3 345.38,-320.5 341.17,-320.5"/>
<text xml:space="preserve" text-anchor="middle" x="285" y="-304.8" font-family="Helvetica,sans-Serif" font-size="8.00">CORE&#45;migrate&#45;path&#45;ops&#45;to&#45;port</text>
</g>
<!-- v0_7_0_CORE_migrate_to_slice_first_reads -->
<g id="node4" class="node">
<title>v0_7_0_CORE_migrate_to_slice_first_reads</title>
<path fill="#ffa07a" stroke="black" stroke-width="2" d="M345.8,-247.05C345.8,-247.05 228.2,-247.05 228.2,-247.05 224,-247.05 219.8,-242.85 219.8,-238.65 219.8,-238.65 219.8,-230.25 219.8,-230.25 219.8,-226.05 224,-221.85 228.2,-221.85 228.2,-221.85 345.8,-221.85 345.8,-221.85 350,-221.85 354.2,-226.05 354.2,-230.25 354.2,-230.25 354.2,-238.65 354.2,-238.65 354.2,-242.85 350,-247.05 345.8,-247.05"/>
<text xml:space="preserve" text-anchor="middle" x="287" y="-231.35" font-family="Helvetica,sans-Serif" font-size="8.00">CORE&#45;migrate&#45;to&#45;slice&#45;first&#45;reads</text>
</g>
<!-- v0_7_0_CORE_rewrite_structural_blame_to_use_warp_worldline_provenance -->
<g id="node5" class="node">
<title>v0_7_0_CORE_rewrite_structural_blame_to_use_warp_worldline_provenance</title>
<path fill="#ffa07a" stroke="black" stroke-width="2" d="M607.68,-320.5C607.68,-320.5 372.32,-320.5 372.32,-320.5 368.12,-320.5 363.92,-316.3 363.92,-312.1 363.92,-312.1 363.92,-303.7 363.92,-303.7 363.92,-299.5 368.12,-295.3 372.32,-295.3 372.32,-295.3 607.68,-295.3 607.68,-295.3 611.88,-295.3 616.08,-299.5 616.08,-303.7 616.08,-303.7 616.08,-312.1 616.08,-312.1 616.08,-316.3 611.88,-320.5 607.68,-320.5"/>
<text xml:space="preserve" text-anchor="middle" x="490" y="-304.8" font-family="Helvetica,sans-Serif" font-size="8.00">CORE&#45;rewrite&#45;structural&#45;blame&#45;to&#45;use&#45;warp&#45;worldline&#45;provenance</text>
</g>
<!-- v0_7_0_CORE_rewrite_structural_blame_to_use_warp_worldline_provenance&#45;&gt;v0_7_0_CORE_git_graft_enhance -->
<g id="edge16" class="edge">
<title>v0_7_0_CORE_rewrite_structural_blame_to_use_warp_worldline_provenance&#45;&gt;v0_7_0_CORE_git_graft_enhance</title>
<path fill="none" stroke="#666666" d="M490,-294.45C490,-283.29 490,-266.74 490,-254.01"/>
<polygon fill="#666666" stroke="#666666" points="491.75,-254.27 490,-249.27 488.25,-254.27 491.75,-254.27"/>
<text xml:space="preserve" text-anchor="middle" x="521.5" y="-268.65" font-family="Helvetica,sans-Serif" font-size="7.00">blocked_by/blocking</text>
</g>
<!-- v0_7_0_SURFACE_agent_dx_governed_edit -->
<g id="node6" class="node">
<title>v0_7_0_SURFACE_agent_dx_governed_edit</title>
<path fill="#ffa07a" stroke="black" stroke-width="2" d="M761.43,-320.5C761.43,-320.5 638.57,-320.5 638.57,-320.5 634.38,-320.5 630.17,-316.3 630.17,-312.1 630.17,-312.1 630.17,-303.7 630.17,-303.7 630.17,-299.5 634.38,-295.3 638.57,-295.3 638.57,-295.3 761.43,-295.3 761.43,-295.3 765.62,-295.3 769.83,-299.5 769.83,-303.7 769.83,-303.7 769.83,-312.1 769.83,-312.1 769.83,-316.3 765.62,-320.5 761.43,-320.5"/>
<text xml:space="preserve" text-anchor="middle" x="700" y="-304.8" font-family="Helvetica,sans-Serif" font-size="8.00">SURFACE&#45;agent&#45;dx&#45;governed&#45;edit</text>
</g>
<!-- v0_7_0_SURFACE_agent_dx_governed_edit&#45;&gt;v0_7_0_CORE_agent_drift_warning -->
<g id="edge17" class="edge">
<title>v0_7_0_SURFACE_agent_dx_governed_edit&#45;&gt;v0_7_0_CORE_agent_drift_warning</title>
<path fill="none" stroke="#666666" d="M681.6,-294.52C673.55,-288.9 664.12,-282.01 656,-275.3 647.28,-268.09 638.1,-259.51 630.56,-252.16"/>
<polygon fill="#666666" stroke="#666666" points="631.96,-251.09 627.17,-248.83 629.51,-253.58 631.96,-251.09"/>
<text xml:space="preserve" text-anchor="middle" x="687.5" y="-268.65" font-family="Helvetica,sans-Serif" font-size="7.00">blocked_by/blocking</text>
</g>
<!-- v0_7_0_SURFACE_governed_write_tools -->
<g id="node8" class="node">
<title>v0_7_0_SURFACE_governed_write_tools</title>
<path fill="#ffa07a" stroke="black" stroke-width="2" d="M803.18,-247.05C803.18,-247.05 690.82,-247.05 690.82,-247.05 686.62,-247.05 682.42,-242.85 682.42,-238.65 682.42,-238.65 682.42,-230.25 682.42,-230.25 682.42,-226.05 686.62,-221.85 690.82,-221.85 690.82,-221.85 803.18,-221.85 803.18,-221.85 807.38,-221.85 811.58,-226.05 811.58,-230.25 811.58,-230.25 811.58,-238.65 811.58,-238.65 811.58,-242.85 807.38,-247.05 803.18,-247.05"/>
<text xml:space="preserve" text-anchor="middle" x="747" y="-231.35" font-family="Helvetica,sans-Serif" font-size="8.00">SURFACE&#45;governed&#45;write&#45;tools</text>
</g>
<!-- v0_7_0_SURFACE_agent_dx_governed_edit&#45;&gt;v0_7_0_SURFACE_governed_write_tools -->
<g id="edge18" class="edge">
<title>v0_7_0_SURFACE_agent_dx_governed_edit&#45;&gt;v0_7_0_SURFACE_governed_write_tools</title>
<path fill="none" stroke="#666666" d="M708.19,-294.45C715.73,-282.98 727.02,-265.83 735.47,-252.97"/>
<polygon fill="#666666" stroke="#666666" points="736.79,-254.16 738.08,-249.02 733.87,-252.23 736.79,-254.16"/>
<text xml:space="preserve" text-anchor="middle" x="756.41" y="-268.65" font-family="Helvetica,sans-Serif" font-size="7.00">blocked_by/blocking</text>
</g>
<!-- v0_7_0_SURFACE_bijou_daemon_status_first_slice -->
<g id="node7" class="node">
<title>v0_7_0_SURFACE_bijou_daemon_status_first_slice</title>
<path fill="#ffa07a" stroke="black" stroke-width="2" d="M937.68,-320.5C937.68,-320.5 792.32,-320.5 792.32,-320.5 788.12,-320.5 783.92,-316.3 783.92,-312.1 783.92,-312.1 783.92,-303.7 783.92,-303.7 783.92,-299.5 788.12,-295.3 792.32,-295.3 792.32,-295.3 937.68,-295.3 937.68,-295.3 941.88,-295.3 946.08,-299.5 946.08,-303.7 946.08,-303.7 946.08,-312.1 946.08,-312.1 946.08,-316.3 941.88,-320.5 937.68,-320.5"/>
<text xml:space="preserve" text-anchor="middle" x="865" y="-304.8" font-family="Helvetica,sans-Serif" font-size="8.00">SURFACE&#45;bijou&#45;daemon&#45;status&#45;first&#45;slice</text>
</g>
<!-- cool_ideas_SURFACE_bijou_daemon_control_plane_actions -->
<g id="node41" class="node">
<title>cool_ideas_SURFACE_bijou_daemon_control_plane_actions</title>
<path fill="#d4e8f7" stroke="black" d="M1263.42,-247.05C1263.42,-247.05 1086.58,-247.05 1086.58,-247.05 1082.38,-247.05 1078.17,-242.85 1078.17,-238.65 1078.17,-238.65 1078.17,-230.25 1078.17,-230.25 1078.17,-226.05 1082.38,-221.85 1086.58,-221.85 1086.58,-221.85 1263.42,-221.85 1263.42,-221.85 1267.62,-221.85 1271.83,-226.05 1271.83,-230.25 1271.83,-230.25 1271.83,-238.65 1271.83,-238.65 1271.83,-242.85 1267.62,-247.05 1263.42,-247.05"/>
<text xml:space="preserve" text-anchor="middle" x="1175" y="-231.35" font-family="Helvetica,sans-Serif" font-size="8.00">SURFACE&#45;bijou&#45;daemon&#45;control&#45;plane&#45;actions &#45; L</text>
</g>
<!-- v0_7_0_SURFACE_bijou_daemon_status_first_slice&#45;&gt;cool_ideas_SURFACE_bijou_daemon_control_plane_actions -->
<g id="edge19" class="edge">
<title>v0_7_0_SURFACE_bijou_daemon_status_first_slice&#45;&gt;cool_ideas_SURFACE_bijou_daemon_control_plane_actions</title>
<path fill="none" stroke="#666666" d="M919.35,-294.37C974.56,-281.65 1059.77,-262.01 1116.44,-248.95"/>
<polygon fill="#666666" stroke="#666666" points="1116.57,-250.71 1121.05,-247.89 1115.78,-247.3 1116.57,-250.71"/>
<text xml:space="preserve" text-anchor="middle" x="1046.92" y="-268.65" font-family="Helvetica,sans-Serif" font-size="7.00">blocked_by</text>
</g>
<!-- cool_ideas_SURFACE_bijou_daemon_status_live_refresh -->
<g id="node42" class="node">
<title>cool_ideas_SURFACE_bijou_daemon_status_live_refresh</title>
<path fill="#d4e8f7" stroke="black" d="M1463.3,-247.05C1463.3,-247.05 1294.7,-247.05 1294.7,-247.05 1290.5,-247.05 1286.3,-242.85 1286.3,-238.65 1286.3,-238.65 1286.3,-230.25 1286.3,-230.25 1286.3,-226.05 1290.5,-221.85 1294.7,-221.85 1294.7,-221.85 1463.3,-221.85 1463.3,-221.85 1467.5,-221.85 1471.7,-226.05 1471.7,-230.25 1471.7,-230.25 1471.7,-238.65 1471.7,-238.65 1471.7,-242.85 1467.5,-247.05 1463.3,-247.05"/>
<text xml:space="preserve" text-anchor="middle" x="1379" y="-231.35" font-family="Helvetica,sans-Serif" font-size="8.00">SURFACE&#45;bijou&#45;daemon&#45;status&#45;live&#45;refresh &#45; M</text>
</g>
<!-- v0_7_0_SURFACE_bijou_daemon_status_first_slice&#45;&gt;cool_ideas_SURFACE_bijou_daemon_status_live_refresh -->
<g id="edge20" class="edge">
<title>v0_7_0_SURFACE_bijou_daemon_status_first_slice&#45;&gt;cool_ideas_SURFACE_bijou_daemon_status_live_refresh</title>
<path fill="none" stroke="#666666" d="M916.46,-294.4C928.4,-291.78 941.1,-289.24 953,-287.3 1003.72,-279.03 1016.95,-281.23 1068,-275.3 1140.14,-266.92 1221.56,-256.45 1282.99,-248.34"/>
<polygon fill="#666666" stroke="#666666" points="1283.02,-250.1 1287.75,-247.72 1282.56,-246.63 1283.02,-250.1"/>
<text xml:space="preserve" text-anchor="middle" x="1153.84" y="-268.65" font-family="Helvetica,sans-Serif" font-size="7.00">blocked_by</text>
</g>
<!-- v0_7_0_WARP_lsp_enrichment -->
<g id="node9" class="node">
<title>v0_7_0_WARP_lsp_enrichment</title>
<path fill="#ffa07a" stroke="black" stroke-width="2" d="M1045.55,-320.5C1045.55,-320.5 968.45,-320.5 968.45,-320.5 964.25,-320.5 960.05,-316.3 960.05,-312.1 960.05,-312.1 960.05,-303.7 960.05,-303.7 960.05,-299.5 964.25,-295.3 968.45,-295.3 968.45,-295.3 1045.55,-295.3 1045.55,-295.3 1049.75,-295.3 1053.95,-299.5 1053.95,-303.7 1053.95,-303.7 1053.95,-312.1 1053.95,-312.1 1053.95,-316.3 1049.75,-320.5 1045.55,-320.5"/>
<text xml:space="preserve" text-anchor="middle" x="1007" y="-304.8" font-family="Helvetica,sans-Serif" font-size="8.00">WARP&#45;lsp&#45;enrichment</text>
</g>
<!-- cool_ideas_bounded_neighborhood_for_references -->
<g id="node10" class="node">
<title>cool_ideas_bounded_neighborhood_for_references</title>
<path fill="#d4e8f7" stroke="black" d="M1235.17,-320.5C1235.17,-320.5 1086.83,-320.5 1086.83,-320.5 1082.62,-320.5 1078.42,-316.3 1078.42,-312.1 1078.42,-312.1 1078.42,-303.7 1078.42,-303.7 1078.42,-299.5 1082.62,-295.3 1086.83,-295.3 1086.83,-295.3 1235.17,-295.3 1235.17,-295.3 1239.38,-295.3 1243.58,-299.5 1243.58,-303.7 1243.58,-303.7 1243.58,-312.1 1243.58,-312.1 1243.58,-316.3 1239.38,-320.5 1235.17,-320.5"/>
<text xml:space="preserve" text-anchor="middle" x="1161" y="-304.8" font-family="Helvetica,sans-Serif" font-size="8.00">bounded&#45;neighborhood&#45;for&#45;references &#45; S</text>
</g>
<!-- cool_ideas_CI_001_causal_collapse_visualizer -->
<g id="node11" class="node">
<title>cool_ideas_CI_001_causal_collapse_visualizer</title>
<path fill="#d4e8f7" stroke="black" d="M7101.3,-247.05C7101.3,-247.05 6974.7,-247.05 6974.7,-247.05 6970.5,-247.05 6966.3,-242.85 6966.3,-238.65 6966.3,-238.65 6966.3,-230.25 6966.3,-230.25 6966.3,-226.05 6970.5,-221.85 6974.7,-221.85 6974.7,-221.85 7101.3,-221.85 7101.3,-221.85 7105.5,-221.85 7109.7,-226.05 7109.7,-230.25 7109.7,-230.25 7109.7,-238.65 7109.7,-238.65 7109.7,-242.85 7105.5,-247.05 7101.3,-247.05"/>
<text xml:space="preserve" text-anchor="middle" x="7038" y="-231.35" font-family="Helvetica,sans-Serif" font-size="8.00">CI&#45;001&#45;causal&#45;collapse&#45;visualizer &#45; L</text>
</g>
<!-- cool_ideas_CI_002_deterministic_scenario_replay -->
<g id="node12" class="node">
<title>cool_ideas_CI_002_deterministic_scenario_replay</title>
<path fill="#d4e8f7" stroke="black" d="M1405.67,-320.5C1405.67,-320.5 1266.33,-320.5 1266.33,-320.5 1262.12,-320.5 1257.92,-316.3 1257.92,-312.1 1257.92,-312.1 1257.92,-303.7 1257.92,-303.7 1257.92,-299.5 1262.12,-295.3 1266.33,-295.3 1266.33,-295.3 1405.67,-295.3 1405.67,-295.3 1409.88,-295.3 1414.08,-299.5 1414.08,-303.7 1414.08,-303.7 1414.08,-312.1 1414.08,-312.1 1414.08,-316.3 1409.88,-320.5 1405.67,-320.5"/>
<text xml:space="preserve" text-anchor="middle" x="1336" y="-304.8" font-family="Helvetica,sans-Serif" font-size="8.00">CI&#45;002&#45;deterministic&#45;scenario&#45;replay &#45; L</text>
</g>
<!-- cool_ideas_CI_003_mcp_native_diff_protocol -->
<g id="node13" class="node">
<title>cool_ideas_CI_003_mcp_native_diff_protocol</title>
<path fill="#d4e8f7" stroke="black" d="M1559.8,-320.5C1559.8,-320.5 1436.2,-320.5 1436.2,-320.5 1432,-320.5 1427.8,-316.3 1427.8,-312.1 1427.8,-312.1 1427.8,-303.7 1427.8,-303.7 1427.8,-299.5 1432,-295.3 1436.2,-295.3 1436.2,-295.3 1559.8,-295.3 1559.8,-295.3 1564,-295.3 1568.2,-299.5 1568.2,-303.7 1568.2,-303.7 1568.2,-312.1 1568.2,-312.1 1568.2,-316.3 1564,-320.5 1559.8,-320.5"/>
<text xml:space="preserve" text-anchor="middle" x="1498" y="-304.8" font-family="Helvetica,sans-Serif" font-size="8.00">CI&#45;003&#45;mcp&#45;native&#45;diff&#45;protocol &#45; M</text>
</g>
<!-- cool_ideas_CLEAN_CODE_parallel_agent_merge_shared_file_loss -->
<g id="node14" class="node">
<title>cool_ideas_CLEAN_CODE_parallel_agent_merge_shared_file_loss</title>
<path fill="#d4e8f7" stroke="black" d="M1791.05,-320.5C1791.05,-320.5 1590.95,-320.5 1590.95,-320.5 1586.75,-320.5 1582.55,-316.3 1582.55,-312.1 1582.55,-312.1 1582.55,-303.7 1582.55,-303.7 1582.55,-299.5 1586.75,-295.3 1590.95,-295.3 1590.95,-295.3 1791.05,-295.3 1791.05,-295.3 1795.25,-295.3 1799.45,-299.5 1799.45,-303.7 1799.45,-303.7 1799.45,-312.1 1799.45,-312.1 1799.45,-316.3 1795.25,-320.5 1791.05,-320.5"/>
<text xml:space="preserve" text-anchor="middle" x="1691" y="-304.8" font-family="Helvetica,sans-Serif" font-size="8.00">CLEAN&#45;CODE&#45;parallel&#45;agent&#45;merge&#45;shared&#45;file&#45;loss &#45; M</text>
</g>
<!-- cool_ideas_CORE_agent_handoff_protocol -->
<g id="node15" class="node">
<title>cool_ideas_CORE_agent_handoff_protocol</title>
<path fill="#d4e8f7" stroke="black" d="M1941.92,-320.5C1941.92,-320.5 1822.08,-320.5 1822.08,-320.5 1817.88,-320.5 1813.67,-316.3 1813.67,-312.1 1813.67,-312.1 1813.67,-303.7 1813.67,-303.7 1813.67,-299.5 1817.88,-295.3 1822.08,-295.3 1822.08,-295.3 1941.92,-295.3 1941.92,-295.3 1946.12,-295.3 1950.33,-299.5 1950.33,-303.7 1950.33,-303.7 1950.33,-312.1 1950.33,-312.1 1950.33,-316.3 1946.12,-320.5 1941.92,-320.5"/>
<text xml:space="preserve" text-anchor="middle" x="1882" y="-304.8" font-family="Helvetica,sans-Serif" font-size="8.00">CORE&#45;agent&#45;handoff&#45;protocol &#45; M</text>
</g>
<!-- cool_ideas_CORE_auto_focus -->
<g id="node16" class="node">
<title>cool_ideas_CORE_auto_focus</title>
<path fill="#d4e8f7" stroke="black" d="M2045.67,-320.5C2045.67,-320.5 1972.33,-320.5 1972.33,-320.5 1968.12,-320.5 1963.92,-316.3 1963.92,-312.1 1963.92,-312.1 1963.92,-303.7 1963.92,-303.7 1963.92,-299.5 1968.12,-295.3 1972.33,-295.3 1972.33,-295.3 2045.67,-295.3 2045.67,-295.3 2049.88,-295.3 2054.07,-299.5 2054.07,-303.7 2054.07,-303.7 2054.07,-312.1 2054.07,-312.1 2054.07,-316.3 2049.88,-320.5 2045.67,-320.5"/>
<text xml:space="preserve" text-anchor="middle" x="2009" y="-304.8" font-family="Helvetica,sans-Serif" font-size="8.00">CORE&#45;auto&#45;focus &#45; L</text>
</g>
<!-- cool_ideas_CORE_backlog_status_tool -->
<g id="node17" class="node">
<title>cool_ideas_CORE_backlog_status_tool</title>
<path fill="#d4e8f7" stroke="black" d="M2179.67,-320.5C2179.67,-320.5 2076.33,-320.5 2076.33,-320.5 2072.12,-320.5 2067.93,-316.3 2067.93,-312.1 2067.93,-312.1 2067.93,-303.7 2067.93,-303.7 2067.93,-299.5 2072.12,-295.3 2076.33,-295.3 2076.33,-295.3 2179.67,-295.3 2179.67,-295.3 2183.88,-295.3 2188.07,-299.5 2188.07,-303.7 2188.07,-303.7 2188.07,-312.1 2188.07,-312.1 2188.07,-316.3 2183.88,-320.5 2179.67,-320.5"/>
<text xml:space="preserve" text-anchor="middle" x="2128" y="-304.8" font-family="Helvetica,sans-Serif" font-size="8.00">CORE&#45;backlog&#45;status&#45;tool &#45; S</text>
</g>
<!-- cool_ideas_CORE_capture_range -->
<g id="node18" class="node">
<title>cool_ideas_CORE_capture_range</title>
<path fill="#d4e8f7" stroke="black" d="M2297.8,-320.5C2297.8,-320.5 2210.2,-320.5 2210.2,-320.5 2206,-320.5 2201.8,-316.3 2201.8,-312.1 2201.8,-312.1 2201.8,-303.7 2201.8,-303.7 2201.8,-299.5 2206,-295.3 2210.2,-295.3 2210.2,-295.3 2297.8,-295.3 2297.8,-295.3 2302,-295.3 2306.2,-299.5 2306.2,-303.7 2306.2,-303.7 2306.2,-312.1 2306.2,-312.1 2306.2,-316.3 2302,-320.5 2297.8,-320.5"/>
<text xml:space="preserve" text-anchor="middle" x="2254" y="-304.8" font-family="Helvetica,sans-Serif" font-size="8.00">CORE&#45;capture&#45;range &#45; S</text>
</g>
<!-- cool_ideas_CORE_constructor_in_disguise_lint -->
<g id="node19" class="node">
<title>cool_ideas_CORE_constructor_in_disguise_lint</title>
<path fill="#d4e8f7" stroke="black" d="M2459.55,-320.5C2459.55,-320.5 2328.45,-320.5 2328.45,-320.5 2324.25,-320.5 2320.05,-316.3 2320.05,-312.1 2320.05,-312.1 2320.05,-303.7 2320.05,-303.7 2320.05,-299.5 2324.25,-295.3 2328.45,-295.3 2328.45,-295.3 2459.55,-295.3 2459.55,-295.3 2463.75,-295.3 2467.95,-299.5 2467.95,-303.7 2467.95,-303.7 2467.95,-312.1 2467.95,-312.1 2467.95,-316.3 2463.75,-320.5 2459.55,-320.5"/>
<text xml:space="preserve" text-anchor="middle" x="2394" y="-304.8" font-family="Helvetica,sans-Serif" font-size="8.00">CORE&#45;constructor&#45;in&#45;disguise&#45;lint &#45; M</text>
</g>
<!-- cool_ideas_CORE_context_budget_forecasting -->
<g id="node20" class="node">
<title>cool_ideas_CORE_context_budget_forecasting</title>
<path fill="#d4e8f7" stroke="black" d="M2623.67,-320.5C2623.67,-320.5 2490.33,-320.5 2490.33,-320.5 2486.12,-320.5 2481.93,-316.3 2481.93,-312.1 2481.93,-312.1 2481.93,-303.7 2481.93,-303.7 2481.93,-299.5 2486.12,-295.3 2490.33,-295.3 2490.33,-295.3 2623.67,-295.3 2623.67,-295.3 2627.88,-295.3 2632.07,-299.5 2632.07,-303.7 2632.07,-303.7 2632.07,-312.1 2632.07,-312.1 2632.07,-316.3 2627.88,-320.5 2623.67,-320.5"/>
<text xml:space="preserve" text-anchor="middle" x="2557" y="-304.8" font-family="Helvetica,sans-Serif" font-size="8.00">CORE&#45;context&#45;budget&#45;forecasting &#45; M</text>
</g>
<!-- cool_ideas_CORE_conversation_primer -->
<g id="node21" class="node">
<title>cool_ideas_CORE_conversation_primer</title>
<path fill="#d4e8f7" stroke="black" d="M2763.67,-320.5C2763.67,-320.5 2654.33,-320.5 2654.33,-320.5 2650.12,-320.5 2645.93,-316.3 2645.93,-312.1 2645.93,-312.1 2645.93,-303.7 2645.93,-303.7 2645.93,-299.5 2650.12,-295.3 2654.33,-295.3 2654.33,-295.3 2763.67,-295.3 2763.67,-295.3 2767.88,-295.3 2772.07,-299.5 2772.07,-303.7 2772.07,-303.7 2772.07,-312.1 2772.07,-312.1 2772.07,-316.3 2767.88,-320.5 2763.67,-320.5"/>
<text xml:space="preserve" text-anchor="middle" x="2709" y="-304.8" font-family="Helvetica,sans-Serif" font-size="8.00">CORE&#45;conversation&#45;primer &#45; M</text>
</g>
<!-- cool_ideas_CORE_cross_session_resume -->
<g id="node22" class="node">
<title>cool_ideas_CORE_cross_session_resume</title>
<path fill="#d4e8f7" stroke="black" d="M2909.3,-320.5C2909.3,-320.5 2794.7,-320.5 2794.7,-320.5 2790.5,-320.5 2786.3,-316.3 2786.3,-312.1 2786.3,-312.1 2786.3,-303.7 2786.3,-303.7 2786.3,-299.5 2790.5,-295.3 2794.7,-295.3 2794.7,-295.3 2909.3,-295.3 2909.3,-295.3 2913.5,-295.3 2917.7,-299.5 2917.7,-303.7 2917.7,-303.7 2917.7,-312.1 2917.7,-312.1 2917.7,-316.3 2913.5,-320.5 2909.3,-320.5"/>
<text xml:space="preserve" text-anchor="middle" x="2852" y="-304.8" font-family="Helvetica,sans-Serif" font-size="8.00">CORE&#45;cross&#45;session&#45;resume &#45; S</text>
</g>
<!-- cool_ideas_CORE_graft_as_teacher -->
<g id="node23" class="node">
<title>cool_ideas_CORE_graft_as_teacher</title>
<path fill="#d4e8f7" stroke="black" d="M3034.17,-320.5C3034.17,-320.5 2939.83,-320.5 2939.83,-320.5 2935.62,-320.5 2931.43,-316.3 2931.43,-312.1 2931.43,-312.1 2931.43,-303.7 2931.43,-303.7 2931.43,-299.5 2935.62,-295.3 2939.83,-295.3 2939.83,-295.3 3034.17,-295.3 3034.17,-295.3 3038.38,-295.3 3042.57,-299.5 3042.57,-303.7 3042.57,-303.7 3042.57,-312.1 3042.57,-312.1 3042.57,-316.3 3038.38,-320.5 3034.17,-320.5"/>
<text xml:space="preserve" text-anchor="middle" x="2987" y="-304.8" font-family="Helvetica,sans-Serif" font-size="8.00">CORE&#45;graft&#45;as&#45;teacher &#45; S</text>
</g>
<!-- cool_ideas_CORE_graft_doctor -->
<g id="node24" class="node">
<title>cool_ideas_CORE_graft_doctor</title>
<path fill="#d4e8f7" stroke="black" d="M3145.05,-320.5C3145.05,-320.5 3064.95,-320.5 3064.95,-320.5 3060.75,-320.5 3056.55,-316.3 3056.55,-312.1 3056.55,-312.1 3056.55,-303.7 3056.55,-303.7 3056.55,-299.5 3060.75,-295.3 3064.95,-295.3 3064.95,-295.3 3145.05,-295.3 3145.05,-295.3 3149.25,-295.3 3153.45,-299.5 3153.45,-303.7 3153.45,-303.7 3153.45,-312.1 3153.45,-312.1 3153.45,-316.3 3149.25,-320.5 3145.05,-320.5"/>
<text xml:space="preserve" text-anchor="middle" x="3105" y="-304.8" font-family="Helvetica,sans-Serif" font-size="8.00">CORE&#45;graft&#45;doctor &#45; M</text>
</g>
<!-- cool_ideas_CORE_graft_teach_learning_receipts -->
<g id="node25" class="node">
<title>cool_ideas_CORE_graft_teach_learning_receipts</title>
<path fill="#d4e8f7" stroke="black" d="M3313.92,-320.5C3313.92,-320.5 3176.08,-320.5 3176.08,-320.5 3171.88,-320.5 3167.68,-316.3 3167.68,-312.1 3167.68,-312.1 3167.68,-303.7 3167.68,-303.7 3167.68,-299.5 3171.88,-295.3 3176.08,-295.3 3176.08,-295.3 3313.92,-295.3 3313.92,-295.3 3318.12,-295.3 3322.32,-299.5 3322.32,-303.7 3322.32,-303.7 3322.32,-312.1 3322.32,-312.1 3322.32,-316.3 3318.12,-320.5 3313.92,-320.5"/>
<text xml:space="preserve" text-anchor="middle" x="3245" y="-304.8" font-family="Helvetica,sans-Serif" font-size="8.00">CORE&#45;graft&#45;teach&#45;learning&#45;receipts &#45; S</text>
</g>
<!-- cool_ideas_CORE_horizon_of_readability -->
<g id="node26" class="node">
<title>cool_ideas_CORE_horizon_of_readability</title>
<path fill="#d4e8f7" stroke="black" d="M3457.55,-320.5C3457.55,-320.5 3344.45,-320.5 3344.45,-320.5 3340.25,-320.5 3336.05,-316.3 3336.05,-312.1 3336.05,-312.1 3336.05,-303.7 3336.05,-303.7 3336.05,-299.5 3340.25,-295.3 3344.45,-295.3 3344.45,-295.3 3457.55,-295.3 3457.55,-295.3 3461.75,-295.3 3465.95,-299.5 3465.95,-303.7 3465.95,-303.7 3465.95,-312.1 3465.95,-312.1 3465.95,-316.3 3461.75,-320.5 3457.55,-320.5"/>
<text xml:space="preserve" text-anchor="middle" x="3401" y="-304.8" font-family="Helvetica,sans-Serif" font-size="8.00">CORE&#45;horizon&#45;of&#45;readability &#45; M</text>
</g>
<!-- cool_ideas_CORE_lagrangian_policy -->
<g id="node27" class="node">
<title>cool_ideas_CORE_lagrangian_policy</title>
<path fill="#d4e8f7" stroke="black" d="M3589.55,-320.5C3589.55,-320.5 3488.45,-320.5 3488.45,-320.5 3484.25,-320.5 3480.05,-316.3 3480.05,-312.1 3480.05,-312.1 3480.05,-303.7 3480.05,-303.7 3480.05,-299.5 3484.25,-295.3 3488.45,-295.3 3488.45,-295.3 3589.55,-295.3 3589.55,-295.3 3593.75,-295.3 3597.95,-299.5 3597.95,-303.7 3597.95,-303.7 3597.95,-312.1 3597.95,-312.1 3597.95,-316.3 3593.75,-320.5 3589.55,-320.5"/>
<text xml:space="preserve" text-anchor="middle" x="3539" y="-304.8" font-family="Helvetica,sans-Serif" font-size="8.00">CORE&#45;lagrangian&#45;policy &#45; XL</text>
</g>
<!-- cool_ideas_CORE_multi_agent_conflict_detection -->
<g id="node28" class="node">
<title>cool_ideas_CORE_multi_agent_conflict_detection</title>
<path fill="#d4e8f7" stroke="black" d="M3757.92,-320.5C3757.92,-320.5 3620.08,-320.5 3620.08,-320.5 3615.88,-320.5 3611.68,-316.3 3611.68,-312.1 3611.68,-312.1 3611.68,-303.7 3611.68,-303.7 3611.68,-299.5 3615.88,-295.3 3620.08,-295.3 3620.08,-295.3 3757.92,-295.3 3757.92,-295.3 3762.12,-295.3 3766.32,-299.5 3766.32,-303.7 3766.32,-303.7 3766.32,-312.1 3766.32,-312.1 3766.32,-316.3 3762.12,-320.5 3757.92,-320.5"/>
<text xml:space="preserve" text-anchor="middle" x="3689" y="-304.8" font-family="Helvetica,sans-Serif" font-size="8.00">CORE&#45;multi&#45;agent&#45;conflict&#45;detection &#45; L</text>
</g>
<!-- cool_ideas_CORE_policy_playground -->
<g id="node29" class="node">
<title>cool_ideas_CORE_policy_playground</title>
<path fill="#d4e8f7" stroke="black" d="M3887.42,-320.5C3887.42,-320.5 3788.58,-320.5 3788.58,-320.5 3784.38,-320.5 3780.18,-316.3 3780.18,-312.1 3780.18,-312.1 3780.18,-303.7 3780.18,-303.7 3780.18,-299.5 3784.38,-295.3 3788.58,-295.3 3788.58,-295.3 3887.42,-295.3 3887.42,-295.3 3891.62,-295.3 3895.82,-299.5 3895.82,-303.7 3895.82,-303.7 3895.82,-312.1 3895.82,-312.1 3895.82,-316.3 3891.62,-320.5 3887.42,-320.5"/>
<text xml:space="preserve" text-anchor="middle" x="3838" y="-304.8" font-family="Helvetica,sans-Serif" font-size="8.00">CORE&#45;policy&#45;playground &#45; S</text>
</g>
<!-- cool_ideas_CORE_policy_profiles -->
<g id="node30" class="node">
<title>cool_ideas_CORE_policy_profiles</title>
<path fill="#d4e8f7" stroke="black" d="M4004.05,-320.5C4004.05,-320.5 3917.95,-320.5 3917.95,-320.5 3913.75,-320.5 3909.55,-316.3 3909.55,-312.1 3909.55,-312.1 3909.55,-303.7 3909.55,-303.7 3909.55,-299.5 3913.75,-295.3 3917.95,-295.3 3917.95,-295.3 4004.05,-295.3 4004.05,-295.3 4008.25,-295.3 4012.45,-299.5 4012.45,-303.7 4012.45,-303.7 4012.45,-312.1 4012.45,-312.1 4012.45,-316.3 4008.25,-320.5 4004.05,-320.5"/>
<text xml:space="preserve" text-anchor="middle" x="3961" y="-304.8" font-family="Helvetica,sans-Serif" font-size="8.00">CORE&#45;policy&#45;profiles &#45; M</text>
</g>
<!-- cool_ideas_CORE_pr_review_structural_summary -->
<g id="node31" class="node">
<title>cool_ideas_CORE_pr_review_structural_summary</title>
<path fill="#d4e8f7" stroke="black" d="M4178.93,-320.5C4178.93,-320.5 4035.08,-320.5 4035.08,-320.5 4030.88,-320.5 4026.68,-316.3 4026.68,-312.1 4026.68,-312.1 4026.68,-303.7 4026.68,-303.7 4026.68,-299.5 4030.88,-295.3 4035.08,-295.3 4035.08,-295.3 4178.93,-295.3 4178.93,-295.3 4183.12,-295.3 4187.32,-299.5 4187.32,-303.7 4187.32,-303.7 4187.32,-312.1 4187.32,-312.1 4187.32,-316.3 4183.12,-320.5 4178.93,-320.5"/>
<text xml:space="preserve" text-anchor="middle" x="4107" y="-304.8" font-family="Helvetica,sans-Serif" font-size="8.00">CORE&#45;pr&#45;review&#45;structural&#45;summary &#45; M</text>
</g>
<!-- cool_ideas_CORE_self_tuning_governor -->
<g id="node32" class="node">
<title>cool_ideas_CORE_self_tuning_governor</title>
<path fill="#d4e8f7" stroke="black" d="M4320.05,-320.5C4320.05,-320.5 4209.95,-320.5 4209.95,-320.5 4205.75,-320.5 4201.55,-316.3 4201.55,-312.1 4201.55,-312.1 4201.55,-303.7 4201.55,-303.7 4201.55,-299.5 4205.75,-295.3 4209.95,-295.3 4209.95,-295.3 4320.05,-295.3 4320.05,-295.3 4324.25,-295.3 4328.45,-299.5 4328.45,-303.7 4328.45,-303.7 4328.45,-312.1 4328.45,-312.1 4328.45,-316.3 4324.25,-320.5 4320.05,-320.5"/>
<text xml:space="preserve" text-anchor="middle" x="4265" y="-304.8" font-family="Helvetica,sans-Serif" font-size="8.00">CORE&#45;self&#45;tuning&#45;governor &#45; M</text>
</g>
<!-- cool_ideas_CORE_session_knowledge_map -->
<g id="node33" class="node">
<title>cool_ideas_CORE_session_knowledge_map</title>
<path fill="#d4e8f7" stroke="black" d="M4473.43,-320.5C4473.43,-320.5 4350.57,-320.5 4350.57,-320.5 4346.38,-320.5 4342.18,-316.3 4342.18,-312.1 4342.18,-312.1 4342.18,-303.7 4342.18,-303.7 4342.18,-299.5 4346.38,-295.3 4350.57,-295.3 4350.57,-295.3 4473.43,-295.3 4473.43,-295.3 4477.62,-295.3 4481.82,-299.5 4481.82,-303.7 4481.82,-303.7 4481.82,-312.1 4481.82,-312.1 4481.82,-316.3 4477.62,-320.5 4473.43,-320.5"/>
<text xml:space="preserve" text-anchor="middle" x="4412" y="-304.8" font-family="Helvetica,sans-Serif" font-size="8.00">CORE&#45;session&#45;knowledge&#45;map &#45; S</text>
</g>
<!-- cool_ideas_CORE_speculative_read_cost -->
<g id="node34" class="node">
<title>cool_ideas_CORE_speculative_read_cost</title>
<path fill="#d4e8f7" stroke="black" d="M4616.18,-320.5C4616.18,-320.5 4503.82,-320.5 4503.82,-320.5 4499.62,-320.5 4495.43,-316.3 4495.43,-312.1 4495.43,-312.1 4495.43,-303.7 4495.43,-303.7 4495.43,-299.5 4499.62,-295.3 4503.82,-295.3 4503.82,-295.3 4616.18,-295.3 4616.18,-295.3 4620.38,-295.3 4624.57,-299.5 4624.57,-303.7 4624.57,-303.7 4624.57,-312.1 4624.57,-312.1 4624.57,-316.3 4620.38,-320.5 4616.18,-320.5"/>
<text xml:space="preserve" text-anchor="middle" x="4560" y="-304.8" font-family="Helvetica,sans-Serif" font-size="8.00">CORE&#45;speculative&#45;read&#45;cost &#45; S</text>
</g>
<!-- cool_ideas_CORE_structural_session_replay -->
<g id="node35" class="node">
<title>cool_ideas_CORE_structural_session_replay</title>
<path fill="#d4e8f7" stroke="black" d="M4772.55,-320.5C4772.55,-320.5 4647.45,-320.5 4647.45,-320.5 4643.25,-320.5 4639.05,-316.3 4639.05,-312.1 4639.05,-312.1 4639.05,-303.7 4639.05,-303.7 4639.05,-299.5 4643.25,-295.3 4647.45,-295.3 4647.45,-295.3 4772.55,-295.3 4772.55,-295.3 4776.75,-295.3 4780.95,-299.5 4780.95,-303.7 4780.95,-303.7 4780.95,-312.1 4780.95,-312.1 4780.95,-316.3 4776.75,-320.5 4772.55,-320.5"/>
<text xml:space="preserve" text-anchor="middle" x="4710" y="-304.8" font-family="Helvetica,sans-Serif" font-size="8.00">CORE&#45;structural&#45;session&#45;replay &#45; M</text>
</g>
<!-- cool_ideas_CORE_structural_test_coverage_map -->
<g id="node36" class="node">
<title>cool_ideas_CORE_structural_test_coverage_map</title>
<path fill="#d4e8f7" stroke="black" d="M4944.8,-320.5C4944.8,-320.5 4803.2,-320.5 4803.2,-320.5 4799,-320.5 4794.8,-316.3 4794.8,-312.1 4794.8,-312.1 4794.8,-303.7 4794.8,-303.7 4794.8,-299.5 4799,-295.3 4803.2,-295.3 4803.2,-295.3 4944.8,-295.3 4944.8,-295.3 4949,-295.3 4953.2,-299.5 4953.2,-303.7 4953.2,-303.7 4953.2,-312.1 4953.2,-312.1 4953.2,-316.3 4949,-320.5 4944.8,-320.5"/>
<text xml:space="preserve" text-anchor="middle" x="4874" y="-304.8" font-family="Helvetica,sans-Serif" font-size="8.00">CORE&#45;structural&#45;test&#45;coverage&#45;map &#45; M</text>
</g>
<!-- cool_ideas_CORE_wire_primitives_into_runtime -->
<g id="node37" class="node">
<title>cool_ideas_CORE_wire_primitives_into_runtime</title>
<path fill="#d4e8f7" stroke="black" d="M5110.43,-320.5C5110.43,-320.5 4975.57,-320.5 4975.57,-320.5 4971.38,-320.5 4967.18,-316.3 4967.18,-312.1 4967.18,-312.1 4967.18,-303.7 4967.18,-303.7 4967.18,-299.5 4971.38,-295.3 4975.57,-295.3 4975.57,-295.3 5110.43,-295.3 5110.43,-295.3 5114.62,-295.3 5118.82,-299.5 5118.82,-303.7 5118.82,-303.7 5118.82,-312.1 5118.82,-312.1 5118.82,-316.3 5114.62,-320.5 5110.43,-320.5"/>
<text xml:space="preserve" text-anchor="middle" x="5043" y="-304.8" font-family="Helvetica,sans-Serif" font-size="8.00">CORE&#45;wire&#45;primitives&#45;into&#45;runtime &#45; M</text>
</g>
<!-- cool_ideas_monitor_tick_ceiling_tracking -->
<g id="node38" class="node">
<title>cool_ideas_monitor_tick_ceiling_tracking</title>
<path fill="#d4e8f7" stroke="black" d="M5248.55,-320.5C5248.55,-320.5 5141.45,-320.5 5141.45,-320.5 5137.25,-320.5 5133.05,-316.3 5133.05,-312.1 5133.05,-312.1 5133.05,-303.7 5133.05,-303.7 5133.05,-299.5 5137.25,-295.3 5141.45,-295.3 5141.45,-295.3 5248.55,-295.3 5248.55,-295.3 5252.75,-295.3 5256.95,-299.5 5256.95,-303.7 5256.95,-303.7 5256.95,-312.1 5256.95,-312.1 5256.95,-316.3 5252.75,-320.5 5248.55,-320.5"/>
<text xml:space="preserve" text-anchor="middle" x="5195" y="-304.8" font-family="Helvetica,sans-Serif" font-size="8.00">monitor&#45;tick&#45;ceiling&#45;tracking &#45; S</text>
</g>
<!-- cool_ideas_WARP_background_indexing -->
<g id="node52" class="node">
<title>cool_ideas_WARP_background_indexing</title>
<path fill="#d4e8f7" stroke="black" d="M5251.55,-247.05C5251.55,-247.05 5138.45,-247.05 5138.45,-247.05 5134.25,-247.05 5130.05,-242.85 5130.05,-238.65 5130.05,-238.65 5130.05,-230.25 5130.05,-230.25 5130.05,-226.05 5134.25,-221.85 5138.45,-221.85 5138.45,-221.85 5251.55,-221.85 5251.55,-221.85 5255.75,-221.85 5259.95,-226.05 5259.95,-230.25 5259.95,-230.25 5259.95,-238.65 5259.95,-238.65 5259.95,-242.85 5255.75,-247.05 5251.55,-247.05"/>
<text xml:space="preserve" text-anchor="middle" x="5195" y="-231.35" font-family="Helvetica,sans-Serif" font-size="8.00">WARP&#45;background&#45;indexing &#45; M</text>
</g>
<!-- cool_ideas_monitor_tick_ceiling_tracking&#45;&gt;cool_ideas_WARP_background_indexing -->
<g id="edge1" class="edge">
<title>cool_ideas_monitor_tick_ceiling_tracking&#45;&gt;cool_ideas_WARP_background_indexing</title>
<path fill="none" stroke="#666666" d="M5195,-295.1C5195,-283.9 5195,-266.88 5195,-253.88"/>
<polygon fill="#666666" stroke="#666666" points="5196.75,-254.02 5195,-249.02 5193.25,-254.02 5196.75,-254.02"/>
<text xml:space="preserve" text-anchor="middle" x="5226.5" y="-268.65" font-family="Helvetica,sans-Serif" font-size="7.00">blocked_by/blocking</text>
</g>
<!-- cool_ideas_SURFACE_active_causal_workspace_status -->
<g id="node39" class="node">
<title>cool_ideas_SURFACE_active_causal_workspace_status</title>
<path fill="#d4e8f7" stroke="black" d="M5443.05,-320.5C5443.05,-320.5 5278.95,-320.5 5278.95,-320.5 5274.75,-320.5 5270.55,-316.3 5270.55,-312.1 5270.55,-312.1 5270.55,-303.7 5270.55,-303.7 5270.55,-299.5 5274.75,-295.3 5278.95,-295.3 5278.95,-295.3 5443.05,-295.3 5443.05,-295.3 5447.25,-295.3 5451.45,-299.5 5451.45,-303.7 5451.45,-303.7 5451.45,-312.1 5451.45,-312.1 5451.45,-316.3 5447.25,-320.5 5443.05,-320.5"/>
<text xml:space="preserve" text-anchor="middle" x="5361" y="-304.8" font-family="Helvetica,sans-Serif" font-size="8.00">SURFACE&#45;active&#45;causal&#45;workspace&#45;status &#45; M</text>
</g>
<!-- cool_ideas_SURFACE_ide_native_graft_integration -->
<g id="node43" class="node">
<title>cool_ideas_SURFACE_ide_native_graft_integration</title>
<path fill="#d4e8f7" stroke="black" d="M5436.3,-247.05C5436.3,-247.05 5285.7,-247.05 5285.7,-247.05 5281.5,-247.05 5277.3,-242.85 5277.3,-238.65 5277.3,-238.65 5277.3,-230.25 5277.3,-230.25 5277.3,-226.05 5281.5,-221.85 5285.7,-221.85 5285.7,-221.85 5436.3,-221.85 5436.3,-221.85 5440.5,-221.85 5444.7,-226.05 5444.7,-230.25 5444.7,-230.25 5444.7,-238.65 5444.7,-238.65 5444.7,-242.85 5440.5,-247.05 5436.3,-247.05"/>
<text xml:space="preserve" text-anchor="middle" x="5361" y="-231.35" font-family="Helvetica,sans-Serif" font-size="8.00">SURFACE&#45;ide&#45;native&#45;graft&#45;integration &#45; XL</text>
</g>
<!-- cool_ideas_SURFACE_active_causal_workspace_status&#45;&gt;cool_ideas_SURFACE_ide_native_graft_integration -->
<g id="edge2" class="edge">
<title>cool_ideas_SURFACE_active_causal_workspace_status&#45;&gt;cool_ideas_SURFACE_ide_native_graft_integration</title>
<path fill="none" stroke="#666666" d="M5361,-295.1C5361,-283.9 5361,-266.88 5361,-253.88"/>
<polygon fill="#666666" stroke="#666666" points="5362.75,-254.02 5361,-249.02 5359.25,-254.02 5362.75,-254.02"/>
<text xml:space="preserve" text-anchor="middle" x="5392.5" y="-268.65" font-family="Helvetica,sans-Serif" font-size="7.00">blocked_by/blocking</text>
</g>
<!-- cool_ideas_SURFACE_attach_to_existing_causal_session -->
<g id="node40" class="node">
<title>cool_ideas_SURFACE_attach_to_existing_causal_session</title>
<path fill="#d4e8f7" stroke="black" d="M5642.3,-320.5C5642.3,-320.5 5473.7,-320.5 5473.7,-320.5 5469.5,-320.5 5465.3,-316.3 5465.3,-312.1 5465.3,-312.1 5465.3,-303.7 5465.3,-303.7 5465.3,-299.5 5469.5,-295.3 5473.7,-295.3 5473.7,-295.3 5642.3,-295.3 5642.3,-295.3 5646.5,-295.3 5650.7,-299.5 5650.7,-303.7 5650.7,-303.7 5650.7,-312.1 5650.7,-312.1 5650.7,-316.3 5646.5,-320.5 5642.3,-320.5"/>
<text xml:space="preserve" text-anchor="middle" x="5558" y="-304.8" font-family="Helvetica,sans-Serif" font-size="8.00">SURFACE&#45;attach&#45;to&#45;existing&#45;causal&#45;session &#45; M</text>
</g>
<!-- cool_ideas_SURFACE_local_history_dag_render_mode_and_count_legend -->
<g id="node44" class="node">
<title>cool_ideas_SURFACE_local_history_dag_render_mode_and_count_legend</title>
<path fill="#d4e8f7" stroke="black" d="M5899.18,-320.5C5899.18,-320.5 5672.82,-320.5 5672.82,-320.5 5668.62,-320.5 5664.43,-316.3 5664.43,-312.1 5664.43,-312.1 5664.43,-303.7 5664.43,-303.7 5664.43,-299.5 5668.62,-295.3 5672.82,-295.3 5672.82,-295.3 5899.18,-295.3 5899.18,-295.3 5903.38,-295.3 5907.57,-299.5 5907.57,-303.7 5907.57,-303.7 5907.57,-312.1 5907.57,-312.1 5907.57,-316.3 5903.38,-320.5 5899.18,-320.5"/>
<text xml:space="preserve" text-anchor="middle" x="5786" y="-304.8" font-family="Helvetica,sans-Serif" font-size="8.00">SURFACE&#45;local&#45;history&#45;dag&#45;render&#45;mode&#45;and&#45;count&#45;legend &#45; S</text>
</g>
<!-- cool_ideas_SURFACE_non_codex_instruction_bootstrap_parity -->
<g id="node45" class="node">
<title>cool_ideas_SURFACE_non_codex_instruction_bootstrap_parity</title>
<path fill="#d4e8f7" stroke="black" d="M6118.43,-320.5C6118.43,-320.5 5929.57,-320.5 5929.57,-320.5 5925.38,-320.5 5921.18,-316.3 5921.18,-312.1 5921.18,-312.1 5921.18,-303.7 5921.18,-303.7 5921.18,-299.5 5925.38,-295.3 5929.57,-295.3 5929.57,-295.3 6118.43,-295.3 6118.43,-295.3 6122.62,-295.3 6126.82,-299.5 6126.82,-303.7 6126.82,-303.7 6126.82,-312.1 6126.82,-312.1 6126.82,-316.3 6122.62,-320.5 6118.43,-320.5"/>
<text xml:space="preserve" text-anchor="middle" x="6024" y="-304.8" font-family="Helvetica,sans-Serif" font-size="8.00">SURFACE&#45;non&#45;codex&#45;instruction&#45;bootstrap&#45;parity &#45; M</text>
</g>
<!-- cool_ideas_SURFACE_offer_rename_refactor -->
<g id="node46" class="node">
<title>cool_ideas_SURFACE_offer_rename_refactor</title>
<path fill="#d4e8f7" stroke="black" d="M6278.43,-320.5C6278.43,-320.5 6149.57,-320.5 6149.57,-320.5 6145.38,-320.5 6141.18,-316.3 6141.18,-312.1 6141.18,-312.1 6141.18,-303.7 6141.18,-303.7 6141.18,-299.5 6145.38,-295.3 6149.57,-295.3 6149.57,-295.3 6278.43,-295.3 6278.43,-295.3 6282.62,-295.3 6286.82,-299.5 6286.82,-303.7 6286.82,-303.7 6286.82,-312.1 6286.82,-312.1 6286.82,-316.3 6282.62,-320.5 6278.43,-320.5"/>
<text xml:space="preserve" text-anchor="middle" x="6214" y="-304.8" font-family="Helvetica,sans-Serif" font-size="8.00">SURFACE&#45;offer&#45;rename&#45;refactor &#45; L</text>
</g>
<!-- cool_ideas_SURFACE_terminal_activity_browser_tui -->
<g id="node47" class="node">
<title>cool_ideas_SURFACE_terminal_activity_browser_tui</title>
<path fill="#d4e8f7" stroke="black" d="M6458.55,-320.5C6458.55,-320.5 6309.45,-320.5 6309.45,-320.5 6305.25,-320.5 6301.05,-316.3 6301.05,-312.1 6301.05,-312.1 6301.05,-303.7 6301.05,-303.7 6301.05,-299.5 6305.25,-295.3 6309.45,-295.3 6309.45,-295.3 6458.55,-295.3 6458.55,-295.3 6462.75,-295.3 6466.95,-299.5 6466.95,-303.7 6466.95,-303.7 6466.95,-312.1 6466.95,-312.1 6466.95,-316.3 6462.75,-320.5 6458.55,-320.5"/>
<text xml:space="preserve" text-anchor="middle" x="6384" y="-304.8" font-family="Helvetica,sans-Serif" font-size="8.00">SURFACE&#45;terminal&#45;activity&#45;browser&#45;tui &#45; L</text>
</g>
<!-- cool_ideas_traverse_plus_query_hydration_helper -->
<g id="node48" class="node">
<title>cool_ideas_traverse_plus_query_hydration_helper</title>
<path fill="#d4e8f7" stroke="black" d="M6630.8,-320.5C6630.8,-320.5 6489.2,-320.5 6489.2,-320.5 6485,-320.5 6480.8,-316.3 6480.8,-312.1 6480.8,-312.1 6480.8,-303.7 6480.8,-303.7 6480.8,-299.5 6485,-295.3 6489.2,-295.3 6489.2,-295.3 6630.8,-295.3 6630.8,-295.3 6635,-295.3 6639.2,-299.5 6639.2,-303.7 6639.2,-303.7 6639.2,-312.1 6639.2,-312.1 6639.2,-316.3 6635,-320.5 6630.8,-320.5"/>
<text xml:space="preserve" text-anchor="middle" x="6560" y="-304.8" font-family="Helvetica,sans-Serif" font-size="8.00">traverse&#45;plus&#45;query&#45;hydration&#45;helper &#45; S</text>
</g>
<!-- cool_ideas_WARP_adaptive_projection_selection -->
<g id="node49" class="node">
<title>cool_ideas_WARP_adaptive_projection_selection</title>
<path fill="#d4e8f7" stroke="black" d="M6799.93,-320.5C6799.93,-320.5 6662.07,-320.5 6662.07,-320.5 6657.88,-320.5 6653.68,-316.3 6653.68,-312.1 6653.68,-312.1 6653.68,-303.7 6653.68,-303.7 6653.68,-299.5 6657.88,-295.3 6662.07,-295.3 6662.07,-295.3 6799.93,-295.3 6799.93,-295.3 6804.12,-295.3 6808.32,-299.5 6808.32,-303.7 6808.32,-303.7 6808.32,-312.1 6808.32,-312.1 6808.32,-316.3 6804.12,-320.5 6799.93,-320.5"/>
<text xml:space="preserve" text-anchor="middle" x="6731" y="-304.8" font-family="Helvetica,sans-Serif" font-size="8.00">WARP&#45;adaptive&#45;projection&#45;selection &#45; L</text>
</g>
<!-- cool_ideas_WARP_agent_action_provenance -->
<g id="node50" class="node">
<title>cool_ideas_WARP_agent_action_provenance</title>
<path fill="#d4e8f7" stroke="black" d="M6961.55,-320.5C6961.55,-320.5 6830.45,-320.5 6830.45,-320.5 6826.25,-320.5 6822.05,-316.3 6822.05,-312.1 6822.05,-312.1 6822.05,-303.7 6822.05,-303.7 6822.05,-299.5 6826.25,-295.3 6830.45,-295.3 6830.45,-295.3 6961.55,-295.3 6961.55,-295.3 6965.75,-295.3 6969.95,-299.5 6969.95,-303.7 6969.95,-303.7 6969.95,-312.1 6969.95,-312.1 6969.95,-316.3 6965.75,-320.5 6961.55,-320.5"/>
<text xml:space="preserve" text-anchor="middle" x="6896" y="-304.8" font-family="Helvetica,sans-Serif" font-size="8.00">WARP&#45;agent&#45;action&#45;provenance &#45; XL</text>
</g>
<!-- cool_ideas_WARP_agent_action_provenance&#45;&gt;cool_ideas_CI_001_causal_collapse_visualizer -->
<g id="edge3" class="edge">
<title>cool_ideas_WARP_agent_action_provenance&#45;&gt;cool_ideas_CI_001_causal_collapse_visualizer</title>
<path fill="none" stroke="#666666" d="M6921.81,-294.81C6934.04,-289.01 6948.83,-281.9 6962,-275.3 6977.99,-267.28 6995.7,-258.02 7010,-250.44"/>
<polygon fill="#666666" stroke="#666666" points="7010.57,-252.12 7014.16,-248.23 7008.92,-249.03 7010.57,-252.12"/>
<text xml:space="preserve" text-anchor="middle" x="7008.14" y="-268.65" font-family="Helvetica,sans-Serif" font-size="7.00">blocked_by/blocking</text>
</g>
<!-- cool_ideas_WARP_causal_write_tracking -->
<g id="node55" class="node">
<title>cool_ideas_WARP_causal_write_tracking</title>
<path fill="#d4e8f7" stroke="black" d="M6654.05,-247.05C6654.05,-247.05 6543.95,-247.05 6543.95,-247.05 6539.75,-247.05 6535.55,-242.85 6535.55,-238.65 6535.55,-238.65 6535.55,-230.25 6535.55,-230.25 6535.55,-226.05 6539.75,-221.85 6543.95,-221.85 6543.95,-221.85 6654.05,-221.85 6654.05,-221.85 6658.25,-221.85 6662.45,-226.05 6662.45,-230.25 6662.45,-230.25 6662.45,-238.65 6662.45,-238.65 6662.45,-242.85 6658.25,-247.05 6654.05,-247.05"/>
<text xml:space="preserve" text-anchor="middle" x="6599" y="-231.35" font-family="Helvetica,sans-Serif" font-size="8.00">WARP&#45;causal&#45;write&#45;tracking &#45; L</text>
</g>
<!-- cool_ideas_WARP_agent_action_provenance&#45;&gt;cool_ideas_WARP_causal_write_tracking -->
<g id="edge4" class="edge">
<title>cool_ideas_WARP_agent_action_provenance&#45;&gt;cool_ideas_WARP_causal_write_tracking</title>
<path fill="none" stroke="#666666" d="M6848.13,-294.83C6837.27,-292.23 6825.76,-289.58 6815,-287.3 6785.83,-281.12 6778.1,-281.8 6749,-275.3 6714.63,-267.62 6676.25,-257.4 6646.92,-249.23"/>
<polygon fill="#666666" stroke="#666666" points="6647.55,-247.58 6642.26,-247.92 6646.61,-250.96 6647.55,-247.58"/>
<text xml:space="preserve" text-anchor="middle" x="6780.5" y="-268.65" font-family="Helvetica,sans-Serif" font-size="7.00">blocked_by/blocking</text>
</g>
<!-- cool_ideas_WARP_intent_and_decision_events -->
<g id="node65" class="node">
<title>cool_ideas_WARP_intent_and_decision_events</title>
<path fill="#d4e8f7" stroke="black" d="M6817.3,-247.05C6817.3,-247.05 6684.7,-247.05 6684.7,-247.05 6680.5,-247.05 6676.3,-242.85 6676.3,-238.65 6676.3,-238.65 6676.3,-230.25 6676.3,-230.25 6676.3,-226.05 6680.5,-221.85 6684.7,-221.85 6684.7,-221.85 6817.3,-221.85 6817.3,-221.85 6821.5,-221.85 6825.7,-226.05 6825.7,-230.25 6825.7,-230.25 6825.7,-238.65 6825.7,-238.65 6825.7,-242.85 6821.5,-247.05 6817.3,-247.05"/>
<text xml:space="preserve" text-anchor="middle" x="6751" y="-231.35" font-family="Helvetica,sans-Serif" font-size="8.00">WARP&#45;intent&#45;and&#45;decision&#45;events &#45; M</text>
</g>
<!-- cool_ideas_WARP_agent_action_provenance&#45;&gt;cool_ideas_WARP_intent_and_decision_events -->
<g id="edge5" class="edge">
<title>cool_ideas_WARP_agent_action_provenance&#45;&gt;cool_ideas_WARP_intent_and_decision_events</title>
<path fill="none" stroke="#666666" d="M6870.55,-294.87C6858.27,-289.02 6843.34,-281.86 6830,-275.3 6813.45,-267.16 6795.05,-257.89 6780.17,-250.34"/>
<polygon fill="#666666" stroke="#666666" points="6781.04,-248.83 6775.79,-248.12 6779.46,-251.95 6781.04,-248.83"/>
<text xml:space="preserve" text-anchor="middle" x="6861.5" y="-268.65" font-family="Helvetica,sans-Serif" font-size="7.00">blocked_by/blocking</text>
</g>
<!-- cool_ideas_WARP_provenance_dag -->
<g id="node70" class="node">
<title>cool_ideas_WARP_provenance_dag</title>
<path fill="#d4e8f7" stroke="black" d="M6943.55,-247.05C6943.55,-247.05 6848.45,-247.05 6848.45,-247.05 6844.25,-247.05 6840.05,-242.85 6840.05,-238.65 6840.05,-238.65 6840.05,-230.25 6840.05,-230.25 6840.05,-226.05 6844.25,-221.85 6848.45,-221.85 6848.45,-221.85 6943.55,-221.85 6943.55,-221.85 6947.75,-221.85 6951.95,-226.05 6951.95,-230.25 6951.95,-230.25 6951.95,-238.65 6951.95,-238.65 6951.95,-242.85 6947.75,-247.05 6943.55,-247.05"/>
<text xml:space="preserve" text-anchor="middle" x="6896" y="-231.35" font-family="Helvetica,sans-Serif" font-size="8.00">WARP&#45;provenance&#45;dag &#45; L</text>
</g>
<!-- cool_ideas_WARP_agent_action_provenance&#45;&gt;cool_ideas_WARP_provenance_dag -->
<g id="edge6" class="edge">
<title>cool_ideas_WARP_agent_action_provenance&#45;&gt;cool_ideas_WARP_provenance_dag</title>
<path fill="none" stroke="#666666" d="M6896,-295.1C6896,-283.9 6896,-266.88 6896,-253.88"/>
<polygon fill="#666666" stroke="#666666" points="6897.75,-254.02 6896,-249.02 6894.25,-254.02 6897.75,-254.02"/>
<text xml:space="preserve" text-anchor="middle" x="6927.5" y="-268.65" font-family="Helvetica,sans-Serif" font-size="7.00">blocked_by/blocking</text>
</g>
<!-- cool_ideas_WARP_auto_breaking_change_detection -->
<g id="node51" class="node">
<title>cool_ideas_WARP_auto_breaking_change_detection</title>
<path fill="#d4e8f7" stroke="black" d="M10198.3,-247.05C10198.3,-247.05 10047.7,-247.05 10047.7,-247.05 10043.5,-247.05 10039.3,-242.85 10039.3,-238.65 10039.3,-238.65 10039.3,-230.25 10039.3,-230.25 10039.3,-226.05 10043.5,-221.85 10047.7,-221.85 10047.7,-221.85 10198.3,-221.85 10198.3,-221.85 10202.5,-221.85 10206.7,-226.05 10206.7,-230.25 10206.7,-230.25 10206.7,-238.65 10206.7,-238.65 10206.7,-242.85 10202.5,-247.05 10198.3,-247.05"/>
<text xml:space="preserve" text-anchor="middle" x="10123" y="-231.35" font-family="Helvetica,sans-Serif" font-size="8.00">WARP&#45;auto&#45;breaking&#45;change&#45;detection &#45; L</text>
</g>
<!-- cool_ideas_WARP_budget_elasticity -->
<g id="node53" class="node">
<title>cool_ideas_WARP_budget_elasticity</title>
<path fill="#d4e8f7" stroke="black" d="M7087.93,-320.5C7087.93,-320.5 6992.07,-320.5 6992.07,-320.5 6987.88,-320.5 6983.68,-316.3 6983.68,-312.1 6983.68,-312.1 6983.68,-303.7 6983.68,-303.7 6983.68,-299.5 6987.88,-295.3 6992.07,-295.3 6992.07,-295.3 7087.93,-295.3 7087.93,-295.3 7092.12,-295.3 7096.32,-299.5 7096.32,-303.7 7096.32,-303.7 7096.32,-312.1 7096.32,-312.1 7096.32,-316.3 7092.12,-320.5 7087.93,-320.5"/>
<text xml:space="preserve" text-anchor="middle" x="7040" y="-304.8" font-family="Helvetica,sans-Serif" font-size="8.00">WARP&#45;budget&#45;elasticity &#45; M</text>
</g>
<!-- cool_ideas_WARP_causal_blame_for_staged_artifacts -->
<g id="node54" class="node">
<title>cool_ideas_WARP_causal_blame_for_staged_artifacts</title>
<path fill="#d4e8f7" stroke="black" d="M7047.18,-173.6C7047.18,-173.6 6892.82,-173.6 6892.82,-173.6 6888.62,-173.6 6884.43,-169.4 6884.43,-165.2 6884.43,-165.2 6884.43,-156.8 6884.43,-156.8 6884.43,-152.6 6888.62,-148.4 6892.82,-148.4 6892.82,-148.4 7047.18,-148.4 7047.18,-148.4 7051.38,-148.4 7055.57,-152.6 7055.57,-156.8 7055.57,-156.8 7055.57,-165.2 7055.57,-165.2 7055.57,-169.4 7051.38,-173.6 7047.18,-173.6"/>
<text xml:space="preserve" text-anchor="middle" x="6970" y="-157.9" font-family="Helvetica,sans-Serif" font-size="8.00">WARP&#45;causal&#45;blame&#45;for&#45;staged&#45;artifacts &#45; L</text>
</g>
<!-- cool_ideas_WARP_codebase_entropy_trajectory -->
<g id="node56" class="node">
<title>cool_ideas_WARP_codebase_entropy_trajectory</title>
<path fill="#d4e8f7" stroke="black" d="M7257.68,-320.5C7257.68,-320.5 7118.32,-320.5 7118.32,-320.5 7114.12,-320.5 7109.93,-316.3 7109.93,-312.1 7109.93,-312.1 7109.93,-303.7 7109.93,-303.7 7109.93,-299.5 7114.12,-295.3 7118.32,-295.3 7118.32,-295.3 7257.68,-295.3 7257.68,-295.3 7261.88,-295.3 7266.07,-299.5 7266.07,-303.7 7266.07,-303.7 7266.07,-312.1 7266.07,-312.1 7266.07,-316.3 7261.88,-320.5 7257.68,-320.5"/>
<text xml:space="preserve" text-anchor="middle" x="7188" y="-304.8" font-family="Helvetica,sans-Serif" font-size="8.00">WARP&#45;codebase&#45;entropy&#45;trajectory &#45; M</text>
</g>
<!-- cool_ideas_WARP_counterfactual_refactoring -->
<g id="node58" class="node">
<title>cool_ideas_WARP_counterfactual_refactoring</title>
<path fill="#d4e8f7" stroke="black" d="M7265.68,-247.05C7265.68,-247.05 7132.32,-247.05 7132.32,-247.05 7128.12,-247.05 7123.93,-242.85 7123.93,-238.65 7123.93,-238.65 7123.93,-230.25 7123.93,-230.25 7123.93,-226.05 7128.12,-221.85 7132.32,-221.85 7132.32,-221.85 7265.68,-221.85 7265.68,-221.85 7269.88,-221.85 7274.07,-226.05 7274.07,-230.25 7274.07,-230.25 7274.07,-238.65 7274.07,-238.65 7274.07,-242.85 7269.88,-247.05 7265.68,-247.05"/>
<text xml:space="preserve" text-anchor="middle" x="7199" y="-231.35" font-family="Helvetica,sans-Serif" font-size="8.00">WARP&#45;counterfactual&#45;refactoring &#45; XL</text>
</g>
<!-- cool_ideas_WARP_codebase_entropy_trajectory&#45;&gt;cool_ideas_WARP_counterfactual_refactoring -->
<g id="edge7" class="edge">
<title>cool_ideas_WARP_codebase_entropy_trajectory&#45;&gt;cool_ideas_WARP_counterfactual_refactoring</title>
<path fill="none" stroke="#666666" d="M7189.82,-295.1C7191.54,-283.9 7194.16,-266.88 7196.16,-253.88"/>
<polygon fill="#666666" stroke="#666666" points="7197.88,-254.21 7196.91,-249 7194.42,-253.68 7197.88,-254.21"/>
<text xml:space="preserve" text-anchor="middle" x="7225.33" y="-268.65" font-family="Helvetica,sans-Serif" font-size="7.00">blocked_by/blocking</text>
</g>
<!-- cool_ideas_WARP_codebase_signature -->
<g id="node57" class="node">
<title>cool_ideas_WARP_codebase_signature</title>
<path fill="#d4e8f7" stroke="black" d="M7395.55,-320.5C7395.55,-320.5 7288.45,-320.5 7288.45,-320.5 7284.25,-320.5 7280.05,-316.3 7280.05,-312.1 7280.05,-312.1 7280.05,-303.7 7280.05,-303.7 7280.05,-299.5 7284.25,-295.3 7288.45,-295.3 7288.45,-295.3 7395.55,-295.3 7395.55,-295.3 7399.75,-295.3 7403.95,-299.5 7403.95,-303.7 7403.95,-303.7 7403.95,-312.1 7403.95,-312.1 7403.95,-316.3 7399.75,-320.5 7395.55,-320.5"/>
<text xml:space="preserve" text-anchor="middle" x="7342" y="-304.8" font-family="Helvetica,sans-Serif" font-size="8.00">WARP&#45;codebase&#45;signature &#45; L</text>
</g>
<!-- cool_ideas_WARP_structural_impact_prediction -->
<g id="node80" class="node">
<title>cool_ideas_WARP_structural_impact_prediction</title>
<path fill="#d4e8f7" stroke="black" d="M7268.3,-173.6C7268.3,-173.6 7129.7,-173.6 7129.7,-173.6 7125.5,-173.6 7121.3,-169.4 7121.3,-165.2 7121.3,-165.2 7121.3,-156.8 7121.3,-156.8 7121.3,-152.6 7125.5,-148.4 7129.7,-148.4 7129.7,-148.4 7268.3,-148.4 7268.3,-148.4 7272.5,-148.4 7276.7,-152.6 7276.7,-156.8 7276.7,-156.8 7276.7,-165.2 7276.7,-165.2 7276.7,-169.4 7272.5,-173.6 7268.3,-173.6"/>
<text xml:space="preserve" text-anchor="middle" x="7199" y="-157.9" font-family="Helvetica,sans-Serif" font-size="8.00">WARP&#45;structural&#45;impact&#45;prediction &#45; XL</text>
</g>
<!-- cool_ideas_WARP_counterfactual_refactoring&#45;&gt;cool_ideas_WARP_structural_impact_prediction -->
<g id="edge8" class="edge">
<title>cool_ideas_WARP_counterfactual_refactoring&#45;&gt;cool_ideas_WARP_structural_impact_prediction</title>
<path fill="none" stroke="#666666" d="M7199,-221.65C7199,-210.45 7199,-193.43 7199,-180.43"/>
<polygon fill="#666666" stroke="#666666" points="7200.75,-180.57 7199,-175.57 7197.25,-180.57 7200.75,-180.57"/>
<text xml:space="preserve" text-anchor="middle" x="7230.5" y="-195.2" font-family="Helvetica,sans-Serif" font-size="7.00">blocked_by/blocking</text>
</g>
<!-- cool_ideas_WARP_dead_symbol_detection -->
<g id="node59" class="node">
<title>cool_ideas_WARP_dead_symbol_detection</title>
<path fill="#d4e8f7" stroke="black" d="M7545.18,-320.5C7545.18,-320.5 7426.82,-320.5 7426.82,-320.5 7422.62,-320.5 7418.43,-316.3 7418.43,-312.1 7418.43,-312.1 7418.43,-303.7 7418.43,-303.7 7418.43,-299.5 7422.62,-295.3 7426.82,-295.3 7426.82,-295.3 7545.18,-295.3 7545.18,-295.3 7549.38,-295.3 7553.57,-299.5 7553.57,-303.7 7553.57,-303.7 7553.57,-312.1 7553.57,-312.1 7553.57,-316.3 7549.38,-320.5 7545.18,-320.5"/>
<text xml:space="preserve" text-anchor="middle" x="7486" y="-304.8" font-family="Helvetica,sans-Serif" font-size="8.00">WARP&#45;dead&#45;symbol&#45;detection &#45; S</text>
</g>
<!-- cool_ideas_WARP_degeneracy_warning -->
<g id="node60" class="node">
<title>cool_ideas_WARP_degeneracy_warning</title>
<path fill="#d4e8f7" stroke="black" d="M7688.18,-320.5C7688.18,-320.5 7575.82,-320.5 7575.82,-320.5 7571.62,-320.5 7567.43,-316.3 7567.43,-312.1 7567.43,-312.1 7567.43,-303.7 7567.43,-303.7 7567.43,-299.5 7571.62,-295.3 7575.82,-295.3 7575.82,-295.3 7688.18,-295.3 7688.18,-295.3 7692.38,-295.3 7696.57,-299.5 7696.57,-303.7 7696.57,-303.7 7696.57,-312.1 7696.57,-312.1 7696.57,-316.3 7692.38,-320.5 7688.18,-320.5"/>
<text xml:space="preserve" text-anchor="middle" x="7632" y="-304.8" font-family="Helvetica,sans-Serif" font-size="8.00">WARP&#45;degeneracy&#45;warning &#45; M</text>
</g>
<!-- cool_ideas_WARP_drift_sentinel -->
<g id="node61" class="node">
<title>cool_ideas_WARP_drift_sentinel</title>
<path fill="#d4e8f7" stroke="black" d="M9601.18,-247.05C9601.18,-247.05 9518.82,-247.05 9518.82,-247.05 9514.62,-247.05 9510.42,-242.85 9510.42,-238.65 9510.42,-238.65 9510.42,-230.25 9510.42,-230.25 9510.42,-226.05 9514.62,-221.85 9518.82,-221.85 9518.82,-221.85 9601.18,-221.85 9601.18,-221.85 9605.38,-221.85 9609.58,-226.05 9609.58,-230.25 9609.58,-230.25 9609.58,-238.65 9609.58,-238.65 9609.58,-242.85 9605.38,-247.05 9601.18,-247.05"/>
<text xml:space="preserve" text-anchor="middle" x="9560" y="-231.35" font-family="Helvetica,sans-Serif" font-size="8.00">WARP&#45;drift&#45;sentinel &#45; M</text>
</g>
<!-- cool_ideas_WARP_footprint_parallelism -->
<g id="node62" class="node">
<title>cool_ideas_WARP_footprint_parallelism</title>
<path fill="#d4e8f7" stroke="black" d="M7830.8,-320.5C7830.8,-320.5 7719.2,-320.5 7719.2,-320.5 7715,-320.5 7710.8,-316.3 7710.8,-312.1 7710.8,-312.1 7710.8,-303.7 7710.8,-303.7 7710.8,-299.5 7715,-295.3 7719.2,-295.3 7719.2,-295.3 7830.8,-295.3 7830.8,-295.3 7835,-295.3 7839.2,-299.5 7839.2,-303.7 7839.2,-303.7 7839.2,-312.1 7839.2,-312.1 7839.2,-316.3 7835,-320.5 7830.8,-320.5"/>
<text xml:space="preserve" text-anchor="middle" x="7775" y="-304.8" font-family="Helvetica,sans-Serif" font-size="8.00">WARP&#45;footprint&#45;parallelism &#45; XL</text>
</g>
<!-- cool_ideas_WARP_graft_pack -->
<g id="node63" class="node">
<title>cool_ideas_WARP_graft_pack</title>
<path fill="#d4e8f7" stroke="black" d="M7936.43,-320.5C7936.43,-320.5 7861.57,-320.5 7861.57,-320.5 7857.38,-320.5 7853.18,-316.3 7853.18,-312.1 7853.18,-312.1 7853.18,-303.7 7853.18,-303.7 7853.18,-299.5 7857.38,-295.3 7861.57,-295.3 7861.57,-295.3 7936.43,-295.3 7936.43,-295.3 7940.62,-295.3 7944.82,-299.5 7944.82,-303.7 7944.82,-303.7 7944.82,-312.1 7944.82,-312.1 7944.82,-316.3 7940.62,-320.5 7936.43,-320.5"/>
<text xml:space="preserve" text-anchor="middle" x="7899" y="-304.8" font-family="Helvetica,sans-Serif" font-size="8.00">WARP&#45;graft&#45;pack &#45; M</text>
</g>
<!-- cool_ideas_WARP_grouped_aggregate_queries -->
<g id="node64" class="node">
<title>cool_ideas_WARP_grouped_aggregate_queries</title>
<path fill="#d4e8f7" stroke="black" d="M8104.93,-320.5C8104.93,-320.5 7967.07,-320.5 7967.07,-320.5 7962.88,-320.5 7958.68,-316.3 7958.68,-312.1 7958.68,-312.1 7958.68,-303.7 7958.68,-303.7 7958.68,-299.5 7962.88,-295.3 7967.07,-295.3 7967.07,-295.3 8104.93,-295.3 8104.93,-295.3 8109.12,-295.3 8113.32,-299.5 8113.32,-303.7 8113.32,-303.7 8113.32,-312.1 8113.32,-312.1 8113.32,-316.3 8109.12,-320.5 8104.93,-320.5"/>
<text xml:space="preserve" text-anchor="middle" x="8036" y="-304.8" font-family="Helvetica,sans-Serif" font-size="8.00">WARP&#45;grouped&#45;aggregate&#45;queries &#45; M</text>
</g>
<!-- cool_ideas_WARP_intentional_degeneracy_privacy -->
<g id="node66" class="node">
<title>cool_ideas_WARP_intentional_degeneracy_privacy</title>
<path fill="#d4e8f7" stroke="black" d="M8283.8,-320.5C8283.8,-320.5 8136.2,-320.5 8136.2,-320.5 8132,-320.5 8127.8,-316.3 8127.8,-312.1 8127.8,-312.1 8127.8,-303.7 8127.8,-303.7 8127.8,-299.5 8132,-295.3 8136.2,-295.3 8136.2,-295.3 8283.8,-295.3 8283.8,-295.3 8288,-295.3 8292.2,-299.5 8292.2,-303.7 8292.2,-303.7 8292.2,-312.1 8292.2,-312.1 8292.2,-316.3 8288,-320.5 8283.8,-320.5"/>
<text xml:space="preserve" text-anchor="middle" x="8210" y="-304.8" font-family="Helvetica,sans-Serif" font-size="8.00">WARP&#45;intentional&#45;degeneracy&#45;privacy &#45; M</text>
</g>
<!-- cool_ideas_WARP_minimum_viable_context -->
<g id="node67" class="node">
<title>cool_ideas_WARP_minimum_viable_context</title>
<path fill="#d4e8f7" stroke="black" d="M8437.43,-320.5C8437.43,-320.5 8314.57,-320.5 8314.57,-320.5 8310.38,-320.5 8306.17,-316.3 8306.17,-312.1 8306.17,-312.1 8306.17,-303.7 8306.17,-303.7 8306.17,-299.5 8310.38,-295.3 8314.57,-295.3 8314.57,-295.3 8437.43,-295.3 8437.43,-295.3 8441.62,-295.3 8445.83,-299.5 8445.83,-303.7 8445.83,-303.7 8445.83,-312.1 8445.83,-312.1 8445.83,-316.3 8441.62,-320.5 8437.43,-320.5"/>
<text xml:space="preserve" text-anchor="middle" x="8376" y="-304.8" font-family="Helvetica,sans-Serif" font-size="8.00">WARP&#45;minimum&#45;viable&#45;context &#45; M</text>
</g>
<!-- cool_ideas_WARP_outline_diff_commit_trailer -->
<g id="node68" class="node">
<title>cool_ideas_WARP_outline_diff_commit_trailer</title>
<path fill="#d4e8f7" stroke="black" d="M8593.93,-320.5C8593.93,-320.5 8468.07,-320.5 8468.07,-320.5 8463.88,-320.5 8459.67,-316.3 8459.67,-312.1 8459.67,-312.1 8459.67,-303.7 8459.67,-303.7 8459.67,-299.5 8463.88,-295.3 8468.07,-295.3 8468.07,-295.3 8593.93,-295.3 8593.93,-295.3 8598.12,-295.3 8602.33,-299.5 8602.33,-303.7 8602.33,-303.7 8602.33,-312.1 8602.33,-312.1 8602.33,-316.3 8598.12,-320.5 8593.93,-320.5"/>
<text xml:space="preserve" text-anchor="middle" x="8531" y="-304.8" font-family="Helvetica,sans-Serif" font-size="8.00">WARP&#45;outline&#45;diff&#45;commit&#45;trailer &#45; S</text>
</g>
<!-- cool_ideas_WARP_projection_safety_classes -->
<g id="node69" class="node">
<title>cool_ideas_WARP_projection_safety_classes</title>
<path fill="#d4e8f7" stroke="black" d="M8750.93,-320.5C8750.93,-320.5 8625.07,-320.5 8625.07,-320.5 8620.88,-320.5 8616.67,-316.3 8616.67,-312.1 8616.67,-312.1 8616.67,-303.7 8616.67,-303.7 8616.67,-299.5 8620.88,-295.3 8625.07,-295.3 8625.07,-295.3 8750.93,-295.3 8750.93,-295.3 8755.12,-295.3 8759.33,-299.5 8759.33,-303.7 8759.33,-303.7 8759.33,-312.1 8759.33,-312.1 8759.33,-316.3 8755.12,-320.5 8750.93,-320.5"/>
<text xml:space="preserve" text-anchor="middle" x="8688" y="-304.8" font-family="Helvetica,sans-Serif" font-size="8.00">WARP&#45;projection&#45;safety&#45;classes &#45; M</text>
</g>
<!-- cool_ideas_WARP_provenance_dag&#45;&gt;cool_ideas_WARP_causal_blame_for_staged_artifacts -->
<g id="edge9" class="edge">
<title>cool_ideas_WARP_provenance_dag&#45;&gt;cool_ideas_WARP_causal_blame_for_staged_artifacts</title>
<path fill="none" stroke="#666666" d="M6908.22,-221.65C6920.46,-209.83 6939.41,-191.54 6953.09,-178.32"/>
<polygon fill="#666666" stroke="#666666" points="6954.04,-179.84 6956.43,-175.11 6951.61,-177.32 6954.04,-179.84"/>
<text xml:space="preserve" text-anchor="middle" x="6966.72" y="-195.2" font-family="Helvetica,sans-Serif" font-size="7.00">blocked_by/blocking</text>
</g>
<!-- cool_ideas_WARP_reasoning_trace_replay -->
<g id="node71" class="node">
<title>cool_ideas_WARP_reasoning_trace_replay</title>
<path fill="#d4e8f7" stroke="black" d="M6861.93,-173.6C6861.93,-173.6 6742.07,-173.6 6742.07,-173.6 6737.88,-173.6 6733.68,-169.4 6733.68,-165.2 6733.68,-165.2 6733.68,-156.8 6733.68,-156.8 6733.68,-152.6 6737.88,-148.4 6742.07,-148.4 6742.07,-148.4 6861.93,-148.4 6861.93,-148.4 6866.12,-148.4 6870.32,-152.6 6870.32,-156.8 6870.32,-156.8 6870.32,-165.2 6870.32,-165.2 6870.32,-169.4 6866.12,-173.6 6861.93,-173.6"/>
<text xml:space="preserve" text-anchor="middle" x="6802" y="-157.9" font-family="Helvetica,sans-Serif" font-size="8.00">WARP&#45;reasoning&#45;trace&#45;replay &#45; M</text>
</g>
<!-- cool_ideas_WARP_provenance_dag&#45;&gt;cool_ideas_WARP_reasoning_trace_replay -->
<g id="edge10" class="edge">
<title>cool_ideas_WARP_provenance_dag&#45;&gt;cool_ideas_WARP_reasoning_trace_replay</title>
<path fill="none" stroke="#666666" d="M6880.48,-221.65C6864.79,-209.73 6840.44,-191.22 6823.02,-177.98"/>
<polygon fill="#666666" stroke="#666666" points="6824.1,-176.6 6819.06,-174.97 6821.99,-179.39 6824.1,-176.6"/>
<text xml:space="preserve" text-anchor="middle" x="6883.32" y="-195.2" font-family="Helvetica,sans-Serif" font-size="7.00">blocked_by/blocking</text>
</g>
<!-- cool_ideas_WARP_rulial_heat_map -->
<g id="node72" class="node">
<title>cool_ideas_WARP_rulial_heat_map</title>
<path fill="#d4e8f7" stroke="black" d="M8872.3,-320.5C8872.3,-320.5 8781.7,-320.5 8781.7,-320.5 8777.5,-320.5 8773.3,-316.3 8773.3,-312.1 8773.3,-312.1 8773.3,-303.7 8773.3,-303.7 8773.3,-299.5 8777.5,-295.3 8781.7,-295.3 8781.7,-295.3 8872.3,-295.3 8872.3,-295.3 8876.5,-295.3 8880.7,-299.5 8880.7,-303.7 8880.7,-303.7 8880.7,-312.1 8880.7,-312.1 8880.7,-316.3 8876.5,-320.5 8872.3,-320.5"/>
<text xml:space="preserve" text-anchor="middle" x="8827" y="-304.8" font-family="Helvetica,sans-Serif" font-size="8.00">WARP&#45;rulial&#45;heat&#45;map &#45; L</text>
</g>
<!-- cool_ideas_WARP_semantic_drift_in_sessions -->
<g id="node73" class="node">
<title>cool_ideas_WARP_semantic_drift_in_sessions</title>
<path fill="#d4e8f7" stroke="black" d="M9032.43,-320.5C9032.43,-320.5 8903.57,-320.5 8903.57,-320.5 8899.38,-320.5 8895.17,-316.3 8895.17,-312.1 8895.17,-312.1 8895.17,-303.7 8895.17,-303.7 8895.17,-299.5 8899.38,-295.3 8903.57,-295.3 8903.57,-295.3 9032.43,-295.3 9032.43,-295.3 9036.62,-295.3 9040.83,-299.5 9040.83,-303.7 9040.83,-303.7 9040.83,-312.1 9040.83,-312.1 9040.83,-316.3 9036.62,-320.5 9032.43,-320.5"/>
<text xml:space="preserve" text-anchor="middle" x="8968" y="-304.8" font-family="Helvetica,sans-Serif" font-size="8.00">WARP&#45;semantic&#45;drift&#45;in&#45;sessions &#45; M</text>
</g>
<!-- cool_ideas_WARP_semantic_merge_conflict_prediction -->
<g id="node74" class="node">
<title>cool_ideas_WARP_semantic_merge_conflict_prediction</title>
<path fill="#d4e8f7" stroke="black" d="M10016.43,-247.05C10016.43,-247.05 9857.57,-247.05 9857.57,-247.05 9853.38,-247.05 9849.17,-242.85 9849.17,-238.65 9849.17,-238.65 9849.17,-230.25 9849.17,-230.25 9849.17,-226.05 9853.38,-221.85 9857.57,-221.85 9857.57,-221.85 10016.43,-221.85 10016.43,-221.85 10020.62,-221.85 10024.83,-226.05 10024.83,-230.25 10024.83,-230.25 10024.83,-238.65 10024.83,-238.65 10024.83,-242.85 10020.62,-247.05 10016.43,-247.05"/>
<text xml:space="preserve" text-anchor="middle" x="9937" y="-231.35" font-family="Helvetica,sans-Serif" font-size="8.00">WARP&#45;semantic&#45;merge&#45;conflict&#45;prediction &#45; L</text>
</g>
<!-- cool_ideas_WARP_session_filtration -->
<g id="node75" class="node">
<title>cool_ideas_WARP_session_filtration</title>
<path fill="#d4e8f7" stroke="black" d="M9156.8,-320.5C9156.8,-320.5 9063.2,-320.5 9063.2,-320.5 9059,-320.5 9054.8,-316.3 9054.8,-312.1 9054.8,-312.1 9054.8,-303.7 9054.8,-303.7 9054.8,-299.5 9059,-295.3 9063.2,-295.3 9063.2,-295.3 9156.8,-295.3 9156.8,-295.3 9161,-295.3 9165.2,-299.5 9165.2,-303.7 9165.2,-303.7 9165.2,-312.1 9165.2,-312.1 9165.2,-316.3 9161,-320.5 9156.8,-320.5"/>
<text xml:space="preserve" text-anchor="middle" x="9110" y="-304.8" font-family="Helvetica,sans-Serif" font-size="8.00">WARP&#45;session&#45;filtration &#45; L</text>
</g>
<!-- cool_ideas_WARP_shadow_structural_workspaces -->
<g id="node76" class="node">
<title>cool_ideas_WARP_shadow_structural_workspaces</title>
<path fill="#d4e8f7" stroke="black" d="M9338.3,-320.5C9338.3,-320.5 9187.7,-320.5 9187.7,-320.5 9183.5,-320.5 9179.3,-316.3 9179.3,-312.1 9179.3,-312.1 9179.3,-303.7 9179.3,-303.7 9179.3,-299.5 9183.5,-295.3 9187.7,-295.3 9187.7,-295.3 9338.3,-295.3 9338.3,-295.3 9342.5,-295.3 9346.7,-299.5 9346.7,-303.7 9346.7,-303.7 9346.7,-312.1 9346.7,-312.1 9346.7,-316.3 9342.5,-320.5 9338.3,-320.5"/>
<text xml:space="preserve" text-anchor="middle" x="9263" y="-304.8" font-family="Helvetica,sans-Serif" font-size="8.00">WARP&#45;shadow&#45;structural&#45;workspaces &#45; XL</text>
</g>
<!-- cool_ideas_WARP_speculative_merge -->
<g id="node77" class="node">
<title>cool_ideas_WARP_speculative_merge</title>
<path fill="#d4e8f7" stroke="black" d="M9476.55,-320.5C9476.55,-320.5 9369.45,-320.5 9369.45,-320.5 9365.25,-320.5 9361.05,-316.3 9361.05,-312.1 9361.05,-312.1 9361.05,-303.7 9361.05,-303.7 9361.05,-299.5 9365.25,-295.3 9369.45,-295.3 9369.45,-295.3 9476.55,-295.3 9476.55,-295.3 9480.75,-295.3 9484.95,-299.5 9484.95,-303.7 9484.95,-303.7 9484.95,-312.1 9484.95,-312.1 9484.95,-316.3 9480.75,-320.5 9476.55,-320.5"/>
<text xml:space="preserve" text-anchor="middle" x="9423" y="-304.8" font-family="Helvetica,sans-Serif" font-size="8.00">WARP&#45;speculative&#45;merge &#45; XL</text>
</g>
<!-- cool_ideas_WARP_stale_docs_checker -->
<g id="node78" class="node">
<title>cool_ideas_WARP_stale_docs_checker</title>
<path fill="#d4e8f7" stroke="black" d="M9612.8,-320.5C9612.8,-320.5 9507.2,-320.5 9507.2,-320.5 9503,-320.5 9498.8,-316.3 9498.8,-312.1 9498.8,-312.1 9498.8,-303.7 9498.8,-303.7 9498.8,-299.5 9503,-295.3 9507.2,-295.3 9507.2,-295.3 9612.8,-295.3 9612.8,-295.3 9617,-295.3 9621.2,-299.5 9621.2,-303.7 9621.2,-303.7 9621.2,-312.1 9621.2,-312.1 9621.2,-316.3 9617,-320.5 9612.8,-320.5"/>
<text xml:space="preserve" text-anchor="middle" x="9560" y="-304.8" font-family="Helvetica,sans-Serif" font-size="8.00">WARP&#45;stale&#45;docs&#45;checker &#45; M</text>
</g>
<!-- cool_ideas_WARP_stale_docs_checker&#45;&gt;cool_ideas_WARP_drift_sentinel -->
<g id="edge11" class="edge">
<title>cool_ideas_WARP_stale_docs_checker&#45;&gt;cool_ideas_WARP_drift_sentinel</title>
<path fill="none" stroke="#666666" d="M9560,-295.1C9560,-283.9 9560,-266.88 9560,-253.88"/>
<polygon fill="#666666" stroke="#666666" points="9561.75,-254.02 9560,-249.02 9558.25,-254.02 9561.75,-254.02"/>
<text xml:space="preserve" text-anchor="middle" x="9591.5" y="-268.65" font-family="Helvetica,sans-Serif" font-size="7.00">blocked_by/blocking</text>
</g>
<!-- cool_ideas_WARP_structural_drift_detection -->
<g id="node79" class="node">
<title>cool_ideas_WARP_structural_drift_detection</title>
<path fill="#d4e8f7" stroke="black" d="M9766.8,-320.5C9766.8,-320.5 9643.2,-320.5 9643.2,-320.5 9639,-320.5 9634.8,-316.3 9634.8,-312.1 9634.8,-312.1 9634.8,-303.7 9634.8,-303.7 9634.8,-299.5 9639,-295.3 9643.2,-295.3 9643.2,-295.3 9766.8,-295.3 9766.8,-295.3 9771,-295.3 9775.2,-299.5 9775.2,-303.7 9775.2,-303.7 9775.2,-312.1 9775.2,-312.1 9775.2,-316.3 9771,-320.5 9766.8,-320.5"/>
<text xml:space="preserve" text-anchor="middle" x="9705" y="-304.8" font-family="Helvetica,sans-Serif" font-size="8.00">WARP&#45;structural&#45;drift&#45;detection &#45; M</text>
</g>
<!-- cool_ideas_WARP_symbol_heatmap -->
<g id="node81" class="node">
<title>cool_ideas_WARP_symbol_heatmap</title>
<path fill="#d4e8f7" stroke="black" d="M9896.05,-320.5C9896.05,-320.5 9797.95,-320.5 9797.95,-320.5 9793.75,-320.5 9789.55,-316.3 9789.55,-312.1 9789.55,-312.1 9789.55,-303.7 9789.55,-303.7 9789.55,-299.5 9793.75,-295.3 9797.95,-295.3 9797.95,-295.3 9896.05,-295.3 9896.05,-295.3 9900.25,-295.3 9904.45,-299.5 9904.45,-303.7 9904.45,-303.7 9904.45,-312.1 9904.45,-312.1 9904.45,-316.3 9900.25,-320.5 9896.05,-320.5"/>
<text xml:space="preserve" text-anchor="middle" x="9847" y="-304.8" font-family="Helvetica,sans-Serif" font-size="8.00">WARP&#45;symbol&#45;heatmap &#45; M</text>
</g>
<!-- cool_ideas_WARP_symbol_history_timeline -->
<g id="node82" class="node">
<title>cool_ideas_WARP_symbol_history_timeline</title>
<path fill="#d4e8f7" stroke="black" d="M10045.18,-320.5C10045.18,-320.5 9926.82,-320.5 9926.82,-320.5 9922.62,-320.5 9918.42,-316.3 9918.42,-312.1 9918.42,-312.1 9918.42,-303.7 9918.42,-303.7 9918.42,-299.5 9922.62,-295.3 9926.82,-295.3 9926.82,-295.3 10045.18,-295.3 10045.18,-295.3 10049.38,-295.3 10053.58,-299.5 10053.58,-303.7 10053.58,-303.7 10053.58,-312.1 10053.58,-312.1 10053.58,-316.3 10049.38,-320.5 10045.18,-320.5"/>
<text xml:space="preserve" text-anchor="middle" x="9986" y="-304.8" font-family="Helvetica,sans-Serif" font-size="8.00">WARP&#45;symbol&#45;history&#45;timeline &#45; S</text>
</g>
<!-- cool_ideas_WARP_temporal_structural_search -->
<g id="node84" class="node">
<title>cool_ideas_WARP_temporal_structural_search</title>
<path fill="#d4e8f7" stroke="black" d="M9826.68,-247.05C9826.68,-247.05 9693.32,-247.05 9693.32,-247.05 9689.12,-247.05 9684.92,-242.85 9684.92,-238.65 9684.92,-238.65 9684.92,-230.25 9684.92,-230.25 9684.92,-226.05 9689.12,-221.85 9693.32,-221.85 9693.32,-221.85 9826.68,-221.85 9826.68,-221.85 9830.88,-221.85 9835.08,-226.05 9835.08,-230.25 9835.08,-230.25 9835.08,-238.65 9835.08,-238.65 9835.08,-242.85 9830.88,-247.05 9826.68,-247.05"/>
<text xml:space="preserve" text-anchor="middle" x="9760" y="-231.35" font-family="Helvetica,sans-Serif" font-size="8.00">WARP&#45;temporal&#45;structural&#45;search &#45; M</text>
</g>
<!-- cool_ideas_WARP_symbol_history_timeline&#45;&gt;cool_ideas_WARP_temporal_structural_search -->
<g id="edge12" class="edge">
<title>cool_ideas_WARP_symbol_history_timeline&#45;&gt;cool_ideas_WARP_temporal_structural_search</title>
<path fill="none" stroke="#666666" d="M9947.92,-294.86C9908.23,-282.31 9846.1,-262.67 9804.26,-249.44"/>
<polygon fill="#666666" stroke="#666666" points="9804.98,-247.83 9799.68,-248 9803.92,-251.17 9804.98,-247.83"/>
<text xml:space="preserve" text-anchor="middle" x="9911.28" y="-268.65" font-family="Helvetica,sans-Serif" font-size="7.00">blocked_by/blocking</text>
</g>
<!-- cool_ideas_WARP_technical_debt_curvature -->
<g id="node83" class="node">
<title>cool_ideas_WARP_technical_debt_curvature</title>
<path fill="#d4e8f7" stroke="black" d="M10198.43,-320.5C10198.43,-320.5 10075.57,-320.5 10075.57,-320.5 10071.38,-320.5 10067.17,-316.3 10067.17,-312.1 10067.17,-312.1 10067.17,-303.7 10067.17,-303.7 10067.17,-299.5 10071.38,-295.3 10075.57,-295.3 10075.57,-295.3 10198.43,-295.3 10198.43,-295.3 10202.62,-295.3 10206.83,-299.5 10206.83,-303.7 10206.83,-303.7 10206.83,-312.1 10206.83,-312.1 10206.83,-316.3 10202.62,-320.5 10198.43,-320.5"/>
<text xml:space="preserve" text-anchor="middle" x="10137" y="-304.8" font-family="Helvetica,sans-Serif" font-size="8.00">WARP&#45;technical&#45;debt&#45;curvature &#45; L</text>
</g>
<!-- external_git_warp_observer_geometry_ladder__Rung_2_4_ -->
<g id="node85" class="node">
<title>external_git_warp_observer_geometry_ladder__Rung_2_4_</title>
<path fill="#e8f2ff" stroke="black" d="M187.67,-320.5C187.67,-320.5 24.33,-320.5 24.33,-320.5 20.13,-320.5 15.92,-316.3 15.92,-312.1 15.92,-312.1 15.92,-303.7 15.92,-303.7 15.92,-299.5 20.13,-295.3 24.33,-295.3 24.33,-295.3 187.67,-295.3 187.67,-295.3 191.87,-295.3 196.07,-299.5 196.07,-303.7 196.07,-303.7 196.07,-312.1 196.07,-312.1 196.07,-316.3 191.87,-320.5 187.67,-320.5"/>
<text xml:space="preserve" text-anchor="middle" x="106" y="-304.8" font-family="Helvetica,sans-Serif" font-size="8.00">git&#45;warp observer geometry ladder (Rung 2&#45;4)</text>
</g>
<!-- external_git_warp_observer_geometry_ladder__Rung_2_4_&#45;&gt;v0_7_0_CORE_migrate_to_slice_first_reads -->
<g id="edge13" class="edge">
<title>external_git_warp_observer_geometry_ladder__Rung_2_4_&#45;&gt;v0_7_0_CORE_migrate_to_slice_first_reads</title>
<path fill="none" stroke="#4477aa" stroke-dasharray="5,2" d="M136.3,-294.94C167.5,-282.62 216.18,-263.41 249.72,-250.16"/>
<polygon fill="#4477aa" stroke="#4477aa" points="249.97,-251.95 253.98,-248.48 248.69,-248.69 249.97,-251.95"/>
<text xml:space="preserve" text-anchor="middle" x="233.8" y="-268.65" font-family="Helvetica,sans-Serif" font-size="7.00">blocked_by_external</text>
</g>
<!-- unresolved_CLEAN_CODE_export_diff_semver_signature_as_patch -->
<g id="node86" class="node">
<title>unresolved_CLEAN_CODE_export_diff_semver_signature_as_patch</title>
<path fill="#f2f2f2" stroke="black" stroke-dasharray="5,2" d="M10462.3,-320.5C10462.3,-320.5 10239.7,-320.5 10239.7,-320.5 10235.5,-320.5 10231.3,-316.3 10231.3,-312.1 10231.3,-312.1 10231.3,-303.7 10231.3,-303.7 10231.3,-299.5 10235.5,-295.3 10239.7,-295.3 10239.7,-295.3 10462.3,-295.3 10462.3,-295.3 10466.5,-295.3 10470.7,-299.5 10470.7,-303.7 10470.7,-303.7 10470.7,-312.1 10470.7,-312.1 10470.7,-316.3 10466.5,-320.5 10462.3,-320.5"/>
<text xml:space="preserve" text-anchor="middle" x="10351" y="-304.8" font-family="Helvetica,sans-Serif" font-size="8.00">missing: CLEAN_CODE_export&#45;diff&#45;semver&#45;signature&#45;as&#45;patch</text>
</g>
<!-- unresolved_CLEAN_CODE_export_diff_semver_signature_as_patch&#45;&gt;cool_ideas_WARP_auto_breaking_change_detection -->
<g id="edge14" class="edge">
<title>unresolved_CLEAN_CODE_export_diff_semver_signature_as_patch&#45;&gt;cool_ideas_WARP_auto_breaking_change_detection</title>
<path fill="none" stroke="#cc3333" stroke-dasharray="5,2" d="M10312.58,-294.86C10272.54,-282.31 10209.87,-262.67 10167.65,-249.44"/>
<polygon fill="#cc3333" stroke="#cc3333" points="10168.32,-247.82 10163.02,-247.99 10167.27,-251.16 10168.32,-247.82"/>
<text xml:space="preserve" text-anchor="middle" x="10261.46" y="-268.65" font-family="Helvetica,sans-Serif" font-size="7.00">blocked_by</text>
</g>
<!-- unresolved_CLEAN_CODE_export_diff_semver_signature_as_patch&#45;&gt;cool_ideas_WARP_semantic_merge_conflict_prediction -->
<g id="edge15" class="edge">
<title>unresolved_CLEAN_CODE_export_diff_semver_signature_as_patch&#45;&gt;cool_ideas_WARP_semantic_merge_conflict_prediction</title>
<path fill="none" stroke="#cc3333" stroke-dasharray="5,2" d="M10281.24,-294.86C10207.05,-282.06 10090.05,-261.86 10013.41,-248.64"/>
<polygon fill="#cc3333" stroke="#cc3333" points="10013.76,-246.92 10008.54,-247.8 10013.17,-250.37 10013.76,-246.92"/>
<text xml:space="preserve" text-anchor="middle" x="10174.04" y="-268.65" font-family="Helvetica,sans-Serif" font-size="7.00">blocked_by</text>
</g>
<!-- leg_v07 -->
<g id="node87" class="node">
<title>leg_v07</title>
<path fill="#ffa07a" stroke="black" stroke-width="2" d="M10587,-320.5C10587,-320.5 10503,-320.5 10503,-320.5 10498.8,-320.5 10494.6,-316.3 10494.6,-312.1 10494.6,-312.1 10494.6,-303.7 10494.6,-303.7 10494.6,-299.5 10498.8,-295.3 10503,-295.3 10503,-295.3 10587,-295.3 10587,-295.3 10591.2,-295.3 10595.4,-299.5 10595.4,-303.7 10595.4,-303.7 10595.4,-312.1 10595.4,-312.1 10595.4,-316.3 10591.2,-320.5 10587,-320.5"/>
<text xml:space="preserve" text-anchor="middle" x="10545" y="-305.38" font-family="Helvetica,sans-Serif" font-size="7.00">v0.7.0</text>
</g>
<!-- leg_bad -->
<g id="node88" class="node">
<title>leg_bad</title>
<path fill="#f6b3b3" stroke="black" stroke-width="2" d="M10587,-247.05C10587,-247.05 10503,-247.05 10503,-247.05 10498.8,-247.05 10494.6,-242.85 10494.6,-238.65 10494.6,-238.65 10494.6,-230.25 10494.6,-230.25 10494.6,-226.05 10498.8,-221.85 10503,-221.85 10503,-221.85 10587,-221.85 10587,-221.85 10591.2,-221.85 10595.4,-226.05 10595.4,-230.25 10595.4,-230.25 10595.4,-238.65 10595.4,-238.65 10595.4,-242.85 10591.2,-247.05 10587,-247.05"/>
<text xml:space="preserve" text-anchor="middle" x="10545" y="-231.92" font-family="Helvetica,sans-Serif" font-size="7.00">bad&#45;code</text>
</g>
<!-- leg_v07&#45;&gt;leg_bad -->
<!-- leg_idea -->
<g id="node89" class="node">
<title>leg_idea</title>
<path fill="#d4e8f7" stroke="black" d="M10587,-173.6C10587,-173.6 10503,-173.6 10503,-173.6 10498.8,-173.6 10494.6,-169.4 10494.6,-165.2 10494.6,-165.2 10494.6,-156.8 10494.6,-156.8 10494.6,-152.6 10498.8,-148.4 10503,-148.4 10503,-148.4 10587,-148.4 10587,-148.4 10591.2,-148.4 10595.4,-152.6 10595.4,-156.8 10595.4,-156.8 10595.4,-165.2 10595.4,-165.2 10595.4,-169.4 10591.2,-173.6 10587,-173.6"/>
<text xml:space="preserve" text-anchor="middle" x="10545" y="-158.47" font-family="Helvetica,sans-Serif" font-size="7.00">cool&#45;ideas</text>
</g>
<!-- leg_bad&#45;&gt;leg_idea -->
<!-- leg_external -->
<g id="node90" class="node">
<title>leg_external</title>
<path fill="#e8f2ff" stroke="black" d="M10587,-107.4C10587,-107.4 10503,-107.4 10503,-107.4 10498.8,-107.4 10494.6,-103.2 10494.6,-99 10494.6,-99 10494.6,-90.6 10494.6,-90.6 10494.6,-86.4 10498.8,-82.2 10503,-82.2 10503,-82.2 10587,-82.2 10587,-82.2 10591.2,-82.2 10595.4,-86.4 10595.4,-90.6 10595.4,-90.6 10595.4,-99 10595.4,-99 10595.4,-103.2 10591.2,-107.4 10587,-107.4"/>
<text xml:space="preserve" text-anchor="middle" x="10545" y="-92.28" font-family="Helvetica,sans-Serif" font-size="7.00">external blocker</text>
</g>
<!-- leg_idea&#45;&gt;leg_external -->
<!-- leg_unresolved -->
<g id="node91" class="node">
<title>leg_unresolved</title>
<path fill="#f2f2f2" stroke="black" stroke-dasharray="5,2" d="M10587,-41.2C10587,-41.2 10503,-41.2 10503,-41.2 10498.8,-41.2 10494.6,-37 10494.6,-32.8 10494.6,-32.8 10494.6,-24.4 10494.6,-24.4 10494.6,-20.2 10498.8,-16 10503,-16 10503,-16 10587,-16 10587,-16 10591.2,-16 10595.4,-20.2 10595.4,-24.4 10595.4,-24.4 10595.4,-32.8 10595.4,-32.8 10595.4,-37 10591.2,-41.2 10587,-41.2"/>
<text xml:space="preserve" text-anchor="middle" x="10545" y="-26.08" font-family="Helvetica,sans-Serif" font-size="7.00">unresolved ref</text>
</g>
<!-- leg_external&#45;&gt;leg_unresolved -->
</g>
</svg>
