<?xml version="1.0" encoding="UTF-8" standalone="no"?>
<!DOCTYPE svg PUBLIC "-//W3C//DTD SVG 1.1//EN"
 "http://www.w3.org/Graphics/SVG/1.1/DTD/svg11.dtd">
<!-- Generated by graphviz version 14.1.2 (20260124.0452)
 -->
<!-- Title: backlog Pages: 1 -->
<svg width="10463pt" height="383pt"
 viewBox="0.00 0.00 10463.00 383.00" xmlns="http://www.w3.org/2000/svg" xmlns:xlink="http://www.w3.org/1999/xlink">
<g id="graph0" class="graph" transform="scale(1 1) rotate(0) translate(4 379)">
<title>backlog</title>
<polygon fill="white" stroke="none" points="-4,4 -4,-379 10459,-379 10459,4 -4,4"/>
<text xml:space="preserve" text-anchor="middle" x="5227.5" y="-359.6" font-family="Helvetica,sans-Serif" font-size="12.00">Active backlog graph generated from docs/method/backlog/*/*.md</text>
<g id="clust1" class="cluster">
<title>cluster_cool_ideas</title>
<path fill="#fafafa" stroke="#cccccc" d="M20,-140.4C20,-140.4 9843,-140.4 9843,-140.4 9849,-140.4 9855,-146.4 9855,-152.4 9855,-152.4 9855,-334.25 9855,-334.25 9855,-340.25 9849,-346.25 9843,-346.25 9843,-346.25 20,-346.25 20,-346.25 14,-346.25 8,-340.25 8,-334.25 8,-334.25 8,-152.4 8,-152.4 8,-146.4 14,-140.4 20,-140.4"/>
<text xml:space="preserve" text-anchor="middle" x="47.5" y="-333.7" font-family="Helvetica,sans-Serif" font-size="9.00" fill="#555555">Cool Ideas (77)</text>
</g>
<g id="clust2" class="cluster">
<title>cluster_external</title>
<path fill="#f8fbff" stroke="#cccccc" d="M9875,-287.3C9875,-287.3 10047,-287.3 10047,-287.3 10053,-287.3 10059,-293.3 10059,-299.3 10059,-299.3 10059,-334.25 10059,-334.25 10059,-340.25 10053,-346.25 10047,-346.25 10047,-346.25 9875,-346.25 9875,-346.25 9869,-346.25 9863,-340.25 9863,-334.25 9863,-334.25 9863,-299.3 9863,-299.3 9863,-293.3 9869,-287.3 9875,-287.3"/>
<text xml:space="preserve" text-anchor="middle" x="9906.25" y="-333.7" font-family="Helvetica,sans-Serif" font-size="9.00" fill="#555555">External blockers</text>
</g>
<g id="clust3" class="cluster">
<title>cluster_unresolved</title>
<path fill="#fff7f7" stroke="#cc3333" stroke-dasharray="5,2" d="M10079,-287.3C10079,-287.3 10311,-287.3 10311,-287.3 10317,-287.3 10323,-293.3 10323,-299.3 10323,-299.3 10323,-334.25 10323,-334.25 10323,-340.25 10317,-346.25 10311,-346.25 10311,-346.25 10079,-346.25 10079,-346.25 10073,-346.25 10067,-340.25 10067,-334.25 10067,-334.25 10067,-299.3 10067,-299.3 10067,-293.3 10073,-287.3 10079,-287.3"/>
<text xml:space="preserve" text-anchor="middle" x="10123.75" y="-333.7" font-family="Helvetica,sans-Serif" font-size="9.00" fill="#555555">Unresolved internal refs</text>
</g>
<g id="clust4" class="cluster">
<title>cluster_legend</title>
<path fill="none" stroke="#dddddd" d="M10343,-8C10343,-8 10435,-8 10435,-8 10441,-8 10447,-14 10447,-20 10447,-20 10447,-333.5 10447,-333.5 10447,-339.5 10441,-345.5 10435,-345.5 10435,-345.5 10343,-345.5 10343,-345.5 10337,-345.5 10331,-339.5 10331,-333.5 10331,-333.5 10331,-20 10331,-20 10331,-14 10337,-8 10343,-8"/>
<text xml:space="preserve" text-anchor="middle" x="10352.5" y="-333.9" font-family="Helvetica,sans-Serif" font-size="8.00" fill="#aaaaaa">Legend</text>
</g>
<!-- cool_ideas_bounded_neighborhood_for_references -->
<g id="node1" class="node">
<title>cool_ideas_bounded_neighborhood_for_references</title>
<path fill="#d4e8f7" stroke="black" d="M173.17,-320.5C173.17,-320.5 24.83,-320.5 24.83,-320.5 20.63,-320.5 16.42,-316.3 16.42,-312.1 16.42,-312.1 16.42,-303.7 16.42,-303.7 16.42,-299.5 20.63,-295.3 24.83,-295.3 24.83,-295.3 173.17,-295.3 173.17,-295.3 177.37,-295.3 181.57,-299.5 181.57,-303.7 181.57,-303.7 181.57,-312.1 181.57,-312.1 181.57,-316.3 177.37,-320.5 173.17,-320.5"/>
<text xml:space="preserve" text-anchor="middle" x="99" y="-304.8" font-family="Helvetica,sans-Serif" font-size="8.00">bounded&#45;neighborhood&#45;for&#45;references &#45; S</text>
</g>
<!-- cool_ideas_CI_001_causal_collapse_visualizer -->
<g id="node2" class="node">
<title>cool_ideas_CI_001_causal_collapse_visualizer</title>
<path fill="#d4e8f7" stroke="black" d="M6633.3,-247.05C6633.3,-247.05 6506.7,-247.05 6506.7,-247.05 6502.5,-247.05 6498.3,-242.85 6498.3,-238.65 6498.3,-238.65 6498.3,-230.25 6498.3,-230.25 6498.3,-226.05 6502.5,-221.85 6506.7,-221.85 6506.7,-221.85 6633.3,-221.85 6633.3,-221.85 6637.5,-221.85 6641.7,-226.05 6641.7,-230.25 6641.7,-230.25 6641.7,-238.65 6641.7,-238.65 6641.7,-242.85 6637.5,-247.05 6633.3,-247.05"/>
<text xml:space="preserve" text-anchor="middle" x="6570" y="-231.35" font-family="Helvetica,sans-Serif" font-size="8.00">CI&#45;001&#45;causal&#45;collapse&#45;visualizer &#45; L</text>
</g>
<!-- cool_ideas_CI_002_deterministic_scenario_replay -->
<g id="node3" class="node">
<title>cool_ideas_CI_002_deterministic_scenario_replay</title>
<path fill="#d4e8f7" stroke="black" d="M343.67,-320.5C343.67,-320.5 204.33,-320.5 204.33,-320.5 200.13,-320.5 195.93,-316.3 195.93,-312.1 195.93,-312.1 195.93,-303.7 195.93,-303.7 195.93,-299.5 200.13,-295.3 204.33,-295.3 204.33,-295.3 343.67,-295.3 343.67,-295.3 347.88,-295.3 352.07,-299.5 352.07,-303.7 352.07,-303.7 352.07,-312.1 352.07,-312.1 352.07,-316.3 347.88,-320.5 343.67,-320.5"/>
<text xml:space="preserve" text-anchor="middle" x="274" y="-304.8" font-family="Helvetica,sans-Serif" font-size="8.00">CI&#45;002&#45;deterministic&#45;scenario&#45;replay &#45; L</text>
</g>
<!-- cool_ideas_CI_003_mcp_native_diff_protocol -->
<g id="node4" class="node">
<title>cool_ideas_CI_003_mcp_native_diff_protocol</title>
<path fill="#d4e8f7" stroke="black" d="M497.8,-320.5C497.8,-320.5 374.2,-320.5 374.2,-320.5 370,-320.5 365.8,-316.3 365.8,-312.1 365.8,-312.1 365.8,-303.7 365.8,-303.7 365.8,-299.5 370,-295.3 374.2,-295.3 374.2,-295.3 497.8,-295.3 497.8,-295.3 502,-295.3 506.2,-299.5 506.2,-303.7 506.2,-303.7 506.2,-312.1 506.2,-312.1 506.2,-316.3 502,-320.5 497.8,-320.5"/>
<text xml:space="preserve" text-anchor="middle" x="436" y="-304.8" font-family="Helvetica,sans-Serif" font-size="8.00">CI&#45;003&#45;mcp&#45;native&#45;diff&#45;protocol &#45; M</text>
</g>
<!-- cool_ideas_CLEAN_CODE_parallel_agent_merge_shared_file_loss -->
<g id="node5" class="node">
<title>cool_ideas_CLEAN_CODE_parallel_agent_merge_shared_file_loss</title>
<path fill="#d4e8f7" stroke="black" d="M729.05,-320.5C729.05,-320.5 528.95,-320.5 528.95,-320.5 524.75,-320.5 520.55,-316.3 520.55,-312.1 520.55,-312.1 520.55,-303.7 520.55,-303.7 520.55,-299.5 524.75,-295.3 528.95,-295.3 528.95,-295.3 729.05,-295.3 729.05,-295.3 733.25,-295.3 737.45,-299.5 737.45,-303.7 737.45,-303.7 737.45,-312.1 737.45,-312.1 737.45,-316.3 733.25,-320.5 729.05,-320.5"/>
<text xml:space="preserve" text-anchor="middle" x="629" y="-304.8" font-family="Helvetica,sans-Serif" font-size="8.00">CLEAN&#45;CODE&#45;parallel&#45;agent&#45;merge&#45;shared&#45;file&#45;loss &#45; M</text>
</g>
<!-- cool_ideas_CORE_agent_handoff_protocol -->
<g id="node6" class="node">
<title>cool_ideas_CORE_agent_handoff_protocol</title>
<path fill="#d4e8f7" stroke="black" d="M879.93,-320.5C879.93,-320.5 760.07,-320.5 760.07,-320.5 755.88,-320.5 751.67,-316.3 751.67,-312.1 751.67,-312.1 751.67,-303.7 751.67,-303.7 751.67,-299.5 755.88,-295.3 760.07,-295.3 760.07,-295.3 879.93,-295.3 879.93,-295.3 884.12,-295.3 888.33,-299.5 888.33,-303.7 888.33,-303.7 888.33,-312.1 888.33,-312.1 888.33,-316.3 884.12,-320.5 879.93,-320.5"/>
<text xml:space="preserve" text-anchor="middle" x="820" y="-304.8" font-family="Helvetica,sans-Serif" font-size="8.00">CORE&#45;agent&#45;handoff&#45;protocol &#45; M</text>
</g>
<!-- cool_ideas_CORE_auto_focus -->
<g id="node7" class="node">
<title>cool_ideas_CORE_auto_focus</title>
<path fill="#d4e8f7" stroke="black" d="M983.68,-320.5C983.68,-320.5 910.32,-320.5 910.32,-320.5 906.12,-320.5 901.92,-316.3 901.92,-312.1 901.92,-312.1 901.92,-303.7 901.92,-303.7 901.92,-299.5 906.12,-295.3 910.32,-295.3 910.32,-295.3 983.68,-295.3 983.68,-295.3 987.88,-295.3 992.08,-299.5 992.08,-303.7 992.08,-303.7 992.08,-312.1 992.08,-312.1 992.08,-316.3 987.88,-320.5 983.68,-320.5"/>
<text xml:space="preserve" text-anchor="middle" x="947" y="-304.8" font-family="Helvetica,sans-Serif" font-size="8.00">CORE&#45;auto&#45;focus &#45; L</text>
</g>
<!-- cool_ideas_CORE_capture_range -->
<g id="node8" class="node">
<title>cool_ideas_CORE_capture_range</title>
<path fill="#d4e8f7" stroke="black" d="M1101.8,-320.5C1101.8,-320.5 1014.2,-320.5 1014.2,-320.5 1010,-320.5 1005.8,-316.3 1005.8,-312.1 1005.8,-312.1 1005.8,-303.7 1005.8,-303.7 1005.8,-299.5 1010,-295.3 1014.2,-295.3 1014.2,-295.3 1101.8,-295.3 1101.8,-295.3 1106,-295.3 1110.2,-299.5 1110.2,-303.7 1110.2,-303.7 1110.2,-312.1 1110.2,-312.1 1110.2,-316.3 1106,-320.5 1101.8,-320.5"/>
<text xml:space="preserve" text-anchor="middle" x="1058" y="-304.8" font-family="Helvetica,sans-Serif" font-size="8.00">CORE&#45;capture&#45;range &#45; S</text>
</g>
<!-- cool_ideas_CORE_constructor_in_disguise_lint -->
<g id="node9" class="node">
<title>cool_ideas_CORE_constructor_in_disguise_lint</title>
<path fill="#d4e8f7" stroke="black" d="M1263.55,-320.5C1263.55,-320.5 1132.45,-320.5 1132.45,-320.5 1128.25,-320.5 1124.05,-316.3 1124.05,-312.1 1124.05,-312.1 1124.05,-303.7 1124.05,-303.7 1124.05,-299.5 1128.25,-295.3 1132.45,-295.3 1132.45,-295.3 1263.55,-295.3 1263.55,-295.3 1267.75,-295.3 1271.95,-299.5 1271.95,-303.7 1271.95,-303.7 1271.95,-312.1 1271.95,-312.1 1271.95,-316.3 1267.75,-320.5 1263.55,-320.5"/>
<text xml:space="preserve" text-anchor="middle" x="1198" y="-304.8" font-family="Helvetica,sans-Serif" font-size="8.00">CORE&#45;constructor&#45;in&#45;disguise&#45;lint &#45; M</text>
</g>
<!-- cool_ideas_CORE_context_budget_forecasting -->
<g id="node10" class="node">
<title>cool_ideas_CORE_context_budget_forecasting</title>
<path fill="#d4e8f7" stroke="black" d="M1427.67,-320.5C1427.67,-320.5 1294.33,-320.5 1294.33,-320.5 1290.12,-320.5 1285.92,-316.3 1285.92,-312.1 1285.92,-312.1 1285.92,-303.7 1285.92,-303.7 1285.92,-299.5 1290.12,-295.3 1294.33,-295.3 1294.33,-295.3 1427.67,-295.3 1427.67,-295.3 1431.88,-295.3 1436.08,-299.5 1436.08,-303.7 1436.08,-303.7 1436.08,-312.1 1436.08,-312.1 1436.08,-316.3 1431.88,-320.5 1427.67,-320.5"/>
<text xml:space="preserve" text-anchor="middle" x="1361" y="-304.8" font-family="Helvetica,sans-Serif" font-size="8.00">CORE&#45;context&#45;budget&#45;forecasting &#45; M</text>
</g>
<!-- cool_ideas_CORE_conversation_primer -->
<g id="node11" class="node">
<title>cool_ideas_CORE_conversation_primer</title>
<path fill="#d4e8f7" stroke="black" d="M1567.67,-320.5C1567.67,-320.5 1458.33,-320.5 1458.33,-320.5 1454.12,-320.5 1449.92,-316.3 1449.92,-312.1 1449.92,-312.1 1449.92,-303.7 1449.92,-303.7 1449.92,-299.5 1454.12,-295.3 1458.33,-295.3 1458.33,-295.3 1567.67,-295.3 1567.67,-295.3 1571.88,-295.3 1576.08,-299.5 1576.08,-303.7 1576.08,-303.7 1576.08,-312.1 1576.08,-312.1 1576.08,-316.3 1571.88,-320.5 1567.67,-320.5"/>
<text xml:space="preserve" text-anchor="middle" x="1513" y="-304.8" font-family="Helvetica,sans-Serif" font-size="8.00">CORE&#45;conversation&#45;primer &#45; M</text>
</g>
<!-- cool_ideas_CORE_cross_session_resume -->
<g id="node12" class="node">
<title>cool_ideas_CORE_cross_session_resume</title>
<path fill="#d4e8f7" stroke="black" d="M1713.3,-320.5C1713.3,-320.5 1598.7,-320.5 1598.7,-320.5 1594.5,-320.5 1590.3,-316.3 1590.3,-312.1 1590.3,-312.1 1590.3,-303.7 1590.3,-303.7 1590.3,-299.5 1594.5,-295.3 1598.7,-295.3 1598.7,-295.3 1713.3,-295.3 1713.3,-295.3 1717.5,-295.3 1721.7,-299.5 1721.7,-303.7 1721.7,-303.7 1721.7,-312.1 1721.7,-312.1 1721.7,-316.3 1717.5,-320.5 1713.3,-320.5"/>
<text xml:space="preserve" text-anchor="middle" x="1656" y="-304.8" font-family="Helvetica,sans-Serif" font-size="8.00">CORE&#45;cross&#45;session&#45;resume &#45; S</text>
</g>
<!-- cool_ideas_CORE_graft_as_teacher -->
<g id="node13" class="node">
<title>cool_ideas_CORE_graft_as_teacher</title>
<path fill="#d4e8f7" stroke="black" d="M1838.17,-320.5C1838.17,-320.5 1743.83,-320.5 1743.83,-320.5 1739.62,-320.5 1735.42,-316.3 1735.42,-312.1 1735.42,-312.1 1735.42,-303.7 1735.42,-303.7 1735.42,-299.5 1739.62,-295.3 1743.83,-295.3 1743.83,-295.3 1838.17,-295.3 1838.17,-295.3 1842.38,-295.3 1846.58,-299.5 1846.58,-303.7 1846.58,-303.7 1846.58,-312.1 1846.58,-312.1 1846.58,-316.3 1842.38,-320.5 1838.17,-320.5"/>
<text xml:space="preserve" text-anchor="middle" x="1791" y="-304.8" font-family="Helvetica,sans-Serif" font-size="8.00">CORE&#45;graft&#45;as&#45;teacher &#45; S</text>
</g>
<!-- cool_ideas_CORE_graft_teach_learning_receipts -->
<g id="node14" class="node">
<title>cool_ideas_CORE_graft_teach_learning_receipts</title>
<path fill="#d4e8f7" stroke="black" d="M2006.92,-320.5C2006.92,-320.5 1869.08,-320.5 1869.08,-320.5 1864.88,-320.5 1860.67,-316.3 1860.67,-312.1 1860.67,-312.1 1860.67,-303.7 1860.67,-303.7 1860.67,-299.5 1864.88,-295.3 1869.08,-295.3 1869.08,-295.3 2006.92,-295.3 2006.92,-295.3 2011.12,-295.3 2015.33,-299.5 2015.33,-303.7 2015.33,-303.7 2015.33,-312.1 2015.33,-312.1 2015.33,-316.3 2011.12,-320.5 2006.92,-320.5"/>
<text xml:space="preserve" text-anchor="middle" x="1938" y="-304.8" font-family="Helvetica,sans-Serif" font-size="8.00">CORE&#45;graft&#45;teach&#45;learning&#45;receipts &#45; S</text>
</g>
<!-- cool_ideas_CORE_horizon_of_readability -->
<g id="node15" class="node">
<title>cool_ideas_CORE_horizon_of_readability</title>
<path fill="#d4e8f7" stroke="black" d="M2150.55,-320.5C2150.55,-320.5 2037.45,-320.5 2037.45,-320.5 2033.25,-320.5 2029.05,-316.3 2029.05,-312.1 2029.05,-312.1 2029.05,-303.7 2029.05,-303.7 2029.05,-299.5 2033.25,-295.3 2037.45,-295.3 2037.45,-295.3 2150.55,-295.3 2150.55,-295.3 2154.75,-295.3 2158.95,-299.5 2158.95,-303.7 2158.95,-303.7 2158.95,-312.1 2158.95,-312.1 2158.95,-316.3 2154.75,-320.5 2150.55,-320.5"/>
<text xml:space="preserve" text-anchor="middle" x="2094" y="-304.8" font-family="Helvetica,sans-Serif" font-size="8.00">CORE&#45;horizon&#45;of&#45;readability &#45; M</text>
</g>
<!-- cool_ideas_CORE_lagrangian_policy -->
<g id="node16" class="node">
<title>cool_ideas_CORE_lagrangian_policy</title>
<path fill="#d4e8f7" stroke="black" d="M2282.55,-320.5C2282.55,-320.5 2181.45,-320.5 2181.45,-320.5 2177.25,-320.5 2173.05,-316.3 2173.05,-312.1 2173.05,-312.1 2173.05,-303.7 2173.05,-303.7 2173.05,-299.5 2177.25,-295.3 2181.45,-295.3 2181.45,-295.3 2282.55,-295.3 2282.55,-295.3 2286.75,-295.3 2290.95,-299.5 2290.95,-303.7 2290.95,-303.7 2290.95,-312.1 2290.95,-312.1 2290.95,-316.3 2286.75,-320.5 2282.55,-320.5"/>
<text xml:space="preserve" text-anchor="middle" x="2232" y="-304.8" font-family="Helvetica,sans-Serif" font-size="8.00">CORE&#45;lagrangian&#45;policy &#45; XL</text>
</g>
<!-- cool_ideas_CORE_migrate_to_slice_first_reads -->
<g id="node17" class="node">
<title>cool_ideas_CORE_migrate_to_slice_first_reads</title>
<path fill="#d4e8f7" stroke="black" d="M9466.8,-247.05C9466.8,-247.05 9349.2,-247.05 9349.2,-247.05 9345,-247.05 9340.8,-242.85 9340.8,-238.65 9340.8,-238.65 9340.8,-230.25 9340.8,-230.25 9340.8,-226.05 9345,-221.85 9349.2,-221.85 9349.2,-221.85 9466.8,-221.85 9466.8,-221.85 9471,-221.85 9475.2,-226.05 9475.2,-230.25 9475.2,-230.25 9475.2,-238.65 9475.2,-238.65 9475.2,-242.85 9471,-247.05 9466.8,-247.05"/>
<text xml:space="preserve" text-anchor="middle" x="9408" y="-231.35" font-family="Helvetica,sans-Serif" font-size="8.00">CORE&#45;migrate&#45;to&#45;slice&#45;first&#45;reads</text>
</g>
<!-- cool_ideas_CORE_multi_agent_conflict_detection -->
<g id="node18" class="node">
<title>cool_ideas_CORE_multi_agent_conflict_detection</title>
<path fill="#d4e8f7" stroke="black" d="M2450.92,-320.5C2450.92,-320.5 2313.08,-320.5 2313.08,-320.5 2308.88,-320.5 2304.68,-316.3 2304.68,-312.1 2304.68,-312.1 2304.68,-303.7 2304.68,-303.7 2304.68,-299.5 2308.88,-295.3 2313.08,-295.3 2313.08,-295.3 2450.92,-295.3 2450.92,-295.3 2455.12,-295.3 2459.32,-299.5 2459.32,-303.7 2459.32,-303.7 2459.32,-312.1 2459.32,-312.1 2459.32,-316.3 2455.12,-320.5 2450.92,-320.5"/>
<text xml:space="preserve" text-anchor="middle" x="2382" y="-304.8" font-family="Helvetica,sans-Serif" font-size="8.00">CORE&#45;multi&#45;agent&#45;conflict&#45;detection &#45; L</text>
</g>
<!-- cool_ideas_CORE_policy_playground -->
<g id="node19" class="node">
<title>cool_ideas_CORE_policy_playground</title>
<path fill="#d4e8f7" stroke="black" d="M2580.42,-320.5C2580.42,-320.5 2481.58,-320.5 2481.58,-320.5 2477.38,-320.5 2473.18,-316.3 2473.18,-312.1 2473.18,-312.1 2473.18,-303.7 2473.18,-303.7 2473.18,-299.5 2477.38,-295.3 2481.58,-295.3 2481.58,-295.3 2580.42,-295.3 2580.42,-295.3 2584.62,-295.3 2588.82,-299.5 2588.82,-303.7 2588.82,-303.7 2588.82,-312.1 2588.82,-312.1 2588.82,-316.3 2584.62,-320.5 2580.42,-320.5"/>
<text xml:space="preserve" text-anchor="middle" x="2531" y="-304.8" font-family="Helvetica,sans-Serif" font-size="8.00">CORE&#45;policy&#45;playground &#45; S</text>
</g>
<!-- cool_ideas_CORE_policy_profiles -->
<g id="node20" class="node">
<title>cool_ideas_CORE_policy_profiles</title>
<path fill="#d4e8f7" stroke="black" d="M2697.05,-320.5C2697.05,-320.5 2610.95,-320.5 2610.95,-320.5 2606.75,-320.5 2602.55,-316.3 2602.55,-312.1 2602.55,-312.1 2602.55,-303.7 2602.55,-303.7 2602.55,-299.5 2606.75,-295.3 2610.95,-295.3 2610.95,-295.3 2697.05,-295.3 2697.05,-295.3 2701.25,-295.3 2705.45,-299.5 2705.45,-303.7 2705.45,-303.7 2705.45,-312.1 2705.45,-312.1 2705.45,-316.3 2701.25,-320.5 2697.05,-320.5"/>
<text xml:space="preserve" text-anchor="middle" x="2654" y="-304.8" font-family="Helvetica,sans-Serif" font-size="8.00">CORE&#45;policy&#45;profiles &#45; M</text>
</g>
<!-- cool_ideas_CORE_pr_review_structural_summary -->
<g id="node21" class="node">
<title>cool_ideas_CORE_pr_review_structural_summary</title>
<path fill="#d4e8f7" stroke="black" d="M2871.92,-320.5C2871.92,-320.5 2728.08,-320.5 2728.08,-320.5 2723.88,-320.5 2719.68,-316.3 2719.68,-312.1 2719.68,-312.1 2719.68,-303.7 2719.68,-303.7 2719.68,-299.5 2723.88,-295.3 2728.08,-295.3 2728.08,-295.3 2871.92,-295.3 2871.92,-295.3 2876.12,-295.3 2880.32,-299.5 2880.32,-303.7 2880.32,-303.7 2880.32,-312.1 2880.32,-312.1 2880.32,-316.3 2876.12,-320.5 2871.92,-320.5"/>
<text xml:space="preserve" text-anchor="middle" x="2800" y="-304.8" font-family="Helvetica,sans-Serif" font-size="8.00">CORE&#45;pr&#45;review&#45;structural&#45;summary &#45; M</text>
</g>
<!-- cool_ideas_CORE_self_tuning_governor -->
<g id="node22" class="node">
<title>cool_ideas_CORE_self_tuning_governor</title>
<path fill="#d4e8f7" stroke="black" d="M3013.05,-320.5C3013.05,-320.5 2902.95,-320.5 2902.95,-320.5 2898.75,-320.5 2894.55,-316.3 2894.55,-312.1 2894.55,-312.1 2894.55,-303.7 2894.55,-303.7 2894.55,-299.5 2898.75,-295.3 2902.95,-295.3 2902.95,-295.3 3013.05,-295.3 3013.05,-295.3 3017.25,-295.3 3021.45,-299.5 3021.45,-303.7 3021.45,-303.7 3021.45,-312.1 3021.45,-312.1 3021.45,-316.3 3017.25,-320.5 3013.05,-320.5"/>
<text xml:space="preserve" text-anchor="middle" x="2958" y="-304.8" font-family="Helvetica,sans-Serif" font-size="8.00">CORE&#45;self&#45;tuning&#45;governor &#45; M</text>
</g>
<!-- cool_ideas_CORE_session_knowledge_map -->
<g id="node23" class="node">
<title>cool_ideas_CORE_session_knowledge_map</title>
<path fill="#d4e8f7" stroke="black" d="M3166.42,-320.5C3166.42,-320.5 3043.58,-320.5 3043.58,-320.5 3039.38,-320.5 3035.18,-316.3 3035.18,-312.1 3035.18,-312.1 3035.18,-303.7 3035.18,-303.7 3035.18,-299.5 3039.38,-295.3 3043.58,-295.3 3043.58,-295.3 3166.42,-295.3 3166.42,-295.3 3170.62,-295.3 3174.82,-299.5 3174.82,-303.7 3174.82,-303.7 3174.82,-312.1 3174.82,-312.1 3174.82,-316.3 3170.62,-320.5 3166.42,-320.5"/>
<text xml:space="preserve" text-anchor="middle" x="3105" y="-304.8" font-family="Helvetica,sans-Serif" font-size="8.00">CORE&#45;session&#45;knowledge&#45;map &#45; S</text>
</g>
<!-- cool_ideas_CORE_speculative_read_cost -->
<g id="node24" class="node">
<title>cool_ideas_CORE_speculative_read_cost</title>
<path fill="#d4e8f7" stroke="black" d="M3309.17,-320.5C3309.17,-320.5 3196.83,-320.5 3196.83,-320.5 3192.62,-320.5 3188.43,-316.3 3188.43,-312.1 3188.43,-312.1 3188.43,-303.7 3188.43,-303.7 3188.43,-299.5 3192.62,-295.3 3196.83,-295.3 3196.83,-295.3 3309.17,-295.3 3309.17,-295.3 3313.38,-295.3 3317.57,-299.5 3317.57,-303.7 3317.57,-303.7 3317.57,-312.1 3317.57,-312.1 3317.57,-316.3 3313.38,-320.5 3309.17,-320.5"/>
<text xml:space="preserve" text-anchor="middle" x="3253" y="-304.8" font-family="Helvetica,sans-Serif" font-size="8.00">CORE&#45;speculative&#45;read&#45;cost &#45; S</text>
</g>
<!-- cool_ideas_CORE_structural_session_replay -->
<g id="node25" class="node">
<title>cool_ideas_CORE_structural_session_replay</title>
<path fill="#d4e8f7" stroke="black" d="M3465.55,-320.5C3465.55,-320.5 3340.45,-320.5 3340.45,-320.5 3336.25,-320.5 3332.05,-316.3 3332.05,-312.1 3332.05,-312.1 3332.05,-303.7 3332.05,-303.7 3332.05,-299.5 3336.25,-295.3 3340.45,-295.3 3340.45,-295.3 3465.55,-295.3 3465.55,-295.3 3469.75,-295.3 3473.95,-299.5 3473.95,-303.7 3473.95,-303.7 3473.95,-312.1 3473.95,-312.1 3473.95,-316.3 3469.75,-320.5 3465.55,-320.5"/>
<text xml:space="preserve" text-anchor="middle" x="3403" y="-304.8" font-family="Helvetica,sans-Serif" font-size="8.00">CORE&#45;structural&#45;session&#45;replay &#45; M</text>
</g>
<!-- cool_ideas_CORE_structural_test_coverage_map -->
<g id="node26" class="node">
<title>cool_ideas_CORE_structural_test_coverage_map</title>
<path fill="#d4e8f7" stroke="black" d="M3637.8,-320.5C3637.8,-320.5 3496.2,-320.5 3496.2,-320.5 3492,-320.5 3487.8,-316.3 3487.8,-312.1 3487.8,-312.1 3487.8,-303.7 3487.8,-303.7 3487.8,-299.5 3492,-295.3 3496.2,-295.3 3496.2,-295.3 3637.8,-295.3 3637.8,-295.3 3642,-295.3 3646.2,-299.5 3646.2,-303.7 3646.2,-303.7 3646.2,-312.1 3646.2,-312.1 3646.2,-316.3 3642,-320.5 3637.8,-320.5"/>
<text xml:space="preserve" text-anchor="middle" x="3567" y="-304.8" font-family="Helvetica,sans-Serif" font-size="8.00">CORE&#45;structural&#45;test&#45;coverage&#45;map &#45; M</text>
</g>
<!-- cool_ideas_CORE_wire_primitives_into_runtime -->
<g id="node27" class="node">
<title>cool_ideas_CORE_wire_primitives_into_runtime</title>
<path fill="#d4e8f7" stroke="black" d="M3803.42,-320.5C3803.42,-320.5 3668.58,-320.5 3668.58,-320.5 3664.38,-320.5 3660.18,-316.3 3660.18,-312.1 3660.18,-312.1 3660.18,-303.7 3660.18,-303.7 3660.18,-299.5 3664.38,-295.3 3668.58,-295.3 3668.58,-295.3 3803.42,-295.3 3803.42,-295.3 3807.62,-295.3 3811.82,-299.5 3811.82,-303.7 3811.82,-303.7 3811.82,-312.1 3811.82,-312.1 3811.82,-316.3 3807.62,-320.5 3803.42,-320.5"/>
<text xml:space="preserve" text-anchor="middle" x="3736" y="-304.8" font-family="Helvetica,sans-Serif" font-size="8.00">CORE&#45;wire&#45;primitives&#45;into&#45;runtime &#45; M</text>
</g>
<!-- cool_ideas_monitor_tick_ceiling_tracking -->
<g id="node28" class="node">
<title>cool_ideas_monitor_tick_ceiling_tracking</title>
<path fill="#d4e8f7" stroke="black" d="M3941.55,-320.5C3941.55,-320.5 3834.45,-320.5 3834.45,-320.5 3830.25,-320.5 3826.05,-316.3 3826.05,-312.1 3826.05,-312.1 3826.05,-303.7 3826.05,-303.7 3826.05,-299.5 3830.25,-295.3 3834.45,-295.3 3834.45,-295.3 3941.55,-295.3 3941.55,-295.3 3945.75,-295.3 3949.95,-299.5 3949.95,-303.7 3949.95,-303.7 3949.95,-312.1 3949.95,-312.1 3949.95,-316.3 3945.75,-320.5 3941.55,-320.5"/>
<text xml:space="preserve" text-anchor="middle" x="3888" y="-304.8" font-family="Helvetica,sans-Serif" font-size="8.00">monitor&#45;tick&#45;ceiling&#45;tracking &#45; S</text>
</g>
<!-- cool_ideas_WARP_background_indexing -->
<g id="node44" class="node">
<title>cool_ideas_WARP_background_indexing</title>
<path fill="#d4e8f7" stroke="black" d="M3944.55,-247.05C3944.55,-247.05 3831.45,-247.05 3831.45,-247.05 3827.25,-247.05 3823.05,-242.85 3823.05,-238.65 3823.05,-238.65 3823.05,-230.25 3823.05,-230.25 3823.05,-226.05 3827.25,-221.85 3831.45,-221.85 3831.45,-221.85 3944.55,-221.85 3944.55,-221.85 3948.75,-221.85 3952.95,-226.05 3952.95,-230.25 3952.95,-230.25 3952.95,-238.65 3952.95,-238.65 3952.95,-242.85 3948.75,-247.05 3944.55,-247.05"/>
<text xml:space="preserve" text-anchor="middle" x="3888" y="-231.35" font-family="Helvetica,sans-Serif" font-size="8.00">WARP&#45;background&#45;indexing &#45; M</text>
</g>
<!-- cool_ideas_monitor_tick_ceiling_tracking&#45;&gt;cool_ideas_WARP_background_indexing -->
<g id="edge1" class="edge">
<title>cool_ideas_monitor_tick_ceiling_tracking&#45;&gt;cool_ideas_WARP_background_indexing</title>
<path fill="none" stroke="#666666" d="M3888,-295.1C3888,-283.9 3888,-266.88 3888,-253.88"/>
<polygon fill="#666666" stroke="#666666" points="3889.75,-254.02 3888,-249.02 3886.25,-254.02 3889.75,-254.02"/>
<text xml:space="preserve" text-anchor="middle" x="3919.5" y="-268.65" font-family="Helvetica,sans-Serif" font-size="7.00">blocked_by/blocking</text>
</g>
<!-- cool_ideas_SURFACE_active_causal_workspace_status -->
<g id="node29" class="node">
<title>cool_ideas_SURFACE_active_causal_workspace_status</title>
<path fill="#d4e8f7" stroke="black" d="M4136.05,-320.5C4136.05,-320.5 3971.95,-320.5 3971.95,-320.5 3967.75,-320.5 3963.55,-316.3 3963.55,-312.1 3963.55,-312.1 3963.55,-303.7 3963.55,-303.7 3963.55,-299.5 3967.75,-295.3 3971.95,-295.3 3971.95,-295.3 4136.05,-295.3 4136.05,-295.3 4140.25,-295.3 4144.45,-299.5 4144.45,-303.7 4144.45,-303.7 4144.45,-312.1 4144.45,-312.1 4144.45,-316.3 4140.25,-320.5 4136.05,-320.5"/>
<text xml:space="preserve" text-anchor="middle" x="4054" y="-304.8" font-family="Helvetica,sans-Serif" font-size="8.00">SURFACE&#45;active&#45;causal&#45;workspace&#45;status &#45; M</text>
</g>
<!-- cool_ideas_SURFACE_ide_native_graft_integration -->
<g id="node35" class="node">
<title>cool_ideas_SURFACE_ide_native_graft_integration</title>
<path fill="#d4e8f7" stroke="black" d="M4129.3,-247.05C4129.3,-247.05 3978.7,-247.05 3978.7,-247.05 3974.5,-247.05 3970.3,-242.85 3970.3,-238.65 3970.3,-238.65 3970.3,-230.25 3970.3,-230.25 3970.3,-226.05 3974.5,-221.85 3978.7,-221.85 3978.7,-221.85 4129.3,-221.85 4129.3,-221.85 4133.5,-221.85 4137.7,-226.05 4137.7,-230.25 4137.7,-230.25 4137.7,-238.65 4137.7,-238.65 4137.7,-242.85 4133.5,-247.05 4129.3,-247.05"/>
<text xml:space="preserve" text-anchor="middle" x="4054" y="-231.35" font-family="Helvetica,sans-Serif" font-size="8.00">SURFACE&#45;ide&#45;native&#45;graft&#45;integration &#45; XL</text>
</g>
<!-- cool_ideas_SURFACE_active_causal_workspace_status&#45;&gt;cool_ideas_SURFACE_ide_native_graft_integration -->
<g id="edge2" class="edge">
<title>cool_ideas_SURFACE_active_causal_workspace_status&#45;&gt;cool_ideas_SURFACE_ide_native_graft_integration</title>
<path fill="none" stroke="#666666" d="M4054,-295.1C4054,-283.9 4054,-266.88 4054,-253.88"/>
<polygon fill="#666666" stroke="#666666" points="4055.75,-254.02 4054,-249.02 4052.25,-254.02 4055.75,-254.02"/>
<text xml:space="preserve" text-anchor="middle" x="4085.5" y="-268.65" font-family="Helvetica,sans-Serif" font-size="7.00">blocked_by/blocking</text>
</g>
<!-- cool_ideas_SURFACE_attach_to_existing_causal_session -->
<g id="node30" class="node">
<title>cool_ideas_SURFACE_attach_to_existing_causal_session</title>
<path fill="#d4e8f7" stroke="black" d="M4335.3,-320.5C4335.3,-320.5 4166.7,-320.5 4166.7,-320.5 4162.5,-320.5 4158.3,-316.3 4158.3,-312.1 4158.3,-312.1 4158.3,-303.7 4158.3,-303.7 4158.3,-299.5 4162.5,-295.3 4166.7,-295.3 4166.7,-295.3 4335.3,-295.3 4335.3,-295.3 4339.5,-295.3 4343.7,-299.5 4343.7,-303.7 4343.7,-303.7 4343.7,-312.1 4343.7,-312.1 4343.7,-316.3 4339.5,-320.5 4335.3,-320.5"/>
<text xml:space="preserve" text-anchor="middle" x="4251" y="-304.8" font-family="Helvetica,sans-Serif" font-size="8.00">SURFACE&#45;attach&#45;to&#45;existing&#45;causal&#45;session &#45; M</text>
</g>
<!-- cool_ideas_SURFACE_bijou_daemon_control_plane_actions -->
<g id="node31" class="node">
<title>cool_ideas_SURFACE_bijou_daemon_control_plane_actions</title>
<path fill="#d4e8f7" stroke="black" d="M4543.43,-320.5C4543.43,-320.5 4366.57,-320.5 4366.57,-320.5 4362.38,-320.5 4358.18,-316.3 4358.18,-312.1 4358.18,-312.1 4358.18,-303.7 4358.18,-303.7 4358.18,-299.5 4362.38,-295.3 4366.57,-295.3 4366.57,-295.3 4543.43,-295.3 4543.43,-295.3 4547.62,-295.3 4551.82,-299.5 4551.82,-303.7 4551.82,-303.7 4551.82,-312.1 4551.82,-312.1 4551.82,-316.3 4547.62,-320.5 4543.43,-320.5"/>
<text xml:space="preserve" text-anchor="middle" x="4455" y="-304.8" font-family="Helvetica,sans-Serif" font-size="8.00">SURFACE&#45;bijou&#45;daemon&#45;control&#45;plane&#45;actions &#45; L</text>
</g>
<!-- cool_ideas_SURFACE_bijou_daemon_status_live_refresh -->
<g id="node32" class="node">
<title>cool_ideas_SURFACE_bijou_daemon_status_live_refresh</title>
<path fill="#d4e8f7" stroke="black" d="M4743.3,-320.5C4743.3,-320.5 4574.7,-320.5 4574.7,-320.5 4570.5,-320.5 4566.3,-316.3 4566.3,-312.1 4566.3,-312.1 4566.3,-303.7 4566.3,-303.7 4566.3,-299.5 4570.5,-295.3 4574.7,-295.3 4574.7,-295.3 4743.3,-295.3 4743.3,-295.3 4747.5,-295.3 4751.7,-299.5 4751.7,-303.7 4751.7,-303.7 4751.7,-312.1 4751.7,-312.1 4751.7,-316.3 4747.5,-320.5 4743.3,-320.5"/>
<text xml:space="preserve" text-anchor="middle" x="4659" y="-304.8" font-family="Helvetica,sans-Serif" font-size="8.00">SURFACE&#45;bijou&#45;daemon&#45;status&#45;live&#45;refresh &#45; M</text>
</g>
<!-- cool_ideas_SURFACE_git_graft_enhance_expanded_git_subcommands -->
<g id="node33" class="node">
<title>cool_ideas_SURFACE_git_graft_enhance_expanded_git_subcommands</title>
<path fill="#d4e8f7" stroke="black" d="M4978.3,-320.5C4978.3,-320.5 4773.7,-320.5 4773.7,-320.5 4769.5,-320.5 4765.3,-316.3 4765.3,-312.1 4765.3,-312.1 4765.3,-303.7 4765.3,-303.7 4765.3,-299.5 4769.5,-295.3 4773.7,-295.3 4773.7,-295.3 4978.3,-295.3 4978.3,-295.3 4982.5,-295.3 4986.7,-299.5 4986.7,-303.7 4986.7,-303.7 4986.7,-312.1 4986.7,-312.1 4986.7,-316.3 4982.5,-320.5 4978.3,-320.5"/>
<text xml:space="preserve" text-anchor="middle" x="4876" y="-304.8" font-family="Helvetica,sans-Serif" font-size="8.00">SURFACE&#45;git&#45;graft&#45;enhance&#45;expanded&#45;git&#45;subcommands</text>
</g>
<!-- cool_ideas_SURFACE_git_graft_enhance_provenance_hints -->
<g id="node34" class="node">
<title>cool_ideas_SURFACE_git_graft_enhance_provenance_hints</title>
<path fill="#d4e8f7" stroke="black" d="M5174.43,-320.5C5174.43,-320.5 5009.57,-320.5 5009.57,-320.5 5005.38,-320.5 5001.18,-316.3 5001.18,-312.1 5001.18,-312.1 5001.18,-303.7 5001.18,-303.7 5001.18,-299.5 5005.38,-295.3 5009.57,-295.3 5009.57,-295.3 5174.43,-295.3 5174.43,-295.3 5178.62,-295.3 5182.82,-299.5 5182.82,-303.7 5182.82,-303.7 5182.82,-312.1 5182.82,-312.1 5182.82,-316.3 5178.62,-320.5 5174.43,-320.5"/>
<text xml:space="preserve" text-anchor="middle" x="5092" y="-304.8" font-family="Helvetica,sans-Serif" font-size="8.00">SURFACE&#45;git&#45;graft&#45;enhance&#45;provenance&#45;hints</text>
</g>
<!-- cool_ideas_SURFACE_local_history_dag_render_mode_and_count_legend -->
<g id="node36" class="node">
<title>cool_ideas_SURFACE_local_history_dag_render_mode_and_count_legend</title>
<path fill="#d4e8f7" stroke="black" d="M5431.18,-320.5C5431.18,-320.5 5204.82,-320.5 5204.82,-320.5 5200.62,-320.5 5196.43,-316.3 5196.43,-312.1 5196.43,-312.1 5196.43,-303.7 5196.43,-303.7 5196.43,-299.5 5200.62,-295.3 5204.82,-295.3 5204.82,-295.3 5431.18,-295.3 5431.18,-295.3 5435.38,-295.3 5439.57,-299.5 5439.57,-303.7 5439.57,-303.7 5439.57,-312.1 5439.57,-312.1 5439.57,-316.3 5435.38,-320.5 5431.18,-320.5"/>
<text xml:space="preserve" text-anchor="middle" x="5318" y="-304.8" font-family="Helvetica,sans-Serif" font-size="8.00">SURFACE&#45;local&#45;history&#45;dag&#45;render&#45;mode&#45;and&#45;count&#45;legend &#45; S</text>
</g>
<!-- cool_ideas_SURFACE_non_codex_instruction_bootstrap_parity -->
<g id="node37" class="node">
<title>cool_ideas_SURFACE_non_codex_instruction_bootstrap_parity</title>
<path fill="#d4e8f7" stroke="black" d="M5650.43,-320.5C5650.43,-320.5 5461.57,-320.5 5461.57,-320.5 5457.38,-320.5 5453.18,-316.3 5453.18,-312.1 5453.18,-312.1 5453.18,-303.7 5453.18,-303.7 5453.18,-299.5 5457.38,-295.3 5461.57,-295.3 5461.57,-295.3 5650.43,-295.3 5650.43,-295.3 5654.62,-295.3 5658.82,-299.5 5658.82,-303.7 5658.82,-303.7 5658.82,-312.1 5658.82,-312.1 5658.82,-316.3 5654.62,-320.5 5650.43,-320.5"/>
<text xml:space="preserve" text-anchor="middle" x="5556" y="-304.8" font-family="Helvetica,sans-Serif" font-size="8.00">SURFACE&#45;non&#45;codex&#45;instruction&#45;bootstrap&#45;parity &#45; M</text>
</g>
<!-- cool_ideas_SURFACE_offer_rename_refactor -->
<g id="node38" class="node">
<title>cool_ideas_SURFACE_offer_rename_refactor</title>
<path fill="#d4e8f7" stroke="black" d="M5810.43,-320.5C5810.43,-320.5 5681.57,-320.5 5681.57,-320.5 5677.38,-320.5 5673.18,-316.3 5673.18,-312.1 5673.18,-312.1 5673.18,-303.7 5673.18,-303.7 5673.18,-299.5 5677.38,-295.3 5681.57,-295.3 5681.57,-295.3 5810.43,-295.3 5810.43,-295.3 5814.62,-295.3 5818.82,-299.5 5818.82,-303.7 5818.82,-303.7 5818.82,-312.1 5818.82,-312.1 5818.82,-316.3 5814.62,-320.5 5810.43,-320.5"/>
<text xml:space="preserve" text-anchor="middle" x="5746" y="-304.8" font-family="Helvetica,sans-Serif" font-size="8.00">SURFACE&#45;offer&#45;rename&#45;refactor &#45; L</text>
</g>
<!-- cool_ideas_SURFACE_terminal_activity_browser_tui -->
<g id="node39" class="node">
<title>cool_ideas_SURFACE_terminal_activity_browser_tui</title>
<path fill="#d4e8f7" stroke="black" d="M5990.55,-320.5C5990.55,-320.5 5841.45,-320.5 5841.45,-320.5 5837.25,-320.5 5833.05,-316.3 5833.05,-312.1 5833.05,-312.1 5833.05,-303.7 5833.05,-303.7 5833.05,-299.5 5837.25,-295.3 5841.45,-295.3 5841.45,-295.3 5990.55,-295.3 5990.55,-295.3 5994.75,-295.3 5998.95,-299.5 5998.95,-303.7 5998.95,-303.7 5998.95,-312.1 5998.95,-312.1 5998.95,-316.3 5994.75,-320.5 5990.55,-320.5"/>
<text xml:space="preserve" text-anchor="middle" x="5916" y="-304.8" font-family="Helvetica,sans-Serif" font-size="8.00">SURFACE&#45;terminal&#45;activity&#45;browser&#45;tui &#45; L</text>
</g>
<!-- cool_ideas_traverse_plus_query_hydration_helper -->
<g id="node40" class="node">
<title>cool_ideas_traverse_plus_query_hydration_helper</title>
<path fill="#d4e8f7" stroke="black" d="M6162.8,-320.5C6162.8,-320.5 6021.2,-320.5 6021.2,-320.5 6017,-320.5 6012.8,-316.3 6012.8,-312.1 6012.8,-312.1 6012.8,-303.7 6012.8,-303.7 6012.8,-299.5 6017,-295.3 6021.2,-295.3 6021.2,-295.3 6162.8,-295.3 6162.8,-295.3 6167,-295.3 6171.2,-299.5 6171.2,-303.7 6171.2,-303.7 6171.2,-312.1 6171.2,-312.1 6171.2,-316.3 6167,-320.5 6162.8,-320.5"/>
<text xml:space="preserve" text-anchor="middle" x="6092" y="-304.8" font-family="Helvetica,sans-Serif" font-size="8.00">traverse&#45;plus&#45;query&#45;hydration&#45;helper &#45; S</text>
</g>
<!-- cool_ideas_WARP_adaptive_projection_selection -->
<g id="node41" class="node">
<title>cool_ideas_WARP_adaptive_projection_selection</title>
<path fill="#d4e8f7" stroke="black" d="M6331.93,-320.5C6331.93,-320.5 6194.07,-320.5 6194.07,-320.5 6189.88,-320.5 6185.68,-316.3 6185.68,-312.1 6185.68,-312.1 6185.68,-303.7 6185.68,-303.7 6185.68,-299.5 6189.88,-295.3 6194.07,-295.3 6194.07,-295.3 6331.93,-295.3 6331.93,-295.3 6336.12,-295.3 6340.32,-299.5 6340.32,-303.7 6340.32,-303.7 6340.32,-312.1 6340.32,-312.1 6340.32,-316.3 6336.12,-320.5 6331.93,-320.5"/>
<text xml:space="preserve" text-anchor="middle" x="6263" y="-304.8" font-family="Helvetica,sans-Serif" font-size="8.00">WARP&#45;adaptive&#45;projection&#45;selection &#45; L</text>
</g>
<!-- cool_ideas_WARP_agent_action_provenance -->
<g id="node42" class="node">
<title>cool_ideas_WARP_agent_action_provenance</title>
<path fill="#d4e8f7" stroke="black" d="M6493.55,-320.5C6493.55,-320.5 6362.45,-320.5 6362.45,-320.5 6358.25,-320.5 6354.05,-316.3 6354.05,-312.1 6354.05,-312.1 6354.05,-303.7 6354.05,-303.7 6354.05,-299.5 6358.25,-295.3 6362.45,-295.3 6362.45,-295.3 6493.55,-295.3 6493.55,-295.3 6497.75,-295.3 6501.95,-299.5 6501.95,-303.7 6501.95,-303.7 6501.95,-312.1 6501.95,-312.1 6501.95,-316.3 6497.75,-320.5 6493.55,-320.5"/>
<text xml:space="preserve" text-anchor="middle" x="6428" y="-304.8" font-family="Helvetica,sans-Serif" font-size="8.00">WARP&#45;agent&#45;action&#45;provenance &#45; XL</text>
</g>
<!-- cool_ideas_WARP_agent_action_provenance&#45;&gt;cool_ideas_CI_001_causal_collapse_visualizer -->
<g id="edge3" class="edge">
<title>cool_ideas_WARP_agent_action_provenance&#45;&gt;cool_ideas_CI_001_causal_collapse_visualizer</title>
<path fill="none" stroke="#666666" d="M6453.81,-294.81C6466.04,-289.01 6480.83,-281.9 6494,-275.3 6509.99,-267.28 6527.7,-258.02 6542,-250.44"/>
<polygon fill="#666666" stroke="#666666" points="6542.57,-252.12 6546.16,-248.23 6540.92,-249.03 6542.57,-252.12"/>
<text xml:space="preserve" text-anchor="middle" x="6540.14" y="-268.65" font-family="Helvetica,sans-Serif" font-size="7.00">blocked_by/blocking</text>
</g>
<!-- cool_ideas_WARP_causal_write_tracking -->
<g id="node47" class="node">
<title>cool_ideas_WARP_causal_write_tracking</title>
<path fill="#d4e8f7" stroke="black" d="M6186.05,-247.05C6186.05,-247.05 6075.95,-247.05 6075.95,-247.05 6071.75,-247.05 6067.55,-242.85 6067.55,-238.65 6067.55,-238.65 6067.55,-230.25 6067.55,-230.25 6067.55,-226.05 6071.75,-221.85 6075.95,-221.85 6075.95,-221.85 6186.05,-221.85 6186.05,-221.85 6190.25,-221.85 6194.45,-226.05 6194.45,-230.25 6194.45,-230.25 6194.45,-238.65 6194.45,-238.65 6194.45,-242.85 6190.25,-247.05 6186.05,-247.05"/>
<text xml:space="preserve" text-anchor="middle" x="6131" y="-231.35" font-family="Helvetica,sans-Serif" font-size="8.00">WARP&#45;causal&#45;write&#45;tracking &#45; L</text>
</g>
<!-- cool_ideas_WARP_agent_action_provenance&#45;&gt;cool_ideas_WARP_causal_write_tracking -->
<g id="edge4" class="edge">
<title>cool_ideas_WARP_agent_action_provenance&#45;&gt;cool_ideas_WARP_causal_write_tracking</title>
<path fill="none" stroke="#666666" d="M6380.13,-294.83C6369.27,-292.23 6357.76,-289.58 6347,-287.3 6317.83,-281.12 6310.1,-281.8 6281,-275.3 6246.63,-267.62 6208.25,-257.4 6178.92,-249.23"/>
<polygon fill="#666666" stroke="#666666" points="6179.55,-247.58 6174.26,-247.92 6178.61,-250.96 6179.55,-247.58"/>
<text xml:space="preserve" text-anchor="middle" x="6312.5" y="-268.65" font-family="Helvetica,sans-Serif" font-size="7.00">blocked_by/blocking</text>
</g>
<!-- cool_ideas_WARP_intent_and_decision_events -->
<g id="node57" class="node">
<title>cool_ideas_WARP_intent_and_decision_events</title>
<path fill="#d4e8f7" stroke="black" d="M6349.3,-247.05C6349.3,-247.05 6216.7,-247.05 6216.7,-247.05 6212.5,-247.05 6208.3,-242.85 6208.3,-238.65 6208.3,-238.65 6208.3,-230.25 6208.3,-230.25 6208.3,-226.05 6212.5,-221.85 6216.7,-221.85 6216.7,-221.85 6349.3,-221.85 6349.3,-221.85 6353.5,-221.85 6357.7,-226.05 6357.7,-230.25 6357.7,-230.25 6357.7,-238.65 6357.7,-238.65 6357.7,-242.85 6353.5,-247.05 6349.3,-247.05"/>
<text xml:space="preserve" text-anchor="middle" x="6283" y="-231.35" font-family="Helvetica,sans-Serif" font-size="8.00">WARP&#45;intent&#45;and&#45;decision&#45;events &#45; M</text>
</g>
<!-- cool_ideas_WARP_agent_action_provenance&#45;&gt;cool_ideas_WARP_intent_and_decision_events -->
<g id="edge5" class="edge">
<title>cool_ideas_WARP_agent_action_provenance&#45;&gt;cool_ideas_WARP_intent_and_decision_events</title>
<path fill="none" stroke="#666666" d="M6402.55,-294.87C6390.27,-289.02 6375.34,-281.86 6362,-275.3 6345.45,-267.16 6327.05,-257.89 6312.17,-250.34"/>
<polygon fill="#666666" stroke="#666666" points="6313.04,-248.83 6307.79,-248.12 6311.46,-251.95 6313.04,-248.83"/>
<text xml:space="preserve" text-anchor="middle" x="6393.5" y="-268.65" font-family="Helvetica,sans-Serif" font-size="7.00">blocked_by/blocking</text>
</g>
<!-- cool_ideas_WARP_provenance_dag -->
<g id="node63" class="node">
<title>cool_ideas_WARP_provenance_dag</title>
<path fill="#d4e8f7" stroke="black" d="M6475.55,-247.05C6475.55,-247.05 6380.45,-247.05 6380.45,-247.05 6376.25,-247.05 6372.05,-242.85 6372.05,-238.65 6372.05,-238.65 6372.05,-230.25 6372.05,-230.25 6372.05,-226.05 6376.25,-221.85 6380.45,-221.85 6380.45,-221.85 6475.55,-221.85 6475.55,-221.85 6479.75,-221.85 6483.95,-226.05 6483.95,-230.25 6483.95,-230.25 6483.95,-238.65 6483.95,-238.65 6483.95,-242.85 6479.75,-247.05 6475.55,-247.05"/>
<text xml:space="preserve" text-anchor="middle" x="6428" y="-231.35" font-family="Helvetica,sans-Serif" font-size="8.00">WARP&#45;provenance&#45;dag &#45; L</text>
</g>
<!-- cool_ideas_WARP_agent_action_provenance&#45;&gt;cool_ideas_WARP_provenance_dag -->
<g id="edge6" class="edge">
<title>cool_ideas_WARP_agent_action_provenance&#45;&gt;cool_ideas_WARP_provenance_dag</title>
<path fill="none" stroke="#666666" d="M6428,-295.1C6428,-283.9 6428,-266.88 6428,-253.88"/>
<polygon fill="#666666" stroke="#666666" points="6429.75,-254.02 6428,-249.02 6426.25,-254.02 6429.75,-254.02"/>
<text xml:space="preserve" text-anchor="middle" x="6459.5" y="-268.65" font-family="Helvetica,sans-Serif" font-size="7.00">blocked_by/blocking</text>
</g>
<!-- cool_ideas_WARP_auto_breaking_change_detection -->
<g id="node43" class="node">
<title>cool_ideas_WARP_auto_breaking_change_detection</title>
<path fill="#d4e8f7" stroke="black" d="M9648.3,-247.05C9648.3,-247.05 9497.7,-247.05 9497.7,-247.05 9493.5,-247.05 9489.3,-242.85 9489.3,-238.65 9489.3,-238.65 9489.3,-230.25 9489.3,-230.25 9489.3,-226.05 9493.5,-221.85 9497.7,-221.85 9497.7,-221.85 9648.3,-221.85 9648.3,-221.85 9652.5,-221.85 9656.7,-226.05 9656.7,-230.25 9656.7,-230.25 9656.7,-238.65 9656.7,-238.65 9656.7,-242.85 9652.5,-247.05 9648.3,-247.05"/>
<text xml:space="preserve" text-anchor="middle" x="9573" y="-231.35" font-family="Helvetica,sans-Serif" font-size="8.00">WARP&#45;auto&#45;breaking&#45;change&#45;detection &#45; L</text>
</g>
<!-- cool_ideas_WARP_budget_elasticity -->
<g id="node45" class="node">
<title>cool_ideas_WARP_budget_elasticity</title>
<path fill="#d4e8f7" stroke="black" d="M6619.93,-320.5C6619.93,-320.5 6524.07,-320.5 6524.07,-320.5 6519.88,-320.5 6515.68,-316.3 6515.68,-312.1 6515.68,-312.1 6515.68,-303.7 6515.68,-303.7 6515.68,-299.5 6519.88,-295.3 6524.07,-295.3 6524.07,-295.3 6619.93,-295.3 6619.93,-295.3 6624.12,-295.3 6628.32,-299.5 6628.32,-303.7 6628.32,-303.7 6628.32,-312.1 6628.32,-312.1 6628.32,-316.3 6624.12,-320.5 6619.93,-320.5"/>
<text xml:space="preserve" text-anchor="middle" x="6572" y="-304.8" font-family="Helvetica,sans-Serif" font-size="8.00">WARP&#45;budget&#45;elasticity &#45; M</text>
</g>
<!-- cool_ideas_WARP_causal_blame_for_staged_artifacts -->
<g id="node46" class="node">
<title>cool_ideas_WARP_causal_blame_for_staged_artifacts</title>
<path fill="#d4e8f7" stroke="black" d="M6579.18,-173.6C6579.18,-173.6 6424.82,-173.6 6424.82,-173.6 6420.62,-173.6 6416.43,-169.4 6416.43,-165.2 6416.43,-165.2 6416.43,-156.8 6416.43,-156.8 6416.43,-152.6 6420.62,-148.4 6424.82,-148.4 6424.82,-148.4 6579.18,-148.4 6579.18,-148.4 6583.38,-148.4 6587.57,-152.6 6587.57,-156.8 6587.57,-156.8 6587.57,-165.2 6587.57,-165.2 6587.57,-169.4 6583.38,-173.6 6579.18,-173.6"/>
<text xml:space="preserve" text-anchor="middle" x="6502" y="-157.9" font-family="Helvetica,sans-Serif" font-size="8.00">WARP&#45;causal&#45;blame&#45;for&#45;staged&#45;artifacts &#45; L</text>
</g>
<!-- cool_ideas_WARP_codebase_entropy_trajectory -->
<g id="node48" class="node">
<title>cool_ideas_WARP_codebase_entropy_trajectory</title>
<path fill="#d4e8f7" stroke="black" d="M6789.68,-320.5C6789.68,-320.5 6650.32,-320.5 6650.32,-320.5 6646.12,-320.5 6641.93,-316.3 6641.93,-312.1 6641.93,-312.1 6641.93,-303.7 6641.93,-303.7 6641.93,-299.5 6646.12,-295.3 6650.32,-295.3 6650.32,-295.3 6789.68,-295.3 6789.68,-295.3 6793.88,-295.3 6798.07,-299.5 6798.07,-303.7 6798.07,-303.7 6798.07,-312.1 6798.07,-312.1 6798.07,-316.3 6793.88,-320.5 6789.68,-320.5"/>
<text xml:space="preserve" text-anchor="middle" x="6720" y="-304.8" font-family="Helvetica,sans-Serif" font-size="8.00">WARP&#45;codebase&#45;entropy&#45;trajectory &#45; M</text>
</g>
<!-- cool_ideas_WARP_counterfactual_refactoring -->
<g id="node50" class="node">
<title>cool_ideas_WARP_counterfactual_refactoring</title>
<path fill="#d4e8f7" stroke="black" d="M6797.68,-247.05C6797.68,-247.05 6664.32,-247.05 6664.32,-247.05 6660.12,-247.05 6655.93,-242.85 6655.93,-238.65 6655.93,-238.65 6655.93,-230.25 6655.93,-230.25 6655.93,-226.05 6660.12,-221.85 6664.32,-221.85 6664.32,-221.85 6797.68,-221.85 6797.68,-221.85 6801.88,-221.85 6806.07,-226.05 6806.07,-230.25 6806.07,-230.25 6806.07,-238.65 6806.07,-238.65 6806.07,-242.85 6801.88,-247.05 6797.68,-247.05"/>
<text xml:space="preserve" text-anchor="middle" x="6731" y="-231.35" font-family="Helvetica,sans-Serif" font-size="8.00">WARP&#45;counterfactual&#45;refactoring &#45; XL</text>
</g>
<!-- cool_ideas_WARP_codebase_entropy_trajectory&#45;&gt;cool_ideas_WARP_counterfactual_refactoring -->
<g id="edge7" class="edge">
<title>cool_ideas_WARP_codebase_entropy_trajectory&#45;&gt;cool_ideas_WARP_counterfactual_refactoring</title>
<path fill="none" stroke="#666666" d="M6721.82,-295.1C6723.54,-283.9 6726.16,-266.88 6728.16,-253.88"/>
<polygon fill="#666666" stroke="#666666" points="6729.88,-254.21 6728.91,-249 6726.42,-253.68 6729.88,-254.21"/>
<text xml:space="preserve" text-anchor="middle" x="6757.33" y="-268.65" font-family="Helvetica,sans-Serif" font-size="7.00">blocked_by/blocking</text>
</g>
<!-- cool_ideas_WARP_codebase_signature -->
<g id="node49" class="node">
<title>cool_ideas_WARP_codebase_signature</title>
<path fill="#d4e8f7" stroke="black" d="M6927.55,-320.5C6927.55,-320.5 6820.45,-320.5 6820.45,-320.5 6816.25,-320.5 6812.05,-316.3 6812.05,-312.1 6812.05,-312.1 6812.05,-303.7 6812.05,-303.7 6812.05,-299.5 6816.25,-295.3 6820.45,-295.3 6820.45,-295.3 6927.55,-295.3 6927.55,-295.3 6931.75,-295.3 6935.95,-299.5 6935.95,-303.7 6935.95,-303.7 6935.95,-312.1 6935.95,-312.1 6935.95,-316.3 6931.75,-320.5 6927.55,-320.5"/>
<text xml:space="preserve" text-anchor="middle" x="6874" y="-304.8" font-family="Helvetica,sans-Serif" font-size="8.00">WARP&#45;codebase&#45;signature &#45; L</text>
</g>
<!-- cool_ideas_WARP_structural_impact_prediction -->
<g id="node73" class="node">
<title>cool_ideas_WARP_structural_impact_prediction</title>
<path fill="#d4e8f7" stroke="black" d="M6800.3,-173.6C6800.3,-173.6 6661.7,-173.6 6661.7,-173.6 6657.5,-173.6 6653.3,-169.4 6653.3,-165.2 6653.3,-165.2 6653.3,-156.8 6653.3,-156.8 6653.3,-152.6 6657.5,-148.4 6661.7,-148.4 6661.7,-148.4 6800.3,-148.4 6800.3,-148.4 6804.5,-148.4 6808.7,-152.6 6808.7,-156.8 6808.7,-156.8 6808.7,-165.2 6808.7,-165.2 6808.7,-169.4 6804.5,-173.6 6800.3,-173.6"/>
<text xml:space="preserve" text-anchor="middle" x="6731" y="-157.9" font-family="Helvetica,sans-Serif" font-size="8.00">WARP&#45;structural&#45;impact&#45;prediction &#45; XL</text>
</g>
<!-- cool_ideas_WARP_counterfactual_refactoring&#45;&gt;cool_ideas_WARP_structural_impact_prediction -->
<g id="edge8" class="edge">
<title>cool_ideas_WARP_counterfactual_refactoring&#45;&gt;cool_ideas_WARP_structural_impact_prediction</title>
<path fill="none" stroke="#666666" d="M6731,-221.65C6731,-210.45 6731,-193.43 6731,-180.43"/>
<polygon fill="#666666" stroke="#666666" points="6732.75,-180.57 6731,-175.57 6729.25,-180.57 6732.75,-180.57"/>
<text xml:space="preserve" text-anchor="middle" x="6762.5" y="-195.2" font-family="Helvetica,sans-Serif" font-size="7.00">blocked_by/blocking</text>
</g>
<!-- cool_ideas_WARP_dead_symbol_detection -->
<g id="node51" class="node">
<title>cool_ideas_WARP_dead_symbol_detection</title>
<path fill="#d4e8f7" stroke="black" d="M7077.18,-320.5C7077.18,-320.5 6958.82,-320.5 6958.82,-320.5 6954.62,-320.5 6950.43,-316.3 6950.43,-312.1 6950.43,-312.1 6950.43,-303.7 6950.43,-303.7 6950.43,-299.5 6954.62,-295.3 6958.82,-295.3 6958.82,-295.3 7077.18,-295.3 7077.18,-295.3 7081.38,-295.3 7085.57,-299.5 7085.57,-303.7 7085.57,-303.7 7085.57,-312.1 7085.57,-312.1 7085.57,-316.3 7081.38,-320.5 7077.18,-320.5"/>
<text xml:space="preserve" text-anchor="middle" x="7018" y="-304.8" font-family="Helvetica,sans-Serif" font-size="8.00">WARP&#45;dead&#45;symbol&#45;detection &#45; S</text>
</g>
<!-- cool_ideas_WARP_degeneracy_warning -->
<g id="node52" class="node">
<title>cool_ideas_WARP_degeneracy_warning</title>
<path fill="#d4e8f7" stroke="black" d="M7220.18,-320.5C7220.18,-320.5 7107.82,-320.5 7107.82,-320.5 7103.62,-320.5 7099.43,-316.3 7099.43,-312.1 7099.43,-312.1 7099.43,-303.7 7099.43,-303.7 7099.43,-299.5 7103.62,-295.3 7107.82,-295.3 7107.82,-295.3 7220.18,-295.3 7220.18,-295.3 7224.38,-295.3 7228.57,-299.5 7228.57,-303.7 7228.57,-303.7 7228.57,-312.1 7228.57,-312.1 7228.57,-316.3 7224.38,-320.5 7220.18,-320.5"/>
<text xml:space="preserve" text-anchor="middle" x="7164" y="-304.8" font-family="Helvetica,sans-Serif" font-size="8.00">WARP&#45;degeneracy&#45;warning &#45; M</text>
</g>
<!-- cool_ideas_WARP_drift_sentinel -->
<g id="node53" class="node">
<title>cool_ideas_WARP_drift_sentinel</title>
<path fill="#d4e8f7" stroke="black" d="M9154.18,-247.05C9154.18,-247.05 9071.82,-247.05 9071.82,-247.05 9067.62,-247.05 9063.42,-242.85 9063.42,-238.65 9063.42,-238.65 9063.42,-230.25 9063.42,-230.25 9063.42,-226.05 9067.62,-221.85 9071.82,-221.85 9071.82,-221.85 9154.18,-221.85 9154.18,-221.85 9158.38,-221.85 9162.58,-226.05 9162.58,-230.25 9162.58,-230.25 9162.58,-238.65 9162.58,-238.65 9162.58,-242.85 9158.38,-247.05 9154.18,-247.05"/>
<text xml:space="preserve" text-anchor="middle" x="9113" y="-231.35" font-family="Helvetica,sans-Serif" font-size="8.00">WARP&#45;drift&#45;sentinel &#45; M</text>
</g>
<!-- cool_ideas_WARP_footprint_parallelism -->
<g id="node54" class="node">
<title>cool_ideas_WARP_footprint_parallelism</title>
<path fill="#d4e8f7" stroke="black" d="M7362.8,-320.5C7362.8,-320.5 7251.2,-320.5 7251.2,-320.5 7247,-320.5 7242.8,-316.3 7242.8,-312.1 7242.8,-312.1 7242.8,-303.7 7242.8,-303.7 7242.8,-299.5 7247,-295.3 7251.2,-295.3 7251.2,-295.3 7362.8,-295.3 7362.8,-295.3 7367,-295.3 7371.2,-299.5 7371.2,-303.7 7371.2,-303.7 7371.2,-312.1 7371.2,-312.1 7371.2,-316.3 7367,-320.5 7362.8,-320.5"/>
<text xml:space="preserve" text-anchor="middle" x="7307" y="-304.8" font-family="Helvetica,sans-Serif" font-size="8.00">WARP&#45;footprint&#45;parallelism &#45; XL</text>
</g>
<!-- cool_ideas_WARP_graft_pack -->
<g id="node55" class="node">
<title>cool_ideas_WARP_graft_pack</title>
<path fill="#d4e8f7" stroke="black" d="M7468.43,-320.5C7468.43,-320.5 7393.57,-320.5 7393.57,-320.5 7389.38,-320.5 7385.18,-316.3 7385.18,-312.1 7385.18,-312.1 7385.18,-303.7 7385.18,-303.7 7385.18,-299.5 7389.38,-295.3 7393.57,-295.3 7393.57,-295.3 7468.43,-295.3 7468.43,-295.3 7472.62,-295.3 7476.82,-299.5 7476.82,-303.7 7476.82,-303.7 7476.82,-312.1 7476.82,-312.1 7476.82,-316.3 7472.62,-320.5 7468.43,-320.5"/>
<text xml:space="preserve" text-anchor="middle" x="7431" y="-304.8" font-family="Helvetica,sans-Serif" font-size="8.00">WARP&#45;graft&#45;pack &#45; M</text>
</g>
<!-- cool_ideas_WARP_grouped_aggregate_queries -->
<g id="node56" class="node">
<title>cool_ideas_WARP_grouped_aggregate_queries</title>
<path fill="#d4e8f7" stroke="black" d="M7636.93,-320.5C7636.93,-320.5 7499.07,-320.5 7499.07,-320.5 7494.88,-320.5 7490.68,-316.3 7490.68,-312.1 7490.68,-312.1 7490.68,-303.7 7490.68,-303.7 7490.68,-299.5 7494.88,-295.3 7499.07,-295.3 7499.07,-295.3 7636.93,-295.3 7636.93,-295.3 7641.12,-295.3 7645.32,-299.5 7645.32,-303.7 7645.32,-303.7 7645.32,-312.1 7645.32,-312.1 7645.32,-316.3 7641.12,-320.5 7636.93,-320.5"/>
<text xml:space="preserve" text-anchor="middle" x="7568" y="-304.8" font-family="Helvetica,sans-Serif" font-size="8.00">WARP&#45;grouped&#45;aggregate&#45;queries &#45; M</text>
</g>
<!-- cool_ideas_WARP_intentional_degeneracy_privacy -->
<g id="node58" class="node">
<title>cool_ideas_WARP_intentional_degeneracy_privacy</title>
<path fill="#d4e8f7" stroke="black" d="M7815.8,-320.5C7815.8,-320.5 7668.2,-320.5 7668.2,-320.5 7664,-320.5 7659.8,-316.3 7659.8,-312.1 7659.8,-312.1 7659.8,-303.7 7659.8,-303.7 7659.8,-299.5 7664,-295.3 7668.2,-295.3 7668.2,-295.3 7815.8,-295.3 7815.8,-295.3 7820,-295.3 7824.2,-299.5 7824.2,-303.7 7824.2,-303.7 7824.2,-312.1 7824.2,-312.1 7824.2,-316.3 7820,-320.5 7815.8,-320.5"/>
<text xml:space="preserve" text-anchor="middle" x="7742" y="-304.8" font-family="Helvetica,sans-Serif" font-size="8.00">WARP&#45;intentional&#45;degeneracy&#45;privacy &#45; M</text>
</g>
<!-- cool_ideas_WARP_lsp_enrichment -->
<g id="node59" class="node">
<title>cool_ideas_WARP_lsp_enrichment</title>
<path fill="#d4e8f7" stroke="black" d="M7923.55,-320.5C7923.55,-320.5 7846.45,-320.5 7846.45,-320.5 7842.25,-320.5 7838.05,-316.3 7838.05,-312.1 7838.05,-312.1 7838.05,-303.7 7838.05,-303.7 7838.05,-299.5 7842.25,-295.3 7846.45,-295.3 7846.45,-295.3 7923.55,-295.3 7923.55,-295.3 7927.75,-295.3 7931.95,-299.5 7931.95,-303.7 7931.95,-303.7 7931.95,-312.1 7931.95,-312.1 7931.95,-316.3 7927.75,-320.5 7923.55,-320.5"/>
<text xml:space="preserve" text-anchor="middle" x="7885" y="-304.8" font-family="Helvetica,sans-Serif" font-size="8.00">WARP&#45;lsp&#45;enrichment</text>
</g>
<!-- cool_ideas_WARP_minimum_viable_context -->
<g id="node60" class="node">
<title>cool_ideas_WARP_minimum_viable_context</title>
<path fill="#d4e8f7" stroke="black" d="M8077.43,-320.5C8077.43,-320.5 7954.57,-320.5 7954.57,-320.5 7950.38,-320.5 7946.18,-316.3 7946.18,-312.1 7946.18,-312.1 7946.18,-303.7 7946.18,-303.7 7946.18,-299.5 7950.38,-295.3 7954.57,-295.3 7954.57,-295.3 8077.43,-295.3 8077.43,-295.3 8081.62,-295.3 8085.82,-299.5 8085.82,-303.7 8085.82,-303.7 8085.82,-312.1 8085.82,-312.1 8085.82,-316.3 8081.62,-320.5 8077.43,-320.5"/>
<text xml:space="preserve" text-anchor="middle" x="8016" y="-304.8" font-family="Helvetica,sans-Serif" font-size="8.00">WARP&#45;minimum&#45;viable&#45;context &#45; M</text>
</g>
<!-- cool_ideas_WARP_outline_diff_commit_trailer -->
<g id="node61" class="node">
<title>cool_ideas_WARP_outline_diff_commit_trailer</title>
<path fill="#d4e8f7" stroke="black" d="M8233.93,-320.5C8233.93,-320.5 8108.07,-320.5 8108.07,-320.5 8103.88,-320.5 8099.68,-316.3 8099.68,-312.1 8099.68,-312.1 8099.68,-303.7 8099.68,-303.7 8099.68,-299.5 8103.88,-295.3 8108.07,-295.3 8108.07,-295.3 8233.93,-295.3 8233.93,-295.3 8238.12,-295.3 8242.33,-299.5 8242.33,-303.7 8242.33,-303.7 8242.33,-312.1 8242.33,-312.1 8242.33,-316.3 8238.12,-320.5 8233.93,-320.5"/>
<text xml:space="preserve" text-anchor="middle" x="8171" y="-304.8" font-family="Helvetica,sans-Serif" font-size="8.00">WARP&#45;outline&#45;diff&#45;commit&#45;trailer &#45; S</text>
</g>
<!-- cool_ideas_WARP_projection_safety_classes -->
<g id="node62" class="node">
<title>cool_ideas_WARP_projection_safety_classes</title>
<path fill="#d4e8f7" stroke="black" d="M8390.93,-320.5C8390.93,-320.5 8265.07,-320.5 8265.07,-320.5 8260.88,-320.5 8256.67,-316.3 8256.67,-312.1 8256.67,-312.1 8256.67,-303.7 8256.67,-303.7 8256.67,-299.5 8260.88,-295.3 8265.07,-295.3 8265.07,-295.3 8390.93,-295.3 8390.93,-295.3 8395.12,-295.3 8399.33,-299.5 8399.33,-303.7 8399.33,-303.7 8399.33,-312.1 8399.33,-312.1 8399.33,-316.3 8395.12,-320.5 8390.93,-320.5"/>
<text xml:space="preserve" text-anchor="middle" x="8328" y="-304.8" font-family="Helvetica,sans-Serif" font-size="8.00">WARP&#45;projection&#45;safety&#45;classes &#45; M</text>
</g>
<!-- cool_ideas_WARP_provenance_dag&#45;&gt;cool_ideas_WARP_causal_blame_for_staged_artifacts -->
<g id="edge9" class="edge">
<title>cool_ideas_WARP_provenance_dag&#45;&gt;cool_ideas_WARP_causal_blame_for_staged_artifacts</title>
<path fill="none" stroke="#666666" d="M6440.22,-221.65C6452.46,-209.83 6471.41,-191.54 6485.09,-178.32"/>
<polygon fill="#666666" stroke="#666666" points="6486.04,-179.84 6488.43,-175.11 6483.61,-177.32 6486.04,-179.84"/>
<text xml:space="preserve" text-anchor="middle" x="6498.72" y="-195.2" font-family="Helvetica,sans-Serif" font-size="7.00">blocked_by/blocking</text>
</g>
<!-- cool_ideas_WARP_reasoning_trace_replay -->
<g id="node64" class="node">
<title>cool_ideas_WARP_reasoning_trace_replay</title>
<path fill="#d4e8f7" stroke="black" d="M6393.93,-173.6C6393.93,-173.6 6274.07,-173.6 6274.07,-173.6 6269.88,-173.6 6265.68,-169.4 6265.68,-165.2 6265.68,-165.2 6265.68,-156.8 6265.68,-156.8 6265.68,-152.6 6269.88,-148.4 6274.07,-148.4 6274.07,-148.4 6393.93,-148.4 6393.93,-148.4 6398.12,-148.4 6402.32,-152.6 6402.32,-156.8 6402.32,-156.8 6402.32,-165.2 6402.32,-165.2 6402.32,-169.4 6398.12,-173.6 6393.93,-173.6"/>
<text xml:space="preserve" text-anchor="middle" x="6334" y="-157.9" font-family="Helvetica,sans-Serif" font-size="8.00">WARP&#45;reasoning&#45;trace&#45;replay &#45; M</text>
</g>
<!-- cool_ideas_WARP_provenance_dag&#45;&gt;cool_ideas_WARP_reasoning_trace_replay -->
<g id="edge10" class="edge">
<title>cool_ideas_WARP_provenance_dag&#45;&gt;cool_ideas_WARP_reasoning_trace_replay</title>
<path fill="none" stroke="#666666" d="M6412.48,-221.65C6396.79,-209.73 6372.44,-191.22 6355.02,-177.98"/>
<polygon fill="#666666" stroke="#666666" points="6356.1,-176.6 6351.06,-174.97 6353.99,-179.39 6356.1,-176.6"/>
<text xml:space="preserve" text-anchor="middle" x="6415.32" y="-195.2" font-family="Helvetica,sans-Serif" font-size="7.00">blocked_by/blocking</text>
</g>
<!-- cool_ideas_WARP_rulial_heat_map -->
<g id="node65" class="node">
<title>cool_ideas_WARP_rulial_heat_map</title>
<path fill="#d4e8f7" stroke="black" d="M8512.3,-320.5C8512.3,-320.5 8421.7,-320.5 8421.7,-320.5 8417.5,-320.5 8413.3,-316.3 8413.3,-312.1 8413.3,-312.1 8413.3,-303.7 8413.3,-303.7 8413.3,-299.5 8417.5,-295.3 8421.7,-295.3 8421.7,-295.3 8512.3,-295.3 8512.3,-295.3 8516.5,-295.3 8520.7,-299.5 8520.7,-303.7 8520.7,-303.7 8520.7,-312.1 8520.7,-312.1 8520.7,-316.3 8516.5,-320.5 8512.3,-320.5"/>
<text xml:space="preserve" text-anchor="middle" x="8467" y="-304.8" font-family="Helvetica,sans-Serif" font-size="8.00">WARP&#45;rulial&#45;heat&#45;map &#45; L</text>
</g>
<!-- cool_ideas_WARP_semantic_drift_in_sessions -->
<g id="node66" class="node">
<title>cool_ideas_WARP_semantic_drift_in_sessions</title>
<path fill="#d4e8f7" stroke="black" d="M8672.43,-320.5C8672.43,-320.5 8543.57,-320.5 8543.57,-320.5 8539.38,-320.5 8535.17,-316.3 8535.17,-312.1 8535.17,-312.1 8535.17,-303.7 8535.17,-303.7 8535.17,-299.5 8539.38,-295.3 8543.57,-295.3 8543.57,-295.3 8672.43,-295.3 8672.43,-295.3 8676.62,-295.3 8680.83,-299.5 8680.83,-303.7 8680.83,-303.7 8680.83,-312.1 8680.83,-312.1 8680.83,-316.3 8676.62,-320.5 8672.43,-320.5"/>
<text xml:space="preserve" text-anchor="middle" x="8608" y="-304.8" font-family="Helvetica,sans-Serif" font-size="8.00">WARP&#45;semantic&#45;drift&#45;in&#45;sessions &#45; M</text>
</g>
<!-- cool_ideas_WARP_semantic_merge_conflict_prediction -->
<g id="node67" class="node">
<title>cool_ideas_WARP_semantic_merge_conflict_prediction</title>
<path fill="#d4e8f7" stroke="black" d="M9838.43,-247.05C9838.43,-247.05 9679.57,-247.05 9679.57,-247.05 9675.38,-247.05 9671.17,-242.85 9671.17,-238.65 9671.17,-238.65 9671.17,-230.25 9671.17,-230.25 9671.17,-226.05 9675.38,-221.85 9679.57,-221.85 9679.57,-221.85 9838.43,-221.85 9838.43,-221.85 9842.62,-221.85 9846.83,-226.05 9846.83,-230.25 9846.83,-230.25 9846.83,-238.65 9846.83,-238.65 9846.83,-242.85 9842.62,-247.05 9838.43,-247.05"/>
<text xml:space="preserve" text-anchor="middle" x="9759" y="-231.35" font-family="Helvetica,sans-Serif" font-size="8.00">WARP&#45;semantic&#45;merge&#45;conflict&#45;prediction &#45; L</text>
</g>
<!-- cool_ideas_WARP_session_filtration -->
<g id="node68" class="node">
<title>cool_ideas_WARP_session_filtration</title>
<path fill="#d4e8f7" stroke="black" d="M8796.8,-320.5C8796.8,-320.5 8703.2,-320.5 8703.2,-320.5 8699,-320.5 8694.8,-316.3 8694.8,-312.1 8694.8,-312.1 8694.8,-303.7 8694.8,-303.7 8694.8,-299.5 8699,-295.3 8703.2,-295.3 8703.2,-295.3 8796.8,-295.3 8796.8,-295.3 8801,-295.3 8805.2,-299.5 8805.2,-303.7 8805.2,-303.7 8805.2,-312.1 8805.2,-312.1 8805.2,-316.3 8801,-320.5 8796.8,-320.5"/>
<text xml:space="preserve" text-anchor="middle" x="8750" y="-304.8" font-family="Helvetica,sans-Serif" font-size="8.00">WARP&#45;session&#45;filtration &#45; L</text>
</g>
<!-- cool_ideas_WARP_shadow_structural_workspaces -->
<g id="node69" class="node">
<title>cool_ideas_WARP_shadow_structural_workspaces</title>
<path fill="#d4e8f7" stroke="black" d="M8978.3,-320.5C8978.3,-320.5 8827.7,-320.5 8827.7,-320.5 8823.5,-320.5 8819.3,-316.3 8819.3,-312.1 8819.3,-312.1 8819.3,-303.7 8819.3,-303.7 8819.3,-299.5 8823.5,-295.3 8827.7,-295.3 8827.7,-295.3 8978.3,-295.3 8978.3,-295.3 8982.5,-295.3 8986.7,-299.5 8986.7,-303.7 8986.7,-303.7 8986.7,-312.1 8986.7,-312.1 8986.7,-316.3 8982.5,-320.5 8978.3,-320.5"/>
<text xml:space="preserve" text-anchor="middle" x="8903" y="-304.8" font-family="Helvetica,sans-Serif" font-size="8.00">WARP&#45;shadow&#45;structural&#45;workspaces &#45; XL</text>
</g>
<!-- cool_ideas_WARP_speculative_merge -->
<g id="node70" class="node">
<title>cool_ideas_WARP_speculative_merge</title>
<path fill="#d4e8f7" stroke="black" d="M9116.55,-320.5C9116.55,-320.5 9009.45,-320.5 9009.45,-320.5 9005.25,-320.5 9001.05,-316.3 9001.05,-312.1 9001.05,-312.1 9001.05,-303.7 9001.05,-303.7 9001.05,-299.5 9005.25,-295.3 9009.45,-295.3 9009.45,-295.3 9116.55,-295.3 9116.55,-295.3 9120.75,-295.3 9124.95,-299.5 9124.95,-303.7 9124.95,-303.7 9124.95,-312.1 9124.95,-312.1 9124.95,-316.3 9120.75,-320.5 9116.55,-320.5"/>
<text xml:space="preserve" text-anchor="middle" x="9063" y="-304.8" font-family="Helvetica,sans-Serif" font-size="8.00">WARP&#45;speculative&#45;merge &#45; XL</text>
</g>
<!-- cool_ideas_WARP_stale_docs_checker -->
<g id="node71" class="node">
<title>cool_ideas_WARP_stale_docs_checker</title>
<path fill="#d4e8f7" stroke="black" d="M9252.8,-320.5C9252.8,-320.5 9147.2,-320.5 9147.2,-320.5 9143,-320.5 9138.8,-316.3 9138.8,-312.1 9138.8,-312.1 9138.8,-303.7 9138.8,-303.7 9138.8,-299.5 9143,-295.3 9147.2,-295.3 9147.2,-295.3 9252.8,-295.3 9252.8,-295.3 9257,-295.3 9261.2,-299.5 9261.2,-303.7 9261.2,-303.7 9261.2,-312.1 9261.2,-312.1 9261.2,-316.3 9257,-320.5 9252.8,-320.5"/>
<text xml:space="preserve" text-anchor="middle" x="9200" y="-304.8" font-family="Helvetica,sans-Serif" font-size="8.00">WARP&#45;stale&#45;docs&#45;checker &#45; M</text>
</g>
<!-- cool_ideas_WARP_stale_docs_checker&#45;&gt;cool_ideas_WARP_drift_sentinel -->
<g id="edge11" class="edge">
<title>cool_ideas_WARP_stale_docs_checker&#45;&gt;cool_ideas_WARP_drift_sentinel</title>
<path fill="none" stroke="#666666" d="M9185.63,-295.1C9171.11,-283.18 9148.58,-264.67 9132.46,-251.43"/>
<polygon fill="#666666" stroke="#666666" points="9133.82,-250.29 9128.85,-248.47 9131.6,-252.99 9133.82,-250.29"/>
<text xml:space="preserve" text-anchor="middle" x="9190.61" y="-268.65" font-family="Helvetica,sans-Serif" font-size="7.00">blocked_by/blocking</text>
</g>
<!-- cool_ideas_WARP_structural_drift_detection -->
<g id="node72" class="node">
<title>cool_ideas_WARP_structural_drift_detection</title>
<path fill="#d4e8f7" stroke="black" d="M9406.8,-320.5C9406.8,-320.5 9283.2,-320.5 9283.2,-320.5 9279,-320.5 9274.8,-316.3 9274.8,-312.1 9274.8,-312.1 9274.8,-303.7 9274.8,-303.7 9274.8,-299.5 9279,-295.3 9283.2,-295.3 9283.2,-295.3 9406.8,-295.3 9406.8,-295.3 9411,-295.3 9415.2,-299.5 9415.2,-303.7 9415.2,-303.7 9415.2,-312.1 9415.2,-312.1 9415.2,-316.3 9411,-320.5 9406.8,-320.5"/>
<text xml:space="preserve" text-anchor="middle" x="9345" y="-304.8" font-family="Helvetica,sans-Serif" font-size="8.00">WARP&#45;structural&#45;drift&#45;detection &#45; M</text>
</g>
<!-- cool_ideas_WARP_symbol_heatmap -->
<g id="node74" class="node">
<title>cool_ideas_WARP_symbol_heatmap</title>
<path fill="#d4e8f7" stroke="black" d="M9536.05,-320.5C9536.05,-320.5 9437.95,-320.5 9437.95,-320.5 9433.75,-320.5 9429.55,-316.3 9429.55,-312.1 9429.55,-312.1 9429.55,-303.7 9429.55,-303.7 9429.55,-299.5 9433.75,-295.3 9437.95,-295.3 9437.95,-295.3 9536.05,-295.3 9536.05,-295.3 9540.25,-295.3 9544.45,-299.5 9544.45,-303.7 9544.45,-303.7 9544.45,-312.1 9544.45,-312.1 9544.45,-316.3 9540.25,-320.5 9536.05,-320.5"/>
<text xml:space="preserve" text-anchor="middle" x="9487" y="-304.8" font-family="Helvetica,sans-Serif" font-size="8.00">WARP&#45;symbol&#45;heatmap &#45; M</text>
</g>
<!-- cool_ideas_WARP_symbol_history_timeline -->
<g id="node75" class="node">
<title>cool_ideas_WARP_symbol_history_timeline</title>
<path fill="#d4e8f7" stroke="black" d="M9685.18,-320.5C9685.18,-320.5 9566.82,-320.5 9566.82,-320.5 9562.62,-320.5 9558.42,-316.3 9558.42,-312.1 9558.42,-312.1 9558.42,-303.7 9558.42,-303.7 9558.42,-299.5 9562.62,-295.3 9566.82,-295.3 9566.82,-295.3 9685.18,-295.3 9685.18,-295.3 9689.38,-295.3 9693.58,-299.5 9693.58,-303.7 9693.58,-303.7 9693.58,-312.1 9693.58,-312.1 9693.58,-316.3 9689.38,-320.5 9685.18,-320.5"/>
<text xml:space="preserve" text-anchor="middle" x="9626" y="-304.8" font-family="Helvetica,sans-Serif" font-size="8.00">WARP&#45;symbol&#45;history&#45;timeline &#45; S</text>
</g>
<!-- cool_ideas_WARP_temporal_structural_search -->
<g id="node77" class="node">
<title>cool_ideas_WARP_temporal_structural_search</title>
<path fill="#d4e8f7" stroke="black" d="M9318.68,-247.05C9318.68,-247.05 9185.32,-247.05 9185.32,-247.05 9181.12,-247.05 9176.92,-242.85 9176.92,-238.65 9176.92,-238.65 9176.92,-230.25 9176.92,-230.25 9176.92,-226.05 9181.12,-221.85 9185.32,-221.85 9185.32,-221.85 9318.68,-221.85 9318.68,-221.85 9322.88,-221.85 9327.08,-226.05 9327.08,-230.25 9327.08,-230.25 9327.08,-238.65 9327.08,-238.65 9327.08,-242.85 9322.88,-247.05 9318.68,-247.05"/>
<text xml:space="preserve" text-anchor="middle" x="9252" y="-231.35" font-family="Helvetica,sans-Serif" font-size="8.00">WARP&#45;temporal&#45;structural&#45;search &#45; M</text>
</g>
<!-- cool_ideas_WARP_symbol_history_timeline&#45;&gt;cool_ideas_WARP_temporal_structural_search -->
<g id="edge12" class="edge">
<title>cool_ideas_WARP_symbol_history_timeline&#45;&gt;cool_ideas_WARP_temporal_structural_search</title>
<path fill="none" stroke="#666666" d="M9585.82,-294.9C9574.64,-291.97 9562.42,-289.15 9551,-287.3 9470.98,-274.33 9448.5,-291.17 9369,-275.3 9340.41,-269.59 9309.21,-258.72 9286.23,-249.77"/>
<polygon fill="#666666" stroke="#666666" points="9286.97,-248.18 9281.68,-247.98 9285.69,-251.44 9286.97,-248.18"/>
<text xml:space="preserve" text-anchor="middle" x="9400.5" y="-268.65" font-family="Helvetica,sans-Serif" font-size="7.00">blocked_by/blocking</text>
</g>
<!-- cool_ideas_WARP_technical_debt_curvature -->
<g id="node76" class="node">
<title>cool_ideas_WARP_technical_debt_curvature</title>
<path fill="#d4e8f7" stroke="black" d="M9838.43,-320.5C9838.43,-320.5 9715.57,-320.5 9715.57,-320.5 9711.38,-320.5 9707.17,-316.3 9707.17,-312.1 9707.17,-312.1 9707.17,-303.7 9707.17,-303.7 9707.17,-299.5 9711.38,-295.3 9715.57,-295.3 9715.57,-295.3 9838.43,-295.3 9838.43,-295.3 9842.62,-295.3 9846.83,-299.5 9846.83,-303.7 9846.83,-303.7 9846.83,-312.1 9846.83,-312.1 9846.83,-316.3 9842.62,-320.5 9838.43,-320.5"/>
<text xml:space="preserve" text-anchor="middle" x="9777" y="-304.8" font-family="Helvetica,sans-Serif" font-size="8.00">WARP&#45;technical&#45;debt&#45;curvature &#45; L</text>
</g>
<!-- external_git_warp_observer_geometry_ladder__Rung_2_4_ -->
<g id="node78" class="node">
<title>external_git_warp_observer_geometry_ladder__Rung_2_4_</title>
<path fill="#e8f2ff" stroke="black" d="M10042.68,-320.5C10042.68,-320.5 9879.32,-320.5 9879.32,-320.5 9875.12,-320.5 9870.92,-316.3 9870.92,-312.1 9870.92,-312.1 9870.92,-303.7 9870.92,-303.7 9870.92,-299.5 9875.12,-295.3 9879.32,-295.3 9879.32,-295.3 10042.68,-295.3 10042.68,-295.3 10046.88,-295.3 10051.08,-299.5 10051.08,-303.7 10051.08,-303.7 10051.08,-312.1 10051.08,-312.1 10051.08,-316.3 10046.88,-320.5 10042.68,-320.5"/>
<text xml:space="preserve" text-anchor="middle" x="9961" y="-304.8" font-family="Helvetica,sans-Serif" font-size="8.00">git&#45;warp observer geometry ladder (Rung 2&#45;4)</text>
</g>
<!-- external_git_warp_observer_geometry_ladder__Rung_2_4_&#45;&gt;cool_ideas_CORE_migrate_to_slice_first_reads -->
<g id="edge13" class="edge">
<title>external_git_warp_observer_geometry_ladder__Rung_2_4_&#45;&gt;cool_ideas_CORE_migrate_to_slice_first_reads</title>
<path fill="none" stroke="#4477aa" stroke-dasharray="5,2" d="M9904.54,-294.84C9889.47,-291.98 9873.17,-289.21 9858,-287.3 9773.72,-276.67 9751.71,-284.38 9667.25,-275.3 9584.44,-266.4 9564.31,-259.78 9482,-247.05 9481.86,-247.03 9481.73,-247.01 9481.59,-246.99"/>
<polygon fill="#4477aa" stroke="#4477aa" points="9482.06,-245.29 9476.85,-246.25 9481.52,-248.75 9482.06,-245.29"/>
<text xml:space="preserve" text-anchor="middle" x="9699.12" y="-268.65" font-family="Helvetica,sans-Serif" font-size="7.00">blocked_by_external</text>
</g>
<!-- unresolved_CLEAN_CODE_export_diff_semver_signature_as_patch -->
<g id="node79" class="node">
<title>unresolved_CLEAN_CODE_export_diff_semver_signature_as_patch</title>
<path fill="#f2f2f2" stroke="black" stroke-dasharray="5,2" d="M10306.3,-320.5C10306.3,-320.5 10083.7,-320.5 10083.7,-320.5 10079.5,-320.5 10075.3,-316.3 10075.3,-312.1 10075.3,-312.1 10075.3,-303.7 10075.3,-303.7 10075.3,-299.5 10079.5,-295.3 10083.7,-295.3 10083.7,-295.3 10306.3,-295.3 10306.3,-295.3 10310.5,-295.3 10314.7,-299.5 10314.7,-303.7 10314.7,-303.7 10314.7,-312.1 10314.7,-312.1 10314.7,-316.3 10310.5,-320.5 10306.3,-320.5"/>
<text xml:space="preserve" text-anchor="middle" x="10195" y="-304.8" font-family="Helvetica,sans-Serif" font-size="8.00">missing: CLEAN_CODE_export&#45;diff&#45;semver&#45;signature&#45;as&#45;patch</text>
</g>
<!-- unresolved_CLEAN_CODE_export_diff_semver_signature_as_patch&#45;&gt;cool_ideas_WARP_auto_breaking_change_detection -->
<g id="edge14" class="edge">
<title>unresolved_CLEAN_CODE_export_diff_semver_signature_as_patch&#45;&gt;cool_ideas_WARP_auto_breaking_change_detection</title>
<path fill="none" stroke="#cc3333" stroke-dasharray="5,2" d="M10118.44,-294.84C10099.99,-292.14 10080.31,-289.45 10062,-287.3 10001.63,-280.2 9986.25,-281.23 9925.75,-275.3 9809.3,-263.89 9780.21,-260.73 9664,-247.05 9663.7,-247.02 9663.41,-246.98 9663.11,-246.94"/>
<polygon fill="#cc3333" stroke="#cc3333" points="9663.47,-245.23 9658.29,-246.37 9663.05,-248.7 9663.47,-245.23"/>
<text xml:space="preserve" text-anchor="middle" x="9943.38" y="-268.65" font-family="Helvetica,sans-Serif" font-size="7.00">blocked_by</text>
</g>
<!-- unresolved_CLEAN_CODE_export_diff_semver_signature_as_patch&#45;&gt;cool_ideas_WARP_semantic_merge_conflict_prediction -->
<g id="edge15" class="edge">
<title>unresolved_CLEAN_CODE_export_diff_semver_signature_as_patch&#45;&gt;cool_ideas_WARP_semantic_merge_conflict_prediction</title>
<path fill="none" stroke="#cc3333" stroke-dasharray="5,2" d="M10121.53,-294.86C10043.24,-282.03 9919.69,-261.78 9838.99,-248.56"/>
<polygon fill="#cc3333" stroke="#cc3333" points="9839.48,-246.87 9834.26,-247.78 9838.91,-250.32 9839.48,-246.87"/>
<text xml:space="preserve" text-anchor="middle" x="10007.7" y="-268.65" font-family="Helvetica,sans-Serif" font-size="7.00">blocked_by</text>
</g>
<!-- leg_v07 -->
<g id="node80" class="node">
<title>leg_v07</title>
<path fill="#ffa07a" stroke="black" stroke-width="2" d="M10431,-320.5C10431,-320.5 10347,-320.5 10347,-320.5 10342.8,-320.5 10338.6,-316.3 10338.6,-312.1 10338.6,-312.1 10338.6,-303.7 10338.6,-303.7 10338.6,-299.5 10342.8,-295.3 10347,-295.3 10347,-295.3 10431,-295.3 10431,-295.3 10435.2,-295.3 10439.4,-299.5 10439.4,-303.7 10439.4,-303.7 10439.4,-312.1 10439.4,-312.1 10439.4,-316.3 10435.2,-320.5 10431,-320.5"/>
<text xml:space="preserve" text-anchor="middle" x="10389" y="-305.38" font-family="Helvetica,sans-Serif" font-size="7.00">v0.7.0</text>
</g>
<!-- leg_bad -->
<g id="node81" class="node">
<title>leg_bad</title>
<path fill="#f6b3b3" stroke="black" stroke-width="2" d="M10431,-247.05C10431,-247.05 10347,-247.05 10347,-247.05 10342.8,-247.05 10338.6,-242.85 10338.6,-238.65 10338.6,-238.65 10338.6,-230.25 10338.6,-230.25 10338.6,-226.05 10342.8,-221.85 10347,-221.85 10347,-221.85 10431,-221.85 10431,-221.85 10435.2,-221.85 10439.4,-226.05 10439.4,-230.25 10439.4,-230.25 10439.4,-238.65 10439.4,-238.65 10439.4,-242.85 10435.2,-247.05 10431,-247.05"/>
<text xml:space="preserve" text-anchor="middle" x="10389" y="-231.92" font-family="Helvetica,sans-Serif" font-size="7.00">bad&#45;code</text>
</g>
<!-- leg_v07&#45;&gt;leg_bad -->
<!-- leg_idea -->
<g id="node82" class="node">
<title>leg_idea</title>
<path fill="#d4e8f7" stroke="black" d="M10431,-173.6C10431,-173.6 10347,-173.6 10347,-173.6 10342.8,-173.6 10338.6,-169.4 10338.6,-165.2 10338.6,-165.2 10338.6,-156.8 10338.6,-156.8 10338.6,-152.6 10342.8,-148.4 10347,-148.4 10347,-148.4 10431,-148.4 10431,-148.4 10435.2,-148.4 10439.4,-152.6 10439.4,-156.8 10439.4,-156.8 10439.4,-165.2 10439.4,-165.2 10439.4,-169.4 10435.2,-173.6 10431,-173.6"/>
<text xml:space="preserve" text-anchor="middle" x="10389" y="-158.47" font-family="Helvetica,sans-Serif" font-size="7.00">cool&#45;ideas</text>
</g>
<!-- leg_bad&#45;&gt;leg_idea -->
<!-- leg_external -->
<g id="node83" class="node">
<title>leg_external</title>
<path fill="#e8f2ff" stroke="black" d="M10431,-107.4C10431,-107.4 10347,-107.4 10347,-107.4 10342.8,-107.4 10338.6,-103.2 10338.6,-99 10338.6,-99 10338.6,-90.6 10338.6,-90.6 10338.6,-86.4 10342.8,-82.2 10347,-82.2 10347,-82.2 10431,-82.2 10431,-82.2 10435.2,-82.2 10439.4,-86.4 10439.4,-90.6 10439.4,-90.6 10439.4,-99 10439.4,-99 10439.4,-103.2 10435.2,-107.4 10431,-107.4"/>
<text xml:space="preserve" text-anchor="middle" x="10389" y="-92.28" font-family="Helvetica,sans-Serif" font-size="7.00">external blocker</text>
</g>
<!-- leg_idea&#45;&gt;leg_external -->
<!-- leg_unresolved -->
<g id="node84" class="node">
<title>leg_unresolved</title>
<path fill="#f2f2f2" stroke="black" stroke-dasharray="5,2" d="M10431,-41.2C10431,-41.2 10347,-41.2 10347,-41.2 10342.8,-41.2 10338.6,-37 10338.6,-32.8 10338.6,-32.8 10338.6,-24.4 10338.6,-24.4 10338.6,-20.2 10342.8,-16 10347,-16 10347,-16 10431,-16 10431,-16 10435.2,-16 10439.4,-20.2 10439.4,-24.4 10439.4,-24.4 10439.4,-32.8 10439.4,-32.8 10439.4,-37 10435.2,-41.2 10431,-41.2"/>
<text xml:space="preserve" text-anchor="middle" x="10389" y="-26.08" font-family="Helvetica,sans-Serif" font-size="7.00">unresolved ref</text>
</g>
<!-- leg_external&#45;&gt;leg_unresolved -->
</g>
</svg>
