<?xml version="1.0" encoding="UTF-8" standalone="no"?>
<!DOCTYPE svg PUBLIC "-//W3C//DTD SVG 1.1//EN"
 "http://www.w3.org/Graphics/SVG/1.1/DTD/svg11.dtd">
<!-- Generated by graphviz version 14.1.2 (20260124.0452)
 -->
<!-- Title: backlog Pages: 1 -->
<svg width="14027pt" height="449pt"
 viewBox="0.00 0.00 14027.00 449.00" xmlns="http://www.w3.org/2000/svg" xmlns:xlink="http://www.w3.org/1999/xlink">
<g id="graph0" class="graph" transform="scale(1 1) rotate(0) translate(4 445.2)">
<title>backlog</title>
<polygon fill="white" stroke="none" points="-4,4 -4,-445.2 14023,-445.2 14023,4 -4,4"/>
<text xml:space="preserve" text-anchor="middle" x="7009.5" y="-425.8" font-family="Helvetica,sans-Serif" font-size="12.00">Active backlog graph generated from docs/method/backlog/*/*.md</text>
<g id="clust1" class="cluster">
<title>cluster_v0_8_0</title>
<path fill="#fafafa" stroke="#cccccc" d="M20,-353.5C20,-353.5 4059,-353.5 4059,-353.5 4065,-353.5 4071,-359.5 4071,-365.5 4071,-365.5 4071,-400.45 4071,-400.45 4071,-406.45 4065,-412.45 4059,-412.45 4059,-412.45 20,-412.45 20,-412.45 14,-412.45 8,-406.45 8,-400.45 8,-400.45 8,-365.5 8,-365.5 8,-359.5 14,-353.5 20,-353.5"/>
<text xml:space="preserve" text-anchor="middle" x="37.75" y="-399.9" font-family="Helvetica,sans-Serif" font-size="9.00" fill="#555555">v0.8.0 (26)</text>
</g>
<g id="clust2" class="cluster">
<title>cluster_cool_ideas</title>
<path fill="#fafafa" stroke="#cccccc" d="M4091,-206.6C4091,-206.6 13407,-206.6 13407,-206.6 13413,-206.6 13419,-212.6 13419,-218.6 13419,-218.6 13419,-400.45 13419,-400.45 13419,-406.45 13413,-412.45 13407,-412.45 13407,-412.45 4091,-412.45 4091,-412.45 4085,-412.45 4079,-406.45 4079,-400.45 4079,-400.45 4079,-218.6 4079,-218.6 4079,-212.6 4085,-206.6 4091,-206.6"/>
<text xml:space="preserve" text-anchor="middle" x="4118.5" y="-399.9" font-family="Helvetica,sans-Serif" font-size="9.00" fill="#555555">Cool Ideas (74)</text>
</g>
<g id="clust3" class="cluster">
<title>cluster_external</title>
<path fill="#f8fbff" stroke="#cccccc" d="M13439,-353.5C13439,-353.5 13611,-353.5 13611,-353.5 13617,-353.5 13623,-359.5 13623,-365.5 13623,-365.5 13623,-400.45 13623,-400.45 13623,-406.45 13617,-412.45 13611,-412.45 13611,-412.45 13439,-412.45 13439,-412.45 13433,-412.45 13427,-406.45 13427,-400.45 13427,-400.45 13427,-365.5 13427,-365.5 13427,-359.5 13433,-353.5 13439,-353.5"/>
<text xml:space="preserve" text-anchor="middle" x="13470.25" y="-399.9" font-family="Helvetica,sans-Serif" font-size="9.00" fill="#555555">External blockers</text>
</g>
<g id="clust4" class="cluster">
<title>cluster_unresolved</title>
<path fill="#fff7f7" stroke="#cc3333" stroke-dasharray="5,2" d="M13643,-353.5C13643,-353.5 13875,-353.5 13875,-353.5 13881,-353.5 13887,-359.5 13887,-365.5 13887,-365.5 13887,-400.45 13887,-400.45 13887,-406.45 13881,-412.45 13875,-412.45 13875,-412.45 13643,-412.45 13643,-412.45 13637,-412.45 13631,-406.45 13631,-400.45 13631,-400.45 13631,-365.5 13631,-365.5 13631,-359.5 13637,-353.5 13643,-353.5"/>
<text xml:space="preserve" text-anchor="middle" x="13687.75" y="-399.9" font-family="Helvetica,sans-Serif" font-size="9.00" fill="#555555">Unresolved internal refs</text>
</g>
<g id="clust5" class="cluster">
<title>cluster_legend</title>
<path fill="none" stroke="#dddddd" d="M13907,-8C13907,-8 13999,-8 13999,-8 14005,-8 14011,-14 14011,-20 14011,-20 14011,-399.7 14011,-399.7 14011,-405.7 14005,-411.7 13999,-411.7 13999,-411.7 13907,-411.7 13907,-411.7 13901,-411.7 13895,-405.7 13895,-399.7 13895,-399.7 13895,-20 13895,-20 13895,-14 13901,-8 13907,-8"/>
<text xml:space="preserve" text-anchor="middle" x="13916.5" y="-400.1" font-family="Helvetica,sans-Serif" font-size="8.00" fill="#aaaaaa">Legend</text>
</g>
<!-- v0_8_0_CORE_c_structural_parsing -->
<g id="node1" class="node">
<title>v0_8_0_CORE_c_structural_parsing</title>
<path fill="#c8e6c9" stroke="black" stroke-width="2" d="M131.55,-386.7C131.55,-386.7 24.45,-386.7 24.45,-386.7 20.25,-386.7 16.05,-382.5 16.05,-378.3 16.05,-378.3 16.05,-369.9 16.05,-369.9 16.05,-365.7 20.25,-361.5 24.45,-361.5 24.45,-361.5 131.55,-361.5 131.55,-361.5 135.75,-361.5 139.95,-365.7 139.95,-369.9 139.95,-369.9 139.95,-378.3 139.95,-378.3 139.95,-382.5 135.75,-386.7 131.55,-386.7"/>
<text xml:space="preserve" text-anchor="middle" x="78" y="-371" font-family="Helvetica,sans-Serif" font-size="8.00">CORE&#45;c&#45;structural&#45;parsing &#45; M</text>
</g>
<!-- v0_8_0_CORE_cpp_structural_parsing -->
<g id="node2" class="node">
<title>v0_8_0_CORE_cpp_structural_parsing</title>
<path fill="#c8e6c9" stroke="black" stroke-width="2" d="M275.92,-386.7C275.92,-386.7 162.08,-386.7 162.08,-386.7 157.88,-386.7 153.68,-382.5 153.68,-378.3 153.68,-378.3 153.68,-369.9 153.68,-369.9 153.68,-365.7 157.88,-361.5 162.08,-361.5 162.08,-361.5 275.92,-361.5 275.92,-361.5 280.12,-361.5 284.32,-365.7 284.32,-369.9 284.32,-369.9 284.32,-378.3 284.32,-378.3 284.32,-382.5 280.12,-386.7 275.92,-386.7"/>
<text xml:space="preserve" text-anchor="middle" x="219" y="-371" font-family="Helvetica,sans-Serif" font-size="8.00">CORE&#45;cpp&#45;structural&#45;parsing &#45; L</text>
</g>
<!-- v0_8_0_CORE_csharp_structural_parsing -->
<g id="node3" class="node">
<title>v0_8_0_CORE_csharp_structural_parsing</title>
<path fill="#c8e6c9" stroke="black" stroke-width="2" d="M433.67,-386.7C433.67,-386.7 306.33,-386.7 306.33,-386.7 302.12,-386.7 297.93,-382.5 297.93,-378.3 297.93,-378.3 297.93,-369.9 297.93,-369.9 297.93,-365.7 302.12,-361.5 306.33,-361.5 306.33,-361.5 433.67,-361.5 433.67,-361.5 437.88,-361.5 442.07,-365.7 442.07,-369.9 442.07,-369.9 442.07,-378.3 442.07,-378.3 442.07,-382.5 437.88,-386.7 433.67,-386.7"/>
<text xml:space="preserve" text-anchor="middle" x="370" y="-371" font-family="Helvetica,sans-Serif" font-size="8.00">CORE&#45;csharp&#45;structural&#45;parsing &#45; M</text>
</g>
<!-- v0_8_0_CORE_go_structural_parsing -->
<g id="node4" class="node">
<title>v0_8_0_CORE_go_structural_parsing</title>
<path fill="#c8e6c9" stroke="black" stroke-width="2" d="M575.43,-386.7C575.43,-386.7 464.58,-386.7 464.58,-386.7 460.38,-386.7 456.18,-382.5 456.18,-378.3 456.18,-378.3 456.18,-369.9 456.18,-369.9 456.18,-365.7 460.38,-361.5 464.58,-361.5 464.58,-361.5 575.43,-361.5 575.43,-361.5 579.62,-361.5 583.83,-365.7 583.83,-369.9 583.83,-369.9 583.83,-378.3 583.83,-378.3 583.83,-382.5 579.62,-386.7 575.43,-386.7"/>
<text xml:space="preserve" text-anchor="middle" x="520" y="-371" font-family="Helvetica,sans-Serif" font-size="8.00">CORE&#45;go&#45;structural&#45;parsing &#45; S</text>
</g>
<!-- v0_8_0_CORE_hcl_structured_config -->
<g id="node5" class="node">
<title>v0_8_0_CORE_hcl_structured_config</title>
<path fill="#c8e6c9" stroke="black" stroke-width="2" d="M717.43,-386.7C717.43,-386.7 606.57,-386.7 606.57,-386.7 602.38,-386.7 598.17,-382.5 598.17,-378.3 598.17,-378.3 598.17,-369.9 598.17,-369.9 598.17,-365.7 602.38,-361.5 606.57,-361.5 606.57,-361.5 717.43,-361.5 717.43,-361.5 721.62,-361.5 725.83,-365.7 725.83,-369.9 725.83,-369.9 725.83,-378.3 725.83,-378.3 725.83,-382.5 721.62,-386.7 717.43,-386.7"/>
<text xml:space="preserve" text-anchor="middle" x="662" y="-371" font-family="Helvetica,sans-Serif" font-size="8.00">CORE&#45;hcl&#45;structured&#45;config &#45; M</text>
</g>
<!-- v0_8_0_CORE_java_structural_parsing -->
<g id="node6" class="node">
<title>v0_8_0_CORE_java_structural_parsing</title>
<path fill="#c8e6c9" stroke="black" stroke-width="2" d="M865.8,-386.7C865.8,-386.7 748.2,-386.7 748.2,-386.7 744,-386.7 739.8,-382.5 739.8,-378.3 739.8,-378.3 739.8,-369.9 739.8,-369.9 739.8,-365.7 744,-361.5 748.2,-361.5 748.2,-361.5 865.8,-361.5 865.8,-361.5 870,-361.5 874.2,-365.7 874.2,-369.9 874.2,-369.9 874.2,-378.3 874.2,-378.3 874.2,-382.5 870,-386.7 865.8,-386.7"/>
<text xml:space="preserve" text-anchor="middle" x="807" y="-371" font-family="Helvetica,sans-Serif" font-size="8.00">CORE&#45;java&#45;structural&#45;parsing &#45; M</text>
</g>
<!-- v0_8_0_CORE_json_structured_config -->
<g id="node7" class="node">
<title>v0_8_0_CORE_json_structured_config</title>
<path fill="#c8e6c9" stroke="black" stroke-width="2" d="M1010.93,-386.7C1010.93,-386.7 897.07,-386.7 897.07,-386.7 892.88,-386.7 888.67,-382.5 888.67,-378.3 888.67,-378.3 888.67,-369.9 888.67,-369.9 888.67,-365.7 892.88,-361.5 897.07,-361.5 897.07,-361.5 1010.93,-361.5 1010.93,-361.5 1015.12,-361.5 1019.33,-365.7 1019.33,-369.9 1019.33,-369.9 1019.33,-378.3 1019.33,-378.3 1019.33,-382.5 1015.12,-386.7 1010.93,-386.7"/>
<text xml:space="preserve" text-anchor="middle" x="954" y="-371" font-family="Helvetica,sans-Serif" font-size="8.00">CORE&#45;json&#45;structured&#45;config &#45; S</text>
</g>
<!-- v0_8_0_CORE_jupyter_notebook_structure -->
<g id="node8" class="node">
<title>v0_8_0_CORE_jupyter_notebook_structure</title>
<path fill="#c8e6c9" stroke="black" stroke-width="2" d="M1174.3,-386.7C1174.3,-386.7 1041.7,-386.7 1041.7,-386.7 1037.5,-386.7 1033.3,-382.5 1033.3,-378.3 1033.3,-378.3 1033.3,-369.9 1033.3,-369.9 1033.3,-365.7 1037.5,-361.5 1041.7,-361.5 1041.7,-361.5 1174.3,-361.5 1174.3,-361.5 1178.5,-361.5 1182.7,-365.7 1182.7,-369.9 1182.7,-369.9 1182.7,-378.3 1182.7,-378.3 1182.7,-382.5 1178.5,-386.7 1174.3,-386.7"/>
<text xml:space="preserve" text-anchor="middle" x="1108" y="-371" font-family="Helvetica,sans-Serif" font-size="8.00">CORE&#45;jupyter&#45;notebook&#45;structure &#45; M</text>
</g>
<!-- v0_8_0_CORE_kotlin_structural_parsing -->
<g id="node9" class="node">
<title>v0_8_0_CORE_kotlin_structural_parsing</title>
<path fill="#c8e6c9" stroke="black" stroke-width="2" d="M1326.67,-386.7C1326.67,-386.7 1205.33,-386.7 1205.33,-386.7 1201.12,-386.7 1196.92,-382.5 1196.92,-378.3 1196.92,-378.3 1196.92,-369.9 1196.92,-369.9 1196.92,-365.7 1201.12,-361.5 1205.33,-361.5 1205.33,-361.5 1326.67,-361.5 1326.67,-361.5 1330.88,-361.5 1335.08,-365.7 1335.08,-369.9 1335.08,-369.9 1335.08,-378.3 1335.08,-378.3 1335.08,-382.5 1330.88,-386.7 1326.67,-386.7"/>
<text xml:space="preserve" text-anchor="middle" x="1266" y="-371" font-family="Helvetica,sans-Serif" font-size="8.00">CORE&#45;kotlin&#45;structural&#45;parsing &#45; M</text>
</g>
<!-- v0_8_0_CORE_php_structural_parsing -->
<g id="node10" class="node">
<title>v0_8_0_CORE_php_structural_parsing</title>
<path fill="#c8e6c9" stroke="black" stroke-width="2" d="M1474.42,-386.7C1474.42,-386.7 1357.58,-386.7 1357.58,-386.7 1353.38,-386.7 1349.17,-382.5 1349.17,-378.3 1349.17,-378.3 1349.17,-369.9 1349.17,-369.9 1349.17,-365.7 1353.38,-361.5 1357.58,-361.5 1357.58,-361.5 1474.42,-361.5 1474.42,-361.5 1478.62,-361.5 1482.83,-365.7 1482.83,-369.9 1482.83,-369.9 1482.83,-378.3 1482.83,-378.3 1482.83,-382.5 1478.62,-386.7 1474.42,-386.7"/>
<text xml:space="preserve" text-anchor="middle" x="1416" y="-371" font-family="Helvetica,sans-Serif" font-size="8.00">CORE&#45;php&#45;structural&#45;parsing &#45; M</text>
</g>
<!-- v0_8_0_CORE_pr_review_structural_summary -->
<g id="node11" class="node">
<title>v0_8_0_CORE_pr_review_structural_summary</title>
<path fill="#c8e6c9" stroke="black" stroke-width="2" d="M1648.92,-386.7C1648.92,-386.7 1505.08,-386.7 1505.08,-386.7 1500.88,-386.7 1496.67,-382.5 1496.67,-378.3 1496.67,-378.3 1496.67,-369.9 1496.67,-369.9 1496.67,-365.7 1500.88,-361.5 1505.08,-361.5 1505.08,-361.5 1648.92,-361.5 1648.92,-361.5 1653.12,-361.5 1657.33,-365.7 1657.33,-369.9 1657.33,-369.9 1657.33,-378.3 1657.33,-378.3 1657.33,-382.5 1653.12,-386.7 1648.92,-386.7"/>
<text xml:space="preserve" text-anchor="middle" x="1577" y="-371" font-family="Helvetica,sans-Serif" font-size="8.00">CORE&#45;pr&#45;review&#45;structural&#45;summary &#45; M</text>
</g>
<!-- v0_8_0_CORE_python_structural_parsing -->
<g id="node12" class="node">
<title>v0_8_0_CORE_python_structural_parsing</title>
<path fill="#c8e6c9" stroke="black" stroke-width="2" d="M1805.92,-386.7C1805.92,-386.7 1680.08,-386.7 1680.08,-386.7 1675.88,-386.7 1671.67,-382.5 1671.67,-378.3 1671.67,-378.3 1671.67,-369.9 1671.67,-369.9 1671.67,-365.7 1675.88,-361.5 1680.08,-361.5 1680.08,-361.5 1805.92,-361.5 1805.92,-361.5 1810.12,-361.5 1814.33,-365.7 1814.33,-369.9 1814.33,-369.9 1814.33,-378.3 1814.33,-378.3 1814.33,-382.5 1810.12,-386.7 1805.92,-386.7"/>
<text xml:space="preserve" text-anchor="middle" x="1743" y="-371" font-family="Helvetica,sans-Serif" font-size="8.00">CORE&#45;python&#45;structural&#45;parsing &#45; S</text>
</g>
<!-- v0_8_0_CORE_ruby_structural_parsing -->
<g id="node13" class="node">
<title>v0_8_0_CORE_ruby_structural_parsing</title>
<path fill="#c8e6c9" stroke="black" stroke-width="2" d="M1955.55,-386.7C1955.55,-386.7 1836.45,-386.7 1836.45,-386.7 1832.25,-386.7 1828.05,-382.5 1828.05,-378.3 1828.05,-378.3 1828.05,-369.9 1828.05,-369.9 1828.05,-365.7 1832.25,-361.5 1836.45,-361.5 1836.45,-361.5 1955.55,-361.5 1955.55,-361.5 1959.75,-361.5 1963.95,-365.7 1963.95,-369.9 1963.95,-369.9 1963.95,-378.3 1963.95,-378.3 1963.95,-382.5 1959.75,-386.7 1955.55,-386.7"/>
<text xml:space="preserve" text-anchor="middle" x="1896" y="-371" font-family="Helvetica,sans-Serif" font-size="8.00">CORE&#45;ruby&#45;structural&#45;parsing &#45; M</text>
</g>
<!-- v0_8_0_CORE_shell_structural_parsing -->
<g id="node14" class="node">
<title>v0_8_0_CORE_shell_structural_parsing</title>
<path fill="#c8e6c9" stroke="black" stroke-width="2" d="M2105.55,-386.7C2105.55,-386.7 1986.45,-386.7 1986.45,-386.7 1982.25,-386.7 1978.05,-382.5 1978.05,-378.3 1978.05,-378.3 1978.05,-369.9 1978.05,-369.9 1978.05,-365.7 1982.25,-361.5 1986.45,-361.5 1986.45,-361.5 2105.55,-361.5 2105.55,-361.5 2109.75,-361.5 2113.95,-365.7 2113.95,-369.9 2113.95,-369.9 2113.95,-378.3 2113.95,-378.3 2113.95,-382.5 2109.75,-386.7 2105.55,-386.7"/>
<text xml:space="preserve" text-anchor="middle" x="2046" y="-371" font-family="Helvetica,sans-Serif" font-size="8.00">CORE&#45;shell&#45;structural&#45;parsing &#45; M</text>
</g>
<!-- v0_8_0_CORE_sql_structural_parsing -->
<g id="node15" class="node">
<title>v0_8_0_CORE_sql_structural_parsing</title>
<path fill="#c8e6c9" stroke="black" stroke-width="2" d="M2249.55,-386.7C2249.55,-386.7 2136.45,-386.7 2136.45,-386.7 2132.25,-386.7 2128.05,-382.5 2128.05,-378.3 2128.05,-378.3 2128.05,-369.9 2128.05,-369.9 2128.05,-365.7 2132.25,-361.5 2136.45,-361.5 2136.45,-361.5 2249.55,-361.5 2249.55,-361.5 2253.75,-361.5 2257.95,-365.7 2257.95,-369.9 2257.95,-369.9 2257.95,-378.3 2257.95,-378.3 2257.95,-382.5 2253.75,-386.7 2249.55,-386.7"/>
<text xml:space="preserve" text-anchor="middle" x="2193" y="-371" font-family="Helvetica,sans-Serif" font-size="8.00">CORE&#45;sql&#45;structural&#45;parsing &#45; M</text>
</g>
<!-- v0_8_0_CORE_structural_test_coverage_map -->
<g id="node16" class="node">
<title>v0_8_0_CORE_structural_test_coverage_map</title>
<path fill="#c8e6c9" stroke="black" stroke-width="2" d="M2421.8,-386.7C2421.8,-386.7 2280.2,-386.7 2280.2,-386.7 2276,-386.7 2271.8,-382.5 2271.8,-378.3 2271.8,-378.3 2271.8,-369.9 2271.8,-369.9 2271.8,-365.7 2276,-361.5 2280.2,-361.5 2280.2,-361.5 2421.8,-361.5 2421.8,-361.5 2426,-361.5 2430.2,-365.7 2430.2,-369.9 2430.2,-369.9 2430.2,-378.3 2430.2,-378.3 2430.2,-382.5 2426,-386.7 2421.8,-386.7"/>
<text xml:space="preserve" text-anchor="middle" x="2351" y="-371" font-family="Helvetica,sans-Serif" font-size="8.00">CORE&#45;structural&#45;test&#45;coverage&#45;map &#45; M</text>
</g>
<!-- v0_8_0_CORE_swift_structural_parsing -->
<g id="node17" class="node">
<title>v0_8_0_CORE_swift_structural_parsing</title>
<path fill="#c8e6c9" stroke="black" stroke-width="2" d="M2571.55,-386.7C2571.55,-386.7 2452.45,-386.7 2452.45,-386.7 2448.25,-386.7 2444.05,-382.5 2444.05,-378.3 2444.05,-378.3 2444.05,-369.9 2444.05,-369.9 2444.05,-365.7 2448.25,-361.5 2452.45,-361.5 2452.45,-361.5 2571.55,-361.5 2571.55,-361.5 2575.75,-361.5 2579.95,-365.7 2579.95,-369.9 2579.95,-369.9 2579.95,-378.3 2579.95,-378.3 2579.95,-382.5 2575.75,-386.7 2571.55,-386.7"/>
<text xml:space="preserve" text-anchor="middle" x="2512" y="-371" font-family="Helvetica,sans-Serif" font-size="8.00">CORE&#45;swift&#45;structural&#45;parsing &#45; M</text>
</g>
<!-- v0_8_0_CORE_toml_structured_config -->
<g id="node18" class="node">
<title>v0_8_0_CORE_toml_structured_config</title>
<path fill="#c8e6c9" stroke="black" stroke-width="2" d="M2717.3,-386.7C2717.3,-386.7 2602.7,-386.7 2602.7,-386.7 2598.5,-386.7 2594.3,-382.5 2594.3,-378.3 2594.3,-378.3 2594.3,-369.9 2594.3,-369.9 2594.3,-365.7 2598.5,-361.5 2602.7,-361.5 2602.7,-361.5 2717.3,-361.5 2717.3,-361.5 2721.5,-361.5 2725.7,-365.7 2725.7,-369.9 2725.7,-369.9 2725.7,-378.3 2725.7,-378.3 2725.7,-382.5 2721.5,-386.7 2717.3,-386.7"/>
<text xml:space="preserve" text-anchor="middle" x="2660" y="-371" font-family="Helvetica,sans-Serif" font-size="8.00">CORE&#45;toml&#45;structured&#45;config &#45; S</text>
</g>
<!-- v0_8_0_CORE_tool_context_injection_contracts -->
<g id="node19" class="node">
<title>v0_8_0_CORE_tool_context_injection_contracts</title>
<path fill="#c8e6c9" stroke="black" stroke-width="2" d="M2894.05,-386.7C2894.05,-386.7 2747.95,-386.7 2747.95,-386.7 2743.75,-386.7 2739.55,-382.5 2739.55,-378.3 2739.55,-378.3 2739.55,-369.9 2739.55,-369.9 2739.55,-365.7 2743.75,-361.5 2747.95,-361.5 2747.95,-361.5 2894.05,-361.5 2894.05,-361.5 2898.25,-361.5 2902.45,-365.7 2902.45,-369.9 2902.45,-369.9 2902.45,-378.3 2902.45,-378.3 2902.45,-382.5 2898.25,-386.7 2894.05,-386.7"/>
<text xml:space="preserve" text-anchor="middle" x="2821" y="-371" font-family="Helvetica,sans-Serif" font-size="8.00">CORE&#45;tool&#45;context&#45;injection&#45;contracts &#45; M</text>
</g>
<!-- v0_8_0_CORE_yaml_structured_config -->
<g id="node20" class="node">
<title>v0_8_0_CORE_yaml_structured_config</title>
<path fill="#c8e6c9" stroke="black" stroke-width="2" d="M3042.8,-386.7C3042.8,-386.7 2925.2,-386.7 2925.2,-386.7 2921,-386.7 2916.8,-382.5 2916.8,-378.3 2916.8,-378.3 2916.8,-369.9 2916.8,-369.9 2916.8,-365.7 2921,-361.5 2925.2,-361.5 2925.2,-361.5 3042.8,-361.5 3042.8,-361.5 3047,-361.5 3051.2,-365.7 3051.2,-369.9 3051.2,-369.9 3051.2,-378.3 3051.2,-378.3 3051.2,-382.5 3047,-386.7 3042.8,-386.7"/>
<text xml:space="preserve" text-anchor="middle" x="2984" y="-371" font-family="Helvetica,sans-Serif" font-size="8.00">CORE&#45;yaml&#45;structured&#45;config &#45; M</text>
</g>
<!-- v0_8_0_SURFACE_git_graft_enhance_provenance_hints -->
<g id="node21" class="node">
<title>v0_8_0_SURFACE_git_graft_enhance_provenance_hints</title>
<path fill="#c8e6c9" stroke="black" stroke-width="2" d="M3238.42,-386.7C3238.42,-386.7 3073.58,-386.7 3073.58,-386.7 3069.38,-386.7 3065.18,-382.5 3065.18,-378.3 3065.18,-378.3 3065.18,-369.9 3065.18,-369.9 3065.18,-365.7 3069.38,-361.5 3073.58,-361.5 3073.58,-361.5 3238.42,-361.5 3238.42,-361.5 3242.62,-361.5 3246.82,-365.7 3246.82,-369.9 3246.82,-369.9 3246.82,-378.3 3246.82,-378.3 3246.82,-382.5 3242.62,-386.7 3238.42,-386.7"/>
<text xml:space="preserve" text-anchor="middle" x="3156" y="-371" font-family="Helvetica,sans-Serif" font-size="8.00">SURFACE&#45;git&#45;graft&#45;enhance&#45;provenance&#45;hints</text>
</g>
<!-- v0_8_0_SURFACE_pr_feedback_resolution_ledger -->
<g id="node22" class="node">
<title>v0_8_0_SURFACE_pr_feedback_resolution_ledger</title>
<path fill="#c8e6c9" stroke="black" stroke-width="2" d="M3428.42,-386.7C3428.42,-386.7 3269.58,-386.7 3269.58,-386.7 3265.38,-386.7 3261.18,-382.5 3261.18,-378.3 3261.18,-378.3 3261.18,-369.9 3261.18,-369.9 3261.18,-365.7 3265.38,-361.5 3269.58,-361.5 3269.58,-361.5 3428.42,-361.5 3428.42,-361.5 3432.62,-361.5 3436.82,-365.7 3436.82,-369.9 3436.82,-369.9 3436.82,-378.3 3436.82,-378.3 3436.82,-382.5 3432.62,-386.7 3428.42,-386.7"/>
<text xml:space="preserve" text-anchor="middle" x="3349" y="-371" font-family="Helvetica,sans-Serif" font-size="8.00">SURFACE&#45;pr&#45;feedback&#45;resolution&#45;ledger &#45; M</text>
</g>
<!-- v0_8_0_SURFACE_review_cooldown_status -->
<g id="node23" class="node">
<title>v0_8_0_SURFACE_review_cooldown_status</title>
<path fill="#c8e6c9" stroke="black" stroke-width="2" d="M3594.8,-386.7C3594.8,-386.7 3459.2,-386.7 3459.2,-386.7 3455,-386.7 3450.8,-382.5 3450.8,-378.3 3450.8,-378.3 3450.8,-369.9 3450.8,-369.9 3450.8,-365.7 3455,-361.5 3459.2,-361.5 3459.2,-361.5 3594.8,-361.5 3594.8,-361.5 3599,-361.5 3603.2,-365.7 3603.2,-369.9 3603.2,-369.9 3603.2,-378.3 3603.2,-378.3 3603.2,-382.5 3599,-386.7 3594.8,-386.7"/>
<text xml:space="preserve" text-anchor="middle" x="3527" y="-371" font-family="Helvetica,sans-Serif" font-size="8.00">SURFACE&#45;review&#45;cooldown&#45;status &#45; S</text>
</g>
<!-- v0_8_0_TEST_bounded_subprocess_policy -->
<g id="node24" class="node">
<title>v0_8_0_TEST_bounded_subprocess_policy</title>
<path fill="#c8e6c9" stroke="black" stroke-width="2" d="M3756.17,-386.7C3756.17,-386.7 3625.83,-386.7 3625.83,-386.7 3621.62,-386.7 3617.43,-382.5 3617.43,-378.3 3617.43,-378.3 3617.43,-369.9 3617.43,-369.9 3617.43,-365.7 3621.62,-361.5 3625.83,-361.5 3625.83,-361.5 3756.17,-361.5 3756.17,-361.5 3760.38,-361.5 3764.57,-365.7 3764.57,-369.9 3764.57,-369.9 3764.57,-378.3 3764.57,-378.3 3764.57,-382.5 3760.38,-386.7 3756.17,-386.7"/>
<text xml:space="preserve" text-anchor="middle" x="3691" y="-371" font-family="Helvetica,sans-Serif" font-size="8.00">TEST&#45;bounded&#45;subprocess&#45;policy &#45; S</text>
</g>
<!-- v0_8_0_WARP_dead_symbol_detection -->
<g id="node25" class="node">
<title>v0_8_0_WARP_dead_symbol_detection</title>
<path fill="#c8e6c9" stroke="black" stroke-width="2" d="M3905.17,-386.7C3905.17,-386.7 3786.83,-386.7 3786.83,-386.7 3782.62,-386.7 3778.43,-382.5 3778.43,-378.3 3778.43,-378.3 3778.43,-369.9 3778.43,-369.9 3778.43,-365.7 3782.62,-361.5 3786.83,-361.5 3786.83,-361.5 3905.17,-361.5 3905.17,-361.5 3909.38,-361.5 3913.57,-365.7 3913.57,-369.9 3913.57,-369.9 3913.57,-378.3 3913.57,-378.3 3913.57,-382.5 3909.38,-386.7 3905.17,-386.7"/>
<text xml:space="preserve" text-anchor="middle" x="3846" y="-371" font-family="Helvetica,sans-Serif" font-size="8.00">WARP&#45;dead&#45;symbol&#45;detection &#45; S</text>
</g>
<!-- v0_8_0_WARP_symbol_history_timeline -->
<g id="node26" class="node">
<title>v0_8_0_WARP_symbol_history_timeline</title>
<path fill="#c8e6c9" stroke="black" stroke-width="2" d="M4054.17,-386.7C4054.17,-386.7 3935.83,-386.7 3935.83,-386.7 3931.62,-386.7 3927.43,-382.5 3927.43,-378.3 3927.43,-378.3 3927.43,-369.9 3927.43,-369.9 3927.43,-365.7 3931.62,-361.5 3935.83,-361.5 3935.83,-361.5 4054.17,-361.5 4054.17,-361.5 4058.38,-361.5 4062.57,-365.7 4062.57,-369.9 4062.57,-369.9 4062.57,-378.3 4062.57,-378.3 4062.57,-382.5 4058.38,-386.7 4054.17,-386.7"/>
<text xml:space="preserve" text-anchor="middle" x="3995" y="-371" font-family="Helvetica,sans-Serif" font-size="8.00">WARP&#45;symbol&#45;history&#45;timeline &#45; S</text>
</g>
<!-- cool_ideas_WARP_temporal_structural_search -->
<g id="node100" class="node">
<title>cool_ideas_WARP_temporal_structural_search</title>
<path fill="#d4e8f7" stroke="black" d="M4228.68,-313.25C4228.68,-313.25 4095.33,-313.25 4095.33,-313.25 4091.12,-313.25 4086.93,-309.05 4086.93,-304.85 4086.93,-304.85 4086.93,-296.45 4086.93,-296.45 4086.93,-292.25 4091.12,-288.05 4095.33,-288.05 4095.33,-288.05 4228.68,-288.05 4228.68,-288.05 4232.88,-288.05 4237.07,-292.25 4237.07,-296.45 4237.07,-296.45 4237.07,-304.85 4237.07,-304.85 4237.07,-309.05 4232.88,-313.25 4228.68,-313.25"/>
<text xml:space="preserve" text-anchor="middle" x="4162" y="-297.55" font-family="Helvetica,sans-Serif" font-size="8.00">WARP&#45;temporal&#45;structural&#45;search &#45; M</text>
</g>
<!-- v0_8_0_WARP_symbol_history_timeline&#45;&gt;cool_ideas_WARP_temporal_structural_search -->
<g id="edge15" class="edge">
<title>v0_8_0_WARP_symbol_history_timeline&#45;&gt;cool_ideas_WARP_temporal_structural_search</title>
<path fill="none" stroke="#666666" d="M4024.09,-360.65C4053,-348.28 4097.33,-329.32 4127.88,-316.25"/>
<polygon fill="#666666" stroke="#666666" points="4128.5,-317.89 4132.41,-314.31 4127.12,-314.67 4128.5,-317.89"/>
<text xml:space="preserve" text-anchor="middle" x="4115.01" y="-334.85" font-family="Helvetica,sans-Serif" font-size="7.00">blocked_by/blocking</text>
</g>
<!-- cool_ideas_bounded_neighborhood_for_references -->
<g id="node27" class="node">
<title>cool_ideas_bounded_neighborhood_for_references</title>
<path fill="#d4e8f7" stroke="black" d="M4244.18,-386.7C4244.18,-386.7 4095.83,-386.7 4095.83,-386.7 4091.62,-386.7 4087.43,-382.5 4087.43,-378.3 4087.43,-378.3 4087.43,-369.9 4087.43,-369.9 4087.43,-365.7 4091.62,-361.5 4095.83,-361.5 4095.83,-361.5 4244.18,-361.5 4244.18,-361.5 4248.38,-361.5 4252.57,-365.7 4252.57,-369.9 4252.57,-369.9 4252.57,-378.3 4252.57,-378.3 4252.57,-382.5 4248.38,-386.7 4244.18,-386.7"/>
<text xml:space="preserve" text-anchor="middle" x="4170" y="-371" font-family="Helvetica,sans-Serif" font-size="8.00">bounded&#45;neighborhood&#45;for&#45;references &#45; S</text>
</g>
<!-- cool_ideas_CI_001_causal_collapse_visualizer -->
<g id="node28" class="node">
<title>cool_ideas_CI_001_causal_collapse_visualizer</title>
<path fill="#d4e8f7" stroke="black" d="M10160.3,-313.25C10160.3,-313.25 10033.7,-313.25 10033.7,-313.25 10029.5,-313.25 10025.3,-309.05 10025.3,-304.85 10025.3,-304.85 10025.3,-296.45 10025.3,-296.45 10025.3,-292.25 10029.5,-288.05 10033.7,-288.05 10033.7,-288.05 10160.3,-288.05 10160.3,-288.05 10164.5,-288.05 10168.7,-292.25 10168.7,-296.45 10168.7,-296.45 10168.7,-304.85 10168.7,-304.85 10168.7,-309.05 10164.5,-313.25 10160.3,-313.25"/>
<text xml:space="preserve" text-anchor="middle" x="10097" y="-297.55" font-family="Helvetica,sans-Serif" font-size="8.00">CI&#45;001&#45;causal&#45;collapse&#45;visualizer &#45; L</text>
</g>
<!-- cool_ideas_CI_002_deterministic_scenario_replay -->
<g id="node29" class="node">
<title>cool_ideas_CI_002_deterministic_scenario_replay</title>
<path fill="#d4e8f7" stroke="black" d="M4414.68,-386.7C4414.68,-386.7 4275.32,-386.7 4275.32,-386.7 4271.12,-386.7 4266.93,-382.5 4266.93,-378.3 4266.93,-378.3 4266.93,-369.9 4266.93,-369.9 4266.93,-365.7 4271.12,-361.5 4275.32,-361.5 4275.32,-361.5 4414.68,-361.5 4414.68,-361.5 4418.88,-361.5 4423.07,-365.7 4423.07,-369.9 4423.07,-369.9 4423.07,-378.3 4423.07,-378.3 4423.07,-382.5 4418.88,-386.7 4414.68,-386.7"/>
<text xml:space="preserve" text-anchor="middle" x="4345" y="-371" font-family="Helvetica,sans-Serif" font-size="8.00">CI&#45;002&#45;deterministic&#45;scenario&#45;replay &#45; L</text>
</g>
<!-- cool_ideas_CI_003_mcp_native_diff_protocol -->
<g id="node30" class="node">
<title>cool_ideas_CI_003_mcp_native_diff_protocol</title>
<path fill="#d4e8f7" stroke="black" d="M4568.8,-386.7C4568.8,-386.7 4445.2,-386.7 4445.2,-386.7 4441,-386.7 4436.8,-382.5 4436.8,-378.3 4436.8,-378.3 4436.8,-369.9 4436.8,-369.9 4436.8,-365.7 4441,-361.5 4445.2,-361.5 4445.2,-361.5 4568.8,-361.5 4568.8,-361.5 4573,-361.5 4577.2,-365.7 4577.2,-369.9 4577.2,-369.9 4577.2,-378.3 4577.2,-378.3 4577.2,-382.5 4573,-386.7 4568.8,-386.7"/>
<text xml:space="preserve" text-anchor="middle" x="4507" y="-371" font-family="Helvetica,sans-Serif" font-size="8.00">CI&#45;003&#45;mcp&#45;native&#45;diff&#45;protocol &#45; M</text>
</g>
<!-- cool_ideas_CLEAN_CODE_parallel_agent_merge_shared_file_loss -->
<g id="node31" class="node">
<title>cool_ideas_CLEAN_CODE_parallel_agent_merge_shared_file_loss</title>
<path fill="#d4e8f7" stroke="black" d="M4800.05,-386.7C4800.05,-386.7 4599.95,-386.7 4599.95,-386.7 4595.75,-386.7 4591.55,-382.5 4591.55,-378.3 4591.55,-378.3 4591.55,-369.9 4591.55,-369.9 4591.55,-365.7 4595.75,-361.5 4599.95,-361.5 4599.95,-361.5 4800.05,-361.5 4800.05,-361.5 4804.25,-361.5 4808.45,-365.7 4808.45,-369.9 4808.45,-369.9 4808.45,-378.3 4808.45,-378.3 4808.45,-382.5 4804.25,-386.7 4800.05,-386.7"/>
<text xml:space="preserve" text-anchor="middle" x="4700" y="-371" font-family="Helvetica,sans-Serif" font-size="8.00">CLEAN&#45;CODE&#45;parallel&#45;agent&#45;merge&#45;shared&#45;file&#45;loss &#45; M</text>
</g>
<!-- cool_ideas_CORE_agent_handoff_protocol -->
<g id="node32" class="node">
<title>cool_ideas_CORE_agent_handoff_protocol</title>
<path fill="#d4e8f7" stroke="black" d="M4950.93,-386.7C4950.93,-386.7 4831.07,-386.7 4831.07,-386.7 4826.88,-386.7 4822.68,-382.5 4822.68,-378.3 4822.68,-378.3 4822.68,-369.9 4822.68,-369.9 4822.68,-365.7 4826.88,-361.5 4831.07,-361.5 4831.07,-361.5 4950.93,-361.5 4950.93,-361.5 4955.12,-361.5 4959.32,-365.7 4959.32,-369.9 4959.32,-369.9 4959.32,-378.3 4959.32,-378.3 4959.32,-382.5 4955.12,-386.7 4950.93,-386.7"/>
<text xml:space="preserve" text-anchor="middle" x="4891" y="-371" font-family="Helvetica,sans-Serif" font-size="8.00">CORE&#45;agent&#45;handoff&#45;protocol &#45; M</text>
</g>
<!-- cool_ideas_CORE_auto_focus -->
<g id="node33" class="node">
<title>cool_ideas_CORE_auto_focus</title>
<path fill="#d4e8f7" stroke="black" d="M5054.68,-386.7C5054.68,-386.7 4981.32,-386.7 4981.32,-386.7 4977.12,-386.7 4972.93,-382.5 4972.93,-378.3 4972.93,-378.3 4972.93,-369.9 4972.93,-369.9 4972.93,-365.7 4977.12,-361.5 4981.32,-361.5 4981.32,-361.5 5054.68,-361.5 5054.68,-361.5 5058.88,-361.5 5063.07,-365.7 5063.07,-369.9 5063.07,-369.9 5063.07,-378.3 5063.07,-378.3 5063.07,-382.5 5058.88,-386.7 5054.68,-386.7"/>
<text xml:space="preserve" text-anchor="middle" x="5018" y="-371" font-family="Helvetica,sans-Serif" font-size="8.00">CORE&#45;auto&#45;focus &#45; L</text>
</g>
<!-- cool_ideas_CORE_capture_range -->
<g id="node34" class="node">
<title>cool_ideas_CORE_capture_range</title>
<path fill="#d4e8f7" stroke="black" d="M5172.8,-386.7C5172.8,-386.7 5085.2,-386.7 5085.2,-386.7 5081,-386.7 5076.8,-382.5 5076.8,-378.3 5076.8,-378.3 5076.8,-369.9 5076.8,-369.9 5076.8,-365.7 5081,-361.5 5085.2,-361.5 5085.2,-361.5 5172.8,-361.5 5172.8,-361.5 5177,-361.5 5181.2,-365.7 5181.2,-369.9 5181.2,-369.9 5181.2,-378.3 5181.2,-378.3 5181.2,-382.5 5177,-386.7 5172.8,-386.7"/>
<text xml:space="preserve" text-anchor="middle" x="5129" y="-371" font-family="Helvetica,sans-Serif" font-size="8.00">CORE&#45;capture&#45;range &#45; S</text>
</g>
<!-- cool_ideas_CORE_constructor_in_disguise_lint -->
<g id="node35" class="node">
<title>cool_ideas_CORE_constructor_in_disguise_lint</title>
<path fill="#d4e8f7" stroke="black" d="M5334.55,-386.7C5334.55,-386.7 5203.45,-386.7 5203.45,-386.7 5199.25,-386.7 5195.05,-382.5 5195.05,-378.3 5195.05,-378.3 5195.05,-369.9 5195.05,-369.9 5195.05,-365.7 5199.25,-361.5 5203.45,-361.5 5203.45,-361.5 5334.55,-361.5 5334.55,-361.5 5338.75,-361.5 5342.95,-365.7 5342.95,-369.9 5342.95,-369.9 5342.95,-378.3 5342.95,-378.3 5342.95,-382.5 5338.75,-386.7 5334.55,-386.7"/>
<text xml:space="preserve" text-anchor="middle" x="5269" y="-371" font-family="Helvetica,sans-Serif" font-size="8.00">CORE&#45;constructor&#45;in&#45;disguise&#45;lint &#45; M</text>
</g>
<!-- cool_ideas_CORE_context_budget_forecasting -->
<g id="node36" class="node">
<title>cool_ideas_CORE_context_budget_forecasting</title>
<path fill="#d4e8f7" stroke="black" d="M5498.68,-386.7C5498.68,-386.7 5365.32,-386.7 5365.32,-386.7 5361.12,-386.7 5356.93,-382.5 5356.93,-378.3 5356.93,-378.3 5356.93,-369.9 5356.93,-369.9 5356.93,-365.7 5361.12,-361.5 5365.32,-361.5 5365.32,-361.5 5498.68,-361.5 5498.68,-361.5 5502.88,-361.5 5507.07,-365.7 5507.07,-369.9 5507.07,-369.9 5507.07,-378.3 5507.07,-378.3 5507.07,-382.5 5502.88,-386.7 5498.68,-386.7"/>
<text xml:space="preserve" text-anchor="middle" x="5432" y="-371" font-family="Helvetica,sans-Serif" font-size="8.00">CORE&#45;context&#45;budget&#45;forecasting &#45; M</text>
</g>
<!-- cool_ideas_CORE_conversation_primer -->
<g id="node37" class="node">
<title>cool_ideas_CORE_conversation_primer</title>
<path fill="#d4e8f7" stroke="black" d="M5638.68,-386.7C5638.68,-386.7 5529.32,-386.7 5529.32,-386.7 5525.12,-386.7 5520.93,-382.5 5520.93,-378.3 5520.93,-378.3 5520.93,-369.9 5520.93,-369.9 5520.93,-365.7 5525.12,-361.5 5529.32,-361.5 5529.32,-361.5 5638.68,-361.5 5638.68,-361.5 5642.88,-361.5 5647.07,-365.7 5647.07,-369.9 5647.07,-369.9 5647.07,-378.3 5647.07,-378.3 5647.07,-382.5 5642.88,-386.7 5638.68,-386.7"/>
<text xml:space="preserve" text-anchor="middle" x="5584" y="-371" font-family="Helvetica,sans-Serif" font-size="8.00">CORE&#45;conversation&#45;primer &#45; M</text>
</g>
<!-- cool_ideas_CORE_cross_session_resume -->
<g id="node38" class="node">
<title>cool_ideas_CORE_cross_session_resume</title>
<path fill="#d4e8f7" stroke="black" d="M5784.3,-386.7C5784.3,-386.7 5669.7,-386.7 5669.7,-386.7 5665.5,-386.7 5661.3,-382.5 5661.3,-378.3 5661.3,-378.3 5661.3,-369.9 5661.3,-369.9 5661.3,-365.7 5665.5,-361.5 5669.7,-361.5 5669.7,-361.5 5784.3,-361.5 5784.3,-361.5 5788.5,-361.5 5792.7,-365.7 5792.7,-369.9 5792.7,-369.9 5792.7,-378.3 5792.7,-378.3 5792.7,-382.5 5788.5,-386.7 5784.3,-386.7"/>
<text xml:space="preserve" text-anchor="middle" x="5727" y="-371" font-family="Helvetica,sans-Serif" font-size="8.00">CORE&#45;cross&#45;session&#45;resume &#45; S</text>
</g>
<!-- cool_ideas_CORE_graft_as_teacher -->
<g id="node39" class="node">
<title>cool_ideas_CORE_graft_as_teacher</title>
<path fill="#d4e8f7" stroke="black" d="M5909.18,-386.7C5909.18,-386.7 5814.82,-386.7 5814.82,-386.7 5810.62,-386.7 5806.43,-382.5 5806.43,-378.3 5806.43,-378.3 5806.43,-369.9 5806.43,-369.9 5806.43,-365.7 5810.62,-361.5 5814.82,-361.5 5814.82,-361.5 5909.18,-361.5 5909.18,-361.5 5913.38,-361.5 5917.57,-365.7 5917.57,-369.9 5917.57,-369.9 5917.57,-378.3 5917.57,-378.3 5917.57,-382.5 5913.38,-386.7 5909.18,-386.7"/>
<text xml:space="preserve" text-anchor="middle" x="5862" y="-371" font-family="Helvetica,sans-Serif" font-size="8.00">CORE&#45;graft&#45;as&#45;teacher &#45; S</text>
</g>
<!-- cool_ideas_CORE_graft_teach_learning_receipts -->
<g id="node40" class="node">
<title>cool_ideas_CORE_graft_teach_learning_receipts</title>
<path fill="#d4e8f7" stroke="black" d="M6077.93,-386.7C6077.93,-386.7 5940.07,-386.7 5940.07,-386.7 5935.88,-386.7 5931.68,-382.5 5931.68,-378.3 5931.68,-378.3 5931.68,-369.9 5931.68,-369.9 5931.68,-365.7 5935.88,-361.5 5940.07,-361.5 5940.07,-361.5 6077.93,-361.5 6077.93,-361.5 6082.12,-361.5 6086.32,-365.7 6086.32,-369.9 6086.32,-369.9 6086.32,-378.3 6086.32,-378.3 6086.32,-382.5 6082.12,-386.7 6077.93,-386.7"/>
<text xml:space="preserve" text-anchor="middle" x="6009" y="-371" font-family="Helvetica,sans-Serif" font-size="8.00">CORE&#45;graft&#45;teach&#45;learning&#45;receipts &#45; S</text>
</g>
<!-- cool_ideas_CORE_graft_tool_client -->
<g id="node41" class="node">
<title>cool_ideas_CORE_graft_tool_client</title>
<path fill="#d4e8f7" stroke="black" d="M6199.68,-386.7C6199.68,-386.7 6108.32,-386.7 6108.32,-386.7 6104.12,-386.7 6099.93,-382.5 6099.93,-378.3 6099.93,-378.3 6099.93,-369.9 6099.93,-369.9 6099.93,-365.7 6104.12,-361.5 6108.32,-361.5 6108.32,-361.5 6199.68,-361.5 6199.68,-361.5 6203.88,-361.5 6208.07,-365.7 6208.07,-369.9 6208.07,-369.9 6208.07,-378.3 6208.07,-378.3 6208.07,-382.5 6203.88,-386.7 6199.68,-386.7"/>
<text xml:space="preserve" text-anchor="middle" x="6154" y="-371" font-family="Helvetica,sans-Serif" font-size="8.00">CORE&#45;graft&#45;tool&#45;client &#45; M</text>
</g>
<!-- cool_ideas_CORE_horizon_of_readability -->
<g id="node42" class="node">
<title>cool_ideas_CORE_horizon_of_readability</title>
<path fill="#d4e8f7" stroke="black" d="M6343.55,-386.7C6343.55,-386.7 6230.45,-386.7 6230.45,-386.7 6226.25,-386.7 6222.05,-382.5 6222.05,-378.3 6222.05,-378.3 6222.05,-369.9 6222.05,-369.9 6222.05,-365.7 6226.25,-361.5 6230.45,-361.5 6230.45,-361.5 6343.55,-361.5 6343.55,-361.5 6347.75,-361.5 6351.95,-365.7 6351.95,-369.9 6351.95,-369.9 6351.95,-378.3 6351.95,-378.3 6351.95,-382.5 6347.75,-386.7 6343.55,-386.7"/>
<text xml:space="preserve" text-anchor="middle" x="6287" y="-371" font-family="Helvetica,sans-Serif" font-size="8.00">CORE&#45;horizon&#45;of&#45;readability &#45; M</text>
</g>
<!-- cool_ideas_CORE_lagrangian_policy -->
<g id="node43" class="node">
<title>cool_ideas_CORE_lagrangian_policy</title>
<path fill="#d4e8f7" stroke="black" d="M6475.55,-386.7C6475.55,-386.7 6374.45,-386.7 6374.45,-386.7 6370.25,-386.7 6366.05,-382.5 6366.05,-378.3 6366.05,-378.3 6366.05,-369.9 6366.05,-369.9 6366.05,-365.7 6370.25,-361.5 6374.45,-361.5 6374.45,-361.5 6475.55,-361.5 6475.55,-361.5 6479.75,-361.5 6483.95,-365.7 6483.95,-369.9 6483.95,-369.9 6483.95,-378.3 6483.95,-378.3 6483.95,-382.5 6479.75,-386.7 6475.55,-386.7"/>
<text xml:space="preserve" text-anchor="middle" x="6425" y="-371" font-family="Helvetica,sans-Serif" font-size="8.00">CORE&#45;lagrangian&#45;policy &#45; XL</text>
</g>
<!-- cool_ideas_CORE_migrate_to_slice_first_reads -->
<g id="node44" class="node">
<title>cool_ideas_CORE_migrate_to_slice_first_reads</title>
<path fill="#d4e8f7" stroke="black" d="M13030.8,-313.25C13030.8,-313.25 12913.2,-313.25 12913.2,-313.25 12909,-313.25 12904.8,-309.05 12904.8,-304.85 12904.8,-304.85 12904.8,-296.45 12904.8,-296.45 12904.8,-292.25 12909,-288.05 12913.2,-288.05 12913.2,-288.05 13030.8,-288.05 13030.8,-288.05 13035,-288.05 13039.2,-292.25 13039.2,-296.45 13039.2,-296.45 13039.2,-304.85 13039.2,-304.85 13039.2,-309.05 13035,-313.25 13030.8,-313.25"/>
<text xml:space="preserve" text-anchor="middle" x="12972" y="-297.55" font-family="Helvetica,sans-Serif" font-size="8.00">CORE&#45;migrate&#45;to&#45;slice&#45;first&#45;reads</text>
</g>
<!-- cool_ideas_CORE_multi_agent_conflict_detection -->
<g id="node45" class="node">
<title>cool_ideas_CORE_multi_agent_conflict_detection</title>
<path fill="#d4e8f7" stroke="black" d="M6643.93,-386.7C6643.93,-386.7 6506.07,-386.7 6506.07,-386.7 6501.88,-386.7 6497.68,-382.5 6497.68,-378.3 6497.68,-378.3 6497.68,-369.9 6497.68,-369.9 6497.68,-365.7 6501.88,-361.5 6506.07,-361.5 6506.07,-361.5 6643.93,-361.5 6643.93,-361.5 6648.12,-361.5 6652.32,-365.7 6652.32,-369.9 6652.32,-369.9 6652.32,-378.3 6652.32,-378.3 6652.32,-382.5 6648.12,-386.7 6643.93,-386.7"/>
<text xml:space="preserve" text-anchor="middle" x="6575" y="-371" font-family="Helvetica,sans-Serif" font-size="8.00">CORE&#45;multi&#45;agent&#45;conflict&#45;detection &#45; L</text>
</g>
<!-- cool_ideas_CORE_policy_playground -->
<g id="node46" class="node">
<title>cool_ideas_CORE_policy_playground</title>
<path fill="#d4e8f7" stroke="black" d="M6773.43,-386.7C6773.43,-386.7 6674.57,-386.7 6674.57,-386.7 6670.38,-386.7 6666.18,-382.5 6666.18,-378.3 6666.18,-378.3 6666.18,-369.9 6666.18,-369.9 6666.18,-365.7 6670.38,-361.5 6674.57,-361.5 6674.57,-361.5 6773.43,-361.5 6773.43,-361.5 6777.62,-361.5 6781.82,-365.7 6781.82,-369.9 6781.82,-369.9 6781.82,-378.3 6781.82,-378.3 6781.82,-382.5 6777.62,-386.7 6773.43,-386.7"/>
<text xml:space="preserve" text-anchor="middle" x="6724" y="-371" font-family="Helvetica,sans-Serif" font-size="8.00">CORE&#45;policy&#45;playground &#45; S</text>
</g>
<!-- cool_ideas_CORE_policy_profiles -->
<g id="node47" class="node">
<title>cool_ideas_CORE_policy_profiles</title>
<path fill="#d4e8f7" stroke="black" d="M6890.05,-386.7C6890.05,-386.7 6803.95,-386.7 6803.95,-386.7 6799.75,-386.7 6795.55,-382.5 6795.55,-378.3 6795.55,-378.3 6795.55,-369.9 6795.55,-369.9 6795.55,-365.7 6799.75,-361.5 6803.95,-361.5 6803.95,-361.5 6890.05,-361.5 6890.05,-361.5 6894.25,-361.5 6898.45,-365.7 6898.45,-369.9 6898.45,-369.9 6898.45,-378.3 6898.45,-378.3 6898.45,-382.5 6894.25,-386.7 6890.05,-386.7"/>
<text xml:space="preserve" text-anchor="middle" x="6847" y="-371" font-family="Helvetica,sans-Serif" font-size="8.00">CORE&#45;policy&#45;profiles &#45; M</text>
</g>
<!-- cool_ideas_CORE_self_tuning_governor -->
<g id="node48" class="node">
<title>cool_ideas_CORE_self_tuning_governor</title>
<path fill="#d4e8f7" stroke="black" d="M7031.05,-386.7C7031.05,-386.7 6920.95,-386.7 6920.95,-386.7 6916.75,-386.7 6912.55,-382.5 6912.55,-378.3 6912.55,-378.3 6912.55,-369.9 6912.55,-369.9 6912.55,-365.7 6916.75,-361.5 6920.95,-361.5 6920.95,-361.5 7031.05,-361.5 7031.05,-361.5 7035.25,-361.5 7039.45,-365.7 7039.45,-369.9 7039.45,-369.9 7039.45,-378.3 7039.45,-378.3 7039.45,-382.5 7035.25,-386.7 7031.05,-386.7"/>
<text xml:space="preserve" text-anchor="middle" x="6976" y="-371" font-family="Helvetica,sans-Serif" font-size="8.00">CORE&#45;self&#45;tuning&#45;governor &#45; M</text>
</g>
<!-- cool_ideas_CORE_session_knowledge_map -->
<g id="node49" class="node">
<title>cool_ideas_CORE_session_knowledge_map</title>
<path fill="#d4e8f7" stroke="black" d="M7184.43,-386.7C7184.43,-386.7 7061.57,-386.7 7061.57,-386.7 7057.38,-386.7 7053.18,-382.5 7053.18,-378.3 7053.18,-378.3 7053.18,-369.9 7053.18,-369.9 7053.18,-365.7 7057.38,-361.5 7061.57,-361.5 7061.57,-361.5 7184.43,-361.5 7184.43,-361.5 7188.62,-361.5 7192.82,-365.7 7192.82,-369.9 7192.82,-369.9 7192.82,-378.3 7192.82,-378.3 7192.82,-382.5 7188.62,-386.7 7184.43,-386.7"/>
<text xml:space="preserve" text-anchor="middle" x="7123" y="-371" font-family="Helvetica,sans-Serif" font-size="8.00">CORE&#45;session&#45;knowledge&#45;map &#45; S</text>
</g>
<!-- cool_ideas_CORE_speculative_read_cost -->
<g id="node50" class="node">
<title>cool_ideas_CORE_speculative_read_cost</title>
<path fill="#d4e8f7" stroke="black" d="M7327.18,-386.7C7327.18,-386.7 7214.82,-386.7 7214.82,-386.7 7210.62,-386.7 7206.43,-382.5 7206.43,-378.3 7206.43,-378.3 7206.43,-369.9 7206.43,-369.9 7206.43,-365.7 7210.62,-361.5 7214.82,-361.5 7214.82,-361.5 7327.18,-361.5 7327.18,-361.5 7331.38,-361.5 7335.57,-365.7 7335.57,-369.9 7335.57,-369.9 7335.57,-378.3 7335.57,-378.3 7335.57,-382.5 7331.38,-386.7 7327.18,-386.7"/>
<text xml:space="preserve" text-anchor="middle" x="7271" y="-371" font-family="Helvetica,sans-Serif" font-size="8.00">CORE&#45;speculative&#45;read&#45;cost &#45; S</text>
</g>
<!-- cool_ideas_CORE_structural_session_replay -->
<g id="node51" class="node">
<title>cool_ideas_CORE_structural_session_replay</title>
<path fill="#d4e8f7" stroke="black" d="M7483.55,-386.7C7483.55,-386.7 7358.45,-386.7 7358.45,-386.7 7354.25,-386.7 7350.05,-382.5 7350.05,-378.3 7350.05,-378.3 7350.05,-369.9 7350.05,-369.9 7350.05,-365.7 7354.25,-361.5 7358.45,-361.5 7358.45,-361.5 7483.55,-361.5 7483.55,-361.5 7487.75,-361.5 7491.95,-365.7 7491.95,-369.9 7491.95,-369.9 7491.95,-378.3 7491.95,-378.3 7491.95,-382.5 7487.75,-386.7 7483.55,-386.7"/>
<text xml:space="preserve" text-anchor="middle" x="7421" y="-371" font-family="Helvetica,sans-Serif" font-size="8.00">CORE&#45;structural&#45;session&#45;replay &#45; M</text>
</g>
<!-- cool_ideas_CORE_wire_primitives_into_runtime -->
<g id="node52" class="node">
<title>cool_ideas_CORE_wire_primitives_into_runtime</title>
<path fill="#d4e8f7" stroke="black" d="M7649.43,-386.7C7649.43,-386.7 7514.57,-386.7 7514.57,-386.7 7510.38,-386.7 7506.18,-382.5 7506.18,-378.3 7506.18,-378.3 7506.18,-369.9 7506.18,-369.9 7506.18,-365.7 7510.38,-361.5 7514.57,-361.5 7514.57,-361.5 7649.43,-361.5 7649.43,-361.5 7653.62,-361.5 7657.82,-365.7 7657.82,-369.9 7657.82,-369.9 7657.82,-378.3 7657.82,-378.3 7657.82,-382.5 7653.62,-386.7 7649.43,-386.7"/>
<text xml:space="preserve" text-anchor="middle" x="7582" y="-371" font-family="Helvetica,sans-Serif" font-size="8.00">CORE&#45;wire&#45;primitives&#45;into&#45;runtime &#45; M</text>
</g>
<!-- cool_ideas_monitor_tick_ceiling_tracking -->
<g id="node53" class="node">
<title>cool_ideas_monitor_tick_ceiling_tracking</title>
<path fill="#d4e8f7" stroke="black" d="M7787.55,-386.7C7787.55,-386.7 7680.45,-386.7 7680.45,-386.7 7676.25,-386.7 7672.05,-382.5 7672.05,-378.3 7672.05,-378.3 7672.05,-369.9 7672.05,-369.9 7672.05,-365.7 7676.25,-361.5 7680.45,-361.5 7680.45,-361.5 7787.55,-361.5 7787.55,-361.5 7791.75,-361.5 7795.95,-365.7 7795.95,-369.9 7795.95,-369.9 7795.95,-378.3 7795.95,-378.3 7795.95,-382.5 7791.75,-386.7 7787.55,-386.7"/>
<text xml:space="preserve" text-anchor="middle" x="7734" y="-371" font-family="Helvetica,sans-Serif" font-size="8.00">monitor&#45;tick&#45;ceiling&#45;tracking &#45; S</text>
</g>
<!-- cool_ideas_WARP_background_indexing -->
<g id="node70" class="node">
<title>cool_ideas_WARP_background_indexing</title>
<path fill="#d4e8f7" stroke="black" d="M7790.55,-313.25C7790.55,-313.25 7677.45,-313.25 7677.45,-313.25 7673.25,-313.25 7669.05,-309.05 7669.05,-304.85 7669.05,-304.85 7669.05,-296.45 7669.05,-296.45 7669.05,-292.25 7673.25,-288.05 7677.45,-288.05 7677.45,-288.05 7790.55,-288.05 7790.55,-288.05 7794.75,-288.05 7798.95,-292.25 7798.95,-296.45 7798.95,-296.45 7798.95,-304.85 7798.95,-304.85 7798.95,-309.05 7794.75,-313.25 7790.55,-313.25"/>
<text xml:space="preserve" text-anchor="middle" x="7734" y="-297.55" font-family="Helvetica,sans-Serif" font-size="8.00">WARP&#45;background&#45;indexing &#45; M</text>
</g>
<!-- cool_ideas_monitor_tick_ceiling_tracking&#45;&gt;cool_ideas_WARP_background_indexing -->
<g id="edge1" class="edge">
<title>cool_ideas_monitor_tick_ceiling_tracking&#45;&gt;cool_ideas_WARP_background_indexing</title>
<path fill="none" stroke="#666666" d="M7734,-361.3C7734,-350.1 7734,-333.08 7734,-320.08"/>
<polygon fill="#666666" stroke="#666666" points="7735.75,-320.22 7734,-315.22 7732.25,-320.22 7735.75,-320.22"/>
<text xml:space="preserve" text-anchor="middle" x="7765.5" y="-334.85" font-family="Helvetica,sans-Serif" font-size="7.00">blocked_by/blocking</text>
</g>
<!-- cool_ideas_SURFACE_active_causal_workspace_status -->
<g id="node54" class="node">
<title>cool_ideas_SURFACE_active_causal_workspace_status</title>
<path fill="#d4e8f7" stroke="black" d="M7982.05,-386.7C7982.05,-386.7 7817.95,-386.7 7817.95,-386.7 7813.75,-386.7 7809.55,-382.5 7809.55,-378.3 7809.55,-378.3 7809.55,-369.9 7809.55,-369.9 7809.55,-365.7 7813.75,-361.5 7817.95,-361.5 7817.95,-361.5 7982.05,-361.5 7982.05,-361.5 7986.25,-361.5 7990.45,-365.7 7990.45,-369.9 7990.45,-369.9 7990.45,-378.3 7990.45,-378.3 7990.45,-382.5 7986.25,-386.7 7982.05,-386.7"/>
<text xml:space="preserve" text-anchor="middle" x="7900" y="-371" font-family="Helvetica,sans-Serif" font-size="8.00">SURFACE&#45;active&#45;causal&#45;workspace&#45;status &#45; M</text>
</g>
<!-- cool_ideas_SURFACE_ide_native_graft_integration -->
<g id="node60" class="node">
<title>cool_ideas_SURFACE_ide_native_graft_integration</title>
<path fill="#d4e8f7" stroke="black" d="M7975.3,-313.25C7975.3,-313.25 7824.7,-313.25 7824.7,-313.25 7820.5,-313.25 7816.3,-309.05 7816.3,-304.85 7816.3,-304.85 7816.3,-296.45 7816.3,-296.45 7816.3,-292.25 7820.5,-288.05 7824.7,-288.05 7824.7,-288.05 7975.3,-288.05 7975.3,-288.05 7979.5,-288.05 7983.7,-292.25 7983.7,-296.45 7983.7,-296.45 7983.7,-304.85 7983.7,-304.85 7983.7,-309.05 7979.5,-313.25 7975.3,-313.25"/>
<text xml:space="preserve" text-anchor="middle" x="7900" y="-297.55" font-family="Helvetica,sans-Serif" font-size="8.00">SURFACE&#45;ide&#45;native&#45;graft&#45;integration &#45; XL</text>
</g>
<!-- cool_ideas_SURFACE_active_causal_workspace_status&#45;&gt;cool_ideas_SURFACE_ide_native_graft_integration -->
<g id="edge2" class="edge">
<title>cool_ideas_SURFACE_active_causal_workspace_status&#45;&gt;cool_ideas_SURFACE_ide_native_graft_integration</title>
<path fill="none" stroke="#666666" d="M7900,-361.3C7900,-350.1 7900,-333.08 7900,-320.08"/>
<polygon fill="#666666" stroke="#666666" points="7901.75,-320.22 7900,-315.22 7898.25,-320.22 7901.75,-320.22"/>
<text xml:space="preserve" text-anchor="middle" x="7931.5" y="-334.85" font-family="Helvetica,sans-Serif" font-size="7.00">blocked_by/blocking</text>
</g>
<!-- cool_ideas_SURFACE_attach_to_existing_causal_session -->
<g id="node55" class="node">
<title>cool_ideas_SURFACE_attach_to_existing_causal_session</title>
<path fill="#d4e8f7" stroke="black" d="M8181.3,-386.7C8181.3,-386.7 8012.7,-386.7 8012.7,-386.7 8008.5,-386.7 8004.3,-382.5 8004.3,-378.3 8004.3,-378.3 8004.3,-369.9 8004.3,-369.9 8004.3,-365.7 8008.5,-361.5 8012.7,-361.5 8012.7,-361.5 8181.3,-361.5 8181.3,-361.5 8185.5,-361.5 8189.7,-365.7 8189.7,-369.9 8189.7,-369.9 8189.7,-378.3 8189.7,-378.3 8189.7,-382.5 8185.5,-386.7 8181.3,-386.7"/>
<text xml:space="preserve" text-anchor="middle" x="8097" y="-371" font-family="Helvetica,sans-Serif" font-size="8.00">SURFACE&#45;attach&#45;to&#45;existing&#45;causal&#45;session &#45; M</text>
</g>
<!-- cool_ideas_SURFACE_bijou_daemon_control_plane_actions -->
<g id="node56" class="node">
<title>cool_ideas_SURFACE_bijou_daemon_control_plane_actions</title>
<path fill="#d4e8f7" stroke="black" d="M8389.43,-386.7C8389.43,-386.7 8212.57,-386.7 8212.57,-386.7 8208.38,-386.7 8204.17,-382.5 8204.17,-378.3 8204.17,-378.3 8204.17,-369.9 8204.17,-369.9 8204.17,-365.7 8208.38,-361.5 8212.57,-361.5 8212.57,-361.5 8389.43,-361.5 8389.43,-361.5 8393.62,-361.5 8397.83,-365.7 8397.83,-369.9 8397.83,-369.9 8397.83,-378.3 8397.83,-378.3 8397.83,-382.5 8393.62,-386.7 8389.43,-386.7"/>
<text xml:space="preserve" text-anchor="middle" x="8301" y="-371" font-family="Helvetica,sans-Serif" font-size="8.00">SURFACE&#45;bijou&#45;daemon&#45;control&#45;plane&#45;actions &#45; L</text>
</g>
<!-- cool_ideas_SURFACE_bijou_daemon_status_live_refresh -->
<g id="node57" class="node">
<title>cool_ideas_SURFACE_bijou_daemon_status_live_refresh</title>
<path fill="#d4e8f7" stroke="black" d="M8589.3,-386.7C8589.3,-386.7 8420.7,-386.7 8420.7,-386.7 8416.5,-386.7 8412.3,-382.5 8412.3,-378.3 8412.3,-378.3 8412.3,-369.9 8412.3,-369.9 8412.3,-365.7 8416.5,-361.5 8420.7,-361.5 8420.7,-361.5 8589.3,-361.5 8589.3,-361.5 8593.5,-361.5 8597.7,-365.7 8597.7,-369.9 8597.7,-369.9 8597.7,-378.3 8597.7,-378.3 8597.7,-382.5 8593.5,-386.7 8589.3,-386.7"/>
<text xml:space="preserve" text-anchor="middle" x="8505" y="-371" font-family="Helvetica,sans-Serif" font-size="8.00">SURFACE&#45;bijou&#45;daemon&#45;status&#45;live&#45;refresh &#45; M</text>
</g>
<!-- cool_ideas_SURFACE_git_graft_enhance_expanded_git_subcommands -->
<g id="node58" class="node">
<title>cool_ideas_SURFACE_git_graft_enhance_expanded_git_subcommands</title>
<path fill="#d4e8f7" stroke="black" d="M8824.3,-386.7C8824.3,-386.7 8619.7,-386.7 8619.7,-386.7 8615.5,-386.7 8611.3,-382.5 8611.3,-378.3 8611.3,-378.3 8611.3,-369.9 8611.3,-369.9 8611.3,-365.7 8615.5,-361.5 8619.7,-361.5 8619.7,-361.5 8824.3,-361.5 8824.3,-361.5 8828.5,-361.5 8832.7,-365.7 8832.7,-369.9 8832.7,-369.9 8832.7,-378.3 8832.7,-378.3 8832.7,-382.5 8828.5,-386.7 8824.3,-386.7"/>
<text xml:space="preserve" text-anchor="middle" x="8722" y="-371" font-family="Helvetica,sans-Serif" font-size="8.00">SURFACE&#45;git&#45;graft&#45;enhance&#45;expanded&#45;git&#45;subcommands</text>
</g>
<!-- cool_ideas_SURFACE_graft_review_pr_number_adapter -->
<g id="node59" class="node">
<title>cool_ideas_SURFACE_graft_review_pr_number_adapter</title>
<path fill="#d4e8f7" stroke="black" d="M9022.93,-386.7C9022.93,-386.7 8855.07,-386.7 8855.07,-386.7 8850.88,-386.7 8846.67,-382.5 8846.67,-378.3 8846.67,-378.3 8846.67,-369.9 8846.67,-369.9 8846.67,-365.7 8850.88,-361.5 8855.07,-361.5 8855.07,-361.5 9022.93,-361.5 9022.93,-361.5 9027.12,-361.5 9031.33,-365.7 9031.33,-369.9 9031.33,-369.9 9031.33,-378.3 9031.33,-378.3 9031.33,-382.5 9027.12,-386.7 9022.93,-386.7"/>
<text xml:space="preserve" text-anchor="middle" x="8939" y="-371" font-family="Helvetica,sans-Serif" font-size="8.00">SURFACE&#45;graft&#45;review&#45;pr&#45;number&#45;adapter &#45; M</text>
</g>
<!-- cool_ideas_SURFACE_init_dry_run -->
<g id="node61" class="node">
<title>cool_ideas_SURFACE_init_dry_run</title>
<path fill="#d4e8f7" stroke="black" d="M9144.3,-386.7C9144.3,-386.7 9053.7,-386.7 9053.7,-386.7 9049.5,-386.7 9045.3,-382.5 9045.3,-378.3 9045.3,-378.3 9045.3,-369.9 9045.3,-369.9 9045.3,-365.7 9049.5,-361.5 9053.7,-361.5 9053.7,-361.5 9144.3,-361.5 9144.3,-361.5 9148.5,-361.5 9152.7,-365.7 9152.7,-369.9 9152.7,-369.9 9152.7,-378.3 9152.7,-378.3 9152.7,-382.5 9148.5,-386.7 9144.3,-386.7"/>
<text xml:space="preserve" text-anchor="middle" x="9099" y="-371" font-family="Helvetica,sans-Serif" font-size="8.00">SURFACE&#45;init&#45;dry&#45;run &#45; S</text>
</g>
<!-- cool_ideas_SURFACE_local_history_dag_render_mode_and_count_legend -->
<g id="node62" class="node">
<title>cool_ideas_SURFACE_local_history_dag_render_mode_and_count_legend</title>
<path fill="#d4e8f7" stroke="black" d="M9401.18,-386.7C9401.18,-386.7 9174.82,-386.7 9174.82,-386.7 9170.62,-386.7 9166.42,-382.5 9166.42,-378.3 9166.42,-378.3 9166.42,-369.9 9166.42,-369.9 9166.42,-365.7 9170.62,-361.5 9174.82,-361.5 9174.82,-361.5 9401.18,-361.5 9401.18,-361.5 9405.38,-361.5 9409.58,-365.7 9409.58,-369.9 9409.58,-369.9 9409.58,-378.3 9409.58,-378.3 9409.58,-382.5 9405.38,-386.7 9401.18,-386.7"/>
<text xml:space="preserve" text-anchor="middle" x="9288" y="-371" font-family="Helvetica,sans-Serif" font-size="8.00">SURFACE&#45;local&#45;history&#45;dag&#45;render&#45;mode&#45;and&#45;count&#45;legend &#45; S</text>
</g>
<!-- cool_ideas_SURFACE_non_codex_instruction_bootstrap_parity -->
<g id="node63" class="node">
<title>cool_ideas_SURFACE_non_codex_instruction_bootstrap_parity</title>
<path fill="#d4e8f7" stroke="black" d="M9620.43,-386.7C9620.43,-386.7 9431.57,-386.7 9431.57,-386.7 9427.38,-386.7 9423.17,-382.5 9423.17,-378.3 9423.17,-378.3 9423.17,-369.9 9423.17,-369.9 9423.17,-365.7 9427.38,-361.5 9431.57,-361.5 9431.57,-361.5 9620.43,-361.5 9620.43,-361.5 9624.62,-361.5 9628.83,-365.7 9628.83,-369.9 9628.83,-369.9 9628.83,-378.3 9628.83,-378.3 9628.83,-382.5 9624.62,-386.7 9620.43,-386.7"/>
<text xml:space="preserve" text-anchor="middle" x="9526" y="-371" font-family="Helvetica,sans-Serif" font-size="8.00">SURFACE&#45;non&#45;codex&#45;instruction&#45;bootstrap&#45;parity &#45; M</text>
</g>
<!-- cool_ideas_SURFACE_offer_rename_refactor -->
<g id="node64" class="node">
<title>cool_ideas_SURFACE_offer_rename_refactor</title>
<path fill="#d4e8f7" stroke="black" d="M9780.43,-386.7C9780.43,-386.7 9651.57,-386.7 9651.57,-386.7 9647.38,-386.7 9643.17,-382.5 9643.17,-378.3 9643.17,-378.3 9643.17,-369.9 9643.17,-369.9 9643.17,-365.7 9647.38,-361.5 9651.57,-361.5 9651.57,-361.5 9780.43,-361.5 9780.43,-361.5 9784.62,-361.5 9788.83,-365.7 9788.83,-369.9 9788.83,-369.9 9788.83,-378.3 9788.83,-378.3 9788.83,-382.5 9784.62,-386.7 9780.43,-386.7"/>
<text xml:space="preserve" text-anchor="middle" x="9716" y="-371" font-family="Helvetica,sans-Serif" font-size="8.00">SURFACE&#45;offer&#45;rename&#45;refactor &#45; L</text>
</g>
<!-- cool_ideas_SURFACE_terminal_activity_browser_tui -->
<g id="node65" class="node">
<title>cool_ideas_SURFACE_terminal_activity_browser_tui</title>
<path fill="#d4e8f7" stroke="black" d="M9960.55,-386.7C9960.55,-386.7 9811.45,-386.7 9811.45,-386.7 9807.25,-386.7 9803.05,-382.5 9803.05,-378.3 9803.05,-378.3 9803.05,-369.9 9803.05,-369.9 9803.05,-365.7 9807.25,-361.5 9811.45,-361.5 9811.45,-361.5 9960.55,-361.5 9960.55,-361.5 9964.75,-361.5 9968.95,-365.7 9968.95,-369.9 9968.95,-369.9 9968.95,-378.3 9968.95,-378.3 9968.95,-382.5 9964.75,-386.7 9960.55,-386.7"/>
<text xml:space="preserve" text-anchor="middle" x="9886" y="-371" font-family="Helvetica,sans-Serif" font-size="8.00">SURFACE&#45;terminal&#45;activity&#45;browser&#45;tui &#45; L</text>
</g>
<!-- cool_ideas_traverse_plus_query_hydration_helper -->
<g id="node66" class="node">
<title>cool_ideas_traverse_plus_query_hydration_helper</title>
<path fill="#d4e8f7" stroke="black" d="M10132.8,-386.7C10132.8,-386.7 9991.2,-386.7 9991.2,-386.7 9987,-386.7 9982.8,-382.5 9982.8,-378.3 9982.8,-378.3 9982.8,-369.9 9982.8,-369.9 9982.8,-365.7 9987,-361.5 9991.2,-361.5 9991.2,-361.5 10132.8,-361.5 10132.8,-361.5 10137,-361.5 10141.2,-365.7 10141.2,-369.9 10141.2,-369.9 10141.2,-378.3 10141.2,-378.3 10141.2,-382.5 10137,-386.7 10132.8,-386.7"/>
<text xml:space="preserve" text-anchor="middle" x="10062" y="-371" font-family="Helvetica,sans-Serif" font-size="8.00">traverse&#45;plus&#45;query&#45;hydration&#45;helper &#45; S</text>
</g>
<!-- cool_ideas_WARP_adaptive_projection_selection -->
<g id="node67" class="node">
<title>cool_ideas_WARP_adaptive_projection_selection</title>
<path fill="#d4e8f7" stroke="black" d="M10301.93,-386.7C10301.93,-386.7 10164.07,-386.7 10164.07,-386.7 10159.88,-386.7 10155.67,-382.5 10155.67,-378.3 10155.67,-378.3 10155.67,-369.9 10155.67,-369.9 10155.67,-365.7 10159.88,-361.5 10164.07,-361.5 10164.07,-361.5 10301.93,-361.5 10301.93,-361.5 10306.12,-361.5 10310.33,-365.7 10310.33,-369.9 10310.33,-369.9 10310.33,-378.3 10310.33,-378.3 10310.33,-382.5 10306.12,-386.7 10301.93,-386.7"/>
<text xml:space="preserve" text-anchor="middle" x="10233" y="-371" font-family="Helvetica,sans-Serif" font-size="8.00">WARP&#45;adaptive&#45;projection&#45;selection &#45; L</text>
</g>
<!-- cool_ideas_WARP_agent_action_provenance -->
<g id="node68" class="node">
<title>cool_ideas_WARP_agent_action_provenance</title>
<path fill="#d4e8f7" stroke="black" d="M10463.55,-386.7C10463.55,-386.7 10332.45,-386.7 10332.45,-386.7 10328.25,-386.7 10324.05,-382.5 10324.05,-378.3 10324.05,-378.3 10324.05,-369.9 10324.05,-369.9 10324.05,-365.7 10328.25,-361.5 10332.45,-361.5 10332.45,-361.5 10463.55,-361.5 10463.55,-361.5 10467.75,-361.5 10471.95,-365.7 10471.95,-369.9 10471.95,-369.9 10471.95,-378.3 10471.95,-378.3 10471.95,-382.5 10467.75,-386.7 10463.55,-386.7"/>
<text xml:space="preserve" text-anchor="middle" x="10398" y="-371" font-family="Helvetica,sans-Serif" font-size="8.00">WARP&#45;agent&#45;action&#45;provenance &#45; XL</text>
</g>
<!-- cool_ideas_WARP_agent_action_provenance&#45;&gt;cool_ideas_CI_001_causal_collapse_visualizer -->
<g id="edge3" class="edge">
<title>cool_ideas_WARP_agent_action_provenance&#45;&gt;cool_ideas_CI_001_causal_collapse_visualizer</title>
<path fill="none" stroke="#666666" d="M10350.13,-361.03C10339.27,-358.43 10327.76,-355.78 10317,-353.5 10287.83,-347.32 10280.12,-347.91 10251,-341.5 10215.75,-333.74 10176.35,-323.52 10146.23,-315.37"/>
<polygon fill="#666666" stroke="#666666" points="10146.69,-313.68 10141.4,-314.06 10145.77,-317.06 10146.69,-313.68"/>
<text xml:space="preserve" text-anchor="middle" x="10282.5" y="-334.85" font-family="Helvetica,sans-Serif" font-size="7.00">blocked_by/blocking</text>
</g>
<!-- cool_ideas_WARP_causal_write_tracking -->
<g id="node73" class="node">
<title>cool_ideas_WARP_causal_write_tracking</title>
<path fill="#d4e8f7" stroke="black" d="M10301.05,-313.25C10301.05,-313.25 10190.95,-313.25 10190.95,-313.25 10186.75,-313.25 10182.55,-309.05 10182.55,-304.85 10182.55,-304.85 10182.55,-296.45 10182.55,-296.45 10182.55,-292.25 10186.75,-288.05 10190.95,-288.05 10190.95,-288.05 10301.05,-288.05 10301.05,-288.05 10305.25,-288.05 10309.45,-292.25 10309.45,-296.45 10309.45,-296.45 10309.45,-304.85 10309.45,-304.85 10309.45,-309.05 10305.25,-313.25 10301.05,-313.25"/>
<text xml:space="preserve" text-anchor="middle" x="10246" y="-297.55" font-family="Helvetica,sans-Serif" font-size="8.00">WARP&#45;causal&#45;write&#45;tracking &#45; L</text>
</g>
<!-- cool_ideas_WARP_agent_action_provenance&#45;&gt;cool_ideas_WARP_causal_write_tracking -->
<g id="edge4" class="edge">
<title>cool_ideas_WARP_agent_action_provenance&#45;&gt;cool_ideas_WARP_causal_write_tracking</title>
<path fill="none" stroke="#666666" d="M10372.56,-361.14C10346.36,-348.83 10305.5,-329.62 10277.33,-316.38"/>
<polygon fill="#666666" stroke="#666666" points="10278.16,-314.84 10272.89,-314.29 10276.67,-318 10278.16,-314.84"/>
<text xml:space="preserve" text-anchor="middle" x="10358.06" y="-334.85" font-family="Helvetica,sans-Serif" font-size="7.00">blocked_by/blocking</text>
</g>
<!-- cool_ideas_WARP_intent_and_decision_events -->
<g id="node82" class="node">
<title>cool_ideas_WARP_intent_and_decision_events</title>
<path fill="#d4e8f7" stroke="black" d="M10464.3,-313.25C10464.3,-313.25 10331.7,-313.25 10331.7,-313.25 10327.5,-313.25 10323.3,-309.05 10323.3,-304.85 10323.3,-304.85 10323.3,-296.45 10323.3,-296.45 10323.3,-292.25 10327.5,-288.05 10331.7,-288.05 10331.7,-288.05 10464.3,-288.05 10464.3,-288.05 10468.5,-288.05 10472.7,-292.25 10472.7,-296.45 10472.7,-296.45 10472.7,-304.85 10472.7,-304.85 10472.7,-309.05 10468.5,-313.25 10464.3,-313.25"/>
<text xml:space="preserve" text-anchor="middle" x="10398" y="-297.55" font-family="Helvetica,sans-Serif" font-size="8.00">WARP&#45;intent&#45;and&#45;decision&#45;events &#45; M</text>
</g>
<!-- cool_ideas_WARP_agent_action_provenance&#45;&gt;cool_ideas_WARP_intent_and_decision_events -->
<g id="edge5" class="edge">
<title>cool_ideas_WARP_agent_action_provenance&#45;&gt;cool_ideas_WARP_intent_and_decision_events</title>
<path fill="none" stroke="#666666" d="M10398,-361.3C10398,-350.1 10398,-333.08 10398,-320.08"/>
<polygon fill="#666666" stroke="#666666" points="10399.75,-320.22 10398,-315.22 10396.25,-320.22 10399.75,-320.22"/>
<text xml:space="preserve" text-anchor="middle" x="10429.5" y="-334.85" font-family="Helvetica,sans-Serif" font-size="7.00">blocked_by/blocking</text>
</g>
<!-- cool_ideas_WARP_provenance_dag -->
<g id="node87" class="node">
<title>cool_ideas_WARP_provenance_dag</title>
<path fill="#d4e8f7" stroke="black" d="M10590.55,-313.25C10590.55,-313.25 10495.45,-313.25 10495.45,-313.25 10491.25,-313.25 10487.05,-309.05 10487.05,-304.85 10487.05,-304.85 10487.05,-296.45 10487.05,-296.45 10487.05,-292.25 10491.25,-288.05 10495.45,-288.05 10495.45,-288.05 10590.55,-288.05 10590.55,-288.05 10594.75,-288.05 10598.95,-292.25 10598.95,-296.45 10598.95,-296.45 10598.95,-304.85 10598.95,-304.85 10598.95,-309.05 10594.75,-313.25 10590.55,-313.25"/>
<text xml:space="preserve" text-anchor="middle" x="10543" y="-297.55" font-family="Helvetica,sans-Serif" font-size="8.00">WARP&#45;provenance&#45;dag &#45; L</text>
</g>
<!-- cool_ideas_WARP_agent_action_provenance&#45;&gt;cool_ideas_WARP_provenance_dag -->
<g id="edge6" class="edge">
<title>cool_ideas_WARP_agent_action_provenance&#45;&gt;cool_ideas_WARP_provenance_dag</title>
<path fill="none" stroke="#666666" d="M10423.45,-361.07C10435.73,-355.22 10450.66,-348.06 10464,-341.5 10480.55,-333.36 10498.95,-324.09 10513.83,-316.54"/>
<polygon fill="#666666" stroke="#666666" points="10514.54,-318.15 10518.21,-314.32 10512.96,-315.03 10514.54,-318.15"/>
<text xml:space="preserve" text-anchor="middle" x="10510.67" y="-334.85" font-family="Helvetica,sans-Serif" font-size="7.00">blocked_by/blocking</text>
</g>
<!-- cool_ideas_WARP_auto_breaking_change_detection -->
<g id="node69" class="node">
<title>cool_ideas_WARP_auto_breaking_change_detection</title>
<path fill="#d4e8f7" stroke="black" d="M13212.3,-313.25C13212.3,-313.25 13061.7,-313.25 13061.7,-313.25 13057.5,-313.25 13053.3,-309.05 13053.3,-304.85 13053.3,-304.85 13053.3,-296.45 13053.3,-296.45 13053.3,-292.25 13057.5,-288.05 13061.7,-288.05 13061.7,-288.05 13212.3,-288.05 13212.3,-288.05 13216.5,-288.05 13220.7,-292.25 13220.7,-296.45 13220.7,-296.45 13220.7,-304.85 13220.7,-304.85 13220.7,-309.05 13216.5,-313.25 13212.3,-313.25"/>
<text xml:space="preserve" text-anchor="middle" x="13137" y="-297.55" font-family="Helvetica,sans-Serif" font-size="8.00">WARP&#45;auto&#45;breaking&#45;change&#45;detection &#45; L</text>
</g>
<!-- cool_ideas_WARP_budget_elasticity -->
<g id="node71" class="node">
<title>cool_ideas_WARP_budget_elasticity</title>
<path fill="#d4e8f7" stroke="black" d="M10589.93,-386.7C10589.93,-386.7 10494.07,-386.7 10494.07,-386.7 10489.88,-386.7 10485.67,-382.5 10485.67,-378.3 10485.67,-378.3 10485.67,-369.9 10485.67,-369.9 10485.67,-365.7 10489.88,-361.5 10494.07,-361.5 10494.07,-361.5 10589.93,-361.5 10589.93,-361.5 10594.12,-361.5 10598.33,-365.7 10598.33,-369.9 10598.33,-369.9 10598.33,-378.3 10598.33,-378.3 10598.33,-382.5 10594.12,-386.7 10589.93,-386.7"/>
<text xml:space="preserve" text-anchor="middle" x="10542" y="-371" font-family="Helvetica,sans-Serif" font-size="8.00">WARP&#45;budget&#45;elasticity &#45; M</text>
</g>
<!-- cool_ideas_WARP_causal_blame_for_staged_artifacts -->
<g id="node72" class="node">
<title>cool_ideas_WARP_causal_blame_for_staged_artifacts</title>
<path fill="#d4e8f7" stroke="black" d="M10620.18,-239.8C10620.18,-239.8 10465.82,-239.8 10465.82,-239.8 10461.62,-239.8 10457.42,-235.6 10457.42,-231.4 10457.42,-231.4 10457.42,-223 10457.42,-223 10457.42,-218.8 10461.62,-214.6 10465.82,-214.6 10465.82,-214.6 10620.18,-214.6 10620.18,-214.6 10624.38,-214.6 10628.58,-218.8 10628.58,-223 10628.58,-223 10628.58,-231.4 10628.58,-231.4 10628.58,-235.6 10624.38,-239.8 10620.18,-239.8"/>
<text xml:space="preserve" text-anchor="middle" x="10543" y="-224.1" font-family="Helvetica,sans-Serif" font-size="8.00">WARP&#45;causal&#45;blame&#45;for&#45;staged&#45;artifacts &#45; L</text>
</g>
<!-- cool_ideas_WARP_codebase_entropy_trajectory -->
<g id="node74" class="node">
<title>cool_ideas_WARP_codebase_entropy_trajectory</title>
<path fill="#d4e8f7" stroke="black" d="M10759.68,-386.7C10759.68,-386.7 10620.32,-386.7 10620.32,-386.7 10616.12,-386.7 10611.92,-382.5 10611.92,-378.3 10611.92,-378.3 10611.92,-369.9 10611.92,-369.9 10611.92,-365.7 10616.12,-361.5 10620.32,-361.5 10620.32,-361.5 10759.68,-361.5 10759.68,-361.5 10763.88,-361.5 10768.08,-365.7 10768.08,-369.9 10768.08,-369.9 10768.08,-378.3 10768.08,-378.3 10768.08,-382.5 10763.88,-386.7 10759.68,-386.7"/>
<text xml:space="preserve" text-anchor="middle" x="10690" y="-371" font-family="Helvetica,sans-Serif" font-size="8.00">WARP&#45;codebase&#45;entropy&#45;trajectory &#45; M</text>
</g>
<!-- cool_ideas_WARP_counterfactual_refactoring -->
<g id="node76" class="node">
<title>cool_ideas_WARP_counterfactual_refactoring</title>
<path fill="#d4e8f7" stroke="black" d="M10775.68,-313.25C10775.68,-313.25 10642.32,-313.25 10642.32,-313.25 10638.12,-313.25 10633.92,-309.05 10633.92,-304.85 10633.92,-304.85 10633.92,-296.45 10633.92,-296.45 10633.92,-292.25 10638.12,-288.05 10642.32,-288.05 10642.32,-288.05 10775.68,-288.05 10775.68,-288.05 10779.88,-288.05 10784.08,-292.25 10784.08,-296.45 10784.08,-296.45 10784.08,-304.85 10784.08,-304.85 10784.08,-309.05 10779.88,-313.25 10775.68,-313.25"/>
<text xml:space="preserve" text-anchor="middle" x="10709" y="-297.55" font-family="Helvetica,sans-Serif" font-size="8.00">WARP&#45;counterfactual&#45;refactoring &#45; XL</text>
</g>
<!-- cool_ideas_WARP_codebase_entropy_trajectory&#45;&gt;cool_ideas_WARP_counterfactual_refactoring -->
<g id="edge7" class="edge">
<title>cool_ideas_WARP_codebase_entropy_trajectory&#45;&gt;cool_ideas_WARP_counterfactual_refactoring</title>
<path fill="none" stroke="#666666" d="M10693.14,-361.3C10696.14,-349.99 10700.73,-332.76 10704.19,-319.73"/>
<polygon fill="#666666" stroke="#666666" points="10705.81,-320.45 10705.41,-315.17 10702.43,-319.55 10705.81,-320.45"/>
<text xml:space="preserve" text-anchor="middle" x="10731.57" y="-334.85" font-family="Helvetica,sans-Serif" font-size="7.00">blocked_by/blocking</text>
</g>
<!-- cool_ideas_WARP_codebase_signature -->
<g id="node75" class="node">
<title>cool_ideas_WARP_codebase_signature</title>
<path fill="#d4e8f7" stroke="black" d="M10897.55,-386.7C10897.55,-386.7 10790.45,-386.7 10790.45,-386.7 10786.25,-386.7 10782.05,-382.5 10782.05,-378.3 10782.05,-378.3 10782.05,-369.9 10782.05,-369.9 10782.05,-365.7 10786.25,-361.5 10790.45,-361.5 10790.45,-361.5 10897.55,-361.5 10897.55,-361.5 10901.75,-361.5 10905.95,-365.7 10905.95,-369.9 10905.95,-369.9 10905.95,-378.3 10905.95,-378.3 10905.95,-382.5 10901.75,-386.7 10897.55,-386.7"/>
<text xml:space="preserve" text-anchor="middle" x="10844" y="-371" font-family="Helvetica,sans-Serif" font-size="8.00">WARP&#45;codebase&#45;signature &#45; L</text>
</g>
<!-- cool_ideas_WARP_structural_impact_prediction -->
<g id="node97" class="node">
<title>cool_ideas_WARP_structural_impact_prediction</title>
<path fill="#d4e8f7" stroke="black" d="M10789.3,-239.8C10789.3,-239.8 10650.7,-239.8 10650.7,-239.8 10646.5,-239.8 10642.3,-235.6 10642.3,-231.4 10642.3,-231.4 10642.3,-223 10642.3,-223 10642.3,-218.8 10646.5,-214.6 10650.7,-214.6 10650.7,-214.6 10789.3,-214.6 10789.3,-214.6 10793.5,-214.6 10797.7,-218.8 10797.7,-223 10797.7,-223 10797.7,-231.4 10797.7,-231.4 10797.7,-235.6 10793.5,-239.8 10789.3,-239.8"/>
<text xml:space="preserve" text-anchor="middle" x="10720" y="-224.1" font-family="Helvetica,sans-Serif" font-size="8.00">WARP&#45;structural&#45;impact&#45;prediction &#45; XL</text>
</g>
<!-- cool_ideas_WARP_counterfactual_refactoring&#45;&gt;cool_ideas_WARP_structural_impact_prediction -->
<g id="edge8" class="edge">
<title>cool_ideas_WARP_counterfactual_refactoring&#45;&gt;cool_ideas_WARP_structural_impact_prediction</title>
<path fill="none" stroke="#666666" d="M10710.82,-287.85C10712.54,-276.65 10715.16,-259.63 10717.16,-246.63"/>
<polygon fill="#666666" stroke="#666666" points="10718.88,-246.96 10717.91,-241.75 10715.42,-246.43 10718.88,-246.96"/>
<text xml:space="preserve" text-anchor="middle" x="10746.33" y="-261.4" font-family="Helvetica,sans-Serif" font-size="7.00">blocked_by/blocking</text>
</g>
<!-- cool_ideas_WARP_degeneracy_warning -->
<g id="node77" class="node">
<title>cool_ideas_WARP_degeneracy_warning</title>
<path fill="#d4e8f7" stroke="black" d="M11041.18,-386.7C11041.18,-386.7 10928.82,-386.7 10928.82,-386.7 10924.62,-386.7 10920.42,-382.5 10920.42,-378.3 10920.42,-378.3 10920.42,-369.9 10920.42,-369.9 10920.42,-365.7 10924.62,-361.5 10928.82,-361.5 10928.82,-361.5 11041.18,-361.5 11041.18,-361.5 11045.38,-361.5 11049.58,-365.7 11049.58,-369.9 11049.58,-369.9 11049.58,-378.3 11049.58,-378.3 11049.58,-382.5 11045.38,-386.7 11041.18,-386.7"/>
<text xml:space="preserve" text-anchor="middle" x="10985" y="-371" font-family="Helvetica,sans-Serif" font-size="8.00">WARP&#45;degeneracy&#45;warning &#45; M</text>
</g>
<!-- cool_ideas_WARP_drift_sentinel -->
<g id="node78" class="node">
<title>cool_ideas_WARP_drift_sentinel</title>
<path fill="#d4e8f7" stroke="black" d="M12882.18,-313.25C12882.18,-313.25 12799.82,-313.25 12799.82,-313.25 12795.62,-313.25 12791.42,-309.05 12791.42,-304.85 12791.42,-304.85 12791.42,-296.45 12791.42,-296.45 12791.42,-292.25 12795.62,-288.05 12799.82,-288.05 12799.82,-288.05 12882.18,-288.05 12882.18,-288.05 12886.38,-288.05 12890.58,-292.25 12890.58,-296.45 12890.58,-296.45 12890.58,-304.85 12890.58,-304.85 12890.58,-309.05 12886.38,-313.25 12882.18,-313.25"/>
<text xml:space="preserve" text-anchor="middle" x="12841" y="-297.55" font-family="Helvetica,sans-Serif" font-size="8.00">WARP&#45;drift&#45;sentinel &#45; M</text>
</g>
<!-- cool_ideas_WARP_footprint_parallelism -->
<g id="node79" class="node">
<title>cool_ideas_WARP_footprint_parallelism</title>
<path fill="#d4e8f7" stroke="black" d="M11183.8,-386.7C11183.8,-386.7 11072.2,-386.7 11072.2,-386.7 11068,-386.7 11063.8,-382.5 11063.8,-378.3 11063.8,-378.3 11063.8,-369.9 11063.8,-369.9 11063.8,-365.7 11068,-361.5 11072.2,-361.5 11072.2,-361.5 11183.8,-361.5 11183.8,-361.5 11188,-361.5 11192.2,-365.7 11192.2,-369.9 11192.2,-369.9 11192.2,-378.3 11192.2,-378.3 11192.2,-382.5 11188,-386.7 11183.8,-386.7"/>
<text xml:space="preserve" text-anchor="middle" x="11128" y="-371" font-family="Helvetica,sans-Serif" font-size="8.00">WARP&#45;footprint&#45;parallelism &#45; XL</text>
</g>
<!-- cool_ideas_WARP_graft_pack -->
<g id="node80" class="node">
<title>cool_ideas_WARP_graft_pack</title>
<path fill="#d4e8f7" stroke="black" d="M11289.43,-386.7C11289.43,-386.7 11214.57,-386.7 11214.57,-386.7 11210.38,-386.7 11206.17,-382.5 11206.17,-378.3 11206.17,-378.3 11206.17,-369.9 11206.17,-369.9 11206.17,-365.7 11210.38,-361.5 11214.57,-361.5 11214.57,-361.5 11289.43,-361.5 11289.43,-361.5 11293.62,-361.5 11297.83,-365.7 11297.83,-369.9 11297.83,-369.9 11297.83,-378.3 11297.83,-378.3 11297.83,-382.5 11293.62,-386.7 11289.43,-386.7"/>
<text xml:space="preserve" text-anchor="middle" x="11252" y="-371" font-family="Helvetica,sans-Serif" font-size="8.00">WARP&#45;graft&#45;pack &#45; M</text>
</g>
<!-- cool_ideas_WARP_grouped_aggregate_queries -->
<g id="node81" class="node">
<title>cool_ideas_WARP_grouped_aggregate_queries</title>
<path fill="#d4e8f7" stroke="black" d="M11457.93,-386.7C11457.93,-386.7 11320.07,-386.7 11320.07,-386.7 11315.88,-386.7 11311.67,-382.5 11311.67,-378.3 11311.67,-378.3 11311.67,-369.9 11311.67,-369.9 11311.67,-365.7 11315.88,-361.5 11320.07,-361.5 11320.07,-361.5 11457.93,-361.5 11457.93,-361.5 11462.12,-361.5 11466.33,-365.7 11466.33,-369.9 11466.33,-369.9 11466.33,-378.3 11466.33,-378.3 11466.33,-382.5 11462.12,-386.7 11457.93,-386.7"/>
<text xml:space="preserve" text-anchor="middle" x="11389" y="-371" font-family="Helvetica,sans-Serif" font-size="8.00">WARP&#45;grouped&#45;aggregate&#45;queries &#45; M</text>
</g>
<!-- cool_ideas_WARP_intentional_degeneracy_privacy -->
<g id="node83" class="node">
<title>cool_ideas_WARP_intentional_degeneracy_privacy</title>
<path fill="#d4e8f7" stroke="black" d="M11636.8,-386.7C11636.8,-386.7 11489.2,-386.7 11489.2,-386.7 11485,-386.7 11480.8,-382.5 11480.8,-378.3 11480.8,-378.3 11480.8,-369.9 11480.8,-369.9 11480.8,-365.7 11485,-361.5 11489.2,-361.5 11489.2,-361.5 11636.8,-361.5 11636.8,-361.5 11641,-361.5 11645.2,-365.7 11645.2,-369.9 11645.2,-369.9 11645.2,-378.3 11645.2,-378.3 11645.2,-382.5 11641,-386.7 11636.8,-386.7"/>
<text xml:space="preserve" text-anchor="middle" x="11563" y="-371" font-family="Helvetica,sans-Serif" font-size="8.00">WARP&#45;intentional&#45;degeneracy&#45;privacy &#45; M</text>
</g>
<!-- cool_ideas_WARP_minimum_viable_context -->
<g id="node84" class="node">
<title>cool_ideas_WARP_minimum_viable_context</title>
<path fill="#d4e8f7" stroke="black" d="M11790.43,-386.7C11790.43,-386.7 11667.57,-386.7 11667.57,-386.7 11663.38,-386.7 11659.17,-382.5 11659.17,-378.3 11659.17,-378.3 11659.17,-369.9 11659.17,-369.9 11659.17,-365.7 11663.38,-361.5 11667.57,-361.5 11667.57,-361.5 11790.43,-361.5 11790.43,-361.5 11794.62,-361.5 11798.83,-365.7 11798.83,-369.9 11798.83,-369.9 11798.83,-378.3 11798.83,-378.3 11798.83,-382.5 11794.62,-386.7 11790.43,-386.7"/>
<text xml:space="preserve" text-anchor="middle" x="11729" y="-371" font-family="Helvetica,sans-Serif" font-size="8.00">WARP&#45;minimum&#45;viable&#45;context &#45; M</text>
</g>
<!-- cool_ideas_WARP_outline_diff_commit_trailer -->
<g id="node85" class="node">
<title>cool_ideas_WARP_outline_diff_commit_trailer</title>
<path fill="#d4e8f7" stroke="black" d="M11946.93,-386.7C11946.93,-386.7 11821.07,-386.7 11821.07,-386.7 11816.88,-386.7 11812.67,-382.5 11812.67,-378.3 11812.67,-378.3 11812.67,-369.9 11812.67,-369.9 11812.67,-365.7 11816.88,-361.5 11821.07,-361.5 11821.07,-361.5 11946.93,-361.5 11946.93,-361.5 11951.12,-361.5 11955.33,-365.7 11955.33,-369.9 11955.33,-369.9 11955.33,-378.3 11955.33,-378.3 11955.33,-382.5 11951.12,-386.7 11946.93,-386.7"/>
<text xml:space="preserve" text-anchor="middle" x="11884" y="-371" font-family="Helvetica,sans-Serif" font-size="8.00">WARP&#45;outline&#45;diff&#45;commit&#45;trailer &#45; S</text>
</g>
<!-- cool_ideas_WARP_projection_safety_classes -->
<g id="node86" class="node">
<title>cool_ideas_WARP_projection_safety_classes</title>
<path fill="#d4e8f7" stroke="black" d="M12103.93,-386.7C12103.93,-386.7 11978.07,-386.7 11978.07,-386.7 11973.88,-386.7 11969.67,-382.5 11969.67,-378.3 11969.67,-378.3 11969.67,-369.9 11969.67,-369.9 11969.67,-365.7 11973.88,-361.5 11978.07,-361.5 11978.07,-361.5 12103.93,-361.5 12103.93,-361.5 12108.12,-361.5 12112.33,-365.7 12112.33,-369.9 12112.33,-369.9 12112.33,-378.3 12112.33,-378.3 12112.33,-382.5 12108.12,-386.7 12103.93,-386.7"/>
<text xml:space="preserve" text-anchor="middle" x="12041" y="-371" font-family="Helvetica,sans-Serif" font-size="8.00">WARP&#45;projection&#45;safety&#45;classes &#45; M</text>
</g>
<!-- cool_ideas_WARP_provenance_dag&#45;&gt;cool_ideas_WARP_causal_blame_for_staged_artifacts -->
<g id="edge9" class="edge">
<title>cool_ideas_WARP_provenance_dag&#45;&gt;cool_ideas_WARP_causal_blame_for_staged_artifacts</title>
<path fill="none" stroke="#666666" d="M10543,-287.85C10543,-276.65 10543,-259.63 10543,-246.63"/>
<polygon fill="#666666" stroke="#666666" points="10544.75,-246.77 10543,-241.77 10541.25,-246.77 10544.75,-246.77"/>
<text xml:space="preserve" text-anchor="middle" x="10574.5" y="-261.4" font-family="Helvetica,sans-Serif" font-size="7.00">blocked_by/blocking</text>
</g>
<!-- cool_ideas_WARP_reasoning_trace_replay -->
<g id="node88" class="node">
<title>cool_ideas_WARP_reasoning_trace_replay</title>
<path fill="#d4e8f7" stroke="black" d="M10434.93,-239.8C10434.93,-239.8 10315.07,-239.8 10315.07,-239.8 10310.88,-239.8 10306.67,-235.6 10306.67,-231.4 10306.67,-231.4 10306.67,-223 10306.67,-223 10306.67,-218.8 10310.88,-214.6 10315.07,-214.6 10315.07,-214.6 10434.93,-214.6 10434.93,-214.6 10439.12,-214.6 10443.33,-218.8 10443.33,-223 10443.33,-223 10443.33,-231.4 10443.33,-231.4 10443.33,-235.6 10439.12,-239.8 10434.93,-239.8"/>
<text xml:space="preserve" text-anchor="middle" x="10375" y="-224.1" font-family="Helvetica,sans-Serif" font-size="8.00">WARP&#45;reasoning&#45;trace&#45;replay &#45; M</text>
</g>
<!-- cool_ideas_WARP_provenance_dag&#45;&gt;cool_ideas_WARP_reasoning_trace_replay -->
<g id="edge10" class="edge">
<title>cool_ideas_WARP_provenance_dag&#45;&gt;cool_ideas_WARP_reasoning_trace_replay</title>
<path fill="none" stroke="#666666" d="M10514.88,-287.69C10485.69,-275.27 10440.01,-255.85 10408.85,-242.6"/>
<polygon fill="#666666" stroke="#666666" points="10409.89,-241.14 10404.6,-240.79 10408.52,-244.36 10409.89,-241.14"/>
<text xml:space="preserve" text-anchor="middle" x="10495.54" y="-261.4" font-family="Helvetica,sans-Serif" font-size="7.00">blocked_by/blocking</text>
</g>
<!-- cool_ideas_WARP_rulial_heat_map -->
<g id="node89" class="node">
<title>cool_ideas_WARP_rulial_heat_map</title>
<path fill="#d4e8f7" stroke="black" d="M12225.3,-386.7C12225.3,-386.7 12134.7,-386.7 12134.7,-386.7 12130.5,-386.7 12126.3,-382.5 12126.3,-378.3 12126.3,-378.3 12126.3,-369.9 12126.3,-369.9 12126.3,-365.7 12130.5,-361.5 12134.7,-361.5 12134.7,-361.5 12225.3,-361.5 12225.3,-361.5 12229.5,-361.5 12233.7,-365.7 12233.7,-369.9 12233.7,-369.9 12233.7,-378.3 12233.7,-378.3 12233.7,-382.5 12229.5,-386.7 12225.3,-386.7"/>
<text xml:space="preserve" text-anchor="middle" x="12180" y="-371" font-family="Helvetica,sans-Serif" font-size="8.00">WARP&#45;rulial&#45;heat&#45;map &#45; L</text>
</g>
<!-- cool_ideas_WARP_semantic_drift_in_sessions -->
<g id="node90" class="node">
<title>cool_ideas_WARP_semantic_drift_in_sessions</title>
<path fill="#d4e8f7" stroke="black" d="M12385.43,-386.7C12385.43,-386.7 12256.57,-386.7 12256.57,-386.7 12252.38,-386.7 12248.17,-382.5 12248.17,-378.3 12248.17,-378.3 12248.17,-369.9 12248.17,-369.9 12248.17,-365.7 12252.38,-361.5 12256.57,-361.5 12256.57,-361.5 12385.43,-361.5 12385.43,-361.5 12389.62,-361.5 12393.83,-365.7 12393.83,-369.9 12393.83,-369.9 12393.83,-378.3 12393.83,-378.3 12393.83,-382.5 12389.62,-386.7 12385.43,-386.7"/>
<text xml:space="preserve" text-anchor="middle" x="12321" y="-371" font-family="Helvetica,sans-Serif" font-size="8.00">WARP&#45;semantic&#45;drift&#45;in&#45;sessions &#45; M</text>
</g>
<!-- cool_ideas_WARP_semantic_merge_conflict_prediction -->
<g id="node91" class="node">
<title>cool_ideas_WARP_semantic_merge_conflict_prediction</title>
<path fill="#d4e8f7" stroke="black" d="M13402.43,-313.25C13402.43,-313.25 13243.57,-313.25 13243.57,-313.25 13239.38,-313.25 13235.17,-309.05 13235.17,-304.85 13235.17,-304.85 13235.17,-296.45 13235.17,-296.45 13235.17,-292.25 13239.38,-288.05 13243.57,-288.05 13243.57,-288.05 13402.43,-288.05 13402.43,-288.05 13406.62,-288.05 13410.83,-292.25 13410.83,-296.45 13410.83,-296.45 13410.83,-304.85 13410.83,-304.85 13410.83,-309.05 13406.62,-313.25 13402.43,-313.25"/>
<text xml:space="preserve" text-anchor="middle" x="13323" y="-297.55" font-family="Helvetica,sans-Serif" font-size="8.00">WARP&#45;semantic&#45;merge&#45;conflict&#45;prediction &#45; L</text>
</g>
<!-- cool_ideas_WARP_session_filtration -->
<g id="node92" class="node">
<title>cool_ideas_WARP_session_filtration</title>
<path fill="#d4e8f7" stroke="black" d="M12509.8,-386.7C12509.8,-386.7 12416.2,-386.7 12416.2,-386.7 12412,-386.7 12407.8,-382.5 12407.8,-378.3 12407.8,-378.3 12407.8,-369.9 12407.8,-369.9 12407.8,-365.7 12412,-361.5 12416.2,-361.5 12416.2,-361.5 12509.8,-361.5 12509.8,-361.5 12514,-361.5 12518.2,-365.7 12518.2,-369.9 12518.2,-369.9 12518.2,-378.3 12518.2,-378.3 12518.2,-382.5 12514,-386.7 12509.8,-386.7"/>
<text xml:space="preserve" text-anchor="middle" x="12463" y="-371" font-family="Helvetica,sans-Serif" font-size="8.00">WARP&#45;session&#45;filtration &#45; L</text>
</g>
<!-- cool_ideas_WARP_shadow_structural_workspaces -->
<g id="node93" class="node">
<title>cool_ideas_WARP_shadow_structural_workspaces</title>
<path fill="#d4e8f7" stroke="black" d="M12691.3,-386.7C12691.3,-386.7 12540.7,-386.7 12540.7,-386.7 12536.5,-386.7 12532.3,-382.5 12532.3,-378.3 12532.3,-378.3 12532.3,-369.9 12532.3,-369.9 12532.3,-365.7 12536.5,-361.5 12540.7,-361.5 12540.7,-361.5 12691.3,-361.5 12691.3,-361.5 12695.5,-361.5 12699.7,-365.7 12699.7,-369.9 12699.7,-369.9 12699.7,-378.3 12699.7,-378.3 12699.7,-382.5 12695.5,-386.7 12691.3,-386.7"/>
<text xml:space="preserve" text-anchor="middle" x="12616" y="-371" font-family="Helvetica,sans-Serif" font-size="8.00">WARP&#45;shadow&#45;structural&#45;workspaces &#45; XL</text>
</g>
<!-- cool_ideas_WARP_speculative_merge -->
<g id="node94" class="node">
<title>cool_ideas_WARP_speculative_merge</title>
<path fill="#d4e8f7" stroke="black" d="M12829.55,-386.7C12829.55,-386.7 12722.45,-386.7 12722.45,-386.7 12718.25,-386.7 12714.05,-382.5 12714.05,-378.3 12714.05,-378.3 12714.05,-369.9 12714.05,-369.9 12714.05,-365.7 12718.25,-361.5 12722.45,-361.5 12722.45,-361.5 12829.55,-361.5 12829.55,-361.5 12833.75,-361.5 12837.95,-365.7 12837.95,-369.9 12837.95,-369.9 12837.95,-378.3 12837.95,-378.3 12837.95,-382.5 12833.75,-386.7 12829.55,-386.7"/>
<text xml:space="preserve" text-anchor="middle" x="12776" y="-371" font-family="Helvetica,sans-Serif" font-size="8.00">WARP&#45;speculative&#45;merge &#45; XL</text>
</g>
<!-- cool_ideas_WARP_stale_docs_checker -->
<g id="node95" class="node">
<title>cool_ideas_WARP_stale_docs_checker</title>
<path fill="#d4e8f7" stroke="black" d="M12965.8,-386.7C12965.8,-386.7 12860.2,-386.7 12860.2,-386.7 12856,-386.7 12851.8,-382.5 12851.8,-378.3 12851.8,-378.3 12851.8,-369.9 12851.8,-369.9 12851.8,-365.7 12856,-361.5 12860.2,-361.5 12860.2,-361.5 12965.8,-361.5 12965.8,-361.5 12970,-361.5 12974.2,-365.7 12974.2,-369.9 12974.2,-369.9 12974.2,-378.3 12974.2,-378.3 12974.2,-382.5 12970,-386.7 12965.8,-386.7"/>
<text xml:space="preserve" text-anchor="middle" x="12913" y="-371" font-family="Helvetica,sans-Serif" font-size="8.00">WARP&#45;stale&#45;docs&#45;checker &#45; M</text>
</g>
<!-- cool_ideas_WARP_stale_docs_checker&#45;&gt;cool_ideas_WARP_drift_sentinel -->
<g id="edge11" class="edge">
<title>cool_ideas_WARP_stale_docs_checker&#45;&gt;cool_ideas_WARP_drift_sentinel</title>
<path fill="none" stroke="#666666" d="M12901.11,-361.3C12889.2,-349.48 12870.76,-331.19 12857.45,-317.97"/>
<polygon fill="#666666" stroke="#666666" points="12859,-317.05 12854.22,-314.77 12856.54,-319.54 12859,-317.05"/>
<text xml:space="preserve" text-anchor="middle" x="12910.66" y="-334.85" font-family="Helvetica,sans-Serif" font-size="7.00">blocked_by/blocking</text>
</g>
<!-- cool_ideas_WARP_structural_drift_detection -->
<g id="node96" class="node">
<title>cool_ideas_WARP_structural_drift_detection</title>
<path fill="#d4e8f7" stroke="black" d="M13119.8,-386.7C13119.8,-386.7 12996.2,-386.7 12996.2,-386.7 12992,-386.7 12987.8,-382.5 12987.8,-378.3 12987.8,-378.3 12987.8,-369.9 12987.8,-369.9 12987.8,-365.7 12992,-361.5 12996.2,-361.5 12996.2,-361.5 13119.8,-361.5 13119.8,-361.5 13124,-361.5 13128.2,-365.7 13128.2,-369.9 13128.2,-369.9 13128.2,-378.3 13128.2,-378.3 13128.2,-382.5 13124,-386.7 13119.8,-386.7"/>
<text xml:space="preserve" text-anchor="middle" x="13058" y="-371" font-family="Helvetica,sans-Serif" font-size="8.00">WARP&#45;structural&#45;drift&#45;detection &#45; M</text>
</g>
<!-- cool_ideas_WARP_symbol_heatmap -->
<g id="node98" class="node">
<title>cool_ideas_WARP_symbol_heatmap</title>
<path fill="#d4e8f7" stroke="black" d="M13249.05,-386.7C13249.05,-386.7 13150.95,-386.7 13150.95,-386.7 13146.75,-386.7 13142.55,-382.5 13142.55,-378.3 13142.55,-378.3 13142.55,-369.9 13142.55,-369.9 13142.55,-365.7 13146.75,-361.5 13150.95,-361.5 13150.95,-361.5 13249.05,-361.5 13249.05,-361.5 13253.25,-361.5 13257.45,-365.7 13257.45,-369.9 13257.45,-369.9 13257.45,-378.3 13257.45,-378.3 13257.45,-382.5 13253.25,-386.7 13249.05,-386.7"/>
<text xml:space="preserve" text-anchor="middle" x="13200" y="-371" font-family="Helvetica,sans-Serif" font-size="8.00">WARP&#45;symbol&#45;heatmap &#45; M</text>
</g>
<!-- cool_ideas_WARP_technical_debt_curvature -->
<g id="node99" class="node">
<title>cool_ideas_WARP_technical_debt_curvature</title>
<path fill="#d4e8f7" stroke="black" d="M13402.43,-386.7C13402.43,-386.7 13279.57,-386.7 13279.57,-386.7 13275.38,-386.7 13271.17,-382.5 13271.17,-378.3 13271.17,-378.3 13271.17,-369.9 13271.17,-369.9 13271.17,-365.7 13275.38,-361.5 13279.57,-361.5 13279.57,-361.5 13402.43,-361.5 13402.43,-361.5 13406.62,-361.5 13410.83,-365.7 13410.83,-369.9 13410.83,-369.9 13410.83,-378.3 13410.83,-378.3 13410.83,-382.5 13406.62,-386.7 13402.43,-386.7"/>
<text xml:space="preserve" text-anchor="middle" x="13341" y="-371" font-family="Helvetica,sans-Serif" font-size="8.00">WARP&#45;technical&#45;debt&#45;curvature &#45; L</text>
</g>
<!-- external_git_warp_observer_geometry_ladder__Rung_2_4_ -->
<g id="node101" class="node">
<title>external_git_warp_observer_geometry_ladder__Rung_2_4_</title>
<path fill="#e8f2ff" stroke="black" d="M13606.68,-386.7C13606.68,-386.7 13443.32,-386.7 13443.32,-386.7 13439.12,-386.7 13434.92,-382.5 13434.92,-378.3 13434.92,-378.3 13434.92,-369.9 13434.92,-369.9 13434.92,-365.7 13439.12,-361.5 13443.32,-361.5 13443.32,-361.5 13606.68,-361.5 13606.68,-361.5 13610.88,-361.5 13615.08,-365.7 13615.08,-369.9 13615.08,-369.9 13615.08,-378.3 13615.08,-378.3 13615.08,-382.5 13610.88,-386.7 13606.68,-386.7"/>
<text xml:space="preserve" text-anchor="middle" x="13525" y="-371" font-family="Helvetica,sans-Serif" font-size="8.00">git&#45;warp observer geometry ladder (Rung 2&#45;4)</text>
</g>
<!-- external_git_warp_observer_geometry_ladder__Rung_2_4_&#45;&gt;cool_ideas_CORE_migrate_to_slice_first_reads -->
<g id="edge12" class="edge">
<title>external_git_warp_observer_geometry_ladder__Rung_2_4_&#45;&gt;cool_ideas_CORE_migrate_to_slice_first_reads</title>
<path fill="none" stroke="#4477aa" stroke-dasharray="5,2" d="M13468.54,-361.04C13453.47,-358.18 13437.17,-355.41 13422,-353.5 13337.72,-342.87 13315.71,-350.58 13231.25,-341.5 13148.44,-332.6 13128.31,-325.98 13046,-313.25 13045.86,-313.23 13045.73,-313.21 13045.59,-313.19"/>
<polygon fill="#4477aa" stroke="#4477aa" points="13046.06,-311.49 13040.85,-312.45 13045.52,-314.95 13046.06,-311.49"/>
<text xml:space="preserve" text-anchor="middle" x="13263.12" y="-334.85" font-family="Helvetica,sans-Serif" font-size="7.00">blocked_by_external</text>
</g>
<!-- unresolved_CLEAN_CODE_export_diff_semver_signature_as_patch -->
<g id="node102" class="node">
<title>unresolved_CLEAN_CODE_export_diff_semver_signature_as_patch</title>
<path fill="#f2f2f2" stroke="black" stroke-dasharray="5,2" d="M13870.3,-386.7C13870.3,-386.7 13647.7,-386.7 13647.7,-386.7 13643.5,-386.7 13639.3,-382.5 13639.3,-378.3 13639.3,-378.3 13639.3,-369.9 13639.3,-369.9 13639.3,-365.7 13643.5,-361.5 13647.7,-361.5 13647.7,-361.5 13870.3,-361.5 13870.3,-361.5 13874.5,-361.5 13878.7,-365.7 13878.7,-369.9 13878.7,-369.9 13878.7,-378.3 13878.7,-378.3 13878.7,-382.5 13874.5,-386.7 13870.3,-386.7"/>
<text xml:space="preserve" text-anchor="middle" x="13759" y="-371" font-family="Helvetica,sans-Serif" font-size="8.00">missing: CLEAN_CODE_export&#45;diff&#45;semver&#45;signature&#45;as&#45;patch</text>
</g>
<!-- unresolved_CLEAN_CODE_export_diff_semver_signature_as_patch&#45;&gt;cool_ideas_WARP_auto_breaking_change_detection -->
<g id="edge13" class="edge">
<title>unresolved_CLEAN_CODE_export_diff_semver_signature_as_patch&#45;&gt;cool_ideas_WARP_auto_breaking_change_detection</title>
<path fill="none" stroke="#cc3333" stroke-dasharray="5,2" d="M13682.44,-361.04C13663.99,-358.34 13644.31,-355.65 13626,-353.5 13565.63,-346.4 13550.25,-347.43 13489.75,-341.5 13373.3,-330.09 13344.21,-326.93 13228,-313.25 13227.7,-313.22 13227.41,-313.18 13227.11,-313.14"/>
<polygon fill="#cc3333" stroke="#cc3333" points="13227.47,-311.43 13222.29,-312.57 13227.05,-314.9 13227.47,-311.43"/>
<text xml:space="preserve" text-anchor="middle" x="13507.38" y="-334.85" font-family="Helvetica,sans-Serif" font-size="7.00">blocked_by</text>
</g>
<!-- unresolved_CLEAN_CODE_export_diff_semver_signature_as_patch&#45;&gt;cool_ideas_WARP_semantic_merge_conflict_prediction -->
<g id="edge14" class="edge">
<title>unresolved_CLEAN_CODE_export_diff_semver_signature_as_patch&#45;&gt;cool_ideas_WARP_semantic_merge_conflict_prediction</title>
<path fill="none" stroke="#cc3333" stroke-dasharray="5,2" d="M13685.53,-361.06C13607.24,-348.23 13483.69,-327.98 13402.99,-314.76"/>
<polygon fill="#cc3333" stroke="#cc3333" points="13403.48,-313.07 13398.26,-313.98 13402.91,-316.52 13403.48,-313.07"/>
<text xml:space="preserve" text-anchor="middle" x="13571.7" y="-334.85" font-family="Helvetica,sans-Serif" font-size="7.00">blocked_by</text>
</g>
<!-- leg_v08 -->
<g id="node103" class="node">
<title>leg_v08</title>
<path fill="#c8e6c9" stroke="black" stroke-width="2" d="M13995,-386.7C13995,-386.7 13911,-386.7 13911,-386.7 13906.8,-386.7 13902.6,-382.5 13902.6,-378.3 13902.6,-378.3 13902.6,-369.9 13902.6,-369.9 13902.6,-365.7 13906.8,-361.5 13911,-361.5 13911,-361.5 13995,-361.5 13995,-361.5 13999.2,-361.5 14003.4,-365.7 14003.4,-369.9 14003.4,-369.9 14003.4,-378.3 14003.4,-378.3 14003.4,-382.5 13999.2,-386.7 13995,-386.7"/>
<text xml:space="preserve" text-anchor="middle" x="13953" y="-371.58" font-family="Helvetica,sans-Serif" font-size="7.00">v0.8.0</text>
</g>
<!-- leg_v07 -->
<g id="node104" class="node">
<title>leg_v07</title>
<path fill="#ffa07a" stroke="black" stroke-width="2" d="M13995,-313.25C13995,-313.25 13911,-313.25 13911,-313.25 13906.8,-313.25 13902.6,-309.05 13902.6,-304.85 13902.6,-304.85 13902.6,-296.45 13902.6,-296.45 13902.6,-292.25 13906.8,-288.05 13911,-288.05 13911,-288.05 13995,-288.05 13995,-288.05 13999.2,-288.05 14003.4,-292.25 14003.4,-296.45 14003.4,-296.45 14003.4,-304.85 14003.4,-304.85 14003.4,-309.05 13999.2,-313.25 13995,-313.25"/>
<text xml:space="preserve" text-anchor="middle" x="13953" y="-298.12" font-family="Helvetica,sans-Serif" font-size="7.00">v0.7.0</text>
</g>
<!-- leg_v08&#45;&gt;leg_v07 -->
<!-- leg_bad -->
<g id="node105" class="node">
<title>leg_bad</title>
<path fill="#f6b3b3" stroke="black" stroke-width="2" d="M13995,-239.8C13995,-239.8 13911,-239.8 13911,-239.8 13906.8,-239.8 13902.6,-235.6 13902.6,-231.4 13902.6,-231.4 13902.6,-223 13902.6,-223 13902.6,-218.8 13906.8,-214.6 13911,-214.6 13911,-214.6 13995,-214.6 13995,-214.6 13999.2,-214.6 14003.4,-218.8 14003.4,-223 14003.4,-223 14003.4,-231.4 14003.4,-231.4 14003.4,-235.6 13999.2,-239.8 13995,-239.8"/>
<text xml:space="preserve" text-anchor="middle" x="13953" y="-224.67" font-family="Helvetica,sans-Serif" font-size="7.00">bad&#45;code</text>
</g>
<!-- leg_v07&#45;&gt;leg_bad -->
<!-- leg_idea -->
<g id="node106" class="node">
<title>leg_idea</title>
<path fill="#d4e8f7" stroke="black" d="M13995,-173.6C13995,-173.6 13911,-173.6 13911,-173.6 13906.8,-173.6 13902.6,-169.4 13902.6,-165.2 13902.6,-165.2 13902.6,-156.8 13902.6,-156.8 13902.6,-152.6 13906.8,-148.4 13911,-148.4 13911,-148.4 13995,-148.4 13995,-148.4 13999.2,-148.4 14003.4,-152.6 14003.4,-156.8 14003.4,-156.8 14003.4,-165.2 14003.4,-165.2 14003.4,-169.4 13999.2,-173.6 13995,-173.6"/>
<text xml:space="preserve" text-anchor="middle" x="13953" y="-158.47" font-family="Helvetica,sans-Serif" font-size="7.00">cool&#45;ideas</text>
</g>
<!-- leg_bad&#45;&gt;leg_idea -->
<!-- leg_external -->
<g id="node107" class="node">
<title>leg_external</title>
<path fill="#e8f2ff" stroke="black" d="M13995,-107.4C13995,-107.4 13911,-107.4 13911,-107.4 13906.8,-107.4 13902.6,-103.2 13902.6,-99 13902.6,-99 13902.6,-90.6 13902.6,-90.6 13902.6,-86.4 13906.8,-82.2 13911,-82.2 13911,-82.2 13995,-82.2 13995,-82.2 13999.2,-82.2 14003.4,-86.4 14003.4,-90.6 14003.4,-90.6 14003.4,-99 14003.4,-99 14003.4,-103.2 13999.2,-107.4 13995,-107.4"/>
<text xml:space="preserve" text-anchor="middle" x="13953" y="-92.28" font-family="Helvetica,sans-Serif" font-size="7.00">external blocker</text>
</g>
<!-- leg_idea&#45;&gt;leg_external -->
<!-- leg_unresolved -->
<g id="node108" class="node">
<title>leg_unresolved</title>
<path fill="#f2f2f2" stroke="black" stroke-dasharray="5,2" d="M13995,-41.2C13995,-41.2 13911,-41.2 13911,-41.2 13906.8,-41.2 13902.6,-37 13902.6,-32.8 13902.6,-32.8 13902.6,-24.4 13902.6,-24.4 13902.6,-20.2 13906.8,-16 13911,-16 13911,-16 13995,-16 13995,-16 13999.2,-16 14003.4,-20.2 14003.4,-24.4 14003.4,-24.4 14003.4,-32.8 14003.4,-32.8 14003.4,-37 13999.2,-41.2 13995,-41.2"/>
<text xml:space="preserve" text-anchor="middle" x="13953" y="-26.08" font-family="Helvetica,sans-Serif" font-size="7.00">unresolved ref</text>
</g>
<!-- leg_external&#45;&gt;leg_unresolved -->
</g>
</svg>
