<?xml version="1.0" encoding="UTF-8" standalone="no"?>
<!DOCTYPE svg PUBLIC "-//W3C//DTD SVG 1.1//EN"
 "http://www.w3.org/Graphics/SVG/1.1/DTD/svg11.dtd">
<!-- Generated by graphviz version 14.1.2 (20260124.0452)
 -->
<!-- Title: backlog Pages: 1 -->
<svg width="10574pt" height="383pt"
 viewBox="0.00 0.00 10574.00 383.00" xmlns="http://www.w3.org/2000/svg" xmlns:xlink="http://www.w3.org/1999/xlink">
<g id="graph0" class="graph" transform="scale(1 1) rotate(0) translate(4 379)">
<title>backlog</title>
<polygon fill="white" stroke="none" points="-4,4 -4,-379 10570,-379 10570,4 -4,4"/>
<text xml:space="preserve" text-anchor="middle" x="5283" y="-359.6" font-family="Helvetica,sans-Serif" font-size="12.00">Active backlog graph generated from docs/method/backlog/*/*.md</text>
<g id="clust1" class="cluster">
<title>cluster_cool_ideas</title>
<path fill="#fafafa" stroke="#cccccc" d="M20,-140.4C20,-140.4 9954,-140.4 9954,-140.4 9960,-140.4 9966,-146.4 9966,-152.4 9966,-152.4 9966,-334.25 9966,-334.25 9966,-340.25 9960,-346.25 9954,-346.25 9954,-346.25 20,-346.25 20,-346.25 14,-346.25 8,-340.25 8,-334.25 8,-334.25 8,-152.4 8,-152.4 8,-146.4 14,-140.4 20,-140.4"/>
<text xml:space="preserve" text-anchor="middle" x="47.5" y="-333.7" font-family="Helvetica,sans-Serif" font-size="9.00" fill="#555555">Cool Ideas (78)</text>
</g>
<g id="clust2" class="cluster">
<title>cluster_external</title>
<path fill="#f8fbff" stroke="#cccccc" d="M9986,-287.3C9986,-287.3 10158,-287.3 10158,-287.3 10164,-287.3 10170,-293.3 10170,-299.3 10170,-299.3 10170,-334.25 10170,-334.25 10170,-340.25 10164,-346.25 10158,-346.25 10158,-346.25 9986,-346.25 9986,-346.25 9980,-346.25 9974,-340.25 9974,-334.25 9974,-334.25 9974,-299.3 9974,-299.3 9974,-293.3 9980,-287.3 9986,-287.3"/>
<text xml:space="preserve" text-anchor="middle" x="10017.25" y="-333.7" font-family="Helvetica,sans-Serif" font-size="9.00" fill="#555555">External blockers</text>
</g>
<g id="clust3" class="cluster">
<title>cluster_unresolved</title>
<path fill="#fff7f7" stroke="#cc3333" stroke-dasharray="5,2" d="M10190,-287.3C10190,-287.3 10422,-287.3 10422,-287.3 10428,-287.3 10434,-293.3 10434,-299.3 10434,-299.3 10434,-334.25 10434,-334.25 10434,-340.25 10428,-346.25 10422,-346.25 10422,-346.25 10190,-346.25 10190,-346.25 10184,-346.25 10178,-340.25 10178,-334.25 10178,-334.25 10178,-299.3 10178,-299.3 10178,-293.3 10184,-287.3 10190,-287.3"/>
<text xml:space="preserve" text-anchor="middle" x="10234.75" y="-333.7" font-family="Helvetica,sans-Serif" font-size="9.00" fill="#555555">Unresolved internal refs</text>
</g>
<g id="clust4" class="cluster">
<title>cluster_legend</title>
<path fill="none" stroke="#dddddd" d="M10454,-8C10454,-8 10546,-8 10546,-8 10552,-8 10558,-14 10558,-20 10558,-20 10558,-333.5 10558,-333.5 10558,-339.5 10552,-345.5 10546,-345.5 10546,-345.5 10454,-345.5 10454,-345.5 10448,-345.5 10442,-339.5 10442,-333.5 10442,-333.5 10442,-20 10442,-20 10442,-14 10448,-8 10454,-8"/>
<text xml:space="preserve" text-anchor="middle" x="10463.5" y="-333.9" font-family="Helvetica,sans-Serif" font-size="8.00" fill="#aaaaaa">Legend</text>
</g>
<!-- cool_ideas_bounded_neighborhood_for_references -->
<g id="node1" class="node">
<title>cool_ideas_bounded_neighborhood_for_references</title>
<path fill="#d4e8f7" stroke="black" d="M173.17,-320.5C173.17,-320.5 24.83,-320.5 24.83,-320.5 20.63,-320.5 16.42,-316.3 16.42,-312.1 16.42,-312.1 16.42,-303.7 16.42,-303.7 16.42,-299.5 20.63,-295.3 24.83,-295.3 24.83,-295.3 173.17,-295.3 173.17,-295.3 177.37,-295.3 181.57,-299.5 181.57,-303.7 181.57,-303.7 181.57,-312.1 181.57,-312.1 181.57,-316.3 177.37,-320.5 173.17,-320.5"/>
<text xml:space="preserve" text-anchor="middle" x="99" y="-304.8" font-family="Helvetica,sans-Serif" font-size="8.00">bounded&#45;neighborhood&#45;for&#45;references &#45; S</text>
</g>
<!-- cool_ideas_CI_001_causal_collapse_visualizer -->
<g id="node2" class="node">
<title>cool_ideas_CI_001_causal_collapse_visualizer</title>
<path fill="#d4e8f7" stroke="black" d="M6744.3,-247.05C6744.3,-247.05 6617.7,-247.05 6617.7,-247.05 6613.5,-247.05 6609.3,-242.85 6609.3,-238.65 6609.3,-238.65 6609.3,-230.25 6609.3,-230.25 6609.3,-226.05 6613.5,-221.85 6617.7,-221.85 6617.7,-221.85 6744.3,-221.85 6744.3,-221.85 6748.5,-221.85 6752.7,-226.05 6752.7,-230.25 6752.7,-230.25 6752.7,-238.65 6752.7,-238.65 6752.7,-242.85 6748.5,-247.05 6744.3,-247.05"/>
<text xml:space="preserve" text-anchor="middle" x="6681" y="-231.35" font-family="Helvetica,sans-Serif" font-size="8.00">CI&#45;001&#45;causal&#45;collapse&#45;visualizer &#45; L</text>
</g>
<!-- cool_ideas_CI_002_deterministic_scenario_replay -->
<g id="node3" class="node">
<title>cool_ideas_CI_002_deterministic_scenario_replay</title>
<path fill="#d4e8f7" stroke="black" d="M343.67,-320.5C343.67,-320.5 204.33,-320.5 204.33,-320.5 200.13,-320.5 195.93,-316.3 195.93,-312.1 195.93,-312.1 195.93,-303.7 195.93,-303.7 195.93,-299.5 200.13,-295.3 204.33,-295.3 204.33,-295.3 343.67,-295.3 343.67,-295.3 347.88,-295.3 352.07,-299.5 352.07,-303.7 352.07,-303.7 352.07,-312.1 352.07,-312.1 352.07,-316.3 347.88,-320.5 343.67,-320.5"/>
<text xml:space="preserve" text-anchor="middle" x="274" y="-304.8" font-family="Helvetica,sans-Serif" font-size="8.00">CI&#45;002&#45;deterministic&#45;scenario&#45;replay &#45; L</text>
</g>
<!-- cool_ideas_CI_003_mcp_native_diff_protocol -->
<g id="node4" class="node">
<title>cool_ideas_CI_003_mcp_native_diff_protocol</title>
<path fill="#d4e8f7" stroke="black" d="M497.8,-320.5C497.8,-320.5 374.2,-320.5 374.2,-320.5 370,-320.5 365.8,-316.3 365.8,-312.1 365.8,-312.1 365.8,-303.7 365.8,-303.7 365.8,-299.5 370,-295.3 374.2,-295.3 374.2,-295.3 497.8,-295.3 497.8,-295.3 502,-295.3 506.2,-299.5 506.2,-303.7 506.2,-303.7 506.2,-312.1 506.2,-312.1 506.2,-316.3 502,-320.5 497.8,-320.5"/>
<text xml:space="preserve" text-anchor="middle" x="436" y="-304.8" font-family="Helvetica,sans-Serif" font-size="8.00">CI&#45;003&#45;mcp&#45;native&#45;diff&#45;protocol &#45; M</text>
</g>
<!-- cool_ideas_CLEAN_CODE_parallel_agent_merge_shared_file_loss -->
<g id="node5" class="node">
<title>cool_ideas_CLEAN_CODE_parallel_agent_merge_shared_file_loss</title>
<path fill="#d4e8f7" stroke="black" d="M729.05,-320.5C729.05,-320.5 528.95,-320.5 528.95,-320.5 524.75,-320.5 520.55,-316.3 520.55,-312.1 520.55,-312.1 520.55,-303.7 520.55,-303.7 520.55,-299.5 524.75,-295.3 528.95,-295.3 528.95,-295.3 729.05,-295.3 729.05,-295.3 733.25,-295.3 737.45,-299.5 737.45,-303.7 737.45,-303.7 737.45,-312.1 737.45,-312.1 737.45,-316.3 733.25,-320.5 729.05,-320.5"/>
<text xml:space="preserve" text-anchor="middle" x="629" y="-304.8" font-family="Helvetica,sans-Serif" font-size="8.00">CLEAN&#45;CODE&#45;parallel&#45;agent&#45;merge&#45;shared&#45;file&#45;loss &#45; M</text>
</g>
<!-- cool_ideas_CORE_agent_handoff_protocol -->
<g id="node6" class="node">
<title>cool_ideas_CORE_agent_handoff_protocol</title>
<path fill="#d4e8f7" stroke="black" d="M879.93,-320.5C879.93,-320.5 760.07,-320.5 760.07,-320.5 755.88,-320.5 751.67,-316.3 751.67,-312.1 751.67,-312.1 751.67,-303.7 751.67,-303.7 751.67,-299.5 755.88,-295.3 760.07,-295.3 760.07,-295.3 879.93,-295.3 879.93,-295.3 884.12,-295.3 888.33,-299.5 888.33,-303.7 888.33,-303.7 888.33,-312.1 888.33,-312.1 888.33,-316.3 884.12,-320.5 879.93,-320.5"/>
<text xml:space="preserve" text-anchor="middle" x="820" y="-304.8" font-family="Helvetica,sans-Serif" font-size="8.00">CORE&#45;agent&#45;handoff&#45;protocol &#45; M</text>
</g>
<!-- cool_ideas_CORE_auto_focus -->
<g id="node7" class="node">
<title>cool_ideas_CORE_auto_focus</title>
<path fill="#d4e8f7" stroke="black" d="M983.68,-320.5C983.68,-320.5 910.32,-320.5 910.32,-320.5 906.12,-320.5 901.92,-316.3 901.92,-312.1 901.92,-312.1 901.92,-303.7 901.92,-303.7 901.92,-299.5 906.12,-295.3 910.32,-295.3 910.32,-295.3 983.68,-295.3 983.68,-295.3 987.88,-295.3 992.08,-299.5 992.08,-303.7 992.08,-303.7 992.08,-312.1 992.08,-312.1 992.08,-316.3 987.88,-320.5 983.68,-320.5"/>
<text xml:space="preserve" text-anchor="middle" x="947" y="-304.8" font-family="Helvetica,sans-Serif" font-size="8.00">CORE&#45;auto&#45;focus &#45; L</text>
</g>
<!-- cool_ideas_CORE_capture_range -->
<g id="node8" class="node">
<title>cool_ideas_CORE_capture_range</title>
<path fill="#d4e8f7" stroke="black" d="M1101.8,-320.5C1101.8,-320.5 1014.2,-320.5 1014.2,-320.5 1010,-320.5 1005.8,-316.3 1005.8,-312.1 1005.8,-312.1 1005.8,-303.7 1005.8,-303.7 1005.8,-299.5 1010,-295.3 1014.2,-295.3 1014.2,-295.3 1101.8,-295.3 1101.8,-295.3 1106,-295.3 1110.2,-299.5 1110.2,-303.7 1110.2,-303.7 1110.2,-312.1 1110.2,-312.1 1110.2,-316.3 1106,-320.5 1101.8,-320.5"/>
<text xml:space="preserve" text-anchor="middle" x="1058" y="-304.8" font-family="Helvetica,sans-Serif" font-size="8.00">CORE&#45;capture&#45;range &#45; S</text>
</g>
<!-- cool_ideas_CORE_constructor_in_disguise_lint -->
<g id="node9" class="node">
<title>cool_ideas_CORE_constructor_in_disguise_lint</title>
<path fill="#d4e8f7" stroke="black" d="M1263.55,-320.5C1263.55,-320.5 1132.45,-320.5 1132.45,-320.5 1128.25,-320.5 1124.05,-316.3 1124.05,-312.1 1124.05,-312.1 1124.05,-303.7 1124.05,-303.7 1124.05,-299.5 1128.25,-295.3 1132.45,-295.3 1132.45,-295.3 1263.55,-295.3 1263.55,-295.3 1267.75,-295.3 1271.95,-299.5 1271.95,-303.7 1271.95,-303.7 1271.95,-312.1 1271.95,-312.1 1271.95,-316.3 1267.75,-320.5 1263.55,-320.5"/>
<text xml:space="preserve" text-anchor="middle" x="1198" y="-304.8" font-family="Helvetica,sans-Serif" font-size="8.00">CORE&#45;constructor&#45;in&#45;disguise&#45;lint &#45; M</text>
</g>
<!-- cool_ideas_CORE_context_budget_forecasting -->
<g id="node10" class="node">
<title>cool_ideas_CORE_context_budget_forecasting</title>
<path fill="#d4e8f7" stroke="black" d="M1427.67,-320.5C1427.67,-320.5 1294.33,-320.5 1294.33,-320.5 1290.12,-320.5 1285.92,-316.3 1285.92,-312.1 1285.92,-312.1 1285.92,-303.7 1285.92,-303.7 1285.92,-299.5 1290.12,-295.3 1294.33,-295.3 1294.33,-295.3 1427.67,-295.3 1427.67,-295.3 1431.88,-295.3 1436.08,-299.5 1436.08,-303.7 1436.08,-303.7 1436.08,-312.1 1436.08,-312.1 1436.08,-316.3 1431.88,-320.5 1427.67,-320.5"/>
<text xml:space="preserve" text-anchor="middle" x="1361" y="-304.8" font-family="Helvetica,sans-Serif" font-size="8.00">CORE&#45;context&#45;budget&#45;forecasting &#45; M</text>
</g>
<!-- cool_ideas_CORE_conversation_primer -->
<g id="node11" class="node">
<title>cool_ideas_CORE_conversation_primer</title>
<path fill="#d4e8f7" stroke="black" d="M1567.67,-320.5C1567.67,-320.5 1458.33,-320.5 1458.33,-320.5 1454.12,-320.5 1449.92,-316.3 1449.92,-312.1 1449.92,-312.1 1449.92,-303.7 1449.92,-303.7 1449.92,-299.5 1454.12,-295.3 1458.33,-295.3 1458.33,-295.3 1567.67,-295.3 1567.67,-295.3 1571.88,-295.3 1576.08,-299.5 1576.08,-303.7 1576.08,-303.7 1576.08,-312.1 1576.08,-312.1 1576.08,-316.3 1571.88,-320.5 1567.67,-320.5"/>
<text xml:space="preserve" text-anchor="middle" x="1513" y="-304.8" font-family="Helvetica,sans-Serif" font-size="8.00">CORE&#45;conversation&#45;primer &#45; M</text>
</g>
<!-- cool_ideas_CORE_cross_session_resume -->
<g id="node12" class="node">
<title>cool_ideas_CORE_cross_session_resume</title>
<path fill="#d4e8f7" stroke="black" d="M1713.3,-320.5C1713.3,-320.5 1598.7,-320.5 1598.7,-320.5 1594.5,-320.5 1590.3,-316.3 1590.3,-312.1 1590.3,-312.1 1590.3,-303.7 1590.3,-303.7 1590.3,-299.5 1594.5,-295.3 1598.7,-295.3 1598.7,-295.3 1713.3,-295.3 1713.3,-295.3 1717.5,-295.3 1721.7,-299.5 1721.7,-303.7 1721.7,-303.7 1721.7,-312.1 1721.7,-312.1 1721.7,-316.3 1717.5,-320.5 1713.3,-320.5"/>
<text xml:space="preserve" text-anchor="middle" x="1656" y="-304.8" font-family="Helvetica,sans-Serif" font-size="8.00">CORE&#45;cross&#45;session&#45;resume &#45; S</text>
</g>
<!-- cool_ideas_CORE_graft_as_teacher -->
<g id="node13" class="node">
<title>cool_ideas_CORE_graft_as_teacher</title>
<path fill="#d4e8f7" stroke="black" d="M1838.17,-320.5C1838.17,-320.5 1743.83,-320.5 1743.83,-320.5 1739.62,-320.5 1735.42,-316.3 1735.42,-312.1 1735.42,-312.1 1735.42,-303.7 1735.42,-303.7 1735.42,-299.5 1739.62,-295.3 1743.83,-295.3 1743.83,-295.3 1838.17,-295.3 1838.17,-295.3 1842.38,-295.3 1846.58,-299.5 1846.58,-303.7 1846.58,-303.7 1846.58,-312.1 1846.58,-312.1 1846.58,-316.3 1842.38,-320.5 1838.17,-320.5"/>
<text xml:space="preserve" text-anchor="middle" x="1791" y="-304.8" font-family="Helvetica,sans-Serif" font-size="8.00">CORE&#45;graft&#45;as&#45;teacher &#45; S</text>
</g>
<!-- cool_ideas_CORE_graft_doctor -->
<g id="node14" class="node">
<title>cool_ideas_CORE_graft_doctor</title>
<path fill="#d4e8f7" stroke="black" d="M1949.05,-320.5C1949.05,-320.5 1868.95,-320.5 1868.95,-320.5 1864.75,-320.5 1860.55,-316.3 1860.55,-312.1 1860.55,-312.1 1860.55,-303.7 1860.55,-303.7 1860.55,-299.5 1864.75,-295.3 1868.95,-295.3 1868.95,-295.3 1949.05,-295.3 1949.05,-295.3 1953.25,-295.3 1957.45,-299.5 1957.45,-303.7 1957.45,-303.7 1957.45,-312.1 1957.45,-312.1 1957.45,-316.3 1953.25,-320.5 1949.05,-320.5"/>
<text xml:space="preserve" text-anchor="middle" x="1909" y="-304.8" font-family="Helvetica,sans-Serif" font-size="8.00">CORE&#45;graft&#45;doctor &#45; M</text>
</g>
<!-- cool_ideas_CORE_graft_teach_learning_receipts -->
<g id="node15" class="node">
<title>cool_ideas_CORE_graft_teach_learning_receipts</title>
<path fill="#d4e8f7" stroke="black" d="M2117.92,-320.5C2117.92,-320.5 1980.08,-320.5 1980.08,-320.5 1975.88,-320.5 1971.67,-316.3 1971.67,-312.1 1971.67,-312.1 1971.67,-303.7 1971.67,-303.7 1971.67,-299.5 1975.88,-295.3 1980.08,-295.3 1980.08,-295.3 2117.92,-295.3 2117.92,-295.3 2122.12,-295.3 2126.32,-299.5 2126.32,-303.7 2126.32,-303.7 2126.32,-312.1 2126.32,-312.1 2126.32,-316.3 2122.12,-320.5 2117.92,-320.5"/>
<text xml:space="preserve" text-anchor="middle" x="2049" y="-304.8" font-family="Helvetica,sans-Serif" font-size="8.00">CORE&#45;graft&#45;teach&#45;learning&#45;receipts &#45; S</text>
</g>
<!-- cool_ideas_CORE_horizon_of_readability -->
<g id="node16" class="node">
<title>cool_ideas_CORE_horizon_of_readability</title>
<path fill="#d4e8f7" stroke="black" d="M2261.55,-320.5C2261.55,-320.5 2148.45,-320.5 2148.45,-320.5 2144.25,-320.5 2140.05,-316.3 2140.05,-312.1 2140.05,-312.1 2140.05,-303.7 2140.05,-303.7 2140.05,-299.5 2144.25,-295.3 2148.45,-295.3 2148.45,-295.3 2261.55,-295.3 2261.55,-295.3 2265.75,-295.3 2269.95,-299.5 2269.95,-303.7 2269.95,-303.7 2269.95,-312.1 2269.95,-312.1 2269.95,-316.3 2265.75,-320.5 2261.55,-320.5"/>
<text xml:space="preserve" text-anchor="middle" x="2205" y="-304.8" font-family="Helvetica,sans-Serif" font-size="8.00">CORE&#45;horizon&#45;of&#45;readability &#45; M</text>
</g>
<!-- cool_ideas_CORE_lagrangian_policy -->
<g id="node17" class="node">
<title>cool_ideas_CORE_lagrangian_policy</title>
<path fill="#d4e8f7" stroke="black" d="M2393.55,-320.5C2393.55,-320.5 2292.45,-320.5 2292.45,-320.5 2288.25,-320.5 2284.05,-316.3 2284.05,-312.1 2284.05,-312.1 2284.05,-303.7 2284.05,-303.7 2284.05,-299.5 2288.25,-295.3 2292.45,-295.3 2292.45,-295.3 2393.55,-295.3 2393.55,-295.3 2397.75,-295.3 2401.95,-299.5 2401.95,-303.7 2401.95,-303.7 2401.95,-312.1 2401.95,-312.1 2401.95,-316.3 2397.75,-320.5 2393.55,-320.5"/>
<text xml:space="preserve" text-anchor="middle" x="2343" y="-304.8" font-family="Helvetica,sans-Serif" font-size="8.00">CORE&#45;lagrangian&#45;policy &#45; XL</text>
</g>
<!-- cool_ideas_CORE_migrate_to_slice_first_reads -->
<g id="node18" class="node">
<title>cool_ideas_CORE_migrate_to_slice_first_reads</title>
<path fill="#d4e8f7" stroke="black" d="M9577.8,-247.05C9577.8,-247.05 9460.2,-247.05 9460.2,-247.05 9456,-247.05 9451.8,-242.85 9451.8,-238.65 9451.8,-238.65 9451.8,-230.25 9451.8,-230.25 9451.8,-226.05 9456,-221.85 9460.2,-221.85 9460.2,-221.85 9577.8,-221.85 9577.8,-221.85 9582,-221.85 9586.2,-226.05 9586.2,-230.25 9586.2,-230.25 9586.2,-238.65 9586.2,-238.65 9586.2,-242.85 9582,-247.05 9577.8,-247.05"/>
<text xml:space="preserve" text-anchor="middle" x="9519" y="-231.35" font-family="Helvetica,sans-Serif" font-size="8.00">CORE&#45;migrate&#45;to&#45;slice&#45;first&#45;reads</text>
</g>
<!-- cool_ideas_CORE_multi_agent_conflict_detection -->
<g id="node19" class="node">
<title>cool_ideas_CORE_multi_agent_conflict_detection</title>
<path fill="#d4e8f7" stroke="black" d="M2561.92,-320.5C2561.92,-320.5 2424.08,-320.5 2424.08,-320.5 2419.88,-320.5 2415.68,-316.3 2415.68,-312.1 2415.68,-312.1 2415.68,-303.7 2415.68,-303.7 2415.68,-299.5 2419.88,-295.3 2424.08,-295.3 2424.08,-295.3 2561.92,-295.3 2561.92,-295.3 2566.12,-295.3 2570.32,-299.5 2570.32,-303.7 2570.32,-303.7 2570.32,-312.1 2570.32,-312.1 2570.32,-316.3 2566.12,-320.5 2561.92,-320.5"/>
<text xml:space="preserve" text-anchor="middle" x="2493" y="-304.8" font-family="Helvetica,sans-Serif" font-size="8.00">CORE&#45;multi&#45;agent&#45;conflict&#45;detection &#45; L</text>
</g>
<!-- cool_ideas_CORE_policy_playground -->
<g id="node20" class="node">
<title>cool_ideas_CORE_policy_playground</title>
<path fill="#d4e8f7" stroke="black" d="M2691.42,-320.5C2691.42,-320.5 2592.58,-320.5 2592.58,-320.5 2588.38,-320.5 2584.18,-316.3 2584.18,-312.1 2584.18,-312.1 2584.18,-303.7 2584.18,-303.7 2584.18,-299.5 2588.38,-295.3 2592.58,-295.3 2592.58,-295.3 2691.42,-295.3 2691.42,-295.3 2695.62,-295.3 2699.82,-299.5 2699.82,-303.7 2699.82,-303.7 2699.82,-312.1 2699.82,-312.1 2699.82,-316.3 2695.62,-320.5 2691.42,-320.5"/>
<text xml:space="preserve" text-anchor="middle" x="2642" y="-304.8" font-family="Helvetica,sans-Serif" font-size="8.00">CORE&#45;policy&#45;playground &#45; S</text>
</g>
<!-- cool_ideas_CORE_policy_profiles -->
<g id="node21" class="node">
<title>cool_ideas_CORE_policy_profiles</title>
<path fill="#d4e8f7" stroke="black" d="M2808.05,-320.5C2808.05,-320.5 2721.95,-320.5 2721.95,-320.5 2717.75,-320.5 2713.55,-316.3 2713.55,-312.1 2713.55,-312.1 2713.55,-303.7 2713.55,-303.7 2713.55,-299.5 2717.75,-295.3 2721.95,-295.3 2721.95,-295.3 2808.05,-295.3 2808.05,-295.3 2812.25,-295.3 2816.45,-299.5 2816.45,-303.7 2816.45,-303.7 2816.45,-312.1 2816.45,-312.1 2816.45,-316.3 2812.25,-320.5 2808.05,-320.5"/>
<text xml:space="preserve" text-anchor="middle" x="2765" y="-304.8" font-family="Helvetica,sans-Serif" font-size="8.00">CORE&#45;policy&#45;profiles &#45; M</text>
</g>
<!-- cool_ideas_CORE_pr_review_structural_summary -->
<g id="node22" class="node">
<title>cool_ideas_CORE_pr_review_structural_summary</title>
<path fill="#d4e8f7" stroke="black" d="M2982.92,-320.5C2982.92,-320.5 2839.08,-320.5 2839.08,-320.5 2834.88,-320.5 2830.68,-316.3 2830.68,-312.1 2830.68,-312.1 2830.68,-303.7 2830.68,-303.7 2830.68,-299.5 2834.88,-295.3 2839.08,-295.3 2839.08,-295.3 2982.92,-295.3 2982.92,-295.3 2987.12,-295.3 2991.32,-299.5 2991.32,-303.7 2991.32,-303.7 2991.32,-312.1 2991.32,-312.1 2991.32,-316.3 2987.12,-320.5 2982.92,-320.5"/>
<text xml:space="preserve" text-anchor="middle" x="2911" y="-304.8" font-family="Helvetica,sans-Serif" font-size="8.00">CORE&#45;pr&#45;review&#45;structural&#45;summary &#45; M</text>
</g>
<!-- cool_ideas_CORE_self_tuning_governor -->
<g id="node23" class="node">
<title>cool_ideas_CORE_self_tuning_governor</title>
<path fill="#d4e8f7" stroke="black" d="M3124.05,-320.5C3124.05,-320.5 3013.95,-320.5 3013.95,-320.5 3009.75,-320.5 3005.55,-316.3 3005.55,-312.1 3005.55,-312.1 3005.55,-303.7 3005.55,-303.7 3005.55,-299.5 3009.75,-295.3 3013.95,-295.3 3013.95,-295.3 3124.05,-295.3 3124.05,-295.3 3128.25,-295.3 3132.45,-299.5 3132.45,-303.7 3132.45,-303.7 3132.45,-312.1 3132.45,-312.1 3132.45,-316.3 3128.25,-320.5 3124.05,-320.5"/>
<text xml:space="preserve" text-anchor="middle" x="3069" y="-304.8" font-family="Helvetica,sans-Serif" font-size="8.00">CORE&#45;self&#45;tuning&#45;governor &#45; M</text>
</g>
<!-- cool_ideas_CORE_session_knowledge_map -->
<g id="node24" class="node">
<title>cool_ideas_CORE_session_knowledge_map</title>
<path fill="#d4e8f7" stroke="black" d="M3277.42,-320.5C3277.42,-320.5 3154.58,-320.5 3154.58,-320.5 3150.38,-320.5 3146.18,-316.3 3146.18,-312.1 3146.18,-312.1 3146.18,-303.7 3146.18,-303.7 3146.18,-299.5 3150.38,-295.3 3154.58,-295.3 3154.58,-295.3 3277.42,-295.3 3277.42,-295.3 3281.62,-295.3 3285.82,-299.5 3285.82,-303.7 3285.82,-303.7 3285.82,-312.1 3285.82,-312.1 3285.82,-316.3 3281.62,-320.5 3277.42,-320.5"/>
<text xml:space="preserve" text-anchor="middle" x="3216" y="-304.8" font-family="Helvetica,sans-Serif" font-size="8.00">CORE&#45;session&#45;knowledge&#45;map &#45; S</text>
</g>
<!-- cool_ideas_CORE_speculative_read_cost -->
<g id="node25" class="node">
<title>cool_ideas_CORE_speculative_read_cost</title>
<path fill="#d4e8f7" stroke="black" d="M3420.17,-320.5C3420.17,-320.5 3307.83,-320.5 3307.83,-320.5 3303.62,-320.5 3299.43,-316.3 3299.43,-312.1 3299.43,-312.1 3299.43,-303.7 3299.43,-303.7 3299.43,-299.5 3303.62,-295.3 3307.83,-295.3 3307.83,-295.3 3420.17,-295.3 3420.17,-295.3 3424.38,-295.3 3428.57,-299.5 3428.57,-303.7 3428.57,-303.7 3428.57,-312.1 3428.57,-312.1 3428.57,-316.3 3424.38,-320.5 3420.17,-320.5"/>
<text xml:space="preserve" text-anchor="middle" x="3364" y="-304.8" font-family="Helvetica,sans-Serif" font-size="8.00">CORE&#45;speculative&#45;read&#45;cost &#45; S</text>
</g>
<!-- cool_ideas_CORE_structural_session_replay -->
<g id="node26" class="node">
<title>cool_ideas_CORE_structural_session_replay</title>
<path fill="#d4e8f7" stroke="black" d="M3576.55,-320.5C3576.55,-320.5 3451.45,-320.5 3451.45,-320.5 3447.25,-320.5 3443.05,-316.3 3443.05,-312.1 3443.05,-312.1 3443.05,-303.7 3443.05,-303.7 3443.05,-299.5 3447.25,-295.3 3451.45,-295.3 3451.45,-295.3 3576.55,-295.3 3576.55,-295.3 3580.75,-295.3 3584.95,-299.5 3584.95,-303.7 3584.95,-303.7 3584.95,-312.1 3584.95,-312.1 3584.95,-316.3 3580.75,-320.5 3576.55,-320.5"/>
<text xml:space="preserve" text-anchor="middle" x="3514" y="-304.8" font-family="Helvetica,sans-Serif" font-size="8.00">CORE&#45;structural&#45;session&#45;replay &#45; M</text>
</g>
<!-- cool_ideas_CORE_structural_test_coverage_map -->
<g id="node27" class="node">
<title>cool_ideas_CORE_structural_test_coverage_map</title>
<path fill="#d4e8f7" stroke="black" d="M3748.8,-320.5C3748.8,-320.5 3607.2,-320.5 3607.2,-320.5 3603,-320.5 3598.8,-316.3 3598.8,-312.1 3598.8,-312.1 3598.8,-303.7 3598.8,-303.7 3598.8,-299.5 3603,-295.3 3607.2,-295.3 3607.2,-295.3 3748.8,-295.3 3748.8,-295.3 3753,-295.3 3757.2,-299.5 3757.2,-303.7 3757.2,-303.7 3757.2,-312.1 3757.2,-312.1 3757.2,-316.3 3753,-320.5 3748.8,-320.5"/>
<text xml:space="preserve" text-anchor="middle" x="3678" y="-304.8" font-family="Helvetica,sans-Serif" font-size="8.00">CORE&#45;structural&#45;test&#45;coverage&#45;map &#45; M</text>
</g>
<!-- cool_ideas_CORE_wire_primitives_into_runtime -->
<g id="node28" class="node">
<title>cool_ideas_CORE_wire_primitives_into_runtime</title>
<path fill="#d4e8f7" stroke="black" d="M3914.42,-320.5C3914.42,-320.5 3779.58,-320.5 3779.58,-320.5 3775.38,-320.5 3771.18,-316.3 3771.18,-312.1 3771.18,-312.1 3771.18,-303.7 3771.18,-303.7 3771.18,-299.5 3775.38,-295.3 3779.58,-295.3 3779.58,-295.3 3914.42,-295.3 3914.42,-295.3 3918.62,-295.3 3922.82,-299.5 3922.82,-303.7 3922.82,-303.7 3922.82,-312.1 3922.82,-312.1 3922.82,-316.3 3918.62,-320.5 3914.42,-320.5"/>
<text xml:space="preserve" text-anchor="middle" x="3847" y="-304.8" font-family="Helvetica,sans-Serif" font-size="8.00">CORE&#45;wire&#45;primitives&#45;into&#45;runtime &#45; M</text>
</g>
<!-- cool_ideas_monitor_tick_ceiling_tracking -->
<g id="node29" class="node">
<title>cool_ideas_monitor_tick_ceiling_tracking</title>
<path fill="#d4e8f7" stroke="black" d="M4052.55,-320.5C4052.55,-320.5 3945.45,-320.5 3945.45,-320.5 3941.25,-320.5 3937.05,-316.3 3937.05,-312.1 3937.05,-312.1 3937.05,-303.7 3937.05,-303.7 3937.05,-299.5 3941.25,-295.3 3945.45,-295.3 3945.45,-295.3 4052.55,-295.3 4052.55,-295.3 4056.75,-295.3 4060.95,-299.5 4060.95,-303.7 4060.95,-303.7 4060.95,-312.1 4060.95,-312.1 4060.95,-316.3 4056.75,-320.5 4052.55,-320.5"/>
<text xml:space="preserve" text-anchor="middle" x="3999" y="-304.8" font-family="Helvetica,sans-Serif" font-size="8.00">monitor&#45;tick&#45;ceiling&#45;tracking &#45; S</text>
</g>
<!-- cool_ideas_WARP_background_indexing -->
<g id="node45" class="node">
<title>cool_ideas_WARP_background_indexing</title>
<path fill="#d4e8f7" stroke="black" d="M4055.55,-247.05C4055.55,-247.05 3942.45,-247.05 3942.45,-247.05 3938.25,-247.05 3934.05,-242.85 3934.05,-238.65 3934.05,-238.65 3934.05,-230.25 3934.05,-230.25 3934.05,-226.05 3938.25,-221.85 3942.45,-221.85 3942.45,-221.85 4055.55,-221.85 4055.55,-221.85 4059.75,-221.85 4063.95,-226.05 4063.95,-230.25 4063.95,-230.25 4063.95,-238.65 4063.95,-238.65 4063.95,-242.85 4059.75,-247.05 4055.55,-247.05"/>
<text xml:space="preserve" text-anchor="middle" x="3999" y="-231.35" font-family="Helvetica,sans-Serif" font-size="8.00">WARP&#45;background&#45;indexing &#45; M</text>
</g>
<!-- cool_ideas_monitor_tick_ceiling_tracking&#45;&gt;cool_ideas_WARP_background_indexing -->
<g id="edge1" class="edge">
<title>cool_ideas_monitor_tick_ceiling_tracking&#45;&gt;cool_ideas_WARP_background_indexing</title>
<path fill="none" stroke="#666666" d="M3999,-295.1C3999,-283.9 3999,-266.88 3999,-253.88"/>
<polygon fill="#666666" stroke="#666666" points="4000.75,-254.02 3999,-249.02 3997.25,-254.02 4000.75,-254.02"/>
<text xml:space="preserve" text-anchor="middle" x="4030.5" y="-268.65" font-family="Helvetica,sans-Serif" font-size="7.00">blocked_by/blocking</text>
</g>
<!-- cool_ideas_SURFACE_active_causal_workspace_status -->
<g id="node30" class="node">
<title>cool_ideas_SURFACE_active_causal_workspace_status</title>
<path fill="#d4e8f7" stroke="black" d="M4247.05,-320.5C4247.05,-320.5 4082.95,-320.5 4082.95,-320.5 4078.75,-320.5 4074.55,-316.3 4074.55,-312.1 4074.55,-312.1 4074.55,-303.7 4074.55,-303.7 4074.55,-299.5 4078.75,-295.3 4082.95,-295.3 4082.95,-295.3 4247.05,-295.3 4247.05,-295.3 4251.25,-295.3 4255.45,-299.5 4255.45,-303.7 4255.45,-303.7 4255.45,-312.1 4255.45,-312.1 4255.45,-316.3 4251.25,-320.5 4247.05,-320.5"/>
<text xml:space="preserve" text-anchor="middle" x="4165" y="-304.8" font-family="Helvetica,sans-Serif" font-size="8.00">SURFACE&#45;active&#45;causal&#45;workspace&#45;status &#45; M</text>
</g>
<!-- cool_ideas_SURFACE_ide_native_graft_integration -->
<g id="node36" class="node">
<title>cool_ideas_SURFACE_ide_native_graft_integration</title>
<path fill="#d4e8f7" stroke="black" d="M4240.3,-247.05C4240.3,-247.05 4089.7,-247.05 4089.7,-247.05 4085.5,-247.05 4081.3,-242.85 4081.3,-238.65 4081.3,-238.65 4081.3,-230.25 4081.3,-230.25 4081.3,-226.05 4085.5,-221.85 4089.7,-221.85 4089.7,-221.85 4240.3,-221.85 4240.3,-221.85 4244.5,-221.85 4248.7,-226.05 4248.7,-230.25 4248.7,-230.25 4248.7,-238.65 4248.7,-238.65 4248.7,-242.85 4244.5,-247.05 4240.3,-247.05"/>
<text xml:space="preserve" text-anchor="middle" x="4165" y="-231.35" font-family="Helvetica,sans-Serif" font-size="8.00">SURFACE&#45;ide&#45;native&#45;graft&#45;integration &#45; XL</text>
</g>
<!-- cool_ideas_SURFACE_active_causal_workspace_status&#45;&gt;cool_ideas_SURFACE_ide_native_graft_integration -->
<g id="edge2" class="edge">
<title>cool_ideas_SURFACE_active_causal_workspace_status&#45;&gt;cool_ideas_SURFACE_ide_native_graft_integration</title>
<path fill="none" stroke="#666666" d="M4165,-295.1C4165,-283.9 4165,-266.88 4165,-253.88"/>
<polygon fill="#666666" stroke="#666666" points="4166.75,-254.02 4165,-249.02 4163.25,-254.02 4166.75,-254.02"/>
<text xml:space="preserve" text-anchor="middle" x="4196.5" y="-268.65" font-family="Helvetica,sans-Serif" font-size="7.00">blocked_by/blocking</text>
</g>
<!-- cool_ideas_SURFACE_attach_to_existing_causal_session -->
<g id="node31" class="node">
<title>cool_ideas_SURFACE_attach_to_existing_causal_session</title>
<path fill="#d4e8f7" stroke="black" d="M4446.3,-320.5C4446.3,-320.5 4277.7,-320.5 4277.7,-320.5 4273.5,-320.5 4269.3,-316.3 4269.3,-312.1 4269.3,-312.1 4269.3,-303.7 4269.3,-303.7 4269.3,-299.5 4273.5,-295.3 4277.7,-295.3 4277.7,-295.3 4446.3,-295.3 4446.3,-295.3 4450.5,-295.3 4454.7,-299.5 4454.7,-303.7 4454.7,-303.7 4454.7,-312.1 4454.7,-312.1 4454.7,-316.3 4450.5,-320.5 4446.3,-320.5"/>
<text xml:space="preserve" text-anchor="middle" x="4362" y="-304.8" font-family="Helvetica,sans-Serif" font-size="8.00">SURFACE&#45;attach&#45;to&#45;existing&#45;causal&#45;session &#45; M</text>
</g>
<!-- cool_ideas_SURFACE_bijou_daemon_control_plane_actions -->
<g id="node32" class="node">
<title>cool_ideas_SURFACE_bijou_daemon_control_plane_actions</title>
<path fill="#d4e8f7" stroke="black" d="M4654.43,-320.5C4654.43,-320.5 4477.57,-320.5 4477.57,-320.5 4473.38,-320.5 4469.18,-316.3 4469.18,-312.1 4469.18,-312.1 4469.18,-303.7 4469.18,-303.7 4469.18,-299.5 4473.38,-295.3 4477.57,-295.3 4477.57,-295.3 4654.43,-295.3 4654.43,-295.3 4658.62,-295.3 4662.82,-299.5 4662.82,-303.7 4662.82,-303.7 4662.82,-312.1 4662.82,-312.1 4662.82,-316.3 4658.62,-320.5 4654.43,-320.5"/>
<text xml:space="preserve" text-anchor="middle" x="4566" y="-304.8" font-family="Helvetica,sans-Serif" font-size="8.00">SURFACE&#45;bijou&#45;daemon&#45;control&#45;plane&#45;actions &#45; L</text>
</g>
<!-- cool_ideas_SURFACE_bijou_daemon_status_live_refresh -->
<g id="node33" class="node">
<title>cool_ideas_SURFACE_bijou_daemon_status_live_refresh</title>
<path fill="#d4e8f7" stroke="black" d="M4854.3,-320.5C4854.3,-320.5 4685.7,-320.5 4685.7,-320.5 4681.5,-320.5 4677.3,-316.3 4677.3,-312.1 4677.3,-312.1 4677.3,-303.7 4677.3,-303.7 4677.3,-299.5 4681.5,-295.3 4685.7,-295.3 4685.7,-295.3 4854.3,-295.3 4854.3,-295.3 4858.5,-295.3 4862.7,-299.5 4862.7,-303.7 4862.7,-303.7 4862.7,-312.1 4862.7,-312.1 4862.7,-316.3 4858.5,-320.5 4854.3,-320.5"/>
<text xml:space="preserve" text-anchor="middle" x="4770" y="-304.8" font-family="Helvetica,sans-Serif" font-size="8.00">SURFACE&#45;bijou&#45;daemon&#45;status&#45;live&#45;refresh &#45; M</text>
</g>
<!-- cool_ideas_SURFACE_git_graft_enhance_expanded_git_subcommands -->
<g id="node34" class="node">
<title>cool_ideas_SURFACE_git_graft_enhance_expanded_git_subcommands</title>
<path fill="#d4e8f7" stroke="black" d="M5089.3,-320.5C5089.3,-320.5 4884.7,-320.5 4884.7,-320.5 4880.5,-320.5 4876.3,-316.3 4876.3,-312.1 4876.3,-312.1 4876.3,-303.7 4876.3,-303.7 4876.3,-299.5 4880.5,-295.3 4884.7,-295.3 4884.7,-295.3 5089.3,-295.3 5089.3,-295.3 5093.5,-295.3 5097.7,-299.5 5097.7,-303.7 5097.7,-303.7 5097.7,-312.1 5097.7,-312.1 5097.7,-316.3 5093.5,-320.5 5089.3,-320.5"/>
<text xml:space="preserve" text-anchor="middle" x="4987" y="-304.8" font-family="Helvetica,sans-Serif" font-size="8.00">SURFACE&#45;git&#45;graft&#45;enhance&#45;expanded&#45;git&#45;subcommands</text>
</g>
<!-- cool_ideas_SURFACE_git_graft_enhance_provenance_hints -->
<g id="node35" class="node">
<title>cool_ideas_SURFACE_git_graft_enhance_provenance_hints</title>
<path fill="#d4e8f7" stroke="black" d="M5285.43,-320.5C5285.43,-320.5 5120.57,-320.5 5120.57,-320.5 5116.38,-320.5 5112.18,-316.3 5112.18,-312.1 5112.18,-312.1 5112.18,-303.7 5112.18,-303.7 5112.18,-299.5 5116.38,-295.3 5120.57,-295.3 5120.57,-295.3 5285.43,-295.3 5285.43,-295.3 5289.62,-295.3 5293.82,-299.5 5293.82,-303.7 5293.82,-303.7 5293.82,-312.1 5293.82,-312.1 5293.82,-316.3 5289.62,-320.5 5285.43,-320.5"/>
<text xml:space="preserve" text-anchor="middle" x="5203" y="-304.8" font-family="Helvetica,sans-Serif" font-size="8.00">SURFACE&#45;git&#45;graft&#45;enhance&#45;provenance&#45;hints</text>
</g>
<!-- cool_ideas_SURFACE_local_history_dag_render_mode_and_count_legend -->
<g id="node37" class="node">
<title>cool_ideas_SURFACE_local_history_dag_render_mode_and_count_legend</title>
<path fill="#d4e8f7" stroke="black" d="M5542.18,-320.5C5542.18,-320.5 5315.82,-320.5 5315.82,-320.5 5311.62,-320.5 5307.43,-316.3 5307.43,-312.1 5307.43,-312.1 5307.43,-303.7 5307.43,-303.7 5307.43,-299.5 5311.62,-295.3 5315.82,-295.3 5315.82,-295.3 5542.18,-295.3 5542.18,-295.3 5546.38,-295.3 5550.57,-299.5 5550.57,-303.7 5550.57,-303.7 5550.57,-312.1 5550.57,-312.1 5550.57,-316.3 5546.38,-320.5 5542.18,-320.5"/>
<text xml:space="preserve" text-anchor="middle" x="5429" y="-304.8" font-family="Helvetica,sans-Serif" font-size="8.00">SURFACE&#45;local&#45;history&#45;dag&#45;render&#45;mode&#45;and&#45;count&#45;legend &#45; S</text>
</g>
<!-- cool_ideas_SURFACE_non_codex_instruction_bootstrap_parity -->
<g id="node38" class="node">
<title>cool_ideas_SURFACE_non_codex_instruction_bootstrap_parity</title>
<path fill="#d4e8f7" stroke="black" d="M5761.43,-320.5C5761.43,-320.5 5572.57,-320.5 5572.57,-320.5 5568.38,-320.5 5564.18,-316.3 5564.18,-312.1 5564.18,-312.1 5564.18,-303.7 5564.18,-303.7 5564.18,-299.5 5568.38,-295.3 5572.57,-295.3 5572.57,-295.3 5761.43,-295.3 5761.43,-295.3 5765.62,-295.3 5769.82,-299.5 5769.82,-303.7 5769.82,-303.7 5769.82,-312.1 5769.82,-312.1 5769.82,-316.3 5765.62,-320.5 5761.43,-320.5"/>
<text xml:space="preserve" text-anchor="middle" x="5667" y="-304.8" font-family="Helvetica,sans-Serif" font-size="8.00">SURFACE&#45;non&#45;codex&#45;instruction&#45;bootstrap&#45;parity &#45; M</text>
</g>
<!-- cool_ideas_SURFACE_offer_rename_refactor -->
<g id="node39" class="node">
<title>cool_ideas_SURFACE_offer_rename_refactor</title>
<path fill="#d4e8f7" stroke="black" d="M5921.43,-320.5C5921.43,-320.5 5792.57,-320.5 5792.57,-320.5 5788.38,-320.5 5784.18,-316.3 5784.18,-312.1 5784.18,-312.1 5784.18,-303.7 5784.18,-303.7 5784.18,-299.5 5788.38,-295.3 5792.57,-295.3 5792.57,-295.3 5921.43,-295.3 5921.43,-295.3 5925.62,-295.3 5929.82,-299.5 5929.82,-303.7 5929.82,-303.7 5929.82,-312.1 5929.82,-312.1 5929.82,-316.3 5925.62,-320.5 5921.43,-320.5"/>
<text xml:space="preserve" text-anchor="middle" x="5857" y="-304.8" font-family="Helvetica,sans-Serif" font-size="8.00">SURFACE&#45;offer&#45;rename&#45;refactor &#45; L</text>
</g>
<!-- cool_ideas_SURFACE_terminal_activity_browser_tui -->
<g id="node40" class="node">
<title>cool_ideas_SURFACE_terminal_activity_browser_tui</title>
<path fill="#d4e8f7" stroke="black" d="M6101.55,-320.5C6101.55,-320.5 5952.45,-320.5 5952.45,-320.5 5948.25,-320.5 5944.05,-316.3 5944.05,-312.1 5944.05,-312.1 5944.05,-303.7 5944.05,-303.7 5944.05,-299.5 5948.25,-295.3 5952.45,-295.3 5952.45,-295.3 6101.55,-295.3 6101.55,-295.3 6105.75,-295.3 6109.95,-299.5 6109.95,-303.7 6109.95,-303.7 6109.95,-312.1 6109.95,-312.1 6109.95,-316.3 6105.75,-320.5 6101.55,-320.5"/>
<text xml:space="preserve" text-anchor="middle" x="6027" y="-304.8" font-family="Helvetica,sans-Serif" font-size="8.00">SURFACE&#45;terminal&#45;activity&#45;browser&#45;tui &#45; L</text>
</g>
<!-- cool_ideas_traverse_plus_query_hydration_helper -->
<g id="node41" class="node">
<title>cool_ideas_traverse_plus_query_hydration_helper</title>
<path fill="#d4e8f7" stroke="black" d="M6273.8,-320.5C6273.8,-320.5 6132.2,-320.5 6132.2,-320.5 6128,-320.5 6123.8,-316.3 6123.8,-312.1 6123.8,-312.1 6123.8,-303.7 6123.8,-303.7 6123.8,-299.5 6128,-295.3 6132.2,-295.3 6132.2,-295.3 6273.8,-295.3 6273.8,-295.3 6278,-295.3 6282.2,-299.5 6282.2,-303.7 6282.2,-303.7 6282.2,-312.1 6282.2,-312.1 6282.2,-316.3 6278,-320.5 6273.8,-320.5"/>
<text xml:space="preserve" text-anchor="middle" x="6203" y="-304.8" font-family="Helvetica,sans-Serif" font-size="8.00">traverse&#45;plus&#45;query&#45;hydration&#45;helper &#45; S</text>
</g>
<!-- cool_ideas_WARP_adaptive_projection_selection -->
<g id="node42" class="node">
<title>cool_ideas_WARP_adaptive_projection_selection</title>
<path fill="#d4e8f7" stroke="black" d="M6442.93,-320.5C6442.93,-320.5 6305.07,-320.5 6305.07,-320.5 6300.88,-320.5 6296.68,-316.3 6296.68,-312.1 6296.68,-312.1 6296.68,-303.7 6296.68,-303.7 6296.68,-299.5 6300.88,-295.3 6305.07,-295.3 6305.07,-295.3 6442.93,-295.3 6442.93,-295.3 6447.12,-295.3 6451.32,-299.5 6451.32,-303.7 6451.32,-303.7 6451.32,-312.1 6451.32,-312.1 6451.32,-316.3 6447.12,-320.5 6442.93,-320.5"/>
<text xml:space="preserve" text-anchor="middle" x="6374" y="-304.8" font-family="Helvetica,sans-Serif" font-size="8.00">WARP&#45;adaptive&#45;projection&#45;selection &#45; L</text>
</g>
<!-- cool_ideas_WARP_agent_action_provenance -->
<g id="node43" class="node">
<title>cool_ideas_WARP_agent_action_provenance</title>
<path fill="#d4e8f7" stroke="black" d="M6604.55,-320.5C6604.55,-320.5 6473.45,-320.5 6473.45,-320.5 6469.25,-320.5 6465.05,-316.3 6465.05,-312.1 6465.05,-312.1 6465.05,-303.7 6465.05,-303.7 6465.05,-299.5 6469.25,-295.3 6473.45,-295.3 6473.45,-295.3 6604.55,-295.3 6604.55,-295.3 6608.75,-295.3 6612.95,-299.5 6612.95,-303.7 6612.95,-303.7 6612.95,-312.1 6612.95,-312.1 6612.95,-316.3 6608.75,-320.5 6604.55,-320.5"/>
<text xml:space="preserve" text-anchor="middle" x="6539" y="-304.8" font-family="Helvetica,sans-Serif" font-size="8.00">WARP&#45;agent&#45;action&#45;provenance &#45; XL</text>
</g>
<!-- cool_ideas_WARP_agent_action_provenance&#45;&gt;cool_ideas_CI_001_causal_collapse_visualizer -->
<g id="edge3" class="edge">
<title>cool_ideas_WARP_agent_action_provenance&#45;&gt;cool_ideas_CI_001_causal_collapse_visualizer</title>
<path fill="none" stroke="#666666" d="M6564.81,-294.81C6577.04,-289.01 6591.83,-281.9 6605,-275.3 6620.99,-267.28 6638.7,-258.02 6653,-250.44"/>
<polygon fill="#666666" stroke="#666666" points="6653.57,-252.12 6657.16,-248.23 6651.92,-249.03 6653.57,-252.12"/>
<text xml:space="preserve" text-anchor="middle" x="6651.14" y="-268.65" font-family="Helvetica,sans-Serif" font-size="7.00">blocked_by/blocking</text>
</g>
<!-- cool_ideas_WARP_causal_write_tracking -->
<g id="node48" class="node">
<title>cool_ideas_WARP_causal_write_tracking</title>
<path fill="#d4e8f7" stroke="black" d="M6297.05,-247.05C6297.05,-247.05 6186.95,-247.05 6186.95,-247.05 6182.75,-247.05 6178.55,-242.85 6178.55,-238.65 6178.55,-238.65 6178.55,-230.25 6178.55,-230.25 6178.55,-226.05 6182.75,-221.85 6186.95,-221.85 6186.95,-221.85 6297.05,-221.85 6297.05,-221.85 6301.25,-221.85 6305.45,-226.05 6305.45,-230.25 6305.45,-230.25 6305.45,-238.65 6305.45,-238.65 6305.45,-242.85 6301.25,-247.05 6297.05,-247.05"/>
<text xml:space="preserve" text-anchor="middle" x="6242" y="-231.35" font-family="Helvetica,sans-Serif" font-size="8.00">WARP&#45;causal&#45;write&#45;tracking &#45; L</text>
</g>
<!-- cool_ideas_WARP_agent_action_provenance&#45;&gt;cool_ideas_WARP_causal_write_tracking -->
<g id="edge4" class="edge">
<title>cool_ideas_WARP_agent_action_provenance&#45;&gt;cool_ideas_WARP_causal_write_tracking</title>
<path fill="none" stroke="#666666" d="M6491.13,-294.83C6480.27,-292.23 6468.76,-289.58 6458,-287.3 6428.83,-281.12 6421.1,-281.8 6392,-275.3 6357.63,-267.62 6319.25,-257.4 6289.92,-249.23"/>
<polygon fill="#666666" stroke="#666666" points="6290.55,-247.58 6285.26,-247.92 6289.61,-250.96 6290.55,-247.58"/>
<text xml:space="preserve" text-anchor="middle" x="6423.5" y="-268.65" font-family="Helvetica,sans-Serif" font-size="7.00">blocked_by/blocking</text>
</g>
<!-- cool_ideas_WARP_intent_and_decision_events -->
<g id="node58" class="node">
<title>cool_ideas_WARP_intent_and_decision_events</title>
<path fill="#d4e8f7" stroke="black" d="M6460.3,-247.05C6460.3,-247.05 6327.7,-247.05 6327.7,-247.05 6323.5,-247.05 6319.3,-242.85 6319.3,-238.65 6319.3,-238.65 6319.3,-230.25 6319.3,-230.25 6319.3,-226.05 6323.5,-221.85 6327.7,-221.85 6327.7,-221.85 6460.3,-221.85 6460.3,-221.85 6464.5,-221.85 6468.7,-226.05 6468.7,-230.25 6468.7,-230.25 6468.7,-238.65 6468.7,-238.65 6468.7,-242.85 6464.5,-247.05 6460.3,-247.05"/>
<text xml:space="preserve" text-anchor="middle" x="6394" y="-231.35" font-family="Helvetica,sans-Serif" font-size="8.00">WARP&#45;intent&#45;and&#45;decision&#45;events &#45; M</text>
</g>
<!-- cool_ideas_WARP_agent_action_provenance&#45;&gt;cool_ideas_WARP_intent_and_decision_events -->
<g id="edge5" class="edge">
<title>cool_ideas_WARP_agent_action_provenance&#45;&gt;cool_ideas_WARP_intent_and_decision_events</title>
<path fill="none" stroke="#666666" d="M6513.55,-294.87C6501.27,-289.02 6486.34,-281.86 6473,-275.3 6456.45,-267.16 6438.05,-257.89 6423.17,-250.34"/>
<polygon fill="#666666" stroke="#666666" points="6424.04,-248.83 6418.79,-248.12 6422.46,-251.95 6424.04,-248.83"/>
<text xml:space="preserve" text-anchor="middle" x="6504.5" y="-268.65" font-family="Helvetica,sans-Serif" font-size="7.00">blocked_by/blocking</text>
</g>
<!-- cool_ideas_WARP_provenance_dag -->
<g id="node64" class="node">
<title>cool_ideas_WARP_provenance_dag</title>
<path fill="#d4e8f7" stroke="black" d="M6586.55,-247.05C6586.55,-247.05 6491.45,-247.05 6491.45,-247.05 6487.25,-247.05 6483.05,-242.85 6483.05,-238.65 6483.05,-238.65 6483.05,-230.25 6483.05,-230.25 6483.05,-226.05 6487.25,-221.85 6491.45,-221.85 6491.45,-221.85 6586.55,-221.85 6586.55,-221.85 6590.75,-221.85 6594.95,-226.05 6594.95,-230.25 6594.95,-230.25 6594.95,-238.65 6594.95,-238.65 6594.95,-242.85 6590.75,-247.05 6586.55,-247.05"/>
<text xml:space="preserve" text-anchor="middle" x="6539" y="-231.35" font-family="Helvetica,sans-Serif" font-size="8.00">WARP&#45;provenance&#45;dag &#45; L</text>
</g>
<!-- cool_ideas_WARP_agent_action_provenance&#45;&gt;cool_ideas_WARP_provenance_dag -->
<g id="edge6" class="edge">
<title>cool_ideas_WARP_agent_action_provenance&#45;&gt;cool_ideas_WARP_provenance_dag</title>
<path fill="none" stroke="#666666" d="M6539,-295.1C6539,-283.9 6539,-266.88 6539,-253.88"/>
<polygon fill="#666666" stroke="#666666" points="6540.75,-254.02 6539,-249.02 6537.25,-254.02 6540.75,-254.02"/>
<text xml:space="preserve" text-anchor="middle" x="6570.5" y="-268.65" font-family="Helvetica,sans-Serif" font-size="7.00">blocked_by/blocking</text>
</g>
<!-- cool_ideas_WARP_auto_breaking_change_detection -->
<g id="node44" class="node">
<title>cool_ideas_WARP_auto_breaking_change_detection</title>
<path fill="#d4e8f7" stroke="black" d="M9759.3,-247.05C9759.3,-247.05 9608.7,-247.05 9608.7,-247.05 9604.5,-247.05 9600.3,-242.85 9600.3,-238.65 9600.3,-238.65 9600.3,-230.25 9600.3,-230.25 9600.3,-226.05 9604.5,-221.85 9608.7,-221.85 9608.7,-221.85 9759.3,-221.85 9759.3,-221.85 9763.5,-221.85 9767.7,-226.05 9767.7,-230.25 9767.7,-230.25 9767.7,-238.65 9767.7,-238.65 9767.7,-242.85 9763.5,-247.05 9759.3,-247.05"/>
<text xml:space="preserve" text-anchor="middle" x="9684" y="-231.35" font-family="Helvetica,sans-Serif" font-size="8.00">WARP&#45;auto&#45;breaking&#45;change&#45;detection &#45; L</text>
</g>
<!-- cool_ideas_WARP_budget_elasticity -->
<g id="node46" class="node">
<title>cool_ideas_WARP_budget_elasticity</title>
<path fill="#d4e8f7" stroke="black" d="M6730.93,-320.5C6730.93,-320.5 6635.07,-320.5 6635.07,-320.5 6630.88,-320.5 6626.68,-316.3 6626.68,-312.1 6626.68,-312.1 6626.68,-303.7 6626.68,-303.7 6626.68,-299.5 6630.88,-295.3 6635.07,-295.3 6635.07,-295.3 6730.93,-295.3 6730.93,-295.3 6735.12,-295.3 6739.32,-299.5 6739.32,-303.7 6739.32,-303.7 6739.32,-312.1 6739.32,-312.1 6739.32,-316.3 6735.12,-320.5 6730.93,-320.5"/>
<text xml:space="preserve" text-anchor="middle" x="6683" y="-304.8" font-family="Helvetica,sans-Serif" font-size="8.00">WARP&#45;budget&#45;elasticity &#45; M</text>
</g>
<!-- cool_ideas_WARP_causal_blame_for_staged_artifacts -->
<g id="node47" class="node">
<title>cool_ideas_WARP_causal_blame_for_staged_artifacts</title>
<path fill="#d4e8f7" stroke="black" d="M6690.18,-173.6C6690.18,-173.6 6535.82,-173.6 6535.82,-173.6 6531.62,-173.6 6527.43,-169.4 6527.43,-165.2 6527.43,-165.2 6527.43,-156.8 6527.43,-156.8 6527.43,-152.6 6531.62,-148.4 6535.82,-148.4 6535.82,-148.4 6690.18,-148.4 6690.18,-148.4 6694.38,-148.4 6698.57,-152.6 6698.57,-156.8 6698.57,-156.8 6698.57,-165.2 6698.57,-165.2 6698.57,-169.4 6694.38,-173.6 6690.18,-173.6"/>
<text xml:space="preserve" text-anchor="middle" x="6613" y="-157.9" font-family="Helvetica,sans-Serif" font-size="8.00">WARP&#45;causal&#45;blame&#45;for&#45;staged&#45;artifacts &#45; L</text>
</g>
<!-- cool_ideas_WARP_codebase_entropy_trajectory -->
<g id="node49" class="node">
<title>cool_ideas_WARP_codebase_entropy_trajectory</title>
<path fill="#d4e8f7" stroke="black" d="M6900.68,-320.5C6900.68,-320.5 6761.32,-320.5 6761.32,-320.5 6757.12,-320.5 6752.93,-316.3 6752.93,-312.1 6752.93,-312.1 6752.93,-303.7 6752.93,-303.7 6752.93,-299.5 6757.12,-295.3 6761.32,-295.3 6761.32,-295.3 6900.68,-295.3 6900.68,-295.3 6904.88,-295.3 6909.07,-299.5 6909.07,-303.7 6909.07,-303.7 6909.07,-312.1 6909.07,-312.1 6909.07,-316.3 6904.88,-320.5 6900.68,-320.5"/>
<text xml:space="preserve" text-anchor="middle" x="6831" y="-304.8" font-family="Helvetica,sans-Serif" font-size="8.00">WARP&#45;codebase&#45;entropy&#45;trajectory &#45; M</text>
</g>
<!-- cool_ideas_WARP_counterfactual_refactoring -->
<g id="node51" class="node">
<title>cool_ideas_WARP_counterfactual_refactoring</title>
<path fill="#d4e8f7" stroke="black" d="M6908.68,-247.05C6908.68,-247.05 6775.32,-247.05 6775.32,-247.05 6771.12,-247.05 6766.93,-242.85 6766.93,-238.65 6766.93,-238.65 6766.93,-230.25 6766.93,-230.25 6766.93,-226.05 6771.12,-221.85 6775.32,-221.85 6775.32,-221.85 6908.68,-221.85 6908.68,-221.85 6912.88,-221.85 6917.07,-226.05 6917.07,-230.25 6917.07,-230.25 6917.07,-238.65 6917.07,-238.65 6917.07,-242.85 6912.88,-247.05 6908.68,-247.05"/>
<text xml:space="preserve" text-anchor="middle" x="6842" y="-231.35" font-family="Helvetica,sans-Serif" font-size="8.00">WARP&#45;counterfactual&#45;refactoring &#45; XL</text>
</g>
<!-- cool_ideas_WARP_codebase_entropy_trajectory&#45;&gt;cool_ideas_WARP_counterfactual_refactoring -->
<g id="edge7" class="edge">
<title>cool_ideas_WARP_codebase_entropy_trajectory&#45;&gt;cool_ideas_WARP_counterfactual_refactoring</title>
<path fill="none" stroke="#666666" d="M6832.82,-295.1C6834.54,-283.9 6837.16,-266.88 6839.16,-253.88"/>
<polygon fill="#666666" stroke="#666666" points="6840.88,-254.21 6839.91,-249 6837.42,-253.68 6840.88,-254.21"/>
<text xml:space="preserve" text-anchor="middle" x="6868.33" y="-268.65" font-family="Helvetica,sans-Serif" font-size="7.00">blocked_by/blocking</text>
</g>
<!-- cool_ideas_WARP_codebase_signature -->
<g id="node50" class="node">
<title>cool_ideas_WARP_codebase_signature</title>
<path fill="#d4e8f7" stroke="black" d="M7038.55,-320.5C7038.55,-320.5 6931.45,-320.5 6931.45,-320.5 6927.25,-320.5 6923.05,-316.3 6923.05,-312.1 6923.05,-312.1 6923.05,-303.7 6923.05,-303.7 6923.05,-299.5 6927.25,-295.3 6931.45,-295.3 6931.45,-295.3 7038.55,-295.3 7038.55,-295.3 7042.75,-295.3 7046.95,-299.5 7046.95,-303.7 7046.95,-303.7 7046.95,-312.1 7046.95,-312.1 7046.95,-316.3 7042.75,-320.5 7038.55,-320.5"/>
<text xml:space="preserve" text-anchor="middle" x="6985" y="-304.8" font-family="Helvetica,sans-Serif" font-size="8.00">WARP&#45;codebase&#45;signature &#45; L</text>
</g>
<!-- cool_ideas_WARP_structural_impact_prediction -->
<g id="node74" class="node">
<title>cool_ideas_WARP_structural_impact_prediction</title>
<path fill="#d4e8f7" stroke="black" d="M6911.3,-173.6C6911.3,-173.6 6772.7,-173.6 6772.7,-173.6 6768.5,-173.6 6764.3,-169.4 6764.3,-165.2 6764.3,-165.2 6764.3,-156.8 6764.3,-156.8 6764.3,-152.6 6768.5,-148.4 6772.7,-148.4 6772.7,-148.4 6911.3,-148.4 6911.3,-148.4 6915.5,-148.4 6919.7,-152.6 6919.7,-156.8 6919.7,-156.8 6919.7,-165.2 6919.7,-165.2 6919.7,-169.4 6915.5,-173.6 6911.3,-173.6"/>
<text xml:space="preserve" text-anchor="middle" x="6842" y="-157.9" font-family="Helvetica,sans-Serif" font-size="8.00">WARP&#45;structural&#45;impact&#45;prediction &#45; XL</text>
</g>
<!-- cool_ideas_WARP_counterfactual_refactoring&#45;&gt;cool_ideas_WARP_structural_impact_prediction -->
<g id="edge8" class="edge">
<title>cool_ideas_WARP_counterfactual_refactoring&#45;&gt;cool_ideas_WARP_structural_impact_prediction</title>
<path fill="none" stroke="#666666" d="M6842,-221.65C6842,-210.45 6842,-193.43 6842,-180.43"/>
<polygon fill="#666666" stroke="#666666" points="6843.75,-180.57 6842,-175.57 6840.25,-180.57 6843.75,-180.57"/>
<text xml:space="preserve" text-anchor="middle" x="6873.5" y="-195.2" font-family="Helvetica,sans-Serif" font-size="7.00">blocked_by/blocking</text>
</g>
<!-- cool_ideas_WARP_dead_symbol_detection -->
<g id="node52" class="node">
<title>cool_ideas_WARP_dead_symbol_detection</title>
<path fill="#d4e8f7" stroke="black" d="M7188.18,-320.5C7188.18,-320.5 7069.82,-320.5 7069.82,-320.5 7065.62,-320.5 7061.43,-316.3 7061.43,-312.1 7061.43,-312.1 7061.43,-303.7 7061.43,-303.7 7061.43,-299.5 7065.62,-295.3 7069.82,-295.3 7069.82,-295.3 7188.18,-295.3 7188.18,-295.3 7192.38,-295.3 7196.57,-299.5 7196.57,-303.7 7196.57,-303.7 7196.57,-312.1 7196.57,-312.1 7196.57,-316.3 7192.38,-320.5 7188.18,-320.5"/>
<text xml:space="preserve" text-anchor="middle" x="7129" y="-304.8" font-family="Helvetica,sans-Serif" font-size="8.00">WARP&#45;dead&#45;symbol&#45;detection &#45; S</text>
</g>
<!-- cool_ideas_WARP_degeneracy_warning -->
<g id="node53" class="node">
<title>cool_ideas_WARP_degeneracy_warning</title>
<path fill="#d4e8f7" stroke="black" d="M7331.18,-320.5C7331.18,-320.5 7218.82,-320.5 7218.82,-320.5 7214.62,-320.5 7210.43,-316.3 7210.43,-312.1 7210.43,-312.1 7210.43,-303.7 7210.43,-303.7 7210.43,-299.5 7214.62,-295.3 7218.82,-295.3 7218.82,-295.3 7331.18,-295.3 7331.18,-295.3 7335.38,-295.3 7339.57,-299.5 7339.57,-303.7 7339.57,-303.7 7339.57,-312.1 7339.57,-312.1 7339.57,-316.3 7335.38,-320.5 7331.18,-320.5"/>
<text xml:space="preserve" text-anchor="middle" x="7275" y="-304.8" font-family="Helvetica,sans-Serif" font-size="8.00">WARP&#45;degeneracy&#45;warning &#45; M</text>
</g>
<!-- cool_ideas_WARP_drift_sentinel -->
<g id="node54" class="node">
<title>cool_ideas_WARP_drift_sentinel</title>
<path fill="#d4e8f7" stroke="black" d="M9265.18,-247.05C9265.18,-247.05 9182.82,-247.05 9182.82,-247.05 9178.62,-247.05 9174.42,-242.85 9174.42,-238.65 9174.42,-238.65 9174.42,-230.25 9174.42,-230.25 9174.42,-226.05 9178.62,-221.85 9182.82,-221.85 9182.82,-221.85 9265.18,-221.85 9265.18,-221.85 9269.38,-221.85 9273.58,-226.05 9273.58,-230.25 9273.58,-230.25 9273.58,-238.65 9273.58,-238.65 9273.58,-242.85 9269.38,-247.05 9265.18,-247.05"/>
<text xml:space="preserve" text-anchor="middle" x="9224" y="-231.35" font-family="Helvetica,sans-Serif" font-size="8.00">WARP&#45;drift&#45;sentinel &#45; M</text>
</g>
<!-- cool_ideas_WARP_footprint_parallelism -->
<g id="node55" class="node">
<title>cool_ideas_WARP_footprint_parallelism</title>
<path fill="#d4e8f7" stroke="black" d="M7473.8,-320.5C7473.8,-320.5 7362.2,-320.5 7362.2,-320.5 7358,-320.5 7353.8,-316.3 7353.8,-312.1 7353.8,-312.1 7353.8,-303.7 7353.8,-303.7 7353.8,-299.5 7358,-295.3 7362.2,-295.3 7362.2,-295.3 7473.8,-295.3 7473.8,-295.3 7478,-295.3 7482.2,-299.5 7482.2,-303.7 7482.2,-303.7 7482.2,-312.1 7482.2,-312.1 7482.2,-316.3 7478,-320.5 7473.8,-320.5"/>
<text xml:space="preserve" text-anchor="middle" x="7418" y="-304.8" font-family="Helvetica,sans-Serif" font-size="8.00">WARP&#45;footprint&#45;parallelism &#45; XL</text>
</g>
<!-- cool_ideas_WARP_graft_pack -->
<g id="node56" class="node">
<title>cool_ideas_WARP_graft_pack</title>
<path fill="#d4e8f7" stroke="black" d="M7579.43,-320.5C7579.43,-320.5 7504.57,-320.5 7504.57,-320.5 7500.38,-320.5 7496.18,-316.3 7496.18,-312.1 7496.18,-312.1 7496.18,-303.7 7496.18,-303.7 7496.18,-299.5 7500.38,-295.3 7504.57,-295.3 7504.57,-295.3 7579.43,-295.3 7579.43,-295.3 7583.62,-295.3 7587.82,-299.5 7587.82,-303.7 7587.82,-303.7 7587.82,-312.1 7587.82,-312.1 7587.82,-316.3 7583.62,-320.5 7579.43,-320.5"/>
<text xml:space="preserve" text-anchor="middle" x="7542" y="-304.8" font-family="Helvetica,sans-Serif" font-size="8.00">WARP&#45;graft&#45;pack &#45; M</text>
</g>
<!-- cool_ideas_WARP_grouped_aggregate_queries -->
<g id="node57" class="node">
<title>cool_ideas_WARP_grouped_aggregate_queries</title>
<path fill="#d4e8f7" stroke="black" d="M7747.93,-320.5C7747.93,-320.5 7610.07,-320.5 7610.07,-320.5 7605.88,-320.5 7601.68,-316.3 7601.68,-312.1 7601.68,-312.1 7601.68,-303.7 7601.68,-303.7 7601.68,-299.5 7605.88,-295.3 7610.07,-295.3 7610.07,-295.3 7747.93,-295.3 7747.93,-295.3 7752.12,-295.3 7756.32,-299.5 7756.32,-303.7 7756.32,-303.7 7756.32,-312.1 7756.32,-312.1 7756.32,-316.3 7752.12,-320.5 7747.93,-320.5"/>
<text xml:space="preserve" text-anchor="middle" x="7679" y="-304.8" font-family="Helvetica,sans-Serif" font-size="8.00">WARP&#45;grouped&#45;aggregate&#45;queries &#45; M</text>
</g>
<!-- cool_ideas_WARP_intentional_degeneracy_privacy -->
<g id="node59" class="node">
<title>cool_ideas_WARP_intentional_degeneracy_privacy</title>
<path fill="#d4e8f7" stroke="black" d="M7926.8,-320.5C7926.8,-320.5 7779.2,-320.5 7779.2,-320.5 7775,-320.5 7770.8,-316.3 7770.8,-312.1 7770.8,-312.1 7770.8,-303.7 7770.8,-303.7 7770.8,-299.5 7775,-295.3 7779.2,-295.3 7779.2,-295.3 7926.8,-295.3 7926.8,-295.3 7931,-295.3 7935.2,-299.5 7935.2,-303.7 7935.2,-303.7 7935.2,-312.1 7935.2,-312.1 7935.2,-316.3 7931,-320.5 7926.8,-320.5"/>
<text xml:space="preserve" text-anchor="middle" x="7853" y="-304.8" font-family="Helvetica,sans-Serif" font-size="8.00">WARP&#45;intentional&#45;degeneracy&#45;privacy &#45; M</text>
</g>
<!-- cool_ideas_WARP_lsp_enrichment -->
<g id="node60" class="node">
<title>cool_ideas_WARP_lsp_enrichment</title>
<path fill="#d4e8f7" stroke="black" d="M8034.55,-320.5C8034.55,-320.5 7957.45,-320.5 7957.45,-320.5 7953.25,-320.5 7949.05,-316.3 7949.05,-312.1 7949.05,-312.1 7949.05,-303.7 7949.05,-303.7 7949.05,-299.5 7953.25,-295.3 7957.45,-295.3 7957.45,-295.3 8034.55,-295.3 8034.55,-295.3 8038.75,-295.3 8042.95,-299.5 8042.95,-303.7 8042.95,-303.7 8042.95,-312.1 8042.95,-312.1 8042.95,-316.3 8038.75,-320.5 8034.55,-320.5"/>
<text xml:space="preserve" text-anchor="middle" x="7996" y="-304.8" font-family="Helvetica,sans-Serif" font-size="8.00">WARP&#45;lsp&#45;enrichment</text>
</g>
<!-- cool_ideas_WARP_minimum_viable_context -->
<g id="node61" class="node">
<title>cool_ideas_WARP_minimum_viable_context</title>
<path fill="#d4e8f7" stroke="black" d="M8188.43,-320.5C8188.43,-320.5 8065.57,-320.5 8065.57,-320.5 8061.38,-320.5 8057.18,-316.3 8057.18,-312.1 8057.18,-312.1 8057.18,-303.7 8057.18,-303.7 8057.18,-299.5 8061.38,-295.3 8065.57,-295.3 8065.57,-295.3 8188.43,-295.3 8188.43,-295.3 8192.62,-295.3 8196.83,-299.5 8196.83,-303.7 8196.83,-303.7 8196.83,-312.1 8196.83,-312.1 8196.83,-316.3 8192.62,-320.5 8188.43,-320.5"/>
<text xml:space="preserve" text-anchor="middle" x="8127" y="-304.8" font-family="Helvetica,sans-Serif" font-size="8.00">WARP&#45;minimum&#45;viable&#45;context &#45; M</text>
</g>
<!-- cool_ideas_WARP_outline_diff_commit_trailer -->
<g id="node62" class="node">
<title>cool_ideas_WARP_outline_diff_commit_trailer</title>
<path fill="#d4e8f7" stroke="black" d="M8344.93,-320.5C8344.93,-320.5 8219.07,-320.5 8219.07,-320.5 8214.88,-320.5 8210.67,-316.3 8210.67,-312.1 8210.67,-312.1 8210.67,-303.7 8210.67,-303.7 8210.67,-299.5 8214.88,-295.3 8219.07,-295.3 8219.07,-295.3 8344.93,-295.3 8344.93,-295.3 8349.12,-295.3 8353.33,-299.5 8353.33,-303.7 8353.33,-303.7 8353.33,-312.1 8353.33,-312.1 8353.33,-316.3 8349.12,-320.5 8344.93,-320.5"/>
<text xml:space="preserve" text-anchor="middle" x="8282" y="-304.8" font-family="Helvetica,sans-Serif" font-size="8.00">WARP&#45;outline&#45;diff&#45;commit&#45;trailer &#45; S</text>
</g>
<!-- cool_ideas_WARP_projection_safety_classes -->
<g id="node63" class="node">
<title>cool_ideas_WARP_projection_safety_classes</title>
<path fill="#d4e8f7" stroke="black" d="M8501.93,-320.5C8501.93,-320.5 8376.07,-320.5 8376.07,-320.5 8371.88,-320.5 8367.67,-316.3 8367.67,-312.1 8367.67,-312.1 8367.67,-303.7 8367.67,-303.7 8367.67,-299.5 8371.88,-295.3 8376.07,-295.3 8376.07,-295.3 8501.93,-295.3 8501.93,-295.3 8506.12,-295.3 8510.33,-299.5 8510.33,-303.7 8510.33,-303.7 8510.33,-312.1 8510.33,-312.1 8510.33,-316.3 8506.12,-320.5 8501.93,-320.5"/>
<text xml:space="preserve" text-anchor="middle" x="8439" y="-304.8" font-family="Helvetica,sans-Serif" font-size="8.00">WARP&#45;projection&#45;safety&#45;classes &#45; M</text>
</g>
<!-- cool_ideas_WARP_provenance_dag&#45;&gt;cool_ideas_WARP_causal_blame_for_staged_artifacts -->
<g id="edge9" class="edge">
<title>cool_ideas_WARP_provenance_dag&#45;&gt;cool_ideas_WARP_causal_blame_for_staged_artifacts</title>
<path fill="none" stroke="#666666" d="M6551.22,-221.65C6563.46,-209.83 6582.41,-191.54 6596.09,-178.32"/>
<polygon fill="#666666" stroke="#666666" points="6597.04,-179.84 6599.43,-175.11 6594.61,-177.32 6597.04,-179.84"/>
<text xml:space="preserve" text-anchor="middle" x="6609.72" y="-195.2" font-family="Helvetica,sans-Serif" font-size="7.00">blocked_by/blocking</text>
</g>
<!-- cool_ideas_WARP_reasoning_trace_replay -->
<g id="node65" class="node">
<title>cool_ideas_WARP_reasoning_trace_replay</title>
<path fill="#d4e8f7" stroke="black" d="M6504.93,-173.6C6504.93,-173.6 6385.07,-173.6 6385.07,-173.6 6380.88,-173.6 6376.68,-169.4 6376.68,-165.2 6376.68,-165.2 6376.68,-156.8 6376.68,-156.8 6376.68,-152.6 6380.88,-148.4 6385.07,-148.4 6385.07,-148.4 6504.93,-148.4 6504.93,-148.4 6509.12,-148.4 6513.32,-152.6 6513.32,-156.8 6513.32,-156.8 6513.32,-165.2 6513.32,-165.2 6513.32,-169.4 6509.12,-173.6 6504.93,-173.6"/>
<text xml:space="preserve" text-anchor="middle" x="6445" y="-157.9" font-family="Helvetica,sans-Serif" font-size="8.00">WARP&#45;reasoning&#45;trace&#45;replay &#45; M</text>
</g>
<!-- cool_ideas_WARP_provenance_dag&#45;&gt;cool_ideas_WARP_reasoning_trace_replay -->
<g id="edge10" class="edge">
<title>cool_ideas_WARP_provenance_dag&#45;&gt;cool_ideas_WARP_reasoning_trace_replay</title>
<path fill="none" stroke="#666666" d="M6523.48,-221.65C6507.79,-209.73 6483.44,-191.22 6466.02,-177.98"/>
<polygon fill="#666666" stroke="#666666" points="6467.1,-176.6 6462.06,-174.97 6464.99,-179.39 6467.1,-176.6"/>
<text xml:space="preserve" text-anchor="middle" x="6526.32" y="-195.2" font-family="Helvetica,sans-Serif" font-size="7.00">blocked_by/blocking</text>
</g>
<!-- cool_ideas_WARP_rulial_heat_map -->
<g id="node66" class="node">
<title>cool_ideas_WARP_rulial_heat_map</title>
<path fill="#d4e8f7" stroke="black" d="M8623.3,-320.5C8623.3,-320.5 8532.7,-320.5 8532.7,-320.5 8528.5,-320.5 8524.3,-316.3 8524.3,-312.1 8524.3,-312.1 8524.3,-303.7 8524.3,-303.7 8524.3,-299.5 8528.5,-295.3 8532.7,-295.3 8532.7,-295.3 8623.3,-295.3 8623.3,-295.3 8627.5,-295.3 8631.7,-299.5 8631.7,-303.7 8631.7,-303.7 8631.7,-312.1 8631.7,-312.1 8631.7,-316.3 8627.5,-320.5 8623.3,-320.5"/>
<text xml:space="preserve" text-anchor="middle" x="8578" y="-304.8" font-family="Helvetica,sans-Serif" font-size="8.00">WARP&#45;rulial&#45;heat&#45;map &#45; L</text>
</g>
<!-- cool_ideas_WARP_semantic_drift_in_sessions -->
<g id="node67" class="node">
<title>cool_ideas_WARP_semantic_drift_in_sessions</title>
<path fill="#d4e8f7" stroke="black" d="M8783.43,-320.5C8783.43,-320.5 8654.57,-320.5 8654.57,-320.5 8650.38,-320.5 8646.17,-316.3 8646.17,-312.1 8646.17,-312.1 8646.17,-303.7 8646.17,-303.7 8646.17,-299.5 8650.38,-295.3 8654.57,-295.3 8654.57,-295.3 8783.43,-295.3 8783.43,-295.3 8787.62,-295.3 8791.83,-299.5 8791.83,-303.7 8791.83,-303.7 8791.83,-312.1 8791.83,-312.1 8791.83,-316.3 8787.62,-320.5 8783.43,-320.5"/>
<text xml:space="preserve" text-anchor="middle" x="8719" y="-304.8" font-family="Helvetica,sans-Serif" font-size="8.00">WARP&#45;semantic&#45;drift&#45;in&#45;sessions &#45; M</text>
</g>
<!-- cool_ideas_WARP_semantic_merge_conflict_prediction -->
<g id="node68" class="node">
<title>cool_ideas_WARP_semantic_merge_conflict_prediction</title>
<path fill="#d4e8f7" stroke="black" d="M9949.43,-247.05C9949.43,-247.05 9790.57,-247.05 9790.57,-247.05 9786.38,-247.05 9782.17,-242.85 9782.17,-238.65 9782.17,-238.65 9782.17,-230.25 9782.17,-230.25 9782.17,-226.05 9786.38,-221.85 9790.57,-221.85 9790.57,-221.85 9949.43,-221.85 9949.43,-221.85 9953.62,-221.85 9957.83,-226.05 9957.83,-230.25 9957.83,-230.25 9957.83,-238.65 9957.83,-238.65 9957.83,-242.85 9953.62,-247.05 9949.43,-247.05"/>
<text xml:space="preserve" text-anchor="middle" x="9870" y="-231.35" font-family="Helvetica,sans-Serif" font-size="8.00">WARP&#45;semantic&#45;merge&#45;conflict&#45;prediction &#45; L</text>
</g>
<!-- cool_ideas_WARP_session_filtration -->
<g id="node69" class="node">
<title>cool_ideas_WARP_session_filtration</title>
<path fill="#d4e8f7" stroke="black" d="M8907.8,-320.5C8907.8,-320.5 8814.2,-320.5 8814.2,-320.5 8810,-320.5 8805.8,-316.3 8805.8,-312.1 8805.8,-312.1 8805.8,-303.7 8805.8,-303.7 8805.8,-299.5 8810,-295.3 8814.2,-295.3 8814.2,-295.3 8907.8,-295.3 8907.8,-295.3 8912,-295.3 8916.2,-299.5 8916.2,-303.7 8916.2,-303.7 8916.2,-312.1 8916.2,-312.1 8916.2,-316.3 8912,-320.5 8907.8,-320.5"/>
<text xml:space="preserve" text-anchor="middle" x="8861" y="-304.8" font-family="Helvetica,sans-Serif" font-size="8.00">WARP&#45;session&#45;filtration &#45; L</text>
</g>
<!-- cool_ideas_WARP_shadow_structural_workspaces -->
<g id="node70" class="node">
<title>cool_ideas_WARP_shadow_structural_workspaces</title>
<path fill="#d4e8f7" stroke="black" d="M9089.3,-320.5C9089.3,-320.5 8938.7,-320.5 8938.7,-320.5 8934.5,-320.5 8930.3,-316.3 8930.3,-312.1 8930.3,-312.1 8930.3,-303.7 8930.3,-303.7 8930.3,-299.5 8934.5,-295.3 8938.7,-295.3 8938.7,-295.3 9089.3,-295.3 9089.3,-295.3 9093.5,-295.3 9097.7,-299.5 9097.7,-303.7 9097.7,-303.7 9097.7,-312.1 9097.7,-312.1 9097.7,-316.3 9093.5,-320.5 9089.3,-320.5"/>
<text xml:space="preserve" text-anchor="middle" x="9014" y="-304.8" font-family="Helvetica,sans-Serif" font-size="8.00">WARP&#45;shadow&#45;structural&#45;workspaces &#45; XL</text>
</g>
<!-- cool_ideas_WARP_speculative_merge -->
<g id="node71" class="node">
<title>cool_ideas_WARP_speculative_merge</title>
<path fill="#d4e8f7" stroke="black" d="M9227.55,-320.5C9227.55,-320.5 9120.45,-320.5 9120.45,-320.5 9116.25,-320.5 9112.05,-316.3 9112.05,-312.1 9112.05,-312.1 9112.05,-303.7 9112.05,-303.7 9112.05,-299.5 9116.25,-295.3 9120.45,-295.3 9120.45,-295.3 9227.55,-295.3 9227.55,-295.3 9231.75,-295.3 9235.95,-299.5 9235.95,-303.7 9235.95,-303.7 9235.95,-312.1 9235.95,-312.1 9235.95,-316.3 9231.75,-320.5 9227.55,-320.5"/>
<text xml:space="preserve" text-anchor="middle" x="9174" y="-304.8" font-family="Helvetica,sans-Serif" font-size="8.00">WARP&#45;speculative&#45;merge &#45; XL</text>
</g>
<!-- cool_ideas_WARP_stale_docs_checker -->
<g id="node72" class="node">
<title>cool_ideas_WARP_stale_docs_checker</title>
<path fill="#d4e8f7" stroke="black" d="M9363.8,-320.5C9363.8,-320.5 9258.2,-320.5 9258.2,-320.5 9254,-320.5 9249.8,-316.3 9249.8,-312.1 9249.8,-312.1 9249.8,-303.7 9249.8,-303.7 9249.8,-299.5 9254,-295.3 9258.2,-295.3 9258.2,-295.3 9363.8,-295.3 9363.8,-295.3 9368,-295.3 9372.2,-299.5 9372.2,-303.7 9372.2,-303.7 9372.2,-312.1 9372.2,-312.1 9372.2,-316.3 9368,-320.5 9363.8,-320.5"/>
<text xml:space="preserve" text-anchor="middle" x="9311" y="-304.8" font-family="Helvetica,sans-Serif" font-size="8.00">WARP&#45;stale&#45;docs&#45;checker &#45; M</text>
</g>
<!-- cool_ideas_WARP_stale_docs_checker&#45;&gt;cool_ideas_WARP_drift_sentinel -->
<g id="edge11" class="edge">
<title>cool_ideas_WARP_stale_docs_checker&#45;&gt;cool_ideas_WARP_drift_sentinel</title>
<path fill="none" stroke="#666666" d="M9296.63,-295.1C9282.11,-283.18 9259.58,-264.67 9243.46,-251.43"/>
<polygon fill="#666666" stroke="#666666" points="9244.82,-250.29 9239.85,-248.47 9242.6,-252.99 9244.82,-250.29"/>
<text xml:space="preserve" text-anchor="middle" x="9301.61" y="-268.65" font-family="Helvetica,sans-Serif" font-size="7.00">blocked_by/blocking</text>
</g>
<!-- cool_ideas_WARP_structural_drift_detection -->
<g id="node73" class="node">
<title>cool_ideas_WARP_structural_drift_detection</title>
<path fill="#d4e8f7" stroke="black" d="M9517.8,-320.5C9517.8,-320.5 9394.2,-320.5 9394.2,-320.5 9390,-320.5 9385.8,-316.3 9385.8,-312.1 9385.8,-312.1 9385.8,-303.7 9385.8,-303.7 9385.8,-299.5 9390,-295.3 9394.2,-295.3 9394.2,-295.3 9517.8,-295.3 9517.8,-295.3 9522,-295.3 9526.2,-299.5 9526.2,-303.7 9526.2,-303.7 9526.2,-312.1 9526.2,-312.1 9526.2,-316.3 9522,-320.5 9517.8,-320.5"/>
<text xml:space="preserve" text-anchor="middle" x="9456" y="-304.8" font-family="Helvetica,sans-Serif" font-size="8.00">WARP&#45;structural&#45;drift&#45;detection &#45; M</text>
</g>
<!-- cool_ideas_WARP_symbol_heatmap -->
<g id="node75" class="node">
<title>cool_ideas_WARP_symbol_heatmap</title>
<path fill="#d4e8f7" stroke="black" d="M9647.05,-320.5C9647.05,-320.5 9548.95,-320.5 9548.95,-320.5 9544.75,-320.5 9540.55,-316.3 9540.55,-312.1 9540.55,-312.1 9540.55,-303.7 9540.55,-303.7 9540.55,-299.5 9544.75,-295.3 9548.95,-295.3 9548.95,-295.3 9647.05,-295.3 9647.05,-295.3 9651.25,-295.3 9655.45,-299.5 9655.45,-303.7 9655.45,-303.7 9655.45,-312.1 9655.45,-312.1 9655.45,-316.3 9651.25,-320.5 9647.05,-320.5"/>
<text xml:space="preserve" text-anchor="middle" x="9598" y="-304.8" font-family="Helvetica,sans-Serif" font-size="8.00">WARP&#45;symbol&#45;heatmap &#45; M</text>
</g>
<!-- cool_ideas_WARP_symbol_history_timeline -->
<g id="node76" class="node">
<title>cool_ideas_WARP_symbol_history_timeline</title>
<path fill="#d4e8f7" stroke="black" d="M9796.18,-320.5C9796.18,-320.5 9677.82,-320.5 9677.82,-320.5 9673.62,-320.5 9669.42,-316.3 9669.42,-312.1 9669.42,-312.1 9669.42,-303.7 9669.42,-303.7 9669.42,-299.5 9673.62,-295.3 9677.82,-295.3 9677.82,-295.3 9796.18,-295.3 9796.18,-295.3 9800.38,-295.3 9804.58,-299.5 9804.58,-303.7 9804.58,-303.7 9804.58,-312.1 9804.58,-312.1 9804.58,-316.3 9800.38,-320.5 9796.18,-320.5"/>
<text xml:space="preserve" text-anchor="middle" x="9737" y="-304.8" font-family="Helvetica,sans-Serif" font-size="8.00">WARP&#45;symbol&#45;history&#45;timeline &#45; S</text>
</g>
<!-- cool_ideas_WARP_temporal_structural_search -->
<g id="node78" class="node">
<title>cool_ideas_WARP_temporal_structural_search</title>
<path fill="#d4e8f7" stroke="black" d="M9429.68,-247.05C9429.68,-247.05 9296.32,-247.05 9296.32,-247.05 9292.12,-247.05 9287.92,-242.85 9287.92,-238.65 9287.92,-238.65 9287.92,-230.25 9287.92,-230.25 9287.92,-226.05 9292.12,-221.85 9296.32,-221.85 9296.32,-221.85 9429.68,-221.85 9429.68,-221.85 9433.88,-221.85 9438.08,-226.05 9438.08,-230.25 9438.08,-230.25 9438.08,-238.65 9438.08,-238.65 9438.08,-242.85 9433.88,-247.05 9429.68,-247.05"/>
<text xml:space="preserve" text-anchor="middle" x="9363" y="-231.35" font-family="Helvetica,sans-Serif" font-size="8.00">WARP&#45;temporal&#45;structural&#45;search &#45; M</text>
</g>
<!-- cool_ideas_WARP_symbol_history_timeline&#45;&gt;cool_ideas_WARP_temporal_structural_search -->
<g id="edge12" class="edge">
<title>cool_ideas_WARP_symbol_history_timeline&#45;&gt;cool_ideas_WARP_temporal_structural_search</title>
<path fill="none" stroke="#666666" d="M9696.82,-294.9C9685.64,-291.97 9673.42,-289.15 9662,-287.3 9581.98,-274.33 9559.5,-291.17 9480,-275.3 9451.41,-269.59 9420.21,-258.72 9397.23,-249.77"/>
<polygon fill="#666666" stroke="#666666" points="9397.97,-248.18 9392.68,-247.98 9396.69,-251.44 9397.97,-248.18"/>
<text xml:space="preserve" text-anchor="middle" x="9511.5" y="-268.65" font-family="Helvetica,sans-Serif" font-size="7.00">blocked_by/blocking</text>
</g>
<!-- cool_ideas_WARP_technical_debt_curvature -->
<g id="node77" class="node">
<title>cool_ideas_WARP_technical_debt_curvature</title>
<path fill="#d4e8f7" stroke="black" d="M9949.43,-320.5C9949.43,-320.5 9826.57,-320.5 9826.57,-320.5 9822.38,-320.5 9818.17,-316.3 9818.17,-312.1 9818.17,-312.1 9818.17,-303.7 9818.17,-303.7 9818.17,-299.5 9822.38,-295.3 9826.57,-295.3 9826.57,-295.3 9949.43,-295.3 9949.43,-295.3 9953.62,-295.3 9957.83,-299.5 9957.83,-303.7 9957.83,-303.7 9957.83,-312.1 9957.83,-312.1 9957.83,-316.3 9953.62,-320.5 9949.43,-320.5"/>
<text xml:space="preserve" text-anchor="middle" x="9888" y="-304.8" font-family="Helvetica,sans-Serif" font-size="8.00">WARP&#45;technical&#45;debt&#45;curvature &#45; L</text>
</g>
<!-- external_git_warp_observer_geometry_ladder__Rung_2_4_ -->
<g id="node79" class="node">
<title>external_git_warp_observer_geometry_ladder__Rung_2_4_</title>
<path fill="#e8f2ff" stroke="black" d="M10153.68,-320.5C10153.68,-320.5 9990.32,-320.5 9990.32,-320.5 9986.12,-320.5 9981.92,-316.3 9981.92,-312.1 9981.92,-312.1 9981.92,-303.7 9981.92,-303.7 9981.92,-299.5 9986.12,-295.3 9990.32,-295.3 9990.32,-295.3 10153.68,-295.3 10153.68,-295.3 10157.88,-295.3 10162.08,-299.5 10162.08,-303.7 10162.08,-303.7 10162.08,-312.1 10162.08,-312.1 10162.08,-316.3 10157.88,-320.5 10153.68,-320.5"/>
<text xml:space="preserve" text-anchor="middle" x="10072" y="-304.8" font-family="Helvetica,sans-Serif" font-size="8.00">git&#45;warp observer geometry ladder (Rung 2&#45;4)</text>
</g>
<!-- external_git_warp_observer_geometry_ladder__Rung_2_4_&#45;&gt;cool_ideas_CORE_migrate_to_slice_first_reads -->
<g id="edge13" class="edge">
<title>external_git_warp_observer_geometry_ladder__Rung_2_4_&#45;&gt;cool_ideas_CORE_migrate_to_slice_first_reads</title>
<path fill="none" stroke="#4477aa" stroke-dasharray="5,2" d="M10015.54,-294.84C10000.47,-291.98 9984.17,-289.21 9969,-287.3 9884.72,-276.67 9862.71,-284.38 9778.25,-275.3 9695.44,-266.4 9675.31,-259.78 9593,-247.05 9592.86,-247.03 9592.73,-247.01 9592.59,-246.99"/>
<polygon fill="#4477aa" stroke="#4477aa" points="9593.06,-245.29 9587.85,-246.25 9592.52,-248.75 9593.06,-245.29"/>
<text xml:space="preserve" text-anchor="middle" x="9810.12" y="-268.65" font-family="Helvetica,sans-Serif" font-size="7.00">blocked_by_external</text>
</g>
<!-- unresolved_CLEAN_CODE_export_diff_semver_signature_as_patch -->
<g id="node80" class="node">
<title>unresolved_CLEAN_CODE_export_diff_semver_signature_as_patch</title>
<path fill="#f2f2f2" stroke="black" stroke-dasharray="5,2" d="M10417.3,-320.5C10417.3,-320.5 10194.7,-320.5 10194.7,-320.5 10190.5,-320.5 10186.3,-316.3 10186.3,-312.1 10186.3,-312.1 10186.3,-303.7 10186.3,-303.7 10186.3,-299.5 10190.5,-295.3 10194.7,-295.3 10194.7,-295.3 10417.3,-295.3 10417.3,-295.3 10421.5,-295.3 10425.7,-299.5 10425.7,-303.7 10425.7,-303.7 10425.7,-312.1 10425.7,-312.1 10425.7,-316.3 10421.5,-320.5 10417.3,-320.5"/>
<text xml:space="preserve" text-anchor="middle" x="10306" y="-304.8" font-family="Helvetica,sans-Serif" font-size="8.00">missing: CLEAN_CODE_export&#45;diff&#45;semver&#45;signature&#45;as&#45;patch</text>
</g>
<!-- unresolved_CLEAN_CODE_export_diff_semver_signature_as_patch&#45;&gt;cool_ideas_WARP_auto_breaking_change_detection -->
<g id="edge14" class="edge">
<title>unresolved_CLEAN_CODE_export_diff_semver_signature_as_patch&#45;&gt;cool_ideas_WARP_auto_breaking_change_detection</title>
<path fill="none" stroke="#cc3333" stroke-dasharray="5,2" d="M10229.44,-294.84C10210.99,-292.14 10191.31,-289.45 10173,-287.3 10112.63,-280.2 10097.25,-281.23 10036.75,-275.3 9920.3,-263.89 9891.21,-260.73 9775,-247.05 9774.7,-247.02 9774.41,-246.98 9774.11,-246.94"/>
<polygon fill="#cc3333" stroke="#cc3333" points="9774.47,-245.23 9769.29,-246.37 9774.05,-248.7 9774.47,-245.23"/>
<text xml:space="preserve" text-anchor="middle" x="10054.38" y="-268.65" font-family="Helvetica,sans-Serif" font-size="7.00">blocked_by</text>
</g>
<!-- unresolved_CLEAN_CODE_export_diff_semver_signature_as_patch&#45;&gt;cool_ideas_WARP_semantic_merge_conflict_prediction -->
<g id="edge15" class="edge">
<title>unresolved_CLEAN_CODE_export_diff_semver_signature_as_patch&#45;&gt;cool_ideas_WARP_semantic_merge_conflict_prediction</title>
<path fill="none" stroke="#cc3333" stroke-dasharray="5,2" d="M10232.53,-294.86C10154.24,-282.03 10030.69,-261.78 9949.99,-248.56"/>
<polygon fill="#cc3333" stroke="#cc3333" points="9950.48,-246.87 9945.26,-247.78 9949.91,-250.32 9950.48,-246.87"/>
<text xml:space="preserve" text-anchor="middle" x="10118.7" y="-268.65" font-family="Helvetica,sans-Serif" font-size="7.00">blocked_by</text>
</g>
<!-- leg_v07 -->
<g id="node81" class="node">
<title>leg_v07</title>
<path fill="#ffa07a" stroke="black" stroke-width="2" d="M10542,-320.5C10542,-320.5 10458,-320.5 10458,-320.5 10453.8,-320.5 10449.6,-316.3 10449.6,-312.1 10449.6,-312.1 10449.6,-303.7 10449.6,-303.7 10449.6,-299.5 10453.8,-295.3 10458,-295.3 10458,-295.3 10542,-295.3 10542,-295.3 10546.2,-295.3 10550.4,-299.5 10550.4,-303.7 10550.4,-303.7 10550.4,-312.1 10550.4,-312.1 10550.4,-316.3 10546.2,-320.5 10542,-320.5"/>
<text xml:space="preserve" text-anchor="middle" x="10500" y="-305.38" font-family="Helvetica,sans-Serif" font-size="7.00">v0.7.0</text>
</g>
<!-- leg_bad -->
<g id="node82" class="node">
<title>leg_bad</title>
<path fill="#f6b3b3" stroke="black" stroke-width="2" d="M10542,-247.05C10542,-247.05 10458,-247.05 10458,-247.05 10453.8,-247.05 10449.6,-242.85 10449.6,-238.65 10449.6,-238.65 10449.6,-230.25 10449.6,-230.25 10449.6,-226.05 10453.8,-221.85 10458,-221.85 10458,-221.85 10542,-221.85 10542,-221.85 10546.2,-221.85 10550.4,-226.05 10550.4,-230.25 10550.4,-230.25 10550.4,-238.65 10550.4,-238.65 10550.4,-242.85 10546.2,-247.05 10542,-247.05"/>
<text xml:space="preserve" text-anchor="middle" x="10500" y="-231.92" font-family="Helvetica,sans-Serif" font-size="7.00">bad&#45;code</text>
</g>
<!-- leg_v07&#45;&gt;leg_bad -->
<!-- leg_idea -->
<g id="node83" class="node">
<title>leg_idea</title>
<path fill="#d4e8f7" stroke="black" d="M10542,-173.6C10542,-173.6 10458,-173.6 10458,-173.6 10453.8,-173.6 10449.6,-169.4 10449.6,-165.2 10449.6,-165.2 10449.6,-156.8 10449.6,-156.8 10449.6,-152.6 10453.8,-148.4 10458,-148.4 10458,-148.4 10542,-148.4 10542,-148.4 10546.2,-148.4 10550.4,-152.6 10550.4,-156.8 10550.4,-156.8 10550.4,-165.2 10550.4,-165.2 10550.4,-169.4 10546.2,-173.6 10542,-173.6"/>
<text xml:space="preserve" text-anchor="middle" x="10500" y="-158.47" font-family="Helvetica,sans-Serif" font-size="7.00">cool&#45;ideas</text>
</g>
<!-- leg_bad&#45;&gt;leg_idea -->
<!-- leg_external -->
<g id="node84" class="node">
<title>leg_external</title>
<path fill="#e8f2ff" stroke="black" d="M10542,-107.4C10542,-107.4 10458,-107.4 10458,-107.4 10453.8,-107.4 10449.6,-103.2 10449.6,-99 10449.6,-99 10449.6,-90.6 10449.6,-90.6 10449.6,-86.4 10453.8,-82.2 10458,-82.2 10458,-82.2 10542,-82.2 10542,-82.2 10546.2,-82.2 10550.4,-86.4 10550.4,-90.6 10550.4,-90.6 10550.4,-99 10550.4,-99 10550.4,-103.2 10546.2,-107.4 10542,-107.4"/>
<text xml:space="preserve" text-anchor="middle" x="10500" y="-92.28" font-family="Helvetica,sans-Serif" font-size="7.00">external blocker</text>
</g>
<!-- leg_idea&#45;&gt;leg_external -->
<!-- leg_unresolved -->
<g id="node85" class="node">
<title>leg_unresolved</title>
<path fill="#f2f2f2" stroke="black" stroke-dasharray="5,2" d="M10542,-41.2C10542,-41.2 10458,-41.2 10458,-41.2 10453.8,-41.2 10449.6,-37 10449.6,-32.8 10449.6,-32.8 10449.6,-24.4 10449.6,-24.4 10449.6,-20.2 10453.8,-16 10458,-16 10458,-16 10542,-16 10542,-16 10546.2,-16 10550.4,-20.2 10550.4,-24.4 10550.4,-24.4 10550.4,-32.8 10550.4,-32.8 10550.4,-37 10546.2,-41.2 10542,-41.2"/>
<text xml:space="preserve" text-anchor="middle" x="10500" y="-26.08" font-family="Helvetica,sans-Serif" font-size="7.00">unresolved ref</text>
</g>
<!-- leg_external&#45;&gt;leg_unresolved -->
</g>
</svg>
