<?xml version="1.0" encoding="UTF-8" standalone="no"?>
<!DOCTYPE svg PUBLIC "-//W3C//DTD SVG 1.1//EN"
 "http://www.w3.org/Graphics/SVG/1.1/DTD/svg11.dtd">
<!-- Generated by graphviz version 14.1.2 (20260124.0452)
 -->
<!-- Title: backlog Pages: 1 -->
<svg width="14946pt" height="449pt"
 viewBox="0.00 0.00 14946.00 449.00" xmlns="http://www.w3.org/2000/svg" xmlns:xlink="http://www.w3.org/1999/xlink">
<g id="graph0" class="graph" transform="scale(1 1) rotate(0) translate(4 445.2)">
<title>backlog</title>
<polygon fill="white" stroke="none" points="-4,4 -4,-445.2 14942,-445.2 14942,4 -4,4"/>
<text xml:space="preserve" text-anchor="middle" x="7469" y="-425.8" font-family="Helvetica,sans-Serif" font-size="12.00">Active backlog graph generated from docs/method/backlog/*/*.md</text>
<g id="clust1" class="cluster">
<title>cluster_up_next</title>
<path fill="#fafafa" stroke="#cccccc" d="M20,-353.5C20,-353.5 232,-353.5 232,-353.5 238,-353.5 244,-359.5 244,-365.5 244,-365.5 244,-400.45 244,-400.45 244,-406.45 238,-412.45 232,-412.45 232,-412.45 20,-412.45 20,-412.45 14,-412.45 8,-406.45 8,-400.45 8,-400.45 8,-365.5 8,-365.5 8,-359.5 14,-353.5 20,-353.5"/>
<text xml:space="preserve" text-anchor="middle" x="38.12" y="-399.9" font-family="Helvetica,sans-Serif" font-size="9.00" fill="#555555">up&#45;next (1)</text>
</g>
<g id="clust2" class="cluster">
<title>cluster_v0_8_0</title>
<path fill="#fafafa" stroke="#cccccc" d="M264,-353.5C264,-353.5 4303,-353.5 4303,-353.5 4309,-353.5 4315,-359.5 4315,-365.5 4315,-365.5 4315,-400.45 4315,-400.45 4315,-406.45 4309,-412.45 4303,-412.45 4303,-412.45 264,-412.45 264,-412.45 258,-412.45 252,-406.45 252,-400.45 252,-400.45 252,-365.5 252,-365.5 252,-359.5 258,-353.5 264,-353.5"/>
<text xml:space="preserve" text-anchor="middle" x="281.75" y="-399.9" font-family="Helvetica,sans-Serif" font-size="9.00" fill="#555555">v0.8.0 (26)</text>
</g>
<g id="clust3" class="cluster">
<title>cluster_bad_code</title>
<path fill="#fafafa" stroke="#cccccc" d="M14325,-353.5C14325,-353.5 14794,-353.5 14794,-353.5 14800,-353.5 14806,-359.5 14806,-365.5 14806,-365.5 14806,-400.45 14806,-400.45 14806,-406.45 14800,-412.45 14794,-412.45 14794,-412.45 14325,-412.45 14325,-412.45 14319,-412.45 14313,-406.45 14313,-400.45 14313,-400.45 14313,-365.5 14313,-365.5 14313,-359.5 14319,-353.5 14325,-353.5"/>
<text xml:space="preserve" text-anchor="middle" x="14347.25" y="-399.9" font-family="Helvetica,sans-Serif" font-size="9.00" fill="#555555">bad&#45;code (2)</text>
</g>
<g id="clust4" class="cluster">
<title>cluster_cool_ideas</title>
<path fill="#fafafa" stroke="#cccccc" d="M4335,-206.6C4335,-206.6 13825,-206.6 13825,-206.6 13831,-206.6 13837,-212.6 13837,-218.6 13837,-218.6 13837,-400.45 13837,-400.45 13837,-406.45 13831,-412.45 13825,-412.45 13825,-412.45 4335,-412.45 4335,-412.45 4329,-412.45 4323,-406.45 4323,-400.45 4323,-400.45 4323,-218.6 4323,-218.6 4323,-212.6 4329,-206.6 4335,-206.6"/>
<text xml:space="preserve" text-anchor="middle" x="4362.5" y="-399.9" font-family="Helvetica,sans-Serif" font-size="9.00" fill="#555555">Cool Ideas (75)</text>
</g>
<g id="clust5" class="cluster">
<title>cluster_external</title>
<path fill="#f8fbff" stroke="#cccccc" d="M13857,-353.5C13857,-353.5 14029,-353.5 14029,-353.5 14035,-353.5 14041,-359.5 14041,-365.5 14041,-365.5 14041,-400.45 14041,-400.45 14041,-406.45 14035,-412.45 14029,-412.45 14029,-412.45 13857,-412.45 13857,-412.45 13851,-412.45 13845,-406.45 13845,-400.45 13845,-400.45 13845,-365.5 13845,-365.5 13845,-359.5 13851,-353.5 13857,-353.5"/>
<text xml:space="preserve" text-anchor="middle" x="13888.25" y="-399.9" font-family="Helvetica,sans-Serif" font-size="9.00" fill="#555555">External blockers</text>
</g>
<g id="clust6" class="cluster">
<title>cluster_unresolved</title>
<path fill="#fff7f7" stroke="#cc3333" stroke-dasharray="5,2" d="M14061,-353.5C14061,-353.5 14293,-353.5 14293,-353.5 14299,-353.5 14305,-359.5 14305,-365.5 14305,-365.5 14305,-400.45 14305,-400.45 14305,-406.45 14299,-412.45 14293,-412.45 14293,-412.45 14061,-412.45 14061,-412.45 14055,-412.45 14049,-406.45 14049,-400.45 14049,-400.45 14049,-365.5 14049,-365.5 14049,-359.5 14055,-353.5 14061,-353.5"/>
<text xml:space="preserve" text-anchor="middle" x="14105.75" y="-399.9" font-family="Helvetica,sans-Serif" font-size="9.00" fill="#555555">Unresolved internal refs</text>
</g>
<g id="clust7" class="cluster">
<title>cluster_legend</title>
<path fill="none" stroke="#dddddd" d="M14826,-8C14826,-8 14918,-8 14918,-8 14924,-8 14930,-14 14930,-20 14930,-20 14930,-399.7 14930,-399.7 14930,-405.7 14924,-411.7 14918,-411.7 14918,-411.7 14826,-411.7 14826,-411.7 14820,-411.7 14814,-405.7 14814,-399.7 14814,-399.7 14814,-20 14814,-20 14814,-14 14820,-8 14826,-8"/>
<text xml:space="preserve" text-anchor="middle" x="14835.5" y="-400.1" font-family="Helvetica,sans-Serif" font-size="8.00" fill="#aaaaaa">Legend</text>
</g>
<!-- up_next_CORE_structural_history_schema_and_echo_migration -->
<g id="node1" class="node">
<title>up_next_CORE_structural_history_schema_and_echo_migration</title>
<path fill="#e5e7eb" stroke="black" stroke-width="2" d="M227.92,-386.7C227.92,-386.7 24.08,-386.7 24.08,-386.7 19.88,-386.7 15.67,-382.5 15.67,-378.3 15.67,-378.3 15.67,-369.9 15.67,-369.9 15.67,-365.7 19.88,-361.5 24.08,-361.5 24.08,-361.5 227.92,-361.5 227.92,-361.5 232.12,-361.5 236.32,-365.7 236.32,-369.9 236.32,-369.9 236.32,-378.3 236.32,-378.3 236.32,-382.5 232.12,-386.7 227.92,-386.7"/>
<text xml:space="preserve" text-anchor="middle" x="126" y="-371" font-family="Helvetica,sans-Serif" font-size="8.00">CORE&#45;structural&#45;history&#45;schema&#45;and&#45;echo&#45;migration &#45; XL</text>
</g>
<!-- v0_8_0_CORE_c_structural_parsing -->
<g id="node2" class="node">
<title>v0_8_0_CORE_c_structural_parsing</title>
<path fill="#c8e6c9" stroke="black" stroke-width="2" d="M375.55,-386.7C375.55,-386.7 268.45,-386.7 268.45,-386.7 264.25,-386.7 260.05,-382.5 260.05,-378.3 260.05,-378.3 260.05,-369.9 260.05,-369.9 260.05,-365.7 264.25,-361.5 268.45,-361.5 268.45,-361.5 375.55,-361.5 375.55,-361.5 379.75,-361.5 383.95,-365.7 383.95,-369.9 383.95,-369.9 383.95,-378.3 383.95,-378.3 383.95,-382.5 379.75,-386.7 375.55,-386.7"/>
<text xml:space="preserve" text-anchor="middle" x="322" y="-371" font-family="Helvetica,sans-Serif" font-size="8.00">CORE&#45;c&#45;structural&#45;parsing &#45; M</text>
</g>
<!-- v0_8_0_CORE_cpp_structural_parsing -->
<g id="node3" class="node">
<title>v0_8_0_CORE_cpp_structural_parsing</title>
<path fill="#c8e6c9" stroke="black" stroke-width="2" d="M519.93,-386.7C519.93,-386.7 406.08,-386.7 406.08,-386.7 401.88,-386.7 397.68,-382.5 397.68,-378.3 397.68,-378.3 397.68,-369.9 397.68,-369.9 397.68,-365.7 401.88,-361.5 406.08,-361.5 406.08,-361.5 519.93,-361.5 519.93,-361.5 524.12,-361.5 528.33,-365.7 528.33,-369.9 528.33,-369.9 528.33,-378.3 528.33,-378.3 528.33,-382.5 524.12,-386.7 519.93,-386.7"/>
<text xml:space="preserve" text-anchor="middle" x="463" y="-371" font-family="Helvetica,sans-Serif" font-size="8.00">CORE&#45;cpp&#45;structural&#45;parsing &#45; L</text>
</g>
<!-- v0_8_0_CORE_csharp_structural_parsing -->
<g id="node4" class="node">
<title>v0_8_0_CORE_csharp_structural_parsing</title>
<path fill="#c8e6c9" stroke="black" stroke-width="2" d="M677.68,-386.7C677.68,-386.7 550.32,-386.7 550.32,-386.7 546.12,-386.7 541.92,-382.5 541.92,-378.3 541.92,-378.3 541.92,-369.9 541.92,-369.9 541.92,-365.7 546.12,-361.5 550.32,-361.5 550.32,-361.5 677.68,-361.5 677.68,-361.5 681.88,-361.5 686.08,-365.7 686.08,-369.9 686.08,-369.9 686.08,-378.3 686.08,-378.3 686.08,-382.5 681.88,-386.7 677.68,-386.7"/>
<text xml:space="preserve" text-anchor="middle" x="614" y="-371" font-family="Helvetica,sans-Serif" font-size="8.00">CORE&#45;csharp&#45;structural&#45;parsing &#45; M</text>
</g>
<!-- v0_8_0_CORE_go_structural_parsing -->
<g id="node5" class="node">
<title>v0_8_0_CORE_go_structural_parsing</title>
<path fill="#c8e6c9" stroke="black" stroke-width="2" d="M819.43,-386.7C819.43,-386.7 708.57,-386.7 708.57,-386.7 704.38,-386.7 700.17,-382.5 700.17,-378.3 700.17,-378.3 700.17,-369.9 700.17,-369.9 700.17,-365.7 704.38,-361.5 708.57,-361.5 708.57,-361.5 819.43,-361.5 819.43,-361.5 823.62,-361.5 827.83,-365.7 827.83,-369.9 827.83,-369.9 827.83,-378.3 827.83,-378.3 827.83,-382.5 823.62,-386.7 819.43,-386.7"/>
<text xml:space="preserve" text-anchor="middle" x="764" y="-371" font-family="Helvetica,sans-Serif" font-size="8.00">CORE&#45;go&#45;structural&#45;parsing &#45; S</text>
</g>
<!-- v0_8_0_CORE_hcl_structured_config -->
<g id="node6" class="node">
<title>v0_8_0_CORE_hcl_structured_config</title>
<path fill="#c8e6c9" stroke="black" stroke-width="2" d="M961.43,-386.7C961.43,-386.7 850.57,-386.7 850.57,-386.7 846.38,-386.7 842.17,-382.5 842.17,-378.3 842.17,-378.3 842.17,-369.9 842.17,-369.9 842.17,-365.7 846.38,-361.5 850.57,-361.5 850.57,-361.5 961.43,-361.5 961.43,-361.5 965.62,-361.5 969.83,-365.7 969.83,-369.9 969.83,-369.9 969.83,-378.3 969.83,-378.3 969.83,-382.5 965.62,-386.7 961.43,-386.7"/>
<text xml:space="preserve" text-anchor="middle" x="906" y="-371" font-family="Helvetica,sans-Serif" font-size="8.00">CORE&#45;hcl&#45;structured&#45;config &#45; M</text>
</g>
<!-- v0_8_0_CORE_java_structural_parsing -->
<g id="node7" class="node">
<title>v0_8_0_CORE_java_structural_parsing</title>
<path fill="#c8e6c9" stroke="black" stroke-width="2" d="M1109.8,-386.7C1109.8,-386.7 992.2,-386.7 992.2,-386.7 988,-386.7 983.8,-382.5 983.8,-378.3 983.8,-378.3 983.8,-369.9 983.8,-369.9 983.8,-365.7 988,-361.5 992.2,-361.5 992.2,-361.5 1109.8,-361.5 1109.8,-361.5 1114,-361.5 1118.2,-365.7 1118.2,-369.9 1118.2,-369.9 1118.2,-378.3 1118.2,-378.3 1118.2,-382.5 1114,-386.7 1109.8,-386.7"/>
<text xml:space="preserve" text-anchor="middle" x="1051" y="-371" font-family="Helvetica,sans-Serif" font-size="8.00">CORE&#45;java&#45;structural&#45;parsing &#45; M</text>
</g>
<!-- v0_8_0_CORE_json_structured_config -->
<g id="node8" class="node">
<title>v0_8_0_CORE_json_structured_config</title>
<path fill="#c8e6c9" stroke="black" stroke-width="2" d="M1254.92,-386.7C1254.92,-386.7 1141.08,-386.7 1141.08,-386.7 1136.88,-386.7 1132.67,-382.5 1132.67,-378.3 1132.67,-378.3 1132.67,-369.9 1132.67,-369.9 1132.67,-365.7 1136.88,-361.5 1141.08,-361.5 1141.08,-361.5 1254.92,-361.5 1254.92,-361.5 1259.12,-361.5 1263.33,-365.7 1263.33,-369.9 1263.33,-369.9 1263.33,-378.3 1263.33,-378.3 1263.33,-382.5 1259.12,-386.7 1254.92,-386.7"/>
<text xml:space="preserve" text-anchor="middle" x="1198" y="-371" font-family="Helvetica,sans-Serif" font-size="8.00">CORE&#45;json&#45;structured&#45;config &#45; S</text>
</g>
<!-- v0_8_0_CORE_jupyter_notebook_structure -->
<g id="node9" class="node">
<title>v0_8_0_CORE_jupyter_notebook_structure</title>
<path fill="#c8e6c9" stroke="black" stroke-width="2" d="M1418.3,-386.7C1418.3,-386.7 1285.7,-386.7 1285.7,-386.7 1281.5,-386.7 1277.3,-382.5 1277.3,-378.3 1277.3,-378.3 1277.3,-369.9 1277.3,-369.9 1277.3,-365.7 1281.5,-361.5 1285.7,-361.5 1285.7,-361.5 1418.3,-361.5 1418.3,-361.5 1422.5,-361.5 1426.7,-365.7 1426.7,-369.9 1426.7,-369.9 1426.7,-378.3 1426.7,-378.3 1426.7,-382.5 1422.5,-386.7 1418.3,-386.7"/>
<text xml:space="preserve" text-anchor="middle" x="1352" y="-371" font-family="Helvetica,sans-Serif" font-size="8.00">CORE&#45;jupyter&#45;notebook&#45;structure &#45; M</text>
</g>
<!-- v0_8_0_CORE_kotlin_structural_parsing -->
<g id="node10" class="node">
<title>v0_8_0_CORE_kotlin_structural_parsing</title>
<path fill="#c8e6c9" stroke="black" stroke-width="2" d="M1570.67,-386.7C1570.67,-386.7 1449.33,-386.7 1449.33,-386.7 1445.12,-386.7 1440.92,-382.5 1440.92,-378.3 1440.92,-378.3 1440.92,-369.9 1440.92,-369.9 1440.92,-365.7 1445.12,-361.5 1449.33,-361.5 1449.33,-361.5 1570.67,-361.5 1570.67,-361.5 1574.88,-361.5 1579.08,-365.7 1579.08,-369.9 1579.08,-369.9 1579.08,-378.3 1579.08,-378.3 1579.08,-382.5 1574.88,-386.7 1570.67,-386.7"/>
<text xml:space="preserve" text-anchor="middle" x="1510" y="-371" font-family="Helvetica,sans-Serif" font-size="8.00">CORE&#45;kotlin&#45;structural&#45;parsing &#45; M</text>
</g>
<!-- v0_8_0_CORE_php_structural_parsing -->
<g id="node11" class="node">
<title>v0_8_0_CORE_php_structural_parsing</title>
<path fill="#c8e6c9" stroke="black" stroke-width="2" d="M1718.42,-386.7C1718.42,-386.7 1601.58,-386.7 1601.58,-386.7 1597.38,-386.7 1593.17,-382.5 1593.17,-378.3 1593.17,-378.3 1593.17,-369.9 1593.17,-369.9 1593.17,-365.7 1597.38,-361.5 1601.58,-361.5 1601.58,-361.5 1718.42,-361.5 1718.42,-361.5 1722.62,-361.5 1726.83,-365.7 1726.83,-369.9 1726.83,-369.9 1726.83,-378.3 1726.83,-378.3 1726.83,-382.5 1722.62,-386.7 1718.42,-386.7"/>
<text xml:space="preserve" text-anchor="middle" x="1660" y="-371" font-family="Helvetica,sans-Serif" font-size="8.00">CORE&#45;php&#45;structural&#45;parsing &#45; M</text>
</g>
<!-- v0_8_0_CORE_pr_review_structural_summary -->
<g id="node12" class="node">
<title>v0_8_0_CORE_pr_review_structural_summary</title>
<path fill="#c8e6c9" stroke="black" stroke-width="2" d="M1892.92,-386.7C1892.92,-386.7 1749.08,-386.7 1749.08,-386.7 1744.88,-386.7 1740.67,-382.5 1740.67,-378.3 1740.67,-378.3 1740.67,-369.9 1740.67,-369.9 1740.67,-365.7 1744.88,-361.5 1749.08,-361.5 1749.08,-361.5 1892.92,-361.5 1892.92,-361.5 1897.12,-361.5 1901.33,-365.7 1901.33,-369.9 1901.33,-369.9 1901.33,-378.3 1901.33,-378.3 1901.33,-382.5 1897.12,-386.7 1892.92,-386.7"/>
<text xml:space="preserve" text-anchor="middle" x="1821" y="-371" font-family="Helvetica,sans-Serif" font-size="8.00">CORE&#45;pr&#45;review&#45;structural&#45;summary &#45; M</text>
</g>
<!-- v0_8_0_CORE_python_structural_parsing -->
<g id="node13" class="node">
<title>v0_8_0_CORE_python_structural_parsing</title>
<path fill="#c8e6c9" stroke="black" stroke-width="2" d="M2049.92,-386.7C2049.92,-386.7 1924.08,-386.7 1924.08,-386.7 1919.88,-386.7 1915.67,-382.5 1915.67,-378.3 1915.67,-378.3 1915.67,-369.9 1915.67,-369.9 1915.67,-365.7 1919.88,-361.5 1924.08,-361.5 1924.08,-361.5 2049.92,-361.5 2049.92,-361.5 2054.12,-361.5 2058.32,-365.7 2058.32,-369.9 2058.32,-369.9 2058.32,-378.3 2058.32,-378.3 2058.32,-382.5 2054.12,-386.7 2049.92,-386.7"/>
<text xml:space="preserve" text-anchor="middle" x="1987" y="-371" font-family="Helvetica,sans-Serif" font-size="8.00">CORE&#45;python&#45;structural&#45;parsing &#45; S</text>
</g>
<!-- v0_8_0_CORE_ruby_structural_parsing -->
<g id="node14" class="node">
<title>v0_8_0_CORE_ruby_structural_parsing</title>
<path fill="#c8e6c9" stroke="black" stroke-width="2" d="M2199.55,-386.7C2199.55,-386.7 2080.45,-386.7 2080.45,-386.7 2076.25,-386.7 2072.05,-382.5 2072.05,-378.3 2072.05,-378.3 2072.05,-369.9 2072.05,-369.9 2072.05,-365.7 2076.25,-361.5 2080.45,-361.5 2080.45,-361.5 2199.55,-361.5 2199.55,-361.5 2203.75,-361.5 2207.95,-365.7 2207.95,-369.9 2207.95,-369.9 2207.95,-378.3 2207.95,-378.3 2207.95,-382.5 2203.75,-386.7 2199.55,-386.7"/>
<text xml:space="preserve" text-anchor="middle" x="2140" y="-371" font-family="Helvetica,sans-Serif" font-size="8.00">CORE&#45;ruby&#45;structural&#45;parsing &#45; M</text>
</g>
<!-- v0_8_0_CORE_shell_structural_parsing -->
<g id="node15" class="node">
<title>v0_8_0_CORE_shell_structural_parsing</title>
<path fill="#c8e6c9" stroke="black" stroke-width="2" d="M2349.55,-386.7C2349.55,-386.7 2230.45,-386.7 2230.45,-386.7 2226.25,-386.7 2222.05,-382.5 2222.05,-378.3 2222.05,-378.3 2222.05,-369.9 2222.05,-369.9 2222.05,-365.7 2226.25,-361.5 2230.45,-361.5 2230.45,-361.5 2349.55,-361.5 2349.55,-361.5 2353.75,-361.5 2357.95,-365.7 2357.95,-369.9 2357.95,-369.9 2357.95,-378.3 2357.95,-378.3 2357.95,-382.5 2353.75,-386.7 2349.55,-386.7"/>
<text xml:space="preserve" text-anchor="middle" x="2290" y="-371" font-family="Helvetica,sans-Serif" font-size="8.00">CORE&#45;shell&#45;structural&#45;parsing &#45; M</text>
</g>
<!-- v0_8_0_CORE_sql_structural_parsing -->
<g id="node16" class="node">
<title>v0_8_0_CORE_sql_structural_parsing</title>
<path fill="#c8e6c9" stroke="black" stroke-width="2" d="M2493.55,-386.7C2493.55,-386.7 2380.45,-386.7 2380.45,-386.7 2376.25,-386.7 2372.05,-382.5 2372.05,-378.3 2372.05,-378.3 2372.05,-369.9 2372.05,-369.9 2372.05,-365.7 2376.25,-361.5 2380.45,-361.5 2380.45,-361.5 2493.55,-361.5 2493.55,-361.5 2497.75,-361.5 2501.95,-365.7 2501.95,-369.9 2501.95,-369.9 2501.95,-378.3 2501.95,-378.3 2501.95,-382.5 2497.75,-386.7 2493.55,-386.7"/>
<text xml:space="preserve" text-anchor="middle" x="2437" y="-371" font-family="Helvetica,sans-Serif" font-size="8.00">CORE&#45;sql&#45;structural&#45;parsing &#45; M</text>
</g>
<!-- v0_8_0_CORE_structural_test_coverage_map -->
<g id="node17" class="node">
<title>v0_8_0_CORE_structural_test_coverage_map</title>
<path fill="#c8e6c9" stroke="black" stroke-width="2" d="M2665.8,-386.7C2665.8,-386.7 2524.2,-386.7 2524.2,-386.7 2520,-386.7 2515.8,-382.5 2515.8,-378.3 2515.8,-378.3 2515.8,-369.9 2515.8,-369.9 2515.8,-365.7 2520,-361.5 2524.2,-361.5 2524.2,-361.5 2665.8,-361.5 2665.8,-361.5 2670,-361.5 2674.2,-365.7 2674.2,-369.9 2674.2,-369.9 2674.2,-378.3 2674.2,-378.3 2674.2,-382.5 2670,-386.7 2665.8,-386.7"/>
<text xml:space="preserve" text-anchor="middle" x="2595" y="-371" font-family="Helvetica,sans-Serif" font-size="8.00">CORE&#45;structural&#45;test&#45;coverage&#45;map &#45; M</text>
</g>
<!-- v0_8_0_CORE_swift_structural_parsing -->
<g id="node18" class="node">
<title>v0_8_0_CORE_swift_structural_parsing</title>
<path fill="#c8e6c9" stroke="black" stroke-width="2" d="M2815.55,-386.7C2815.55,-386.7 2696.45,-386.7 2696.45,-386.7 2692.25,-386.7 2688.05,-382.5 2688.05,-378.3 2688.05,-378.3 2688.05,-369.9 2688.05,-369.9 2688.05,-365.7 2692.25,-361.5 2696.45,-361.5 2696.45,-361.5 2815.55,-361.5 2815.55,-361.5 2819.75,-361.5 2823.95,-365.7 2823.95,-369.9 2823.95,-369.9 2823.95,-378.3 2823.95,-378.3 2823.95,-382.5 2819.75,-386.7 2815.55,-386.7"/>
<text xml:space="preserve" text-anchor="middle" x="2756" y="-371" font-family="Helvetica,sans-Serif" font-size="8.00">CORE&#45;swift&#45;structural&#45;parsing &#45; M</text>
</g>
<!-- v0_8_0_CORE_toml_structured_config -->
<g id="node19" class="node">
<title>v0_8_0_CORE_toml_structured_config</title>
<path fill="#c8e6c9" stroke="black" stroke-width="2" d="M2961.3,-386.7C2961.3,-386.7 2846.7,-386.7 2846.7,-386.7 2842.5,-386.7 2838.3,-382.5 2838.3,-378.3 2838.3,-378.3 2838.3,-369.9 2838.3,-369.9 2838.3,-365.7 2842.5,-361.5 2846.7,-361.5 2846.7,-361.5 2961.3,-361.5 2961.3,-361.5 2965.5,-361.5 2969.7,-365.7 2969.7,-369.9 2969.7,-369.9 2969.7,-378.3 2969.7,-378.3 2969.7,-382.5 2965.5,-386.7 2961.3,-386.7"/>
<text xml:space="preserve" text-anchor="middle" x="2904" y="-371" font-family="Helvetica,sans-Serif" font-size="8.00">CORE&#45;toml&#45;structured&#45;config &#45; S</text>
</g>
<!-- v0_8_0_CORE_tool_context_injection_contracts -->
<g id="node20" class="node">
<title>v0_8_0_CORE_tool_context_injection_contracts</title>
<path fill="#c8e6c9" stroke="black" stroke-width="2" d="M3138.05,-386.7C3138.05,-386.7 2991.95,-386.7 2991.95,-386.7 2987.75,-386.7 2983.55,-382.5 2983.55,-378.3 2983.55,-378.3 2983.55,-369.9 2983.55,-369.9 2983.55,-365.7 2987.75,-361.5 2991.95,-361.5 2991.95,-361.5 3138.05,-361.5 3138.05,-361.5 3142.25,-361.5 3146.45,-365.7 3146.45,-369.9 3146.45,-369.9 3146.45,-378.3 3146.45,-378.3 3146.45,-382.5 3142.25,-386.7 3138.05,-386.7"/>
<text xml:space="preserve" text-anchor="middle" x="3065" y="-371" font-family="Helvetica,sans-Serif" font-size="8.00">CORE&#45;tool&#45;context&#45;injection&#45;contracts &#45; M</text>
</g>
<!-- v0_8_0_CORE_yaml_structured_config -->
<g id="node21" class="node">
<title>v0_8_0_CORE_yaml_structured_config</title>
<path fill="#c8e6c9" stroke="black" stroke-width="2" d="M3286.8,-386.7C3286.8,-386.7 3169.2,-386.7 3169.2,-386.7 3165,-386.7 3160.8,-382.5 3160.8,-378.3 3160.8,-378.3 3160.8,-369.9 3160.8,-369.9 3160.8,-365.7 3165,-361.5 3169.2,-361.5 3169.2,-361.5 3286.8,-361.5 3286.8,-361.5 3291,-361.5 3295.2,-365.7 3295.2,-369.9 3295.2,-369.9 3295.2,-378.3 3295.2,-378.3 3295.2,-382.5 3291,-386.7 3286.8,-386.7"/>
<text xml:space="preserve" text-anchor="middle" x="3228" y="-371" font-family="Helvetica,sans-Serif" font-size="8.00">CORE&#45;yaml&#45;structured&#45;config &#45; M</text>
</g>
<!-- v0_8_0_SURFACE_git_graft_enhance_provenance_hints -->
<g id="node22" class="node">
<title>v0_8_0_SURFACE_git_graft_enhance_provenance_hints</title>
<path fill="#c8e6c9" stroke="black" stroke-width="2" d="M3482.42,-386.7C3482.42,-386.7 3317.58,-386.7 3317.58,-386.7 3313.38,-386.7 3309.18,-382.5 3309.18,-378.3 3309.18,-378.3 3309.18,-369.9 3309.18,-369.9 3309.18,-365.7 3313.38,-361.5 3317.58,-361.5 3317.58,-361.5 3482.42,-361.5 3482.42,-361.5 3486.62,-361.5 3490.82,-365.7 3490.82,-369.9 3490.82,-369.9 3490.82,-378.3 3490.82,-378.3 3490.82,-382.5 3486.62,-386.7 3482.42,-386.7"/>
<text xml:space="preserve" text-anchor="middle" x="3400" y="-371" font-family="Helvetica,sans-Serif" font-size="8.00">SURFACE&#45;git&#45;graft&#45;enhance&#45;provenance&#45;hints</text>
</g>
<!-- v0_8_0_SURFACE_pr_feedback_resolution_ledger -->
<g id="node23" class="node">
<title>v0_8_0_SURFACE_pr_feedback_resolution_ledger</title>
<path fill="#c8e6c9" stroke="black" stroke-width="2" d="M3672.42,-386.7C3672.42,-386.7 3513.58,-386.7 3513.58,-386.7 3509.38,-386.7 3505.18,-382.5 3505.18,-378.3 3505.18,-378.3 3505.18,-369.9 3505.18,-369.9 3505.18,-365.7 3509.38,-361.5 3513.58,-361.5 3513.58,-361.5 3672.42,-361.5 3672.42,-361.5 3676.62,-361.5 3680.82,-365.7 3680.82,-369.9 3680.82,-369.9 3680.82,-378.3 3680.82,-378.3 3680.82,-382.5 3676.62,-386.7 3672.42,-386.7"/>
<text xml:space="preserve" text-anchor="middle" x="3593" y="-371" font-family="Helvetica,sans-Serif" font-size="8.00">SURFACE&#45;pr&#45;feedback&#45;resolution&#45;ledger &#45; M</text>
</g>
<!-- v0_8_0_SURFACE_review_cooldown_status -->
<g id="node24" class="node">
<title>v0_8_0_SURFACE_review_cooldown_status</title>
<path fill="#c8e6c9" stroke="black" stroke-width="2" d="M3838.8,-386.7C3838.8,-386.7 3703.2,-386.7 3703.2,-386.7 3699,-386.7 3694.8,-382.5 3694.8,-378.3 3694.8,-378.3 3694.8,-369.9 3694.8,-369.9 3694.8,-365.7 3699,-361.5 3703.2,-361.5 3703.2,-361.5 3838.8,-361.5 3838.8,-361.5 3843,-361.5 3847.2,-365.7 3847.2,-369.9 3847.2,-369.9 3847.2,-378.3 3847.2,-378.3 3847.2,-382.5 3843,-386.7 3838.8,-386.7"/>
<text xml:space="preserve" text-anchor="middle" x="3771" y="-371" font-family="Helvetica,sans-Serif" font-size="8.00">SURFACE&#45;review&#45;cooldown&#45;status &#45; S</text>
</g>
<!-- v0_8_0_TEST_bounded_subprocess_policy -->
<g id="node25" class="node">
<title>v0_8_0_TEST_bounded_subprocess_policy</title>
<path fill="#c8e6c9" stroke="black" stroke-width="2" d="M4000.17,-386.7C4000.17,-386.7 3869.83,-386.7 3869.83,-386.7 3865.62,-386.7 3861.43,-382.5 3861.43,-378.3 3861.43,-378.3 3861.43,-369.9 3861.43,-369.9 3861.43,-365.7 3865.62,-361.5 3869.83,-361.5 3869.83,-361.5 4000.17,-361.5 4000.17,-361.5 4004.38,-361.5 4008.57,-365.7 4008.57,-369.9 4008.57,-369.9 4008.57,-378.3 4008.57,-378.3 4008.57,-382.5 4004.38,-386.7 4000.17,-386.7"/>
<text xml:space="preserve" text-anchor="middle" x="3935" y="-371" font-family="Helvetica,sans-Serif" font-size="8.00">TEST&#45;bounded&#45;subprocess&#45;policy &#45; S</text>
</g>
<!-- v0_8_0_WARP_dead_symbol_detection -->
<g id="node26" class="node">
<title>v0_8_0_WARP_dead_symbol_detection</title>
<path fill="#c8e6c9" stroke="black" stroke-width="2" d="M4149.18,-386.7C4149.18,-386.7 4030.83,-386.7 4030.83,-386.7 4026.62,-386.7 4022.43,-382.5 4022.43,-378.3 4022.43,-378.3 4022.43,-369.9 4022.43,-369.9 4022.43,-365.7 4026.62,-361.5 4030.83,-361.5 4030.83,-361.5 4149.18,-361.5 4149.18,-361.5 4153.38,-361.5 4157.57,-365.7 4157.57,-369.9 4157.57,-369.9 4157.57,-378.3 4157.57,-378.3 4157.57,-382.5 4153.38,-386.7 4149.18,-386.7"/>
<text xml:space="preserve" text-anchor="middle" x="4090" y="-371" font-family="Helvetica,sans-Serif" font-size="8.00">WARP&#45;dead&#45;symbol&#45;detection &#45; S</text>
</g>
<!-- v0_8_0_WARP_symbol_history_timeline -->
<g id="node27" class="node">
<title>v0_8_0_WARP_symbol_history_timeline</title>
<path fill="#c8e6c9" stroke="black" stroke-width="2" d="M4298.18,-386.7C4298.18,-386.7 4179.82,-386.7 4179.82,-386.7 4175.62,-386.7 4171.43,-382.5 4171.43,-378.3 4171.43,-378.3 4171.43,-369.9 4171.43,-369.9 4171.43,-365.7 4175.62,-361.5 4179.82,-361.5 4179.82,-361.5 4298.18,-361.5 4298.18,-361.5 4302.38,-361.5 4306.57,-365.7 4306.57,-369.9 4306.57,-369.9 4306.57,-378.3 4306.57,-378.3 4306.57,-382.5 4302.38,-386.7 4298.18,-386.7"/>
<text xml:space="preserve" text-anchor="middle" x="4239" y="-371" font-family="Helvetica,sans-Serif" font-size="8.00">WARP&#45;symbol&#45;history&#45;timeline &#45; S</text>
</g>
<!-- cool_ideas_WARP_temporal_structural_search -->
<g id="node104" class="node">
<title>cool_ideas_WARP_temporal_structural_search</title>
<path fill="#d4e8f7" stroke="black" d="M4472.68,-313.25C4472.68,-313.25 4339.32,-313.25 4339.32,-313.25 4335.12,-313.25 4330.93,-309.05 4330.93,-304.85 4330.93,-304.85 4330.93,-296.45 4330.93,-296.45 4330.93,-292.25 4335.12,-288.05 4339.32,-288.05 4339.32,-288.05 4472.68,-288.05 4472.68,-288.05 4476.88,-288.05 4481.07,-292.25 4481.07,-296.45 4481.07,-296.45 4481.07,-304.85 4481.07,-304.85 4481.07,-309.05 4476.88,-313.25 4472.68,-313.25"/>
<text xml:space="preserve" text-anchor="middle" x="4406" y="-297.55" font-family="Helvetica,sans-Serif" font-size="8.00">WARP&#45;temporal&#45;structural&#45;search &#45; M</text>
</g>
<!-- v0_8_0_WARP_symbol_history_timeline&#45;&gt;cool_ideas_WARP_temporal_structural_search -->
<g id="edge15" class="edge">
<title>v0_8_0_WARP_symbol_history_timeline&#45;&gt;cool_ideas_WARP_temporal_structural_search</title>
<path fill="none" stroke="#666666" d="M4268.09,-360.65C4297,-348.28 4341.33,-329.32 4371.88,-316.25"/>
<polygon fill="#666666" stroke="#666666" points="4372.5,-317.89 4376.41,-314.31 4371.12,-314.67 4372.5,-317.89"/>
<text xml:space="preserve" text-anchor="middle" x="4359.01" y="-334.85" font-family="Helvetica,sans-Serif" font-size="7.00">blocked_by/blocking</text>
</g>
<!-- bad_code_CLEAN_remaining_structural_warp_reads_bypass_structural_reading_port -->
<g id="node28" class="node">
<title>bad_code_CLEAN_remaining_structural_warp_reads_bypass_structural_reading_port</title>
<path fill="#f6b3b3" stroke="black" stroke-width="2" d="M14598.18,-386.7C14598.18,-386.7 14329.82,-386.7 14329.82,-386.7 14325.62,-386.7 14321.42,-382.5 14321.42,-378.3 14321.42,-378.3 14321.42,-369.9 14321.42,-369.9 14321.42,-365.7 14325.62,-361.5 14329.82,-361.5 14329.82,-361.5 14598.18,-361.5 14598.18,-361.5 14602.38,-361.5 14606.58,-365.7 14606.58,-369.9 14606.58,-369.9 14606.58,-378.3 14606.58,-378.3 14606.58,-382.5 14602.38,-386.7 14598.18,-386.7"/>
<text xml:space="preserve" text-anchor="middle" x="14464" y="-371" font-family="Helvetica,sans-Serif" font-size="8.00">CLEAN&#45;remaining&#45;structural&#45;warp&#45;reads&#45;bypass&#45;structural&#45;reading&#45;port &#45; M</text>
</g>
<!-- bad_code_CLEAN_wesley_cli_not_hermetic_in_graft_ci -->
<g id="node29" class="node">
<title>bad_code_CLEAN_wesley_cli_not_hermetic_in_graft_ci</title>
<path fill="#f6b3b3" stroke="black" stroke-width="2" d="M14789.18,-386.7C14789.18,-386.7 14628.82,-386.7 14628.82,-386.7 14624.62,-386.7 14620.42,-382.5 14620.42,-378.3 14620.42,-378.3 14620.42,-369.9 14620.42,-369.9 14620.42,-365.7 14624.62,-361.5 14628.82,-361.5 14628.82,-361.5 14789.18,-361.5 14789.18,-361.5 14793.38,-361.5 14797.58,-365.7 14797.58,-369.9 14797.58,-369.9 14797.58,-378.3 14797.58,-378.3 14797.58,-382.5 14793.38,-386.7 14789.18,-386.7"/>
<text xml:space="preserve" text-anchor="middle" x="14709" y="-371" font-family="Helvetica,sans-Serif" font-size="8.00">CLEAN&#45;wesley&#45;cli&#45;not&#45;hermetic&#45;in&#45;graft&#45;ci &#45; M</text>
</g>
<!-- cool_ideas_bounded_neighborhood_for_references -->
<g id="node30" class="node">
<title>cool_ideas_bounded_neighborhood_for_references</title>
<path fill="#d4e8f7" stroke="black" d="M4488.18,-386.7C4488.18,-386.7 4339.82,-386.7 4339.82,-386.7 4335.62,-386.7 4331.43,-382.5 4331.43,-378.3 4331.43,-378.3 4331.43,-369.9 4331.43,-369.9 4331.43,-365.7 4335.62,-361.5 4339.82,-361.5 4339.82,-361.5 4488.18,-361.5 4488.18,-361.5 4492.38,-361.5 4496.57,-365.7 4496.57,-369.9 4496.57,-369.9 4496.57,-378.3 4496.57,-378.3 4496.57,-382.5 4492.38,-386.7 4488.18,-386.7"/>
<text xml:space="preserve" text-anchor="middle" x="4414" y="-371" font-family="Helvetica,sans-Serif" font-size="8.00">bounded&#45;neighborhood&#45;for&#45;references &#45; S</text>
</g>
<!-- cool_ideas_CI_001_causal_collapse_visualizer -->
<g id="node31" class="node">
<title>cool_ideas_CI_001_causal_collapse_visualizer</title>
<path fill="#d4e8f7" stroke="black" d="M10578.3,-313.25C10578.3,-313.25 10451.7,-313.25 10451.7,-313.25 10447.5,-313.25 10443.3,-309.05 10443.3,-304.85 10443.3,-304.85 10443.3,-296.45 10443.3,-296.45 10443.3,-292.25 10447.5,-288.05 10451.7,-288.05 10451.7,-288.05 10578.3,-288.05 10578.3,-288.05 10582.5,-288.05 10586.7,-292.25 10586.7,-296.45 10586.7,-296.45 10586.7,-304.85 10586.7,-304.85 10586.7,-309.05 10582.5,-313.25 10578.3,-313.25"/>
<text xml:space="preserve" text-anchor="middle" x="10515" y="-297.55" font-family="Helvetica,sans-Serif" font-size="8.00">CI&#45;001&#45;causal&#45;collapse&#45;visualizer &#45; L</text>
</g>
<!-- cool_ideas_CI_002_deterministic_scenario_replay -->
<g id="node32" class="node">
<title>cool_ideas_CI_002_deterministic_scenario_replay</title>
<path fill="#d4e8f7" stroke="black" d="M4658.68,-386.7C4658.68,-386.7 4519.32,-386.7 4519.32,-386.7 4515.12,-386.7 4510.93,-382.5 4510.93,-378.3 4510.93,-378.3 4510.93,-369.9 4510.93,-369.9 4510.93,-365.7 4515.12,-361.5 4519.32,-361.5 4519.32,-361.5 4658.68,-361.5 4658.68,-361.5 4662.88,-361.5 4667.07,-365.7 4667.07,-369.9 4667.07,-369.9 4667.07,-378.3 4667.07,-378.3 4667.07,-382.5 4662.88,-386.7 4658.68,-386.7"/>
<text xml:space="preserve" text-anchor="middle" x="4589" y="-371" font-family="Helvetica,sans-Serif" font-size="8.00">CI&#45;002&#45;deterministic&#45;scenario&#45;replay &#45; L</text>
</g>
<!-- cool_ideas_CI_003_mcp_native_diff_protocol -->
<g id="node33" class="node">
<title>cool_ideas_CI_003_mcp_native_diff_protocol</title>
<path fill="#d4e8f7" stroke="black" d="M4812.8,-386.7C4812.8,-386.7 4689.2,-386.7 4689.2,-386.7 4685,-386.7 4680.8,-382.5 4680.8,-378.3 4680.8,-378.3 4680.8,-369.9 4680.8,-369.9 4680.8,-365.7 4685,-361.5 4689.2,-361.5 4689.2,-361.5 4812.8,-361.5 4812.8,-361.5 4817,-361.5 4821.2,-365.7 4821.2,-369.9 4821.2,-369.9 4821.2,-378.3 4821.2,-378.3 4821.2,-382.5 4817,-386.7 4812.8,-386.7"/>
<text xml:space="preserve" text-anchor="middle" x="4751" y="-371" font-family="Helvetica,sans-Serif" font-size="8.00">CI&#45;003&#45;mcp&#45;native&#45;diff&#45;protocol &#45; M</text>
</g>
<!-- cool_ideas_CLEAN_CODE_parallel_agent_merge_shared_file_loss -->
<g id="node34" class="node">
<title>cool_ideas_CLEAN_CODE_parallel_agent_merge_shared_file_loss</title>
<path fill="#d4e8f7" stroke="black" d="M5044.05,-386.7C5044.05,-386.7 4843.95,-386.7 4843.95,-386.7 4839.75,-386.7 4835.55,-382.5 4835.55,-378.3 4835.55,-378.3 4835.55,-369.9 4835.55,-369.9 4835.55,-365.7 4839.75,-361.5 4843.95,-361.5 4843.95,-361.5 5044.05,-361.5 5044.05,-361.5 5048.25,-361.5 5052.45,-365.7 5052.45,-369.9 5052.45,-369.9 5052.45,-378.3 5052.45,-378.3 5052.45,-382.5 5048.25,-386.7 5044.05,-386.7"/>
<text xml:space="preserve" text-anchor="middle" x="4944" y="-371" font-family="Helvetica,sans-Serif" font-size="8.00">CLEAN&#45;CODE&#45;parallel&#45;agent&#45;merge&#45;shared&#45;file&#45;loss &#45; M</text>
</g>
<!-- cool_ideas_CORE_agent_handoff_protocol -->
<g id="node35" class="node">
<title>cool_ideas_CORE_agent_handoff_protocol</title>
<path fill="#d4e8f7" stroke="black" d="M5194.93,-386.7C5194.93,-386.7 5075.07,-386.7 5075.07,-386.7 5070.88,-386.7 5066.68,-382.5 5066.68,-378.3 5066.68,-378.3 5066.68,-369.9 5066.68,-369.9 5066.68,-365.7 5070.88,-361.5 5075.07,-361.5 5075.07,-361.5 5194.93,-361.5 5194.93,-361.5 5199.12,-361.5 5203.32,-365.7 5203.32,-369.9 5203.32,-369.9 5203.32,-378.3 5203.32,-378.3 5203.32,-382.5 5199.12,-386.7 5194.93,-386.7"/>
<text xml:space="preserve" text-anchor="middle" x="5135" y="-371" font-family="Helvetica,sans-Serif" font-size="8.00">CORE&#45;agent&#45;handoff&#45;protocol &#45; M</text>
</g>
<!-- cool_ideas_CORE_auto_focus -->
<g id="node36" class="node">
<title>cool_ideas_CORE_auto_focus</title>
<path fill="#d4e8f7" stroke="black" d="M5298.68,-386.7C5298.68,-386.7 5225.32,-386.7 5225.32,-386.7 5221.12,-386.7 5216.93,-382.5 5216.93,-378.3 5216.93,-378.3 5216.93,-369.9 5216.93,-369.9 5216.93,-365.7 5221.12,-361.5 5225.32,-361.5 5225.32,-361.5 5298.68,-361.5 5298.68,-361.5 5302.88,-361.5 5307.07,-365.7 5307.07,-369.9 5307.07,-369.9 5307.07,-378.3 5307.07,-378.3 5307.07,-382.5 5302.88,-386.7 5298.68,-386.7"/>
<text xml:space="preserve" text-anchor="middle" x="5262" y="-371" font-family="Helvetica,sans-Serif" font-size="8.00">CORE&#45;auto&#45;focus &#45; L</text>
</g>
<!-- cool_ideas_CORE_capture_range -->
<g id="node37" class="node">
<title>cool_ideas_CORE_capture_range</title>
<path fill="#d4e8f7" stroke="black" d="M5416.8,-386.7C5416.8,-386.7 5329.2,-386.7 5329.2,-386.7 5325,-386.7 5320.8,-382.5 5320.8,-378.3 5320.8,-378.3 5320.8,-369.9 5320.8,-369.9 5320.8,-365.7 5325,-361.5 5329.2,-361.5 5329.2,-361.5 5416.8,-361.5 5416.8,-361.5 5421,-361.5 5425.2,-365.7 5425.2,-369.9 5425.2,-369.9 5425.2,-378.3 5425.2,-378.3 5425.2,-382.5 5421,-386.7 5416.8,-386.7"/>
<text xml:space="preserve" text-anchor="middle" x="5373" y="-371" font-family="Helvetica,sans-Serif" font-size="8.00">CORE&#45;capture&#45;range &#45; S</text>
</g>
<!-- cool_ideas_CORE_constructor_in_disguise_lint -->
<g id="node38" class="node">
<title>cool_ideas_CORE_constructor_in_disguise_lint</title>
<path fill="#d4e8f7" stroke="black" d="M5578.55,-386.7C5578.55,-386.7 5447.45,-386.7 5447.45,-386.7 5443.25,-386.7 5439.05,-382.5 5439.05,-378.3 5439.05,-378.3 5439.05,-369.9 5439.05,-369.9 5439.05,-365.7 5443.25,-361.5 5447.45,-361.5 5447.45,-361.5 5578.55,-361.5 5578.55,-361.5 5582.75,-361.5 5586.95,-365.7 5586.95,-369.9 5586.95,-369.9 5586.95,-378.3 5586.95,-378.3 5586.95,-382.5 5582.75,-386.7 5578.55,-386.7"/>
<text xml:space="preserve" text-anchor="middle" x="5513" y="-371" font-family="Helvetica,sans-Serif" font-size="8.00">CORE&#45;constructor&#45;in&#45;disguise&#45;lint &#45; M</text>
</g>
<!-- cool_ideas_CORE_context_budget_forecasting -->
<g id="node39" class="node">
<title>cool_ideas_CORE_context_budget_forecasting</title>
<path fill="#d4e8f7" stroke="black" d="M5742.68,-386.7C5742.68,-386.7 5609.32,-386.7 5609.32,-386.7 5605.12,-386.7 5600.93,-382.5 5600.93,-378.3 5600.93,-378.3 5600.93,-369.9 5600.93,-369.9 5600.93,-365.7 5605.12,-361.5 5609.32,-361.5 5609.32,-361.5 5742.68,-361.5 5742.68,-361.5 5746.88,-361.5 5751.07,-365.7 5751.07,-369.9 5751.07,-369.9 5751.07,-378.3 5751.07,-378.3 5751.07,-382.5 5746.88,-386.7 5742.68,-386.7"/>
<text xml:space="preserve" text-anchor="middle" x="5676" y="-371" font-family="Helvetica,sans-Serif" font-size="8.00">CORE&#45;context&#45;budget&#45;forecasting &#45; M</text>
</g>
<!-- cool_ideas_CORE_conversation_primer -->
<g id="node40" class="node">
<title>cool_ideas_CORE_conversation_primer</title>
<path fill="#d4e8f7" stroke="black" d="M5882.68,-386.7C5882.68,-386.7 5773.32,-386.7 5773.32,-386.7 5769.12,-386.7 5764.93,-382.5 5764.93,-378.3 5764.93,-378.3 5764.93,-369.9 5764.93,-369.9 5764.93,-365.7 5769.12,-361.5 5773.32,-361.5 5773.32,-361.5 5882.68,-361.5 5882.68,-361.5 5886.88,-361.5 5891.07,-365.7 5891.07,-369.9 5891.07,-369.9 5891.07,-378.3 5891.07,-378.3 5891.07,-382.5 5886.88,-386.7 5882.68,-386.7"/>
<text xml:space="preserve" text-anchor="middle" x="5828" y="-371" font-family="Helvetica,sans-Serif" font-size="8.00">CORE&#45;conversation&#45;primer &#45; M</text>
</g>
<!-- cool_ideas_CORE_cross_session_resume -->
<g id="node41" class="node">
<title>cool_ideas_CORE_cross_session_resume</title>
<path fill="#d4e8f7" stroke="black" d="M6028.3,-386.7C6028.3,-386.7 5913.7,-386.7 5913.7,-386.7 5909.5,-386.7 5905.3,-382.5 5905.3,-378.3 5905.3,-378.3 5905.3,-369.9 5905.3,-369.9 5905.3,-365.7 5909.5,-361.5 5913.7,-361.5 5913.7,-361.5 6028.3,-361.5 6028.3,-361.5 6032.5,-361.5 6036.7,-365.7 6036.7,-369.9 6036.7,-369.9 6036.7,-378.3 6036.7,-378.3 6036.7,-382.5 6032.5,-386.7 6028.3,-386.7"/>
<text xml:space="preserve" text-anchor="middle" x="5971" y="-371" font-family="Helvetica,sans-Serif" font-size="8.00">CORE&#45;cross&#45;session&#45;resume &#45; S</text>
</g>
<!-- cool_ideas_CORE_graft_as_teacher -->
<g id="node42" class="node">
<title>cool_ideas_CORE_graft_as_teacher</title>
<path fill="#d4e8f7" stroke="black" d="M6153.18,-386.7C6153.18,-386.7 6058.82,-386.7 6058.82,-386.7 6054.62,-386.7 6050.43,-382.5 6050.43,-378.3 6050.43,-378.3 6050.43,-369.9 6050.43,-369.9 6050.43,-365.7 6054.62,-361.5 6058.82,-361.5 6058.82,-361.5 6153.18,-361.5 6153.18,-361.5 6157.38,-361.5 6161.57,-365.7 6161.57,-369.9 6161.57,-369.9 6161.57,-378.3 6161.57,-378.3 6161.57,-382.5 6157.38,-386.7 6153.18,-386.7"/>
<text xml:space="preserve" text-anchor="middle" x="6106" y="-371" font-family="Helvetica,sans-Serif" font-size="8.00">CORE&#45;graft&#45;as&#45;teacher &#45; S</text>
</g>
<!-- cool_ideas_CORE_graft_teach_learning_receipts -->
<g id="node43" class="node">
<title>cool_ideas_CORE_graft_teach_learning_receipts</title>
<path fill="#d4e8f7" stroke="black" d="M6321.93,-386.7C6321.93,-386.7 6184.07,-386.7 6184.07,-386.7 6179.88,-386.7 6175.68,-382.5 6175.68,-378.3 6175.68,-378.3 6175.68,-369.9 6175.68,-369.9 6175.68,-365.7 6179.88,-361.5 6184.07,-361.5 6184.07,-361.5 6321.93,-361.5 6321.93,-361.5 6326.12,-361.5 6330.32,-365.7 6330.32,-369.9 6330.32,-369.9 6330.32,-378.3 6330.32,-378.3 6330.32,-382.5 6326.12,-386.7 6321.93,-386.7"/>
<text xml:space="preserve" text-anchor="middle" x="6253" y="-371" font-family="Helvetica,sans-Serif" font-size="8.00">CORE&#45;graft&#45;teach&#45;learning&#45;receipts &#45; S</text>
</g>
<!-- cool_ideas_CORE_graft_tool_client -->
<g id="node44" class="node">
<title>cool_ideas_CORE_graft_tool_client</title>
<path fill="#d4e8f7" stroke="black" d="M6443.68,-386.7C6443.68,-386.7 6352.32,-386.7 6352.32,-386.7 6348.12,-386.7 6343.93,-382.5 6343.93,-378.3 6343.93,-378.3 6343.93,-369.9 6343.93,-369.9 6343.93,-365.7 6348.12,-361.5 6352.32,-361.5 6352.32,-361.5 6443.68,-361.5 6443.68,-361.5 6447.88,-361.5 6452.07,-365.7 6452.07,-369.9 6452.07,-369.9 6452.07,-378.3 6452.07,-378.3 6452.07,-382.5 6447.88,-386.7 6443.68,-386.7"/>
<text xml:space="preserve" text-anchor="middle" x="6398" y="-371" font-family="Helvetica,sans-Serif" font-size="8.00">CORE&#45;graft&#45;tool&#45;client &#45; M</text>
</g>
<!-- cool_ideas_CORE_horizon_of_readability -->
<g id="node45" class="node">
<title>cool_ideas_CORE_horizon_of_readability</title>
<path fill="#d4e8f7" stroke="black" d="M6587.55,-386.7C6587.55,-386.7 6474.45,-386.7 6474.45,-386.7 6470.25,-386.7 6466.05,-382.5 6466.05,-378.3 6466.05,-378.3 6466.05,-369.9 6466.05,-369.9 6466.05,-365.7 6470.25,-361.5 6474.45,-361.5 6474.45,-361.5 6587.55,-361.5 6587.55,-361.5 6591.75,-361.5 6595.95,-365.7 6595.95,-369.9 6595.95,-369.9 6595.95,-378.3 6595.95,-378.3 6595.95,-382.5 6591.75,-386.7 6587.55,-386.7"/>
<text xml:space="preserve" text-anchor="middle" x="6531" y="-371" font-family="Helvetica,sans-Serif" font-size="8.00">CORE&#45;horizon&#45;of&#45;readability &#45; M</text>
</g>
<!-- cool_ideas_CORE_lagrangian_policy -->
<g id="node46" class="node">
<title>cool_ideas_CORE_lagrangian_policy</title>
<path fill="#d4e8f7" stroke="black" d="M6719.55,-386.7C6719.55,-386.7 6618.45,-386.7 6618.45,-386.7 6614.25,-386.7 6610.05,-382.5 6610.05,-378.3 6610.05,-378.3 6610.05,-369.9 6610.05,-369.9 6610.05,-365.7 6614.25,-361.5 6618.45,-361.5 6618.45,-361.5 6719.55,-361.5 6719.55,-361.5 6723.75,-361.5 6727.95,-365.7 6727.95,-369.9 6727.95,-369.9 6727.95,-378.3 6727.95,-378.3 6727.95,-382.5 6723.75,-386.7 6719.55,-386.7"/>
<text xml:space="preserve" text-anchor="middle" x="6669" y="-371" font-family="Helvetica,sans-Serif" font-size="8.00">CORE&#45;lagrangian&#45;policy &#45; XL</text>
</g>
<!-- cool_ideas_CORE_migrate_to_slice_first_reads -->
<g id="node47" class="node">
<title>cool_ideas_CORE_migrate_to_slice_first_reads</title>
<path fill="#d4e8f7" stroke="black" d="M13448.8,-313.25C13448.8,-313.25 13331.2,-313.25 13331.2,-313.25 13327,-313.25 13322.8,-309.05 13322.8,-304.85 13322.8,-304.85 13322.8,-296.45 13322.8,-296.45 13322.8,-292.25 13327,-288.05 13331.2,-288.05 13331.2,-288.05 13448.8,-288.05 13448.8,-288.05 13453,-288.05 13457.2,-292.25 13457.2,-296.45 13457.2,-296.45 13457.2,-304.85 13457.2,-304.85 13457.2,-309.05 13453,-313.25 13448.8,-313.25"/>
<text xml:space="preserve" text-anchor="middle" x="13390" y="-297.55" font-family="Helvetica,sans-Serif" font-size="8.00">CORE&#45;migrate&#45;to&#45;slice&#45;first&#45;reads</text>
</g>
<!-- cool_ideas_CORE_multi_agent_conflict_detection -->
<g id="node48" class="node">
<title>cool_ideas_CORE_multi_agent_conflict_detection</title>
<path fill="#d4e8f7" stroke="black" d="M6887.93,-386.7C6887.93,-386.7 6750.07,-386.7 6750.07,-386.7 6745.88,-386.7 6741.68,-382.5 6741.68,-378.3 6741.68,-378.3 6741.68,-369.9 6741.68,-369.9 6741.68,-365.7 6745.88,-361.5 6750.07,-361.5 6750.07,-361.5 6887.93,-361.5 6887.93,-361.5 6892.12,-361.5 6896.32,-365.7 6896.32,-369.9 6896.32,-369.9 6896.32,-378.3 6896.32,-378.3 6896.32,-382.5 6892.12,-386.7 6887.93,-386.7"/>
<text xml:space="preserve" text-anchor="middle" x="6819" y="-371" font-family="Helvetica,sans-Serif" font-size="8.00">CORE&#45;multi&#45;agent&#45;conflict&#45;detection &#45; L</text>
</g>
<!-- cool_ideas_CORE_policy_playground -->
<g id="node49" class="node">
<title>cool_ideas_CORE_policy_playground</title>
<path fill="#d4e8f7" stroke="black" d="M7017.43,-386.7C7017.43,-386.7 6918.57,-386.7 6918.57,-386.7 6914.38,-386.7 6910.18,-382.5 6910.18,-378.3 6910.18,-378.3 6910.18,-369.9 6910.18,-369.9 6910.18,-365.7 6914.38,-361.5 6918.57,-361.5 6918.57,-361.5 7017.43,-361.5 7017.43,-361.5 7021.62,-361.5 7025.82,-365.7 7025.82,-369.9 7025.82,-369.9 7025.82,-378.3 7025.82,-378.3 7025.82,-382.5 7021.62,-386.7 7017.43,-386.7"/>
<text xml:space="preserve" text-anchor="middle" x="6968" y="-371" font-family="Helvetica,sans-Serif" font-size="8.00">CORE&#45;policy&#45;playground &#45; S</text>
</g>
<!-- cool_ideas_CORE_policy_profiles -->
<g id="node50" class="node">
<title>cool_ideas_CORE_policy_profiles</title>
<path fill="#d4e8f7" stroke="black" d="M7134.05,-386.7C7134.05,-386.7 7047.95,-386.7 7047.95,-386.7 7043.75,-386.7 7039.55,-382.5 7039.55,-378.3 7039.55,-378.3 7039.55,-369.9 7039.55,-369.9 7039.55,-365.7 7043.75,-361.5 7047.95,-361.5 7047.95,-361.5 7134.05,-361.5 7134.05,-361.5 7138.25,-361.5 7142.45,-365.7 7142.45,-369.9 7142.45,-369.9 7142.45,-378.3 7142.45,-378.3 7142.45,-382.5 7138.25,-386.7 7134.05,-386.7"/>
<text xml:space="preserve" text-anchor="middle" x="7091" y="-371" font-family="Helvetica,sans-Serif" font-size="8.00">CORE&#45;policy&#45;profiles &#45; M</text>
</g>
<!-- cool_ideas_CORE_self_tuning_governor -->
<g id="node51" class="node">
<title>cool_ideas_CORE_self_tuning_governor</title>
<path fill="#d4e8f7" stroke="black" d="M7275.05,-386.7C7275.05,-386.7 7164.95,-386.7 7164.95,-386.7 7160.75,-386.7 7156.55,-382.5 7156.55,-378.3 7156.55,-378.3 7156.55,-369.9 7156.55,-369.9 7156.55,-365.7 7160.75,-361.5 7164.95,-361.5 7164.95,-361.5 7275.05,-361.5 7275.05,-361.5 7279.25,-361.5 7283.45,-365.7 7283.45,-369.9 7283.45,-369.9 7283.45,-378.3 7283.45,-378.3 7283.45,-382.5 7279.25,-386.7 7275.05,-386.7"/>
<text xml:space="preserve" text-anchor="middle" x="7220" y="-371" font-family="Helvetica,sans-Serif" font-size="8.00">CORE&#45;self&#45;tuning&#45;governor &#45; M</text>
</g>
<!-- cool_ideas_CORE_session_knowledge_map -->
<g id="node52" class="node">
<title>cool_ideas_CORE_session_knowledge_map</title>
<path fill="#d4e8f7" stroke="black" d="M7428.43,-386.7C7428.43,-386.7 7305.57,-386.7 7305.57,-386.7 7301.38,-386.7 7297.18,-382.5 7297.18,-378.3 7297.18,-378.3 7297.18,-369.9 7297.18,-369.9 7297.18,-365.7 7301.38,-361.5 7305.57,-361.5 7305.57,-361.5 7428.43,-361.5 7428.43,-361.5 7432.62,-361.5 7436.82,-365.7 7436.82,-369.9 7436.82,-369.9 7436.82,-378.3 7436.82,-378.3 7436.82,-382.5 7432.62,-386.7 7428.43,-386.7"/>
<text xml:space="preserve" text-anchor="middle" x="7367" y="-371" font-family="Helvetica,sans-Serif" font-size="8.00">CORE&#45;session&#45;knowledge&#45;map &#45; S</text>
</g>
<!-- cool_ideas_CORE_speculative_read_cost -->
<g id="node53" class="node">
<title>cool_ideas_CORE_speculative_read_cost</title>
<path fill="#d4e8f7" stroke="black" d="M7571.18,-386.7C7571.18,-386.7 7458.82,-386.7 7458.82,-386.7 7454.62,-386.7 7450.43,-382.5 7450.43,-378.3 7450.43,-378.3 7450.43,-369.9 7450.43,-369.9 7450.43,-365.7 7454.62,-361.5 7458.82,-361.5 7458.82,-361.5 7571.18,-361.5 7571.18,-361.5 7575.38,-361.5 7579.57,-365.7 7579.57,-369.9 7579.57,-369.9 7579.57,-378.3 7579.57,-378.3 7579.57,-382.5 7575.38,-386.7 7571.18,-386.7"/>
<text xml:space="preserve" text-anchor="middle" x="7515" y="-371" font-family="Helvetica,sans-Serif" font-size="8.00">CORE&#45;speculative&#45;read&#45;cost &#45; S</text>
</g>
<!-- cool_ideas_CORE_structural_session_replay -->
<g id="node54" class="node">
<title>cool_ideas_CORE_structural_session_replay</title>
<path fill="#d4e8f7" stroke="black" d="M7727.55,-386.7C7727.55,-386.7 7602.45,-386.7 7602.45,-386.7 7598.25,-386.7 7594.05,-382.5 7594.05,-378.3 7594.05,-378.3 7594.05,-369.9 7594.05,-369.9 7594.05,-365.7 7598.25,-361.5 7602.45,-361.5 7602.45,-361.5 7727.55,-361.5 7727.55,-361.5 7731.75,-361.5 7735.95,-365.7 7735.95,-369.9 7735.95,-369.9 7735.95,-378.3 7735.95,-378.3 7735.95,-382.5 7731.75,-386.7 7727.55,-386.7"/>
<text xml:space="preserve" text-anchor="middle" x="7665" y="-371" font-family="Helvetica,sans-Serif" font-size="8.00">CORE&#45;structural&#45;session&#45;replay &#45; M</text>
</g>
<!-- cool_ideas_CORE_wire_primitives_into_runtime -->
<g id="node55" class="node">
<title>cool_ideas_CORE_wire_primitives_into_runtime</title>
<path fill="#d4e8f7" stroke="black" d="M7893.43,-386.7C7893.43,-386.7 7758.57,-386.7 7758.57,-386.7 7754.38,-386.7 7750.18,-382.5 7750.18,-378.3 7750.18,-378.3 7750.18,-369.9 7750.18,-369.9 7750.18,-365.7 7754.38,-361.5 7758.57,-361.5 7758.57,-361.5 7893.43,-361.5 7893.43,-361.5 7897.62,-361.5 7901.82,-365.7 7901.82,-369.9 7901.82,-369.9 7901.82,-378.3 7901.82,-378.3 7901.82,-382.5 7897.62,-386.7 7893.43,-386.7"/>
<text xml:space="preserve" text-anchor="middle" x="7826" y="-371" font-family="Helvetica,sans-Serif" font-size="8.00">CORE&#45;wire&#45;primitives&#45;into&#45;runtime &#45; M</text>
</g>
<!-- cool_ideas_monitor_tick_ceiling_tracking -->
<g id="node56" class="node">
<title>cool_ideas_monitor_tick_ceiling_tracking</title>
<path fill="#d4e8f7" stroke="black" d="M8031.55,-386.7C8031.55,-386.7 7924.45,-386.7 7924.45,-386.7 7920.25,-386.7 7916.05,-382.5 7916.05,-378.3 7916.05,-378.3 7916.05,-369.9 7916.05,-369.9 7916.05,-365.7 7920.25,-361.5 7924.45,-361.5 7924.45,-361.5 8031.55,-361.5 8031.55,-361.5 8035.75,-361.5 8039.95,-365.7 8039.95,-369.9 8039.95,-369.9 8039.95,-378.3 8039.95,-378.3 8039.95,-382.5 8035.75,-386.7 8031.55,-386.7"/>
<text xml:space="preserve" text-anchor="middle" x="7978" y="-371" font-family="Helvetica,sans-Serif" font-size="8.00">monitor&#45;tick&#45;ceiling&#45;tracking &#45; S</text>
</g>
<!-- cool_ideas_WARP_background_indexing -->
<g id="node74" class="node">
<title>cool_ideas_WARP_background_indexing</title>
<path fill="#d4e8f7" stroke="black" d="M8034.55,-313.25C8034.55,-313.25 7921.45,-313.25 7921.45,-313.25 7917.25,-313.25 7913.05,-309.05 7913.05,-304.85 7913.05,-304.85 7913.05,-296.45 7913.05,-296.45 7913.05,-292.25 7917.25,-288.05 7921.45,-288.05 7921.45,-288.05 8034.55,-288.05 8034.55,-288.05 8038.75,-288.05 8042.95,-292.25 8042.95,-296.45 8042.95,-296.45 8042.95,-304.85 8042.95,-304.85 8042.95,-309.05 8038.75,-313.25 8034.55,-313.25"/>
<text xml:space="preserve" text-anchor="middle" x="7978" y="-297.55" font-family="Helvetica,sans-Serif" font-size="8.00">WARP&#45;background&#45;indexing &#45; M</text>
</g>
<!-- cool_ideas_monitor_tick_ceiling_tracking&#45;&gt;cool_ideas_WARP_background_indexing -->
<g id="edge1" class="edge">
<title>cool_ideas_monitor_tick_ceiling_tracking&#45;&gt;cool_ideas_WARP_background_indexing</title>
<path fill="none" stroke="#666666" d="M7978,-361.3C7978,-350.1 7978,-333.08 7978,-320.08"/>
<polygon fill="#666666" stroke="#666666" points="7979.75,-320.22 7978,-315.22 7976.25,-320.22 7979.75,-320.22"/>
<text xml:space="preserve" text-anchor="middle" x="8009.5" y="-334.85" font-family="Helvetica,sans-Serif" font-size="7.00">blocked_by/blocking</text>
</g>
<!-- cool_ideas_SURFACE_active_causal_workspace_status -->
<g id="node57" class="node">
<title>cool_ideas_SURFACE_active_causal_workspace_status</title>
<path fill="#d4e8f7" stroke="black" d="M8226.05,-386.7C8226.05,-386.7 8061.95,-386.7 8061.95,-386.7 8057.75,-386.7 8053.55,-382.5 8053.55,-378.3 8053.55,-378.3 8053.55,-369.9 8053.55,-369.9 8053.55,-365.7 8057.75,-361.5 8061.95,-361.5 8061.95,-361.5 8226.05,-361.5 8226.05,-361.5 8230.25,-361.5 8234.45,-365.7 8234.45,-369.9 8234.45,-369.9 8234.45,-378.3 8234.45,-378.3 8234.45,-382.5 8230.25,-386.7 8226.05,-386.7"/>
<text xml:space="preserve" text-anchor="middle" x="8144" y="-371" font-family="Helvetica,sans-Serif" font-size="8.00">SURFACE&#45;active&#45;causal&#45;workspace&#45;status &#45; M</text>
</g>
<!-- cool_ideas_SURFACE_ide_native_graft_integration -->
<g id="node63" class="node">
<title>cool_ideas_SURFACE_ide_native_graft_integration</title>
<path fill="#d4e8f7" stroke="black" d="M8219.3,-313.25C8219.3,-313.25 8068.7,-313.25 8068.7,-313.25 8064.5,-313.25 8060.3,-309.05 8060.3,-304.85 8060.3,-304.85 8060.3,-296.45 8060.3,-296.45 8060.3,-292.25 8064.5,-288.05 8068.7,-288.05 8068.7,-288.05 8219.3,-288.05 8219.3,-288.05 8223.5,-288.05 8227.7,-292.25 8227.7,-296.45 8227.7,-296.45 8227.7,-304.85 8227.7,-304.85 8227.7,-309.05 8223.5,-313.25 8219.3,-313.25"/>
<text xml:space="preserve" text-anchor="middle" x="8144" y="-297.55" font-family="Helvetica,sans-Serif" font-size="8.00">SURFACE&#45;ide&#45;native&#45;graft&#45;integration &#45; XL</text>
</g>
<!-- cool_ideas_SURFACE_active_causal_workspace_status&#45;&gt;cool_ideas_SURFACE_ide_native_graft_integration -->
<g id="edge2" class="edge">
<title>cool_ideas_SURFACE_active_causal_workspace_status&#45;&gt;cool_ideas_SURFACE_ide_native_graft_integration</title>
<path fill="none" stroke="#666666" d="M8144,-361.3C8144,-350.1 8144,-333.08 8144,-320.08"/>
<polygon fill="#666666" stroke="#666666" points="8145.75,-320.22 8144,-315.22 8142.25,-320.22 8145.75,-320.22"/>
<text xml:space="preserve" text-anchor="middle" x="8175.5" y="-334.85" font-family="Helvetica,sans-Serif" font-size="7.00">blocked_by/blocking</text>
</g>
<!-- cool_ideas_SURFACE_attach_to_existing_causal_session -->
<g id="node58" class="node">
<title>cool_ideas_SURFACE_attach_to_existing_causal_session</title>
<path fill="#d4e8f7" stroke="black" d="M8425.3,-386.7C8425.3,-386.7 8256.7,-386.7 8256.7,-386.7 8252.5,-386.7 8248.3,-382.5 8248.3,-378.3 8248.3,-378.3 8248.3,-369.9 8248.3,-369.9 8248.3,-365.7 8252.5,-361.5 8256.7,-361.5 8256.7,-361.5 8425.3,-361.5 8425.3,-361.5 8429.5,-361.5 8433.7,-365.7 8433.7,-369.9 8433.7,-369.9 8433.7,-378.3 8433.7,-378.3 8433.7,-382.5 8429.5,-386.7 8425.3,-386.7"/>
<text xml:space="preserve" text-anchor="middle" x="8341" y="-371" font-family="Helvetica,sans-Serif" font-size="8.00">SURFACE&#45;attach&#45;to&#45;existing&#45;causal&#45;session &#45; M</text>
</g>
<!-- cool_ideas_SURFACE_bijou_daemon_control_plane_actions -->
<g id="node59" class="node">
<title>cool_ideas_SURFACE_bijou_daemon_control_plane_actions</title>
<path fill="#d4e8f7" stroke="black" d="M8633.43,-386.7C8633.43,-386.7 8456.57,-386.7 8456.57,-386.7 8452.38,-386.7 8448.17,-382.5 8448.17,-378.3 8448.17,-378.3 8448.17,-369.9 8448.17,-369.9 8448.17,-365.7 8452.38,-361.5 8456.57,-361.5 8456.57,-361.5 8633.43,-361.5 8633.43,-361.5 8637.62,-361.5 8641.83,-365.7 8641.83,-369.9 8641.83,-369.9 8641.83,-378.3 8641.83,-378.3 8641.83,-382.5 8637.62,-386.7 8633.43,-386.7"/>
<text xml:space="preserve" text-anchor="middle" x="8545" y="-371" font-family="Helvetica,sans-Serif" font-size="8.00">SURFACE&#45;bijou&#45;daemon&#45;control&#45;plane&#45;actions &#45; L</text>
</g>
<!-- cool_ideas_SURFACE_bijou_daemon_status_live_refresh -->
<g id="node60" class="node">
<title>cool_ideas_SURFACE_bijou_daemon_status_live_refresh</title>
<path fill="#d4e8f7" stroke="black" d="M8833.3,-386.7C8833.3,-386.7 8664.7,-386.7 8664.7,-386.7 8660.5,-386.7 8656.3,-382.5 8656.3,-378.3 8656.3,-378.3 8656.3,-369.9 8656.3,-369.9 8656.3,-365.7 8660.5,-361.5 8664.7,-361.5 8664.7,-361.5 8833.3,-361.5 8833.3,-361.5 8837.5,-361.5 8841.7,-365.7 8841.7,-369.9 8841.7,-369.9 8841.7,-378.3 8841.7,-378.3 8841.7,-382.5 8837.5,-386.7 8833.3,-386.7"/>
<text xml:space="preserve" text-anchor="middle" x="8749" y="-371" font-family="Helvetica,sans-Serif" font-size="8.00">SURFACE&#45;bijou&#45;daemon&#45;status&#45;live&#45;refresh &#45; M</text>
</g>
<!-- cool_ideas_SURFACE_git_graft_enhance_expanded_git_subcommands -->
<g id="node61" class="node">
<title>cool_ideas_SURFACE_git_graft_enhance_expanded_git_subcommands</title>
<path fill="#d4e8f7" stroke="black" d="M9068.3,-386.7C9068.3,-386.7 8863.7,-386.7 8863.7,-386.7 8859.5,-386.7 8855.3,-382.5 8855.3,-378.3 8855.3,-378.3 8855.3,-369.9 8855.3,-369.9 8855.3,-365.7 8859.5,-361.5 8863.7,-361.5 8863.7,-361.5 9068.3,-361.5 9068.3,-361.5 9072.5,-361.5 9076.7,-365.7 9076.7,-369.9 9076.7,-369.9 9076.7,-378.3 9076.7,-378.3 9076.7,-382.5 9072.5,-386.7 9068.3,-386.7"/>
<text xml:space="preserve" text-anchor="middle" x="8966" y="-371" font-family="Helvetica,sans-Serif" font-size="8.00">SURFACE&#45;git&#45;graft&#45;enhance&#45;expanded&#45;git&#45;subcommands</text>
</g>
<!-- cool_ideas_SURFACE_graft_review_pr_number_adapter -->
<g id="node62" class="node">
<title>cool_ideas_SURFACE_graft_review_pr_number_adapter</title>
<path fill="#d4e8f7" stroke="black" d="M9266.93,-386.7C9266.93,-386.7 9099.07,-386.7 9099.07,-386.7 9094.88,-386.7 9090.67,-382.5 9090.67,-378.3 9090.67,-378.3 9090.67,-369.9 9090.67,-369.9 9090.67,-365.7 9094.88,-361.5 9099.07,-361.5 9099.07,-361.5 9266.93,-361.5 9266.93,-361.5 9271.12,-361.5 9275.33,-365.7 9275.33,-369.9 9275.33,-369.9 9275.33,-378.3 9275.33,-378.3 9275.33,-382.5 9271.12,-386.7 9266.93,-386.7"/>
<text xml:space="preserve" text-anchor="middle" x="9183" y="-371" font-family="Helvetica,sans-Serif" font-size="8.00">SURFACE&#45;graft&#45;review&#45;pr&#45;number&#45;adapter &#45; M</text>
</g>
<!-- cool_ideas_SURFACE_init_dry_run -->
<g id="node64" class="node">
<title>cool_ideas_SURFACE_init_dry_run</title>
<path fill="#d4e8f7" stroke="black" d="M9388.3,-386.7C9388.3,-386.7 9297.7,-386.7 9297.7,-386.7 9293.5,-386.7 9289.3,-382.5 9289.3,-378.3 9289.3,-378.3 9289.3,-369.9 9289.3,-369.9 9289.3,-365.7 9293.5,-361.5 9297.7,-361.5 9297.7,-361.5 9388.3,-361.5 9388.3,-361.5 9392.5,-361.5 9396.7,-365.7 9396.7,-369.9 9396.7,-369.9 9396.7,-378.3 9396.7,-378.3 9396.7,-382.5 9392.5,-386.7 9388.3,-386.7"/>
<text xml:space="preserve" text-anchor="middle" x="9343" y="-371" font-family="Helvetica,sans-Serif" font-size="8.00">SURFACE&#45;init&#45;dry&#45;run &#45; S</text>
</g>
<!-- cool_ideas_SURFACE_local_history_dag_render_mode_and_count_legend -->
<g id="node65" class="node">
<title>cool_ideas_SURFACE_local_history_dag_render_mode_and_count_legend</title>
<path fill="#d4e8f7" stroke="black" d="M9645.18,-386.7C9645.18,-386.7 9418.82,-386.7 9418.82,-386.7 9414.62,-386.7 9410.42,-382.5 9410.42,-378.3 9410.42,-378.3 9410.42,-369.9 9410.42,-369.9 9410.42,-365.7 9414.62,-361.5 9418.82,-361.5 9418.82,-361.5 9645.18,-361.5 9645.18,-361.5 9649.38,-361.5 9653.58,-365.7 9653.58,-369.9 9653.58,-369.9 9653.58,-378.3 9653.58,-378.3 9653.58,-382.5 9649.38,-386.7 9645.18,-386.7"/>
<text xml:space="preserve" text-anchor="middle" x="9532" y="-371" font-family="Helvetica,sans-Serif" font-size="8.00">SURFACE&#45;local&#45;history&#45;dag&#45;render&#45;mode&#45;and&#45;count&#45;legend &#45; S</text>
</g>
<!-- cool_ideas_SURFACE_non_codex_instruction_bootstrap_parity -->
<g id="node66" class="node">
<title>cool_ideas_SURFACE_non_codex_instruction_bootstrap_parity</title>
<path fill="#d4e8f7" stroke="black" d="M9864.43,-386.7C9864.43,-386.7 9675.57,-386.7 9675.57,-386.7 9671.38,-386.7 9667.17,-382.5 9667.17,-378.3 9667.17,-378.3 9667.17,-369.9 9667.17,-369.9 9667.17,-365.7 9671.38,-361.5 9675.57,-361.5 9675.57,-361.5 9864.43,-361.5 9864.43,-361.5 9868.62,-361.5 9872.83,-365.7 9872.83,-369.9 9872.83,-369.9 9872.83,-378.3 9872.83,-378.3 9872.83,-382.5 9868.62,-386.7 9864.43,-386.7"/>
<text xml:space="preserve" text-anchor="middle" x="9770" y="-371" font-family="Helvetica,sans-Serif" font-size="8.00">SURFACE&#45;non&#45;codex&#45;instruction&#45;bootstrap&#45;parity &#45; M</text>
</g>
<!-- cool_ideas_SURFACE_offer_rename_refactor -->
<g id="node67" class="node">
<title>cool_ideas_SURFACE_offer_rename_refactor</title>
<path fill="#d4e8f7" stroke="black" d="M10024.43,-386.7C10024.43,-386.7 9895.57,-386.7 9895.57,-386.7 9891.38,-386.7 9887.17,-382.5 9887.17,-378.3 9887.17,-378.3 9887.17,-369.9 9887.17,-369.9 9887.17,-365.7 9891.38,-361.5 9895.57,-361.5 9895.57,-361.5 10024.43,-361.5 10024.43,-361.5 10028.62,-361.5 10032.83,-365.7 10032.83,-369.9 10032.83,-369.9 10032.83,-378.3 10032.83,-378.3 10032.83,-382.5 10028.62,-386.7 10024.43,-386.7"/>
<text xml:space="preserve" text-anchor="middle" x="9960" y="-371" font-family="Helvetica,sans-Serif" font-size="8.00">SURFACE&#45;offer&#45;rename&#45;refactor &#45; L</text>
</g>
<!-- cool_ideas_SURFACE_opened_workspace_paths -->
<g id="node68" class="node">
<title>cool_ideas_SURFACE_opened_workspace_paths</title>
<path fill="#d4e8f7" stroke="black" d="M10198.93,-386.7C10198.93,-386.7 10055.07,-386.7 10055.07,-386.7 10050.88,-386.7 10046.67,-382.5 10046.67,-378.3 10046.67,-378.3 10046.67,-369.9 10046.67,-369.9 10046.67,-365.7 10050.88,-361.5 10055.07,-361.5 10055.07,-361.5 10198.93,-361.5 10198.93,-361.5 10203.12,-361.5 10207.33,-365.7 10207.33,-369.9 10207.33,-369.9 10207.33,-378.3 10207.33,-378.3 10207.33,-382.5 10203.12,-386.7 10198.93,-386.7"/>
<text xml:space="preserve" text-anchor="middle" x="10127" y="-371" font-family="Helvetica,sans-Serif" font-size="8.00">SURFACE&#45;opened&#45;workspace&#45;paths &#45; M</text>
</g>
<!-- cool_ideas_SURFACE_terminal_activity_browser_tui -->
<g id="node69" class="node">
<title>cool_ideas_SURFACE_terminal_activity_browser_tui</title>
<path fill="#d4e8f7" stroke="black" d="M10378.55,-386.7C10378.55,-386.7 10229.45,-386.7 10229.45,-386.7 10225.25,-386.7 10221.05,-382.5 10221.05,-378.3 10221.05,-378.3 10221.05,-369.9 10221.05,-369.9 10221.05,-365.7 10225.25,-361.5 10229.45,-361.5 10229.45,-361.5 10378.55,-361.5 10378.55,-361.5 10382.75,-361.5 10386.95,-365.7 10386.95,-369.9 10386.95,-369.9 10386.95,-378.3 10386.95,-378.3 10386.95,-382.5 10382.75,-386.7 10378.55,-386.7"/>
<text xml:space="preserve" text-anchor="middle" x="10304" y="-371" font-family="Helvetica,sans-Serif" font-size="8.00">SURFACE&#45;terminal&#45;activity&#45;browser&#45;tui &#45; L</text>
</g>
<!-- cool_ideas_traverse_plus_query_hydration_helper -->
<g id="node70" class="node">
<title>cool_ideas_traverse_plus_query_hydration_helper</title>
<path fill="#d4e8f7" stroke="black" d="M10550.8,-386.7C10550.8,-386.7 10409.2,-386.7 10409.2,-386.7 10405,-386.7 10400.8,-382.5 10400.8,-378.3 10400.8,-378.3 10400.8,-369.9 10400.8,-369.9 10400.8,-365.7 10405,-361.5 10409.2,-361.5 10409.2,-361.5 10550.8,-361.5 10550.8,-361.5 10555,-361.5 10559.2,-365.7 10559.2,-369.9 10559.2,-369.9 10559.2,-378.3 10559.2,-378.3 10559.2,-382.5 10555,-386.7 10550.8,-386.7"/>
<text xml:space="preserve" text-anchor="middle" x="10480" y="-371" font-family="Helvetica,sans-Serif" font-size="8.00">traverse&#45;plus&#45;query&#45;hydration&#45;helper &#45; S</text>
</g>
<!-- cool_ideas_WARP_adaptive_projection_selection -->
<g id="node71" class="node">
<title>cool_ideas_WARP_adaptive_projection_selection</title>
<path fill="#d4e8f7" stroke="black" d="M10719.93,-386.7C10719.93,-386.7 10582.07,-386.7 10582.07,-386.7 10577.88,-386.7 10573.67,-382.5 10573.67,-378.3 10573.67,-378.3 10573.67,-369.9 10573.67,-369.9 10573.67,-365.7 10577.88,-361.5 10582.07,-361.5 10582.07,-361.5 10719.93,-361.5 10719.93,-361.5 10724.12,-361.5 10728.33,-365.7 10728.33,-369.9 10728.33,-369.9 10728.33,-378.3 10728.33,-378.3 10728.33,-382.5 10724.12,-386.7 10719.93,-386.7"/>
<text xml:space="preserve" text-anchor="middle" x="10651" y="-371" font-family="Helvetica,sans-Serif" font-size="8.00">WARP&#45;adaptive&#45;projection&#45;selection &#45; L</text>
</g>
<!-- cool_ideas_WARP_agent_action_provenance -->
<g id="node72" class="node">
<title>cool_ideas_WARP_agent_action_provenance</title>
<path fill="#d4e8f7" stroke="black" d="M10881.55,-386.7C10881.55,-386.7 10750.45,-386.7 10750.45,-386.7 10746.25,-386.7 10742.05,-382.5 10742.05,-378.3 10742.05,-378.3 10742.05,-369.9 10742.05,-369.9 10742.05,-365.7 10746.25,-361.5 10750.45,-361.5 10750.45,-361.5 10881.55,-361.5 10881.55,-361.5 10885.75,-361.5 10889.95,-365.7 10889.95,-369.9 10889.95,-369.9 10889.95,-378.3 10889.95,-378.3 10889.95,-382.5 10885.75,-386.7 10881.55,-386.7"/>
<text xml:space="preserve" text-anchor="middle" x="10816" y="-371" font-family="Helvetica,sans-Serif" font-size="8.00">WARP&#45;agent&#45;action&#45;provenance &#45; XL</text>
</g>
<!-- cool_ideas_WARP_agent_action_provenance&#45;&gt;cool_ideas_CI_001_causal_collapse_visualizer -->
<g id="edge3" class="edge">
<title>cool_ideas_WARP_agent_action_provenance&#45;&gt;cool_ideas_CI_001_causal_collapse_visualizer</title>
<path fill="none" stroke="#666666" d="M10768.13,-361.03C10757.27,-358.43 10745.76,-355.78 10735,-353.5 10705.83,-347.32 10698.12,-347.91 10669,-341.5 10633.75,-333.74 10594.35,-323.52 10564.23,-315.37"/>
<polygon fill="#666666" stroke="#666666" points="10564.69,-313.68 10559.4,-314.06 10563.77,-317.06 10564.69,-313.68"/>
<text xml:space="preserve" text-anchor="middle" x="10700.5" y="-334.85" font-family="Helvetica,sans-Serif" font-size="7.00">blocked_by/blocking</text>
</g>
<!-- cool_ideas_WARP_causal_write_tracking -->
<g id="node77" class="node">
<title>cool_ideas_WARP_causal_write_tracking</title>
<path fill="#d4e8f7" stroke="black" d="M10719.05,-313.25C10719.05,-313.25 10608.95,-313.25 10608.95,-313.25 10604.75,-313.25 10600.55,-309.05 10600.55,-304.85 10600.55,-304.85 10600.55,-296.45 10600.55,-296.45 10600.55,-292.25 10604.75,-288.05 10608.95,-288.05 10608.95,-288.05 10719.05,-288.05 10719.05,-288.05 10723.25,-288.05 10727.45,-292.25 10727.45,-296.45 10727.45,-296.45 10727.45,-304.85 10727.45,-304.85 10727.45,-309.05 10723.25,-313.25 10719.05,-313.25"/>
<text xml:space="preserve" text-anchor="middle" x="10664" y="-297.55" font-family="Helvetica,sans-Serif" font-size="8.00">WARP&#45;causal&#45;write&#45;tracking &#45; L</text>
</g>
<!-- cool_ideas_WARP_agent_action_provenance&#45;&gt;cool_ideas_WARP_causal_write_tracking -->
<g id="edge4" class="edge">
<title>cool_ideas_WARP_agent_action_provenance&#45;&gt;cool_ideas_WARP_causal_write_tracking</title>
<path fill="none" stroke="#666666" d="M10790.56,-361.14C10764.36,-348.83 10723.5,-329.62 10695.33,-316.38"/>
<polygon fill="#666666" stroke="#666666" points="10696.16,-314.84 10690.89,-314.29 10694.67,-318 10696.16,-314.84"/>
<text xml:space="preserve" text-anchor="middle" x="10776.06" y="-334.85" font-family="Helvetica,sans-Serif" font-size="7.00">blocked_by/blocking</text>
</g>
<!-- cool_ideas_WARP_intent_and_decision_events -->
<g id="node86" class="node">
<title>cool_ideas_WARP_intent_and_decision_events</title>
<path fill="#d4e8f7" stroke="black" d="M10882.3,-313.25C10882.3,-313.25 10749.7,-313.25 10749.7,-313.25 10745.5,-313.25 10741.3,-309.05 10741.3,-304.85 10741.3,-304.85 10741.3,-296.45 10741.3,-296.45 10741.3,-292.25 10745.5,-288.05 10749.7,-288.05 10749.7,-288.05 10882.3,-288.05 10882.3,-288.05 10886.5,-288.05 10890.7,-292.25 10890.7,-296.45 10890.7,-296.45 10890.7,-304.85 10890.7,-304.85 10890.7,-309.05 10886.5,-313.25 10882.3,-313.25"/>
<text xml:space="preserve" text-anchor="middle" x="10816" y="-297.55" font-family="Helvetica,sans-Serif" font-size="8.00">WARP&#45;intent&#45;and&#45;decision&#45;events &#45; M</text>
</g>
<!-- cool_ideas_WARP_agent_action_provenance&#45;&gt;cool_ideas_WARP_intent_and_decision_events -->
<g id="edge5" class="edge">
<title>cool_ideas_WARP_agent_action_provenance&#45;&gt;cool_ideas_WARP_intent_and_decision_events</title>
<path fill="none" stroke="#666666" d="M10816,-361.3C10816,-350.1 10816,-333.08 10816,-320.08"/>
<polygon fill="#666666" stroke="#666666" points="10817.75,-320.22 10816,-315.22 10814.25,-320.22 10817.75,-320.22"/>
<text xml:space="preserve" text-anchor="middle" x="10847.5" y="-334.85" font-family="Helvetica,sans-Serif" font-size="7.00">blocked_by/blocking</text>
</g>
<!-- cool_ideas_WARP_provenance_dag -->
<g id="node91" class="node">
<title>cool_ideas_WARP_provenance_dag</title>
<path fill="#d4e8f7" stroke="black" d="M11008.55,-313.25C11008.55,-313.25 10913.45,-313.25 10913.45,-313.25 10909.25,-313.25 10905.05,-309.05 10905.05,-304.85 10905.05,-304.85 10905.05,-296.45 10905.05,-296.45 10905.05,-292.25 10909.25,-288.05 10913.45,-288.05 10913.45,-288.05 11008.55,-288.05 11008.55,-288.05 11012.75,-288.05 11016.95,-292.25 11016.95,-296.45 11016.95,-296.45 11016.95,-304.85 11016.95,-304.85 11016.95,-309.05 11012.75,-313.25 11008.55,-313.25"/>
<text xml:space="preserve" text-anchor="middle" x="10961" y="-297.55" font-family="Helvetica,sans-Serif" font-size="8.00">WARP&#45;provenance&#45;dag &#45; L</text>
</g>
<!-- cool_ideas_WARP_agent_action_provenance&#45;&gt;cool_ideas_WARP_provenance_dag -->
<g id="edge6" class="edge">
<title>cool_ideas_WARP_agent_action_provenance&#45;&gt;cool_ideas_WARP_provenance_dag</title>
<path fill="none" stroke="#666666" d="M10841.45,-361.07C10853.73,-355.22 10868.66,-348.06 10882,-341.5 10898.55,-333.36 10916.95,-324.09 10931.83,-316.54"/>
<polygon fill="#666666" stroke="#666666" points="10932.54,-318.15 10936.21,-314.32 10930.96,-315.03 10932.54,-318.15"/>
<text xml:space="preserve" text-anchor="middle" x="10928.67" y="-334.85" font-family="Helvetica,sans-Serif" font-size="7.00">blocked_by/blocking</text>
</g>
<!-- cool_ideas_WARP_auto_breaking_change_detection -->
<g id="node73" class="node">
<title>cool_ideas_WARP_auto_breaking_change_detection</title>
<path fill="#d4e8f7" stroke="black" d="M13630.3,-313.25C13630.3,-313.25 13479.7,-313.25 13479.7,-313.25 13475.5,-313.25 13471.3,-309.05 13471.3,-304.85 13471.3,-304.85 13471.3,-296.45 13471.3,-296.45 13471.3,-292.25 13475.5,-288.05 13479.7,-288.05 13479.7,-288.05 13630.3,-288.05 13630.3,-288.05 13634.5,-288.05 13638.7,-292.25 13638.7,-296.45 13638.7,-296.45 13638.7,-304.85 13638.7,-304.85 13638.7,-309.05 13634.5,-313.25 13630.3,-313.25"/>
<text xml:space="preserve" text-anchor="middle" x="13555" y="-297.55" font-family="Helvetica,sans-Serif" font-size="8.00">WARP&#45;auto&#45;breaking&#45;change&#45;detection &#45; L</text>
</g>
<!-- cool_ideas_WARP_budget_elasticity -->
<g id="node75" class="node">
<title>cool_ideas_WARP_budget_elasticity</title>
<path fill="#d4e8f7" stroke="black" d="M11007.93,-386.7C11007.93,-386.7 10912.07,-386.7 10912.07,-386.7 10907.88,-386.7 10903.67,-382.5 10903.67,-378.3 10903.67,-378.3 10903.67,-369.9 10903.67,-369.9 10903.67,-365.7 10907.88,-361.5 10912.07,-361.5 10912.07,-361.5 11007.93,-361.5 11007.93,-361.5 11012.12,-361.5 11016.33,-365.7 11016.33,-369.9 11016.33,-369.9 11016.33,-378.3 11016.33,-378.3 11016.33,-382.5 11012.12,-386.7 11007.93,-386.7"/>
<text xml:space="preserve" text-anchor="middle" x="10960" y="-371" font-family="Helvetica,sans-Serif" font-size="8.00">WARP&#45;budget&#45;elasticity &#45; M</text>
</g>
<!-- cool_ideas_WARP_causal_blame_for_staged_artifacts -->
<g id="node76" class="node">
<title>cool_ideas_WARP_causal_blame_for_staged_artifacts</title>
<path fill="#d4e8f7" stroke="black" d="M11038.18,-239.8C11038.18,-239.8 10883.82,-239.8 10883.82,-239.8 10879.62,-239.8 10875.42,-235.6 10875.42,-231.4 10875.42,-231.4 10875.42,-223 10875.42,-223 10875.42,-218.8 10879.62,-214.6 10883.82,-214.6 10883.82,-214.6 11038.18,-214.6 11038.18,-214.6 11042.38,-214.6 11046.58,-218.8 11046.58,-223 11046.58,-223 11046.58,-231.4 11046.58,-231.4 11046.58,-235.6 11042.38,-239.8 11038.18,-239.8"/>
<text xml:space="preserve" text-anchor="middle" x="10961" y="-224.1" font-family="Helvetica,sans-Serif" font-size="8.00">WARP&#45;causal&#45;blame&#45;for&#45;staged&#45;artifacts &#45; L</text>
</g>
<!-- cool_ideas_WARP_codebase_entropy_trajectory -->
<g id="node78" class="node">
<title>cool_ideas_WARP_codebase_entropy_trajectory</title>
<path fill="#d4e8f7" stroke="black" d="M11177.68,-386.7C11177.68,-386.7 11038.32,-386.7 11038.32,-386.7 11034.12,-386.7 11029.92,-382.5 11029.92,-378.3 11029.92,-378.3 11029.92,-369.9 11029.92,-369.9 11029.92,-365.7 11034.12,-361.5 11038.32,-361.5 11038.32,-361.5 11177.68,-361.5 11177.68,-361.5 11181.88,-361.5 11186.08,-365.7 11186.08,-369.9 11186.08,-369.9 11186.08,-378.3 11186.08,-378.3 11186.08,-382.5 11181.88,-386.7 11177.68,-386.7"/>
<text xml:space="preserve" text-anchor="middle" x="11108" y="-371" font-family="Helvetica,sans-Serif" font-size="8.00">WARP&#45;codebase&#45;entropy&#45;trajectory &#45; M</text>
</g>
<!-- cool_ideas_WARP_counterfactual_refactoring -->
<g id="node80" class="node">
<title>cool_ideas_WARP_counterfactual_refactoring</title>
<path fill="#d4e8f7" stroke="black" d="M11193.68,-313.25C11193.68,-313.25 11060.32,-313.25 11060.32,-313.25 11056.12,-313.25 11051.92,-309.05 11051.92,-304.85 11051.92,-304.85 11051.92,-296.45 11051.92,-296.45 11051.92,-292.25 11056.12,-288.05 11060.32,-288.05 11060.32,-288.05 11193.68,-288.05 11193.68,-288.05 11197.88,-288.05 11202.08,-292.25 11202.08,-296.45 11202.08,-296.45 11202.08,-304.85 11202.08,-304.85 11202.08,-309.05 11197.88,-313.25 11193.68,-313.25"/>
<text xml:space="preserve" text-anchor="middle" x="11127" y="-297.55" font-family="Helvetica,sans-Serif" font-size="8.00">WARP&#45;counterfactual&#45;refactoring &#45; XL</text>
</g>
<!-- cool_ideas_WARP_codebase_entropy_trajectory&#45;&gt;cool_ideas_WARP_counterfactual_refactoring -->
<g id="edge7" class="edge">
<title>cool_ideas_WARP_codebase_entropy_trajectory&#45;&gt;cool_ideas_WARP_counterfactual_refactoring</title>
<path fill="none" stroke="#666666" d="M11111.14,-361.3C11114.14,-349.99 11118.73,-332.76 11122.19,-319.73"/>
<polygon fill="#666666" stroke="#666666" points="11123.81,-320.45 11123.41,-315.17 11120.43,-319.55 11123.81,-320.45"/>
<text xml:space="preserve" text-anchor="middle" x="11149.57" y="-334.85" font-family="Helvetica,sans-Serif" font-size="7.00">blocked_by/blocking</text>
</g>
<!-- cool_ideas_WARP_codebase_signature -->
<g id="node79" class="node">
<title>cool_ideas_WARP_codebase_signature</title>
<path fill="#d4e8f7" stroke="black" d="M11315.55,-386.7C11315.55,-386.7 11208.45,-386.7 11208.45,-386.7 11204.25,-386.7 11200.05,-382.5 11200.05,-378.3 11200.05,-378.3 11200.05,-369.9 11200.05,-369.9 11200.05,-365.7 11204.25,-361.5 11208.45,-361.5 11208.45,-361.5 11315.55,-361.5 11315.55,-361.5 11319.75,-361.5 11323.95,-365.7 11323.95,-369.9 11323.95,-369.9 11323.95,-378.3 11323.95,-378.3 11323.95,-382.5 11319.75,-386.7 11315.55,-386.7"/>
<text xml:space="preserve" text-anchor="middle" x="11262" y="-371" font-family="Helvetica,sans-Serif" font-size="8.00">WARP&#45;codebase&#45;signature &#45; L</text>
</g>
<!-- cool_ideas_WARP_structural_impact_prediction -->
<g id="node101" class="node">
<title>cool_ideas_WARP_structural_impact_prediction</title>
<path fill="#d4e8f7" stroke="black" d="M11207.3,-239.8C11207.3,-239.8 11068.7,-239.8 11068.7,-239.8 11064.5,-239.8 11060.3,-235.6 11060.3,-231.4 11060.3,-231.4 11060.3,-223 11060.3,-223 11060.3,-218.8 11064.5,-214.6 11068.7,-214.6 11068.7,-214.6 11207.3,-214.6 11207.3,-214.6 11211.5,-214.6 11215.7,-218.8 11215.7,-223 11215.7,-223 11215.7,-231.4 11215.7,-231.4 11215.7,-235.6 11211.5,-239.8 11207.3,-239.8"/>
<text xml:space="preserve" text-anchor="middle" x="11138" y="-224.1" font-family="Helvetica,sans-Serif" font-size="8.00">WARP&#45;structural&#45;impact&#45;prediction &#45; XL</text>
</g>
<!-- cool_ideas_WARP_counterfactual_refactoring&#45;&gt;cool_ideas_WARP_structural_impact_prediction -->
<g id="edge8" class="edge">
<title>cool_ideas_WARP_counterfactual_refactoring&#45;&gt;cool_ideas_WARP_structural_impact_prediction</title>
<path fill="none" stroke="#666666" d="M11128.82,-287.85C11130.54,-276.65 11133.16,-259.63 11135.16,-246.63"/>
<polygon fill="#666666" stroke="#666666" points="11136.88,-246.96 11135.91,-241.75 11133.42,-246.43 11136.88,-246.96"/>
<text xml:space="preserve" text-anchor="middle" x="11164.33" y="-261.4" font-family="Helvetica,sans-Serif" font-size="7.00">blocked_by/blocking</text>
</g>
<!-- cool_ideas_WARP_degeneracy_warning -->
<g id="node81" class="node">
<title>cool_ideas_WARP_degeneracy_warning</title>
<path fill="#d4e8f7" stroke="black" d="M11459.18,-386.7C11459.18,-386.7 11346.82,-386.7 11346.82,-386.7 11342.62,-386.7 11338.42,-382.5 11338.42,-378.3 11338.42,-378.3 11338.42,-369.9 11338.42,-369.9 11338.42,-365.7 11342.62,-361.5 11346.82,-361.5 11346.82,-361.5 11459.18,-361.5 11459.18,-361.5 11463.38,-361.5 11467.58,-365.7 11467.58,-369.9 11467.58,-369.9 11467.58,-378.3 11467.58,-378.3 11467.58,-382.5 11463.38,-386.7 11459.18,-386.7"/>
<text xml:space="preserve" text-anchor="middle" x="11403" y="-371" font-family="Helvetica,sans-Serif" font-size="8.00">WARP&#45;degeneracy&#45;warning &#45; M</text>
</g>
<!-- cool_ideas_WARP_drift_sentinel -->
<g id="node82" class="node">
<title>cool_ideas_WARP_drift_sentinel</title>
<path fill="#d4e8f7" stroke="black" d="M13300.18,-313.25C13300.18,-313.25 13217.82,-313.25 13217.82,-313.25 13213.62,-313.25 13209.42,-309.05 13209.42,-304.85 13209.42,-304.85 13209.42,-296.45 13209.42,-296.45 13209.42,-292.25 13213.62,-288.05 13217.82,-288.05 13217.82,-288.05 13300.18,-288.05 13300.18,-288.05 13304.38,-288.05 13308.58,-292.25 13308.58,-296.45 13308.58,-296.45 13308.58,-304.85 13308.58,-304.85 13308.58,-309.05 13304.38,-313.25 13300.18,-313.25"/>
<text xml:space="preserve" text-anchor="middle" x="13259" y="-297.55" font-family="Helvetica,sans-Serif" font-size="8.00">WARP&#45;drift&#45;sentinel &#45; M</text>
</g>
<!-- cool_ideas_WARP_footprint_parallelism -->
<g id="node83" class="node">
<title>cool_ideas_WARP_footprint_parallelism</title>
<path fill="#d4e8f7" stroke="black" d="M11601.8,-386.7C11601.8,-386.7 11490.2,-386.7 11490.2,-386.7 11486,-386.7 11481.8,-382.5 11481.8,-378.3 11481.8,-378.3 11481.8,-369.9 11481.8,-369.9 11481.8,-365.7 11486,-361.5 11490.2,-361.5 11490.2,-361.5 11601.8,-361.5 11601.8,-361.5 11606,-361.5 11610.2,-365.7 11610.2,-369.9 11610.2,-369.9 11610.2,-378.3 11610.2,-378.3 11610.2,-382.5 11606,-386.7 11601.8,-386.7"/>
<text xml:space="preserve" text-anchor="middle" x="11546" y="-371" font-family="Helvetica,sans-Serif" font-size="8.00">WARP&#45;footprint&#45;parallelism &#45; XL</text>
</g>
<!-- cool_ideas_WARP_graft_pack -->
<g id="node84" class="node">
<title>cool_ideas_WARP_graft_pack</title>
<path fill="#d4e8f7" stroke="black" d="M11707.43,-386.7C11707.43,-386.7 11632.57,-386.7 11632.57,-386.7 11628.38,-386.7 11624.17,-382.5 11624.17,-378.3 11624.17,-378.3 11624.17,-369.9 11624.17,-369.9 11624.17,-365.7 11628.38,-361.5 11632.57,-361.5 11632.57,-361.5 11707.43,-361.5 11707.43,-361.5 11711.62,-361.5 11715.83,-365.7 11715.83,-369.9 11715.83,-369.9 11715.83,-378.3 11715.83,-378.3 11715.83,-382.5 11711.62,-386.7 11707.43,-386.7"/>
<text xml:space="preserve" text-anchor="middle" x="11670" y="-371" font-family="Helvetica,sans-Serif" font-size="8.00">WARP&#45;graft&#45;pack &#45; M</text>
</g>
<!-- cool_ideas_WARP_grouped_aggregate_queries -->
<g id="node85" class="node">
<title>cool_ideas_WARP_grouped_aggregate_queries</title>
<path fill="#d4e8f7" stroke="black" d="M11875.93,-386.7C11875.93,-386.7 11738.07,-386.7 11738.07,-386.7 11733.88,-386.7 11729.67,-382.5 11729.67,-378.3 11729.67,-378.3 11729.67,-369.9 11729.67,-369.9 11729.67,-365.7 11733.88,-361.5 11738.07,-361.5 11738.07,-361.5 11875.93,-361.5 11875.93,-361.5 11880.12,-361.5 11884.33,-365.7 11884.33,-369.9 11884.33,-369.9 11884.33,-378.3 11884.33,-378.3 11884.33,-382.5 11880.12,-386.7 11875.93,-386.7"/>
<text xml:space="preserve" text-anchor="middle" x="11807" y="-371" font-family="Helvetica,sans-Serif" font-size="8.00">WARP&#45;grouped&#45;aggregate&#45;queries &#45; M</text>
</g>
<!-- cool_ideas_WARP_intentional_degeneracy_privacy -->
<g id="node87" class="node">
<title>cool_ideas_WARP_intentional_degeneracy_privacy</title>
<path fill="#d4e8f7" stroke="black" d="M12054.8,-386.7C12054.8,-386.7 11907.2,-386.7 11907.2,-386.7 11903,-386.7 11898.8,-382.5 11898.8,-378.3 11898.8,-378.3 11898.8,-369.9 11898.8,-369.9 11898.8,-365.7 11903,-361.5 11907.2,-361.5 11907.2,-361.5 12054.8,-361.5 12054.8,-361.5 12059,-361.5 12063.2,-365.7 12063.2,-369.9 12063.2,-369.9 12063.2,-378.3 12063.2,-378.3 12063.2,-382.5 12059,-386.7 12054.8,-386.7"/>
<text xml:space="preserve" text-anchor="middle" x="11981" y="-371" font-family="Helvetica,sans-Serif" font-size="8.00">WARP&#45;intentional&#45;degeneracy&#45;privacy &#45; M</text>
</g>
<!-- cool_ideas_WARP_minimum_viable_context -->
<g id="node88" class="node">
<title>cool_ideas_WARP_minimum_viable_context</title>
<path fill="#d4e8f7" stroke="black" d="M12208.43,-386.7C12208.43,-386.7 12085.57,-386.7 12085.57,-386.7 12081.38,-386.7 12077.17,-382.5 12077.17,-378.3 12077.17,-378.3 12077.17,-369.9 12077.17,-369.9 12077.17,-365.7 12081.38,-361.5 12085.57,-361.5 12085.57,-361.5 12208.43,-361.5 12208.43,-361.5 12212.62,-361.5 12216.83,-365.7 12216.83,-369.9 12216.83,-369.9 12216.83,-378.3 12216.83,-378.3 12216.83,-382.5 12212.62,-386.7 12208.43,-386.7"/>
<text xml:space="preserve" text-anchor="middle" x="12147" y="-371" font-family="Helvetica,sans-Serif" font-size="8.00">WARP&#45;minimum&#45;viable&#45;context &#45; M</text>
</g>
<!-- cool_ideas_WARP_outline_diff_commit_trailer -->
<g id="node89" class="node">
<title>cool_ideas_WARP_outline_diff_commit_trailer</title>
<path fill="#d4e8f7" stroke="black" d="M12364.93,-386.7C12364.93,-386.7 12239.07,-386.7 12239.07,-386.7 12234.88,-386.7 12230.67,-382.5 12230.67,-378.3 12230.67,-378.3 12230.67,-369.9 12230.67,-369.9 12230.67,-365.7 12234.88,-361.5 12239.07,-361.5 12239.07,-361.5 12364.93,-361.5 12364.93,-361.5 12369.12,-361.5 12373.33,-365.7 12373.33,-369.9 12373.33,-369.9 12373.33,-378.3 12373.33,-378.3 12373.33,-382.5 12369.12,-386.7 12364.93,-386.7"/>
<text xml:space="preserve" text-anchor="middle" x="12302" y="-371" font-family="Helvetica,sans-Serif" font-size="8.00">WARP&#45;outline&#45;diff&#45;commit&#45;trailer &#45; S</text>
</g>
<!-- cool_ideas_WARP_projection_safety_classes -->
<g id="node90" class="node">
<title>cool_ideas_WARP_projection_safety_classes</title>
<path fill="#d4e8f7" stroke="black" d="M12521.93,-386.7C12521.93,-386.7 12396.07,-386.7 12396.07,-386.7 12391.88,-386.7 12387.67,-382.5 12387.67,-378.3 12387.67,-378.3 12387.67,-369.9 12387.67,-369.9 12387.67,-365.7 12391.88,-361.5 12396.07,-361.5 12396.07,-361.5 12521.93,-361.5 12521.93,-361.5 12526.12,-361.5 12530.33,-365.7 12530.33,-369.9 12530.33,-369.9 12530.33,-378.3 12530.33,-378.3 12530.33,-382.5 12526.12,-386.7 12521.93,-386.7"/>
<text xml:space="preserve" text-anchor="middle" x="12459" y="-371" font-family="Helvetica,sans-Serif" font-size="8.00">WARP&#45;projection&#45;safety&#45;classes &#45; M</text>
</g>
<!-- cool_ideas_WARP_provenance_dag&#45;&gt;cool_ideas_WARP_causal_blame_for_staged_artifacts -->
<g id="edge9" class="edge">
<title>cool_ideas_WARP_provenance_dag&#45;&gt;cool_ideas_WARP_causal_blame_for_staged_artifacts</title>
<path fill="none" stroke="#666666" d="M10961,-287.85C10961,-276.65 10961,-259.63 10961,-246.63"/>
<polygon fill="#666666" stroke="#666666" points="10962.75,-246.77 10961,-241.77 10959.25,-246.77 10962.75,-246.77"/>
<text xml:space="preserve" text-anchor="middle" x="10992.5" y="-261.4" font-family="Helvetica,sans-Serif" font-size="7.00">blocked_by/blocking</text>
</g>
<!-- cool_ideas_WARP_reasoning_trace_replay -->
<g id="node92" class="node">
<title>cool_ideas_WARP_reasoning_trace_replay</title>
<path fill="#d4e8f7" stroke="black" d="M10852.93,-239.8C10852.93,-239.8 10733.07,-239.8 10733.07,-239.8 10728.88,-239.8 10724.67,-235.6 10724.67,-231.4 10724.67,-231.4 10724.67,-223 10724.67,-223 10724.67,-218.8 10728.88,-214.6 10733.07,-214.6 10733.07,-214.6 10852.93,-214.6 10852.93,-214.6 10857.12,-214.6 10861.33,-218.8 10861.33,-223 10861.33,-223 10861.33,-231.4 10861.33,-231.4 10861.33,-235.6 10857.12,-239.8 10852.93,-239.8"/>
<text xml:space="preserve" text-anchor="middle" x="10793" y="-224.1" font-family="Helvetica,sans-Serif" font-size="8.00">WARP&#45;reasoning&#45;trace&#45;replay &#45; M</text>
</g>
<!-- cool_ideas_WARP_provenance_dag&#45;&gt;cool_ideas_WARP_reasoning_trace_replay -->
<g id="edge10" class="edge">
<title>cool_ideas_WARP_provenance_dag&#45;&gt;cool_ideas_WARP_reasoning_trace_replay</title>
<path fill="none" stroke="#666666" d="M10932.88,-287.69C10903.69,-275.27 10858.01,-255.85 10826.85,-242.6"/>
<polygon fill="#666666" stroke="#666666" points="10827.89,-241.14 10822.6,-240.79 10826.52,-244.36 10827.89,-241.14"/>
<text xml:space="preserve" text-anchor="middle" x="10913.54" y="-261.4" font-family="Helvetica,sans-Serif" font-size="7.00">blocked_by/blocking</text>
</g>
<!-- cool_ideas_WARP_rulial_heat_map -->
<g id="node93" class="node">
<title>cool_ideas_WARP_rulial_heat_map</title>
<path fill="#d4e8f7" stroke="black" d="M12643.3,-386.7C12643.3,-386.7 12552.7,-386.7 12552.7,-386.7 12548.5,-386.7 12544.3,-382.5 12544.3,-378.3 12544.3,-378.3 12544.3,-369.9 12544.3,-369.9 12544.3,-365.7 12548.5,-361.5 12552.7,-361.5 12552.7,-361.5 12643.3,-361.5 12643.3,-361.5 12647.5,-361.5 12651.7,-365.7 12651.7,-369.9 12651.7,-369.9 12651.7,-378.3 12651.7,-378.3 12651.7,-382.5 12647.5,-386.7 12643.3,-386.7"/>
<text xml:space="preserve" text-anchor="middle" x="12598" y="-371" font-family="Helvetica,sans-Serif" font-size="8.00">WARP&#45;rulial&#45;heat&#45;map &#45; L</text>
</g>
<!-- cool_ideas_WARP_semantic_drift_in_sessions -->
<g id="node94" class="node">
<title>cool_ideas_WARP_semantic_drift_in_sessions</title>
<path fill="#d4e8f7" stroke="black" d="M12803.43,-386.7C12803.43,-386.7 12674.57,-386.7 12674.57,-386.7 12670.38,-386.7 12666.17,-382.5 12666.17,-378.3 12666.17,-378.3 12666.17,-369.9 12666.17,-369.9 12666.17,-365.7 12670.38,-361.5 12674.57,-361.5 12674.57,-361.5 12803.43,-361.5 12803.43,-361.5 12807.62,-361.5 12811.83,-365.7 12811.83,-369.9 12811.83,-369.9 12811.83,-378.3 12811.83,-378.3 12811.83,-382.5 12807.62,-386.7 12803.43,-386.7"/>
<text xml:space="preserve" text-anchor="middle" x="12739" y="-371" font-family="Helvetica,sans-Serif" font-size="8.00">WARP&#45;semantic&#45;drift&#45;in&#45;sessions &#45; M</text>
</g>
<!-- cool_ideas_WARP_semantic_merge_conflict_prediction -->
<g id="node95" class="node">
<title>cool_ideas_WARP_semantic_merge_conflict_prediction</title>
<path fill="#d4e8f7" stroke="black" d="M13820.43,-313.25C13820.43,-313.25 13661.57,-313.25 13661.57,-313.25 13657.38,-313.25 13653.17,-309.05 13653.17,-304.85 13653.17,-304.85 13653.17,-296.45 13653.17,-296.45 13653.17,-292.25 13657.38,-288.05 13661.57,-288.05 13661.57,-288.05 13820.43,-288.05 13820.43,-288.05 13824.62,-288.05 13828.83,-292.25 13828.83,-296.45 13828.83,-296.45 13828.83,-304.85 13828.83,-304.85 13828.83,-309.05 13824.62,-313.25 13820.43,-313.25"/>
<text xml:space="preserve" text-anchor="middle" x="13741" y="-297.55" font-family="Helvetica,sans-Serif" font-size="8.00">WARP&#45;semantic&#45;merge&#45;conflict&#45;prediction &#45; L</text>
</g>
<!-- cool_ideas_WARP_session_filtration -->
<g id="node96" class="node">
<title>cool_ideas_WARP_session_filtration</title>
<path fill="#d4e8f7" stroke="black" d="M12927.8,-386.7C12927.8,-386.7 12834.2,-386.7 12834.2,-386.7 12830,-386.7 12825.8,-382.5 12825.8,-378.3 12825.8,-378.3 12825.8,-369.9 12825.8,-369.9 12825.8,-365.7 12830,-361.5 12834.2,-361.5 12834.2,-361.5 12927.8,-361.5 12927.8,-361.5 12932,-361.5 12936.2,-365.7 12936.2,-369.9 12936.2,-369.9 12936.2,-378.3 12936.2,-378.3 12936.2,-382.5 12932,-386.7 12927.8,-386.7"/>
<text xml:space="preserve" text-anchor="middle" x="12881" y="-371" font-family="Helvetica,sans-Serif" font-size="8.00">WARP&#45;session&#45;filtration &#45; L</text>
</g>
<!-- cool_ideas_WARP_shadow_structural_workspaces -->
<g id="node97" class="node">
<title>cool_ideas_WARP_shadow_structural_workspaces</title>
<path fill="#d4e8f7" stroke="black" d="M13109.3,-386.7C13109.3,-386.7 12958.7,-386.7 12958.7,-386.7 12954.5,-386.7 12950.3,-382.5 12950.3,-378.3 12950.3,-378.3 12950.3,-369.9 12950.3,-369.9 12950.3,-365.7 12954.5,-361.5 12958.7,-361.5 12958.7,-361.5 13109.3,-361.5 13109.3,-361.5 13113.5,-361.5 13117.7,-365.7 13117.7,-369.9 13117.7,-369.9 13117.7,-378.3 13117.7,-378.3 13117.7,-382.5 13113.5,-386.7 13109.3,-386.7"/>
<text xml:space="preserve" text-anchor="middle" x="13034" y="-371" font-family="Helvetica,sans-Serif" font-size="8.00">WARP&#45;shadow&#45;structural&#45;workspaces &#45; XL</text>
</g>
<!-- cool_ideas_WARP_speculative_merge -->
<g id="node98" class="node">
<title>cool_ideas_WARP_speculative_merge</title>
<path fill="#d4e8f7" stroke="black" d="M13247.55,-386.7C13247.55,-386.7 13140.45,-386.7 13140.45,-386.7 13136.25,-386.7 13132.05,-382.5 13132.05,-378.3 13132.05,-378.3 13132.05,-369.9 13132.05,-369.9 13132.05,-365.7 13136.25,-361.5 13140.45,-361.5 13140.45,-361.5 13247.55,-361.5 13247.55,-361.5 13251.75,-361.5 13255.95,-365.7 13255.95,-369.9 13255.95,-369.9 13255.95,-378.3 13255.95,-378.3 13255.95,-382.5 13251.75,-386.7 13247.55,-386.7"/>
<text xml:space="preserve" text-anchor="middle" x="13194" y="-371" font-family="Helvetica,sans-Serif" font-size="8.00">WARP&#45;speculative&#45;merge &#45; XL</text>
</g>
<!-- cool_ideas_WARP_stale_docs_checker -->
<g id="node99" class="node">
<title>cool_ideas_WARP_stale_docs_checker</title>
<path fill="#d4e8f7" stroke="black" d="M13383.8,-386.7C13383.8,-386.7 13278.2,-386.7 13278.2,-386.7 13274,-386.7 13269.8,-382.5 13269.8,-378.3 13269.8,-378.3 13269.8,-369.9 13269.8,-369.9 13269.8,-365.7 13274,-361.5 13278.2,-361.5 13278.2,-361.5 13383.8,-361.5 13383.8,-361.5 13388,-361.5 13392.2,-365.7 13392.2,-369.9 13392.2,-369.9 13392.2,-378.3 13392.2,-378.3 13392.2,-382.5 13388,-386.7 13383.8,-386.7"/>
<text xml:space="preserve" text-anchor="middle" x="13331" y="-371" font-family="Helvetica,sans-Serif" font-size="8.00">WARP&#45;stale&#45;docs&#45;checker &#45; M</text>
</g>
<!-- cool_ideas_WARP_stale_docs_checker&#45;&gt;cool_ideas_WARP_drift_sentinel -->
<g id="edge11" class="edge">
<title>cool_ideas_WARP_stale_docs_checker&#45;&gt;cool_ideas_WARP_drift_sentinel</title>
<path fill="none" stroke="#666666" d="M13319.11,-361.3C13307.2,-349.48 13288.76,-331.19 13275.45,-317.97"/>
<polygon fill="#666666" stroke="#666666" points="13277,-317.05 13272.22,-314.77 13274.54,-319.54 13277,-317.05"/>
<text xml:space="preserve" text-anchor="middle" x="13328.66" y="-334.85" font-family="Helvetica,sans-Serif" font-size="7.00">blocked_by/blocking</text>
</g>
<!-- cool_ideas_WARP_structural_drift_detection -->
<g id="node100" class="node">
<title>cool_ideas_WARP_structural_drift_detection</title>
<path fill="#d4e8f7" stroke="black" d="M13537.8,-386.7C13537.8,-386.7 13414.2,-386.7 13414.2,-386.7 13410,-386.7 13405.8,-382.5 13405.8,-378.3 13405.8,-378.3 13405.8,-369.9 13405.8,-369.9 13405.8,-365.7 13410,-361.5 13414.2,-361.5 13414.2,-361.5 13537.8,-361.5 13537.8,-361.5 13542,-361.5 13546.2,-365.7 13546.2,-369.9 13546.2,-369.9 13546.2,-378.3 13546.2,-378.3 13546.2,-382.5 13542,-386.7 13537.8,-386.7"/>
<text xml:space="preserve" text-anchor="middle" x="13476" y="-371" font-family="Helvetica,sans-Serif" font-size="8.00">WARP&#45;structural&#45;drift&#45;detection &#45; M</text>
</g>
<!-- cool_ideas_WARP_symbol_heatmap -->
<g id="node102" class="node">
<title>cool_ideas_WARP_symbol_heatmap</title>
<path fill="#d4e8f7" stroke="black" d="M13667.05,-386.7C13667.05,-386.7 13568.95,-386.7 13568.95,-386.7 13564.75,-386.7 13560.55,-382.5 13560.55,-378.3 13560.55,-378.3 13560.55,-369.9 13560.55,-369.9 13560.55,-365.7 13564.75,-361.5 13568.95,-361.5 13568.95,-361.5 13667.05,-361.5 13667.05,-361.5 13671.25,-361.5 13675.45,-365.7 13675.45,-369.9 13675.45,-369.9 13675.45,-378.3 13675.45,-378.3 13675.45,-382.5 13671.25,-386.7 13667.05,-386.7"/>
<text xml:space="preserve" text-anchor="middle" x="13618" y="-371" font-family="Helvetica,sans-Serif" font-size="8.00">WARP&#45;symbol&#45;heatmap &#45; M</text>
</g>
<!-- cool_ideas_WARP_technical_debt_curvature -->
<g id="node103" class="node">
<title>cool_ideas_WARP_technical_debt_curvature</title>
<path fill="#d4e8f7" stroke="black" d="M13820.43,-386.7C13820.43,-386.7 13697.57,-386.7 13697.57,-386.7 13693.38,-386.7 13689.17,-382.5 13689.17,-378.3 13689.17,-378.3 13689.17,-369.9 13689.17,-369.9 13689.17,-365.7 13693.38,-361.5 13697.57,-361.5 13697.57,-361.5 13820.43,-361.5 13820.43,-361.5 13824.62,-361.5 13828.83,-365.7 13828.83,-369.9 13828.83,-369.9 13828.83,-378.3 13828.83,-378.3 13828.83,-382.5 13824.62,-386.7 13820.43,-386.7"/>
<text xml:space="preserve" text-anchor="middle" x="13759" y="-371" font-family="Helvetica,sans-Serif" font-size="8.00">WARP&#45;technical&#45;debt&#45;curvature &#45; L</text>
</g>
<!-- external_git_warp_observer_geometry_ladder__Rung_2_4_ -->
<g id="node105" class="node">
<title>external_git_warp_observer_geometry_ladder__Rung_2_4_</title>
<path fill="#e8f2ff" stroke="black" d="M14024.68,-386.7C14024.68,-386.7 13861.32,-386.7 13861.32,-386.7 13857.12,-386.7 13852.92,-382.5 13852.92,-378.3 13852.92,-378.3 13852.92,-369.9 13852.92,-369.9 13852.92,-365.7 13857.12,-361.5 13861.32,-361.5 13861.32,-361.5 14024.68,-361.5 14024.68,-361.5 14028.88,-361.5 14033.08,-365.7 14033.08,-369.9 14033.08,-369.9 14033.08,-378.3 14033.08,-378.3 14033.08,-382.5 14028.88,-386.7 14024.68,-386.7"/>
<text xml:space="preserve" text-anchor="middle" x="13943" y="-371" font-family="Helvetica,sans-Serif" font-size="8.00">git&#45;warp observer geometry ladder (Rung 2&#45;4)</text>
</g>
<!-- external_git_warp_observer_geometry_ladder__Rung_2_4_&#45;&gt;cool_ideas_CORE_migrate_to_slice_first_reads -->
<g id="edge12" class="edge">
<title>external_git_warp_observer_geometry_ladder__Rung_2_4_&#45;&gt;cool_ideas_CORE_migrate_to_slice_first_reads</title>
<path fill="none" stroke="#4477aa" stroke-dasharray="5,2" d="M13886.54,-361.04C13871.47,-358.18 13855.17,-355.41 13840,-353.5 13755.72,-342.87 13733.71,-350.58 13649.25,-341.5 13566.44,-332.6 13546.31,-325.98 13464,-313.25 13463.86,-313.23 13463.73,-313.21 13463.59,-313.19"/>
<polygon fill="#4477aa" stroke="#4477aa" points="13464.06,-311.49 13458.85,-312.45 13463.52,-314.95 13464.06,-311.49"/>
<text xml:space="preserve" text-anchor="middle" x="13681.12" y="-334.85" font-family="Helvetica,sans-Serif" font-size="7.00">blocked_by_external</text>
</g>
<!-- unresolved_CLEAN_CODE_export_diff_semver_signature_as_patch -->
<g id="node106" class="node">
<title>unresolved_CLEAN_CODE_export_diff_semver_signature_as_patch</title>
<path fill="#f2f2f2" stroke="black" stroke-dasharray="5,2" d="M14288.3,-386.7C14288.3,-386.7 14065.7,-386.7 14065.7,-386.7 14061.5,-386.7 14057.3,-382.5 14057.3,-378.3 14057.3,-378.3 14057.3,-369.9 14057.3,-369.9 14057.3,-365.7 14061.5,-361.5 14065.7,-361.5 14065.7,-361.5 14288.3,-361.5 14288.3,-361.5 14292.5,-361.5 14296.7,-365.7 14296.7,-369.9 14296.7,-369.9 14296.7,-378.3 14296.7,-378.3 14296.7,-382.5 14292.5,-386.7 14288.3,-386.7"/>
<text xml:space="preserve" text-anchor="middle" x="14177" y="-371" font-family="Helvetica,sans-Serif" font-size="8.00">missing: CLEAN_CODE_export&#45;diff&#45;semver&#45;signature&#45;as&#45;patch</text>
</g>
<!-- unresolved_CLEAN_CODE_export_diff_semver_signature_as_patch&#45;&gt;cool_ideas_WARP_auto_breaking_change_detection -->
<g id="edge13" class="edge">
<title>unresolved_CLEAN_CODE_export_diff_semver_signature_as_patch&#45;&gt;cool_ideas_WARP_auto_breaking_change_detection</title>
<path fill="none" stroke="#cc3333" stroke-dasharray="5,2" d="M14100.44,-361.04C14081.99,-358.34 14062.31,-355.65 14044,-353.5 13983.63,-346.4 13968.25,-347.43 13907.75,-341.5 13791.3,-330.09 13762.21,-326.93 13646,-313.25 13645.7,-313.22 13645.41,-313.18 13645.11,-313.14"/>
<polygon fill="#cc3333" stroke="#cc3333" points="13645.47,-311.43 13640.29,-312.57 13645.05,-314.9 13645.47,-311.43"/>
<text xml:space="preserve" text-anchor="middle" x="13925.38" y="-334.85" font-family="Helvetica,sans-Serif" font-size="7.00">blocked_by</text>
</g>
<!-- unresolved_CLEAN_CODE_export_diff_semver_signature_as_patch&#45;&gt;cool_ideas_WARP_semantic_merge_conflict_prediction -->
<g id="edge14" class="edge">
<title>unresolved_CLEAN_CODE_export_diff_semver_signature_as_patch&#45;&gt;cool_ideas_WARP_semantic_merge_conflict_prediction</title>
<path fill="none" stroke="#cc3333" stroke-dasharray="5,2" d="M14103.53,-361.06C14025.24,-348.23 13901.69,-327.98 13820.99,-314.76"/>
<polygon fill="#cc3333" stroke="#cc3333" points="13821.48,-313.07 13816.26,-313.98 13820.91,-316.52 13821.48,-313.07"/>
<text xml:space="preserve" text-anchor="middle" x="13989.7" y="-334.85" font-family="Helvetica,sans-Serif" font-size="7.00">blocked_by</text>
</g>
<!-- leg_v08 -->
<g id="node107" class="node">
<title>leg_v08</title>
<path fill="#c8e6c9" stroke="black" stroke-width="2" d="M14914,-386.7C14914,-386.7 14830,-386.7 14830,-386.7 14825.8,-386.7 14821.6,-382.5 14821.6,-378.3 14821.6,-378.3 14821.6,-369.9 14821.6,-369.9 14821.6,-365.7 14825.8,-361.5 14830,-361.5 14830,-361.5 14914,-361.5 14914,-361.5 14918.2,-361.5 14922.4,-365.7 14922.4,-369.9 14922.4,-369.9 14922.4,-378.3 14922.4,-378.3 14922.4,-382.5 14918.2,-386.7 14914,-386.7"/>
<text xml:space="preserve" text-anchor="middle" x="14872" y="-371.58" font-family="Helvetica,sans-Serif" font-size="7.00">v0.8.0</text>
</g>
<!-- leg_v07 -->
<g id="node108" class="node">
<title>leg_v07</title>
<path fill="#ffa07a" stroke="black" stroke-width="2" d="M14914,-313.25C14914,-313.25 14830,-313.25 14830,-313.25 14825.8,-313.25 14821.6,-309.05 14821.6,-304.85 14821.6,-304.85 14821.6,-296.45 14821.6,-296.45 14821.6,-292.25 14825.8,-288.05 14830,-288.05 14830,-288.05 14914,-288.05 14914,-288.05 14918.2,-288.05 14922.4,-292.25 14922.4,-296.45 14922.4,-296.45 14922.4,-304.85 14922.4,-304.85 14922.4,-309.05 14918.2,-313.25 14914,-313.25"/>
<text xml:space="preserve" text-anchor="middle" x="14872" y="-298.12" font-family="Helvetica,sans-Serif" font-size="7.00">v0.7.0</text>
</g>
<!-- leg_v08&#45;&gt;leg_v07 -->
<!-- leg_bad -->
<g id="node109" class="node">
<title>leg_bad</title>
<path fill="#f6b3b3" stroke="black" stroke-width="2" d="M14914,-239.8C14914,-239.8 14830,-239.8 14830,-239.8 14825.8,-239.8 14821.6,-235.6 14821.6,-231.4 14821.6,-231.4 14821.6,-223 14821.6,-223 14821.6,-218.8 14825.8,-214.6 14830,-214.6 14830,-214.6 14914,-214.6 14914,-214.6 14918.2,-214.6 14922.4,-218.8 14922.4,-223 14922.4,-223 14922.4,-231.4 14922.4,-231.4 14922.4,-235.6 14918.2,-239.8 14914,-239.8"/>
<text xml:space="preserve" text-anchor="middle" x="14872" y="-224.67" font-family="Helvetica,sans-Serif" font-size="7.00">bad&#45;code</text>
</g>
<!-- leg_v07&#45;&gt;leg_bad -->
<!-- leg_idea -->
<g id="node110" class="node">
<title>leg_idea</title>
<path fill="#d4e8f7" stroke="black" d="M14914,-173.6C14914,-173.6 14830,-173.6 14830,-173.6 14825.8,-173.6 14821.6,-169.4 14821.6,-165.2 14821.6,-165.2 14821.6,-156.8 14821.6,-156.8 14821.6,-152.6 14825.8,-148.4 14830,-148.4 14830,-148.4 14914,-148.4 14914,-148.4 14918.2,-148.4 14922.4,-152.6 14922.4,-156.8 14922.4,-156.8 14922.4,-165.2 14922.4,-165.2 14922.4,-169.4 14918.2,-173.6 14914,-173.6"/>
<text xml:space="preserve" text-anchor="middle" x="14872" y="-158.47" font-family="Helvetica,sans-Serif" font-size="7.00">cool&#45;ideas</text>
</g>
<!-- leg_bad&#45;&gt;leg_idea -->
<!-- leg_external -->
<g id="node111" class="node">
<title>leg_external</title>
<path fill="#e8f2ff" stroke="black" d="M14914,-107.4C14914,-107.4 14830,-107.4 14830,-107.4 14825.8,-107.4 14821.6,-103.2 14821.6,-99 14821.6,-99 14821.6,-90.6 14821.6,-90.6 14821.6,-86.4 14825.8,-82.2 14830,-82.2 14830,-82.2 14914,-82.2 14914,-82.2 14918.2,-82.2 14922.4,-86.4 14922.4,-90.6 14922.4,-90.6 14922.4,-99 14922.4,-99 14922.4,-103.2 14918.2,-107.4 14914,-107.4"/>
<text xml:space="preserve" text-anchor="middle" x="14872" y="-92.28" font-family="Helvetica,sans-Serif" font-size="7.00">external blocker</text>
</g>
<!-- leg_idea&#45;&gt;leg_external -->
<!-- leg_unresolved -->
<g id="node112" class="node">
<title>leg_unresolved</title>
<path fill="#f2f2f2" stroke="black" stroke-dasharray="5,2" d="M14914,-41.2C14914,-41.2 14830,-41.2 14830,-41.2 14825.8,-41.2 14821.6,-37 14821.6,-32.8 14821.6,-32.8 14821.6,-24.4 14821.6,-24.4 14821.6,-20.2 14825.8,-16 14830,-16 14830,-16 14914,-16 14914,-16 14918.2,-16 14922.4,-20.2 14922.4,-24.4 14922.4,-24.4 14922.4,-32.8 14922.4,-32.8 14922.4,-37 14918.2,-41.2 14914,-41.2"/>
<text xml:space="preserve" text-anchor="middle" x="14872" y="-26.08" font-family="Helvetica,sans-Serif" font-size="7.00">unresolved ref</text>
</g>
<!-- leg_external&#45;&gt;leg_unresolved -->
</g>
</svg>
