<?xml version="1.0" encoding="UTF-8" standalone="no"?>
<!DOCTYPE svg PUBLIC "-//W3C//DTD SVG 1.1//EN"
 "http://www.w3.org/Graphics/SVG/1.1/DTD/svg11.dtd">
<!-- Generated by graphviz version 14.1.2 (20260124.0452)
 -->
<!-- Title: backlog Pages: 1 -->
<svg width="10711pt" height="383pt"
 viewBox="0.00 0.00 10711.00 383.00" xmlns="http://www.w3.org/2000/svg" xmlns:xlink="http://www.w3.org/1999/xlink">
<g id="graph0" class="graph" transform="scale(1 1) rotate(0) translate(4 379)">
<title>backlog</title>
<polygon fill="white" stroke="none" points="-4,4 -4,-379 10707,-379 10707,4 -4,4"/>
<text xml:space="preserve" text-anchor="middle" x="5351.5" y="-359.6" font-family="Helvetica,sans-Serif" font-size="12.00">Active backlog graph generated from docs/method/backlog/*/*.md</text>
<g id="clust1" class="cluster">
<title>cluster_cool_ideas</title>
<path fill="#fafafa" stroke="#cccccc" d="M20,-140.4C20,-140.4 10091,-140.4 10091,-140.4 10097,-140.4 10103,-146.4 10103,-152.4 10103,-152.4 10103,-334.25 10103,-334.25 10103,-340.25 10097,-346.25 10091,-346.25 10091,-346.25 20,-346.25 20,-346.25 14,-346.25 8,-340.25 8,-334.25 8,-334.25 8,-152.4 8,-152.4 8,-146.4 14,-140.4 20,-140.4"/>
<text xml:space="preserve" text-anchor="middle" x="47.5" y="-333.7" font-family="Helvetica,sans-Serif" font-size="9.00" fill="#555555">Cool Ideas (78)</text>
</g>
<g id="clust2" class="cluster">
<title>cluster_external</title>
<path fill="#f8fbff" stroke="#cccccc" d="M10123,-287.3C10123,-287.3 10295,-287.3 10295,-287.3 10301,-287.3 10307,-293.3 10307,-299.3 10307,-299.3 10307,-334.25 10307,-334.25 10307,-340.25 10301,-346.25 10295,-346.25 10295,-346.25 10123,-346.25 10123,-346.25 10117,-346.25 10111,-340.25 10111,-334.25 10111,-334.25 10111,-299.3 10111,-299.3 10111,-293.3 10117,-287.3 10123,-287.3"/>
<text xml:space="preserve" text-anchor="middle" x="10154.25" y="-333.7" font-family="Helvetica,sans-Serif" font-size="9.00" fill="#555555">External blockers</text>
</g>
<g id="clust3" class="cluster">
<title>cluster_unresolved</title>
<path fill="#fff7f7" stroke="#cc3333" stroke-dasharray="5,2" d="M10327,-287.3C10327,-287.3 10559,-287.3 10559,-287.3 10565,-287.3 10571,-293.3 10571,-299.3 10571,-299.3 10571,-334.25 10571,-334.25 10571,-340.25 10565,-346.25 10559,-346.25 10559,-346.25 10327,-346.25 10327,-346.25 10321,-346.25 10315,-340.25 10315,-334.25 10315,-334.25 10315,-299.3 10315,-299.3 10315,-293.3 10321,-287.3 10327,-287.3"/>
<text xml:space="preserve" text-anchor="middle" x="10371.75" y="-333.7" font-family="Helvetica,sans-Serif" font-size="9.00" fill="#555555">Unresolved internal refs</text>
</g>
<g id="clust4" class="cluster">
<title>cluster_legend</title>
<path fill="none" stroke="#dddddd" d="M10591,-8C10591,-8 10683,-8 10683,-8 10689,-8 10695,-14 10695,-20 10695,-20 10695,-333.5 10695,-333.5 10695,-339.5 10689,-345.5 10683,-345.5 10683,-345.5 10591,-345.5 10591,-345.5 10585,-345.5 10579,-339.5 10579,-333.5 10579,-333.5 10579,-20 10579,-20 10579,-14 10585,-8 10591,-8"/>
<text xml:space="preserve" text-anchor="middle" x="10600.5" y="-333.9" font-family="Helvetica,sans-Serif" font-size="8.00" fill="#aaaaaa">Legend</text>
</g>
<!-- cool_ideas_bounded_neighborhood_for_references -->
<g id="node1" class="node">
<title>cool_ideas_bounded_neighborhood_for_references</title>
<path fill="#d4e8f7" stroke="black" d="M173.17,-320.5C173.17,-320.5 24.83,-320.5 24.83,-320.5 20.63,-320.5 16.42,-316.3 16.42,-312.1 16.42,-312.1 16.42,-303.7 16.42,-303.7 16.42,-299.5 20.63,-295.3 24.83,-295.3 24.83,-295.3 173.17,-295.3 173.17,-295.3 177.37,-295.3 181.57,-299.5 181.57,-303.7 181.57,-303.7 181.57,-312.1 181.57,-312.1 181.57,-316.3 177.37,-320.5 173.17,-320.5"/>
<text xml:space="preserve" text-anchor="middle" x="99" y="-304.8" font-family="Helvetica,sans-Serif" font-size="8.00">bounded&#45;neighborhood&#45;for&#45;references &#45; S</text>
</g>
<!-- cool_ideas_CI_001_causal_collapse_visualizer -->
<g id="node2" class="node">
<title>cool_ideas_CI_001_causal_collapse_visualizer</title>
<path fill="#d4e8f7" stroke="black" d="M6989.3,-247.05C6989.3,-247.05 6862.7,-247.05 6862.7,-247.05 6858.5,-247.05 6854.3,-242.85 6854.3,-238.65 6854.3,-238.65 6854.3,-230.25 6854.3,-230.25 6854.3,-226.05 6858.5,-221.85 6862.7,-221.85 6862.7,-221.85 6989.3,-221.85 6989.3,-221.85 6993.5,-221.85 6997.7,-226.05 6997.7,-230.25 6997.7,-230.25 6997.7,-238.65 6997.7,-238.65 6997.7,-242.85 6993.5,-247.05 6989.3,-247.05"/>
<text xml:space="preserve" text-anchor="middle" x="6926" y="-231.35" font-family="Helvetica,sans-Serif" font-size="8.00">CI&#45;001&#45;causal&#45;collapse&#45;visualizer &#45; L</text>
</g>
<!-- cool_ideas_CI_002_deterministic_scenario_replay -->
<g id="node3" class="node">
<title>cool_ideas_CI_002_deterministic_scenario_replay</title>
<path fill="#d4e8f7" stroke="black" d="M343.67,-320.5C343.67,-320.5 204.33,-320.5 204.33,-320.5 200.13,-320.5 195.93,-316.3 195.93,-312.1 195.93,-312.1 195.93,-303.7 195.93,-303.7 195.93,-299.5 200.13,-295.3 204.33,-295.3 204.33,-295.3 343.67,-295.3 343.67,-295.3 347.88,-295.3 352.07,-299.5 352.07,-303.7 352.07,-303.7 352.07,-312.1 352.07,-312.1 352.07,-316.3 347.88,-320.5 343.67,-320.5"/>
<text xml:space="preserve" text-anchor="middle" x="274" y="-304.8" font-family="Helvetica,sans-Serif" font-size="8.00">CI&#45;002&#45;deterministic&#45;scenario&#45;replay &#45; L</text>
</g>
<!-- cool_ideas_CI_003_mcp_native_diff_protocol -->
<g id="node4" class="node">
<title>cool_ideas_CI_003_mcp_native_diff_protocol</title>
<path fill="#d4e8f7" stroke="black" d="M497.8,-320.5C497.8,-320.5 374.2,-320.5 374.2,-320.5 370,-320.5 365.8,-316.3 365.8,-312.1 365.8,-312.1 365.8,-303.7 365.8,-303.7 365.8,-299.5 370,-295.3 374.2,-295.3 374.2,-295.3 497.8,-295.3 497.8,-295.3 502,-295.3 506.2,-299.5 506.2,-303.7 506.2,-303.7 506.2,-312.1 506.2,-312.1 506.2,-316.3 502,-320.5 497.8,-320.5"/>
<text xml:space="preserve" text-anchor="middle" x="436" y="-304.8" font-family="Helvetica,sans-Serif" font-size="8.00">CI&#45;003&#45;mcp&#45;native&#45;diff&#45;protocol &#45; M</text>
</g>
<!-- cool_ideas_CLEAN_CODE_parallel_agent_merge_shared_file_loss -->
<g id="node5" class="node">
<title>cool_ideas_CLEAN_CODE_parallel_agent_merge_shared_file_loss</title>
<path fill="#d4e8f7" stroke="black" d="M729.05,-320.5C729.05,-320.5 528.95,-320.5 528.95,-320.5 524.75,-320.5 520.55,-316.3 520.55,-312.1 520.55,-312.1 520.55,-303.7 520.55,-303.7 520.55,-299.5 524.75,-295.3 528.95,-295.3 528.95,-295.3 729.05,-295.3 729.05,-295.3 733.25,-295.3 737.45,-299.5 737.45,-303.7 737.45,-303.7 737.45,-312.1 737.45,-312.1 737.45,-316.3 733.25,-320.5 729.05,-320.5"/>
<text xml:space="preserve" text-anchor="middle" x="629" y="-304.8" font-family="Helvetica,sans-Serif" font-size="8.00">CLEAN&#45;CODE&#45;parallel&#45;agent&#45;merge&#45;shared&#45;file&#45;loss &#45; M</text>
</g>
<!-- cool_ideas_CORE_agent_handoff_protocol -->
<g id="node6" class="node">
<title>cool_ideas_CORE_agent_handoff_protocol</title>
<path fill="#d4e8f7" stroke="black" d="M879.93,-320.5C879.93,-320.5 760.07,-320.5 760.07,-320.5 755.88,-320.5 751.67,-316.3 751.67,-312.1 751.67,-312.1 751.67,-303.7 751.67,-303.7 751.67,-299.5 755.88,-295.3 760.07,-295.3 760.07,-295.3 879.93,-295.3 879.93,-295.3 884.12,-295.3 888.33,-299.5 888.33,-303.7 888.33,-303.7 888.33,-312.1 888.33,-312.1 888.33,-316.3 884.12,-320.5 879.93,-320.5"/>
<text xml:space="preserve" text-anchor="middle" x="820" y="-304.8" font-family="Helvetica,sans-Serif" font-size="8.00">CORE&#45;agent&#45;handoff&#45;protocol &#45; M</text>
</g>
<!-- cool_ideas_CORE_auto_focus -->
<g id="node7" class="node">
<title>cool_ideas_CORE_auto_focus</title>
<path fill="#d4e8f7" stroke="black" d="M983.68,-320.5C983.68,-320.5 910.32,-320.5 910.32,-320.5 906.12,-320.5 901.92,-316.3 901.92,-312.1 901.92,-312.1 901.92,-303.7 901.92,-303.7 901.92,-299.5 906.12,-295.3 910.32,-295.3 910.32,-295.3 983.68,-295.3 983.68,-295.3 987.88,-295.3 992.08,-299.5 992.08,-303.7 992.08,-303.7 992.08,-312.1 992.08,-312.1 992.08,-316.3 987.88,-320.5 983.68,-320.5"/>
<text xml:space="preserve" text-anchor="middle" x="947" y="-304.8" font-family="Helvetica,sans-Serif" font-size="8.00">CORE&#45;auto&#45;focus &#45; L</text>
</g>
<!-- cool_ideas_CORE_capture_range -->
<g id="node8" class="node">
<title>cool_ideas_CORE_capture_range</title>
<path fill="#d4e8f7" stroke="black" d="M1101.8,-320.5C1101.8,-320.5 1014.2,-320.5 1014.2,-320.5 1010,-320.5 1005.8,-316.3 1005.8,-312.1 1005.8,-312.1 1005.8,-303.7 1005.8,-303.7 1005.8,-299.5 1010,-295.3 1014.2,-295.3 1014.2,-295.3 1101.8,-295.3 1101.8,-295.3 1106,-295.3 1110.2,-299.5 1110.2,-303.7 1110.2,-303.7 1110.2,-312.1 1110.2,-312.1 1110.2,-316.3 1106,-320.5 1101.8,-320.5"/>
<text xml:space="preserve" text-anchor="middle" x="1058" y="-304.8" font-family="Helvetica,sans-Serif" font-size="8.00">CORE&#45;capture&#45;range &#45; S</text>
</g>
<!-- cool_ideas_CORE_constructor_in_disguise_lint -->
<g id="node9" class="node">
<title>cool_ideas_CORE_constructor_in_disguise_lint</title>
<path fill="#d4e8f7" stroke="black" d="M1263.55,-320.5C1263.55,-320.5 1132.45,-320.5 1132.45,-320.5 1128.25,-320.5 1124.05,-316.3 1124.05,-312.1 1124.05,-312.1 1124.05,-303.7 1124.05,-303.7 1124.05,-299.5 1128.25,-295.3 1132.45,-295.3 1132.45,-295.3 1263.55,-295.3 1263.55,-295.3 1267.75,-295.3 1271.95,-299.5 1271.95,-303.7 1271.95,-303.7 1271.95,-312.1 1271.95,-312.1 1271.95,-316.3 1267.75,-320.5 1263.55,-320.5"/>
<text xml:space="preserve" text-anchor="middle" x="1198" y="-304.8" font-family="Helvetica,sans-Serif" font-size="8.00">CORE&#45;constructor&#45;in&#45;disguise&#45;lint &#45; M</text>
</g>
<!-- cool_ideas_CORE_context_budget_forecasting -->
<g id="node10" class="node">
<title>cool_ideas_CORE_context_budget_forecasting</title>
<path fill="#d4e8f7" stroke="black" d="M1427.67,-320.5C1427.67,-320.5 1294.33,-320.5 1294.33,-320.5 1290.12,-320.5 1285.92,-316.3 1285.92,-312.1 1285.92,-312.1 1285.92,-303.7 1285.92,-303.7 1285.92,-299.5 1290.12,-295.3 1294.33,-295.3 1294.33,-295.3 1427.67,-295.3 1427.67,-295.3 1431.88,-295.3 1436.08,-299.5 1436.08,-303.7 1436.08,-303.7 1436.08,-312.1 1436.08,-312.1 1436.08,-316.3 1431.88,-320.5 1427.67,-320.5"/>
<text xml:space="preserve" text-anchor="middle" x="1361" y="-304.8" font-family="Helvetica,sans-Serif" font-size="8.00">CORE&#45;context&#45;budget&#45;forecasting &#45; M</text>
</g>
<!-- cool_ideas_CORE_conversation_primer -->
<g id="node11" class="node">
<title>cool_ideas_CORE_conversation_primer</title>
<path fill="#d4e8f7" stroke="black" d="M1567.67,-320.5C1567.67,-320.5 1458.33,-320.5 1458.33,-320.5 1454.12,-320.5 1449.92,-316.3 1449.92,-312.1 1449.92,-312.1 1449.92,-303.7 1449.92,-303.7 1449.92,-299.5 1454.12,-295.3 1458.33,-295.3 1458.33,-295.3 1567.67,-295.3 1567.67,-295.3 1571.88,-295.3 1576.08,-299.5 1576.08,-303.7 1576.08,-303.7 1576.08,-312.1 1576.08,-312.1 1576.08,-316.3 1571.88,-320.5 1567.67,-320.5"/>
<text xml:space="preserve" text-anchor="middle" x="1513" y="-304.8" font-family="Helvetica,sans-Serif" font-size="8.00">CORE&#45;conversation&#45;primer &#45; M</text>
</g>
<!-- cool_ideas_CORE_cross_session_resume -->
<g id="node12" class="node">
<title>cool_ideas_CORE_cross_session_resume</title>
<path fill="#d4e8f7" stroke="black" d="M1713.3,-320.5C1713.3,-320.5 1598.7,-320.5 1598.7,-320.5 1594.5,-320.5 1590.3,-316.3 1590.3,-312.1 1590.3,-312.1 1590.3,-303.7 1590.3,-303.7 1590.3,-299.5 1594.5,-295.3 1598.7,-295.3 1598.7,-295.3 1713.3,-295.3 1713.3,-295.3 1717.5,-295.3 1721.7,-299.5 1721.7,-303.7 1721.7,-303.7 1721.7,-312.1 1721.7,-312.1 1721.7,-316.3 1717.5,-320.5 1713.3,-320.5"/>
<text xml:space="preserve" text-anchor="middle" x="1656" y="-304.8" font-family="Helvetica,sans-Serif" font-size="8.00">CORE&#45;cross&#45;session&#45;resume &#45; S</text>
</g>
<!-- cool_ideas_CORE_graft_as_teacher -->
<g id="node13" class="node">
<title>cool_ideas_CORE_graft_as_teacher</title>
<path fill="#d4e8f7" stroke="black" d="M1838.17,-320.5C1838.17,-320.5 1743.83,-320.5 1743.83,-320.5 1739.62,-320.5 1735.42,-316.3 1735.42,-312.1 1735.42,-312.1 1735.42,-303.7 1735.42,-303.7 1735.42,-299.5 1739.62,-295.3 1743.83,-295.3 1743.83,-295.3 1838.17,-295.3 1838.17,-295.3 1842.38,-295.3 1846.58,-299.5 1846.58,-303.7 1846.58,-303.7 1846.58,-312.1 1846.58,-312.1 1846.58,-316.3 1842.38,-320.5 1838.17,-320.5"/>
<text xml:space="preserve" text-anchor="middle" x="1791" y="-304.8" font-family="Helvetica,sans-Serif" font-size="8.00">CORE&#45;graft&#45;as&#45;teacher &#45; S</text>
</g>
<!-- cool_ideas_CORE_graft_teach_learning_receipts -->
<g id="node14" class="node">
<title>cool_ideas_CORE_graft_teach_learning_receipts</title>
<path fill="#d4e8f7" stroke="black" d="M2006.92,-320.5C2006.92,-320.5 1869.08,-320.5 1869.08,-320.5 1864.88,-320.5 1860.67,-316.3 1860.67,-312.1 1860.67,-312.1 1860.67,-303.7 1860.67,-303.7 1860.67,-299.5 1864.88,-295.3 1869.08,-295.3 1869.08,-295.3 2006.92,-295.3 2006.92,-295.3 2011.12,-295.3 2015.33,-299.5 2015.33,-303.7 2015.33,-303.7 2015.33,-312.1 2015.33,-312.1 2015.33,-316.3 2011.12,-320.5 2006.92,-320.5"/>
<text xml:space="preserve" text-anchor="middle" x="1938" y="-304.8" font-family="Helvetica,sans-Serif" font-size="8.00">CORE&#45;graft&#45;teach&#45;learning&#45;receipts &#45; S</text>
</g>
<!-- cool_ideas_CORE_horizon_of_readability -->
<g id="node15" class="node">
<title>cool_ideas_CORE_horizon_of_readability</title>
<path fill="#d4e8f7" stroke="black" d="M2150.55,-320.5C2150.55,-320.5 2037.45,-320.5 2037.45,-320.5 2033.25,-320.5 2029.05,-316.3 2029.05,-312.1 2029.05,-312.1 2029.05,-303.7 2029.05,-303.7 2029.05,-299.5 2033.25,-295.3 2037.45,-295.3 2037.45,-295.3 2150.55,-295.3 2150.55,-295.3 2154.75,-295.3 2158.95,-299.5 2158.95,-303.7 2158.95,-303.7 2158.95,-312.1 2158.95,-312.1 2158.95,-316.3 2154.75,-320.5 2150.55,-320.5"/>
<text xml:space="preserve" text-anchor="middle" x="2094" y="-304.8" font-family="Helvetica,sans-Serif" font-size="8.00">CORE&#45;horizon&#45;of&#45;readability &#45; M</text>
</g>
<!-- cool_ideas_CORE_lagrangian_policy -->
<g id="node16" class="node">
<title>cool_ideas_CORE_lagrangian_policy</title>
<path fill="#d4e8f7" stroke="black" d="M2282.55,-320.5C2282.55,-320.5 2181.45,-320.5 2181.45,-320.5 2177.25,-320.5 2173.05,-316.3 2173.05,-312.1 2173.05,-312.1 2173.05,-303.7 2173.05,-303.7 2173.05,-299.5 2177.25,-295.3 2181.45,-295.3 2181.45,-295.3 2282.55,-295.3 2282.55,-295.3 2286.75,-295.3 2290.95,-299.5 2290.95,-303.7 2290.95,-303.7 2290.95,-312.1 2290.95,-312.1 2290.95,-316.3 2286.75,-320.5 2282.55,-320.5"/>
<text xml:space="preserve" text-anchor="middle" x="2232" y="-304.8" font-family="Helvetica,sans-Serif" font-size="8.00">CORE&#45;lagrangian&#45;policy &#45; XL</text>
</g>
<!-- cool_ideas_CORE_migrate_to_slice_first_reads -->
<g id="node17" class="node">
<title>cool_ideas_CORE_migrate_to_slice_first_reads</title>
<path fill="#d4e8f7" stroke="black" d="M9714.8,-247.05C9714.8,-247.05 9597.2,-247.05 9597.2,-247.05 9593,-247.05 9588.8,-242.85 9588.8,-238.65 9588.8,-238.65 9588.8,-230.25 9588.8,-230.25 9588.8,-226.05 9593,-221.85 9597.2,-221.85 9597.2,-221.85 9714.8,-221.85 9714.8,-221.85 9719,-221.85 9723.2,-226.05 9723.2,-230.25 9723.2,-230.25 9723.2,-238.65 9723.2,-238.65 9723.2,-242.85 9719,-247.05 9714.8,-247.05"/>
<text xml:space="preserve" text-anchor="middle" x="9656" y="-231.35" font-family="Helvetica,sans-Serif" font-size="8.00">CORE&#45;migrate&#45;to&#45;slice&#45;first&#45;reads</text>
</g>
<!-- cool_ideas_CORE_multi_agent_conflict_detection -->
<g id="node18" class="node">
<title>cool_ideas_CORE_multi_agent_conflict_detection</title>
<path fill="#d4e8f7" stroke="black" d="M2450.92,-320.5C2450.92,-320.5 2313.08,-320.5 2313.08,-320.5 2308.88,-320.5 2304.68,-316.3 2304.68,-312.1 2304.68,-312.1 2304.68,-303.7 2304.68,-303.7 2304.68,-299.5 2308.88,-295.3 2313.08,-295.3 2313.08,-295.3 2450.92,-295.3 2450.92,-295.3 2455.12,-295.3 2459.32,-299.5 2459.32,-303.7 2459.32,-303.7 2459.32,-312.1 2459.32,-312.1 2459.32,-316.3 2455.12,-320.5 2450.92,-320.5"/>
<text xml:space="preserve" text-anchor="middle" x="2382" y="-304.8" font-family="Helvetica,sans-Serif" font-size="8.00">CORE&#45;multi&#45;agent&#45;conflict&#45;detection &#45; L</text>
</g>
<!-- cool_ideas_CORE_policy_playground -->
<g id="node19" class="node">
<title>cool_ideas_CORE_policy_playground</title>
<path fill="#d4e8f7" stroke="black" d="M2580.42,-320.5C2580.42,-320.5 2481.58,-320.5 2481.58,-320.5 2477.38,-320.5 2473.18,-316.3 2473.18,-312.1 2473.18,-312.1 2473.18,-303.7 2473.18,-303.7 2473.18,-299.5 2477.38,-295.3 2481.58,-295.3 2481.58,-295.3 2580.42,-295.3 2580.42,-295.3 2584.62,-295.3 2588.82,-299.5 2588.82,-303.7 2588.82,-303.7 2588.82,-312.1 2588.82,-312.1 2588.82,-316.3 2584.62,-320.5 2580.42,-320.5"/>
<text xml:space="preserve" text-anchor="middle" x="2531" y="-304.8" font-family="Helvetica,sans-Serif" font-size="8.00">CORE&#45;policy&#45;playground &#45; S</text>
</g>
<!-- cool_ideas_CORE_policy_profiles -->
<g id="node20" class="node">
<title>cool_ideas_CORE_policy_profiles</title>
<path fill="#d4e8f7" stroke="black" d="M2697.05,-320.5C2697.05,-320.5 2610.95,-320.5 2610.95,-320.5 2606.75,-320.5 2602.55,-316.3 2602.55,-312.1 2602.55,-312.1 2602.55,-303.7 2602.55,-303.7 2602.55,-299.5 2606.75,-295.3 2610.95,-295.3 2610.95,-295.3 2697.05,-295.3 2697.05,-295.3 2701.25,-295.3 2705.45,-299.5 2705.45,-303.7 2705.45,-303.7 2705.45,-312.1 2705.45,-312.1 2705.45,-316.3 2701.25,-320.5 2697.05,-320.5"/>
<text xml:space="preserve" text-anchor="middle" x="2654" y="-304.8" font-family="Helvetica,sans-Serif" font-size="8.00">CORE&#45;policy&#45;profiles &#45; M</text>
</g>
<!-- cool_ideas_CORE_pr_review_structural_summary -->
<g id="node21" class="node">
<title>cool_ideas_CORE_pr_review_structural_summary</title>
<path fill="#d4e8f7" stroke="black" d="M2871.92,-320.5C2871.92,-320.5 2728.08,-320.5 2728.08,-320.5 2723.88,-320.5 2719.68,-316.3 2719.68,-312.1 2719.68,-312.1 2719.68,-303.7 2719.68,-303.7 2719.68,-299.5 2723.88,-295.3 2728.08,-295.3 2728.08,-295.3 2871.92,-295.3 2871.92,-295.3 2876.12,-295.3 2880.32,-299.5 2880.32,-303.7 2880.32,-303.7 2880.32,-312.1 2880.32,-312.1 2880.32,-316.3 2876.12,-320.5 2871.92,-320.5"/>
<text xml:space="preserve" text-anchor="middle" x="2800" y="-304.8" font-family="Helvetica,sans-Serif" font-size="8.00">CORE&#45;pr&#45;review&#45;structural&#45;summary &#45; M</text>
</g>
<!-- cool_ideas_CORE_self_tuning_governor -->
<g id="node22" class="node">
<title>cool_ideas_CORE_self_tuning_governor</title>
<path fill="#d4e8f7" stroke="black" d="M3013.05,-320.5C3013.05,-320.5 2902.95,-320.5 2902.95,-320.5 2898.75,-320.5 2894.55,-316.3 2894.55,-312.1 2894.55,-312.1 2894.55,-303.7 2894.55,-303.7 2894.55,-299.5 2898.75,-295.3 2902.95,-295.3 2902.95,-295.3 3013.05,-295.3 3013.05,-295.3 3017.25,-295.3 3021.45,-299.5 3021.45,-303.7 3021.45,-303.7 3021.45,-312.1 3021.45,-312.1 3021.45,-316.3 3017.25,-320.5 3013.05,-320.5"/>
<text xml:space="preserve" text-anchor="middle" x="2958" y="-304.8" font-family="Helvetica,sans-Serif" font-size="8.00">CORE&#45;self&#45;tuning&#45;governor &#45; M</text>
</g>
<!-- cool_ideas_CORE_session_knowledge_map -->
<g id="node23" class="node">
<title>cool_ideas_CORE_session_knowledge_map</title>
<path fill="#d4e8f7" stroke="black" d="M3166.42,-320.5C3166.42,-320.5 3043.58,-320.5 3043.58,-320.5 3039.38,-320.5 3035.18,-316.3 3035.18,-312.1 3035.18,-312.1 3035.18,-303.7 3035.18,-303.7 3035.18,-299.5 3039.38,-295.3 3043.58,-295.3 3043.58,-295.3 3166.42,-295.3 3166.42,-295.3 3170.62,-295.3 3174.82,-299.5 3174.82,-303.7 3174.82,-303.7 3174.82,-312.1 3174.82,-312.1 3174.82,-316.3 3170.62,-320.5 3166.42,-320.5"/>
<text xml:space="preserve" text-anchor="middle" x="3105" y="-304.8" font-family="Helvetica,sans-Serif" font-size="8.00">CORE&#45;session&#45;knowledge&#45;map &#45; S</text>
</g>
<!-- cool_ideas_CORE_speculative_read_cost -->
<g id="node24" class="node">
<title>cool_ideas_CORE_speculative_read_cost</title>
<path fill="#d4e8f7" stroke="black" d="M3309.17,-320.5C3309.17,-320.5 3196.83,-320.5 3196.83,-320.5 3192.62,-320.5 3188.43,-316.3 3188.43,-312.1 3188.43,-312.1 3188.43,-303.7 3188.43,-303.7 3188.43,-299.5 3192.62,-295.3 3196.83,-295.3 3196.83,-295.3 3309.17,-295.3 3309.17,-295.3 3313.38,-295.3 3317.57,-299.5 3317.57,-303.7 3317.57,-303.7 3317.57,-312.1 3317.57,-312.1 3317.57,-316.3 3313.38,-320.5 3309.17,-320.5"/>
<text xml:space="preserve" text-anchor="middle" x="3253" y="-304.8" font-family="Helvetica,sans-Serif" font-size="8.00">CORE&#45;speculative&#45;read&#45;cost &#45; S</text>
</g>
<!-- cool_ideas_CORE_structural_session_replay -->
<g id="node25" class="node">
<title>cool_ideas_CORE_structural_session_replay</title>
<path fill="#d4e8f7" stroke="black" d="M3465.55,-320.5C3465.55,-320.5 3340.45,-320.5 3340.45,-320.5 3336.25,-320.5 3332.05,-316.3 3332.05,-312.1 3332.05,-312.1 3332.05,-303.7 3332.05,-303.7 3332.05,-299.5 3336.25,-295.3 3340.45,-295.3 3340.45,-295.3 3465.55,-295.3 3465.55,-295.3 3469.75,-295.3 3473.95,-299.5 3473.95,-303.7 3473.95,-303.7 3473.95,-312.1 3473.95,-312.1 3473.95,-316.3 3469.75,-320.5 3465.55,-320.5"/>
<text xml:space="preserve" text-anchor="middle" x="3403" y="-304.8" font-family="Helvetica,sans-Serif" font-size="8.00">CORE&#45;structural&#45;session&#45;replay &#45; M</text>
</g>
<!-- cool_ideas_CORE_structural_test_coverage_map -->
<g id="node26" class="node">
<title>cool_ideas_CORE_structural_test_coverage_map</title>
<path fill="#d4e8f7" stroke="black" d="M3637.8,-320.5C3637.8,-320.5 3496.2,-320.5 3496.2,-320.5 3492,-320.5 3487.8,-316.3 3487.8,-312.1 3487.8,-312.1 3487.8,-303.7 3487.8,-303.7 3487.8,-299.5 3492,-295.3 3496.2,-295.3 3496.2,-295.3 3637.8,-295.3 3637.8,-295.3 3642,-295.3 3646.2,-299.5 3646.2,-303.7 3646.2,-303.7 3646.2,-312.1 3646.2,-312.1 3646.2,-316.3 3642,-320.5 3637.8,-320.5"/>
<text xml:space="preserve" text-anchor="middle" x="3567" y="-304.8" font-family="Helvetica,sans-Serif" font-size="8.00">CORE&#45;structural&#45;test&#45;coverage&#45;map &#45; M</text>
</g>
<!-- cool_ideas_CORE_wire_primitives_into_runtime -->
<g id="node27" class="node">
<title>cool_ideas_CORE_wire_primitives_into_runtime</title>
<path fill="#d4e8f7" stroke="black" d="M3803.42,-320.5C3803.42,-320.5 3668.58,-320.5 3668.58,-320.5 3664.38,-320.5 3660.18,-316.3 3660.18,-312.1 3660.18,-312.1 3660.18,-303.7 3660.18,-303.7 3660.18,-299.5 3664.38,-295.3 3668.58,-295.3 3668.58,-295.3 3803.42,-295.3 3803.42,-295.3 3807.62,-295.3 3811.82,-299.5 3811.82,-303.7 3811.82,-303.7 3811.82,-312.1 3811.82,-312.1 3811.82,-316.3 3807.62,-320.5 3803.42,-320.5"/>
<text xml:space="preserve" text-anchor="middle" x="3736" y="-304.8" font-family="Helvetica,sans-Serif" font-size="8.00">CORE&#45;wire&#45;primitives&#45;into&#45;runtime &#45; M</text>
</g>
<!-- cool_ideas_monitor_tick_ceiling_tracking -->
<g id="node28" class="node">
<title>cool_ideas_monitor_tick_ceiling_tracking</title>
<path fill="#d4e8f7" stroke="black" d="M3941.55,-320.5C3941.55,-320.5 3834.45,-320.5 3834.45,-320.5 3830.25,-320.5 3826.05,-316.3 3826.05,-312.1 3826.05,-312.1 3826.05,-303.7 3826.05,-303.7 3826.05,-299.5 3830.25,-295.3 3834.45,-295.3 3834.45,-295.3 3941.55,-295.3 3941.55,-295.3 3945.75,-295.3 3949.95,-299.5 3949.95,-303.7 3949.95,-303.7 3949.95,-312.1 3949.95,-312.1 3949.95,-316.3 3945.75,-320.5 3941.55,-320.5"/>
<text xml:space="preserve" text-anchor="middle" x="3888" y="-304.8" font-family="Helvetica,sans-Serif" font-size="8.00">monitor&#45;tick&#45;ceiling&#45;tracking &#45; S</text>
</g>
<!-- cool_ideas_WARP_background_indexing -->
<g id="node46" class="node">
<title>cool_ideas_WARP_background_indexing</title>
<path fill="#d4e8f7" stroke="black" d="M3944.55,-247.05C3944.55,-247.05 3831.45,-247.05 3831.45,-247.05 3827.25,-247.05 3823.05,-242.85 3823.05,-238.65 3823.05,-238.65 3823.05,-230.25 3823.05,-230.25 3823.05,-226.05 3827.25,-221.85 3831.45,-221.85 3831.45,-221.85 3944.55,-221.85 3944.55,-221.85 3948.75,-221.85 3952.95,-226.05 3952.95,-230.25 3952.95,-230.25 3952.95,-238.65 3952.95,-238.65 3952.95,-242.85 3948.75,-247.05 3944.55,-247.05"/>
<text xml:space="preserve" text-anchor="middle" x="3888" y="-231.35" font-family="Helvetica,sans-Serif" font-size="8.00">WARP&#45;background&#45;indexing &#45; M</text>
</g>
<!-- cool_ideas_monitor_tick_ceiling_tracking&#45;&gt;cool_ideas_WARP_background_indexing -->
<g id="edge1" class="edge">
<title>cool_ideas_monitor_tick_ceiling_tracking&#45;&gt;cool_ideas_WARP_background_indexing</title>
<path fill="none" stroke="#666666" d="M3888,-295.1C3888,-283.9 3888,-266.88 3888,-253.88"/>
<polygon fill="#666666" stroke="#666666" points="3889.75,-254.02 3888,-249.02 3886.25,-254.02 3889.75,-254.02"/>
<text xml:space="preserve" text-anchor="middle" x="3919.5" y="-268.65" font-family="Helvetica,sans-Serif" font-size="7.00">blocked_by/blocking</text>
</g>
<!-- cool_ideas_SURFACE_active_causal_workspace_status -->
<g id="node29" class="node">
<title>cool_ideas_SURFACE_active_causal_workspace_status</title>
<path fill="#d4e8f7" stroke="black" d="M4136.05,-320.5C4136.05,-320.5 3971.95,-320.5 3971.95,-320.5 3967.75,-320.5 3963.55,-316.3 3963.55,-312.1 3963.55,-312.1 3963.55,-303.7 3963.55,-303.7 3963.55,-299.5 3967.75,-295.3 3971.95,-295.3 3971.95,-295.3 4136.05,-295.3 4136.05,-295.3 4140.25,-295.3 4144.45,-299.5 4144.45,-303.7 4144.45,-303.7 4144.45,-312.1 4144.45,-312.1 4144.45,-316.3 4140.25,-320.5 4136.05,-320.5"/>
<text xml:space="preserve" text-anchor="middle" x="4054" y="-304.8" font-family="Helvetica,sans-Serif" font-size="8.00">SURFACE&#45;active&#45;causal&#45;workspace&#45;status &#45; M</text>
</g>
<!-- cool_ideas_SURFACE_ide_native_graft_integration -->
<g id="node35" class="node">
<title>cool_ideas_SURFACE_ide_native_graft_integration</title>
<path fill="#d4e8f7" stroke="black" d="M4129.3,-247.05C4129.3,-247.05 3978.7,-247.05 3978.7,-247.05 3974.5,-247.05 3970.3,-242.85 3970.3,-238.65 3970.3,-238.65 3970.3,-230.25 3970.3,-230.25 3970.3,-226.05 3974.5,-221.85 3978.7,-221.85 3978.7,-221.85 4129.3,-221.85 4129.3,-221.85 4133.5,-221.85 4137.7,-226.05 4137.7,-230.25 4137.7,-230.25 4137.7,-238.65 4137.7,-238.65 4137.7,-242.85 4133.5,-247.05 4129.3,-247.05"/>
<text xml:space="preserve" text-anchor="middle" x="4054" y="-231.35" font-family="Helvetica,sans-Serif" font-size="8.00">SURFACE&#45;ide&#45;native&#45;graft&#45;integration &#45; XL</text>
</g>
<!-- cool_ideas_SURFACE_active_causal_workspace_status&#45;&gt;cool_ideas_SURFACE_ide_native_graft_integration -->
<g id="edge2" class="edge">
<title>cool_ideas_SURFACE_active_causal_workspace_status&#45;&gt;cool_ideas_SURFACE_ide_native_graft_integration</title>
<path fill="none" stroke="#666666" d="M4054,-295.1C4054,-283.9 4054,-266.88 4054,-253.88"/>
<polygon fill="#666666" stroke="#666666" points="4055.75,-254.02 4054,-249.02 4052.25,-254.02 4055.75,-254.02"/>
<text xml:space="preserve" text-anchor="middle" x="4085.5" y="-268.65" font-family="Helvetica,sans-Serif" font-size="7.00">blocked_by/blocking</text>
</g>
<!-- cool_ideas_SURFACE_attach_to_existing_causal_session -->
<g id="node30" class="node">
<title>cool_ideas_SURFACE_attach_to_existing_causal_session</title>
<path fill="#d4e8f7" stroke="black" d="M4335.3,-320.5C4335.3,-320.5 4166.7,-320.5 4166.7,-320.5 4162.5,-320.5 4158.3,-316.3 4158.3,-312.1 4158.3,-312.1 4158.3,-303.7 4158.3,-303.7 4158.3,-299.5 4162.5,-295.3 4166.7,-295.3 4166.7,-295.3 4335.3,-295.3 4335.3,-295.3 4339.5,-295.3 4343.7,-299.5 4343.7,-303.7 4343.7,-303.7 4343.7,-312.1 4343.7,-312.1 4343.7,-316.3 4339.5,-320.5 4335.3,-320.5"/>
<text xml:space="preserve" text-anchor="middle" x="4251" y="-304.8" font-family="Helvetica,sans-Serif" font-size="8.00">SURFACE&#45;attach&#45;to&#45;existing&#45;causal&#45;session &#45; M</text>
</g>
<!-- cool_ideas_SURFACE_bijou_daemon_control_plane_actions -->
<g id="node31" class="node">
<title>cool_ideas_SURFACE_bijou_daemon_control_plane_actions</title>
<path fill="#d4e8f7" stroke="black" d="M4543.43,-320.5C4543.43,-320.5 4366.57,-320.5 4366.57,-320.5 4362.38,-320.5 4358.18,-316.3 4358.18,-312.1 4358.18,-312.1 4358.18,-303.7 4358.18,-303.7 4358.18,-299.5 4362.38,-295.3 4366.57,-295.3 4366.57,-295.3 4543.43,-295.3 4543.43,-295.3 4547.62,-295.3 4551.82,-299.5 4551.82,-303.7 4551.82,-303.7 4551.82,-312.1 4551.82,-312.1 4551.82,-316.3 4547.62,-320.5 4543.43,-320.5"/>
<text xml:space="preserve" text-anchor="middle" x="4455" y="-304.8" font-family="Helvetica,sans-Serif" font-size="8.00">SURFACE&#45;bijou&#45;daemon&#45;control&#45;plane&#45;actions &#45; L</text>
</g>
<!-- cool_ideas_SURFACE_bijou_daemon_status_live_refresh -->
<g id="node32" class="node">
<title>cool_ideas_SURFACE_bijou_daemon_status_live_refresh</title>
<path fill="#d4e8f7" stroke="black" d="M4743.3,-320.5C4743.3,-320.5 4574.7,-320.5 4574.7,-320.5 4570.5,-320.5 4566.3,-316.3 4566.3,-312.1 4566.3,-312.1 4566.3,-303.7 4566.3,-303.7 4566.3,-299.5 4570.5,-295.3 4574.7,-295.3 4574.7,-295.3 4743.3,-295.3 4743.3,-295.3 4747.5,-295.3 4751.7,-299.5 4751.7,-303.7 4751.7,-303.7 4751.7,-312.1 4751.7,-312.1 4751.7,-316.3 4747.5,-320.5 4743.3,-320.5"/>
<text xml:space="preserve" text-anchor="middle" x="4659" y="-304.8" font-family="Helvetica,sans-Serif" font-size="8.00">SURFACE&#45;bijou&#45;daemon&#45;status&#45;live&#45;refresh &#45; M</text>
</g>
<!-- cool_ideas_SURFACE_git_graft_enhance_expanded_git_subcommands -->
<g id="node33" class="node">
<title>cool_ideas_SURFACE_git_graft_enhance_expanded_git_subcommands</title>
<path fill="#d4e8f7" stroke="black" d="M4978.3,-320.5C4978.3,-320.5 4773.7,-320.5 4773.7,-320.5 4769.5,-320.5 4765.3,-316.3 4765.3,-312.1 4765.3,-312.1 4765.3,-303.7 4765.3,-303.7 4765.3,-299.5 4769.5,-295.3 4773.7,-295.3 4773.7,-295.3 4978.3,-295.3 4978.3,-295.3 4982.5,-295.3 4986.7,-299.5 4986.7,-303.7 4986.7,-303.7 4986.7,-312.1 4986.7,-312.1 4986.7,-316.3 4982.5,-320.5 4978.3,-320.5"/>
<text xml:space="preserve" text-anchor="middle" x="4876" y="-304.8" font-family="Helvetica,sans-Serif" font-size="8.00">SURFACE&#45;git&#45;graft&#45;enhance&#45;expanded&#45;git&#45;subcommands</text>
</g>
<!-- cool_ideas_SURFACE_git_graft_enhance_provenance_hints -->
<g id="node34" class="node">
<title>cool_ideas_SURFACE_git_graft_enhance_provenance_hints</title>
<path fill="#d4e8f7" stroke="black" d="M5174.43,-320.5C5174.43,-320.5 5009.57,-320.5 5009.57,-320.5 5005.38,-320.5 5001.18,-316.3 5001.18,-312.1 5001.18,-312.1 5001.18,-303.7 5001.18,-303.7 5001.18,-299.5 5005.38,-295.3 5009.57,-295.3 5009.57,-295.3 5174.43,-295.3 5174.43,-295.3 5178.62,-295.3 5182.82,-299.5 5182.82,-303.7 5182.82,-303.7 5182.82,-312.1 5182.82,-312.1 5182.82,-316.3 5178.62,-320.5 5174.43,-320.5"/>
<text xml:space="preserve" text-anchor="middle" x="5092" y="-304.8" font-family="Helvetica,sans-Serif" font-size="8.00">SURFACE&#45;git&#45;graft&#45;enhance&#45;provenance&#45;hints</text>
</g>
<!-- cool_ideas_SURFACE_local_history_dag_render_mode_and_count_legend -->
<g id="node36" class="node">
<title>cool_ideas_SURFACE_local_history_dag_render_mode_and_count_legend</title>
<path fill="#d4e8f7" stroke="black" d="M5431.18,-320.5C5431.18,-320.5 5204.82,-320.5 5204.82,-320.5 5200.62,-320.5 5196.43,-316.3 5196.43,-312.1 5196.43,-312.1 5196.43,-303.7 5196.43,-303.7 5196.43,-299.5 5200.62,-295.3 5204.82,-295.3 5204.82,-295.3 5431.18,-295.3 5431.18,-295.3 5435.38,-295.3 5439.57,-299.5 5439.57,-303.7 5439.57,-303.7 5439.57,-312.1 5439.57,-312.1 5439.57,-316.3 5435.38,-320.5 5431.18,-320.5"/>
<text xml:space="preserve" text-anchor="middle" x="5318" y="-304.8" font-family="Helvetica,sans-Serif" font-size="8.00">SURFACE&#45;local&#45;history&#45;dag&#45;render&#45;mode&#45;and&#45;count&#45;legend &#45; S</text>
</g>
<!-- cool_ideas_SURFACE_non_codex_instruction_bootstrap_parity -->
<g id="node37" class="node">
<title>cool_ideas_SURFACE_non_codex_instruction_bootstrap_parity</title>
<path fill="#d4e8f7" stroke="black" d="M5650.43,-320.5C5650.43,-320.5 5461.57,-320.5 5461.57,-320.5 5457.38,-320.5 5453.18,-316.3 5453.18,-312.1 5453.18,-312.1 5453.18,-303.7 5453.18,-303.7 5453.18,-299.5 5457.38,-295.3 5461.57,-295.3 5461.57,-295.3 5650.43,-295.3 5650.43,-295.3 5654.62,-295.3 5658.82,-299.5 5658.82,-303.7 5658.82,-303.7 5658.82,-312.1 5658.82,-312.1 5658.82,-316.3 5654.62,-320.5 5650.43,-320.5"/>
<text xml:space="preserve" text-anchor="middle" x="5556" y="-304.8" font-family="Helvetica,sans-Serif" font-size="8.00">SURFACE&#45;non&#45;codex&#45;instruction&#45;bootstrap&#45;parity &#45; M</text>
</g>
<!-- cool_ideas_SURFACE_offer_rename_refactor -->
<g id="node38" class="node">
<title>cool_ideas_SURFACE_offer_rename_refactor</title>
<path fill="#d4e8f7" stroke="black" d="M5810.43,-320.5C5810.43,-320.5 5681.57,-320.5 5681.57,-320.5 5677.38,-320.5 5673.18,-316.3 5673.18,-312.1 5673.18,-312.1 5673.18,-303.7 5673.18,-303.7 5673.18,-299.5 5677.38,-295.3 5681.57,-295.3 5681.57,-295.3 5810.43,-295.3 5810.43,-295.3 5814.62,-295.3 5818.82,-299.5 5818.82,-303.7 5818.82,-303.7 5818.82,-312.1 5818.82,-312.1 5818.82,-316.3 5814.62,-320.5 5810.43,-320.5"/>
<text xml:space="preserve" text-anchor="middle" x="5746" y="-304.8" font-family="Helvetica,sans-Serif" font-size="8.00">SURFACE&#45;offer&#45;rename&#45;refactor &#45; L</text>
</g>
<!-- cool_ideas_SURFACE_pr_feedback_resolution_ledger -->
<g id="node39" class="node">
<title>cool_ideas_SURFACE_pr_feedback_resolution_ledger</title>
<path fill="#d4e8f7" stroke="black" d="M6000.43,-320.5C6000.43,-320.5 5841.57,-320.5 5841.57,-320.5 5837.38,-320.5 5833.18,-316.3 5833.18,-312.1 5833.18,-312.1 5833.18,-303.7 5833.18,-303.7 5833.18,-299.5 5837.38,-295.3 5841.57,-295.3 5841.57,-295.3 6000.43,-295.3 6000.43,-295.3 6004.62,-295.3 6008.82,-299.5 6008.82,-303.7 6008.82,-303.7 6008.82,-312.1 6008.82,-312.1 6008.82,-316.3 6004.62,-320.5 6000.43,-320.5"/>
<text xml:space="preserve" text-anchor="middle" x="5921" y="-304.8" font-family="Helvetica,sans-Serif" font-size="8.00">SURFACE&#45;pr&#45;feedback&#45;resolution&#45;ledger &#45; M</text>
</g>
<!-- cool_ideas_SURFACE_review_cooldown_status -->
<g id="node40" class="node">
<title>cool_ideas_SURFACE_review_cooldown_status</title>
<path fill="#d4e8f7" stroke="black" d="M6166.8,-320.5C6166.8,-320.5 6031.2,-320.5 6031.2,-320.5 6027,-320.5 6022.8,-316.3 6022.8,-312.1 6022.8,-312.1 6022.8,-303.7 6022.8,-303.7 6022.8,-299.5 6027,-295.3 6031.2,-295.3 6031.2,-295.3 6166.8,-295.3 6166.8,-295.3 6171,-295.3 6175.2,-299.5 6175.2,-303.7 6175.2,-303.7 6175.2,-312.1 6175.2,-312.1 6175.2,-316.3 6171,-320.5 6166.8,-320.5"/>
<text xml:space="preserve" text-anchor="middle" x="6099" y="-304.8" font-family="Helvetica,sans-Serif" font-size="8.00">SURFACE&#45;review&#45;cooldown&#45;status &#45; S</text>
</g>
<!-- cool_ideas_SURFACE_terminal_activity_browser_tui -->
<g id="node41" class="node">
<title>cool_ideas_SURFACE_terminal_activity_browser_tui</title>
<path fill="#d4e8f7" stroke="black" d="M6346.55,-320.5C6346.55,-320.5 6197.45,-320.5 6197.45,-320.5 6193.25,-320.5 6189.05,-316.3 6189.05,-312.1 6189.05,-312.1 6189.05,-303.7 6189.05,-303.7 6189.05,-299.5 6193.25,-295.3 6197.45,-295.3 6197.45,-295.3 6346.55,-295.3 6346.55,-295.3 6350.75,-295.3 6354.95,-299.5 6354.95,-303.7 6354.95,-303.7 6354.95,-312.1 6354.95,-312.1 6354.95,-316.3 6350.75,-320.5 6346.55,-320.5"/>
<text xml:space="preserve" text-anchor="middle" x="6272" y="-304.8" font-family="Helvetica,sans-Serif" font-size="8.00">SURFACE&#45;terminal&#45;activity&#45;browser&#45;tui &#45; L</text>
</g>
<!-- cool_ideas_traverse_plus_query_hydration_helper -->
<g id="node42" class="node">
<title>cool_ideas_traverse_plus_query_hydration_helper</title>
<path fill="#d4e8f7" stroke="black" d="M6518.8,-320.5C6518.8,-320.5 6377.2,-320.5 6377.2,-320.5 6373,-320.5 6368.8,-316.3 6368.8,-312.1 6368.8,-312.1 6368.8,-303.7 6368.8,-303.7 6368.8,-299.5 6373,-295.3 6377.2,-295.3 6377.2,-295.3 6518.8,-295.3 6518.8,-295.3 6523,-295.3 6527.2,-299.5 6527.2,-303.7 6527.2,-303.7 6527.2,-312.1 6527.2,-312.1 6527.2,-316.3 6523,-320.5 6518.8,-320.5"/>
<text xml:space="preserve" text-anchor="middle" x="6448" y="-304.8" font-family="Helvetica,sans-Serif" font-size="8.00">traverse&#45;plus&#45;query&#45;hydration&#45;helper &#45; S</text>
</g>
<!-- cool_ideas_WARP_adaptive_projection_selection -->
<g id="node43" class="node">
<title>cool_ideas_WARP_adaptive_projection_selection</title>
<path fill="#d4e8f7" stroke="black" d="M6687.93,-320.5C6687.93,-320.5 6550.07,-320.5 6550.07,-320.5 6545.88,-320.5 6541.68,-316.3 6541.68,-312.1 6541.68,-312.1 6541.68,-303.7 6541.68,-303.7 6541.68,-299.5 6545.88,-295.3 6550.07,-295.3 6550.07,-295.3 6687.93,-295.3 6687.93,-295.3 6692.12,-295.3 6696.32,-299.5 6696.32,-303.7 6696.32,-303.7 6696.32,-312.1 6696.32,-312.1 6696.32,-316.3 6692.12,-320.5 6687.93,-320.5"/>
<text xml:space="preserve" text-anchor="middle" x="6619" y="-304.8" font-family="Helvetica,sans-Serif" font-size="8.00">WARP&#45;adaptive&#45;projection&#45;selection &#45; L</text>
</g>
<!-- cool_ideas_WARP_agent_action_provenance -->
<g id="node44" class="node">
<title>cool_ideas_WARP_agent_action_provenance</title>
<path fill="#d4e8f7" stroke="black" d="M6849.55,-320.5C6849.55,-320.5 6718.45,-320.5 6718.45,-320.5 6714.25,-320.5 6710.05,-316.3 6710.05,-312.1 6710.05,-312.1 6710.05,-303.7 6710.05,-303.7 6710.05,-299.5 6714.25,-295.3 6718.45,-295.3 6718.45,-295.3 6849.55,-295.3 6849.55,-295.3 6853.75,-295.3 6857.95,-299.5 6857.95,-303.7 6857.95,-303.7 6857.95,-312.1 6857.95,-312.1 6857.95,-316.3 6853.75,-320.5 6849.55,-320.5"/>
<text xml:space="preserve" text-anchor="middle" x="6784" y="-304.8" font-family="Helvetica,sans-Serif" font-size="8.00">WARP&#45;agent&#45;action&#45;provenance &#45; XL</text>
</g>
<!-- cool_ideas_WARP_agent_action_provenance&#45;&gt;cool_ideas_CI_001_causal_collapse_visualizer -->
<g id="edge3" class="edge">
<title>cool_ideas_WARP_agent_action_provenance&#45;&gt;cool_ideas_CI_001_causal_collapse_visualizer</title>
<path fill="none" stroke="#666666" d="M6809.81,-294.81C6822.04,-289.01 6836.83,-281.9 6850,-275.3 6865.99,-267.28 6883.7,-258.02 6898,-250.44"/>
<polygon fill="#666666" stroke="#666666" points="6898.57,-252.12 6902.16,-248.23 6896.92,-249.03 6898.57,-252.12"/>
<text xml:space="preserve" text-anchor="middle" x="6896.14" y="-268.65" font-family="Helvetica,sans-Serif" font-size="7.00">blocked_by/blocking</text>
</g>
<!-- cool_ideas_WARP_causal_write_tracking -->
<g id="node49" class="node">
<title>cool_ideas_WARP_causal_write_tracking</title>
<path fill="#d4e8f7" stroke="black" d="M6542.05,-247.05C6542.05,-247.05 6431.95,-247.05 6431.95,-247.05 6427.75,-247.05 6423.55,-242.85 6423.55,-238.65 6423.55,-238.65 6423.55,-230.25 6423.55,-230.25 6423.55,-226.05 6427.75,-221.85 6431.95,-221.85 6431.95,-221.85 6542.05,-221.85 6542.05,-221.85 6546.25,-221.85 6550.45,-226.05 6550.45,-230.25 6550.45,-230.25 6550.45,-238.65 6550.45,-238.65 6550.45,-242.85 6546.25,-247.05 6542.05,-247.05"/>
<text xml:space="preserve" text-anchor="middle" x="6487" y="-231.35" font-family="Helvetica,sans-Serif" font-size="8.00">WARP&#45;causal&#45;write&#45;tracking &#45; L</text>
</g>
<!-- cool_ideas_WARP_agent_action_provenance&#45;&gt;cool_ideas_WARP_causal_write_tracking -->
<g id="edge4" class="edge">
<title>cool_ideas_WARP_agent_action_provenance&#45;&gt;cool_ideas_WARP_causal_write_tracking</title>
<path fill="none" stroke="#666666" d="M6736.13,-294.83C6725.27,-292.23 6713.76,-289.58 6703,-287.3 6673.83,-281.12 6666.1,-281.8 6637,-275.3 6602.63,-267.62 6564.25,-257.4 6534.92,-249.23"/>
<polygon fill="#666666" stroke="#666666" points="6535.55,-247.58 6530.26,-247.92 6534.61,-250.96 6535.55,-247.58"/>
<text xml:space="preserve" text-anchor="middle" x="6668.5" y="-268.65" font-family="Helvetica,sans-Serif" font-size="7.00">blocked_by/blocking</text>
</g>
<!-- cool_ideas_WARP_intent_and_decision_events -->
<g id="node59" class="node">
<title>cool_ideas_WARP_intent_and_decision_events</title>
<path fill="#d4e8f7" stroke="black" d="M6705.3,-247.05C6705.3,-247.05 6572.7,-247.05 6572.7,-247.05 6568.5,-247.05 6564.3,-242.85 6564.3,-238.65 6564.3,-238.65 6564.3,-230.25 6564.3,-230.25 6564.3,-226.05 6568.5,-221.85 6572.7,-221.85 6572.7,-221.85 6705.3,-221.85 6705.3,-221.85 6709.5,-221.85 6713.7,-226.05 6713.7,-230.25 6713.7,-230.25 6713.7,-238.65 6713.7,-238.65 6713.7,-242.85 6709.5,-247.05 6705.3,-247.05"/>
<text xml:space="preserve" text-anchor="middle" x="6639" y="-231.35" font-family="Helvetica,sans-Serif" font-size="8.00">WARP&#45;intent&#45;and&#45;decision&#45;events &#45; M</text>
</g>
<!-- cool_ideas_WARP_agent_action_provenance&#45;&gt;cool_ideas_WARP_intent_and_decision_events -->
<g id="edge5" class="edge">
<title>cool_ideas_WARP_agent_action_provenance&#45;&gt;cool_ideas_WARP_intent_and_decision_events</title>
<path fill="none" stroke="#666666" d="M6758.55,-294.87C6746.27,-289.02 6731.34,-281.86 6718,-275.3 6701.45,-267.16 6683.05,-257.89 6668.17,-250.34"/>
<polygon fill="#666666" stroke="#666666" points="6669.04,-248.83 6663.79,-248.12 6667.46,-251.95 6669.04,-248.83"/>
<text xml:space="preserve" text-anchor="middle" x="6749.5" y="-268.65" font-family="Helvetica,sans-Serif" font-size="7.00">blocked_by/blocking</text>
</g>
<!-- cool_ideas_WARP_provenance_dag -->
<g id="node64" class="node">
<title>cool_ideas_WARP_provenance_dag</title>
<path fill="#d4e8f7" stroke="black" d="M6831.55,-247.05C6831.55,-247.05 6736.45,-247.05 6736.45,-247.05 6732.25,-247.05 6728.05,-242.85 6728.05,-238.65 6728.05,-238.65 6728.05,-230.25 6728.05,-230.25 6728.05,-226.05 6732.25,-221.85 6736.45,-221.85 6736.45,-221.85 6831.55,-221.85 6831.55,-221.85 6835.75,-221.85 6839.95,-226.05 6839.95,-230.25 6839.95,-230.25 6839.95,-238.65 6839.95,-238.65 6839.95,-242.85 6835.75,-247.05 6831.55,-247.05"/>
<text xml:space="preserve" text-anchor="middle" x="6784" y="-231.35" font-family="Helvetica,sans-Serif" font-size="8.00">WARP&#45;provenance&#45;dag &#45; L</text>
</g>
<!-- cool_ideas_WARP_agent_action_provenance&#45;&gt;cool_ideas_WARP_provenance_dag -->
<g id="edge6" class="edge">
<title>cool_ideas_WARP_agent_action_provenance&#45;&gt;cool_ideas_WARP_provenance_dag</title>
<path fill="none" stroke="#666666" d="M6784,-295.1C6784,-283.9 6784,-266.88 6784,-253.88"/>
<polygon fill="#666666" stroke="#666666" points="6785.75,-254.02 6784,-249.02 6782.25,-254.02 6785.75,-254.02"/>
<text xml:space="preserve" text-anchor="middle" x="6815.5" y="-268.65" font-family="Helvetica,sans-Serif" font-size="7.00">blocked_by/blocking</text>
</g>
<!-- cool_ideas_WARP_auto_breaking_change_detection -->
<g id="node45" class="node">
<title>cool_ideas_WARP_auto_breaking_change_detection</title>
<path fill="#d4e8f7" stroke="black" d="M9896.3,-247.05C9896.3,-247.05 9745.7,-247.05 9745.7,-247.05 9741.5,-247.05 9737.3,-242.85 9737.3,-238.65 9737.3,-238.65 9737.3,-230.25 9737.3,-230.25 9737.3,-226.05 9741.5,-221.85 9745.7,-221.85 9745.7,-221.85 9896.3,-221.85 9896.3,-221.85 9900.5,-221.85 9904.7,-226.05 9904.7,-230.25 9904.7,-230.25 9904.7,-238.65 9904.7,-238.65 9904.7,-242.85 9900.5,-247.05 9896.3,-247.05"/>
<text xml:space="preserve" text-anchor="middle" x="9821" y="-231.35" font-family="Helvetica,sans-Serif" font-size="8.00">WARP&#45;auto&#45;breaking&#45;change&#45;detection &#45; L</text>
</g>
<!-- cool_ideas_WARP_budget_elasticity -->
<g id="node47" class="node">
<title>cool_ideas_WARP_budget_elasticity</title>
<path fill="#d4e8f7" stroke="black" d="M6975.93,-320.5C6975.93,-320.5 6880.07,-320.5 6880.07,-320.5 6875.88,-320.5 6871.68,-316.3 6871.68,-312.1 6871.68,-312.1 6871.68,-303.7 6871.68,-303.7 6871.68,-299.5 6875.88,-295.3 6880.07,-295.3 6880.07,-295.3 6975.93,-295.3 6975.93,-295.3 6980.12,-295.3 6984.32,-299.5 6984.32,-303.7 6984.32,-303.7 6984.32,-312.1 6984.32,-312.1 6984.32,-316.3 6980.12,-320.5 6975.93,-320.5"/>
<text xml:space="preserve" text-anchor="middle" x="6928" y="-304.8" font-family="Helvetica,sans-Serif" font-size="8.00">WARP&#45;budget&#45;elasticity &#45; M</text>
</g>
<!-- cool_ideas_WARP_causal_blame_for_staged_artifacts -->
<g id="node48" class="node">
<title>cool_ideas_WARP_causal_blame_for_staged_artifacts</title>
<path fill="#d4e8f7" stroke="black" d="M6935.18,-173.6C6935.18,-173.6 6780.82,-173.6 6780.82,-173.6 6776.62,-173.6 6772.43,-169.4 6772.43,-165.2 6772.43,-165.2 6772.43,-156.8 6772.43,-156.8 6772.43,-152.6 6776.62,-148.4 6780.82,-148.4 6780.82,-148.4 6935.18,-148.4 6935.18,-148.4 6939.38,-148.4 6943.57,-152.6 6943.57,-156.8 6943.57,-156.8 6943.57,-165.2 6943.57,-165.2 6943.57,-169.4 6939.38,-173.6 6935.18,-173.6"/>
<text xml:space="preserve" text-anchor="middle" x="6858" y="-157.9" font-family="Helvetica,sans-Serif" font-size="8.00">WARP&#45;causal&#45;blame&#45;for&#45;staged&#45;artifacts &#45; L</text>
</g>
<!-- cool_ideas_WARP_codebase_entropy_trajectory -->
<g id="node50" class="node">
<title>cool_ideas_WARP_codebase_entropy_trajectory</title>
<path fill="#d4e8f7" stroke="black" d="M7145.68,-320.5C7145.68,-320.5 7006.32,-320.5 7006.32,-320.5 7002.12,-320.5 6997.93,-316.3 6997.93,-312.1 6997.93,-312.1 6997.93,-303.7 6997.93,-303.7 6997.93,-299.5 7002.12,-295.3 7006.32,-295.3 7006.32,-295.3 7145.68,-295.3 7145.68,-295.3 7149.88,-295.3 7154.07,-299.5 7154.07,-303.7 7154.07,-303.7 7154.07,-312.1 7154.07,-312.1 7154.07,-316.3 7149.88,-320.5 7145.68,-320.5"/>
<text xml:space="preserve" text-anchor="middle" x="7076" y="-304.8" font-family="Helvetica,sans-Serif" font-size="8.00">WARP&#45;codebase&#45;entropy&#45;trajectory &#45; M</text>
</g>
<!-- cool_ideas_WARP_counterfactual_refactoring -->
<g id="node52" class="node">
<title>cool_ideas_WARP_counterfactual_refactoring</title>
<path fill="#d4e8f7" stroke="black" d="M7153.68,-247.05C7153.68,-247.05 7020.32,-247.05 7020.32,-247.05 7016.12,-247.05 7011.93,-242.85 7011.93,-238.65 7011.93,-238.65 7011.93,-230.25 7011.93,-230.25 7011.93,-226.05 7016.12,-221.85 7020.32,-221.85 7020.32,-221.85 7153.68,-221.85 7153.68,-221.85 7157.88,-221.85 7162.07,-226.05 7162.07,-230.25 7162.07,-230.25 7162.07,-238.65 7162.07,-238.65 7162.07,-242.85 7157.88,-247.05 7153.68,-247.05"/>
<text xml:space="preserve" text-anchor="middle" x="7087" y="-231.35" font-family="Helvetica,sans-Serif" font-size="8.00">WARP&#45;counterfactual&#45;refactoring &#45; XL</text>
</g>
<!-- cool_ideas_WARP_codebase_entropy_trajectory&#45;&gt;cool_ideas_WARP_counterfactual_refactoring -->
<g id="edge7" class="edge">
<title>cool_ideas_WARP_codebase_entropy_trajectory&#45;&gt;cool_ideas_WARP_counterfactual_refactoring</title>
<path fill="none" stroke="#666666" d="M7077.82,-295.1C7079.54,-283.9 7082.16,-266.88 7084.16,-253.88"/>
<polygon fill="#666666" stroke="#666666" points="7085.88,-254.21 7084.91,-249 7082.42,-253.68 7085.88,-254.21"/>
<text xml:space="preserve" text-anchor="middle" x="7113.33" y="-268.65" font-family="Helvetica,sans-Serif" font-size="7.00">blocked_by/blocking</text>
</g>
<!-- cool_ideas_WARP_codebase_signature -->
<g id="node51" class="node">
<title>cool_ideas_WARP_codebase_signature</title>
<path fill="#d4e8f7" stroke="black" d="M7283.55,-320.5C7283.55,-320.5 7176.45,-320.5 7176.45,-320.5 7172.25,-320.5 7168.05,-316.3 7168.05,-312.1 7168.05,-312.1 7168.05,-303.7 7168.05,-303.7 7168.05,-299.5 7172.25,-295.3 7176.45,-295.3 7176.45,-295.3 7283.55,-295.3 7283.55,-295.3 7287.75,-295.3 7291.95,-299.5 7291.95,-303.7 7291.95,-303.7 7291.95,-312.1 7291.95,-312.1 7291.95,-316.3 7287.75,-320.5 7283.55,-320.5"/>
<text xml:space="preserve" text-anchor="middle" x="7230" y="-304.8" font-family="Helvetica,sans-Serif" font-size="8.00">WARP&#45;codebase&#45;signature &#45; L</text>
</g>
<!-- cool_ideas_WARP_structural_impact_prediction -->
<g id="node74" class="node">
<title>cool_ideas_WARP_structural_impact_prediction</title>
<path fill="#d4e8f7" stroke="black" d="M7156.3,-173.6C7156.3,-173.6 7017.7,-173.6 7017.7,-173.6 7013.5,-173.6 7009.3,-169.4 7009.3,-165.2 7009.3,-165.2 7009.3,-156.8 7009.3,-156.8 7009.3,-152.6 7013.5,-148.4 7017.7,-148.4 7017.7,-148.4 7156.3,-148.4 7156.3,-148.4 7160.5,-148.4 7164.7,-152.6 7164.7,-156.8 7164.7,-156.8 7164.7,-165.2 7164.7,-165.2 7164.7,-169.4 7160.5,-173.6 7156.3,-173.6"/>
<text xml:space="preserve" text-anchor="middle" x="7087" y="-157.9" font-family="Helvetica,sans-Serif" font-size="8.00">WARP&#45;structural&#45;impact&#45;prediction &#45; XL</text>
</g>
<!-- cool_ideas_WARP_counterfactual_refactoring&#45;&gt;cool_ideas_WARP_structural_impact_prediction -->
<g id="edge8" class="edge">
<title>cool_ideas_WARP_counterfactual_refactoring&#45;&gt;cool_ideas_WARP_structural_impact_prediction</title>
<path fill="none" stroke="#666666" d="M7087,-221.65C7087,-210.45 7087,-193.43 7087,-180.43"/>
<polygon fill="#666666" stroke="#666666" points="7088.75,-180.57 7087,-175.57 7085.25,-180.57 7088.75,-180.57"/>
<text xml:space="preserve" text-anchor="middle" x="7118.5" y="-195.2" font-family="Helvetica,sans-Serif" font-size="7.00">blocked_by/blocking</text>
</g>
<!-- cool_ideas_WARP_dead_symbol_detection -->
<g id="node53" class="node">
<title>cool_ideas_WARP_dead_symbol_detection</title>
<path fill="#d4e8f7" stroke="black" d="M7433.18,-320.5C7433.18,-320.5 7314.82,-320.5 7314.82,-320.5 7310.62,-320.5 7306.43,-316.3 7306.43,-312.1 7306.43,-312.1 7306.43,-303.7 7306.43,-303.7 7306.43,-299.5 7310.62,-295.3 7314.82,-295.3 7314.82,-295.3 7433.18,-295.3 7433.18,-295.3 7437.38,-295.3 7441.57,-299.5 7441.57,-303.7 7441.57,-303.7 7441.57,-312.1 7441.57,-312.1 7441.57,-316.3 7437.38,-320.5 7433.18,-320.5"/>
<text xml:space="preserve" text-anchor="middle" x="7374" y="-304.8" font-family="Helvetica,sans-Serif" font-size="8.00">WARP&#45;dead&#45;symbol&#45;detection &#45; S</text>
</g>
<!-- cool_ideas_WARP_degeneracy_warning -->
<g id="node54" class="node">
<title>cool_ideas_WARP_degeneracy_warning</title>
<path fill="#d4e8f7" stroke="black" d="M7576.18,-320.5C7576.18,-320.5 7463.82,-320.5 7463.82,-320.5 7459.62,-320.5 7455.43,-316.3 7455.43,-312.1 7455.43,-312.1 7455.43,-303.7 7455.43,-303.7 7455.43,-299.5 7459.62,-295.3 7463.82,-295.3 7463.82,-295.3 7576.18,-295.3 7576.18,-295.3 7580.38,-295.3 7584.57,-299.5 7584.57,-303.7 7584.57,-303.7 7584.57,-312.1 7584.57,-312.1 7584.57,-316.3 7580.38,-320.5 7576.18,-320.5"/>
<text xml:space="preserve" text-anchor="middle" x="7520" y="-304.8" font-family="Helvetica,sans-Serif" font-size="8.00">WARP&#45;degeneracy&#45;warning &#45; M</text>
</g>
<!-- cool_ideas_WARP_drift_sentinel -->
<g id="node55" class="node">
<title>cool_ideas_WARP_drift_sentinel</title>
<path fill="#d4e8f7" stroke="black" d="M9402.18,-247.05C9402.18,-247.05 9319.82,-247.05 9319.82,-247.05 9315.62,-247.05 9311.42,-242.85 9311.42,-238.65 9311.42,-238.65 9311.42,-230.25 9311.42,-230.25 9311.42,-226.05 9315.62,-221.85 9319.82,-221.85 9319.82,-221.85 9402.18,-221.85 9402.18,-221.85 9406.38,-221.85 9410.58,-226.05 9410.58,-230.25 9410.58,-230.25 9410.58,-238.65 9410.58,-238.65 9410.58,-242.85 9406.38,-247.05 9402.18,-247.05"/>
<text xml:space="preserve" text-anchor="middle" x="9361" y="-231.35" font-family="Helvetica,sans-Serif" font-size="8.00">WARP&#45;drift&#45;sentinel &#45; M</text>
</g>
<!-- cool_ideas_WARP_footprint_parallelism -->
<g id="node56" class="node">
<title>cool_ideas_WARP_footprint_parallelism</title>
<path fill="#d4e8f7" stroke="black" d="M7718.8,-320.5C7718.8,-320.5 7607.2,-320.5 7607.2,-320.5 7603,-320.5 7598.8,-316.3 7598.8,-312.1 7598.8,-312.1 7598.8,-303.7 7598.8,-303.7 7598.8,-299.5 7603,-295.3 7607.2,-295.3 7607.2,-295.3 7718.8,-295.3 7718.8,-295.3 7723,-295.3 7727.2,-299.5 7727.2,-303.7 7727.2,-303.7 7727.2,-312.1 7727.2,-312.1 7727.2,-316.3 7723,-320.5 7718.8,-320.5"/>
<text xml:space="preserve" text-anchor="middle" x="7663" y="-304.8" font-family="Helvetica,sans-Serif" font-size="8.00">WARP&#45;footprint&#45;parallelism &#45; XL</text>
</g>
<!-- cool_ideas_WARP_graft_pack -->
<g id="node57" class="node">
<title>cool_ideas_WARP_graft_pack</title>
<path fill="#d4e8f7" stroke="black" d="M7824.43,-320.5C7824.43,-320.5 7749.57,-320.5 7749.57,-320.5 7745.38,-320.5 7741.18,-316.3 7741.18,-312.1 7741.18,-312.1 7741.18,-303.7 7741.18,-303.7 7741.18,-299.5 7745.38,-295.3 7749.57,-295.3 7749.57,-295.3 7824.43,-295.3 7824.43,-295.3 7828.62,-295.3 7832.82,-299.5 7832.82,-303.7 7832.82,-303.7 7832.82,-312.1 7832.82,-312.1 7832.82,-316.3 7828.62,-320.5 7824.43,-320.5"/>
<text xml:space="preserve" text-anchor="middle" x="7787" y="-304.8" font-family="Helvetica,sans-Serif" font-size="8.00">WARP&#45;graft&#45;pack &#45; M</text>
</g>
<!-- cool_ideas_WARP_grouped_aggregate_queries -->
<g id="node58" class="node">
<title>cool_ideas_WARP_grouped_aggregate_queries</title>
<path fill="#d4e8f7" stroke="black" d="M7992.93,-320.5C7992.93,-320.5 7855.07,-320.5 7855.07,-320.5 7850.88,-320.5 7846.68,-316.3 7846.68,-312.1 7846.68,-312.1 7846.68,-303.7 7846.68,-303.7 7846.68,-299.5 7850.88,-295.3 7855.07,-295.3 7855.07,-295.3 7992.93,-295.3 7992.93,-295.3 7997.12,-295.3 8001.32,-299.5 8001.32,-303.7 8001.32,-303.7 8001.32,-312.1 8001.32,-312.1 8001.32,-316.3 7997.12,-320.5 7992.93,-320.5"/>
<text xml:space="preserve" text-anchor="middle" x="7924" y="-304.8" font-family="Helvetica,sans-Serif" font-size="8.00">WARP&#45;grouped&#45;aggregate&#45;queries &#45; M</text>
</g>
<!-- cool_ideas_WARP_intentional_degeneracy_privacy -->
<g id="node60" class="node">
<title>cool_ideas_WARP_intentional_degeneracy_privacy</title>
<path fill="#d4e8f7" stroke="black" d="M8171.8,-320.5C8171.8,-320.5 8024.2,-320.5 8024.2,-320.5 8020,-320.5 8015.8,-316.3 8015.8,-312.1 8015.8,-312.1 8015.8,-303.7 8015.8,-303.7 8015.8,-299.5 8020,-295.3 8024.2,-295.3 8024.2,-295.3 8171.8,-295.3 8171.8,-295.3 8176,-295.3 8180.2,-299.5 8180.2,-303.7 8180.2,-303.7 8180.2,-312.1 8180.2,-312.1 8180.2,-316.3 8176,-320.5 8171.8,-320.5"/>
<text xml:space="preserve" text-anchor="middle" x="8098" y="-304.8" font-family="Helvetica,sans-Serif" font-size="8.00">WARP&#45;intentional&#45;degeneracy&#45;privacy &#45; M</text>
</g>
<!-- cool_ideas_WARP_minimum_viable_context -->
<g id="node61" class="node">
<title>cool_ideas_WARP_minimum_viable_context</title>
<path fill="#d4e8f7" stroke="black" d="M8325.43,-320.5C8325.43,-320.5 8202.57,-320.5 8202.57,-320.5 8198.38,-320.5 8194.17,-316.3 8194.17,-312.1 8194.17,-312.1 8194.17,-303.7 8194.17,-303.7 8194.17,-299.5 8198.38,-295.3 8202.57,-295.3 8202.57,-295.3 8325.43,-295.3 8325.43,-295.3 8329.62,-295.3 8333.83,-299.5 8333.83,-303.7 8333.83,-303.7 8333.83,-312.1 8333.83,-312.1 8333.83,-316.3 8329.62,-320.5 8325.43,-320.5"/>
<text xml:space="preserve" text-anchor="middle" x="8264" y="-304.8" font-family="Helvetica,sans-Serif" font-size="8.00">WARP&#45;minimum&#45;viable&#45;context &#45; M</text>
</g>
<!-- cool_ideas_WARP_outline_diff_commit_trailer -->
<g id="node62" class="node">
<title>cool_ideas_WARP_outline_diff_commit_trailer</title>
<path fill="#d4e8f7" stroke="black" d="M8481.93,-320.5C8481.93,-320.5 8356.07,-320.5 8356.07,-320.5 8351.88,-320.5 8347.67,-316.3 8347.67,-312.1 8347.67,-312.1 8347.67,-303.7 8347.67,-303.7 8347.67,-299.5 8351.88,-295.3 8356.07,-295.3 8356.07,-295.3 8481.93,-295.3 8481.93,-295.3 8486.12,-295.3 8490.33,-299.5 8490.33,-303.7 8490.33,-303.7 8490.33,-312.1 8490.33,-312.1 8490.33,-316.3 8486.12,-320.5 8481.93,-320.5"/>
<text xml:space="preserve" text-anchor="middle" x="8419" y="-304.8" font-family="Helvetica,sans-Serif" font-size="8.00">WARP&#45;outline&#45;diff&#45;commit&#45;trailer &#45; S</text>
</g>
<!-- cool_ideas_WARP_projection_safety_classes -->
<g id="node63" class="node">
<title>cool_ideas_WARP_projection_safety_classes</title>
<path fill="#d4e8f7" stroke="black" d="M8638.93,-320.5C8638.93,-320.5 8513.07,-320.5 8513.07,-320.5 8508.88,-320.5 8504.67,-316.3 8504.67,-312.1 8504.67,-312.1 8504.67,-303.7 8504.67,-303.7 8504.67,-299.5 8508.88,-295.3 8513.07,-295.3 8513.07,-295.3 8638.93,-295.3 8638.93,-295.3 8643.12,-295.3 8647.33,-299.5 8647.33,-303.7 8647.33,-303.7 8647.33,-312.1 8647.33,-312.1 8647.33,-316.3 8643.12,-320.5 8638.93,-320.5"/>
<text xml:space="preserve" text-anchor="middle" x="8576" y="-304.8" font-family="Helvetica,sans-Serif" font-size="8.00">WARP&#45;projection&#45;safety&#45;classes &#45; M</text>
</g>
<!-- cool_ideas_WARP_provenance_dag&#45;&gt;cool_ideas_WARP_causal_blame_for_staged_artifacts -->
<g id="edge9" class="edge">
<title>cool_ideas_WARP_provenance_dag&#45;&gt;cool_ideas_WARP_causal_blame_for_staged_artifacts</title>
<path fill="none" stroke="#666666" d="M6796.22,-221.65C6808.46,-209.83 6827.41,-191.54 6841.09,-178.32"/>
<polygon fill="#666666" stroke="#666666" points="6842.04,-179.84 6844.43,-175.11 6839.61,-177.32 6842.04,-179.84"/>
<text xml:space="preserve" text-anchor="middle" x="6854.72" y="-195.2" font-family="Helvetica,sans-Serif" font-size="7.00">blocked_by/blocking</text>
</g>
<!-- cool_ideas_WARP_reasoning_trace_replay -->
<g id="node65" class="node">
<title>cool_ideas_WARP_reasoning_trace_replay</title>
<path fill="#d4e8f7" stroke="black" d="M6749.93,-173.6C6749.93,-173.6 6630.07,-173.6 6630.07,-173.6 6625.88,-173.6 6621.68,-169.4 6621.68,-165.2 6621.68,-165.2 6621.68,-156.8 6621.68,-156.8 6621.68,-152.6 6625.88,-148.4 6630.07,-148.4 6630.07,-148.4 6749.93,-148.4 6749.93,-148.4 6754.12,-148.4 6758.32,-152.6 6758.32,-156.8 6758.32,-156.8 6758.32,-165.2 6758.32,-165.2 6758.32,-169.4 6754.12,-173.6 6749.93,-173.6"/>
<text xml:space="preserve" text-anchor="middle" x="6690" y="-157.9" font-family="Helvetica,sans-Serif" font-size="8.00">WARP&#45;reasoning&#45;trace&#45;replay &#45; M</text>
</g>
<!-- cool_ideas_WARP_provenance_dag&#45;&gt;cool_ideas_WARP_reasoning_trace_replay -->
<g id="edge10" class="edge">
<title>cool_ideas_WARP_provenance_dag&#45;&gt;cool_ideas_WARP_reasoning_trace_replay</title>
<path fill="none" stroke="#666666" d="M6768.48,-221.65C6752.79,-209.73 6728.44,-191.22 6711.02,-177.98"/>
<polygon fill="#666666" stroke="#666666" points="6712.1,-176.6 6707.06,-174.97 6709.99,-179.39 6712.1,-176.6"/>
<text xml:space="preserve" text-anchor="middle" x="6771.32" y="-195.2" font-family="Helvetica,sans-Serif" font-size="7.00">blocked_by/blocking</text>
</g>
<!-- cool_ideas_WARP_rulial_heat_map -->
<g id="node66" class="node">
<title>cool_ideas_WARP_rulial_heat_map</title>
<path fill="#d4e8f7" stroke="black" d="M8760.3,-320.5C8760.3,-320.5 8669.7,-320.5 8669.7,-320.5 8665.5,-320.5 8661.3,-316.3 8661.3,-312.1 8661.3,-312.1 8661.3,-303.7 8661.3,-303.7 8661.3,-299.5 8665.5,-295.3 8669.7,-295.3 8669.7,-295.3 8760.3,-295.3 8760.3,-295.3 8764.5,-295.3 8768.7,-299.5 8768.7,-303.7 8768.7,-303.7 8768.7,-312.1 8768.7,-312.1 8768.7,-316.3 8764.5,-320.5 8760.3,-320.5"/>
<text xml:space="preserve" text-anchor="middle" x="8715" y="-304.8" font-family="Helvetica,sans-Serif" font-size="8.00">WARP&#45;rulial&#45;heat&#45;map &#45; L</text>
</g>
<!-- cool_ideas_WARP_semantic_drift_in_sessions -->
<g id="node67" class="node">
<title>cool_ideas_WARP_semantic_drift_in_sessions</title>
<path fill="#d4e8f7" stroke="black" d="M8920.43,-320.5C8920.43,-320.5 8791.57,-320.5 8791.57,-320.5 8787.38,-320.5 8783.17,-316.3 8783.17,-312.1 8783.17,-312.1 8783.17,-303.7 8783.17,-303.7 8783.17,-299.5 8787.38,-295.3 8791.57,-295.3 8791.57,-295.3 8920.43,-295.3 8920.43,-295.3 8924.62,-295.3 8928.83,-299.5 8928.83,-303.7 8928.83,-303.7 8928.83,-312.1 8928.83,-312.1 8928.83,-316.3 8924.62,-320.5 8920.43,-320.5"/>
<text xml:space="preserve" text-anchor="middle" x="8856" y="-304.8" font-family="Helvetica,sans-Serif" font-size="8.00">WARP&#45;semantic&#45;drift&#45;in&#45;sessions &#45; M</text>
</g>
<!-- cool_ideas_WARP_semantic_merge_conflict_prediction -->
<g id="node68" class="node">
<title>cool_ideas_WARP_semantic_merge_conflict_prediction</title>
<path fill="#d4e8f7" stroke="black" d="M10086.43,-247.05C10086.43,-247.05 9927.57,-247.05 9927.57,-247.05 9923.38,-247.05 9919.17,-242.85 9919.17,-238.65 9919.17,-238.65 9919.17,-230.25 9919.17,-230.25 9919.17,-226.05 9923.38,-221.85 9927.57,-221.85 9927.57,-221.85 10086.43,-221.85 10086.43,-221.85 10090.62,-221.85 10094.83,-226.05 10094.83,-230.25 10094.83,-230.25 10094.83,-238.65 10094.83,-238.65 10094.83,-242.85 10090.62,-247.05 10086.43,-247.05"/>
<text xml:space="preserve" text-anchor="middle" x="10007" y="-231.35" font-family="Helvetica,sans-Serif" font-size="8.00">WARP&#45;semantic&#45;merge&#45;conflict&#45;prediction &#45; L</text>
</g>
<!-- cool_ideas_WARP_session_filtration -->
<g id="node69" class="node">
<title>cool_ideas_WARP_session_filtration</title>
<path fill="#d4e8f7" stroke="black" d="M9044.8,-320.5C9044.8,-320.5 8951.2,-320.5 8951.2,-320.5 8947,-320.5 8942.8,-316.3 8942.8,-312.1 8942.8,-312.1 8942.8,-303.7 8942.8,-303.7 8942.8,-299.5 8947,-295.3 8951.2,-295.3 8951.2,-295.3 9044.8,-295.3 9044.8,-295.3 9049,-295.3 9053.2,-299.5 9053.2,-303.7 9053.2,-303.7 9053.2,-312.1 9053.2,-312.1 9053.2,-316.3 9049,-320.5 9044.8,-320.5"/>
<text xml:space="preserve" text-anchor="middle" x="8998" y="-304.8" font-family="Helvetica,sans-Serif" font-size="8.00">WARP&#45;session&#45;filtration &#45; L</text>
</g>
<!-- cool_ideas_WARP_shadow_structural_workspaces -->
<g id="node70" class="node">
<title>cool_ideas_WARP_shadow_structural_workspaces</title>
<path fill="#d4e8f7" stroke="black" d="M9226.3,-320.5C9226.3,-320.5 9075.7,-320.5 9075.7,-320.5 9071.5,-320.5 9067.3,-316.3 9067.3,-312.1 9067.3,-312.1 9067.3,-303.7 9067.3,-303.7 9067.3,-299.5 9071.5,-295.3 9075.7,-295.3 9075.7,-295.3 9226.3,-295.3 9226.3,-295.3 9230.5,-295.3 9234.7,-299.5 9234.7,-303.7 9234.7,-303.7 9234.7,-312.1 9234.7,-312.1 9234.7,-316.3 9230.5,-320.5 9226.3,-320.5"/>
<text xml:space="preserve" text-anchor="middle" x="9151" y="-304.8" font-family="Helvetica,sans-Serif" font-size="8.00">WARP&#45;shadow&#45;structural&#45;workspaces &#45; XL</text>
</g>
<!-- cool_ideas_WARP_speculative_merge -->
<g id="node71" class="node">
<title>cool_ideas_WARP_speculative_merge</title>
<path fill="#d4e8f7" stroke="black" d="M9364.55,-320.5C9364.55,-320.5 9257.45,-320.5 9257.45,-320.5 9253.25,-320.5 9249.05,-316.3 9249.05,-312.1 9249.05,-312.1 9249.05,-303.7 9249.05,-303.7 9249.05,-299.5 9253.25,-295.3 9257.45,-295.3 9257.45,-295.3 9364.55,-295.3 9364.55,-295.3 9368.75,-295.3 9372.95,-299.5 9372.95,-303.7 9372.95,-303.7 9372.95,-312.1 9372.95,-312.1 9372.95,-316.3 9368.75,-320.5 9364.55,-320.5"/>
<text xml:space="preserve" text-anchor="middle" x="9311" y="-304.8" font-family="Helvetica,sans-Serif" font-size="8.00">WARP&#45;speculative&#45;merge &#45; XL</text>
</g>
<!-- cool_ideas_WARP_stale_docs_checker -->
<g id="node72" class="node">
<title>cool_ideas_WARP_stale_docs_checker</title>
<path fill="#d4e8f7" stroke="black" d="M9500.8,-320.5C9500.8,-320.5 9395.2,-320.5 9395.2,-320.5 9391,-320.5 9386.8,-316.3 9386.8,-312.1 9386.8,-312.1 9386.8,-303.7 9386.8,-303.7 9386.8,-299.5 9391,-295.3 9395.2,-295.3 9395.2,-295.3 9500.8,-295.3 9500.8,-295.3 9505,-295.3 9509.2,-299.5 9509.2,-303.7 9509.2,-303.7 9509.2,-312.1 9509.2,-312.1 9509.2,-316.3 9505,-320.5 9500.8,-320.5"/>
<text xml:space="preserve" text-anchor="middle" x="9448" y="-304.8" font-family="Helvetica,sans-Serif" font-size="8.00">WARP&#45;stale&#45;docs&#45;checker &#45; M</text>
</g>
<!-- cool_ideas_WARP_stale_docs_checker&#45;&gt;cool_ideas_WARP_drift_sentinel -->
<g id="edge11" class="edge">
<title>cool_ideas_WARP_stale_docs_checker&#45;&gt;cool_ideas_WARP_drift_sentinel</title>
<path fill="none" stroke="#666666" d="M9433.63,-295.1C9419.11,-283.18 9396.58,-264.67 9380.46,-251.43"/>
<polygon fill="#666666" stroke="#666666" points="9381.82,-250.29 9376.85,-248.47 9379.6,-252.99 9381.82,-250.29"/>
<text xml:space="preserve" text-anchor="middle" x="9438.61" y="-268.65" font-family="Helvetica,sans-Serif" font-size="7.00">blocked_by/blocking</text>
</g>
<!-- cool_ideas_WARP_structural_drift_detection -->
<g id="node73" class="node">
<title>cool_ideas_WARP_structural_drift_detection</title>
<path fill="#d4e8f7" stroke="black" d="M9654.8,-320.5C9654.8,-320.5 9531.2,-320.5 9531.2,-320.5 9527,-320.5 9522.8,-316.3 9522.8,-312.1 9522.8,-312.1 9522.8,-303.7 9522.8,-303.7 9522.8,-299.5 9527,-295.3 9531.2,-295.3 9531.2,-295.3 9654.8,-295.3 9654.8,-295.3 9659,-295.3 9663.2,-299.5 9663.2,-303.7 9663.2,-303.7 9663.2,-312.1 9663.2,-312.1 9663.2,-316.3 9659,-320.5 9654.8,-320.5"/>
<text xml:space="preserve" text-anchor="middle" x="9593" y="-304.8" font-family="Helvetica,sans-Serif" font-size="8.00">WARP&#45;structural&#45;drift&#45;detection &#45; M</text>
</g>
<!-- cool_ideas_WARP_symbol_heatmap -->
<g id="node75" class="node">
<title>cool_ideas_WARP_symbol_heatmap</title>
<path fill="#d4e8f7" stroke="black" d="M9784.05,-320.5C9784.05,-320.5 9685.95,-320.5 9685.95,-320.5 9681.75,-320.5 9677.55,-316.3 9677.55,-312.1 9677.55,-312.1 9677.55,-303.7 9677.55,-303.7 9677.55,-299.5 9681.75,-295.3 9685.95,-295.3 9685.95,-295.3 9784.05,-295.3 9784.05,-295.3 9788.25,-295.3 9792.45,-299.5 9792.45,-303.7 9792.45,-303.7 9792.45,-312.1 9792.45,-312.1 9792.45,-316.3 9788.25,-320.5 9784.05,-320.5"/>
<text xml:space="preserve" text-anchor="middle" x="9735" y="-304.8" font-family="Helvetica,sans-Serif" font-size="8.00">WARP&#45;symbol&#45;heatmap &#45; M</text>
</g>
<!-- cool_ideas_WARP_symbol_history_timeline -->
<g id="node76" class="node">
<title>cool_ideas_WARP_symbol_history_timeline</title>
<path fill="#d4e8f7" stroke="black" d="M9933.18,-320.5C9933.18,-320.5 9814.82,-320.5 9814.82,-320.5 9810.62,-320.5 9806.42,-316.3 9806.42,-312.1 9806.42,-312.1 9806.42,-303.7 9806.42,-303.7 9806.42,-299.5 9810.62,-295.3 9814.82,-295.3 9814.82,-295.3 9933.18,-295.3 9933.18,-295.3 9937.38,-295.3 9941.58,-299.5 9941.58,-303.7 9941.58,-303.7 9941.58,-312.1 9941.58,-312.1 9941.58,-316.3 9937.38,-320.5 9933.18,-320.5"/>
<text xml:space="preserve" text-anchor="middle" x="9874" y="-304.8" font-family="Helvetica,sans-Serif" font-size="8.00">WARP&#45;symbol&#45;history&#45;timeline &#45; S</text>
</g>
<!-- cool_ideas_WARP_temporal_structural_search -->
<g id="node78" class="node">
<title>cool_ideas_WARP_temporal_structural_search</title>
<path fill="#d4e8f7" stroke="black" d="M9566.68,-247.05C9566.68,-247.05 9433.32,-247.05 9433.32,-247.05 9429.12,-247.05 9424.92,-242.85 9424.92,-238.65 9424.92,-238.65 9424.92,-230.25 9424.92,-230.25 9424.92,-226.05 9429.12,-221.85 9433.32,-221.85 9433.32,-221.85 9566.68,-221.85 9566.68,-221.85 9570.88,-221.85 9575.08,-226.05 9575.08,-230.25 9575.08,-230.25 9575.08,-238.65 9575.08,-238.65 9575.08,-242.85 9570.88,-247.05 9566.68,-247.05"/>
<text xml:space="preserve" text-anchor="middle" x="9500" y="-231.35" font-family="Helvetica,sans-Serif" font-size="8.00">WARP&#45;temporal&#45;structural&#45;search &#45; M</text>
</g>
<!-- cool_ideas_WARP_symbol_history_timeline&#45;&gt;cool_ideas_WARP_temporal_structural_search -->
<g id="edge12" class="edge">
<title>cool_ideas_WARP_symbol_history_timeline&#45;&gt;cool_ideas_WARP_temporal_structural_search</title>
<path fill="none" stroke="#666666" d="M9833.82,-294.9C9822.64,-291.97 9810.42,-289.15 9799,-287.3 9718.98,-274.33 9696.5,-291.17 9617,-275.3 9588.41,-269.59 9557.21,-258.72 9534.23,-249.77"/>
<polygon fill="#666666" stroke="#666666" points="9534.97,-248.18 9529.68,-247.98 9533.69,-251.44 9534.97,-248.18"/>
<text xml:space="preserve" text-anchor="middle" x="9648.5" y="-268.65" font-family="Helvetica,sans-Serif" font-size="7.00">blocked_by/blocking</text>
</g>
<!-- cool_ideas_WARP_technical_debt_curvature -->
<g id="node77" class="node">
<title>cool_ideas_WARP_technical_debt_curvature</title>
<path fill="#d4e8f7" stroke="black" d="M10086.43,-320.5C10086.43,-320.5 9963.57,-320.5 9963.57,-320.5 9959.38,-320.5 9955.17,-316.3 9955.17,-312.1 9955.17,-312.1 9955.17,-303.7 9955.17,-303.7 9955.17,-299.5 9959.38,-295.3 9963.57,-295.3 9963.57,-295.3 10086.43,-295.3 10086.43,-295.3 10090.62,-295.3 10094.83,-299.5 10094.83,-303.7 10094.83,-303.7 10094.83,-312.1 10094.83,-312.1 10094.83,-316.3 10090.62,-320.5 10086.43,-320.5"/>
<text xml:space="preserve" text-anchor="middle" x="10025" y="-304.8" font-family="Helvetica,sans-Serif" font-size="8.00">WARP&#45;technical&#45;debt&#45;curvature &#45; L</text>
</g>
<!-- external_git_warp_observer_geometry_ladder__Rung_2_4_ -->
<g id="node79" class="node">
<title>external_git_warp_observer_geometry_ladder__Rung_2_4_</title>
<path fill="#e8f2ff" stroke="black" d="M10290.68,-320.5C10290.68,-320.5 10127.32,-320.5 10127.32,-320.5 10123.12,-320.5 10118.92,-316.3 10118.92,-312.1 10118.92,-312.1 10118.92,-303.7 10118.92,-303.7 10118.92,-299.5 10123.12,-295.3 10127.32,-295.3 10127.32,-295.3 10290.68,-295.3 10290.68,-295.3 10294.88,-295.3 10299.08,-299.5 10299.08,-303.7 10299.08,-303.7 10299.08,-312.1 10299.08,-312.1 10299.08,-316.3 10294.88,-320.5 10290.68,-320.5"/>
<text xml:space="preserve" text-anchor="middle" x="10209" y="-304.8" font-family="Helvetica,sans-Serif" font-size="8.00">git&#45;warp observer geometry ladder (Rung 2&#45;4)</text>
</g>
<!-- external_git_warp_observer_geometry_ladder__Rung_2_4_&#45;&gt;cool_ideas_CORE_migrate_to_slice_first_reads -->
<g id="edge13" class="edge">
<title>external_git_warp_observer_geometry_ladder__Rung_2_4_&#45;&gt;cool_ideas_CORE_migrate_to_slice_first_reads</title>
<path fill="none" stroke="#4477aa" stroke-dasharray="5,2" d="M10152.54,-294.84C10137.47,-291.98 10121.17,-289.21 10106,-287.3 10021.72,-276.67 9999.71,-284.38 9915.25,-275.3 9832.44,-266.4 9812.31,-259.78 9730,-247.05 9729.86,-247.03 9729.73,-247.01 9729.59,-246.99"/>
<polygon fill="#4477aa" stroke="#4477aa" points="9730.06,-245.29 9724.85,-246.25 9729.52,-248.75 9730.06,-245.29"/>
<text xml:space="preserve" text-anchor="middle" x="9947.12" y="-268.65" font-family="Helvetica,sans-Serif" font-size="7.00">blocked_by_external</text>
</g>
<!-- unresolved_CLEAN_CODE_export_diff_semver_signature_as_patch -->
<g id="node80" class="node">
<title>unresolved_CLEAN_CODE_export_diff_semver_signature_as_patch</title>
<path fill="#f2f2f2" stroke="black" stroke-dasharray="5,2" d="M10554.3,-320.5C10554.3,-320.5 10331.7,-320.5 10331.7,-320.5 10327.5,-320.5 10323.3,-316.3 10323.3,-312.1 10323.3,-312.1 10323.3,-303.7 10323.3,-303.7 10323.3,-299.5 10327.5,-295.3 10331.7,-295.3 10331.7,-295.3 10554.3,-295.3 10554.3,-295.3 10558.5,-295.3 10562.7,-299.5 10562.7,-303.7 10562.7,-303.7 10562.7,-312.1 10562.7,-312.1 10562.7,-316.3 10558.5,-320.5 10554.3,-320.5"/>
<text xml:space="preserve" text-anchor="middle" x="10443" y="-304.8" font-family="Helvetica,sans-Serif" font-size="8.00">missing: CLEAN_CODE_export&#45;diff&#45;semver&#45;signature&#45;as&#45;patch</text>
</g>
<!-- unresolved_CLEAN_CODE_export_diff_semver_signature_as_patch&#45;&gt;cool_ideas_WARP_auto_breaking_change_detection -->
<g id="edge14" class="edge">
<title>unresolved_CLEAN_CODE_export_diff_semver_signature_as_patch&#45;&gt;cool_ideas_WARP_auto_breaking_change_detection</title>
<path fill="none" stroke="#cc3333" stroke-dasharray="5,2" d="M10366.44,-294.84C10347.99,-292.14 10328.31,-289.45 10310,-287.3 10249.63,-280.2 10234.25,-281.23 10173.75,-275.3 10057.3,-263.89 10028.21,-260.73 9912,-247.05 9911.7,-247.02 9911.41,-246.98 9911.11,-246.94"/>
<polygon fill="#cc3333" stroke="#cc3333" points="9911.47,-245.23 9906.29,-246.37 9911.05,-248.7 9911.47,-245.23"/>
<text xml:space="preserve" text-anchor="middle" x="10191.38" y="-268.65" font-family="Helvetica,sans-Serif" font-size="7.00">blocked_by</text>
</g>
<!-- unresolved_CLEAN_CODE_export_diff_semver_signature_as_patch&#45;&gt;cool_ideas_WARP_semantic_merge_conflict_prediction -->
<g id="edge15" class="edge">
<title>unresolved_CLEAN_CODE_export_diff_semver_signature_as_patch&#45;&gt;cool_ideas_WARP_semantic_merge_conflict_prediction</title>
<path fill="none" stroke="#cc3333" stroke-dasharray="5,2" d="M10369.53,-294.86C10291.24,-282.03 10167.69,-261.78 10086.99,-248.56"/>
<polygon fill="#cc3333" stroke="#cc3333" points="10087.48,-246.87 10082.26,-247.78 10086.91,-250.32 10087.48,-246.87"/>
<text xml:space="preserve" text-anchor="middle" x="10255.7" y="-268.65" font-family="Helvetica,sans-Serif" font-size="7.00">blocked_by</text>
</g>
<!-- leg_v07 -->
<g id="node81" class="node">
<title>leg_v07</title>
<path fill="#ffa07a" stroke="black" stroke-width="2" d="M10679,-320.5C10679,-320.5 10595,-320.5 10595,-320.5 10590.8,-320.5 10586.6,-316.3 10586.6,-312.1 10586.6,-312.1 10586.6,-303.7 10586.6,-303.7 10586.6,-299.5 10590.8,-295.3 10595,-295.3 10595,-295.3 10679,-295.3 10679,-295.3 10683.2,-295.3 10687.4,-299.5 10687.4,-303.7 10687.4,-303.7 10687.4,-312.1 10687.4,-312.1 10687.4,-316.3 10683.2,-320.5 10679,-320.5"/>
<text xml:space="preserve" text-anchor="middle" x="10637" y="-305.38" font-family="Helvetica,sans-Serif" font-size="7.00">v0.7.0</text>
</g>
<!-- leg_bad -->
<g id="node82" class="node">
<title>leg_bad</title>
<path fill="#f6b3b3" stroke="black" stroke-width="2" d="M10679,-247.05C10679,-247.05 10595,-247.05 10595,-247.05 10590.8,-247.05 10586.6,-242.85 10586.6,-238.65 10586.6,-238.65 10586.6,-230.25 10586.6,-230.25 10586.6,-226.05 10590.8,-221.85 10595,-221.85 10595,-221.85 10679,-221.85 10679,-221.85 10683.2,-221.85 10687.4,-226.05 10687.4,-230.25 10687.4,-230.25 10687.4,-238.65 10687.4,-238.65 10687.4,-242.85 10683.2,-247.05 10679,-247.05"/>
<text xml:space="preserve" text-anchor="middle" x="10637" y="-231.92" font-family="Helvetica,sans-Serif" font-size="7.00">bad&#45;code</text>
</g>
<!-- leg_v07&#45;&gt;leg_bad -->
<!-- leg_idea -->
<g id="node83" class="node">
<title>leg_idea</title>
<path fill="#d4e8f7" stroke="black" d="M10679,-173.6C10679,-173.6 10595,-173.6 10595,-173.6 10590.8,-173.6 10586.6,-169.4 10586.6,-165.2 10586.6,-165.2 10586.6,-156.8 10586.6,-156.8 10586.6,-152.6 10590.8,-148.4 10595,-148.4 10595,-148.4 10679,-148.4 10679,-148.4 10683.2,-148.4 10687.4,-152.6 10687.4,-156.8 10687.4,-156.8 10687.4,-165.2 10687.4,-165.2 10687.4,-169.4 10683.2,-173.6 10679,-173.6"/>
<text xml:space="preserve" text-anchor="middle" x="10637" y="-158.47" font-family="Helvetica,sans-Serif" font-size="7.00">cool&#45;ideas</text>
</g>
<!-- leg_bad&#45;&gt;leg_idea -->
<!-- leg_external -->
<g id="node84" class="node">
<title>leg_external</title>
<path fill="#e8f2ff" stroke="black" d="M10679,-107.4C10679,-107.4 10595,-107.4 10595,-107.4 10590.8,-107.4 10586.6,-103.2 10586.6,-99 10586.6,-99 10586.6,-90.6 10586.6,-90.6 10586.6,-86.4 10590.8,-82.2 10595,-82.2 10595,-82.2 10679,-82.2 10679,-82.2 10683.2,-82.2 10687.4,-86.4 10687.4,-90.6 10687.4,-90.6 10687.4,-99 10687.4,-99 10687.4,-103.2 10683.2,-107.4 10679,-107.4"/>
<text xml:space="preserve" text-anchor="middle" x="10637" y="-92.28" font-family="Helvetica,sans-Serif" font-size="7.00">external blocker</text>
</g>
<!-- leg_idea&#45;&gt;leg_external -->
<!-- leg_unresolved -->
<g id="node85" class="node">
<title>leg_unresolved</title>
<path fill="#f2f2f2" stroke="black" stroke-dasharray="5,2" d="M10679,-41.2C10679,-41.2 10595,-41.2 10595,-41.2 10590.8,-41.2 10586.6,-37 10586.6,-32.8 10586.6,-32.8 10586.6,-24.4 10586.6,-24.4 10586.6,-20.2 10590.8,-16 10595,-16 10595,-16 10679,-16 10679,-16 10683.2,-16 10687.4,-20.2 10687.4,-24.4 10687.4,-24.4 10687.4,-32.8 10687.4,-32.8 10687.4,-37 10683.2,-41.2 10679,-41.2"/>
<text xml:space="preserve" text-anchor="middle" x="10637" y="-26.08" font-family="Helvetica,sans-Serif" font-size="7.00">unresolved ref</text>
</g>
<!-- leg_external&#45;&gt;leg_unresolved -->
</g>
</svg>
