<?xml version="1.0" encoding="UTF-8" standalone="no"?>
<!DOCTYPE svg PUBLIC "-//W3C//DTD SVG 1.1//EN"
 "http://www.w3.org/Graphics/SVG/1.1/DTD/svg11.dtd">
<!-- Generated by graphviz version 14.1.2 (20260124.0452)
 -->
<!-- Title: backlog Pages: 1 -->
<svg width="8707pt" height="303pt"
 viewBox="0.00 0.00 8707.00 303.00" xmlns="http://www.w3.org/2000/svg" xmlns:xlink="http://www.w3.org/1999/xlink">
<g id="graph0" class="graph" transform="scale(1 1) rotate(0) translate(4 299.27)">
<title>backlog</title>
<polygon fill="white" stroke="none" points="-4,4 -4,-299.27 8703,-299.27 8703,4 -4,4"/>
<g id="clust1" class="cluster">
<title>cluster_graph_indexing</title>
<path fill="#fafafa" stroke="#cccccc" d="M20,-167.12C20,-167.12 253,-167.12 253,-167.12 259,-167.12 265,-173.12 265,-179.12 265,-179.12 265,-275.27 265,-275.27 265,-281.27 259,-287.27 253,-287.27 253,-287.27 20,-287.27 20,-287.27 14,-287.27 8,-281.27 8,-275.27 8,-275.27 8,-179.12 8,-179.12 8,-173.12 14,-167.12 20,-167.12"/>
<text xml:space="preserve" text-anchor="middle" x="54.25" y="-274.72" font-family="Helvetica,sans-Serif" font-size="9.00" fill="#555555">Graph Indexing (3)</text>
</g>
<g id="clust2" class="cluster">
<title>cluster_structural_queries</title>
<path fill="#fafafa" stroke="#cccccc" d="M1682,-228.32C1682,-228.32 2645,-228.32 2645,-228.32 2651,-228.32 2657,-234.32 2657,-240.32 2657,-240.32 2657,-275.27 2657,-275.27 2657,-281.27 2651,-287.27 2645,-287.27 2645,-287.27 1682,-287.27 1682,-287.27 1676,-287.27 1670,-281.27 1670,-275.27 1670,-275.27 1670,-240.32 1670,-240.32 1670,-234.32 1676,-228.32 1682,-228.32"/>
<text xml:space="preserve" text-anchor="middle" x="1721.5" y="-274.72" font-family="Helvetica,sans-Serif" font-size="9.00" fill="#555555">Structural Queries (7)</text>
</g>
<g id="clust3" class="cluster">
<title>cluster_structural_metrics</title>
<path fill="#fafafa" stroke="#cccccc" d="M2677,-105.92C2677,-105.92 3335,-105.92 3335,-105.92 3341,-105.92 3347,-111.92 3347,-117.92 3347,-117.92 3347,-275.27 3347,-275.27 3347,-281.27 3341,-287.27 3335,-287.27 3335,-287.27 2677,-287.27 2677,-287.27 2671,-287.27 2665,-281.27 2665,-275.27 2665,-275.27 2665,-117.92 2665,-117.92 2665,-111.92 2671,-105.92 2677,-105.92"/>
<text xml:space="preserve" text-anchor="middle" x="2717.62" y="-274.72" font-family="Helvetica,sans-Serif" font-size="9.00" fill="#555555">Structural Metrics (10)</text>
</g>
<g id="clust4" class="cluster">
<title>cluster_export_analysis</title>
<path fill="#fafafa" stroke="#cccccc" d="M4580,-167.12C4580,-167.12 4837,-167.12 4837,-167.12 4843,-167.12 4849,-173.12 4849,-179.12 4849,-179.12 4849,-275.27 4849,-275.27 4849,-281.27 4843,-287.27 4837,-287.27 4837,-287.27 4580,-287.27 4580,-287.27 4574,-287.27 4568,-281.27 4568,-275.27 4568,-275.27 4568,-179.12 4568,-179.12 4568,-173.12 4574,-167.12 4580,-167.12"/>
<text xml:space="preserve" text-anchor="middle" x="4614.25" y="-274.72" font-family="Helvetica,sans-Serif" font-size="9.00" fill="#555555">Export Analysis (3)</text>
</g>
<g id="clust5" class="cluster">
<title>cluster_docs_integrity</title>
<path fill="#fafafa" stroke="#cccccc" d="M4869,-167.12C4869,-167.12 5079,-167.12 5079,-167.12 5085,-167.12 5091,-173.12 5091,-179.12 5091,-179.12 5091,-275.27 5091,-275.27 5091,-281.27 5085,-287.27 5079,-287.27 5079,-287.27 4869,-287.27 4869,-287.27 4863,-287.27 4857,-281.27 4857,-275.27 4857,-275.27 4857,-179.12 4857,-179.12 4857,-173.12 4863,-167.12 4869,-167.12"/>
<text xml:space="preserve" text-anchor="middle" x="4899.5" y="-274.72" font-family="Helvetica,sans-Serif" font-size="9.00" fill="#555555">Docs Integrity (3)</text>
</g>
<g id="clust6" class="cluster">
<title>cluster_provenance</title>
<path fill="#fafafa" stroke="#cccccc" d="M5111,-105.92C5111,-105.92 5563,-105.92 5563,-105.92 5569,-105.92 5575,-111.92 5575,-117.92 5575,-117.92 5575,-275.27 5575,-275.27 5575,-281.27 5569,-287.27 5563,-287.27 5563,-287.27 5111,-287.27 5111,-287.27 5105,-287.27 5099,-281.27 5099,-275.27 5099,-275.27 5099,-117.92 5099,-117.92 5099,-111.92 5105,-105.92 5111,-105.92"/>
<text xml:space="preserve" text-anchor="middle" x="5138.5" y="-274.72" font-family="Helvetica,sans-Serif" font-size="9.00" fill="#555555">Provenance (7)</text>
</g>
<g id="clust7" class="cluster">
<title>cluster_policy</title>
<path fill="#fafafa" stroke="#cccccc" d="M3367,-105.92C3367,-105.92 4063,-105.92 4063,-105.92 4069,-105.92 4075,-111.92 4075,-117.92 4075,-117.92 4075,-275.27 4075,-275.27 4075,-281.27 4069,-287.27 4063,-287.27 4063,-287.27 3367,-287.27 3367,-287.27 3361,-287.27 3355,-281.27 3355,-275.27 3355,-275.27 3355,-117.92 3355,-117.92 3355,-111.92 3361,-105.92 3367,-105.92"/>
<text xml:space="preserve" text-anchor="middle" x="3382.12" y="-274.72" font-family="Helvetica,sans-Serif" font-size="9.00" fill="#555555">Policy (8)</text>
</g>
<g id="clust8" class="cluster">
<title>cluster_projection</title>
<path fill="#fafafa" stroke="#cccccc" d="M5595,-228.32C5595,-228.32 6422,-228.32 6422,-228.32 6428,-228.32 6434,-234.32 6434,-240.32 6434,-240.32 6434,-275.27 6434,-275.27 6434,-281.27 6428,-287.27 6422,-287.27 6422,-287.27 5595,-287.27 5595,-287.27 5589,-287.27 5583,-281.27 5583,-275.27 5583,-275.27 5583,-240.32 5583,-240.32 5583,-234.32 5589,-228.32 5595,-228.32"/>
<text xml:space="preserve" text-anchor="middle" x="5618.38" y="-274.72" font-family="Helvetica,sans-Serif" font-size="9.00" fill="#555555">Projection (7)</text>
</g>
<g id="clust9" class="cluster">
<title>cluster_speculative</title>
<path fill="#fafafa" stroke="#cccccc" d="M4095,-44.72C4095,-44.72 4548,-44.72 4548,-44.72 4554,-44.72 4560,-50.72 4560,-56.72 4560,-56.72 4560,-275.27 4560,-275.27 4560,-281.27 4554,-287.27 4548,-287.27 4548,-287.27 4095,-287.27 4095,-287.27 4089,-287.27 4083,-281.27 4083,-275.27 4083,-275.27 4083,-56.72 4083,-56.72 4083,-50.72 4089,-44.72 4095,-44.72"/>
<text xml:space="preserve" text-anchor="middle" x="4121.75" y="-274.72" font-family="Helvetica,sans-Serif" font-size="9.00" fill="#555555">Speculative (6)</text>
</g>
<g id="clust10" class="cluster">
<title>cluster_session</title>
<path fill="#fafafa" stroke="#cccccc" d="M6454,-228.32C6454,-228.32 7625,-228.32 7625,-228.32 7631,-228.32 7637,-234.32 7637,-240.32 7637,-240.32 7637,-275.27 7637,-275.27 7637,-281.27 7631,-287.27 7625,-287.27 7625,-287.27 6454,-287.27 6454,-287.27 6448,-287.27 6442,-281.27 6442,-275.27 6442,-275.27 6442,-240.32 6442,-240.32 6442,-234.32 6448,-228.32 6454,-228.32"/>
<text xml:space="preserve" text-anchor="middle" x="6475.88" y="-274.72" font-family="Helvetica,sans-Serif" font-size="9.00" fill="#555555">Session (10)</text>
</g>
<g id="clust11" class="cluster">
<title>cluster_agent_safety</title>
<path fill="#fafafa" stroke="#cccccc" d="M7657,-167.12C7657,-167.12 8419,-167.12 8419,-167.12 8425,-167.12 8431,-173.12 8431,-179.12 8431,-179.12 8431,-275.27 8431,-275.27 8431,-281.27 8425,-287.27 8419,-287.27 8419,-287.27 7657,-287.27 7657,-287.27 7651,-287.27 7645,-281.27 7645,-275.27 7645,-275.27 7645,-179.12 7645,-179.12 7645,-173.12 7651,-167.12 7657,-167.12"/>
<text xml:space="preserve" text-anchor="middle" x="7685.62" y="-274.72" font-family="Helvetica,sans-Serif" font-size="9.00" fill="#555555">Agent Safety (8)</text>
</g>
<g id="clust12" class="cluster">
<title>cluster_surface</title>
<path fill="#fafafa" stroke="#cccccc" d="M285,-167.12C285,-167.12 1650,-167.12 1650,-167.12 1656,-167.12 1662,-173.12 1662,-179.12 1662,-179.12 1662,-275.27 1662,-275.27 1662,-281.27 1656,-287.27 1650,-287.27 1650,-287.27 285,-287.27 285,-287.27 279,-287.27 273,-281.27 273,-275.27 273,-275.27 273,-179.12 273,-179.12 273,-173.12 279,-167.12 285,-167.12"/>
<text xml:space="preserve" text-anchor="middle" x="306.12" y="-274.72" font-family="Helvetica,sans-Serif" font-size="9.00" fill="#555555">Surface (13)</text>
</g>
<g id="clust13" class="cluster">
<title>cluster_daemon</title>
<path fill="#fafafa" stroke="#cccccc" d="M8451,-105.92C8451,-105.92 8591,-105.92 8591,-105.92 8597,-105.92 8603,-111.92 8603,-117.92 8603,-117.92 8603,-275.27 8603,-275.27 8603,-281.27 8597,-287.27 8591,-287.27 8591,-287.27 8451,-287.27 8451,-287.27 8445,-287.27 8439,-281.27 8439,-275.27 8439,-275.27 8439,-117.92 8439,-117.92 8439,-111.92 8445,-105.92 8451,-105.92"/>
<text xml:space="preserve" text-anchor="middle" x="8471.38" y="-274.72" font-family="Helvetica,sans-Serif" font-size="9.00" fill="#555555">Daemon (3)</text>
</g>
<g id="clust14" class="cluster">
<title>cluster_legend</title>
<path fill="none" stroke="#dddddd" d="M8623,-8C8623,-8 8679,-8 8679,-8 8685,-8 8691,-14 8691,-20 8691,-20 8691,-274.52 8691,-274.52 8691,-280.52 8685,-286.52 8679,-286.52 8679,-286.52 8623,-286.52 8623,-286.52 8617,-286.52 8611,-280.52 8611,-274.52 8611,-274.52 8611,-20 8611,-20 8611,-14 8617,-8 8623,-8"/>
<text xml:space="preserve" text-anchor="middle" x="8632.5" y="-274.92" font-family="Helvetica,sans-Serif" font-size="8.00" fill="#aaaaaa">Legend</text>
</g>
<!-- WARP_background_indexing -->
<g id="node1" class="node">
<title>WARP_background_indexing</title>
<path fill="#b0d4f1" stroke="black" stroke-width="2" d="M116.68,-200.32C116.68,-200.32 31.32,-200.32 31.32,-200.32 27.12,-200.32 22.92,-196.12 22.92,-191.92 22.92,-191.92 22.92,-183.52 22.92,-183.52 22.92,-179.32 27.12,-175.12 31.32,-175.12 31.32,-175.12 116.68,-175.12 116.68,-175.12 120.88,-175.12 125.08,-179.32 125.08,-183.52 125.08,-183.52 125.08,-191.92 125.08,-191.92 125.08,-196.12 120.88,-200.32 116.68,-200.32"/>
<text xml:space="preserve" text-anchor="middle" x="74" y="-184.62" font-family="Helvetica,sans-Serif" font-size="8.00">background&#45;indexing · M</text>
</g>
<!-- monitor_tick_ceiling_tracking -->
<g id="node2" class="node">
<title>monitor_tick_ceiling_tracking</title>
<path fill="#d4e8f7" stroke="black" stroke-width="2" d="M123.42,-261.52C123.42,-261.52 24.58,-261.52 24.58,-261.52 20.38,-261.52 16.18,-257.32 16.18,-253.12 16.18,-253.12 16.18,-244.72 16.18,-244.72 16.18,-240.52 20.38,-236.32 24.58,-236.32 24.58,-236.32 123.42,-236.32 123.42,-236.32 127.62,-236.32 131.82,-240.52 131.82,-244.72 131.82,-244.72 131.82,-253.12 131.82,-253.12 131.82,-257.32 127.62,-261.52 123.42,-261.52"/>
<text xml:space="preserve" text-anchor="middle" x="74" y="-245.82" font-family="Helvetica,sans-Serif" font-size="8.00">monitor&#45;tick&#45;ceiling&#45;trac... · S</text>
</g>
<!-- monitor_tick_ceiling_tracking&#45;&gt;WARP_background_indexing -->
<g id="edge10" class="edge">
<title>monitor_tick_ceiling_tracking&#45;&gt;WARP_background_indexing</title>
<path fill="none" stroke="#888888" d="M74,-235.37C74,-227.28 74,-216.62 74,-207.54"/>
<polygon fill="#888888" stroke="#888888" points="75.75,-207.77 74,-202.77 72.25,-207.77 75.75,-207.77"/>
</g>
<!-- WARP_outline_diff_commit_trailer -->
<g id="node3" class="node">
<title>WARP_outline_diff_commit_trailer</title>
<path fill="#d4e8f7" stroke="black" d="M249.05,-261.52C249.05,-261.52 150.95,-261.52 150.95,-261.52 146.75,-261.52 142.55,-257.32 142.55,-253.12 142.55,-253.12 142.55,-244.72 142.55,-244.72 142.55,-240.52 146.75,-236.32 150.95,-236.32 150.95,-236.32 249.05,-236.32 249.05,-236.32 253.25,-236.32 257.45,-240.52 257.45,-244.72 257.45,-244.72 257.45,-253.12 257.45,-253.12 257.45,-257.32 253.25,-261.52 249.05,-261.52"/>
<text xml:space="preserve" text-anchor="middle" x="200" y="-245.82" font-family="Helvetica,sans-Serif" font-size="8.00">outline&#45;diff&#45;commit&#45;trailer · S</text>
</g>
<!-- CORE_migrate_path_ops_to_port -->
<g id="node4" class="node">
<title>CORE_migrate_path_ops_to_port</title>
<path fill="#ffa07a" stroke="black" stroke-width="2" d="M1793.92,-261.52C1793.92,-261.52 1686.08,-261.52 1686.08,-261.52 1681.88,-261.52 1677.67,-257.32 1677.67,-253.12 1677.67,-253.12 1677.67,-244.72 1677.67,-244.72 1677.67,-240.52 1681.88,-236.32 1686.08,-236.32 1686.08,-236.32 1793.92,-236.32 1793.92,-236.32 1798.12,-236.32 1802.33,-240.52 1802.33,-244.72 1802.33,-244.72 1802.33,-253.12 1802.33,-253.12 1802.33,-257.32 1798.12,-261.52 1793.92,-261.52"/>
<text xml:space="preserve" text-anchor="middle" x="1740" y="-245.82" font-family="Helvetica,sans-Serif" font-size="8.00">migrate&#45;path&#45;ops&#45;to&#45;port [v0.7]</text>
</g>
<!-- CORE_rewrite_structural_blame_to_use_warp_worldline_provenance -->
<g id="node5" class="node">
<title>CORE_rewrite_structural_blame_to_use_warp_worldline_provenance</title>
<path fill="#ffa07a" stroke="black" stroke-width="2" d="M1936.3,-261.52C1936.3,-261.52 1821.7,-261.52 1821.7,-261.52 1817.5,-261.52 1813.3,-257.32 1813.3,-253.12 1813.3,-253.12 1813.3,-244.72 1813.3,-244.72 1813.3,-240.52 1817.5,-236.32 1821.7,-236.32 1821.7,-236.32 1936.3,-236.32 1936.3,-236.32 1940.5,-236.32 1944.7,-240.52 1944.7,-244.72 1944.7,-244.72 1944.7,-253.12 1944.7,-253.12 1944.7,-257.32 1940.5,-261.52 1936.3,-261.52"/>
<text xml:space="preserve" text-anchor="middle" x="1879" y="-245.82" font-family="Helvetica,sans-Serif" font-size="8.00">rewrite&#45;structural&#45;blame&#45;... [v0.7]</text>
</g>
<!-- CORE_git_graft_enhance -->
<g id="node76" class="node">
<title>CORE_git_graft_enhance</title>
<path fill="#ffa07a" stroke="black" d="M1645.42,-200.32C1645.42,-200.32 1564.58,-200.32 1564.58,-200.32 1560.38,-200.32 1556.17,-196.12 1556.17,-191.92 1556.17,-191.92 1556.17,-183.52 1556.17,-183.52 1556.17,-179.32 1560.38,-175.12 1564.58,-175.12 1564.58,-175.12 1645.42,-175.12 1645.42,-175.12 1649.62,-175.12 1653.83,-179.32 1653.83,-183.52 1653.83,-183.52 1653.83,-191.92 1653.83,-191.92 1653.83,-196.12 1649.62,-200.32 1645.42,-200.32"/>
<text xml:space="preserve" text-anchor="middle" x="1605" y="-184.62" font-family="Helvetica,sans-Serif" font-size="8.00">git&#45;graft&#45;enhance [v0.7]</text>
</g>
<!-- CORE_rewrite_structural_blame_to_use_warp_worldline_provenance&#45;&gt;CORE_git_graft_enhance -->
<g id="edge19" class="edge">
<title>CORE_rewrite_structural_blame_to_use_warp_worldline_provenance&#45;&gt;CORE_git_graft_enhance</title>
<path fill="none" stroke="#cc3333" stroke-width="2" stroke-dasharray="5,2" d="M1835.58,-235.37C1826.5,-232.9 1816.96,-230.43 1808,-228.32 1758.91,-216.77 1702.58,-205.98 1661.73,-198.58"/>
<polygon fill="#cc3333" stroke="#cc3333" stroke-width="2" points="1662.25,-196.9 1657.01,-197.73 1661.63,-200.34 1662.25,-196.9"/>
</g>
<!-- CORE_rewrite_structural_churn_to_use_warp_aggregate_queries -->
<g id="node6" class="node">
<title>CORE_rewrite_structural_churn_to_use_warp_aggregate_queries</title>
<path fill="#ffa07a" stroke="black" stroke-width="2" d="M2077.55,-261.52C2077.55,-261.52 1964.45,-261.52 1964.45,-261.52 1960.25,-261.52 1956.05,-257.32 1956.05,-253.12 1956.05,-253.12 1956.05,-244.72 1956.05,-244.72 1956.05,-240.52 1960.25,-236.32 1964.45,-236.32 1964.45,-236.32 2077.55,-236.32 2077.55,-236.32 2081.75,-236.32 2085.95,-240.52 2085.95,-244.72 2085.95,-244.72 2085.95,-253.12 2085.95,-253.12 2085.95,-257.32 2081.75,-261.52 2077.55,-261.52"/>
<text xml:space="preserve" text-anchor="middle" x="2021" y="-245.82" font-family="Helvetica,sans-Serif" font-size="8.00">rewrite&#45;structural&#45;churn&#45;... [v0.7]</text>
</g>
<!-- WARP_refactor_difficulty_score -->
<g id="node12" class="node">
<title>WARP_refactor_difficulty_score</title>
<path fill="#ffa07a" stroke="black" stroke-width="2" d="M2782.17,-200.32C2782.17,-200.32 2681.83,-200.32 2681.83,-200.32 2677.62,-200.32 2673.43,-196.12 2673.43,-191.92 2673.43,-191.92 2673.43,-183.52 2673.43,-183.52 2673.43,-179.32 2677.62,-175.12 2681.83,-175.12 2681.83,-175.12 2782.17,-175.12 2782.17,-175.12 2786.38,-175.12 2790.57,-179.32 2790.57,-183.52 2790.57,-183.52 2790.57,-191.92 2790.57,-191.92 2790.57,-196.12 2786.38,-200.32 2782.17,-200.32"/>
<text xml:space="preserve" text-anchor="middle" x="2732" y="-184.62" font-family="Helvetica,sans-Serif" font-size="8.00">refactor&#45;difficulty&#45;score [v0.7]</text>
</g>
<!-- CORE_rewrite_structural_churn_to_use_warp_aggregate_queries&#45;&gt;WARP_refactor_difficulty_score -->
<g id="edge21" class="edge">
<title>CORE_rewrite_structural_churn_to_use_warp_aggregate_queries&#45;&gt;WARP_refactor_difficulty_score</title>
<path fill="none" stroke="#cc3333" stroke-width="2" stroke-dasharray="5,2" d="M2060.28,-235.35C2070.21,-232.61 2080.92,-230.02 2091,-228.32 2298.15,-193.33 2547.61,-188.39 2664.88,-188.23"/>
<polygon fill="#cc3333" stroke="#cc3333" stroke-width="2" points="2664.73,-189.98 2669.73,-188.22 2664.73,-186.48 2664.73,-189.98"/>
</g>
<!-- WARP_codebase_entropy_trajectory -->
<g id="node16" class="node">
<title>WARP_codebase_entropy_trajectory</title>
<path fill="#b0d4f1" stroke="black" d="M2921.8,-200.32C2921.8,-200.32 2810.2,-200.32 2810.2,-200.32 2806,-200.32 2801.8,-196.12 2801.8,-191.92 2801.8,-191.92 2801.8,-183.52 2801.8,-183.52 2801.8,-179.32 2806,-175.12 2810.2,-175.12 2810.2,-175.12 2921.8,-175.12 2921.8,-175.12 2926,-175.12 2930.2,-179.32 2930.2,-183.52 2930.2,-183.52 2930.2,-191.92 2930.2,-191.92 2930.2,-196.12 2926,-200.32 2921.8,-200.32"/>
<text xml:space="preserve" text-anchor="middle" x="2866" y="-184.62" font-family="Helvetica,sans-Serif" font-size="8.00">codebase&#45;entropy&#45;trajectory · M</text>
</g>
<!-- CORE_rewrite_structural_churn_to_use_warp_aggregate_queries&#45;&gt;WARP_codebase_entropy_trajectory -->
<g id="edge20" class="edge">
<title>CORE_rewrite_structural_churn_to_use_warp_aggregate_queries&#45;&gt;WARP_codebase_entropy_trajectory</title>
<path fill="none" stroke="#cc3333" stroke-width="2" stroke-dasharray="5,2" d="M2059.52,-235.4C2069.66,-232.58 2080.65,-229.95 2091,-228.32 2398.18,-179.9 2482.65,-231.37 2793.72,-200.5"/>
<polygon fill="#cc3333" stroke="#cc3333" stroke-width="2" points="2793.77,-202.25 2798.57,-200.01 2793.42,-198.77 2793.77,-202.25"/>
</g>
<!-- CORE_rewrite_structural_log_to_use_warp_worldline_queries -->
<g id="node7" class="node">
<title>CORE_rewrite_structural_log_to_use_warp_worldline_queries</title>
<path fill="#ffa07a" stroke="black" stroke-width="2" d="M2215.05,-261.52C2215.05,-261.52 2104.95,-261.52 2104.95,-261.52 2100.75,-261.52 2096.55,-257.32 2096.55,-253.12 2096.55,-253.12 2096.55,-244.72 2096.55,-244.72 2096.55,-240.52 2100.75,-236.32 2104.95,-236.32 2104.95,-236.32 2215.05,-236.32 2215.05,-236.32 2219.25,-236.32 2223.45,-240.52 2223.45,-244.72 2223.45,-244.72 2223.45,-253.12 2223.45,-253.12 2223.45,-257.32 2219.25,-261.52 2215.05,-261.52"/>
<text xml:space="preserve" text-anchor="middle" x="2160" y="-245.82" font-family="Helvetica,sans-Serif" font-size="8.00">rewrite&#45;structural&#45;log&#45;to... [v0.7]</text>
</g>
<!-- reference_count_uses_ripgrep -->
<g id="node8" class="node">
<title>reference_count_uses_ripgrep</title>
<path fill="#b0d4f1" stroke="black" stroke-width="2" d="M2359.05,-261.52C2359.05,-261.52 2242.95,-261.52 2242.95,-261.52 2238.75,-261.52 2234.55,-257.32 2234.55,-253.12 2234.55,-253.12 2234.55,-244.72 2234.55,-244.72 2234.55,-240.52 2238.75,-236.32 2242.95,-236.32 2242.95,-236.32 2359.05,-236.32 2359.05,-236.32 2363.25,-236.32 2367.45,-240.52 2367.45,-244.72 2367.45,-244.72 2367.45,-253.12 2367.45,-253.12 2367.45,-257.32 2363.25,-261.52 2359.05,-261.52"/>
<text xml:space="preserve" text-anchor="middle" x="2301" y="-245.82" font-family="Helvetica,sans-Serif" font-size="8.00">reference&#45;count&#45;uses&#45;ripgrep · M</text>
</g>
<!-- bounded_neighborhood_for_references -->
<g id="node9" class="node">
<title>bounded_neighborhood_for_references</title>
<path fill="#d4e8f7" stroke="black" d="M2503.05,-261.52C2503.05,-261.52 2386.95,-261.52 2386.95,-261.52 2382.75,-261.52 2378.55,-257.32 2378.55,-253.12 2378.55,-253.12 2378.55,-244.72 2378.55,-244.72 2378.55,-240.52 2382.75,-236.32 2386.95,-236.32 2386.95,-236.32 2503.05,-236.32 2503.05,-236.32 2507.25,-236.32 2511.45,-240.52 2511.45,-244.72 2511.45,-244.72 2511.45,-253.12 2511.45,-253.12 2511.45,-257.32 2507.25,-261.52 2503.05,-261.52"/>
<text xml:space="preserve" text-anchor="middle" x="2445" y="-245.82" font-family="Helvetica,sans-Serif" font-size="8.00">bounded&#45;neighborhood&#45;for&#45;... · S</text>
</g>
<!-- traverse_plus_query_hydration_helper -->
<g id="node10" class="node">
<title>traverse_plus_query_hydration_helper</title>
<path fill="#d4e8f7" stroke="black" d="M2640.67,-261.52C2640.67,-261.52 2531.33,-261.52 2531.33,-261.52 2527.12,-261.52 2522.93,-257.32 2522.93,-253.12 2522.93,-253.12 2522.93,-244.72 2522.93,-244.72 2522.93,-240.52 2527.12,-236.32 2531.33,-236.32 2531.33,-236.32 2640.67,-236.32 2640.67,-236.32 2644.88,-236.32 2649.07,-240.52 2649.07,-244.72 2649.07,-244.72 2649.07,-253.12 2649.07,-253.12 2649.07,-257.32 2644.88,-261.52 2640.67,-261.52"/>
<text xml:space="preserve" text-anchor="middle" x="2586" y="-245.82" font-family="Helvetica,sans-Serif" font-size="8.00">traverse&#45;plus&#45;query&#45;hydra... · S</text>
</g>
<!-- WARP_dead_symbol_detection -->
<g id="node11" class="node">
<title>WARP_dead_symbol_detection</title>
<path fill="#d4e8f7" stroke="black" stroke-width="2" d="M2772.3,-261.52C2772.3,-261.52 2681.7,-261.52 2681.7,-261.52 2677.5,-261.52 2673.3,-257.32 2673.3,-253.12 2673.3,-253.12 2673.3,-244.72 2673.3,-244.72 2673.3,-240.52 2677.5,-236.32 2681.7,-236.32 2681.7,-236.32 2772.3,-236.32 2772.3,-236.32 2776.5,-236.32 2780.7,-240.52 2780.7,-244.72 2780.7,-244.72 2780.7,-253.12 2780.7,-253.12 2780.7,-257.32 2776.5,-261.52 2772.3,-261.52"/>
<text xml:space="preserve" text-anchor="middle" x="2727" y="-245.82" font-family="Helvetica,sans-Serif" font-size="8.00">dead&#45;symbol&#45;detection · S</text>
</g>
<!-- WARP_technical_debt_curvature -->
<g id="node19" class="node">
<title>WARP_technical_debt_curvature</title>
<path fill="#8ec5e5" stroke="black" d="M2779.55,-139.12C2779.55,-139.12 2684.45,-139.12 2684.45,-139.12 2680.25,-139.12 2676.05,-134.92 2676.05,-130.72 2676.05,-130.72 2676.05,-122.32 2676.05,-122.32 2676.05,-118.12 2680.25,-113.92 2684.45,-113.92 2684.45,-113.92 2779.55,-113.92 2779.55,-113.92 2783.75,-113.92 2787.95,-118.12 2787.95,-122.32 2787.95,-122.32 2787.95,-130.72 2787.95,-130.72 2787.95,-134.92 2783.75,-139.12 2779.55,-139.12"/>
<text xml:space="preserve" text-anchor="middle" x="2732" y="-123.42" font-family="Helvetica,sans-Serif" font-size="8.00">technical&#45;debt&#45;curvature · L</text>
</g>
<!-- WARP_refactor_difficulty_score&#45;&gt;WARP_technical_debt_curvature -->
<g id="edge12" class="edge">
<title>WARP_refactor_difficulty_score&#45;&gt;WARP_technical_debt_curvature</title>
<path fill="none" stroke="#888888" d="M2732,-174.17C2732,-165.86 2732,-154.85 2732,-145.6"/>
<polygon fill="#888888" stroke="#888888" points="2733.75,-145.76 2732,-140.76 2730.25,-145.76 2733.75,-145.76"/>
</g>
<!-- CORE_lagrangian_policy -->
<g id="node34" class="node">
<title>CORE_lagrangian_policy</title>
<path fill="#7eb6e0" stroke="black" stroke-width="2" d="M3445.05,-139.12C3445.05,-139.12 3370.95,-139.12 3370.95,-139.12 3366.75,-139.12 3362.55,-134.92 3362.55,-130.72 3362.55,-130.72 3362.55,-122.32 3362.55,-122.32 3362.55,-118.12 3366.75,-113.92 3370.95,-113.92 3370.95,-113.92 3445.05,-113.92 3445.05,-113.92 3449.25,-113.92 3453.45,-118.12 3453.45,-122.32 3453.45,-122.32 3453.45,-130.72 3453.45,-130.72 3453.45,-134.92 3449.25,-139.12 3445.05,-139.12"/>
<text xml:space="preserve" text-anchor="middle" x="3408" y="-123.42" font-family="Helvetica,sans-Serif" font-size="8.00">lagrangian&#45;policy · XL</text>
</g>
<!-- WARP_refactor_difficulty_score&#45;&gt;CORE_lagrangian_policy -->
<g id="edge23" class="edge">
<title>WARP_refactor_difficulty_score&#45;&gt;CORE_lagrangian_policy</title>
<path fill="none" stroke="#cc3333" stroke-width="2" stroke-dasharray="5,2" d="M2767.5,-174.15C2776.68,-171.37 2786.61,-168.77 2796,-167.12 3038.38,-124.54 3104.75,-169.16 3349,-139.12 3350.68,-138.91 3352.39,-138.69 3354.11,-138.44"/>
<polygon fill="#cc3333" stroke="#cc3333" stroke-width="2" points="3354.05,-140.22 3358.73,-137.73 3353.52,-136.76 3354.05,-140.22"/>
</g>
<!-- WARP_symbol_history_timeline -->
<g id="node13" class="node">
<title>WARP_symbol_history_timeline</title>
<path fill="#d4e8f7" stroke="black" stroke-width="2" d="M2890.3,-261.52C2890.3,-261.52 2799.7,-261.52 2799.7,-261.52 2795.5,-261.52 2791.3,-257.32 2791.3,-253.12 2791.3,-253.12 2791.3,-244.72 2791.3,-244.72 2791.3,-240.52 2795.5,-236.32 2799.7,-236.32 2799.7,-236.32 2890.3,-236.32 2890.3,-236.32 2894.5,-236.32 2898.7,-240.52 2898.7,-244.72 2898.7,-244.72 2898.7,-253.12 2898.7,-253.12 2898.7,-257.32 2894.5,-261.52 2890.3,-261.52"/>
<text xml:space="preserve" text-anchor="middle" x="2845" y="-245.82" font-family="Helvetica,sans-Serif" font-size="8.00">symbol&#45;history&#45;timeline · S</text>
</g>
<!-- WARP_temporal_structural_search -->
<g id="node20" class="node">
<title>WARP_temporal_structural_search</title>
<path fill="#b0d4f1" stroke="black" d="M3054.8,-200.32C3054.8,-200.32 2949.2,-200.32 2949.2,-200.32 2945,-200.32 2940.8,-196.12 2940.8,-191.92 2940.8,-191.92 2940.8,-183.52 2940.8,-183.52 2940.8,-179.32 2945,-175.12 2949.2,-175.12 2949.2,-175.12 3054.8,-175.12 3054.8,-175.12 3059,-175.12 3063.2,-179.32 3063.2,-183.52 3063.2,-183.52 3063.2,-191.92 3063.2,-191.92 3063.2,-196.12 3059,-200.32 3054.8,-200.32"/>
<text xml:space="preserve" text-anchor="middle" x="3002" y="-184.62" font-family="Helvetica,sans-Serif" font-size="8.00">temporal&#45;structural&#45;search · M</text>
</g>
<!-- WARP_symbol_history_timeline&#45;&gt;WARP_temporal_structural_search -->
<g id="edge1" class="edge">
<title>WARP_symbol_history_timeline&#45;&gt;WARP_temporal_structural_search</title>
<path fill="none" stroke="#888888" d="M2878.3,-235.37C2903.48,-225.87 2938.09,-212.82 2964.3,-202.94"/>
<polygon fill="#888888" stroke="#888888" points="2964.62,-204.69 2968.68,-201.29 2963.38,-201.41 2964.62,-204.69"/>
</g>
<!-- CORE_constructor_in_disguise_lint -->
<g id="node14" class="node">
<title>CORE_constructor_in_disguise_lint</title>
<path fill="#b0d4f1" stroke="black" d="M3022.05,-261.52C3022.05,-261.52 2917.95,-261.52 2917.95,-261.52 2913.75,-261.52 2909.55,-257.32 2909.55,-253.12 2909.55,-253.12 2909.55,-244.72 2909.55,-244.72 2909.55,-240.52 2913.75,-236.32 2917.95,-236.32 2917.95,-236.32 3022.05,-236.32 3022.05,-236.32 3026.25,-236.32 3030.45,-240.52 3030.45,-244.72 3030.45,-244.72 3030.45,-253.12 3030.45,-253.12 3030.45,-257.32 3026.25,-261.52 3022.05,-261.52"/>
<text xml:space="preserve" text-anchor="middle" x="2970" y="-245.82" font-family="Helvetica,sans-Serif" font-size="8.00">constructor&#45;in&#45;disguise&#45;lint · M</text>
</g>
<!-- CORE_sludge_detector -->
<g id="node15" class="node">
<title>CORE_sludge_detector</title>
<path fill="#ffa07a" stroke="black" d="M3124.42,-261.52C3124.42,-261.52 3049.58,-261.52 3049.58,-261.52 3045.38,-261.52 3041.18,-257.32 3041.18,-253.12 3041.18,-253.12 3041.18,-244.72 3041.18,-244.72 3041.18,-240.52 3045.38,-236.32 3049.58,-236.32 3049.58,-236.32 3124.42,-236.32 3124.42,-236.32 3128.62,-236.32 3132.82,-240.52 3132.82,-244.72 3132.82,-244.72 3132.82,-253.12 3132.82,-253.12 3132.82,-257.32 3128.62,-261.52 3124.42,-261.52"/>
<text xml:space="preserve" text-anchor="middle" x="3087" y="-245.82" font-family="Helvetica,sans-Serif" font-size="8.00">sludge&#45;detector [v0.7]</text>
</g>
<!-- WARP_counterfactual_refactoring -->
<g id="node49" class="node">
<title>WARP_counterfactual_refactoring</title>
<path fill="#7eb6e0" stroke="black" stroke-width="2" d="M4205.8,-139.12C4205.8,-139.12 4100.2,-139.12 4100.2,-139.12 4096,-139.12 4091.8,-134.92 4091.8,-130.72 4091.8,-130.72 4091.8,-122.32 4091.8,-122.32 4091.8,-118.12 4096,-113.92 4100.2,-113.92 4100.2,-113.92 4205.8,-113.92 4205.8,-113.92 4210,-113.92 4214.2,-118.12 4214.2,-122.32 4214.2,-122.32 4214.2,-130.72 4214.2,-130.72 4214.2,-134.92 4210,-139.12 4205.8,-139.12"/>
<text xml:space="preserve" text-anchor="middle" x="4153" y="-123.42" font-family="Helvetica,sans-Serif" font-size="8.00">counterfactual&#45;refactoring · XL</text>
</g>
<!-- WARP_codebase_entropy_trajectory&#45;&gt;WARP_counterfactual_refactoring -->
<g id="edge22" class="edge">
<title>WARP_codebase_entropy_trajectory&#45;&gt;WARP_counterfactual_refactoring</title>
<path fill="none" stroke="#cc3333" stroke-width="2" stroke-dasharray="5,2" d="M2901.79,-174.7C2912.36,-171.66 2924.04,-168.78 2935,-167.12 3185.98,-129.02 3824.13,-161.43 4077,-139.12 4078.98,-138.95 4080.98,-138.75 4083,-138.54"/>
<polygon fill="#cc3333" stroke="#cc3333" stroke-width="2" points="4083.08,-140.29 4087.86,-138 4082.69,-136.82 4083.08,-140.29"/>
</g>
<!-- WARP_codebase_signature -->
<g id="node17" class="node">
<title>WARP_codebase_signature</title>
<path fill="#8ec5e5" stroke="black" d="M3231.67,-261.52C3231.67,-261.52 3152.33,-261.52 3152.33,-261.52 3148.12,-261.52 3143.93,-257.32 3143.93,-253.12 3143.93,-253.12 3143.93,-244.72 3143.93,-244.72 3143.93,-240.52 3148.12,-236.32 3152.33,-236.32 3152.33,-236.32 3231.67,-236.32 3231.67,-236.32 3235.88,-236.32 3240.07,-240.52 3240.07,-244.72 3240.07,-244.72 3240.07,-253.12 3240.07,-253.12 3240.07,-257.32 3235.88,-261.52 3231.67,-261.52"/>
<text xml:space="preserve" text-anchor="middle" x="3192" y="-245.82" font-family="Helvetica,sans-Serif" font-size="8.00">codebase&#45;signature · L</text>
</g>
<!-- WARP_symbol_heatmap -->
<g id="node18" class="node">
<title>WARP_symbol_heatmap</title>
<path fill="#b0d4f1" stroke="black" d="M3330.17,-261.52C3330.17,-261.52 3259.83,-261.52 3259.83,-261.52 3255.62,-261.52 3251.43,-257.32 3251.43,-253.12 3251.43,-253.12 3251.43,-244.72 3251.43,-244.72 3251.43,-240.52 3255.62,-236.32 3259.83,-236.32 3259.83,-236.32 3330.17,-236.32 3330.17,-236.32 3334.38,-236.32 3338.57,-240.52 3338.57,-244.72 3338.57,-244.72 3338.57,-253.12 3338.57,-253.12 3338.57,-257.32 3334.38,-261.52 3330.17,-261.52"/>
<text xml:space="preserve" text-anchor="middle" x="3295" y="-245.82" font-family="Helvetica,sans-Serif" font-size="8.00">symbol&#45;heatmap · M</text>
</g>
<!-- CLEAN_CODE_export_diff_semver_signature_as_patch -->
<g id="node21" class="node">
<title>CLEAN_CODE_export_diff_semver_signature_as_patch</title>
<path fill="#ffa07a" stroke="black" stroke-width="2" d="M4765.68,-261.52C4765.68,-261.52 4650.32,-261.52 4650.32,-261.52 4646.12,-261.52 4641.93,-257.32 4641.93,-253.12 4641.93,-253.12 4641.93,-244.72 4641.93,-244.72 4641.93,-240.52 4646.12,-236.32 4650.32,-236.32 4650.32,-236.32 4765.68,-236.32 4765.68,-236.32 4769.88,-236.32 4774.07,-240.52 4774.07,-244.72 4774.07,-244.72 4774.07,-253.12 4774.07,-253.12 4774.07,-257.32 4769.88,-261.52 4765.68,-261.52"/>
<text xml:space="preserve" text-anchor="middle" x="4708" y="-245.82" font-family="Helvetica,sans-Serif" font-size="8.00">export&#45;diff&#45;semver&#45;signat... [v0.7]</text>
</g>
<!-- WARP_auto_breaking_change_detection -->
<g id="node22" class="node">
<title>WARP_auto_breaking_change_detection</title>
<path fill="#8ec5e5" stroke="black" stroke-width="2" d="M4697.55,-200.32C4697.55,-200.32 4584.45,-200.32 4584.45,-200.32 4580.25,-200.32 4576.05,-196.12 4576.05,-191.92 4576.05,-191.92 4576.05,-183.52 4576.05,-183.52 4576.05,-179.32 4580.25,-175.12 4584.45,-175.12 4584.45,-175.12 4697.55,-175.12 4697.55,-175.12 4701.75,-175.12 4705.95,-179.32 4705.95,-183.52 4705.95,-183.52 4705.95,-191.92 4705.95,-191.92 4705.95,-196.12 4701.75,-200.32 4697.55,-200.32"/>
<text xml:space="preserve" text-anchor="middle" x="4641" y="-184.62" font-family="Helvetica,sans-Serif" font-size="8.00">auto&#45;breaking&#45;change&#45;dete... · L</text>
</g>
<!-- CLEAN_CODE_export_diff_semver_signature_as_patch&#45;&gt;WARP_auto_breaking_change_detection -->
<g id="edge17" class="edge">
<title>CLEAN_CODE_export_diff_semver_signature_as_patch&#45;&gt;WARP_auto_breaking_change_detection</title>
<path fill="none" stroke="#888888" d="M4693.79,-235.37C4683.93,-226.65 4670.69,-214.95 4659.93,-205.45"/>
<polygon fill="#888888" stroke="#888888" points="4661.23,-204.26 4656.32,-202.26 4658.91,-206.88 4661.23,-204.26"/>
</g>
<!-- WARP_semantic_merge_conflict_prediction -->
<g id="node23" class="node">
<title>WARP_semantic_merge_conflict_prediction</title>
<path fill="#8ec5e5" stroke="black" d="M4832.93,-200.32C4832.93,-200.32 4725.07,-200.32 4725.07,-200.32 4720.88,-200.32 4716.68,-196.12 4716.68,-191.92 4716.68,-191.92 4716.68,-183.52 4716.68,-183.52 4716.68,-179.32 4720.88,-175.12 4725.07,-175.12 4725.07,-175.12 4832.93,-175.12 4832.93,-175.12 4837.12,-175.12 4841.32,-179.32 4841.32,-183.52 4841.32,-183.52 4841.32,-191.92 4841.32,-191.92 4841.32,-196.12 4837.12,-200.32 4832.93,-200.32"/>
<text xml:space="preserve" text-anchor="middle" x="4779" y="-184.62" font-family="Helvetica,sans-Serif" font-size="8.00">semantic&#45;merge&#45;conflict&#45;p... · L</text>
</g>
<!-- CLEAN_CODE_export_diff_semver_signature_as_patch&#45;&gt;WARP_semantic_merge_conflict_prediction -->
<g id="edge18" class="edge">
<title>CLEAN_CODE_export_diff_semver_signature_as_patch&#45;&gt;WARP_semantic_merge_conflict_prediction</title>
<path fill="none" stroke="#888888" d="M4723.06,-235.37C4733.89,-226.34 4748.56,-214.1 4760.17,-204.42"/>
<polygon fill="#888888" stroke="#888888" points="4761.05,-205.97 4763.77,-201.42 4758.81,-203.28 4761.05,-205.97"/>
</g>
<!-- WARP_drift_sentinel -->
<g id="node24" class="node">
<title>WARP_drift_sentinel</title>
<path fill="#b0d4f1" stroke="black" stroke-width="2" d="M4939.3,-200.32C4939.3,-200.32 4884.7,-200.32 4884.7,-200.32 4880.5,-200.32 4876.3,-196.12 4876.3,-191.92 4876.3,-191.92 4876.3,-183.52 4876.3,-183.52 4876.3,-179.32 4880.5,-175.12 4884.7,-175.12 4884.7,-175.12 4939.3,-175.12 4939.3,-175.12 4943.5,-175.12 4947.7,-179.32 4947.7,-183.52 4947.7,-183.52 4947.7,-191.92 4947.7,-191.92 4947.7,-196.12 4943.5,-200.32 4939.3,-200.32"/>
<text xml:space="preserve" text-anchor="middle" x="4912" y="-184.62" font-family="Helvetica,sans-Serif" font-size="8.00">drift&#45;sentinel · M</text>
</g>
<!-- WARP_stale_docs_checker -->
<g id="node25" class="node">
<title>WARP_stale_docs_checker</title>
<path fill="#b0d4f1" stroke="black" stroke-width="2" d="M4950.93,-261.52C4950.93,-261.52 4873.07,-261.52 4873.07,-261.52 4868.88,-261.52 4864.68,-257.32 4864.68,-253.12 4864.68,-253.12 4864.68,-244.72 4864.68,-244.72 4864.68,-240.52 4868.88,-236.32 4873.07,-236.32 4873.07,-236.32 4950.93,-236.32 4950.93,-236.32 4955.12,-236.32 4959.32,-240.52 4959.32,-244.72 4959.32,-244.72 4959.32,-253.12 4959.32,-253.12 4959.32,-257.32 4955.12,-261.52 4950.93,-261.52"/>
<text xml:space="preserve" text-anchor="middle" x="4912" y="-245.82" font-family="Helvetica,sans-Serif" font-size="8.00">stale&#45;docs&#45;checker · M</text>
</g>
<!-- WARP_stale_docs_checker&#45;&gt;WARP_drift_sentinel -->
<g id="edge9" class="edge">
<title>WARP_stale_docs_checker&#45;&gt;WARP_drift_sentinel</title>
<path fill="none" stroke="#888888" d="M4912,-235.37C4912,-227.28 4912,-216.62 4912,-207.54"/>
<polygon fill="#888888" stroke="#888888" points="4913.75,-207.77 4912,-202.77 4910.25,-207.77 4913.75,-207.77"/>
</g>
<!-- WARP_structural_drift_detection -->
<g id="node26" class="node">
<title>WARP_structural_drift_detection</title>
<path fill="#b0d4f1" stroke="black" d="M5074.93,-261.52C5074.93,-261.52 4979.07,-261.52 4979.07,-261.52 4974.88,-261.52 4970.68,-257.32 4970.68,-253.12 4970.68,-253.12 4970.68,-244.72 4970.68,-244.72 4970.68,-240.52 4974.88,-236.32 4979.07,-236.32 4979.07,-236.32 5074.93,-236.32 5074.93,-236.32 5079.12,-236.32 5083.32,-240.52 5083.32,-244.72 5083.32,-244.72 5083.32,-253.12 5083.32,-253.12 5083.32,-257.32 5079.12,-261.52 5074.93,-261.52"/>
<text xml:space="preserve" text-anchor="middle" x="5027" y="-245.82" font-family="Helvetica,sans-Serif" font-size="8.00">structural&#45;drift&#45;detection · M</text>
</g>
<!-- WARP_agent_action_provenance -->
<g id="node27" class="node">
<title>WARP_agent_action_provenance</title>
<path fill="#7eb6e0" stroke="black" stroke-width="2" d="M5375.68,-261.52C5375.68,-261.52 5272.32,-261.52 5272.32,-261.52 5268.12,-261.52 5263.93,-257.32 5263.93,-253.12 5263.93,-253.12 5263.93,-244.72 5263.93,-244.72 5263.93,-240.52 5268.12,-236.32 5272.32,-236.32 5272.32,-236.32 5375.68,-236.32 5375.68,-236.32 5379.88,-236.32 5384.07,-240.52 5384.07,-244.72 5384.07,-244.72 5384.07,-253.12 5384.07,-253.12 5384.07,-257.32 5379.88,-261.52 5375.68,-261.52"/>
<text xml:space="preserve" text-anchor="middle" x="5324" y="-245.82" font-family="Helvetica,sans-Serif" font-size="8.00">agent&#45;action&#45;provenance · XL</text>
</g>
<!-- WARP_provenance_dag -->
<g id="node28" class="node">
<title>WARP_provenance_dag</title>
<path fill="#8ec5e5" stroke="black" stroke-width="2" d="M5182.68,-200.32C5182.68,-200.32 5115.32,-200.32 5115.32,-200.32 5111.12,-200.32 5106.93,-196.12 5106.93,-191.92 5106.93,-191.92 5106.93,-183.52 5106.93,-183.52 5106.93,-179.32 5111.12,-175.12 5115.32,-175.12 5115.32,-175.12 5182.68,-175.12 5182.68,-175.12 5186.88,-175.12 5191.07,-179.32 5191.07,-183.52 5191.07,-183.52 5191.07,-191.92 5191.07,-191.92 5191.07,-196.12 5186.88,-200.32 5182.68,-200.32"/>
<text xml:space="preserve" text-anchor="middle" x="5149" y="-184.62" font-family="Helvetica,sans-Serif" font-size="8.00">provenance&#45;dag · L</text>
</g>
<!-- WARP_agent_action_provenance&#45;&gt;WARP_provenance_dag -->
<g id="edge7" class="edge">
<title>WARP_agent_action_provenance&#45;&gt;WARP_provenance_dag</title>
<path fill="none" stroke="#888888" d="M5286.89,-235.37C5259.16,-225.99 5221.2,-213.14 5192.12,-203.31"/>
<polygon fill="#888888" stroke="#888888" points="5192.79,-201.69 5187.49,-201.74 5191.67,-205 5192.79,-201.69"/>
</g>
<!-- CI_001_causal_collapse_visualizer -->
<g id="node29" class="node">
<title>CI_001_causal_collapse_visualizer</title>
<path fill="#8ec5e5" stroke="black" d="M5315.8,-200.32C5315.8,-200.32 5210.2,-200.32 5210.2,-200.32 5206,-200.32 5201.8,-196.12 5201.8,-191.92 5201.8,-191.92 5201.8,-183.52 5201.8,-183.52 5201.8,-179.32 5206,-175.12 5210.2,-175.12 5210.2,-175.12 5315.8,-175.12 5315.8,-175.12 5320,-175.12 5324.2,-179.32 5324.2,-183.52 5324.2,-183.52 5324.2,-191.92 5324.2,-191.92 5324.2,-196.12 5320,-200.32 5315.8,-200.32"/>
<text xml:space="preserve" text-anchor="middle" x="5263" y="-184.62" font-family="Helvetica,sans-Serif" font-size="8.00">CI&#45;001&#45;causal&#45;collapse&#45;vi... · L</text>
</g>
<!-- WARP_agent_action_provenance&#45;&gt;CI_001_causal_collapse_visualizer -->
<g id="edge4" class="edge">
<title>WARP_agent_action_provenance&#45;&gt;CI_001_causal_collapse_visualizer</title>
<path fill="none" stroke="#888888" d="M5311.06,-235.37C5301.93,-226.5 5289.6,-214.54 5279.72,-204.94"/>
<polygon fill="#888888" stroke="#888888" points="5280.98,-203.73 5276.17,-201.51 5278.54,-206.24 5280.98,-203.73"/>
</g>
<!-- WARP_causal_write_tracking -->
<g id="node31" class="node">
<title>WARP_causal_write_tracking</title>
<path fill="#8ec5e5" stroke="black" d="M5426.18,-200.32C5426.18,-200.32 5343.82,-200.32 5343.82,-200.32 5339.62,-200.32 5335.43,-196.12 5335.43,-191.92 5335.43,-191.92 5335.43,-183.52 5335.43,-183.52 5335.43,-179.32 5339.62,-175.12 5343.82,-175.12 5343.82,-175.12 5426.18,-175.12 5426.18,-175.12 5430.38,-175.12 5434.57,-179.32 5434.57,-183.52 5434.57,-183.52 5434.57,-191.92 5434.57,-191.92 5434.57,-196.12 5430.38,-200.32 5426.18,-200.32"/>
<text xml:space="preserve" text-anchor="middle" x="5385" y="-184.62" font-family="Helvetica,sans-Serif" font-size="8.00">causal&#45;write&#45;tracking · L</text>
</g>
<!-- WARP_agent_action_provenance&#45;&gt;WARP_causal_write_tracking -->
<g id="edge5" class="edge">
<title>WARP_agent_action_provenance&#45;&gt;WARP_causal_write_tracking</title>
<path fill="none" stroke="#888888" d="M5336.94,-235.37C5346.07,-226.5 5358.4,-214.54 5368.28,-204.94"/>
<polygon fill="#888888" stroke="#888888" points="5369.46,-206.24 5371.83,-201.51 5367.02,-203.73 5369.46,-206.24"/>
</g>
<!-- WARP_intent_and_decision_events -->
<g id="node32" class="node">
<title>WARP_intent_and_decision_events</title>
<path fill="#b0d4f1" stroke="black" d="M5558.43,-200.32C5558.43,-200.32 5453.57,-200.32 5453.57,-200.32 5449.38,-200.32 5445.18,-196.12 5445.18,-191.92 5445.18,-191.92 5445.18,-183.52 5445.18,-183.52 5445.18,-179.32 5449.38,-175.12 5453.57,-175.12 5453.57,-175.12 5558.43,-175.12 5558.43,-175.12 5562.62,-175.12 5566.82,-179.32 5566.82,-183.52 5566.82,-183.52 5566.82,-191.92 5566.82,-191.92 5566.82,-196.12 5562.62,-200.32 5558.43,-200.32"/>
<text xml:space="preserve" text-anchor="middle" x="5506" y="-184.62" font-family="Helvetica,sans-Serif" font-size="8.00">intent&#45;and&#45;decision&#45;events · M</text>
</g>
<!-- WARP_agent_action_provenance&#45;&gt;WARP_intent_and_decision_events -->
<g id="edge6" class="edge">
<title>WARP_agent_action_provenance&#45;&gt;WARP_intent_and_decision_events</title>
<path fill="none" stroke="#888888" d="M5362.6,-235.37C5392.04,-225.79 5432.59,-212.6 5463.06,-202.69"/>
<polygon fill="#888888" stroke="#888888" points="5463.36,-204.43 5467.57,-201.22 5462.28,-201.1 5463.36,-204.43"/>
</g>
<!-- WARP_causal_blame_for_staged_artifacts -->
<g id="node30" class="node">
<title>WARP_causal_blame_for_staged_artifacts</title>
<path fill="#8ec5e5" stroke="black" d="M5225.05,-139.12C5225.05,-139.12 5114.95,-139.12 5114.95,-139.12 5110.75,-139.12 5106.55,-134.92 5106.55,-130.72 5106.55,-130.72 5106.55,-122.32 5106.55,-122.32 5106.55,-118.12 5110.75,-113.92 5114.95,-113.92 5114.95,-113.92 5225.05,-113.92 5225.05,-113.92 5229.25,-113.92 5233.45,-118.12 5233.45,-122.32 5233.45,-122.32 5233.45,-130.72 5233.45,-130.72 5233.45,-134.92 5229.25,-139.12 5225.05,-139.12"/>
<text xml:space="preserve" text-anchor="middle" x="5170" y="-123.42" font-family="Helvetica,sans-Serif" font-size="8.00">causal&#45;blame&#45;for&#45;staged&#45;a... · L</text>
</g>
<!-- WARP_provenance_dag&#45;&gt;WARP_causal_blame_for_staged_artifacts -->
<g id="edge2" class="edge">
<title>WARP_provenance_dag&#45;&gt;WARP_causal_blame_for_staged_artifacts</title>
<path fill="none" stroke="#888888" d="M5153.45,-174.17C5156.43,-165.78 5160.38,-154.63 5163.68,-145.33"/>
<polygon fill="#888888" stroke="#888888" points="5165.31,-145.98 5165.33,-140.68 5162.01,-144.81 5165.31,-145.98"/>
</g>
<!-- WARP_reasoning_trace_replay -->
<g id="node33" class="node">
<title>WARP_reasoning_trace_replay</title>
<path fill="#b0d4f1" stroke="black" d="M5345.05,-139.12C5345.05,-139.12 5252.95,-139.12 5252.95,-139.12 5248.75,-139.12 5244.55,-134.92 5244.55,-130.72 5244.55,-130.72 5244.55,-122.32 5244.55,-122.32 5244.55,-118.12 5248.75,-113.92 5252.95,-113.92 5252.95,-113.92 5345.05,-113.92 5345.05,-113.92 5349.25,-113.92 5353.45,-118.12 5353.45,-122.32 5353.45,-122.32 5353.45,-130.72 5353.45,-130.72 5353.45,-134.92 5349.25,-139.12 5345.05,-139.12"/>
<text xml:space="preserve" text-anchor="middle" x="5299" y="-123.42" font-family="Helvetica,sans-Serif" font-size="8.00">reasoning&#45;trace&#45;replay · M</text>
</g>
<!-- WARP_provenance_dag&#45;&gt;WARP_reasoning_trace_replay -->
<g id="edge3" class="edge">
<title>WARP_provenance_dag&#45;&gt;WARP_reasoning_trace_replay</title>
<path fill="none" stroke="#888888" d="M5180.81,-174.17C5204.78,-164.71 5237.66,-151.73 5262.66,-141.86"/>
<polygon fill="#888888" stroke="#888888" points="5263.1,-143.57 5267.11,-140.11 5261.81,-140.31 5263.1,-143.57"/>
</g>
<!-- CORE_policy_profiles -->
<g id="node35" class="node">
<title>CORE_policy_profiles</title>
<path fill="#b0d4f1" stroke="black" stroke-width="2" d="M3430.55,-261.52C3430.55,-261.52 3371.45,-261.52 3371.45,-261.52 3367.25,-261.52 3363.05,-257.32 3363.05,-253.12 3363.05,-253.12 3363.05,-244.72 3363.05,-244.72 3363.05,-240.52 3367.25,-236.32 3371.45,-236.32 3371.45,-236.32 3430.55,-236.32 3430.55,-236.32 3434.75,-236.32 3438.95,-240.52 3438.95,-244.72 3438.95,-244.72 3438.95,-253.12 3438.95,-253.12 3438.95,-257.32 3434.75,-261.52 3430.55,-261.52"/>
<text xml:space="preserve" text-anchor="middle" x="3401" y="-245.82" font-family="Helvetica,sans-Serif" font-size="8.00">policy&#45;profiles · M</text>
</g>
<!-- CORE_auto_focus -->
<g id="node36" class="node">
<title>CORE_auto_focus</title>
<path fill="#8ec5e5" stroke="black" d="M3505.17,-261.52C3505.17,-261.52 3458.83,-261.52 3458.83,-261.52 3454.62,-261.52 3450.43,-257.32 3450.43,-253.12 3450.43,-253.12 3450.43,-244.72 3450.43,-244.72 3450.43,-240.52 3454.62,-236.32 3458.83,-236.32 3458.83,-236.32 3505.17,-236.32 3505.17,-236.32 3509.38,-236.32 3513.57,-240.52 3513.57,-244.72 3513.57,-244.72 3513.57,-253.12 3513.57,-253.12 3513.57,-257.32 3509.38,-261.52 3505.17,-261.52"/>
<text xml:space="preserve" text-anchor="middle" x="3482" y="-245.82" font-family="Helvetica,sans-Serif" font-size="8.00">auto&#45;focus · L</text>
</g>
<!-- CORE_context_budget_forecasting -->
<g id="node37" class="node">
<title>CORE_context_budget_forecasting</title>
<path fill="#b0d4f1" stroke="black" d="M3639.17,-261.52C3639.17,-261.52 3532.83,-261.52 3532.83,-261.52 3528.62,-261.52 3524.43,-257.32 3524.43,-253.12 3524.43,-253.12 3524.43,-244.72 3524.43,-244.72 3524.43,-240.52 3528.62,-236.32 3532.83,-236.32 3532.83,-236.32 3639.17,-236.32 3639.17,-236.32 3643.38,-236.32 3647.57,-240.52 3647.57,-244.72 3647.57,-244.72 3647.57,-253.12 3647.57,-253.12 3647.57,-257.32 3643.38,-261.52 3639.17,-261.52"/>
<text xml:space="preserve" text-anchor="middle" x="3586" y="-245.82" font-family="Helvetica,sans-Serif" font-size="8.00">context&#45;budget&#45;forecasting · M</text>
</g>
<!-- CORE_policy_playground -->
<g id="node38" class="node">
<title>CORE_policy_playground</title>
<path fill="#d4e8f7" stroke="black" d="M3738.92,-261.52C3738.92,-261.52 3667.08,-261.52 3667.08,-261.52 3662.88,-261.52 3658.68,-257.32 3658.68,-253.12 3658.68,-253.12 3658.68,-244.72 3658.68,-244.72 3658.68,-240.52 3662.88,-236.32 3667.08,-236.32 3667.08,-236.32 3738.92,-236.32 3738.92,-236.32 3743.12,-236.32 3747.32,-240.52 3747.32,-244.72 3747.32,-244.72 3747.32,-253.12 3747.32,-253.12 3747.32,-257.32 3743.12,-261.52 3738.92,-261.52"/>
<text xml:space="preserve" text-anchor="middle" x="3703" y="-245.82" font-family="Helvetica,sans-Serif" font-size="8.00">policy&#45;playground · S</text>
</g>
<!-- CORE_self_tuning_governor -->
<g id="node39" class="node">
<title>CORE_self_tuning_governor</title>
<path fill="#b0d4f1" stroke="black" d="M3849.55,-261.52C3849.55,-261.52 3766.45,-261.52 3766.45,-261.52 3762.25,-261.52 3758.05,-257.32 3758.05,-253.12 3758.05,-253.12 3758.05,-244.72 3758.05,-244.72 3758.05,-240.52 3762.25,-236.32 3766.45,-236.32 3766.45,-236.32 3849.55,-236.32 3849.55,-236.32 3853.75,-236.32 3857.95,-240.52 3857.95,-244.72 3857.95,-244.72 3857.95,-253.12 3857.95,-253.12 3857.95,-257.32 3853.75,-261.52 3849.55,-261.52"/>
<text xml:space="preserve" text-anchor="middle" x="3808" y="-245.82" font-family="Helvetica,sans-Serif" font-size="8.00">self&#45;tuning&#45;governor · M</text>
</g>
<!-- CORE_speculative_read_cost -->
<g id="node40" class="node">
<title>CORE_speculative_read_cost</title>
<path fill="#d4e8f7" stroke="black" d="M3962.67,-261.52C3962.67,-261.52 3877.33,-261.52 3877.33,-261.52 3873.12,-261.52 3868.93,-257.32 3868.93,-253.12 3868.93,-253.12 3868.93,-244.72 3868.93,-244.72 3868.93,-240.52 3873.12,-236.32 3877.33,-236.32 3877.33,-236.32 3962.67,-236.32 3962.67,-236.32 3966.88,-236.32 3971.07,-240.52 3971.07,-244.72 3971.07,-244.72 3971.07,-253.12 3971.07,-253.12 3971.07,-257.32 3966.88,-261.52 3962.67,-261.52"/>
<text xml:space="preserve" text-anchor="middle" x="3920" y="-245.82" font-family="Helvetica,sans-Serif" font-size="8.00">speculative&#45;read&#45;cost · S</text>
</g>
<!-- WARP_budget_elasticity -->
<g id="node41" class="node">
<title>WARP_budget_elasticity</title>
<path fill="#b0d4f1" stroke="black" d="M4059.05,-261.52C4059.05,-261.52 3990.95,-261.52 3990.95,-261.52 3986.75,-261.52 3982.55,-257.32 3982.55,-253.12 3982.55,-253.12 3982.55,-244.72 3982.55,-244.72 3982.55,-240.52 3986.75,-236.32 3990.95,-236.32 3990.95,-236.32 4059.05,-236.32 4059.05,-236.32 4063.25,-236.32 4067.45,-240.52 4067.45,-244.72 4067.45,-244.72 4067.45,-253.12 4067.45,-253.12 4067.45,-257.32 4063.25,-261.52 4059.05,-261.52"/>
<text xml:space="preserve" text-anchor="middle" x="4025" y="-245.82" font-family="Helvetica,sans-Serif" font-size="8.00">budget&#45;elasticity · M</text>
</g>
<!-- CORE_migrate_to_slice_first_reads -->
<g id="node42" class="node">
<title>CORE_migrate_to_slice_first_reads</title>
<path fill="#ffa07a" stroke="black" stroke-width="2" d="M5712.55,-261.52C5712.55,-261.52 5599.45,-261.52 5599.45,-261.52 5595.25,-261.52 5591.05,-257.32 5591.05,-253.12 5591.05,-253.12 5591.05,-244.72 5591.05,-244.72 5591.05,-240.52 5595.25,-236.32 5599.45,-236.32 5599.45,-236.32 5712.55,-236.32 5712.55,-236.32 5716.75,-236.32 5720.95,-240.52 5720.95,-244.72 5720.95,-244.72 5720.95,-253.12 5720.95,-253.12 5720.95,-257.32 5716.75,-261.52 5712.55,-261.52"/>
<text xml:space="preserve" text-anchor="middle" x="5656" y="-245.82" font-family="Helvetica,sans-Serif" font-size="8.00">migrate&#45;to&#45;slice&#45;first&#45;reads [v0.7]</text>
</g>
<!-- WARP_adaptive_projection_selection -->
<g id="node43" class="node">
<title>WARP_adaptive_projection_selection</title>
<path fill="#8ec5e5" stroke="black" stroke-width="2" d="M5844.05,-261.52C5844.05,-261.52 5739.95,-261.52 5739.95,-261.52 5735.75,-261.52 5731.55,-257.32 5731.55,-253.12 5731.55,-253.12 5731.55,-244.72 5731.55,-244.72 5731.55,-240.52 5735.75,-236.32 5739.95,-236.32 5739.95,-236.32 5844.05,-236.32 5844.05,-236.32 5848.25,-236.32 5852.45,-240.52 5852.45,-244.72 5852.45,-244.72 5852.45,-253.12 5852.45,-253.12 5852.45,-257.32 5848.25,-261.52 5844.05,-261.52"/>
<text xml:space="preserve" text-anchor="middle" x="5792" y="-245.82" font-family="Helvetica,sans-Serif" font-size="8.00">adaptive&#45;projection&#45;selec... · L</text>
</g>
<!-- WARP_projection_safety_classes -->
<g id="node44" class="node">
<title>WARP_projection_safety_classes</title>
<path fill="#b0d4f1" stroke="black" stroke-width="2" d="M5970.05,-261.52C5970.05,-261.52 5871.95,-261.52 5871.95,-261.52 5867.75,-261.52 5863.55,-257.32 5863.55,-253.12 5863.55,-253.12 5863.55,-244.72 5863.55,-244.72 5863.55,-240.52 5867.75,-236.32 5871.95,-236.32 5871.95,-236.32 5970.05,-236.32 5970.05,-236.32 5974.25,-236.32 5978.45,-240.52 5978.45,-244.72 5978.45,-244.72 5978.45,-253.12 5978.45,-253.12 5978.45,-257.32 5974.25,-261.52 5970.05,-261.52"/>
<text xml:space="preserve" text-anchor="middle" x="5921" y="-245.82" font-family="Helvetica,sans-Serif" font-size="8.00">projection&#45;safety&#45;classes · M</text>
</g>
<!-- CORE_horizon_of_readability -->
<g id="node45" class="node">
<title>CORE_horizon_of_readability</title>
<path fill="#b0d4f1" stroke="black" d="M6084.05,-261.52C6084.05,-261.52 5997.95,-261.52 5997.95,-261.52 5993.75,-261.52 5989.55,-257.32 5989.55,-253.12 5989.55,-253.12 5989.55,-244.72 5989.55,-244.72 5989.55,-240.52 5993.75,-236.32 5997.95,-236.32 5997.95,-236.32 6084.05,-236.32 6084.05,-236.32 6088.25,-236.32 6092.45,-240.52 6092.45,-244.72 6092.45,-244.72 6092.45,-253.12 6092.45,-253.12 6092.45,-257.32 6088.25,-261.52 6084.05,-261.52"/>
<text xml:space="preserve" text-anchor="middle" x="6041" y="-245.82" font-family="Helvetica,sans-Serif" font-size="8.00">horizon&#45;of&#45;readability · M</text>
</g>
<!-- WARP_footprint_parallelism -->
<g id="node46" class="node">
<title>WARP_footprint_parallelism</title>
<path fill="#7eb6e0" stroke="black" d="M6195.93,-261.52C6195.93,-261.52 6112.07,-261.52 6112.07,-261.52 6107.88,-261.52 6103.68,-257.32 6103.68,-253.12 6103.68,-253.12 6103.68,-244.72 6103.68,-244.72 6103.68,-240.52 6107.88,-236.32 6112.07,-236.32 6112.07,-236.32 6195.93,-236.32 6195.93,-236.32 6200.12,-236.32 6204.32,-240.52 6204.32,-244.72 6204.32,-244.72 6204.32,-253.12 6204.32,-253.12 6204.32,-257.32 6200.12,-261.52 6195.93,-261.52"/>
<text xml:space="preserve" text-anchor="middle" x="6154" y="-245.82" font-family="Helvetica,sans-Serif" font-size="8.00">footprint&#45;parallelism · XL</text>
</g>
<!-- WARP_semantic_drift_in_sessions -->
<g id="node47" class="node">
<title>WARP_semantic_drift_in_sessions</title>
<path fill="#b0d4f1" stroke="black" d="M6324.55,-261.52C6324.55,-261.52 6223.45,-261.52 6223.45,-261.52 6219.25,-261.52 6215.05,-257.32 6215.05,-253.12 6215.05,-253.12 6215.05,-244.72 6215.05,-244.72 6215.05,-240.52 6219.25,-236.32 6223.45,-236.32 6223.45,-236.32 6324.55,-236.32 6324.55,-236.32 6328.75,-236.32 6332.95,-240.52 6332.95,-244.72 6332.95,-244.72 6332.95,-253.12 6332.95,-253.12 6332.95,-257.32 6328.75,-261.52 6324.55,-261.52"/>
<text xml:space="preserve" text-anchor="middle" x="6274" y="-245.82" font-family="Helvetica,sans-Serif" font-size="8.00">semantic&#45;drift&#45;in&#45;sessions · M</text>
</g>
<!-- WARP_session_filtration -->
<g id="node48" class="node">
<title>WARP_session_filtration</title>
<path fill="#8ec5e5" stroke="black" d="M6417.93,-261.52C6417.93,-261.52 6352.07,-261.52 6352.07,-261.52 6347.88,-261.52 6343.68,-257.32 6343.68,-253.12 6343.68,-253.12 6343.68,-244.72 6343.68,-244.72 6343.68,-240.52 6347.88,-236.32 6352.07,-236.32 6352.07,-236.32 6417.93,-236.32 6417.93,-236.32 6422.12,-236.32 6426.32,-240.52 6426.32,-244.72 6426.32,-244.72 6426.32,-253.12 6426.32,-253.12 6426.32,-257.32 6422.12,-261.52 6417.93,-261.52"/>
<text xml:space="preserve" text-anchor="middle" x="6385" y="-245.82" font-family="Helvetica,sans-Serif" font-size="8.00">session&#45;filtration · L</text>
</g>
<!-- WARP_structural_impact_prediction -->
<g id="node51" class="node">
<title>WARP_structural_impact_prediction</title>
<path fill="#7eb6e0" stroke="black" stroke-width="2" d="M4210.43,-77.92C4210.43,-77.92 4099.57,-77.92 4099.57,-77.92 4095.38,-77.92 4091.18,-73.72 4091.18,-69.52 4091.18,-69.52 4091.18,-61.12 4091.18,-61.12 4091.18,-56.92 4095.38,-52.72 4099.57,-52.72 4099.57,-52.72 4210.43,-52.72 4210.43,-52.72 4214.62,-52.72 4218.82,-56.92 4218.82,-61.12 4218.82,-61.12 4218.82,-69.52 4218.82,-69.52 4218.82,-73.72 4214.62,-77.92 4210.43,-77.92"/>
<text xml:space="preserve" text-anchor="middle" x="4155" y="-62.22" font-family="Helvetica,sans-Serif" font-size="8.00">structural&#45;impact&#45;prediction · XL</text>
</g>
<!-- WARP_counterfactual_refactoring&#45;&gt;WARP_structural_impact_prediction -->
<g id="edge11" class="edge">
<title>WARP_counterfactual_refactoring&#45;&gt;WARP_structural_impact_prediction</title>
<path fill="none" stroke="#888888" d="M4153.42,-112.97C4153.7,-104.88 4154.06,-94.22 4154.36,-85.14"/>
<polygon fill="#888888" stroke="#888888" points="4156.11,-85.43 4154.53,-80.37 4152.61,-85.31 4156.11,-85.43"/>
</g>
<!-- WARP_speculative_merge -->
<g id="node50" class="node">
<title>WARP_speculative_merge</title>
<path fill="#7eb6e0" stroke="black" stroke-width="2" d="M4178.68,-261.52C4178.68,-261.52 4099.32,-261.52 4099.32,-261.52 4095.12,-261.52 4090.93,-257.32 4090.93,-253.12 4090.93,-253.12 4090.93,-244.72 4090.93,-244.72 4090.93,-240.52 4095.12,-236.32 4099.32,-236.32 4099.32,-236.32 4178.68,-236.32 4178.68,-236.32 4182.88,-236.32 4187.07,-240.52 4187.07,-244.72 4187.07,-244.72 4187.07,-253.12 4187.07,-253.12 4187.07,-257.32 4182.88,-261.52 4178.68,-261.52"/>
<text xml:space="preserve" text-anchor="middle" x="4139" y="-245.82" font-family="Helvetica,sans-Serif" font-size="8.00">speculative&#45;merge · XL</text>
</g>
<!-- WARP_minimum_viable_context -->
<g id="node52" class="node">
<title>WARP_minimum_viable_context</title>
<path fill="#b0d4f1" stroke="black" d="M4301.55,-261.52C4301.55,-261.52 4206.45,-261.52 4206.45,-261.52 4202.25,-261.52 4198.05,-257.32 4198.05,-253.12 4198.05,-253.12 4198.05,-244.72 4198.05,-244.72 4198.05,-240.52 4202.25,-236.32 4206.45,-236.32 4206.45,-236.32 4301.55,-236.32 4301.55,-236.32 4305.75,-236.32 4309.95,-240.52 4309.95,-244.72 4309.95,-244.72 4309.95,-253.12 4309.95,-253.12 4309.95,-257.32 4305.75,-261.52 4301.55,-261.52"/>
<text xml:space="preserve" text-anchor="middle" x="4254" y="-245.82" font-family="Helvetica,sans-Serif" font-size="8.00">minimum&#45;viable&#45;context · M</text>
</g>
<!-- WARP_rulial_heat_map -->
<g id="node53" class="node">
<title>WARP_rulial_heat_map</title>
<path fill="#8ec5e5" stroke="black" d="M4392.43,-261.52C4392.43,-261.52 4329.57,-261.52 4329.57,-261.52 4325.38,-261.52 4321.18,-257.32 4321.18,-253.12 4321.18,-253.12 4321.18,-244.72 4321.18,-244.72 4321.18,-240.52 4325.38,-236.32 4329.57,-236.32 4329.57,-236.32 4392.43,-236.32 4392.43,-236.32 4396.62,-236.32 4400.82,-240.52 4400.82,-244.72 4400.82,-244.72 4400.82,-253.12 4400.82,-253.12 4400.82,-257.32 4396.62,-261.52 4392.43,-261.52"/>
<text xml:space="preserve" text-anchor="middle" x="4361" y="-245.82" font-family="Helvetica,sans-Serif" font-size="8.00">rulial&#45;heat&#45;map · L</text>
</g>
<!-- WARP_shadow_structural_workspaces -->
<g id="node54" class="node">
<title>WARP_shadow_structural_workspaces</title>
<path fill="#7eb6e0" stroke="black" d="M4543.43,-261.52C4543.43,-261.52 4420.57,-261.52 4420.57,-261.52 4416.38,-261.52 4412.18,-257.32 4412.18,-253.12 4412.18,-253.12 4412.18,-244.72 4412.18,-244.72 4412.18,-240.52 4416.38,-236.32 4420.57,-236.32 4420.57,-236.32 4543.43,-236.32 4543.43,-236.32 4547.62,-236.32 4551.82,-240.52 4551.82,-244.72 4551.82,-244.72 4551.82,-253.12 4551.82,-253.12 4551.82,-257.32 4547.62,-261.52 4543.43,-261.52"/>
<text xml:space="preserve" text-anchor="middle" x="4482" y="-245.82" font-family="Helvetica,sans-Serif" font-size="8.00">shadow&#45;structural&#45;workspaces · XL</text>
</g>
<!-- CORE_codebase_orientation_map -->
<g id="node55" class="node">
<title>CORE_codebase_orientation_map</title>
<path fill="#ffa07a" stroke="black" stroke-width="2" d="M6571.55,-261.52C6571.55,-261.52 6458.45,-261.52 6458.45,-261.52 6454.25,-261.52 6450.05,-257.32 6450.05,-253.12 6450.05,-253.12 6450.05,-244.72 6450.05,-244.72 6450.05,-240.52 6454.25,-236.32 6458.45,-236.32 6458.45,-236.32 6571.55,-236.32 6571.55,-236.32 6575.75,-236.32 6579.95,-240.52 6579.95,-244.72 6579.95,-244.72 6579.95,-253.12 6579.95,-253.12 6579.95,-257.32 6575.75,-261.52 6571.55,-261.52"/>
<text xml:space="preserve" text-anchor="middle" x="6515" y="-245.82" font-family="Helvetica,sans-Serif" font-size="8.00">codebase&#45;orientation&#45;map [v0.7]</text>
</g>
<!-- CORE_conversation_primer -->
<g id="node56" class="node">
<title>CORE_conversation_primer</title>
<path fill="#b0d4f1" stroke="black" stroke-width="2" d="M6682.18,-261.52C6682.18,-261.52 6599.82,-261.52 6599.82,-261.52 6595.62,-261.52 6591.43,-257.32 6591.43,-253.12 6591.43,-253.12 6591.43,-244.72 6591.43,-244.72 6591.43,-240.52 6595.62,-236.32 6599.82,-236.32 6599.82,-236.32 6682.18,-236.32 6682.18,-236.32 6686.38,-236.32 6690.57,-240.52 6690.57,-244.72 6690.57,-244.72 6690.57,-253.12 6690.57,-253.12 6690.57,-257.32 6686.38,-261.52 6682.18,-261.52"/>
<text xml:space="preserve" text-anchor="middle" x="6641" y="-245.82" font-family="Helvetica,sans-Serif" font-size="8.00">conversation&#45;primer · M</text>
</g>
<!-- CORE_cross_session_resume -->
<g id="node57" class="node">
<title>CORE_cross_session_resume</title>
<path fill="#d4e8f7" stroke="black" stroke-width="2" d="M6797.8,-261.52C6797.8,-261.52 6710.2,-261.52 6710.2,-261.52 6706,-261.52 6701.8,-257.32 6701.8,-253.12 6701.8,-253.12 6701.8,-244.72 6701.8,-244.72 6701.8,-240.52 6706,-236.32 6710.2,-236.32 6710.2,-236.32 6797.8,-236.32 6797.8,-236.32 6802,-236.32 6806.2,-240.52 6806.2,-244.72 6806.2,-244.72 6806.2,-253.12 6806.2,-253.12 6806.2,-257.32 6802,-261.52 6797.8,-261.52"/>
<text xml:space="preserve" text-anchor="middle" x="6754" y="-245.82" font-family="Helvetica,sans-Serif" font-size="8.00">cross&#45;session&#45;resume · S</text>
</g>
<!-- CORE_session_knowledge_map -->
<g id="node58" class="node">
<title>CORE_session_knowledge_map</title>
<path fill="#d4e8f7" stroke="black" stroke-width="2" d="M6921.93,-261.52C6921.93,-261.52 6826.07,-261.52 6826.07,-261.52 6821.88,-261.52 6817.68,-257.32 6817.68,-253.12 6817.68,-253.12 6817.68,-244.72 6817.68,-244.72 6817.68,-240.52 6821.88,-236.32 6826.07,-236.32 6826.07,-236.32 6921.93,-236.32 6921.93,-236.32 6926.12,-236.32 6930.32,-240.52 6930.32,-244.72 6930.32,-244.72 6930.32,-253.12 6930.32,-253.12 6930.32,-257.32 6926.12,-261.52 6921.93,-261.52"/>
<text xml:space="preserve" text-anchor="middle" x="6874" y="-245.82" font-family="Helvetica,sans-Serif" font-size="8.00">session&#45;knowledge&#45;map · S</text>
</g>
<!-- CI_002_deterministic_scenario_replay -->
<g id="node59" class="node">
<title>CI_002_deterministic_scenario_replay</title>
<path fill="#8ec5e5" stroke="black" d="M7056.55,-261.52C7056.55,-261.52 6949.45,-261.52 6949.45,-261.52 6945.25,-261.52 6941.05,-257.32 6941.05,-253.12 6941.05,-253.12 6941.05,-244.72 6941.05,-244.72 6941.05,-240.52 6945.25,-236.32 6949.45,-236.32 6949.45,-236.32 7056.55,-236.32 7056.55,-236.32 7060.75,-236.32 7064.95,-240.52 7064.95,-244.72 7064.95,-244.72 7064.95,-253.12 7064.95,-253.12 7064.95,-257.32 7060.75,-261.52 7056.55,-261.52"/>
<text xml:space="preserve" text-anchor="middle" x="7003" y="-245.82" font-family="Helvetica,sans-Serif" font-size="8.00">CI&#45;002&#45;deterministic&#45;scen... · L</text>
</g>
<!-- CORE_agent_handoff_protocol -->
<g id="node60" class="node">
<title>CORE_agent_handoff_protocol</title>
<path fill="#b0d4f1" stroke="black" d="M7177.43,-261.52C7177.43,-261.52 7084.57,-261.52 7084.57,-261.52 7080.38,-261.52 7076.18,-257.32 7076.18,-253.12 7076.18,-253.12 7076.18,-244.72 7076.18,-244.72 7076.18,-240.52 7080.38,-236.32 7084.57,-236.32 7084.57,-236.32 7177.43,-236.32 7177.43,-236.32 7181.62,-236.32 7185.82,-240.52 7185.82,-244.72 7185.82,-244.72 7185.82,-253.12 7185.82,-253.12 7185.82,-257.32 7181.62,-261.52 7177.43,-261.52"/>
<text xml:space="preserve" text-anchor="middle" x="7131" y="-245.82" font-family="Helvetica,sans-Serif" font-size="8.00">agent&#45;handoff&#45;protocol · M</text>
</g>
<!-- CORE_capture_range -->
<g id="node61" class="node">
<title>CORE_capture_range</title>
<path fill="#d4e8f7" stroke="black" d="M7266.3,-261.52C7266.3,-261.52 7205.7,-261.52 7205.7,-261.52 7201.5,-261.52 7197.3,-257.32 7197.3,-253.12 7197.3,-253.12 7197.3,-244.72 7197.3,-244.72 7197.3,-240.52 7201.5,-236.32 7205.7,-236.32 7205.7,-236.32 7266.3,-236.32 7266.3,-236.32 7270.5,-236.32 7274.7,-240.52 7274.7,-244.72 7274.7,-244.72 7274.7,-253.12 7274.7,-253.12 7274.7,-257.32 7270.5,-261.52 7266.3,-261.52"/>
<text xml:space="preserve" text-anchor="middle" x="7236" y="-245.82" font-family="Helvetica,sans-Serif" font-size="8.00">capture&#45;range · S</text>
</g>
<!-- CORE_graft_as_teacher -->
<g id="node62" class="node">
<title>CORE_graft_as_teacher</title>
<path fill="#d4e8f7" stroke="black" d="M7361.68,-261.52C7361.68,-261.52 7294.32,-261.52 7294.32,-261.52 7290.12,-261.52 7285.93,-257.32 7285.93,-253.12 7285.93,-253.12 7285.93,-244.72 7285.93,-244.72 7285.93,-240.52 7290.12,-236.32 7294.32,-236.32 7294.32,-236.32 7361.68,-236.32 7361.68,-236.32 7365.88,-236.32 7370.07,-240.52 7370.07,-244.72 7370.07,-244.72 7370.07,-253.12 7370.07,-253.12 7370.07,-257.32 7365.88,-261.52 7361.68,-261.52"/>
<text xml:space="preserve" text-anchor="middle" x="7328" y="-245.82" font-family="Helvetica,sans-Serif" font-size="8.00">graft&#45;as&#45;teacher · S</text>
</g>
<!-- CORE_graft_teach_learning_receipts -->
<g id="node63" class="node">
<title>CORE_graft_teach_learning_receipts</title>
<path fill="#d4e8f7" stroke="black" d="M7494.8,-261.52C7494.8,-261.52 7389.2,-261.52 7389.2,-261.52 7385,-261.52 7380.8,-257.32 7380.8,-253.12 7380.8,-253.12 7380.8,-244.72 7380.8,-244.72 7380.8,-240.52 7385,-236.32 7389.2,-236.32 7389.2,-236.32 7494.8,-236.32 7494.8,-236.32 7499,-236.32 7503.2,-240.52 7503.2,-244.72 7503.2,-244.72 7503.2,-253.12 7503.2,-253.12 7503.2,-257.32 7499,-261.52 7494.8,-261.52"/>
<text xml:space="preserve" text-anchor="middle" x="7442" y="-245.82" font-family="Helvetica,sans-Serif" font-size="8.00">graft&#45;teach&#45;learning&#45;rece... · S</text>
</g>
<!-- CORE_structural_session_replay -->
<g id="node64" class="node">
<title>CORE_structural_session_replay</title>
<path fill="#b0d4f1" stroke="black" d="M7621.05,-261.52C7621.05,-261.52 7522.95,-261.52 7522.95,-261.52 7518.75,-261.52 7514.55,-257.32 7514.55,-253.12 7514.55,-253.12 7514.55,-244.72 7514.55,-244.72 7514.55,-240.52 7518.75,-236.32 7522.95,-236.32 7522.95,-236.32 7621.05,-236.32 7621.05,-236.32 7625.25,-236.32 7629.45,-240.52 7629.45,-244.72 7629.45,-244.72 7629.45,-253.12 7629.45,-253.12 7629.45,-257.32 7625.25,-261.52 7621.05,-261.52"/>
<text xml:space="preserve" text-anchor="middle" x="7572" y="-245.82" font-family="Helvetica,sans-Serif" font-size="8.00">structural&#45;session&#45;replay · M</text>
</g>
<!-- CORE_agent_drift_warning -->
<g id="node65" class="node">
<title>CORE_agent_drift_warning</title>
<path fill="#ffa07a" stroke="black" stroke-width="2" d="M7826.8,-200.32C7826.8,-200.32 7739.2,-200.32 7739.2,-200.32 7735,-200.32 7730.8,-196.12 7730.8,-191.92 7730.8,-191.92 7730.8,-183.52 7730.8,-183.52 7730.8,-179.32 7735,-175.12 7739.2,-175.12 7739.2,-175.12 7826.8,-175.12 7826.8,-175.12 7831,-175.12 7835.2,-179.32 7835.2,-183.52 7835.2,-183.52 7835.2,-191.92 7835.2,-191.92 7835.2,-196.12 7831,-200.32 7826.8,-200.32"/>
<text xml:space="preserve" text-anchor="middle" x="7783" y="-184.62" font-family="Helvetica,sans-Serif" font-size="8.00">agent&#45;drift&#45;warning [v0.7]</text>
</g>
<!-- CORE_multi_agent_conflict_detection -->
<g id="node66" class="node">
<title>CORE_multi_agent_conflict_detection</title>
<path fill="#8ec5e5" stroke="black" stroke-width="2" d="M7762.55,-261.52C7762.55,-261.52 7661.45,-261.52 7661.45,-261.52 7657.25,-261.52 7653.05,-257.32 7653.05,-253.12 7653.05,-253.12 7653.05,-244.72 7653.05,-244.72 7653.05,-240.52 7657.25,-236.32 7661.45,-236.32 7661.45,-236.32 7762.55,-236.32 7762.55,-236.32 7766.75,-236.32 7770.95,-240.52 7770.95,-244.72 7770.95,-244.72 7770.95,-253.12 7770.95,-253.12 7770.95,-257.32 7766.75,-261.52 7762.55,-261.52"/>
<text xml:space="preserve" text-anchor="middle" x="7712" y="-245.82" font-family="Helvetica,sans-Serif" font-size="8.00">multi&#45;agent&#45;conflict&#45;dete... · L</text>
</g>
<!-- SURFACE_agent_dx_governed_edit -->
<g id="node67" class="node">
<title>SURFACE_agent_dx_governed_edit</title>
<path fill="#ffa07a" stroke="black" stroke-width="2" d="M7893.68,-261.52C7893.68,-261.52 7790.32,-261.52 7790.32,-261.52 7786.12,-261.52 7781.93,-257.32 7781.93,-253.12 7781.93,-253.12 7781.93,-244.72 7781.93,-244.72 7781.93,-240.52 7786.12,-236.32 7790.32,-236.32 7790.32,-236.32 7893.68,-236.32 7893.68,-236.32 7897.88,-236.32 7902.07,-240.52 7902.07,-244.72 7902.07,-244.72 7902.07,-253.12 7902.07,-253.12 7902.07,-257.32 7897.88,-261.52 7893.68,-261.52"/>
<text xml:space="preserve" text-anchor="middle" x="7842" y="-245.82" font-family="Helvetica,sans-Serif" font-size="8.00">agent&#45;dx&#45;governed&#45;edit [v0.7]</text>
</g>
<!-- SURFACE_agent_dx_governed_edit&#45;&gt;CORE_agent_drift_warning -->
<g id="edge15" class="edge">
<title>SURFACE_agent_dx_governed_edit&#45;&gt;CORE_agent_drift_warning</title>
<path fill="none" stroke="#888888" d="M7829.49,-235.37C7820.88,-226.73 7809.35,-215.16 7799.93,-205.71"/>
<polygon fill="#888888" stroke="#888888" points="7801.33,-204.63 7796.56,-202.33 7798.85,-207.11 7801.33,-204.63"/>
</g>
<!-- SURFACE_governed_write_tools -->
<g id="node68" class="node">
<title>SURFACE_governed_write_tools</title>
<path fill="#ffa07a" stroke="black" stroke-width="2" d="M7947.43,-200.32C7947.43,-200.32 7854.57,-200.32 7854.57,-200.32 7850.38,-200.32 7846.18,-196.12 7846.18,-191.92 7846.18,-191.92 7846.18,-183.52 7846.18,-183.52 7846.18,-179.32 7850.38,-175.12 7854.57,-175.12 7854.57,-175.12 7947.43,-175.12 7947.43,-175.12 7951.62,-175.12 7955.82,-179.32 7955.82,-183.52 7955.82,-183.52 7955.82,-191.92 7955.82,-191.92 7955.82,-196.12 7951.62,-200.32 7947.43,-200.32"/>
<text xml:space="preserve" text-anchor="middle" x="7901" y="-184.62" font-family="Helvetica,sans-Serif" font-size="8.00">governed&#45;write&#45;tools [v0.7]</text>
</g>
<!-- SURFACE_agent_dx_governed_edit&#45;&gt;SURFACE_governed_write_tools -->
<g id="edge16" class="edge">
<title>SURFACE_agent_dx_governed_edit&#45;&gt;SURFACE_governed_write_tools</title>
<path fill="none" stroke="#888888" d="M7854.51,-235.37C7863.12,-226.73 7874.65,-215.16 7884.07,-205.71"/>
<polygon fill="#888888" stroke="#888888" points="7885.15,-207.11 7887.44,-202.33 7882.67,-204.63 7885.15,-207.11"/>
</g>
<!-- CLEAN_CODE_parallel_agent_merge_shared_file_loss -->
<g id="node69" class="node">
<title>CLEAN_CODE_parallel_agent_merge_shared_file_loss</title>
<path fill="#b0d4f1" stroke="black" d="M8032.43,-261.52C8032.43,-261.52 7921.57,-261.52 7921.57,-261.52 7917.38,-261.52 7913.18,-257.32 7913.18,-253.12 7913.18,-253.12 7913.18,-244.72 7913.18,-244.72 7913.18,-240.52 7917.38,-236.32 7921.57,-236.32 7921.57,-236.32 8032.43,-236.32 8032.43,-236.32 8036.62,-236.32 8040.82,-240.52 8040.82,-244.72 8040.82,-244.72 8040.82,-253.12 8040.82,-253.12 8040.82,-257.32 8036.62,-261.52 8032.43,-261.52"/>
<text xml:space="preserve" text-anchor="middle" x="7977" y="-245.82" font-family="Helvetica,sans-Serif" font-size="8.00">parallel&#45;agent&#45;merge&#45;shar... · M</text>
</g>
<!-- CORE_agent_worktree_hygiene -->
<g id="node70" class="node">
<title>CORE_agent_worktree_hygiene</title>
<path fill="#ffa07a" stroke="black" d="M8165.43,-261.52C8165.43,-261.52 8060.57,-261.52 8060.57,-261.52 8056.38,-261.52 8052.18,-257.32 8052.18,-253.12 8052.18,-253.12 8052.18,-244.72 8052.18,-244.72 8052.18,-240.52 8056.38,-236.32 8060.57,-236.32 8060.57,-236.32 8165.43,-236.32 8165.43,-236.32 8169.62,-236.32 8173.82,-240.52 8173.82,-244.72 8173.82,-244.72 8173.82,-253.12 8173.82,-253.12 8173.82,-257.32 8169.62,-261.52 8165.43,-261.52"/>
<text xml:space="preserve" text-anchor="middle" x="8113" y="-245.82" font-family="Helvetica,sans-Serif" font-size="8.00">agent&#45;worktree&#45;hygiene [v0.7]</text>
</g>
<!-- WARP_degeneracy_warning -->
<g id="node71" class="node">
<title>WARP_degeneracy_warning</title>
<path fill="#b0d4f1" stroke="black" d="M8278.3,-261.52C8278.3,-261.52 8193.7,-261.52 8193.7,-261.52 8189.5,-261.52 8185.3,-257.32 8185.3,-253.12 8185.3,-253.12 8185.3,-244.72 8185.3,-244.72 8185.3,-240.52 8189.5,-236.32 8193.7,-236.32 8193.7,-236.32 8278.3,-236.32 8278.3,-236.32 8282.5,-236.32 8286.7,-240.52 8286.7,-244.72 8286.7,-244.72 8286.7,-253.12 8286.7,-253.12 8286.7,-257.32 8282.5,-261.52 8278.3,-261.52"/>
<text xml:space="preserve" text-anchor="middle" x="8236" y="-245.82" font-family="Helvetica,sans-Serif" font-size="8.00">degeneracy&#45;warning · M</text>
</g>
<!-- WARP_intentional_degeneracy_privacy -->
<g id="node72" class="node">
<title>WARP_intentional_degeneracy_privacy</title>
<path fill="#b0d4f1" stroke="black" d="M8414.3,-261.52C8414.3,-261.52 8305.7,-261.52 8305.7,-261.52 8301.5,-261.52 8297.3,-257.32 8297.3,-253.12 8297.3,-253.12 8297.3,-244.72 8297.3,-244.72 8297.3,-240.52 8301.5,-236.32 8305.7,-236.32 8305.7,-236.32 8414.3,-236.32 8414.3,-236.32 8418.5,-236.32 8422.7,-240.52 8422.7,-244.72 8422.7,-244.72 8422.7,-253.12 8422.7,-253.12 8422.7,-257.32 8418.5,-261.52 8414.3,-261.52"/>
<text xml:space="preserve" text-anchor="middle" x="8360" y="-245.82" font-family="Helvetica,sans-Serif" font-size="8.00">intentional&#45;degeneracy&#45;pr... · M</text>
</g>
<!-- SURFACE_active_causal_workspace_status -->
<g id="node73" class="node">
<title>SURFACE_active_causal_workspace_status</title>
<path fill="#b0d4f1" stroke="black" stroke-width="2" d="M400.8,-261.52C400.8,-261.52 289.2,-261.52 289.2,-261.52 285,-261.52 280.8,-257.32 280.8,-253.12 280.8,-253.12 280.8,-244.72 280.8,-244.72 280.8,-240.52 285,-236.32 289.2,-236.32 289.2,-236.32 400.8,-236.32 400.8,-236.32 405,-236.32 409.2,-240.52 409.2,-244.72 409.2,-244.72 409.2,-253.12 409.2,-253.12 409.2,-257.32 405,-261.52 400.8,-261.52"/>
<text xml:space="preserve" text-anchor="middle" x="345" y="-245.82" font-family="Helvetica,sans-Serif" font-size="8.00">active&#45;causal&#45;workspace&#45;s... · M</text>
</g>
<!-- SURFACE_ide_native_graft_integration -->
<g id="node74" class="node">
<title>SURFACE_ide_native_graft_integration</title>
<path fill="#7eb6e0" stroke="black" stroke-width="2" d="M399.3,-200.32C399.3,-200.32 290.7,-200.32 290.7,-200.32 286.5,-200.32 282.3,-196.12 282.3,-191.92 282.3,-191.92 282.3,-183.52 282.3,-183.52 282.3,-179.32 286.5,-175.12 290.7,-175.12 290.7,-175.12 399.3,-175.12 399.3,-175.12 403.5,-175.12 407.7,-179.32 407.7,-183.52 407.7,-183.52 407.7,-191.92 407.7,-191.92 407.7,-196.12 403.5,-200.32 399.3,-200.32"/>
<text xml:space="preserve" text-anchor="middle" x="345" y="-184.62" font-family="Helvetica,sans-Serif" font-size="8.00">ide&#45;native&#45;graft&#45;integration · XL</text>
</g>
<!-- SURFACE_active_causal_workspace_status&#45;&gt;SURFACE_ide_native_graft_integration -->
<g id="edge8" class="edge">
<title>SURFACE_active_causal_workspace_status&#45;&gt;SURFACE_ide_native_graft_integration</title>
<path fill="none" stroke="#888888" d="M345,-235.37C345,-227.28 345,-216.62 345,-207.54"/>
<polygon fill="#888888" stroke="#888888" points="346.75,-207.77 345,-202.77 343.25,-207.77 346.75,-207.77"/>
</g>
<!-- CI_003_mcp_native_diff_protocol -->
<g id="node75" class="node">
<title>CI_003_mcp_native_diff_protocol</title>
<path fill="#b0d4f1" stroke="black" d="M536.93,-261.52C536.93,-261.52 429.07,-261.52 429.07,-261.52 424.88,-261.52 420.68,-257.32 420.68,-253.12 420.68,-253.12 420.68,-244.72 420.68,-244.72 420.68,-240.52 424.88,-236.32 429.07,-236.32 429.07,-236.32 536.93,-236.32 536.93,-236.32 541.12,-236.32 545.33,-240.52 545.33,-244.72 545.33,-244.72 545.33,-253.12 545.33,-253.12 545.33,-257.32 541.12,-261.52 536.93,-261.52"/>
<text xml:space="preserve" text-anchor="middle" x="483" y="-245.82" font-family="Helvetica,sans-Serif" font-size="8.00">CI&#45;003&#45;mcp&#45;native&#45;diff&#45;pr... · M</text>
</g>
<!-- CORE_pr_review_structural_summary -->
<g id="node77" class="node">
<title>CORE_pr_review_structural_summary</title>
<path fill="#b0d4f1" stroke="black" d="M681.43,-261.52C681.43,-261.52 564.57,-261.52 564.57,-261.52 560.38,-261.52 556.17,-257.32 556.17,-253.12 556.17,-253.12 556.17,-244.72 556.17,-244.72 556.17,-240.52 560.38,-236.32 564.57,-236.32 564.57,-236.32 681.43,-236.32 681.43,-236.32 685.62,-236.32 689.83,-240.52 689.83,-244.72 689.83,-244.72 689.83,-253.12 689.83,-253.12 689.83,-257.32 685.62,-261.52 681.43,-261.52"/>
<text xml:space="preserve" text-anchor="middle" x="623" y="-245.82" font-family="Helvetica,sans-Serif" font-size="8.00">pr&#45;review&#45;structural&#45;summary · M</text>
</g>
<!-- CORE_structural_test_coverage_map -->
<g id="node78" class="node">
<title>CORE_structural_test_coverage_map</title>
<path fill="#b0d4f1" stroke="black" d="M824.3,-261.52C824.3,-261.52 709.7,-261.52 709.7,-261.52 705.5,-261.52 701.3,-257.32 701.3,-253.12 701.3,-253.12 701.3,-244.72 701.3,-244.72 701.3,-240.52 705.5,-236.32 709.7,-236.32 709.7,-236.32 824.3,-236.32 824.3,-236.32 828.5,-236.32 832.7,-240.52 832.7,-244.72 832.7,-244.72 832.7,-253.12 832.7,-253.12 832.7,-257.32 828.5,-261.52 824.3,-261.52"/>
<text xml:space="preserve" text-anchor="middle" x="767" y="-245.82" font-family="Helvetica,sans-Serif" font-size="8.00">structural&#45;test&#45;coverage&#45;map · M</text>
</g>
<!-- SURFACE_attach_to_existing_causal_session -->
<g id="node79" class="node">
<title>SURFACE_attach_to_existing_causal_session</title>
<path fill="#b0d4f1" stroke="black" d="M956.05,-261.52C956.05,-261.52 851.95,-261.52 851.95,-261.52 847.75,-261.52 843.55,-257.32 843.55,-253.12 843.55,-253.12 843.55,-244.72 843.55,-244.72 843.55,-240.52 847.75,-236.32 851.95,-236.32 851.95,-236.32 956.05,-236.32 956.05,-236.32 960.25,-236.32 964.45,-240.52 964.45,-244.72 964.45,-244.72 964.45,-253.12 964.45,-253.12 964.45,-257.32 960.25,-261.52 956.05,-261.52"/>
<text xml:space="preserve" text-anchor="middle" x="904" y="-245.82" font-family="Helvetica,sans-Serif" font-size="8.00">attach&#45;to&#45;existing&#45;causal... · M</text>
</g>
<!-- SURFACE_local_history_dag_render_mode_and_count_legend -->
<g id="node80" class="node">
<title>SURFACE_local_history_dag_render_mode_and_count_legend</title>
<path fill="#d4e8f7" stroke="black" d="M1088.42,-261.52C1088.42,-261.52 983.57,-261.52 983.57,-261.52 979.38,-261.52 975.17,-257.32 975.17,-253.12 975.17,-253.12 975.17,-244.72 975.17,-244.72 975.17,-240.52 979.38,-236.32 983.57,-236.32 983.57,-236.32 1088.42,-236.32 1088.42,-236.32 1092.62,-236.32 1096.83,-240.52 1096.83,-244.72 1096.83,-244.72 1096.83,-253.12 1096.83,-253.12 1096.83,-257.32 1092.62,-261.52 1088.42,-261.52"/>
<text xml:space="preserve" text-anchor="middle" x="1036" y="-245.82" font-family="Helvetica,sans-Serif" font-size="8.00">local&#45;history&#45;dag&#45;render&#45;... · S</text>
</g>
<!-- SURFACE_non_codex_instruction_bootstrap_parity -->
<g id="node81" class="node">
<title>SURFACE_non_codex_instruction_bootstrap_parity</title>
<path fill="#b0d4f1" stroke="black" d="M1227.42,-261.52C1227.42,-261.52 1116.58,-261.52 1116.58,-261.52 1112.38,-261.52 1108.17,-257.32 1108.17,-253.12 1108.17,-253.12 1108.17,-244.72 1108.17,-244.72 1108.17,-240.52 1112.38,-236.32 1116.58,-236.32 1116.58,-236.32 1227.42,-236.32 1227.42,-236.32 1231.62,-236.32 1235.83,-240.52 1235.83,-244.72 1235.83,-244.72 1235.83,-253.12 1235.83,-253.12 1235.83,-257.32 1231.62,-261.52 1227.42,-261.52"/>
<text xml:space="preserve" text-anchor="middle" x="1172" y="-245.82" font-family="Helvetica,sans-Serif" font-size="8.00">non&#45;codex&#45;instruction&#45;boo... · M</text>
</g>
<!-- SURFACE_offer_rename_refactor -->
<g id="node82" class="node">
<title>SURFACE_offer_rename_refactor</title>
<path fill="#8ec5e5" stroke="black" d="M1342.42,-261.52C1342.42,-261.52 1255.58,-261.52 1255.58,-261.52 1251.38,-261.52 1247.17,-257.32 1247.17,-253.12 1247.17,-253.12 1247.17,-244.72 1247.17,-244.72 1247.17,-240.52 1251.38,-236.32 1255.58,-236.32 1255.58,-236.32 1342.42,-236.32 1342.42,-236.32 1346.62,-236.32 1350.83,-240.52 1350.83,-244.72 1350.83,-244.72 1350.83,-253.12 1350.83,-253.12 1350.83,-257.32 1346.62,-261.52 1342.42,-261.52"/>
<text xml:space="preserve" text-anchor="middle" x="1299" y="-245.82" font-family="Helvetica,sans-Serif" font-size="8.00">offer&#45;rename&#45;refactor · L</text>
</g>
<!-- SURFACE_terminal_activity_browser_tui -->
<g id="node83" class="node">
<title>SURFACE_terminal_activity_browser_tui</title>
<path fill="#8ec5e5" stroke="black" d="M1471.92,-261.52C1471.92,-261.52 1370.08,-261.52 1370.08,-261.52 1365.88,-261.52 1361.67,-257.32 1361.67,-253.12 1361.67,-253.12 1361.67,-244.72 1361.67,-244.72 1361.67,-240.52 1365.88,-236.32 1370.08,-236.32 1370.08,-236.32 1471.92,-236.32 1471.92,-236.32 1476.12,-236.32 1480.33,-240.52 1480.33,-244.72 1480.33,-244.72 1480.33,-253.12 1480.33,-253.12 1480.33,-257.32 1476.12,-261.52 1471.92,-261.52"/>
<text xml:space="preserve" text-anchor="middle" x="1421" y="-245.82" font-family="Helvetica,sans-Serif" font-size="8.00">terminal&#45;activity&#45;browser... · L</text>
</g>
<!-- WARP_graft_pack -->
<g id="node84" class="node">
<title>WARP_graft_pack</title>
<path fill="#b0d4f1" stroke="black" d="M1546.55,-261.52C1546.55,-261.52 1499.45,-261.52 1499.45,-261.52 1495.25,-261.52 1491.05,-257.32 1491.05,-253.12 1491.05,-253.12 1491.05,-244.72 1491.05,-244.72 1491.05,-240.52 1495.25,-236.32 1499.45,-236.32 1499.45,-236.32 1546.55,-236.32 1546.55,-236.32 1550.75,-236.32 1554.95,-240.52 1554.95,-244.72 1554.95,-244.72 1554.95,-253.12 1554.95,-253.12 1554.95,-257.32 1550.75,-261.52 1546.55,-261.52"/>
<text xml:space="preserve" text-anchor="middle" x="1523" y="-245.82" font-family="Helvetica,sans-Serif" font-size="8.00">graft&#45;pack · M</text>
</g>
<!-- WARP_lsp_enrichment -->
<g id="node85" class="node">
<title>WARP_lsp_enrichment</title>
<path fill="#ffa07a" stroke="black" d="M1645.92,-261.52C1645.92,-261.52 1574.08,-261.52 1574.08,-261.52 1569.88,-261.52 1565.67,-257.32 1565.67,-253.12 1565.67,-253.12 1565.67,-244.72 1565.67,-244.72 1565.67,-240.52 1569.88,-236.32 1574.08,-236.32 1574.08,-236.32 1645.92,-236.32 1645.92,-236.32 1650.12,-236.32 1654.33,-240.52 1654.33,-244.72 1654.33,-244.72 1654.33,-253.12 1654.33,-253.12 1654.33,-257.32 1650.12,-261.52 1645.92,-261.52"/>
<text xml:space="preserve" text-anchor="middle" x="1610" y="-245.82" font-family="Helvetica,sans-Serif" font-size="8.00">lsp&#45;enrichment [v0.7]</text>
</g>
<!-- CORE_daemon_aware_stdio_bridge_for_mcp_clients -->
<g id="node86" class="node">
<title>CORE_daemon_aware_stdio_bridge_for_mcp_clients</title>
<path fill="#ffa07a" stroke="black" stroke-width="2" d="M8583.93,-261.52C8583.93,-261.52 8458.07,-261.52 8458.07,-261.52 8453.88,-261.52 8449.67,-257.32 8449.67,-253.12 8449.67,-253.12 8449.67,-244.72 8449.67,-244.72 8449.67,-240.52 8453.88,-236.32 8458.07,-236.32 8458.07,-236.32 8583.93,-236.32 8583.93,-236.32 8588.12,-236.32 8592.33,-240.52 8592.33,-244.72 8592.33,-244.72 8592.33,-253.12 8592.33,-253.12 8592.33,-257.32 8588.12,-261.52 8583.93,-261.52"/>
<text xml:space="preserve" text-anchor="middle" x="8521" y="-245.82" font-family="Helvetica,sans-Serif" font-size="8.00">daemon&#45;aware&#45;stdio&#45;bridge... [v0.7]</text>
</g>
<!-- CORE_opt_in_daemon_mode_mcp_bootstrap -->
<g id="node87" class="node">
<title>CORE_opt_in_daemon_mode_mcp_bootstrap</title>
<path fill="#ffa07a" stroke="black" stroke-width="2" d="M8586.93,-200.32C8586.93,-200.32 8455.07,-200.32 8455.07,-200.32 8450.88,-200.32 8446.67,-196.12 8446.67,-191.92 8446.67,-191.92 8446.67,-183.52 8446.67,-183.52 8446.67,-179.32 8450.88,-175.12 8455.07,-175.12 8455.07,-175.12 8586.93,-175.12 8586.93,-175.12 8591.12,-175.12 8595.33,-179.32 8595.33,-183.52 8595.33,-183.52 8595.33,-191.92 8595.33,-191.92 8595.33,-196.12 8591.12,-200.32 8586.93,-200.32"/>
<text xml:space="preserve" text-anchor="middle" x="8521" y="-184.62" font-family="Helvetica,sans-Serif" font-size="8.00">opt&#45;in&#45;daemon&#45;mode&#45;mcp&#45;bo... [v0.7]</text>
</g>
<!-- CORE_daemon_aware_stdio_bridge_for_mcp_clients&#45;&gt;CORE_opt_in_daemon_mode_mcp_bootstrap -->
<g id="edge14" class="edge">
<title>CORE_daemon_aware_stdio_bridge_for_mcp_clients&#45;&gt;CORE_opt_in_daemon_mode_mcp_bootstrap</title>
<path fill="none" stroke="#888888" d="M8521,-235.37C8521,-227.28 8521,-216.62 8521,-207.54"/>
<polygon fill="#888888" stroke="#888888" points="8522.75,-207.77 8521,-202.77 8519.25,-207.77 8522.75,-207.77"/>
</g>
<!-- SURFACE_bijou_tui_for_graft_daemon_control_plane -->
<g id="node88" class="node">
<title>SURFACE_bijou_tui_for_graft_daemon_control_plane</title>
<path fill="#ffa07a" stroke="black" d="M8577.93,-139.12C8577.93,-139.12 8464.07,-139.12 8464.07,-139.12 8459.88,-139.12 8455.67,-134.92 8455.67,-130.72 8455.67,-130.72 8455.67,-122.32 8455.67,-122.32 8455.67,-118.12 8459.88,-113.92 8464.07,-113.92 8464.07,-113.92 8577.93,-113.92 8577.93,-113.92 8582.12,-113.92 8586.33,-118.12 8586.33,-122.32 8586.33,-122.32 8586.33,-130.72 8586.33,-130.72 8586.33,-134.92 8582.12,-139.12 8577.93,-139.12"/>
<text xml:space="preserve" text-anchor="middle" x="8521" y="-123.42" font-family="Helvetica,sans-Serif" font-size="8.00">bijou&#45;tui&#45;for&#45;graft&#45;daemo... [v0.7]</text>
</g>
<!-- CORE_opt_in_daemon_mode_mcp_bootstrap&#45;&gt;SURFACE_bijou_tui_for_graft_daemon_control_plane -->
<g id="edge13" class="edge">
<title>CORE_opt_in_daemon_mode_mcp_bootstrap&#45;&gt;SURFACE_bijou_tui_for_graft_daemon_control_plane</title>
<path fill="none" stroke="#888888" d="M8521,-174.17C8521,-165.86 8521,-154.85 8521,-145.6"/>
<polygon fill="#888888" stroke="#888888" points="8522.75,-145.76 8521,-140.76 8519.25,-145.76 8522.75,-145.76"/>
</g>
<!-- leg_trunk -->
<g id="node89" class="node">
<title>leg_trunk</title>
<path fill="#b0d4f1" stroke="black" stroke-width="2" d="M8675,-261.52C8675,-261.52 8627,-261.52 8627,-261.52 8622.8,-261.52 8618.6,-257.32 8618.6,-253.12 8618.6,-253.12 8618.6,-244.72 8618.6,-244.72 8618.6,-240.52 8622.8,-236.32 8627,-236.32 8627,-236.32 8675,-236.32 8675,-236.32 8679.2,-236.32 8683.4,-240.52 8683.4,-244.72 8683.4,-244.72 8683.4,-253.12 8683.4,-253.12 8683.4,-257.32 8679.2,-261.52 8675,-261.52"/>
<text xml:space="preserve" text-anchor="middle" x="8651" y="-246.4" font-family="Helvetica,sans-Serif" font-size="7.00">trunk (bold)</text>
</g>
<!-- leg_leaf -->
<g id="node90" class="node">
<title>leg_leaf</title>
<path fill="#b0d4f1" stroke="black" d="M8675,-200.32C8675,-200.32 8627,-200.32 8627,-200.32 8622.8,-200.32 8618.6,-196.12 8618.6,-191.92 8618.6,-191.92 8618.6,-183.52 8618.6,-183.52 8618.6,-179.32 8622.8,-175.12 8627,-175.12 8627,-175.12 8675,-175.12 8675,-175.12 8679.2,-175.12 8683.4,-179.32 8683.4,-183.52 8683.4,-183.52 8683.4,-191.92 8683.4,-191.92 8683.4,-196.12 8679.2,-200.32 8675,-200.32"/>
<text xml:space="preserve" text-anchor="middle" x="8651" y="-185.2" font-family="Helvetica,sans-Serif" font-size="7.00">leaf (thin)</text>
</g>
<!-- leg_trunk&#45;&gt;leg_leaf -->
<!-- leg_v07 -->
<g id="node91" class="node">
<title>leg_v07</title>
<path fill="#ffa07a" stroke="black" d="M8675,-139.12C8675,-139.12 8627,-139.12 8627,-139.12 8622.8,-139.12 8618.6,-134.92 8618.6,-130.72 8618.6,-130.72 8618.6,-122.32 8618.6,-122.32 8618.6,-118.12 8622.8,-113.92 8627,-113.92 8627,-113.92 8675,-113.92 8675,-113.92 8679.2,-113.92 8683.4,-118.12 8683.4,-122.32 8683.4,-122.32 8683.4,-130.72 8683.4,-130.72 8683.4,-134.92 8679.2,-139.12 8675,-139.12"/>
<text xml:space="preserve" text-anchor="middle" x="8651" y="-124" font-family="Helvetica,sans-Serif" font-size="7.00">v0.7.0 / debt</text>
</g>
<!-- leg_leaf&#45;&gt;leg_v07 -->
<!-- leg_seam -->
<g id="node92" class="node">
<title>leg_seam</title>
<path fill="white" stroke="black" d="M8675,-77.92C8675,-77.92 8627,-77.92 8627,-77.92 8622.8,-77.92 8618.6,-73.72 8618.6,-69.52 8618.6,-69.52 8618.6,-61.12 8618.6,-61.12 8618.6,-56.92 8622.8,-52.72 8627,-52.72 8627,-52.72 8675,-52.72 8675,-52.72 8679.2,-52.72 8683.4,-56.92 8683.4,-61.12 8683.4,-61.12 8683.4,-69.52 8683.4,-69.52 8683.4,-73.72 8679.2,-77.92 8675,-77.92"/>
<text xml:space="preserve" text-anchor="middle" x="8651" y="-66.92" font-family="Helvetica,sans-Serif" font-size="7.00">cross&#45;feature</text>
<text xml:space="preserve" text-anchor="middle" x="8651" y="-58.67" font-family="Helvetica,sans-Serif" font-size="7.00">seam</text>
</g>
<!-- leg_v07&#45;&gt;leg_seam -->
<!-- edge_demo -->
<!-- leg_seam&#45;&gt;edge_demo -->
<g id="edge27" class="edge">
<title>leg_seam&#45;&gt;edge_demo</title>
<path fill="none" stroke="#cc3333" stroke-width="2" stroke-dasharray="5,2" d="M8651,-52.31C8651,-43.74 8651,-32.43 8651,-24.89"/>
<polygon fill="#cc3333" stroke="#cc3333" stroke-width="2" points="8652.75,-24.99 8651,-19.99 8649.25,-24.99 8652.75,-24.99"/>
</g>
</g>
</svg>
