<?xml version="1.0" encoding="UTF-8" standalone="no"?>
<!DOCTYPE svg PUBLIC "-//W3C//DTD SVG 1.1//EN"
 "http://www.w3.org/Graphics/SVG/1.1/DTD/svg11.dtd">
<!-- Generated by graphviz version 14.1.2 (20260124.0452)
 -->
<!-- Title: backlog Pages: 1 -->
<svg width="11502pt" height="449pt"
 viewBox="0.00 0.00 11502.00 449.00" xmlns="http://www.w3.org/2000/svg" xmlns:xlink="http://www.w3.org/1999/xlink">
<g id="graph0" class="graph" transform="scale(1 1) rotate(0) translate(4 445.2)">
<title>backlog</title>
<polygon fill="white" stroke="none" points="-4,4 -4,-445.2 11498,-445.2 11498,4 -4,4"/>
<text xml:space="preserve" text-anchor="middle" x="5747" y="-425.8" font-family="Helvetica,sans-Serif" font-size="12.00">Active backlog graph generated from docs/method/backlog/*/*.md</text>
<g id="clust1" class="cluster">
<title>cluster_v0_8_0</title>
<path fill="#fafafa" stroke="#cccccc" d="M20,-353.5C20,-353.5 1534,-353.5 1534,-353.5 1540,-353.5 1546,-359.5 1546,-365.5 1546,-365.5 1546,-400.45 1546,-400.45 1546,-406.45 1540,-412.45 1534,-412.45 1534,-412.45 20,-412.45 20,-412.45 14,-412.45 8,-406.45 8,-400.45 8,-400.45 8,-365.5 8,-365.5 8,-359.5 14,-353.5 20,-353.5"/>
<text xml:space="preserve" text-anchor="middle" x="35.12" y="-399.9" font-family="Helvetica,sans-Serif" font-size="9.00" fill="#555555">v0.8.0 (9)</text>
</g>
<g id="clust2" class="cluster">
<title>cluster_cool_ideas</title>
<path fill="#fafafa" stroke="#cccccc" d="M1566,-206.6C1566,-206.6 10882,-206.6 10882,-206.6 10888,-206.6 10894,-212.6 10894,-218.6 10894,-218.6 10894,-400.45 10894,-400.45 10894,-406.45 10888,-412.45 10882,-412.45 10882,-412.45 1566,-412.45 1566,-412.45 1560,-412.45 1554,-406.45 1554,-400.45 1554,-400.45 1554,-218.6 1554,-218.6 1554,-212.6 1560,-206.6 1566,-206.6"/>
<text xml:space="preserve" text-anchor="middle" x="1593.5" y="-399.9" font-family="Helvetica,sans-Serif" font-size="9.00" fill="#555555">Cool Ideas (74)</text>
</g>
<g id="clust3" class="cluster">
<title>cluster_external</title>
<path fill="#f8fbff" stroke="#cccccc" d="M10914,-353.5C10914,-353.5 11086,-353.5 11086,-353.5 11092,-353.5 11098,-359.5 11098,-365.5 11098,-365.5 11098,-400.45 11098,-400.45 11098,-406.45 11092,-412.45 11086,-412.45 11086,-412.45 10914,-412.45 10914,-412.45 10908,-412.45 10902,-406.45 10902,-400.45 10902,-400.45 10902,-365.5 10902,-365.5 10902,-359.5 10908,-353.5 10914,-353.5"/>
<text xml:space="preserve" text-anchor="middle" x="10945.25" y="-399.9" font-family="Helvetica,sans-Serif" font-size="9.00" fill="#555555">External blockers</text>
</g>
<g id="clust4" class="cluster">
<title>cluster_unresolved</title>
<path fill="#fff7f7" stroke="#cc3333" stroke-dasharray="5,2" d="M11118,-353.5C11118,-353.5 11350,-353.5 11350,-353.5 11356,-353.5 11362,-359.5 11362,-365.5 11362,-365.5 11362,-400.45 11362,-400.45 11362,-406.45 11356,-412.45 11350,-412.45 11350,-412.45 11118,-412.45 11118,-412.45 11112,-412.45 11106,-406.45 11106,-400.45 11106,-400.45 11106,-365.5 11106,-365.5 11106,-359.5 11112,-353.5 11118,-353.5"/>
<text xml:space="preserve" text-anchor="middle" x="11162.75" y="-399.9" font-family="Helvetica,sans-Serif" font-size="9.00" fill="#555555">Unresolved internal refs</text>
</g>
<g id="clust5" class="cluster">
<title>cluster_legend</title>
<path fill="none" stroke="#dddddd" d="M11382,-8C11382,-8 11474,-8 11474,-8 11480,-8 11486,-14 11486,-20 11486,-20 11486,-399.7 11486,-399.7 11486,-405.7 11480,-411.7 11474,-411.7 11474,-411.7 11382,-411.7 11382,-411.7 11376,-411.7 11370,-405.7 11370,-399.7 11370,-399.7 11370,-20 11370,-20 11370,-14 11376,-8 11382,-8"/>
<text xml:space="preserve" text-anchor="middle" x="11391.5" y="-400.1" font-family="Helvetica,sans-Serif" font-size="8.00" fill="#aaaaaa">Legend</text>
</g>
<!-- v0_8_0_CORE_pr_review_structural_summary -->
<g id="node1" class="node">
<title>v0_8_0_CORE_pr_review_structural_summary</title>
<path fill="#c8e6c9" stroke="black" stroke-width="2" d="M167.92,-386.7C167.92,-386.7 24.08,-386.7 24.08,-386.7 19.88,-386.7 15.67,-382.5 15.67,-378.3 15.67,-378.3 15.67,-369.9 15.67,-369.9 15.67,-365.7 19.88,-361.5 24.08,-361.5 24.08,-361.5 167.92,-361.5 167.92,-361.5 172.12,-361.5 176.32,-365.7 176.32,-369.9 176.32,-369.9 176.32,-378.3 176.32,-378.3 176.32,-382.5 172.12,-386.7 167.92,-386.7"/>
<text xml:space="preserve" text-anchor="middle" x="96" y="-371" font-family="Helvetica,sans-Serif" font-size="8.00">CORE&#45;pr&#45;review&#45;structural&#45;summary &#45; M</text>
</g>
<!-- v0_8_0_CORE_structural_test_coverage_map -->
<g id="node2" class="node">
<title>v0_8_0_CORE_structural_test_coverage_map</title>
<path fill="#c8e6c9" stroke="black" stroke-width="2" d="M340.8,-386.7C340.8,-386.7 199.2,-386.7 199.2,-386.7 195,-386.7 190.8,-382.5 190.8,-378.3 190.8,-378.3 190.8,-369.9 190.8,-369.9 190.8,-365.7 195,-361.5 199.2,-361.5 199.2,-361.5 340.8,-361.5 340.8,-361.5 345,-361.5 349.2,-365.7 349.2,-369.9 349.2,-369.9 349.2,-378.3 349.2,-378.3 349.2,-382.5 345,-386.7 340.8,-386.7"/>
<text xml:space="preserve" text-anchor="middle" x="270" y="-371" font-family="Helvetica,sans-Serif" font-size="8.00">CORE&#45;structural&#45;test&#45;coverage&#45;map &#45; M</text>
</g>
<!-- v0_8_0_CORE_tool_context_injection_contracts -->
<g id="node3" class="node">
<title>v0_8_0_CORE_tool_context_injection_contracts</title>
<path fill="#c8e6c9" stroke="black" stroke-width="2" d="M518.05,-386.7C518.05,-386.7 371.95,-386.7 371.95,-386.7 367.75,-386.7 363.55,-382.5 363.55,-378.3 363.55,-378.3 363.55,-369.9 363.55,-369.9 363.55,-365.7 367.75,-361.5 371.95,-361.5 371.95,-361.5 518.05,-361.5 518.05,-361.5 522.25,-361.5 526.45,-365.7 526.45,-369.9 526.45,-369.9 526.45,-378.3 526.45,-378.3 526.45,-382.5 522.25,-386.7 518.05,-386.7"/>
<text xml:space="preserve" text-anchor="middle" x="445" y="-371" font-family="Helvetica,sans-Serif" font-size="8.00">CORE&#45;tool&#45;context&#45;injection&#45;contracts &#45; M</text>
</g>
<!-- v0_8_0_SURFACE_git_graft_enhance_provenance_hints -->
<g id="node4" class="node">
<title>v0_8_0_SURFACE_git_graft_enhance_provenance_hints</title>
<path fill="#c8e6c9" stroke="black" stroke-width="2" d="M713.43,-386.7C713.43,-386.7 548.57,-386.7 548.57,-386.7 544.38,-386.7 540.17,-382.5 540.17,-378.3 540.17,-378.3 540.17,-369.9 540.17,-369.9 540.17,-365.7 544.38,-361.5 548.57,-361.5 548.57,-361.5 713.43,-361.5 713.43,-361.5 717.62,-361.5 721.83,-365.7 721.83,-369.9 721.83,-369.9 721.83,-378.3 721.83,-378.3 721.83,-382.5 717.62,-386.7 713.43,-386.7"/>
<text xml:space="preserve" text-anchor="middle" x="631" y="-371" font-family="Helvetica,sans-Serif" font-size="8.00">SURFACE&#45;git&#45;graft&#45;enhance&#45;provenance&#45;hints</text>
</g>
<!-- v0_8_0_SURFACE_pr_feedback_resolution_ledger -->
<g id="node5" class="node">
<title>v0_8_0_SURFACE_pr_feedback_resolution_ledger</title>
<path fill="#c8e6c9" stroke="black" stroke-width="2" d="M903.43,-386.7C903.43,-386.7 744.57,-386.7 744.57,-386.7 740.38,-386.7 736.17,-382.5 736.17,-378.3 736.17,-378.3 736.17,-369.9 736.17,-369.9 736.17,-365.7 740.38,-361.5 744.57,-361.5 744.57,-361.5 903.43,-361.5 903.43,-361.5 907.62,-361.5 911.83,-365.7 911.83,-369.9 911.83,-369.9 911.83,-378.3 911.83,-378.3 911.83,-382.5 907.62,-386.7 903.43,-386.7"/>
<text xml:space="preserve" text-anchor="middle" x="824" y="-371" font-family="Helvetica,sans-Serif" font-size="8.00">SURFACE&#45;pr&#45;feedback&#45;resolution&#45;ledger &#45; M</text>
</g>
<!-- v0_8_0_SURFACE_review_cooldown_status -->
<g id="node6" class="node">
<title>v0_8_0_SURFACE_review_cooldown_status</title>
<path fill="#c8e6c9" stroke="black" stroke-width="2" d="M1069.8,-386.7C1069.8,-386.7 934.2,-386.7 934.2,-386.7 930,-386.7 925.8,-382.5 925.8,-378.3 925.8,-378.3 925.8,-369.9 925.8,-369.9 925.8,-365.7 930,-361.5 934.2,-361.5 934.2,-361.5 1069.8,-361.5 1069.8,-361.5 1074,-361.5 1078.2,-365.7 1078.2,-369.9 1078.2,-369.9 1078.2,-378.3 1078.2,-378.3 1078.2,-382.5 1074,-386.7 1069.8,-386.7"/>
<text xml:space="preserve" text-anchor="middle" x="1002" y="-371" font-family="Helvetica,sans-Serif" font-size="8.00">SURFACE&#45;review&#45;cooldown&#45;status &#45; S</text>
</g>
<!-- v0_8_0_TEST_bounded_subprocess_policy -->
<g id="node7" class="node">
<title>v0_8_0_TEST_bounded_subprocess_policy</title>
<path fill="#c8e6c9" stroke="black" stroke-width="2" d="M1231.17,-386.7C1231.17,-386.7 1100.83,-386.7 1100.83,-386.7 1096.62,-386.7 1092.42,-382.5 1092.42,-378.3 1092.42,-378.3 1092.42,-369.9 1092.42,-369.9 1092.42,-365.7 1096.62,-361.5 1100.83,-361.5 1100.83,-361.5 1231.17,-361.5 1231.17,-361.5 1235.38,-361.5 1239.58,-365.7 1239.58,-369.9 1239.58,-369.9 1239.58,-378.3 1239.58,-378.3 1239.58,-382.5 1235.38,-386.7 1231.17,-386.7"/>
<text xml:space="preserve" text-anchor="middle" x="1166" y="-371" font-family="Helvetica,sans-Serif" font-size="8.00">TEST&#45;bounded&#45;subprocess&#45;policy &#45; S</text>
</g>
<!-- v0_8_0_WARP_dead_symbol_detection -->
<g id="node8" class="node">
<title>v0_8_0_WARP_dead_symbol_detection</title>
<path fill="#c8e6c9" stroke="black" stroke-width="2" d="M1380.17,-386.7C1380.17,-386.7 1261.83,-386.7 1261.83,-386.7 1257.62,-386.7 1253.42,-382.5 1253.42,-378.3 1253.42,-378.3 1253.42,-369.9 1253.42,-369.9 1253.42,-365.7 1257.62,-361.5 1261.83,-361.5 1261.83,-361.5 1380.17,-361.5 1380.17,-361.5 1384.38,-361.5 1388.58,-365.7 1388.58,-369.9 1388.58,-369.9 1388.58,-378.3 1388.58,-378.3 1388.58,-382.5 1384.38,-386.7 1380.17,-386.7"/>
<text xml:space="preserve" text-anchor="middle" x="1321" y="-371" font-family="Helvetica,sans-Serif" font-size="8.00">WARP&#45;dead&#45;symbol&#45;detection &#45; S</text>
</g>
<!-- v0_8_0_WARP_symbol_history_timeline -->
<g id="node9" class="node">
<title>v0_8_0_WARP_symbol_history_timeline</title>
<path fill="#c8e6c9" stroke="black" stroke-width="2" d="M1529.17,-386.7C1529.17,-386.7 1410.83,-386.7 1410.83,-386.7 1406.62,-386.7 1402.42,-382.5 1402.42,-378.3 1402.42,-378.3 1402.42,-369.9 1402.42,-369.9 1402.42,-365.7 1406.62,-361.5 1410.83,-361.5 1410.83,-361.5 1529.17,-361.5 1529.17,-361.5 1533.38,-361.5 1537.58,-365.7 1537.58,-369.9 1537.58,-369.9 1537.58,-378.3 1537.58,-378.3 1537.58,-382.5 1533.38,-386.7 1529.17,-386.7"/>
<text xml:space="preserve" text-anchor="middle" x="1470" y="-371" font-family="Helvetica,sans-Serif" font-size="8.00">WARP&#45;symbol&#45;history&#45;timeline &#45; S</text>
</g>
<!-- cool_ideas_WARP_temporal_structural_search -->
<g id="node83" class="node">
<title>cool_ideas_WARP_temporal_structural_search</title>
<path fill="#d4e8f7" stroke="black" d="M1703.67,-313.25C1703.67,-313.25 1570.33,-313.25 1570.33,-313.25 1566.12,-313.25 1561.92,-309.05 1561.92,-304.85 1561.92,-304.85 1561.92,-296.45 1561.92,-296.45 1561.92,-292.25 1566.12,-288.05 1570.33,-288.05 1570.33,-288.05 1703.67,-288.05 1703.67,-288.05 1707.88,-288.05 1712.08,-292.25 1712.08,-296.45 1712.08,-296.45 1712.08,-304.85 1712.08,-304.85 1712.08,-309.05 1707.88,-313.25 1703.67,-313.25"/>
<text xml:space="preserve" text-anchor="middle" x="1637" y="-297.55" font-family="Helvetica,sans-Serif" font-size="8.00">WARP&#45;temporal&#45;structural&#45;search &#45; M</text>
</g>
<!-- v0_8_0_WARP_symbol_history_timeline&#45;&gt;cool_ideas_WARP_temporal_structural_search -->
<g id="edge15" class="edge">
<title>v0_8_0_WARP_symbol_history_timeline&#45;&gt;cool_ideas_WARP_temporal_structural_search</title>
<path fill="none" stroke="#666666" d="M1499.09,-360.65C1528,-348.28 1572.33,-329.32 1602.88,-316.25"/>
<polygon fill="#666666" stroke="#666666" points="1603.5,-317.89 1607.41,-314.31 1602.12,-314.67 1603.5,-317.89"/>
<text xml:space="preserve" text-anchor="middle" x="1590.01" y="-334.85" font-family="Helvetica,sans-Serif" font-size="7.00">blocked_by/blocking</text>
</g>
<!-- cool_ideas_bounded_neighborhood_for_references -->
<g id="node10" class="node">
<title>cool_ideas_bounded_neighborhood_for_references</title>
<path fill="#d4e8f7" stroke="black" d="M1719.17,-386.7C1719.17,-386.7 1570.83,-386.7 1570.83,-386.7 1566.62,-386.7 1562.42,-382.5 1562.42,-378.3 1562.42,-378.3 1562.42,-369.9 1562.42,-369.9 1562.42,-365.7 1566.62,-361.5 1570.83,-361.5 1570.83,-361.5 1719.17,-361.5 1719.17,-361.5 1723.38,-361.5 1727.58,-365.7 1727.58,-369.9 1727.58,-369.9 1727.58,-378.3 1727.58,-378.3 1727.58,-382.5 1723.38,-386.7 1719.17,-386.7"/>
<text xml:space="preserve" text-anchor="middle" x="1645" y="-371" font-family="Helvetica,sans-Serif" font-size="8.00">bounded&#45;neighborhood&#45;for&#45;references &#45; S</text>
</g>
<!-- cool_ideas_CI_001_causal_collapse_visualizer -->
<g id="node11" class="node">
<title>cool_ideas_CI_001_causal_collapse_visualizer</title>
<path fill="#d4e8f7" stroke="black" d="M7635.3,-313.25C7635.3,-313.25 7508.7,-313.25 7508.7,-313.25 7504.5,-313.25 7500.3,-309.05 7500.3,-304.85 7500.3,-304.85 7500.3,-296.45 7500.3,-296.45 7500.3,-292.25 7504.5,-288.05 7508.7,-288.05 7508.7,-288.05 7635.3,-288.05 7635.3,-288.05 7639.5,-288.05 7643.7,-292.25 7643.7,-296.45 7643.7,-296.45 7643.7,-304.85 7643.7,-304.85 7643.7,-309.05 7639.5,-313.25 7635.3,-313.25"/>
<text xml:space="preserve" text-anchor="middle" x="7572" y="-297.55" font-family="Helvetica,sans-Serif" font-size="8.00">CI&#45;001&#45;causal&#45;collapse&#45;visualizer &#45; L</text>
</g>
<!-- cool_ideas_CI_002_deterministic_scenario_replay -->
<g id="node12" class="node">
<title>cool_ideas_CI_002_deterministic_scenario_replay</title>
<path fill="#d4e8f7" stroke="black" d="M1889.67,-386.7C1889.67,-386.7 1750.33,-386.7 1750.33,-386.7 1746.12,-386.7 1741.92,-382.5 1741.92,-378.3 1741.92,-378.3 1741.92,-369.9 1741.92,-369.9 1741.92,-365.7 1746.12,-361.5 1750.33,-361.5 1750.33,-361.5 1889.67,-361.5 1889.67,-361.5 1893.88,-361.5 1898.08,-365.7 1898.08,-369.9 1898.08,-369.9 1898.08,-378.3 1898.08,-378.3 1898.08,-382.5 1893.88,-386.7 1889.67,-386.7"/>
<text xml:space="preserve" text-anchor="middle" x="1820" y="-371" font-family="Helvetica,sans-Serif" font-size="8.00">CI&#45;002&#45;deterministic&#45;scenario&#45;replay &#45; L</text>
</g>
<!-- cool_ideas_CI_003_mcp_native_diff_protocol -->
<g id="node13" class="node">
<title>cool_ideas_CI_003_mcp_native_diff_protocol</title>
<path fill="#d4e8f7" stroke="black" d="M2043.8,-386.7C2043.8,-386.7 1920.2,-386.7 1920.2,-386.7 1916,-386.7 1911.8,-382.5 1911.8,-378.3 1911.8,-378.3 1911.8,-369.9 1911.8,-369.9 1911.8,-365.7 1916,-361.5 1920.2,-361.5 1920.2,-361.5 2043.8,-361.5 2043.8,-361.5 2048,-361.5 2052.2,-365.7 2052.2,-369.9 2052.2,-369.9 2052.2,-378.3 2052.2,-378.3 2052.2,-382.5 2048,-386.7 2043.8,-386.7"/>
<text xml:space="preserve" text-anchor="middle" x="1982" y="-371" font-family="Helvetica,sans-Serif" font-size="8.00">CI&#45;003&#45;mcp&#45;native&#45;diff&#45;protocol &#45; M</text>
</g>
<!-- cool_ideas_CLEAN_CODE_parallel_agent_merge_shared_file_loss -->
<g id="node14" class="node">
<title>cool_ideas_CLEAN_CODE_parallel_agent_merge_shared_file_loss</title>
<path fill="#d4e8f7" stroke="black" d="M2275.05,-386.7C2275.05,-386.7 2074.95,-386.7 2074.95,-386.7 2070.75,-386.7 2066.55,-382.5 2066.55,-378.3 2066.55,-378.3 2066.55,-369.9 2066.55,-369.9 2066.55,-365.7 2070.75,-361.5 2074.95,-361.5 2074.95,-361.5 2275.05,-361.5 2275.05,-361.5 2279.25,-361.5 2283.45,-365.7 2283.45,-369.9 2283.45,-369.9 2283.45,-378.3 2283.45,-378.3 2283.45,-382.5 2279.25,-386.7 2275.05,-386.7"/>
<text xml:space="preserve" text-anchor="middle" x="2175" y="-371" font-family="Helvetica,sans-Serif" font-size="8.00">CLEAN&#45;CODE&#45;parallel&#45;agent&#45;merge&#45;shared&#45;file&#45;loss &#45; M</text>
</g>
<!-- cool_ideas_CORE_agent_handoff_protocol -->
<g id="node15" class="node">
<title>cool_ideas_CORE_agent_handoff_protocol</title>
<path fill="#d4e8f7" stroke="black" d="M2425.92,-386.7C2425.92,-386.7 2306.08,-386.7 2306.08,-386.7 2301.88,-386.7 2297.68,-382.5 2297.68,-378.3 2297.68,-378.3 2297.68,-369.9 2297.68,-369.9 2297.68,-365.7 2301.88,-361.5 2306.08,-361.5 2306.08,-361.5 2425.92,-361.5 2425.92,-361.5 2430.12,-361.5 2434.32,-365.7 2434.32,-369.9 2434.32,-369.9 2434.32,-378.3 2434.32,-378.3 2434.32,-382.5 2430.12,-386.7 2425.92,-386.7"/>
<text xml:space="preserve" text-anchor="middle" x="2366" y="-371" font-family="Helvetica,sans-Serif" font-size="8.00">CORE&#45;agent&#45;handoff&#45;protocol &#45; M</text>
</g>
<!-- cool_ideas_CORE_auto_focus -->
<g id="node16" class="node">
<title>cool_ideas_CORE_auto_focus</title>
<path fill="#d4e8f7" stroke="black" d="M2529.67,-386.7C2529.67,-386.7 2456.33,-386.7 2456.33,-386.7 2452.12,-386.7 2447.93,-382.5 2447.93,-378.3 2447.93,-378.3 2447.93,-369.9 2447.93,-369.9 2447.93,-365.7 2452.12,-361.5 2456.33,-361.5 2456.33,-361.5 2529.67,-361.5 2529.67,-361.5 2533.88,-361.5 2538.07,-365.7 2538.07,-369.9 2538.07,-369.9 2538.07,-378.3 2538.07,-378.3 2538.07,-382.5 2533.88,-386.7 2529.67,-386.7"/>
<text xml:space="preserve" text-anchor="middle" x="2493" y="-371" font-family="Helvetica,sans-Serif" font-size="8.00">CORE&#45;auto&#45;focus &#45; L</text>
</g>
<!-- cool_ideas_CORE_capture_range -->
<g id="node17" class="node">
<title>cool_ideas_CORE_capture_range</title>
<path fill="#d4e8f7" stroke="black" d="M2647.8,-386.7C2647.8,-386.7 2560.2,-386.7 2560.2,-386.7 2556,-386.7 2551.8,-382.5 2551.8,-378.3 2551.8,-378.3 2551.8,-369.9 2551.8,-369.9 2551.8,-365.7 2556,-361.5 2560.2,-361.5 2560.2,-361.5 2647.8,-361.5 2647.8,-361.5 2652,-361.5 2656.2,-365.7 2656.2,-369.9 2656.2,-369.9 2656.2,-378.3 2656.2,-378.3 2656.2,-382.5 2652,-386.7 2647.8,-386.7"/>
<text xml:space="preserve" text-anchor="middle" x="2604" y="-371" font-family="Helvetica,sans-Serif" font-size="8.00">CORE&#45;capture&#45;range &#45; S</text>
</g>
<!-- cool_ideas_CORE_constructor_in_disguise_lint -->
<g id="node18" class="node">
<title>cool_ideas_CORE_constructor_in_disguise_lint</title>
<path fill="#d4e8f7" stroke="black" d="M2809.55,-386.7C2809.55,-386.7 2678.45,-386.7 2678.45,-386.7 2674.25,-386.7 2670.05,-382.5 2670.05,-378.3 2670.05,-378.3 2670.05,-369.9 2670.05,-369.9 2670.05,-365.7 2674.25,-361.5 2678.45,-361.5 2678.45,-361.5 2809.55,-361.5 2809.55,-361.5 2813.75,-361.5 2817.95,-365.7 2817.95,-369.9 2817.95,-369.9 2817.95,-378.3 2817.95,-378.3 2817.95,-382.5 2813.75,-386.7 2809.55,-386.7"/>
<text xml:space="preserve" text-anchor="middle" x="2744" y="-371" font-family="Helvetica,sans-Serif" font-size="8.00">CORE&#45;constructor&#45;in&#45;disguise&#45;lint &#45; M</text>
</g>
<!-- cool_ideas_CORE_context_budget_forecasting -->
<g id="node19" class="node">
<title>cool_ideas_CORE_context_budget_forecasting</title>
<path fill="#d4e8f7" stroke="black" d="M2973.67,-386.7C2973.67,-386.7 2840.33,-386.7 2840.33,-386.7 2836.12,-386.7 2831.93,-382.5 2831.93,-378.3 2831.93,-378.3 2831.93,-369.9 2831.93,-369.9 2831.93,-365.7 2836.12,-361.5 2840.33,-361.5 2840.33,-361.5 2973.67,-361.5 2973.67,-361.5 2977.88,-361.5 2982.07,-365.7 2982.07,-369.9 2982.07,-369.9 2982.07,-378.3 2982.07,-378.3 2982.07,-382.5 2977.88,-386.7 2973.67,-386.7"/>
<text xml:space="preserve" text-anchor="middle" x="2907" y="-371" font-family="Helvetica,sans-Serif" font-size="8.00">CORE&#45;context&#45;budget&#45;forecasting &#45; M</text>
</g>
<!-- cool_ideas_CORE_conversation_primer -->
<g id="node20" class="node">
<title>cool_ideas_CORE_conversation_primer</title>
<path fill="#d4e8f7" stroke="black" d="M3113.67,-386.7C3113.67,-386.7 3004.33,-386.7 3004.33,-386.7 3000.12,-386.7 2995.93,-382.5 2995.93,-378.3 2995.93,-378.3 2995.93,-369.9 2995.93,-369.9 2995.93,-365.7 3000.12,-361.5 3004.33,-361.5 3004.33,-361.5 3113.67,-361.5 3113.67,-361.5 3117.88,-361.5 3122.07,-365.7 3122.07,-369.9 3122.07,-369.9 3122.07,-378.3 3122.07,-378.3 3122.07,-382.5 3117.88,-386.7 3113.67,-386.7"/>
<text xml:space="preserve" text-anchor="middle" x="3059" y="-371" font-family="Helvetica,sans-Serif" font-size="8.00">CORE&#45;conversation&#45;primer &#45; M</text>
</g>
<!-- cool_ideas_CORE_cross_session_resume -->
<g id="node21" class="node">
<title>cool_ideas_CORE_cross_session_resume</title>
<path fill="#d4e8f7" stroke="black" d="M3259.3,-386.7C3259.3,-386.7 3144.7,-386.7 3144.7,-386.7 3140.5,-386.7 3136.3,-382.5 3136.3,-378.3 3136.3,-378.3 3136.3,-369.9 3136.3,-369.9 3136.3,-365.7 3140.5,-361.5 3144.7,-361.5 3144.7,-361.5 3259.3,-361.5 3259.3,-361.5 3263.5,-361.5 3267.7,-365.7 3267.7,-369.9 3267.7,-369.9 3267.7,-378.3 3267.7,-378.3 3267.7,-382.5 3263.5,-386.7 3259.3,-386.7"/>
<text xml:space="preserve" text-anchor="middle" x="3202" y="-371" font-family="Helvetica,sans-Serif" font-size="8.00">CORE&#45;cross&#45;session&#45;resume &#45; S</text>
</g>
<!-- cool_ideas_CORE_graft_as_teacher -->
<g id="node22" class="node">
<title>cool_ideas_CORE_graft_as_teacher</title>
<path fill="#d4e8f7" stroke="black" d="M3384.17,-386.7C3384.17,-386.7 3289.83,-386.7 3289.83,-386.7 3285.62,-386.7 3281.43,-382.5 3281.43,-378.3 3281.43,-378.3 3281.43,-369.9 3281.43,-369.9 3281.43,-365.7 3285.62,-361.5 3289.83,-361.5 3289.83,-361.5 3384.17,-361.5 3384.17,-361.5 3388.38,-361.5 3392.57,-365.7 3392.57,-369.9 3392.57,-369.9 3392.57,-378.3 3392.57,-378.3 3392.57,-382.5 3388.38,-386.7 3384.17,-386.7"/>
<text xml:space="preserve" text-anchor="middle" x="3337" y="-371" font-family="Helvetica,sans-Serif" font-size="8.00">CORE&#45;graft&#45;as&#45;teacher &#45; S</text>
</g>
<!-- cool_ideas_CORE_graft_teach_learning_receipts -->
<g id="node23" class="node">
<title>cool_ideas_CORE_graft_teach_learning_receipts</title>
<path fill="#d4e8f7" stroke="black" d="M3552.92,-386.7C3552.92,-386.7 3415.08,-386.7 3415.08,-386.7 3410.88,-386.7 3406.68,-382.5 3406.68,-378.3 3406.68,-378.3 3406.68,-369.9 3406.68,-369.9 3406.68,-365.7 3410.88,-361.5 3415.08,-361.5 3415.08,-361.5 3552.92,-361.5 3552.92,-361.5 3557.12,-361.5 3561.32,-365.7 3561.32,-369.9 3561.32,-369.9 3561.32,-378.3 3561.32,-378.3 3561.32,-382.5 3557.12,-386.7 3552.92,-386.7"/>
<text xml:space="preserve" text-anchor="middle" x="3484" y="-371" font-family="Helvetica,sans-Serif" font-size="8.00">CORE&#45;graft&#45;teach&#45;learning&#45;receipts &#45; S</text>
</g>
<!-- cool_ideas_CORE_graft_tool_client -->
<g id="node24" class="node">
<title>cool_ideas_CORE_graft_tool_client</title>
<path fill="#d4e8f7" stroke="black" d="M3674.67,-386.7C3674.67,-386.7 3583.33,-386.7 3583.33,-386.7 3579.12,-386.7 3574.93,-382.5 3574.93,-378.3 3574.93,-378.3 3574.93,-369.9 3574.93,-369.9 3574.93,-365.7 3579.12,-361.5 3583.33,-361.5 3583.33,-361.5 3674.67,-361.5 3674.67,-361.5 3678.88,-361.5 3683.07,-365.7 3683.07,-369.9 3683.07,-369.9 3683.07,-378.3 3683.07,-378.3 3683.07,-382.5 3678.88,-386.7 3674.67,-386.7"/>
<text xml:space="preserve" text-anchor="middle" x="3629" y="-371" font-family="Helvetica,sans-Serif" font-size="8.00">CORE&#45;graft&#45;tool&#45;client &#45; M</text>
</g>
<!-- cool_ideas_CORE_horizon_of_readability -->
<g id="node25" class="node">
<title>cool_ideas_CORE_horizon_of_readability</title>
<path fill="#d4e8f7" stroke="black" d="M3818.55,-386.7C3818.55,-386.7 3705.45,-386.7 3705.45,-386.7 3701.25,-386.7 3697.05,-382.5 3697.05,-378.3 3697.05,-378.3 3697.05,-369.9 3697.05,-369.9 3697.05,-365.7 3701.25,-361.5 3705.45,-361.5 3705.45,-361.5 3818.55,-361.5 3818.55,-361.5 3822.75,-361.5 3826.95,-365.7 3826.95,-369.9 3826.95,-369.9 3826.95,-378.3 3826.95,-378.3 3826.95,-382.5 3822.75,-386.7 3818.55,-386.7"/>
<text xml:space="preserve" text-anchor="middle" x="3762" y="-371" font-family="Helvetica,sans-Serif" font-size="8.00">CORE&#45;horizon&#45;of&#45;readability &#45; M</text>
</g>
<!-- cool_ideas_CORE_lagrangian_policy -->
<g id="node26" class="node">
<title>cool_ideas_CORE_lagrangian_policy</title>
<path fill="#d4e8f7" stroke="black" d="M3950.55,-386.7C3950.55,-386.7 3849.45,-386.7 3849.45,-386.7 3845.25,-386.7 3841.05,-382.5 3841.05,-378.3 3841.05,-378.3 3841.05,-369.9 3841.05,-369.9 3841.05,-365.7 3845.25,-361.5 3849.45,-361.5 3849.45,-361.5 3950.55,-361.5 3950.55,-361.5 3954.75,-361.5 3958.95,-365.7 3958.95,-369.9 3958.95,-369.9 3958.95,-378.3 3958.95,-378.3 3958.95,-382.5 3954.75,-386.7 3950.55,-386.7"/>
<text xml:space="preserve" text-anchor="middle" x="3900" y="-371" font-family="Helvetica,sans-Serif" font-size="8.00">CORE&#45;lagrangian&#45;policy &#45; XL</text>
</g>
<!-- cool_ideas_CORE_migrate_to_slice_first_reads -->
<g id="node27" class="node">
<title>cool_ideas_CORE_migrate_to_slice_first_reads</title>
<path fill="#d4e8f7" stroke="black" d="M10505.8,-313.25C10505.8,-313.25 10388.2,-313.25 10388.2,-313.25 10384,-313.25 10379.8,-309.05 10379.8,-304.85 10379.8,-304.85 10379.8,-296.45 10379.8,-296.45 10379.8,-292.25 10384,-288.05 10388.2,-288.05 10388.2,-288.05 10505.8,-288.05 10505.8,-288.05 10510,-288.05 10514.2,-292.25 10514.2,-296.45 10514.2,-296.45 10514.2,-304.85 10514.2,-304.85 10514.2,-309.05 10510,-313.25 10505.8,-313.25"/>
<text xml:space="preserve" text-anchor="middle" x="10447" y="-297.55" font-family="Helvetica,sans-Serif" font-size="8.00">CORE&#45;migrate&#45;to&#45;slice&#45;first&#45;reads</text>
</g>
<!-- cool_ideas_CORE_multi_agent_conflict_detection -->
<g id="node28" class="node">
<title>cool_ideas_CORE_multi_agent_conflict_detection</title>
<path fill="#d4e8f7" stroke="black" d="M4118.93,-386.7C4118.93,-386.7 3981.08,-386.7 3981.08,-386.7 3976.88,-386.7 3972.68,-382.5 3972.68,-378.3 3972.68,-378.3 3972.68,-369.9 3972.68,-369.9 3972.68,-365.7 3976.88,-361.5 3981.08,-361.5 3981.08,-361.5 4118.93,-361.5 4118.93,-361.5 4123.12,-361.5 4127.32,-365.7 4127.32,-369.9 4127.32,-369.9 4127.32,-378.3 4127.32,-378.3 4127.32,-382.5 4123.12,-386.7 4118.93,-386.7"/>
<text xml:space="preserve" text-anchor="middle" x="4050" y="-371" font-family="Helvetica,sans-Serif" font-size="8.00">CORE&#45;multi&#45;agent&#45;conflict&#45;detection &#45; L</text>
</g>
<!-- cool_ideas_CORE_policy_playground -->
<g id="node29" class="node">
<title>cool_ideas_CORE_policy_playground</title>
<path fill="#d4e8f7" stroke="black" d="M4248.43,-386.7C4248.43,-386.7 4149.57,-386.7 4149.57,-386.7 4145.38,-386.7 4141.18,-382.5 4141.18,-378.3 4141.18,-378.3 4141.18,-369.9 4141.18,-369.9 4141.18,-365.7 4145.38,-361.5 4149.57,-361.5 4149.57,-361.5 4248.43,-361.5 4248.43,-361.5 4252.62,-361.5 4256.82,-365.7 4256.82,-369.9 4256.82,-369.9 4256.82,-378.3 4256.82,-378.3 4256.82,-382.5 4252.62,-386.7 4248.43,-386.7"/>
<text xml:space="preserve" text-anchor="middle" x="4199" y="-371" font-family="Helvetica,sans-Serif" font-size="8.00">CORE&#45;policy&#45;playground &#45; S</text>
</g>
<!-- cool_ideas_CORE_policy_profiles -->
<g id="node30" class="node">
<title>cool_ideas_CORE_policy_profiles</title>
<path fill="#d4e8f7" stroke="black" d="M4365.05,-386.7C4365.05,-386.7 4278.95,-386.7 4278.95,-386.7 4274.75,-386.7 4270.55,-382.5 4270.55,-378.3 4270.55,-378.3 4270.55,-369.9 4270.55,-369.9 4270.55,-365.7 4274.75,-361.5 4278.95,-361.5 4278.95,-361.5 4365.05,-361.5 4365.05,-361.5 4369.25,-361.5 4373.45,-365.7 4373.45,-369.9 4373.45,-369.9 4373.45,-378.3 4373.45,-378.3 4373.45,-382.5 4369.25,-386.7 4365.05,-386.7"/>
<text xml:space="preserve" text-anchor="middle" x="4322" y="-371" font-family="Helvetica,sans-Serif" font-size="8.00">CORE&#45;policy&#45;profiles &#45; M</text>
</g>
<!-- cool_ideas_CORE_self_tuning_governor -->
<g id="node31" class="node">
<title>cool_ideas_CORE_self_tuning_governor</title>
<path fill="#d4e8f7" stroke="black" d="M4506.05,-386.7C4506.05,-386.7 4395.95,-386.7 4395.95,-386.7 4391.75,-386.7 4387.55,-382.5 4387.55,-378.3 4387.55,-378.3 4387.55,-369.9 4387.55,-369.9 4387.55,-365.7 4391.75,-361.5 4395.95,-361.5 4395.95,-361.5 4506.05,-361.5 4506.05,-361.5 4510.25,-361.5 4514.45,-365.7 4514.45,-369.9 4514.45,-369.9 4514.45,-378.3 4514.45,-378.3 4514.45,-382.5 4510.25,-386.7 4506.05,-386.7"/>
<text xml:space="preserve" text-anchor="middle" x="4451" y="-371" font-family="Helvetica,sans-Serif" font-size="8.00">CORE&#45;self&#45;tuning&#45;governor &#45; M</text>
</g>
<!-- cool_ideas_CORE_session_knowledge_map -->
<g id="node32" class="node">
<title>cool_ideas_CORE_session_knowledge_map</title>
<path fill="#d4e8f7" stroke="black" d="M4659.43,-386.7C4659.43,-386.7 4536.57,-386.7 4536.57,-386.7 4532.38,-386.7 4528.18,-382.5 4528.18,-378.3 4528.18,-378.3 4528.18,-369.9 4528.18,-369.9 4528.18,-365.7 4532.38,-361.5 4536.57,-361.5 4536.57,-361.5 4659.43,-361.5 4659.43,-361.5 4663.62,-361.5 4667.82,-365.7 4667.82,-369.9 4667.82,-369.9 4667.82,-378.3 4667.82,-378.3 4667.82,-382.5 4663.62,-386.7 4659.43,-386.7"/>
<text xml:space="preserve" text-anchor="middle" x="4598" y="-371" font-family="Helvetica,sans-Serif" font-size="8.00">CORE&#45;session&#45;knowledge&#45;map &#45; S</text>
</g>
<!-- cool_ideas_CORE_speculative_read_cost -->
<g id="node33" class="node">
<title>cool_ideas_CORE_speculative_read_cost</title>
<path fill="#d4e8f7" stroke="black" d="M4802.18,-386.7C4802.18,-386.7 4689.82,-386.7 4689.82,-386.7 4685.62,-386.7 4681.43,-382.5 4681.43,-378.3 4681.43,-378.3 4681.43,-369.9 4681.43,-369.9 4681.43,-365.7 4685.62,-361.5 4689.82,-361.5 4689.82,-361.5 4802.18,-361.5 4802.18,-361.5 4806.38,-361.5 4810.57,-365.7 4810.57,-369.9 4810.57,-369.9 4810.57,-378.3 4810.57,-378.3 4810.57,-382.5 4806.38,-386.7 4802.18,-386.7"/>
<text xml:space="preserve" text-anchor="middle" x="4746" y="-371" font-family="Helvetica,sans-Serif" font-size="8.00">CORE&#45;speculative&#45;read&#45;cost &#45; S</text>
</g>
<!-- cool_ideas_CORE_structural_session_replay -->
<g id="node34" class="node">
<title>cool_ideas_CORE_structural_session_replay</title>
<path fill="#d4e8f7" stroke="black" d="M4958.55,-386.7C4958.55,-386.7 4833.45,-386.7 4833.45,-386.7 4829.25,-386.7 4825.05,-382.5 4825.05,-378.3 4825.05,-378.3 4825.05,-369.9 4825.05,-369.9 4825.05,-365.7 4829.25,-361.5 4833.45,-361.5 4833.45,-361.5 4958.55,-361.5 4958.55,-361.5 4962.75,-361.5 4966.95,-365.7 4966.95,-369.9 4966.95,-369.9 4966.95,-378.3 4966.95,-378.3 4966.95,-382.5 4962.75,-386.7 4958.55,-386.7"/>
<text xml:space="preserve" text-anchor="middle" x="4896" y="-371" font-family="Helvetica,sans-Serif" font-size="8.00">CORE&#45;structural&#45;session&#45;replay &#45; M</text>
</g>
<!-- cool_ideas_CORE_wire_primitives_into_runtime -->
<g id="node35" class="node">
<title>cool_ideas_CORE_wire_primitives_into_runtime</title>
<path fill="#d4e8f7" stroke="black" d="M5124.43,-386.7C5124.43,-386.7 4989.57,-386.7 4989.57,-386.7 4985.38,-386.7 4981.18,-382.5 4981.18,-378.3 4981.18,-378.3 4981.18,-369.9 4981.18,-369.9 4981.18,-365.7 4985.38,-361.5 4989.57,-361.5 4989.57,-361.5 5124.43,-361.5 5124.43,-361.5 5128.62,-361.5 5132.82,-365.7 5132.82,-369.9 5132.82,-369.9 5132.82,-378.3 5132.82,-378.3 5132.82,-382.5 5128.62,-386.7 5124.43,-386.7"/>
<text xml:space="preserve" text-anchor="middle" x="5057" y="-371" font-family="Helvetica,sans-Serif" font-size="8.00">CORE&#45;wire&#45;primitives&#45;into&#45;runtime &#45; M</text>
</g>
<!-- cool_ideas_monitor_tick_ceiling_tracking -->
<g id="node36" class="node">
<title>cool_ideas_monitor_tick_ceiling_tracking</title>
<path fill="#d4e8f7" stroke="black" d="M5262.55,-386.7C5262.55,-386.7 5155.45,-386.7 5155.45,-386.7 5151.25,-386.7 5147.05,-382.5 5147.05,-378.3 5147.05,-378.3 5147.05,-369.9 5147.05,-369.9 5147.05,-365.7 5151.25,-361.5 5155.45,-361.5 5155.45,-361.5 5262.55,-361.5 5262.55,-361.5 5266.75,-361.5 5270.95,-365.7 5270.95,-369.9 5270.95,-369.9 5270.95,-378.3 5270.95,-378.3 5270.95,-382.5 5266.75,-386.7 5262.55,-386.7"/>
<text xml:space="preserve" text-anchor="middle" x="5209" y="-371" font-family="Helvetica,sans-Serif" font-size="8.00">monitor&#45;tick&#45;ceiling&#45;tracking &#45; S</text>
</g>
<!-- cool_ideas_WARP_background_indexing -->
<g id="node53" class="node">
<title>cool_ideas_WARP_background_indexing</title>
<path fill="#d4e8f7" stroke="black" d="M5265.55,-313.25C5265.55,-313.25 5152.45,-313.25 5152.45,-313.25 5148.25,-313.25 5144.05,-309.05 5144.05,-304.85 5144.05,-304.85 5144.05,-296.45 5144.05,-296.45 5144.05,-292.25 5148.25,-288.05 5152.45,-288.05 5152.45,-288.05 5265.55,-288.05 5265.55,-288.05 5269.75,-288.05 5273.95,-292.25 5273.95,-296.45 5273.95,-296.45 5273.95,-304.85 5273.95,-304.85 5273.95,-309.05 5269.75,-313.25 5265.55,-313.25"/>
<text xml:space="preserve" text-anchor="middle" x="5209" y="-297.55" font-family="Helvetica,sans-Serif" font-size="8.00">WARP&#45;background&#45;indexing &#45; M</text>
</g>
<!-- cool_ideas_monitor_tick_ceiling_tracking&#45;&gt;cool_ideas_WARP_background_indexing -->
<g id="edge1" class="edge">
<title>cool_ideas_monitor_tick_ceiling_tracking&#45;&gt;cool_ideas_WARP_background_indexing</title>
<path fill="none" stroke="#666666" d="M5209,-361.3C5209,-350.1 5209,-333.08 5209,-320.08"/>
<polygon fill="#666666" stroke="#666666" points="5210.75,-320.22 5209,-315.22 5207.25,-320.22 5210.75,-320.22"/>
<text xml:space="preserve" text-anchor="middle" x="5240.5" y="-334.85" font-family="Helvetica,sans-Serif" font-size="7.00">blocked_by/blocking</text>
</g>
<!-- cool_ideas_SURFACE_active_causal_workspace_status -->
<g id="node37" class="node">
<title>cool_ideas_SURFACE_active_causal_workspace_status</title>
<path fill="#d4e8f7" stroke="black" d="M5457.05,-386.7C5457.05,-386.7 5292.95,-386.7 5292.95,-386.7 5288.75,-386.7 5284.55,-382.5 5284.55,-378.3 5284.55,-378.3 5284.55,-369.9 5284.55,-369.9 5284.55,-365.7 5288.75,-361.5 5292.95,-361.5 5292.95,-361.5 5457.05,-361.5 5457.05,-361.5 5461.25,-361.5 5465.45,-365.7 5465.45,-369.9 5465.45,-369.9 5465.45,-378.3 5465.45,-378.3 5465.45,-382.5 5461.25,-386.7 5457.05,-386.7"/>
<text xml:space="preserve" text-anchor="middle" x="5375" y="-371" font-family="Helvetica,sans-Serif" font-size="8.00">SURFACE&#45;active&#45;causal&#45;workspace&#45;status &#45; M</text>
</g>
<!-- cool_ideas_SURFACE_ide_native_graft_integration -->
<g id="node43" class="node">
<title>cool_ideas_SURFACE_ide_native_graft_integration</title>
<path fill="#d4e8f7" stroke="black" d="M5450.3,-313.25C5450.3,-313.25 5299.7,-313.25 5299.7,-313.25 5295.5,-313.25 5291.3,-309.05 5291.3,-304.85 5291.3,-304.85 5291.3,-296.45 5291.3,-296.45 5291.3,-292.25 5295.5,-288.05 5299.7,-288.05 5299.7,-288.05 5450.3,-288.05 5450.3,-288.05 5454.5,-288.05 5458.7,-292.25 5458.7,-296.45 5458.7,-296.45 5458.7,-304.85 5458.7,-304.85 5458.7,-309.05 5454.5,-313.25 5450.3,-313.25"/>
<text xml:space="preserve" text-anchor="middle" x="5375" y="-297.55" font-family="Helvetica,sans-Serif" font-size="8.00">SURFACE&#45;ide&#45;native&#45;graft&#45;integration &#45; XL</text>
</g>
<!-- cool_ideas_SURFACE_active_causal_workspace_status&#45;&gt;cool_ideas_SURFACE_ide_native_graft_integration -->
<g id="edge2" class="edge">
<title>cool_ideas_SURFACE_active_causal_workspace_status&#45;&gt;cool_ideas_SURFACE_ide_native_graft_integration</title>
<path fill="none" stroke="#666666" d="M5375,-361.3C5375,-350.1 5375,-333.08 5375,-320.08"/>
<polygon fill="#666666" stroke="#666666" points="5376.75,-320.22 5375,-315.22 5373.25,-320.22 5376.75,-320.22"/>
<text xml:space="preserve" text-anchor="middle" x="5406.5" y="-334.85" font-family="Helvetica,sans-Serif" font-size="7.00">blocked_by/blocking</text>
</g>
<!-- cool_ideas_SURFACE_attach_to_existing_causal_session -->
<g id="node38" class="node">
<title>cool_ideas_SURFACE_attach_to_existing_causal_session</title>
<path fill="#d4e8f7" stroke="black" d="M5656.3,-386.7C5656.3,-386.7 5487.7,-386.7 5487.7,-386.7 5483.5,-386.7 5479.3,-382.5 5479.3,-378.3 5479.3,-378.3 5479.3,-369.9 5479.3,-369.9 5479.3,-365.7 5483.5,-361.5 5487.7,-361.5 5487.7,-361.5 5656.3,-361.5 5656.3,-361.5 5660.5,-361.5 5664.7,-365.7 5664.7,-369.9 5664.7,-369.9 5664.7,-378.3 5664.7,-378.3 5664.7,-382.5 5660.5,-386.7 5656.3,-386.7"/>
<text xml:space="preserve" text-anchor="middle" x="5572" y="-371" font-family="Helvetica,sans-Serif" font-size="8.00">SURFACE&#45;attach&#45;to&#45;existing&#45;causal&#45;session &#45; M</text>
</g>
<!-- cool_ideas_SURFACE_bijou_daemon_control_plane_actions -->
<g id="node39" class="node">
<title>cool_ideas_SURFACE_bijou_daemon_control_plane_actions</title>
<path fill="#d4e8f7" stroke="black" d="M5864.43,-386.7C5864.43,-386.7 5687.57,-386.7 5687.57,-386.7 5683.38,-386.7 5679.18,-382.5 5679.18,-378.3 5679.18,-378.3 5679.18,-369.9 5679.18,-369.9 5679.18,-365.7 5683.38,-361.5 5687.57,-361.5 5687.57,-361.5 5864.43,-361.5 5864.43,-361.5 5868.62,-361.5 5872.82,-365.7 5872.82,-369.9 5872.82,-369.9 5872.82,-378.3 5872.82,-378.3 5872.82,-382.5 5868.62,-386.7 5864.43,-386.7"/>
<text xml:space="preserve" text-anchor="middle" x="5776" y="-371" font-family="Helvetica,sans-Serif" font-size="8.00">SURFACE&#45;bijou&#45;daemon&#45;control&#45;plane&#45;actions &#45; L</text>
</g>
<!-- cool_ideas_SURFACE_bijou_daemon_status_live_refresh -->
<g id="node40" class="node">
<title>cool_ideas_SURFACE_bijou_daemon_status_live_refresh</title>
<path fill="#d4e8f7" stroke="black" d="M6064.3,-386.7C6064.3,-386.7 5895.7,-386.7 5895.7,-386.7 5891.5,-386.7 5887.3,-382.5 5887.3,-378.3 5887.3,-378.3 5887.3,-369.9 5887.3,-369.9 5887.3,-365.7 5891.5,-361.5 5895.7,-361.5 5895.7,-361.5 6064.3,-361.5 6064.3,-361.5 6068.5,-361.5 6072.7,-365.7 6072.7,-369.9 6072.7,-369.9 6072.7,-378.3 6072.7,-378.3 6072.7,-382.5 6068.5,-386.7 6064.3,-386.7"/>
<text xml:space="preserve" text-anchor="middle" x="5980" y="-371" font-family="Helvetica,sans-Serif" font-size="8.00">SURFACE&#45;bijou&#45;daemon&#45;status&#45;live&#45;refresh &#45; M</text>
</g>
<!-- cool_ideas_SURFACE_git_graft_enhance_expanded_git_subcommands -->
<g id="node41" class="node">
<title>cool_ideas_SURFACE_git_graft_enhance_expanded_git_subcommands</title>
<path fill="#d4e8f7" stroke="black" d="M6299.3,-386.7C6299.3,-386.7 6094.7,-386.7 6094.7,-386.7 6090.5,-386.7 6086.3,-382.5 6086.3,-378.3 6086.3,-378.3 6086.3,-369.9 6086.3,-369.9 6086.3,-365.7 6090.5,-361.5 6094.7,-361.5 6094.7,-361.5 6299.3,-361.5 6299.3,-361.5 6303.5,-361.5 6307.7,-365.7 6307.7,-369.9 6307.7,-369.9 6307.7,-378.3 6307.7,-378.3 6307.7,-382.5 6303.5,-386.7 6299.3,-386.7"/>
<text xml:space="preserve" text-anchor="middle" x="6197" y="-371" font-family="Helvetica,sans-Serif" font-size="8.00">SURFACE&#45;git&#45;graft&#45;enhance&#45;expanded&#45;git&#45;subcommands</text>
</g>
<!-- cool_ideas_SURFACE_graft_review_pr_number_adapter -->
<g id="node42" class="node">
<title>cool_ideas_SURFACE_graft_review_pr_number_adapter</title>
<path fill="#d4e8f7" stroke="black" d="M6497.93,-386.7C6497.93,-386.7 6330.07,-386.7 6330.07,-386.7 6325.88,-386.7 6321.68,-382.5 6321.68,-378.3 6321.68,-378.3 6321.68,-369.9 6321.68,-369.9 6321.68,-365.7 6325.88,-361.5 6330.07,-361.5 6330.07,-361.5 6497.93,-361.5 6497.93,-361.5 6502.12,-361.5 6506.32,-365.7 6506.32,-369.9 6506.32,-369.9 6506.32,-378.3 6506.32,-378.3 6506.32,-382.5 6502.12,-386.7 6497.93,-386.7"/>
<text xml:space="preserve" text-anchor="middle" x="6414" y="-371" font-family="Helvetica,sans-Serif" font-size="8.00">SURFACE&#45;graft&#45;review&#45;pr&#45;number&#45;adapter &#45; M</text>
</g>
<!-- cool_ideas_SURFACE_init_dry_run -->
<g id="node44" class="node">
<title>cool_ideas_SURFACE_init_dry_run</title>
<path fill="#d4e8f7" stroke="black" d="M6619.3,-386.7C6619.3,-386.7 6528.7,-386.7 6528.7,-386.7 6524.5,-386.7 6520.3,-382.5 6520.3,-378.3 6520.3,-378.3 6520.3,-369.9 6520.3,-369.9 6520.3,-365.7 6524.5,-361.5 6528.7,-361.5 6528.7,-361.5 6619.3,-361.5 6619.3,-361.5 6623.5,-361.5 6627.7,-365.7 6627.7,-369.9 6627.7,-369.9 6627.7,-378.3 6627.7,-378.3 6627.7,-382.5 6623.5,-386.7 6619.3,-386.7"/>
<text xml:space="preserve" text-anchor="middle" x="6574" y="-371" font-family="Helvetica,sans-Serif" font-size="8.00">SURFACE&#45;init&#45;dry&#45;run &#45; S</text>
</g>
<!-- cool_ideas_SURFACE_local_history_dag_render_mode_and_count_legend -->
<g id="node45" class="node">
<title>cool_ideas_SURFACE_local_history_dag_render_mode_and_count_legend</title>
<path fill="#d4e8f7" stroke="black" d="M6876.18,-386.7C6876.18,-386.7 6649.82,-386.7 6649.82,-386.7 6645.62,-386.7 6641.43,-382.5 6641.43,-378.3 6641.43,-378.3 6641.43,-369.9 6641.43,-369.9 6641.43,-365.7 6645.62,-361.5 6649.82,-361.5 6649.82,-361.5 6876.18,-361.5 6876.18,-361.5 6880.38,-361.5 6884.57,-365.7 6884.57,-369.9 6884.57,-369.9 6884.57,-378.3 6884.57,-378.3 6884.57,-382.5 6880.38,-386.7 6876.18,-386.7"/>
<text xml:space="preserve" text-anchor="middle" x="6763" y="-371" font-family="Helvetica,sans-Serif" font-size="8.00">SURFACE&#45;local&#45;history&#45;dag&#45;render&#45;mode&#45;and&#45;count&#45;legend &#45; S</text>
</g>
<!-- cool_ideas_SURFACE_non_codex_instruction_bootstrap_parity -->
<g id="node46" class="node">
<title>cool_ideas_SURFACE_non_codex_instruction_bootstrap_parity</title>
<path fill="#d4e8f7" stroke="black" d="M7095.43,-386.7C7095.43,-386.7 6906.57,-386.7 6906.57,-386.7 6902.38,-386.7 6898.18,-382.5 6898.18,-378.3 6898.18,-378.3 6898.18,-369.9 6898.18,-369.9 6898.18,-365.7 6902.38,-361.5 6906.57,-361.5 6906.57,-361.5 7095.43,-361.5 7095.43,-361.5 7099.62,-361.5 7103.82,-365.7 7103.82,-369.9 7103.82,-369.9 7103.82,-378.3 7103.82,-378.3 7103.82,-382.5 7099.62,-386.7 7095.43,-386.7"/>
<text xml:space="preserve" text-anchor="middle" x="7001" y="-371" font-family="Helvetica,sans-Serif" font-size="8.00">SURFACE&#45;non&#45;codex&#45;instruction&#45;bootstrap&#45;parity &#45; M</text>
</g>
<!-- cool_ideas_SURFACE_offer_rename_refactor -->
<g id="node47" class="node">
<title>cool_ideas_SURFACE_offer_rename_refactor</title>
<path fill="#d4e8f7" stroke="black" d="M7255.43,-386.7C7255.43,-386.7 7126.57,-386.7 7126.57,-386.7 7122.38,-386.7 7118.18,-382.5 7118.18,-378.3 7118.18,-378.3 7118.18,-369.9 7118.18,-369.9 7118.18,-365.7 7122.38,-361.5 7126.57,-361.5 7126.57,-361.5 7255.43,-361.5 7255.43,-361.5 7259.62,-361.5 7263.82,-365.7 7263.82,-369.9 7263.82,-369.9 7263.82,-378.3 7263.82,-378.3 7263.82,-382.5 7259.62,-386.7 7255.43,-386.7"/>
<text xml:space="preserve" text-anchor="middle" x="7191" y="-371" font-family="Helvetica,sans-Serif" font-size="8.00">SURFACE&#45;offer&#45;rename&#45;refactor &#45; L</text>
</g>
<!-- cool_ideas_SURFACE_terminal_activity_browser_tui -->
<g id="node48" class="node">
<title>cool_ideas_SURFACE_terminal_activity_browser_tui</title>
<path fill="#d4e8f7" stroke="black" d="M7435.55,-386.7C7435.55,-386.7 7286.45,-386.7 7286.45,-386.7 7282.25,-386.7 7278.05,-382.5 7278.05,-378.3 7278.05,-378.3 7278.05,-369.9 7278.05,-369.9 7278.05,-365.7 7282.25,-361.5 7286.45,-361.5 7286.45,-361.5 7435.55,-361.5 7435.55,-361.5 7439.75,-361.5 7443.95,-365.7 7443.95,-369.9 7443.95,-369.9 7443.95,-378.3 7443.95,-378.3 7443.95,-382.5 7439.75,-386.7 7435.55,-386.7"/>
<text xml:space="preserve" text-anchor="middle" x="7361" y="-371" font-family="Helvetica,sans-Serif" font-size="8.00">SURFACE&#45;terminal&#45;activity&#45;browser&#45;tui &#45; L</text>
</g>
<!-- cool_ideas_traverse_plus_query_hydration_helper -->
<g id="node49" class="node">
<title>cool_ideas_traverse_plus_query_hydration_helper</title>
<path fill="#d4e8f7" stroke="black" d="M7607.8,-386.7C7607.8,-386.7 7466.2,-386.7 7466.2,-386.7 7462,-386.7 7457.8,-382.5 7457.8,-378.3 7457.8,-378.3 7457.8,-369.9 7457.8,-369.9 7457.8,-365.7 7462,-361.5 7466.2,-361.5 7466.2,-361.5 7607.8,-361.5 7607.8,-361.5 7612,-361.5 7616.2,-365.7 7616.2,-369.9 7616.2,-369.9 7616.2,-378.3 7616.2,-378.3 7616.2,-382.5 7612,-386.7 7607.8,-386.7"/>
<text xml:space="preserve" text-anchor="middle" x="7537" y="-371" font-family="Helvetica,sans-Serif" font-size="8.00">traverse&#45;plus&#45;query&#45;hydration&#45;helper &#45; S</text>
</g>
<!-- cool_ideas_WARP_adaptive_projection_selection -->
<g id="node50" class="node">
<title>cool_ideas_WARP_adaptive_projection_selection</title>
<path fill="#d4e8f7" stroke="black" d="M7776.93,-386.7C7776.93,-386.7 7639.07,-386.7 7639.07,-386.7 7634.88,-386.7 7630.68,-382.5 7630.68,-378.3 7630.68,-378.3 7630.68,-369.9 7630.68,-369.9 7630.68,-365.7 7634.88,-361.5 7639.07,-361.5 7639.07,-361.5 7776.93,-361.5 7776.93,-361.5 7781.12,-361.5 7785.32,-365.7 7785.32,-369.9 7785.32,-369.9 7785.32,-378.3 7785.32,-378.3 7785.32,-382.5 7781.12,-386.7 7776.93,-386.7"/>
<text xml:space="preserve" text-anchor="middle" x="7708" y="-371" font-family="Helvetica,sans-Serif" font-size="8.00">WARP&#45;adaptive&#45;projection&#45;selection &#45; L</text>
</g>
<!-- cool_ideas_WARP_agent_action_provenance -->
<g id="node51" class="node">
<title>cool_ideas_WARP_agent_action_provenance</title>
<path fill="#d4e8f7" stroke="black" d="M7938.55,-386.7C7938.55,-386.7 7807.45,-386.7 7807.45,-386.7 7803.25,-386.7 7799.05,-382.5 7799.05,-378.3 7799.05,-378.3 7799.05,-369.9 7799.05,-369.9 7799.05,-365.7 7803.25,-361.5 7807.45,-361.5 7807.45,-361.5 7938.55,-361.5 7938.55,-361.5 7942.75,-361.5 7946.95,-365.7 7946.95,-369.9 7946.95,-369.9 7946.95,-378.3 7946.95,-378.3 7946.95,-382.5 7942.75,-386.7 7938.55,-386.7"/>
<text xml:space="preserve" text-anchor="middle" x="7873" y="-371" font-family="Helvetica,sans-Serif" font-size="8.00">WARP&#45;agent&#45;action&#45;provenance &#45; XL</text>
</g>
<!-- cool_ideas_WARP_agent_action_provenance&#45;&gt;cool_ideas_CI_001_causal_collapse_visualizer -->
<g id="edge3" class="edge">
<title>cool_ideas_WARP_agent_action_provenance&#45;&gt;cool_ideas_CI_001_causal_collapse_visualizer</title>
<path fill="none" stroke="#666666" d="M7825.13,-361.03C7814.27,-358.43 7802.76,-355.78 7792,-353.5 7762.83,-347.32 7755.12,-347.91 7726,-341.5 7690.75,-333.74 7651.35,-323.52 7621.23,-315.37"/>
<polygon fill="#666666" stroke="#666666" points="7621.69,-313.68 7616.4,-314.06 7620.77,-317.06 7621.69,-313.68"/>
<text xml:space="preserve" text-anchor="middle" x="7757.5" y="-334.85" font-family="Helvetica,sans-Serif" font-size="7.00">blocked_by/blocking</text>
</g>
<!-- cool_ideas_WARP_causal_write_tracking -->
<g id="node56" class="node">
<title>cool_ideas_WARP_causal_write_tracking</title>
<path fill="#d4e8f7" stroke="black" d="M7776.05,-313.25C7776.05,-313.25 7665.95,-313.25 7665.95,-313.25 7661.75,-313.25 7657.55,-309.05 7657.55,-304.85 7657.55,-304.85 7657.55,-296.45 7657.55,-296.45 7657.55,-292.25 7661.75,-288.05 7665.95,-288.05 7665.95,-288.05 7776.05,-288.05 7776.05,-288.05 7780.25,-288.05 7784.45,-292.25 7784.45,-296.45 7784.45,-296.45 7784.45,-304.85 7784.45,-304.85 7784.45,-309.05 7780.25,-313.25 7776.05,-313.25"/>
<text xml:space="preserve" text-anchor="middle" x="7721" y="-297.55" font-family="Helvetica,sans-Serif" font-size="8.00">WARP&#45;causal&#45;write&#45;tracking &#45; L</text>
</g>
<!-- cool_ideas_WARP_agent_action_provenance&#45;&gt;cool_ideas_WARP_causal_write_tracking -->
<g id="edge4" class="edge">
<title>cool_ideas_WARP_agent_action_provenance&#45;&gt;cool_ideas_WARP_causal_write_tracking</title>
<path fill="none" stroke="#666666" d="M7847.56,-361.14C7821.36,-348.83 7780.5,-329.62 7752.33,-316.38"/>
<polygon fill="#666666" stroke="#666666" points="7753.16,-314.84 7747.89,-314.29 7751.67,-318 7753.16,-314.84"/>
<text xml:space="preserve" text-anchor="middle" x="7833.06" y="-334.85" font-family="Helvetica,sans-Serif" font-size="7.00">blocked_by/blocking</text>
</g>
<!-- cool_ideas_WARP_intent_and_decision_events -->
<g id="node65" class="node">
<title>cool_ideas_WARP_intent_and_decision_events</title>
<path fill="#d4e8f7" stroke="black" d="M7939.3,-313.25C7939.3,-313.25 7806.7,-313.25 7806.7,-313.25 7802.5,-313.25 7798.3,-309.05 7798.3,-304.85 7798.3,-304.85 7798.3,-296.45 7798.3,-296.45 7798.3,-292.25 7802.5,-288.05 7806.7,-288.05 7806.7,-288.05 7939.3,-288.05 7939.3,-288.05 7943.5,-288.05 7947.7,-292.25 7947.7,-296.45 7947.7,-296.45 7947.7,-304.85 7947.7,-304.85 7947.7,-309.05 7943.5,-313.25 7939.3,-313.25"/>
<text xml:space="preserve" text-anchor="middle" x="7873" y="-297.55" font-family="Helvetica,sans-Serif" font-size="8.00">WARP&#45;intent&#45;and&#45;decision&#45;events &#45; M</text>
</g>
<!-- cool_ideas_WARP_agent_action_provenance&#45;&gt;cool_ideas_WARP_intent_and_decision_events -->
<g id="edge5" class="edge">
<title>cool_ideas_WARP_agent_action_provenance&#45;&gt;cool_ideas_WARP_intent_and_decision_events</title>
<path fill="none" stroke="#666666" d="M7873,-361.3C7873,-350.1 7873,-333.08 7873,-320.08"/>
<polygon fill="#666666" stroke="#666666" points="7874.75,-320.22 7873,-315.22 7871.25,-320.22 7874.75,-320.22"/>
<text xml:space="preserve" text-anchor="middle" x="7904.5" y="-334.85" font-family="Helvetica,sans-Serif" font-size="7.00">blocked_by/blocking</text>
</g>
<!-- cool_ideas_WARP_provenance_dag -->
<g id="node70" class="node">
<title>cool_ideas_WARP_provenance_dag</title>
<path fill="#d4e8f7" stroke="black" d="M8065.55,-313.25C8065.55,-313.25 7970.45,-313.25 7970.45,-313.25 7966.25,-313.25 7962.05,-309.05 7962.05,-304.85 7962.05,-304.85 7962.05,-296.45 7962.05,-296.45 7962.05,-292.25 7966.25,-288.05 7970.45,-288.05 7970.45,-288.05 8065.55,-288.05 8065.55,-288.05 8069.75,-288.05 8073.95,-292.25 8073.95,-296.45 8073.95,-296.45 8073.95,-304.85 8073.95,-304.85 8073.95,-309.05 8069.75,-313.25 8065.55,-313.25"/>
<text xml:space="preserve" text-anchor="middle" x="8018" y="-297.55" font-family="Helvetica,sans-Serif" font-size="8.00">WARP&#45;provenance&#45;dag &#45; L</text>
</g>
<!-- cool_ideas_WARP_agent_action_provenance&#45;&gt;cool_ideas_WARP_provenance_dag -->
<g id="edge6" class="edge">
<title>cool_ideas_WARP_agent_action_provenance&#45;&gt;cool_ideas_WARP_provenance_dag</title>
<path fill="none" stroke="#666666" d="M7898.45,-361.07C7910.73,-355.22 7925.66,-348.06 7939,-341.5 7955.55,-333.36 7973.95,-324.09 7988.83,-316.54"/>
<polygon fill="#666666" stroke="#666666" points="7989.54,-318.15 7993.21,-314.32 7987.96,-315.03 7989.54,-318.15"/>
<text xml:space="preserve" text-anchor="middle" x="7985.67" y="-334.85" font-family="Helvetica,sans-Serif" font-size="7.00">blocked_by/blocking</text>
</g>
<!-- cool_ideas_WARP_auto_breaking_change_detection -->
<g id="node52" class="node">
<title>cool_ideas_WARP_auto_breaking_change_detection</title>
<path fill="#d4e8f7" stroke="black" d="M10687.3,-313.25C10687.3,-313.25 10536.7,-313.25 10536.7,-313.25 10532.5,-313.25 10528.3,-309.05 10528.3,-304.85 10528.3,-304.85 10528.3,-296.45 10528.3,-296.45 10528.3,-292.25 10532.5,-288.05 10536.7,-288.05 10536.7,-288.05 10687.3,-288.05 10687.3,-288.05 10691.5,-288.05 10695.7,-292.25 10695.7,-296.45 10695.7,-296.45 10695.7,-304.85 10695.7,-304.85 10695.7,-309.05 10691.5,-313.25 10687.3,-313.25"/>
<text xml:space="preserve" text-anchor="middle" x="10612" y="-297.55" font-family="Helvetica,sans-Serif" font-size="8.00">WARP&#45;auto&#45;breaking&#45;change&#45;detection &#45; L</text>
</g>
<!-- cool_ideas_WARP_budget_elasticity -->
<g id="node54" class="node">
<title>cool_ideas_WARP_budget_elasticity</title>
<path fill="#d4e8f7" stroke="black" d="M8064.93,-386.7C8064.93,-386.7 7969.07,-386.7 7969.07,-386.7 7964.88,-386.7 7960.68,-382.5 7960.68,-378.3 7960.68,-378.3 7960.68,-369.9 7960.68,-369.9 7960.68,-365.7 7964.88,-361.5 7969.07,-361.5 7969.07,-361.5 8064.93,-361.5 8064.93,-361.5 8069.12,-361.5 8073.32,-365.7 8073.32,-369.9 8073.32,-369.9 8073.32,-378.3 8073.32,-378.3 8073.32,-382.5 8069.12,-386.7 8064.93,-386.7"/>
<text xml:space="preserve" text-anchor="middle" x="8017" y="-371" font-family="Helvetica,sans-Serif" font-size="8.00">WARP&#45;budget&#45;elasticity &#45; M</text>
</g>
<!-- cool_ideas_WARP_causal_blame_for_staged_artifacts -->
<g id="node55" class="node">
<title>cool_ideas_WARP_causal_blame_for_staged_artifacts</title>
<path fill="#d4e8f7" stroke="black" d="M8095.18,-239.8C8095.18,-239.8 7940.82,-239.8 7940.82,-239.8 7936.62,-239.8 7932.43,-235.6 7932.43,-231.4 7932.43,-231.4 7932.43,-223 7932.43,-223 7932.43,-218.8 7936.62,-214.6 7940.82,-214.6 7940.82,-214.6 8095.18,-214.6 8095.18,-214.6 8099.38,-214.6 8103.57,-218.8 8103.57,-223 8103.57,-223 8103.57,-231.4 8103.57,-231.4 8103.57,-235.6 8099.38,-239.8 8095.18,-239.8"/>
<text xml:space="preserve" text-anchor="middle" x="8018" y="-224.1" font-family="Helvetica,sans-Serif" font-size="8.00">WARP&#45;causal&#45;blame&#45;for&#45;staged&#45;artifacts &#45; L</text>
</g>
<!-- cool_ideas_WARP_codebase_entropy_trajectory -->
<g id="node57" class="node">
<title>cool_ideas_WARP_codebase_entropy_trajectory</title>
<path fill="#d4e8f7" stroke="black" d="M8234.68,-386.7C8234.68,-386.7 8095.32,-386.7 8095.32,-386.7 8091.12,-386.7 8086.93,-382.5 8086.93,-378.3 8086.93,-378.3 8086.93,-369.9 8086.93,-369.9 8086.93,-365.7 8091.12,-361.5 8095.32,-361.5 8095.32,-361.5 8234.68,-361.5 8234.68,-361.5 8238.88,-361.5 8243.08,-365.7 8243.08,-369.9 8243.08,-369.9 8243.08,-378.3 8243.08,-378.3 8243.08,-382.5 8238.88,-386.7 8234.68,-386.7"/>
<text xml:space="preserve" text-anchor="middle" x="8165" y="-371" font-family="Helvetica,sans-Serif" font-size="8.00">WARP&#45;codebase&#45;entropy&#45;trajectory &#45; M</text>
</g>
<!-- cool_ideas_WARP_counterfactual_refactoring -->
<g id="node59" class="node">
<title>cool_ideas_WARP_counterfactual_refactoring</title>
<path fill="#d4e8f7" stroke="black" d="M8250.68,-313.25C8250.68,-313.25 8117.32,-313.25 8117.32,-313.25 8113.12,-313.25 8108.93,-309.05 8108.93,-304.85 8108.93,-304.85 8108.93,-296.45 8108.93,-296.45 8108.93,-292.25 8113.12,-288.05 8117.32,-288.05 8117.32,-288.05 8250.68,-288.05 8250.68,-288.05 8254.88,-288.05 8259.08,-292.25 8259.08,-296.45 8259.08,-296.45 8259.08,-304.85 8259.08,-304.85 8259.08,-309.05 8254.88,-313.25 8250.68,-313.25"/>
<text xml:space="preserve" text-anchor="middle" x="8184" y="-297.55" font-family="Helvetica,sans-Serif" font-size="8.00">WARP&#45;counterfactual&#45;refactoring &#45; XL</text>
</g>
<!-- cool_ideas_WARP_codebase_entropy_trajectory&#45;&gt;cool_ideas_WARP_counterfactual_refactoring -->
<g id="edge7" class="edge">
<title>cool_ideas_WARP_codebase_entropy_trajectory&#45;&gt;cool_ideas_WARP_counterfactual_refactoring</title>
<path fill="none" stroke="#666666" d="M8168.14,-361.3C8171.14,-349.99 8175.73,-332.76 8179.19,-319.73"/>
<polygon fill="#666666" stroke="#666666" points="8180.81,-320.45 8180.41,-315.17 8177.43,-319.55 8180.81,-320.45"/>
<text xml:space="preserve" text-anchor="middle" x="8206.57" y="-334.85" font-family="Helvetica,sans-Serif" font-size="7.00">blocked_by/blocking</text>
</g>
<!-- cool_ideas_WARP_codebase_signature -->
<g id="node58" class="node">
<title>cool_ideas_WARP_codebase_signature</title>
<path fill="#d4e8f7" stroke="black" d="M8372.55,-386.7C8372.55,-386.7 8265.45,-386.7 8265.45,-386.7 8261.25,-386.7 8257.05,-382.5 8257.05,-378.3 8257.05,-378.3 8257.05,-369.9 8257.05,-369.9 8257.05,-365.7 8261.25,-361.5 8265.45,-361.5 8265.45,-361.5 8372.55,-361.5 8372.55,-361.5 8376.75,-361.5 8380.95,-365.7 8380.95,-369.9 8380.95,-369.9 8380.95,-378.3 8380.95,-378.3 8380.95,-382.5 8376.75,-386.7 8372.55,-386.7"/>
<text xml:space="preserve" text-anchor="middle" x="8319" y="-371" font-family="Helvetica,sans-Serif" font-size="8.00">WARP&#45;codebase&#45;signature &#45; L</text>
</g>
<!-- cool_ideas_WARP_structural_impact_prediction -->
<g id="node80" class="node">
<title>cool_ideas_WARP_structural_impact_prediction</title>
<path fill="#d4e8f7" stroke="black" d="M8264.3,-239.8C8264.3,-239.8 8125.7,-239.8 8125.7,-239.8 8121.5,-239.8 8117.3,-235.6 8117.3,-231.4 8117.3,-231.4 8117.3,-223 8117.3,-223 8117.3,-218.8 8121.5,-214.6 8125.7,-214.6 8125.7,-214.6 8264.3,-214.6 8264.3,-214.6 8268.5,-214.6 8272.7,-218.8 8272.7,-223 8272.7,-223 8272.7,-231.4 8272.7,-231.4 8272.7,-235.6 8268.5,-239.8 8264.3,-239.8"/>
<text xml:space="preserve" text-anchor="middle" x="8195" y="-224.1" font-family="Helvetica,sans-Serif" font-size="8.00">WARP&#45;structural&#45;impact&#45;prediction &#45; XL</text>
</g>
<!-- cool_ideas_WARP_counterfactual_refactoring&#45;&gt;cool_ideas_WARP_structural_impact_prediction -->
<g id="edge8" class="edge">
<title>cool_ideas_WARP_counterfactual_refactoring&#45;&gt;cool_ideas_WARP_structural_impact_prediction</title>
<path fill="none" stroke="#666666" d="M8185.82,-287.85C8187.54,-276.65 8190.16,-259.63 8192.16,-246.63"/>
<polygon fill="#666666" stroke="#666666" points="8193.88,-246.96 8192.91,-241.75 8190.42,-246.43 8193.88,-246.96"/>
<text xml:space="preserve" text-anchor="middle" x="8221.33" y="-261.4" font-family="Helvetica,sans-Serif" font-size="7.00">blocked_by/blocking</text>
</g>
<!-- cool_ideas_WARP_degeneracy_warning -->
<g id="node60" class="node">
<title>cool_ideas_WARP_degeneracy_warning</title>
<path fill="#d4e8f7" stroke="black" d="M8516.18,-386.7C8516.18,-386.7 8403.82,-386.7 8403.82,-386.7 8399.62,-386.7 8395.42,-382.5 8395.42,-378.3 8395.42,-378.3 8395.42,-369.9 8395.42,-369.9 8395.42,-365.7 8399.62,-361.5 8403.82,-361.5 8403.82,-361.5 8516.18,-361.5 8516.18,-361.5 8520.38,-361.5 8524.58,-365.7 8524.58,-369.9 8524.58,-369.9 8524.58,-378.3 8524.58,-378.3 8524.58,-382.5 8520.38,-386.7 8516.18,-386.7"/>
<text xml:space="preserve" text-anchor="middle" x="8460" y="-371" font-family="Helvetica,sans-Serif" font-size="8.00">WARP&#45;degeneracy&#45;warning &#45; M</text>
</g>
<!-- cool_ideas_WARP_drift_sentinel -->
<g id="node61" class="node">
<title>cool_ideas_WARP_drift_sentinel</title>
<path fill="#d4e8f7" stroke="black" d="M10357.18,-313.25C10357.18,-313.25 10274.82,-313.25 10274.82,-313.25 10270.62,-313.25 10266.42,-309.05 10266.42,-304.85 10266.42,-304.85 10266.42,-296.45 10266.42,-296.45 10266.42,-292.25 10270.62,-288.05 10274.82,-288.05 10274.82,-288.05 10357.18,-288.05 10357.18,-288.05 10361.38,-288.05 10365.58,-292.25 10365.58,-296.45 10365.58,-296.45 10365.58,-304.85 10365.58,-304.85 10365.58,-309.05 10361.38,-313.25 10357.18,-313.25"/>
<text xml:space="preserve" text-anchor="middle" x="10316" y="-297.55" font-family="Helvetica,sans-Serif" font-size="8.00">WARP&#45;drift&#45;sentinel &#45; M</text>
</g>
<!-- cool_ideas_WARP_footprint_parallelism -->
<g id="node62" class="node">
<title>cool_ideas_WARP_footprint_parallelism</title>
<path fill="#d4e8f7" stroke="black" d="M8658.8,-386.7C8658.8,-386.7 8547.2,-386.7 8547.2,-386.7 8543,-386.7 8538.8,-382.5 8538.8,-378.3 8538.8,-378.3 8538.8,-369.9 8538.8,-369.9 8538.8,-365.7 8543,-361.5 8547.2,-361.5 8547.2,-361.5 8658.8,-361.5 8658.8,-361.5 8663,-361.5 8667.2,-365.7 8667.2,-369.9 8667.2,-369.9 8667.2,-378.3 8667.2,-378.3 8667.2,-382.5 8663,-386.7 8658.8,-386.7"/>
<text xml:space="preserve" text-anchor="middle" x="8603" y="-371" font-family="Helvetica,sans-Serif" font-size="8.00">WARP&#45;footprint&#45;parallelism &#45; XL</text>
</g>
<!-- cool_ideas_WARP_graft_pack -->
<g id="node63" class="node">
<title>cool_ideas_WARP_graft_pack</title>
<path fill="#d4e8f7" stroke="black" d="M8764.43,-386.7C8764.43,-386.7 8689.57,-386.7 8689.57,-386.7 8685.38,-386.7 8681.17,-382.5 8681.17,-378.3 8681.17,-378.3 8681.17,-369.9 8681.17,-369.9 8681.17,-365.7 8685.38,-361.5 8689.57,-361.5 8689.57,-361.5 8764.43,-361.5 8764.43,-361.5 8768.62,-361.5 8772.83,-365.7 8772.83,-369.9 8772.83,-369.9 8772.83,-378.3 8772.83,-378.3 8772.83,-382.5 8768.62,-386.7 8764.43,-386.7"/>
<text xml:space="preserve" text-anchor="middle" x="8727" y="-371" font-family="Helvetica,sans-Serif" font-size="8.00">WARP&#45;graft&#45;pack &#45; M</text>
</g>
<!-- cool_ideas_WARP_grouped_aggregate_queries -->
<g id="node64" class="node">
<title>cool_ideas_WARP_grouped_aggregate_queries</title>
<path fill="#d4e8f7" stroke="black" d="M8932.93,-386.7C8932.93,-386.7 8795.07,-386.7 8795.07,-386.7 8790.88,-386.7 8786.67,-382.5 8786.67,-378.3 8786.67,-378.3 8786.67,-369.9 8786.67,-369.9 8786.67,-365.7 8790.88,-361.5 8795.07,-361.5 8795.07,-361.5 8932.93,-361.5 8932.93,-361.5 8937.12,-361.5 8941.33,-365.7 8941.33,-369.9 8941.33,-369.9 8941.33,-378.3 8941.33,-378.3 8941.33,-382.5 8937.12,-386.7 8932.93,-386.7"/>
<text xml:space="preserve" text-anchor="middle" x="8864" y="-371" font-family="Helvetica,sans-Serif" font-size="8.00">WARP&#45;grouped&#45;aggregate&#45;queries &#45; M</text>
</g>
<!-- cool_ideas_WARP_intentional_degeneracy_privacy -->
<g id="node66" class="node">
<title>cool_ideas_WARP_intentional_degeneracy_privacy</title>
<path fill="#d4e8f7" stroke="black" d="M9111.8,-386.7C9111.8,-386.7 8964.2,-386.7 8964.2,-386.7 8960,-386.7 8955.8,-382.5 8955.8,-378.3 8955.8,-378.3 8955.8,-369.9 8955.8,-369.9 8955.8,-365.7 8960,-361.5 8964.2,-361.5 8964.2,-361.5 9111.8,-361.5 9111.8,-361.5 9116,-361.5 9120.2,-365.7 9120.2,-369.9 9120.2,-369.9 9120.2,-378.3 9120.2,-378.3 9120.2,-382.5 9116,-386.7 9111.8,-386.7"/>
<text xml:space="preserve" text-anchor="middle" x="9038" y="-371" font-family="Helvetica,sans-Serif" font-size="8.00">WARP&#45;intentional&#45;degeneracy&#45;privacy &#45; M</text>
</g>
<!-- cool_ideas_WARP_minimum_viable_context -->
<g id="node67" class="node">
<title>cool_ideas_WARP_minimum_viable_context</title>
<path fill="#d4e8f7" stroke="black" d="M9265.43,-386.7C9265.43,-386.7 9142.57,-386.7 9142.57,-386.7 9138.38,-386.7 9134.17,-382.5 9134.17,-378.3 9134.17,-378.3 9134.17,-369.9 9134.17,-369.9 9134.17,-365.7 9138.38,-361.5 9142.57,-361.5 9142.57,-361.5 9265.43,-361.5 9265.43,-361.5 9269.62,-361.5 9273.83,-365.7 9273.83,-369.9 9273.83,-369.9 9273.83,-378.3 9273.83,-378.3 9273.83,-382.5 9269.62,-386.7 9265.43,-386.7"/>
<text xml:space="preserve" text-anchor="middle" x="9204" y="-371" font-family="Helvetica,sans-Serif" font-size="8.00">WARP&#45;minimum&#45;viable&#45;context &#45; M</text>
</g>
<!-- cool_ideas_WARP_outline_diff_commit_trailer -->
<g id="node68" class="node">
<title>cool_ideas_WARP_outline_diff_commit_trailer</title>
<path fill="#d4e8f7" stroke="black" d="M9421.93,-386.7C9421.93,-386.7 9296.07,-386.7 9296.07,-386.7 9291.88,-386.7 9287.67,-382.5 9287.67,-378.3 9287.67,-378.3 9287.67,-369.9 9287.67,-369.9 9287.67,-365.7 9291.88,-361.5 9296.07,-361.5 9296.07,-361.5 9421.93,-361.5 9421.93,-361.5 9426.12,-361.5 9430.33,-365.7 9430.33,-369.9 9430.33,-369.9 9430.33,-378.3 9430.33,-378.3 9430.33,-382.5 9426.12,-386.7 9421.93,-386.7"/>
<text xml:space="preserve" text-anchor="middle" x="9359" y="-371" font-family="Helvetica,sans-Serif" font-size="8.00">WARP&#45;outline&#45;diff&#45;commit&#45;trailer &#45; S</text>
</g>
<!-- cool_ideas_WARP_projection_safety_classes -->
<g id="node69" class="node">
<title>cool_ideas_WARP_projection_safety_classes</title>
<path fill="#d4e8f7" stroke="black" d="M9578.93,-386.7C9578.93,-386.7 9453.07,-386.7 9453.07,-386.7 9448.88,-386.7 9444.67,-382.5 9444.67,-378.3 9444.67,-378.3 9444.67,-369.9 9444.67,-369.9 9444.67,-365.7 9448.88,-361.5 9453.07,-361.5 9453.07,-361.5 9578.93,-361.5 9578.93,-361.5 9583.12,-361.5 9587.33,-365.7 9587.33,-369.9 9587.33,-369.9 9587.33,-378.3 9587.33,-378.3 9587.33,-382.5 9583.12,-386.7 9578.93,-386.7"/>
<text xml:space="preserve" text-anchor="middle" x="9516" y="-371" font-family="Helvetica,sans-Serif" font-size="8.00">WARP&#45;projection&#45;safety&#45;classes &#45; M</text>
</g>
<!-- cool_ideas_WARP_provenance_dag&#45;&gt;cool_ideas_WARP_causal_blame_for_staged_artifacts -->
<g id="edge9" class="edge">
<title>cool_ideas_WARP_provenance_dag&#45;&gt;cool_ideas_WARP_causal_blame_for_staged_artifacts</title>
<path fill="none" stroke="#666666" d="M8018,-287.85C8018,-276.65 8018,-259.63 8018,-246.63"/>
<polygon fill="#666666" stroke="#666666" points="8019.75,-246.77 8018,-241.77 8016.25,-246.77 8019.75,-246.77"/>
<text xml:space="preserve" text-anchor="middle" x="8049.5" y="-261.4" font-family="Helvetica,sans-Serif" font-size="7.00">blocked_by/blocking</text>
</g>
<!-- cool_ideas_WARP_reasoning_trace_replay -->
<g id="node71" class="node">
<title>cool_ideas_WARP_reasoning_trace_replay</title>
<path fill="#d4e8f7" stroke="black" d="M7909.93,-239.8C7909.93,-239.8 7790.07,-239.8 7790.07,-239.8 7785.88,-239.8 7781.68,-235.6 7781.68,-231.4 7781.68,-231.4 7781.68,-223 7781.68,-223 7781.68,-218.8 7785.88,-214.6 7790.07,-214.6 7790.07,-214.6 7909.93,-214.6 7909.93,-214.6 7914.12,-214.6 7918.32,-218.8 7918.32,-223 7918.32,-223 7918.32,-231.4 7918.32,-231.4 7918.32,-235.6 7914.12,-239.8 7909.93,-239.8"/>
<text xml:space="preserve" text-anchor="middle" x="7850" y="-224.1" font-family="Helvetica,sans-Serif" font-size="8.00">WARP&#45;reasoning&#45;trace&#45;replay &#45; M</text>
</g>
<!-- cool_ideas_WARP_provenance_dag&#45;&gt;cool_ideas_WARP_reasoning_trace_replay -->
<g id="edge10" class="edge">
<title>cool_ideas_WARP_provenance_dag&#45;&gt;cool_ideas_WARP_reasoning_trace_replay</title>
<path fill="none" stroke="#666666" d="M7989.88,-287.69C7960.69,-275.27 7915.01,-255.85 7883.85,-242.6"/>
<polygon fill="#666666" stroke="#666666" points="7884.89,-241.14 7879.6,-240.79 7883.52,-244.36 7884.89,-241.14"/>
<text xml:space="preserve" text-anchor="middle" x="7970.54" y="-261.4" font-family="Helvetica,sans-Serif" font-size="7.00">blocked_by/blocking</text>
</g>
<!-- cool_ideas_WARP_rulial_heat_map -->
<g id="node72" class="node">
<title>cool_ideas_WARP_rulial_heat_map</title>
<path fill="#d4e8f7" stroke="black" d="M9700.3,-386.7C9700.3,-386.7 9609.7,-386.7 9609.7,-386.7 9605.5,-386.7 9601.3,-382.5 9601.3,-378.3 9601.3,-378.3 9601.3,-369.9 9601.3,-369.9 9601.3,-365.7 9605.5,-361.5 9609.7,-361.5 9609.7,-361.5 9700.3,-361.5 9700.3,-361.5 9704.5,-361.5 9708.7,-365.7 9708.7,-369.9 9708.7,-369.9 9708.7,-378.3 9708.7,-378.3 9708.7,-382.5 9704.5,-386.7 9700.3,-386.7"/>
<text xml:space="preserve" text-anchor="middle" x="9655" y="-371" font-family="Helvetica,sans-Serif" font-size="8.00">WARP&#45;rulial&#45;heat&#45;map &#45; L</text>
</g>
<!-- cool_ideas_WARP_semantic_drift_in_sessions -->
<g id="node73" class="node">
<title>cool_ideas_WARP_semantic_drift_in_sessions</title>
<path fill="#d4e8f7" stroke="black" d="M9860.43,-386.7C9860.43,-386.7 9731.57,-386.7 9731.57,-386.7 9727.38,-386.7 9723.17,-382.5 9723.17,-378.3 9723.17,-378.3 9723.17,-369.9 9723.17,-369.9 9723.17,-365.7 9727.38,-361.5 9731.57,-361.5 9731.57,-361.5 9860.43,-361.5 9860.43,-361.5 9864.62,-361.5 9868.83,-365.7 9868.83,-369.9 9868.83,-369.9 9868.83,-378.3 9868.83,-378.3 9868.83,-382.5 9864.62,-386.7 9860.43,-386.7"/>
<text xml:space="preserve" text-anchor="middle" x="9796" y="-371" font-family="Helvetica,sans-Serif" font-size="8.00">WARP&#45;semantic&#45;drift&#45;in&#45;sessions &#45; M</text>
</g>
<!-- cool_ideas_WARP_semantic_merge_conflict_prediction -->
<g id="node74" class="node">
<title>cool_ideas_WARP_semantic_merge_conflict_prediction</title>
<path fill="#d4e8f7" stroke="black" d="M10877.43,-313.25C10877.43,-313.25 10718.57,-313.25 10718.57,-313.25 10714.38,-313.25 10710.17,-309.05 10710.17,-304.85 10710.17,-304.85 10710.17,-296.45 10710.17,-296.45 10710.17,-292.25 10714.38,-288.05 10718.57,-288.05 10718.57,-288.05 10877.43,-288.05 10877.43,-288.05 10881.62,-288.05 10885.83,-292.25 10885.83,-296.45 10885.83,-296.45 10885.83,-304.85 10885.83,-304.85 10885.83,-309.05 10881.62,-313.25 10877.43,-313.25"/>
<text xml:space="preserve" text-anchor="middle" x="10798" y="-297.55" font-family="Helvetica,sans-Serif" font-size="8.00">WARP&#45;semantic&#45;merge&#45;conflict&#45;prediction &#45; L</text>
</g>
<!-- cool_ideas_WARP_session_filtration -->
<g id="node75" class="node">
<title>cool_ideas_WARP_session_filtration</title>
<path fill="#d4e8f7" stroke="black" d="M9984.8,-386.7C9984.8,-386.7 9891.2,-386.7 9891.2,-386.7 9887,-386.7 9882.8,-382.5 9882.8,-378.3 9882.8,-378.3 9882.8,-369.9 9882.8,-369.9 9882.8,-365.7 9887,-361.5 9891.2,-361.5 9891.2,-361.5 9984.8,-361.5 9984.8,-361.5 9989,-361.5 9993.2,-365.7 9993.2,-369.9 9993.2,-369.9 9993.2,-378.3 9993.2,-378.3 9993.2,-382.5 9989,-386.7 9984.8,-386.7"/>
<text xml:space="preserve" text-anchor="middle" x="9938" y="-371" font-family="Helvetica,sans-Serif" font-size="8.00">WARP&#45;session&#45;filtration &#45; L</text>
</g>
<!-- cool_ideas_WARP_shadow_structural_workspaces -->
<g id="node76" class="node">
<title>cool_ideas_WARP_shadow_structural_workspaces</title>
<path fill="#d4e8f7" stroke="black" d="M10166.3,-386.7C10166.3,-386.7 10015.7,-386.7 10015.7,-386.7 10011.5,-386.7 10007.3,-382.5 10007.3,-378.3 10007.3,-378.3 10007.3,-369.9 10007.3,-369.9 10007.3,-365.7 10011.5,-361.5 10015.7,-361.5 10015.7,-361.5 10166.3,-361.5 10166.3,-361.5 10170.5,-361.5 10174.7,-365.7 10174.7,-369.9 10174.7,-369.9 10174.7,-378.3 10174.7,-378.3 10174.7,-382.5 10170.5,-386.7 10166.3,-386.7"/>
<text xml:space="preserve" text-anchor="middle" x="10091" y="-371" font-family="Helvetica,sans-Serif" font-size="8.00">WARP&#45;shadow&#45;structural&#45;workspaces &#45; XL</text>
</g>
<!-- cool_ideas_WARP_speculative_merge -->
<g id="node77" class="node">
<title>cool_ideas_WARP_speculative_merge</title>
<path fill="#d4e8f7" stroke="black" d="M10304.55,-386.7C10304.55,-386.7 10197.45,-386.7 10197.45,-386.7 10193.25,-386.7 10189.05,-382.5 10189.05,-378.3 10189.05,-378.3 10189.05,-369.9 10189.05,-369.9 10189.05,-365.7 10193.25,-361.5 10197.45,-361.5 10197.45,-361.5 10304.55,-361.5 10304.55,-361.5 10308.75,-361.5 10312.95,-365.7 10312.95,-369.9 10312.95,-369.9 10312.95,-378.3 10312.95,-378.3 10312.95,-382.5 10308.75,-386.7 10304.55,-386.7"/>
<text xml:space="preserve" text-anchor="middle" x="10251" y="-371" font-family="Helvetica,sans-Serif" font-size="8.00">WARP&#45;speculative&#45;merge &#45; XL</text>
</g>
<!-- cool_ideas_WARP_stale_docs_checker -->
<g id="node78" class="node">
<title>cool_ideas_WARP_stale_docs_checker</title>
<path fill="#d4e8f7" stroke="black" d="M10440.8,-386.7C10440.8,-386.7 10335.2,-386.7 10335.2,-386.7 10331,-386.7 10326.8,-382.5 10326.8,-378.3 10326.8,-378.3 10326.8,-369.9 10326.8,-369.9 10326.8,-365.7 10331,-361.5 10335.2,-361.5 10335.2,-361.5 10440.8,-361.5 10440.8,-361.5 10445,-361.5 10449.2,-365.7 10449.2,-369.9 10449.2,-369.9 10449.2,-378.3 10449.2,-378.3 10449.2,-382.5 10445,-386.7 10440.8,-386.7"/>
<text xml:space="preserve" text-anchor="middle" x="10388" y="-371" font-family="Helvetica,sans-Serif" font-size="8.00">WARP&#45;stale&#45;docs&#45;checker &#45; M</text>
</g>
<!-- cool_ideas_WARP_stale_docs_checker&#45;&gt;cool_ideas_WARP_drift_sentinel -->
<g id="edge11" class="edge">
<title>cool_ideas_WARP_stale_docs_checker&#45;&gt;cool_ideas_WARP_drift_sentinel</title>
<path fill="none" stroke="#666666" d="M10376.11,-361.3C10364.2,-349.48 10345.76,-331.19 10332.45,-317.97"/>
<polygon fill="#666666" stroke="#666666" points="10334,-317.05 10329.22,-314.77 10331.54,-319.54 10334,-317.05"/>
<text xml:space="preserve" text-anchor="middle" x="10385.66" y="-334.85" font-family="Helvetica,sans-Serif" font-size="7.00">blocked_by/blocking</text>
</g>
<!-- cool_ideas_WARP_structural_drift_detection -->
<g id="node79" class="node">
<title>cool_ideas_WARP_structural_drift_detection</title>
<path fill="#d4e8f7" stroke="black" d="M10594.8,-386.7C10594.8,-386.7 10471.2,-386.7 10471.2,-386.7 10467,-386.7 10462.8,-382.5 10462.8,-378.3 10462.8,-378.3 10462.8,-369.9 10462.8,-369.9 10462.8,-365.7 10467,-361.5 10471.2,-361.5 10471.2,-361.5 10594.8,-361.5 10594.8,-361.5 10599,-361.5 10603.2,-365.7 10603.2,-369.9 10603.2,-369.9 10603.2,-378.3 10603.2,-378.3 10603.2,-382.5 10599,-386.7 10594.8,-386.7"/>
<text xml:space="preserve" text-anchor="middle" x="10533" y="-371" font-family="Helvetica,sans-Serif" font-size="8.00">WARP&#45;structural&#45;drift&#45;detection &#45; M</text>
</g>
<!-- cool_ideas_WARP_symbol_heatmap -->
<g id="node81" class="node">
<title>cool_ideas_WARP_symbol_heatmap</title>
<path fill="#d4e8f7" stroke="black" d="M10724.05,-386.7C10724.05,-386.7 10625.95,-386.7 10625.95,-386.7 10621.75,-386.7 10617.55,-382.5 10617.55,-378.3 10617.55,-378.3 10617.55,-369.9 10617.55,-369.9 10617.55,-365.7 10621.75,-361.5 10625.95,-361.5 10625.95,-361.5 10724.05,-361.5 10724.05,-361.5 10728.25,-361.5 10732.45,-365.7 10732.45,-369.9 10732.45,-369.9 10732.45,-378.3 10732.45,-378.3 10732.45,-382.5 10728.25,-386.7 10724.05,-386.7"/>
<text xml:space="preserve" text-anchor="middle" x="10675" y="-371" font-family="Helvetica,sans-Serif" font-size="8.00">WARP&#45;symbol&#45;heatmap &#45; M</text>
</g>
<!-- cool_ideas_WARP_technical_debt_curvature -->
<g id="node82" class="node">
<title>cool_ideas_WARP_technical_debt_curvature</title>
<path fill="#d4e8f7" stroke="black" d="M10877.43,-386.7C10877.43,-386.7 10754.57,-386.7 10754.57,-386.7 10750.38,-386.7 10746.17,-382.5 10746.17,-378.3 10746.17,-378.3 10746.17,-369.9 10746.17,-369.9 10746.17,-365.7 10750.38,-361.5 10754.57,-361.5 10754.57,-361.5 10877.43,-361.5 10877.43,-361.5 10881.62,-361.5 10885.83,-365.7 10885.83,-369.9 10885.83,-369.9 10885.83,-378.3 10885.83,-378.3 10885.83,-382.5 10881.62,-386.7 10877.43,-386.7"/>
<text xml:space="preserve" text-anchor="middle" x="10816" y="-371" font-family="Helvetica,sans-Serif" font-size="8.00">WARP&#45;technical&#45;debt&#45;curvature &#45; L</text>
</g>
<!-- external_git_warp_observer_geometry_ladder__Rung_2_4_ -->
<g id="node84" class="node">
<title>external_git_warp_observer_geometry_ladder__Rung_2_4_</title>
<path fill="#e8f2ff" stroke="black" d="M11081.68,-386.7C11081.68,-386.7 10918.32,-386.7 10918.32,-386.7 10914.12,-386.7 10909.92,-382.5 10909.92,-378.3 10909.92,-378.3 10909.92,-369.9 10909.92,-369.9 10909.92,-365.7 10914.12,-361.5 10918.32,-361.5 10918.32,-361.5 11081.68,-361.5 11081.68,-361.5 11085.88,-361.5 11090.08,-365.7 11090.08,-369.9 11090.08,-369.9 11090.08,-378.3 11090.08,-378.3 11090.08,-382.5 11085.88,-386.7 11081.68,-386.7"/>
<text xml:space="preserve" text-anchor="middle" x="11000" y="-371" font-family="Helvetica,sans-Serif" font-size="8.00">git&#45;warp observer geometry ladder (Rung 2&#45;4)</text>
</g>
<!-- external_git_warp_observer_geometry_ladder__Rung_2_4_&#45;&gt;cool_ideas_CORE_migrate_to_slice_first_reads -->
<g id="edge12" class="edge">
<title>external_git_warp_observer_geometry_ladder__Rung_2_4_&#45;&gt;cool_ideas_CORE_migrate_to_slice_first_reads</title>
<path fill="none" stroke="#4477aa" stroke-dasharray="5,2" d="M10943.54,-361.04C10928.47,-358.18 10912.17,-355.41 10897,-353.5 10812.72,-342.87 10790.71,-350.58 10706.25,-341.5 10623.44,-332.6 10603.31,-325.98 10521,-313.25 10520.86,-313.23 10520.73,-313.21 10520.59,-313.19"/>
<polygon fill="#4477aa" stroke="#4477aa" points="10521.06,-311.49 10515.85,-312.45 10520.52,-314.95 10521.06,-311.49"/>
<text xml:space="preserve" text-anchor="middle" x="10738.12" y="-334.85" font-family="Helvetica,sans-Serif" font-size="7.00">blocked_by_external</text>
</g>
<!-- unresolved_CLEAN_CODE_export_diff_semver_signature_as_patch -->
<g id="node85" class="node">
<title>unresolved_CLEAN_CODE_export_diff_semver_signature_as_patch</title>
<path fill="#f2f2f2" stroke="black" stroke-dasharray="5,2" d="M11345.3,-386.7C11345.3,-386.7 11122.7,-386.7 11122.7,-386.7 11118.5,-386.7 11114.3,-382.5 11114.3,-378.3 11114.3,-378.3 11114.3,-369.9 11114.3,-369.9 11114.3,-365.7 11118.5,-361.5 11122.7,-361.5 11122.7,-361.5 11345.3,-361.5 11345.3,-361.5 11349.5,-361.5 11353.7,-365.7 11353.7,-369.9 11353.7,-369.9 11353.7,-378.3 11353.7,-378.3 11353.7,-382.5 11349.5,-386.7 11345.3,-386.7"/>
<text xml:space="preserve" text-anchor="middle" x="11234" y="-371" font-family="Helvetica,sans-Serif" font-size="8.00">missing: CLEAN_CODE_export&#45;diff&#45;semver&#45;signature&#45;as&#45;patch</text>
</g>
<!-- unresolved_CLEAN_CODE_export_diff_semver_signature_as_patch&#45;&gt;cool_ideas_WARP_auto_breaking_change_detection -->
<g id="edge13" class="edge">
<title>unresolved_CLEAN_CODE_export_diff_semver_signature_as_patch&#45;&gt;cool_ideas_WARP_auto_breaking_change_detection</title>
<path fill="none" stroke="#cc3333" stroke-dasharray="5,2" d="M11157.44,-361.04C11138.99,-358.34 11119.31,-355.65 11101,-353.5 11040.63,-346.4 11025.25,-347.43 10964.75,-341.5 10848.3,-330.09 10819.21,-326.93 10703,-313.25 10702.7,-313.22 10702.41,-313.18 10702.11,-313.14"/>
<polygon fill="#cc3333" stroke="#cc3333" points="10702.47,-311.43 10697.29,-312.57 10702.05,-314.9 10702.47,-311.43"/>
<text xml:space="preserve" text-anchor="middle" x="10982.38" y="-334.85" font-family="Helvetica,sans-Serif" font-size="7.00">blocked_by</text>
</g>
<!-- unresolved_CLEAN_CODE_export_diff_semver_signature_as_patch&#45;&gt;cool_ideas_WARP_semantic_merge_conflict_prediction -->
<g id="edge14" class="edge">
<title>unresolved_CLEAN_CODE_export_diff_semver_signature_as_patch&#45;&gt;cool_ideas_WARP_semantic_merge_conflict_prediction</title>
<path fill="none" stroke="#cc3333" stroke-dasharray="5,2" d="M11160.53,-361.06C11082.24,-348.23 10958.69,-327.98 10877.99,-314.76"/>
<polygon fill="#cc3333" stroke="#cc3333" points="10878.48,-313.07 10873.26,-313.98 10877.91,-316.52 10878.48,-313.07"/>
<text xml:space="preserve" text-anchor="middle" x="11046.7" y="-334.85" font-family="Helvetica,sans-Serif" font-size="7.00">blocked_by</text>
</g>
<!-- leg_v08 -->
<g id="node86" class="node">
<title>leg_v08</title>
<path fill="#c8e6c9" stroke="black" stroke-width="2" d="M11470,-386.7C11470,-386.7 11386,-386.7 11386,-386.7 11381.8,-386.7 11377.6,-382.5 11377.6,-378.3 11377.6,-378.3 11377.6,-369.9 11377.6,-369.9 11377.6,-365.7 11381.8,-361.5 11386,-361.5 11386,-361.5 11470,-361.5 11470,-361.5 11474.2,-361.5 11478.4,-365.7 11478.4,-369.9 11478.4,-369.9 11478.4,-378.3 11478.4,-378.3 11478.4,-382.5 11474.2,-386.7 11470,-386.7"/>
<text xml:space="preserve" text-anchor="middle" x="11428" y="-371.58" font-family="Helvetica,sans-Serif" font-size="7.00">v0.8.0</text>
</g>
<!-- leg_v07 -->
<g id="node87" class="node">
<title>leg_v07</title>
<path fill="#ffa07a" stroke="black" stroke-width="2" d="M11470,-313.25C11470,-313.25 11386,-313.25 11386,-313.25 11381.8,-313.25 11377.6,-309.05 11377.6,-304.85 11377.6,-304.85 11377.6,-296.45 11377.6,-296.45 11377.6,-292.25 11381.8,-288.05 11386,-288.05 11386,-288.05 11470,-288.05 11470,-288.05 11474.2,-288.05 11478.4,-292.25 11478.4,-296.45 11478.4,-296.45 11478.4,-304.85 11478.4,-304.85 11478.4,-309.05 11474.2,-313.25 11470,-313.25"/>
<text xml:space="preserve" text-anchor="middle" x="11428" y="-298.12" font-family="Helvetica,sans-Serif" font-size="7.00">v0.7.0</text>
</g>
<!-- leg_v08&#45;&gt;leg_v07 -->
<!-- leg_bad -->
<g id="node88" class="node">
<title>leg_bad</title>
<path fill="#f6b3b3" stroke="black" stroke-width="2" d="M11470,-239.8C11470,-239.8 11386,-239.8 11386,-239.8 11381.8,-239.8 11377.6,-235.6 11377.6,-231.4 11377.6,-231.4 11377.6,-223 11377.6,-223 11377.6,-218.8 11381.8,-214.6 11386,-214.6 11386,-214.6 11470,-214.6 11470,-214.6 11474.2,-214.6 11478.4,-218.8 11478.4,-223 11478.4,-223 11478.4,-231.4 11478.4,-231.4 11478.4,-235.6 11474.2,-239.8 11470,-239.8"/>
<text xml:space="preserve" text-anchor="middle" x="11428" y="-224.67" font-family="Helvetica,sans-Serif" font-size="7.00">bad&#45;code</text>
</g>
<!-- leg_v07&#45;&gt;leg_bad -->
<!-- leg_idea -->
<g id="node89" class="node">
<title>leg_idea</title>
<path fill="#d4e8f7" stroke="black" d="M11470,-173.6C11470,-173.6 11386,-173.6 11386,-173.6 11381.8,-173.6 11377.6,-169.4 11377.6,-165.2 11377.6,-165.2 11377.6,-156.8 11377.6,-156.8 11377.6,-152.6 11381.8,-148.4 11386,-148.4 11386,-148.4 11470,-148.4 11470,-148.4 11474.2,-148.4 11478.4,-152.6 11478.4,-156.8 11478.4,-156.8 11478.4,-165.2 11478.4,-165.2 11478.4,-169.4 11474.2,-173.6 11470,-173.6"/>
<text xml:space="preserve" text-anchor="middle" x="11428" y="-158.47" font-family="Helvetica,sans-Serif" font-size="7.00">cool&#45;ideas</text>
</g>
<!-- leg_bad&#45;&gt;leg_idea -->
<!-- leg_external -->
<g id="node90" class="node">
<title>leg_external</title>
<path fill="#e8f2ff" stroke="black" d="M11470,-107.4C11470,-107.4 11386,-107.4 11386,-107.4 11381.8,-107.4 11377.6,-103.2 11377.6,-99 11377.6,-99 11377.6,-90.6 11377.6,-90.6 11377.6,-86.4 11381.8,-82.2 11386,-82.2 11386,-82.2 11470,-82.2 11470,-82.2 11474.2,-82.2 11478.4,-86.4 11478.4,-90.6 11478.4,-90.6 11478.4,-99 11478.4,-99 11478.4,-103.2 11474.2,-107.4 11470,-107.4"/>
<text xml:space="preserve" text-anchor="middle" x="11428" y="-92.28" font-family="Helvetica,sans-Serif" font-size="7.00">external blocker</text>
</g>
<!-- leg_idea&#45;&gt;leg_external -->
<!-- leg_unresolved -->
<g id="node91" class="node">
<title>leg_unresolved</title>
<path fill="#f2f2f2" stroke="black" stroke-dasharray="5,2" d="M11470,-41.2C11470,-41.2 11386,-41.2 11386,-41.2 11381.8,-41.2 11377.6,-37 11377.6,-32.8 11377.6,-32.8 11377.6,-24.4 11377.6,-24.4 11377.6,-20.2 11381.8,-16 11386,-16 11386,-16 11470,-16 11470,-16 11474.2,-16 11478.4,-20.2 11478.4,-24.4 11478.4,-24.4 11478.4,-32.8 11478.4,-32.8 11478.4,-37 11474.2,-41.2 11470,-41.2"/>
<text xml:space="preserve" text-anchor="middle" x="11428" y="-26.08" font-family="Helvetica,sans-Serif" font-size="7.00">unresolved ref</text>
</g>
<!-- leg_external&#45;&gt;leg_unresolved -->
</g>
</svg>
