<?xml version="1.0" encoding="UTF-8" standalone="no"?>
<!DOCTYPE svg PUBLIC "-//W3C//DTD SVG 1.1//EN"
 "http://www.w3.org/Graphics/SVG/1.1/DTD/svg11.dtd">
<!-- Generated by graphviz version 14.1.2 (20260124.0452)
 -->
<!-- Title: backlog Pages: 1 -->
<svg width="11313pt" height="449pt"
 viewBox="0.00 0.00 11313.00 449.00" xmlns="http://www.w3.org/2000/svg" xmlns:xlink="http://www.w3.org/1999/xlink">
<g id="graph0" class="graph" transform="scale(1 1) rotate(0) translate(4 445.2)">
<title>backlog</title>
<polygon fill="white" stroke="none" points="-4,4 -4,-445.2 11309,-445.2 11309,4 -4,4"/>
<text xml:space="preserve" text-anchor="middle" x="5652.5" y="-425.8" font-family="Helvetica,sans-Serif" font-size="12.00">Active backlog graph generated from docs/method/backlog/*/*.md</text>
<g id="clust1" class="cluster">
<title>cluster_v0_8_0</title>
<path fill="#fafafa" stroke="#cccccc" d="M20,-353.5C20,-353.5 511,-353.5 511,-353.5 517,-353.5 523,-359.5 523,-365.5 523,-365.5 523,-400.45 523,-400.45 523,-406.45 517,-412.45 511,-412.45 511,-412.45 20,-412.45 20,-412.45 14,-412.45 8,-406.45 8,-400.45 8,-400.45 8,-365.5 8,-365.5 8,-359.5 14,-353.5 20,-353.5"/>
<text xml:space="preserve" text-anchor="middle" x="35.12" y="-399.9" font-family="Helvetica,sans-Serif" font-size="9.00" fill="#555555">v0.8.0 (3)</text>
</g>
<g id="clust2" class="cluster">
<title>cluster_bad_code</title>
<path fill="#fafafa" stroke="#cccccc" d="M543,-353.5C543,-353.5 859,-353.5 859,-353.5 865,-353.5 871,-359.5 871,-365.5 871,-365.5 871,-400.45 871,-400.45 871,-406.45 865,-412.45 859,-412.45 859,-412.45 543,-412.45 543,-412.45 537,-412.45 531,-406.45 531,-400.45 531,-400.45 531,-365.5 531,-365.5 531,-359.5 537,-353.5 543,-353.5"/>
<text xml:space="preserve" text-anchor="middle" x="565.25" y="-399.9" font-family="Helvetica,sans-Serif" font-size="9.00" fill="#555555">bad&#45;code (2)</text>
</g>
<g id="clust3" class="cluster">
<title>cluster_cool_ideas</title>
<path fill="#fafafa" stroke="#cccccc" d="M891,-206.6C891,-206.6 10693,-206.6 10693,-206.6 10699,-206.6 10705,-212.6 10705,-218.6 10705,-218.6 10705,-400.45 10705,-400.45 10705,-406.45 10699,-412.45 10693,-412.45 10693,-412.45 891,-412.45 891,-412.45 885,-412.45 879,-406.45 879,-400.45 879,-400.45 879,-218.6 879,-218.6 879,-212.6 885,-206.6 891,-206.6"/>
<text xml:space="preserve" text-anchor="middle" x="918.5" y="-399.9" font-family="Helvetica,sans-Serif" font-size="9.00" fill="#555555">Cool Ideas (77)</text>
</g>
<g id="clust4" class="cluster">
<title>cluster_external</title>
<path fill="#f8fbff" stroke="#cccccc" d="M10725,-353.5C10725,-353.5 10897,-353.5 10897,-353.5 10903,-353.5 10909,-359.5 10909,-365.5 10909,-365.5 10909,-400.45 10909,-400.45 10909,-406.45 10903,-412.45 10897,-412.45 10897,-412.45 10725,-412.45 10725,-412.45 10719,-412.45 10713,-406.45 10713,-400.45 10713,-400.45 10713,-365.5 10713,-365.5 10713,-359.5 10719,-353.5 10725,-353.5"/>
<text xml:space="preserve" text-anchor="middle" x="10756.25" y="-399.9" font-family="Helvetica,sans-Serif" font-size="9.00" fill="#555555">External blockers</text>
</g>
<g id="clust5" class="cluster">
<title>cluster_unresolved</title>
<path fill="#fff7f7" stroke="#cc3333" stroke-dasharray="5,2" d="M10929,-353.5C10929,-353.5 11161,-353.5 11161,-353.5 11167,-353.5 11173,-359.5 11173,-365.5 11173,-365.5 11173,-400.45 11173,-400.45 11173,-406.45 11167,-412.45 11161,-412.45 11161,-412.45 10929,-412.45 10929,-412.45 10923,-412.45 10917,-406.45 10917,-400.45 10917,-400.45 10917,-365.5 10917,-365.5 10917,-359.5 10923,-353.5 10929,-353.5"/>
<text xml:space="preserve" text-anchor="middle" x="10973.75" y="-399.9" font-family="Helvetica,sans-Serif" font-size="9.00" fill="#555555">Unresolved internal refs</text>
</g>
<g id="clust6" class="cluster">
<title>cluster_legend</title>
<path fill="none" stroke="#dddddd" d="M11193,-8C11193,-8 11285,-8 11285,-8 11291,-8 11297,-14 11297,-20 11297,-20 11297,-399.7 11297,-399.7 11297,-405.7 11291,-411.7 11285,-411.7 11285,-411.7 11193,-411.7 11193,-411.7 11187,-411.7 11181,-405.7 11181,-399.7 11181,-399.7 11181,-20 11181,-20 11181,-14 11187,-8 11193,-8"/>
<text xml:space="preserve" text-anchor="middle" x="11202.5" y="-400.1" font-family="Helvetica,sans-Serif" font-size="8.00" fill="#aaaaaa">Legend</text>
</g>
<!-- v0_8_0_CORE_pr_review_structural_summary -->
<g id="node1" class="node">
<title>v0_8_0_CORE_pr_review_structural_summary</title>
<path fill="#c8e6c9" stroke="black" stroke-width="2" d="M167.92,-386.7C167.92,-386.7 24.08,-386.7 24.08,-386.7 19.88,-386.7 15.67,-382.5 15.67,-378.3 15.67,-378.3 15.67,-369.9 15.67,-369.9 15.67,-365.7 19.88,-361.5 24.08,-361.5 24.08,-361.5 167.92,-361.5 167.92,-361.5 172.12,-361.5 176.32,-365.7 176.32,-369.9 176.32,-369.9 176.32,-378.3 176.32,-378.3 176.32,-382.5 172.12,-386.7 167.92,-386.7"/>
<text xml:space="preserve" text-anchor="middle" x="96" y="-371" font-family="Helvetica,sans-Serif" font-size="8.00">CORE&#45;pr&#45;review&#45;structural&#45;summary &#45; M</text>
</g>
<!-- v0_8_0_CORE_structural_test_coverage_map -->
<g id="node2" class="node">
<title>v0_8_0_CORE_structural_test_coverage_map</title>
<path fill="#c8e6c9" stroke="black" stroke-width="2" d="M340.8,-386.7C340.8,-386.7 199.2,-386.7 199.2,-386.7 195,-386.7 190.8,-382.5 190.8,-378.3 190.8,-378.3 190.8,-369.9 190.8,-369.9 190.8,-365.7 195,-361.5 199.2,-361.5 199.2,-361.5 340.8,-361.5 340.8,-361.5 345,-361.5 349.2,-365.7 349.2,-369.9 349.2,-369.9 349.2,-378.3 349.2,-378.3 349.2,-382.5 345,-386.7 340.8,-386.7"/>
<text xml:space="preserve" text-anchor="middle" x="270" y="-371" font-family="Helvetica,sans-Serif" font-size="8.00">CORE&#45;structural&#45;test&#45;coverage&#45;map &#45; M</text>
</g>
<!-- v0_8_0_SURFACE_review_cooldown_status -->
<g id="node3" class="node">
<title>v0_8_0_SURFACE_review_cooldown_status</title>
<path fill="#c8e6c9" stroke="black" stroke-width="2" d="M506.8,-386.7C506.8,-386.7 371.2,-386.7 371.2,-386.7 367,-386.7 362.8,-382.5 362.8,-378.3 362.8,-378.3 362.8,-369.9 362.8,-369.9 362.8,-365.7 367,-361.5 371.2,-361.5 371.2,-361.5 506.8,-361.5 506.8,-361.5 511,-361.5 515.2,-365.7 515.2,-369.9 515.2,-369.9 515.2,-378.3 515.2,-378.3 515.2,-382.5 511,-386.7 506.8,-386.7"/>
<text xml:space="preserve" text-anchor="middle" x="439" y="-371" font-family="Helvetica,sans-Serif" font-size="8.00">SURFACE&#45;review&#45;cooldown&#45;status &#45; S</text>
</g>
<!-- bad_code_CORE_tool_context_injection_contracts -->
<g id="node4" class="node">
<title>bad_code_CORE_tool_context_injection_contracts</title>
<path fill="#f6b3b3" stroke="black" stroke-width="2" d="M693.05,-386.7C693.05,-386.7 546.95,-386.7 546.95,-386.7 542.75,-386.7 538.55,-382.5 538.55,-378.3 538.55,-378.3 538.55,-369.9 538.55,-369.9 538.55,-365.7 542.75,-361.5 546.95,-361.5 546.95,-361.5 693.05,-361.5 693.05,-361.5 697.25,-361.5 701.45,-365.7 701.45,-369.9 701.45,-369.9 701.45,-378.3 701.45,-378.3 701.45,-382.5 697.25,-386.7 693.05,-386.7"/>
<text xml:space="preserve" text-anchor="middle" x="620" y="-371" font-family="Helvetica,sans-Serif" font-size="8.00">CORE&#45;tool&#45;context&#45;injection&#45;contracts &#45; M</text>
</g>
<!-- bad_code_TEST_bounded_subprocess_policy -->
<g id="node5" class="node">
<title>bad_code_TEST_bounded_subprocess_policy</title>
<path fill="#f6b3b3" stroke="black" stroke-width="2" d="M854.18,-386.7C854.18,-386.7 723.82,-386.7 723.82,-386.7 719.62,-386.7 715.42,-382.5 715.42,-378.3 715.42,-378.3 715.42,-369.9 715.42,-369.9 715.42,-365.7 719.62,-361.5 723.82,-361.5 723.82,-361.5 854.18,-361.5 854.18,-361.5 858.38,-361.5 862.58,-365.7 862.58,-369.9 862.58,-369.9 862.58,-378.3 862.58,-378.3 862.58,-382.5 858.38,-386.7 854.18,-386.7"/>
<text xml:space="preserve" text-anchor="middle" x="789" y="-371" font-family="Helvetica,sans-Serif" font-size="8.00">TEST&#45;bounded&#45;subprocess&#45;policy &#45; S</text>
</g>
<!-- cool_ideas_bounded_neighborhood_for_references -->
<g id="node6" class="node">
<title>cool_ideas_bounded_neighborhood_for_references</title>
<path fill="#d4e8f7" stroke="black" d="M1044.17,-386.7C1044.17,-386.7 895.82,-386.7 895.82,-386.7 891.62,-386.7 887.42,-382.5 887.42,-378.3 887.42,-378.3 887.42,-369.9 887.42,-369.9 887.42,-365.7 891.62,-361.5 895.82,-361.5 895.82,-361.5 1044.17,-361.5 1044.17,-361.5 1048.38,-361.5 1052.58,-365.7 1052.58,-369.9 1052.58,-369.9 1052.58,-378.3 1052.58,-378.3 1052.58,-382.5 1048.38,-386.7 1044.17,-386.7"/>
<text xml:space="preserve" text-anchor="middle" x="970" y="-371" font-family="Helvetica,sans-Serif" font-size="8.00">bounded&#45;neighborhood&#45;for&#45;references &#45; S</text>
</g>
<!-- cool_ideas_CI_001_causal_collapse_visualizer -->
<g id="node7" class="node">
<title>cool_ideas_CI_001_causal_collapse_visualizer</title>
<path fill="#d4e8f7" stroke="black" d="M7591.3,-313.25C7591.3,-313.25 7464.7,-313.25 7464.7,-313.25 7460.5,-313.25 7456.3,-309.05 7456.3,-304.85 7456.3,-304.85 7456.3,-296.45 7456.3,-296.45 7456.3,-292.25 7460.5,-288.05 7464.7,-288.05 7464.7,-288.05 7591.3,-288.05 7591.3,-288.05 7595.5,-288.05 7599.7,-292.25 7599.7,-296.45 7599.7,-296.45 7599.7,-304.85 7599.7,-304.85 7599.7,-309.05 7595.5,-313.25 7591.3,-313.25"/>
<text xml:space="preserve" text-anchor="middle" x="7528" y="-297.55" font-family="Helvetica,sans-Serif" font-size="8.00">CI&#45;001&#45;causal&#45;collapse&#45;visualizer &#45; L</text>
</g>
<!-- cool_ideas_CI_002_deterministic_scenario_replay -->
<g id="node8" class="node">
<title>cool_ideas_CI_002_deterministic_scenario_replay</title>
<path fill="#d4e8f7" stroke="black" d="M1214.67,-386.7C1214.67,-386.7 1075.33,-386.7 1075.33,-386.7 1071.12,-386.7 1066.92,-382.5 1066.92,-378.3 1066.92,-378.3 1066.92,-369.9 1066.92,-369.9 1066.92,-365.7 1071.12,-361.5 1075.33,-361.5 1075.33,-361.5 1214.67,-361.5 1214.67,-361.5 1218.88,-361.5 1223.08,-365.7 1223.08,-369.9 1223.08,-369.9 1223.08,-378.3 1223.08,-378.3 1223.08,-382.5 1218.88,-386.7 1214.67,-386.7"/>
<text xml:space="preserve" text-anchor="middle" x="1145" y="-371" font-family="Helvetica,sans-Serif" font-size="8.00">CI&#45;002&#45;deterministic&#45;scenario&#45;replay &#45; L</text>
</g>
<!-- cool_ideas_CI_003_mcp_native_diff_protocol -->
<g id="node9" class="node">
<title>cool_ideas_CI_003_mcp_native_diff_protocol</title>
<path fill="#d4e8f7" stroke="black" d="M1368.8,-386.7C1368.8,-386.7 1245.2,-386.7 1245.2,-386.7 1241,-386.7 1236.8,-382.5 1236.8,-378.3 1236.8,-378.3 1236.8,-369.9 1236.8,-369.9 1236.8,-365.7 1241,-361.5 1245.2,-361.5 1245.2,-361.5 1368.8,-361.5 1368.8,-361.5 1373,-361.5 1377.2,-365.7 1377.2,-369.9 1377.2,-369.9 1377.2,-378.3 1377.2,-378.3 1377.2,-382.5 1373,-386.7 1368.8,-386.7"/>
<text xml:space="preserve" text-anchor="middle" x="1307" y="-371" font-family="Helvetica,sans-Serif" font-size="8.00">CI&#45;003&#45;mcp&#45;native&#45;diff&#45;protocol &#45; M</text>
</g>
<!-- cool_ideas_CLEAN_CODE_parallel_agent_merge_shared_file_loss -->
<g id="node10" class="node">
<title>cool_ideas_CLEAN_CODE_parallel_agent_merge_shared_file_loss</title>
<path fill="#d4e8f7" stroke="black" d="M1600.05,-386.7C1600.05,-386.7 1399.95,-386.7 1399.95,-386.7 1395.75,-386.7 1391.55,-382.5 1391.55,-378.3 1391.55,-378.3 1391.55,-369.9 1391.55,-369.9 1391.55,-365.7 1395.75,-361.5 1399.95,-361.5 1399.95,-361.5 1600.05,-361.5 1600.05,-361.5 1604.25,-361.5 1608.45,-365.7 1608.45,-369.9 1608.45,-369.9 1608.45,-378.3 1608.45,-378.3 1608.45,-382.5 1604.25,-386.7 1600.05,-386.7"/>
<text xml:space="preserve" text-anchor="middle" x="1500" y="-371" font-family="Helvetica,sans-Serif" font-size="8.00">CLEAN&#45;CODE&#45;parallel&#45;agent&#45;merge&#45;shared&#45;file&#45;loss &#45; M</text>
</g>
<!-- cool_ideas_CORE_agent_handoff_protocol -->
<g id="node11" class="node">
<title>cool_ideas_CORE_agent_handoff_protocol</title>
<path fill="#d4e8f7" stroke="black" d="M1750.92,-386.7C1750.92,-386.7 1631.08,-386.7 1631.08,-386.7 1626.88,-386.7 1622.67,-382.5 1622.67,-378.3 1622.67,-378.3 1622.67,-369.9 1622.67,-369.9 1622.67,-365.7 1626.88,-361.5 1631.08,-361.5 1631.08,-361.5 1750.92,-361.5 1750.92,-361.5 1755.12,-361.5 1759.33,-365.7 1759.33,-369.9 1759.33,-369.9 1759.33,-378.3 1759.33,-378.3 1759.33,-382.5 1755.12,-386.7 1750.92,-386.7"/>
<text xml:space="preserve" text-anchor="middle" x="1691" y="-371" font-family="Helvetica,sans-Serif" font-size="8.00">CORE&#45;agent&#45;handoff&#45;protocol &#45; M</text>
</g>
<!-- cool_ideas_CORE_auto_focus -->
<g id="node12" class="node">
<title>cool_ideas_CORE_auto_focus</title>
<path fill="#d4e8f7" stroke="black" d="M1854.67,-386.7C1854.67,-386.7 1781.33,-386.7 1781.33,-386.7 1777.12,-386.7 1772.92,-382.5 1772.92,-378.3 1772.92,-378.3 1772.92,-369.9 1772.92,-369.9 1772.92,-365.7 1777.12,-361.5 1781.33,-361.5 1781.33,-361.5 1854.67,-361.5 1854.67,-361.5 1858.88,-361.5 1863.08,-365.7 1863.08,-369.9 1863.08,-369.9 1863.08,-378.3 1863.08,-378.3 1863.08,-382.5 1858.88,-386.7 1854.67,-386.7"/>
<text xml:space="preserve" text-anchor="middle" x="1818" y="-371" font-family="Helvetica,sans-Serif" font-size="8.00">CORE&#45;auto&#45;focus &#45; L</text>
</g>
<!-- cool_ideas_CORE_capture_range -->
<g id="node13" class="node">
<title>cool_ideas_CORE_capture_range</title>
<path fill="#d4e8f7" stroke="black" d="M1972.8,-386.7C1972.8,-386.7 1885.2,-386.7 1885.2,-386.7 1881,-386.7 1876.8,-382.5 1876.8,-378.3 1876.8,-378.3 1876.8,-369.9 1876.8,-369.9 1876.8,-365.7 1881,-361.5 1885.2,-361.5 1885.2,-361.5 1972.8,-361.5 1972.8,-361.5 1977,-361.5 1981.2,-365.7 1981.2,-369.9 1981.2,-369.9 1981.2,-378.3 1981.2,-378.3 1981.2,-382.5 1977,-386.7 1972.8,-386.7"/>
<text xml:space="preserve" text-anchor="middle" x="1929" y="-371" font-family="Helvetica,sans-Serif" font-size="8.00">CORE&#45;capture&#45;range &#45; S</text>
</g>
<!-- cool_ideas_CORE_constructor_in_disguise_lint -->
<g id="node14" class="node">
<title>cool_ideas_CORE_constructor_in_disguise_lint</title>
<path fill="#d4e8f7" stroke="black" d="M2134.55,-386.7C2134.55,-386.7 2003.45,-386.7 2003.45,-386.7 1999.25,-386.7 1995.05,-382.5 1995.05,-378.3 1995.05,-378.3 1995.05,-369.9 1995.05,-369.9 1995.05,-365.7 1999.25,-361.5 2003.45,-361.5 2003.45,-361.5 2134.55,-361.5 2134.55,-361.5 2138.75,-361.5 2142.95,-365.7 2142.95,-369.9 2142.95,-369.9 2142.95,-378.3 2142.95,-378.3 2142.95,-382.5 2138.75,-386.7 2134.55,-386.7"/>
<text xml:space="preserve" text-anchor="middle" x="2069" y="-371" font-family="Helvetica,sans-Serif" font-size="8.00">CORE&#45;constructor&#45;in&#45;disguise&#45;lint &#45; M</text>
</g>
<!-- cool_ideas_CORE_context_budget_forecasting -->
<g id="node15" class="node">
<title>cool_ideas_CORE_context_budget_forecasting</title>
<path fill="#d4e8f7" stroke="black" d="M2298.67,-386.7C2298.67,-386.7 2165.33,-386.7 2165.33,-386.7 2161.12,-386.7 2156.93,-382.5 2156.93,-378.3 2156.93,-378.3 2156.93,-369.9 2156.93,-369.9 2156.93,-365.7 2161.12,-361.5 2165.33,-361.5 2165.33,-361.5 2298.67,-361.5 2298.67,-361.5 2302.88,-361.5 2307.07,-365.7 2307.07,-369.9 2307.07,-369.9 2307.07,-378.3 2307.07,-378.3 2307.07,-382.5 2302.88,-386.7 2298.67,-386.7"/>
<text xml:space="preserve" text-anchor="middle" x="2232" y="-371" font-family="Helvetica,sans-Serif" font-size="8.00">CORE&#45;context&#45;budget&#45;forecasting &#45; M</text>
</g>
<!-- cool_ideas_CORE_conversation_primer -->
<g id="node16" class="node">
<title>cool_ideas_CORE_conversation_primer</title>
<path fill="#d4e8f7" stroke="black" d="M2438.67,-386.7C2438.67,-386.7 2329.33,-386.7 2329.33,-386.7 2325.12,-386.7 2320.93,-382.5 2320.93,-378.3 2320.93,-378.3 2320.93,-369.9 2320.93,-369.9 2320.93,-365.7 2325.12,-361.5 2329.33,-361.5 2329.33,-361.5 2438.67,-361.5 2438.67,-361.5 2442.88,-361.5 2447.07,-365.7 2447.07,-369.9 2447.07,-369.9 2447.07,-378.3 2447.07,-378.3 2447.07,-382.5 2442.88,-386.7 2438.67,-386.7"/>
<text xml:space="preserve" text-anchor="middle" x="2384" y="-371" font-family="Helvetica,sans-Serif" font-size="8.00">CORE&#45;conversation&#45;primer &#45; M</text>
</g>
<!-- cool_ideas_CORE_cross_session_resume -->
<g id="node17" class="node">
<title>cool_ideas_CORE_cross_session_resume</title>
<path fill="#d4e8f7" stroke="black" d="M2584.3,-386.7C2584.3,-386.7 2469.7,-386.7 2469.7,-386.7 2465.5,-386.7 2461.3,-382.5 2461.3,-378.3 2461.3,-378.3 2461.3,-369.9 2461.3,-369.9 2461.3,-365.7 2465.5,-361.5 2469.7,-361.5 2469.7,-361.5 2584.3,-361.5 2584.3,-361.5 2588.5,-361.5 2592.7,-365.7 2592.7,-369.9 2592.7,-369.9 2592.7,-378.3 2592.7,-378.3 2592.7,-382.5 2588.5,-386.7 2584.3,-386.7"/>
<text xml:space="preserve" text-anchor="middle" x="2527" y="-371" font-family="Helvetica,sans-Serif" font-size="8.00">CORE&#45;cross&#45;session&#45;resume &#45; S</text>
</g>
<!-- cool_ideas_CORE_graft_as_teacher -->
<g id="node18" class="node">
<title>cool_ideas_CORE_graft_as_teacher</title>
<path fill="#d4e8f7" stroke="black" d="M2709.17,-386.7C2709.17,-386.7 2614.83,-386.7 2614.83,-386.7 2610.62,-386.7 2606.43,-382.5 2606.43,-378.3 2606.43,-378.3 2606.43,-369.9 2606.43,-369.9 2606.43,-365.7 2610.62,-361.5 2614.83,-361.5 2614.83,-361.5 2709.17,-361.5 2709.17,-361.5 2713.38,-361.5 2717.57,-365.7 2717.57,-369.9 2717.57,-369.9 2717.57,-378.3 2717.57,-378.3 2717.57,-382.5 2713.38,-386.7 2709.17,-386.7"/>
<text xml:space="preserve" text-anchor="middle" x="2662" y="-371" font-family="Helvetica,sans-Serif" font-size="8.00">CORE&#45;graft&#45;as&#45;teacher &#45; S</text>
</g>
<!-- cool_ideas_CORE_graft_teach_learning_receipts -->
<g id="node19" class="node">
<title>cool_ideas_CORE_graft_teach_learning_receipts</title>
<path fill="#d4e8f7" stroke="black" d="M2877.92,-386.7C2877.92,-386.7 2740.08,-386.7 2740.08,-386.7 2735.88,-386.7 2731.68,-382.5 2731.68,-378.3 2731.68,-378.3 2731.68,-369.9 2731.68,-369.9 2731.68,-365.7 2735.88,-361.5 2740.08,-361.5 2740.08,-361.5 2877.92,-361.5 2877.92,-361.5 2882.12,-361.5 2886.32,-365.7 2886.32,-369.9 2886.32,-369.9 2886.32,-378.3 2886.32,-378.3 2886.32,-382.5 2882.12,-386.7 2877.92,-386.7"/>
<text xml:space="preserve" text-anchor="middle" x="2809" y="-371" font-family="Helvetica,sans-Serif" font-size="8.00">CORE&#45;graft&#45;teach&#45;learning&#45;receipts &#45; S</text>
</g>
<!-- cool_ideas_CORE_graft_tool_client -->
<g id="node20" class="node">
<title>cool_ideas_CORE_graft_tool_client</title>
<path fill="#d4e8f7" stroke="black" d="M2999.67,-386.7C2999.67,-386.7 2908.33,-386.7 2908.33,-386.7 2904.12,-386.7 2899.93,-382.5 2899.93,-378.3 2899.93,-378.3 2899.93,-369.9 2899.93,-369.9 2899.93,-365.7 2904.12,-361.5 2908.33,-361.5 2908.33,-361.5 2999.67,-361.5 2999.67,-361.5 3003.88,-361.5 3008.07,-365.7 3008.07,-369.9 3008.07,-369.9 3008.07,-378.3 3008.07,-378.3 3008.07,-382.5 3003.88,-386.7 2999.67,-386.7"/>
<text xml:space="preserve" text-anchor="middle" x="2954" y="-371" font-family="Helvetica,sans-Serif" font-size="8.00">CORE&#45;graft&#45;tool&#45;client &#45; M</text>
</g>
<!-- cool_ideas_CORE_horizon_of_readability -->
<g id="node21" class="node">
<title>cool_ideas_CORE_horizon_of_readability</title>
<path fill="#d4e8f7" stroke="black" d="M3143.55,-386.7C3143.55,-386.7 3030.45,-386.7 3030.45,-386.7 3026.25,-386.7 3022.05,-382.5 3022.05,-378.3 3022.05,-378.3 3022.05,-369.9 3022.05,-369.9 3022.05,-365.7 3026.25,-361.5 3030.45,-361.5 3030.45,-361.5 3143.55,-361.5 3143.55,-361.5 3147.75,-361.5 3151.95,-365.7 3151.95,-369.9 3151.95,-369.9 3151.95,-378.3 3151.95,-378.3 3151.95,-382.5 3147.75,-386.7 3143.55,-386.7"/>
<text xml:space="preserve" text-anchor="middle" x="3087" y="-371" font-family="Helvetica,sans-Serif" font-size="8.00">CORE&#45;horizon&#45;of&#45;readability &#45; M</text>
</g>
<!-- cool_ideas_CORE_lagrangian_policy -->
<g id="node22" class="node">
<title>cool_ideas_CORE_lagrangian_policy</title>
<path fill="#d4e8f7" stroke="black" d="M3275.55,-386.7C3275.55,-386.7 3174.45,-386.7 3174.45,-386.7 3170.25,-386.7 3166.05,-382.5 3166.05,-378.3 3166.05,-378.3 3166.05,-369.9 3166.05,-369.9 3166.05,-365.7 3170.25,-361.5 3174.45,-361.5 3174.45,-361.5 3275.55,-361.5 3275.55,-361.5 3279.75,-361.5 3283.95,-365.7 3283.95,-369.9 3283.95,-369.9 3283.95,-378.3 3283.95,-378.3 3283.95,-382.5 3279.75,-386.7 3275.55,-386.7"/>
<text xml:space="preserve" text-anchor="middle" x="3225" y="-371" font-family="Helvetica,sans-Serif" font-size="8.00">CORE&#45;lagrangian&#45;policy &#45; XL</text>
</g>
<!-- cool_ideas_CORE_migrate_to_slice_first_reads -->
<g id="node23" class="node">
<title>cool_ideas_CORE_migrate_to_slice_first_reads</title>
<path fill="#d4e8f7" stroke="black" d="M10316.8,-313.25C10316.8,-313.25 10199.2,-313.25 10199.2,-313.25 10195,-313.25 10190.8,-309.05 10190.8,-304.85 10190.8,-304.85 10190.8,-296.45 10190.8,-296.45 10190.8,-292.25 10195,-288.05 10199.2,-288.05 10199.2,-288.05 10316.8,-288.05 10316.8,-288.05 10321,-288.05 10325.2,-292.25 10325.2,-296.45 10325.2,-296.45 10325.2,-304.85 10325.2,-304.85 10325.2,-309.05 10321,-313.25 10316.8,-313.25"/>
<text xml:space="preserve" text-anchor="middle" x="10258" y="-297.55" font-family="Helvetica,sans-Serif" font-size="8.00">CORE&#45;migrate&#45;to&#45;slice&#45;first&#45;reads</text>
</g>
<!-- cool_ideas_CORE_multi_agent_conflict_detection -->
<g id="node24" class="node">
<title>cool_ideas_CORE_multi_agent_conflict_detection</title>
<path fill="#d4e8f7" stroke="black" d="M3443.92,-386.7C3443.92,-386.7 3306.08,-386.7 3306.08,-386.7 3301.88,-386.7 3297.68,-382.5 3297.68,-378.3 3297.68,-378.3 3297.68,-369.9 3297.68,-369.9 3297.68,-365.7 3301.88,-361.5 3306.08,-361.5 3306.08,-361.5 3443.92,-361.5 3443.92,-361.5 3448.12,-361.5 3452.32,-365.7 3452.32,-369.9 3452.32,-369.9 3452.32,-378.3 3452.32,-378.3 3452.32,-382.5 3448.12,-386.7 3443.92,-386.7"/>
<text xml:space="preserve" text-anchor="middle" x="3375" y="-371" font-family="Helvetica,sans-Serif" font-size="8.00">CORE&#45;multi&#45;agent&#45;conflict&#45;detection &#45; L</text>
</g>
<!-- cool_ideas_CORE_policy_playground -->
<g id="node25" class="node">
<title>cool_ideas_CORE_policy_playground</title>
<path fill="#d4e8f7" stroke="black" d="M3573.42,-386.7C3573.42,-386.7 3474.58,-386.7 3474.58,-386.7 3470.38,-386.7 3466.18,-382.5 3466.18,-378.3 3466.18,-378.3 3466.18,-369.9 3466.18,-369.9 3466.18,-365.7 3470.38,-361.5 3474.58,-361.5 3474.58,-361.5 3573.42,-361.5 3573.42,-361.5 3577.62,-361.5 3581.82,-365.7 3581.82,-369.9 3581.82,-369.9 3581.82,-378.3 3581.82,-378.3 3581.82,-382.5 3577.62,-386.7 3573.42,-386.7"/>
<text xml:space="preserve" text-anchor="middle" x="3524" y="-371" font-family="Helvetica,sans-Serif" font-size="8.00">CORE&#45;policy&#45;playground &#45; S</text>
</g>
<!-- cool_ideas_CORE_policy_profiles -->
<g id="node26" class="node">
<title>cool_ideas_CORE_policy_profiles</title>
<path fill="#d4e8f7" stroke="black" d="M3690.05,-386.7C3690.05,-386.7 3603.95,-386.7 3603.95,-386.7 3599.75,-386.7 3595.55,-382.5 3595.55,-378.3 3595.55,-378.3 3595.55,-369.9 3595.55,-369.9 3595.55,-365.7 3599.75,-361.5 3603.95,-361.5 3603.95,-361.5 3690.05,-361.5 3690.05,-361.5 3694.25,-361.5 3698.45,-365.7 3698.45,-369.9 3698.45,-369.9 3698.45,-378.3 3698.45,-378.3 3698.45,-382.5 3694.25,-386.7 3690.05,-386.7"/>
<text xml:space="preserve" text-anchor="middle" x="3647" y="-371" font-family="Helvetica,sans-Serif" font-size="8.00">CORE&#45;policy&#45;profiles &#45; M</text>
</g>
<!-- cool_ideas_CORE_self_tuning_governor -->
<g id="node27" class="node">
<title>cool_ideas_CORE_self_tuning_governor</title>
<path fill="#d4e8f7" stroke="black" d="M3831.05,-386.7C3831.05,-386.7 3720.95,-386.7 3720.95,-386.7 3716.75,-386.7 3712.55,-382.5 3712.55,-378.3 3712.55,-378.3 3712.55,-369.9 3712.55,-369.9 3712.55,-365.7 3716.75,-361.5 3720.95,-361.5 3720.95,-361.5 3831.05,-361.5 3831.05,-361.5 3835.25,-361.5 3839.45,-365.7 3839.45,-369.9 3839.45,-369.9 3839.45,-378.3 3839.45,-378.3 3839.45,-382.5 3835.25,-386.7 3831.05,-386.7"/>
<text xml:space="preserve" text-anchor="middle" x="3776" y="-371" font-family="Helvetica,sans-Serif" font-size="8.00">CORE&#45;self&#45;tuning&#45;governor &#45; M</text>
</g>
<!-- cool_ideas_CORE_session_knowledge_map -->
<g id="node28" class="node">
<title>cool_ideas_CORE_session_knowledge_map</title>
<path fill="#d4e8f7" stroke="black" d="M3984.42,-386.7C3984.42,-386.7 3861.58,-386.7 3861.58,-386.7 3857.38,-386.7 3853.18,-382.5 3853.18,-378.3 3853.18,-378.3 3853.18,-369.9 3853.18,-369.9 3853.18,-365.7 3857.38,-361.5 3861.58,-361.5 3861.58,-361.5 3984.42,-361.5 3984.42,-361.5 3988.62,-361.5 3992.82,-365.7 3992.82,-369.9 3992.82,-369.9 3992.82,-378.3 3992.82,-378.3 3992.82,-382.5 3988.62,-386.7 3984.42,-386.7"/>
<text xml:space="preserve" text-anchor="middle" x="3923" y="-371" font-family="Helvetica,sans-Serif" font-size="8.00">CORE&#45;session&#45;knowledge&#45;map &#45; S</text>
</g>
<!-- cool_ideas_CORE_speculative_read_cost -->
<g id="node29" class="node">
<title>cool_ideas_CORE_speculative_read_cost</title>
<path fill="#d4e8f7" stroke="black" d="M4127.18,-386.7C4127.18,-386.7 4014.83,-386.7 4014.83,-386.7 4010.62,-386.7 4006.43,-382.5 4006.43,-378.3 4006.43,-378.3 4006.43,-369.9 4006.43,-369.9 4006.43,-365.7 4010.62,-361.5 4014.83,-361.5 4014.83,-361.5 4127.18,-361.5 4127.18,-361.5 4131.38,-361.5 4135.57,-365.7 4135.57,-369.9 4135.57,-369.9 4135.57,-378.3 4135.57,-378.3 4135.57,-382.5 4131.38,-386.7 4127.18,-386.7"/>
<text xml:space="preserve" text-anchor="middle" x="4071" y="-371" font-family="Helvetica,sans-Serif" font-size="8.00">CORE&#45;speculative&#45;read&#45;cost &#45; S</text>
</g>
<!-- cool_ideas_CORE_structural_session_replay -->
<g id="node30" class="node">
<title>cool_ideas_CORE_structural_session_replay</title>
<path fill="#d4e8f7" stroke="black" d="M4283.55,-386.7C4283.55,-386.7 4158.45,-386.7 4158.45,-386.7 4154.25,-386.7 4150.05,-382.5 4150.05,-378.3 4150.05,-378.3 4150.05,-369.9 4150.05,-369.9 4150.05,-365.7 4154.25,-361.5 4158.45,-361.5 4158.45,-361.5 4283.55,-361.5 4283.55,-361.5 4287.75,-361.5 4291.95,-365.7 4291.95,-369.9 4291.95,-369.9 4291.95,-378.3 4291.95,-378.3 4291.95,-382.5 4287.75,-386.7 4283.55,-386.7"/>
<text xml:space="preserve" text-anchor="middle" x="4221" y="-371" font-family="Helvetica,sans-Serif" font-size="8.00">CORE&#45;structural&#45;session&#45;replay &#45; M</text>
</g>
<!-- cool_ideas_CORE_wire_primitives_into_runtime -->
<g id="node31" class="node">
<title>cool_ideas_CORE_wire_primitives_into_runtime</title>
<path fill="#d4e8f7" stroke="black" d="M4449.43,-386.7C4449.43,-386.7 4314.57,-386.7 4314.57,-386.7 4310.38,-386.7 4306.18,-382.5 4306.18,-378.3 4306.18,-378.3 4306.18,-369.9 4306.18,-369.9 4306.18,-365.7 4310.38,-361.5 4314.57,-361.5 4314.57,-361.5 4449.43,-361.5 4449.43,-361.5 4453.62,-361.5 4457.82,-365.7 4457.82,-369.9 4457.82,-369.9 4457.82,-378.3 4457.82,-378.3 4457.82,-382.5 4453.62,-386.7 4449.43,-386.7"/>
<text xml:space="preserve" text-anchor="middle" x="4382" y="-371" font-family="Helvetica,sans-Serif" font-size="8.00">CORE&#45;wire&#45;primitives&#45;into&#45;runtime &#45; M</text>
</g>
<!-- cool_ideas_monitor_tick_ceiling_tracking -->
<g id="node32" class="node">
<title>cool_ideas_monitor_tick_ceiling_tracking</title>
<path fill="#d4e8f7" stroke="black" d="M4587.55,-386.7C4587.55,-386.7 4480.45,-386.7 4480.45,-386.7 4476.25,-386.7 4472.05,-382.5 4472.05,-378.3 4472.05,-378.3 4472.05,-369.9 4472.05,-369.9 4472.05,-365.7 4476.25,-361.5 4480.45,-361.5 4480.45,-361.5 4587.55,-361.5 4587.55,-361.5 4591.75,-361.5 4595.95,-365.7 4595.95,-369.9 4595.95,-369.9 4595.95,-378.3 4595.95,-378.3 4595.95,-382.5 4591.75,-386.7 4587.55,-386.7"/>
<text xml:space="preserve" text-anchor="middle" x="4534" y="-371" font-family="Helvetica,sans-Serif" font-size="8.00">monitor&#45;tick&#45;ceiling&#45;tracking &#45; S</text>
</g>
<!-- cool_ideas_WARP_background_indexing -->
<g id="node50" class="node">
<title>cool_ideas_WARP_background_indexing</title>
<path fill="#d4e8f7" stroke="black" d="M4590.55,-313.25C4590.55,-313.25 4477.45,-313.25 4477.45,-313.25 4473.25,-313.25 4469.05,-309.05 4469.05,-304.85 4469.05,-304.85 4469.05,-296.45 4469.05,-296.45 4469.05,-292.25 4473.25,-288.05 4477.45,-288.05 4477.45,-288.05 4590.55,-288.05 4590.55,-288.05 4594.75,-288.05 4598.95,-292.25 4598.95,-296.45 4598.95,-296.45 4598.95,-304.85 4598.95,-304.85 4598.95,-309.05 4594.75,-313.25 4590.55,-313.25"/>
<text xml:space="preserve" text-anchor="middle" x="4534" y="-297.55" font-family="Helvetica,sans-Serif" font-size="8.00">WARP&#45;background&#45;indexing &#45; M</text>
</g>
<!-- cool_ideas_monitor_tick_ceiling_tracking&#45;&gt;cool_ideas_WARP_background_indexing -->
<g id="edge1" class="edge">
<title>cool_ideas_monitor_tick_ceiling_tracking&#45;&gt;cool_ideas_WARP_background_indexing</title>
<path fill="none" stroke="#666666" d="M4534,-361.3C4534,-350.1 4534,-333.08 4534,-320.08"/>
<polygon fill="#666666" stroke="#666666" points="4535.75,-320.22 4534,-315.22 4532.25,-320.22 4535.75,-320.22"/>
<text xml:space="preserve" text-anchor="middle" x="4565.5" y="-334.85" font-family="Helvetica,sans-Serif" font-size="7.00">blocked_by/blocking</text>
</g>
<!-- cool_ideas_SURFACE_active_causal_workspace_status -->
<g id="node33" class="node">
<title>cool_ideas_SURFACE_active_causal_workspace_status</title>
<path fill="#d4e8f7" stroke="black" d="M4782.05,-386.7C4782.05,-386.7 4617.95,-386.7 4617.95,-386.7 4613.75,-386.7 4609.55,-382.5 4609.55,-378.3 4609.55,-378.3 4609.55,-369.9 4609.55,-369.9 4609.55,-365.7 4613.75,-361.5 4617.95,-361.5 4617.95,-361.5 4782.05,-361.5 4782.05,-361.5 4786.25,-361.5 4790.45,-365.7 4790.45,-369.9 4790.45,-369.9 4790.45,-378.3 4790.45,-378.3 4790.45,-382.5 4786.25,-386.7 4782.05,-386.7"/>
<text xml:space="preserve" text-anchor="middle" x="4700" y="-371" font-family="Helvetica,sans-Serif" font-size="8.00">SURFACE&#45;active&#45;causal&#45;workspace&#45;status &#45; M</text>
</g>
<!-- cool_ideas_SURFACE_ide_native_graft_integration -->
<g id="node39" class="node">
<title>cool_ideas_SURFACE_ide_native_graft_integration</title>
<path fill="#d4e8f7" stroke="black" d="M4775.3,-313.25C4775.3,-313.25 4624.7,-313.25 4624.7,-313.25 4620.5,-313.25 4616.3,-309.05 4616.3,-304.85 4616.3,-304.85 4616.3,-296.45 4616.3,-296.45 4616.3,-292.25 4620.5,-288.05 4624.7,-288.05 4624.7,-288.05 4775.3,-288.05 4775.3,-288.05 4779.5,-288.05 4783.7,-292.25 4783.7,-296.45 4783.7,-296.45 4783.7,-304.85 4783.7,-304.85 4783.7,-309.05 4779.5,-313.25 4775.3,-313.25"/>
<text xml:space="preserve" text-anchor="middle" x="4700" y="-297.55" font-family="Helvetica,sans-Serif" font-size="8.00">SURFACE&#45;ide&#45;native&#45;graft&#45;integration &#45; XL</text>
</g>
<!-- cool_ideas_SURFACE_active_causal_workspace_status&#45;&gt;cool_ideas_SURFACE_ide_native_graft_integration -->
<g id="edge2" class="edge">
<title>cool_ideas_SURFACE_active_causal_workspace_status&#45;&gt;cool_ideas_SURFACE_ide_native_graft_integration</title>
<path fill="none" stroke="#666666" d="M4700,-361.3C4700,-350.1 4700,-333.08 4700,-320.08"/>
<polygon fill="#666666" stroke="#666666" points="4701.75,-320.22 4700,-315.22 4698.25,-320.22 4701.75,-320.22"/>
<text xml:space="preserve" text-anchor="middle" x="4731.5" y="-334.85" font-family="Helvetica,sans-Serif" font-size="7.00">blocked_by/blocking</text>
</g>
<!-- cool_ideas_SURFACE_attach_to_existing_causal_session -->
<g id="node34" class="node">
<title>cool_ideas_SURFACE_attach_to_existing_causal_session</title>
<path fill="#d4e8f7" stroke="black" d="M4981.3,-386.7C4981.3,-386.7 4812.7,-386.7 4812.7,-386.7 4808.5,-386.7 4804.3,-382.5 4804.3,-378.3 4804.3,-378.3 4804.3,-369.9 4804.3,-369.9 4804.3,-365.7 4808.5,-361.5 4812.7,-361.5 4812.7,-361.5 4981.3,-361.5 4981.3,-361.5 4985.5,-361.5 4989.7,-365.7 4989.7,-369.9 4989.7,-369.9 4989.7,-378.3 4989.7,-378.3 4989.7,-382.5 4985.5,-386.7 4981.3,-386.7"/>
<text xml:space="preserve" text-anchor="middle" x="4897" y="-371" font-family="Helvetica,sans-Serif" font-size="8.00">SURFACE&#45;attach&#45;to&#45;existing&#45;causal&#45;session &#45; M</text>
</g>
<!-- cool_ideas_SURFACE_bijou_daemon_control_plane_actions -->
<g id="node35" class="node">
<title>cool_ideas_SURFACE_bijou_daemon_control_plane_actions</title>
<path fill="#d4e8f7" stroke="black" d="M5189.43,-386.7C5189.43,-386.7 5012.57,-386.7 5012.57,-386.7 5008.38,-386.7 5004.18,-382.5 5004.18,-378.3 5004.18,-378.3 5004.18,-369.9 5004.18,-369.9 5004.18,-365.7 5008.38,-361.5 5012.57,-361.5 5012.57,-361.5 5189.43,-361.5 5189.43,-361.5 5193.62,-361.5 5197.82,-365.7 5197.82,-369.9 5197.82,-369.9 5197.82,-378.3 5197.82,-378.3 5197.82,-382.5 5193.62,-386.7 5189.43,-386.7"/>
<text xml:space="preserve" text-anchor="middle" x="5101" y="-371" font-family="Helvetica,sans-Serif" font-size="8.00">SURFACE&#45;bijou&#45;daemon&#45;control&#45;plane&#45;actions &#45; L</text>
</g>
<!-- cool_ideas_SURFACE_bijou_daemon_status_live_refresh -->
<g id="node36" class="node">
<title>cool_ideas_SURFACE_bijou_daemon_status_live_refresh</title>
<path fill="#d4e8f7" stroke="black" d="M5389.3,-386.7C5389.3,-386.7 5220.7,-386.7 5220.7,-386.7 5216.5,-386.7 5212.3,-382.5 5212.3,-378.3 5212.3,-378.3 5212.3,-369.9 5212.3,-369.9 5212.3,-365.7 5216.5,-361.5 5220.7,-361.5 5220.7,-361.5 5389.3,-361.5 5389.3,-361.5 5393.5,-361.5 5397.7,-365.7 5397.7,-369.9 5397.7,-369.9 5397.7,-378.3 5397.7,-378.3 5397.7,-382.5 5393.5,-386.7 5389.3,-386.7"/>
<text xml:space="preserve" text-anchor="middle" x="5305" y="-371" font-family="Helvetica,sans-Serif" font-size="8.00">SURFACE&#45;bijou&#45;daemon&#45;status&#45;live&#45;refresh &#45; M</text>
</g>
<!-- cool_ideas_SURFACE_git_graft_enhance_expanded_git_subcommands -->
<g id="node37" class="node">
<title>cool_ideas_SURFACE_git_graft_enhance_expanded_git_subcommands</title>
<path fill="#d4e8f7" stroke="black" d="M5624.3,-386.7C5624.3,-386.7 5419.7,-386.7 5419.7,-386.7 5415.5,-386.7 5411.3,-382.5 5411.3,-378.3 5411.3,-378.3 5411.3,-369.9 5411.3,-369.9 5411.3,-365.7 5415.5,-361.5 5419.7,-361.5 5419.7,-361.5 5624.3,-361.5 5624.3,-361.5 5628.5,-361.5 5632.7,-365.7 5632.7,-369.9 5632.7,-369.9 5632.7,-378.3 5632.7,-378.3 5632.7,-382.5 5628.5,-386.7 5624.3,-386.7"/>
<text xml:space="preserve" text-anchor="middle" x="5522" y="-371" font-family="Helvetica,sans-Serif" font-size="8.00">SURFACE&#45;git&#45;graft&#45;enhance&#45;expanded&#45;git&#45;subcommands</text>
</g>
<!-- cool_ideas_SURFACE_git_graft_enhance_provenance_hints -->
<g id="node38" class="node">
<title>cool_ideas_SURFACE_git_graft_enhance_provenance_hints</title>
<path fill="#d4e8f7" stroke="black" d="M5820.43,-386.7C5820.43,-386.7 5655.57,-386.7 5655.57,-386.7 5651.38,-386.7 5647.18,-382.5 5647.18,-378.3 5647.18,-378.3 5647.18,-369.9 5647.18,-369.9 5647.18,-365.7 5651.38,-361.5 5655.57,-361.5 5655.57,-361.5 5820.43,-361.5 5820.43,-361.5 5824.62,-361.5 5828.82,-365.7 5828.82,-369.9 5828.82,-369.9 5828.82,-378.3 5828.82,-378.3 5828.82,-382.5 5824.62,-386.7 5820.43,-386.7"/>
<text xml:space="preserve" text-anchor="middle" x="5738" y="-371" font-family="Helvetica,sans-Serif" font-size="8.00">SURFACE&#45;git&#45;graft&#45;enhance&#45;provenance&#45;hints</text>
</g>
<!-- cool_ideas_SURFACE_init_dry_run -->
<g id="node40" class="node">
<title>cool_ideas_SURFACE_init_dry_run</title>
<path fill="#d4e8f7" stroke="black" d="M5942.3,-386.7C5942.3,-386.7 5851.7,-386.7 5851.7,-386.7 5847.5,-386.7 5843.3,-382.5 5843.3,-378.3 5843.3,-378.3 5843.3,-369.9 5843.3,-369.9 5843.3,-365.7 5847.5,-361.5 5851.7,-361.5 5851.7,-361.5 5942.3,-361.5 5942.3,-361.5 5946.5,-361.5 5950.7,-365.7 5950.7,-369.9 5950.7,-369.9 5950.7,-378.3 5950.7,-378.3 5950.7,-382.5 5946.5,-386.7 5942.3,-386.7"/>
<text xml:space="preserve" text-anchor="middle" x="5897" y="-371" font-family="Helvetica,sans-Serif" font-size="8.00">SURFACE&#45;init&#45;dry&#45;run &#45; S</text>
</g>
<!-- cool_ideas_SURFACE_local_history_dag_render_mode_and_count_legend -->
<g id="node41" class="node">
<title>cool_ideas_SURFACE_local_history_dag_render_mode_and_count_legend</title>
<path fill="#d4e8f7" stroke="black" d="M6199.18,-386.7C6199.18,-386.7 5972.82,-386.7 5972.82,-386.7 5968.62,-386.7 5964.43,-382.5 5964.43,-378.3 5964.43,-378.3 5964.43,-369.9 5964.43,-369.9 5964.43,-365.7 5968.62,-361.5 5972.82,-361.5 5972.82,-361.5 6199.18,-361.5 6199.18,-361.5 6203.38,-361.5 6207.57,-365.7 6207.57,-369.9 6207.57,-369.9 6207.57,-378.3 6207.57,-378.3 6207.57,-382.5 6203.38,-386.7 6199.18,-386.7"/>
<text xml:space="preserve" text-anchor="middle" x="6086" y="-371" font-family="Helvetica,sans-Serif" font-size="8.00">SURFACE&#45;local&#45;history&#45;dag&#45;render&#45;mode&#45;and&#45;count&#45;legend &#45; S</text>
</g>
<!-- cool_ideas_SURFACE_non_codex_instruction_bootstrap_parity -->
<g id="node42" class="node">
<title>cool_ideas_SURFACE_non_codex_instruction_bootstrap_parity</title>
<path fill="#d4e8f7" stroke="black" d="M6418.43,-386.7C6418.43,-386.7 6229.57,-386.7 6229.57,-386.7 6225.38,-386.7 6221.18,-382.5 6221.18,-378.3 6221.18,-378.3 6221.18,-369.9 6221.18,-369.9 6221.18,-365.7 6225.38,-361.5 6229.57,-361.5 6229.57,-361.5 6418.43,-361.5 6418.43,-361.5 6422.62,-361.5 6426.82,-365.7 6426.82,-369.9 6426.82,-369.9 6426.82,-378.3 6426.82,-378.3 6426.82,-382.5 6422.62,-386.7 6418.43,-386.7"/>
<text xml:space="preserve" text-anchor="middle" x="6324" y="-371" font-family="Helvetica,sans-Serif" font-size="8.00">SURFACE&#45;non&#45;codex&#45;instruction&#45;bootstrap&#45;parity &#45; M</text>
</g>
<!-- cool_ideas_SURFACE_offer_rename_refactor -->
<g id="node43" class="node">
<title>cool_ideas_SURFACE_offer_rename_refactor</title>
<path fill="#d4e8f7" stroke="black" d="M6578.43,-386.7C6578.43,-386.7 6449.57,-386.7 6449.57,-386.7 6445.38,-386.7 6441.18,-382.5 6441.18,-378.3 6441.18,-378.3 6441.18,-369.9 6441.18,-369.9 6441.18,-365.7 6445.38,-361.5 6449.57,-361.5 6449.57,-361.5 6578.43,-361.5 6578.43,-361.5 6582.62,-361.5 6586.82,-365.7 6586.82,-369.9 6586.82,-369.9 6586.82,-378.3 6586.82,-378.3 6586.82,-382.5 6582.62,-386.7 6578.43,-386.7"/>
<text xml:space="preserve" text-anchor="middle" x="6514" y="-371" font-family="Helvetica,sans-Serif" font-size="8.00">SURFACE&#45;offer&#45;rename&#45;refactor &#45; L</text>
</g>
<!-- cool_ideas_SURFACE_pr_feedback_resolution_ledger -->
<g id="node44" class="node">
<title>cool_ideas_SURFACE_pr_feedback_resolution_ledger</title>
<path fill="#d4e8f7" stroke="black" d="M6768.43,-386.7C6768.43,-386.7 6609.57,-386.7 6609.57,-386.7 6605.38,-386.7 6601.18,-382.5 6601.18,-378.3 6601.18,-378.3 6601.18,-369.9 6601.18,-369.9 6601.18,-365.7 6605.38,-361.5 6609.57,-361.5 6609.57,-361.5 6768.43,-361.5 6768.43,-361.5 6772.62,-361.5 6776.82,-365.7 6776.82,-369.9 6776.82,-369.9 6776.82,-378.3 6776.82,-378.3 6776.82,-382.5 6772.62,-386.7 6768.43,-386.7"/>
<text xml:space="preserve" text-anchor="middle" x="6689" y="-371" font-family="Helvetica,sans-Serif" font-size="8.00">SURFACE&#45;pr&#45;feedback&#45;resolution&#45;ledger &#45; M</text>
</g>
<!-- cool_ideas_SURFACE_terminal_activity_browser_tui -->
<g id="node45" class="node">
<title>cool_ideas_SURFACE_terminal_activity_browser_tui</title>
<path fill="#d4e8f7" stroke="black" d="M6948.55,-386.7C6948.55,-386.7 6799.45,-386.7 6799.45,-386.7 6795.25,-386.7 6791.05,-382.5 6791.05,-378.3 6791.05,-378.3 6791.05,-369.9 6791.05,-369.9 6791.05,-365.7 6795.25,-361.5 6799.45,-361.5 6799.45,-361.5 6948.55,-361.5 6948.55,-361.5 6952.75,-361.5 6956.95,-365.7 6956.95,-369.9 6956.95,-369.9 6956.95,-378.3 6956.95,-378.3 6956.95,-382.5 6952.75,-386.7 6948.55,-386.7"/>
<text xml:space="preserve" text-anchor="middle" x="6874" y="-371" font-family="Helvetica,sans-Serif" font-size="8.00">SURFACE&#45;terminal&#45;activity&#45;browser&#45;tui &#45; L</text>
</g>
<!-- cool_ideas_traverse_plus_query_hydration_helper -->
<g id="node46" class="node">
<title>cool_ideas_traverse_plus_query_hydration_helper</title>
<path fill="#d4e8f7" stroke="black" d="M7120.8,-386.7C7120.8,-386.7 6979.2,-386.7 6979.2,-386.7 6975,-386.7 6970.8,-382.5 6970.8,-378.3 6970.8,-378.3 6970.8,-369.9 6970.8,-369.9 6970.8,-365.7 6975,-361.5 6979.2,-361.5 6979.2,-361.5 7120.8,-361.5 7120.8,-361.5 7125,-361.5 7129.2,-365.7 7129.2,-369.9 7129.2,-369.9 7129.2,-378.3 7129.2,-378.3 7129.2,-382.5 7125,-386.7 7120.8,-386.7"/>
<text xml:space="preserve" text-anchor="middle" x="7050" y="-371" font-family="Helvetica,sans-Serif" font-size="8.00">traverse&#45;plus&#45;query&#45;hydration&#45;helper &#45; S</text>
</g>
<!-- cool_ideas_WARP_adaptive_projection_selection -->
<g id="node47" class="node">
<title>cool_ideas_WARP_adaptive_projection_selection</title>
<path fill="#d4e8f7" stroke="black" d="M7289.93,-386.7C7289.93,-386.7 7152.07,-386.7 7152.07,-386.7 7147.88,-386.7 7143.68,-382.5 7143.68,-378.3 7143.68,-378.3 7143.68,-369.9 7143.68,-369.9 7143.68,-365.7 7147.88,-361.5 7152.07,-361.5 7152.07,-361.5 7289.93,-361.5 7289.93,-361.5 7294.12,-361.5 7298.32,-365.7 7298.32,-369.9 7298.32,-369.9 7298.32,-378.3 7298.32,-378.3 7298.32,-382.5 7294.12,-386.7 7289.93,-386.7"/>
<text xml:space="preserve" text-anchor="middle" x="7221" y="-371" font-family="Helvetica,sans-Serif" font-size="8.00">WARP&#45;adaptive&#45;projection&#45;selection &#45; L</text>
</g>
<!-- cool_ideas_WARP_agent_action_provenance -->
<g id="node48" class="node">
<title>cool_ideas_WARP_agent_action_provenance</title>
<path fill="#d4e8f7" stroke="black" d="M7451.55,-386.7C7451.55,-386.7 7320.45,-386.7 7320.45,-386.7 7316.25,-386.7 7312.05,-382.5 7312.05,-378.3 7312.05,-378.3 7312.05,-369.9 7312.05,-369.9 7312.05,-365.7 7316.25,-361.5 7320.45,-361.5 7320.45,-361.5 7451.55,-361.5 7451.55,-361.5 7455.75,-361.5 7459.95,-365.7 7459.95,-369.9 7459.95,-369.9 7459.95,-378.3 7459.95,-378.3 7459.95,-382.5 7455.75,-386.7 7451.55,-386.7"/>
<text xml:space="preserve" text-anchor="middle" x="7386" y="-371" font-family="Helvetica,sans-Serif" font-size="8.00">WARP&#45;agent&#45;action&#45;provenance &#45; XL</text>
</g>
<!-- cool_ideas_WARP_agent_action_provenance&#45;&gt;cool_ideas_CI_001_causal_collapse_visualizer -->
<g id="edge3" class="edge">
<title>cool_ideas_WARP_agent_action_provenance&#45;&gt;cool_ideas_CI_001_causal_collapse_visualizer</title>
<path fill="none" stroke="#666666" d="M7411.81,-361.01C7424.04,-355.21 7438.83,-348.1 7452,-341.5 7467.99,-333.48 7485.7,-324.22 7500,-316.64"/>
<polygon fill="#666666" stroke="#666666" points="7500.57,-318.32 7504.16,-314.43 7498.92,-315.23 7500.57,-318.32"/>
<text xml:space="preserve" text-anchor="middle" x="7498.14" y="-334.85" font-family="Helvetica,sans-Serif" font-size="7.00">blocked_by/blocking</text>
</g>
<!-- cool_ideas_WARP_causal_write_tracking -->
<g id="node53" class="node">
<title>cool_ideas_WARP_causal_write_tracking</title>
<path fill="#d4e8f7" stroke="black" d="M7144.05,-313.25C7144.05,-313.25 7033.95,-313.25 7033.95,-313.25 7029.75,-313.25 7025.55,-309.05 7025.55,-304.85 7025.55,-304.85 7025.55,-296.45 7025.55,-296.45 7025.55,-292.25 7029.75,-288.05 7033.95,-288.05 7033.95,-288.05 7144.05,-288.05 7144.05,-288.05 7148.25,-288.05 7152.45,-292.25 7152.45,-296.45 7152.45,-296.45 7152.45,-304.85 7152.45,-304.85 7152.45,-309.05 7148.25,-313.25 7144.05,-313.25"/>
<text xml:space="preserve" text-anchor="middle" x="7089" y="-297.55" font-family="Helvetica,sans-Serif" font-size="8.00">WARP&#45;causal&#45;write&#45;tracking &#45; L</text>
</g>
<!-- cool_ideas_WARP_agent_action_provenance&#45;&gt;cool_ideas_WARP_causal_write_tracking -->
<g id="edge4" class="edge">
<title>cool_ideas_WARP_agent_action_provenance&#45;&gt;cool_ideas_WARP_causal_write_tracking</title>
<path fill="none" stroke="#666666" d="M7338.13,-361.03C7327.27,-358.43 7315.76,-355.78 7305,-353.5 7275.83,-347.32 7268.1,-348 7239,-341.5 7204.63,-333.82 7166.25,-323.6 7136.92,-315.43"/>
<polygon fill="#666666" stroke="#666666" points="7137.55,-313.78 7132.26,-314.12 7136.61,-317.16 7137.55,-313.78"/>
<text xml:space="preserve" text-anchor="middle" x="7270.5" y="-334.85" font-family="Helvetica,sans-Serif" font-size="7.00">blocked_by/blocking</text>
</g>
<!-- cool_ideas_WARP_intent_and_decision_events -->
<g id="node63" class="node">
<title>cool_ideas_WARP_intent_and_decision_events</title>
<path fill="#d4e8f7" stroke="black" d="M7307.3,-313.25C7307.3,-313.25 7174.7,-313.25 7174.7,-313.25 7170.5,-313.25 7166.3,-309.05 7166.3,-304.85 7166.3,-304.85 7166.3,-296.45 7166.3,-296.45 7166.3,-292.25 7170.5,-288.05 7174.7,-288.05 7174.7,-288.05 7307.3,-288.05 7307.3,-288.05 7311.5,-288.05 7315.7,-292.25 7315.7,-296.45 7315.7,-296.45 7315.7,-304.85 7315.7,-304.85 7315.7,-309.05 7311.5,-313.25 7307.3,-313.25"/>
<text xml:space="preserve" text-anchor="middle" x="7241" y="-297.55" font-family="Helvetica,sans-Serif" font-size="8.00">WARP&#45;intent&#45;and&#45;decision&#45;events &#45; M</text>
</g>
<!-- cool_ideas_WARP_agent_action_provenance&#45;&gt;cool_ideas_WARP_intent_and_decision_events -->
<g id="edge5" class="edge">
<title>cool_ideas_WARP_agent_action_provenance&#45;&gt;cool_ideas_WARP_intent_and_decision_events</title>
<path fill="none" stroke="#666666" d="M7360.55,-361.07C7348.27,-355.22 7333.34,-348.06 7320,-341.5 7303.45,-333.36 7285.05,-324.09 7270.17,-316.54"/>
<polygon fill="#666666" stroke="#666666" points="7271.04,-315.03 7265.79,-314.32 7269.46,-318.15 7271.04,-315.03"/>
<text xml:space="preserve" text-anchor="middle" x="7351.5" y="-334.85" font-family="Helvetica,sans-Serif" font-size="7.00">blocked_by/blocking</text>
</g>
<!-- cool_ideas_WARP_provenance_dag -->
<g id="node68" class="node">
<title>cool_ideas_WARP_provenance_dag</title>
<path fill="#d4e8f7" stroke="black" d="M7433.55,-313.25C7433.55,-313.25 7338.45,-313.25 7338.45,-313.25 7334.25,-313.25 7330.05,-309.05 7330.05,-304.85 7330.05,-304.85 7330.05,-296.45 7330.05,-296.45 7330.05,-292.25 7334.25,-288.05 7338.45,-288.05 7338.45,-288.05 7433.55,-288.05 7433.55,-288.05 7437.75,-288.05 7441.95,-292.25 7441.95,-296.45 7441.95,-296.45 7441.95,-304.85 7441.95,-304.85 7441.95,-309.05 7437.75,-313.25 7433.55,-313.25"/>
<text xml:space="preserve" text-anchor="middle" x="7386" y="-297.55" font-family="Helvetica,sans-Serif" font-size="8.00">WARP&#45;provenance&#45;dag &#45; L</text>
</g>
<!-- cool_ideas_WARP_agent_action_provenance&#45;&gt;cool_ideas_WARP_provenance_dag -->
<g id="edge6" class="edge">
<title>cool_ideas_WARP_agent_action_provenance&#45;&gt;cool_ideas_WARP_provenance_dag</title>
<path fill="none" stroke="#666666" d="M7386,-361.3C7386,-350.1 7386,-333.08 7386,-320.08"/>
<polygon fill="#666666" stroke="#666666" points="7387.75,-320.22 7386,-315.22 7384.25,-320.22 7387.75,-320.22"/>
<text xml:space="preserve" text-anchor="middle" x="7417.5" y="-334.85" font-family="Helvetica,sans-Serif" font-size="7.00">blocked_by/blocking</text>
</g>
<!-- cool_ideas_WARP_auto_breaking_change_detection -->
<g id="node49" class="node">
<title>cool_ideas_WARP_auto_breaking_change_detection</title>
<path fill="#d4e8f7" stroke="black" d="M10498.3,-313.25C10498.3,-313.25 10347.7,-313.25 10347.7,-313.25 10343.5,-313.25 10339.3,-309.05 10339.3,-304.85 10339.3,-304.85 10339.3,-296.45 10339.3,-296.45 10339.3,-292.25 10343.5,-288.05 10347.7,-288.05 10347.7,-288.05 10498.3,-288.05 10498.3,-288.05 10502.5,-288.05 10506.7,-292.25 10506.7,-296.45 10506.7,-296.45 10506.7,-304.85 10506.7,-304.85 10506.7,-309.05 10502.5,-313.25 10498.3,-313.25"/>
<text xml:space="preserve" text-anchor="middle" x="10423" y="-297.55" font-family="Helvetica,sans-Serif" font-size="8.00">WARP&#45;auto&#45;breaking&#45;change&#45;detection &#45; L</text>
</g>
<!-- cool_ideas_WARP_budget_elasticity -->
<g id="node51" class="node">
<title>cool_ideas_WARP_budget_elasticity</title>
<path fill="#d4e8f7" stroke="black" d="M7577.93,-386.7C7577.93,-386.7 7482.07,-386.7 7482.07,-386.7 7477.88,-386.7 7473.68,-382.5 7473.68,-378.3 7473.68,-378.3 7473.68,-369.9 7473.68,-369.9 7473.68,-365.7 7477.88,-361.5 7482.07,-361.5 7482.07,-361.5 7577.93,-361.5 7577.93,-361.5 7582.12,-361.5 7586.32,-365.7 7586.32,-369.9 7586.32,-369.9 7586.32,-378.3 7586.32,-378.3 7586.32,-382.5 7582.12,-386.7 7577.93,-386.7"/>
<text xml:space="preserve" text-anchor="middle" x="7530" y="-371" font-family="Helvetica,sans-Serif" font-size="8.00">WARP&#45;budget&#45;elasticity &#45; M</text>
</g>
<!-- cool_ideas_WARP_causal_blame_for_staged_artifacts -->
<g id="node52" class="node">
<title>cool_ideas_WARP_causal_blame_for_staged_artifacts</title>
<path fill="#d4e8f7" stroke="black" d="M7537.18,-239.8C7537.18,-239.8 7382.82,-239.8 7382.82,-239.8 7378.62,-239.8 7374.43,-235.6 7374.43,-231.4 7374.43,-231.4 7374.43,-223 7374.43,-223 7374.43,-218.8 7378.62,-214.6 7382.82,-214.6 7382.82,-214.6 7537.18,-214.6 7537.18,-214.6 7541.38,-214.6 7545.57,-218.8 7545.57,-223 7545.57,-223 7545.57,-231.4 7545.57,-231.4 7545.57,-235.6 7541.38,-239.8 7537.18,-239.8"/>
<text xml:space="preserve" text-anchor="middle" x="7460" y="-224.1" font-family="Helvetica,sans-Serif" font-size="8.00">WARP&#45;causal&#45;blame&#45;for&#45;staged&#45;artifacts &#45; L</text>
</g>
<!-- cool_ideas_WARP_codebase_entropy_trajectory -->
<g id="node54" class="node">
<title>cool_ideas_WARP_codebase_entropy_trajectory</title>
<path fill="#d4e8f7" stroke="black" d="M7747.68,-386.7C7747.68,-386.7 7608.32,-386.7 7608.32,-386.7 7604.12,-386.7 7599.93,-382.5 7599.93,-378.3 7599.93,-378.3 7599.93,-369.9 7599.93,-369.9 7599.93,-365.7 7604.12,-361.5 7608.32,-361.5 7608.32,-361.5 7747.68,-361.5 7747.68,-361.5 7751.88,-361.5 7756.07,-365.7 7756.07,-369.9 7756.07,-369.9 7756.07,-378.3 7756.07,-378.3 7756.07,-382.5 7751.88,-386.7 7747.68,-386.7"/>
<text xml:space="preserve" text-anchor="middle" x="7678" y="-371" font-family="Helvetica,sans-Serif" font-size="8.00">WARP&#45;codebase&#45;entropy&#45;trajectory &#45; M</text>
</g>
<!-- cool_ideas_WARP_counterfactual_refactoring -->
<g id="node56" class="node">
<title>cool_ideas_WARP_counterfactual_refactoring</title>
<path fill="#d4e8f7" stroke="black" d="M7755.68,-313.25C7755.68,-313.25 7622.32,-313.25 7622.32,-313.25 7618.12,-313.25 7613.93,-309.05 7613.93,-304.85 7613.93,-304.85 7613.93,-296.45 7613.93,-296.45 7613.93,-292.25 7618.12,-288.05 7622.32,-288.05 7622.32,-288.05 7755.68,-288.05 7755.68,-288.05 7759.88,-288.05 7764.07,-292.25 7764.07,-296.45 7764.07,-296.45 7764.07,-304.85 7764.07,-304.85 7764.07,-309.05 7759.88,-313.25 7755.68,-313.25"/>
<text xml:space="preserve" text-anchor="middle" x="7689" y="-297.55" font-family="Helvetica,sans-Serif" font-size="8.00">WARP&#45;counterfactual&#45;refactoring &#45; XL</text>
</g>
<!-- cool_ideas_WARP_codebase_entropy_trajectory&#45;&gt;cool_ideas_WARP_counterfactual_refactoring -->
<g id="edge7" class="edge">
<title>cool_ideas_WARP_codebase_entropy_trajectory&#45;&gt;cool_ideas_WARP_counterfactual_refactoring</title>
<path fill="none" stroke="#666666" d="M7679.82,-361.3C7681.54,-350.1 7684.16,-333.08 7686.16,-320.08"/>
<polygon fill="#666666" stroke="#666666" points="7687.88,-320.41 7686.91,-315.2 7684.42,-319.88 7687.88,-320.41"/>
<text xml:space="preserve" text-anchor="middle" x="7715.33" y="-334.85" font-family="Helvetica,sans-Serif" font-size="7.00">blocked_by/blocking</text>
</g>
<!-- cool_ideas_WARP_codebase_signature -->
<g id="node55" class="node">
<title>cool_ideas_WARP_codebase_signature</title>
<path fill="#d4e8f7" stroke="black" d="M7885.55,-386.7C7885.55,-386.7 7778.45,-386.7 7778.45,-386.7 7774.25,-386.7 7770.05,-382.5 7770.05,-378.3 7770.05,-378.3 7770.05,-369.9 7770.05,-369.9 7770.05,-365.7 7774.25,-361.5 7778.45,-361.5 7778.45,-361.5 7885.55,-361.5 7885.55,-361.5 7889.75,-361.5 7893.95,-365.7 7893.95,-369.9 7893.95,-369.9 7893.95,-378.3 7893.95,-378.3 7893.95,-382.5 7889.75,-386.7 7885.55,-386.7"/>
<text xml:space="preserve" text-anchor="middle" x="7832" y="-371" font-family="Helvetica,sans-Serif" font-size="8.00">WARP&#45;codebase&#45;signature &#45; L</text>
</g>
<!-- cool_ideas_WARP_structural_impact_prediction -->
<g id="node78" class="node">
<title>cool_ideas_WARP_structural_impact_prediction</title>
<path fill="#d4e8f7" stroke="black" d="M7758.3,-239.8C7758.3,-239.8 7619.7,-239.8 7619.7,-239.8 7615.5,-239.8 7611.3,-235.6 7611.3,-231.4 7611.3,-231.4 7611.3,-223 7611.3,-223 7611.3,-218.8 7615.5,-214.6 7619.7,-214.6 7619.7,-214.6 7758.3,-214.6 7758.3,-214.6 7762.5,-214.6 7766.7,-218.8 7766.7,-223 7766.7,-223 7766.7,-231.4 7766.7,-231.4 7766.7,-235.6 7762.5,-239.8 7758.3,-239.8"/>
<text xml:space="preserve" text-anchor="middle" x="7689" y="-224.1" font-family="Helvetica,sans-Serif" font-size="8.00">WARP&#45;structural&#45;impact&#45;prediction &#45; XL</text>
</g>
<!-- cool_ideas_WARP_counterfactual_refactoring&#45;&gt;cool_ideas_WARP_structural_impact_prediction -->
<g id="edge8" class="edge">
<title>cool_ideas_WARP_counterfactual_refactoring&#45;&gt;cool_ideas_WARP_structural_impact_prediction</title>
<path fill="none" stroke="#666666" d="M7689,-287.85C7689,-276.65 7689,-259.63 7689,-246.63"/>
<polygon fill="#666666" stroke="#666666" points="7690.75,-246.77 7689,-241.77 7687.25,-246.77 7690.75,-246.77"/>
<text xml:space="preserve" text-anchor="middle" x="7720.5" y="-261.4" font-family="Helvetica,sans-Serif" font-size="7.00">blocked_by/blocking</text>
</g>
<!-- cool_ideas_WARP_dead_symbol_detection -->
<g id="node57" class="node">
<title>cool_ideas_WARP_dead_symbol_detection</title>
<path fill="#d4e8f7" stroke="black" d="M8035.18,-386.7C8035.18,-386.7 7916.82,-386.7 7916.82,-386.7 7912.62,-386.7 7908.43,-382.5 7908.43,-378.3 7908.43,-378.3 7908.43,-369.9 7908.43,-369.9 7908.43,-365.7 7912.62,-361.5 7916.82,-361.5 7916.82,-361.5 8035.18,-361.5 8035.18,-361.5 8039.38,-361.5 8043.57,-365.7 8043.57,-369.9 8043.57,-369.9 8043.57,-378.3 8043.57,-378.3 8043.57,-382.5 8039.38,-386.7 8035.18,-386.7"/>
<text xml:space="preserve" text-anchor="middle" x="7976" y="-371" font-family="Helvetica,sans-Serif" font-size="8.00">WARP&#45;dead&#45;symbol&#45;detection &#45; S</text>
</g>
<!-- cool_ideas_WARP_degeneracy_warning -->
<g id="node58" class="node">
<title>cool_ideas_WARP_degeneracy_warning</title>
<path fill="#d4e8f7" stroke="black" d="M8178.18,-386.7C8178.18,-386.7 8065.82,-386.7 8065.82,-386.7 8061.62,-386.7 8057.43,-382.5 8057.43,-378.3 8057.43,-378.3 8057.43,-369.9 8057.43,-369.9 8057.43,-365.7 8061.62,-361.5 8065.82,-361.5 8065.82,-361.5 8178.18,-361.5 8178.18,-361.5 8182.38,-361.5 8186.57,-365.7 8186.57,-369.9 8186.57,-369.9 8186.57,-378.3 8186.57,-378.3 8186.57,-382.5 8182.38,-386.7 8178.18,-386.7"/>
<text xml:space="preserve" text-anchor="middle" x="8122" y="-371" font-family="Helvetica,sans-Serif" font-size="8.00">WARP&#45;degeneracy&#45;warning &#45; M</text>
</g>
<!-- cool_ideas_WARP_drift_sentinel -->
<g id="node59" class="node">
<title>cool_ideas_WARP_drift_sentinel</title>
<path fill="#d4e8f7" stroke="black" d="M10004.18,-313.25C10004.18,-313.25 9921.82,-313.25 9921.82,-313.25 9917.62,-313.25 9913.42,-309.05 9913.42,-304.85 9913.42,-304.85 9913.42,-296.45 9913.42,-296.45 9913.42,-292.25 9917.62,-288.05 9921.82,-288.05 9921.82,-288.05 10004.18,-288.05 10004.18,-288.05 10008.38,-288.05 10012.58,-292.25 10012.58,-296.45 10012.58,-296.45 10012.58,-304.85 10012.58,-304.85 10012.58,-309.05 10008.38,-313.25 10004.18,-313.25"/>
<text xml:space="preserve" text-anchor="middle" x="9963" y="-297.55" font-family="Helvetica,sans-Serif" font-size="8.00">WARP&#45;drift&#45;sentinel &#45; M</text>
</g>
<!-- cool_ideas_WARP_footprint_parallelism -->
<g id="node60" class="node">
<title>cool_ideas_WARP_footprint_parallelism</title>
<path fill="#d4e8f7" stroke="black" d="M8320.8,-386.7C8320.8,-386.7 8209.2,-386.7 8209.2,-386.7 8205,-386.7 8200.8,-382.5 8200.8,-378.3 8200.8,-378.3 8200.8,-369.9 8200.8,-369.9 8200.8,-365.7 8205,-361.5 8209.2,-361.5 8209.2,-361.5 8320.8,-361.5 8320.8,-361.5 8325,-361.5 8329.2,-365.7 8329.2,-369.9 8329.2,-369.9 8329.2,-378.3 8329.2,-378.3 8329.2,-382.5 8325,-386.7 8320.8,-386.7"/>
<text xml:space="preserve" text-anchor="middle" x="8265" y="-371" font-family="Helvetica,sans-Serif" font-size="8.00">WARP&#45;footprint&#45;parallelism &#45; XL</text>
</g>
<!-- cool_ideas_WARP_graft_pack -->
<g id="node61" class="node">
<title>cool_ideas_WARP_graft_pack</title>
<path fill="#d4e8f7" stroke="black" d="M8426.43,-386.7C8426.43,-386.7 8351.57,-386.7 8351.57,-386.7 8347.38,-386.7 8343.17,-382.5 8343.17,-378.3 8343.17,-378.3 8343.17,-369.9 8343.17,-369.9 8343.17,-365.7 8347.38,-361.5 8351.57,-361.5 8351.57,-361.5 8426.43,-361.5 8426.43,-361.5 8430.62,-361.5 8434.83,-365.7 8434.83,-369.9 8434.83,-369.9 8434.83,-378.3 8434.83,-378.3 8434.83,-382.5 8430.62,-386.7 8426.43,-386.7"/>
<text xml:space="preserve" text-anchor="middle" x="8389" y="-371" font-family="Helvetica,sans-Serif" font-size="8.00">WARP&#45;graft&#45;pack &#45; M</text>
</g>
<!-- cool_ideas_WARP_grouped_aggregate_queries -->
<g id="node62" class="node">
<title>cool_ideas_WARP_grouped_aggregate_queries</title>
<path fill="#d4e8f7" stroke="black" d="M8594.93,-386.7C8594.93,-386.7 8457.07,-386.7 8457.07,-386.7 8452.88,-386.7 8448.67,-382.5 8448.67,-378.3 8448.67,-378.3 8448.67,-369.9 8448.67,-369.9 8448.67,-365.7 8452.88,-361.5 8457.07,-361.5 8457.07,-361.5 8594.93,-361.5 8594.93,-361.5 8599.12,-361.5 8603.33,-365.7 8603.33,-369.9 8603.33,-369.9 8603.33,-378.3 8603.33,-378.3 8603.33,-382.5 8599.12,-386.7 8594.93,-386.7"/>
<text xml:space="preserve" text-anchor="middle" x="8526" y="-371" font-family="Helvetica,sans-Serif" font-size="8.00">WARP&#45;grouped&#45;aggregate&#45;queries &#45; M</text>
</g>
<!-- cool_ideas_WARP_intentional_degeneracy_privacy -->
<g id="node64" class="node">
<title>cool_ideas_WARP_intentional_degeneracy_privacy</title>
<path fill="#d4e8f7" stroke="black" d="M8773.8,-386.7C8773.8,-386.7 8626.2,-386.7 8626.2,-386.7 8622,-386.7 8617.8,-382.5 8617.8,-378.3 8617.8,-378.3 8617.8,-369.9 8617.8,-369.9 8617.8,-365.7 8622,-361.5 8626.2,-361.5 8626.2,-361.5 8773.8,-361.5 8773.8,-361.5 8778,-361.5 8782.2,-365.7 8782.2,-369.9 8782.2,-369.9 8782.2,-378.3 8782.2,-378.3 8782.2,-382.5 8778,-386.7 8773.8,-386.7"/>
<text xml:space="preserve" text-anchor="middle" x="8700" y="-371" font-family="Helvetica,sans-Serif" font-size="8.00">WARP&#45;intentional&#45;degeneracy&#45;privacy &#45; M</text>
</g>
<!-- cool_ideas_WARP_minimum_viable_context -->
<g id="node65" class="node">
<title>cool_ideas_WARP_minimum_viable_context</title>
<path fill="#d4e8f7" stroke="black" d="M8927.43,-386.7C8927.43,-386.7 8804.57,-386.7 8804.57,-386.7 8800.38,-386.7 8796.17,-382.5 8796.17,-378.3 8796.17,-378.3 8796.17,-369.9 8796.17,-369.9 8796.17,-365.7 8800.38,-361.5 8804.57,-361.5 8804.57,-361.5 8927.43,-361.5 8927.43,-361.5 8931.62,-361.5 8935.83,-365.7 8935.83,-369.9 8935.83,-369.9 8935.83,-378.3 8935.83,-378.3 8935.83,-382.5 8931.62,-386.7 8927.43,-386.7"/>
<text xml:space="preserve" text-anchor="middle" x="8866" y="-371" font-family="Helvetica,sans-Serif" font-size="8.00">WARP&#45;minimum&#45;viable&#45;context &#45; M</text>
</g>
<!-- cool_ideas_WARP_outline_diff_commit_trailer -->
<g id="node66" class="node">
<title>cool_ideas_WARP_outline_diff_commit_trailer</title>
<path fill="#d4e8f7" stroke="black" d="M9083.93,-386.7C9083.93,-386.7 8958.07,-386.7 8958.07,-386.7 8953.88,-386.7 8949.67,-382.5 8949.67,-378.3 8949.67,-378.3 8949.67,-369.9 8949.67,-369.9 8949.67,-365.7 8953.88,-361.5 8958.07,-361.5 8958.07,-361.5 9083.93,-361.5 9083.93,-361.5 9088.12,-361.5 9092.33,-365.7 9092.33,-369.9 9092.33,-369.9 9092.33,-378.3 9092.33,-378.3 9092.33,-382.5 9088.12,-386.7 9083.93,-386.7"/>
<text xml:space="preserve" text-anchor="middle" x="9021" y="-371" font-family="Helvetica,sans-Serif" font-size="8.00">WARP&#45;outline&#45;diff&#45;commit&#45;trailer &#45; S</text>
</g>
<!-- cool_ideas_WARP_projection_safety_classes -->
<g id="node67" class="node">
<title>cool_ideas_WARP_projection_safety_classes</title>
<path fill="#d4e8f7" stroke="black" d="M9240.93,-386.7C9240.93,-386.7 9115.07,-386.7 9115.07,-386.7 9110.88,-386.7 9106.67,-382.5 9106.67,-378.3 9106.67,-378.3 9106.67,-369.9 9106.67,-369.9 9106.67,-365.7 9110.88,-361.5 9115.07,-361.5 9115.07,-361.5 9240.93,-361.5 9240.93,-361.5 9245.12,-361.5 9249.33,-365.7 9249.33,-369.9 9249.33,-369.9 9249.33,-378.3 9249.33,-378.3 9249.33,-382.5 9245.12,-386.7 9240.93,-386.7"/>
<text xml:space="preserve" text-anchor="middle" x="9178" y="-371" font-family="Helvetica,sans-Serif" font-size="8.00">WARP&#45;projection&#45;safety&#45;classes &#45; M</text>
</g>
<!-- cool_ideas_WARP_provenance_dag&#45;&gt;cool_ideas_WARP_causal_blame_for_staged_artifacts -->
<g id="edge9" class="edge">
<title>cool_ideas_WARP_provenance_dag&#45;&gt;cool_ideas_WARP_causal_blame_for_staged_artifacts</title>
<path fill="none" stroke="#666666" d="M7398.22,-287.85C7410.46,-276.03 7429.41,-257.74 7443.09,-244.52"/>
<polygon fill="#666666" stroke="#666666" points="7444.04,-246.04 7446.43,-241.31 7441.61,-243.52 7444.04,-246.04"/>
<text xml:space="preserve" text-anchor="middle" x="7456.72" y="-261.4" font-family="Helvetica,sans-Serif" font-size="7.00">blocked_by/blocking</text>
</g>
<!-- cool_ideas_WARP_reasoning_trace_replay -->
<g id="node69" class="node">
<title>cool_ideas_WARP_reasoning_trace_replay</title>
<path fill="#d4e8f7" stroke="black" d="M7351.93,-239.8C7351.93,-239.8 7232.07,-239.8 7232.07,-239.8 7227.88,-239.8 7223.68,-235.6 7223.68,-231.4 7223.68,-231.4 7223.68,-223 7223.68,-223 7223.68,-218.8 7227.88,-214.6 7232.07,-214.6 7232.07,-214.6 7351.93,-214.6 7351.93,-214.6 7356.12,-214.6 7360.32,-218.8 7360.32,-223 7360.32,-223 7360.32,-231.4 7360.32,-231.4 7360.32,-235.6 7356.12,-239.8 7351.93,-239.8"/>
<text xml:space="preserve" text-anchor="middle" x="7292" y="-224.1" font-family="Helvetica,sans-Serif" font-size="8.00">WARP&#45;reasoning&#45;trace&#45;replay &#45; M</text>
</g>
<!-- cool_ideas_WARP_provenance_dag&#45;&gt;cool_ideas_WARP_reasoning_trace_replay -->
<g id="edge10" class="edge">
<title>cool_ideas_WARP_provenance_dag&#45;&gt;cool_ideas_WARP_reasoning_trace_replay</title>
<path fill="none" stroke="#666666" d="M7370.48,-287.85C7354.79,-275.93 7330.44,-257.42 7313.02,-244.18"/>
<polygon fill="#666666" stroke="#666666" points="7314.1,-242.8 7309.06,-241.17 7311.99,-245.59 7314.1,-242.8"/>
<text xml:space="preserve" text-anchor="middle" x="7373.32" y="-261.4" font-family="Helvetica,sans-Serif" font-size="7.00">blocked_by/blocking</text>
</g>
<!-- cool_ideas_WARP_rulial_heat_map -->
<g id="node70" class="node">
<title>cool_ideas_WARP_rulial_heat_map</title>
<path fill="#d4e8f7" stroke="black" d="M9362.3,-386.7C9362.3,-386.7 9271.7,-386.7 9271.7,-386.7 9267.5,-386.7 9263.3,-382.5 9263.3,-378.3 9263.3,-378.3 9263.3,-369.9 9263.3,-369.9 9263.3,-365.7 9267.5,-361.5 9271.7,-361.5 9271.7,-361.5 9362.3,-361.5 9362.3,-361.5 9366.5,-361.5 9370.7,-365.7 9370.7,-369.9 9370.7,-369.9 9370.7,-378.3 9370.7,-378.3 9370.7,-382.5 9366.5,-386.7 9362.3,-386.7"/>
<text xml:space="preserve" text-anchor="middle" x="9317" y="-371" font-family="Helvetica,sans-Serif" font-size="8.00">WARP&#45;rulial&#45;heat&#45;map &#45; L</text>
</g>
<!-- cool_ideas_WARP_semantic_drift_in_sessions -->
<g id="node71" class="node">
<title>cool_ideas_WARP_semantic_drift_in_sessions</title>
<path fill="#d4e8f7" stroke="black" d="M9522.43,-386.7C9522.43,-386.7 9393.57,-386.7 9393.57,-386.7 9389.38,-386.7 9385.17,-382.5 9385.17,-378.3 9385.17,-378.3 9385.17,-369.9 9385.17,-369.9 9385.17,-365.7 9389.38,-361.5 9393.57,-361.5 9393.57,-361.5 9522.43,-361.5 9522.43,-361.5 9526.62,-361.5 9530.83,-365.7 9530.83,-369.9 9530.83,-369.9 9530.83,-378.3 9530.83,-378.3 9530.83,-382.5 9526.62,-386.7 9522.43,-386.7"/>
<text xml:space="preserve" text-anchor="middle" x="9458" y="-371" font-family="Helvetica,sans-Serif" font-size="8.00">WARP&#45;semantic&#45;drift&#45;in&#45;sessions &#45; M</text>
</g>
<!-- cool_ideas_WARP_semantic_merge_conflict_prediction -->
<g id="node72" class="node">
<title>cool_ideas_WARP_semantic_merge_conflict_prediction</title>
<path fill="#d4e8f7" stroke="black" d="M10688.43,-313.25C10688.43,-313.25 10529.57,-313.25 10529.57,-313.25 10525.38,-313.25 10521.17,-309.05 10521.17,-304.85 10521.17,-304.85 10521.17,-296.45 10521.17,-296.45 10521.17,-292.25 10525.38,-288.05 10529.57,-288.05 10529.57,-288.05 10688.43,-288.05 10688.43,-288.05 10692.62,-288.05 10696.83,-292.25 10696.83,-296.45 10696.83,-296.45 10696.83,-304.85 10696.83,-304.85 10696.83,-309.05 10692.62,-313.25 10688.43,-313.25"/>
<text xml:space="preserve" text-anchor="middle" x="10609" y="-297.55" font-family="Helvetica,sans-Serif" font-size="8.00">WARP&#45;semantic&#45;merge&#45;conflict&#45;prediction &#45; L</text>
</g>
<!-- cool_ideas_WARP_session_filtration -->
<g id="node73" class="node">
<title>cool_ideas_WARP_session_filtration</title>
<path fill="#d4e8f7" stroke="black" d="M9646.8,-386.7C9646.8,-386.7 9553.2,-386.7 9553.2,-386.7 9549,-386.7 9544.8,-382.5 9544.8,-378.3 9544.8,-378.3 9544.8,-369.9 9544.8,-369.9 9544.8,-365.7 9549,-361.5 9553.2,-361.5 9553.2,-361.5 9646.8,-361.5 9646.8,-361.5 9651,-361.5 9655.2,-365.7 9655.2,-369.9 9655.2,-369.9 9655.2,-378.3 9655.2,-378.3 9655.2,-382.5 9651,-386.7 9646.8,-386.7"/>
<text xml:space="preserve" text-anchor="middle" x="9600" y="-371" font-family="Helvetica,sans-Serif" font-size="8.00">WARP&#45;session&#45;filtration &#45; L</text>
</g>
<!-- cool_ideas_WARP_shadow_structural_workspaces -->
<g id="node74" class="node">
<title>cool_ideas_WARP_shadow_structural_workspaces</title>
<path fill="#d4e8f7" stroke="black" d="M9828.3,-386.7C9828.3,-386.7 9677.7,-386.7 9677.7,-386.7 9673.5,-386.7 9669.3,-382.5 9669.3,-378.3 9669.3,-378.3 9669.3,-369.9 9669.3,-369.9 9669.3,-365.7 9673.5,-361.5 9677.7,-361.5 9677.7,-361.5 9828.3,-361.5 9828.3,-361.5 9832.5,-361.5 9836.7,-365.7 9836.7,-369.9 9836.7,-369.9 9836.7,-378.3 9836.7,-378.3 9836.7,-382.5 9832.5,-386.7 9828.3,-386.7"/>
<text xml:space="preserve" text-anchor="middle" x="9753" y="-371" font-family="Helvetica,sans-Serif" font-size="8.00">WARP&#45;shadow&#45;structural&#45;workspaces &#45; XL</text>
</g>
<!-- cool_ideas_WARP_speculative_merge -->
<g id="node75" class="node">
<title>cool_ideas_WARP_speculative_merge</title>
<path fill="#d4e8f7" stroke="black" d="M9966.55,-386.7C9966.55,-386.7 9859.45,-386.7 9859.45,-386.7 9855.25,-386.7 9851.05,-382.5 9851.05,-378.3 9851.05,-378.3 9851.05,-369.9 9851.05,-369.9 9851.05,-365.7 9855.25,-361.5 9859.45,-361.5 9859.45,-361.5 9966.55,-361.5 9966.55,-361.5 9970.75,-361.5 9974.95,-365.7 9974.95,-369.9 9974.95,-369.9 9974.95,-378.3 9974.95,-378.3 9974.95,-382.5 9970.75,-386.7 9966.55,-386.7"/>
<text xml:space="preserve" text-anchor="middle" x="9913" y="-371" font-family="Helvetica,sans-Serif" font-size="8.00">WARP&#45;speculative&#45;merge &#45; XL</text>
</g>
<!-- cool_ideas_WARP_stale_docs_checker -->
<g id="node76" class="node">
<title>cool_ideas_WARP_stale_docs_checker</title>
<path fill="#d4e8f7" stroke="black" d="M10102.8,-386.7C10102.8,-386.7 9997.2,-386.7 9997.2,-386.7 9993,-386.7 9988.8,-382.5 9988.8,-378.3 9988.8,-378.3 9988.8,-369.9 9988.8,-369.9 9988.8,-365.7 9993,-361.5 9997.2,-361.5 9997.2,-361.5 10102.8,-361.5 10102.8,-361.5 10107,-361.5 10111.2,-365.7 10111.2,-369.9 10111.2,-369.9 10111.2,-378.3 10111.2,-378.3 10111.2,-382.5 10107,-386.7 10102.8,-386.7"/>
<text xml:space="preserve" text-anchor="middle" x="10050" y="-371" font-family="Helvetica,sans-Serif" font-size="8.00">WARP&#45;stale&#45;docs&#45;checker &#45; M</text>
</g>
<!-- cool_ideas_WARP_stale_docs_checker&#45;&gt;cool_ideas_WARP_drift_sentinel -->
<g id="edge11" class="edge">
<title>cool_ideas_WARP_stale_docs_checker&#45;&gt;cool_ideas_WARP_drift_sentinel</title>
<path fill="none" stroke="#666666" d="M10035.63,-361.3C10021.11,-349.38 9998.58,-330.87 9982.46,-317.63"/>
<polygon fill="#666666" stroke="#666666" points="9983.82,-316.49 9978.85,-314.67 9981.6,-319.19 9983.82,-316.49"/>
<text xml:space="preserve" text-anchor="middle" x="10040.61" y="-334.85" font-family="Helvetica,sans-Serif" font-size="7.00">blocked_by/blocking</text>
</g>
<!-- cool_ideas_WARP_structural_drift_detection -->
<g id="node77" class="node">
<title>cool_ideas_WARP_structural_drift_detection</title>
<path fill="#d4e8f7" stroke="black" d="M10256.8,-386.7C10256.8,-386.7 10133.2,-386.7 10133.2,-386.7 10129,-386.7 10124.8,-382.5 10124.8,-378.3 10124.8,-378.3 10124.8,-369.9 10124.8,-369.9 10124.8,-365.7 10129,-361.5 10133.2,-361.5 10133.2,-361.5 10256.8,-361.5 10256.8,-361.5 10261,-361.5 10265.2,-365.7 10265.2,-369.9 10265.2,-369.9 10265.2,-378.3 10265.2,-378.3 10265.2,-382.5 10261,-386.7 10256.8,-386.7"/>
<text xml:space="preserve" text-anchor="middle" x="10195" y="-371" font-family="Helvetica,sans-Serif" font-size="8.00">WARP&#45;structural&#45;drift&#45;detection &#45; M</text>
</g>
<!-- cool_ideas_WARP_symbol_heatmap -->
<g id="node79" class="node">
<title>cool_ideas_WARP_symbol_heatmap</title>
<path fill="#d4e8f7" stroke="black" d="M10386.05,-386.7C10386.05,-386.7 10287.95,-386.7 10287.95,-386.7 10283.75,-386.7 10279.55,-382.5 10279.55,-378.3 10279.55,-378.3 10279.55,-369.9 10279.55,-369.9 10279.55,-365.7 10283.75,-361.5 10287.95,-361.5 10287.95,-361.5 10386.05,-361.5 10386.05,-361.5 10390.25,-361.5 10394.45,-365.7 10394.45,-369.9 10394.45,-369.9 10394.45,-378.3 10394.45,-378.3 10394.45,-382.5 10390.25,-386.7 10386.05,-386.7"/>
<text xml:space="preserve" text-anchor="middle" x="10337" y="-371" font-family="Helvetica,sans-Serif" font-size="8.00">WARP&#45;symbol&#45;heatmap &#45; M</text>
</g>
<!-- cool_ideas_WARP_symbol_history_timeline -->
<g id="node80" class="node">
<title>cool_ideas_WARP_symbol_history_timeline</title>
<path fill="#d4e8f7" stroke="black" d="M10535.18,-386.7C10535.18,-386.7 10416.82,-386.7 10416.82,-386.7 10412.62,-386.7 10408.42,-382.5 10408.42,-378.3 10408.42,-378.3 10408.42,-369.9 10408.42,-369.9 10408.42,-365.7 10412.62,-361.5 10416.82,-361.5 10416.82,-361.5 10535.18,-361.5 10535.18,-361.5 10539.38,-361.5 10543.58,-365.7 10543.58,-369.9 10543.58,-369.9 10543.58,-378.3 10543.58,-378.3 10543.58,-382.5 10539.38,-386.7 10535.18,-386.7"/>
<text xml:space="preserve" text-anchor="middle" x="10476" y="-371" font-family="Helvetica,sans-Serif" font-size="8.00">WARP&#45;symbol&#45;history&#45;timeline &#45; S</text>
</g>
<!-- cool_ideas_WARP_temporal_structural_search -->
<g id="node82" class="node">
<title>cool_ideas_WARP_temporal_structural_search</title>
<path fill="#d4e8f7" stroke="black" d="M10168.68,-313.25C10168.68,-313.25 10035.32,-313.25 10035.32,-313.25 10031.12,-313.25 10026.92,-309.05 10026.92,-304.85 10026.92,-304.85 10026.92,-296.45 10026.92,-296.45 10026.92,-292.25 10031.12,-288.05 10035.32,-288.05 10035.32,-288.05 10168.68,-288.05 10168.68,-288.05 10172.88,-288.05 10177.08,-292.25 10177.08,-296.45 10177.08,-296.45 10177.08,-304.85 10177.08,-304.85 10177.08,-309.05 10172.88,-313.25 10168.68,-313.25"/>
<text xml:space="preserve" text-anchor="middle" x="10102" y="-297.55" font-family="Helvetica,sans-Serif" font-size="8.00">WARP&#45;temporal&#45;structural&#45;search &#45; M</text>
</g>
<!-- cool_ideas_WARP_symbol_history_timeline&#45;&gt;cool_ideas_WARP_temporal_structural_search -->
<g id="edge12" class="edge">
<title>cool_ideas_WARP_symbol_history_timeline&#45;&gt;cool_ideas_WARP_temporal_structural_search</title>
<path fill="none" stroke="#666666" d="M10435.82,-361.1C10424.64,-358.17 10412.42,-355.35 10401,-353.5 10320.98,-340.53 10298.5,-357.37 10219,-341.5 10190.41,-335.79 10159.21,-324.92 10136.23,-315.97"/>
<polygon fill="#666666" stroke="#666666" points="10136.97,-314.38 10131.68,-314.18 10135.69,-317.64 10136.97,-314.38"/>
<text xml:space="preserve" text-anchor="middle" x="10250.5" y="-334.85" font-family="Helvetica,sans-Serif" font-size="7.00">blocked_by/blocking</text>
</g>
<!-- cool_ideas_WARP_technical_debt_curvature -->
<g id="node81" class="node">
<title>cool_ideas_WARP_technical_debt_curvature</title>
<path fill="#d4e8f7" stroke="black" d="M10688.43,-386.7C10688.43,-386.7 10565.57,-386.7 10565.57,-386.7 10561.38,-386.7 10557.17,-382.5 10557.17,-378.3 10557.17,-378.3 10557.17,-369.9 10557.17,-369.9 10557.17,-365.7 10561.38,-361.5 10565.57,-361.5 10565.57,-361.5 10688.43,-361.5 10688.43,-361.5 10692.62,-361.5 10696.83,-365.7 10696.83,-369.9 10696.83,-369.9 10696.83,-378.3 10696.83,-378.3 10696.83,-382.5 10692.62,-386.7 10688.43,-386.7"/>
<text xml:space="preserve" text-anchor="middle" x="10627" y="-371" font-family="Helvetica,sans-Serif" font-size="8.00">WARP&#45;technical&#45;debt&#45;curvature &#45; L</text>
</g>
<!-- external_git_warp_observer_geometry_ladder__Rung_2_4_ -->
<g id="node83" class="node">
<title>external_git_warp_observer_geometry_ladder__Rung_2_4_</title>
<path fill="#e8f2ff" stroke="black" d="M10892.68,-386.7C10892.68,-386.7 10729.32,-386.7 10729.32,-386.7 10725.12,-386.7 10720.92,-382.5 10720.92,-378.3 10720.92,-378.3 10720.92,-369.9 10720.92,-369.9 10720.92,-365.7 10725.12,-361.5 10729.32,-361.5 10729.32,-361.5 10892.68,-361.5 10892.68,-361.5 10896.88,-361.5 10901.08,-365.7 10901.08,-369.9 10901.08,-369.9 10901.08,-378.3 10901.08,-378.3 10901.08,-382.5 10896.88,-386.7 10892.68,-386.7"/>
<text xml:space="preserve" text-anchor="middle" x="10811" y="-371" font-family="Helvetica,sans-Serif" font-size="8.00">git&#45;warp observer geometry ladder (Rung 2&#45;4)</text>
</g>
<!-- external_git_warp_observer_geometry_ladder__Rung_2_4_&#45;&gt;cool_ideas_CORE_migrate_to_slice_first_reads -->
<g id="edge13" class="edge">
<title>external_git_warp_observer_geometry_ladder__Rung_2_4_&#45;&gt;cool_ideas_CORE_migrate_to_slice_first_reads</title>
<path fill="none" stroke="#4477aa" stroke-dasharray="5,2" d="M10754.54,-361.04C10739.47,-358.18 10723.17,-355.41 10708,-353.5 10623.72,-342.87 10601.71,-350.58 10517.25,-341.5 10434.44,-332.6 10414.31,-325.98 10332,-313.25 10331.86,-313.23 10331.73,-313.21 10331.59,-313.19"/>
<polygon fill="#4477aa" stroke="#4477aa" points="10332.06,-311.49 10326.85,-312.45 10331.52,-314.95 10332.06,-311.49"/>
<text xml:space="preserve" text-anchor="middle" x="10549.12" y="-334.85" font-family="Helvetica,sans-Serif" font-size="7.00">blocked_by_external</text>
</g>
<!-- unresolved_CLEAN_CODE_export_diff_semver_signature_as_patch -->
<g id="node84" class="node">
<title>unresolved_CLEAN_CODE_export_diff_semver_signature_as_patch</title>
<path fill="#f2f2f2" stroke="black" stroke-dasharray="5,2" d="M11156.3,-386.7C11156.3,-386.7 10933.7,-386.7 10933.7,-386.7 10929.5,-386.7 10925.3,-382.5 10925.3,-378.3 10925.3,-378.3 10925.3,-369.9 10925.3,-369.9 10925.3,-365.7 10929.5,-361.5 10933.7,-361.5 10933.7,-361.5 11156.3,-361.5 11156.3,-361.5 11160.5,-361.5 11164.7,-365.7 11164.7,-369.9 11164.7,-369.9 11164.7,-378.3 11164.7,-378.3 11164.7,-382.5 11160.5,-386.7 11156.3,-386.7"/>
<text xml:space="preserve" text-anchor="middle" x="11045" y="-371" font-family="Helvetica,sans-Serif" font-size="8.00">missing: CLEAN_CODE_export&#45;diff&#45;semver&#45;signature&#45;as&#45;patch</text>
</g>
<!-- unresolved_CLEAN_CODE_export_diff_semver_signature_as_patch&#45;&gt;cool_ideas_WARP_auto_breaking_change_detection -->
<g id="edge14" class="edge">
<title>unresolved_CLEAN_CODE_export_diff_semver_signature_as_patch&#45;&gt;cool_ideas_WARP_auto_breaking_change_detection</title>
<path fill="none" stroke="#cc3333" stroke-dasharray="5,2" d="M10968.44,-361.04C10949.99,-358.34 10930.31,-355.65 10912,-353.5 10851.63,-346.4 10836.25,-347.43 10775.75,-341.5 10659.3,-330.09 10630.21,-326.93 10514,-313.25 10513.7,-313.22 10513.41,-313.18 10513.11,-313.14"/>
<polygon fill="#cc3333" stroke="#cc3333" points="10513.47,-311.43 10508.29,-312.57 10513.05,-314.9 10513.47,-311.43"/>
<text xml:space="preserve" text-anchor="middle" x="10793.38" y="-334.85" font-family="Helvetica,sans-Serif" font-size="7.00">blocked_by</text>
</g>
<!-- unresolved_CLEAN_CODE_export_diff_semver_signature_as_patch&#45;&gt;cool_ideas_WARP_semantic_merge_conflict_prediction -->
<g id="edge15" class="edge">
<title>unresolved_CLEAN_CODE_export_diff_semver_signature_as_patch&#45;&gt;cool_ideas_WARP_semantic_merge_conflict_prediction</title>
<path fill="none" stroke="#cc3333" stroke-dasharray="5,2" d="M10971.53,-361.06C10893.24,-348.23 10769.69,-327.98 10688.99,-314.76"/>
<polygon fill="#cc3333" stroke="#cc3333" points="10689.48,-313.07 10684.26,-313.98 10688.91,-316.52 10689.48,-313.07"/>
<text xml:space="preserve" text-anchor="middle" x="10857.7" y="-334.85" font-family="Helvetica,sans-Serif" font-size="7.00">blocked_by</text>
</g>
<!-- leg_v08 -->
<g id="node85" class="node">
<title>leg_v08</title>
<path fill="#c8e6c9" stroke="black" stroke-width="2" d="M11281,-386.7C11281,-386.7 11197,-386.7 11197,-386.7 11192.8,-386.7 11188.6,-382.5 11188.6,-378.3 11188.6,-378.3 11188.6,-369.9 11188.6,-369.9 11188.6,-365.7 11192.8,-361.5 11197,-361.5 11197,-361.5 11281,-361.5 11281,-361.5 11285.2,-361.5 11289.4,-365.7 11289.4,-369.9 11289.4,-369.9 11289.4,-378.3 11289.4,-378.3 11289.4,-382.5 11285.2,-386.7 11281,-386.7"/>
<text xml:space="preserve" text-anchor="middle" x="11239" y="-371.58" font-family="Helvetica,sans-Serif" font-size="7.00">v0.8.0</text>
</g>
<!-- leg_v07 -->
<g id="node86" class="node">
<title>leg_v07</title>
<path fill="#ffa07a" stroke="black" stroke-width="2" d="M11281,-313.25C11281,-313.25 11197,-313.25 11197,-313.25 11192.8,-313.25 11188.6,-309.05 11188.6,-304.85 11188.6,-304.85 11188.6,-296.45 11188.6,-296.45 11188.6,-292.25 11192.8,-288.05 11197,-288.05 11197,-288.05 11281,-288.05 11281,-288.05 11285.2,-288.05 11289.4,-292.25 11289.4,-296.45 11289.4,-296.45 11289.4,-304.85 11289.4,-304.85 11289.4,-309.05 11285.2,-313.25 11281,-313.25"/>
<text xml:space="preserve" text-anchor="middle" x="11239" y="-298.12" font-family="Helvetica,sans-Serif" font-size="7.00">v0.7.0</text>
</g>
<!-- leg_v08&#45;&gt;leg_v07 -->
<!-- leg_bad -->
<g id="node87" class="node">
<title>leg_bad</title>
<path fill="#f6b3b3" stroke="black" stroke-width="2" d="M11281,-239.8C11281,-239.8 11197,-239.8 11197,-239.8 11192.8,-239.8 11188.6,-235.6 11188.6,-231.4 11188.6,-231.4 11188.6,-223 11188.6,-223 11188.6,-218.8 11192.8,-214.6 11197,-214.6 11197,-214.6 11281,-214.6 11281,-214.6 11285.2,-214.6 11289.4,-218.8 11289.4,-223 11289.4,-223 11289.4,-231.4 11289.4,-231.4 11289.4,-235.6 11285.2,-239.8 11281,-239.8"/>
<text xml:space="preserve" text-anchor="middle" x="11239" y="-224.67" font-family="Helvetica,sans-Serif" font-size="7.00">bad&#45;code</text>
</g>
<!-- leg_v07&#45;&gt;leg_bad -->
<!-- leg_idea -->
<g id="node88" class="node">
<title>leg_idea</title>
<path fill="#d4e8f7" stroke="black" d="M11281,-173.6C11281,-173.6 11197,-173.6 11197,-173.6 11192.8,-173.6 11188.6,-169.4 11188.6,-165.2 11188.6,-165.2 11188.6,-156.8 11188.6,-156.8 11188.6,-152.6 11192.8,-148.4 11197,-148.4 11197,-148.4 11281,-148.4 11281,-148.4 11285.2,-148.4 11289.4,-152.6 11289.4,-156.8 11289.4,-156.8 11289.4,-165.2 11289.4,-165.2 11289.4,-169.4 11285.2,-173.6 11281,-173.6"/>
<text xml:space="preserve" text-anchor="middle" x="11239" y="-158.47" font-family="Helvetica,sans-Serif" font-size="7.00">cool&#45;ideas</text>
</g>
<!-- leg_bad&#45;&gt;leg_idea -->
<!-- leg_external -->
<g id="node89" class="node">
<title>leg_external</title>
<path fill="#e8f2ff" stroke="black" d="M11281,-107.4C11281,-107.4 11197,-107.4 11197,-107.4 11192.8,-107.4 11188.6,-103.2 11188.6,-99 11188.6,-99 11188.6,-90.6 11188.6,-90.6 11188.6,-86.4 11192.8,-82.2 11197,-82.2 11197,-82.2 11281,-82.2 11281,-82.2 11285.2,-82.2 11289.4,-86.4 11289.4,-90.6 11289.4,-90.6 11289.4,-99 11289.4,-99 11289.4,-103.2 11285.2,-107.4 11281,-107.4"/>
<text xml:space="preserve" text-anchor="middle" x="11239" y="-92.28" font-family="Helvetica,sans-Serif" font-size="7.00">external blocker</text>
</g>
<!-- leg_idea&#45;&gt;leg_external -->
<!-- leg_unresolved -->
<g id="node90" class="node">
<title>leg_unresolved</title>
<path fill="#f2f2f2" stroke="black" stroke-dasharray="5,2" d="M11281,-41.2C11281,-41.2 11197,-41.2 11197,-41.2 11192.8,-41.2 11188.6,-37 11188.6,-32.8 11188.6,-32.8 11188.6,-24.4 11188.6,-24.4 11188.6,-20.2 11192.8,-16 11197,-16 11197,-16 11281,-16 11281,-16 11285.2,-16 11289.4,-20.2 11289.4,-24.4 11289.4,-24.4 11289.4,-32.8 11289.4,-32.8 11289.4,-37 11285.2,-41.2 11281,-41.2"/>
<text xml:space="preserve" text-anchor="middle" x="11239" y="-26.08" font-family="Helvetica,sans-Serif" font-size="7.00">unresolved ref</text>
</g>
<!-- leg_external&#45;&gt;leg_unresolved -->
</g>
</svg>
