<?xml version="1.0" encoding="UTF-8" standalone="no"?>
<!DOCTYPE svg PUBLIC "-//W3C//DTD SVG 1.1//EN"
 "http://www.w3.org/Graphics/SVG/1.1/DTD/svg11.dtd">
<!-- Generated by graphviz version 14.1.2 (20260124.0452)
 -->
<!-- Title: backlog Pages: 1 -->
<svg width="10708pt" height="383pt"
 viewBox="0.00 0.00 10708.00 383.00" xmlns="http://www.w3.org/2000/svg" xmlns:xlink="http://www.w3.org/1999/xlink">
<g id="graph0" class="graph" transform="scale(1 1) rotate(0) translate(4 379)">
<title>backlog</title>
<polygon fill="white" stroke="none" points="-4,4 -4,-379 10704,-379 10704,4 -4,4"/>
<text xml:space="preserve" text-anchor="middle" x="5350" y="-359.6" font-family="Helvetica,sans-Serif" font-size="12.00">Active backlog graph generated from docs/method/backlog/*/*.md</text>
<g id="clust1" class="cluster">
<title>cluster_cool_ideas</title>
<path fill="#fafafa" stroke="#cccccc" d="M20,-140.4C20,-140.4 10088,-140.4 10088,-140.4 10094,-140.4 10100,-146.4 10100,-152.4 10100,-152.4 10100,-334.25 10100,-334.25 10100,-340.25 10094,-346.25 10088,-346.25 10088,-346.25 20,-346.25 20,-346.25 14,-346.25 8,-340.25 8,-334.25 8,-334.25 8,-152.4 8,-152.4 8,-146.4 14,-140.4 20,-140.4"/>
<text xml:space="preserve" text-anchor="middle" x="47.5" y="-333.7" font-family="Helvetica,sans-Serif" font-size="9.00" fill="#555555">Cool Ideas (79)</text>
</g>
<g id="clust2" class="cluster">
<title>cluster_external</title>
<path fill="#f8fbff" stroke="#cccccc" d="M10120,-287.3C10120,-287.3 10292,-287.3 10292,-287.3 10298,-287.3 10304,-293.3 10304,-299.3 10304,-299.3 10304,-334.25 10304,-334.25 10304,-340.25 10298,-346.25 10292,-346.25 10292,-346.25 10120,-346.25 10120,-346.25 10114,-346.25 10108,-340.25 10108,-334.25 10108,-334.25 10108,-299.3 10108,-299.3 10108,-293.3 10114,-287.3 10120,-287.3"/>
<text xml:space="preserve" text-anchor="middle" x="10151.25" y="-333.7" font-family="Helvetica,sans-Serif" font-size="9.00" fill="#555555">External blockers</text>
</g>
<g id="clust3" class="cluster">
<title>cluster_unresolved</title>
<path fill="#fff7f7" stroke="#cc3333" stroke-dasharray="5,2" d="M10324,-287.3C10324,-287.3 10556,-287.3 10556,-287.3 10562,-287.3 10568,-293.3 10568,-299.3 10568,-299.3 10568,-334.25 10568,-334.25 10568,-340.25 10562,-346.25 10556,-346.25 10556,-346.25 10324,-346.25 10324,-346.25 10318,-346.25 10312,-340.25 10312,-334.25 10312,-334.25 10312,-299.3 10312,-299.3 10312,-293.3 10318,-287.3 10324,-287.3"/>
<text xml:space="preserve" text-anchor="middle" x="10368.75" y="-333.7" font-family="Helvetica,sans-Serif" font-size="9.00" fill="#555555">Unresolved internal refs</text>
</g>
<g id="clust4" class="cluster">
<title>cluster_legend</title>
<path fill="none" stroke="#dddddd" d="M10588,-8C10588,-8 10680,-8 10680,-8 10686,-8 10692,-14 10692,-20 10692,-20 10692,-333.5 10692,-333.5 10692,-339.5 10686,-345.5 10680,-345.5 10680,-345.5 10588,-345.5 10588,-345.5 10582,-345.5 10576,-339.5 10576,-333.5 10576,-333.5 10576,-20 10576,-20 10576,-14 10582,-8 10588,-8"/>
<text xml:space="preserve" text-anchor="middle" x="10597.5" y="-333.9" font-family="Helvetica,sans-Serif" font-size="8.00" fill="#aaaaaa">Legend</text>
</g>
<!-- cool_ideas_bounded_neighborhood_for_references -->
<g id="node1" class="node">
<title>cool_ideas_bounded_neighborhood_for_references</title>
<path fill="#d4e8f7" stroke="black" d="M173.17,-320.5C173.17,-320.5 24.83,-320.5 24.83,-320.5 20.63,-320.5 16.42,-316.3 16.42,-312.1 16.42,-312.1 16.42,-303.7 16.42,-303.7 16.42,-299.5 20.63,-295.3 24.83,-295.3 24.83,-295.3 173.17,-295.3 173.17,-295.3 177.37,-295.3 181.57,-299.5 181.57,-303.7 181.57,-303.7 181.57,-312.1 181.57,-312.1 181.57,-316.3 177.37,-320.5 173.17,-320.5"/>
<text xml:space="preserve" text-anchor="middle" x="99" y="-304.8" font-family="Helvetica,sans-Serif" font-size="8.00">bounded&#45;neighborhood&#45;for&#45;references &#45; S</text>
</g>
<!-- cool_ideas_CI_001_causal_collapse_visualizer -->
<g id="node2" class="node">
<title>cool_ideas_CI_001_causal_collapse_visualizer</title>
<path fill="#d4e8f7" stroke="black" d="M6878.3,-247.05C6878.3,-247.05 6751.7,-247.05 6751.7,-247.05 6747.5,-247.05 6743.3,-242.85 6743.3,-238.65 6743.3,-238.65 6743.3,-230.25 6743.3,-230.25 6743.3,-226.05 6747.5,-221.85 6751.7,-221.85 6751.7,-221.85 6878.3,-221.85 6878.3,-221.85 6882.5,-221.85 6886.7,-226.05 6886.7,-230.25 6886.7,-230.25 6886.7,-238.65 6886.7,-238.65 6886.7,-242.85 6882.5,-247.05 6878.3,-247.05"/>
<text xml:space="preserve" text-anchor="middle" x="6815" y="-231.35" font-family="Helvetica,sans-Serif" font-size="8.00">CI&#45;001&#45;causal&#45;collapse&#45;visualizer &#45; L</text>
</g>
<!-- cool_ideas_CI_002_deterministic_scenario_replay -->
<g id="node3" class="node">
<title>cool_ideas_CI_002_deterministic_scenario_replay</title>
<path fill="#d4e8f7" stroke="black" d="M343.67,-320.5C343.67,-320.5 204.33,-320.5 204.33,-320.5 200.13,-320.5 195.93,-316.3 195.93,-312.1 195.93,-312.1 195.93,-303.7 195.93,-303.7 195.93,-299.5 200.13,-295.3 204.33,-295.3 204.33,-295.3 343.67,-295.3 343.67,-295.3 347.88,-295.3 352.07,-299.5 352.07,-303.7 352.07,-303.7 352.07,-312.1 352.07,-312.1 352.07,-316.3 347.88,-320.5 343.67,-320.5"/>
<text xml:space="preserve" text-anchor="middle" x="274" y="-304.8" font-family="Helvetica,sans-Serif" font-size="8.00">CI&#45;002&#45;deterministic&#45;scenario&#45;replay &#45; L</text>
</g>
<!-- cool_ideas_CI_003_mcp_native_diff_protocol -->
<g id="node4" class="node">
<title>cool_ideas_CI_003_mcp_native_diff_protocol</title>
<path fill="#d4e8f7" stroke="black" d="M497.8,-320.5C497.8,-320.5 374.2,-320.5 374.2,-320.5 370,-320.5 365.8,-316.3 365.8,-312.1 365.8,-312.1 365.8,-303.7 365.8,-303.7 365.8,-299.5 370,-295.3 374.2,-295.3 374.2,-295.3 497.8,-295.3 497.8,-295.3 502,-295.3 506.2,-299.5 506.2,-303.7 506.2,-303.7 506.2,-312.1 506.2,-312.1 506.2,-316.3 502,-320.5 497.8,-320.5"/>
<text xml:space="preserve" text-anchor="middle" x="436" y="-304.8" font-family="Helvetica,sans-Serif" font-size="8.00">CI&#45;003&#45;mcp&#45;native&#45;diff&#45;protocol &#45; M</text>
</g>
<!-- cool_ideas_CLEAN_CODE_parallel_agent_merge_shared_file_loss -->
<g id="node5" class="node">
<title>cool_ideas_CLEAN_CODE_parallel_agent_merge_shared_file_loss</title>
<path fill="#d4e8f7" stroke="black" d="M729.05,-320.5C729.05,-320.5 528.95,-320.5 528.95,-320.5 524.75,-320.5 520.55,-316.3 520.55,-312.1 520.55,-312.1 520.55,-303.7 520.55,-303.7 520.55,-299.5 524.75,-295.3 528.95,-295.3 528.95,-295.3 729.05,-295.3 729.05,-295.3 733.25,-295.3 737.45,-299.5 737.45,-303.7 737.45,-303.7 737.45,-312.1 737.45,-312.1 737.45,-316.3 733.25,-320.5 729.05,-320.5"/>
<text xml:space="preserve" text-anchor="middle" x="629" y="-304.8" font-family="Helvetica,sans-Serif" font-size="8.00">CLEAN&#45;CODE&#45;parallel&#45;agent&#45;merge&#45;shared&#45;file&#45;loss &#45; M</text>
</g>
<!-- cool_ideas_CORE_agent_handoff_protocol -->
<g id="node6" class="node">
<title>cool_ideas_CORE_agent_handoff_protocol</title>
<path fill="#d4e8f7" stroke="black" d="M879.93,-320.5C879.93,-320.5 760.07,-320.5 760.07,-320.5 755.88,-320.5 751.67,-316.3 751.67,-312.1 751.67,-312.1 751.67,-303.7 751.67,-303.7 751.67,-299.5 755.88,-295.3 760.07,-295.3 760.07,-295.3 879.93,-295.3 879.93,-295.3 884.12,-295.3 888.33,-299.5 888.33,-303.7 888.33,-303.7 888.33,-312.1 888.33,-312.1 888.33,-316.3 884.12,-320.5 879.93,-320.5"/>
<text xml:space="preserve" text-anchor="middle" x="820" y="-304.8" font-family="Helvetica,sans-Serif" font-size="8.00">CORE&#45;agent&#45;handoff&#45;protocol &#45; M</text>
</g>
<!-- cool_ideas_CORE_auto_focus -->
<g id="node7" class="node">
<title>cool_ideas_CORE_auto_focus</title>
<path fill="#d4e8f7" stroke="black" d="M983.68,-320.5C983.68,-320.5 910.32,-320.5 910.32,-320.5 906.12,-320.5 901.92,-316.3 901.92,-312.1 901.92,-312.1 901.92,-303.7 901.92,-303.7 901.92,-299.5 906.12,-295.3 910.32,-295.3 910.32,-295.3 983.68,-295.3 983.68,-295.3 987.88,-295.3 992.08,-299.5 992.08,-303.7 992.08,-303.7 992.08,-312.1 992.08,-312.1 992.08,-316.3 987.88,-320.5 983.68,-320.5"/>
<text xml:space="preserve" text-anchor="middle" x="947" y="-304.8" font-family="Helvetica,sans-Serif" font-size="8.00">CORE&#45;auto&#45;focus &#45; L</text>
</g>
<!-- cool_ideas_CORE_backlog_status_tool -->
<g id="node8" class="node">
<title>cool_ideas_CORE_backlog_status_tool</title>
<path fill="#d4e8f7" stroke="black" d="M1117.67,-320.5C1117.67,-320.5 1014.32,-320.5 1014.32,-320.5 1010.12,-320.5 1005.92,-316.3 1005.92,-312.1 1005.92,-312.1 1005.92,-303.7 1005.92,-303.7 1005.92,-299.5 1010.12,-295.3 1014.32,-295.3 1014.32,-295.3 1117.67,-295.3 1117.67,-295.3 1121.88,-295.3 1126.08,-299.5 1126.08,-303.7 1126.08,-303.7 1126.08,-312.1 1126.08,-312.1 1126.08,-316.3 1121.88,-320.5 1117.67,-320.5"/>
<text xml:space="preserve" text-anchor="middle" x="1066" y="-304.8" font-family="Helvetica,sans-Serif" font-size="8.00">CORE&#45;backlog&#45;status&#45;tool &#45; S</text>
</g>
<!-- cool_ideas_CORE_capture_range -->
<g id="node9" class="node">
<title>cool_ideas_CORE_capture_range</title>
<path fill="#d4e8f7" stroke="black" d="M1235.8,-320.5C1235.8,-320.5 1148.2,-320.5 1148.2,-320.5 1144,-320.5 1139.8,-316.3 1139.8,-312.1 1139.8,-312.1 1139.8,-303.7 1139.8,-303.7 1139.8,-299.5 1144,-295.3 1148.2,-295.3 1148.2,-295.3 1235.8,-295.3 1235.8,-295.3 1240,-295.3 1244.2,-299.5 1244.2,-303.7 1244.2,-303.7 1244.2,-312.1 1244.2,-312.1 1244.2,-316.3 1240,-320.5 1235.8,-320.5"/>
<text xml:space="preserve" text-anchor="middle" x="1192" y="-304.8" font-family="Helvetica,sans-Serif" font-size="8.00">CORE&#45;capture&#45;range &#45; S</text>
</g>
<!-- cool_ideas_CORE_constructor_in_disguise_lint -->
<g id="node10" class="node">
<title>cool_ideas_CORE_constructor_in_disguise_lint</title>
<path fill="#d4e8f7" stroke="black" d="M1397.55,-320.5C1397.55,-320.5 1266.45,-320.5 1266.45,-320.5 1262.25,-320.5 1258.05,-316.3 1258.05,-312.1 1258.05,-312.1 1258.05,-303.7 1258.05,-303.7 1258.05,-299.5 1262.25,-295.3 1266.45,-295.3 1266.45,-295.3 1397.55,-295.3 1397.55,-295.3 1401.75,-295.3 1405.95,-299.5 1405.95,-303.7 1405.95,-303.7 1405.95,-312.1 1405.95,-312.1 1405.95,-316.3 1401.75,-320.5 1397.55,-320.5"/>
<text xml:space="preserve" text-anchor="middle" x="1332" y="-304.8" font-family="Helvetica,sans-Serif" font-size="8.00">CORE&#45;constructor&#45;in&#45;disguise&#45;lint &#45; M</text>
</g>
<!-- cool_ideas_CORE_context_budget_forecasting -->
<g id="node11" class="node">
<title>cool_ideas_CORE_context_budget_forecasting</title>
<path fill="#d4e8f7" stroke="black" d="M1561.67,-320.5C1561.67,-320.5 1428.33,-320.5 1428.33,-320.5 1424.12,-320.5 1419.92,-316.3 1419.92,-312.1 1419.92,-312.1 1419.92,-303.7 1419.92,-303.7 1419.92,-299.5 1424.12,-295.3 1428.33,-295.3 1428.33,-295.3 1561.67,-295.3 1561.67,-295.3 1565.88,-295.3 1570.08,-299.5 1570.08,-303.7 1570.08,-303.7 1570.08,-312.1 1570.08,-312.1 1570.08,-316.3 1565.88,-320.5 1561.67,-320.5"/>
<text xml:space="preserve" text-anchor="middle" x="1495" y="-304.8" font-family="Helvetica,sans-Serif" font-size="8.00">CORE&#45;context&#45;budget&#45;forecasting &#45; M</text>
</g>
<!-- cool_ideas_CORE_conversation_primer -->
<g id="node12" class="node">
<title>cool_ideas_CORE_conversation_primer</title>
<path fill="#d4e8f7" stroke="black" d="M1701.67,-320.5C1701.67,-320.5 1592.33,-320.5 1592.33,-320.5 1588.12,-320.5 1583.92,-316.3 1583.92,-312.1 1583.92,-312.1 1583.92,-303.7 1583.92,-303.7 1583.92,-299.5 1588.12,-295.3 1592.33,-295.3 1592.33,-295.3 1701.67,-295.3 1701.67,-295.3 1705.88,-295.3 1710.08,-299.5 1710.08,-303.7 1710.08,-303.7 1710.08,-312.1 1710.08,-312.1 1710.08,-316.3 1705.88,-320.5 1701.67,-320.5"/>
<text xml:space="preserve" text-anchor="middle" x="1647" y="-304.8" font-family="Helvetica,sans-Serif" font-size="8.00">CORE&#45;conversation&#45;primer &#45; M</text>
</g>
<!-- cool_ideas_CORE_cross_session_resume -->
<g id="node13" class="node">
<title>cool_ideas_CORE_cross_session_resume</title>
<path fill="#d4e8f7" stroke="black" d="M1847.3,-320.5C1847.3,-320.5 1732.7,-320.5 1732.7,-320.5 1728.5,-320.5 1724.3,-316.3 1724.3,-312.1 1724.3,-312.1 1724.3,-303.7 1724.3,-303.7 1724.3,-299.5 1728.5,-295.3 1732.7,-295.3 1732.7,-295.3 1847.3,-295.3 1847.3,-295.3 1851.5,-295.3 1855.7,-299.5 1855.7,-303.7 1855.7,-303.7 1855.7,-312.1 1855.7,-312.1 1855.7,-316.3 1851.5,-320.5 1847.3,-320.5"/>
<text xml:space="preserve" text-anchor="middle" x="1790" y="-304.8" font-family="Helvetica,sans-Serif" font-size="8.00">CORE&#45;cross&#45;session&#45;resume &#45; S</text>
</g>
<!-- cool_ideas_CORE_graft_as_teacher -->
<g id="node14" class="node">
<title>cool_ideas_CORE_graft_as_teacher</title>
<path fill="#d4e8f7" stroke="black" d="M1972.17,-320.5C1972.17,-320.5 1877.83,-320.5 1877.83,-320.5 1873.62,-320.5 1869.42,-316.3 1869.42,-312.1 1869.42,-312.1 1869.42,-303.7 1869.42,-303.7 1869.42,-299.5 1873.62,-295.3 1877.83,-295.3 1877.83,-295.3 1972.17,-295.3 1972.17,-295.3 1976.38,-295.3 1980.58,-299.5 1980.58,-303.7 1980.58,-303.7 1980.58,-312.1 1980.58,-312.1 1980.58,-316.3 1976.38,-320.5 1972.17,-320.5"/>
<text xml:space="preserve" text-anchor="middle" x="1925" y="-304.8" font-family="Helvetica,sans-Serif" font-size="8.00">CORE&#45;graft&#45;as&#45;teacher &#45; S</text>
</g>
<!-- cool_ideas_CORE_graft_doctor -->
<g id="node15" class="node">
<title>cool_ideas_CORE_graft_doctor</title>
<path fill="#d4e8f7" stroke="black" d="M2083.05,-320.5C2083.05,-320.5 2002.95,-320.5 2002.95,-320.5 1998.75,-320.5 1994.55,-316.3 1994.55,-312.1 1994.55,-312.1 1994.55,-303.7 1994.55,-303.7 1994.55,-299.5 1998.75,-295.3 2002.95,-295.3 2002.95,-295.3 2083.05,-295.3 2083.05,-295.3 2087.25,-295.3 2091.45,-299.5 2091.45,-303.7 2091.45,-303.7 2091.45,-312.1 2091.45,-312.1 2091.45,-316.3 2087.25,-320.5 2083.05,-320.5"/>
<text xml:space="preserve" text-anchor="middle" x="2043" y="-304.8" font-family="Helvetica,sans-Serif" font-size="8.00">CORE&#45;graft&#45;doctor &#45; M</text>
</g>
<!-- cool_ideas_CORE_graft_teach_learning_receipts -->
<g id="node16" class="node">
<title>cool_ideas_CORE_graft_teach_learning_receipts</title>
<path fill="#d4e8f7" stroke="black" d="M2251.92,-320.5C2251.92,-320.5 2114.08,-320.5 2114.08,-320.5 2109.88,-320.5 2105.68,-316.3 2105.68,-312.1 2105.68,-312.1 2105.68,-303.7 2105.68,-303.7 2105.68,-299.5 2109.88,-295.3 2114.08,-295.3 2114.08,-295.3 2251.92,-295.3 2251.92,-295.3 2256.12,-295.3 2260.32,-299.5 2260.32,-303.7 2260.32,-303.7 2260.32,-312.1 2260.32,-312.1 2260.32,-316.3 2256.12,-320.5 2251.92,-320.5"/>
<text xml:space="preserve" text-anchor="middle" x="2183" y="-304.8" font-family="Helvetica,sans-Serif" font-size="8.00">CORE&#45;graft&#45;teach&#45;learning&#45;receipts &#45; S</text>
</g>
<!-- cool_ideas_CORE_horizon_of_readability -->
<g id="node17" class="node">
<title>cool_ideas_CORE_horizon_of_readability</title>
<path fill="#d4e8f7" stroke="black" d="M2395.55,-320.5C2395.55,-320.5 2282.45,-320.5 2282.45,-320.5 2278.25,-320.5 2274.05,-316.3 2274.05,-312.1 2274.05,-312.1 2274.05,-303.7 2274.05,-303.7 2274.05,-299.5 2278.25,-295.3 2282.45,-295.3 2282.45,-295.3 2395.55,-295.3 2395.55,-295.3 2399.75,-295.3 2403.95,-299.5 2403.95,-303.7 2403.95,-303.7 2403.95,-312.1 2403.95,-312.1 2403.95,-316.3 2399.75,-320.5 2395.55,-320.5"/>
<text xml:space="preserve" text-anchor="middle" x="2339" y="-304.8" font-family="Helvetica,sans-Serif" font-size="8.00">CORE&#45;horizon&#45;of&#45;readability &#45; M</text>
</g>
<!-- cool_ideas_CORE_lagrangian_policy -->
<g id="node18" class="node">
<title>cool_ideas_CORE_lagrangian_policy</title>
<path fill="#d4e8f7" stroke="black" d="M2527.55,-320.5C2527.55,-320.5 2426.45,-320.5 2426.45,-320.5 2422.25,-320.5 2418.05,-316.3 2418.05,-312.1 2418.05,-312.1 2418.05,-303.7 2418.05,-303.7 2418.05,-299.5 2422.25,-295.3 2426.45,-295.3 2426.45,-295.3 2527.55,-295.3 2527.55,-295.3 2531.75,-295.3 2535.95,-299.5 2535.95,-303.7 2535.95,-303.7 2535.95,-312.1 2535.95,-312.1 2535.95,-316.3 2531.75,-320.5 2527.55,-320.5"/>
<text xml:space="preserve" text-anchor="middle" x="2477" y="-304.8" font-family="Helvetica,sans-Serif" font-size="8.00">CORE&#45;lagrangian&#45;policy &#45; XL</text>
</g>
<!-- cool_ideas_CORE_migrate_to_slice_first_reads -->
<g id="node19" class="node">
<title>cool_ideas_CORE_migrate_to_slice_first_reads</title>
<path fill="#d4e8f7" stroke="black" d="M9711.8,-247.05C9711.8,-247.05 9594.2,-247.05 9594.2,-247.05 9590,-247.05 9585.8,-242.85 9585.8,-238.65 9585.8,-238.65 9585.8,-230.25 9585.8,-230.25 9585.8,-226.05 9590,-221.85 9594.2,-221.85 9594.2,-221.85 9711.8,-221.85 9711.8,-221.85 9716,-221.85 9720.2,-226.05 9720.2,-230.25 9720.2,-230.25 9720.2,-238.65 9720.2,-238.65 9720.2,-242.85 9716,-247.05 9711.8,-247.05"/>
<text xml:space="preserve" text-anchor="middle" x="9653" y="-231.35" font-family="Helvetica,sans-Serif" font-size="8.00">CORE&#45;migrate&#45;to&#45;slice&#45;first&#45;reads</text>
</g>
<!-- cool_ideas_CORE_multi_agent_conflict_detection -->
<g id="node20" class="node">
<title>cool_ideas_CORE_multi_agent_conflict_detection</title>
<path fill="#d4e8f7" stroke="black" d="M2695.92,-320.5C2695.92,-320.5 2558.08,-320.5 2558.08,-320.5 2553.88,-320.5 2549.68,-316.3 2549.68,-312.1 2549.68,-312.1 2549.68,-303.7 2549.68,-303.7 2549.68,-299.5 2553.88,-295.3 2558.08,-295.3 2558.08,-295.3 2695.92,-295.3 2695.92,-295.3 2700.12,-295.3 2704.32,-299.5 2704.32,-303.7 2704.32,-303.7 2704.32,-312.1 2704.32,-312.1 2704.32,-316.3 2700.12,-320.5 2695.92,-320.5"/>
<text xml:space="preserve" text-anchor="middle" x="2627" y="-304.8" font-family="Helvetica,sans-Serif" font-size="8.00">CORE&#45;multi&#45;agent&#45;conflict&#45;detection &#45; L</text>
</g>
<!-- cool_ideas_CORE_policy_playground -->
<g id="node21" class="node">
<title>cool_ideas_CORE_policy_playground</title>
<path fill="#d4e8f7" stroke="black" d="M2825.42,-320.5C2825.42,-320.5 2726.58,-320.5 2726.58,-320.5 2722.38,-320.5 2718.18,-316.3 2718.18,-312.1 2718.18,-312.1 2718.18,-303.7 2718.18,-303.7 2718.18,-299.5 2722.38,-295.3 2726.58,-295.3 2726.58,-295.3 2825.42,-295.3 2825.42,-295.3 2829.62,-295.3 2833.82,-299.5 2833.82,-303.7 2833.82,-303.7 2833.82,-312.1 2833.82,-312.1 2833.82,-316.3 2829.62,-320.5 2825.42,-320.5"/>
<text xml:space="preserve" text-anchor="middle" x="2776" y="-304.8" font-family="Helvetica,sans-Serif" font-size="8.00">CORE&#45;policy&#45;playground &#45; S</text>
</g>
<!-- cool_ideas_CORE_policy_profiles -->
<g id="node22" class="node">
<title>cool_ideas_CORE_policy_profiles</title>
<path fill="#d4e8f7" stroke="black" d="M2942.05,-320.5C2942.05,-320.5 2855.95,-320.5 2855.95,-320.5 2851.75,-320.5 2847.55,-316.3 2847.55,-312.1 2847.55,-312.1 2847.55,-303.7 2847.55,-303.7 2847.55,-299.5 2851.75,-295.3 2855.95,-295.3 2855.95,-295.3 2942.05,-295.3 2942.05,-295.3 2946.25,-295.3 2950.45,-299.5 2950.45,-303.7 2950.45,-303.7 2950.45,-312.1 2950.45,-312.1 2950.45,-316.3 2946.25,-320.5 2942.05,-320.5"/>
<text xml:space="preserve" text-anchor="middle" x="2899" y="-304.8" font-family="Helvetica,sans-Serif" font-size="8.00">CORE&#45;policy&#45;profiles &#45; M</text>
</g>
<!-- cool_ideas_CORE_pr_review_structural_summary -->
<g id="node23" class="node">
<title>cool_ideas_CORE_pr_review_structural_summary</title>
<path fill="#d4e8f7" stroke="black" d="M3116.92,-320.5C3116.92,-320.5 2973.08,-320.5 2973.08,-320.5 2968.88,-320.5 2964.68,-316.3 2964.68,-312.1 2964.68,-312.1 2964.68,-303.7 2964.68,-303.7 2964.68,-299.5 2968.88,-295.3 2973.08,-295.3 2973.08,-295.3 3116.92,-295.3 3116.92,-295.3 3121.12,-295.3 3125.32,-299.5 3125.32,-303.7 3125.32,-303.7 3125.32,-312.1 3125.32,-312.1 3125.32,-316.3 3121.12,-320.5 3116.92,-320.5"/>
<text xml:space="preserve" text-anchor="middle" x="3045" y="-304.8" font-family="Helvetica,sans-Serif" font-size="8.00">CORE&#45;pr&#45;review&#45;structural&#45;summary &#45; M</text>
</g>
<!-- cool_ideas_CORE_self_tuning_governor -->
<g id="node24" class="node">
<title>cool_ideas_CORE_self_tuning_governor</title>
<path fill="#d4e8f7" stroke="black" d="M3258.05,-320.5C3258.05,-320.5 3147.95,-320.5 3147.95,-320.5 3143.75,-320.5 3139.55,-316.3 3139.55,-312.1 3139.55,-312.1 3139.55,-303.7 3139.55,-303.7 3139.55,-299.5 3143.75,-295.3 3147.95,-295.3 3147.95,-295.3 3258.05,-295.3 3258.05,-295.3 3262.25,-295.3 3266.45,-299.5 3266.45,-303.7 3266.45,-303.7 3266.45,-312.1 3266.45,-312.1 3266.45,-316.3 3262.25,-320.5 3258.05,-320.5"/>
<text xml:space="preserve" text-anchor="middle" x="3203" y="-304.8" font-family="Helvetica,sans-Serif" font-size="8.00">CORE&#45;self&#45;tuning&#45;governor &#45; M</text>
</g>
<!-- cool_ideas_CORE_session_knowledge_map -->
<g id="node25" class="node">
<title>cool_ideas_CORE_session_knowledge_map</title>
<path fill="#d4e8f7" stroke="black" d="M3411.42,-320.5C3411.42,-320.5 3288.58,-320.5 3288.58,-320.5 3284.38,-320.5 3280.18,-316.3 3280.18,-312.1 3280.18,-312.1 3280.18,-303.7 3280.18,-303.7 3280.18,-299.5 3284.38,-295.3 3288.58,-295.3 3288.58,-295.3 3411.42,-295.3 3411.42,-295.3 3415.62,-295.3 3419.82,-299.5 3419.82,-303.7 3419.82,-303.7 3419.82,-312.1 3419.82,-312.1 3419.82,-316.3 3415.62,-320.5 3411.42,-320.5"/>
<text xml:space="preserve" text-anchor="middle" x="3350" y="-304.8" font-family="Helvetica,sans-Serif" font-size="8.00">CORE&#45;session&#45;knowledge&#45;map &#45; S</text>
</g>
<!-- cool_ideas_CORE_speculative_read_cost -->
<g id="node26" class="node">
<title>cool_ideas_CORE_speculative_read_cost</title>
<path fill="#d4e8f7" stroke="black" d="M3554.17,-320.5C3554.17,-320.5 3441.83,-320.5 3441.83,-320.5 3437.62,-320.5 3433.43,-316.3 3433.43,-312.1 3433.43,-312.1 3433.43,-303.7 3433.43,-303.7 3433.43,-299.5 3437.62,-295.3 3441.83,-295.3 3441.83,-295.3 3554.17,-295.3 3554.17,-295.3 3558.38,-295.3 3562.57,-299.5 3562.57,-303.7 3562.57,-303.7 3562.57,-312.1 3562.57,-312.1 3562.57,-316.3 3558.38,-320.5 3554.17,-320.5"/>
<text xml:space="preserve" text-anchor="middle" x="3498" y="-304.8" font-family="Helvetica,sans-Serif" font-size="8.00">CORE&#45;speculative&#45;read&#45;cost &#45; S</text>
</g>
<!-- cool_ideas_CORE_structural_session_replay -->
<g id="node27" class="node">
<title>cool_ideas_CORE_structural_session_replay</title>
<path fill="#d4e8f7" stroke="black" d="M3710.55,-320.5C3710.55,-320.5 3585.45,-320.5 3585.45,-320.5 3581.25,-320.5 3577.05,-316.3 3577.05,-312.1 3577.05,-312.1 3577.05,-303.7 3577.05,-303.7 3577.05,-299.5 3581.25,-295.3 3585.45,-295.3 3585.45,-295.3 3710.55,-295.3 3710.55,-295.3 3714.75,-295.3 3718.95,-299.5 3718.95,-303.7 3718.95,-303.7 3718.95,-312.1 3718.95,-312.1 3718.95,-316.3 3714.75,-320.5 3710.55,-320.5"/>
<text xml:space="preserve" text-anchor="middle" x="3648" y="-304.8" font-family="Helvetica,sans-Serif" font-size="8.00">CORE&#45;structural&#45;session&#45;replay &#45; M</text>
</g>
<!-- cool_ideas_CORE_structural_test_coverage_map -->
<g id="node28" class="node">
<title>cool_ideas_CORE_structural_test_coverage_map</title>
<path fill="#d4e8f7" stroke="black" d="M3882.8,-320.5C3882.8,-320.5 3741.2,-320.5 3741.2,-320.5 3737,-320.5 3732.8,-316.3 3732.8,-312.1 3732.8,-312.1 3732.8,-303.7 3732.8,-303.7 3732.8,-299.5 3737,-295.3 3741.2,-295.3 3741.2,-295.3 3882.8,-295.3 3882.8,-295.3 3887,-295.3 3891.2,-299.5 3891.2,-303.7 3891.2,-303.7 3891.2,-312.1 3891.2,-312.1 3891.2,-316.3 3887,-320.5 3882.8,-320.5"/>
<text xml:space="preserve" text-anchor="middle" x="3812" y="-304.8" font-family="Helvetica,sans-Serif" font-size="8.00">CORE&#45;structural&#45;test&#45;coverage&#45;map &#45; M</text>
</g>
<!-- cool_ideas_CORE_wire_primitives_into_runtime -->
<g id="node29" class="node">
<title>cool_ideas_CORE_wire_primitives_into_runtime</title>
<path fill="#d4e8f7" stroke="black" d="M4048.42,-320.5C4048.42,-320.5 3913.58,-320.5 3913.58,-320.5 3909.38,-320.5 3905.18,-316.3 3905.18,-312.1 3905.18,-312.1 3905.18,-303.7 3905.18,-303.7 3905.18,-299.5 3909.38,-295.3 3913.58,-295.3 3913.58,-295.3 4048.42,-295.3 4048.42,-295.3 4052.62,-295.3 4056.82,-299.5 4056.82,-303.7 4056.82,-303.7 4056.82,-312.1 4056.82,-312.1 4056.82,-316.3 4052.62,-320.5 4048.42,-320.5"/>
<text xml:space="preserve" text-anchor="middle" x="3981" y="-304.8" font-family="Helvetica,sans-Serif" font-size="8.00">CORE&#45;wire&#45;primitives&#45;into&#45;runtime &#45; M</text>
</g>
<!-- cool_ideas_monitor_tick_ceiling_tracking -->
<g id="node30" class="node">
<title>cool_ideas_monitor_tick_ceiling_tracking</title>
<path fill="#d4e8f7" stroke="black" d="M4186.55,-320.5C4186.55,-320.5 4079.45,-320.5 4079.45,-320.5 4075.25,-320.5 4071.05,-316.3 4071.05,-312.1 4071.05,-312.1 4071.05,-303.7 4071.05,-303.7 4071.05,-299.5 4075.25,-295.3 4079.45,-295.3 4079.45,-295.3 4186.55,-295.3 4186.55,-295.3 4190.75,-295.3 4194.95,-299.5 4194.95,-303.7 4194.95,-303.7 4194.95,-312.1 4194.95,-312.1 4194.95,-316.3 4190.75,-320.5 4186.55,-320.5"/>
<text xml:space="preserve" text-anchor="middle" x="4133" y="-304.8" font-family="Helvetica,sans-Serif" font-size="8.00">monitor&#45;tick&#45;ceiling&#45;tracking &#45; S</text>
</g>
<!-- cool_ideas_WARP_background_indexing -->
<g id="node46" class="node">
<title>cool_ideas_WARP_background_indexing</title>
<path fill="#d4e8f7" stroke="black" d="M4189.55,-247.05C4189.55,-247.05 4076.45,-247.05 4076.45,-247.05 4072.25,-247.05 4068.05,-242.85 4068.05,-238.65 4068.05,-238.65 4068.05,-230.25 4068.05,-230.25 4068.05,-226.05 4072.25,-221.85 4076.45,-221.85 4076.45,-221.85 4189.55,-221.85 4189.55,-221.85 4193.75,-221.85 4197.95,-226.05 4197.95,-230.25 4197.95,-230.25 4197.95,-238.65 4197.95,-238.65 4197.95,-242.85 4193.75,-247.05 4189.55,-247.05"/>
<text xml:space="preserve" text-anchor="middle" x="4133" y="-231.35" font-family="Helvetica,sans-Serif" font-size="8.00">WARP&#45;background&#45;indexing &#45; M</text>
</g>
<!-- cool_ideas_monitor_tick_ceiling_tracking&#45;&gt;cool_ideas_WARP_background_indexing -->
<g id="edge1" class="edge">
<title>cool_ideas_monitor_tick_ceiling_tracking&#45;&gt;cool_ideas_WARP_background_indexing</title>
<path fill="none" stroke="#666666" d="M4133,-295.1C4133,-283.9 4133,-266.88 4133,-253.88"/>
<polygon fill="#666666" stroke="#666666" points="4134.75,-254.02 4133,-249.02 4131.25,-254.02 4134.75,-254.02"/>
<text xml:space="preserve" text-anchor="middle" x="4164.5" y="-268.65" font-family="Helvetica,sans-Serif" font-size="7.00">blocked_by/blocking</text>
</g>
<!-- cool_ideas_SURFACE_active_causal_workspace_status -->
<g id="node31" class="node">
<title>cool_ideas_SURFACE_active_causal_workspace_status</title>
<path fill="#d4e8f7" stroke="black" d="M4381.05,-320.5C4381.05,-320.5 4216.95,-320.5 4216.95,-320.5 4212.75,-320.5 4208.55,-316.3 4208.55,-312.1 4208.55,-312.1 4208.55,-303.7 4208.55,-303.7 4208.55,-299.5 4212.75,-295.3 4216.95,-295.3 4216.95,-295.3 4381.05,-295.3 4381.05,-295.3 4385.25,-295.3 4389.45,-299.5 4389.45,-303.7 4389.45,-303.7 4389.45,-312.1 4389.45,-312.1 4389.45,-316.3 4385.25,-320.5 4381.05,-320.5"/>
<text xml:space="preserve" text-anchor="middle" x="4299" y="-304.8" font-family="Helvetica,sans-Serif" font-size="8.00">SURFACE&#45;active&#45;causal&#45;workspace&#45;status &#45; M</text>
</g>
<!-- cool_ideas_SURFACE_ide_native_graft_integration -->
<g id="node37" class="node">
<title>cool_ideas_SURFACE_ide_native_graft_integration</title>
<path fill="#d4e8f7" stroke="black" d="M4374.3,-247.05C4374.3,-247.05 4223.7,-247.05 4223.7,-247.05 4219.5,-247.05 4215.3,-242.85 4215.3,-238.65 4215.3,-238.65 4215.3,-230.25 4215.3,-230.25 4215.3,-226.05 4219.5,-221.85 4223.7,-221.85 4223.7,-221.85 4374.3,-221.85 4374.3,-221.85 4378.5,-221.85 4382.7,-226.05 4382.7,-230.25 4382.7,-230.25 4382.7,-238.65 4382.7,-238.65 4382.7,-242.85 4378.5,-247.05 4374.3,-247.05"/>
<text xml:space="preserve" text-anchor="middle" x="4299" y="-231.35" font-family="Helvetica,sans-Serif" font-size="8.00">SURFACE&#45;ide&#45;native&#45;graft&#45;integration &#45; XL</text>
</g>
<!-- cool_ideas_SURFACE_active_causal_workspace_status&#45;&gt;cool_ideas_SURFACE_ide_native_graft_integration -->
<g id="edge2" class="edge">
<title>cool_ideas_SURFACE_active_causal_workspace_status&#45;&gt;cool_ideas_SURFACE_ide_native_graft_integration</title>
<path fill="none" stroke="#666666" d="M4299,-295.1C4299,-283.9 4299,-266.88 4299,-253.88"/>
<polygon fill="#666666" stroke="#666666" points="4300.75,-254.02 4299,-249.02 4297.25,-254.02 4300.75,-254.02"/>
<text xml:space="preserve" text-anchor="middle" x="4330.5" y="-268.65" font-family="Helvetica,sans-Serif" font-size="7.00">blocked_by/blocking</text>
</g>
<!-- cool_ideas_SURFACE_attach_to_existing_causal_session -->
<g id="node32" class="node">
<title>cool_ideas_SURFACE_attach_to_existing_causal_session</title>
<path fill="#d4e8f7" stroke="black" d="M4580.3,-320.5C4580.3,-320.5 4411.7,-320.5 4411.7,-320.5 4407.5,-320.5 4403.3,-316.3 4403.3,-312.1 4403.3,-312.1 4403.3,-303.7 4403.3,-303.7 4403.3,-299.5 4407.5,-295.3 4411.7,-295.3 4411.7,-295.3 4580.3,-295.3 4580.3,-295.3 4584.5,-295.3 4588.7,-299.5 4588.7,-303.7 4588.7,-303.7 4588.7,-312.1 4588.7,-312.1 4588.7,-316.3 4584.5,-320.5 4580.3,-320.5"/>
<text xml:space="preserve" text-anchor="middle" x="4496" y="-304.8" font-family="Helvetica,sans-Serif" font-size="8.00">SURFACE&#45;attach&#45;to&#45;existing&#45;causal&#45;session &#45; M</text>
</g>
<!-- cool_ideas_SURFACE_bijou_daemon_control_plane_actions -->
<g id="node33" class="node">
<title>cool_ideas_SURFACE_bijou_daemon_control_plane_actions</title>
<path fill="#d4e8f7" stroke="black" d="M4788.43,-320.5C4788.43,-320.5 4611.57,-320.5 4611.57,-320.5 4607.38,-320.5 4603.18,-316.3 4603.18,-312.1 4603.18,-312.1 4603.18,-303.7 4603.18,-303.7 4603.18,-299.5 4607.38,-295.3 4611.57,-295.3 4611.57,-295.3 4788.43,-295.3 4788.43,-295.3 4792.62,-295.3 4796.82,-299.5 4796.82,-303.7 4796.82,-303.7 4796.82,-312.1 4796.82,-312.1 4796.82,-316.3 4792.62,-320.5 4788.43,-320.5"/>
<text xml:space="preserve" text-anchor="middle" x="4700" y="-304.8" font-family="Helvetica,sans-Serif" font-size="8.00">SURFACE&#45;bijou&#45;daemon&#45;control&#45;plane&#45;actions &#45; L</text>
</g>
<!-- cool_ideas_SURFACE_bijou_daemon_status_live_refresh -->
<g id="node34" class="node">
<title>cool_ideas_SURFACE_bijou_daemon_status_live_refresh</title>
<path fill="#d4e8f7" stroke="black" d="M4988.3,-320.5C4988.3,-320.5 4819.7,-320.5 4819.7,-320.5 4815.5,-320.5 4811.3,-316.3 4811.3,-312.1 4811.3,-312.1 4811.3,-303.7 4811.3,-303.7 4811.3,-299.5 4815.5,-295.3 4819.7,-295.3 4819.7,-295.3 4988.3,-295.3 4988.3,-295.3 4992.5,-295.3 4996.7,-299.5 4996.7,-303.7 4996.7,-303.7 4996.7,-312.1 4996.7,-312.1 4996.7,-316.3 4992.5,-320.5 4988.3,-320.5"/>
<text xml:space="preserve" text-anchor="middle" x="4904" y="-304.8" font-family="Helvetica,sans-Serif" font-size="8.00">SURFACE&#45;bijou&#45;daemon&#45;status&#45;live&#45;refresh &#45; M</text>
</g>
<!-- cool_ideas_SURFACE_git_graft_enhance_expanded_git_subcommands -->
<g id="node35" class="node">
<title>cool_ideas_SURFACE_git_graft_enhance_expanded_git_subcommands</title>
<path fill="#d4e8f7" stroke="black" d="M5223.3,-320.5C5223.3,-320.5 5018.7,-320.5 5018.7,-320.5 5014.5,-320.5 5010.3,-316.3 5010.3,-312.1 5010.3,-312.1 5010.3,-303.7 5010.3,-303.7 5010.3,-299.5 5014.5,-295.3 5018.7,-295.3 5018.7,-295.3 5223.3,-295.3 5223.3,-295.3 5227.5,-295.3 5231.7,-299.5 5231.7,-303.7 5231.7,-303.7 5231.7,-312.1 5231.7,-312.1 5231.7,-316.3 5227.5,-320.5 5223.3,-320.5"/>
<text xml:space="preserve" text-anchor="middle" x="5121" y="-304.8" font-family="Helvetica,sans-Serif" font-size="8.00">SURFACE&#45;git&#45;graft&#45;enhance&#45;expanded&#45;git&#45;subcommands</text>
</g>
<!-- cool_ideas_SURFACE_git_graft_enhance_provenance_hints -->
<g id="node36" class="node">
<title>cool_ideas_SURFACE_git_graft_enhance_provenance_hints</title>
<path fill="#d4e8f7" stroke="black" d="M5419.43,-320.5C5419.43,-320.5 5254.57,-320.5 5254.57,-320.5 5250.38,-320.5 5246.18,-316.3 5246.18,-312.1 5246.18,-312.1 5246.18,-303.7 5246.18,-303.7 5246.18,-299.5 5250.38,-295.3 5254.57,-295.3 5254.57,-295.3 5419.43,-295.3 5419.43,-295.3 5423.62,-295.3 5427.82,-299.5 5427.82,-303.7 5427.82,-303.7 5427.82,-312.1 5427.82,-312.1 5427.82,-316.3 5423.62,-320.5 5419.43,-320.5"/>
<text xml:space="preserve" text-anchor="middle" x="5337" y="-304.8" font-family="Helvetica,sans-Serif" font-size="8.00">SURFACE&#45;git&#45;graft&#45;enhance&#45;provenance&#45;hints</text>
</g>
<!-- cool_ideas_SURFACE_local_history_dag_render_mode_and_count_legend -->
<g id="node38" class="node">
<title>cool_ideas_SURFACE_local_history_dag_render_mode_and_count_legend</title>
<path fill="#d4e8f7" stroke="black" d="M5676.18,-320.5C5676.18,-320.5 5449.82,-320.5 5449.82,-320.5 5445.62,-320.5 5441.43,-316.3 5441.43,-312.1 5441.43,-312.1 5441.43,-303.7 5441.43,-303.7 5441.43,-299.5 5445.62,-295.3 5449.82,-295.3 5449.82,-295.3 5676.18,-295.3 5676.18,-295.3 5680.38,-295.3 5684.57,-299.5 5684.57,-303.7 5684.57,-303.7 5684.57,-312.1 5684.57,-312.1 5684.57,-316.3 5680.38,-320.5 5676.18,-320.5"/>
<text xml:space="preserve" text-anchor="middle" x="5563" y="-304.8" font-family="Helvetica,sans-Serif" font-size="8.00">SURFACE&#45;local&#45;history&#45;dag&#45;render&#45;mode&#45;and&#45;count&#45;legend &#45; S</text>
</g>
<!-- cool_ideas_SURFACE_non_codex_instruction_bootstrap_parity -->
<g id="node39" class="node">
<title>cool_ideas_SURFACE_non_codex_instruction_bootstrap_parity</title>
<path fill="#d4e8f7" stroke="black" d="M5895.43,-320.5C5895.43,-320.5 5706.57,-320.5 5706.57,-320.5 5702.38,-320.5 5698.18,-316.3 5698.18,-312.1 5698.18,-312.1 5698.18,-303.7 5698.18,-303.7 5698.18,-299.5 5702.38,-295.3 5706.57,-295.3 5706.57,-295.3 5895.43,-295.3 5895.43,-295.3 5899.62,-295.3 5903.82,-299.5 5903.82,-303.7 5903.82,-303.7 5903.82,-312.1 5903.82,-312.1 5903.82,-316.3 5899.62,-320.5 5895.43,-320.5"/>
<text xml:space="preserve" text-anchor="middle" x="5801" y="-304.8" font-family="Helvetica,sans-Serif" font-size="8.00">SURFACE&#45;non&#45;codex&#45;instruction&#45;bootstrap&#45;parity &#45; M</text>
</g>
<!-- cool_ideas_SURFACE_offer_rename_refactor -->
<g id="node40" class="node">
<title>cool_ideas_SURFACE_offer_rename_refactor</title>
<path fill="#d4e8f7" stroke="black" d="M6055.43,-320.5C6055.43,-320.5 5926.57,-320.5 5926.57,-320.5 5922.38,-320.5 5918.18,-316.3 5918.18,-312.1 5918.18,-312.1 5918.18,-303.7 5918.18,-303.7 5918.18,-299.5 5922.38,-295.3 5926.57,-295.3 5926.57,-295.3 6055.43,-295.3 6055.43,-295.3 6059.62,-295.3 6063.82,-299.5 6063.82,-303.7 6063.82,-303.7 6063.82,-312.1 6063.82,-312.1 6063.82,-316.3 6059.62,-320.5 6055.43,-320.5"/>
<text xml:space="preserve" text-anchor="middle" x="5991" y="-304.8" font-family="Helvetica,sans-Serif" font-size="8.00">SURFACE&#45;offer&#45;rename&#45;refactor &#45; L</text>
</g>
<!-- cool_ideas_SURFACE_terminal_activity_browser_tui -->
<g id="node41" class="node">
<title>cool_ideas_SURFACE_terminal_activity_browser_tui</title>
<path fill="#d4e8f7" stroke="black" d="M6235.55,-320.5C6235.55,-320.5 6086.45,-320.5 6086.45,-320.5 6082.25,-320.5 6078.05,-316.3 6078.05,-312.1 6078.05,-312.1 6078.05,-303.7 6078.05,-303.7 6078.05,-299.5 6082.25,-295.3 6086.45,-295.3 6086.45,-295.3 6235.55,-295.3 6235.55,-295.3 6239.75,-295.3 6243.95,-299.5 6243.95,-303.7 6243.95,-303.7 6243.95,-312.1 6243.95,-312.1 6243.95,-316.3 6239.75,-320.5 6235.55,-320.5"/>
<text xml:space="preserve" text-anchor="middle" x="6161" y="-304.8" font-family="Helvetica,sans-Serif" font-size="8.00">SURFACE&#45;terminal&#45;activity&#45;browser&#45;tui &#45; L</text>
</g>
<!-- cool_ideas_traverse_plus_query_hydration_helper -->
<g id="node42" class="node">
<title>cool_ideas_traverse_plus_query_hydration_helper</title>
<path fill="#d4e8f7" stroke="black" d="M6407.8,-320.5C6407.8,-320.5 6266.2,-320.5 6266.2,-320.5 6262,-320.5 6257.8,-316.3 6257.8,-312.1 6257.8,-312.1 6257.8,-303.7 6257.8,-303.7 6257.8,-299.5 6262,-295.3 6266.2,-295.3 6266.2,-295.3 6407.8,-295.3 6407.8,-295.3 6412,-295.3 6416.2,-299.5 6416.2,-303.7 6416.2,-303.7 6416.2,-312.1 6416.2,-312.1 6416.2,-316.3 6412,-320.5 6407.8,-320.5"/>
<text xml:space="preserve" text-anchor="middle" x="6337" y="-304.8" font-family="Helvetica,sans-Serif" font-size="8.00">traverse&#45;plus&#45;query&#45;hydration&#45;helper &#45; S</text>
</g>
<!-- cool_ideas_WARP_adaptive_projection_selection -->
<g id="node43" class="node">
<title>cool_ideas_WARP_adaptive_projection_selection</title>
<path fill="#d4e8f7" stroke="black" d="M6576.93,-320.5C6576.93,-320.5 6439.07,-320.5 6439.07,-320.5 6434.88,-320.5 6430.68,-316.3 6430.68,-312.1 6430.68,-312.1 6430.68,-303.7 6430.68,-303.7 6430.68,-299.5 6434.88,-295.3 6439.07,-295.3 6439.07,-295.3 6576.93,-295.3 6576.93,-295.3 6581.12,-295.3 6585.32,-299.5 6585.32,-303.7 6585.32,-303.7 6585.32,-312.1 6585.32,-312.1 6585.32,-316.3 6581.12,-320.5 6576.93,-320.5"/>
<text xml:space="preserve" text-anchor="middle" x="6508" y="-304.8" font-family="Helvetica,sans-Serif" font-size="8.00">WARP&#45;adaptive&#45;projection&#45;selection &#45; L</text>
</g>
<!-- cool_ideas_WARP_agent_action_provenance -->
<g id="node44" class="node">
<title>cool_ideas_WARP_agent_action_provenance</title>
<path fill="#d4e8f7" stroke="black" d="M6738.55,-320.5C6738.55,-320.5 6607.45,-320.5 6607.45,-320.5 6603.25,-320.5 6599.05,-316.3 6599.05,-312.1 6599.05,-312.1 6599.05,-303.7 6599.05,-303.7 6599.05,-299.5 6603.25,-295.3 6607.45,-295.3 6607.45,-295.3 6738.55,-295.3 6738.55,-295.3 6742.75,-295.3 6746.95,-299.5 6746.95,-303.7 6746.95,-303.7 6746.95,-312.1 6746.95,-312.1 6746.95,-316.3 6742.75,-320.5 6738.55,-320.5"/>
<text xml:space="preserve" text-anchor="middle" x="6673" y="-304.8" font-family="Helvetica,sans-Serif" font-size="8.00">WARP&#45;agent&#45;action&#45;provenance &#45; XL</text>
</g>
<!-- cool_ideas_WARP_agent_action_provenance&#45;&gt;cool_ideas_CI_001_causal_collapse_visualizer -->
<g id="edge3" class="edge">
<title>cool_ideas_WARP_agent_action_provenance&#45;&gt;cool_ideas_CI_001_causal_collapse_visualizer</title>
<path fill="none" stroke="#666666" d="M6698.81,-294.81C6711.04,-289.01 6725.83,-281.9 6739,-275.3 6754.99,-267.28 6772.7,-258.02 6787,-250.44"/>
<polygon fill="#666666" stroke="#666666" points="6787.57,-252.12 6791.16,-248.23 6785.92,-249.03 6787.57,-252.12"/>
<text xml:space="preserve" text-anchor="middle" x="6785.14" y="-268.65" font-family="Helvetica,sans-Serif" font-size="7.00">blocked_by/blocking</text>
</g>
<!-- cool_ideas_WARP_causal_write_tracking -->
<g id="node49" class="node">
<title>cool_ideas_WARP_causal_write_tracking</title>
<path fill="#d4e8f7" stroke="black" d="M6431.05,-247.05C6431.05,-247.05 6320.95,-247.05 6320.95,-247.05 6316.75,-247.05 6312.55,-242.85 6312.55,-238.65 6312.55,-238.65 6312.55,-230.25 6312.55,-230.25 6312.55,-226.05 6316.75,-221.85 6320.95,-221.85 6320.95,-221.85 6431.05,-221.85 6431.05,-221.85 6435.25,-221.85 6439.45,-226.05 6439.45,-230.25 6439.45,-230.25 6439.45,-238.65 6439.45,-238.65 6439.45,-242.85 6435.25,-247.05 6431.05,-247.05"/>
<text xml:space="preserve" text-anchor="middle" x="6376" y="-231.35" font-family="Helvetica,sans-Serif" font-size="8.00">WARP&#45;causal&#45;write&#45;tracking &#45; L</text>
</g>
<!-- cool_ideas_WARP_agent_action_provenance&#45;&gt;cool_ideas_WARP_causal_write_tracking -->
<g id="edge4" class="edge">
<title>cool_ideas_WARP_agent_action_provenance&#45;&gt;cool_ideas_WARP_causal_write_tracking</title>
<path fill="none" stroke="#666666" d="M6625.13,-294.83C6614.27,-292.23 6602.76,-289.58 6592,-287.3 6562.83,-281.12 6555.1,-281.8 6526,-275.3 6491.63,-267.62 6453.25,-257.4 6423.92,-249.23"/>
<polygon fill="#666666" stroke="#666666" points="6424.55,-247.58 6419.26,-247.92 6423.61,-250.96 6424.55,-247.58"/>
<text xml:space="preserve" text-anchor="middle" x="6557.5" y="-268.65" font-family="Helvetica,sans-Serif" font-size="7.00">blocked_by/blocking</text>
</g>
<!-- cool_ideas_WARP_intent_and_decision_events -->
<g id="node59" class="node">
<title>cool_ideas_WARP_intent_and_decision_events</title>
<path fill="#d4e8f7" stroke="black" d="M6594.3,-247.05C6594.3,-247.05 6461.7,-247.05 6461.7,-247.05 6457.5,-247.05 6453.3,-242.85 6453.3,-238.65 6453.3,-238.65 6453.3,-230.25 6453.3,-230.25 6453.3,-226.05 6457.5,-221.85 6461.7,-221.85 6461.7,-221.85 6594.3,-221.85 6594.3,-221.85 6598.5,-221.85 6602.7,-226.05 6602.7,-230.25 6602.7,-230.25 6602.7,-238.65 6602.7,-238.65 6602.7,-242.85 6598.5,-247.05 6594.3,-247.05"/>
<text xml:space="preserve" text-anchor="middle" x="6528" y="-231.35" font-family="Helvetica,sans-Serif" font-size="8.00">WARP&#45;intent&#45;and&#45;decision&#45;events &#45; M</text>
</g>
<!-- cool_ideas_WARP_agent_action_provenance&#45;&gt;cool_ideas_WARP_intent_and_decision_events -->
<g id="edge5" class="edge">
<title>cool_ideas_WARP_agent_action_provenance&#45;&gt;cool_ideas_WARP_intent_and_decision_events</title>
<path fill="none" stroke="#666666" d="M6647.55,-294.87C6635.27,-289.02 6620.34,-281.86 6607,-275.3 6590.45,-267.16 6572.05,-257.89 6557.17,-250.34"/>
<polygon fill="#666666" stroke="#666666" points="6558.04,-248.83 6552.79,-248.12 6556.46,-251.95 6558.04,-248.83"/>
<text xml:space="preserve" text-anchor="middle" x="6638.5" y="-268.65" font-family="Helvetica,sans-Serif" font-size="7.00">blocked_by/blocking</text>
</g>
<!-- cool_ideas_WARP_provenance_dag -->
<g id="node65" class="node">
<title>cool_ideas_WARP_provenance_dag</title>
<path fill="#d4e8f7" stroke="black" d="M6720.55,-247.05C6720.55,-247.05 6625.45,-247.05 6625.45,-247.05 6621.25,-247.05 6617.05,-242.85 6617.05,-238.65 6617.05,-238.65 6617.05,-230.25 6617.05,-230.25 6617.05,-226.05 6621.25,-221.85 6625.45,-221.85 6625.45,-221.85 6720.55,-221.85 6720.55,-221.85 6724.75,-221.85 6728.95,-226.05 6728.95,-230.25 6728.95,-230.25 6728.95,-238.65 6728.95,-238.65 6728.95,-242.85 6724.75,-247.05 6720.55,-247.05"/>
<text xml:space="preserve" text-anchor="middle" x="6673" y="-231.35" font-family="Helvetica,sans-Serif" font-size="8.00">WARP&#45;provenance&#45;dag &#45; L</text>
</g>
<!-- cool_ideas_WARP_agent_action_provenance&#45;&gt;cool_ideas_WARP_provenance_dag -->
<g id="edge6" class="edge">
<title>cool_ideas_WARP_agent_action_provenance&#45;&gt;cool_ideas_WARP_provenance_dag</title>
<path fill="none" stroke="#666666" d="M6673,-295.1C6673,-283.9 6673,-266.88 6673,-253.88"/>
<polygon fill="#666666" stroke="#666666" points="6674.75,-254.02 6673,-249.02 6671.25,-254.02 6674.75,-254.02"/>
<text xml:space="preserve" text-anchor="middle" x="6704.5" y="-268.65" font-family="Helvetica,sans-Serif" font-size="7.00">blocked_by/blocking</text>
</g>
<!-- cool_ideas_WARP_auto_breaking_change_detection -->
<g id="node45" class="node">
<title>cool_ideas_WARP_auto_breaking_change_detection</title>
<path fill="#d4e8f7" stroke="black" d="M9893.3,-247.05C9893.3,-247.05 9742.7,-247.05 9742.7,-247.05 9738.5,-247.05 9734.3,-242.85 9734.3,-238.65 9734.3,-238.65 9734.3,-230.25 9734.3,-230.25 9734.3,-226.05 9738.5,-221.85 9742.7,-221.85 9742.7,-221.85 9893.3,-221.85 9893.3,-221.85 9897.5,-221.85 9901.7,-226.05 9901.7,-230.25 9901.7,-230.25 9901.7,-238.65 9901.7,-238.65 9901.7,-242.85 9897.5,-247.05 9893.3,-247.05"/>
<text xml:space="preserve" text-anchor="middle" x="9818" y="-231.35" font-family="Helvetica,sans-Serif" font-size="8.00">WARP&#45;auto&#45;breaking&#45;change&#45;detection &#45; L</text>
</g>
<!-- cool_ideas_WARP_budget_elasticity -->
<g id="node47" class="node">
<title>cool_ideas_WARP_budget_elasticity</title>
<path fill="#d4e8f7" stroke="black" d="M6864.93,-320.5C6864.93,-320.5 6769.07,-320.5 6769.07,-320.5 6764.88,-320.5 6760.68,-316.3 6760.68,-312.1 6760.68,-312.1 6760.68,-303.7 6760.68,-303.7 6760.68,-299.5 6764.88,-295.3 6769.07,-295.3 6769.07,-295.3 6864.93,-295.3 6864.93,-295.3 6869.12,-295.3 6873.32,-299.5 6873.32,-303.7 6873.32,-303.7 6873.32,-312.1 6873.32,-312.1 6873.32,-316.3 6869.12,-320.5 6864.93,-320.5"/>
<text xml:space="preserve" text-anchor="middle" x="6817" y="-304.8" font-family="Helvetica,sans-Serif" font-size="8.00">WARP&#45;budget&#45;elasticity &#45; M</text>
</g>
<!-- cool_ideas_WARP_causal_blame_for_staged_artifacts -->
<g id="node48" class="node">
<title>cool_ideas_WARP_causal_blame_for_staged_artifacts</title>
<path fill="#d4e8f7" stroke="black" d="M6824.18,-173.6C6824.18,-173.6 6669.82,-173.6 6669.82,-173.6 6665.62,-173.6 6661.43,-169.4 6661.43,-165.2 6661.43,-165.2 6661.43,-156.8 6661.43,-156.8 6661.43,-152.6 6665.62,-148.4 6669.82,-148.4 6669.82,-148.4 6824.18,-148.4 6824.18,-148.4 6828.38,-148.4 6832.57,-152.6 6832.57,-156.8 6832.57,-156.8 6832.57,-165.2 6832.57,-165.2 6832.57,-169.4 6828.38,-173.6 6824.18,-173.6"/>
<text xml:space="preserve" text-anchor="middle" x="6747" y="-157.9" font-family="Helvetica,sans-Serif" font-size="8.00">WARP&#45;causal&#45;blame&#45;for&#45;staged&#45;artifacts &#45; L</text>
</g>
<!-- cool_ideas_WARP_codebase_entropy_trajectory -->
<g id="node50" class="node">
<title>cool_ideas_WARP_codebase_entropy_trajectory</title>
<path fill="#d4e8f7" stroke="black" d="M7034.68,-320.5C7034.68,-320.5 6895.32,-320.5 6895.32,-320.5 6891.12,-320.5 6886.93,-316.3 6886.93,-312.1 6886.93,-312.1 6886.93,-303.7 6886.93,-303.7 6886.93,-299.5 6891.12,-295.3 6895.32,-295.3 6895.32,-295.3 7034.68,-295.3 7034.68,-295.3 7038.88,-295.3 7043.07,-299.5 7043.07,-303.7 7043.07,-303.7 7043.07,-312.1 7043.07,-312.1 7043.07,-316.3 7038.88,-320.5 7034.68,-320.5"/>
<text xml:space="preserve" text-anchor="middle" x="6965" y="-304.8" font-family="Helvetica,sans-Serif" font-size="8.00">WARP&#45;codebase&#45;entropy&#45;trajectory &#45; M</text>
</g>
<!-- cool_ideas_WARP_counterfactual_refactoring -->
<g id="node52" class="node">
<title>cool_ideas_WARP_counterfactual_refactoring</title>
<path fill="#d4e8f7" stroke="black" d="M7042.68,-247.05C7042.68,-247.05 6909.32,-247.05 6909.32,-247.05 6905.12,-247.05 6900.93,-242.85 6900.93,-238.65 6900.93,-238.65 6900.93,-230.25 6900.93,-230.25 6900.93,-226.05 6905.12,-221.85 6909.32,-221.85 6909.32,-221.85 7042.68,-221.85 7042.68,-221.85 7046.88,-221.85 7051.07,-226.05 7051.07,-230.25 7051.07,-230.25 7051.07,-238.65 7051.07,-238.65 7051.07,-242.85 7046.88,-247.05 7042.68,-247.05"/>
<text xml:space="preserve" text-anchor="middle" x="6976" y="-231.35" font-family="Helvetica,sans-Serif" font-size="8.00">WARP&#45;counterfactual&#45;refactoring &#45; XL</text>
</g>
<!-- cool_ideas_WARP_codebase_entropy_trajectory&#45;&gt;cool_ideas_WARP_counterfactual_refactoring -->
<g id="edge7" class="edge">
<title>cool_ideas_WARP_codebase_entropy_trajectory&#45;&gt;cool_ideas_WARP_counterfactual_refactoring</title>
<path fill="none" stroke="#666666" d="M6966.82,-295.1C6968.54,-283.9 6971.16,-266.88 6973.16,-253.88"/>
<polygon fill="#666666" stroke="#666666" points="6974.88,-254.21 6973.91,-249 6971.42,-253.68 6974.88,-254.21"/>
<text xml:space="preserve" text-anchor="middle" x="7002.33" y="-268.65" font-family="Helvetica,sans-Serif" font-size="7.00">blocked_by/blocking</text>
</g>
<!-- cool_ideas_WARP_codebase_signature -->
<g id="node51" class="node">
<title>cool_ideas_WARP_codebase_signature</title>
<path fill="#d4e8f7" stroke="black" d="M7172.55,-320.5C7172.55,-320.5 7065.45,-320.5 7065.45,-320.5 7061.25,-320.5 7057.05,-316.3 7057.05,-312.1 7057.05,-312.1 7057.05,-303.7 7057.05,-303.7 7057.05,-299.5 7061.25,-295.3 7065.45,-295.3 7065.45,-295.3 7172.55,-295.3 7172.55,-295.3 7176.75,-295.3 7180.95,-299.5 7180.95,-303.7 7180.95,-303.7 7180.95,-312.1 7180.95,-312.1 7180.95,-316.3 7176.75,-320.5 7172.55,-320.5"/>
<text xml:space="preserve" text-anchor="middle" x="7119" y="-304.8" font-family="Helvetica,sans-Serif" font-size="8.00">WARP&#45;codebase&#45;signature &#45; L</text>
</g>
<!-- cool_ideas_WARP_structural_impact_prediction -->
<g id="node75" class="node">
<title>cool_ideas_WARP_structural_impact_prediction</title>
<path fill="#d4e8f7" stroke="black" d="M7045.3,-173.6C7045.3,-173.6 6906.7,-173.6 6906.7,-173.6 6902.5,-173.6 6898.3,-169.4 6898.3,-165.2 6898.3,-165.2 6898.3,-156.8 6898.3,-156.8 6898.3,-152.6 6902.5,-148.4 6906.7,-148.4 6906.7,-148.4 7045.3,-148.4 7045.3,-148.4 7049.5,-148.4 7053.7,-152.6 7053.7,-156.8 7053.7,-156.8 7053.7,-165.2 7053.7,-165.2 7053.7,-169.4 7049.5,-173.6 7045.3,-173.6"/>
<text xml:space="preserve" text-anchor="middle" x="6976" y="-157.9" font-family="Helvetica,sans-Serif" font-size="8.00">WARP&#45;structural&#45;impact&#45;prediction &#45; XL</text>
</g>
<!-- cool_ideas_WARP_counterfactual_refactoring&#45;&gt;cool_ideas_WARP_structural_impact_prediction -->
<g id="edge8" class="edge">
<title>cool_ideas_WARP_counterfactual_refactoring&#45;&gt;cool_ideas_WARP_structural_impact_prediction</title>
<path fill="none" stroke="#666666" d="M6976,-221.65C6976,-210.45 6976,-193.43 6976,-180.43"/>
<polygon fill="#666666" stroke="#666666" points="6977.75,-180.57 6976,-175.57 6974.25,-180.57 6977.75,-180.57"/>
<text xml:space="preserve" text-anchor="middle" x="7007.5" y="-195.2" font-family="Helvetica,sans-Serif" font-size="7.00">blocked_by/blocking</text>
</g>
<!-- cool_ideas_WARP_dead_symbol_detection -->
<g id="node53" class="node">
<title>cool_ideas_WARP_dead_symbol_detection</title>
<path fill="#d4e8f7" stroke="black" d="M7322.18,-320.5C7322.18,-320.5 7203.82,-320.5 7203.82,-320.5 7199.62,-320.5 7195.43,-316.3 7195.43,-312.1 7195.43,-312.1 7195.43,-303.7 7195.43,-303.7 7195.43,-299.5 7199.62,-295.3 7203.82,-295.3 7203.82,-295.3 7322.18,-295.3 7322.18,-295.3 7326.38,-295.3 7330.57,-299.5 7330.57,-303.7 7330.57,-303.7 7330.57,-312.1 7330.57,-312.1 7330.57,-316.3 7326.38,-320.5 7322.18,-320.5"/>
<text xml:space="preserve" text-anchor="middle" x="7263" y="-304.8" font-family="Helvetica,sans-Serif" font-size="8.00">WARP&#45;dead&#45;symbol&#45;detection &#45; S</text>
</g>
<!-- cool_ideas_WARP_degeneracy_warning -->
<g id="node54" class="node">
<title>cool_ideas_WARP_degeneracy_warning</title>
<path fill="#d4e8f7" stroke="black" d="M7465.18,-320.5C7465.18,-320.5 7352.82,-320.5 7352.82,-320.5 7348.62,-320.5 7344.43,-316.3 7344.43,-312.1 7344.43,-312.1 7344.43,-303.7 7344.43,-303.7 7344.43,-299.5 7348.62,-295.3 7352.82,-295.3 7352.82,-295.3 7465.18,-295.3 7465.18,-295.3 7469.38,-295.3 7473.57,-299.5 7473.57,-303.7 7473.57,-303.7 7473.57,-312.1 7473.57,-312.1 7473.57,-316.3 7469.38,-320.5 7465.18,-320.5"/>
<text xml:space="preserve" text-anchor="middle" x="7409" y="-304.8" font-family="Helvetica,sans-Serif" font-size="8.00">WARP&#45;degeneracy&#45;warning &#45; M</text>
</g>
<!-- cool_ideas_WARP_drift_sentinel -->
<g id="node55" class="node">
<title>cool_ideas_WARP_drift_sentinel</title>
<path fill="#d4e8f7" stroke="black" d="M9399.18,-247.05C9399.18,-247.05 9316.82,-247.05 9316.82,-247.05 9312.62,-247.05 9308.42,-242.85 9308.42,-238.65 9308.42,-238.65 9308.42,-230.25 9308.42,-230.25 9308.42,-226.05 9312.62,-221.85 9316.82,-221.85 9316.82,-221.85 9399.18,-221.85 9399.18,-221.85 9403.38,-221.85 9407.58,-226.05 9407.58,-230.25 9407.58,-230.25 9407.58,-238.65 9407.58,-238.65 9407.58,-242.85 9403.38,-247.05 9399.18,-247.05"/>
<text xml:space="preserve" text-anchor="middle" x="9358" y="-231.35" font-family="Helvetica,sans-Serif" font-size="8.00">WARP&#45;drift&#45;sentinel &#45; M</text>
</g>
<!-- cool_ideas_WARP_footprint_parallelism -->
<g id="node56" class="node">
<title>cool_ideas_WARP_footprint_parallelism</title>
<path fill="#d4e8f7" stroke="black" d="M7607.8,-320.5C7607.8,-320.5 7496.2,-320.5 7496.2,-320.5 7492,-320.5 7487.8,-316.3 7487.8,-312.1 7487.8,-312.1 7487.8,-303.7 7487.8,-303.7 7487.8,-299.5 7492,-295.3 7496.2,-295.3 7496.2,-295.3 7607.8,-295.3 7607.8,-295.3 7612,-295.3 7616.2,-299.5 7616.2,-303.7 7616.2,-303.7 7616.2,-312.1 7616.2,-312.1 7616.2,-316.3 7612,-320.5 7607.8,-320.5"/>
<text xml:space="preserve" text-anchor="middle" x="7552" y="-304.8" font-family="Helvetica,sans-Serif" font-size="8.00">WARP&#45;footprint&#45;parallelism &#45; XL</text>
</g>
<!-- cool_ideas_WARP_graft_pack -->
<g id="node57" class="node">
<title>cool_ideas_WARP_graft_pack</title>
<path fill="#d4e8f7" stroke="black" d="M7713.43,-320.5C7713.43,-320.5 7638.57,-320.5 7638.57,-320.5 7634.38,-320.5 7630.18,-316.3 7630.18,-312.1 7630.18,-312.1 7630.18,-303.7 7630.18,-303.7 7630.18,-299.5 7634.38,-295.3 7638.57,-295.3 7638.57,-295.3 7713.43,-295.3 7713.43,-295.3 7717.62,-295.3 7721.82,-299.5 7721.82,-303.7 7721.82,-303.7 7721.82,-312.1 7721.82,-312.1 7721.82,-316.3 7717.62,-320.5 7713.43,-320.5"/>
<text xml:space="preserve" text-anchor="middle" x="7676" y="-304.8" font-family="Helvetica,sans-Serif" font-size="8.00">WARP&#45;graft&#45;pack &#45; M</text>
</g>
<!-- cool_ideas_WARP_grouped_aggregate_queries -->
<g id="node58" class="node">
<title>cool_ideas_WARP_grouped_aggregate_queries</title>
<path fill="#d4e8f7" stroke="black" d="M7881.93,-320.5C7881.93,-320.5 7744.07,-320.5 7744.07,-320.5 7739.88,-320.5 7735.68,-316.3 7735.68,-312.1 7735.68,-312.1 7735.68,-303.7 7735.68,-303.7 7735.68,-299.5 7739.88,-295.3 7744.07,-295.3 7744.07,-295.3 7881.93,-295.3 7881.93,-295.3 7886.12,-295.3 7890.32,-299.5 7890.32,-303.7 7890.32,-303.7 7890.32,-312.1 7890.32,-312.1 7890.32,-316.3 7886.12,-320.5 7881.93,-320.5"/>
<text xml:space="preserve" text-anchor="middle" x="7813" y="-304.8" font-family="Helvetica,sans-Serif" font-size="8.00">WARP&#45;grouped&#45;aggregate&#45;queries &#45; M</text>
</g>
<!-- cool_ideas_WARP_intentional_degeneracy_privacy -->
<g id="node60" class="node">
<title>cool_ideas_WARP_intentional_degeneracy_privacy</title>
<path fill="#d4e8f7" stroke="black" d="M8060.8,-320.5C8060.8,-320.5 7913.2,-320.5 7913.2,-320.5 7909,-320.5 7904.8,-316.3 7904.8,-312.1 7904.8,-312.1 7904.8,-303.7 7904.8,-303.7 7904.8,-299.5 7909,-295.3 7913.2,-295.3 7913.2,-295.3 8060.8,-295.3 8060.8,-295.3 8065,-295.3 8069.2,-299.5 8069.2,-303.7 8069.2,-303.7 8069.2,-312.1 8069.2,-312.1 8069.2,-316.3 8065,-320.5 8060.8,-320.5"/>
<text xml:space="preserve" text-anchor="middle" x="7987" y="-304.8" font-family="Helvetica,sans-Serif" font-size="8.00">WARP&#45;intentional&#45;degeneracy&#45;privacy &#45; M</text>
</g>
<!-- cool_ideas_WARP_lsp_enrichment -->
<g id="node61" class="node">
<title>cool_ideas_WARP_lsp_enrichment</title>
<path fill="#d4e8f7" stroke="black" d="M8168.55,-320.5C8168.55,-320.5 8091.45,-320.5 8091.45,-320.5 8087.25,-320.5 8083.05,-316.3 8083.05,-312.1 8083.05,-312.1 8083.05,-303.7 8083.05,-303.7 8083.05,-299.5 8087.25,-295.3 8091.45,-295.3 8091.45,-295.3 8168.55,-295.3 8168.55,-295.3 8172.75,-295.3 8176.95,-299.5 8176.95,-303.7 8176.95,-303.7 8176.95,-312.1 8176.95,-312.1 8176.95,-316.3 8172.75,-320.5 8168.55,-320.5"/>
<text xml:space="preserve" text-anchor="middle" x="8130" y="-304.8" font-family="Helvetica,sans-Serif" font-size="8.00">WARP&#45;lsp&#45;enrichment</text>
</g>
<!-- cool_ideas_WARP_minimum_viable_context -->
<g id="node62" class="node">
<title>cool_ideas_WARP_minimum_viable_context</title>
<path fill="#d4e8f7" stroke="black" d="M8322.43,-320.5C8322.43,-320.5 8199.58,-320.5 8199.58,-320.5 8195.38,-320.5 8191.18,-316.3 8191.18,-312.1 8191.18,-312.1 8191.18,-303.7 8191.18,-303.7 8191.18,-299.5 8195.38,-295.3 8199.58,-295.3 8199.58,-295.3 8322.43,-295.3 8322.43,-295.3 8326.62,-295.3 8330.83,-299.5 8330.83,-303.7 8330.83,-303.7 8330.83,-312.1 8330.83,-312.1 8330.83,-316.3 8326.62,-320.5 8322.43,-320.5"/>
<text xml:space="preserve" text-anchor="middle" x="8261" y="-304.8" font-family="Helvetica,sans-Serif" font-size="8.00">WARP&#45;minimum&#45;viable&#45;context &#45; M</text>
</g>
<!-- cool_ideas_WARP_outline_diff_commit_trailer -->
<g id="node63" class="node">
<title>cool_ideas_WARP_outline_diff_commit_trailer</title>
<path fill="#d4e8f7" stroke="black" d="M8478.93,-320.5C8478.93,-320.5 8353.07,-320.5 8353.07,-320.5 8348.88,-320.5 8344.67,-316.3 8344.67,-312.1 8344.67,-312.1 8344.67,-303.7 8344.67,-303.7 8344.67,-299.5 8348.88,-295.3 8353.07,-295.3 8353.07,-295.3 8478.93,-295.3 8478.93,-295.3 8483.12,-295.3 8487.33,-299.5 8487.33,-303.7 8487.33,-303.7 8487.33,-312.1 8487.33,-312.1 8487.33,-316.3 8483.12,-320.5 8478.93,-320.5"/>
<text xml:space="preserve" text-anchor="middle" x="8416" y="-304.8" font-family="Helvetica,sans-Serif" font-size="8.00">WARP&#45;outline&#45;diff&#45;commit&#45;trailer &#45; S</text>
</g>
<!-- cool_ideas_WARP_projection_safety_classes -->
<g id="node64" class="node">
<title>cool_ideas_WARP_projection_safety_classes</title>
<path fill="#d4e8f7" stroke="black" d="M8635.93,-320.5C8635.93,-320.5 8510.07,-320.5 8510.07,-320.5 8505.88,-320.5 8501.67,-316.3 8501.67,-312.1 8501.67,-312.1 8501.67,-303.7 8501.67,-303.7 8501.67,-299.5 8505.88,-295.3 8510.07,-295.3 8510.07,-295.3 8635.93,-295.3 8635.93,-295.3 8640.12,-295.3 8644.33,-299.5 8644.33,-303.7 8644.33,-303.7 8644.33,-312.1 8644.33,-312.1 8644.33,-316.3 8640.12,-320.5 8635.93,-320.5"/>
<text xml:space="preserve" text-anchor="middle" x="8573" y="-304.8" font-family="Helvetica,sans-Serif" font-size="8.00">WARP&#45;projection&#45;safety&#45;classes &#45; M</text>
</g>
<!-- cool_ideas_WARP_provenance_dag&#45;&gt;cool_ideas_WARP_causal_blame_for_staged_artifacts -->
<g id="edge9" class="edge">
<title>cool_ideas_WARP_provenance_dag&#45;&gt;cool_ideas_WARP_causal_blame_for_staged_artifacts</title>
<path fill="none" stroke="#666666" d="M6685.22,-221.65C6697.46,-209.83 6716.41,-191.54 6730.09,-178.32"/>
<polygon fill="#666666" stroke="#666666" points="6731.04,-179.84 6733.43,-175.11 6728.61,-177.32 6731.04,-179.84"/>
<text xml:space="preserve" text-anchor="middle" x="6743.72" y="-195.2" font-family="Helvetica,sans-Serif" font-size="7.00">blocked_by/blocking</text>
</g>
<!-- cool_ideas_WARP_reasoning_trace_replay -->
<g id="node66" class="node">
<title>cool_ideas_WARP_reasoning_trace_replay</title>
<path fill="#d4e8f7" stroke="black" d="M6638.93,-173.6C6638.93,-173.6 6519.07,-173.6 6519.07,-173.6 6514.88,-173.6 6510.68,-169.4 6510.68,-165.2 6510.68,-165.2 6510.68,-156.8 6510.68,-156.8 6510.68,-152.6 6514.88,-148.4 6519.07,-148.4 6519.07,-148.4 6638.93,-148.4 6638.93,-148.4 6643.12,-148.4 6647.32,-152.6 6647.32,-156.8 6647.32,-156.8 6647.32,-165.2 6647.32,-165.2 6647.32,-169.4 6643.12,-173.6 6638.93,-173.6"/>
<text xml:space="preserve" text-anchor="middle" x="6579" y="-157.9" font-family="Helvetica,sans-Serif" font-size="8.00">WARP&#45;reasoning&#45;trace&#45;replay &#45; M</text>
</g>
<!-- cool_ideas_WARP_provenance_dag&#45;&gt;cool_ideas_WARP_reasoning_trace_replay -->
<g id="edge10" class="edge">
<title>cool_ideas_WARP_provenance_dag&#45;&gt;cool_ideas_WARP_reasoning_trace_replay</title>
<path fill="none" stroke="#666666" d="M6657.48,-221.65C6641.79,-209.73 6617.44,-191.22 6600.02,-177.98"/>
<polygon fill="#666666" stroke="#666666" points="6601.1,-176.6 6596.06,-174.97 6598.99,-179.39 6601.1,-176.6"/>
<text xml:space="preserve" text-anchor="middle" x="6660.32" y="-195.2" font-family="Helvetica,sans-Serif" font-size="7.00">blocked_by/blocking</text>
</g>
<!-- cool_ideas_WARP_rulial_heat_map -->
<g id="node67" class="node">
<title>cool_ideas_WARP_rulial_heat_map</title>
<path fill="#d4e8f7" stroke="black" d="M8757.3,-320.5C8757.3,-320.5 8666.7,-320.5 8666.7,-320.5 8662.5,-320.5 8658.3,-316.3 8658.3,-312.1 8658.3,-312.1 8658.3,-303.7 8658.3,-303.7 8658.3,-299.5 8662.5,-295.3 8666.7,-295.3 8666.7,-295.3 8757.3,-295.3 8757.3,-295.3 8761.5,-295.3 8765.7,-299.5 8765.7,-303.7 8765.7,-303.7 8765.7,-312.1 8765.7,-312.1 8765.7,-316.3 8761.5,-320.5 8757.3,-320.5"/>
<text xml:space="preserve" text-anchor="middle" x="8712" y="-304.8" font-family="Helvetica,sans-Serif" font-size="8.00">WARP&#45;rulial&#45;heat&#45;map &#45; L</text>
</g>
<!-- cool_ideas_WARP_semantic_drift_in_sessions -->
<g id="node68" class="node">
<title>cool_ideas_WARP_semantic_drift_in_sessions</title>
<path fill="#d4e8f7" stroke="black" d="M8917.43,-320.5C8917.43,-320.5 8788.57,-320.5 8788.57,-320.5 8784.38,-320.5 8780.17,-316.3 8780.17,-312.1 8780.17,-312.1 8780.17,-303.7 8780.17,-303.7 8780.17,-299.5 8784.38,-295.3 8788.57,-295.3 8788.57,-295.3 8917.43,-295.3 8917.43,-295.3 8921.62,-295.3 8925.83,-299.5 8925.83,-303.7 8925.83,-303.7 8925.83,-312.1 8925.83,-312.1 8925.83,-316.3 8921.62,-320.5 8917.43,-320.5"/>
<text xml:space="preserve" text-anchor="middle" x="8853" y="-304.8" font-family="Helvetica,sans-Serif" font-size="8.00">WARP&#45;semantic&#45;drift&#45;in&#45;sessions &#45; M</text>
</g>
<!-- cool_ideas_WARP_semantic_merge_conflict_prediction -->
<g id="node69" class="node">
<title>cool_ideas_WARP_semantic_merge_conflict_prediction</title>
<path fill="#d4e8f7" stroke="black" d="M10083.43,-247.05C10083.43,-247.05 9924.57,-247.05 9924.57,-247.05 9920.38,-247.05 9916.17,-242.85 9916.17,-238.65 9916.17,-238.65 9916.17,-230.25 9916.17,-230.25 9916.17,-226.05 9920.38,-221.85 9924.57,-221.85 9924.57,-221.85 10083.43,-221.85 10083.43,-221.85 10087.62,-221.85 10091.83,-226.05 10091.83,-230.25 10091.83,-230.25 10091.83,-238.65 10091.83,-238.65 10091.83,-242.85 10087.62,-247.05 10083.43,-247.05"/>
<text xml:space="preserve" text-anchor="middle" x="10004" y="-231.35" font-family="Helvetica,sans-Serif" font-size="8.00">WARP&#45;semantic&#45;merge&#45;conflict&#45;prediction &#45; L</text>
</g>
<!-- cool_ideas_WARP_session_filtration -->
<g id="node70" class="node">
<title>cool_ideas_WARP_session_filtration</title>
<path fill="#d4e8f7" stroke="black" d="M9041.8,-320.5C9041.8,-320.5 8948.2,-320.5 8948.2,-320.5 8944,-320.5 8939.8,-316.3 8939.8,-312.1 8939.8,-312.1 8939.8,-303.7 8939.8,-303.7 8939.8,-299.5 8944,-295.3 8948.2,-295.3 8948.2,-295.3 9041.8,-295.3 9041.8,-295.3 9046,-295.3 9050.2,-299.5 9050.2,-303.7 9050.2,-303.7 9050.2,-312.1 9050.2,-312.1 9050.2,-316.3 9046,-320.5 9041.8,-320.5"/>
<text xml:space="preserve" text-anchor="middle" x="8995" y="-304.8" font-family="Helvetica,sans-Serif" font-size="8.00">WARP&#45;session&#45;filtration &#45; L</text>
</g>
<!-- cool_ideas_WARP_shadow_structural_workspaces -->
<g id="node71" class="node">
<title>cool_ideas_WARP_shadow_structural_workspaces</title>
<path fill="#d4e8f7" stroke="black" d="M9223.3,-320.5C9223.3,-320.5 9072.7,-320.5 9072.7,-320.5 9068.5,-320.5 9064.3,-316.3 9064.3,-312.1 9064.3,-312.1 9064.3,-303.7 9064.3,-303.7 9064.3,-299.5 9068.5,-295.3 9072.7,-295.3 9072.7,-295.3 9223.3,-295.3 9223.3,-295.3 9227.5,-295.3 9231.7,-299.5 9231.7,-303.7 9231.7,-303.7 9231.7,-312.1 9231.7,-312.1 9231.7,-316.3 9227.5,-320.5 9223.3,-320.5"/>
<text xml:space="preserve" text-anchor="middle" x="9148" y="-304.8" font-family="Helvetica,sans-Serif" font-size="8.00">WARP&#45;shadow&#45;structural&#45;workspaces &#45; XL</text>
</g>
<!-- cool_ideas_WARP_speculative_merge -->
<g id="node72" class="node">
<title>cool_ideas_WARP_speculative_merge</title>
<path fill="#d4e8f7" stroke="black" d="M9361.55,-320.5C9361.55,-320.5 9254.45,-320.5 9254.45,-320.5 9250.25,-320.5 9246.05,-316.3 9246.05,-312.1 9246.05,-312.1 9246.05,-303.7 9246.05,-303.7 9246.05,-299.5 9250.25,-295.3 9254.45,-295.3 9254.45,-295.3 9361.55,-295.3 9361.55,-295.3 9365.75,-295.3 9369.95,-299.5 9369.95,-303.7 9369.95,-303.7 9369.95,-312.1 9369.95,-312.1 9369.95,-316.3 9365.75,-320.5 9361.55,-320.5"/>
<text xml:space="preserve" text-anchor="middle" x="9308" y="-304.8" font-family="Helvetica,sans-Serif" font-size="8.00">WARP&#45;speculative&#45;merge &#45; XL</text>
</g>
<!-- cool_ideas_WARP_stale_docs_checker -->
<g id="node73" class="node">
<title>cool_ideas_WARP_stale_docs_checker</title>
<path fill="#d4e8f7" stroke="black" d="M9497.8,-320.5C9497.8,-320.5 9392.2,-320.5 9392.2,-320.5 9388,-320.5 9383.8,-316.3 9383.8,-312.1 9383.8,-312.1 9383.8,-303.7 9383.8,-303.7 9383.8,-299.5 9388,-295.3 9392.2,-295.3 9392.2,-295.3 9497.8,-295.3 9497.8,-295.3 9502,-295.3 9506.2,-299.5 9506.2,-303.7 9506.2,-303.7 9506.2,-312.1 9506.2,-312.1 9506.2,-316.3 9502,-320.5 9497.8,-320.5"/>
<text xml:space="preserve" text-anchor="middle" x="9445" y="-304.8" font-family="Helvetica,sans-Serif" font-size="8.00">WARP&#45;stale&#45;docs&#45;checker &#45; M</text>
</g>
<!-- cool_ideas_WARP_stale_docs_checker&#45;&gt;cool_ideas_WARP_drift_sentinel -->
<g id="edge11" class="edge">
<title>cool_ideas_WARP_stale_docs_checker&#45;&gt;cool_ideas_WARP_drift_sentinel</title>
<path fill="none" stroke="#666666" d="M9430.63,-295.1C9416.11,-283.18 9393.58,-264.67 9377.46,-251.43"/>
<polygon fill="#666666" stroke="#666666" points="9378.82,-250.29 9373.85,-248.47 9376.6,-252.99 9378.82,-250.29"/>
<text xml:space="preserve" text-anchor="middle" x="9435.61" y="-268.65" font-family="Helvetica,sans-Serif" font-size="7.00">blocked_by/blocking</text>
</g>
<!-- cool_ideas_WARP_structural_drift_detection -->
<g id="node74" class="node">
<title>cool_ideas_WARP_structural_drift_detection</title>
<path fill="#d4e8f7" stroke="black" d="M9651.8,-320.5C9651.8,-320.5 9528.2,-320.5 9528.2,-320.5 9524,-320.5 9519.8,-316.3 9519.8,-312.1 9519.8,-312.1 9519.8,-303.7 9519.8,-303.7 9519.8,-299.5 9524,-295.3 9528.2,-295.3 9528.2,-295.3 9651.8,-295.3 9651.8,-295.3 9656,-295.3 9660.2,-299.5 9660.2,-303.7 9660.2,-303.7 9660.2,-312.1 9660.2,-312.1 9660.2,-316.3 9656,-320.5 9651.8,-320.5"/>
<text xml:space="preserve" text-anchor="middle" x="9590" y="-304.8" font-family="Helvetica,sans-Serif" font-size="8.00">WARP&#45;structural&#45;drift&#45;detection &#45; M</text>
</g>
<!-- cool_ideas_WARP_symbol_heatmap -->
<g id="node76" class="node">
<title>cool_ideas_WARP_symbol_heatmap</title>
<path fill="#d4e8f7" stroke="black" d="M9781.05,-320.5C9781.05,-320.5 9682.95,-320.5 9682.95,-320.5 9678.75,-320.5 9674.55,-316.3 9674.55,-312.1 9674.55,-312.1 9674.55,-303.7 9674.55,-303.7 9674.55,-299.5 9678.75,-295.3 9682.95,-295.3 9682.95,-295.3 9781.05,-295.3 9781.05,-295.3 9785.25,-295.3 9789.45,-299.5 9789.45,-303.7 9789.45,-303.7 9789.45,-312.1 9789.45,-312.1 9789.45,-316.3 9785.25,-320.5 9781.05,-320.5"/>
<text xml:space="preserve" text-anchor="middle" x="9732" y="-304.8" font-family="Helvetica,sans-Serif" font-size="8.00">WARP&#45;symbol&#45;heatmap &#45; M</text>
</g>
<!-- cool_ideas_WARP_symbol_history_timeline -->
<g id="node77" class="node">
<title>cool_ideas_WARP_symbol_history_timeline</title>
<path fill="#d4e8f7" stroke="black" d="M9930.18,-320.5C9930.18,-320.5 9811.82,-320.5 9811.82,-320.5 9807.62,-320.5 9803.42,-316.3 9803.42,-312.1 9803.42,-312.1 9803.42,-303.7 9803.42,-303.7 9803.42,-299.5 9807.62,-295.3 9811.82,-295.3 9811.82,-295.3 9930.18,-295.3 9930.18,-295.3 9934.38,-295.3 9938.58,-299.5 9938.58,-303.7 9938.58,-303.7 9938.58,-312.1 9938.58,-312.1 9938.58,-316.3 9934.38,-320.5 9930.18,-320.5"/>
<text xml:space="preserve" text-anchor="middle" x="9871" y="-304.8" font-family="Helvetica,sans-Serif" font-size="8.00">WARP&#45;symbol&#45;history&#45;timeline &#45; S</text>
</g>
<!-- cool_ideas_WARP_temporal_structural_search -->
<g id="node79" class="node">
<title>cool_ideas_WARP_temporal_structural_search</title>
<path fill="#d4e8f7" stroke="black" d="M9563.68,-247.05C9563.68,-247.05 9430.32,-247.05 9430.32,-247.05 9426.12,-247.05 9421.92,-242.85 9421.92,-238.65 9421.92,-238.65 9421.92,-230.25 9421.92,-230.25 9421.92,-226.05 9426.12,-221.85 9430.32,-221.85 9430.32,-221.85 9563.68,-221.85 9563.68,-221.85 9567.88,-221.85 9572.08,-226.05 9572.08,-230.25 9572.08,-230.25 9572.08,-238.65 9572.08,-238.65 9572.08,-242.85 9567.88,-247.05 9563.68,-247.05"/>
<text xml:space="preserve" text-anchor="middle" x="9497" y="-231.35" font-family="Helvetica,sans-Serif" font-size="8.00">WARP&#45;temporal&#45;structural&#45;search &#45; M</text>
</g>
<!-- cool_ideas_WARP_symbol_history_timeline&#45;&gt;cool_ideas_WARP_temporal_structural_search -->
<g id="edge12" class="edge">
<title>cool_ideas_WARP_symbol_history_timeline&#45;&gt;cool_ideas_WARP_temporal_structural_search</title>
<path fill="none" stroke="#666666" d="M9830.82,-294.9C9819.64,-291.97 9807.42,-289.15 9796,-287.3 9715.98,-274.33 9693.5,-291.17 9614,-275.3 9585.41,-269.59 9554.21,-258.72 9531.23,-249.77"/>
<polygon fill="#666666" stroke="#666666" points="9531.97,-248.18 9526.68,-247.98 9530.69,-251.44 9531.97,-248.18"/>
<text xml:space="preserve" text-anchor="middle" x="9645.5" y="-268.65" font-family="Helvetica,sans-Serif" font-size="7.00">blocked_by/blocking</text>
</g>
<!-- cool_ideas_WARP_technical_debt_curvature -->
<g id="node78" class="node">
<title>cool_ideas_WARP_technical_debt_curvature</title>
<path fill="#d4e8f7" stroke="black" d="M10083.43,-320.5C10083.43,-320.5 9960.57,-320.5 9960.57,-320.5 9956.38,-320.5 9952.17,-316.3 9952.17,-312.1 9952.17,-312.1 9952.17,-303.7 9952.17,-303.7 9952.17,-299.5 9956.38,-295.3 9960.57,-295.3 9960.57,-295.3 10083.43,-295.3 10083.43,-295.3 10087.62,-295.3 10091.83,-299.5 10091.83,-303.7 10091.83,-303.7 10091.83,-312.1 10091.83,-312.1 10091.83,-316.3 10087.62,-320.5 10083.43,-320.5"/>
<text xml:space="preserve" text-anchor="middle" x="10022" y="-304.8" font-family="Helvetica,sans-Serif" font-size="8.00">WARP&#45;technical&#45;debt&#45;curvature &#45; L</text>
</g>
<!-- external_git_warp_observer_geometry_ladder__Rung_2_4_ -->
<g id="node80" class="node">
<title>external_git_warp_observer_geometry_ladder__Rung_2_4_</title>
<path fill="#e8f2ff" stroke="black" d="M10287.68,-320.5C10287.68,-320.5 10124.32,-320.5 10124.32,-320.5 10120.12,-320.5 10115.92,-316.3 10115.92,-312.1 10115.92,-312.1 10115.92,-303.7 10115.92,-303.7 10115.92,-299.5 10120.12,-295.3 10124.32,-295.3 10124.32,-295.3 10287.68,-295.3 10287.68,-295.3 10291.88,-295.3 10296.08,-299.5 10296.08,-303.7 10296.08,-303.7 10296.08,-312.1 10296.08,-312.1 10296.08,-316.3 10291.88,-320.5 10287.68,-320.5"/>
<text xml:space="preserve" text-anchor="middle" x="10206" y="-304.8" font-family="Helvetica,sans-Serif" font-size="8.00">git&#45;warp observer geometry ladder (Rung 2&#45;4)</text>
</g>
<!-- external_git_warp_observer_geometry_ladder__Rung_2_4_&#45;&gt;cool_ideas_CORE_migrate_to_slice_first_reads -->
<g id="edge13" class="edge">
<title>external_git_warp_observer_geometry_ladder__Rung_2_4_&#45;&gt;cool_ideas_CORE_migrate_to_slice_first_reads</title>
<path fill="none" stroke="#4477aa" stroke-dasharray="5,2" d="M10149.54,-294.84C10134.47,-291.98 10118.17,-289.21 10103,-287.3 10018.72,-276.67 9996.71,-284.38 9912.25,-275.3 9829.44,-266.4 9809.31,-259.78 9727,-247.05 9726.86,-247.03 9726.73,-247.01 9726.59,-246.99"/>
<polygon fill="#4477aa" stroke="#4477aa" points="9727.06,-245.29 9721.85,-246.25 9726.52,-248.75 9727.06,-245.29"/>
<text xml:space="preserve" text-anchor="middle" x="9944.12" y="-268.65" font-family="Helvetica,sans-Serif" font-size="7.00">blocked_by_external</text>
</g>
<!-- unresolved_CLEAN_CODE_export_diff_semver_signature_as_patch -->
<g id="node81" class="node">
<title>unresolved_CLEAN_CODE_export_diff_semver_signature_as_patch</title>
<path fill="#f2f2f2" stroke="black" stroke-dasharray="5,2" d="M10551.3,-320.5C10551.3,-320.5 10328.7,-320.5 10328.7,-320.5 10324.5,-320.5 10320.3,-316.3 10320.3,-312.1 10320.3,-312.1 10320.3,-303.7 10320.3,-303.7 10320.3,-299.5 10324.5,-295.3 10328.7,-295.3 10328.7,-295.3 10551.3,-295.3 10551.3,-295.3 10555.5,-295.3 10559.7,-299.5 10559.7,-303.7 10559.7,-303.7 10559.7,-312.1 10559.7,-312.1 10559.7,-316.3 10555.5,-320.5 10551.3,-320.5"/>
<text xml:space="preserve" text-anchor="middle" x="10440" y="-304.8" font-family="Helvetica,sans-Serif" font-size="8.00">missing: CLEAN_CODE_export&#45;diff&#45;semver&#45;signature&#45;as&#45;patch</text>
</g>
<!-- unresolved_CLEAN_CODE_export_diff_semver_signature_as_patch&#45;&gt;cool_ideas_WARP_auto_breaking_change_detection -->
<g id="edge14" class="edge">
<title>unresolved_CLEAN_CODE_export_diff_semver_signature_as_patch&#45;&gt;cool_ideas_WARP_auto_breaking_change_detection</title>
<path fill="none" stroke="#cc3333" stroke-dasharray="5,2" d="M10363.44,-294.84C10344.99,-292.14 10325.31,-289.45 10307,-287.3 10246.63,-280.2 10231.25,-281.23 10170.75,-275.3 10054.3,-263.89 10025.21,-260.73 9909,-247.05 9908.7,-247.02 9908.41,-246.98 9908.11,-246.94"/>
<polygon fill="#cc3333" stroke="#cc3333" points="9908.47,-245.23 9903.29,-246.37 9908.05,-248.7 9908.47,-245.23"/>
<text xml:space="preserve" text-anchor="middle" x="10188.38" y="-268.65" font-family="Helvetica,sans-Serif" font-size="7.00">blocked_by</text>
</g>
<!-- unresolved_CLEAN_CODE_export_diff_semver_signature_as_patch&#45;&gt;cool_ideas_WARP_semantic_merge_conflict_prediction -->
<g id="edge15" class="edge">
<title>unresolved_CLEAN_CODE_export_diff_semver_signature_as_patch&#45;&gt;cool_ideas_WARP_semantic_merge_conflict_prediction</title>
<path fill="none" stroke="#cc3333" stroke-dasharray="5,2" d="M10366.53,-294.86C10288.24,-282.03 10164.69,-261.78 10083.99,-248.56"/>
<polygon fill="#cc3333" stroke="#cc3333" points="10084.48,-246.87 10079.26,-247.78 10083.91,-250.32 10084.48,-246.87"/>
<text xml:space="preserve" text-anchor="middle" x="10252.7" y="-268.65" font-family="Helvetica,sans-Serif" font-size="7.00">blocked_by</text>
</g>
<!-- leg_v07 -->
<g id="node82" class="node">
<title>leg_v07</title>
<path fill="#ffa07a" stroke="black" stroke-width="2" d="M10676,-320.5C10676,-320.5 10592,-320.5 10592,-320.5 10587.8,-320.5 10583.6,-316.3 10583.6,-312.1 10583.6,-312.1 10583.6,-303.7 10583.6,-303.7 10583.6,-299.5 10587.8,-295.3 10592,-295.3 10592,-295.3 10676,-295.3 10676,-295.3 10680.2,-295.3 10684.4,-299.5 10684.4,-303.7 10684.4,-303.7 10684.4,-312.1 10684.4,-312.1 10684.4,-316.3 10680.2,-320.5 10676,-320.5"/>
<text xml:space="preserve" text-anchor="middle" x="10634" y="-305.38" font-family="Helvetica,sans-Serif" font-size="7.00">v0.7.0</text>
</g>
<!-- leg_bad -->
<g id="node83" class="node">
<title>leg_bad</title>
<path fill="#f6b3b3" stroke="black" stroke-width="2" d="M10676,-247.05C10676,-247.05 10592,-247.05 10592,-247.05 10587.8,-247.05 10583.6,-242.85 10583.6,-238.65 10583.6,-238.65 10583.6,-230.25 10583.6,-230.25 10583.6,-226.05 10587.8,-221.85 10592,-221.85 10592,-221.85 10676,-221.85 10676,-221.85 10680.2,-221.85 10684.4,-226.05 10684.4,-230.25 10684.4,-230.25 10684.4,-238.65 10684.4,-238.65 10684.4,-242.85 10680.2,-247.05 10676,-247.05"/>
<text xml:space="preserve" text-anchor="middle" x="10634" y="-231.92" font-family="Helvetica,sans-Serif" font-size="7.00">bad&#45;code</text>
</g>
<!-- leg_v07&#45;&gt;leg_bad -->
<!-- leg_idea -->
<g id="node84" class="node">
<title>leg_idea</title>
<path fill="#d4e8f7" stroke="black" d="M10676,-173.6C10676,-173.6 10592,-173.6 10592,-173.6 10587.8,-173.6 10583.6,-169.4 10583.6,-165.2 10583.6,-165.2 10583.6,-156.8 10583.6,-156.8 10583.6,-152.6 10587.8,-148.4 10592,-148.4 10592,-148.4 10676,-148.4 10676,-148.4 10680.2,-148.4 10684.4,-152.6 10684.4,-156.8 10684.4,-156.8 10684.4,-165.2 10684.4,-165.2 10684.4,-169.4 10680.2,-173.6 10676,-173.6"/>
<text xml:space="preserve" text-anchor="middle" x="10634" y="-158.47" font-family="Helvetica,sans-Serif" font-size="7.00">cool&#45;ideas</text>
</g>
<!-- leg_bad&#45;&gt;leg_idea -->
<!-- leg_external -->
<g id="node85" class="node">
<title>leg_external</title>
<path fill="#e8f2ff" stroke="black" d="M10676,-107.4C10676,-107.4 10592,-107.4 10592,-107.4 10587.8,-107.4 10583.6,-103.2 10583.6,-99 10583.6,-99 10583.6,-90.6 10583.6,-90.6 10583.6,-86.4 10587.8,-82.2 10592,-82.2 10592,-82.2 10676,-82.2 10676,-82.2 10680.2,-82.2 10684.4,-86.4 10684.4,-90.6 10684.4,-90.6 10684.4,-99 10684.4,-99 10684.4,-103.2 10680.2,-107.4 10676,-107.4"/>
<text xml:space="preserve" text-anchor="middle" x="10634" y="-92.28" font-family="Helvetica,sans-Serif" font-size="7.00">external blocker</text>
</g>
<!-- leg_idea&#45;&gt;leg_external -->
<!-- leg_unresolved -->
<g id="node86" class="node">
<title>leg_unresolved</title>
<path fill="#f2f2f2" stroke="black" stroke-dasharray="5,2" d="M10676,-41.2C10676,-41.2 10592,-41.2 10592,-41.2 10587.8,-41.2 10583.6,-37 10583.6,-32.8 10583.6,-32.8 10583.6,-24.4 10583.6,-24.4 10583.6,-20.2 10587.8,-16 10592,-16 10592,-16 10676,-16 10676,-16 10680.2,-16 10684.4,-20.2 10684.4,-24.4 10684.4,-24.4 10684.4,-32.8 10684.4,-32.8 10684.4,-37 10680.2,-41.2 10676,-41.2"/>
<text xml:space="preserve" text-anchor="middle" x="10634" y="-26.08" font-family="Helvetica,sans-Serif" font-size="7.00">unresolved ref</text>
</g>
<!-- leg_external&#45;&gt;leg_unresolved -->
</g>
</svg>
