<?xml version="1.0" encoding="UTF-8" standalone="no"?>
<!DOCTYPE svg PUBLIC "-//W3C//DTD SVG 1.1//EN"
 "http://www.w3.org/Graphics/SVG/1.1/DTD/svg11.dtd">
<!-- Generated by graphviz version 14.1.2 (20260124.0452)
 -->
<!-- Title: backlog Pages: 1 -->
<svg width="10851pt" height="383pt"
 viewBox="0.00 0.00 10851.00 383.00" xmlns="http://www.w3.org/2000/svg" xmlns:xlink="http://www.w3.org/1999/xlink">
<g id="graph0" class="graph" transform="scale(1 1) rotate(0) translate(4 379)">
<title>backlog</title>
<polygon fill="white" stroke="none" points="-4,4 -4,-379 10847,-379 10847,4 -4,4"/>
<text xml:space="preserve" text-anchor="middle" x="5421.5" y="-359.6" font-family="Helvetica,sans-Serif" font-size="12.00">Active backlog graph generated from docs/method/backlog/*/*.md</text>
<g id="clust1" class="cluster">
<title>cluster_v0_7_0</title>
<path fill="#fafafa" stroke="#cccccc" d="M20,-213.85C20,-213.85 670,-213.85 670,-213.85 676,-213.85 682,-219.85 682,-225.85 682,-225.85 682,-334.25 682,-334.25 682,-340.25 676,-346.25 670,-346.25 670,-346.25 20,-346.25 20,-346.25 14,-346.25 8,-340.25 8,-334.25 8,-334.25 8,-225.85 8,-225.85 8,-219.85 14,-213.85 20,-213.85"/>
<text xml:space="preserve" text-anchor="middle" x="35.12" y="-333.7" font-family="Helvetica,sans-Serif" font-size="9.00" fill="#555555">v0.7.0 (8)</text>
</g>
<g id="clust2" class="cluster">
<title>cluster_cool_ideas</title>
<path fill="#fafafa" stroke="#cccccc" d="M906,-140.4C906,-140.4 10435,-140.4 10435,-140.4 10441,-140.4 10447,-146.4 10447,-152.4 10447,-152.4 10447,-334.25 10447,-334.25 10447,-340.25 10441,-346.25 10435,-346.25 10435,-346.25 906,-346.25 906,-346.25 900,-346.25 894,-340.25 894,-334.25 894,-334.25 894,-152.4 894,-152.4 894,-146.4 900,-140.4 906,-140.4"/>
<text xml:space="preserve" text-anchor="middle" x="933.5" y="-333.7" font-family="Helvetica,sans-Serif" font-size="9.00" fill="#555555">Cool Ideas (75)</text>
</g>
<g id="clust3" class="cluster">
<title>cluster_external</title>
<path fill="#f8fbff" stroke="#cccccc" d="M702,-287.3C702,-287.3 874,-287.3 874,-287.3 880,-287.3 886,-293.3 886,-299.3 886,-299.3 886,-334.25 886,-334.25 886,-340.25 880,-346.25 874,-346.25 874,-346.25 702,-346.25 702,-346.25 696,-346.25 690,-340.25 690,-334.25 690,-334.25 690,-299.3 690,-299.3 690,-293.3 696,-287.3 702,-287.3"/>
<text xml:space="preserve" text-anchor="middle" x="733.25" y="-333.7" font-family="Helvetica,sans-Serif" font-size="9.00" fill="#555555">External blockers</text>
</g>
<g id="clust4" class="cluster">
<title>cluster_unresolved</title>
<path fill="#fff7f7" stroke="#cc3333" stroke-dasharray="5,2" d="M10467,-287.3C10467,-287.3 10699,-287.3 10699,-287.3 10705,-287.3 10711,-293.3 10711,-299.3 10711,-299.3 10711,-334.25 10711,-334.25 10711,-340.25 10705,-346.25 10699,-346.25 10699,-346.25 10467,-346.25 10467,-346.25 10461,-346.25 10455,-340.25 10455,-334.25 10455,-334.25 10455,-299.3 10455,-299.3 10455,-293.3 10461,-287.3 10467,-287.3"/>
<text xml:space="preserve" text-anchor="middle" x="10511.75" y="-333.7" font-family="Helvetica,sans-Serif" font-size="9.00" fill="#555555">Unresolved internal refs</text>
</g>
<g id="clust5" class="cluster">
<title>cluster_legend</title>
<path fill="none" stroke="#dddddd" d="M10731,-8C10731,-8 10823,-8 10823,-8 10829,-8 10835,-14 10835,-20 10835,-20 10835,-333.5 10835,-333.5 10835,-339.5 10829,-345.5 10823,-345.5 10823,-345.5 10731,-345.5 10731,-345.5 10725,-345.5 10719,-339.5 10719,-333.5 10719,-333.5 10719,-20 10719,-20 10719,-14 10725,-8 10731,-8"/>
<text xml:space="preserve" text-anchor="middle" x="10740.5" y="-333.9" font-family="Helvetica,sans-Serif" font-size="8.00" fill="#aaaaaa">Legend</text>
</g>
<!-- v0_7_0_CORE_agent_drift_warning -->
<g id="node1" class="node">
<title>v0_7_0_CORE_agent_drift_warning</title>
<path fill="#ffa07a" stroke="black" stroke-width="2" d="M517.05,-247.05C517.05,-247.05 424.95,-247.05 424.95,-247.05 420.75,-247.05 416.55,-242.85 416.55,-238.65 416.55,-238.65 416.55,-230.25 416.55,-230.25 416.55,-226.05 420.75,-221.85 424.95,-221.85 424.95,-221.85 517.05,-221.85 517.05,-221.85 521.25,-221.85 525.45,-226.05 525.45,-230.25 525.45,-230.25 525.45,-238.65 525.45,-238.65 525.45,-242.85 521.25,-247.05 517.05,-247.05"/>
<text xml:space="preserve" text-anchor="middle" x="471" y="-231.35" font-family="Helvetica,sans-Serif" font-size="8.00">CORE&#45;agent&#45;drift&#45;warning</text>
</g>
<!-- v0_7_0_CORE_git_graft_enhance -->
<g id="node2" class="node">
<title>v0_7_0_CORE_git_graft_enhance</title>
<path fill="#ffa07a" stroke="black" stroke-width="2" d="M250.67,-247.05C250.67,-247.05 165.33,-247.05 165.33,-247.05 161.12,-247.05 156.93,-242.85 156.93,-238.65 156.93,-238.65 156.93,-230.25 156.93,-230.25 156.93,-226.05 161.12,-221.85 165.33,-221.85 165.33,-221.85 250.67,-221.85 250.67,-221.85 254.88,-221.85 259.07,-226.05 259.07,-230.25 259.07,-230.25 259.07,-238.65 259.07,-238.65 259.07,-242.85 254.88,-247.05 250.67,-247.05"/>
<text xml:space="preserve" text-anchor="middle" x="208" y="-231.35" font-family="Helvetica,sans-Serif" font-size="8.00">CORE&#45;git&#45;graft&#45;enhance</text>
</g>
<!-- v0_7_0_CORE_migrate_path_ops_to_port -->
<g id="node3" class="node">
<title>v0_7_0_CORE_migrate_path_ops_to_port</title>
<path fill="#ffa07a" stroke="black" stroke-width="2" d="M137.17,-320.5C137.17,-320.5 24.83,-320.5 24.83,-320.5 20.63,-320.5 16.42,-316.3 16.42,-312.1 16.42,-312.1 16.42,-303.7 16.42,-303.7 16.42,-299.5 20.63,-295.3 24.83,-295.3 24.83,-295.3 137.17,-295.3 137.17,-295.3 141.37,-295.3 145.57,-299.5 145.57,-303.7 145.57,-303.7 145.57,-312.1 145.57,-312.1 145.57,-316.3 141.37,-320.5 137.17,-320.5"/>
<text xml:space="preserve" text-anchor="middle" x="81" y="-304.8" font-family="Helvetica,sans-Serif" font-size="8.00">CORE&#45;migrate&#45;path&#45;ops&#45;to&#45;port</text>
</g>
<!-- v0_7_0_CORE_migrate_to_slice_first_reads -->
<g id="node4" class="node">
<title>v0_7_0_CORE_migrate_to_slice_first_reads</title>
<path fill="#ffa07a" stroke="black" stroke-width="2" d="M665.8,-247.05C665.8,-247.05 548.2,-247.05 548.2,-247.05 544,-247.05 539.8,-242.85 539.8,-238.65 539.8,-238.65 539.8,-230.25 539.8,-230.25 539.8,-226.05 544,-221.85 548.2,-221.85 548.2,-221.85 665.8,-221.85 665.8,-221.85 670,-221.85 674.2,-226.05 674.2,-230.25 674.2,-230.25 674.2,-238.65 674.2,-238.65 674.2,-242.85 670,-247.05 665.8,-247.05"/>
<text xml:space="preserve" text-anchor="middle" x="607" y="-231.35" font-family="Helvetica,sans-Serif" font-size="8.00">CORE&#45;migrate&#45;to&#45;slice&#45;first&#45;reads</text>
</g>
<!-- v0_7_0_CORE_rewrite_structural_blame_to_use_warp_worldline_provenance -->
<g id="node5" class="node">
<title>v0_7_0_CORE_rewrite_structural_blame_to_use_warp_worldline_provenance</title>
<path fill="#ffa07a" stroke="black" stroke-width="2" d="M403.68,-320.5C403.68,-320.5 168.32,-320.5 168.32,-320.5 164.12,-320.5 159.92,-316.3 159.92,-312.1 159.92,-312.1 159.92,-303.7 159.92,-303.7 159.92,-299.5 164.12,-295.3 168.32,-295.3 168.32,-295.3 403.68,-295.3 403.68,-295.3 407.88,-295.3 412.08,-299.5 412.08,-303.7 412.08,-303.7 412.08,-312.1 412.08,-312.1 412.08,-316.3 407.88,-320.5 403.68,-320.5"/>
<text xml:space="preserve" text-anchor="middle" x="286" y="-304.8" font-family="Helvetica,sans-Serif" font-size="8.00">CORE&#45;rewrite&#45;structural&#45;blame&#45;to&#45;use&#45;warp&#45;worldline&#45;provenance</text>
</g>
<!-- v0_7_0_CORE_rewrite_structural_blame_to_use_warp_worldline_provenance&#45;&gt;v0_7_0_CORE_git_graft_enhance -->
<g id="edge16" class="edge">
<title>v0_7_0_CORE_rewrite_structural_blame_to_use_warp_worldline_provenance&#45;&gt;v0_7_0_CORE_git_graft_enhance</title>
<path fill="none" stroke="#666666" d="M272.41,-294.45C259.63,-282.74 240.39,-265.12 226.27,-252.19"/>
<polygon fill="#666666" stroke="#666666" points="227.68,-251.1 222.81,-249.02 225.31,-253.68 227.68,-251.1"/>
<text xml:space="preserve" text-anchor="middle" x="280.84" y="-268.65" font-family="Helvetica,sans-Serif" font-size="7.00">blocked_by/blocking</text>
</g>
<!-- v0_7_0_SURFACE_agent_dx_governed_edit -->
<g id="node6" class="node">
<title>v0_7_0_SURFACE_agent_dx_governed_edit</title>
<path fill="#ffa07a" stroke="black" stroke-width="2" d="M557.43,-320.5C557.43,-320.5 434.58,-320.5 434.58,-320.5 430.38,-320.5 426.18,-316.3 426.18,-312.1 426.18,-312.1 426.18,-303.7 426.18,-303.7 426.18,-299.5 430.38,-295.3 434.58,-295.3 434.58,-295.3 557.43,-295.3 557.43,-295.3 561.62,-295.3 565.83,-299.5 565.83,-303.7 565.83,-303.7 565.83,-312.1 565.83,-312.1 565.83,-316.3 561.62,-320.5 557.43,-320.5"/>
<text xml:space="preserve" text-anchor="middle" x="496" y="-304.8" font-family="Helvetica,sans-Serif" font-size="8.00">SURFACE&#45;agent&#45;dx&#45;governed&#45;edit</text>
</g>
<!-- v0_7_0_SURFACE_agent_dx_governed_edit&#45;&gt;v0_7_0_CORE_agent_drift_warning -->
<g id="edge17" class="edge">
<title>v0_7_0_SURFACE_agent_dx_governed_edit&#45;&gt;v0_7_0_CORE_agent_drift_warning</title>
<path fill="none" stroke="#666666" d="M491.65,-294.45C487.7,-283.18 481.84,-266.44 477.37,-253.66"/>
<polygon fill="#666666" stroke="#666666" points="479.11,-253.32 475.8,-249.18 475.8,-254.48 479.11,-253.32"/>
<text xml:space="preserve" text-anchor="middle" x="515.75" y="-268.65" font-family="Helvetica,sans-Serif" font-size="7.00">blocked_by/blocking</text>
</g>
<!-- v0_7_0_SURFACE_governed_write_tools -->
<g id="node7" class="node">
<title>v0_7_0_SURFACE_governed_write_tools</title>
<path fill="#ffa07a" stroke="black" stroke-width="2" d="M394.18,-247.05C394.18,-247.05 281.82,-247.05 281.82,-247.05 277.62,-247.05 273.43,-242.85 273.43,-238.65 273.43,-238.65 273.43,-230.25 273.43,-230.25 273.43,-226.05 277.62,-221.85 281.82,-221.85 281.82,-221.85 394.18,-221.85 394.18,-221.85 398.38,-221.85 402.57,-226.05 402.57,-230.25 402.57,-230.25 402.57,-238.65 402.57,-238.65 402.57,-242.85 398.38,-247.05 394.18,-247.05"/>
<text xml:space="preserve" text-anchor="middle" x="338" y="-231.35" font-family="Helvetica,sans-Serif" font-size="8.00">SURFACE&#45;governed&#45;write&#45;tools</text>
</g>
<!-- v0_7_0_SURFACE_agent_dx_governed_edit&#45;&gt;v0_7_0_SURFACE_governed_write_tools -->
<g id="edge18" class="edge">
<title>v0_7_0_SURFACE_agent_dx_governed_edit&#45;&gt;v0_7_0_SURFACE_governed_write_tools</title>
<path fill="none" stroke="#666666" d="M462.68,-294.31C448.48,-288.76 431.81,-281.98 417,-275.3 400.31,-267.77 382.04,-258.61 367.28,-250.98"/>
<polygon fill="#666666" stroke="#666666" points="368.18,-249.48 362.94,-248.72 366.57,-252.58 368.18,-249.48"/>
<text xml:space="preserve" text-anchor="middle" x="448.5" y="-268.65" font-family="Helvetica,sans-Serif" font-size="7.00">blocked_by/blocking</text>
</g>
<!-- v0_7_0_WARP_lsp_enrichment -->
<g id="node8" class="node">
<title>v0_7_0_WARP_lsp_enrichment</title>
<path fill="#ffa07a" stroke="black" stroke-width="2" d="M665.55,-320.5C665.55,-320.5 588.45,-320.5 588.45,-320.5 584.25,-320.5 580.05,-316.3 580.05,-312.1 580.05,-312.1 580.05,-303.7 580.05,-303.7 580.05,-299.5 584.25,-295.3 588.45,-295.3 588.45,-295.3 665.55,-295.3 665.55,-295.3 669.75,-295.3 673.95,-299.5 673.95,-303.7 673.95,-303.7 673.95,-312.1 673.95,-312.1 673.95,-316.3 669.75,-320.5 665.55,-320.5"/>
<text xml:space="preserve" text-anchor="middle" x="627" y="-304.8" font-family="Helvetica,sans-Serif" font-size="8.00">WARP&#45;lsp&#45;enrichment</text>
</g>
<!-- cool_ideas_bounded_neighborhood_for_references -->
<g id="node9" class="node">
<title>cool_ideas_bounded_neighborhood_for_references</title>
<path fill="#d4e8f7" stroke="black" d="M1059.17,-320.5C1059.17,-320.5 910.82,-320.5 910.82,-320.5 906.62,-320.5 902.42,-316.3 902.42,-312.1 902.42,-312.1 902.42,-303.7 902.42,-303.7 902.42,-299.5 906.62,-295.3 910.82,-295.3 910.82,-295.3 1059.17,-295.3 1059.17,-295.3 1063.38,-295.3 1067.58,-299.5 1067.58,-303.7 1067.58,-303.7 1067.58,-312.1 1067.58,-312.1 1067.58,-316.3 1063.38,-320.5 1059.17,-320.5"/>
<text xml:space="preserve" text-anchor="middle" x="985" y="-304.8" font-family="Helvetica,sans-Serif" font-size="8.00">bounded&#45;neighborhood&#45;for&#45;references &#45; S</text>
</g>
<!-- cool_ideas_CI_001_causal_collapse_visualizer -->
<g id="node10" class="node">
<title>cool_ideas_CI_001_causal_collapse_visualizer</title>
<path fill="#d4e8f7" stroke="black" d="M7333.3,-247.05C7333.3,-247.05 7206.7,-247.05 7206.7,-247.05 7202.5,-247.05 7198.3,-242.85 7198.3,-238.65 7198.3,-238.65 7198.3,-230.25 7198.3,-230.25 7198.3,-226.05 7202.5,-221.85 7206.7,-221.85 7206.7,-221.85 7333.3,-221.85 7333.3,-221.85 7337.5,-221.85 7341.7,-226.05 7341.7,-230.25 7341.7,-230.25 7341.7,-238.65 7341.7,-238.65 7341.7,-242.85 7337.5,-247.05 7333.3,-247.05"/>
<text xml:space="preserve" text-anchor="middle" x="7270" y="-231.35" font-family="Helvetica,sans-Serif" font-size="8.00">CI&#45;001&#45;causal&#45;collapse&#45;visualizer &#45; L</text>
</g>
<!-- cool_ideas_CI_002_deterministic_scenario_replay -->
<g id="node11" class="node">
<title>cool_ideas_CI_002_deterministic_scenario_replay</title>
<path fill="#d4e8f7" stroke="black" d="M1229.67,-320.5C1229.67,-320.5 1090.33,-320.5 1090.33,-320.5 1086.12,-320.5 1081.92,-316.3 1081.92,-312.1 1081.92,-312.1 1081.92,-303.7 1081.92,-303.7 1081.92,-299.5 1086.12,-295.3 1090.33,-295.3 1090.33,-295.3 1229.67,-295.3 1229.67,-295.3 1233.88,-295.3 1238.08,-299.5 1238.08,-303.7 1238.08,-303.7 1238.08,-312.1 1238.08,-312.1 1238.08,-316.3 1233.88,-320.5 1229.67,-320.5"/>
<text xml:space="preserve" text-anchor="middle" x="1160" y="-304.8" font-family="Helvetica,sans-Serif" font-size="8.00">CI&#45;002&#45;deterministic&#45;scenario&#45;replay &#45; L</text>
</g>
<!-- cool_ideas_CI_003_mcp_native_diff_protocol -->
<g id="node12" class="node">
<title>cool_ideas_CI_003_mcp_native_diff_protocol</title>
<path fill="#d4e8f7" stroke="black" d="M1383.8,-320.5C1383.8,-320.5 1260.2,-320.5 1260.2,-320.5 1256,-320.5 1251.8,-316.3 1251.8,-312.1 1251.8,-312.1 1251.8,-303.7 1251.8,-303.7 1251.8,-299.5 1256,-295.3 1260.2,-295.3 1260.2,-295.3 1383.8,-295.3 1383.8,-295.3 1388,-295.3 1392.2,-299.5 1392.2,-303.7 1392.2,-303.7 1392.2,-312.1 1392.2,-312.1 1392.2,-316.3 1388,-320.5 1383.8,-320.5"/>
<text xml:space="preserve" text-anchor="middle" x="1322" y="-304.8" font-family="Helvetica,sans-Serif" font-size="8.00">CI&#45;003&#45;mcp&#45;native&#45;diff&#45;protocol &#45; M</text>
</g>
<!-- cool_ideas_CLEAN_CODE_parallel_agent_merge_shared_file_loss -->
<g id="node13" class="node">
<title>cool_ideas_CLEAN_CODE_parallel_agent_merge_shared_file_loss</title>
<path fill="#d4e8f7" stroke="black" d="M1615.05,-320.5C1615.05,-320.5 1414.95,-320.5 1414.95,-320.5 1410.75,-320.5 1406.55,-316.3 1406.55,-312.1 1406.55,-312.1 1406.55,-303.7 1406.55,-303.7 1406.55,-299.5 1410.75,-295.3 1414.95,-295.3 1414.95,-295.3 1615.05,-295.3 1615.05,-295.3 1619.25,-295.3 1623.45,-299.5 1623.45,-303.7 1623.45,-303.7 1623.45,-312.1 1623.45,-312.1 1623.45,-316.3 1619.25,-320.5 1615.05,-320.5"/>
<text xml:space="preserve" text-anchor="middle" x="1515" y="-304.8" font-family="Helvetica,sans-Serif" font-size="8.00">CLEAN&#45;CODE&#45;parallel&#45;agent&#45;merge&#45;shared&#45;file&#45;loss &#45; M</text>
</g>
<!-- cool_ideas_CORE_agent_handoff_protocol -->
<g id="node14" class="node">
<title>cool_ideas_CORE_agent_handoff_protocol</title>
<path fill="#d4e8f7" stroke="black" d="M1765.92,-320.5C1765.92,-320.5 1646.08,-320.5 1646.08,-320.5 1641.88,-320.5 1637.67,-316.3 1637.67,-312.1 1637.67,-312.1 1637.67,-303.7 1637.67,-303.7 1637.67,-299.5 1641.88,-295.3 1646.08,-295.3 1646.08,-295.3 1765.92,-295.3 1765.92,-295.3 1770.12,-295.3 1774.33,-299.5 1774.33,-303.7 1774.33,-303.7 1774.33,-312.1 1774.33,-312.1 1774.33,-316.3 1770.12,-320.5 1765.92,-320.5"/>
<text xml:space="preserve" text-anchor="middle" x="1706" y="-304.8" font-family="Helvetica,sans-Serif" font-size="8.00">CORE&#45;agent&#45;handoff&#45;protocol &#45; M</text>
</g>
<!-- cool_ideas_CORE_auto_focus -->
<g id="node15" class="node">
<title>cool_ideas_CORE_auto_focus</title>
<path fill="#d4e8f7" stroke="black" d="M1869.67,-320.5C1869.67,-320.5 1796.33,-320.5 1796.33,-320.5 1792.12,-320.5 1787.92,-316.3 1787.92,-312.1 1787.92,-312.1 1787.92,-303.7 1787.92,-303.7 1787.92,-299.5 1792.12,-295.3 1796.33,-295.3 1796.33,-295.3 1869.67,-295.3 1869.67,-295.3 1873.88,-295.3 1878.08,-299.5 1878.08,-303.7 1878.08,-303.7 1878.08,-312.1 1878.08,-312.1 1878.08,-316.3 1873.88,-320.5 1869.67,-320.5"/>
<text xml:space="preserve" text-anchor="middle" x="1833" y="-304.8" font-family="Helvetica,sans-Serif" font-size="8.00">CORE&#45;auto&#45;focus &#45; L</text>
</g>
<!-- cool_ideas_CORE_backlog_status_tool -->
<g id="node16" class="node">
<title>cool_ideas_CORE_backlog_status_tool</title>
<path fill="#d4e8f7" stroke="black" d="M2003.67,-320.5C2003.67,-320.5 1900.33,-320.5 1900.33,-320.5 1896.12,-320.5 1891.92,-316.3 1891.92,-312.1 1891.92,-312.1 1891.92,-303.7 1891.92,-303.7 1891.92,-299.5 1896.12,-295.3 1900.33,-295.3 1900.33,-295.3 2003.67,-295.3 2003.67,-295.3 2007.88,-295.3 2012.08,-299.5 2012.08,-303.7 2012.08,-303.7 2012.08,-312.1 2012.08,-312.1 2012.08,-316.3 2007.88,-320.5 2003.67,-320.5"/>
<text xml:space="preserve" text-anchor="middle" x="1952" y="-304.8" font-family="Helvetica,sans-Serif" font-size="8.00">CORE&#45;backlog&#45;status&#45;tool &#45; S</text>
</g>
<!-- cool_ideas_CORE_capture_range -->
<g id="node17" class="node">
<title>cool_ideas_CORE_capture_range</title>
<path fill="#d4e8f7" stroke="black" d="M2121.8,-320.5C2121.8,-320.5 2034.2,-320.5 2034.2,-320.5 2030,-320.5 2025.8,-316.3 2025.8,-312.1 2025.8,-312.1 2025.8,-303.7 2025.8,-303.7 2025.8,-299.5 2030,-295.3 2034.2,-295.3 2034.2,-295.3 2121.8,-295.3 2121.8,-295.3 2126,-295.3 2130.2,-299.5 2130.2,-303.7 2130.2,-303.7 2130.2,-312.1 2130.2,-312.1 2130.2,-316.3 2126,-320.5 2121.8,-320.5"/>
<text xml:space="preserve" text-anchor="middle" x="2078" y="-304.8" font-family="Helvetica,sans-Serif" font-size="8.00">CORE&#45;capture&#45;range &#45; S</text>
</g>
<!-- cool_ideas_CORE_constructor_in_disguise_lint -->
<g id="node18" class="node">
<title>cool_ideas_CORE_constructor_in_disguise_lint</title>
<path fill="#d4e8f7" stroke="black" d="M2283.55,-320.5C2283.55,-320.5 2152.45,-320.5 2152.45,-320.5 2148.25,-320.5 2144.05,-316.3 2144.05,-312.1 2144.05,-312.1 2144.05,-303.7 2144.05,-303.7 2144.05,-299.5 2148.25,-295.3 2152.45,-295.3 2152.45,-295.3 2283.55,-295.3 2283.55,-295.3 2287.75,-295.3 2291.95,-299.5 2291.95,-303.7 2291.95,-303.7 2291.95,-312.1 2291.95,-312.1 2291.95,-316.3 2287.75,-320.5 2283.55,-320.5"/>
<text xml:space="preserve" text-anchor="middle" x="2218" y="-304.8" font-family="Helvetica,sans-Serif" font-size="8.00">CORE&#45;constructor&#45;in&#45;disguise&#45;lint &#45; M</text>
</g>
<!-- cool_ideas_CORE_context_budget_forecasting -->
<g id="node19" class="node">
<title>cool_ideas_CORE_context_budget_forecasting</title>
<path fill="#d4e8f7" stroke="black" d="M2447.67,-320.5C2447.67,-320.5 2314.33,-320.5 2314.33,-320.5 2310.12,-320.5 2305.93,-316.3 2305.93,-312.1 2305.93,-312.1 2305.93,-303.7 2305.93,-303.7 2305.93,-299.5 2310.12,-295.3 2314.33,-295.3 2314.33,-295.3 2447.67,-295.3 2447.67,-295.3 2451.88,-295.3 2456.07,-299.5 2456.07,-303.7 2456.07,-303.7 2456.07,-312.1 2456.07,-312.1 2456.07,-316.3 2451.88,-320.5 2447.67,-320.5"/>
<text xml:space="preserve" text-anchor="middle" x="2381" y="-304.8" font-family="Helvetica,sans-Serif" font-size="8.00">CORE&#45;context&#45;budget&#45;forecasting &#45; M</text>
</g>
<!-- cool_ideas_CORE_conversation_primer -->
<g id="node20" class="node">
<title>cool_ideas_CORE_conversation_primer</title>
<path fill="#d4e8f7" stroke="black" d="M2587.67,-320.5C2587.67,-320.5 2478.33,-320.5 2478.33,-320.5 2474.12,-320.5 2469.93,-316.3 2469.93,-312.1 2469.93,-312.1 2469.93,-303.7 2469.93,-303.7 2469.93,-299.5 2474.12,-295.3 2478.33,-295.3 2478.33,-295.3 2587.67,-295.3 2587.67,-295.3 2591.88,-295.3 2596.07,-299.5 2596.07,-303.7 2596.07,-303.7 2596.07,-312.1 2596.07,-312.1 2596.07,-316.3 2591.88,-320.5 2587.67,-320.5"/>
<text xml:space="preserve" text-anchor="middle" x="2533" y="-304.8" font-family="Helvetica,sans-Serif" font-size="8.00">CORE&#45;conversation&#45;primer &#45; M</text>
</g>
<!-- cool_ideas_CORE_cross_session_resume -->
<g id="node21" class="node">
<title>cool_ideas_CORE_cross_session_resume</title>
<path fill="#d4e8f7" stroke="black" d="M2733.3,-320.5C2733.3,-320.5 2618.7,-320.5 2618.7,-320.5 2614.5,-320.5 2610.3,-316.3 2610.3,-312.1 2610.3,-312.1 2610.3,-303.7 2610.3,-303.7 2610.3,-299.5 2614.5,-295.3 2618.7,-295.3 2618.7,-295.3 2733.3,-295.3 2733.3,-295.3 2737.5,-295.3 2741.7,-299.5 2741.7,-303.7 2741.7,-303.7 2741.7,-312.1 2741.7,-312.1 2741.7,-316.3 2737.5,-320.5 2733.3,-320.5"/>
<text xml:space="preserve" text-anchor="middle" x="2676" y="-304.8" font-family="Helvetica,sans-Serif" font-size="8.00">CORE&#45;cross&#45;session&#45;resume &#45; S</text>
</g>
<!-- cool_ideas_CORE_graft_as_teacher -->
<g id="node22" class="node">
<title>cool_ideas_CORE_graft_as_teacher</title>
<path fill="#d4e8f7" stroke="black" d="M2858.17,-320.5C2858.17,-320.5 2763.83,-320.5 2763.83,-320.5 2759.62,-320.5 2755.43,-316.3 2755.43,-312.1 2755.43,-312.1 2755.43,-303.7 2755.43,-303.7 2755.43,-299.5 2759.62,-295.3 2763.83,-295.3 2763.83,-295.3 2858.17,-295.3 2858.17,-295.3 2862.38,-295.3 2866.57,-299.5 2866.57,-303.7 2866.57,-303.7 2866.57,-312.1 2866.57,-312.1 2866.57,-316.3 2862.38,-320.5 2858.17,-320.5"/>
<text xml:space="preserve" text-anchor="middle" x="2811" y="-304.8" font-family="Helvetica,sans-Serif" font-size="8.00">CORE&#45;graft&#45;as&#45;teacher &#45; S</text>
</g>
<!-- cool_ideas_CORE_graft_doctor -->
<g id="node23" class="node">
<title>cool_ideas_CORE_graft_doctor</title>
<path fill="#d4e8f7" stroke="black" d="M2969.05,-320.5C2969.05,-320.5 2888.95,-320.5 2888.95,-320.5 2884.75,-320.5 2880.55,-316.3 2880.55,-312.1 2880.55,-312.1 2880.55,-303.7 2880.55,-303.7 2880.55,-299.5 2884.75,-295.3 2888.95,-295.3 2888.95,-295.3 2969.05,-295.3 2969.05,-295.3 2973.25,-295.3 2977.45,-299.5 2977.45,-303.7 2977.45,-303.7 2977.45,-312.1 2977.45,-312.1 2977.45,-316.3 2973.25,-320.5 2969.05,-320.5"/>
<text xml:space="preserve" text-anchor="middle" x="2929" y="-304.8" font-family="Helvetica,sans-Serif" font-size="8.00">CORE&#45;graft&#45;doctor &#45; M</text>
</g>
<!-- cool_ideas_CORE_graft_teach_learning_receipts -->
<g id="node24" class="node">
<title>cool_ideas_CORE_graft_teach_learning_receipts</title>
<path fill="#d4e8f7" stroke="black" d="M3137.92,-320.5C3137.92,-320.5 3000.08,-320.5 3000.08,-320.5 2995.88,-320.5 2991.68,-316.3 2991.68,-312.1 2991.68,-312.1 2991.68,-303.7 2991.68,-303.7 2991.68,-299.5 2995.88,-295.3 3000.08,-295.3 3000.08,-295.3 3137.92,-295.3 3137.92,-295.3 3142.12,-295.3 3146.32,-299.5 3146.32,-303.7 3146.32,-303.7 3146.32,-312.1 3146.32,-312.1 3146.32,-316.3 3142.12,-320.5 3137.92,-320.5"/>
<text xml:space="preserve" text-anchor="middle" x="3069" y="-304.8" font-family="Helvetica,sans-Serif" font-size="8.00">CORE&#45;graft&#45;teach&#45;learning&#45;receipts &#45; S</text>
</g>
<!-- cool_ideas_CORE_horizon_of_readability -->
<g id="node25" class="node">
<title>cool_ideas_CORE_horizon_of_readability</title>
<path fill="#d4e8f7" stroke="black" d="M3281.55,-320.5C3281.55,-320.5 3168.45,-320.5 3168.45,-320.5 3164.25,-320.5 3160.05,-316.3 3160.05,-312.1 3160.05,-312.1 3160.05,-303.7 3160.05,-303.7 3160.05,-299.5 3164.25,-295.3 3168.45,-295.3 3168.45,-295.3 3281.55,-295.3 3281.55,-295.3 3285.75,-295.3 3289.95,-299.5 3289.95,-303.7 3289.95,-303.7 3289.95,-312.1 3289.95,-312.1 3289.95,-316.3 3285.75,-320.5 3281.55,-320.5"/>
<text xml:space="preserve" text-anchor="middle" x="3225" y="-304.8" font-family="Helvetica,sans-Serif" font-size="8.00">CORE&#45;horizon&#45;of&#45;readability &#45; M</text>
</g>
<!-- cool_ideas_CORE_lagrangian_policy -->
<g id="node26" class="node">
<title>cool_ideas_CORE_lagrangian_policy</title>
<path fill="#d4e8f7" stroke="black" d="M3413.55,-320.5C3413.55,-320.5 3312.45,-320.5 3312.45,-320.5 3308.25,-320.5 3304.05,-316.3 3304.05,-312.1 3304.05,-312.1 3304.05,-303.7 3304.05,-303.7 3304.05,-299.5 3308.25,-295.3 3312.45,-295.3 3312.45,-295.3 3413.55,-295.3 3413.55,-295.3 3417.75,-295.3 3421.95,-299.5 3421.95,-303.7 3421.95,-303.7 3421.95,-312.1 3421.95,-312.1 3421.95,-316.3 3417.75,-320.5 3413.55,-320.5"/>
<text xml:space="preserve" text-anchor="middle" x="3363" y="-304.8" font-family="Helvetica,sans-Serif" font-size="8.00">CORE&#45;lagrangian&#45;policy &#45; XL</text>
</g>
<!-- cool_ideas_CORE_multi_agent_conflict_detection -->
<g id="node27" class="node">
<title>cool_ideas_CORE_multi_agent_conflict_detection</title>
<path fill="#d4e8f7" stroke="black" d="M3581.92,-320.5C3581.92,-320.5 3444.08,-320.5 3444.08,-320.5 3439.88,-320.5 3435.68,-316.3 3435.68,-312.1 3435.68,-312.1 3435.68,-303.7 3435.68,-303.7 3435.68,-299.5 3439.88,-295.3 3444.08,-295.3 3444.08,-295.3 3581.92,-295.3 3581.92,-295.3 3586.12,-295.3 3590.32,-299.5 3590.32,-303.7 3590.32,-303.7 3590.32,-312.1 3590.32,-312.1 3590.32,-316.3 3586.12,-320.5 3581.92,-320.5"/>
<text xml:space="preserve" text-anchor="middle" x="3513" y="-304.8" font-family="Helvetica,sans-Serif" font-size="8.00">CORE&#45;multi&#45;agent&#45;conflict&#45;detection &#45; L</text>
</g>
<!-- cool_ideas_CORE_policy_playground -->
<g id="node28" class="node">
<title>cool_ideas_CORE_policy_playground</title>
<path fill="#d4e8f7" stroke="black" d="M3711.42,-320.5C3711.42,-320.5 3612.58,-320.5 3612.58,-320.5 3608.38,-320.5 3604.18,-316.3 3604.18,-312.1 3604.18,-312.1 3604.18,-303.7 3604.18,-303.7 3604.18,-299.5 3608.38,-295.3 3612.58,-295.3 3612.58,-295.3 3711.42,-295.3 3711.42,-295.3 3715.62,-295.3 3719.82,-299.5 3719.82,-303.7 3719.82,-303.7 3719.82,-312.1 3719.82,-312.1 3719.82,-316.3 3715.62,-320.5 3711.42,-320.5"/>
<text xml:space="preserve" text-anchor="middle" x="3662" y="-304.8" font-family="Helvetica,sans-Serif" font-size="8.00">CORE&#45;policy&#45;playground &#45; S</text>
</g>
<!-- cool_ideas_CORE_policy_profiles -->
<g id="node29" class="node">
<title>cool_ideas_CORE_policy_profiles</title>
<path fill="#d4e8f7" stroke="black" d="M3828.05,-320.5C3828.05,-320.5 3741.95,-320.5 3741.95,-320.5 3737.75,-320.5 3733.55,-316.3 3733.55,-312.1 3733.55,-312.1 3733.55,-303.7 3733.55,-303.7 3733.55,-299.5 3737.75,-295.3 3741.95,-295.3 3741.95,-295.3 3828.05,-295.3 3828.05,-295.3 3832.25,-295.3 3836.45,-299.5 3836.45,-303.7 3836.45,-303.7 3836.45,-312.1 3836.45,-312.1 3836.45,-316.3 3832.25,-320.5 3828.05,-320.5"/>
<text xml:space="preserve" text-anchor="middle" x="3785" y="-304.8" font-family="Helvetica,sans-Serif" font-size="8.00">CORE&#45;policy&#45;profiles &#45; M</text>
</g>
<!-- cool_ideas_CORE_pr_review_structural_summary -->
<g id="node30" class="node">
<title>cool_ideas_CORE_pr_review_structural_summary</title>
<path fill="#d4e8f7" stroke="black" d="M4002.92,-320.5C4002.92,-320.5 3859.08,-320.5 3859.08,-320.5 3854.88,-320.5 3850.68,-316.3 3850.68,-312.1 3850.68,-312.1 3850.68,-303.7 3850.68,-303.7 3850.68,-299.5 3854.88,-295.3 3859.08,-295.3 3859.08,-295.3 4002.92,-295.3 4002.92,-295.3 4007.12,-295.3 4011.32,-299.5 4011.32,-303.7 4011.32,-303.7 4011.32,-312.1 4011.32,-312.1 4011.32,-316.3 4007.12,-320.5 4002.92,-320.5"/>
<text xml:space="preserve" text-anchor="middle" x="3931" y="-304.8" font-family="Helvetica,sans-Serif" font-size="8.00">CORE&#45;pr&#45;review&#45;structural&#45;summary &#45; M</text>
</g>
<!-- cool_ideas_CORE_self_tuning_governor -->
<g id="node31" class="node">
<title>cool_ideas_CORE_self_tuning_governor</title>
<path fill="#d4e8f7" stroke="black" d="M4144.05,-320.5C4144.05,-320.5 4033.95,-320.5 4033.95,-320.5 4029.75,-320.5 4025.55,-316.3 4025.55,-312.1 4025.55,-312.1 4025.55,-303.7 4025.55,-303.7 4025.55,-299.5 4029.75,-295.3 4033.95,-295.3 4033.95,-295.3 4144.05,-295.3 4144.05,-295.3 4148.25,-295.3 4152.45,-299.5 4152.45,-303.7 4152.45,-303.7 4152.45,-312.1 4152.45,-312.1 4152.45,-316.3 4148.25,-320.5 4144.05,-320.5"/>
<text xml:space="preserve" text-anchor="middle" x="4089" y="-304.8" font-family="Helvetica,sans-Serif" font-size="8.00">CORE&#45;self&#45;tuning&#45;governor &#45; M</text>
</g>
<!-- cool_ideas_CORE_session_knowledge_map -->
<g id="node32" class="node">
<title>cool_ideas_CORE_session_knowledge_map</title>
<path fill="#d4e8f7" stroke="black" d="M4297.43,-320.5C4297.43,-320.5 4174.57,-320.5 4174.57,-320.5 4170.38,-320.5 4166.18,-316.3 4166.18,-312.1 4166.18,-312.1 4166.18,-303.7 4166.18,-303.7 4166.18,-299.5 4170.38,-295.3 4174.57,-295.3 4174.57,-295.3 4297.43,-295.3 4297.43,-295.3 4301.62,-295.3 4305.82,-299.5 4305.82,-303.7 4305.82,-303.7 4305.82,-312.1 4305.82,-312.1 4305.82,-316.3 4301.62,-320.5 4297.43,-320.5"/>
<text xml:space="preserve" text-anchor="middle" x="4236" y="-304.8" font-family="Helvetica,sans-Serif" font-size="8.00">CORE&#45;session&#45;knowledge&#45;map &#45; S</text>
</g>
<!-- cool_ideas_CORE_speculative_read_cost -->
<g id="node33" class="node">
<title>cool_ideas_CORE_speculative_read_cost</title>
<path fill="#d4e8f7" stroke="black" d="M4440.18,-320.5C4440.18,-320.5 4327.82,-320.5 4327.82,-320.5 4323.62,-320.5 4319.43,-316.3 4319.43,-312.1 4319.43,-312.1 4319.43,-303.7 4319.43,-303.7 4319.43,-299.5 4323.62,-295.3 4327.82,-295.3 4327.82,-295.3 4440.18,-295.3 4440.18,-295.3 4444.38,-295.3 4448.57,-299.5 4448.57,-303.7 4448.57,-303.7 4448.57,-312.1 4448.57,-312.1 4448.57,-316.3 4444.38,-320.5 4440.18,-320.5"/>
<text xml:space="preserve" text-anchor="middle" x="4384" y="-304.8" font-family="Helvetica,sans-Serif" font-size="8.00">CORE&#45;speculative&#45;read&#45;cost &#45; S</text>
</g>
<!-- cool_ideas_CORE_structural_session_replay -->
<g id="node34" class="node">
<title>cool_ideas_CORE_structural_session_replay</title>
<path fill="#d4e8f7" stroke="black" d="M4596.55,-320.5C4596.55,-320.5 4471.45,-320.5 4471.45,-320.5 4467.25,-320.5 4463.05,-316.3 4463.05,-312.1 4463.05,-312.1 4463.05,-303.7 4463.05,-303.7 4463.05,-299.5 4467.25,-295.3 4471.45,-295.3 4471.45,-295.3 4596.55,-295.3 4596.55,-295.3 4600.75,-295.3 4604.95,-299.5 4604.95,-303.7 4604.95,-303.7 4604.95,-312.1 4604.95,-312.1 4604.95,-316.3 4600.75,-320.5 4596.55,-320.5"/>
<text xml:space="preserve" text-anchor="middle" x="4534" y="-304.8" font-family="Helvetica,sans-Serif" font-size="8.00">CORE&#45;structural&#45;session&#45;replay &#45; M</text>
</g>
<!-- cool_ideas_CORE_structural_test_coverage_map -->
<g id="node35" class="node">
<title>cool_ideas_CORE_structural_test_coverage_map</title>
<path fill="#d4e8f7" stroke="black" d="M4768.8,-320.5C4768.8,-320.5 4627.2,-320.5 4627.2,-320.5 4623,-320.5 4618.8,-316.3 4618.8,-312.1 4618.8,-312.1 4618.8,-303.7 4618.8,-303.7 4618.8,-299.5 4623,-295.3 4627.2,-295.3 4627.2,-295.3 4768.8,-295.3 4768.8,-295.3 4773,-295.3 4777.2,-299.5 4777.2,-303.7 4777.2,-303.7 4777.2,-312.1 4777.2,-312.1 4777.2,-316.3 4773,-320.5 4768.8,-320.5"/>
<text xml:space="preserve" text-anchor="middle" x="4698" y="-304.8" font-family="Helvetica,sans-Serif" font-size="8.00">CORE&#45;structural&#45;test&#45;coverage&#45;map &#45; M</text>
</g>
<!-- cool_ideas_CORE_wire_primitives_into_runtime -->
<g id="node36" class="node">
<title>cool_ideas_CORE_wire_primitives_into_runtime</title>
<path fill="#d4e8f7" stroke="black" d="M4934.43,-320.5C4934.43,-320.5 4799.57,-320.5 4799.57,-320.5 4795.38,-320.5 4791.18,-316.3 4791.18,-312.1 4791.18,-312.1 4791.18,-303.7 4791.18,-303.7 4791.18,-299.5 4795.38,-295.3 4799.57,-295.3 4799.57,-295.3 4934.43,-295.3 4934.43,-295.3 4938.62,-295.3 4942.82,-299.5 4942.82,-303.7 4942.82,-303.7 4942.82,-312.1 4942.82,-312.1 4942.82,-316.3 4938.62,-320.5 4934.43,-320.5"/>
<text xml:space="preserve" text-anchor="middle" x="4867" y="-304.8" font-family="Helvetica,sans-Serif" font-size="8.00">CORE&#45;wire&#45;primitives&#45;into&#45;runtime &#45; M</text>
</g>
<!-- cool_ideas_monitor_tick_ceiling_tracking -->
<g id="node37" class="node">
<title>cool_ideas_monitor_tick_ceiling_tracking</title>
<path fill="#d4e8f7" stroke="black" d="M5072.55,-320.5C5072.55,-320.5 4965.45,-320.5 4965.45,-320.5 4961.25,-320.5 4957.05,-316.3 4957.05,-312.1 4957.05,-312.1 4957.05,-303.7 4957.05,-303.7 4957.05,-299.5 4961.25,-295.3 4965.45,-295.3 4965.45,-295.3 5072.55,-295.3 5072.55,-295.3 5076.75,-295.3 5080.95,-299.5 5080.95,-303.7 5080.95,-303.7 5080.95,-312.1 5080.95,-312.1 5080.95,-316.3 5076.75,-320.5 5072.55,-320.5"/>
<text xml:space="preserve" text-anchor="middle" x="5019" y="-304.8" font-family="Helvetica,sans-Serif" font-size="8.00">monitor&#45;tick&#45;ceiling&#45;tracking &#45; S</text>
</g>
<!-- cool_ideas_WARP_background_indexing -->
<g id="node51" class="node">
<title>cool_ideas_WARP_background_indexing</title>
<path fill="#d4e8f7" stroke="black" d="M5075.55,-247.05C5075.55,-247.05 4962.45,-247.05 4962.45,-247.05 4958.25,-247.05 4954.05,-242.85 4954.05,-238.65 4954.05,-238.65 4954.05,-230.25 4954.05,-230.25 4954.05,-226.05 4958.25,-221.85 4962.45,-221.85 4962.45,-221.85 5075.55,-221.85 5075.55,-221.85 5079.75,-221.85 5083.95,-226.05 5083.95,-230.25 5083.95,-230.25 5083.95,-238.65 5083.95,-238.65 5083.95,-242.85 5079.75,-247.05 5075.55,-247.05"/>
<text xml:space="preserve" text-anchor="middle" x="5019" y="-231.35" font-family="Helvetica,sans-Serif" font-size="8.00">WARP&#45;background&#45;indexing &#45; M</text>
</g>
<!-- cool_ideas_monitor_tick_ceiling_tracking&#45;&gt;cool_ideas_WARP_background_indexing -->
<g id="edge1" class="edge">
<title>cool_ideas_monitor_tick_ceiling_tracking&#45;&gt;cool_ideas_WARP_background_indexing</title>
<path fill="none" stroke="#666666" d="M5019,-295.1C5019,-283.9 5019,-266.88 5019,-253.88"/>
<polygon fill="#666666" stroke="#666666" points="5020.75,-254.02 5019,-249.02 5017.25,-254.02 5020.75,-254.02"/>
<text xml:space="preserve" text-anchor="middle" x="5050.5" y="-268.65" font-family="Helvetica,sans-Serif" font-size="7.00">blocked_by/blocking</text>
</g>
<!-- cool_ideas_SURFACE_active_causal_workspace_status -->
<g id="node38" class="node">
<title>cool_ideas_SURFACE_active_causal_workspace_status</title>
<path fill="#d4e8f7" stroke="black" d="M5267.05,-320.5C5267.05,-320.5 5102.95,-320.5 5102.95,-320.5 5098.75,-320.5 5094.55,-316.3 5094.55,-312.1 5094.55,-312.1 5094.55,-303.7 5094.55,-303.7 5094.55,-299.5 5098.75,-295.3 5102.95,-295.3 5102.95,-295.3 5267.05,-295.3 5267.05,-295.3 5271.25,-295.3 5275.45,-299.5 5275.45,-303.7 5275.45,-303.7 5275.45,-312.1 5275.45,-312.1 5275.45,-316.3 5271.25,-320.5 5267.05,-320.5"/>
<text xml:space="preserve" text-anchor="middle" x="5185" y="-304.8" font-family="Helvetica,sans-Serif" font-size="8.00">SURFACE&#45;active&#45;causal&#45;workspace&#45;status &#45; M</text>
</g>
<!-- cool_ideas_SURFACE_ide_native_graft_integration -->
<g id="node42" class="node">
<title>cool_ideas_SURFACE_ide_native_graft_integration</title>
<path fill="#d4e8f7" stroke="black" d="M5260.3,-247.05C5260.3,-247.05 5109.7,-247.05 5109.7,-247.05 5105.5,-247.05 5101.3,-242.85 5101.3,-238.65 5101.3,-238.65 5101.3,-230.25 5101.3,-230.25 5101.3,-226.05 5105.5,-221.85 5109.7,-221.85 5109.7,-221.85 5260.3,-221.85 5260.3,-221.85 5264.5,-221.85 5268.7,-226.05 5268.7,-230.25 5268.7,-230.25 5268.7,-238.65 5268.7,-238.65 5268.7,-242.85 5264.5,-247.05 5260.3,-247.05"/>
<text xml:space="preserve" text-anchor="middle" x="5185" y="-231.35" font-family="Helvetica,sans-Serif" font-size="8.00">SURFACE&#45;ide&#45;native&#45;graft&#45;integration &#45; XL</text>
</g>
<!-- cool_ideas_SURFACE_active_causal_workspace_status&#45;&gt;cool_ideas_SURFACE_ide_native_graft_integration -->
<g id="edge2" class="edge">
<title>cool_ideas_SURFACE_active_causal_workspace_status&#45;&gt;cool_ideas_SURFACE_ide_native_graft_integration</title>
<path fill="none" stroke="#666666" d="M5185,-295.1C5185,-283.9 5185,-266.88 5185,-253.88"/>
<polygon fill="#666666" stroke="#666666" points="5186.75,-254.02 5185,-249.02 5183.25,-254.02 5186.75,-254.02"/>
<text xml:space="preserve" text-anchor="middle" x="5216.5" y="-268.65" font-family="Helvetica,sans-Serif" font-size="7.00">blocked_by/blocking</text>
</g>
<!-- cool_ideas_SURFACE_attach_to_existing_causal_session -->
<g id="node39" class="node">
<title>cool_ideas_SURFACE_attach_to_existing_causal_session</title>
<path fill="#d4e8f7" stroke="black" d="M5466.3,-320.5C5466.3,-320.5 5297.7,-320.5 5297.7,-320.5 5293.5,-320.5 5289.3,-316.3 5289.3,-312.1 5289.3,-312.1 5289.3,-303.7 5289.3,-303.7 5289.3,-299.5 5293.5,-295.3 5297.7,-295.3 5297.7,-295.3 5466.3,-295.3 5466.3,-295.3 5470.5,-295.3 5474.7,-299.5 5474.7,-303.7 5474.7,-303.7 5474.7,-312.1 5474.7,-312.1 5474.7,-316.3 5470.5,-320.5 5466.3,-320.5"/>
<text xml:space="preserve" text-anchor="middle" x="5382" y="-304.8" font-family="Helvetica,sans-Serif" font-size="8.00">SURFACE&#45;attach&#45;to&#45;existing&#45;causal&#45;session &#45; M</text>
</g>
<!-- cool_ideas_SURFACE_bijou_daemon_control_plane_actions -->
<g id="node40" class="node">
<title>cool_ideas_SURFACE_bijou_daemon_control_plane_actions</title>
<path fill="#d4e8f7" stroke="black" d="M5674.43,-320.5C5674.43,-320.5 5497.57,-320.5 5497.57,-320.5 5493.38,-320.5 5489.18,-316.3 5489.18,-312.1 5489.18,-312.1 5489.18,-303.7 5489.18,-303.7 5489.18,-299.5 5493.38,-295.3 5497.57,-295.3 5497.57,-295.3 5674.43,-295.3 5674.43,-295.3 5678.62,-295.3 5682.82,-299.5 5682.82,-303.7 5682.82,-303.7 5682.82,-312.1 5682.82,-312.1 5682.82,-316.3 5678.62,-320.5 5674.43,-320.5"/>
<text xml:space="preserve" text-anchor="middle" x="5586" y="-304.8" font-family="Helvetica,sans-Serif" font-size="8.00">SURFACE&#45;bijou&#45;daemon&#45;control&#45;plane&#45;actions &#45; L</text>
</g>
<!-- cool_ideas_SURFACE_bijou_daemon_status_live_refresh -->
<g id="node41" class="node">
<title>cool_ideas_SURFACE_bijou_daemon_status_live_refresh</title>
<path fill="#d4e8f7" stroke="black" d="M5874.3,-320.5C5874.3,-320.5 5705.7,-320.5 5705.7,-320.5 5701.5,-320.5 5697.3,-316.3 5697.3,-312.1 5697.3,-312.1 5697.3,-303.7 5697.3,-303.7 5697.3,-299.5 5701.5,-295.3 5705.7,-295.3 5705.7,-295.3 5874.3,-295.3 5874.3,-295.3 5878.5,-295.3 5882.7,-299.5 5882.7,-303.7 5882.7,-303.7 5882.7,-312.1 5882.7,-312.1 5882.7,-316.3 5878.5,-320.5 5874.3,-320.5"/>
<text xml:space="preserve" text-anchor="middle" x="5790" y="-304.8" font-family="Helvetica,sans-Serif" font-size="8.00">SURFACE&#45;bijou&#45;daemon&#45;status&#45;live&#45;refresh &#45; M</text>
</g>
<!-- cool_ideas_SURFACE_local_history_dag_render_mode_and_count_legend -->
<g id="node43" class="node">
<title>cool_ideas_SURFACE_local_history_dag_render_mode_and_count_legend</title>
<path fill="#d4e8f7" stroke="black" d="M6131.18,-320.5C6131.18,-320.5 5904.82,-320.5 5904.82,-320.5 5900.62,-320.5 5896.43,-316.3 5896.43,-312.1 5896.43,-312.1 5896.43,-303.7 5896.43,-303.7 5896.43,-299.5 5900.62,-295.3 5904.82,-295.3 5904.82,-295.3 6131.18,-295.3 6131.18,-295.3 6135.38,-295.3 6139.57,-299.5 6139.57,-303.7 6139.57,-303.7 6139.57,-312.1 6139.57,-312.1 6139.57,-316.3 6135.38,-320.5 6131.18,-320.5"/>
<text xml:space="preserve" text-anchor="middle" x="6018" y="-304.8" font-family="Helvetica,sans-Serif" font-size="8.00">SURFACE&#45;local&#45;history&#45;dag&#45;render&#45;mode&#45;and&#45;count&#45;legend &#45; S</text>
</g>
<!-- cool_ideas_SURFACE_non_codex_instruction_bootstrap_parity -->
<g id="node44" class="node">
<title>cool_ideas_SURFACE_non_codex_instruction_bootstrap_parity</title>
<path fill="#d4e8f7" stroke="black" d="M6350.43,-320.5C6350.43,-320.5 6161.57,-320.5 6161.57,-320.5 6157.38,-320.5 6153.18,-316.3 6153.18,-312.1 6153.18,-312.1 6153.18,-303.7 6153.18,-303.7 6153.18,-299.5 6157.38,-295.3 6161.57,-295.3 6161.57,-295.3 6350.43,-295.3 6350.43,-295.3 6354.62,-295.3 6358.82,-299.5 6358.82,-303.7 6358.82,-303.7 6358.82,-312.1 6358.82,-312.1 6358.82,-316.3 6354.62,-320.5 6350.43,-320.5"/>
<text xml:space="preserve" text-anchor="middle" x="6256" y="-304.8" font-family="Helvetica,sans-Serif" font-size="8.00">SURFACE&#45;non&#45;codex&#45;instruction&#45;bootstrap&#45;parity &#45; M</text>
</g>
<!-- cool_ideas_SURFACE_offer_rename_refactor -->
<g id="node45" class="node">
<title>cool_ideas_SURFACE_offer_rename_refactor</title>
<path fill="#d4e8f7" stroke="black" d="M6510.43,-320.5C6510.43,-320.5 6381.57,-320.5 6381.57,-320.5 6377.38,-320.5 6373.18,-316.3 6373.18,-312.1 6373.18,-312.1 6373.18,-303.7 6373.18,-303.7 6373.18,-299.5 6377.38,-295.3 6381.57,-295.3 6381.57,-295.3 6510.43,-295.3 6510.43,-295.3 6514.62,-295.3 6518.82,-299.5 6518.82,-303.7 6518.82,-303.7 6518.82,-312.1 6518.82,-312.1 6518.82,-316.3 6514.62,-320.5 6510.43,-320.5"/>
<text xml:space="preserve" text-anchor="middle" x="6446" y="-304.8" font-family="Helvetica,sans-Serif" font-size="8.00">SURFACE&#45;offer&#45;rename&#45;refactor &#45; L</text>
</g>
<!-- cool_ideas_SURFACE_terminal_activity_browser_tui -->
<g id="node46" class="node">
<title>cool_ideas_SURFACE_terminal_activity_browser_tui</title>
<path fill="#d4e8f7" stroke="black" d="M6690.55,-320.5C6690.55,-320.5 6541.45,-320.5 6541.45,-320.5 6537.25,-320.5 6533.05,-316.3 6533.05,-312.1 6533.05,-312.1 6533.05,-303.7 6533.05,-303.7 6533.05,-299.5 6537.25,-295.3 6541.45,-295.3 6541.45,-295.3 6690.55,-295.3 6690.55,-295.3 6694.75,-295.3 6698.95,-299.5 6698.95,-303.7 6698.95,-303.7 6698.95,-312.1 6698.95,-312.1 6698.95,-316.3 6694.75,-320.5 6690.55,-320.5"/>
<text xml:space="preserve" text-anchor="middle" x="6616" y="-304.8" font-family="Helvetica,sans-Serif" font-size="8.00">SURFACE&#45;terminal&#45;activity&#45;browser&#45;tui &#45; L</text>
</g>
<!-- cool_ideas_traverse_plus_query_hydration_helper -->
<g id="node47" class="node">
<title>cool_ideas_traverse_plus_query_hydration_helper</title>
<path fill="#d4e8f7" stroke="black" d="M6862.8,-320.5C6862.8,-320.5 6721.2,-320.5 6721.2,-320.5 6717,-320.5 6712.8,-316.3 6712.8,-312.1 6712.8,-312.1 6712.8,-303.7 6712.8,-303.7 6712.8,-299.5 6717,-295.3 6721.2,-295.3 6721.2,-295.3 6862.8,-295.3 6862.8,-295.3 6867,-295.3 6871.2,-299.5 6871.2,-303.7 6871.2,-303.7 6871.2,-312.1 6871.2,-312.1 6871.2,-316.3 6867,-320.5 6862.8,-320.5"/>
<text xml:space="preserve" text-anchor="middle" x="6792" y="-304.8" font-family="Helvetica,sans-Serif" font-size="8.00">traverse&#45;plus&#45;query&#45;hydration&#45;helper &#45; S</text>
</g>
<!-- cool_ideas_WARP_adaptive_projection_selection -->
<g id="node48" class="node">
<title>cool_ideas_WARP_adaptive_projection_selection</title>
<path fill="#d4e8f7" stroke="black" d="M7031.93,-320.5C7031.93,-320.5 6894.07,-320.5 6894.07,-320.5 6889.88,-320.5 6885.68,-316.3 6885.68,-312.1 6885.68,-312.1 6885.68,-303.7 6885.68,-303.7 6885.68,-299.5 6889.88,-295.3 6894.07,-295.3 6894.07,-295.3 7031.93,-295.3 7031.93,-295.3 7036.12,-295.3 7040.32,-299.5 7040.32,-303.7 7040.32,-303.7 7040.32,-312.1 7040.32,-312.1 7040.32,-316.3 7036.12,-320.5 7031.93,-320.5"/>
<text xml:space="preserve" text-anchor="middle" x="6963" y="-304.8" font-family="Helvetica,sans-Serif" font-size="8.00">WARP&#45;adaptive&#45;projection&#45;selection &#45; L</text>
</g>
<!-- cool_ideas_WARP_agent_action_provenance -->
<g id="node49" class="node">
<title>cool_ideas_WARP_agent_action_provenance</title>
<path fill="#d4e8f7" stroke="black" d="M7193.55,-320.5C7193.55,-320.5 7062.45,-320.5 7062.45,-320.5 7058.25,-320.5 7054.05,-316.3 7054.05,-312.1 7054.05,-312.1 7054.05,-303.7 7054.05,-303.7 7054.05,-299.5 7058.25,-295.3 7062.45,-295.3 7062.45,-295.3 7193.55,-295.3 7193.55,-295.3 7197.75,-295.3 7201.95,-299.5 7201.95,-303.7 7201.95,-303.7 7201.95,-312.1 7201.95,-312.1 7201.95,-316.3 7197.75,-320.5 7193.55,-320.5"/>
<text xml:space="preserve" text-anchor="middle" x="7128" y="-304.8" font-family="Helvetica,sans-Serif" font-size="8.00">WARP&#45;agent&#45;action&#45;provenance &#45; XL</text>
</g>
<!-- cool_ideas_WARP_agent_action_provenance&#45;&gt;cool_ideas_CI_001_causal_collapse_visualizer -->
<g id="edge3" class="edge">
<title>cool_ideas_WARP_agent_action_provenance&#45;&gt;cool_ideas_CI_001_causal_collapse_visualizer</title>
<path fill="none" stroke="#666666" d="M7153.81,-294.81C7166.04,-289.01 7180.83,-281.9 7194,-275.3 7209.99,-267.28 7227.7,-258.02 7242,-250.44"/>
<polygon fill="#666666" stroke="#666666" points="7242.57,-252.12 7246.16,-248.23 7240.92,-249.03 7242.57,-252.12"/>
<text xml:space="preserve" text-anchor="middle" x="7240.14" y="-268.65" font-family="Helvetica,sans-Serif" font-size="7.00">blocked_by/blocking</text>
</g>
<!-- cool_ideas_WARP_causal_write_tracking -->
<g id="node54" class="node">
<title>cool_ideas_WARP_causal_write_tracking</title>
<path fill="#d4e8f7" stroke="black" d="M6886.05,-247.05C6886.05,-247.05 6775.95,-247.05 6775.95,-247.05 6771.75,-247.05 6767.55,-242.85 6767.55,-238.65 6767.55,-238.65 6767.55,-230.25 6767.55,-230.25 6767.55,-226.05 6771.75,-221.85 6775.95,-221.85 6775.95,-221.85 6886.05,-221.85 6886.05,-221.85 6890.25,-221.85 6894.45,-226.05 6894.45,-230.25 6894.45,-230.25 6894.45,-238.65 6894.45,-238.65 6894.45,-242.85 6890.25,-247.05 6886.05,-247.05"/>
<text xml:space="preserve" text-anchor="middle" x="6831" y="-231.35" font-family="Helvetica,sans-Serif" font-size="8.00">WARP&#45;causal&#45;write&#45;tracking &#45; L</text>
</g>
<!-- cool_ideas_WARP_agent_action_provenance&#45;&gt;cool_ideas_WARP_causal_write_tracking -->
<g id="edge4" class="edge">
<title>cool_ideas_WARP_agent_action_provenance&#45;&gt;cool_ideas_WARP_causal_write_tracking</title>
<path fill="none" stroke="#666666" d="M7080.13,-294.83C7069.27,-292.23 7057.76,-289.58 7047,-287.3 7017.83,-281.12 7010.1,-281.8 6981,-275.3 6946.63,-267.62 6908.25,-257.4 6878.92,-249.23"/>
<polygon fill="#666666" stroke="#666666" points="6879.55,-247.58 6874.26,-247.92 6878.61,-250.96 6879.55,-247.58"/>
<text xml:space="preserve" text-anchor="middle" x="7012.5" y="-268.65" font-family="Helvetica,sans-Serif" font-size="7.00">blocked_by/blocking</text>
</g>
<!-- cool_ideas_WARP_intent_and_decision_events -->
<g id="node64" class="node">
<title>cool_ideas_WARP_intent_and_decision_events</title>
<path fill="#d4e8f7" stroke="black" d="M7049.3,-247.05C7049.3,-247.05 6916.7,-247.05 6916.7,-247.05 6912.5,-247.05 6908.3,-242.85 6908.3,-238.65 6908.3,-238.65 6908.3,-230.25 6908.3,-230.25 6908.3,-226.05 6912.5,-221.85 6916.7,-221.85 6916.7,-221.85 7049.3,-221.85 7049.3,-221.85 7053.5,-221.85 7057.7,-226.05 7057.7,-230.25 7057.7,-230.25 7057.7,-238.65 7057.7,-238.65 7057.7,-242.85 7053.5,-247.05 7049.3,-247.05"/>
<text xml:space="preserve" text-anchor="middle" x="6983" y="-231.35" font-family="Helvetica,sans-Serif" font-size="8.00">WARP&#45;intent&#45;and&#45;decision&#45;events &#45; M</text>
</g>
<!-- cool_ideas_WARP_agent_action_provenance&#45;&gt;cool_ideas_WARP_intent_and_decision_events -->
<g id="edge5" class="edge">
<title>cool_ideas_WARP_agent_action_provenance&#45;&gt;cool_ideas_WARP_intent_and_decision_events</title>
<path fill="none" stroke="#666666" d="M7102.55,-294.87C7090.27,-289.02 7075.34,-281.86 7062,-275.3 7045.45,-267.16 7027.05,-257.89 7012.17,-250.34"/>
<polygon fill="#666666" stroke="#666666" points="7013.04,-248.83 7007.79,-248.12 7011.46,-251.95 7013.04,-248.83"/>
<text xml:space="preserve" text-anchor="middle" x="7093.5" y="-268.65" font-family="Helvetica,sans-Serif" font-size="7.00">blocked_by/blocking</text>
</g>
<!-- cool_ideas_WARP_provenance_dag -->
<g id="node69" class="node">
<title>cool_ideas_WARP_provenance_dag</title>
<path fill="#d4e8f7" stroke="black" d="M7175.55,-247.05C7175.55,-247.05 7080.45,-247.05 7080.45,-247.05 7076.25,-247.05 7072.05,-242.85 7072.05,-238.65 7072.05,-238.65 7072.05,-230.25 7072.05,-230.25 7072.05,-226.05 7076.25,-221.85 7080.45,-221.85 7080.45,-221.85 7175.55,-221.85 7175.55,-221.85 7179.75,-221.85 7183.95,-226.05 7183.95,-230.25 7183.95,-230.25 7183.95,-238.65 7183.95,-238.65 7183.95,-242.85 7179.75,-247.05 7175.55,-247.05"/>
<text xml:space="preserve" text-anchor="middle" x="7128" y="-231.35" font-family="Helvetica,sans-Serif" font-size="8.00">WARP&#45;provenance&#45;dag &#45; L</text>
</g>
<!-- cool_ideas_WARP_agent_action_provenance&#45;&gt;cool_ideas_WARP_provenance_dag -->
<g id="edge6" class="edge">
<title>cool_ideas_WARP_agent_action_provenance&#45;&gt;cool_ideas_WARP_provenance_dag</title>
<path fill="none" stroke="#666666" d="M7128,-295.1C7128,-283.9 7128,-266.88 7128,-253.88"/>
<polygon fill="#666666" stroke="#666666" points="7129.75,-254.02 7128,-249.02 7126.25,-254.02 7129.75,-254.02"/>
<text xml:space="preserve" text-anchor="middle" x="7159.5" y="-268.65" font-family="Helvetica,sans-Serif" font-size="7.00">blocked_by/blocking</text>
</g>
<!-- cool_ideas_WARP_auto_breaking_change_detection -->
<g id="node50" class="node">
<title>cool_ideas_WARP_auto_breaking_change_detection</title>
<path fill="#d4e8f7" stroke="black" d="M10240.3,-247.05C10240.3,-247.05 10089.7,-247.05 10089.7,-247.05 10085.5,-247.05 10081.3,-242.85 10081.3,-238.65 10081.3,-238.65 10081.3,-230.25 10081.3,-230.25 10081.3,-226.05 10085.5,-221.85 10089.7,-221.85 10089.7,-221.85 10240.3,-221.85 10240.3,-221.85 10244.5,-221.85 10248.7,-226.05 10248.7,-230.25 10248.7,-230.25 10248.7,-238.65 10248.7,-238.65 10248.7,-242.85 10244.5,-247.05 10240.3,-247.05"/>
<text xml:space="preserve" text-anchor="middle" x="10165" y="-231.35" font-family="Helvetica,sans-Serif" font-size="8.00">WARP&#45;auto&#45;breaking&#45;change&#45;detection &#45; L</text>
</g>
<!-- cool_ideas_WARP_budget_elasticity -->
<g id="node52" class="node">
<title>cool_ideas_WARP_budget_elasticity</title>
<path fill="#d4e8f7" stroke="black" d="M7319.93,-320.5C7319.93,-320.5 7224.07,-320.5 7224.07,-320.5 7219.88,-320.5 7215.68,-316.3 7215.68,-312.1 7215.68,-312.1 7215.68,-303.7 7215.68,-303.7 7215.68,-299.5 7219.88,-295.3 7224.07,-295.3 7224.07,-295.3 7319.93,-295.3 7319.93,-295.3 7324.12,-295.3 7328.32,-299.5 7328.32,-303.7 7328.32,-303.7 7328.32,-312.1 7328.32,-312.1 7328.32,-316.3 7324.12,-320.5 7319.93,-320.5"/>
<text xml:space="preserve" text-anchor="middle" x="7272" y="-304.8" font-family="Helvetica,sans-Serif" font-size="8.00">WARP&#45;budget&#45;elasticity &#45; M</text>
</g>
<!-- cool_ideas_WARP_causal_blame_for_staged_artifacts -->
<g id="node53" class="node">
<title>cool_ideas_WARP_causal_blame_for_staged_artifacts</title>
<path fill="#d4e8f7" stroke="black" d="M7279.18,-173.6C7279.18,-173.6 7124.82,-173.6 7124.82,-173.6 7120.62,-173.6 7116.43,-169.4 7116.43,-165.2 7116.43,-165.2 7116.43,-156.8 7116.43,-156.8 7116.43,-152.6 7120.62,-148.4 7124.82,-148.4 7124.82,-148.4 7279.18,-148.4 7279.18,-148.4 7283.38,-148.4 7287.57,-152.6 7287.57,-156.8 7287.57,-156.8 7287.57,-165.2 7287.57,-165.2 7287.57,-169.4 7283.38,-173.6 7279.18,-173.6"/>
<text xml:space="preserve" text-anchor="middle" x="7202" y="-157.9" font-family="Helvetica,sans-Serif" font-size="8.00">WARP&#45;causal&#45;blame&#45;for&#45;staged&#45;artifacts &#45; L</text>
</g>
<!-- cool_ideas_WARP_codebase_entropy_trajectory -->
<g id="node55" class="node">
<title>cool_ideas_WARP_codebase_entropy_trajectory</title>
<path fill="#d4e8f7" stroke="black" d="M7489.68,-320.5C7489.68,-320.5 7350.32,-320.5 7350.32,-320.5 7346.12,-320.5 7341.93,-316.3 7341.93,-312.1 7341.93,-312.1 7341.93,-303.7 7341.93,-303.7 7341.93,-299.5 7346.12,-295.3 7350.32,-295.3 7350.32,-295.3 7489.68,-295.3 7489.68,-295.3 7493.88,-295.3 7498.07,-299.5 7498.07,-303.7 7498.07,-303.7 7498.07,-312.1 7498.07,-312.1 7498.07,-316.3 7493.88,-320.5 7489.68,-320.5"/>
<text xml:space="preserve" text-anchor="middle" x="7420" y="-304.8" font-family="Helvetica,sans-Serif" font-size="8.00">WARP&#45;codebase&#45;entropy&#45;trajectory &#45; M</text>
</g>
<!-- cool_ideas_WARP_counterfactual_refactoring -->
<g id="node57" class="node">
<title>cool_ideas_WARP_counterfactual_refactoring</title>
<path fill="#d4e8f7" stroke="black" d="M7497.68,-247.05C7497.68,-247.05 7364.32,-247.05 7364.32,-247.05 7360.12,-247.05 7355.93,-242.85 7355.93,-238.65 7355.93,-238.65 7355.93,-230.25 7355.93,-230.25 7355.93,-226.05 7360.12,-221.85 7364.32,-221.85 7364.32,-221.85 7497.68,-221.85 7497.68,-221.85 7501.88,-221.85 7506.07,-226.05 7506.07,-230.25 7506.07,-230.25 7506.07,-238.65 7506.07,-238.65 7506.07,-242.85 7501.88,-247.05 7497.68,-247.05"/>
<text xml:space="preserve" text-anchor="middle" x="7431" y="-231.35" font-family="Helvetica,sans-Serif" font-size="8.00">WARP&#45;counterfactual&#45;refactoring &#45; XL</text>
</g>
<!-- cool_ideas_WARP_codebase_entropy_trajectory&#45;&gt;cool_ideas_WARP_counterfactual_refactoring -->
<g id="edge7" class="edge">
<title>cool_ideas_WARP_codebase_entropy_trajectory&#45;&gt;cool_ideas_WARP_counterfactual_refactoring</title>
<path fill="none" stroke="#666666" d="M7421.82,-295.1C7423.54,-283.9 7426.16,-266.88 7428.16,-253.88"/>
<polygon fill="#666666" stroke="#666666" points="7429.88,-254.21 7428.91,-249 7426.42,-253.68 7429.88,-254.21"/>
<text xml:space="preserve" text-anchor="middle" x="7457.33" y="-268.65" font-family="Helvetica,sans-Serif" font-size="7.00">blocked_by/blocking</text>
</g>
<!-- cool_ideas_WARP_codebase_signature -->
<g id="node56" class="node">
<title>cool_ideas_WARP_codebase_signature</title>
<path fill="#d4e8f7" stroke="black" d="M7627.55,-320.5C7627.55,-320.5 7520.45,-320.5 7520.45,-320.5 7516.25,-320.5 7512.05,-316.3 7512.05,-312.1 7512.05,-312.1 7512.05,-303.7 7512.05,-303.7 7512.05,-299.5 7516.25,-295.3 7520.45,-295.3 7520.45,-295.3 7627.55,-295.3 7627.55,-295.3 7631.75,-295.3 7635.95,-299.5 7635.95,-303.7 7635.95,-303.7 7635.95,-312.1 7635.95,-312.1 7635.95,-316.3 7631.75,-320.5 7627.55,-320.5"/>
<text xml:space="preserve" text-anchor="middle" x="7574" y="-304.8" font-family="Helvetica,sans-Serif" font-size="8.00">WARP&#45;codebase&#45;signature &#45; L</text>
</g>
<!-- cool_ideas_WARP_structural_impact_prediction -->
<g id="node79" class="node">
<title>cool_ideas_WARP_structural_impact_prediction</title>
<path fill="#d4e8f7" stroke="black" d="M7500.3,-173.6C7500.3,-173.6 7361.7,-173.6 7361.7,-173.6 7357.5,-173.6 7353.3,-169.4 7353.3,-165.2 7353.3,-165.2 7353.3,-156.8 7353.3,-156.8 7353.3,-152.6 7357.5,-148.4 7361.7,-148.4 7361.7,-148.4 7500.3,-148.4 7500.3,-148.4 7504.5,-148.4 7508.7,-152.6 7508.7,-156.8 7508.7,-156.8 7508.7,-165.2 7508.7,-165.2 7508.7,-169.4 7504.5,-173.6 7500.3,-173.6"/>
<text xml:space="preserve" text-anchor="middle" x="7431" y="-157.9" font-family="Helvetica,sans-Serif" font-size="8.00">WARP&#45;structural&#45;impact&#45;prediction &#45; XL</text>
</g>
<!-- cool_ideas_WARP_counterfactual_refactoring&#45;&gt;cool_ideas_WARP_structural_impact_prediction -->
<g id="edge8" class="edge">
<title>cool_ideas_WARP_counterfactual_refactoring&#45;&gt;cool_ideas_WARP_structural_impact_prediction</title>
<path fill="none" stroke="#666666" d="M7431,-221.65C7431,-210.45 7431,-193.43 7431,-180.43"/>
<polygon fill="#666666" stroke="#666666" points="7432.75,-180.57 7431,-175.57 7429.25,-180.57 7432.75,-180.57"/>
<text xml:space="preserve" text-anchor="middle" x="7462.5" y="-195.2" font-family="Helvetica,sans-Serif" font-size="7.00">blocked_by/blocking</text>
</g>
<!-- cool_ideas_WARP_dead_symbol_detection -->
<g id="node58" class="node">
<title>cool_ideas_WARP_dead_symbol_detection</title>
<path fill="#d4e8f7" stroke="black" d="M7777.18,-320.5C7777.18,-320.5 7658.82,-320.5 7658.82,-320.5 7654.62,-320.5 7650.43,-316.3 7650.43,-312.1 7650.43,-312.1 7650.43,-303.7 7650.43,-303.7 7650.43,-299.5 7654.62,-295.3 7658.82,-295.3 7658.82,-295.3 7777.18,-295.3 7777.18,-295.3 7781.38,-295.3 7785.57,-299.5 7785.57,-303.7 7785.57,-303.7 7785.57,-312.1 7785.57,-312.1 7785.57,-316.3 7781.38,-320.5 7777.18,-320.5"/>
<text xml:space="preserve" text-anchor="middle" x="7718" y="-304.8" font-family="Helvetica,sans-Serif" font-size="8.00">WARP&#45;dead&#45;symbol&#45;detection &#45; S</text>
</g>
<!-- cool_ideas_WARP_degeneracy_warning -->
<g id="node59" class="node">
<title>cool_ideas_WARP_degeneracy_warning</title>
<path fill="#d4e8f7" stroke="black" d="M7920.18,-320.5C7920.18,-320.5 7807.82,-320.5 7807.82,-320.5 7803.62,-320.5 7799.43,-316.3 7799.43,-312.1 7799.43,-312.1 7799.43,-303.7 7799.43,-303.7 7799.43,-299.5 7803.62,-295.3 7807.82,-295.3 7807.82,-295.3 7920.18,-295.3 7920.18,-295.3 7924.38,-295.3 7928.57,-299.5 7928.57,-303.7 7928.57,-303.7 7928.57,-312.1 7928.57,-312.1 7928.57,-316.3 7924.38,-320.5 7920.18,-320.5"/>
<text xml:space="preserve" text-anchor="middle" x="7864" y="-304.8" font-family="Helvetica,sans-Serif" font-size="8.00">WARP&#45;degeneracy&#45;warning &#45; M</text>
</g>
<!-- cool_ideas_WARP_drift_sentinel -->
<g id="node60" class="node">
<title>cool_ideas_WARP_drift_sentinel</title>
<path fill="#d4e8f7" stroke="black" d="M9833.18,-247.05C9833.18,-247.05 9750.82,-247.05 9750.82,-247.05 9746.62,-247.05 9742.42,-242.85 9742.42,-238.65 9742.42,-238.65 9742.42,-230.25 9742.42,-230.25 9742.42,-226.05 9746.62,-221.85 9750.82,-221.85 9750.82,-221.85 9833.18,-221.85 9833.18,-221.85 9837.38,-221.85 9841.58,-226.05 9841.58,-230.25 9841.58,-230.25 9841.58,-238.65 9841.58,-238.65 9841.58,-242.85 9837.38,-247.05 9833.18,-247.05"/>
<text xml:space="preserve" text-anchor="middle" x="9792" y="-231.35" font-family="Helvetica,sans-Serif" font-size="8.00">WARP&#45;drift&#45;sentinel &#45; M</text>
</g>
<!-- cool_ideas_WARP_footprint_parallelism -->
<g id="node61" class="node">
<title>cool_ideas_WARP_footprint_parallelism</title>
<path fill="#d4e8f7" stroke="black" d="M8062.8,-320.5C8062.8,-320.5 7951.2,-320.5 7951.2,-320.5 7947,-320.5 7942.8,-316.3 7942.8,-312.1 7942.8,-312.1 7942.8,-303.7 7942.8,-303.7 7942.8,-299.5 7947,-295.3 7951.2,-295.3 7951.2,-295.3 8062.8,-295.3 8062.8,-295.3 8067,-295.3 8071.2,-299.5 8071.2,-303.7 8071.2,-303.7 8071.2,-312.1 8071.2,-312.1 8071.2,-316.3 8067,-320.5 8062.8,-320.5"/>
<text xml:space="preserve" text-anchor="middle" x="8007" y="-304.8" font-family="Helvetica,sans-Serif" font-size="8.00">WARP&#45;footprint&#45;parallelism &#45; XL</text>
</g>
<!-- cool_ideas_WARP_graft_pack -->
<g id="node62" class="node">
<title>cool_ideas_WARP_graft_pack</title>
<path fill="#d4e8f7" stroke="black" d="M8168.43,-320.5C8168.43,-320.5 8093.57,-320.5 8093.57,-320.5 8089.38,-320.5 8085.18,-316.3 8085.18,-312.1 8085.18,-312.1 8085.18,-303.7 8085.18,-303.7 8085.18,-299.5 8089.38,-295.3 8093.57,-295.3 8093.57,-295.3 8168.43,-295.3 8168.43,-295.3 8172.62,-295.3 8176.82,-299.5 8176.82,-303.7 8176.82,-303.7 8176.82,-312.1 8176.82,-312.1 8176.82,-316.3 8172.62,-320.5 8168.43,-320.5"/>
<text xml:space="preserve" text-anchor="middle" x="8131" y="-304.8" font-family="Helvetica,sans-Serif" font-size="8.00">WARP&#45;graft&#45;pack &#45; M</text>
</g>
<!-- cool_ideas_WARP_grouped_aggregate_queries -->
<g id="node63" class="node">
<title>cool_ideas_WARP_grouped_aggregate_queries</title>
<path fill="#d4e8f7" stroke="black" d="M8336.93,-320.5C8336.93,-320.5 8199.08,-320.5 8199.08,-320.5 8194.88,-320.5 8190.68,-316.3 8190.68,-312.1 8190.68,-312.1 8190.68,-303.7 8190.68,-303.7 8190.68,-299.5 8194.88,-295.3 8199.08,-295.3 8199.08,-295.3 8336.93,-295.3 8336.93,-295.3 8341.12,-295.3 8345.33,-299.5 8345.33,-303.7 8345.33,-303.7 8345.33,-312.1 8345.33,-312.1 8345.33,-316.3 8341.12,-320.5 8336.93,-320.5"/>
<text xml:space="preserve" text-anchor="middle" x="8268" y="-304.8" font-family="Helvetica,sans-Serif" font-size="8.00">WARP&#45;grouped&#45;aggregate&#45;queries &#45; M</text>
</g>
<!-- cool_ideas_WARP_intentional_degeneracy_privacy -->
<g id="node65" class="node">
<title>cool_ideas_WARP_intentional_degeneracy_privacy</title>
<path fill="#d4e8f7" stroke="black" d="M8515.8,-320.5C8515.8,-320.5 8368.2,-320.5 8368.2,-320.5 8364,-320.5 8359.8,-316.3 8359.8,-312.1 8359.8,-312.1 8359.8,-303.7 8359.8,-303.7 8359.8,-299.5 8364,-295.3 8368.2,-295.3 8368.2,-295.3 8515.8,-295.3 8515.8,-295.3 8520,-295.3 8524.2,-299.5 8524.2,-303.7 8524.2,-303.7 8524.2,-312.1 8524.2,-312.1 8524.2,-316.3 8520,-320.5 8515.8,-320.5"/>
<text xml:space="preserve" text-anchor="middle" x="8442" y="-304.8" font-family="Helvetica,sans-Serif" font-size="8.00">WARP&#45;intentional&#45;degeneracy&#45;privacy &#45; M</text>
</g>
<!-- cool_ideas_WARP_minimum_viable_context -->
<g id="node66" class="node">
<title>cool_ideas_WARP_minimum_viable_context</title>
<path fill="#d4e8f7" stroke="black" d="M8669.43,-320.5C8669.43,-320.5 8546.57,-320.5 8546.57,-320.5 8542.38,-320.5 8538.17,-316.3 8538.17,-312.1 8538.17,-312.1 8538.17,-303.7 8538.17,-303.7 8538.17,-299.5 8542.38,-295.3 8546.57,-295.3 8546.57,-295.3 8669.43,-295.3 8669.43,-295.3 8673.62,-295.3 8677.83,-299.5 8677.83,-303.7 8677.83,-303.7 8677.83,-312.1 8677.83,-312.1 8677.83,-316.3 8673.62,-320.5 8669.43,-320.5"/>
<text xml:space="preserve" text-anchor="middle" x="8608" y="-304.8" font-family="Helvetica,sans-Serif" font-size="8.00">WARP&#45;minimum&#45;viable&#45;context &#45; M</text>
</g>
<!-- cool_ideas_WARP_outline_diff_commit_trailer -->
<g id="node67" class="node">
<title>cool_ideas_WARP_outline_diff_commit_trailer</title>
<path fill="#d4e8f7" stroke="black" d="M8825.93,-320.5C8825.93,-320.5 8700.07,-320.5 8700.07,-320.5 8695.88,-320.5 8691.67,-316.3 8691.67,-312.1 8691.67,-312.1 8691.67,-303.7 8691.67,-303.7 8691.67,-299.5 8695.88,-295.3 8700.07,-295.3 8700.07,-295.3 8825.93,-295.3 8825.93,-295.3 8830.12,-295.3 8834.33,-299.5 8834.33,-303.7 8834.33,-303.7 8834.33,-312.1 8834.33,-312.1 8834.33,-316.3 8830.12,-320.5 8825.93,-320.5"/>
<text xml:space="preserve" text-anchor="middle" x="8763" y="-304.8" font-family="Helvetica,sans-Serif" font-size="8.00">WARP&#45;outline&#45;diff&#45;commit&#45;trailer &#45; S</text>
</g>
<!-- cool_ideas_WARP_projection_safety_classes -->
<g id="node68" class="node">
<title>cool_ideas_WARP_projection_safety_classes</title>
<path fill="#d4e8f7" stroke="black" d="M8982.93,-320.5C8982.93,-320.5 8857.07,-320.5 8857.07,-320.5 8852.88,-320.5 8848.67,-316.3 8848.67,-312.1 8848.67,-312.1 8848.67,-303.7 8848.67,-303.7 8848.67,-299.5 8852.88,-295.3 8857.07,-295.3 8857.07,-295.3 8982.93,-295.3 8982.93,-295.3 8987.12,-295.3 8991.33,-299.5 8991.33,-303.7 8991.33,-303.7 8991.33,-312.1 8991.33,-312.1 8991.33,-316.3 8987.12,-320.5 8982.93,-320.5"/>
<text xml:space="preserve" text-anchor="middle" x="8920" y="-304.8" font-family="Helvetica,sans-Serif" font-size="8.00">WARP&#45;projection&#45;safety&#45;classes &#45; M</text>
</g>
<!-- cool_ideas_WARP_provenance_dag&#45;&gt;cool_ideas_WARP_causal_blame_for_staged_artifacts -->
<g id="edge9" class="edge">
<title>cool_ideas_WARP_provenance_dag&#45;&gt;cool_ideas_WARP_causal_blame_for_staged_artifacts</title>
<path fill="none" stroke="#666666" d="M7140.22,-221.65C7152.46,-209.83 7171.41,-191.54 7185.09,-178.32"/>
<polygon fill="#666666" stroke="#666666" points="7186.04,-179.84 7188.43,-175.11 7183.61,-177.32 7186.04,-179.84"/>
<text xml:space="preserve" text-anchor="middle" x="7198.72" y="-195.2" font-family="Helvetica,sans-Serif" font-size="7.00">blocked_by/blocking</text>
</g>
<!-- cool_ideas_WARP_reasoning_trace_replay -->
<g id="node70" class="node">
<title>cool_ideas_WARP_reasoning_trace_replay</title>
<path fill="#d4e8f7" stroke="black" d="M7093.93,-173.6C7093.93,-173.6 6974.07,-173.6 6974.07,-173.6 6969.88,-173.6 6965.68,-169.4 6965.68,-165.2 6965.68,-165.2 6965.68,-156.8 6965.68,-156.8 6965.68,-152.6 6969.88,-148.4 6974.07,-148.4 6974.07,-148.4 7093.93,-148.4 7093.93,-148.4 7098.12,-148.4 7102.32,-152.6 7102.32,-156.8 7102.32,-156.8 7102.32,-165.2 7102.32,-165.2 7102.32,-169.4 7098.12,-173.6 7093.93,-173.6"/>
<text xml:space="preserve" text-anchor="middle" x="7034" y="-157.9" font-family="Helvetica,sans-Serif" font-size="8.00">WARP&#45;reasoning&#45;trace&#45;replay &#45; M</text>
</g>
<!-- cool_ideas_WARP_provenance_dag&#45;&gt;cool_ideas_WARP_reasoning_trace_replay -->
<g id="edge10" class="edge">
<title>cool_ideas_WARP_provenance_dag&#45;&gt;cool_ideas_WARP_reasoning_trace_replay</title>
<path fill="none" stroke="#666666" d="M7112.48,-221.65C7096.79,-209.73 7072.44,-191.22 7055.02,-177.98"/>
<polygon fill="#666666" stroke="#666666" points="7056.1,-176.6 7051.06,-174.97 7053.99,-179.39 7056.1,-176.6"/>
<text xml:space="preserve" text-anchor="middle" x="7115.32" y="-195.2" font-family="Helvetica,sans-Serif" font-size="7.00">blocked_by/blocking</text>
</g>
<!-- cool_ideas_WARP_rulial_heat_map -->
<g id="node71" class="node">
<title>cool_ideas_WARP_rulial_heat_map</title>
<path fill="#d4e8f7" stroke="black" d="M9104.3,-320.5C9104.3,-320.5 9013.7,-320.5 9013.7,-320.5 9009.5,-320.5 9005.3,-316.3 9005.3,-312.1 9005.3,-312.1 9005.3,-303.7 9005.3,-303.7 9005.3,-299.5 9009.5,-295.3 9013.7,-295.3 9013.7,-295.3 9104.3,-295.3 9104.3,-295.3 9108.5,-295.3 9112.7,-299.5 9112.7,-303.7 9112.7,-303.7 9112.7,-312.1 9112.7,-312.1 9112.7,-316.3 9108.5,-320.5 9104.3,-320.5"/>
<text xml:space="preserve" text-anchor="middle" x="9059" y="-304.8" font-family="Helvetica,sans-Serif" font-size="8.00">WARP&#45;rulial&#45;heat&#45;map &#45; L</text>
</g>
<!-- cool_ideas_WARP_semantic_drift_in_sessions -->
<g id="node72" class="node">
<title>cool_ideas_WARP_semantic_drift_in_sessions</title>
<path fill="#d4e8f7" stroke="black" d="M9264.43,-320.5C9264.43,-320.5 9135.57,-320.5 9135.57,-320.5 9131.38,-320.5 9127.17,-316.3 9127.17,-312.1 9127.17,-312.1 9127.17,-303.7 9127.17,-303.7 9127.17,-299.5 9131.38,-295.3 9135.57,-295.3 9135.57,-295.3 9264.43,-295.3 9264.43,-295.3 9268.62,-295.3 9272.83,-299.5 9272.83,-303.7 9272.83,-303.7 9272.83,-312.1 9272.83,-312.1 9272.83,-316.3 9268.62,-320.5 9264.43,-320.5"/>
<text xml:space="preserve" text-anchor="middle" x="9200" y="-304.8" font-family="Helvetica,sans-Serif" font-size="8.00">WARP&#45;semantic&#45;drift&#45;in&#45;sessions &#45; M</text>
</g>
<!-- cool_ideas_WARP_semantic_merge_conflict_prediction -->
<g id="node73" class="node">
<title>cool_ideas_WARP_semantic_merge_conflict_prediction</title>
<path fill="#d4e8f7" stroke="black" d="M10430.43,-247.05C10430.43,-247.05 10271.57,-247.05 10271.57,-247.05 10267.38,-247.05 10263.17,-242.85 10263.17,-238.65 10263.17,-238.65 10263.17,-230.25 10263.17,-230.25 10263.17,-226.05 10267.38,-221.85 10271.57,-221.85 10271.57,-221.85 10430.43,-221.85 10430.43,-221.85 10434.62,-221.85 10438.83,-226.05 10438.83,-230.25 10438.83,-230.25 10438.83,-238.65 10438.83,-238.65 10438.83,-242.85 10434.62,-247.05 10430.43,-247.05"/>
<text xml:space="preserve" text-anchor="middle" x="10351" y="-231.35" font-family="Helvetica,sans-Serif" font-size="8.00">WARP&#45;semantic&#45;merge&#45;conflict&#45;prediction &#45; L</text>
</g>
<!-- cool_ideas_WARP_session_filtration -->
<g id="node74" class="node">
<title>cool_ideas_WARP_session_filtration</title>
<path fill="#d4e8f7" stroke="black" d="M9388.8,-320.5C9388.8,-320.5 9295.2,-320.5 9295.2,-320.5 9291,-320.5 9286.8,-316.3 9286.8,-312.1 9286.8,-312.1 9286.8,-303.7 9286.8,-303.7 9286.8,-299.5 9291,-295.3 9295.2,-295.3 9295.2,-295.3 9388.8,-295.3 9388.8,-295.3 9393,-295.3 9397.2,-299.5 9397.2,-303.7 9397.2,-303.7 9397.2,-312.1 9397.2,-312.1 9397.2,-316.3 9393,-320.5 9388.8,-320.5"/>
<text xml:space="preserve" text-anchor="middle" x="9342" y="-304.8" font-family="Helvetica,sans-Serif" font-size="8.00">WARP&#45;session&#45;filtration &#45; L</text>
</g>
<!-- cool_ideas_WARP_shadow_structural_workspaces -->
<g id="node75" class="node">
<title>cool_ideas_WARP_shadow_structural_workspaces</title>
<path fill="#d4e8f7" stroke="black" d="M9570.3,-320.5C9570.3,-320.5 9419.7,-320.5 9419.7,-320.5 9415.5,-320.5 9411.3,-316.3 9411.3,-312.1 9411.3,-312.1 9411.3,-303.7 9411.3,-303.7 9411.3,-299.5 9415.5,-295.3 9419.7,-295.3 9419.7,-295.3 9570.3,-295.3 9570.3,-295.3 9574.5,-295.3 9578.7,-299.5 9578.7,-303.7 9578.7,-303.7 9578.7,-312.1 9578.7,-312.1 9578.7,-316.3 9574.5,-320.5 9570.3,-320.5"/>
<text xml:space="preserve" text-anchor="middle" x="9495" y="-304.8" font-family="Helvetica,sans-Serif" font-size="8.00">WARP&#45;shadow&#45;structural&#45;workspaces &#45; XL</text>
</g>
<!-- cool_ideas_WARP_speculative_merge -->
<g id="node76" class="node">
<title>cool_ideas_WARP_speculative_merge</title>
<path fill="#d4e8f7" stroke="black" d="M9708.55,-320.5C9708.55,-320.5 9601.45,-320.5 9601.45,-320.5 9597.25,-320.5 9593.05,-316.3 9593.05,-312.1 9593.05,-312.1 9593.05,-303.7 9593.05,-303.7 9593.05,-299.5 9597.25,-295.3 9601.45,-295.3 9601.45,-295.3 9708.55,-295.3 9708.55,-295.3 9712.75,-295.3 9716.95,-299.5 9716.95,-303.7 9716.95,-303.7 9716.95,-312.1 9716.95,-312.1 9716.95,-316.3 9712.75,-320.5 9708.55,-320.5"/>
<text xml:space="preserve" text-anchor="middle" x="9655" y="-304.8" font-family="Helvetica,sans-Serif" font-size="8.00">WARP&#45;speculative&#45;merge &#45; XL</text>
</g>
<!-- cool_ideas_WARP_stale_docs_checker -->
<g id="node77" class="node">
<title>cool_ideas_WARP_stale_docs_checker</title>
<path fill="#d4e8f7" stroke="black" d="M9844.8,-320.5C9844.8,-320.5 9739.2,-320.5 9739.2,-320.5 9735,-320.5 9730.8,-316.3 9730.8,-312.1 9730.8,-312.1 9730.8,-303.7 9730.8,-303.7 9730.8,-299.5 9735,-295.3 9739.2,-295.3 9739.2,-295.3 9844.8,-295.3 9844.8,-295.3 9849,-295.3 9853.2,-299.5 9853.2,-303.7 9853.2,-303.7 9853.2,-312.1 9853.2,-312.1 9853.2,-316.3 9849,-320.5 9844.8,-320.5"/>
<text xml:space="preserve" text-anchor="middle" x="9792" y="-304.8" font-family="Helvetica,sans-Serif" font-size="8.00">WARP&#45;stale&#45;docs&#45;checker &#45; M</text>
</g>
<!-- cool_ideas_WARP_stale_docs_checker&#45;&gt;cool_ideas_WARP_drift_sentinel -->
<g id="edge11" class="edge">
<title>cool_ideas_WARP_stale_docs_checker&#45;&gt;cool_ideas_WARP_drift_sentinel</title>
<path fill="none" stroke="#666666" d="M9792,-295.1C9792,-283.9 9792,-266.88 9792,-253.88"/>
<polygon fill="#666666" stroke="#666666" points="9793.75,-254.02 9792,-249.02 9790.25,-254.02 9793.75,-254.02"/>
<text xml:space="preserve" text-anchor="middle" x="9823.5" y="-268.65" font-family="Helvetica,sans-Serif" font-size="7.00">blocked_by/blocking</text>
</g>
<!-- cool_ideas_WARP_structural_drift_detection -->
<g id="node78" class="node">
<title>cool_ideas_WARP_structural_drift_detection</title>
<path fill="#d4e8f7" stroke="black" d="M9998.8,-320.5C9998.8,-320.5 9875.2,-320.5 9875.2,-320.5 9871,-320.5 9866.8,-316.3 9866.8,-312.1 9866.8,-312.1 9866.8,-303.7 9866.8,-303.7 9866.8,-299.5 9871,-295.3 9875.2,-295.3 9875.2,-295.3 9998.8,-295.3 9998.8,-295.3 10003,-295.3 10007.2,-299.5 10007.2,-303.7 10007.2,-303.7 10007.2,-312.1 10007.2,-312.1 10007.2,-316.3 10003,-320.5 9998.8,-320.5"/>
<text xml:space="preserve" text-anchor="middle" x="9937" y="-304.8" font-family="Helvetica,sans-Serif" font-size="8.00">WARP&#45;structural&#45;drift&#45;detection &#45; M</text>
</g>
<!-- cool_ideas_WARP_symbol_heatmap -->
<g id="node80" class="node">
<title>cool_ideas_WARP_symbol_heatmap</title>
<path fill="#d4e8f7" stroke="black" d="M10128.05,-320.5C10128.05,-320.5 10029.95,-320.5 10029.95,-320.5 10025.75,-320.5 10021.55,-316.3 10021.55,-312.1 10021.55,-312.1 10021.55,-303.7 10021.55,-303.7 10021.55,-299.5 10025.75,-295.3 10029.95,-295.3 10029.95,-295.3 10128.05,-295.3 10128.05,-295.3 10132.25,-295.3 10136.45,-299.5 10136.45,-303.7 10136.45,-303.7 10136.45,-312.1 10136.45,-312.1 10136.45,-316.3 10132.25,-320.5 10128.05,-320.5"/>
<text xml:space="preserve" text-anchor="middle" x="10079" y="-304.8" font-family="Helvetica,sans-Serif" font-size="8.00">WARP&#45;symbol&#45;heatmap &#45; M</text>
</g>
<!-- cool_ideas_WARP_symbol_history_timeline -->
<g id="node81" class="node">
<title>cool_ideas_WARP_symbol_history_timeline</title>
<path fill="#d4e8f7" stroke="black" d="M10277.18,-320.5C10277.18,-320.5 10158.82,-320.5 10158.82,-320.5 10154.62,-320.5 10150.42,-316.3 10150.42,-312.1 10150.42,-312.1 10150.42,-303.7 10150.42,-303.7 10150.42,-299.5 10154.62,-295.3 10158.82,-295.3 10158.82,-295.3 10277.18,-295.3 10277.18,-295.3 10281.38,-295.3 10285.58,-299.5 10285.58,-303.7 10285.58,-303.7 10285.58,-312.1 10285.58,-312.1 10285.58,-316.3 10281.38,-320.5 10277.18,-320.5"/>
<text xml:space="preserve" text-anchor="middle" x="10218" y="-304.8" font-family="Helvetica,sans-Serif" font-size="8.00">WARP&#45;symbol&#45;history&#45;timeline &#45; S</text>
</g>
<!-- cool_ideas_WARP_temporal_structural_search -->
<g id="node83" class="node">
<title>cool_ideas_WARP_temporal_structural_search</title>
<path fill="#d4e8f7" stroke="black" d="M10058.68,-247.05C10058.68,-247.05 9925.32,-247.05 9925.32,-247.05 9921.12,-247.05 9916.92,-242.85 9916.92,-238.65 9916.92,-238.65 9916.92,-230.25 9916.92,-230.25 9916.92,-226.05 9921.12,-221.85 9925.32,-221.85 9925.32,-221.85 10058.68,-221.85 10058.68,-221.85 10062.88,-221.85 10067.08,-226.05 10067.08,-230.25 10067.08,-230.25 10067.08,-238.65 10067.08,-238.65 10067.08,-242.85 10062.88,-247.05 10058.68,-247.05"/>
<text xml:space="preserve" text-anchor="middle" x="9992" y="-231.35" font-family="Helvetica,sans-Serif" font-size="8.00">WARP&#45;temporal&#45;structural&#45;search &#45; M</text>
</g>
<!-- cool_ideas_WARP_symbol_history_timeline&#45;&gt;cool_ideas_WARP_temporal_structural_search -->
<g id="edge12" class="edge">
<title>cool_ideas_WARP_symbol_history_timeline&#45;&gt;cool_ideas_WARP_temporal_structural_search</title>
<path fill="none" stroke="#666666" d="M10179.92,-294.86C10140.23,-282.31 10078.1,-262.67 10036.26,-249.44"/>
<polygon fill="#666666" stroke="#666666" points="10036.98,-247.83 10031.68,-248 10035.92,-251.17 10036.98,-247.83"/>
<text xml:space="preserve" text-anchor="middle" x="10143.28" y="-268.65" font-family="Helvetica,sans-Serif" font-size="7.00">blocked_by/blocking</text>
</g>
<!-- cool_ideas_WARP_technical_debt_curvature -->
<g id="node82" class="node">
<title>cool_ideas_WARP_technical_debt_curvature</title>
<path fill="#d4e8f7" stroke="black" d="M10430.43,-320.5C10430.43,-320.5 10307.57,-320.5 10307.57,-320.5 10303.38,-320.5 10299.17,-316.3 10299.17,-312.1 10299.17,-312.1 10299.17,-303.7 10299.17,-303.7 10299.17,-299.5 10303.38,-295.3 10307.57,-295.3 10307.57,-295.3 10430.43,-295.3 10430.43,-295.3 10434.62,-295.3 10438.83,-299.5 10438.83,-303.7 10438.83,-303.7 10438.83,-312.1 10438.83,-312.1 10438.83,-316.3 10434.62,-320.5 10430.43,-320.5"/>
<text xml:space="preserve" text-anchor="middle" x="10369" y="-304.8" font-family="Helvetica,sans-Serif" font-size="8.00">WARP&#45;technical&#45;debt&#45;curvature &#45; L</text>
</g>
<!-- external_git_warp_observer_geometry_ladder__Rung_2_4_ -->
<g id="node84" class="node">
<title>external_git_warp_observer_geometry_ladder__Rung_2_4_</title>
<path fill="#e8f2ff" stroke="black" d="M869.68,-320.5C869.68,-320.5 706.32,-320.5 706.32,-320.5 702.12,-320.5 697.92,-316.3 697.92,-312.1 697.92,-312.1 697.92,-303.7 697.92,-303.7 697.92,-299.5 702.12,-295.3 706.32,-295.3 706.32,-295.3 869.68,-295.3 869.68,-295.3 873.88,-295.3 878.08,-299.5 878.08,-303.7 878.08,-303.7 878.08,-312.1 878.08,-312.1 878.08,-316.3 873.88,-320.5 869.68,-320.5"/>
<text xml:space="preserve" text-anchor="middle" x="788" y="-304.8" font-family="Helvetica,sans-Serif" font-size="8.00">git&#45;warp observer geometry ladder (Rung 2&#45;4)</text>
</g>
<!-- external_git_warp_observer_geometry_ladder__Rung_2_4_&#45;&gt;v0_7_0_CORE_migrate_to_slice_first_reads -->
<g id="edge13" class="edge">
<title>external_git_warp_observer_geometry_ladder__Rung_2_4_&#45;&gt;v0_7_0_CORE_migrate_to_slice_first_reads</title>
<path fill="none" stroke="#4477aa" stroke-dasharray="5,2" d="M757.7,-294.94C726.5,-282.62 677.82,-263.41 644.28,-250.16"/>
<polygon fill="#4477aa" stroke="#4477aa" points="645.31,-248.69 640.02,-248.48 644.03,-251.95 645.31,-248.69"/>
<text xml:space="preserve" text-anchor="middle" x="734.8" y="-268.65" font-family="Helvetica,sans-Serif" font-size="7.00">blocked_by_external</text>
</g>
<!-- unresolved_CLEAN_CODE_export_diff_semver_signature_as_patch -->
<g id="node85" class="node">
<title>unresolved_CLEAN_CODE_export_diff_semver_signature_as_patch</title>
<path fill="#f2f2f2" stroke="black" stroke-dasharray="5,2" d="M10694.3,-320.5C10694.3,-320.5 10471.7,-320.5 10471.7,-320.5 10467.5,-320.5 10463.3,-316.3 10463.3,-312.1 10463.3,-312.1 10463.3,-303.7 10463.3,-303.7 10463.3,-299.5 10467.5,-295.3 10471.7,-295.3 10471.7,-295.3 10694.3,-295.3 10694.3,-295.3 10698.5,-295.3 10702.7,-299.5 10702.7,-303.7 10702.7,-303.7 10702.7,-312.1 10702.7,-312.1 10702.7,-316.3 10698.5,-320.5 10694.3,-320.5"/>
<text xml:space="preserve" text-anchor="middle" x="10583" y="-304.8" font-family="Helvetica,sans-Serif" font-size="8.00">missing: CLEAN_CODE_export&#45;diff&#45;semver&#45;signature&#45;as&#45;patch</text>
</g>
<!-- unresolved_CLEAN_CODE_export_diff_semver_signature_as_patch&#45;&gt;cool_ideas_WARP_auto_breaking_change_detection -->
<g id="edge14" class="edge">
<title>unresolved_CLEAN_CODE_export_diff_semver_signature_as_patch&#45;&gt;cool_ideas_WARP_auto_breaking_change_detection</title>
<path fill="none" stroke="#cc3333" stroke-dasharray="5,2" d="M10512.56,-294.86C10437.51,-282.03 10319.05,-261.78 10241.69,-248.56"/>
<polygon fill="#cc3333" stroke="#cc3333" points="10242.44,-246.91 10237.22,-247.79 10241.85,-250.36 10242.44,-246.91"/>
<text xml:space="preserve" text-anchor="middle" x="10404.16" y="-268.65" font-family="Helvetica,sans-Serif" font-size="7.00">blocked_by</text>
</g>
<!-- unresolved_CLEAN_CODE_export_diff_semver_signature_as_patch&#45;&gt;cool_ideas_WARP_semantic_merge_conflict_prediction -->
<g id="edge15" class="edge">
<title>unresolved_CLEAN_CODE_export_diff_semver_signature_as_patch&#45;&gt;cool_ideas_WARP_semantic_merge_conflict_prediction</title>
<path fill="none" stroke="#cc3333" stroke-dasharray="5,2" d="M10543.91,-294.86C10503.17,-282.31 10439.39,-262.67 10396.43,-249.44"/>
<polygon fill="#cc3333" stroke="#cc3333" points="10396.99,-247.78 10391.7,-247.98 10395.96,-251.13 10396.99,-247.78"/>
<text xml:space="preserve" text-anchor="middle" x="10491.58" y="-268.65" font-family="Helvetica,sans-Serif" font-size="7.00">blocked_by</text>
</g>
<!-- leg_v07 -->
<g id="node86" class="node">
<title>leg_v07</title>
<path fill="#ffa07a" stroke="black" stroke-width="2" d="M10819,-320.5C10819,-320.5 10735,-320.5 10735,-320.5 10730.8,-320.5 10726.6,-316.3 10726.6,-312.1 10726.6,-312.1 10726.6,-303.7 10726.6,-303.7 10726.6,-299.5 10730.8,-295.3 10735,-295.3 10735,-295.3 10819,-295.3 10819,-295.3 10823.2,-295.3 10827.4,-299.5 10827.4,-303.7 10827.4,-303.7 10827.4,-312.1 10827.4,-312.1 10827.4,-316.3 10823.2,-320.5 10819,-320.5"/>
<text xml:space="preserve" text-anchor="middle" x="10777" y="-305.38" font-family="Helvetica,sans-Serif" font-size="7.00">v0.7.0</text>
</g>
<!-- leg_bad -->
<g id="node87" class="node">
<title>leg_bad</title>
<path fill="#f6b3b3" stroke="black" stroke-width="2" d="M10819,-247.05C10819,-247.05 10735,-247.05 10735,-247.05 10730.8,-247.05 10726.6,-242.85 10726.6,-238.65 10726.6,-238.65 10726.6,-230.25 10726.6,-230.25 10726.6,-226.05 10730.8,-221.85 10735,-221.85 10735,-221.85 10819,-221.85 10819,-221.85 10823.2,-221.85 10827.4,-226.05 10827.4,-230.25 10827.4,-230.25 10827.4,-238.65 10827.4,-238.65 10827.4,-242.85 10823.2,-247.05 10819,-247.05"/>
<text xml:space="preserve" text-anchor="middle" x="10777" y="-231.92" font-family="Helvetica,sans-Serif" font-size="7.00">bad&#45;code</text>
</g>
<!-- leg_v07&#45;&gt;leg_bad -->
<!-- leg_idea -->
<g id="node88" class="node">
<title>leg_idea</title>
<path fill="#d4e8f7" stroke="black" d="M10819,-173.6C10819,-173.6 10735,-173.6 10735,-173.6 10730.8,-173.6 10726.6,-169.4 10726.6,-165.2 10726.6,-165.2 10726.6,-156.8 10726.6,-156.8 10726.6,-152.6 10730.8,-148.4 10735,-148.4 10735,-148.4 10819,-148.4 10819,-148.4 10823.2,-148.4 10827.4,-152.6 10827.4,-156.8 10827.4,-156.8 10827.4,-165.2 10827.4,-165.2 10827.4,-169.4 10823.2,-173.6 10819,-173.6"/>
<text xml:space="preserve" text-anchor="middle" x="10777" y="-158.47" font-family="Helvetica,sans-Serif" font-size="7.00">cool&#45;ideas</text>
</g>
<!-- leg_bad&#45;&gt;leg_idea -->
<!-- leg_external -->
<g id="node89" class="node">
<title>leg_external</title>
<path fill="#e8f2ff" stroke="black" d="M10819,-107.4C10819,-107.4 10735,-107.4 10735,-107.4 10730.8,-107.4 10726.6,-103.2 10726.6,-99 10726.6,-99 10726.6,-90.6 10726.6,-90.6 10726.6,-86.4 10730.8,-82.2 10735,-82.2 10735,-82.2 10819,-82.2 10819,-82.2 10823.2,-82.2 10827.4,-86.4 10827.4,-90.6 10827.4,-90.6 10827.4,-99 10827.4,-99 10827.4,-103.2 10823.2,-107.4 10819,-107.4"/>
<text xml:space="preserve" text-anchor="middle" x="10777" y="-92.28" font-family="Helvetica,sans-Serif" font-size="7.00">external blocker</text>
</g>
<!-- leg_idea&#45;&gt;leg_external -->
<!-- leg_unresolved -->
<g id="node90" class="node">
<title>leg_unresolved</title>
<path fill="#f2f2f2" stroke="black" stroke-dasharray="5,2" d="M10819,-41.2C10819,-41.2 10735,-41.2 10735,-41.2 10730.8,-41.2 10726.6,-37 10726.6,-32.8 10726.6,-32.8 10726.6,-24.4 10726.6,-24.4 10726.6,-20.2 10730.8,-16 10735,-16 10735,-16 10819,-16 10819,-16 10823.2,-16 10827.4,-20.2 10827.4,-24.4 10827.4,-24.4 10827.4,-32.8 10827.4,-32.8 10827.4,-37 10823.2,-41.2 10819,-41.2"/>
<text xml:space="preserve" text-anchor="middle" x="10777" y="-26.08" font-family="Helvetica,sans-Serif" font-size="7.00">unresolved ref</text>
</g>
<!-- leg_external&#45;&gt;leg_unresolved -->
</g>
</svg>
