<?xml version="1.0" encoding="UTF-8" standalone="no"?>
<!DOCTYPE svg PUBLIC "-//W3C//DTD SVG 1.1//EN"
 "http://www.w3.org/Graphics/SVG/1.1/DTD/svg11.dtd">
<!-- Generated by graphviz version 14.1.2 (20260124.0452)
 -->
<!-- Title: backlog Pages: 1 -->
<svg width="10964pt" height="383pt"
 viewBox="0.00 0.00 10964.00 383.00" xmlns="http://www.w3.org/2000/svg" xmlns:xlink="http://www.w3.org/1999/xlink">
<g id="graph0" class="graph" transform="scale(1 1) rotate(0) translate(4 379)">
<title>backlog</title>
<polygon fill="white" stroke="none" points="-4,4 -4,-379 10960,-379 10960,4 -4,4"/>
<text xml:space="preserve" text-anchor="middle" x="5478" y="-359.6" font-family="Helvetica,sans-Serif" font-size="12.00">Active backlog graph generated from docs/method/backlog/*/*.md</text>
<g id="clust1" class="cluster">
<title>cluster_asap</title>
<path fill="#fafafa" stroke="#cccccc" d="M20,-287.3C20,-287.3 172,-287.3 172,-287.3 178,-287.3 184,-293.3 184,-299.3 184,-299.3 184,-334.25 184,-334.25 184,-340.25 178,-346.25 172,-346.25 172,-346.25 20,-346.25 20,-346.25 14,-346.25 8,-340.25 8,-334.25 8,-334.25 8,-299.3 8,-299.3 8,-293.3 14,-287.3 20,-287.3"/>
<text xml:space="preserve" text-anchor="middle" x="32.88" y="-333.7" font-family="Helvetica,sans-Serif" font-size="9.00" fill="#555555">asap (1)</text>
</g>
<g id="clust2" class="cluster">
<title>cluster_cool_ideas</title>
<path fill="#fafafa" stroke="#cccccc" d="M204,-140.4C204,-140.4 10344,-140.4 10344,-140.4 10350,-140.4 10356,-146.4 10356,-152.4 10356,-152.4 10356,-334.25 10356,-334.25 10356,-340.25 10350,-346.25 10344,-346.25 10344,-346.25 204,-346.25 204,-346.25 198,-346.25 192,-340.25 192,-334.25 192,-334.25 192,-152.4 192,-152.4 192,-146.4 198,-140.4 204,-140.4"/>
<text xml:space="preserve" text-anchor="middle" x="231.5" y="-333.7" font-family="Helvetica,sans-Serif" font-size="9.00" fill="#555555">Cool Ideas (79)</text>
</g>
<g id="clust3" class="cluster">
<title>cluster_external</title>
<path fill="#f8fbff" stroke="#cccccc" d="M10376,-287.3C10376,-287.3 10548,-287.3 10548,-287.3 10554,-287.3 10560,-293.3 10560,-299.3 10560,-299.3 10560,-334.25 10560,-334.25 10560,-340.25 10554,-346.25 10548,-346.25 10548,-346.25 10376,-346.25 10376,-346.25 10370,-346.25 10364,-340.25 10364,-334.25 10364,-334.25 10364,-299.3 10364,-299.3 10364,-293.3 10370,-287.3 10376,-287.3"/>
<text xml:space="preserve" text-anchor="middle" x="10407.25" y="-333.7" font-family="Helvetica,sans-Serif" font-size="9.00" fill="#555555">External blockers</text>
</g>
<g id="clust4" class="cluster">
<title>cluster_unresolved</title>
<path fill="#fff7f7" stroke="#cc3333" stroke-dasharray="5,2" d="M10580,-287.3C10580,-287.3 10812,-287.3 10812,-287.3 10818,-287.3 10824,-293.3 10824,-299.3 10824,-299.3 10824,-334.25 10824,-334.25 10824,-340.25 10818,-346.25 10812,-346.25 10812,-346.25 10580,-346.25 10580,-346.25 10574,-346.25 10568,-340.25 10568,-334.25 10568,-334.25 10568,-299.3 10568,-299.3 10568,-293.3 10574,-287.3 10580,-287.3"/>
<text xml:space="preserve" text-anchor="middle" x="10624.75" y="-333.7" font-family="Helvetica,sans-Serif" font-size="9.00" fill="#555555">Unresolved internal refs</text>
</g>
<g id="clust5" class="cluster">
<title>cluster_legend</title>
<path fill="none" stroke="#dddddd" d="M10844,-8C10844,-8 10936,-8 10936,-8 10942,-8 10948,-14 10948,-20 10948,-20 10948,-333.5 10948,-333.5 10948,-339.5 10942,-345.5 10936,-345.5 10936,-345.5 10844,-345.5 10844,-345.5 10838,-345.5 10832,-339.5 10832,-333.5 10832,-333.5 10832,-20 10832,-20 10832,-14 10838,-8 10844,-8"/>
<text xml:space="preserve" text-anchor="middle" x="10853.5" y="-333.9" font-family="Helvetica,sans-Serif" font-size="8.00" fill="#aaaaaa">Legend</text>
</g>
<!-- asap_CORE_pr_review_structural_summary -->
<g id="node1" class="node">
<title>asap_CORE_pr_review_structural_summary</title>
<path fill="#e5e7eb" stroke="black" stroke-width="2" d="M167.92,-320.5C167.92,-320.5 24.08,-320.5 24.08,-320.5 19.88,-320.5 15.67,-316.3 15.67,-312.1 15.67,-312.1 15.67,-303.7 15.67,-303.7 15.67,-299.5 19.88,-295.3 24.08,-295.3 24.08,-295.3 167.92,-295.3 167.92,-295.3 172.12,-295.3 176.32,-299.5 176.32,-303.7 176.32,-303.7 176.32,-312.1 176.32,-312.1 176.32,-316.3 172.12,-320.5 167.92,-320.5"/>
<text xml:space="preserve" text-anchor="middle" x="96" y="-304.8" font-family="Helvetica,sans-Serif" font-size="8.00">CORE&#45;pr&#45;review&#45;structural&#45;summary &#45; M</text>
</g>
<!-- cool_ideas_bounded_neighborhood_for_references -->
<g id="node2" class="node">
<title>cool_ideas_bounded_neighborhood_for_references</title>
<path fill="#d4e8f7" stroke="black" d="M357.17,-320.5C357.17,-320.5 208.83,-320.5 208.83,-320.5 204.63,-320.5 200.43,-316.3 200.43,-312.1 200.43,-312.1 200.43,-303.7 200.43,-303.7 200.43,-299.5 204.63,-295.3 208.83,-295.3 208.83,-295.3 357.17,-295.3 357.17,-295.3 361.38,-295.3 365.57,-299.5 365.57,-303.7 365.57,-303.7 365.57,-312.1 365.57,-312.1 365.57,-316.3 361.38,-320.5 357.17,-320.5"/>
<text xml:space="preserve" text-anchor="middle" x="283" y="-304.8" font-family="Helvetica,sans-Serif" font-size="8.00">bounded&#45;neighborhood&#45;for&#45;references &#45; S</text>
</g>
<!-- cool_ideas_CI_001_causal_collapse_visualizer -->
<g id="node3" class="node">
<title>cool_ideas_CI_001_causal_collapse_visualizer</title>
<path fill="#d4e8f7" stroke="black" d="M7242.3,-247.05C7242.3,-247.05 7115.7,-247.05 7115.7,-247.05 7111.5,-247.05 7107.3,-242.85 7107.3,-238.65 7107.3,-238.65 7107.3,-230.25 7107.3,-230.25 7107.3,-226.05 7111.5,-221.85 7115.7,-221.85 7115.7,-221.85 7242.3,-221.85 7242.3,-221.85 7246.5,-221.85 7250.7,-226.05 7250.7,-230.25 7250.7,-230.25 7250.7,-238.65 7250.7,-238.65 7250.7,-242.85 7246.5,-247.05 7242.3,-247.05"/>
<text xml:space="preserve" text-anchor="middle" x="7179" y="-231.35" font-family="Helvetica,sans-Serif" font-size="8.00">CI&#45;001&#45;causal&#45;collapse&#45;visualizer &#45; L</text>
</g>
<!-- cool_ideas_CI_002_deterministic_scenario_replay -->
<g id="node4" class="node">
<title>cool_ideas_CI_002_deterministic_scenario_replay</title>
<path fill="#d4e8f7" stroke="black" d="M527.68,-320.5C527.68,-320.5 388.33,-320.5 388.33,-320.5 384.12,-320.5 379.93,-316.3 379.93,-312.1 379.93,-312.1 379.93,-303.7 379.93,-303.7 379.93,-299.5 384.12,-295.3 388.33,-295.3 388.33,-295.3 527.68,-295.3 527.68,-295.3 531.88,-295.3 536.08,-299.5 536.08,-303.7 536.08,-303.7 536.08,-312.1 536.08,-312.1 536.08,-316.3 531.88,-320.5 527.68,-320.5"/>
<text xml:space="preserve" text-anchor="middle" x="458" y="-304.8" font-family="Helvetica,sans-Serif" font-size="8.00">CI&#45;002&#45;deterministic&#45;scenario&#45;replay &#45; L</text>
</g>
<!-- cool_ideas_CI_003_mcp_native_diff_protocol -->
<g id="node5" class="node">
<title>cool_ideas_CI_003_mcp_native_diff_protocol</title>
<path fill="#d4e8f7" stroke="black" d="M681.8,-320.5C681.8,-320.5 558.2,-320.5 558.2,-320.5 554,-320.5 549.8,-316.3 549.8,-312.1 549.8,-312.1 549.8,-303.7 549.8,-303.7 549.8,-299.5 554,-295.3 558.2,-295.3 558.2,-295.3 681.8,-295.3 681.8,-295.3 686,-295.3 690.2,-299.5 690.2,-303.7 690.2,-303.7 690.2,-312.1 690.2,-312.1 690.2,-316.3 686,-320.5 681.8,-320.5"/>
<text xml:space="preserve" text-anchor="middle" x="620" y="-304.8" font-family="Helvetica,sans-Serif" font-size="8.00">CI&#45;003&#45;mcp&#45;native&#45;diff&#45;protocol &#45; M</text>
</g>
<!-- cool_ideas_CLEAN_CODE_parallel_agent_merge_shared_file_loss -->
<g id="node6" class="node">
<title>cool_ideas_CLEAN_CODE_parallel_agent_merge_shared_file_loss</title>
<path fill="#d4e8f7" stroke="black" d="M913.05,-320.5C913.05,-320.5 712.95,-320.5 712.95,-320.5 708.75,-320.5 704.55,-316.3 704.55,-312.1 704.55,-312.1 704.55,-303.7 704.55,-303.7 704.55,-299.5 708.75,-295.3 712.95,-295.3 712.95,-295.3 913.05,-295.3 913.05,-295.3 917.25,-295.3 921.45,-299.5 921.45,-303.7 921.45,-303.7 921.45,-312.1 921.45,-312.1 921.45,-316.3 917.25,-320.5 913.05,-320.5"/>
<text xml:space="preserve" text-anchor="middle" x="813" y="-304.8" font-family="Helvetica,sans-Serif" font-size="8.00">CLEAN&#45;CODE&#45;parallel&#45;agent&#45;merge&#45;shared&#45;file&#45;loss &#45; M</text>
</g>
<!-- cool_ideas_CORE_agent_handoff_protocol -->
<g id="node7" class="node">
<title>cool_ideas_CORE_agent_handoff_protocol</title>
<path fill="#d4e8f7" stroke="black" d="M1063.92,-320.5C1063.92,-320.5 944.07,-320.5 944.07,-320.5 939.88,-320.5 935.67,-316.3 935.67,-312.1 935.67,-312.1 935.67,-303.7 935.67,-303.7 935.67,-299.5 939.88,-295.3 944.07,-295.3 944.07,-295.3 1063.92,-295.3 1063.92,-295.3 1068.12,-295.3 1072.33,-299.5 1072.33,-303.7 1072.33,-303.7 1072.33,-312.1 1072.33,-312.1 1072.33,-316.3 1068.12,-320.5 1063.92,-320.5"/>
<text xml:space="preserve" text-anchor="middle" x="1004" y="-304.8" font-family="Helvetica,sans-Serif" font-size="8.00">CORE&#45;agent&#45;handoff&#45;protocol &#45; M</text>
</g>
<!-- cool_ideas_CORE_auto_focus -->
<g id="node8" class="node">
<title>cool_ideas_CORE_auto_focus</title>
<path fill="#d4e8f7" stroke="black" d="M1167.67,-320.5C1167.67,-320.5 1094.33,-320.5 1094.33,-320.5 1090.12,-320.5 1085.92,-316.3 1085.92,-312.1 1085.92,-312.1 1085.92,-303.7 1085.92,-303.7 1085.92,-299.5 1090.12,-295.3 1094.33,-295.3 1094.33,-295.3 1167.67,-295.3 1167.67,-295.3 1171.88,-295.3 1176.08,-299.5 1176.08,-303.7 1176.08,-303.7 1176.08,-312.1 1176.08,-312.1 1176.08,-316.3 1171.88,-320.5 1167.67,-320.5"/>
<text xml:space="preserve" text-anchor="middle" x="1131" y="-304.8" font-family="Helvetica,sans-Serif" font-size="8.00">CORE&#45;auto&#45;focus &#45; L</text>
</g>
<!-- cool_ideas_CORE_capture_range -->
<g id="node9" class="node">
<title>cool_ideas_CORE_capture_range</title>
<path fill="#d4e8f7" stroke="black" d="M1285.8,-320.5C1285.8,-320.5 1198.2,-320.5 1198.2,-320.5 1194,-320.5 1189.8,-316.3 1189.8,-312.1 1189.8,-312.1 1189.8,-303.7 1189.8,-303.7 1189.8,-299.5 1194,-295.3 1198.2,-295.3 1198.2,-295.3 1285.8,-295.3 1285.8,-295.3 1290,-295.3 1294.2,-299.5 1294.2,-303.7 1294.2,-303.7 1294.2,-312.1 1294.2,-312.1 1294.2,-316.3 1290,-320.5 1285.8,-320.5"/>
<text xml:space="preserve" text-anchor="middle" x="1242" y="-304.8" font-family="Helvetica,sans-Serif" font-size="8.00">CORE&#45;capture&#45;range &#45; S</text>
</g>
<!-- cool_ideas_CORE_constructor_in_disguise_lint -->
<g id="node10" class="node">
<title>cool_ideas_CORE_constructor_in_disguise_lint</title>
<path fill="#d4e8f7" stroke="black" d="M1447.55,-320.5C1447.55,-320.5 1316.45,-320.5 1316.45,-320.5 1312.25,-320.5 1308.05,-316.3 1308.05,-312.1 1308.05,-312.1 1308.05,-303.7 1308.05,-303.7 1308.05,-299.5 1312.25,-295.3 1316.45,-295.3 1316.45,-295.3 1447.55,-295.3 1447.55,-295.3 1451.75,-295.3 1455.95,-299.5 1455.95,-303.7 1455.95,-303.7 1455.95,-312.1 1455.95,-312.1 1455.95,-316.3 1451.75,-320.5 1447.55,-320.5"/>
<text xml:space="preserve" text-anchor="middle" x="1382" y="-304.8" font-family="Helvetica,sans-Serif" font-size="8.00">CORE&#45;constructor&#45;in&#45;disguise&#45;lint &#45; M</text>
</g>
<!-- cool_ideas_CORE_context_budget_forecasting -->
<g id="node11" class="node">
<title>cool_ideas_CORE_context_budget_forecasting</title>
<path fill="#d4e8f7" stroke="black" d="M1611.67,-320.5C1611.67,-320.5 1478.33,-320.5 1478.33,-320.5 1474.12,-320.5 1469.92,-316.3 1469.92,-312.1 1469.92,-312.1 1469.92,-303.7 1469.92,-303.7 1469.92,-299.5 1474.12,-295.3 1478.33,-295.3 1478.33,-295.3 1611.67,-295.3 1611.67,-295.3 1615.88,-295.3 1620.08,-299.5 1620.08,-303.7 1620.08,-303.7 1620.08,-312.1 1620.08,-312.1 1620.08,-316.3 1615.88,-320.5 1611.67,-320.5"/>
<text xml:space="preserve" text-anchor="middle" x="1545" y="-304.8" font-family="Helvetica,sans-Serif" font-size="8.00">CORE&#45;context&#45;budget&#45;forecasting &#45; M</text>
</g>
<!-- cool_ideas_CORE_conversation_primer -->
<g id="node12" class="node">
<title>cool_ideas_CORE_conversation_primer</title>
<path fill="#d4e8f7" stroke="black" d="M1751.67,-320.5C1751.67,-320.5 1642.33,-320.5 1642.33,-320.5 1638.12,-320.5 1633.92,-316.3 1633.92,-312.1 1633.92,-312.1 1633.92,-303.7 1633.92,-303.7 1633.92,-299.5 1638.12,-295.3 1642.33,-295.3 1642.33,-295.3 1751.67,-295.3 1751.67,-295.3 1755.88,-295.3 1760.08,-299.5 1760.08,-303.7 1760.08,-303.7 1760.08,-312.1 1760.08,-312.1 1760.08,-316.3 1755.88,-320.5 1751.67,-320.5"/>
<text xml:space="preserve" text-anchor="middle" x="1697" y="-304.8" font-family="Helvetica,sans-Serif" font-size="8.00">CORE&#45;conversation&#45;primer &#45; M</text>
</g>
<!-- cool_ideas_CORE_cross_session_resume -->
<g id="node13" class="node">
<title>cool_ideas_CORE_cross_session_resume</title>
<path fill="#d4e8f7" stroke="black" d="M1897.3,-320.5C1897.3,-320.5 1782.7,-320.5 1782.7,-320.5 1778.5,-320.5 1774.3,-316.3 1774.3,-312.1 1774.3,-312.1 1774.3,-303.7 1774.3,-303.7 1774.3,-299.5 1778.5,-295.3 1782.7,-295.3 1782.7,-295.3 1897.3,-295.3 1897.3,-295.3 1901.5,-295.3 1905.7,-299.5 1905.7,-303.7 1905.7,-303.7 1905.7,-312.1 1905.7,-312.1 1905.7,-316.3 1901.5,-320.5 1897.3,-320.5"/>
<text xml:space="preserve" text-anchor="middle" x="1840" y="-304.8" font-family="Helvetica,sans-Serif" font-size="8.00">CORE&#45;cross&#45;session&#45;resume &#45; S</text>
</g>
<!-- cool_ideas_CORE_graft_as_teacher -->
<g id="node14" class="node">
<title>cool_ideas_CORE_graft_as_teacher</title>
<path fill="#d4e8f7" stroke="black" d="M2022.17,-320.5C2022.17,-320.5 1927.83,-320.5 1927.83,-320.5 1923.62,-320.5 1919.42,-316.3 1919.42,-312.1 1919.42,-312.1 1919.42,-303.7 1919.42,-303.7 1919.42,-299.5 1923.62,-295.3 1927.83,-295.3 1927.83,-295.3 2022.17,-295.3 2022.17,-295.3 2026.38,-295.3 2030.58,-299.5 2030.58,-303.7 2030.58,-303.7 2030.58,-312.1 2030.58,-312.1 2030.58,-316.3 2026.38,-320.5 2022.17,-320.5"/>
<text xml:space="preserve" text-anchor="middle" x="1975" y="-304.8" font-family="Helvetica,sans-Serif" font-size="8.00">CORE&#45;graft&#45;as&#45;teacher &#45; S</text>
</g>
<!-- cool_ideas_CORE_graft_teach_learning_receipts -->
<g id="node15" class="node">
<title>cool_ideas_CORE_graft_teach_learning_receipts</title>
<path fill="#d4e8f7" stroke="black" d="M2190.92,-320.5C2190.92,-320.5 2053.07,-320.5 2053.07,-320.5 2048.88,-320.5 2044.67,-316.3 2044.67,-312.1 2044.67,-312.1 2044.67,-303.7 2044.67,-303.7 2044.67,-299.5 2048.88,-295.3 2053.07,-295.3 2053.07,-295.3 2190.92,-295.3 2190.92,-295.3 2195.12,-295.3 2199.32,-299.5 2199.32,-303.7 2199.32,-303.7 2199.32,-312.1 2199.32,-312.1 2199.32,-316.3 2195.12,-320.5 2190.92,-320.5"/>
<text xml:space="preserve" text-anchor="middle" x="2122" y="-304.8" font-family="Helvetica,sans-Serif" font-size="8.00">CORE&#45;graft&#45;teach&#45;learning&#45;receipts &#45; S</text>
</g>
<!-- cool_ideas_CORE_graft_tool_client -->
<g id="node16" class="node">
<title>cool_ideas_CORE_graft_tool_client</title>
<path fill="#d4e8f7" stroke="black" d="M2312.67,-320.5C2312.67,-320.5 2221.33,-320.5 2221.33,-320.5 2217.12,-320.5 2212.93,-316.3 2212.93,-312.1 2212.93,-312.1 2212.93,-303.7 2212.93,-303.7 2212.93,-299.5 2217.12,-295.3 2221.33,-295.3 2221.33,-295.3 2312.67,-295.3 2312.67,-295.3 2316.88,-295.3 2321.07,-299.5 2321.07,-303.7 2321.07,-303.7 2321.07,-312.1 2321.07,-312.1 2321.07,-316.3 2316.88,-320.5 2312.67,-320.5"/>
<text xml:space="preserve" text-anchor="middle" x="2267" y="-304.8" font-family="Helvetica,sans-Serif" font-size="8.00">CORE&#45;graft&#45;tool&#45;client &#45; M</text>
</g>
<!-- cool_ideas_CORE_horizon_of_readability -->
<g id="node17" class="node">
<title>cool_ideas_CORE_horizon_of_readability</title>
<path fill="#d4e8f7" stroke="black" d="M2456.55,-320.5C2456.55,-320.5 2343.45,-320.5 2343.45,-320.5 2339.25,-320.5 2335.05,-316.3 2335.05,-312.1 2335.05,-312.1 2335.05,-303.7 2335.05,-303.7 2335.05,-299.5 2339.25,-295.3 2343.45,-295.3 2343.45,-295.3 2456.55,-295.3 2456.55,-295.3 2460.75,-295.3 2464.95,-299.5 2464.95,-303.7 2464.95,-303.7 2464.95,-312.1 2464.95,-312.1 2464.95,-316.3 2460.75,-320.5 2456.55,-320.5"/>
<text xml:space="preserve" text-anchor="middle" x="2400" y="-304.8" font-family="Helvetica,sans-Serif" font-size="8.00">CORE&#45;horizon&#45;of&#45;readability &#45; M</text>
</g>
<!-- cool_ideas_CORE_lagrangian_policy -->
<g id="node18" class="node">
<title>cool_ideas_CORE_lagrangian_policy</title>
<path fill="#d4e8f7" stroke="black" d="M2588.55,-320.5C2588.55,-320.5 2487.45,-320.5 2487.45,-320.5 2483.25,-320.5 2479.05,-316.3 2479.05,-312.1 2479.05,-312.1 2479.05,-303.7 2479.05,-303.7 2479.05,-299.5 2483.25,-295.3 2487.45,-295.3 2487.45,-295.3 2588.55,-295.3 2588.55,-295.3 2592.75,-295.3 2596.95,-299.5 2596.95,-303.7 2596.95,-303.7 2596.95,-312.1 2596.95,-312.1 2596.95,-316.3 2592.75,-320.5 2588.55,-320.5"/>
<text xml:space="preserve" text-anchor="middle" x="2538" y="-304.8" font-family="Helvetica,sans-Serif" font-size="8.00">CORE&#45;lagrangian&#45;policy &#45; XL</text>
</g>
<!-- cool_ideas_CORE_migrate_to_slice_first_reads -->
<g id="node19" class="node">
<title>cool_ideas_CORE_migrate_to_slice_first_reads</title>
<path fill="#d4e8f7" stroke="black" d="M9967.8,-247.05C9967.8,-247.05 9850.2,-247.05 9850.2,-247.05 9846,-247.05 9841.8,-242.85 9841.8,-238.65 9841.8,-238.65 9841.8,-230.25 9841.8,-230.25 9841.8,-226.05 9846,-221.85 9850.2,-221.85 9850.2,-221.85 9967.8,-221.85 9967.8,-221.85 9972,-221.85 9976.2,-226.05 9976.2,-230.25 9976.2,-230.25 9976.2,-238.65 9976.2,-238.65 9976.2,-242.85 9972,-247.05 9967.8,-247.05"/>
<text xml:space="preserve" text-anchor="middle" x="9909" y="-231.35" font-family="Helvetica,sans-Serif" font-size="8.00">CORE&#45;migrate&#45;to&#45;slice&#45;first&#45;reads</text>
</g>
<!-- cool_ideas_CORE_multi_agent_conflict_detection -->
<g id="node20" class="node">
<title>cool_ideas_CORE_multi_agent_conflict_detection</title>
<path fill="#d4e8f7" stroke="black" d="M2756.92,-320.5C2756.92,-320.5 2619.08,-320.5 2619.08,-320.5 2614.88,-320.5 2610.68,-316.3 2610.68,-312.1 2610.68,-312.1 2610.68,-303.7 2610.68,-303.7 2610.68,-299.5 2614.88,-295.3 2619.08,-295.3 2619.08,-295.3 2756.92,-295.3 2756.92,-295.3 2761.12,-295.3 2765.32,-299.5 2765.32,-303.7 2765.32,-303.7 2765.32,-312.1 2765.32,-312.1 2765.32,-316.3 2761.12,-320.5 2756.92,-320.5"/>
<text xml:space="preserve" text-anchor="middle" x="2688" y="-304.8" font-family="Helvetica,sans-Serif" font-size="8.00">CORE&#45;multi&#45;agent&#45;conflict&#45;detection &#45; L</text>
</g>
<!-- cool_ideas_CORE_policy_playground -->
<g id="node21" class="node">
<title>cool_ideas_CORE_policy_playground</title>
<path fill="#d4e8f7" stroke="black" d="M2886.42,-320.5C2886.42,-320.5 2787.58,-320.5 2787.58,-320.5 2783.38,-320.5 2779.18,-316.3 2779.18,-312.1 2779.18,-312.1 2779.18,-303.7 2779.18,-303.7 2779.18,-299.5 2783.38,-295.3 2787.58,-295.3 2787.58,-295.3 2886.42,-295.3 2886.42,-295.3 2890.62,-295.3 2894.82,-299.5 2894.82,-303.7 2894.82,-303.7 2894.82,-312.1 2894.82,-312.1 2894.82,-316.3 2890.62,-320.5 2886.42,-320.5"/>
<text xml:space="preserve" text-anchor="middle" x="2837" y="-304.8" font-family="Helvetica,sans-Serif" font-size="8.00">CORE&#45;policy&#45;playground &#45; S</text>
</g>
<!-- cool_ideas_CORE_policy_profiles -->
<g id="node22" class="node">
<title>cool_ideas_CORE_policy_profiles</title>
<path fill="#d4e8f7" stroke="black" d="M3003.05,-320.5C3003.05,-320.5 2916.95,-320.5 2916.95,-320.5 2912.75,-320.5 2908.55,-316.3 2908.55,-312.1 2908.55,-312.1 2908.55,-303.7 2908.55,-303.7 2908.55,-299.5 2912.75,-295.3 2916.95,-295.3 2916.95,-295.3 3003.05,-295.3 3003.05,-295.3 3007.25,-295.3 3011.45,-299.5 3011.45,-303.7 3011.45,-303.7 3011.45,-312.1 3011.45,-312.1 3011.45,-316.3 3007.25,-320.5 3003.05,-320.5"/>
<text xml:space="preserve" text-anchor="middle" x="2960" y="-304.8" font-family="Helvetica,sans-Serif" font-size="8.00">CORE&#45;policy&#45;profiles &#45; M</text>
</g>
<!-- cool_ideas_CORE_self_tuning_governor -->
<g id="node23" class="node">
<title>cool_ideas_CORE_self_tuning_governor</title>
<path fill="#d4e8f7" stroke="black" d="M3144.05,-320.5C3144.05,-320.5 3033.95,-320.5 3033.95,-320.5 3029.75,-320.5 3025.55,-316.3 3025.55,-312.1 3025.55,-312.1 3025.55,-303.7 3025.55,-303.7 3025.55,-299.5 3029.75,-295.3 3033.95,-295.3 3033.95,-295.3 3144.05,-295.3 3144.05,-295.3 3148.25,-295.3 3152.45,-299.5 3152.45,-303.7 3152.45,-303.7 3152.45,-312.1 3152.45,-312.1 3152.45,-316.3 3148.25,-320.5 3144.05,-320.5"/>
<text xml:space="preserve" text-anchor="middle" x="3089" y="-304.8" font-family="Helvetica,sans-Serif" font-size="8.00">CORE&#45;self&#45;tuning&#45;governor &#45; M</text>
</g>
<!-- cool_ideas_CORE_session_knowledge_map -->
<g id="node24" class="node">
<title>cool_ideas_CORE_session_knowledge_map</title>
<path fill="#d4e8f7" stroke="black" d="M3297.42,-320.5C3297.42,-320.5 3174.58,-320.5 3174.58,-320.5 3170.38,-320.5 3166.18,-316.3 3166.18,-312.1 3166.18,-312.1 3166.18,-303.7 3166.18,-303.7 3166.18,-299.5 3170.38,-295.3 3174.58,-295.3 3174.58,-295.3 3297.42,-295.3 3297.42,-295.3 3301.62,-295.3 3305.82,-299.5 3305.82,-303.7 3305.82,-303.7 3305.82,-312.1 3305.82,-312.1 3305.82,-316.3 3301.62,-320.5 3297.42,-320.5"/>
<text xml:space="preserve" text-anchor="middle" x="3236" y="-304.8" font-family="Helvetica,sans-Serif" font-size="8.00">CORE&#45;session&#45;knowledge&#45;map &#45; S</text>
</g>
<!-- cool_ideas_CORE_speculative_read_cost -->
<g id="node25" class="node">
<title>cool_ideas_CORE_speculative_read_cost</title>
<path fill="#d4e8f7" stroke="black" d="M3440.17,-320.5C3440.17,-320.5 3327.83,-320.5 3327.83,-320.5 3323.62,-320.5 3319.43,-316.3 3319.43,-312.1 3319.43,-312.1 3319.43,-303.7 3319.43,-303.7 3319.43,-299.5 3323.62,-295.3 3327.83,-295.3 3327.83,-295.3 3440.17,-295.3 3440.17,-295.3 3444.38,-295.3 3448.57,-299.5 3448.57,-303.7 3448.57,-303.7 3448.57,-312.1 3448.57,-312.1 3448.57,-316.3 3444.38,-320.5 3440.17,-320.5"/>
<text xml:space="preserve" text-anchor="middle" x="3384" y="-304.8" font-family="Helvetica,sans-Serif" font-size="8.00">CORE&#45;speculative&#45;read&#45;cost &#45; S</text>
</g>
<!-- cool_ideas_CORE_structural_session_replay -->
<g id="node26" class="node">
<title>cool_ideas_CORE_structural_session_replay</title>
<path fill="#d4e8f7" stroke="black" d="M3596.55,-320.5C3596.55,-320.5 3471.45,-320.5 3471.45,-320.5 3467.25,-320.5 3463.05,-316.3 3463.05,-312.1 3463.05,-312.1 3463.05,-303.7 3463.05,-303.7 3463.05,-299.5 3467.25,-295.3 3471.45,-295.3 3471.45,-295.3 3596.55,-295.3 3596.55,-295.3 3600.75,-295.3 3604.95,-299.5 3604.95,-303.7 3604.95,-303.7 3604.95,-312.1 3604.95,-312.1 3604.95,-316.3 3600.75,-320.5 3596.55,-320.5"/>
<text xml:space="preserve" text-anchor="middle" x="3534" y="-304.8" font-family="Helvetica,sans-Serif" font-size="8.00">CORE&#45;structural&#45;session&#45;replay &#45; M</text>
</g>
<!-- cool_ideas_CORE_structural_test_coverage_map -->
<g id="node27" class="node">
<title>cool_ideas_CORE_structural_test_coverage_map</title>
<path fill="#d4e8f7" stroke="black" d="M3768.8,-320.5C3768.8,-320.5 3627.2,-320.5 3627.2,-320.5 3623,-320.5 3618.8,-316.3 3618.8,-312.1 3618.8,-312.1 3618.8,-303.7 3618.8,-303.7 3618.8,-299.5 3623,-295.3 3627.2,-295.3 3627.2,-295.3 3768.8,-295.3 3768.8,-295.3 3773,-295.3 3777.2,-299.5 3777.2,-303.7 3777.2,-303.7 3777.2,-312.1 3777.2,-312.1 3777.2,-316.3 3773,-320.5 3768.8,-320.5"/>
<text xml:space="preserve" text-anchor="middle" x="3698" y="-304.8" font-family="Helvetica,sans-Serif" font-size="8.00">CORE&#45;structural&#45;test&#45;coverage&#45;map &#45; M</text>
</g>
<!-- cool_ideas_CORE_wire_primitives_into_runtime -->
<g id="node28" class="node">
<title>cool_ideas_CORE_wire_primitives_into_runtime</title>
<path fill="#d4e8f7" stroke="black" d="M3934.42,-320.5C3934.42,-320.5 3799.58,-320.5 3799.58,-320.5 3795.38,-320.5 3791.18,-316.3 3791.18,-312.1 3791.18,-312.1 3791.18,-303.7 3791.18,-303.7 3791.18,-299.5 3795.38,-295.3 3799.58,-295.3 3799.58,-295.3 3934.42,-295.3 3934.42,-295.3 3938.62,-295.3 3942.82,-299.5 3942.82,-303.7 3942.82,-303.7 3942.82,-312.1 3942.82,-312.1 3942.82,-316.3 3938.62,-320.5 3934.42,-320.5"/>
<text xml:space="preserve" text-anchor="middle" x="3867" y="-304.8" font-family="Helvetica,sans-Serif" font-size="8.00">CORE&#45;wire&#45;primitives&#45;into&#45;runtime &#45; M</text>
</g>
<!-- cool_ideas_monitor_tick_ceiling_tracking -->
<g id="node29" class="node">
<title>cool_ideas_monitor_tick_ceiling_tracking</title>
<path fill="#d4e8f7" stroke="black" d="M4072.55,-320.5C4072.55,-320.5 3965.45,-320.5 3965.45,-320.5 3961.25,-320.5 3957.05,-316.3 3957.05,-312.1 3957.05,-312.1 3957.05,-303.7 3957.05,-303.7 3957.05,-299.5 3961.25,-295.3 3965.45,-295.3 3965.45,-295.3 4072.55,-295.3 4072.55,-295.3 4076.75,-295.3 4080.95,-299.5 4080.95,-303.7 4080.95,-303.7 4080.95,-312.1 4080.95,-312.1 4080.95,-316.3 4076.75,-320.5 4072.55,-320.5"/>
<text xml:space="preserve" text-anchor="middle" x="4019" y="-304.8" font-family="Helvetica,sans-Serif" font-size="8.00">monitor&#45;tick&#45;ceiling&#45;tracking &#45; S</text>
</g>
<!-- cool_ideas_WARP_background_indexing -->
<g id="node48" class="node">
<title>cool_ideas_WARP_background_indexing</title>
<path fill="#d4e8f7" stroke="black" d="M4075.55,-247.05C4075.55,-247.05 3962.45,-247.05 3962.45,-247.05 3958.25,-247.05 3954.05,-242.85 3954.05,-238.65 3954.05,-238.65 3954.05,-230.25 3954.05,-230.25 3954.05,-226.05 3958.25,-221.85 3962.45,-221.85 3962.45,-221.85 4075.55,-221.85 4075.55,-221.85 4079.75,-221.85 4083.95,-226.05 4083.95,-230.25 4083.95,-230.25 4083.95,-238.65 4083.95,-238.65 4083.95,-242.85 4079.75,-247.05 4075.55,-247.05"/>
<text xml:space="preserve" text-anchor="middle" x="4019" y="-231.35" font-family="Helvetica,sans-Serif" font-size="8.00">WARP&#45;background&#45;indexing &#45; M</text>
</g>
<!-- cool_ideas_monitor_tick_ceiling_tracking&#45;&gt;cool_ideas_WARP_background_indexing -->
<g id="edge1" class="edge">
<title>cool_ideas_monitor_tick_ceiling_tracking&#45;&gt;cool_ideas_WARP_background_indexing</title>
<path fill="none" stroke="#666666" d="M4019,-295.1C4019,-283.9 4019,-266.88 4019,-253.88"/>
<polygon fill="#666666" stroke="#666666" points="4020.75,-254.02 4019,-249.02 4017.25,-254.02 4020.75,-254.02"/>
<text xml:space="preserve" text-anchor="middle" x="4050.5" y="-268.65" font-family="Helvetica,sans-Serif" font-size="7.00">blocked_by/blocking</text>
</g>
<!-- cool_ideas_SURFACE_active_causal_workspace_status -->
<g id="node30" class="node">
<title>cool_ideas_SURFACE_active_causal_workspace_status</title>
<path fill="#d4e8f7" stroke="black" d="M4267.05,-320.5C4267.05,-320.5 4102.95,-320.5 4102.95,-320.5 4098.75,-320.5 4094.55,-316.3 4094.55,-312.1 4094.55,-312.1 4094.55,-303.7 4094.55,-303.7 4094.55,-299.5 4098.75,-295.3 4102.95,-295.3 4102.95,-295.3 4267.05,-295.3 4267.05,-295.3 4271.25,-295.3 4275.45,-299.5 4275.45,-303.7 4275.45,-303.7 4275.45,-312.1 4275.45,-312.1 4275.45,-316.3 4271.25,-320.5 4267.05,-320.5"/>
<text xml:space="preserve" text-anchor="middle" x="4185" y="-304.8" font-family="Helvetica,sans-Serif" font-size="8.00">SURFACE&#45;active&#45;causal&#45;workspace&#45;status &#45; M</text>
</g>
<!-- cool_ideas_SURFACE_ide_native_graft_integration -->
<g id="node36" class="node">
<title>cool_ideas_SURFACE_ide_native_graft_integration</title>
<path fill="#d4e8f7" stroke="black" d="M4260.3,-247.05C4260.3,-247.05 4109.7,-247.05 4109.7,-247.05 4105.5,-247.05 4101.3,-242.85 4101.3,-238.65 4101.3,-238.65 4101.3,-230.25 4101.3,-230.25 4101.3,-226.05 4105.5,-221.85 4109.7,-221.85 4109.7,-221.85 4260.3,-221.85 4260.3,-221.85 4264.5,-221.85 4268.7,-226.05 4268.7,-230.25 4268.7,-230.25 4268.7,-238.65 4268.7,-238.65 4268.7,-242.85 4264.5,-247.05 4260.3,-247.05"/>
<text xml:space="preserve" text-anchor="middle" x="4185" y="-231.35" font-family="Helvetica,sans-Serif" font-size="8.00">SURFACE&#45;ide&#45;native&#45;graft&#45;integration &#45; XL</text>
</g>
<!-- cool_ideas_SURFACE_active_causal_workspace_status&#45;&gt;cool_ideas_SURFACE_ide_native_graft_integration -->
<g id="edge2" class="edge">
<title>cool_ideas_SURFACE_active_causal_workspace_status&#45;&gt;cool_ideas_SURFACE_ide_native_graft_integration</title>
<path fill="none" stroke="#666666" d="M4185,-295.1C4185,-283.9 4185,-266.88 4185,-253.88"/>
<polygon fill="#666666" stroke="#666666" points="4186.75,-254.02 4185,-249.02 4183.25,-254.02 4186.75,-254.02"/>
<text xml:space="preserve" text-anchor="middle" x="4216.5" y="-268.65" font-family="Helvetica,sans-Serif" font-size="7.00">blocked_by/blocking</text>
</g>
<!-- cool_ideas_SURFACE_attach_to_existing_causal_session -->
<g id="node31" class="node">
<title>cool_ideas_SURFACE_attach_to_existing_causal_session</title>
<path fill="#d4e8f7" stroke="black" d="M4466.3,-320.5C4466.3,-320.5 4297.7,-320.5 4297.7,-320.5 4293.5,-320.5 4289.3,-316.3 4289.3,-312.1 4289.3,-312.1 4289.3,-303.7 4289.3,-303.7 4289.3,-299.5 4293.5,-295.3 4297.7,-295.3 4297.7,-295.3 4466.3,-295.3 4466.3,-295.3 4470.5,-295.3 4474.7,-299.5 4474.7,-303.7 4474.7,-303.7 4474.7,-312.1 4474.7,-312.1 4474.7,-316.3 4470.5,-320.5 4466.3,-320.5"/>
<text xml:space="preserve" text-anchor="middle" x="4382" y="-304.8" font-family="Helvetica,sans-Serif" font-size="8.00">SURFACE&#45;attach&#45;to&#45;existing&#45;causal&#45;session &#45; M</text>
</g>
<!-- cool_ideas_SURFACE_bijou_daemon_control_plane_actions -->
<g id="node32" class="node">
<title>cool_ideas_SURFACE_bijou_daemon_control_plane_actions</title>
<path fill="#d4e8f7" stroke="black" d="M4674.43,-320.5C4674.43,-320.5 4497.57,-320.5 4497.57,-320.5 4493.38,-320.5 4489.18,-316.3 4489.18,-312.1 4489.18,-312.1 4489.18,-303.7 4489.18,-303.7 4489.18,-299.5 4493.38,-295.3 4497.57,-295.3 4497.57,-295.3 4674.43,-295.3 4674.43,-295.3 4678.62,-295.3 4682.82,-299.5 4682.82,-303.7 4682.82,-303.7 4682.82,-312.1 4682.82,-312.1 4682.82,-316.3 4678.62,-320.5 4674.43,-320.5"/>
<text xml:space="preserve" text-anchor="middle" x="4586" y="-304.8" font-family="Helvetica,sans-Serif" font-size="8.00">SURFACE&#45;bijou&#45;daemon&#45;control&#45;plane&#45;actions &#45; L</text>
</g>
<!-- cool_ideas_SURFACE_bijou_daemon_status_live_refresh -->
<g id="node33" class="node">
<title>cool_ideas_SURFACE_bijou_daemon_status_live_refresh</title>
<path fill="#d4e8f7" stroke="black" d="M4874.3,-320.5C4874.3,-320.5 4705.7,-320.5 4705.7,-320.5 4701.5,-320.5 4697.3,-316.3 4697.3,-312.1 4697.3,-312.1 4697.3,-303.7 4697.3,-303.7 4697.3,-299.5 4701.5,-295.3 4705.7,-295.3 4705.7,-295.3 4874.3,-295.3 4874.3,-295.3 4878.5,-295.3 4882.7,-299.5 4882.7,-303.7 4882.7,-303.7 4882.7,-312.1 4882.7,-312.1 4882.7,-316.3 4878.5,-320.5 4874.3,-320.5"/>
<text xml:space="preserve" text-anchor="middle" x="4790" y="-304.8" font-family="Helvetica,sans-Serif" font-size="8.00">SURFACE&#45;bijou&#45;daemon&#45;status&#45;live&#45;refresh &#45; M</text>
</g>
<!-- cool_ideas_SURFACE_git_graft_enhance_expanded_git_subcommands -->
<g id="node34" class="node">
<title>cool_ideas_SURFACE_git_graft_enhance_expanded_git_subcommands</title>
<path fill="#d4e8f7" stroke="black" d="M5109.3,-320.5C5109.3,-320.5 4904.7,-320.5 4904.7,-320.5 4900.5,-320.5 4896.3,-316.3 4896.3,-312.1 4896.3,-312.1 4896.3,-303.7 4896.3,-303.7 4896.3,-299.5 4900.5,-295.3 4904.7,-295.3 4904.7,-295.3 5109.3,-295.3 5109.3,-295.3 5113.5,-295.3 5117.7,-299.5 5117.7,-303.7 5117.7,-303.7 5117.7,-312.1 5117.7,-312.1 5117.7,-316.3 5113.5,-320.5 5109.3,-320.5"/>
<text xml:space="preserve" text-anchor="middle" x="5007" y="-304.8" font-family="Helvetica,sans-Serif" font-size="8.00">SURFACE&#45;git&#45;graft&#45;enhance&#45;expanded&#45;git&#45;subcommands</text>
</g>
<!-- cool_ideas_SURFACE_git_graft_enhance_provenance_hints -->
<g id="node35" class="node">
<title>cool_ideas_SURFACE_git_graft_enhance_provenance_hints</title>
<path fill="#d4e8f7" stroke="black" d="M5305.43,-320.5C5305.43,-320.5 5140.57,-320.5 5140.57,-320.5 5136.38,-320.5 5132.18,-316.3 5132.18,-312.1 5132.18,-312.1 5132.18,-303.7 5132.18,-303.7 5132.18,-299.5 5136.38,-295.3 5140.57,-295.3 5140.57,-295.3 5305.43,-295.3 5305.43,-295.3 5309.62,-295.3 5313.82,-299.5 5313.82,-303.7 5313.82,-303.7 5313.82,-312.1 5313.82,-312.1 5313.82,-316.3 5309.62,-320.5 5305.43,-320.5"/>
<text xml:space="preserve" text-anchor="middle" x="5223" y="-304.8" font-family="Helvetica,sans-Serif" font-size="8.00">SURFACE&#45;git&#45;graft&#45;enhance&#45;provenance&#45;hints</text>
</g>
<!-- cool_ideas_SURFACE_init_dry_run -->
<g id="node37" class="node">
<title>cool_ideas_SURFACE_init_dry_run</title>
<path fill="#d4e8f7" stroke="black" d="M5427.3,-320.5C5427.3,-320.5 5336.7,-320.5 5336.7,-320.5 5332.5,-320.5 5328.3,-316.3 5328.3,-312.1 5328.3,-312.1 5328.3,-303.7 5328.3,-303.7 5328.3,-299.5 5332.5,-295.3 5336.7,-295.3 5336.7,-295.3 5427.3,-295.3 5427.3,-295.3 5431.5,-295.3 5435.7,-299.5 5435.7,-303.7 5435.7,-303.7 5435.7,-312.1 5435.7,-312.1 5435.7,-316.3 5431.5,-320.5 5427.3,-320.5"/>
<text xml:space="preserve" text-anchor="middle" x="5382" y="-304.8" font-family="Helvetica,sans-Serif" font-size="8.00">SURFACE&#45;init&#45;dry&#45;run &#45; S</text>
</g>
<!-- cool_ideas_SURFACE_local_history_dag_render_mode_and_count_legend -->
<g id="node38" class="node">
<title>cool_ideas_SURFACE_local_history_dag_render_mode_and_count_legend</title>
<path fill="#d4e8f7" stroke="black" d="M5684.18,-320.5C5684.18,-320.5 5457.82,-320.5 5457.82,-320.5 5453.62,-320.5 5449.43,-316.3 5449.43,-312.1 5449.43,-312.1 5449.43,-303.7 5449.43,-303.7 5449.43,-299.5 5453.62,-295.3 5457.82,-295.3 5457.82,-295.3 5684.18,-295.3 5684.18,-295.3 5688.38,-295.3 5692.57,-299.5 5692.57,-303.7 5692.57,-303.7 5692.57,-312.1 5692.57,-312.1 5692.57,-316.3 5688.38,-320.5 5684.18,-320.5"/>
<text xml:space="preserve" text-anchor="middle" x="5571" y="-304.8" font-family="Helvetica,sans-Serif" font-size="8.00">SURFACE&#45;local&#45;history&#45;dag&#45;render&#45;mode&#45;and&#45;count&#45;legend &#45; S</text>
</g>
<!-- cool_ideas_SURFACE_non_codex_instruction_bootstrap_parity -->
<g id="node39" class="node">
<title>cool_ideas_SURFACE_non_codex_instruction_bootstrap_parity</title>
<path fill="#d4e8f7" stroke="black" d="M5903.43,-320.5C5903.43,-320.5 5714.57,-320.5 5714.57,-320.5 5710.38,-320.5 5706.18,-316.3 5706.18,-312.1 5706.18,-312.1 5706.18,-303.7 5706.18,-303.7 5706.18,-299.5 5710.38,-295.3 5714.57,-295.3 5714.57,-295.3 5903.43,-295.3 5903.43,-295.3 5907.62,-295.3 5911.82,-299.5 5911.82,-303.7 5911.82,-303.7 5911.82,-312.1 5911.82,-312.1 5911.82,-316.3 5907.62,-320.5 5903.43,-320.5"/>
<text xml:space="preserve" text-anchor="middle" x="5809" y="-304.8" font-family="Helvetica,sans-Serif" font-size="8.00">SURFACE&#45;non&#45;codex&#45;instruction&#45;bootstrap&#45;parity &#45; M</text>
</g>
<!-- cool_ideas_SURFACE_offer_rename_refactor -->
<g id="node40" class="node">
<title>cool_ideas_SURFACE_offer_rename_refactor</title>
<path fill="#d4e8f7" stroke="black" d="M6063.43,-320.5C6063.43,-320.5 5934.57,-320.5 5934.57,-320.5 5930.38,-320.5 5926.18,-316.3 5926.18,-312.1 5926.18,-312.1 5926.18,-303.7 5926.18,-303.7 5926.18,-299.5 5930.38,-295.3 5934.57,-295.3 5934.57,-295.3 6063.43,-295.3 6063.43,-295.3 6067.62,-295.3 6071.82,-299.5 6071.82,-303.7 6071.82,-303.7 6071.82,-312.1 6071.82,-312.1 6071.82,-316.3 6067.62,-320.5 6063.43,-320.5"/>
<text xml:space="preserve" text-anchor="middle" x="5999" y="-304.8" font-family="Helvetica,sans-Serif" font-size="8.00">SURFACE&#45;offer&#45;rename&#45;refactor &#45; L</text>
</g>
<!-- cool_ideas_SURFACE_pr_feedback_resolution_ledger -->
<g id="node41" class="node">
<title>cool_ideas_SURFACE_pr_feedback_resolution_ledger</title>
<path fill="#d4e8f7" stroke="black" d="M6253.43,-320.5C6253.43,-320.5 6094.57,-320.5 6094.57,-320.5 6090.38,-320.5 6086.18,-316.3 6086.18,-312.1 6086.18,-312.1 6086.18,-303.7 6086.18,-303.7 6086.18,-299.5 6090.38,-295.3 6094.57,-295.3 6094.57,-295.3 6253.43,-295.3 6253.43,-295.3 6257.62,-295.3 6261.82,-299.5 6261.82,-303.7 6261.82,-303.7 6261.82,-312.1 6261.82,-312.1 6261.82,-316.3 6257.62,-320.5 6253.43,-320.5"/>
<text xml:space="preserve" text-anchor="middle" x="6174" y="-304.8" font-family="Helvetica,sans-Serif" font-size="8.00">SURFACE&#45;pr&#45;feedback&#45;resolution&#45;ledger &#45; M</text>
</g>
<!-- cool_ideas_SURFACE_review_cooldown_status -->
<g id="node42" class="node">
<title>cool_ideas_SURFACE_review_cooldown_status</title>
<path fill="#d4e8f7" stroke="black" d="M6419.8,-320.5C6419.8,-320.5 6284.2,-320.5 6284.2,-320.5 6280,-320.5 6275.8,-316.3 6275.8,-312.1 6275.8,-312.1 6275.8,-303.7 6275.8,-303.7 6275.8,-299.5 6280,-295.3 6284.2,-295.3 6284.2,-295.3 6419.8,-295.3 6419.8,-295.3 6424,-295.3 6428.2,-299.5 6428.2,-303.7 6428.2,-303.7 6428.2,-312.1 6428.2,-312.1 6428.2,-316.3 6424,-320.5 6419.8,-320.5"/>
<text xml:space="preserve" text-anchor="middle" x="6352" y="-304.8" font-family="Helvetica,sans-Serif" font-size="8.00">SURFACE&#45;review&#45;cooldown&#45;status &#45; S</text>
</g>
<!-- cool_ideas_SURFACE_terminal_activity_browser_tui -->
<g id="node43" class="node">
<title>cool_ideas_SURFACE_terminal_activity_browser_tui</title>
<path fill="#d4e8f7" stroke="black" d="M6599.55,-320.5C6599.55,-320.5 6450.45,-320.5 6450.45,-320.5 6446.25,-320.5 6442.05,-316.3 6442.05,-312.1 6442.05,-312.1 6442.05,-303.7 6442.05,-303.7 6442.05,-299.5 6446.25,-295.3 6450.45,-295.3 6450.45,-295.3 6599.55,-295.3 6599.55,-295.3 6603.75,-295.3 6607.95,-299.5 6607.95,-303.7 6607.95,-303.7 6607.95,-312.1 6607.95,-312.1 6607.95,-316.3 6603.75,-320.5 6599.55,-320.5"/>
<text xml:space="preserve" text-anchor="middle" x="6525" y="-304.8" font-family="Helvetica,sans-Serif" font-size="8.00">SURFACE&#45;terminal&#45;activity&#45;browser&#45;tui &#45; L</text>
</g>
<!-- cool_ideas_traverse_plus_query_hydration_helper -->
<g id="node44" class="node">
<title>cool_ideas_traverse_plus_query_hydration_helper</title>
<path fill="#d4e8f7" stroke="black" d="M6771.8,-320.5C6771.8,-320.5 6630.2,-320.5 6630.2,-320.5 6626,-320.5 6621.8,-316.3 6621.8,-312.1 6621.8,-312.1 6621.8,-303.7 6621.8,-303.7 6621.8,-299.5 6626,-295.3 6630.2,-295.3 6630.2,-295.3 6771.8,-295.3 6771.8,-295.3 6776,-295.3 6780.2,-299.5 6780.2,-303.7 6780.2,-303.7 6780.2,-312.1 6780.2,-312.1 6780.2,-316.3 6776,-320.5 6771.8,-320.5"/>
<text xml:space="preserve" text-anchor="middle" x="6701" y="-304.8" font-family="Helvetica,sans-Serif" font-size="8.00">traverse&#45;plus&#45;query&#45;hydration&#45;helper &#45; S</text>
</g>
<!-- cool_ideas_WARP_adaptive_projection_selection -->
<g id="node45" class="node">
<title>cool_ideas_WARP_adaptive_projection_selection</title>
<path fill="#d4e8f7" stroke="black" d="M6940.93,-320.5C6940.93,-320.5 6803.07,-320.5 6803.07,-320.5 6798.88,-320.5 6794.68,-316.3 6794.68,-312.1 6794.68,-312.1 6794.68,-303.7 6794.68,-303.7 6794.68,-299.5 6798.88,-295.3 6803.07,-295.3 6803.07,-295.3 6940.93,-295.3 6940.93,-295.3 6945.12,-295.3 6949.32,-299.5 6949.32,-303.7 6949.32,-303.7 6949.32,-312.1 6949.32,-312.1 6949.32,-316.3 6945.12,-320.5 6940.93,-320.5"/>
<text xml:space="preserve" text-anchor="middle" x="6872" y="-304.8" font-family="Helvetica,sans-Serif" font-size="8.00">WARP&#45;adaptive&#45;projection&#45;selection &#45; L</text>
</g>
<!-- cool_ideas_WARP_agent_action_provenance -->
<g id="node46" class="node">
<title>cool_ideas_WARP_agent_action_provenance</title>
<path fill="#d4e8f7" stroke="black" d="M7102.55,-320.5C7102.55,-320.5 6971.45,-320.5 6971.45,-320.5 6967.25,-320.5 6963.05,-316.3 6963.05,-312.1 6963.05,-312.1 6963.05,-303.7 6963.05,-303.7 6963.05,-299.5 6967.25,-295.3 6971.45,-295.3 6971.45,-295.3 7102.55,-295.3 7102.55,-295.3 7106.75,-295.3 7110.95,-299.5 7110.95,-303.7 7110.95,-303.7 7110.95,-312.1 7110.95,-312.1 7110.95,-316.3 7106.75,-320.5 7102.55,-320.5"/>
<text xml:space="preserve" text-anchor="middle" x="7037" y="-304.8" font-family="Helvetica,sans-Serif" font-size="8.00">WARP&#45;agent&#45;action&#45;provenance &#45; XL</text>
</g>
<!-- cool_ideas_WARP_agent_action_provenance&#45;&gt;cool_ideas_CI_001_causal_collapse_visualizer -->
<g id="edge3" class="edge">
<title>cool_ideas_WARP_agent_action_provenance&#45;&gt;cool_ideas_CI_001_causal_collapse_visualizer</title>
<path fill="none" stroke="#666666" d="M7062.81,-294.81C7075.04,-289.01 7089.83,-281.9 7103,-275.3 7118.99,-267.28 7136.7,-258.02 7151,-250.44"/>
<polygon fill="#666666" stroke="#666666" points="7151.57,-252.12 7155.16,-248.23 7149.92,-249.03 7151.57,-252.12"/>
<text xml:space="preserve" text-anchor="middle" x="7149.14" y="-268.65" font-family="Helvetica,sans-Serif" font-size="7.00">blocked_by/blocking</text>
</g>
<!-- cool_ideas_WARP_causal_write_tracking -->
<g id="node51" class="node">
<title>cool_ideas_WARP_causal_write_tracking</title>
<path fill="#d4e8f7" stroke="black" d="M6795.05,-247.05C6795.05,-247.05 6684.95,-247.05 6684.95,-247.05 6680.75,-247.05 6676.55,-242.85 6676.55,-238.65 6676.55,-238.65 6676.55,-230.25 6676.55,-230.25 6676.55,-226.05 6680.75,-221.85 6684.95,-221.85 6684.95,-221.85 6795.05,-221.85 6795.05,-221.85 6799.25,-221.85 6803.45,-226.05 6803.45,-230.25 6803.45,-230.25 6803.45,-238.65 6803.45,-238.65 6803.45,-242.85 6799.25,-247.05 6795.05,-247.05"/>
<text xml:space="preserve" text-anchor="middle" x="6740" y="-231.35" font-family="Helvetica,sans-Serif" font-size="8.00">WARP&#45;causal&#45;write&#45;tracking &#45; L</text>
</g>
<!-- cool_ideas_WARP_agent_action_provenance&#45;&gt;cool_ideas_WARP_causal_write_tracking -->
<g id="edge4" class="edge">
<title>cool_ideas_WARP_agent_action_provenance&#45;&gt;cool_ideas_WARP_causal_write_tracking</title>
<path fill="none" stroke="#666666" d="M6989.13,-294.83C6978.27,-292.23 6966.76,-289.58 6956,-287.3 6926.83,-281.12 6919.1,-281.8 6890,-275.3 6855.63,-267.62 6817.25,-257.4 6787.92,-249.23"/>
<polygon fill="#666666" stroke="#666666" points="6788.55,-247.58 6783.26,-247.92 6787.61,-250.96 6788.55,-247.58"/>
<text xml:space="preserve" text-anchor="middle" x="6921.5" y="-268.65" font-family="Helvetica,sans-Serif" font-size="7.00">blocked_by/blocking</text>
</g>
<!-- cool_ideas_WARP_intent_and_decision_events -->
<g id="node61" class="node">
<title>cool_ideas_WARP_intent_and_decision_events</title>
<path fill="#d4e8f7" stroke="black" d="M6958.3,-247.05C6958.3,-247.05 6825.7,-247.05 6825.7,-247.05 6821.5,-247.05 6817.3,-242.85 6817.3,-238.65 6817.3,-238.65 6817.3,-230.25 6817.3,-230.25 6817.3,-226.05 6821.5,-221.85 6825.7,-221.85 6825.7,-221.85 6958.3,-221.85 6958.3,-221.85 6962.5,-221.85 6966.7,-226.05 6966.7,-230.25 6966.7,-230.25 6966.7,-238.65 6966.7,-238.65 6966.7,-242.85 6962.5,-247.05 6958.3,-247.05"/>
<text xml:space="preserve" text-anchor="middle" x="6892" y="-231.35" font-family="Helvetica,sans-Serif" font-size="8.00">WARP&#45;intent&#45;and&#45;decision&#45;events &#45; M</text>
</g>
<!-- cool_ideas_WARP_agent_action_provenance&#45;&gt;cool_ideas_WARP_intent_and_decision_events -->
<g id="edge5" class="edge">
<title>cool_ideas_WARP_agent_action_provenance&#45;&gt;cool_ideas_WARP_intent_and_decision_events</title>
<path fill="none" stroke="#666666" d="M7011.55,-294.87C6999.27,-289.02 6984.34,-281.86 6971,-275.3 6954.45,-267.16 6936.05,-257.89 6921.17,-250.34"/>
<polygon fill="#666666" stroke="#666666" points="6922.04,-248.83 6916.79,-248.12 6920.46,-251.95 6922.04,-248.83"/>
<text xml:space="preserve" text-anchor="middle" x="7002.5" y="-268.65" font-family="Helvetica,sans-Serif" font-size="7.00">blocked_by/blocking</text>
</g>
<!-- cool_ideas_WARP_provenance_dag -->
<g id="node66" class="node">
<title>cool_ideas_WARP_provenance_dag</title>
<path fill="#d4e8f7" stroke="black" d="M7084.55,-247.05C7084.55,-247.05 6989.45,-247.05 6989.45,-247.05 6985.25,-247.05 6981.05,-242.85 6981.05,-238.65 6981.05,-238.65 6981.05,-230.25 6981.05,-230.25 6981.05,-226.05 6985.25,-221.85 6989.45,-221.85 6989.45,-221.85 7084.55,-221.85 7084.55,-221.85 7088.75,-221.85 7092.95,-226.05 7092.95,-230.25 7092.95,-230.25 7092.95,-238.65 7092.95,-238.65 7092.95,-242.85 7088.75,-247.05 7084.55,-247.05"/>
<text xml:space="preserve" text-anchor="middle" x="7037" y="-231.35" font-family="Helvetica,sans-Serif" font-size="8.00">WARP&#45;provenance&#45;dag &#45; L</text>
</g>
<!-- cool_ideas_WARP_agent_action_provenance&#45;&gt;cool_ideas_WARP_provenance_dag -->
<g id="edge6" class="edge">
<title>cool_ideas_WARP_agent_action_provenance&#45;&gt;cool_ideas_WARP_provenance_dag</title>
<path fill="none" stroke="#666666" d="M7037,-295.1C7037,-283.9 7037,-266.88 7037,-253.88"/>
<polygon fill="#666666" stroke="#666666" points="7038.75,-254.02 7037,-249.02 7035.25,-254.02 7038.75,-254.02"/>
<text xml:space="preserve" text-anchor="middle" x="7068.5" y="-268.65" font-family="Helvetica,sans-Serif" font-size="7.00">blocked_by/blocking</text>
</g>
<!-- cool_ideas_WARP_auto_breaking_change_detection -->
<g id="node47" class="node">
<title>cool_ideas_WARP_auto_breaking_change_detection</title>
<path fill="#d4e8f7" stroke="black" d="M10149.3,-247.05C10149.3,-247.05 9998.7,-247.05 9998.7,-247.05 9994.5,-247.05 9990.3,-242.85 9990.3,-238.65 9990.3,-238.65 9990.3,-230.25 9990.3,-230.25 9990.3,-226.05 9994.5,-221.85 9998.7,-221.85 9998.7,-221.85 10149.3,-221.85 10149.3,-221.85 10153.5,-221.85 10157.7,-226.05 10157.7,-230.25 10157.7,-230.25 10157.7,-238.65 10157.7,-238.65 10157.7,-242.85 10153.5,-247.05 10149.3,-247.05"/>
<text xml:space="preserve" text-anchor="middle" x="10074" y="-231.35" font-family="Helvetica,sans-Serif" font-size="8.00">WARP&#45;auto&#45;breaking&#45;change&#45;detection &#45; L</text>
</g>
<!-- cool_ideas_WARP_budget_elasticity -->
<g id="node49" class="node">
<title>cool_ideas_WARP_budget_elasticity</title>
<path fill="#d4e8f7" stroke="black" d="M7228.93,-320.5C7228.93,-320.5 7133.07,-320.5 7133.07,-320.5 7128.88,-320.5 7124.68,-316.3 7124.68,-312.1 7124.68,-312.1 7124.68,-303.7 7124.68,-303.7 7124.68,-299.5 7128.88,-295.3 7133.07,-295.3 7133.07,-295.3 7228.93,-295.3 7228.93,-295.3 7233.12,-295.3 7237.32,-299.5 7237.32,-303.7 7237.32,-303.7 7237.32,-312.1 7237.32,-312.1 7237.32,-316.3 7233.12,-320.5 7228.93,-320.5"/>
<text xml:space="preserve" text-anchor="middle" x="7181" y="-304.8" font-family="Helvetica,sans-Serif" font-size="8.00">WARP&#45;budget&#45;elasticity &#45; M</text>
</g>
<!-- cool_ideas_WARP_causal_blame_for_staged_artifacts -->
<g id="node50" class="node">
<title>cool_ideas_WARP_causal_blame_for_staged_artifacts</title>
<path fill="#d4e8f7" stroke="black" d="M7188.18,-173.6C7188.18,-173.6 7033.82,-173.6 7033.82,-173.6 7029.62,-173.6 7025.43,-169.4 7025.43,-165.2 7025.43,-165.2 7025.43,-156.8 7025.43,-156.8 7025.43,-152.6 7029.62,-148.4 7033.82,-148.4 7033.82,-148.4 7188.18,-148.4 7188.18,-148.4 7192.38,-148.4 7196.57,-152.6 7196.57,-156.8 7196.57,-156.8 7196.57,-165.2 7196.57,-165.2 7196.57,-169.4 7192.38,-173.6 7188.18,-173.6"/>
<text xml:space="preserve" text-anchor="middle" x="7111" y="-157.9" font-family="Helvetica,sans-Serif" font-size="8.00">WARP&#45;causal&#45;blame&#45;for&#45;staged&#45;artifacts &#45; L</text>
</g>
<!-- cool_ideas_WARP_codebase_entropy_trajectory -->
<g id="node52" class="node">
<title>cool_ideas_WARP_codebase_entropy_trajectory</title>
<path fill="#d4e8f7" stroke="black" d="M7398.68,-320.5C7398.68,-320.5 7259.32,-320.5 7259.32,-320.5 7255.12,-320.5 7250.93,-316.3 7250.93,-312.1 7250.93,-312.1 7250.93,-303.7 7250.93,-303.7 7250.93,-299.5 7255.12,-295.3 7259.32,-295.3 7259.32,-295.3 7398.68,-295.3 7398.68,-295.3 7402.88,-295.3 7407.07,-299.5 7407.07,-303.7 7407.07,-303.7 7407.07,-312.1 7407.07,-312.1 7407.07,-316.3 7402.88,-320.5 7398.68,-320.5"/>
<text xml:space="preserve" text-anchor="middle" x="7329" y="-304.8" font-family="Helvetica,sans-Serif" font-size="8.00">WARP&#45;codebase&#45;entropy&#45;trajectory &#45; M</text>
</g>
<!-- cool_ideas_WARP_counterfactual_refactoring -->
<g id="node54" class="node">
<title>cool_ideas_WARP_counterfactual_refactoring</title>
<path fill="#d4e8f7" stroke="black" d="M7406.68,-247.05C7406.68,-247.05 7273.32,-247.05 7273.32,-247.05 7269.12,-247.05 7264.93,-242.85 7264.93,-238.65 7264.93,-238.65 7264.93,-230.25 7264.93,-230.25 7264.93,-226.05 7269.12,-221.85 7273.32,-221.85 7273.32,-221.85 7406.68,-221.85 7406.68,-221.85 7410.88,-221.85 7415.07,-226.05 7415.07,-230.25 7415.07,-230.25 7415.07,-238.65 7415.07,-238.65 7415.07,-242.85 7410.88,-247.05 7406.68,-247.05"/>
<text xml:space="preserve" text-anchor="middle" x="7340" y="-231.35" font-family="Helvetica,sans-Serif" font-size="8.00">WARP&#45;counterfactual&#45;refactoring &#45; XL</text>
</g>
<!-- cool_ideas_WARP_codebase_entropy_trajectory&#45;&gt;cool_ideas_WARP_counterfactual_refactoring -->
<g id="edge7" class="edge">
<title>cool_ideas_WARP_codebase_entropy_trajectory&#45;&gt;cool_ideas_WARP_counterfactual_refactoring</title>
<path fill="none" stroke="#666666" d="M7330.82,-295.1C7332.54,-283.9 7335.16,-266.88 7337.16,-253.88"/>
<polygon fill="#666666" stroke="#666666" points="7338.88,-254.21 7337.91,-249 7335.42,-253.68 7338.88,-254.21"/>
<text xml:space="preserve" text-anchor="middle" x="7366.33" y="-268.65" font-family="Helvetica,sans-Serif" font-size="7.00">blocked_by/blocking</text>
</g>
<!-- cool_ideas_WARP_codebase_signature -->
<g id="node53" class="node">
<title>cool_ideas_WARP_codebase_signature</title>
<path fill="#d4e8f7" stroke="black" d="M7536.55,-320.5C7536.55,-320.5 7429.45,-320.5 7429.45,-320.5 7425.25,-320.5 7421.05,-316.3 7421.05,-312.1 7421.05,-312.1 7421.05,-303.7 7421.05,-303.7 7421.05,-299.5 7425.25,-295.3 7429.45,-295.3 7429.45,-295.3 7536.55,-295.3 7536.55,-295.3 7540.75,-295.3 7544.95,-299.5 7544.95,-303.7 7544.95,-303.7 7544.95,-312.1 7544.95,-312.1 7544.95,-316.3 7540.75,-320.5 7536.55,-320.5"/>
<text xml:space="preserve" text-anchor="middle" x="7483" y="-304.8" font-family="Helvetica,sans-Serif" font-size="8.00">WARP&#45;codebase&#45;signature &#45; L</text>
</g>
<!-- cool_ideas_WARP_structural_impact_prediction -->
<g id="node76" class="node">
<title>cool_ideas_WARP_structural_impact_prediction</title>
<path fill="#d4e8f7" stroke="black" d="M7409.3,-173.6C7409.3,-173.6 7270.7,-173.6 7270.7,-173.6 7266.5,-173.6 7262.3,-169.4 7262.3,-165.2 7262.3,-165.2 7262.3,-156.8 7262.3,-156.8 7262.3,-152.6 7266.5,-148.4 7270.7,-148.4 7270.7,-148.4 7409.3,-148.4 7409.3,-148.4 7413.5,-148.4 7417.7,-152.6 7417.7,-156.8 7417.7,-156.8 7417.7,-165.2 7417.7,-165.2 7417.7,-169.4 7413.5,-173.6 7409.3,-173.6"/>
<text xml:space="preserve" text-anchor="middle" x="7340" y="-157.9" font-family="Helvetica,sans-Serif" font-size="8.00">WARP&#45;structural&#45;impact&#45;prediction &#45; XL</text>
</g>
<!-- cool_ideas_WARP_counterfactual_refactoring&#45;&gt;cool_ideas_WARP_structural_impact_prediction -->
<g id="edge8" class="edge">
<title>cool_ideas_WARP_counterfactual_refactoring&#45;&gt;cool_ideas_WARP_structural_impact_prediction</title>
<path fill="none" stroke="#666666" d="M7340,-221.65C7340,-210.45 7340,-193.43 7340,-180.43"/>
<polygon fill="#666666" stroke="#666666" points="7341.75,-180.57 7340,-175.57 7338.25,-180.57 7341.75,-180.57"/>
<text xml:space="preserve" text-anchor="middle" x="7371.5" y="-195.2" font-family="Helvetica,sans-Serif" font-size="7.00">blocked_by/blocking</text>
</g>
<!-- cool_ideas_WARP_dead_symbol_detection -->
<g id="node55" class="node">
<title>cool_ideas_WARP_dead_symbol_detection</title>
<path fill="#d4e8f7" stroke="black" d="M7686.18,-320.5C7686.18,-320.5 7567.82,-320.5 7567.82,-320.5 7563.62,-320.5 7559.43,-316.3 7559.43,-312.1 7559.43,-312.1 7559.43,-303.7 7559.43,-303.7 7559.43,-299.5 7563.62,-295.3 7567.82,-295.3 7567.82,-295.3 7686.18,-295.3 7686.18,-295.3 7690.38,-295.3 7694.57,-299.5 7694.57,-303.7 7694.57,-303.7 7694.57,-312.1 7694.57,-312.1 7694.57,-316.3 7690.38,-320.5 7686.18,-320.5"/>
<text xml:space="preserve" text-anchor="middle" x="7627" y="-304.8" font-family="Helvetica,sans-Serif" font-size="8.00">WARP&#45;dead&#45;symbol&#45;detection &#45; S</text>
</g>
<!-- cool_ideas_WARP_degeneracy_warning -->
<g id="node56" class="node">
<title>cool_ideas_WARP_degeneracy_warning</title>
<path fill="#d4e8f7" stroke="black" d="M7829.18,-320.5C7829.18,-320.5 7716.82,-320.5 7716.82,-320.5 7712.62,-320.5 7708.43,-316.3 7708.43,-312.1 7708.43,-312.1 7708.43,-303.7 7708.43,-303.7 7708.43,-299.5 7712.62,-295.3 7716.82,-295.3 7716.82,-295.3 7829.18,-295.3 7829.18,-295.3 7833.38,-295.3 7837.57,-299.5 7837.57,-303.7 7837.57,-303.7 7837.57,-312.1 7837.57,-312.1 7837.57,-316.3 7833.38,-320.5 7829.18,-320.5"/>
<text xml:space="preserve" text-anchor="middle" x="7773" y="-304.8" font-family="Helvetica,sans-Serif" font-size="8.00">WARP&#45;degeneracy&#45;warning &#45; M</text>
</g>
<!-- cool_ideas_WARP_drift_sentinel -->
<g id="node57" class="node">
<title>cool_ideas_WARP_drift_sentinel</title>
<path fill="#d4e8f7" stroke="black" d="M9655.18,-247.05C9655.18,-247.05 9572.82,-247.05 9572.82,-247.05 9568.62,-247.05 9564.42,-242.85 9564.42,-238.65 9564.42,-238.65 9564.42,-230.25 9564.42,-230.25 9564.42,-226.05 9568.62,-221.85 9572.82,-221.85 9572.82,-221.85 9655.18,-221.85 9655.18,-221.85 9659.38,-221.85 9663.58,-226.05 9663.58,-230.25 9663.58,-230.25 9663.58,-238.65 9663.58,-238.65 9663.58,-242.85 9659.38,-247.05 9655.18,-247.05"/>
<text xml:space="preserve" text-anchor="middle" x="9614" y="-231.35" font-family="Helvetica,sans-Serif" font-size="8.00">WARP&#45;drift&#45;sentinel &#45; M</text>
</g>
<!-- cool_ideas_WARP_footprint_parallelism -->
<g id="node58" class="node">
<title>cool_ideas_WARP_footprint_parallelism</title>
<path fill="#d4e8f7" stroke="black" d="M7971.8,-320.5C7971.8,-320.5 7860.2,-320.5 7860.2,-320.5 7856,-320.5 7851.8,-316.3 7851.8,-312.1 7851.8,-312.1 7851.8,-303.7 7851.8,-303.7 7851.8,-299.5 7856,-295.3 7860.2,-295.3 7860.2,-295.3 7971.8,-295.3 7971.8,-295.3 7976,-295.3 7980.2,-299.5 7980.2,-303.7 7980.2,-303.7 7980.2,-312.1 7980.2,-312.1 7980.2,-316.3 7976,-320.5 7971.8,-320.5"/>
<text xml:space="preserve" text-anchor="middle" x="7916" y="-304.8" font-family="Helvetica,sans-Serif" font-size="8.00">WARP&#45;footprint&#45;parallelism &#45; XL</text>
</g>
<!-- cool_ideas_WARP_graft_pack -->
<g id="node59" class="node">
<title>cool_ideas_WARP_graft_pack</title>
<path fill="#d4e8f7" stroke="black" d="M8077.43,-320.5C8077.43,-320.5 8002.57,-320.5 8002.57,-320.5 7998.38,-320.5 7994.18,-316.3 7994.18,-312.1 7994.18,-312.1 7994.18,-303.7 7994.18,-303.7 7994.18,-299.5 7998.38,-295.3 8002.57,-295.3 8002.57,-295.3 8077.43,-295.3 8077.43,-295.3 8081.62,-295.3 8085.82,-299.5 8085.82,-303.7 8085.82,-303.7 8085.82,-312.1 8085.82,-312.1 8085.82,-316.3 8081.62,-320.5 8077.43,-320.5"/>
<text xml:space="preserve" text-anchor="middle" x="8040" y="-304.8" font-family="Helvetica,sans-Serif" font-size="8.00">WARP&#45;graft&#45;pack &#45; M</text>
</g>
<!-- cool_ideas_WARP_grouped_aggregate_queries -->
<g id="node60" class="node">
<title>cool_ideas_WARP_grouped_aggregate_queries</title>
<path fill="#d4e8f7" stroke="black" d="M8245.93,-320.5C8245.93,-320.5 8108.07,-320.5 8108.07,-320.5 8103.88,-320.5 8099.68,-316.3 8099.68,-312.1 8099.68,-312.1 8099.68,-303.7 8099.68,-303.7 8099.68,-299.5 8103.88,-295.3 8108.07,-295.3 8108.07,-295.3 8245.93,-295.3 8245.93,-295.3 8250.12,-295.3 8254.33,-299.5 8254.33,-303.7 8254.33,-303.7 8254.33,-312.1 8254.33,-312.1 8254.33,-316.3 8250.12,-320.5 8245.93,-320.5"/>
<text xml:space="preserve" text-anchor="middle" x="8177" y="-304.8" font-family="Helvetica,sans-Serif" font-size="8.00">WARP&#45;grouped&#45;aggregate&#45;queries &#45; M</text>
</g>
<!-- cool_ideas_WARP_intentional_degeneracy_privacy -->
<g id="node62" class="node">
<title>cool_ideas_WARP_intentional_degeneracy_privacy</title>
<path fill="#d4e8f7" stroke="black" d="M8424.8,-320.5C8424.8,-320.5 8277.2,-320.5 8277.2,-320.5 8273,-320.5 8268.8,-316.3 8268.8,-312.1 8268.8,-312.1 8268.8,-303.7 8268.8,-303.7 8268.8,-299.5 8273,-295.3 8277.2,-295.3 8277.2,-295.3 8424.8,-295.3 8424.8,-295.3 8429,-295.3 8433.2,-299.5 8433.2,-303.7 8433.2,-303.7 8433.2,-312.1 8433.2,-312.1 8433.2,-316.3 8429,-320.5 8424.8,-320.5"/>
<text xml:space="preserve" text-anchor="middle" x="8351" y="-304.8" font-family="Helvetica,sans-Serif" font-size="8.00">WARP&#45;intentional&#45;degeneracy&#45;privacy &#45; M</text>
</g>
<!-- cool_ideas_WARP_minimum_viable_context -->
<g id="node63" class="node">
<title>cool_ideas_WARP_minimum_viable_context</title>
<path fill="#d4e8f7" stroke="black" d="M8578.43,-320.5C8578.43,-320.5 8455.57,-320.5 8455.57,-320.5 8451.38,-320.5 8447.17,-316.3 8447.17,-312.1 8447.17,-312.1 8447.17,-303.7 8447.17,-303.7 8447.17,-299.5 8451.38,-295.3 8455.57,-295.3 8455.57,-295.3 8578.43,-295.3 8578.43,-295.3 8582.62,-295.3 8586.83,-299.5 8586.83,-303.7 8586.83,-303.7 8586.83,-312.1 8586.83,-312.1 8586.83,-316.3 8582.62,-320.5 8578.43,-320.5"/>
<text xml:space="preserve" text-anchor="middle" x="8517" y="-304.8" font-family="Helvetica,sans-Serif" font-size="8.00">WARP&#45;minimum&#45;viable&#45;context &#45; M</text>
</g>
<!-- cool_ideas_WARP_outline_diff_commit_trailer -->
<g id="node64" class="node">
<title>cool_ideas_WARP_outline_diff_commit_trailer</title>
<path fill="#d4e8f7" stroke="black" d="M8734.93,-320.5C8734.93,-320.5 8609.07,-320.5 8609.07,-320.5 8604.88,-320.5 8600.67,-316.3 8600.67,-312.1 8600.67,-312.1 8600.67,-303.7 8600.67,-303.7 8600.67,-299.5 8604.88,-295.3 8609.07,-295.3 8609.07,-295.3 8734.93,-295.3 8734.93,-295.3 8739.12,-295.3 8743.33,-299.5 8743.33,-303.7 8743.33,-303.7 8743.33,-312.1 8743.33,-312.1 8743.33,-316.3 8739.12,-320.5 8734.93,-320.5"/>
<text xml:space="preserve" text-anchor="middle" x="8672" y="-304.8" font-family="Helvetica,sans-Serif" font-size="8.00">WARP&#45;outline&#45;diff&#45;commit&#45;trailer &#45; S</text>
</g>
<!-- cool_ideas_WARP_projection_safety_classes -->
<g id="node65" class="node">
<title>cool_ideas_WARP_projection_safety_classes</title>
<path fill="#d4e8f7" stroke="black" d="M8891.93,-320.5C8891.93,-320.5 8766.07,-320.5 8766.07,-320.5 8761.88,-320.5 8757.67,-316.3 8757.67,-312.1 8757.67,-312.1 8757.67,-303.7 8757.67,-303.7 8757.67,-299.5 8761.88,-295.3 8766.07,-295.3 8766.07,-295.3 8891.93,-295.3 8891.93,-295.3 8896.12,-295.3 8900.33,-299.5 8900.33,-303.7 8900.33,-303.7 8900.33,-312.1 8900.33,-312.1 8900.33,-316.3 8896.12,-320.5 8891.93,-320.5"/>
<text xml:space="preserve" text-anchor="middle" x="8829" y="-304.8" font-family="Helvetica,sans-Serif" font-size="8.00">WARP&#45;projection&#45;safety&#45;classes &#45; M</text>
</g>
<!-- cool_ideas_WARP_provenance_dag&#45;&gt;cool_ideas_WARP_causal_blame_for_staged_artifacts -->
<g id="edge9" class="edge">
<title>cool_ideas_WARP_provenance_dag&#45;&gt;cool_ideas_WARP_causal_blame_for_staged_artifacts</title>
<path fill="none" stroke="#666666" d="M7049.22,-221.65C7061.46,-209.83 7080.41,-191.54 7094.09,-178.32"/>
<polygon fill="#666666" stroke="#666666" points="7095.04,-179.84 7097.43,-175.11 7092.61,-177.32 7095.04,-179.84"/>
<text xml:space="preserve" text-anchor="middle" x="7107.72" y="-195.2" font-family="Helvetica,sans-Serif" font-size="7.00">blocked_by/blocking</text>
</g>
<!-- cool_ideas_WARP_reasoning_trace_replay -->
<g id="node67" class="node">
<title>cool_ideas_WARP_reasoning_trace_replay</title>
<path fill="#d4e8f7" stroke="black" d="M7002.93,-173.6C7002.93,-173.6 6883.07,-173.6 6883.07,-173.6 6878.88,-173.6 6874.68,-169.4 6874.68,-165.2 6874.68,-165.2 6874.68,-156.8 6874.68,-156.8 6874.68,-152.6 6878.88,-148.4 6883.07,-148.4 6883.07,-148.4 7002.93,-148.4 7002.93,-148.4 7007.12,-148.4 7011.32,-152.6 7011.32,-156.8 7011.32,-156.8 7011.32,-165.2 7011.32,-165.2 7011.32,-169.4 7007.12,-173.6 7002.93,-173.6"/>
<text xml:space="preserve" text-anchor="middle" x="6943" y="-157.9" font-family="Helvetica,sans-Serif" font-size="8.00">WARP&#45;reasoning&#45;trace&#45;replay &#45; M</text>
</g>
<!-- cool_ideas_WARP_provenance_dag&#45;&gt;cool_ideas_WARP_reasoning_trace_replay -->
<g id="edge10" class="edge">
<title>cool_ideas_WARP_provenance_dag&#45;&gt;cool_ideas_WARP_reasoning_trace_replay</title>
<path fill="none" stroke="#666666" d="M7021.48,-221.65C7005.79,-209.73 6981.44,-191.22 6964.02,-177.98"/>
<polygon fill="#666666" stroke="#666666" points="6965.1,-176.6 6960.06,-174.97 6962.99,-179.39 6965.1,-176.6"/>
<text xml:space="preserve" text-anchor="middle" x="7024.32" y="-195.2" font-family="Helvetica,sans-Serif" font-size="7.00">blocked_by/blocking</text>
</g>
<!-- cool_ideas_WARP_rulial_heat_map -->
<g id="node68" class="node">
<title>cool_ideas_WARP_rulial_heat_map</title>
<path fill="#d4e8f7" stroke="black" d="M9013.3,-320.5C9013.3,-320.5 8922.7,-320.5 8922.7,-320.5 8918.5,-320.5 8914.3,-316.3 8914.3,-312.1 8914.3,-312.1 8914.3,-303.7 8914.3,-303.7 8914.3,-299.5 8918.5,-295.3 8922.7,-295.3 8922.7,-295.3 9013.3,-295.3 9013.3,-295.3 9017.5,-295.3 9021.7,-299.5 9021.7,-303.7 9021.7,-303.7 9021.7,-312.1 9021.7,-312.1 9021.7,-316.3 9017.5,-320.5 9013.3,-320.5"/>
<text xml:space="preserve" text-anchor="middle" x="8968" y="-304.8" font-family="Helvetica,sans-Serif" font-size="8.00">WARP&#45;rulial&#45;heat&#45;map &#45; L</text>
</g>
<!-- cool_ideas_WARP_semantic_drift_in_sessions -->
<g id="node69" class="node">
<title>cool_ideas_WARP_semantic_drift_in_sessions</title>
<path fill="#d4e8f7" stroke="black" d="M9173.43,-320.5C9173.43,-320.5 9044.57,-320.5 9044.57,-320.5 9040.38,-320.5 9036.17,-316.3 9036.17,-312.1 9036.17,-312.1 9036.17,-303.7 9036.17,-303.7 9036.17,-299.5 9040.38,-295.3 9044.57,-295.3 9044.57,-295.3 9173.43,-295.3 9173.43,-295.3 9177.62,-295.3 9181.83,-299.5 9181.83,-303.7 9181.83,-303.7 9181.83,-312.1 9181.83,-312.1 9181.83,-316.3 9177.62,-320.5 9173.43,-320.5"/>
<text xml:space="preserve" text-anchor="middle" x="9109" y="-304.8" font-family="Helvetica,sans-Serif" font-size="8.00">WARP&#45;semantic&#45;drift&#45;in&#45;sessions &#45; M</text>
</g>
<!-- cool_ideas_WARP_semantic_merge_conflict_prediction -->
<g id="node70" class="node">
<title>cool_ideas_WARP_semantic_merge_conflict_prediction</title>
<path fill="#d4e8f7" stroke="black" d="M10339.43,-247.05C10339.43,-247.05 10180.57,-247.05 10180.57,-247.05 10176.38,-247.05 10172.17,-242.85 10172.17,-238.65 10172.17,-238.65 10172.17,-230.25 10172.17,-230.25 10172.17,-226.05 10176.38,-221.85 10180.57,-221.85 10180.57,-221.85 10339.43,-221.85 10339.43,-221.85 10343.62,-221.85 10347.83,-226.05 10347.83,-230.25 10347.83,-230.25 10347.83,-238.65 10347.83,-238.65 10347.83,-242.85 10343.62,-247.05 10339.43,-247.05"/>
<text xml:space="preserve" text-anchor="middle" x="10260" y="-231.35" font-family="Helvetica,sans-Serif" font-size="8.00">WARP&#45;semantic&#45;merge&#45;conflict&#45;prediction &#45; L</text>
</g>
<!-- cool_ideas_WARP_session_filtration -->
<g id="node71" class="node">
<title>cool_ideas_WARP_session_filtration</title>
<path fill="#d4e8f7" stroke="black" d="M9297.8,-320.5C9297.8,-320.5 9204.2,-320.5 9204.2,-320.5 9200,-320.5 9195.8,-316.3 9195.8,-312.1 9195.8,-312.1 9195.8,-303.7 9195.8,-303.7 9195.8,-299.5 9200,-295.3 9204.2,-295.3 9204.2,-295.3 9297.8,-295.3 9297.8,-295.3 9302,-295.3 9306.2,-299.5 9306.2,-303.7 9306.2,-303.7 9306.2,-312.1 9306.2,-312.1 9306.2,-316.3 9302,-320.5 9297.8,-320.5"/>
<text xml:space="preserve" text-anchor="middle" x="9251" y="-304.8" font-family="Helvetica,sans-Serif" font-size="8.00">WARP&#45;session&#45;filtration &#45; L</text>
</g>
<!-- cool_ideas_WARP_shadow_structural_workspaces -->
<g id="node72" class="node">
<title>cool_ideas_WARP_shadow_structural_workspaces</title>
<path fill="#d4e8f7" stroke="black" d="M9479.3,-320.5C9479.3,-320.5 9328.7,-320.5 9328.7,-320.5 9324.5,-320.5 9320.3,-316.3 9320.3,-312.1 9320.3,-312.1 9320.3,-303.7 9320.3,-303.7 9320.3,-299.5 9324.5,-295.3 9328.7,-295.3 9328.7,-295.3 9479.3,-295.3 9479.3,-295.3 9483.5,-295.3 9487.7,-299.5 9487.7,-303.7 9487.7,-303.7 9487.7,-312.1 9487.7,-312.1 9487.7,-316.3 9483.5,-320.5 9479.3,-320.5"/>
<text xml:space="preserve" text-anchor="middle" x="9404" y="-304.8" font-family="Helvetica,sans-Serif" font-size="8.00">WARP&#45;shadow&#45;structural&#45;workspaces &#45; XL</text>
</g>
<!-- cool_ideas_WARP_speculative_merge -->
<g id="node73" class="node">
<title>cool_ideas_WARP_speculative_merge</title>
<path fill="#d4e8f7" stroke="black" d="M9617.55,-320.5C9617.55,-320.5 9510.45,-320.5 9510.45,-320.5 9506.25,-320.5 9502.05,-316.3 9502.05,-312.1 9502.05,-312.1 9502.05,-303.7 9502.05,-303.7 9502.05,-299.5 9506.25,-295.3 9510.45,-295.3 9510.45,-295.3 9617.55,-295.3 9617.55,-295.3 9621.75,-295.3 9625.95,-299.5 9625.95,-303.7 9625.95,-303.7 9625.95,-312.1 9625.95,-312.1 9625.95,-316.3 9621.75,-320.5 9617.55,-320.5"/>
<text xml:space="preserve" text-anchor="middle" x="9564" y="-304.8" font-family="Helvetica,sans-Serif" font-size="8.00">WARP&#45;speculative&#45;merge &#45; XL</text>
</g>
<!-- cool_ideas_WARP_stale_docs_checker -->
<g id="node74" class="node">
<title>cool_ideas_WARP_stale_docs_checker</title>
<path fill="#d4e8f7" stroke="black" d="M9753.8,-320.5C9753.8,-320.5 9648.2,-320.5 9648.2,-320.5 9644,-320.5 9639.8,-316.3 9639.8,-312.1 9639.8,-312.1 9639.8,-303.7 9639.8,-303.7 9639.8,-299.5 9644,-295.3 9648.2,-295.3 9648.2,-295.3 9753.8,-295.3 9753.8,-295.3 9758,-295.3 9762.2,-299.5 9762.2,-303.7 9762.2,-303.7 9762.2,-312.1 9762.2,-312.1 9762.2,-316.3 9758,-320.5 9753.8,-320.5"/>
<text xml:space="preserve" text-anchor="middle" x="9701" y="-304.8" font-family="Helvetica,sans-Serif" font-size="8.00">WARP&#45;stale&#45;docs&#45;checker &#45; M</text>
</g>
<!-- cool_ideas_WARP_stale_docs_checker&#45;&gt;cool_ideas_WARP_drift_sentinel -->
<g id="edge11" class="edge">
<title>cool_ideas_WARP_stale_docs_checker&#45;&gt;cool_ideas_WARP_drift_sentinel</title>
<path fill="none" stroke="#666666" d="M9686.63,-295.1C9672.11,-283.18 9649.58,-264.67 9633.46,-251.43"/>
<polygon fill="#666666" stroke="#666666" points="9634.82,-250.29 9629.85,-248.47 9632.6,-252.99 9634.82,-250.29"/>
<text xml:space="preserve" text-anchor="middle" x="9691.61" y="-268.65" font-family="Helvetica,sans-Serif" font-size="7.00">blocked_by/blocking</text>
</g>
<!-- cool_ideas_WARP_structural_drift_detection -->
<g id="node75" class="node">
<title>cool_ideas_WARP_structural_drift_detection</title>
<path fill="#d4e8f7" stroke="black" d="M9907.8,-320.5C9907.8,-320.5 9784.2,-320.5 9784.2,-320.5 9780,-320.5 9775.8,-316.3 9775.8,-312.1 9775.8,-312.1 9775.8,-303.7 9775.8,-303.7 9775.8,-299.5 9780,-295.3 9784.2,-295.3 9784.2,-295.3 9907.8,-295.3 9907.8,-295.3 9912,-295.3 9916.2,-299.5 9916.2,-303.7 9916.2,-303.7 9916.2,-312.1 9916.2,-312.1 9916.2,-316.3 9912,-320.5 9907.8,-320.5"/>
<text xml:space="preserve" text-anchor="middle" x="9846" y="-304.8" font-family="Helvetica,sans-Serif" font-size="8.00">WARP&#45;structural&#45;drift&#45;detection &#45; M</text>
</g>
<!-- cool_ideas_WARP_symbol_heatmap -->
<g id="node77" class="node">
<title>cool_ideas_WARP_symbol_heatmap</title>
<path fill="#d4e8f7" stroke="black" d="M10037.05,-320.5C10037.05,-320.5 9938.95,-320.5 9938.95,-320.5 9934.75,-320.5 9930.55,-316.3 9930.55,-312.1 9930.55,-312.1 9930.55,-303.7 9930.55,-303.7 9930.55,-299.5 9934.75,-295.3 9938.95,-295.3 9938.95,-295.3 10037.05,-295.3 10037.05,-295.3 10041.25,-295.3 10045.45,-299.5 10045.45,-303.7 10045.45,-303.7 10045.45,-312.1 10045.45,-312.1 10045.45,-316.3 10041.25,-320.5 10037.05,-320.5"/>
<text xml:space="preserve" text-anchor="middle" x="9988" y="-304.8" font-family="Helvetica,sans-Serif" font-size="8.00">WARP&#45;symbol&#45;heatmap &#45; M</text>
</g>
<!-- cool_ideas_WARP_symbol_history_timeline -->
<g id="node78" class="node">
<title>cool_ideas_WARP_symbol_history_timeline</title>
<path fill="#d4e8f7" stroke="black" d="M10186.18,-320.5C10186.18,-320.5 10067.82,-320.5 10067.82,-320.5 10063.62,-320.5 10059.42,-316.3 10059.42,-312.1 10059.42,-312.1 10059.42,-303.7 10059.42,-303.7 10059.42,-299.5 10063.62,-295.3 10067.82,-295.3 10067.82,-295.3 10186.18,-295.3 10186.18,-295.3 10190.38,-295.3 10194.58,-299.5 10194.58,-303.7 10194.58,-303.7 10194.58,-312.1 10194.58,-312.1 10194.58,-316.3 10190.38,-320.5 10186.18,-320.5"/>
<text xml:space="preserve" text-anchor="middle" x="10127" y="-304.8" font-family="Helvetica,sans-Serif" font-size="8.00">WARP&#45;symbol&#45;history&#45;timeline &#45; S</text>
</g>
<!-- cool_ideas_WARP_temporal_structural_search -->
<g id="node80" class="node">
<title>cool_ideas_WARP_temporal_structural_search</title>
<path fill="#d4e8f7" stroke="black" d="M9819.68,-247.05C9819.68,-247.05 9686.32,-247.05 9686.32,-247.05 9682.12,-247.05 9677.92,-242.85 9677.92,-238.65 9677.92,-238.65 9677.92,-230.25 9677.92,-230.25 9677.92,-226.05 9682.12,-221.85 9686.32,-221.85 9686.32,-221.85 9819.68,-221.85 9819.68,-221.85 9823.88,-221.85 9828.08,-226.05 9828.08,-230.25 9828.08,-230.25 9828.08,-238.65 9828.08,-238.65 9828.08,-242.85 9823.88,-247.05 9819.68,-247.05"/>
<text xml:space="preserve" text-anchor="middle" x="9753" y="-231.35" font-family="Helvetica,sans-Serif" font-size="8.00">WARP&#45;temporal&#45;structural&#45;search &#45; M</text>
</g>
<!-- cool_ideas_WARP_symbol_history_timeline&#45;&gt;cool_ideas_WARP_temporal_structural_search -->
<g id="edge12" class="edge">
<title>cool_ideas_WARP_symbol_history_timeline&#45;&gt;cool_ideas_WARP_temporal_structural_search</title>
<path fill="none" stroke="#666666" d="M10086.82,-294.9C10075.64,-291.97 10063.42,-289.15 10052,-287.3 9971.98,-274.33 9949.5,-291.17 9870,-275.3 9841.41,-269.59 9810.21,-258.72 9787.23,-249.77"/>
<polygon fill="#666666" stroke="#666666" points="9787.97,-248.18 9782.68,-247.98 9786.69,-251.44 9787.97,-248.18"/>
<text xml:space="preserve" text-anchor="middle" x="9901.5" y="-268.65" font-family="Helvetica,sans-Serif" font-size="7.00">blocked_by/blocking</text>
</g>
<!-- cool_ideas_WARP_technical_debt_curvature -->
<g id="node79" class="node">
<title>cool_ideas_WARP_technical_debt_curvature</title>
<path fill="#d4e8f7" stroke="black" d="M10339.43,-320.5C10339.43,-320.5 10216.57,-320.5 10216.57,-320.5 10212.38,-320.5 10208.17,-316.3 10208.17,-312.1 10208.17,-312.1 10208.17,-303.7 10208.17,-303.7 10208.17,-299.5 10212.38,-295.3 10216.57,-295.3 10216.57,-295.3 10339.43,-295.3 10339.43,-295.3 10343.62,-295.3 10347.83,-299.5 10347.83,-303.7 10347.83,-303.7 10347.83,-312.1 10347.83,-312.1 10347.83,-316.3 10343.62,-320.5 10339.43,-320.5"/>
<text xml:space="preserve" text-anchor="middle" x="10278" y="-304.8" font-family="Helvetica,sans-Serif" font-size="8.00">WARP&#45;technical&#45;debt&#45;curvature &#45; L</text>
</g>
<!-- external_git_warp_observer_geometry_ladder__Rung_2_4_ -->
<g id="node81" class="node">
<title>external_git_warp_observer_geometry_ladder__Rung_2_4_</title>
<path fill="#e8f2ff" stroke="black" d="M10543.68,-320.5C10543.68,-320.5 10380.32,-320.5 10380.32,-320.5 10376.12,-320.5 10371.92,-316.3 10371.92,-312.1 10371.92,-312.1 10371.92,-303.7 10371.92,-303.7 10371.92,-299.5 10376.12,-295.3 10380.32,-295.3 10380.32,-295.3 10543.68,-295.3 10543.68,-295.3 10547.88,-295.3 10552.08,-299.5 10552.08,-303.7 10552.08,-303.7 10552.08,-312.1 10552.08,-312.1 10552.08,-316.3 10547.88,-320.5 10543.68,-320.5"/>
<text xml:space="preserve" text-anchor="middle" x="10462" y="-304.8" font-family="Helvetica,sans-Serif" font-size="8.00">git&#45;warp observer geometry ladder (Rung 2&#45;4)</text>
</g>
<!-- external_git_warp_observer_geometry_ladder__Rung_2_4_&#45;&gt;cool_ideas_CORE_migrate_to_slice_first_reads -->
<g id="edge13" class="edge">
<title>external_git_warp_observer_geometry_ladder__Rung_2_4_&#45;&gt;cool_ideas_CORE_migrate_to_slice_first_reads</title>
<path fill="none" stroke="#4477aa" stroke-dasharray="5,2" d="M10405.54,-294.84C10390.47,-291.98 10374.17,-289.21 10359,-287.3 10274.72,-276.67 10252.71,-284.38 10168.25,-275.3 10085.44,-266.4 10065.31,-259.78 9983,-247.05 9982.86,-247.03 9982.73,-247.01 9982.59,-246.99"/>
<polygon fill="#4477aa" stroke="#4477aa" points="9983.06,-245.29 9977.85,-246.25 9982.52,-248.75 9983.06,-245.29"/>
<text xml:space="preserve" text-anchor="middle" x="10200.12" y="-268.65" font-family="Helvetica,sans-Serif" font-size="7.00">blocked_by_external</text>
</g>
<!-- unresolved_CLEAN_CODE_export_diff_semver_signature_as_patch -->
<g id="node82" class="node">
<title>unresolved_CLEAN_CODE_export_diff_semver_signature_as_patch</title>
<path fill="#f2f2f2" stroke="black" stroke-dasharray="5,2" d="M10807.3,-320.5C10807.3,-320.5 10584.7,-320.5 10584.7,-320.5 10580.5,-320.5 10576.3,-316.3 10576.3,-312.1 10576.3,-312.1 10576.3,-303.7 10576.3,-303.7 10576.3,-299.5 10580.5,-295.3 10584.7,-295.3 10584.7,-295.3 10807.3,-295.3 10807.3,-295.3 10811.5,-295.3 10815.7,-299.5 10815.7,-303.7 10815.7,-303.7 10815.7,-312.1 10815.7,-312.1 10815.7,-316.3 10811.5,-320.5 10807.3,-320.5"/>
<text xml:space="preserve" text-anchor="middle" x="10696" y="-304.8" font-family="Helvetica,sans-Serif" font-size="8.00">missing: CLEAN_CODE_export&#45;diff&#45;semver&#45;signature&#45;as&#45;patch</text>
</g>
<!-- unresolved_CLEAN_CODE_export_diff_semver_signature_as_patch&#45;&gt;cool_ideas_WARP_auto_breaking_change_detection -->
<g id="edge14" class="edge">
<title>unresolved_CLEAN_CODE_export_diff_semver_signature_as_patch&#45;&gt;cool_ideas_WARP_auto_breaking_change_detection</title>
<path fill="none" stroke="#cc3333" stroke-dasharray="5,2" d="M10619.44,-294.84C10600.99,-292.14 10581.31,-289.45 10563,-287.3 10502.63,-280.2 10487.25,-281.23 10426.75,-275.3 10310.3,-263.89 10281.21,-260.73 10165,-247.05 10164.7,-247.02 10164.41,-246.98 10164.11,-246.94"/>
<polygon fill="#cc3333" stroke="#cc3333" points="10164.47,-245.23 10159.29,-246.37 10164.05,-248.7 10164.47,-245.23"/>
<text xml:space="preserve" text-anchor="middle" x="10444.38" y="-268.65" font-family="Helvetica,sans-Serif" font-size="7.00">blocked_by</text>
</g>
<!-- unresolved_CLEAN_CODE_export_diff_semver_signature_as_patch&#45;&gt;cool_ideas_WARP_semantic_merge_conflict_prediction -->
<g id="edge15" class="edge">
<title>unresolved_CLEAN_CODE_export_diff_semver_signature_as_patch&#45;&gt;cool_ideas_WARP_semantic_merge_conflict_prediction</title>
<path fill="none" stroke="#cc3333" stroke-dasharray="5,2" d="M10622.53,-294.86C10544.24,-282.03 10420.69,-261.78 10339.99,-248.56"/>
<polygon fill="#cc3333" stroke="#cc3333" points="10340.48,-246.87 10335.26,-247.78 10339.91,-250.32 10340.48,-246.87"/>
<text xml:space="preserve" text-anchor="middle" x="10508.7" y="-268.65" font-family="Helvetica,sans-Serif" font-size="7.00">blocked_by</text>
</g>
<!-- leg_v07 -->
<g id="node83" class="node">
<title>leg_v07</title>
<path fill="#ffa07a" stroke="black" stroke-width="2" d="M10932,-320.5C10932,-320.5 10848,-320.5 10848,-320.5 10843.8,-320.5 10839.6,-316.3 10839.6,-312.1 10839.6,-312.1 10839.6,-303.7 10839.6,-303.7 10839.6,-299.5 10843.8,-295.3 10848,-295.3 10848,-295.3 10932,-295.3 10932,-295.3 10936.2,-295.3 10940.4,-299.5 10940.4,-303.7 10940.4,-303.7 10940.4,-312.1 10940.4,-312.1 10940.4,-316.3 10936.2,-320.5 10932,-320.5"/>
<text xml:space="preserve" text-anchor="middle" x="10890" y="-305.38" font-family="Helvetica,sans-Serif" font-size="7.00">v0.7.0</text>
</g>
<!-- leg_bad -->
<g id="node84" class="node">
<title>leg_bad</title>
<path fill="#f6b3b3" stroke="black" stroke-width="2" d="M10932,-247.05C10932,-247.05 10848,-247.05 10848,-247.05 10843.8,-247.05 10839.6,-242.85 10839.6,-238.65 10839.6,-238.65 10839.6,-230.25 10839.6,-230.25 10839.6,-226.05 10843.8,-221.85 10848,-221.85 10848,-221.85 10932,-221.85 10932,-221.85 10936.2,-221.85 10940.4,-226.05 10940.4,-230.25 10940.4,-230.25 10940.4,-238.65 10940.4,-238.65 10940.4,-242.85 10936.2,-247.05 10932,-247.05"/>
<text xml:space="preserve" text-anchor="middle" x="10890" y="-231.92" font-family="Helvetica,sans-Serif" font-size="7.00">bad&#45;code</text>
</g>
<!-- leg_v07&#45;&gt;leg_bad -->
<!-- leg_idea -->
<g id="node85" class="node">
<title>leg_idea</title>
<path fill="#d4e8f7" stroke="black" d="M10932,-173.6C10932,-173.6 10848,-173.6 10848,-173.6 10843.8,-173.6 10839.6,-169.4 10839.6,-165.2 10839.6,-165.2 10839.6,-156.8 10839.6,-156.8 10839.6,-152.6 10843.8,-148.4 10848,-148.4 10848,-148.4 10932,-148.4 10932,-148.4 10936.2,-148.4 10940.4,-152.6 10940.4,-156.8 10940.4,-156.8 10940.4,-165.2 10940.4,-165.2 10940.4,-169.4 10936.2,-173.6 10932,-173.6"/>
<text xml:space="preserve" text-anchor="middle" x="10890" y="-158.47" font-family="Helvetica,sans-Serif" font-size="7.00">cool&#45;ideas</text>
</g>
<!-- leg_bad&#45;&gt;leg_idea -->
<!-- leg_external -->
<g id="node86" class="node">
<title>leg_external</title>
<path fill="#e8f2ff" stroke="black" d="M10932,-107.4C10932,-107.4 10848,-107.4 10848,-107.4 10843.8,-107.4 10839.6,-103.2 10839.6,-99 10839.6,-99 10839.6,-90.6 10839.6,-90.6 10839.6,-86.4 10843.8,-82.2 10848,-82.2 10848,-82.2 10932,-82.2 10932,-82.2 10936.2,-82.2 10940.4,-86.4 10940.4,-90.6 10940.4,-90.6 10940.4,-99 10940.4,-99 10940.4,-103.2 10936.2,-107.4 10932,-107.4"/>
<text xml:space="preserve" text-anchor="middle" x="10890" y="-92.28" font-family="Helvetica,sans-Serif" font-size="7.00">external blocker</text>
</g>
<!-- leg_idea&#45;&gt;leg_external -->
<!-- leg_unresolved -->
<g id="node87" class="node">
<title>leg_unresolved</title>
<path fill="#f2f2f2" stroke="black" stroke-dasharray="5,2" d="M10932,-41.2C10932,-41.2 10848,-41.2 10848,-41.2 10843.8,-41.2 10839.6,-37 10839.6,-32.8 10839.6,-32.8 10839.6,-24.4 10839.6,-24.4 10839.6,-20.2 10843.8,-16 10848,-16 10848,-16 10932,-16 10932,-16 10936.2,-16 10940.4,-20.2 10940.4,-24.4 10940.4,-24.4 10940.4,-32.8 10940.4,-32.8 10940.4,-37 10936.2,-41.2 10932,-41.2"/>
<text xml:space="preserve" text-anchor="middle" x="10890" y="-26.08" font-family="Helvetica,sans-Serif" font-size="7.00">unresolved ref</text>
</g>
<!-- leg_external&#45;&gt;leg_unresolved -->
</g>
</svg>
