<?xml version="1.0" encoding="UTF-8" standalone="no"?>
<!DOCTYPE svg PUBLIC "-//W3C//DTD SVG 1.1//EN"
 "http://www.w3.org/Graphics/SVG/1.1/DTD/svg11.dtd">
<!-- Generated by graphviz version 14.1.2 (20260124.0452)
 -->
<!-- Title: backlog Pages: 1 -->
<svg width="10628pt" height="383pt"
 viewBox="0.00 0.00 10628.00 383.00" xmlns="http://www.w3.org/2000/svg" xmlns:xlink="http://www.w3.org/1999/xlink">
<g id="graph0" class="graph" transform="scale(1 1) rotate(0) translate(4 379)">
<title>backlog</title>
<polygon fill="white" stroke="none" points="-4,4 -4,-379 10624,-379 10624,4 -4,4"/>
<text xml:space="preserve" text-anchor="middle" x="5310" y="-359.6" font-family="Helvetica,sans-Serif" font-size="12.00">Active backlog graph generated from docs/method/backlog/*/*.md</text>
<g id="clust1" class="cluster">
<title>cluster_v0_7_0</title>
<path fill="#fafafa" stroke="#cccccc" d="M20,-213.85C20,-213.85 855,-213.85 855,-213.85 861,-213.85 867,-219.85 867,-225.85 867,-225.85 867,-334.25 867,-334.25 867,-340.25 861,-346.25 855,-346.25 855,-346.25 20,-346.25 20,-346.25 14,-346.25 8,-340.25 8,-334.25 8,-334.25 8,-225.85 8,-225.85 8,-219.85 14,-213.85 20,-213.85"/>
<text xml:space="preserve" text-anchor="middle" x="37.75" y="-333.7" font-family="Helvetica,sans-Serif" font-size="9.00" fill="#555555">v0.7.0 (10)</text>
</g>
<g id="clust2" class="cluster">
<title>cluster_cool_ideas</title>
<path fill="#fafafa" stroke="#cccccc" d="M1091,-140.4C1091,-140.4 10212,-140.4 10212,-140.4 10218,-140.4 10224,-146.4 10224,-152.4 10224,-152.4 10224,-334.25 10224,-334.25 10224,-340.25 10218,-346.25 10212,-346.25 10212,-346.25 1091,-346.25 1091,-346.25 1085,-346.25 1079,-340.25 1079,-334.25 1079,-334.25 1079,-152.4 1079,-152.4 1079,-146.4 1085,-140.4 1091,-140.4"/>
<text xml:space="preserve" text-anchor="middle" x="1118.5" y="-333.7" font-family="Helvetica,sans-Serif" font-size="9.00" fill="#555555">Cool Ideas (73)</text>
</g>
<g id="clust3" class="cluster">
<title>cluster_external</title>
<path fill="#f8fbff" stroke="#cccccc" d="M887,-287.3C887,-287.3 1059,-287.3 1059,-287.3 1065,-287.3 1071,-293.3 1071,-299.3 1071,-299.3 1071,-334.25 1071,-334.25 1071,-340.25 1065,-346.25 1059,-346.25 1059,-346.25 887,-346.25 887,-346.25 881,-346.25 875,-340.25 875,-334.25 875,-334.25 875,-299.3 875,-299.3 875,-293.3 881,-287.3 887,-287.3"/>
<text xml:space="preserve" text-anchor="middle" x="918.25" y="-333.7" font-family="Helvetica,sans-Serif" font-size="9.00" fill="#555555">External blockers</text>
</g>
<g id="clust4" class="cluster">
<title>cluster_unresolved</title>
<path fill="#fff7f7" stroke="#cc3333" stroke-dasharray="5,2" d="M10244,-287.3C10244,-287.3 10476,-287.3 10476,-287.3 10482,-287.3 10488,-293.3 10488,-299.3 10488,-299.3 10488,-334.25 10488,-334.25 10488,-340.25 10482,-346.25 10476,-346.25 10476,-346.25 10244,-346.25 10244,-346.25 10238,-346.25 10232,-340.25 10232,-334.25 10232,-334.25 10232,-299.3 10232,-299.3 10232,-293.3 10238,-287.3 10244,-287.3"/>
<text xml:space="preserve" text-anchor="middle" x="10288.75" y="-333.7" font-family="Helvetica,sans-Serif" font-size="9.00" fill="#555555">Unresolved internal refs</text>
</g>
<g id="clust5" class="cluster">
<title>cluster_legend</title>
<path fill="none" stroke="#dddddd" d="M10508,-8C10508,-8 10600,-8 10600,-8 10606,-8 10612,-14 10612,-20 10612,-20 10612,-333.5 10612,-333.5 10612,-339.5 10606,-345.5 10600,-345.5 10600,-345.5 10508,-345.5 10508,-345.5 10502,-345.5 10496,-339.5 10496,-333.5 10496,-333.5 10496,-20 10496,-20 10496,-14 10502,-8 10508,-8"/>
<text xml:space="preserve" text-anchor="middle" x="10517.5" y="-333.9" font-family="Helvetica,sans-Serif" font-size="8.00" fill="#aaaaaa">Legend</text>
</g>
<!-- v0_7_0_CORE_agent_drift_warning -->
<g id="node1" class="node">
<title>v0_7_0_CORE_agent_drift_warning</title>
<path fill="#ffa07a" stroke="black" stroke-width="2" d="M559.05,-247.05C559.05,-247.05 466.95,-247.05 466.95,-247.05 462.75,-247.05 458.55,-242.85 458.55,-238.65 458.55,-238.65 458.55,-230.25 458.55,-230.25 458.55,-226.05 462.75,-221.85 466.95,-221.85 466.95,-221.85 559.05,-221.85 559.05,-221.85 563.25,-221.85 567.45,-226.05 567.45,-230.25 567.45,-230.25 567.45,-238.65 567.45,-238.65 567.45,-242.85 563.25,-247.05 559.05,-247.05"/>
<text xml:space="preserve" text-anchor="middle" x="513" y="-231.35" font-family="Helvetica,sans-Serif" font-size="8.00">CORE&#45;agent&#45;drift&#45;warning</text>
</g>
<!-- v0_7_0_CORE_git_graft_enhance -->
<g id="node2" class="node">
<title>v0_7_0_CORE_git_graft_enhance</title>
<path fill="#ffa07a" stroke="black" stroke-width="2" d="M435.68,-247.05C435.68,-247.05 350.32,-247.05 350.32,-247.05 346.12,-247.05 341.93,-242.85 341.93,-238.65 341.93,-238.65 341.93,-230.25 341.93,-230.25 341.93,-226.05 346.12,-221.85 350.32,-221.85 350.32,-221.85 435.68,-221.85 435.68,-221.85 439.88,-221.85 444.07,-226.05 444.07,-230.25 444.07,-230.25 444.07,-238.65 444.07,-238.65 444.07,-242.85 439.88,-247.05 435.68,-247.05"/>
<text xml:space="preserve" text-anchor="middle" x="393" y="-231.35" font-family="Helvetica,sans-Serif" font-size="8.00">CORE&#45;git&#45;graft&#45;enhance</text>
</g>
<!-- v0_7_0_CORE_migrate_path_ops_to_port -->
<g id="node3" class="node">
<title>v0_7_0_CORE_migrate_path_ops_to_port</title>
<path fill="#ffa07a" stroke="black" stroke-width="2" d="M137.17,-320.5C137.17,-320.5 24.83,-320.5 24.83,-320.5 20.63,-320.5 16.42,-316.3 16.42,-312.1 16.42,-312.1 16.42,-303.7 16.42,-303.7 16.42,-299.5 20.63,-295.3 24.83,-295.3 24.83,-295.3 137.17,-295.3 137.17,-295.3 141.37,-295.3 145.57,-299.5 145.57,-303.7 145.57,-303.7 145.57,-312.1 145.57,-312.1 145.57,-316.3 141.37,-320.5 137.17,-320.5"/>
<text xml:space="preserve" text-anchor="middle" x="81" y="-304.8" font-family="Helvetica,sans-Serif" font-size="8.00">CORE&#45;migrate&#45;path&#45;ops&#45;to&#45;port</text>
</g>
<!-- v0_7_0_CORE_migrate_to_slice_first_reads -->
<g id="node4" class="node">
<title>v0_7_0_CORE_migrate_to_slice_first_reads</title>
<path fill="#ffa07a" stroke="black" stroke-width="2" d="M850.8,-247.05C850.8,-247.05 733.2,-247.05 733.2,-247.05 729,-247.05 724.8,-242.85 724.8,-238.65 724.8,-238.65 724.8,-230.25 724.8,-230.25 724.8,-226.05 729,-221.85 733.2,-221.85 733.2,-221.85 850.8,-221.85 850.8,-221.85 855,-221.85 859.2,-226.05 859.2,-230.25 859.2,-230.25 859.2,-238.65 859.2,-238.65 859.2,-242.85 855,-247.05 850.8,-247.05"/>
<text xml:space="preserve" text-anchor="middle" x="792" y="-231.35" font-family="Helvetica,sans-Serif" font-size="8.00">CORE&#45;migrate&#45;to&#45;slice&#45;first&#45;reads</text>
</g>
<!-- v0_7_0_CORE_opt_in_daemon_mode_mcp_bootstrap -->
<g id="node5" class="node">
<title>v0_7_0_CORE_opt_in_daemon_mode_mcp_bootstrap</title>
<path fill="#ffa07a" stroke="black" stroke-width="2" d="M322.17,-320.5C322.17,-320.5 167.83,-320.5 167.83,-320.5 163.63,-320.5 159.43,-316.3 159.43,-312.1 159.43,-312.1 159.43,-303.7 159.43,-303.7 159.43,-299.5 163.63,-295.3 167.83,-295.3 167.83,-295.3 322.17,-295.3 322.17,-295.3 326.38,-295.3 330.57,-299.5 330.57,-303.7 330.57,-303.7 330.57,-312.1 330.57,-312.1 330.57,-316.3 326.38,-320.5 322.17,-320.5"/>
<text xml:space="preserve" text-anchor="middle" x="245" y="-304.8" font-family="Helvetica,sans-Serif" font-size="8.00">CORE&#45;opt&#45;in&#45;daemon&#45;mode&#45;mcp&#45;bootstrap</text>
</g>
<!-- v0_7_0_SURFACE_bijou_tui_for_graft_daemon_control_plane -->
<g id="node8" class="node">
<title>v0_7_0_SURFACE_bijou_tui_for_graft_daemon_control_plane</title>
<path fill="#ffa07a" stroke="black" stroke-width="2" d="M319.3,-247.05C319.3,-247.05 138.7,-247.05 138.7,-247.05 134.5,-247.05 130.3,-242.85 130.3,-238.65 130.3,-238.65 130.3,-230.25 130.3,-230.25 130.3,-226.05 134.5,-221.85 138.7,-221.85 138.7,-221.85 319.3,-221.85 319.3,-221.85 323.5,-221.85 327.7,-226.05 327.7,-230.25 327.7,-230.25 327.7,-238.65 327.7,-238.65 327.7,-242.85 323.5,-247.05 319.3,-247.05"/>
<text xml:space="preserve" text-anchor="middle" x="229" y="-231.35" font-family="Helvetica,sans-Serif" font-size="8.00">SURFACE&#45;bijou&#45;tui&#45;for&#45;graft&#45;daemon&#45;control&#45;plane</text>
</g>
<!-- v0_7_0_CORE_opt_in_daemon_mode_mcp_bootstrap&#45;&gt;v0_7_0_SURFACE_bijou_tui_for_graft_daemon_control_plane -->
<g id="edge16" class="edge">
<title>v0_7_0_CORE_opt_in_daemon_mode_mcp_bootstrap&#45;&gt;v0_7_0_SURFACE_bijou_tui_for_graft_daemon_control_plane</title>
<path fill="none" stroke="#666666" d="M242.21,-294.45C239.71,-283.29 236.01,-266.74 233.16,-254.01"/>
<polygon fill="#666666" stroke="#666666" points="234.89,-253.73 232.09,-249.23 231.47,-254.49 234.89,-253.73"/>
<text xml:space="preserve" text-anchor="middle" x="268.98" y="-268.65" font-family="Helvetica,sans-Serif" font-size="7.00">blocked_by/blocking</text>
</g>
<!-- v0_7_0_CORE_rewrite_structural_blame_to_use_warp_worldline_provenance -->
<g id="node6" class="node">
<title>v0_7_0_CORE_rewrite_structural_blame_to_use_warp_worldline_provenance</title>
<path fill="#ffa07a" stroke="black" stroke-width="2" d="M588.68,-320.5C588.68,-320.5 353.32,-320.5 353.32,-320.5 349.12,-320.5 344.92,-316.3 344.92,-312.1 344.92,-312.1 344.92,-303.7 344.92,-303.7 344.92,-299.5 349.12,-295.3 353.32,-295.3 353.32,-295.3 588.68,-295.3 588.68,-295.3 592.88,-295.3 597.08,-299.5 597.08,-303.7 597.08,-303.7 597.08,-312.1 597.08,-312.1 597.08,-316.3 592.88,-320.5 588.68,-320.5"/>
<text xml:space="preserve" text-anchor="middle" x="471" y="-304.8" font-family="Helvetica,sans-Serif" font-size="8.00">CORE&#45;rewrite&#45;structural&#45;blame&#45;to&#45;use&#45;warp&#45;worldline&#45;provenance</text>
</g>
<!-- v0_7_0_CORE_rewrite_structural_blame_to_use_warp_worldline_provenance&#45;&gt;v0_7_0_CORE_git_graft_enhance -->
<g id="edge17" class="edge">
<title>v0_7_0_CORE_rewrite_structural_blame_to_use_warp_worldline_provenance&#45;&gt;v0_7_0_CORE_git_graft_enhance</title>
<path fill="none" stroke="#666666" d="M457.41,-294.45C444.63,-282.74 425.39,-265.12 411.27,-252.19"/>
<polygon fill="#666666" stroke="#666666" points="412.68,-251.1 407.81,-249.02 410.31,-253.68 412.68,-251.1"/>
<text xml:space="preserve" text-anchor="middle" x="465.84" y="-268.65" font-family="Helvetica,sans-Serif" font-size="7.00">blocked_by/blocking</text>
</g>
<!-- v0_7_0_SURFACE_agent_dx_governed_edit -->
<g id="node7" class="node">
<title>v0_7_0_SURFACE_agent_dx_governed_edit</title>
<path fill="#ffa07a" stroke="black" stroke-width="2" d="M742.43,-320.5C742.43,-320.5 619.57,-320.5 619.57,-320.5 615.38,-320.5 611.17,-316.3 611.17,-312.1 611.17,-312.1 611.17,-303.7 611.17,-303.7 611.17,-299.5 615.38,-295.3 619.57,-295.3 619.57,-295.3 742.43,-295.3 742.43,-295.3 746.62,-295.3 750.83,-299.5 750.83,-303.7 750.83,-303.7 750.83,-312.1 750.83,-312.1 750.83,-316.3 746.62,-320.5 742.43,-320.5"/>
<text xml:space="preserve" text-anchor="middle" x="681" y="-304.8" font-family="Helvetica,sans-Serif" font-size="8.00">SURFACE&#45;agent&#45;dx&#45;governed&#45;edit</text>
</g>
<!-- v0_7_0_SURFACE_agent_dx_governed_edit&#45;&gt;v0_7_0_CORE_agent_drift_warning -->
<g id="edge18" class="edge">
<title>v0_7_0_SURFACE_agent_dx_governed_edit&#45;&gt;v0_7_0_CORE_agent_drift_warning</title>
<path fill="none" stroke="#666666" d="M645.15,-294.4C629.87,-288.86 611.94,-282.07 596,-275.3 578.18,-267.73 558.64,-258.4 543,-250.67"/>
<polygon fill="#666666" stroke="#666666" points="544.04,-249.23 538.78,-248.58 542.48,-252.37 544.04,-249.23"/>
<text xml:space="preserve" text-anchor="middle" x="627.5" y="-268.65" font-family="Helvetica,sans-Serif" font-size="7.00">blocked_by/blocking</text>
</g>
<!-- v0_7_0_SURFACE_governed_write_tools -->
<g id="node9" class="node">
<title>v0_7_0_SURFACE_governed_write_tools</title>
<path fill="#ffa07a" stroke="black" stroke-width="2" d="M702.18,-247.05C702.18,-247.05 589.82,-247.05 589.82,-247.05 585.62,-247.05 581.42,-242.85 581.42,-238.65 581.42,-238.65 581.42,-230.25 581.42,-230.25 581.42,-226.05 585.62,-221.85 589.82,-221.85 589.82,-221.85 702.18,-221.85 702.18,-221.85 706.38,-221.85 710.58,-226.05 710.58,-230.25 710.58,-230.25 710.58,-238.65 710.58,-238.65 710.58,-242.85 706.38,-247.05 702.18,-247.05"/>
<text xml:space="preserve" text-anchor="middle" x="646" y="-231.35" font-family="Helvetica,sans-Serif" font-size="8.00">SURFACE&#45;governed&#45;write&#45;tools</text>
</g>
<!-- v0_7_0_SURFACE_agent_dx_governed_edit&#45;&gt;v0_7_0_SURFACE_governed_write_tools -->
<g id="edge19" class="edge">
<title>v0_7_0_SURFACE_agent_dx_governed_edit&#45;&gt;v0_7_0_SURFACE_governed_write_tools</title>
<path fill="none" stroke="#666666" d="M674.9,-294.45C669.33,-283.08 661.03,-266.13 654.75,-253.32"/>
<polygon fill="#666666" stroke="#666666" points="656.46,-252.83 652.69,-249.11 653.32,-254.37 656.46,-252.83"/>
<text xml:space="preserve" text-anchor="middle" x="696.05" y="-268.65" font-family="Helvetica,sans-Serif" font-size="7.00">blocked_by/blocking</text>
</g>
<!-- v0_7_0_WARP_lsp_enrichment -->
<g id="node10" class="node">
<title>v0_7_0_WARP_lsp_enrichment</title>
<path fill="#ffa07a" stroke="black" stroke-width="2" d="M850.55,-320.5C850.55,-320.5 773.45,-320.5 773.45,-320.5 769.25,-320.5 765.05,-316.3 765.05,-312.1 765.05,-312.1 765.05,-303.7 765.05,-303.7 765.05,-299.5 769.25,-295.3 773.45,-295.3 773.45,-295.3 850.55,-295.3 850.55,-295.3 854.75,-295.3 858.95,-299.5 858.95,-303.7 858.95,-303.7 858.95,-312.1 858.95,-312.1 858.95,-316.3 854.75,-320.5 850.55,-320.5"/>
<text xml:space="preserve" text-anchor="middle" x="812" y="-304.8" font-family="Helvetica,sans-Serif" font-size="8.00">WARP&#45;lsp&#45;enrichment</text>
</g>
<!-- cool_ideas_bounded_neighborhood_for_references -->
<g id="node11" class="node">
<title>cool_ideas_bounded_neighborhood_for_references</title>
<path fill="#d4e8f7" stroke="black" d="M1244.17,-320.5C1244.17,-320.5 1095.83,-320.5 1095.83,-320.5 1091.62,-320.5 1087.42,-316.3 1087.42,-312.1 1087.42,-312.1 1087.42,-303.7 1087.42,-303.7 1087.42,-299.5 1091.62,-295.3 1095.83,-295.3 1095.83,-295.3 1244.17,-295.3 1244.17,-295.3 1248.38,-295.3 1252.58,-299.5 1252.58,-303.7 1252.58,-303.7 1252.58,-312.1 1252.58,-312.1 1252.58,-316.3 1248.38,-320.5 1244.17,-320.5"/>
<text xml:space="preserve" text-anchor="middle" x="1170" y="-304.8" font-family="Helvetica,sans-Serif" font-size="8.00">bounded&#45;neighborhood&#45;for&#45;references &#45; S</text>
</g>
<!-- cool_ideas_CI_001_causal_collapse_visualizer -->
<g id="node12" class="node">
<title>cool_ideas_CI_001_causal_collapse_visualizer</title>
<path fill="#d4e8f7" stroke="black" d="M7110.3,-247.05C7110.3,-247.05 6983.7,-247.05 6983.7,-247.05 6979.5,-247.05 6975.3,-242.85 6975.3,-238.65 6975.3,-238.65 6975.3,-230.25 6975.3,-230.25 6975.3,-226.05 6979.5,-221.85 6983.7,-221.85 6983.7,-221.85 7110.3,-221.85 7110.3,-221.85 7114.5,-221.85 7118.7,-226.05 7118.7,-230.25 7118.7,-230.25 7118.7,-238.65 7118.7,-238.65 7118.7,-242.85 7114.5,-247.05 7110.3,-247.05"/>
<text xml:space="preserve" text-anchor="middle" x="7047" y="-231.35" font-family="Helvetica,sans-Serif" font-size="8.00">CI&#45;001&#45;causal&#45;collapse&#45;visualizer &#45; L</text>
</g>
<!-- cool_ideas_CI_002_deterministic_scenario_replay -->
<g id="node13" class="node">
<title>cool_ideas_CI_002_deterministic_scenario_replay</title>
<path fill="#d4e8f7" stroke="black" d="M1414.67,-320.5C1414.67,-320.5 1275.33,-320.5 1275.33,-320.5 1271.12,-320.5 1266.92,-316.3 1266.92,-312.1 1266.92,-312.1 1266.92,-303.7 1266.92,-303.7 1266.92,-299.5 1271.12,-295.3 1275.33,-295.3 1275.33,-295.3 1414.67,-295.3 1414.67,-295.3 1418.88,-295.3 1423.08,-299.5 1423.08,-303.7 1423.08,-303.7 1423.08,-312.1 1423.08,-312.1 1423.08,-316.3 1418.88,-320.5 1414.67,-320.5"/>
<text xml:space="preserve" text-anchor="middle" x="1345" y="-304.8" font-family="Helvetica,sans-Serif" font-size="8.00">CI&#45;002&#45;deterministic&#45;scenario&#45;replay &#45; L</text>
</g>
<!-- cool_ideas_CI_003_mcp_native_diff_protocol -->
<g id="node14" class="node">
<title>cool_ideas_CI_003_mcp_native_diff_protocol</title>
<path fill="#d4e8f7" stroke="black" d="M1568.8,-320.5C1568.8,-320.5 1445.2,-320.5 1445.2,-320.5 1441,-320.5 1436.8,-316.3 1436.8,-312.1 1436.8,-312.1 1436.8,-303.7 1436.8,-303.7 1436.8,-299.5 1441,-295.3 1445.2,-295.3 1445.2,-295.3 1568.8,-295.3 1568.8,-295.3 1573,-295.3 1577.2,-299.5 1577.2,-303.7 1577.2,-303.7 1577.2,-312.1 1577.2,-312.1 1577.2,-316.3 1573,-320.5 1568.8,-320.5"/>
<text xml:space="preserve" text-anchor="middle" x="1507" y="-304.8" font-family="Helvetica,sans-Serif" font-size="8.00">CI&#45;003&#45;mcp&#45;native&#45;diff&#45;protocol &#45; M</text>
</g>
<!-- cool_ideas_CLEAN_CODE_parallel_agent_merge_shared_file_loss -->
<g id="node15" class="node">
<title>cool_ideas_CLEAN_CODE_parallel_agent_merge_shared_file_loss</title>
<path fill="#d4e8f7" stroke="black" d="M1800.05,-320.5C1800.05,-320.5 1599.95,-320.5 1599.95,-320.5 1595.75,-320.5 1591.55,-316.3 1591.55,-312.1 1591.55,-312.1 1591.55,-303.7 1591.55,-303.7 1591.55,-299.5 1595.75,-295.3 1599.95,-295.3 1599.95,-295.3 1800.05,-295.3 1800.05,-295.3 1804.25,-295.3 1808.45,-299.5 1808.45,-303.7 1808.45,-303.7 1808.45,-312.1 1808.45,-312.1 1808.45,-316.3 1804.25,-320.5 1800.05,-320.5"/>
<text xml:space="preserve" text-anchor="middle" x="1700" y="-304.8" font-family="Helvetica,sans-Serif" font-size="8.00">CLEAN&#45;CODE&#45;parallel&#45;agent&#45;merge&#45;shared&#45;file&#45;loss &#45; M</text>
</g>
<!-- cool_ideas_CORE_agent_handoff_protocol -->
<g id="node16" class="node">
<title>cool_ideas_CORE_agent_handoff_protocol</title>
<path fill="#d4e8f7" stroke="black" d="M1950.92,-320.5C1950.92,-320.5 1831.08,-320.5 1831.08,-320.5 1826.88,-320.5 1822.67,-316.3 1822.67,-312.1 1822.67,-312.1 1822.67,-303.7 1822.67,-303.7 1822.67,-299.5 1826.88,-295.3 1831.08,-295.3 1831.08,-295.3 1950.92,-295.3 1950.92,-295.3 1955.12,-295.3 1959.33,-299.5 1959.33,-303.7 1959.33,-303.7 1959.33,-312.1 1959.33,-312.1 1959.33,-316.3 1955.12,-320.5 1950.92,-320.5"/>
<text xml:space="preserve" text-anchor="middle" x="1891" y="-304.8" font-family="Helvetica,sans-Serif" font-size="8.00">CORE&#45;agent&#45;handoff&#45;protocol &#45; M</text>
</g>
<!-- cool_ideas_CORE_auto_focus -->
<g id="node17" class="node">
<title>cool_ideas_CORE_auto_focus</title>
<path fill="#d4e8f7" stroke="black" d="M2054.67,-320.5C2054.67,-320.5 1981.33,-320.5 1981.33,-320.5 1977.12,-320.5 1972.92,-316.3 1972.92,-312.1 1972.92,-312.1 1972.92,-303.7 1972.92,-303.7 1972.92,-299.5 1977.12,-295.3 1981.33,-295.3 1981.33,-295.3 2054.67,-295.3 2054.67,-295.3 2058.88,-295.3 2063.07,-299.5 2063.07,-303.7 2063.07,-303.7 2063.07,-312.1 2063.07,-312.1 2063.07,-316.3 2058.88,-320.5 2054.67,-320.5"/>
<text xml:space="preserve" text-anchor="middle" x="2018" y="-304.8" font-family="Helvetica,sans-Serif" font-size="8.00">CORE&#45;auto&#45;focus &#45; L</text>
</g>
<!-- cool_ideas_CORE_backlog_status_tool -->
<g id="node18" class="node">
<title>cool_ideas_CORE_backlog_status_tool</title>
<path fill="#d4e8f7" stroke="black" d="M2188.67,-320.5C2188.67,-320.5 2085.33,-320.5 2085.33,-320.5 2081.12,-320.5 2076.93,-316.3 2076.93,-312.1 2076.93,-312.1 2076.93,-303.7 2076.93,-303.7 2076.93,-299.5 2081.12,-295.3 2085.33,-295.3 2085.33,-295.3 2188.67,-295.3 2188.67,-295.3 2192.88,-295.3 2197.07,-299.5 2197.07,-303.7 2197.07,-303.7 2197.07,-312.1 2197.07,-312.1 2197.07,-316.3 2192.88,-320.5 2188.67,-320.5"/>
<text xml:space="preserve" text-anchor="middle" x="2137" y="-304.8" font-family="Helvetica,sans-Serif" font-size="8.00">CORE&#45;backlog&#45;status&#45;tool &#45; S</text>
</g>
<!-- cool_ideas_CORE_capture_range -->
<g id="node19" class="node">
<title>cool_ideas_CORE_capture_range</title>
<path fill="#d4e8f7" stroke="black" d="M2306.8,-320.5C2306.8,-320.5 2219.2,-320.5 2219.2,-320.5 2215,-320.5 2210.8,-316.3 2210.8,-312.1 2210.8,-312.1 2210.8,-303.7 2210.8,-303.7 2210.8,-299.5 2215,-295.3 2219.2,-295.3 2219.2,-295.3 2306.8,-295.3 2306.8,-295.3 2311,-295.3 2315.2,-299.5 2315.2,-303.7 2315.2,-303.7 2315.2,-312.1 2315.2,-312.1 2315.2,-316.3 2311,-320.5 2306.8,-320.5"/>
<text xml:space="preserve" text-anchor="middle" x="2263" y="-304.8" font-family="Helvetica,sans-Serif" font-size="8.00">CORE&#45;capture&#45;range &#45; S</text>
</g>
<!-- cool_ideas_CORE_constructor_in_disguise_lint -->
<g id="node20" class="node">
<title>cool_ideas_CORE_constructor_in_disguise_lint</title>
<path fill="#d4e8f7" stroke="black" d="M2468.55,-320.5C2468.55,-320.5 2337.45,-320.5 2337.45,-320.5 2333.25,-320.5 2329.05,-316.3 2329.05,-312.1 2329.05,-312.1 2329.05,-303.7 2329.05,-303.7 2329.05,-299.5 2333.25,-295.3 2337.45,-295.3 2337.45,-295.3 2468.55,-295.3 2468.55,-295.3 2472.75,-295.3 2476.95,-299.5 2476.95,-303.7 2476.95,-303.7 2476.95,-312.1 2476.95,-312.1 2476.95,-316.3 2472.75,-320.5 2468.55,-320.5"/>
<text xml:space="preserve" text-anchor="middle" x="2403" y="-304.8" font-family="Helvetica,sans-Serif" font-size="8.00">CORE&#45;constructor&#45;in&#45;disguise&#45;lint &#45; M</text>
</g>
<!-- cool_ideas_CORE_context_budget_forecasting -->
<g id="node21" class="node">
<title>cool_ideas_CORE_context_budget_forecasting</title>
<path fill="#d4e8f7" stroke="black" d="M2632.67,-320.5C2632.67,-320.5 2499.33,-320.5 2499.33,-320.5 2495.12,-320.5 2490.93,-316.3 2490.93,-312.1 2490.93,-312.1 2490.93,-303.7 2490.93,-303.7 2490.93,-299.5 2495.12,-295.3 2499.33,-295.3 2499.33,-295.3 2632.67,-295.3 2632.67,-295.3 2636.88,-295.3 2641.07,-299.5 2641.07,-303.7 2641.07,-303.7 2641.07,-312.1 2641.07,-312.1 2641.07,-316.3 2636.88,-320.5 2632.67,-320.5"/>
<text xml:space="preserve" text-anchor="middle" x="2566" y="-304.8" font-family="Helvetica,sans-Serif" font-size="8.00">CORE&#45;context&#45;budget&#45;forecasting &#45; M</text>
</g>
<!-- cool_ideas_CORE_conversation_primer -->
<g id="node22" class="node">
<title>cool_ideas_CORE_conversation_primer</title>
<path fill="#d4e8f7" stroke="black" d="M2772.67,-320.5C2772.67,-320.5 2663.33,-320.5 2663.33,-320.5 2659.12,-320.5 2654.93,-316.3 2654.93,-312.1 2654.93,-312.1 2654.93,-303.7 2654.93,-303.7 2654.93,-299.5 2659.12,-295.3 2663.33,-295.3 2663.33,-295.3 2772.67,-295.3 2772.67,-295.3 2776.88,-295.3 2781.07,-299.5 2781.07,-303.7 2781.07,-303.7 2781.07,-312.1 2781.07,-312.1 2781.07,-316.3 2776.88,-320.5 2772.67,-320.5"/>
<text xml:space="preserve" text-anchor="middle" x="2718" y="-304.8" font-family="Helvetica,sans-Serif" font-size="8.00">CORE&#45;conversation&#45;primer &#45; M</text>
</g>
<!-- cool_ideas_CORE_cross_session_resume -->
<g id="node23" class="node">
<title>cool_ideas_CORE_cross_session_resume</title>
<path fill="#d4e8f7" stroke="black" d="M2918.3,-320.5C2918.3,-320.5 2803.7,-320.5 2803.7,-320.5 2799.5,-320.5 2795.3,-316.3 2795.3,-312.1 2795.3,-312.1 2795.3,-303.7 2795.3,-303.7 2795.3,-299.5 2799.5,-295.3 2803.7,-295.3 2803.7,-295.3 2918.3,-295.3 2918.3,-295.3 2922.5,-295.3 2926.7,-299.5 2926.7,-303.7 2926.7,-303.7 2926.7,-312.1 2926.7,-312.1 2926.7,-316.3 2922.5,-320.5 2918.3,-320.5"/>
<text xml:space="preserve" text-anchor="middle" x="2861" y="-304.8" font-family="Helvetica,sans-Serif" font-size="8.00">CORE&#45;cross&#45;session&#45;resume &#45; S</text>
</g>
<!-- cool_ideas_CORE_graft_as_teacher -->
<g id="node24" class="node">
<title>cool_ideas_CORE_graft_as_teacher</title>
<path fill="#d4e8f7" stroke="black" d="M3043.17,-320.5C3043.17,-320.5 2948.83,-320.5 2948.83,-320.5 2944.62,-320.5 2940.43,-316.3 2940.43,-312.1 2940.43,-312.1 2940.43,-303.7 2940.43,-303.7 2940.43,-299.5 2944.62,-295.3 2948.83,-295.3 2948.83,-295.3 3043.17,-295.3 3043.17,-295.3 3047.38,-295.3 3051.57,-299.5 3051.57,-303.7 3051.57,-303.7 3051.57,-312.1 3051.57,-312.1 3051.57,-316.3 3047.38,-320.5 3043.17,-320.5"/>
<text xml:space="preserve" text-anchor="middle" x="2996" y="-304.8" font-family="Helvetica,sans-Serif" font-size="8.00">CORE&#45;graft&#45;as&#45;teacher &#45; S</text>
</g>
<!-- cool_ideas_CORE_graft_doctor -->
<g id="node25" class="node">
<title>cool_ideas_CORE_graft_doctor</title>
<path fill="#d4e8f7" stroke="black" d="M3154.05,-320.5C3154.05,-320.5 3073.95,-320.5 3073.95,-320.5 3069.75,-320.5 3065.55,-316.3 3065.55,-312.1 3065.55,-312.1 3065.55,-303.7 3065.55,-303.7 3065.55,-299.5 3069.75,-295.3 3073.95,-295.3 3073.95,-295.3 3154.05,-295.3 3154.05,-295.3 3158.25,-295.3 3162.45,-299.5 3162.45,-303.7 3162.45,-303.7 3162.45,-312.1 3162.45,-312.1 3162.45,-316.3 3158.25,-320.5 3154.05,-320.5"/>
<text xml:space="preserve" text-anchor="middle" x="3114" y="-304.8" font-family="Helvetica,sans-Serif" font-size="8.00">CORE&#45;graft&#45;doctor &#45; M</text>
</g>
<!-- cool_ideas_CORE_graft_teach_learning_receipts -->
<g id="node26" class="node">
<title>cool_ideas_CORE_graft_teach_learning_receipts</title>
<path fill="#d4e8f7" stroke="black" d="M3322.92,-320.5C3322.92,-320.5 3185.08,-320.5 3185.08,-320.5 3180.88,-320.5 3176.68,-316.3 3176.68,-312.1 3176.68,-312.1 3176.68,-303.7 3176.68,-303.7 3176.68,-299.5 3180.88,-295.3 3185.08,-295.3 3185.08,-295.3 3322.92,-295.3 3322.92,-295.3 3327.12,-295.3 3331.32,-299.5 3331.32,-303.7 3331.32,-303.7 3331.32,-312.1 3331.32,-312.1 3331.32,-316.3 3327.12,-320.5 3322.92,-320.5"/>
<text xml:space="preserve" text-anchor="middle" x="3254" y="-304.8" font-family="Helvetica,sans-Serif" font-size="8.00">CORE&#45;graft&#45;teach&#45;learning&#45;receipts &#45; S</text>
</g>
<!-- cool_ideas_CORE_horizon_of_readability -->
<g id="node27" class="node">
<title>cool_ideas_CORE_horizon_of_readability</title>
<path fill="#d4e8f7" stroke="black" d="M3466.55,-320.5C3466.55,-320.5 3353.45,-320.5 3353.45,-320.5 3349.25,-320.5 3345.05,-316.3 3345.05,-312.1 3345.05,-312.1 3345.05,-303.7 3345.05,-303.7 3345.05,-299.5 3349.25,-295.3 3353.45,-295.3 3353.45,-295.3 3466.55,-295.3 3466.55,-295.3 3470.75,-295.3 3474.95,-299.5 3474.95,-303.7 3474.95,-303.7 3474.95,-312.1 3474.95,-312.1 3474.95,-316.3 3470.75,-320.5 3466.55,-320.5"/>
<text xml:space="preserve" text-anchor="middle" x="3410" y="-304.8" font-family="Helvetica,sans-Serif" font-size="8.00">CORE&#45;horizon&#45;of&#45;readability &#45; M</text>
</g>
<!-- cool_ideas_CORE_lagrangian_policy -->
<g id="node28" class="node">
<title>cool_ideas_CORE_lagrangian_policy</title>
<path fill="#d4e8f7" stroke="black" d="M3598.55,-320.5C3598.55,-320.5 3497.45,-320.5 3497.45,-320.5 3493.25,-320.5 3489.05,-316.3 3489.05,-312.1 3489.05,-312.1 3489.05,-303.7 3489.05,-303.7 3489.05,-299.5 3493.25,-295.3 3497.45,-295.3 3497.45,-295.3 3598.55,-295.3 3598.55,-295.3 3602.75,-295.3 3606.95,-299.5 3606.95,-303.7 3606.95,-303.7 3606.95,-312.1 3606.95,-312.1 3606.95,-316.3 3602.75,-320.5 3598.55,-320.5"/>
<text xml:space="preserve" text-anchor="middle" x="3548" y="-304.8" font-family="Helvetica,sans-Serif" font-size="8.00">CORE&#45;lagrangian&#45;policy &#45; XL</text>
</g>
<!-- cool_ideas_CORE_multi_agent_conflict_detection -->
<g id="node29" class="node">
<title>cool_ideas_CORE_multi_agent_conflict_detection</title>
<path fill="#d4e8f7" stroke="black" d="M3766.92,-320.5C3766.92,-320.5 3629.08,-320.5 3629.08,-320.5 3624.88,-320.5 3620.68,-316.3 3620.68,-312.1 3620.68,-312.1 3620.68,-303.7 3620.68,-303.7 3620.68,-299.5 3624.88,-295.3 3629.08,-295.3 3629.08,-295.3 3766.92,-295.3 3766.92,-295.3 3771.12,-295.3 3775.32,-299.5 3775.32,-303.7 3775.32,-303.7 3775.32,-312.1 3775.32,-312.1 3775.32,-316.3 3771.12,-320.5 3766.92,-320.5"/>
<text xml:space="preserve" text-anchor="middle" x="3698" y="-304.8" font-family="Helvetica,sans-Serif" font-size="8.00">CORE&#45;multi&#45;agent&#45;conflict&#45;detection &#45; L</text>
</g>
<!-- cool_ideas_CORE_policy_playground -->
<g id="node30" class="node">
<title>cool_ideas_CORE_policy_playground</title>
<path fill="#d4e8f7" stroke="black" d="M3896.42,-320.5C3896.42,-320.5 3797.58,-320.5 3797.58,-320.5 3793.38,-320.5 3789.18,-316.3 3789.18,-312.1 3789.18,-312.1 3789.18,-303.7 3789.18,-303.7 3789.18,-299.5 3793.38,-295.3 3797.58,-295.3 3797.58,-295.3 3896.42,-295.3 3896.42,-295.3 3900.62,-295.3 3904.82,-299.5 3904.82,-303.7 3904.82,-303.7 3904.82,-312.1 3904.82,-312.1 3904.82,-316.3 3900.62,-320.5 3896.42,-320.5"/>
<text xml:space="preserve" text-anchor="middle" x="3847" y="-304.8" font-family="Helvetica,sans-Serif" font-size="8.00">CORE&#45;policy&#45;playground &#45; S</text>
</g>
<!-- cool_ideas_CORE_policy_profiles -->
<g id="node31" class="node">
<title>cool_ideas_CORE_policy_profiles</title>
<path fill="#d4e8f7" stroke="black" d="M4013.05,-320.5C4013.05,-320.5 3926.95,-320.5 3926.95,-320.5 3922.75,-320.5 3918.55,-316.3 3918.55,-312.1 3918.55,-312.1 3918.55,-303.7 3918.55,-303.7 3918.55,-299.5 3922.75,-295.3 3926.95,-295.3 3926.95,-295.3 4013.05,-295.3 4013.05,-295.3 4017.25,-295.3 4021.45,-299.5 4021.45,-303.7 4021.45,-303.7 4021.45,-312.1 4021.45,-312.1 4021.45,-316.3 4017.25,-320.5 4013.05,-320.5"/>
<text xml:space="preserve" text-anchor="middle" x="3970" y="-304.8" font-family="Helvetica,sans-Serif" font-size="8.00">CORE&#45;policy&#45;profiles &#45; M</text>
</g>
<!-- cool_ideas_CORE_pr_review_structural_summary -->
<g id="node32" class="node">
<title>cool_ideas_CORE_pr_review_structural_summary</title>
<path fill="#d4e8f7" stroke="black" d="M4187.93,-320.5C4187.93,-320.5 4044.08,-320.5 4044.08,-320.5 4039.88,-320.5 4035.68,-316.3 4035.68,-312.1 4035.68,-312.1 4035.68,-303.7 4035.68,-303.7 4035.68,-299.5 4039.88,-295.3 4044.08,-295.3 4044.08,-295.3 4187.93,-295.3 4187.93,-295.3 4192.12,-295.3 4196.32,-299.5 4196.32,-303.7 4196.32,-303.7 4196.32,-312.1 4196.32,-312.1 4196.32,-316.3 4192.12,-320.5 4187.93,-320.5"/>
<text xml:space="preserve" text-anchor="middle" x="4116" y="-304.8" font-family="Helvetica,sans-Serif" font-size="8.00">CORE&#45;pr&#45;review&#45;structural&#45;summary &#45; M</text>
</g>
<!-- cool_ideas_CORE_self_tuning_governor -->
<g id="node33" class="node">
<title>cool_ideas_CORE_self_tuning_governor</title>
<path fill="#d4e8f7" stroke="black" d="M4329.05,-320.5C4329.05,-320.5 4218.95,-320.5 4218.95,-320.5 4214.75,-320.5 4210.55,-316.3 4210.55,-312.1 4210.55,-312.1 4210.55,-303.7 4210.55,-303.7 4210.55,-299.5 4214.75,-295.3 4218.95,-295.3 4218.95,-295.3 4329.05,-295.3 4329.05,-295.3 4333.25,-295.3 4337.45,-299.5 4337.45,-303.7 4337.45,-303.7 4337.45,-312.1 4337.45,-312.1 4337.45,-316.3 4333.25,-320.5 4329.05,-320.5"/>
<text xml:space="preserve" text-anchor="middle" x="4274" y="-304.8" font-family="Helvetica,sans-Serif" font-size="8.00">CORE&#45;self&#45;tuning&#45;governor &#45; M</text>
</g>
<!-- cool_ideas_CORE_session_knowledge_map -->
<g id="node34" class="node">
<title>cool_ideas_CORE_session_knowledge_map</title>
<path fill="#d4e8f7" stroke="black" d="M4482.43,-320.5C4482.43,-320.5 4359.57,-320.5 4359.57,-320.5 4355.38,-320.5 4351.18,-316.3 4351.18,-312.1 4351.18,-312.1 4351.18,-303.7 4351.18,-303.7 4351.18,-299.5 4355.38,-295.3 4359.57,-295.3 4359.57,-295.3 4482.43,-295.3 4482.43,-295.3 4486.62,-295.3 4490.82,-299.5 4490.82,-303.7 4490.82,-303.7 4490.82,-312.1 4490.82,-312.1 4490.82,-316.3 4486.62,-320.5 4482.43,-320.5"/>
<text xml:space="preserve" text-anchor="middle" x="4421" y="-304.8" font-family="Helvetica,sans-Serif" font-size="8.00">CORE&#45;session&#45;knowledge&#45;map &#45; S</text>
</g>
<!-- cool_ideas_CORE_speculative_read_cost -->
<g id="node35" class="node">
<title>cool_ideas_CORE_speculative_read_cost</title>
<path fill="#d4e8f7" stroke="black" d="M4625.18,-320.5C4625.18,-320.5 4512.82,-320.5 4512.82,-320.5 4508.62,-320.5 4504.43,-316.3 4504.43,-312.1 4504.43,-312.1 4504.43,-303.7 4504.43,-303.7 4504.43,-299.5 4508.62,-295.3 4512.82,-295.3 4512.82,-295.3 4625.18,-295.3 4625.18,-295.3 4629.38,-295.3 4633.57,-299.5 4633.57,-303.7 4633.57,-303.7 4633.57,-312.1 4633.57,-312.1 4633.57,-316.3 4629.38,-320.5 4625.18,-320.5"/>
<text xml:space="preserve" text-anchor="middle" x="4569" y="-304.8" font-family="Helvetica,sans-Serif" font-size="8.00">CORE&#45;speculative&#45;read&#45;cost &#45; S</text>
</g>
<!-- cool_ideas_CORE_structural_session_replay -->
<g id="node36" class="node">
<title>cool_ideas_CORE_structural_session_replay</title>
<path fill="#d4e8f7" stroke="black" d="M4781.55,-320.5C4781.55,-320.5 4656.45,-320.5 4656.45,-320.5 4652.25,-320.5 4648.05,-316.3 4648.05,-312.1 4648.05,-312.1 4648.05,-303.7 4648.05,-303.7 4648.05,-299.5 4652.25,-295.3 4656.45,-295.3 4656.45,-295.3 4781.55,-295.3 4781.55,-295.3 4785.75,-295.3 4789.95,-299.5 4789.95,-303.7 4789.95,-303.7 4789.95,-312.1 4789.95,-312.1 4789.95,-316.3 4785.75,-320.5 4781.55,-320.5"/>
<text xml:space="preserve" text-anchor="middle" x="4719" y="-304.8" font-family="Helvetica,sans-Serif" font-size="8.00">CORE&#45;structural&#45;session&#45;replay &#45; M</text>
</g>
<!-- cool_ideas_CORE_structural_test_coverage_map -->
<g id="node37" class="node">
<title>cool_ideas_CORE_structural_test_coverage_map</title>
<path fill="#d4e8f7" stroke="black" d="M4953.8,-320.5C4953.8,-320.5 4812.2,-320.5 4812.2,-320.5 4808,-320.5 4803.8,-316.3 4803.8,-312.1 4803.8,-312.1 4803.8,-303.7 4803.8,-303.7 4803.8,-299.5 4808,-295.3 4812.2,-295.3 4812.2,-295.3 4953.8,-295.3 4953.8,-295.3 4958,-295.3 4962.2,-299.5 4962.2,-303.7 4962.2,-303.7 4962.2,-312.1 4962.2,-312.1 4962.2,-316.3 4958,-320.5 4953.8,-320.5"/>
<text xml:space="preserve" text-anchor="middle" x="4883" y="-304.8" font-family="Helvetica,sans-Serif" font-size="8.00">CORE&#45;structural&#45;test&#45;coverage&#45;map &#45; M</text>
</g>
<!-- cool_ideas_CORE_wire_primitives_into_runtime -->
<g id="node38" class="node">
<title>cool_ideas_CORE_wire_primitives_into_runtime</title>
<path fill="#d4e8f7" stroke="black" d="M5119.43,-320.5C5119.43,-320.5 4984.57,-320.5 4984.57,-320.5 4980.38,-320.5 4976.18,-316.3 4976.18,-312.1 4976.18,-312.1 4976.18,-303.7 4976.18,-303.7 4976.18,-299.5 4980.38,-295.3 4984.57,-295.3 4984.57,-295.3 5119.43,-295.3 5119.43,-295.3 5123.62,-295.3 5127.82,-299.5 5127.82,-303.7 5127.82,-303.7 5127.82,-312.1 5127.82,-312.1 5127.82,-316.3 5123.62,-320.5 5119.43,-320.5"/>
<text xml:space="preserve" text-anchor="middle" x="5052" y="-304.8" font-family="Helvetica,sans-Serif" font-size="8.00">CORE&#45;wire&#45;primitives&#45;into&#45;runtime &#45; M</text>
</g>
<!-- cool_ideas_monitor_tick_ceiling_tracking -->
<g id="node39" class="node">
<title>cool_ideas_monitor_tick_ceiling_tracking</title>
<path fill="#d4e8f7" stroke="black" d="M5257.55,-320.5C5257.55,-320.5 5150.45,-320.5 5150.45,-320.5 5146.25,-320.5 5142.05,-316.3 5142.05,-312.1 5142.05,-312.1 5142.05,-303.7 5142.05,-303.7 5142.05,-299.5 5146.25,-295.3 5150.45,-295.3 5150.45,-295.3 5257.55,-295.3 5257.55,-295.3 5261.75,-295.3 5265.95,-299.5 5265.95,-303.7 5265.95,-303.7 5265.95,-312.1 5265.95,-312.1 5265.95,-316.3 5261.75,-320.5 5257.55,-320.5"/>
<text xml:space="preserve" text-anchor="middle" x="5204" y="-304.8" font-family="Helvetica,sans-Serif" font-size="8.00">monitor&#45;tick&#45;ceiling&#45;tracking &#45; S</text>
</g>
<!-- cool_ideas_WARP_background_indexing -->
<g id="node51" class="node">
<title>cool_ideas_WARP_background_indexing</title>
<path fill="#d4e8f7" stroke="black" d="M5260.55,-247.05C5260.55,-247.05 5147.45,-247.05 5147.45,-247.05 5143.25,-247.05 5139.05,-242.85 5139.05,-238.65 5139.05,-238.65 5139.05,-230.25 5139.05,-230.25 5139.05,-226.05 5143.25,-221.85 5147.45,-221.85 5147.45,-221.85 5260.55,-221.85 5260.55,-221.85 5264.75,-221.85 5268.95,-226.05 5268.95,-230.25 5268.95,-230.25 5268.95,-238.65 5268.95,-238.65 5268.95,-242.85 5264.75,-247.05 5260.55,-247.05"/>
<text xml:space="preserve" text-anchor="middle" x="5204" y="-231.35" font-family="Helvetica,sans-Serif" font-size="8.00">WARP&#45;background&#45;indexing &#45; M</text>
</g>
<!-- cool_ideas_monitor_tick_ceiling_tracking&#45;&gt;cool_ideas_WARP_background_indexing -->
<g id="edge1" class="edge">
<title>cool_ideas_monitor_tick_ceiling_tracking&#45;&gt;cool_ideas_WARP_background_indexing</title>
<path fill="none" stroke="#666666" d="M5204,-295.1C5204,-283.9 5204,-266.88 5204,-253.88"/>
<polygon fill="#666666" stroke="#666666" points="5205.75,-254.02 5204,-249.02 5202.25,-254.02 5205.75,-254.02"/>
<text xml:space="preserve" text-anchor="middle" x="5235.5" y="-268.65" font-family="Helvetica,sans-Serif" font-size="7.00">blocked_by/blocking</text>
</g>
<!-- cool_ideas_SURFACE_active_causal_workspace_status -->
<g id="node40" class="node">
<title>cool_ideas_SURFACE_active_causal_workspace_status</title>
<path fill="#d4e8f7" stroke="black" d="M5452.05,-320.5C5452.05,-320.5 5287.95,-320.5 5287.95,-320.5 5283.75,-320.5 5279.55,-316.3 5279.55,-312.1 5279.55,-312.1 5279.55,-303.7 5279.55,-303.7 5279.55,-299.5 5283.75,-295.3 5287.95,-295.3 5287.95,-295.3 5452.05,-295.3 5452.05,-295.3 5456.25,-295.3 5460.45,-299.5 5460.45,-303.7 5460.45,-303.7 5460.45,-312.1 5460.45,-312.1 5460.45,-316.3 5456.25,-320.5 5452.05,-320.5"/>
<text xml:space="preserve" text-anchor="middle" x="5370" y="-304.8" font-family="Helvetica,sans-Serif" font-size="8.00">SURFACE&#45;active&#45;causal&#45;workspace&#45;status &#45; M</text>
</g>
<!-- cool_ideas_SURFACE_ide_native_graft_integration -->
<g id="node42" class="node">
<title>cool_ideas_SURFACE_ide_native_graft_integration</title>
<path fill="#d4e8f7" stroke="black" d="M5445.3,-247.05C5445.3,-247.05 5294.7,-247.05 5294.7,-247.05 5290.5,-247.05 5286.3,-242.85 5286.3,-238.65 5286.3,-238.65 5286.3,-230.25 5286.3,-230.25 5286.3,-226.05 5290.5,-221.85 5294.7,-221.85 5294.7,-221.85 5445.3,-221.85 5445.3,-221.85 5449.5,-221.85 5453.7,-226.05 5453.7,-230.25 5453.7,-230.25 5453.7,-238.65 5453.7,-238.65 5453.7,-242.85 5449.5,-247.05 5445.3,-247.05"/>
<text xml:space="preserve" text-anchor="middle" x="5370" y="-231.35" font-family="Helvetica,sans-Serif" font-size="8.00">SURFACE&#45;ide&#45;native&#45;graft&#45;integration &#45; XL</text>
</g>
<!-- cool_ideas_SURFACE_active_causal_workspace_status&#45;&gt;cool_ideas_SURFACE_ide_native_graft_integration -->
<g id="edge2" class="edge">
<title>cool_ideas_SURFACE_active_causal_workspace_status&#45;&gt;cool_ideas_SURFACE_ide_native_graft_integration</title>
<path fill="none" stroke="#666666" d="M5370,-295.1C5370,-283.9 5370,-266.88 5370,-253.88"/>
<polygon fill="#666666" stroke="#666666" points="5371.75,-254.02 5370,-249.02 5368.25,-254.02 5371.75,-254.02"/>
<text xml:space="preserve" text-anchor="middle" x="5401.5" y="-268.65" font-family="Helvetica,sans-Serif" font-size="7.00">blocked_by/blocking</text>
</g>
<!-- cool_ideas_SURFACE_attach_to_existing_causal_session -->
<g id="node41" class="node">
<title>cool_ideas_SURFACE_attach_to_existing_causal_session</title>
<path fill="#d4e8f7" stroke="black" d="M5651.3,-320.5C5651.3,-320.5 5482.7,-320.5 5482.7,-320.5 5478.5,-320.5 5474.3,-316.3 5474.3,-312.1 5474.3,-312.1 5474.3,-303.7 5474.3,-303.7 5474.3,-299.5 5478.5,-295.3 5482.7,-295.3 5482.7,-295.3 5651.3,-295.3 5651.3,-295.3 5655.5,-295.3 5659.7,-299.5 5659.7,-303.7 5659.7,-303.7 5659.7,-312.1 5659.7,-312.1 5659.7,-316.3 5655.5,-320.5 5651.3,-320.5"/>
<text xml:space="preserve" text-anchor="middle" x="5567" y="-304.8" font-family="Helvetica,sans-Serif" font-size="8.00">SURFACE&#45;attach&#45;to&#45;existing&#45;causal&#45;session &#45; M</text>
</g>
<!-- cool_ideas_SURFACE_local_history_dag_render_mode_and_count_legend -->
<g id="node43" class="node">
<title>cool_ideas_SURFACE_local_history_dag_render_mode_and_count_legend</title>
<path fill="#d4e8f7" stroke="black" d="M5908.18,-320.5C5908.18,-320.5 5681.82,-320.5 5681.82,-320.5 5677.62,-320.5 5673.43,-316.3 5673.43,-312.1 5673.43,-312.1 5673.43,-303.7 5673.43,-303.7 5673.43,-299.5 5677.62,-295.3 5681.82,-295.3 5681.82,-295.3 5908.18,-295.3 5908.18,-295.3 5912.38,-295.3 5916.57,-299.5 5916.57,-303.7 5916.57,-303.7 5916.57,-312.1 5916.57,-312.1 5916.57,-316.3 5912.38,-320.5 5908.18,-320.5"/>
<text xml:space="preserve" text-anchor="middle" x="5795" y="-304.8" font-family="Helvetica,sans-Serif" font-size="8.00">SURFACE&#45;local&#45;history&#45;dag&#45;render&#45;mode&#45;and&#45;count&#45;legend &#45; S</text>
</g>
<!-- cool_ideas_SURFACE_non_codex_instruction_bootstrap_parity -->
<g id="node44" class="node">
<title>cool_ideas_SURFACE_non_codex_instruction_bootstrap_parity</title>
<path fill="#d4e8f7" stroke="black" d="M6127.43,-320.5C6127.43,-320.5 5938.57,-320.5 5938.57,-320.5 5934.38,-320.5 5930.18,-316.3 5930.18,-312.1 5930.18,-312.1 5930.18,-303.7 5930.18,-303.7 5930.18,-299.5 5934.38,-295.3 5938.57,-295.3 5938.57,-295.3 6127.43,-295.3 6127.43,-295.3 6131.62,-295.3 6135.82,-299.5 6135.82,-303.7 6135.82,-303.7 6135.82,-312.1 6135.82,-312.1 6135.82,-316.3 6131.62,-320.5 6127.43,-320.5"/>
<text xml:space="preserve" text-anchor="middle" x="6033" y="-304.8" font-family="Helvetica,sans-Serif" font-size="8.00">SURFACE&#45;non&#45;codex&#45;instruction&#45;bootstrap&#45;parity &#45; M</text>
</g>
<!-- cool_ideas_SURFACE_offer_rename_refactor -->
<g id="node45" class="node">
<title>cool_ideas_SURFACE_offer_rename_refactor</title>
<path fill="#d4e8f7" stroke="black" d="M6287.43,-320.5C6287.43,-320.5 6158.57,-320.5 6158.57,-320.5 6154.38,-320.5 6150.18,-316.3 6150.18,-312.1 6150.18,-312.1 6150.18,-303.7 6150.18,-303.7 6150.18,-299.5 6154.38,-295.3 6158.57,-295.3 6158.57,-295.3 6287.43,-295.3 6287.43,-295.3 6291.62,-295.3 6295.82,-299.5 6295.82,-303.7 6295.82,-303.7 6295.82,-312.1 6295.82,-312.1 6295.82,-316.3 6291.62,-320.5 6287.43,-320.5"/>
<text xml:space="preserve" text-anchor="middle" x="6223" y="-304.8" font-family="Helvetica,sans-Serif" font-size="8.00">SURFACE&#45;offer&#45;rename&#45;refactor &#45; L</text>
</g>
<!-- cool_ideas_SURFACE_terminal_activity_browser_tui -->
<g id="node46" class="node">
<title>cool_ideas_SURFACE_terminal_activity_browser_tui</title>
<path fill="#d4e8f7" stroke="black" d="M6467.55,-320.5C6467.55,-320.5 6318.45,-320.5 6318.45,-320.5 6314.25,-320.5 6310.05,-316.3 6310.05,-312.1 6310.05,-312.1 6310.05,-303.7 6310.05,-303.7 6310.05,-299.5 6314.25,-295.3 6318.45,-295.3 6318.45,-295.3 6467.55,-295.3 6467.55,-295.3 6471.75,-295.3 6475.95,-299.5 6475.95,-303.7 6475.95,-303.7 6475.95,-312.1 6475.95,-312.1 6475.95,-316.3 6471.75,-320.5 6467.55,-320.5"/>
<text xml:space="preserve" text-anchor="middle" x="6393" y="-304.8" font-family="Helvetica,sans-Serif" font-size="8.00">SURFACE&#45;terminal&#45;activity&#45;browser&#45;tui &#45; L</text>
</g>
<!-- cool_ideas_traverse_plus_query_hydration_helper -->
<g id="node47" class="node">
<title>cool_ideas_traverse_plus_query_hydration_helper</title>
<path fill="#d4e8f7" stroke="black" d="M6639.8,-320.5C6639.8,-320.5 6498.2,-320.5 6498.2,-320.5 6494,-320.5 6489.8,-316.3 6489.8,-312.1 6489.8,-312.1 6489.8,-303.7 6489.8,-303.7 6489.8,-299.5 6494,-295.3 6498.2,-295.3 6498.2,-295.3 6639.8,-295.3 6639.8,-295.3 6644,-295.3 6648.2,-299.5 6648.2,-303.7 6648.2,-303.7 6648.2,-312.1 6648.2,-312.1 6648.2,-316.3 6644,-320.5 6639.8,-320.5"/>
<text xml:space="preserve" text-anchor="middle" x="6569" y="-304.8" font-family="Helvetica,sans-Serif" font-size="8.00">traverse&#45;plus&#45;query&#45;hydration&#45;helper &#45; S</text>
</g>
<!-- cool_ideas_WARP_adaptive_projection_selection -->
<g id="node48" class="node">
<title>cool_ideas_WARP_adaptive_projection_selection</title>
<path fill="#d4e8f7" stroke="black" d="M6808.93,-320.5C6808.93,-320.5 6671.07,-320.5 6671.07,-320.5 6666.88,-320.5 6662.68,-316.3 6662.68,-312.1 6662.68,-312.1 6662.68,-303.7 6662.68,-303.7 6662.68,-299.5 6666.88,-295.3 6671.07,-295.3 6671.07,-295.3 6808.93,-295.3 6808.93,-295.3 6813.12,-295.3 6817.32,-299.5 6817.32,-303.7 6817.32,-303.7 6817.32,-312.1 6817.32,-312.1 6817.32,-316.3 6813.12,-320.5 6808.93,-320.5"/>
<text xml:space="preserve" text-anchor="middle" x="6740" y="-304.8" font-family="Helvetica,sans-Serif" font-size="8.00">WARP&#45;adaptive&#45;projection&#45;selection &#45; L</text>
</g>
<!-- cool_ideas_WARP_agent_action_provenance -->
<g id="node49" class="node">
<title>cool_ideas_WARP_agent_action_provenance</title>
<path fill="#d4e8f7" stroke="black" d="M6970.55,-320.5C6970.55,-320.5 6839.45,-320.5 6839.45,-320.5 6835.25,-320.5 6831.05,-316.3 6831.05,-312.1 6831.05,-312.1 6831.05,-303.7 6831.05,-303.7 6831.05,-299.5 6835.25,-295.3 6839.45,-295.3 6839.45,-295.3 6970.55,-295.3 6970.55,-295.3 6974.75,-295.3 6978.95,-299.5 6978.95,-303.7 6978.95,-303.7 6978.95,-312.1 6978.95,-312.1 6978.95,-316.3 6974.75,-320.5 6970.55,-320.5"/>
<text xml:space="preserve" text-anchor="middle" x="6905" y="-304.8" font-family="Helvetica,sans-Serif" font-size="8.00">WARP&#45;agent&#45;action&#45;provenance &#45; XL</text>
</g>
<!-- cool_ideas_WARP_agent_action_provenance&#45;&gt;cool_ideas_CI_001_causal_collapse_visualizer -->
<g id="edge3" class="edge">
<title>cool_ideas_WARP_agent_action_provenance&#45;&gt;cool_ideas_CI_001_causal_collapse_visualizer</title>
<path fill="none" stroke="#666666" d="M6930.81,-294.81C6943.04,-289.01 6957.83,-281.9 6971,-275.3 6986.99,-267.28 7004.7,-258.02 7019,-250.44"/>
<polygon fill="#666666" stroke="#666666" points="7019.57,-252.12 7023.16,-248.23 7017.92,-249.03 7019.57,-252.12"/>
<text xml:space="preserve" text-anchor="middle" x="7017.14" y="-268.65" font-family="Helvetica,sans-Serif" font-size="7.00">blocked_by/blocking</text>
</g>
<!-- cool_ideas_WARP_causal_write_tracking -->
<g id="node54" class="node">
<title>cool_ideas_WARP_causal_write_tracking</title>
<path fill="#d4e8f7" stroke="black" d="M6663.05,-247.05C6663.05,-247.05 6552.95,-247.05 6552.95,-247.05 6548.75,-247.05 6544.55,-242.85 6544.55,-238.65 6544.55,-238.65 6544.55,-230.25 6544.55,-230.25 6544.55,-226.05 6548.75,-221.85 6552.95,-221.85 6552.95,-221.85 6663.05,-221.85 6663.05,-221.85 6667.25,-221.85 6671.45,-226.05 6671.45,-230.25 6671.45,-230.25 6671.45,-238.65 6671.45,-238.65 6671.45,-242.85 6667.25,-247.05 6663.05,-247.05"/>
<text xml:space="preserve" text-anchor="middle" x="6608" y="-231.35" font-family="Helvetica,sans-Serif" font-size="8.00">WARP&#45;causal&#45;write&#45;tracking &#45; L</text>
</g>
<!-- cool_ideas_WARP_agent_action_provenance&#45;&gt;cool_ideas_WARP_causal_write_tracking -->
<g id="edge4" class="edge">
<title>cool_ideas_WARP_agent_action_provenance&#45;&gt;cool_ideas_WARP_causal_write_tracking</title>
<path fill="none" stroke="#666666" d="M6857.13,-294.83C6846.27,-292.23 6834.76,-289.58 6824,-287.3 6794.83,-281.12 6787.1,-281.8 6758,-275.3 6723.63,-267.62 6685.25,-257.4 6655.92,-249.23"/>
<polygon fill="#666666" stroke="#666666" points="6656.55,-247.58 6651.26,-247.92 6655.61,-250.96 6656.55,-247.58"/>
<text xml:space="preserve" text-anchor="middle" x="6789.5" y="-268.65" font-family="Helvetica,sans-Serif" font-size="7.00">blocked_by/blocking</text>
</g>
<!-- cool_ideas_WARP_intent_and_decision_events -->
<g id="node64" class="node">
<title>cool_ideas_WARP_intent_and_decision_events</title>
<path fill="#d4e8f7" stroke="black" d="M6826.3,-247.05C6826.3,-247.05 6693.7,-247.05 6693.7,-247.05 6689.5,-247.05 6685.3,-242.85 6685.3,-238.65 6685.3,-238.65 6685.3,-230.25 6685.3,-230.25 6685.3,-226.05 6689.5,-221.85 6693.7,-221.85 6693.7,-221.85 6826.3,-221.85 6826.3,-221.85 6830.5,-221.85 6834.7,-226.05 6834.7,-230.25 6834.7,-230.25 6834.7,-238.65 6834.7,-238.65 6834.7,-242.85 6830.5,-247.05 6826.3,-247.05"/>
<text xml:space="preserve" text-anchor="middle" x="6760" y="-231.35" font-family="Helvetica,sans-Serif" font-size="8.00">WARP&#45;intent&#45;and&#45;decision&#45;events &#45; M</text>
</g>
<!-- cool_ideas_WARP_agent_action_provenance&#45;&gt;cool_ideas_WARP_intent_and_decision_events -->
<g id="edge5" class="edge">
<title>cool_ideas_WARP_agent_action_provenance&#45;&gt;cool_ideas_WARP_intent_and_decision_events</title>
<path fill="none" stroke="#666666" d="M6879.55,-294.87C6867.27,-289.02 6852.34,-281.86 6839,-275.3 6822.45,-267.16 6804.05,-257.89 6789.17,-250.34"/>
<polygon fill="#666666" stroke="#666666" points="6790.04,-248.83 6784.79,-248.12 6788.46,-251.95 6790.04,-248.83"/>
<text xml:space="preserve" text-anchor="middle" x="6870.5" y="-268.65" font-family="Helvetica,sans-Serif" font-size="7.00">blocked_by/blocking</text>
</g>
<!-- cool_ideas_WARP_provenance_dag -->
<g id="node69" class="node">
<title>cool_ideas_WARP_provenance_dag</title>
<path fill="#d4e8f7" stroke="black" d="M6952.55,-247.05C6952.55,-247.05 6857.45,-247.05 6857.45,-247.05 6853.25,-247.05 6849.05,-242.85 6849.05,-238.65 6849.05,-238.65 6849.05,-230.25 6849.05,-230.25 6849.05,-226.05 6853.25,-221.85 6857.45,-221.85 6857.45,-221.85 6952.55,-221.85 6952.55,-221.85 6956.75,-221.85 6960.95,-226.05 6960.95,-230.25 6960.95,-230.25 6960.95,-238.65 6960.95,-238.65 6960.95,-242.85 6956.75,-247.05 6952.55,-247.05"/>
<text xml:space="preserve" text-anchor="middle" x="6905" y="-231.35" font-family="Helvetica,sans-Serif" font-size="8.00">WARP&#45;provenance&#45;dag &#45; L</text>
</g>
<!-- cool_ideas_WARP_agent_action_provenance&#45;&gt;cool_ideas_WARP_provenance_dag -->
<g id="edge6" class="edge">
<title>cool_ideas_WARP_agent_action_provenance&#45;&gt;cool_ideas_WARP_provenance_dag</title>
<path fill="none" stroke="#666666" d="M6905,-295.1C6905,-283.9 6905,-266.88 6905,-253.88"/>
<polygon fill="#666666" stroke="#666666" points="6906.75,-254.02 6905,-249.02 6903.25,-254.02 6906.75,-254.02"/>
<text xml:space="preserve" text-anchor="middle" x="6936.5" y="-268.65" font-family="Helvetica,sans-Serif" font-size="7.00">blocked_by/blocking</text>
</g>
<!-- cool_ideas_WARP_auto_breaking_change_detection -->
<g id="node50" class="node">
<title>cool_ideas_WARP_auto_breaking_change_detection</title>
<path fill="#d4e8f7" stroke="black" d="M10017.3,-247.05C10017.3,-247.05 9866.7,-247.05 9866.7,-247.05 9862.5,-247.05 9858.3,-242.85 9858.3,-238.65 9858.3,-238.65 9858.3,-230.25 9858.3,-230.25 9858.3,-226.05 9862.5,-221.85 9866.7,-221.85 9866.7,-221.85 10017.3,-221.85 10017.3,-221.85 10021.5,-221.85 10025.7,-226.05 10025.7,-230.25 10025.7,-230.25 10025.7,-238.65 10025.7,-238.65 10025.7,-242.85 10021.5,-247.05 10017.3,-247.05"/>
<text xml:space="preserve" text-anchor="middle" x="9942" y="-231.35" font-family="Helvetica,sans-Serif" font-size="8.00">WARP&#45;auto&#45;breaking&#45;change&#45;detection &#45; L</text>
</g>
<!-- cool_ideas_WARP_budget_elasticity -->
<g id="node52" class="node">
<title>cool_ideas_WARP_budget_elasticity</title>
<path fill="#d4e8f7" stroke="black" d="M7096.93,-320.5C7096.93,-320.5 7001.07,-320.5 7001.07,-320.5 6996.88,-320.5 6992.68,-316.3 6992.68,-312.1 6992.68,-312.1 6992.68,-303.7 6992.68,-303.7 6992.68,-299.5 6996.88,-295.3 7001.07,-295.3 7001.07,-295.3 7096.93,-295.3 7096.93,-295.3 7101.12,-295.3 7105.32,-299.5 7105.32,-303.7 7105.32,-303.7 7105.32,-312.1 7105.32,-312.1 7105.32,-316.3 7101.12,-320.5 7096.93,-320.5"/>
<text xml:space="preserve" text-anchor="middle" x="7049" y="-304.8" font-family="Helvetica,sans-Serif" font-size="8.00">WARP&#45;budget&#45;elasticity &#45; M</text>
</g>
<!-- cool_ideas_WARP_causal_blame_for_staged_artifacts -->
<g id="node53" class="node">
<title>cool_ideas_WARP_causal_blame_for_staged_artifacts</title>
<path fill="#d4e8f7" stroke="black" d="M7056.18,-173.6C7056.18,-173.6 6901.82,-173.6 6901.82,-173.6 6897.62,-173.6 6893.43,-169.4 6893.43,-165.2 6893.43,-165.2 6893.43,-156.8 6893.43,-156.8 6893.43,-152.6 6897.62,-148.4 6901.82,-148.4 6901.82,-148.4 7056.18,-148.4 7056.18,-148.4 7060.38,-148.4 7064.57,-152.6 7064.57,-156.8 7064.57,-156.8 7064.57,-165.2 7064.57,-165.2 7064.57,-169.4 7060.38,-173.6 7056.18,-173.6"/>
<text xml:space="preserve" text-anchor="middle" x="6979" y="-157.9" font-family="Helvetica,sans-Serif" font-size="8.00">WARP&#45;causal&#45;blame&#45;for&#45;staged&#45;artifacts &#45; L</text>
</g>
<!-- cool_ideas_WARP_codebase_entropy_trajectory -->
<g id="node55" class="node">
<title>cool_ideas_WARP_codebase_entropy_trajectory</title>
<path fill="#d4e8f7" stroke="black" d="M7266.68,-320.5C7266.68,-320.5 7127.32,-320.5 7127.32,-320.5 7123.12,-320.5 7118.93,-316.3 7118.93,-312.1 7118.93,-312.1 7118.93,-303.7 7118.93,-303.7 7118.93,-299.5 7123.12,-295.3 7127.32,-295.3 7127.32,-295.3 7266.68,-295.3 7266.68,-295.3 7270.88,-295.3 7275.07,-299.5 7275.07,-303.7 7275.07,-303.7 7275.07,-312.1 7275.07,-312.1 7275.07,-316.3 7270.88,-320.5 7266.68,-320.5"/>
<text xml:space="preserve" text-anchor="middle" x="7197" y="-304.8" font-family="Helvetica,sans-Serif" font-size="8.00">WARP&#45;codebase&#45;entropy&#45;trajectory &#45; M</text>
</g>
<!-- cool_ideas_WARP_counterfactual_refactoring -->
<g id="node57" class="node">
<title>cool_ideas_WARP_counterfactual_refactoring</title>
<path fill="#d4e8f7" stroke="black" d="M7274.68,-247.05C7274.68,-247.05 7141.32,-247.05 7141.32,-247.05 7137.12,-247.05 7132.93,-242.85 7132.93,-238.65 7132.93,-238.65 7132.93,-230.25 7132.93,-230.25 7132.93,-226.05 7137.12,-221.85 7141.32,-221.85 7141.32,-221.85 7274.68,-221.85 7274.68,-221.85 7278.88,-221.85 7283.07,-226.05 7283.07,-230.25 7283.07,-230.25 7283.07,-238.65 7283.07,-238.65 7283.07,-242.85 7278.88,-247.05 7274.68,-247.05"/>
<text xml:space="preserve" text-anchor="middle" x="7208" y="-231.35" font-family="Helvetica,sans-Serif" font-size="8.00">WARP&#45;counterfactual&#45;refactoring &#45; XL</text>
</g>
<!-- cool_ideas_WARP_codebase_entropy_trajectory&#45;&gt;cool_ideas_WARP_counterfactual_refactoring -->
<g id="edge7" class="edge">
<title>cool_ideas_WARP_codebase_entropy_trajectory&#45;&gt;cool_ideas_WARP_counterfactual_refactoring</title>
<path fill="none" stroke="#666666" d="M7198.82,-295.1C7200.54,-283.9 7203.16,-266.88 7205.16,-253.88"/>
<polygon fill="#666666" stroke="#666666" points="7206.88,-254.21 7205.91,-249 7203.42,-253.68 7206.88,-254.21"/>
<text xml:space="preserve" text-anchor="middle" x="7234.33" y="-268.65" font-family="Helvetica,sans-Serif" font-size="7.00">blocked_by/blocking</text>
</g>
<!-- cool_ideas_WARP_codebase_signature -->
<g id="node56" class="node">
<title>cool_ideas_WARP_codebase_signature</title>
<path fill="#d4e8f7" stroke="black" d="M7404.55,-320.5C7404.55,-320.5 7297.45,-320.5 7297.45,-320.5 7293.25,-320.5 7289.05,-316.3 7289.05,-312.1 7289.05,-312.1 7289.05,-303.7 7289.05,-303.7 7289.05,-299.5 7293.25,-295.3 7297.45,-295.3 7297.45,-295.3 7404.55,-295.3 7404.55,-295.3 7408.75,-295.3 7412.95,-299.5 7412.95,-303.7 7412.95,-303.7 7412.95,-312.1 7412.95,-312.1 7412.95,-316.3 7408.75,-320.5 7404.55,-320.5"/>
<text xml:space="preserve" text-anchor="middle" x="7351" y="-304.8" font-family="Helvetica,sans-Serif" font-size="8.00">WARP&#45;codebase&#45;signature &#45; L</text>
</g>
<!-- cool_ideas_WARP_structural_impact_prediction -->
<g id="node79" class="node">
<title>cool_ideas_WARP_structural_impact_prediction</title>
<path fill="#d4e8f7" stroke="black" d="M7277.3,-173.6C7277.3,-173.6 7138.7,-173.6 7138.7,-173.6 7134.5,-173.6 7130.3,-169.4 7130.3,-165.2 7130.3,-165.2 7130.3,-156.8 7130.3,-156.8 7130.3,-152.6 7134.5,-148.4 7138.7,-148.4 7138.7,-148.4 7277.3,-148.4 7277.3,-148.4 7281.5,-148.4 7285.7,-152.6 7285.7,-156.8 7285.7,-156.8 7285.7,-165.2 7285.7,-165.2 7285.7,-169.4 7281.5,-173.6 7277.3,-173.6"/>
<text xml:space="preserve" text-anchor="middle" x="7208" y="-157.9" font-family="Helvetica,sans-Serif" font-size="8.00">WARP&#45;structural&#45;impact&#45;prediction &#45; XL</text>
</g>
<!-- cool_ideas_WARP_counterfactual_refactoring&#45;&gt;cool_ideas_WARP_structural_impact_prediction -->
<g id="edge8" class="edge">
<title>cool_ideas_WARP_counterfactual_refactoring&#45;&gt;cool_ideas_WARP_structural_impact_prediction</title>
<path fill="none" stroke="#666666" d="M7208,-221.65C7208,-210.45 7208,-193.43 7208,-180.43"/>
<polygon fill="#666666" stroke="#666666" points="7209.75,-180.57 7208,-175.57 7206.25,-180.57 7209.75,-180.57"/>
<text xml:space="preserve" text-anchor="middle" x="7239.5" y="-195.2" font-family="Helvetica,sans-Serif" font-size="7.00">blocked_by/blocking</text>
</g>
<!-- cool_ideas_WARP_dead_symbol_detection -->
<g id="node58" class="node">
<title>cool_ideas_WARP_dead_symbol_detection</title>
<path fill="#d4e8f7" stroke="black" d="M7554.18,-320.5C7554.18,-320.5 7435.82,-320.5 7435.82,-320.5 7431.62,-320.5 7427.43,-316.3 7427.43,-312.1 7427.43,-312.1 7427.43,-303.7 7427.43,-303.7 7427.43,-299.5 7431.62,-295.3 7435.82,-295.3 7435.82,-295.3 7554.18,-295.3 7554.18,-295.3 7558.38,-295.3 7562.57,-299.5 7562.57,-303.7 7562.57,-303.7 7562.57,-312.1 7562.57,-312.1 7562.57,-316.3 7558.38,-320.5 7554.18,-320.5"/>
<text xml:space="preserve" text-anchor="middle" x="7495" y="-304.8" font-family="Helvetica,sans-Serif" font-size="8.00">WARP&#45;dead&#45;symbol&#45;detection &#45; S</text>
</g>
<!-- cool_ideas_WARP_degeneracy_warning -->
<g id="node59" class="node">
<title>cool_ideas_WARP_degeneracy_warning</title>
<path fill="#d4e8f7" stroke="black" d="M7697.18,-320.5C7697.18,-320.5 7584.82,-320.5 7584.82,-320.5 7580.62,-320.5 7576.43,-316.3 7576.43,-312.1 7576.43,-312.1 7576.43,-303.7 7576.43,-303.7 7576.43,-299.5 7580.62,-295.3 7584.82,-295.3 7584.82,-295.3 7697.18,-295.3 7697.18,-295.3 7701.38,-295.3 7705.57,-299.5 7705.57,-303.7 7705.57,-303.7 7705.57,-312.1 7705.57,-312.1 7705.57,-316.3 7701.38,-320.5 7697.18,-320.5"/>
<text xml:space="preserve" text-anchor="middle" x="7641" y="-304.8" font-family="Helvetica,sans-Serif" font-size="8.00">WARP&#45;degeneracy&#45;warning &#45; M</text>
</g>
<!-- cool_ideas_WARP_drift_sentinel -->
<g id="node60" class="node">
<title>cool_ideas_WARP_drift_sentinel</title>
<path fill="#d4e8f7" stroke="black" d="M9610.18,-247.05C9610.18,-247.05 9527.82,-247.05 9527.82,-247.05 9523.62,-247.05 9519.42,-242.85 9519.42,-238.65 9519.42,-238.65 9519.42,-230.25 9519.42,-230.25 9519.42,-226.05 9523.62,-221.85 9527.82,-221.85 9527.82,-221.85 9610.18,-221.85 9610.18,-221.85 9614.38,-221.85 9618.58,-226.05 9618.58,-230.25 9618.58,-230.25 9618.58,-238.65 9618.58,-238.65 9618.58,-242.85 9614.38,-247.05 9610.18,-247.05"/>
<text xml:space="preserve" text-anchor="middle" x="9569" y="-231.35" font-family="Helvetica,sans-Serif" font-size="8.00">WARP&#45;drift&#45;sentinel &#45; M</text>
</g>
<!-- cool_ideas_WARP_footprint_parallelism -->
<g id="node61" class="node">
<title>cool_ideas_WARP_footprint_parallelism</title>
<path fill="#d4e8f7" stroke="black" d="M7839.8,-320.5C7839.8,-320.5 7728.2,-320.5 7728.2,-320.5 7724,-320.5 7719.8,-316.3 7719.8,-312.1 7719.8,-312.1 7719.8,-303.7 7719.8,-303.7 7719.8,-299.5 7724,-295.3 7728.2,-295.3 7728.2,-295.3 7839.8,-295.3 7839.8,-295.3 7844,-295.3 7848.2,-299.5 7848.2,-303.7 7848.2,-303.7 7848.2,-312.1 7848.2,-312.1 7848.2,-316.3 7844,-320.5 7839.8,-320.5"/>
<text xml:space="preserve" text-anchor="middle" x="7784" y="-304.8" font-family="Helvetica,sans-Serif" font-size="8.00">WARP&#45;footprint&#45;parallelism &#45; XL</text>
</g>
<!-- cool_ideas_WARP_graft_pack -->
<g id="node62" class="node">
<title>cool_ideas_WARP_graft_pack</title>
<path fill="#d4e8f7" stroke="black" d="M7945.43,-320.5C7945.43,-320.5 7870.57,-320.5 7870.57,-320.5 7866.38,-320.5 7862.18,-316.3 7862.18,-312.1 7862.18,-312.1 7862.18,-303.7 7862.18,-303.7 7862.18,-299.5 7866.38,-295.3 7870.57,-295.3 7870.57,-295.3 7945.43,-295.3 7945.43,-295.3 7949.62,-295.3 7953.82,-299.5 7953.82,-303.7 7953.82,-303.7 7953.82,-312.1 7953.82,-312.1 7953.82,-316.3 7949.62,-320.5 7945.43,-320.5"/>
<text xml:space="preserve" text-anchor="middle" x="7908" y="-304.8" font-family="Helvetica,sans-Serif" font-size="8.00">WARP&#45;graft&#45;pack &#45; M</text>
</g>
<!-- cool_ideas_WARP_grouped_aggregate_queries -->
<g id="node63" class="node">
<title>cool_ideas_WARP_grouped_aggregate_queries</title>
<path fill="#d4e8f7" stroke="black" d="M8113.93,-320.5C8113.93,-320.5 7976.07,-320.5 7976.07,-320.5 7971.88,-320.5 7967.68,-316.3 7967.68,-312.1 7967.68,-312.1 7967.68,-303.7 7967.68,-303.7 7967.68,-299.5 7971.88,-295.3 7976.07,-295.3 7976.07,-295.3 8113.93,-295.3 8113.93,-295.3 8118.12,-295.3 8122.32,-299.5 8122.32,-303.7 8122.32,-303.7 8122.32,-312.1 8122.32,-312.1 8122.32,-316.3 8118.12,-320.5 8113.93,-320.5"/>
<text xml:space="preserve" text-anchor="middle" x="8045" y="-304.8" font-family="Helvetica,sans-Serif" font-size="8.00">WARP&#45;grouped&#45;aggregate&#45;queries &#45; M</text>
</g>
<!-- cool_ideas_WARP_intentional_degeneracy_privacy -->
<g id="node65" class="node">
<title>cool_ideas_WARP_intentional_degeneracy_privacy</title>
<path fill="#d4e8f7" stroke="black" d="M8292.8,-320.5C8292.8,-320.5 8145.2,-320.5 8145.2,-320.5 8141,-320.5 8136.8,-316.3 8136.8,-312.1 8136.8,-312.1 8136.8,-303.7 8136.8,-303.7 8136.8,-299.5 8141,-295.3 8145.2,-295.3 8145.2,-295.3 8292.8,-295.3 8292.8,-295.3 8297,-295.3 8301.2,-299.5 8301.2,-303.7 8301.2,-303.7 8301.2,-312.1 8301.2,-312.1 8301.2,-316.3 8297,-320.5 8292.8,-320.5"/>
<text xml:space="preserve" text-anchor="middle" x="8219" y="-304.8" font-family="Helvetica,sans-Serif" font-size="8.00">WARP&#45;intentional&#45;degeneracy&#45;privacy &#45; M</text>
</g>
<!-- cool_ideas_WARP_minimum_viable_context -->
<g id="node66" class="node">
<title>cool_ideas_WARP_minimum_viable_context</title>
<path fill="#d4e8f7" stroke="black" d="M8446.43,-320.5C8446.43,-320.5 8323.57,-320.5 8323.57,-320.5 8319.38,-320.5 8315.17,-316.3 8315.17,-312.1 8315.17,-312.1 8315.17,-303.7 8315.17,-303.7 8315.17,-299.5 8319.38,-295.3 8323.57,-295.3 8323.57,-295.3 8446.43,-295.3 8446.43,-295.3 8450.62,-295.3 8454.83,-299.5 8454.83,-303.7 8454.83,-303.7 8454.83,-312.1 8454.83,-312.1 8454.83,-316.3 8450.62,-320.5 8446.43,-320.5"/>
<text xml:space="preserve" text-anchor="middle" x="8385" y="-304.8" font-family="Helvetica,sans-Serif" font-size="8.00">WARP&#45;minimum&#45;viable&#45;context &#45; M</text>
</g>
<!-- cool_ideas_WARP_outline_diff_commit_trailer -->
<g id="node67" class="node">
<title>cool_ideas_WARP_outline_diff_commit_trailer</title>
<path fill="#d4e8f7" stroke="black" d="M8602.93,-320.5C8602.93,-320.5 8477.07,-320.5 8477.07,-320.5 8472.88,-320.5 8468.67,-316.3 8468.67,-312.1 8468.67,-312.1 8468.67,-303.7 8468.67,-303.7 8468.67,-299.5 8472.88,-295.3 8477.07,-295.3 8477.07,-295.3 8602.93,-295.3 8602.93,-295.3 8607.12,-295.3 8611.33,-299.5 8611.33,-303.7 8611.33,-303.7 8611.33,-312.1 8611.33,-312.1 8611.33,-316.3 8607.12,-320.5 8602.93,-320.5"/>
<text xml:space="preserve" text-anchor="middle" x="8540" y="-304.8" font-family="Helvetica,sans-Serif" font-size="8.00">WARP&#45;outline&#45;diff&#45;commit&#45;trailer &#45; S</text>
</g>
<!-- cool_ideas_WARP_projection_safety_classes -->
<g id="node68" class="node">
<title>cool_ideas_WARP_projection_safety_classes</title>
<path fill="#d4e8f7" stroke="black" d="M8759.93,-320.5C8759.93,-320.5 8634.07,-320.5 8634.07,-320.5 8629.88,-320.5 8625.67,-316.3 8625.67,-312.1 8625.67,-312.1 8625.67,-303.7 8625.67,-303.7 8625.67,-299.5 8629.88,-295.3 8634.07,-295.3 8634.07,-295.3 8759.93,-295.3 8759.93,-295.3 8764.12,-295.3 8768.33,-299.5 8768.33,-303.7 8768.33,-303.7 8768.33,-312.1 8768.33,-312.1 8768.33,-316.3 8764.12,-320.5 8759.93,-320.5"/>
<text xml:space="preserve" text-anchor="middle" x="8697" y="-304.8" font-family="Helvetica,sans-Serif" font-size="8.00">WARP&#45;projection&#45;safety&#45;classes &#45; M</text>
</g>
<!-- cool_ideas_WARP_provenance_dag&#45;&gt;cool_ideas_WARP_causal_blame_for_staged_artifacts -->
<g id="edge9" class="edge">
<title>cool_ideas_WARP_provenance_dag&#45;&gt;cool_ideas_WARP_causal_blame_for_staged_artifacts</title>
<path fill="none" stroke="#666666" d="M6917.22,-221.65C6929.46,-209.83 6948.41,-191.54 6962.09,-178.32"/>
<polygon fill="#666666" stroke="#666666" points="6963.04,-179.84 6965.43,-175.11 6960.61,-177.32 6963.04,-179.84"/>
<text xml:space="preserve" text-anchor="middle" x="6975.72" y="-195.2" font-family="Helvetica,sans-Serif" font-size="7.00">blocked_by/blocking</text>
</g>
<!-- cool_ideas_WARP_reasoning_trace_replay -->
<g id="node70" class="node">
<title>cool_ideas_WARP_reasoning_trace_replay</title>
<path fill="#d4e8f7" stroke="black" d="M6870.93,-173.6C6870.93,-173.6 6751.07,-173.6 6751.07,-173.6 6746.88,-173.6 6742.68,-169.4 6742.68,-165.2 6742.68,-165.2 6742.68,-156.8 6742.68,-156.8 6742.68,-152.6 6746.88,-148.4 6751.07,-148.4 6751.07,-148.4 6870.93,-148.4 6870.93,-148.4 6875.12,-148.4 6879.32,-152.6 6879.32,-156.8 6879.32,-156.8 6879.32,-165.2 6879.32,-165.2 6879.32,-169.4 6875.12,-173.6 6870.93,-173.6"/>
<text xml:space="preserve" text-anchor="middle" x="6811" y="-157.9" font-family="Helvetica,sans-Serif" font-size="8.00">WARP&#45;reasoning&#45;trace&#45;replay &#45; M</text>
</g>
<!-- cool_ideas_WARP_provenance_dag&#45;&gt;cool_ideas_WARP_reasoning_trace_replay -->
<g id="edge10" class="edge">
<title>cool_ideas_WARP_provenance_dag&#45;&gt;cool_ideas_WARP_reasoning_trace_replay</title>
<path fill="none" stroke="#666666" d="M6889.48,-221.65C6873.79,-209.73 6849.44,-191.22 6832.02,-177.98"/>
<polygon fill="#666666" stroke="#666666" points="6833.1,-176.6 6828.06,-174.97 6830.99,-179.39 6833.1,-176.6"/>
<text xml:space="preserve" text-anchor="middle" x="6892.32" y="-195.2" font-family="Helvetica,sans-Serif" font-size="7.00">blocked_by/blocking</text>
</g>
<!-- cool_ideas_WARP_rulial_heat_map -->
<g id="node71" class="node">
<title>cool_ideas_WARP_rulial_heat_map</title>
<path fill="#d4e8f7" stroke="black" d="M8881.3,-320.5C8881.3,-320.5 8790.7,-320.5 8790.7,-320.5 8786.5,-320.5 8782.3,-316.3 8782.3,-312.1 8782.3,-312.1 8782.3,-303.7 8782.3,-303.7 8782.3,-299.5 8786.5,-295.3 8790.7,-295.3 8790.7,-295.3 8881.3,-295.3 8881.3,-295.3 8885.5,-295.3 8889.7,-299.5 8889.7,-303.7 8889.7,-303.7 8889.7,-312.1 8889.7,-312.1 8889.7,-316.3 8885.5,-320.5 8881.3,-320.5"/>
<text xml:space="preserve" text-anchor="middle" x="8836" y="-304.8" font-family="Helvetica,sans-Serif" font-size="8.00">WARP&#45;rulial&#45;heat&#45;map &#45; L</text>
</g>
<!-- cool_ideas_WARP_semantic_drift_in_sessions -->
<g id="node72" class="node">
<title>cool_ideas_WARP_semantic_drift_in_sessions</title>
<path fill="#d4e8f7" stroke="black" d="M9041.43,-320.5C9041.43,-320.5 8912.57,-320.5 8912.57,-320.5 8908.38,-320.5 8904.17,-316.3 8904.17,-312.1 8904.17,-312.1 8904.17,-303.7 8904.17,-303.7 8904.17,-299.5 8908.38,-295.3 8912.57,-295.3 8912.57,-295.3 9041.43,-295.3 9041.43,-295.3 9045.62,-295.3 9049.83,-299.5 9049.83,-303.7 9049.83,-303.7 9049.83,-312.1 9049.83,-312.1 9049.83,-316.3 9045.62,-320.5 9041.43,-320.5"/>
<text xml:space="preserve" text-anchor="middle" x="8977" y="-304.8" font-family="Helvetica,sans-Serif" font-size="8.00">WARP&#45;semantic&#45;drift&#45;in&#45;sessions &#45; M</text>
</g>
<!-- cool_ideas_WARP_semantic_merge_conflict_prediction -->
<g id="node73" class="node">
<title>cool_ideas_WARP_semantic_merge_conflict_prediction</title>
<path fill="#d4e8f7" stroke="black" d="M10207.43,-247.05C10207.43,-247.05 10048.57,-247.05 10048.57,-247.05 10044.38,-247.05 10040.17,-242.85 10040.17,-238.65 10040.17,-238.65 10040.17,-230.25 10040.17,-230.25 10040.17,-226.05 10044.38,-221.85 10048.57,-221.85 10048.57,-221.85 10207.43,-221.85 10207.43,-221.85 10211.62,-221.85 10215.83,-226.05 10215.83,-230.25 10215.83,-230.25 10215.83,-238.65 10215.83,-238.65 10215.83,-242.85 10211.62,-247.05 10207.43,-247.05"/>
<text xml:space="preserve" text-anchor="middle" x="10128" y="-231.35" font-family="Helvetica,sans-Serif" font-size="8.00">WARP&#45;semantic&#45;merge&#45;conflict&#45;prediction &#45; L</text>
</g>
<!-- cool_ideas_WARP_session_filtration -->
<g id="node74" class="node">
<title>cool_ideas_WARP_session_filtration</title>
<path fill="#d4e8f7" stroke="black" d="M9165.8,-320.5C9165.8,-320.5 9072.2,-320.5 9072.2,-320.5 9068,-320.5 9063.8,-316.3 9063.8,-312.1 9063.8,-312.1 9063.8,-303.7 9063.8,-303.7 9063.8,-299.5 9068,-295.3 9072.2,-295.3 9072.2,-295.3 9165.8,-295.3 9165.8,-295.3 9170,-295.3 9174.2,-299.5 9174.2,-303.7 9174.2,-303.7 9174.2,-312.1 9174.2,-312.1 9174.2,-316.3 9170,-320.5 9165.8,-320.5"/>
<text xml:space="preserve" text-anchor="middle" x="9119" y="-304.8" font-family="Helvetica,sans-Serif" font-size="8.00">WARP&#45;session&#45;filtration &#45; L</text>
</g>
<!-- cool_ideas_WARP_shadow_structural_workspaces -->
<g id="node75" class="node">
<title>cool_ideas_WARP_shadow_structural_workspaces</title>
<path fill="#d4e8f7" stroke="black" d="M9347.3,-320.5C9347.3,-320.5 9196.7,-320.5 9196.7,-320.5 9192.5,-320.5 9188.3,-316.3 9188.3,-312.1 9188.3,-312.1 9188.3,-303.7 9188.3,-303.7 9188.3,-299.5 9192.5,-295.3 9196.7,-295.3 9196.7,-295.3 9347.3,-295.3 9347.3,-295.3 9351.5,-295.3 9355.7,-299.5 9355.7,-303.7 9355.7,-303.7 9355.7,-312.1 9355.7,-312.1 9355.7,-316.3 9351.5,-320.5 9347.3,-320.5"/>
<text xml:space="preserve" text-anchor="middle" x="9272" y="-304.8" font-family="Helvetica,sans-Serif" font-size="8.00">WARP&#45;shadow&#45;structural&#45;workspaces &#45; XL</text>
</g>
<!-- cool_ideas_WARP_speculative_merge -->
<g id="node76" class="node">
<title>cool_ideas_WARP_speculative_merge</title>
<path fill="#d4e8f7" stroke="black" d="M9485.55,-320.5C9485.55,-320.5 9378.45,-320.5 9378.45,-320.5 9374.25,-320.5 9370.05,-316.3 9370.05,-312.1 9370.05,-312.1 9370.05,-303.7 9370.05,-303.7 9370.05,-299.5 9374.25,-295.3 9378.45,-295.3 9378.45,-295.3 9485.55,-295.3 9485.55,-295.3 9489.75,-295.3 9493.95,-299.5 9493.95,-303.7 9493.95,-303.7 9493.95,-312.1 9493.95,-312.1 9493.95,-316.3 9489.75,-320.5 9485.55,-320.5"/>
<text xml:space="preserve" text-anchor="middle" x="9432" y="-304.8" font-family="Helvetica,sans-Serif" font-size="8.00">WARP&#45;speculative&#45;merge &#45; XL</text>
</g>
<!-- cool_ideas_WARP_stale_docs_checker -->
<g id="node77" class="node">
<title>cool_ideas_WARP_stale_docs_checker</title>
<path fill="#d4e8f7" stroke="black" d="M9621.8,-320.5C9621.8,-320.5 9516.2,-320.5 9516.2,-320.5 9512,-320.5 9507.8,-316.3 9507.8,-312.1 9507.8,-312.1 9507.8,-303.7 9507.8,-303.7 9507.8,-299.5 9512,-295.3 9516.2,-295.3 9516.2,-295.3 9621.8,-295.3 9621.8,-295.3 9626,-295.3 9630.2,-299.5 9630.2,-303.7 9630.2,-303.7 9630.2,-312.1 9630.2,-312.1 9630.2,-316.3 9626,-320.5 9621.8,-320.5"/>
<text xml:space="preserve" text-anchor="middle" x="9569" y="-304.8" font-family="Helvetica,sans-Serif" font-size="8.00">WARP&#45;stale&#45;docs&#45;checker &#45; M</text>
</g>
<!-- cool_ideas_WARP_stale_docs_checker&#45;&gt;cool_ideas_WARP_drift_sentinel -->
<g id="edge11" class="edge">
<title>cool_ideas_WARP_stale_docs_checker&#45;&gt;cool_ideas_WARP_drift_sentinel</title>
<path fill="none" stroke="#666666" d="M9569,-295.1C9569,-283.9 9569,-266.88 9569,-253.88"/>
<polygon fill="#666666" stroke="#666666" points="9570.75,-254.02 9569,-249.02 9567.25,-254.02 9570.75,-254.02"/>
<text xml:space="preserve" text-anchor="middle" x="9600.5" y="-268.65" font-family="Helvetica,sans-Serif" font-size="7.00">blocked_by/blocking</text>
</g>
<!-- cool_ideas_WARP_structural_drift_detection -->
<g id="node78" class="node">
<title>cool_ideas_WARP_structural_drift_detection</title>
<path fill="#d4e8f7" stroke="black" d="M9775.8,-320.5C9775.8,-320.5 9652.2,-320.5 9652.2,-320.5 9648,-320.5 9643.8,-316.3 9643.8,-312.1 9643.8,-312.1 9643.8,-303.7 9643.8,-303.7 9643.8,-299.5 9648,-295.3 9652.2,-295.3 9652.2,-295.3 9775.8,-295.3 9775.8,-295.3 9780,-295.3 9784.2,-299.5 9784.2,-303.7 9784.2,-303.7 9784.2,-312.1 9784.2,-312.1 9784.2,-316.3 9780,-320.5 9775.8,-320.5"/>
<text xml:space="preserve" text-anchor="middle" x="9714" y="-304.8" font-family="Helvetica,sans-Serif" font-size="8.00">WARP&#45;structural&#45;drift&#45;detection &#45; M</text>
</g>
<!-- cool_ideas_WARP_symbol_heatmap -->
<g id="node80" class="node">
<title>cool_ideas_WARP_symbol_heatmap</title>
<path fill="#d4e8f7" stroke="black" d="M9905.05,-320.5C9905.05,-320.5 9806.95,-320.5 9806.95,-320.5 9802.75,-320.5 9798.55,-316.3 9798.55,-312.1 9798.55,-312.1 9798.55,-303.7 9798.55,-303.7 9798.55,-299.5 9802.75,-295.3 9806.95,-295.3 9806.95,-295.3 9905.05,-295.3 9905.05,-295.3 9909.25,-295.3 9913.45,-299.5 9913.45,-303.7 9913.45,-303.7 9913.45,-312.1 9913.45,-312.1 9913.45,-316.3 9909.25,-320.5 9905.05,-320.5"/>
<text xml:space="preserve" text-anchor="middle" x="9856" y="-304.8" font-family="Helvetica,sans-Serif" font-size="8.00">WARP&#45;symbol&#45;heatmap &#45; M</text>
</g>
<!-- cool_ideas_WARP_symbol_history_timeline -->
<g id="node81" class="node">
<title>cool_ideas_WARP_symbol_history_timeline</title>
<path fill="#d4e8f7" stroke="black" d="M10054.18,-320.5C10054.18,-320.5 9935.82,-320.5 9935.82,-320.5 9931.62,-320.5 9927.42,-316.3 9927.42,-312.1 9927.42,-312.1 9927.42,-303.7 9927.42,-303.7 9927.42,-299.5 9931.62,-295.3 9935.82,-295.3 9935.82,-295.3 10054.18,-295.3 10054.18,-295.3 10058.38,-295.3 10062.58,-299.5 10062.58,-303.7 10062.58,-303.7 10062.58,-312.1 10062.58,-312.1 10062.58,-316.3 10058.38,-320.5 10054.18,-320.5"/>
<text xml:space="preserve" text-anchor="middle" x="9995" y="-304.8" font-family="Helvetica,sans-Serif" font-size="8.00">WARP&#45;symbol&#45;history&#45;timeline &#45; S</text>
</g>
<!-- cool_ideas_WARP_temporal_structural_search -->
<g id="node83" class="node">
<title>cool_ideas_WARP_temporal_structural_search</title>
<path fill="#d4e8f7" stroke="black" d="M9835.68,-247.05C9835.68,-247.05 9702.32,-247.05 9702.32,-247.05 9698.12,-247.05 9693.92,-242.85 9693.92,-238.65 9693.92,-238.65 9693.92,-230.25 9693.92,-230.25 9693.92,-226.05 9698.12,-221.85 9702.32,-221.85 9702.32,-221.85 9835.68,-221.85 9835.68,-221.85 9839.88,-221.85 9844.08,-226.05 9844.08,-230.25 9844.08,-230.25 9844.08,-238.65 9844.08,-238.65 9844.08,-242.85 9839.88,-247.05 9835.68,-247.05"/>
<text xml:space="preserve" text-anchor="middle" x="9769" y="-231.35" font-family="Helvetica,sans-Serif" font-size="8.00">WARP&#45;temporal&#45;structural&#45;search &#45; M</text>
</g>
<!-- cool_ideas_WARP_symbol_history_timeline&#45;&gt;cool_ideas_WARP_temporal_structural_search -->
<g id="edge12" class="edge">
<title>cool_ideas_WARP_symbol_history_timeline&#45;&gt;cool_ideas_WARP_temporal_structural_search</title>
<path fill="none" stroke="#666666" d="M9956.92,-294.86C9917.23,-282.31 9855.1,-262.67 9813.26,-249.44"/>
<polygon fill="#666666" stroke="#666666" points="9813.98,-247.83 9808.68,-248 9812.92,-251.17 9813.98,-247.83"/>
<text xml:space="preserve" text-anchor="middle" x="9920.28" y="-268.65" font-family="Helvetica,sans-Serif" font-size="7.00">blocked_by/blocking</text>
</g>
<!-- cool_ideas_WARP_technical_debt_curvature -->
<g id="node82" class="node">
<title>cool_ideas_WARP_technical_debt_curvature</title>
<path fill="#d4e8f7" stroke="black" d="M10207.43,-320.5C10207.43,-320.5 10084.57,-320.5 10084.57,-320.5 10080.38,-320.5 10076.17,-316.3 10076.17,-312.1 10076.17,-312.1 10076.17,-303.7 10076.17,-303.7 10076.17,-299.5 10080.38,-295.3 10084.57,-295.3 10084.57,-295.3 10207.43,-295.3 10207.43,-295.3 10211.62,-295.3 10215.83,-299.5 10215.83,-303.7 10215.83,-303.7 10215.83,-312.1 10215.83,-312.1 10215.83,-316.3 10211.62,-320.5 10207.43,-320.5"/>
<text xml:space="preserve" text-anchor="middle" x="10146" y="-304.8" font-family="Helvetica,sans-Serif" font-size="8.00">WARP&#45;technical&#45;debt&#45;curvature &#45; L</text>
</g>
<!-- external_git_warp_observer_geometry_ladder__Rung_2_4_ -->
<g id="node84" class="node">
<title>external_git_warp_observer_geometry_ladder__Rung_2_4_</title>
<path fill="#e8f2ff" stroke="black" d="M1054.67,-320.5C1054.67,-320.5 891.32,-320.5 891.32,-320.5 887.12,-320.5 882.92,-316.3 882.92,-312.1 882.92,-312.1 882.92,-303.7 882.92,-303.7 882.92,-299.5 887.12,-295.3 891.32,-295.3 891.32,-295.3 1054.67,-295.3 1054.67,-295.3 1058.88,-295.3 1063.08,-299.5 1063.08,-303.7 1063.08,-303.7 1063.08,-312.1 1063.08,-312.1 1063.08,-316.3 1058.88,-320.5 1054.67,-320.5"/>
<text xml:space="preserve" text-anchor="middle" x="973" y="-304.8" font-family="Helvetica,sans-Serif" font-size="8.00">git&#45;warp observer geometry ladder (Rung 2&#45;4)</text>
</g>
<!-- external_git_warp_observer_geometry_ladder__Rung_2_4_&#45;&gt;v0_7_0_CORE_migrate_to_slice_first_reads -->
<g id="edge13" class="edge">
<title>external_git_warp_observer_geometry_ladder__Rung_2_4_&#45;&gt;v0_7_0_CORE_migrate_to_slice_first_reads</title>
<path fill="none" stroke="#4477aa" stroke-dasharray="5,2" d="M942.7,-294.94C911.5,-282.62 862.82,-263.41 829.28,-250.16"/>
<polygon fill="#4477aa" stroke="#4477aa" points="830.31,-248.69 825.02,-248.48 829.03,-251.95 830.31,-248.69"/>
<text xml:space="preserve" text-anchor="middle" x="919.8" y="-268.65" font-family="Helvetica,sans-Serif" font-size="7.00">blocked_by_external</text>
</g>
<!-- unresolved_CLEAN_CODE_export_diff_semver_signature_as_patch -->
<g id="node85" class="node">
<title>unresolved_CLEAN_CODE_export_diff_semver_signature_as_patch</title>
<path fill="#f2f2f2" stroke="black" stroke-dasharray="5,2" d="M10471.3,-320.5C10471.3,-320.5 10248.7,-320.5 10248.7,-320.5 10244.5,-320.5 10240.3,-316.3 10240.3,-312.1 10240.3,-312.1 10240.3,-303.7 10240.3,-303.7 10240.3,-299.5 10244.5,-295.3 10248.7,-295.3 10248.7,-295.3 10471.3,-295.3 10471.3,-295.3 10475.5,-295.3 10479.7,-299.5 10479.7,-303.7 10479.7,-303.7 10479.7,-312.1 10479.7,-312.1 10479.7,-316.3 10475.5,-320.5 10471.3,-320.5"/>
<text xml:space="preserve" text-anchor="middle" x="10360" y="-304.8" font-family="Helvetica,sans-Serif" font-size="8.00">missing: CLEAN_CODE_export&#45;diff&#45;semver&#45;signature&#45;as&#45;patch</text>
</g>
<!-- unresolved_CLEAN_CODE_export_diff_semver_signature_as_patch&#45;&gt;cool_ideas_WARP_auto_breaking_change_detection -->
<g id="edge14" class="edge">
<title>unresolved_CLEAN_CODE_export_diff_semver_signature_as_patch&#45;&gt;cool_ideas_WARP_auto_breaking_change_detection</title>
<path fill="none" stroke="#cc3333" stroke-dasharray="5,2" d="M10289.56,-294.86C10214.51,-282.03 10096.05,-261.78 10018.69,-248.56"/>
<polygon fill="#cc3333" stroke="#cc3333" points="10019.44,-246.91 10014.22,-247.79 10018.85,-250.36 10019.44,-246.91"/>
<text xml:space="preserve" text-anchor="middle" x="10181.16" y="-268.65" font-family="Helvetica,sans-Serif" font-size="7.00">blocked_by</text>
</g>
<!-- unresolved_CLEAN_CODE_export_diff_semver_signature_as_patch&#45;&gt;cool_ideas_WARP_semantic_merge_conflict_prediction -->
<g id="edge15" class="edge">
<title>unresolved_CLEAN_CODE_export_diff_semver_signature_as_patch&#45;&gt;cool_ideas_WARP_semantic_merge_conflict_prediction</title>
<path fill="none" stroke="#cc3333" stroke-dasharray="5,2" d="M10320.91,-294.86C10280.17,-282.31 10216.39,-262.67 10173.43,-249.44"/>
<polygon fill="#cc3333" stroke="#cc3333" points="10173.99,-247.78 10168.7,-247.98 10172.96,-251.13 10173.99,-247.78"/>
<text xml:space="preserve" text-anchor="middle" x="10268.58" y="-268.65" font-family="Helvetica,sans-Serif" font-size="7.00">blocked_by</text>
</g>
<!-- leg_v07 -->
<g id="node86" class="node">
<title>leg_v07</title>
<path fill="#ffa07a" stroke="black" stroke-width="2" d="M10596,-320.5C10596,-320.5 10512,-320.5 10512,-320.5 10507.8,-320.5 10503.6,-316.3 10503.6,-312.1 10503.6,-312.1 10503.6,-303.7 10503.6,-303.7 10503.6,-299.5 10507.8,-295.3 10512,-295.3 10512,-295.3 10596,-295.3 10596,-295.3 10600.2,-295.3 10604.4,-299.5 10604.4,-303.7 10604.4,-303.7 10604.4,-312.1 10604.4,-312.1 10604.4,-316.3 10600.2,-320.5 10596,-320.5"/>
<text xml:space="preserve" text-anchor="middle" x="10554" y="-305.38" font-family="Helvetica,sans-Serif" font-size="7.00">v0.7.0</text>
</g>
<!-- leg_bad -->
<g id="node87" class="node">
<title>leg_bad</title>
<path fill="#f6b3b3" stroke="black" stroke-width="2" d="M10596,-247.05C10596,-247.05 10512,-247.05 10512,-247.05 10507.8,-247.05 10503.6,-242.85 10503.6,-238.65 10503.6,-238.65 10503.6,-230.25 10503.6,-230.25 10503.6,-226.05 10507.8,-221.85 10512,-221.85 10512,-221.85 10596,-221.85 10596,-221.85 10600.2,-221.85 10604.4,-226.05 10604.4,-230.25 10604.4,-230.25 10604.4,-238.65 10604.4,-238.65 10604.4,-242.85 10600.2,-247.05 10596,-247.05"/>
<text xml:space="preserve" text-anchor="middle" x="10554" y="-231.92" font-family="Helvetica,sans-Serif" font-size="7.00">bad&#45;code</text>
</g>
<!-- leg_v07&#45;&gt;leg_bad -->
<!-- leg_idea -->
<g id="node88" class="node">
<title>leg_idea</title>
<path fill="#d4e8f7" stroke="black" d="M10596,-173.6C10596,-173.6 10512,-173.6 10512,-173.6 10507.8,-173.6 10503.6,-169.4 10503.6,-165.2 10503.6,-165.2 10503.6,-156.8 10503.6,-156.8 10503.6,-152.6 10507.8,-148.4 10512,-148.4 10512,-148.4 10596,-148.4 10596,-148.4 10600.2,-148.4 10604.4,-152.6 10604.4,-156.8 10604.4,-156.8 10604.4,-165.2 10604.4,-165.2 10604.4,-169.4 10600.2,-173.6 10596,-173.6"/>
<text xml:space="preserve" text-anchor="middle" x="10554" y="-158.47" font-family="Helvetica,sans-Serif" font-size="7.00">cool&#45;ideas</text>
</g>
<!-- leg_bad&#45;&gt;leg_idea -->
<!-- leg_external -->
<g id="node89" class="node">
<title>leg_external</title>
<path fill="#e8f2ff" stroke="black" d="M10596,-107.4C10596,-107.4 10512,-107.4 10512,-107.4 10507.8,-107.4 10503.6,-103.2 10503.6,-99 10503.6,-99 10503.6,-90.6 10503.6,-90.6 10503.6,-86.4 10507.8,-82.2 10512,-82.2 10512,-82.2 10596,-82.2 10596,-82.2 10600.2,-82.2 10604.4,-86.4 10604.4,-90.6 10604.4,-90.6 10604.4,-99 10604.4,-99 10604.4,-103.2 10600.2,-107.4 10596,-107.4"/>
<text xml:space="preserve" text-anchor="middle" x="10554" y="-92.28" font-family="Helvetica,sans-Serif" font-size="7.00">external blocker</text>
</g>
<!-- leg_idea&#45;&gt;leg_external -->
<!-- leg_unresolved -->
<g id="node90" class="node">
<title>leg_unresolved</title>
<path fill="#f2f2f2" stroke="black" stroke-dasharray="5,2" d="M10596,-41.2C10596,-41.2 10512,-41.2 10512,-41.2 10507.8,-41.2 10503.6,-37 10503.6,-32.8 10503.6,-32.8 10503.6,-24.4 10503.6,-24.4 10503.6,-20.2 10507.8,-16 10512,-16 10512,-16 10596,-16 10596,-16 10600.2,-16 10604.4,-20.2 10604.4,-24.4 10604.4,-24.4 10604.4,-32.8 10604.4,-32.8 10604.4,-37 10600.2,-41.2 10596,-41.2"/>
<text xml:space="preserve" text-anchor="middle" x="10554" y="-26.08" font-family="Helvetica,sans-Serif" font-size="7.00">unresolved ref</text>
</g>
<!-- leg_external&#45;&gt;leg_unresolved -->
</g>
</svg>
