<?xml version="1.0" encoding="UTF-8" standalone="no"?>
<!DOCTYPE svg PUBLIC "-//W3C//DTD SVG 1.1//EN"
 "http://www.w3.org/Graphics/SVG/1.1/DTD/svg11.dtd">
<!-- Generated by graphviz version 14.1.2 (20260124.0452)
 -->
<!-- Title: backlog Pages: 1 -->
<svg width="11305pt" height="449pt"
 viewBox="0.00 0.00 11305.00 449.00" xmlns="http://www.w3.org/2000/svg" xmlns:xlink="http://www.w3.org/1999/xlink">
<g id="graph0" class="graph" transform="scale(1 1) rotate(0) translate(4 445.2)">
<title>backlog</title>
<polygon fill="white" stroke="none" points="-4,4 -4,-445.2 11301,-445.2 11301,4 -4,4"/>
<text xml:space="preserve" text-anchor="middle" x="5648.5" y="-425.8" font-family="Helvetica,sans-Serif" font-size="12.00">Active backlog graph generated from docs/method/backlog/*/*.md</text>
<g id="clust1" class="cluster">
<title>cluster_v0_8_0</title>
<path fill="#fafafa" stroke="#cccccc" d="M20,-353.5C20,-353.5 851,-353.5 851,-353.5 857,-353.5 863,-359.5 863,-365.5 863,-365.5 863,-400.45 863,-400.45 863,-406.45 857,-412.45 851,-412.45 851,-412.45 20,-412.45 20,-412.45 14,-412.45 8,-406.45 8,-400.45 8,-400.45 8,-365.5 8,-365.5 8,-359.5 14,-353.5 20,-353.5"/>
<text xml:space="preserve" text-anchor="middle" x="35.12" y="-399.9" font-family="Helvetica,sans-Serif" font-size="9.00" fill="#555555">v0.8.0 (5)</text>
</g>
<g id="clust2" class="cluster">
<title>cluster_cool_ideas</title>
<path fill="#fafafa" stroke="#cccccc" d="M883,-206.6C883,-206.6 10685,-206.6 10685,-206.6 10691,-206.6 10697,-212.6 10697,-218.6 10697,-218.6 10697,-400.45 10697,-400.45 10697,-406.45 10691,-412.45 10685,-412.45 10685,-412.45 883,-412.45 883,-412.45 877,-412.45 871,-406.45 871,-400.45 871,-400.45 871,-218.6 871,-218.6 871,-212.6 877,-206.6 883,-206.6"/>
<text xml:space="preserve" text-anchor="middle" x="910.5" y="-399.9" font-family="Helvetica,sans-Serif" font-size="9.00" fill="#555555">Cool Ideas (77)</text>
</g>
<g id="clust3" class="cluster">
<title>cluster_external</title>
<path fill="#f8fbff" stroke="#cccccc" d="M10717,-353.5C10717,-353.5 10889,-353.5 10889,-353.5 10895,-353.5 10901,-359.5 10901,-365.5 10901,-365.5 10901,-400.45 10901,-400.45 10901,-406.45 10895,-412.45 10889,-412.45 10889,-412.45 10717,-412.45 10717,-412.45 10711,-412.45 10705,-406.45 10705,-400.45 10705,-400.45 10705,-365.5 10705,-365.5 10705,-359.5 10711,-353.5 10717,-353.5"/>
<text xml:space="preserve" text-anchor="middle" x="10748.25" y="-399.9" font-family="Helvetica,sans-Serif" font-size="9.00" fill="#555555">External blockers</text>
</g>
<g id="clust4" class="cluster">
<title>cluster_unresolved</title>
<path fill="#fff7f7" stroke="#cc3333" stroke-dasharray="5,2" d="M10921,-353.5C10921,-353.5 11153,-353.5 11153,-353.5 11159,-353.5 11165,-359.5 11165,-365.5 11165,-365.5 11165,-400.45 11165,-400.45 11165,-406.45 11159,-412.45 11153,-412.45 11153,-412.45 10921,-412.45 10921,-412.45 10915,-412.45 10909,-406.45 10909,-400.45 10909,-400.45 10909,-365.5 10909,-365.5 10909,-359.5 10915,-353.5 10921,-353.5"/>
<text xml:space="preserve" text-anchor="middle" x="10965.75" y="-399.9" font-family="Helvetica,sans-Serif" font-size="9.00" fill="#555555">Unresolved internal refs</text>
</g>
<g id="clust5" class="cluster">
<title>cluster_legend</title>
<path fill="none" stroke="#dddddd" d="M11185,-8C11185,-8 11277,-8 11277,-8 11283,-8 11289,-14 11289,-20 11289,-20 11289,-399.7 11289,-399.7 11289,-405.7 11283,-411.7 11277,-411.7 11277,-411.7 11185,-411.7 11185,-411.7 11179,-411.7 11173,-405.7 11173,-399.7 11173,-399.7 11173,-20 11173,-20 11173,-14 11179,-8 11185,-8"/>
<text xml:space="preserve" text-anchor="middle" x="11194.5" y="-400.1" font-family="Helvetica,sans-Serif" font-size="8.00" fill="#aaaaaa">Legend</text>
</g>
<!-- v0_8_0_CORE_pr_review_structural_summary -->
<g id="node1" class="node">
<title>v0_8_0_CORE_pr_review_structural_summary</title>
<path fill="#c8e6c9" stroke="black" stroke-width="2" d="M167.92,-386.7C167.92,-386.7 24.08,-386.7 24.08,-386.7 19.88,-386.7 15.67,-382.5 15.67,-378.3 15.67,-378.3 15.67,-369.9 15.67,-369.9 15.67,-365.7 19.88,-361.5 24.08,-361.5 24.08,-361.5 167.92,-361.5 167.92,-361.5 172.12,-361.5 176.32,-365.7 176.32,-369.9 176.32,-369.9 176.32,-378.3 176.32,-378.3 176.32,-382.5 172.12,-386.7 167.92,-386.7"/>
<text xml:space="preserve" text-anchor="middle" x="96" y="-371" font-family="Helvetica,sans-Serif" font-size="8.00">CORE&#45;pr&#45;review&#45;structural&#45;summary &#45; M</text>
</g>
<!-- v0_8_0_CORE_structural_test_coverage_map -->
<g id="node2" class="node">
<title>v0_8_0_CORE_structural_test_coverage_map</title>
<path fill="#c8e6c9" stroke="black" stroke-width="2" d="M340.8,-386.7C340.8,-386.7 199.2,-386.7 199.2,-386.7 195,-386.7 190.8,-382.5 190.8,-378.3 190.8,-378.3 190.8,-369.9 190.8,-369.9 190.8,-365.7 195,-361.5 199.2,-361.5 199.2,-361.5 340.8,-361.5 340.8,-361.5 345,-361.5 349.2,-365.7 349.2,-369.9 349.2,-369.9 349.2,-378.3 349.2,-378.3 349.2,-382.5 345,-386.7 340.8,-386.7"/>
<text xml:space="preserve" text-anchor="middle" x="270" y="-371" font-family="Helvetica,sans-Serif" font-size="8.00">CORE&#45;structural&#45;test&#45;coverage&#45;map &#45; M</text>
</g>
<!-- v0_8_0_CORE_tool_context_injection_contracts -->
<g id="node3" class="node">
<title>v0_8_0_CORE_tool_context_injection_contracts</title>
<path fill="#c8e6c9" stroke="black" stroke-width="2" d="M518.05,-386.7C518.05,-386.7 371.95,-386.7 371.95,-386.7 367.75,-386.7 363.55,-382.5 363.55,-378.3 363.55,-378.3 363.55,-369.9 363.55,-369.9 363.55,-365.7 367.75,-361.5 371.95,-361.5 371.95,-361.5 518.05,-361.5 518.05,-361.5 522.25,-361.5 526.45,-365.7 526.45,-369.9 526.45,-369.9 526.45,-378.3 526.45,-378.3 526.45,-382.5 522.25,-386.7 518.05,-386.7"/>
<text xml:space="preserve" text-anchor="middle" x="445" y="-371" font-family="Helvetica,sans-Serif" font-size="8.00">CORE&#45;tool&#45;context&#45;injection&#45;contracts &#45; M</text>
</g>
<!-- v0_8_0_SURFACE_review_cooldown_status -->
<g id="node4" class="node">
<title>v0_8_0_SURFACE_review_cooldown_status</title>
<path fill="#c8e6c9" stroke="black" stroke-width="2" d="M684.8,-386.7C684.8,-386.7 549.2,-386.7 549.2,-386.7 545,-386.7 540.8,-382.5 540.8,-378.3 540.8,-378.3 540.8,-369.9 540.8,-369.9 540.8,-365.7 545,-361.5 549.2,-361.5 549.2,-361.5 684.8,-361.5 684.8,-361.5 689,-361.5 693.2,-365.7 693.2,-369.9 693.2,-369.9 693.2,-378.3 693.2,-378.3 693.2,-382.5 689,-386.7 684.8,-386.7"/>
<text xml:space="preserve" text-anchor="middle" x="617" y="-371" font-family="Helvetica,sans-Serif" font-size="8.00">SURFACE&#45;review&#45;cooldown&#45;status &#45; S</text>
</g>
<!-- v0_8_0_TEST_bounded_subprocess_policy -->
<g id="node5" class="node">
<title>v0_8_0_TEST_bounded_subprocess_policy</title>
<path fill="#c8e6c9" stroke="black" stroke-width="2" d="M846.18,-386.7C846.18,-386.7 715.82,-386.7 715.82,-386.7 711.62,-386.7 707.42,-382.5 707.42,-378.3 707.42,-378.3 707.42,-369.9 707.42,-369.9 707.42,-365.7 711.62,-361.5 715.82,-361.5 715.82,-361.5 846.18,-361.5 846.18,-361.5 850.38,-361.5 854.58,-365.7 854.58,-369.9 854.58,-369.9 854.58,-378.3 854.58,-378.3 854.58,-382.5 850.38,-386.7 846.18,-386.7"/>
<text xml:space="preserve" text-anchor="middle" x="781" y="-371" font-family="Helvetica,sans-Serif" font-size="8.00">TEST&#45;bounded&#45;subprocess&#45;policy &#45; S</text>
</g>
<!-- cool_ideas_bounded_neighborhood_for_references -->
<g id="node6" class="node">
<title>cool_ideas_bounded_neighborhood_for_references</title>
<path fill="#d4e8f7" stroke="black" d="M1036.17,-386.7C1036.17,-386.7 887.82,-386.7 887.82,-386.7 883.62,-386.7 879.42,-382.5 879.42,-378.3 879.42,-378.3 879.42,-369.9 879.42,-369.9 879.42,-365.7 883.62,-361.5 887.82,-361.5 887.82,-361.5 1036.17,-361.5 1036.17,-361.5 1040.38,-361.5 1044.58,-365.7 1044.58,-369.9 1044.58,-369.9 1044.58,-378.3 1044.58,-378.3 1044.58,-382.5 1040.38,-386.7 1036.17,-386.7"/>
<text xml:space="preserve" text-anchor="middle" x="962" y="-371" font-family="Helvetica,sans-Serif" font-size="8.00">bounded&#45;neighborhood&#45;for&#45;references &#45; S</text>
</g>
<!-- cool_ideas_CI_001_causal_collapse_visualizer -->
<g id="node7" class="node">
<title>cool_ideas_CI_001_causal_collapse_visualizer</title>
<path fill="#d4e8f7" stroke="black" d="M7583.3,-313.25C7583.3,-313.25 7456.7,-313.25 7456.7,-313.25 7452.5,-313.25 7448.3,-309.05 7448.3,-304.85 7448.3,-304.85 7448.3,-296.45 7448.3,-296.45 7448.3,-292.25 7452.5,-288.05 7456.7,-288.05 7456.7,-288.05 7583.3,-288.05 7583.3,-288.05 7587.5,-288.05 7591.7,-292.25 7591.7,-296.45 7591.7,-296.45 7591.7,-304.85 7591.7,-304.85 7591.7,-309.05 7587.5,-313.25 7583.3,-313.25"/>
<text xml:space="preserve" text-anchor="middle" x="7520" y="-297.55" font-family="Helvetica,sans-Serif" font-size="8.00">CI&#45;001&#45;causal&#45;collapse&#45;visualizer &#45; L</text>
</g>
<!-- cool_ideas_CI_002_deterministic_scenario_replay -->
<g id="node8" class="node">
<title>cool_ideas_CI_002_deterministic_scenario_replay</title>
<path fill="#d4e8f7" stroke="black" d="M1206.67,-386.7C1206.67,-386.7 1067.33,-386.7 1067.33,-386.7 1063.12,-386.7 1058.92,-382.5 1058.92,-378.3 1058.92,-378.3 1058.92,-369.9 1058.92,-369.9 1058.92,-365.7 1063.12,-361.5 1067.33,-361.5 1067.33,-361.5 1206.67,-361.5 1206.67,-361.5 1210.88,-361.5 1215.08,-365.7 1215.08,-369.9 1215.08,-369.9 1215.08,-378.3 1215.08,-378.3 1215.08,-382.5 1210.88,-386.7 1206.67,-386.7"/>
<text xml:space="preserve" text-anchor="middle" x="1137" y="-371" font-family="Helvetica,sans-Serif" font-size="8.00">CI&#45;002&#45;deterministic&#45;scenario&#45;replay &#45; L</text>
</g>
<!-- cool_ideas_CI_003_mcp_native_diff_protocol -->
<g id="node9" class="node">
<title>cool_ideas_CI_003_mcp_native_diff_protocol</title>
<path fill="#d4e8f7" stroke="black" d="M1360.8,-386.7C1360.8,-386.7 1237.2,-386.7 1237.2,-386.7 1233,-386.7 1228.8,-382.5 1228.8,-378.3 1228.8,-378.3 1228.8,-369.9 1228.8,-369.9 1228.8,-365.7 1233,-361.5 1237.2,-361.5 1237.2,-361.5 1360.8,-361.5 1360.8,-361.5 1365,-361.5 1369.2,-365.7 1369.2,-369.9 1369.2,-369.9 1369.2,-378.3 1369.2,-378.3 1369.2,-382.5 1365,-386.7 1360.8,-386.7"/>
<text xml:space="preserve" text-anchor="middle" x="1299" y="-371" font-family="Helvetica,sans-Serif" font-size="8.00">CI&#45;003&#45;mcp&#45;native&#45;diff&#45;protocol &#45; M</text>
</g>
<!-- cool_ideas_CLEAN_CODE_parallel_agent_merge_shared_file_loss -->
<g id="node10" class="node">
<title>cool_ideas_CLEAN_CODE_parallel_agent_merge_shared_file_loss</title>
<path fill="#d4e8f7" stroke="black" d="M1592.05,-386.7C1592.05,-386.7 1391.95,-386.7 1391.95,-386.7 1387.75,-386.7 1383.55,-382.5 1383.55,-378.3 1383.55,-378.3 1383.55,-369.9 1383.55,-369.9 1383.55,-365.7 1387.75,-361.5 1391.95,-361.5 1391.95,-361.5 1592.05,-361.5 1592.05,-361.5 1596.25,-361.5 1600.45,-365.7 1600.45,-369.9 1600.45,-369.9 1600.45,-378.3 1600.45,-378.3 1600.45,-382.5 1596.25,-386.7 1592.05,-386.7"/>
<text xml:space="preserve" text-anchor="middle" x="1492" y="-371" font-family="Helvetica,sans-Serif" font-size="8.00">CLEAN&#45;CODE&#45;parallel&#45;agent&#45;merge&#45;shared&#45;file&#45;loss &#45; M</text>
</g>
<!-- cool_ideas_CORE_agent_handoff_protocol -->
<g id="node11" class="node">
<title>cool_ideas_CORE_agent_handoff_protocol</title>
<path fill="#d4e8f7" stroke="black" d="M1742.92,-386.7C1742.92,-386.7 1623.08,-386.7 1623.08,-386.7 1618.88,-386.7 1614.67,-382.5 1614.67,-378.3 1614.67,-378.3 1614.67,-369.9 1614.67,-369.9 1614.67,-365.7 1618.88,-361.5 1623.08,-361.5 1623.08,-361.5 1742.92,-361.5 1742.92,-361.5 1747.12,-361.5 1751.33,-365.7 1751.33,-369.9 1751.33,-369.9 1751.33,-378.3 1751.33,-378.3 1751.33,-382.5 1747.12,-386.7 1742.92,-386.7"/>
<text xml:space="preserve" text-anchor="middle" x="1683" y="-371" font-family="Helvetica,sans-Serif" font-size="8.00">CORE&#45;agent&#45;handoff&#45;protocol &#45; M</text>
</g>
<!-- cool_ideas_CORE_auto_focus -->
<g id="node12" class="node">
<title>cool_ideas_CORE_auto_focus</title>
<path fill="#d4e8f7" stroke="black" d="M1846.67,-386.7C1846.67,-386.7 1773.33,-386.7 1773.33,-386.7 1769.12,-386.7 1764.92,-382.5 1764.92,-378.3 1764.92,-378.3 1764.92,-369.9 1764.92,-369.9 1764.92,-365.7 1769.12,-361.5 1773.33,-361.5 1773.33,-361.5 1846.67,-361.5 1846.67,-361.5 1850.88,-361.5 1855.08,-365.7 1855.08,-369.9 1855.08,-369.9 1855.08,-378.3 1855.08,-378.3 1855.08,-382.5 1850.88,-386.7 1846.67,-386.7"/>
<text xml:space="preserve" text-anchor="middle" x="1810" y="-371" font-family="Helvetica,sans-Serif" font-size="8.00">CORE&#45;auto&#45;focus &#45; L</text>
</g>
<!-- cool_ideas_CORE_capture_range -->
<g id="node13" class="node">
<title>cool_ideas_CORE_capture_range</title>
<path fill="#d4e8f7" stroke="black" d="M1964.8,-386.7C1964.8,-386.7 1877.2,-386.7 1877.2,-386.7 1873,-386.7 1868.8,-382.5 1868.8,-378.3 1868.8,-378.3 1868.8,-369.9 1868.8,-369.9 1868.8,-365.7 1873,-361.5 1877.2,-361.5 1877.2,-361.5 1964.8,-361.5 1964.8,-361.5 1969,-361.5 1973.2,-365.7 1973.2,-369.9 1973.2,-369.9 1973.2,-378.3 1973.2,-378.3 1973.2,-382.5 1969,-386.7 1964.8,-386.7"/>
<text xml:space="preserve" text-anchor="middle" x="1921" y="-371" font-family="Helvetica,sans-Serif" font-size="8.00">CORE&#45;capture&#45;range &#45; S</text>
</g>
<!-- cool_ideas_CORE_constructor_in_disguise_lint -->
<g id="node14" class="node">
<title>cool_ideas_CORE_constructor_in_disguise_lint</title>
<path fill="#d4e8f7" stroke="black" d="M2126.55,-386.7C2126.55,-386.7 1995.45,-386.7 1995.45,-386.7 1991.25,-386.7 1987.05,-382.5 1987.05,-378.3 1987.05,-378.3 1987.05,-369.9 1987.05,-369.9 1987.05,-365.7 1991.25,-361.5 1995.45,-361.5 1995.45,-361.5 2126.55,-361.5 2126.55,-361.5 2130.75,-361.5 2134.95,-365.7 2134.95,-369.9 2134.95,-369.9 2134.95,-378.3 2134.95,-378.3 2134.95,-382.5 2130.75,-386.7 2126.55,-386.7"/>
<text xml:space="preserve" text-anchor="middle" x="2061" y="-371" font-family="Helvetica,sans-Serif" font-size="8.00">CORE&#45;constructor&#45;in&#45;disguise&#45;lint &#45; M</text>
</g>
<!-- cool_ideas_CORE_context_budget_forecasting -->
<g id="node15" class="node">
<title>cool_ideas_CORE_context_budget_forecasting</title>
<path fill="#d4e8f7" stroke="black" d="M2290.67,-386.7C2290.67,-386.7 2157.33,-386.7 2157.33,-386.7 2153.12,-386.7 2148.93,-382.5 2148.93,-378.3 2148.93,-378.3 2148.93,-369.9 2148.93,-369.9 2148.93,-365.7 2153.12,-361.5 2157.33,-361.5 2157.33,-361.5 2290.67,-361.5 2290.67,-361.5 2294.88,-361.5 2299.07,-365.7 2299.07,-369.9 2299.07,-369.9 2299.07,-378.3 2299.07,-378.3 2299.07,-382.5 2294.88,-386.7 2290.67,-386.7"/>
<text xml:space="preserve" text-anchor="middle" x="2224" y="-371" font-family="Helvetica,sans-Serif" font-size="8.00">CORE&#45;context&#45;budget&#45;forecasting &#45; M</text>
</g>
<!-- cool_ideas_CORE_conversation_primer -->
<g id="node16" class="node">
<title>cool_ideas_CORE_conversation_primer</title>
<path fill="#d4e8f7" stroke="black" d="M2430.67,-386.7C2430.67,-386.7 2321.33,-386.7 2321.33,-386.7 2317.12,-386.7 2312.93,-382.5 2312.93,-378.3 2312.93,-378.3 2312.93,-369.9 2312.93,-369.9 2312.93,-365.7 2317.12,-361.5 2321.33,-361.5 2321.33,-361.5 2430.67,-361.5 2430.67,-361.5 2434.88,-361.5 2439.07,-365.7 2439.07,-369.9 2439.07,-369.9 2439.07,-378.3 2439.07,-378.3 2439.07,-382.5 2434.88,-386.7 2430.67,-386.7"/>
<text xml:space="preserve" text-anchor="middle" x="2376" y="-371" font-family="Helvetica,sans-Serif" font-size="8.00">CORE&#45;conversation&#45;primer &#45; M</text>
</g>
<!-- cool_ideas_CORE_cross_session_resume -->
<g id="node17" class="node">
<title>cool_ideas_CORE_cross_session_resume</title>
<path fill="#d4e8f7" stroke="black" d="M2576.3,-386.7C2576.3,-386.7 2461.7,-386.7 2461.7,-386.7 2457.5,-386.7 2453.3,-382.5 2453.3,-378.3 2453.3,-378.3 2453.3,-369.9 2453.3,-369.9 2453.3,-365.7 2457.5,-361.5 2461.7,-361.5 2461.7,-361.5 2576.3,-361.5 2576.3,-361.5 2580.5,-361.5 2584.7,-365.7 2584.7,-369.9 2584.7,-369.9 2584.7,-378.3 2584.7,-378.3 2584.7,-382.5 2580.5,-386.7 2576.3,-386.7"/>
<text xml:space="preserve" text-anchor="middle" x="2519" y="-371" font-family="Helvetica,sans-Serif" font-size="8.00">CORE&#45;cross&#45;session&#45;resume &#45; S</text>
</g>
<!-- cool_ideas_CORE_graft_as_teacher -->
<g id="node18" class="node">
<title>cool_ideas_CORE_graft_as_teacher</title>
<path fill="#d4e8f7" stroke="black" d="M2701.17,-386.7C2701.17,-386.7 2606.83,-386.7 2606.83,-386.7 2602.62,-386.7 2598.43,-382.5 2598.43,-378.3 2598.43,-378.3 2598.43,-369.9 2598.43,-369.9 2598.43,-365.7 2602.62,-361.5 2606.83,-361.5 2606.83,-361.5 2701.17,-361.5 2701.17,-361.5 2705.38,-361.5 2709.57,-365.7 2709.57,-369.9 2709.57,-369.9 2709.57,-378.3 2709.57,-378.3 2709.57,-382.5 2705.38,-386.7 2701.17,-386.7"/>
<text xml:space="preserve" text-anchor="middle" x="2654" y="-371" font-family="Helvetica,sans-Serif" font-size="8.00">CORE&#45;graft&#45;as&#45;teacher &#45; S</text>
</g>
<!-- cool_ideas_CORE_graft_teach_learning_receipts -->
<g id="node19" class="node">
<title>cool_ideas_CORE_graft_teach_learning_receipts</title>
<path fill="#d4e8f7" stroke="black" d="M2869.92,-386.7C2869.92,-386.7 2732.08,-386.7 2732.08,-386.7 2727.88,-386.7 2723.68,-382.5 2723.68,-378.3 2723.68,-378.3 2723.68,-369.9 2723.68,-369.9 2723.68,-365.7 2727.88,-361.5 2732.08,-361.5 2732.08,-361.5 2869.92,-361.5 2869.92,-361.5 2874.12,-361.5 2878.32,-365.7 2878.32,-369.9 2878.32,-369.9 2878.32,-378.3 2878.32,-378.3 2878.32,-382.5 2874.12,-386.7 2869.92,-386.7"/>
<text xml:space="preserve" text-anchor="middle" x="2801" y="-371" font-family="Helvetica,sans-Serif" font-size="8.00">CORE&#45;graft&#45;teach&#45;learning&#45;receipts &#45; S</text>
</g>
<!-- cool_ideas_CORE_graft_tool_client -->
<g id="node20" class="node">
<title>cool_ideas_CORE_graft_tool_client</title>
<path fill="#d4e8f7" stroke="black" d="M2991.67,-386.7C2991.67,-386.7 2900.33,-386.7 2900.33,-386.7 2896.12,-386.7 2891.93,-382.5 2891.93,-378.3 2891.93,-378.3 2891.93,-369.9 2891.93,-369.9 2891.93,-365.7 2896.12,-361.5 2900.33,-361.5 2900.33,-361.5 2991.67,-361.5 2991.67,-361.5 2995.88,-361.5 3000.07,-365.7 3000.07,-369.9 3000.07,-369.9 3000.07,-378.3 3000.07,-378.3 3000.07,-382.5 2995.88,-386.7 2991.67,-386.7"/>
<text xml:space="preserve" text-anchor="middle" x="2946" y="-371" font-family="Helvetica,sans-Serif" font-size="8.00">CORE&#45;graft&#45;tool&#45;client &#45; M</text>
</g>
<!-- cool_ideas_CORE_horizon_of_readability -->
<g id="node21" class="node">
<title>cool_ideas_CORE_horizon_of_readability</title>
<path fill="#d4e8f7" stroke="black" d="M3135.55,-386.7C3135.55,-386.7 3022.45,-386.7 3022.45,-386.7 3018.25,-386.7 3014.05,-382.5 3014.05,-378.3 3014.05,-378.3 3014.05,-369.9 3014.05,-369.9 3014.05,-365.7 3018.25,-361.5 3022.45,-361.5 3022.45,-361.5 3135.55,-361.5 3135.55,-361.5 3139.75,-361.5 3143.95,-365.7 3143.95,-369.9 3143.95,-369.9 3143.95,-378.3 3143.95,-378.3 3143.95,-382.5 3139.75,-386.7 3135.55,-386.7"/>
<text xml:space="preserve" text-anchor="middle" x="3079" y="-371" font-family="Helvetica,sans-Serif" font-size="8.00">CORE&#45;horizon&#45;of&#45;readability &#45; M</text>
</g>
<!-- cool_ideas_CORE_lagrangian_policy -->
<g id="node22" class="node">
<title>cool_ideas_CORE_lagrangian_policy</title>
<path fill="#d4e8f7" stroke="black" d="M3267.55,-386.7C3267.55,-386.7 3166.45,-386.7 3166.45,-386.7 3162.25,-386.7 3158.05,-382.5 3158.05,-378.3 3158.05,-378.3 3158.05,-369.9 3158.05,-369.9 3158.05,-365.7 3162.25,-361.5 3166.45,-361.5 3166.45,-361.5 3267.55,-361.5 3267.55,-361.5 3271.75,-361.5 3275.95,-365.7 3275.95,-369.9 3275.95,-369.9 3275.95,-378.3 3275.95,-378.3 3275.95,-382.5 3271.75,-386.7 3267.55,-386.7"/>
<text xml:space="preserve" text-anchor="middle" x="3217" y="-371" font-family="Helvetica,sans-Serif" font-size="8.00">CORE&#45;lagrangian&#45;policy &#45; XL</text>
</g>
<!-- cool_ideas_CORE_migrate_to_slice_first_reads -->
<g id="node23" class="node">
<title>cool_ideas_CORE_migrate_to_slice_first_reads</title>
<path fill="#d4e8f7" stroke="black" d="M10308.8,-313.25C10308.8,-313.25 10191.2,-313.25 10191.2,-313.25 10187,-313.25 10182.8,-309.05 10182.8,-304.85 10182.8,-304.85 10182.8,-296.45 10182.8,-296.45 10182.8,-292.25 10187,-288.05 10191.2,-288.05 10191.2,-288.05 10308.8,-288.05 10308.8,-288.05 10313,-288.05 10317.2,-292.25 10317.2,-296.45 10317.2,-296.45 10317.2,-304.85 10317.2,-304.85 10317.2,-309.05 10313,-313.25 10308.8,-313.25"/>
<text xml:space="preserve" text-anchor="middle" x="10250" y="-297.55" font-family="Helvetica,sans-Serif" font-size="8.00">CORE&#45;migrate&#45;to&#45;slice&#45;first&#45;reads</text>
</g>
<!-- cool_ideas_CORE_multi_agent_conflict_detection -->
<g id="node24" class="node">
<title>cool_ideas_CORE_multi_agent_conflict_detection</title>
<path fill="#d4e8f7" stroke="black" d="M3435.92,-386.7C3435.92,-386.7 3298.08,-386.7 3298.08,-386.7 3293.88,-386.7 3289.68,-382.5 3289.68,-378.3 3289.68,-378.3 3289.68,-369.9 3289.68,-369.9 3289.68,-365.7 3293.88,-361.5 3298.08,-361.5 3298.08,-361.5 3435.92,-361.5 3435.92,-361.5 3440.12,-361.5 3444.32,-365.7 3444.32,-369.9 3444.32,-369.9 3444.32,-378.3 3444.32,-378.3 3444.32,-382.5 3440.12,-386.7 3435.92,-386.7"/>
<text xml:space="preserve" text-anchor="middle" x="3367" y="-371" font-family="Helvetica,sans-Serif" font-size="8.00">CORE&#45;multi&#45;agent&#45;conflict&#45;detection &#45; L</text>
</g>
<!-- cool_ideas_CORE_policy_playground -->
<g id="node25" class="node">
<title>cool_ideas_CORE_policy_playground</title>
<path fill="#d4e8f7" stroke="black" d="M3565.42,-386.7C3565.42,-386.7 3466.58,-386.7 3466.58,-386.7 3462.38,-386.7 3458.18,-382.5 3458.18,-378.3 3458.18,-378.3 3458.18,-369.9 3458.18,-369.9 3458.18,-365.7 3462.38,-361.5 3466.58,-361.5 3466.58,-361.5 3565.42,-361.5 3565.42,-361.5 3569.62,-361.5 3573.82,-365.7 3573.82,-369.9 3573.82,-369.9 3573.82,-378.3 3573.82,-378.3 3573.82,-382.5 3569.62,-386.7 3565.42,-386.7"/>
<text xml:space="preserve" text-anchor="middle" x="3516" y="-371" font-family="Helvetica,sans-Serif" font-size="8.00">CORE&#45;policy&#45;playground &#45; S</text>
</g>
<!-- cool_ideas_CORE_policy_profiles -->
<g id="node26" class="node">
<title>cool_ideas_CORE_policy_profiles</title>
<path fill="#d4e8f7" stroke="black" d="M3682.05,-386.7C3682.05,-386.7 3595.95,-386.7 3595.95,-386.7 3591.75,-386.7 3587.55,-382.5 3587.55,-378.3 3587.55,-378.3 3587.55,-369.9 3587.55,-369.9 3587.55,-365.7 3591.75,-361.5 3595.95,-361.5 3595.95,-361.5 3682.05,-361.5 3682.05,-361.5 3686.25,-361.5 3690.45,-365.7 3690.45,-369.9 3690.45,-369.9 3690.45,-378.3 3690.45,-378.3 3690.45,-382.5 3686.25,-386.7 3682.05,-386.7"/>
<text xml:space="preserve" text-anchor="middle" x="3639" y="-371" font-family="Helvetica,sans-Serif" font-size="8.00">CORE&#45;policy&#45;profiles &#45; M</text>
</g>
<!-- cool_ideas_CORE_self_tuning_governor -->
<g id="node27" class="node">
<title>cool_ideas_CORE_self_tuning_governor</title>
<path fill="#d4e8f7" stroke="black" d="M3823.05,-386.7C3823.05,-386.7 3712.95,-386.7 3712.95,-386.7 3708.75,-386.7 3704.55,-382.5 3704.55,-378.3 3704.55,-378.3 3704.55,-369.9 3704.55,-369.9 3704.55,-365.7 3708.75,-361.5 3712.95,-361.5 3712.95,-361.5 3823.05,-361.5 3823.05,-361.5 3827.25,-361.5 3831.45,-365.7 3831.45,-369.9 3831.45,-369.9 3831.45,-378.3 3831.45,-378.3 3831.45,-382.5 3827.25,-386.7 3823.05,-386.7"/>
<text xml:space="preserve" text-anchor="middle" x="3768" y="-371" font-family="Helvetica,sans-Serif" font-size="8.00">CORE&#45;self&#45;tuning&#45;governor &#45; M</text>
</g>
<!-- cool_ideas_CORE_session_knowledge_map -->
<g id="node28" class="node">
<title>cool_ideas_CORE_session_knowledge_map</title>
<path fill="#d4e8f7" stroke="black" d="M3976.42,-386.7C3976.42,-386.7 3853.58,-386.7 3853.58,-386.7 3849.38,-386.7 3845.18,-382.5 3845.18,-378.3 3845.18,-378.3 3845.18,-369.9 3845.18,-369.9 3845.18,-365.7 3849.38,-361.5 3853.58,-361.5 3853.58,-361.5 3976.42,-361.5 3976.42,-361.5 3980.62,-361.5 3984.82,-365.7 3984.82,-369.9 3984.82,-369.9 3984.82,-378.3 3984.82,-378.3 3984.82,-382.5 3980.62,-386.7 3976.42,-386.7"/>
<text xml:space="preserve" text-anchor="middle" x="3915" y="-371" font-family="Helvetica,sans-Serif" font-size="8.00">CORE&#45;session&#45;knowledge&#45;map &#45; S</text>
</g>
<!-- cool_ideas_CORE_speculative_read_cost -->
<g id="node29" class="node">
<title>cool_ideas_CORE_speculative_read_cost</title>
<path fill="#d4e8f7" stroke="black" d="M4119.18,-386.7C4119.18,-386.7 4006.83,-386.7 4006.83,-386.7 4002.62,-386.7 3998.43,-382.5 3998.43,-378.3 3998.43,-378.3 3998.43,-369.9 3998.43,-369.9 3998.43,-365.7 4002.62,-361.5 4006.83,-361.5 4006.83,-361.5 4119.18,-361.5 4119.18,-361.5 4123.38,-361.5 4127.57,-365.7 4127.57,-369.9 4127.57,-369.9 4127.57,-378.3 4127.57,-378.3 4127.57,-382.5 4123.38,-386.7 4119.18,-386.7"/>
<text xml:space="preserve" text-anchor="middle" x="4063" y="-371" font-family="Helvetica,sans-Serif" font-size="8.00">CORE&#45;speculative&#45;read&#45;cost &#45; S</text>
</g>
<!-- cool_ideas_CORE_structural_session_replay -->
<g id="node30" class="node">
<title>cool_ideas_CORE_structural_session_replay</title>
<path fill="#d4e8f7" stroke="black" d="M4275.55,-386.7C4275.55,-386.7 4150.45,-386.7 4150.45,-386.7 4146.25,-386.7 4142.05,-382.5 4142.05,-378.3 4142.05,-378.3 4142.05,-369.9 4142.05,-369.9 4142.05,-365.7 4146.25,-361.5 4150.45,-361.5 4150.45,-361.5 4275.55,-361.5 4275.55,-361.5 4279.75,-361.5 4283.95,-365.7 4283.95,-369.9 4283.95,-369.9 4283.95,-378.3 4283.95,-378.3 4283.95,-382.5 4279.75,-386.7 4275.55,-386.7"/>
<text xml:space="preserve" text-anchor="middle" x="4213" y="-371" font-family="Helvetica,sans-Serif" font-size="8.00">CORE&#45;structural&#45;session&#45;replay &#45; M</text>
</g>
<!-- cool_ideas_CORE_wire_primitives_into_runtime -->
<g id="node31" class="node">
<title>cool_ideas_CORE_wire_primitives_into_runtime</title>
<path fill="#d4e8f7" stroke="black" d="M4441.43,-386.7C4441.43,-386.7 4306.57,-386.7 4306.57,-386.7 4302.38,-386.7 4298.18,-382.5 4298.18,-378.3 4298.18,-378.3 4298.18,-369.9 4298.18,-369.9 4298.18,-365.7 4302.38,-361.5 4306.57,-361.5 4306.57,-361.5 4441.43,-361.5 4441.43,-361.5 4445.62,-361.5 4449.82,-365.7 4449.82,-369.9 4449.82,-369.9 4449.82,-378.3 4449.82,-378.3 4449.82,-382.5 4445.62,-386.7 4441.43,-386.7"/>
<text xml:space="preserve" text-anchor="middle" x="4374" y="-371" font-family="Helvetica,sans-Serif" font-size="8.00">CORE&#45;wire&#45;primitives&#45;into&#45;runtime &#45; M</text>
</g>
<!-- cool_ideas_monitor_tick_ceiling_tracking -->
<g id="node32" class="node">
<title>cool_ideas_monitor_tick_ceiling_tracking</title>
<path fill="#d4e8f7" stroke="black" d="M4579.55,-386.7C4579.55,-386.7 4472.45,-386.7 4472.45,-386.7 4468.25,-386.7 4464.05,-382.5 4464.05,-378.3 4464.05,-378.3 4464.05,-369.9 4464.05,-369.9 4464.05,-365.7 4468.25,-361.5 4472.45,-361.5 4472.45,-361.5 4579.55,-361.5 4579.55,-361.5 4583.75,-361.5 4587.95,-365.7 4587.95,-369.9 4587.95,-369.9 4587.95,-378.3 4587.95,-378.3 4587.95,-382.5 4583.75,-386.7 4579.55,-386.7"/>
<text xml:space="preserve" text-anchor="middle" x="4526" y="-371" font-family="Helvetica,sans-Serif" font-size="8.00">monitor&#45;tick&#45;ceiling&#45;tracking &#45; S</text>
</g>
<!-- cool_ideas_WARP_background_indexing -->
<g id="node50" class="node">
<title>cool_ideas_WARP_background_indexing</title>
<path fill="#d4e8f7" stroke="black" d="M4582.55,-313.25C4582.55,-313.25 4469.45,-313.25 4469.45,-313.25 4465.25,-313.25 4461.05,-309.05 4461.05,-304.85 4461.05,-304.85 4461.05,-296.45 4461.05,-296.45 4461.05,-292.25 4465.25,-288.05 4469.45,-288.05 4469.45,-288.05 4582.55,-288.05 4582.55,-288.05 4586.75,-288.05 4590.95,-292.25 4590.95,-296.45 4590.95,-296.45 4590.95,-304.85 4590.95,-304.85 4590.95,-309.05 4586.75,-313.25 4582.55,-313.25"/>
<text xml:space="preserve" text-anchor="middle" x="4526" y="-297.55" font-family="Helvetica,sans-Serif" font-size="8.00">WARP&#45;background&#45;indexing &#45; M</text>
</g>
<!-- cool_ideas_monitor_tick_ceiling_tracking&#45;&gt;cool_ideas_WARP_background_indexing -->
<g id="edge1" class="edge">
<title>cool_ideas_monitor_tick_ceiling_tracking&#45;&gt;cool_ideas_WARP_background_indexing</title>
<path fill="none" stroke="#666666" d="M4526,-361.3C4526,-350.1 4526,-333.08 4526,-320.08"/>
<polygon fill="#666666" stroke="#666666" points="4527.75,-320.22 4526,-315.22 4524.25,-320.22 4527.75,-320.22"/>
<text xml:space="preserve" text-anchor="middle" x="4557.5" y="-334.85" font-family="Helvetica,sans-Serif" font-size="7.00">blocked_by/blocking</text>
</g>
<!-- cool_ideas_SURFACE_active_causal_workspace_status -->
<g id="node33" class="node">
<title>cool_ideas_SURFACE_active_causal_workspace_status</title>
<path fill="#d4e8f7" stroke="black" d="M4774.05,-386.7C4774.05,-386.7 4609.95,-386.7 4609.95,-386.7 4605.75,-386.7 4601.55,-382.5 4601.55,-378.3 4601.55,-378.3 4601.55,-369.9 4601.55,-369.9 4601.55,-365.7 4605.75,-361.5 4609.95,-361.5 4609.95,-361.5 4774.05,-361.5 4774.05,-361.5 4778.25,-361.5 4782.45,-365.7 4782.45,-369.9 4782.45,-369.9 4782.45,-378.3 4782.45,-378.3 4782.45,-382.5 4778.25,-386.7 4774.05,-386.7"/>
<text xml:space="preserve" text-anchor="middle" x="4692" y="-371" font-family="Helvetica,sans-Serif" font-size="8.00">SURFACE&#45;active&#45;causal&#45;workspace&#45;status &#45; M</text>
</g>
<!-- cool_ideas_SURFACE_ide_native_graft_integration -->
<g id="node39" class="node">
<title>cool_ideas_SURFACE_ide_native_graft_integration</title>
<path fill="#d4e8f7" stroke="black" d="M4767.3,-313.25C4767.3,-313.25 4616.7,-313.25 4616.7,-313.25 4612.5,-313.25 4608.3,-309.05 4608.3,-304.85 4608.3,-304.85 4608.3,-296.45 4608.3,-296.45 4608.3,-292.25 4612.5,-288.05 4616.7,-288.05 4616.7,-288.05 4767.3,-288.05 4767.3,-288.05 4771.5,-288.05 4775.7,-292.25 4775.7,-296.45 4775.7,-296.45 4775.7,-304.85 4775.7,-304.85 4775.7,-309.05 4771.5,-313.25 4767.3,-313.25"/>
<text xml:space="preserve" text-anchor="middle" x="4692" y="-297.55" font-family="Helvetica,sans-Serif" font-size="8.00">SURFACE&#45;ide&#45;native&#45;graft&#45;integration &#45; XL</text>
</g>
<!-- cool_ideas_SURFACE_active_causal_workspace_status&#45;&gt;cool_ideas_SURFACE_ide_native_graft_integration -->
<g id="edge2" class="edge">
<title>cool_ideas_SURFACE_active_causal_workspace_status&#45;&gt;cool_ideas_SURFACE_ide_native_graft_integration</title>
<path fill="none" stroke="#666666" d="M4692,-361.3C4692,-350.1 4692,-333.08 4692,-320.08"/>
<polygon fill="#666666" stroke="#666666" points="4693.75,-320.22 4692,-315.22 4690.25,-320.22 4693.75,-320.22"/>
<text xml:space="preserve" text-anchor="middle" x="4723.5" y="-334.85" font-family="Helvetica,sans-Serif" font-size="7.00">blocked_by/blocking</text>
</g>
<!-- cool_ideas_SURFACE_attach_to_existing_causal_session -->
<g id="node34" class="node">
<title>cool_ideas_SURFACE_attach_to_existing_causal_session</title>
<path fill="#d4e8f7" stroke="black" d="M4973.3,-386.7C4973.3,-386.7 4804.7,-386.7 4804.7,-386.7 4800.5,-386.7 4796.3,-382.5 4796.3,-378.3 4796.3,-378.3 4796.3,-369.9 4796.3,-369.9 4796.3,-365.7 4800.5,-361.5 4804.7,-361.5 4804.7,-361.5 4973.3,-361.5 4973.3,-361.5 4977.5,-361.5 4981.7,-365.7 4981.7,-369.9 4981.7,-369.9 4981.7,-378.3 4981.7,-378.3 4981.7,-382.5 4977.5,-386.7 4973.3,-386.7"/>
<text xml:space="preserve" text-anchor="middle" x="4889" y="-371" font-family="Helvetica,sans-Serif" font-size="8.00">SURFACE&#45;attach&#45;to&#45;existing&#45;causal&#45;session &#45; M</text>
</g>
<!-- cool_ideas_SURFACE_bijou_daemon_control_plane_actions -->
<g id="node35" class="node">
<title>cool_ideas_SURFACE_bijou_daemon_control_plane_actions</title>
<path fill="#d4e8f7" stroke="black" d="M5181.43,-386.7C5181.43,-386.7 5004.57,-386.7 5004.57,-386.7 5000.38,-386.7 4996.18,-382.5 4996.18,-378.3 4996.18,-378.3 4996.18,-369.9 4996.18,-369.9 4996.18,-365.7 5000.38,-361.5 5004.57,-361.5 5004.57,-361.5 5181.43,-361.5 5181.43,-361.5 5185.62,-361.5 5189.82,-365.7 5189.82,-369.9 5189.82,-369.9 5189.82,-378.3 5189.82,-378.3 5189.82,-382.5 5185.62,-386.7 5181.43,-386.7"/>
<text xml:space="preserve" text-anchor="middle" x="5093" y="-371" font-family="Helvetica,sans-Serif" font-size="8.00">SURFACE&#45;bijou&#45;daemon&#45;control&#45;plane&#45;actions &#45; L</text>
</g>
<!-- cool_ideas_SURFACE_bijou_daemon_status_live_refresh -->
<g id="node36" class="node">
<title>cool_ideas_SURFACE_bijou_daemon_status_live_refresh</title>
<path fill="#d4e8f7" stroke="black" d="M5381.3,-386.7C5381.3,-386.7 5212.7,-386.7 5212.7,-386.7 5208.5,-386.7 5204.3,-382.5 5204.3,-378.3 5204.3,-378.3 5204.3,-369.9 5204.3,-369.9 5204.3,-365.7 5208.5,-361.5 5212.7,-361.5 5212.7,-361.5 5381.3,-361.5 5381.3,-361.5 5385.5,-361.5 5389.7,-365.7 5389.7,-369.9 5389.7,-369.9 5389.7,-378.3 5389.7,-378.3 5389.7,-382.5 5385.5,-386.7 5381.3,-386.7"/>
<text xml:space="preserve" text-anchor="middle" x="5297" y="-371" font-family="Helvetica,sans-Serif" font-size="8.00">SURFACE&#45;bijou&#45;daemon&#45;status&#45;live&#45;refresh &#45; M</text>
</g>
<!-- cool_ideas_SURFACE_git_graft_enhance_expanded_git_subcommands -->
<g id="node37" class="node">
<title>cool_ideas_SURFACE_git_graft_enhance_expanded_git_subcommands</title>
<path fill="#d4e8f7" stroke="black" d="M5616.3,-386.7C5616.3,-386.7 5411.7,-386.7 5411.7,-386.7 5407.5,-386.7 5403.3,-382.5 5403.3,-378.3 5403.3,-378.3 5403.3,-369.9 5403.3,-369.9 5403.3,-365.7 5407.5,-361.5 5411.7,-361.5 5411.7,-361.5 5616.3,-361.5 5616.3,-361.5 5620.5,-361.5 5624.7,-365.7 5624.7,-369.9 5624.7,-369.9 5624.7,-378.3 5624.7,-378.3 5624.7,-382.5 5620.5,-386.7 5616.3,-386.7"/>
<text xml:space="preserve" text-anchor="middle" x="5514" y="-371" font-family="Helvetica,sans-Serif" font-size="8.00">SURFACE&#45;git&#45;graft&#45;enhance&#45;expanded&#45;git&#45;subcommands</text>
</g>
<!-- cool_ideas_SURFACE_git_graft_enhance_provenance_hints -->
<g id="node38" class="node">
<title>cool_ideas_SURFACE_git_graft_enhance_provenance_hints</title>
<path fill="#d4e8f7" stroke="black" d="M5812.43,-386.7C5812.43,-386.7 5647.57,-386.7 5647.57,-386.7 5643.38,-386.7 5639.18,-382.5 5639.18,-378.3 5639.18,-378.3 5639.18,-369.9 5639.18,-369.9 5639.18,-365.7 5643.38,-361.5 5647.57,-361.5 5647.57,-361.5 5812.43,-361.5 5812.43,-361.5 5816.62,-361.5 5820.82,-365.7 5820.82,-369.9 5820.82,-369.9 5820.82,-378.3 5820.82,-378.3 5820.82,-382.5 5816.62,-386.7 5812.43,-386.7"/>
<text xml:space="preserve" text-anchor="middle" x="5730" y="-371" font-family="Helvetica,sans-Serif" font-size="8.00">SURFACE&#45;git&#45;graft&#45;enhance&#45;provenance&#45;hints</text>
</g>
<!-- cool_ideas_SURFACE_init_dry_run -->
<g id="node40" class="node">
<title>cool_ideas_SURFACE_init_dry_run</title>
<path fill="#d4e8f7" stroke="black" d="M5934.3,-386.7C5934.3,-386.7 5843.7,-386.7 5843.7,-386.7 5839.5,-386.7 5835.3,-382.5 5835.3,-378.3 5835.3,-378.3 5835.3,-369.9 5835.3,-369.9 5835.3,-365.7 5839.5,-361.5 5843.7,-361.5 5843.7,-361.5 5934.3,-361.5 5934.3,-361.5 5938.5,-361.5 5942.7,-365.7 5942.7,-369.9 5942.7,-369.9 5942.7,-378.3 5942.7,-378.3 5942.7,-382.5 5938.5,-386.7 5934.3,-386.7"/>
<text xml:space="preserve" text-anchor="middle" x="5889" y="-371" font-family="Helvetica,sans-Serif" font-size="8.00">SURFACE&#45;init&#45;dry&#45;run &#45; S</text>
</g>
<!-- cool_ideas_SURFACE_local_history_dag_render_mode_and_count_legend -->
<g id="node41" class="node">
<title>cool_ideas_SURFACE_local_history_dag_render_mode_and_count_legend</title>
<path fill="#d4e8f7" stroke="black" d="M6191.18,-386.7C6191.18,-386.7 5964.82,-386.7 5964.82,-386.7 5960.62,-386.7 5956.43,-382.5 5956.43,-378.3 5956.43,-378.3 5956.43,-369.9 5956.43,-369.9 5956.43,-365.7 5960.62,-361.5 5964.82,-361.5 5964.82,-361.5 6191.18,-361.5 6191.18,-361.5 6195.38,-361.5 6199.57,-365.7 6199.57,-369.9 6199.57,-369.9 6199.57,-378.3 6199.57,-378.3 6199.57,-382.5 6195.38,-386.7 6191.18,-386.7"/>
<text xml:space="preserve" text-anchor="middle" x="6078" y="-371" font-family="Helvetica,sans-Serif" font-size="8.00">SURFACE&#45;local&#45;history&#45;dag&#45;render&#45;mode&#45;and&#45;count&#45;legend &#45; S</text>
</g>
<!-- cool_ideas_SURFACE_non_codex_instruction_bootstrap_parity -->
<g id="node42" class="node">
<title>cool_ideas_SURFACE_non_codex_instruction_bootstrap_parity</title>
<path fill="#d4e8f7" stroke="black" d="M6410.43,-386.7C6410.43,-386.7 6221.57,-386.7 6221.57,-386.7 6217.38,-386.7 6213.18,-382.5 6213.18,-378.3 6213.18,-378.3 6213.18,-369.9 6213.18,-369.9 6213.18,-365.7 6217.38,-361.5 6221.57,-361.5 6221.57,-361.5 6410.43,-361.5 6410.43,-361.5 6414.62,-361.5 6418.82,-365.7 6418.82,-369.9 6418.82,-369.9 6418.82,-378.3 6418.82,-378.3 6418.82,-382.5 6414.62,-386.7 6410.43,-386.7"/>
<text xml:space="preserve" text-anchor="middle" x="6316" y="-371" font-family="Helvetica,sans-Serif" font-size="8.00">SURFACE&#45;non&#45;codex&#45;instruction&#45;bootstrap&#45;parity &#45; M</text>
</g>
<!-- cool_ideas_SURFACE_offer_rename_refactor -->
<g id="node43" class="node">
<title>cool_ideas_SURFACE_offer_rename_refactor</title>
<path fill="#d4e8f7" stroke="black" d="M6570.43,-386.7C6570.43,-386.7 6441.57,-386.7 6441.57,-386.7 6437.38,-386.7 6433.18,-382.5 6433.18,-378.3 6433.18,-378.3 6433.18,-369.9 6433.18,-369.9 6433.18,-365.7 6437.38,-361.5 6441.57,-361.5 6441.57,-361.5 6570.43,-361.5 6570.43,-361.5 6574.62,-361.5 6578.82,-365.7 6578.82,-369.9 6578.82,-369.9 6578.82,-378.3 6578.82,-378.3 6578.82,-382.5 6574.62,-386.7 6570.43,-386.7"/>
<text xml:space="preserve" text-anchor="middle" x="6506" y="-371" font-family="Helvetica,sans-Serif" font-size="8.00">SURFACE&#45;offer&#45;rename&#45;refactor &#45; L</text>
</g>
<!-- cool_ideas_SURFACE_pr_feedback_resolution_ledger -->
<g id="node44" class="node">
<title>cool_ideas_SURFACE_pr_feedback_resolution_ledger</title>
<path fill="#d4e8f7" stroke="black" d="M6760.43,-386.7C6760.43,-386.7 6601.57,-386.7 6601.57,-386.7 6597.38,-386.7 6593.18,-382.5 6593.18,-378.3 6593.18,-378.3 6593.18,-369.9 6593.18,-369.9 6593.18,-365.7 6597.38,-361.5 6601.57,-361.5 6601.57,-361.5 6760.43,-361.5 6760.43,-361.5 6764.62,-361.5 6768.82,-365.7 6768.82,-369.9 6768.82,-369.9 6768.82,-378.3 6768.82,-378.3 6768.82,-382.5 6764.62,-386.7 6760.43,-386.7"/>
<text xml:space="preserve" text-anchor="middle" x="6681" y="-371" font-family="Helvetica,sans-Serif" font-size="8.00">SURFACE&#45;pr&#45;feedback&#45;resolution&#45;ledger &#45; M</text>
</g>
<!-- cool_ideas_SURFACE_terminal_activity_browser_tui -->
<g id="node45" class="node">
<title>cool_ideas_SURFACE_terminal_activity_browser_tui</title>
<path fill="#d4e8f7" stroke="black" d="M6940.55,-386.7C6940.55,-386.7 6791.45,-386.7 6791.45,-386.7 6787.25,-386.7 6783.05,-382.5 6783.05,-378.3 6783.05,-378.3 6783.05,-369.9 6783.05,-369.9 6783.05,-365.7 6787.25,-361.5 6791.45,-361.5 6791.45,-361.5 6940.55,-361.5 6940.55,-361.5 6944.75,-361.5 6948.95,-365.7 6948.95,-369.9 6948.95,-369.9 6948.95,-378.3 6948.95,-378.3 6948.95,-382.5 6944.75,-386.7 6940.55,-386.7"/>
<text xml:space="preserve" text-anchor="middle" x="6866" y="-371" font-family="Helvetica,sans-Serif" font-size="8.00">SURFACE&#45;terminal&#45;activity&#45;browser&#45;tui &#45; L</text>
</g>
<!-- cool_ideas_traverse_plus_query_hydration_helper -->
<g id="node46" class="node">
<title>cool_ideas_traverse_plus_query_hydration_helper</title>
<path fill="#d4e8f7" stroke="black" d="M7112.8,-386.7C7112.8,-386.7 6971.2,-386.7 6971.2,-386.7 6967,-386.7 6962.8,-382.5 6962.8,-378.3 6962.8,-378.3 6962.8,-369.9 6962.8,-369.9 6962.8,-365.7 6967,-361.5 6971.2,-361.5 6971.2,-361.5 7112.8,-361.5 7112.8,-361.5 7117,-361.5 7121.2,-365.7 7121.2,-369.9 7121.2,-369.9 7121.2,-378.3 7121.2,-378.3 7121.2,-382.5 7117,-386.7 7112.8,-386.7"/>
<text xml:space="preserve" text-anchor="middle" x="7042" y="-371" font-family="Helvetica,sans-Serif" font-size="8.00">traverse&#45;plus&#45;query&#45;hydration&#45;helper &#45; S</text>
</g>
<!-- cool_ideas_WARP_adaptive_projection_selection -->
<g id="node47" class="node">
<title>cool_ideas_WARP_adaptive_projection_selection</title>
<path fill="#d4e8f7" stroke="black" d="M7281.93,-386.7C7281.93,-386.7 7144.07,-386.7 7144.07,-386.7 7139.88,-386.7 7135.68,-382.5 7135.68,-378.3 7135.68,-378.3 7135.68,-369.9 7135.68,-369.9 7135.68,-365.7 7139.88,-361.5 7144.07,-361.5 7144.07,-361.5 7281.93,-361.5 7281.93,-361.5 7286.12,-361.5 7290.32,-365.7 7290.32,-369.9 7290.32,-369.9 7290.32,-378.3 7290.32,-378.3 7290.32,-382.5 7286.12,-386.7 7281.93,-386.7"/>
<text xml:space="preserve" text-anchor="middle" x="7213" y="-371" font-family="Helvetica,sans-Serif" font-size="8.00">WARP&#45;adaptive&#45;projection&#45;selection &#45; L</text>
</g>
<!-- cool_ideas_WARP_agent_action_provenance -->
<g id="node48" class="node">
<title>cool_ideas_WARP_agent_action_provenance</title>
<path fill="#d4e8f7" stroke="black" d="M7443.55,-386.7C7443.55,-386.7 7312.45,-386.7 7312.45,-386.7 7308.25,-386.7 7304.05,-382.5 7304.05,-378.3 7304.05,-378.3 7304.05,-369.9 7304.05,-369.9 7304.05,-365.7 7308.25,-361.5 7312.45,-361.5 7312.45,-361.5 7443.55,-361.5 7443.55,-361.5 7447.75,-361.5 7451.95,-365.7 7451.95,-369.9 7451.95,-369.9 7451.95,-378.3 7451.95,-378.3 7451.95,-382.5 7447.75,-386.7 7443.55,-386.7"/>
<text xml:space="preserve" text-anchor="middle" x="7378" y="-371" font-family="Helvetica,sans-Serif" font-size="8.00">WARP&#45;agent&#45;action&#45;provenance &#45; XL</text>
</g>
<!-- cool_ideas_WARP_agent_action_provenance&#45;&gt;cool_ideas_CI_001_causal_collapse_visualizer -->
<g id="edge3" class="edge">
<title>cool_ideas_WARP_agent_action_provenance&#45;&gt;cool_ideas_CI_001_causal_collapse_visualizer</title>
<path fill="none" stroke="#666666" d="M7403.81,-361.01C7416.04,-355.21 7430.83,-348.1 7444,-341.5 7459.99,-333.48 7477.7,-324.22 7492,-316.64"/>
<polygon fill="#666666" stroke="#666666" points="7492.57,-318.32 7496.16,-314.43 7490.92,-315.23 7492.57,-318.32"/>
<text xml:space="preserve" text-anchor="middle" x="7490.14" y="-334.85" font-family="Helvetica,sans-Serif" font-size="7.00">blocked_by/blocking</text>
</g>
<!-- cool_ideas_WARP_causal_write_tracking -->
<g id="node53" class="node">
<title>cool_ideas_WARP_causal_write_tracking</title>
<path fill="#d4e8f7" stroke="black" d="M7136.05,-313.25C7136.05,-313.25 7025.95,-313.25 7025.95,-313.25 7021.75,-313.25 7017.55,-309.05 7017.55,-304.85 7017.55,-304.85 7017.55,-296.45 7017.55,-296.45 7017.55,-292.25 7021.75,-288.05 7025.95,-288.05 7025.95,-288.05 7136.05,-288.05 7136.05,-288.05 7140.25,-288.05 7144.45,-292.25 7144.45,-296.45 7144.45,-296.45 7144.45,-304.85 7144.45,-304.85 7144.45,-309.05 7140.25,-313.25 7136.05,-313.25"/>
<text xml:space="preserve" text-anchor="middle" x="7081" y="-297.55" font-family="Helvetica,sans-Serif" font-size="8.00">WARP&#45;causal&#45;write&#45;tracking &#45; L</text>
</g>
<!-- cool_ideas_WARP_agent_action_provenance&#45;&gt;cool_ideas_WARP_causal_write_tracking -->
<g id="edge4" class="edge">
<title>cool_ideas_WARP_agent_action_provenance&#45;&gt;cool_ideas_WARP_causal_write_tracking</title>
<path fill="none" stroke="#666666" d="M7330.13,-361.03C7319.27,-358.43 7307.76,-355.78 7297,-353.5 7267.83,-347.32 7260.1,-348 7231,-341.5 7196.63,-333.82 7158.25,-323.6 7128.92,-315.43"/>
<polygon fill="#666666" stroke="#666666" points="7129.55,-313.78 7124.26,-314.12 7128.61,-317.16 7129.55,-313.78"/>
<text xml:space="preserve" text-anchor="middle" x="7262.5" y="-334.85" font-family="Helvetica,sans-Serif" font-size="7.00">blocked_by/blocking</text>
</g>
<!-- cool_ideas_WARP_intent_and_decision_events -->
<g id="node63" class="node">
<title>cool_ideas_WARP_intent_and_decision_events</title>
<path fill="#d4e8f7" stroke="black" d="M7299.3,-313.25C7299.3,-313.25 7166.7,-313.25 7166.7,-313.25 7162.5,-313.25 7158.3,-309.05 7158.3,-304.85 7158.3,-304.85 7158.3,-296.45 7158.3,-296.45 7158.3,-292.25 7162.5,-288.05 7166.7,-288.05 7166.7,-288.05 7299.3,-288.05 7299.3,-288.05 7303.5,-288.05 7307.7,-292.25 7307.7,-296.45 7307.7,-296.45 7307.7,-304.85 7307.7,-304.85 7307.7,-309.05 7303.5,-313.25 7299.3,-313.25"/>
<text xml:space="preserve" text-anchor="middle" x="7233" y="-297.55" font-family="Helvetica,sans-Serif" font-size="8.00">WARP&#45;intent&#45;and&#45;decision&#45;events &#45; M</text>
</g>
<!-- cool_ideas_WARP_agent_action_provenance&#45;&gt;cool_ideas_WARP_intent_and_decision_events -->
<g id="edge5" class="edge">
<title>cool_ideas_WARP_agent_action_provenance&#45;&gt;cool_ideas_WARP_intent_and_decision_events</title>
<path fill="none" stroke="#666666" d="M7352.55,-361.07C7340.27,-355.22 7325.34,-348.06 7312,-341.5 7295.45,-333.36 7277.05,-324.09 7262.17,-316.54"/>
<polygon fill="#666666" stroke="#666666" points="7263.04,-315.03 7257.79,-314.32 7261.46,-318.15 7263.04,-315.03"/>
<text xml:space="preserve" text-anchor="middle" x="7343.5" y="-334.85" font-family="Helvetica,sans-Serif" font-size="7.00">blocked_by/blocking</text>
</g>
<!-- cool_ideas_WARP_provenance_dag -->
<g id="node68" class="node">
<title>cool_ideas_WARP_provenance_dag</title>
<path fill="#d4e8f7" stroke="black" d="M7425.55,-313.25C7425.55,-313.25 7330.45,-313.25 7330.45,-313.25 7326.25,-313.25 7322.05,-309.05 7322.05,-304.85 7322.05,-304.85 7322.05,-296.45 7322.05,-296.45 7322.05,-292.25 7326.25,-288.05 7330.45,-288.05 7330.45,-288.05 7425.55,-288.05 7425.55,-288.05 7429.75,-288.05 7433.95,-292.25 7433.95,-296.45 7433.95,-296.45 7433.95,-304.85 7433.95,-304.85 7433.95,-309.05 7429.75,-313.25 7425.55,-313.25"/>
<text xml:space="preserve" text-anchor="middle" x="7378" y="-297.55" font-family="Helvetica,sans-Serif" font-size="8.00">WARP&#45;provenance&#45;dag &#45; L</text>
</g>
<!-- cool_ideas_WARP_agent_action_provenance&#45;&gt;cool_ideas_WARP_provenance_dag -->
<g id="edge6" class="edge">
<title>cool_ideas_WARP_agent_action_provenance&#45;&gt;cool_ideas_WARP_provenance_dag</title>
<path fill="none" stroke="#666666" d="M7378,-361.3C7378,-350.1 7378,-333.08 7378,-320.08"/>
<polygon fill="#666666" stroke="#666666" points="7379.75,-320.22 7378,-315.22 7376.25,-320.22 7379.75,-320.22"/>
<text xml:space="preserve" text-anchor="middle" x="7409.5" y="-334.85" font-family="Helvetica,sans-Serif" font-size="7.00">blocked_by/blocking</text>
</g>
<!-- cool_ideas_WARP_auto_breaking_change_detection -->
<g id="node49" class="node">
<title>cool_ideas_WARP_auto_breaking_change_detection</title>
<path fill="#d4e8f7" stroke="black" d="M10490.3,-313.25C10490.3,-313.25 10339.7,-313.25 10339.7,-313.25 10335.5,-313.25 10331.3,-309.05 10331.3,-304.85 10331.3,-304.85 10331.3,-296.45 10331.3,-296.45 10331.3,-292.25 10335.5,-288.05 10339.7,-288.05 10339.7,-288.05 10490.3,-288.05 10490.3,-288.05 10494.5,-288.05 10498.7,-292.25 10498.7,-296.45 10498.7,-296.45 10498.7,-304.85 10498.7,-304.85 10498.7,-309.05 10494.5,-313.25 10490.3,-313.25"/>
<text xml:space="preserve" text-anchor="middle" x="10415" y="-297.55" font-family="Helvetica,sans-Serif" font-size="8.00">WARP&#45;auto&#45;breaking&#45;change&#45;detection &#45; L</text>
</g>
<!-- cool_ideas_WARP_budget_elasticity -->
<g id="node51" class="node">
<title>cool_ideas_WARP_budget_elasticity</title>
<path fill="#d4e8f7" stroke="black" d="M7569.93,-386.7C7569.93,-386.7 7474.07,-386.7 7474.07,-386.7 7469.88,-386.7 7465.68,-382.5 7465.68,-378.3 7465.68,-378.3 7465.68,-369.9 7465.68,-369.9 7465.68,-365.7 7469.88,-361.5 7474.07,-361.5 7474.07,-361.5 7569.93,-361.5 7569.93,-361.5 7574.12,-361.5 7578.32,-365.7 7578.32,-369.9 7578.32,-369.9 7578.32,-378.3 7578.32,-378.3 7578.32,-382.5 7574.12,-386.7 7569.93,-386.7"/>
<text xml:space="preserve" text-anchor="middle" x="7522" y="-371" font-family="Helvetica,sans-Serif" font-size="8.00">WARP&#45;budget&#45;elasticity &#45; M</text>
</g>
<!-- cool_ideas_WARP_causal_blame_for_staged_artifacts -->
<g id="node52" class="node">
<title>cool_ideas_WARP_causal_blame_for_staged_artifacts</title>
<path fill="#d4e8f7" stroke="black" d="M7529.18,-239.8C7529.18,-239.8 7374.82,-239.8 7374.82,-239.8 7370.62,-239.8 7366.43,-235.6 7366.43,-231.4 7366.43,-231.4 7366.43,-223 7366.43,-223 7366.43,-218.8 7370.62,-214.6 7374.82,-214.6 7374.82,-214.6 7529.18,-214.6 7529.18,-214.6 7533.38,-214.6 7537.57,-218.8 7537.57,-223 7537.57,-223 7537.57,-231.4 7537.57,-231.4 7537.57,-235.6 7533.38,-239.8 7529.18,-239.8"/>
<text xml:space="preserve" text-anchor="middle" x="7452" y="-224.1" font-family="Helvetica,sans-Serif" font-size="8.00">WARP&#45;causal&#45;blame&#45;for&#45;staged&#45;artifacts &#45; L</text>
</g>
<!-- cool_ideas_WARP_codebase_entropy_trajectory -->
<g id="node54" class="node">
<title>cool_ideas_WARP_codebase_entropy_trajectory</title>
<path fill="#d4e8f7" stroke="black" d="M7739.68,-386.7C7739.68,-386.7 7600.32,-386.7 7600.32,-386.7 7596.12,-386.7 7591.93,-382.5 7591.93,-378.3 7591.93,-378.3 7591.93,-369.9 7591.93,-369.9 7591.93,-365.7 7596.12,-361.5 7600.32,-361.5 7600.32,-361.5 7739.68,-361.5 7739.68,-361.5 7743.88,-361.5 7748.07,-365.7 7748.07,-369.9 7748.07,-369.9 7748.07,-378.3 7748.07,-378.3 7748.07,-382.5 7743.88,-386.7 7739.68,-386.7"/>
<text xml:space="preserve" text-anchor="middle" x="7670" y="-371" font-family="Helvetica,sans-Serif" font-size="8.00">WARP&#45;codebase&#45;entropy&#45;trajectory &#45; M</text>
</g>
<!-- cool_ideas_WARP_counterfactual_refactoring -->
<g id="node56" class="node">
<title>cool_ideas_WARP_counterfactual_refactoring</title>
<path fill="#d4e8f7" stroke="black" d="M7747.68,-313.25C7747.68,-313.25 7614.32,-313.25 7614.32,-313.25 7610.12,-313.25 7605.93,-309.05 7605.93,-304.85 7605.93,-304.85 7605.93,-296.45 7605.93,-296.45 7605.93,-292.25 7610.12,-288.05 7614.32,-288.05 7614.32,-288.05 7747.68,-288.05 7747.68,-288.05 7751.88,-288.05 7756.07,-292.25 7756.07,-296.45 7756.07,-296.45 7756.07,-304.85 7756.07,-304.85 7756.07,-309.05 7751.88,-313.25 7747.68,-313.25"/>
<text xml:space="preserve" text-anchor="middle" x="7681" y="-297.55" font-family="Helvetica,sans-Serif" font-size="8.00">WARP&#45;counterfactual&#45;refactoring &#45; XL</text>
</g>
<!-- cool_ideas_WARP_codebase_entropy_trajectory&#45;&gt;cool_ideas_WARP_counterfactual_refactoring -->
<g id="edge7" class="edge">
<title>cool_ideas_WARP_codebase_entropy_trajectory&#45;&gt;cool_ideas_WARP_counterfactual_refactoring</title>
<path fill="none" stroke="#666666" d="M7671.82,-361.3C7673.54,-350.1 7676.16,-333.08 7678.16,-320.08"/>
<polygon fill="#666666" stroke="#666666" points="7679.88,-320.41 7678.91,-315.2 7676.42,-319.88 7679.88,-320.41"/>
<text xml:space="preserve" text-anchor="middle" x="7707.33" y="-334.85" font-family="Helvetica,sans-Serif" font-size="7.00">blocked_by/blocking</text>
</g>
<!-- cool_ideas_WARP_codebase_signature -->
<g id="node55" class="node">
<title>cool_ideas_WARP_codebase_signature</title>
<path fill="#d4e8f7" stroke="black" d="M7877.55,-386.7C7877.55,-386.7 7770.45,-386.7 7770.45,-386.7 7766.25,-386.7 7762.05,-382.5 7762.05,-378.3 7762.05,-378.3 7762.05,-369.9 7762.05,-369.9 7762.05,-365.7 7766.25,-361.5 7770.45,-361.5 7770.45,-361.5 7877.55,-361.5 7877.55,-361.5 7881.75,-361.5 7885.95,-365.7 7885.95,-369.9 7885.95,-369.9 7885.95,-378.3 7885.95,-378.3 7885.95,-382.5 7881.75,-386.7 7877.55,-386.7"/>
<text xml:space="preserve" text-anchor="middle" x="7824" y="-371" font-family="Helvetica,sans-Serif" font-size="8.00">WARP&#45;codebase&#45;signature &#45; L</text>
</g>
<!-- cool_ideas_WARP_structural_impact_prediction -->
<g id="node78" class="node">
<title>cool_ideas_WARP_structural_impact_prediction</title>
<path fill="#d4e8f7" stroke="black" d="M7750.3,-239.8C7750.3,-239.8 7611.7,-239.8 7611.7,-239.8 7607.5,-239.8 7603.3,-235.6 7603.3,-231.4 7603.3,-231.4 7603.3,-223 7603.3,-223 7603.3,-218.8 7607.5,-214.6 7611.7,-214.6 7611.7,-214.6 7750.3,-214.6 7750.3,-214.6 7754.5,-214.6 7758.7,-218.8 7758.7,-223 7758.7,-223 7758.7,-231.4 7758.7,-231.4 7758.7,-235.6 7754.5,-239.8 7750.3,-239.8"/>
<text xml:space="preserve" text-anchor="middle" x="7681" y="-224.1" font-family="Helvetica,sans-Serif" font-size="8.00">WARP&#45;structural&#45;impact&#45;prediction &#45; XL</text>
</g>
<!-- cool_ideas_WARP_counterfactual_refactoring&#45;&gt;cool_ideas_WARP_structural_impact_prediction -->
<g id="edge8" class="edge">
<title>cool_ideas_WARP_counterfactual_refactoring&#45;&gt;cool_ideas_WARP_structural_impact_prediction</title>
<path fill="none" stroke="#666666" d="M7681,-287.85C7681,-276.65 7681,-259.63 7681,-246.63"/>
<polygon fill="#666666" stroke="#666666" points="7682.75,-246.77 7681,-241.77 7679.25,-246.77 7682.75,-246.77"/>
<text xml:space="preserve" text-anchor="middle" x="7712.5" y="-261.4" font-family="Helvetica,sans-Serif" font-size="7.00">blocked_by/blocking</text>
</g>
<!-- cool_ideas_WARP_dead_symbol_detection -->
<g id="node57" class="node">
<title>cool_ideas_WARP_dead_symbol_detection</title>
<path fill="#d4e8f7" stroke="black" d="M8027.18,-386.7C8027.18,-386.7 7908.82,-386.7 7908.82,-386.7 7904.62,-386.7 7900.43,-382.5 7900.43,-378.3 7900.43,-378.3 7900.43,-369.9 7900.43,-369.9 7900.43,-365.7 7904.62,-361.5 7908.82,-361.5 7908.82,-361.5 8027.18,-361.5 8027.18,-361.5 8031.38,-361.5 8035.57,-365.7 8035.57,-369.9 8035.57,-369.9 8035.57,-378.3 8035.57,-378.3 8035.57,-382.5 8031.38,-386.7 8027.18,-386.7"/>
<text xml:space="preserve" text-anchor="middle" x="7968" y="-371" font-family="Helvetica,sans-Serif" font-size="8.00">WARP&#45;dead&#45;symbol&#45;detection &#45; S</text>
</g>
<!-- cool_ideas_WARP_degeneracy_warning -->
<g id="node58" class="node">
<title>cool_ideas_WARP_degeneracy_warning</title>
<path fill="#d4e8f7" stroke="black" d="M8170.18,-386.7C8170.18,-386.7 8057.82,-386.7 8057.82,-386.7 8053.62,-386.7 8049.43,-382.5 8049.43,-378.3 8049.43,-378.3 8049.43,-369.9 8049.43,-369.9 8049.43,-365.7 8053.62,-361.5 8057.82,-361.5 8057.82,-361.5 8170.18,-361.5 8170.18,-361.5 8174.38,-361.5 8178.57,-365.7 8178.57,-369.9 8178.57,-369.9 8178.57,-378.3 8178.57,-378.3 8178.57,-382.5 8174.38,-386.7 8170.18,-386.7"/>
<text xml:space="preserve" text-anchor="middle" x="8114" y="-371" font-family="Helvetica,sans-Serif" font-size="8.00">WARP&#45;degeneracy&#45;warning &#45; M</text>
</g>
<!-- cool_ideas_WARP_drift_sentinel -->
<g id="node59" class="node">
<title>cool_ideas_WARP_drift_sentinel</title>
<path fill="#d4e8f7" stroke="black" d="M9996.18,-313.25C9996.18,-313.25 9913.82,-313.25 9913.82,-313.25 9909.62,-313.25 9905.42,-309.05 9905.42,-304.85 9905.42,-304.85 9905.42,-296.45 9905.42,-296.45 9905.42,-292.25 9909.62,-288.05 9913.82,-288.05 9913.82,-288.05 9996.18,-288.05 9996.18,-288.05 10000.38,-288.05 10004.58,-292.25 10004.58,-296.45 10004.58,-296.45 10004.58,-304.85 10004.58,-304.85 10004.58,-309.05 10000.38,-313.25 9996.18,-313.25"/>
<text xml:space="preserve" text-anchor="middle" x="9955" y="-297.55" font-family="Helvetica,sans-Serif" font-size="8.00">WARP&#45;drift&#45;sentinel &#45; M</text>
</g>
<!-- cool_ideas_WARP_footprint_parallelism -->
<g id="node60" class="node">
<title>cool_ideas_WARP_footprint_parallelism</title>
<path fill="#d4e8f7" stroke="black" d="M8312.8,-386.7C8312.8,-386.7 8201.2,-386.7 8201.2,-386.7 8197,-386.7 8192.8,-382.5 8192.8,-378.3 8192.8,-378.3 8192.8,-369.9 8192.8,-369.9 8192.8,-365.7 8197,-361.5 8201.2,-361.5 8201.2,-361.5 8312.8,-361.5 8312.8,-361.5 8317,-361.5 8321.2,-365.7 8321.2,-369.9 8321.2,-369.9 8321.2,-378.3 8321.2,-378.3 8321.2,-382.5 8317,-386.7 8312.8,-386.7"/>
<text xml:space="preserve" text-anchor="middle" x="8257" y="-371" font-family="Helvetica,sans-Serif" font-size="8.00">WARP&#45;footprint&#45;parallelism &#45; XL</text>
</g>
<!-- cool_ideas_WARP_graft_pack -->
<g id="node61" class="node">
<title>cool_ideas_WARP_graft_pack</title>
<path fill="#d4e8f7" stroke="black" d="M8418.43,-386.7C8418.43,-386.7 8343.57,-386.7 8343.57,-386.7 8339.38,-386.7 8335.17,-382.5 8335.17,-378.3 8335.17,-378.3 8335.17,-369.9 8335.17,-369.9 8335.17,-365.7 8339.38,-361.5 8343.57,-361.5 8343.57,-361.5 8418.43,-361.5 8418.43,-361.5 8422.62,-361.5 8426.83,-365.7 8426.83,-369.9 8426.83,-369.9 8426.83,-378.3 8426.83,-378.3 8426.83,-382.5 8422.62,-386.7 8418.43,-386.7"/>
<text xml:space="preserve" text-anchor="middle" x="8381" y="-371" font-family="Helvetica,sans-Serif" font-size="8.00">WARP&#45;graft&#45;pack &#45; M</text>
</g>
<!-- cool_ideas_WARP_grouped_aggregate_queries -->
<g id="node62" class="node">
<title>cool_ideas_WARP_grouped_aggregate_queries</title>
<path fill="#d4e8f7" stroke="black" d="M8586.93,-386.7C8586.93,-386.7 8449.07,-386.7 8449.07,-386.7 8444.88,-386.7 8440.67,-382.5 8440.67,-378.3 8440.67,-378.3 8440.67,-369.9 8440.67,-369.9 8440.67,-365.7 8444.88,-361.5 8449.07,-361.5 8449.07,-361.5 8586.93,-361.5 8586.93,-361.5 8591.12,-361.5 8595.33,-365.7 8595.33,-369.9 8595.33,-369.9 8595.33,-378.3 8595.33,-378.3 8595.33,-382.5 8591.12,-386.7 8586.93,-386.7"/>
<text xml:space="preserve" text-anchor="middle" x="8518" y="-371" font-family="Helvetica,sans-Serif" font-size="8.00">WARP&#45;grouped&#45;aggregate&#45;queries &#45; M</text>
</g>
<!-- cool_ideas_WARP_intentional_degeneracy_privacy -->
<g id="node64" class="node">
<title>cool_ideas_WARP_intentional_degeneracy_privacy</title>
<path fill="#d4e8f7" stroke="black" d="M8765.8,-386.7C8765.8,-386.7 8618.2,-386.7 8618.2,-386.7 8614,-386.7 8609.8,-382.5 8609.8,-378.3 8609.8,-378.3 8609.8,-369.9 8609.8,-369.9 8609.8,-365.7 8614,-361.5 8618.2,-361.5 8618.2,-361.5 8765.8,-361.5 8765.8,-361.5 8770,-361.5 8774.2,-365.7 8774.2,-369.9 8774.2,-369.9 8774.2,-378.3 8774.2,-378.3 8774.2,-382.5 8770,-386.7 8765.8,-386.7"/>
<text xml:space="preserve" text-anchor="middle" x="8692" y="-371" font-family="Helvetica,sans-Serif" font-size="8.00">WARP&#45;intentional&#45;degeneracy&#45;privacy &#45; M</text>
</g>
<!-- cool_ideas_WARP_minimum_viable_context -->
<g id="node65" class="node">
<title>cool_ideas_WARP_minimum_viable_context</title>
<path fill="#d4e8f7" stroke="black" d="M8919.43,-386.7C8919.43,-386.7 8796.57,-386.7 8796.57,-386.7 8792.38,-386.7 8788.17,-382.5 8788.17,-378.3 8788.17,-378.3 8788.17,-369.9 8788.17,-369.9 8788.17,-365.7 8792.38,-361.5 8796.57,-361.5 8796.57,-361.5 8919.43,-361.5 8919.43,-361.5 8923.62,-361.5 8927.83,-365.7 8927.83,-369.9 8927.83,-369.9 8927.83,-378.3 8927.83,-378.3 8927.83,-382.5 8923.62,-386.7 8919.43,-386.7"/>
<text xml:space="preserve" text-anchor="middle" x="8858" y="-371" font-family="Helvetica,sans-Serif" font-size="8.00">WARP&#45;minimum&#45;viable&#45;context &#45; M</text>
</g>
<!-- cool_ideas_WARP_outline_diff_commit_trailer -->
<g id="node66" class="node">
<title>cool_ideas_WARP_outline_diff_commit_trailer</title>
<path fill="#d4e8f7" stroke="black" d="M9075.93,-386.7C9075.93,-386.7 8950.07,-386.7 8950.07,-386.7 8945.88,-386.7 8941.67,-382.5 8941.67,-378.3 8941.67,-378.3 8941.67,-369.9 8941.67,-369.9 8941.67,-365.7 8945.88,-361.5 8950.07,-361.5 8950.07,-361.5 9075.93,-361.5 9075.93,-361.5 9080.12,-361.5 9084.33,-365.7 9084.33,-369.9 9084.33,-369.9 9084.33,-378.3 9084.33,-378.3 9084.33,-382.5 9080.12,-386.7 9075.93,-386.7"/>
<text xml:space="preserve" text-anchor="middle" x="9013" y="-371" font-family="Helvetica,sans-Serif" font-size="8.00">WARP&#45;outline&#45;diff&#45;commit&#45;trailer &#45; S</text>
</g>
<!-- cool_ideas_WARP_projection_safety_classes -->
<g id="node67" class="node">
<title>cool_ideas_WARP_projection_safety_classes</title>
<path fill="#d4e8f7" stroke="black" d="M9232.93,-386.7C9232.93,-386.7 9107.07,-386.7 9107.07,-386.7 9102.88,-386.7 9098.67,-382.5 9098.67,-378.3 9098.67,-378.3 9098.67,-369.9 9098.67,-369.9 9098.67,-365.7 9102.88,-361.5 9107.07,-361.5 9107.07,-361.5 9232.93,-361.5 9232.93,-361.5 9237.12,-361.5 9241.33,-365.7 9241.33,-369.9 9241.33,-369.9 9241.33,-378.3 9241.33,-378.3 9241.33,-382.5 9237.12,-386.7 9232.93,-386.7"/>
<text xml:space="preserve" text-anchor="middle" x="9170" y="-371" font-family="Helvetica,sans-Serif" font-size="8.00">WARP&#45;projection&#45;safety&#45;classes &#45; M</text>
</g>
<!-- cool_ideas_WARP_provenance_dag&#45;&gt;cool_ideas_WARP_causal_blame_for_staged_artifacts -->
<g id="edge9" class="edge">
<title>cool_ideas_WARP_provenance_dag&#45;&gt;cool_ideas_WARP_causal_blame_for_staged_artifacts</title>
<path fill="none" stroke="#666666" d="M7390.22,-287.85C7402.46,-276.03 7421.41,-257.74 7435.09,-244.52"/>
<polygon fill="#666666" stroke="#666666" points="7436.04,-246.04 7438.43,-241.31 7433.61,-243.52 7436.04,-246.04"/>
<text xml:space="preserve" text-anchor="middle" x="7448.72" y="-261.4" font-family="Helvetica,sans-Serif" font-size="7.00">blocked_by/blocking</text>
</g>
<!-- cool_ideas_WARP_reasoning_trace_replay -->
<g id="node69" class="node">
<title>cool_ideas_WARP_reasoning_trace_replay</title>
<path fill="#d4e8f7" stroke="black" d="M7343.93,-239.8C7343.93,-239.8 7224.07,-239.8 7224.07,-239.8 7219.88,-239.8 7215.68,-235.6 7215.68,-231.4 7215.68,-231.4 7215.68,-223 7215.68,-223 7215.68,-218.8 7219.88,-214.6 7224.07,-214.6 7224.07,-214.6 7343.93,-214.6 7343.93,-214.6 7348.12,-214.6 7352.32,-218.8 7352.32,-223 7352.32,-223 7352.32,-231.4 7352.32,-231.4 7352.32,-235.6 7348.12,-239.8 7343.93,-239.8"/>
<text xml:space="preserve" text-anchor="middle" x="7284" y="-224.1" font-family="Helvetica,sans-Serif" font-size="8.00">WARP&#45;reasoning&#45;trace&#45;replay &#45; M</text>
</g>
<!-- cool_ideas_WARP_provenance_dag&#45;&gt;cool_ideas_WARP_reasoning_trace_replay -->
<g id="edge10" class="edge">
<title>cool_ideas_WARP_provenance_dag&#45;&gt;cool_ideas_WARP_reasoning_trace_replay</title>
<path fill="none" stroke="#666666" d="M7362.48,-287.85C7346.79,-275.93 7322.44,-257.42 7305.02,-244.18"/>
<polygon fill="#666666" stroke="#666666" points="7306.1,-242.8 7301.06,-241.17 7303.99,-245.59 7306.1,-242.8"/>
<text xml:space="preserve" text-anchor="middle" x="7365.32" y="-261.4" font-family="Helvetica,sans-Serif" font-size="7.00">blocked_by/blocking</text>
</g>
<!-- cool_ideas_WARP_rulial_heat_map -->
<g id="node70" class="node">
<title>cool_ideas_WARP_rulial_heat_map</title>
<path fill="#d4e8f7" stroke="black" d="M9354.3,-386.7C9354.3,-386.7 9263.7,-386.7 9263.7,-386.7 9259.5,-386.7 9255.3,-382.5 9255.3,-378.3 9255.3,-378.3 9255.3,-369.9 9255.3,-369.9 9255.3,-365.7 9259.5,-361.5 9263.7,-361.5 9263.7,-361.5 9354.3,-361.5 9354.3,-361.5 9358.5,-361.5 9362.7,-365.7 9362.7,-369.9 9362.7,-369.9 9362.7,-378.3 9362.7,-378.3 9362.7,-382.5 9358.5,-386.7 9354.3,-386.7"/>
<text xml:space="preserve" text-anchor="middle" x="9309" y="-371" font-family="Helvetica,sans-Serif" font-size="8.00">WARP&#45;rulial&#45;heat&#45;map &#45; L</text>
</g>
<!-- cool_ideas_WARP_semantic_drift_in_sessions -->
<g id="node71" class="node">
<title>cool_ideas_WARP_semantic_drift_in_sessions</title>
<path fill="#d4e8f7" stroke="black" d="M9514.43,-386.7C9514.43,-386.7 9385.57,-386.7 9385.57,-386.7 9381.38,-386.7 9377.17,-382.5 9377.17,-378.3 9377.17,-378.3 9377.17,-369.9 9377.17,-369.9 9377.17,-365.7 9381.38,-361.5 9385.57,-361.5 9385.57,-361.5 9514.43,-361.5 9514.43,-361.5 9518.62,-361.5 9522.83,-365.7 9522.83,-369.9 9522.83,-369.9 9522.83,-378.3 9522.83,-378.3 9522.83,-382.5 9518.62,-386.7 9514.43,-386.7"/>
<text xml:space="preserve" text-anchor="middle" x="9450" y="-371" font-family="Helvetica,sans-Serif" font-size="8.00">WARP&#45;semantic&#45;drift&#45;in&#45;sessions &#45; M</text>
</g>
<!-- cool_ideas_WARP_semantic_merge_conflict_prediction -->
<g id="node72" class="node">
<title>cool_ideas_WARP_semantic_merge_conflict_prediction</title>
<path fill="#d4e8f7" stroke="black" d="M10680.43,-313.25C10680.43,-313.25 10521.57,-313.25 10521.57,-313.25 10517.38,-313.25 10513.17,-309.05 10513.17,-304.85 10513.17,-304.85 10513.17,-296.45 10513.17,-296.45 10513.17,-292.25 10517.38,-288.05 10521.57,-288.05 10521.57,-288.05 10680.43,-288.05 10680.43,-288.05 10684.62,-288.05 10688.83,-292.25 10688.83,-296.45 10688.83,-296.45 10688.83,-304.85 10688.83,-304.85 10688.83,-309.05 10684.62,-313.25 10680.43,-313.25"/>
<text xml:space="preserve" text-anchor="middle" x="10601" y="-297.55" font-family="Helvetica,sans-Serif" font-size="8.00">WARP&#45;semantic&#45;merge&#45;conflict&#45;prediction &#45; L</text>
</g>
<!-- cool_ideas_WARP_session_filtration -->
<g id="node73" class="node">
<title>cool_ideas_WARP_session_filtration</title>
<path fill="#d4e8f7" stroke="black" d="M9638.8,-386.7C9638.8,-386.7 9545.2,-386.7 9545.2,-386.7 9541,-386.7 9536.8,-382.5 9536.8,-378.3 9536.8,-378.3 9536.8,-369.9 9536.8,-369.9 9536.8,-365.7 9541,-361.5 9545.2,-361.5 9545.2,-361.5 9638.8,-361.5 9638.8,-361.5 9643,-361.5 9647.2,-365.7 9647.2,-369.9 9647.2,-369.9 9647.2,-378.3 9647.2,-378.3 9647.2,-382.5 9643,-386.7 9638.8,-386.7"/>
<text xml:space="preserve" text-anchor="middle" x="9592" y="-371" font-family="Helvetica,sans-Serif" font-size="8.00">WARP&#45;session&#45;filtration &#45; L</text>
</g>
<!-- cool_ideas_WARP_shadow_structural_workspaces -->
<g id="node74" class="node">
<title>cool_ideas_WARP_shadow_structural_workspaces</title>
<path fill="#d4e8f7" stroke="black" d="M9820.3,-386.7C9820.3,-386.7 9669.7,-386.7 9669.7,-386.7 9665.5,-386.7 9661.3,-382.5 9661.3,-378.3 9661.3,-378.3 9661.3,-369.9 9661.3,-369.9 9661.3,-365.7 9665.5,-361.5 9669.7,-361.5 9669.7,-361.5 9820.3,-361.5 9820.3,-361.5 9824.5,-361.5 9828.7,-365.7 9828.7,-369.9 9828.7,-369.9 9828.7,-378.3 9828.7,-378.3 9828.7,-382.5 9824.5,-386.7 9820.3,-386.7"/>
<text xml:space="preserve" text-anchor="middle" x="9745" y="-371" font-family="Helvetica,sans-Serif" font-size="8.00">WARP&#45;shadow&#45;structural&#45;workspaces &#45; XL</text>
</g>
<!-- cool_ideas_WARP_speculative_merge -->
<g id="node75" class="node">
<title>cool_ideas_WARP_speculative_merge</title>
<path fill="#d4e8f7" stroke="black" d="M9958.55,-386.7C9958.55,-386.7 9851.45,-386.7 9851.45,-386.7 9847.25,-386.7 9843.05,-382.5 9843.05,-378.3 9843.05,-378.3 9843.05,-369.9 9843.05,-369.9 9843.05,-365.7 9847.25,-361.5 9851.45,-361.5 9851.45,-361.5 9958.55,-361.5 9958.55,-361.5 9962.75,-361.5 9966.95,-365.7 9966.95,-369.9 9966.95,-369.9 9966.95,-378.3 9966.95,-378.3 9966.95,-382.5 9962.75,-386.7 9958.55,-386.7"/>
<text xml:space="preserve" text-anchor="middle" x="9905" y="-371" font-family="Helvetica,sans-Serif" font-size="8.00">WARP&#45;speculative&#45;merge &#45; XL</text>
</g>
<!-- cool_ideas_WARP_stale_docs_checker -->
<g id="node76" class="node">
<title>cool_ideas_WARP_stale_docs_checker</title>
<path fill="#d4e8f7" stroke="black" d="M10094.8,-386.7C10094.8,-386.7 9989.2,-386.7 9989.2,-386.7 9985,-386.7 9980.8,-382.5 9980.8,-378.3 9980.8,-378.3 9980.8,-369.9 9980.8,-369.9 9980.8,-365.7 9985,-361.5 9989.2,-361.5 9989.2,-361.5 10094.8,-361.5 10094.8,-361.5 10099,-361.5 10103.2,-365.7 10103.2,-369.9 10103.2,-369.9 10103.2,-378.3 10103.2,-378.3 10103.2,-382.5 10099,-386.7 10094.8,-386.7"/>
<text xml:space="preserve" text-anchor="middle" x="10042" y="-371" font-family="Helvetica,sans-Serif" font-size="8.00">WARP&#45;stale&#45;docs&#45;checker &#45; M</text>
</g>
<!-- cool_ideas_WARP_stale_docs_checker&#45;&gt;cool_ideas_WARP_drift_sentinel -->
<g id="edge11" class="edge">
<title>cool_ideas_WARP_stale_docs_checker&#45;&gt;cool_ideas_WARP_drift_sentinel</title>
<path fill="none" stroke="#666666" d="M10027.63,-361.3C10013.11,-349.38 9990.58,-330.87 9974.46,-317.63"/>
<polygon fill="#666666" stroke="#666666" points="9975.82,-316.49 9970.85,-314.67 9973.6,-319.19 9975.82,-316.49"/>
<text xml:space="preserve" text-anchor="middle" x="10032.61" y="-334.85" font-family="Helvetica,sans-Serif" font-size="7.00">blocked_by/blocking</text>
</g>
<!-- cool_ideas_WARP_structural_drift_detection -->
<g id="node77" class="node">
<title>cool_ideas_WARP_structural_drift_detection</title>
<path fill="#d4e8f7" stroke="black" d="M10248.8,-386.7C10248.8,-386.7 10125.2,-386.7 10125.2,-386.7 10121,-386.7 10116.8,-382.5 10116.8,-378.3 10116.8,-378.3 10116.8,-369.9 10116.8,-369.9 10116.8,-365.7 10121,-361.5 10125.2,-361.5 10125.2,-361.5 10248.8,-361.5 10248.8,-361.5 10253,-361.5 10257.2,-365.7 10257.2,-369.9 10257.2,-369.9 10257.2,-378.3 10257.2,-378.3 10257.2,-382.5 10253,-386.7 10248.8,-386.7"/>
<text xml:space="preserve" text-anchor="middle" x="10187" y="-371" font-family="Helvetica,sans-Serif" font-size="8.00">WARP&#45;structural&#45;drift&#45;detection &#45; M</text>
</g>
<!-- cool_ideas_WARP_symbol_heatmap -->
<g id="node79" class="node">
<title>cool_ideas_WARP_symbol_heatmap</title>
<path fill="#d4e8f7" stroke="black" d="M10378.05,-386.7C10378.05,-386.7 10279.95,-386.7 10279.95,-386.7 10275.75,-386.7 10271.55,-382.5 10271.55,-378.3 10271.55,-378.3 10271.55,-369.9 10271.55,-369.9 10271.55,-365.7 10275.75,-361.5 10279.95,-361.5 10279.95,-361.5 10378.05,-361.5 10378.05,-361.5 10382.25,-361.5 10386.45,-365.7 10386.45,-369.9 10386.45,-369.9 10386.45,-378.3 10386.45,-378.3 10386.45,-382.5 10382.25,-386.7 10378.05,-386.7"/>
<text xml:space="preserve" text-anchor="middle" x="10329" y="-371" font-family="Helvetica,sans-Serif" font-size="8.00">WARP&#45;symbol&#45;heatmap &#45; M</text>
</g>
<!-- cool_ideas_WARP_symbol_history_timeline -->
<g id="node80" class="node">
<title>cool_ideas_WARP_symbol_history_timeline</title>
<path fill="#d4e8f7" stroke="black" d="M10527.18,-386.7C10527.18,-386.7 10408.82,-386.7 10408.82,-386.7 10404.62,-386.7 10400.42,-382.5 10400.42,-378.3 10400.42,-378.3 10400.42,-369.9 10400.42,-369.9 10400.42,-365.7 10404.62,-361.5 10408.82,-361.5 10408.82,-361.5 10527.18,-361.5 10527.18,-361.5 10531.38,-361.5 10535.58,-365.7 10535.58,-369.9 10535.58,-369.9 10535.58,-378.3 10535.58,-378.3 10535.58,-382.5 10531.38,-386.7 10527.18,-386.7"/>
<text xml:space="preserve" text-anchor="middle" x="10468" y="-371" font-family="Helvetica,sans-Serif" font-size="8.00">WARP&#45;symbol&#45;history&#45;timeline &#45; S</text>
</g>
<!-- cool_ideas_WARP_temporal_structural_search -->
<g id="node82" class="node">
<title>cool_ideas_WARP_temporal_structural_search</title>
<path fill="#d4e8f7" stroke="black" d="M10160.68,-313.25C10160.68,-313.25 10027.32,-313.25 10027.32,-313.25 10023.12,-313.25 10018.92,-309.05 10018.92,-304.85 10018.92,-304.85 10018.92,-296.45 10018.92,-296.45 10018.92,-292.25 10023.12,-288.05 10027.32,-288.05 10027.32,-288.05 10160.68,-288.05 10160.68,-288.05 10164.88,-288.05 10169.08,-292.25 10169.08,-296.45 10169.08,-296.45 10169.08,-304.85 10169.08,-304.85 10169.08,-309.05 10164.88,-313.25 10160.68,-313.25"/>
<text xml:space="preserve" text-anchor="middle" x="10094" y="-297.55" font-family="Helvetica,sans-Serif" font-size="8.00">WARP&#45;temporal&#45;structural&#45;search &#45; M</text>
</g>
<!-- cool_ideas_WARP_symbol_history_timeline&#45;&gt;cool_ideas_WARP_temporal_structural_search -->
<g id="edge12" class="edge">
<title>cool_ideas_WARP_symbol_history_timeline&#45;&gt;cool_ideas_WARP_temporal_structural_search</title>
<path fill="none" stroke="#666666" d="M10427.82,-361.1C10416.64,-358.17 10404.42,-355.35 10393,-353.5 10312.98,-340.53 10290.5,-357.37 10211,-341.5 10182.41,-335.79 10151.21,-324.92 10128.23,-315.97"/>
<polygon fill="#666666" stroke="#666666" points="10128.97,-314.38 10123.68,-314.18 10127.69,-317.64 10128.97,-314.38"/>
<text xml:space="preserve" text-anchor="middle" x="10242.5" y="-334.85" font-family="Helvetica,sans-Serif" font-size="7.00">blocked_by/blocking</text>
</g>
<!-- cool_ideas_WARP_technical_debt_curvature -->
<g id="node81" class="node">
<title>cool_ideas_WARP_technical_debt_curvature</title>
<path fill="#d4e8f7" stroke="black" d="M10680.43,-386.7C10680.43,-386.7 10557.57,-386.7 10557.57,-386.7 10553.38,-386.7 10549.17,-382.5 10549.17,-378.3 10549.17,-378.3 10549.17,-369.9 10549.17,-369.9 10549.17,-365.7 10553.38,-361.5 10557.57,-361.5 10557.57,-361.5 10680.43,-361.5 10680.43,-361.5 10684.62,-361.5 10688.83,-365.7 10688.83,-369.9 10688.83,-369.9 10688.83,-378.3 10688.83,-378.3 10688.83,-382.5 10684.62,-386.7 10680.43,-386.7"/>
<text xml:space="preserve" text-anchor="middle" x="10619" y="-371" font-family="Helvetica,sans-Serif" font-size="8.00">WARP&#45;technical&#45;debt&#45;curvature &#45; L</text>
</g>
<!-- external_git_warp_observer_geometry_ladder__Rung_2_4_ -->
<g id="node83" class="node">
<title>external_git_warp_observer_geometry_ladder__Rung_2_4_</title>
<path fill="#e8f2ff" stroke="black" d="M10884.68,-386.7C10884.68,-386.7 10721.32,-386.7 10721.32,-386.7 10717.12,-386.7 10712.92,-382.5 10712.92,-378.3 10712.92,-378.3 10712.92,-369.9 10712.92,-369.9 10712.92,-365.7 10717.12,-361.5 10721.32,-361.5 10721.32,-361.5 10884.68,-361.5 10884.68,-361.5 10888.88,-361.5 10893.08,-365.7 10893.08,-369.9 10893.08,-369.9 10893.08,-378.3 10893.08,-378.3 10893.08,-382.5 10888.88,-386.7 10884.68,-386.7"/>
<text xml:space="preserve" text-anchor="middle" x="10803" y="-371" font-family="Helvetica,sans-Serif" font-size="8.00">git&#45;warp observer geometry ladder (Rung 2&#45;4)</text>
</g>
<!-- external_git_warp_observer_geometry_ladder__Rung_2_4_&#45;&gt;cool_ideas_CORE_migrate_to_slice_first_reads -->
<g id="edge13" class="edge">
<title>external_git_warp_observer_geometry_ladder__Rung_2_4_&#45;&gt;cool_ideas_CORE_migrate_to_slice_first_reads</title>
<path fill="none" stroke="#4477aa" stroke-dasharray="5,2" d="M10746.54,-361.04C10731.47,-358.18 10715.17,-355.41 10700,-353.5 10615.72,-342.87 10593.71,-350.58 10509.25,-341.5 10426.44,-332.6 10406.31,-325.98 10324,-313.25 10323.86,-313.23 10323.73,-313.21 10323.59,-313.19"/>
<polygon fill="#4477aa" stroke="#4477aa" points="10324.06,-311.49 10318.85,-312.45 10323.52,-314.95 10324.06,-311.49"/>
<text xml:space="preserve" text-anchor="middle" x="10541.12" y="-334.85" font-family="Helvetica,sans-Serif" font-size="7.00">blocked_by_external</text>
</g>
<!-- unresolved_CLEAN_CODE_export_diff_semver_signature_as_patch -->
<g id="node84" class="node">
<title>unresolved_CLEAN_CODE_export_diff_semver_signature_as_patch</title>
<path fill="#f2f2f2" stroke="black" stroke-dasharray="5,2" d="M11148.3,-386.7C11148.3,-386.7 10925.7,-386.7 10925.7,-386.7 10921.5,-386.7 10917.3,-382.5 10917.3,-378.3 10917.3,-378.3 10917.3,-369.9 10917.3,-369.9 10917.3,-365.7 10921.5,-361.5 10925.7,-361.5 10925.7,-361.5 11148.3,-361.5 11148.3,-361.5 11152.5,-361.5 11156.7,-365.7 11156.7,-369.9 11156.7,-369.9 11156.7,-378.3 11156.7,-378.3 11156.7,-382.5 11152.5,-386.7 11148.3,-386.7"/>
<text xml:space="preserve" text-anchor="middle" x="11037" y="-371" font-family="Helvetica,sans-Serif" font-size="8.00">missing: CLEAN_CODE_export&#45;diff&#45;semver&#45;signature&#45;as&#45;patch</text>
</g>
<!-- unresolved_CLEAN_CODE_export_diff_semver_signature_as_patch&#45;&gt;cool_ideas_WARP_auto_breaking_change_detection -->
<g id="edge14" class="edge">
<title>unresolved_CLEAN_CODE_export_diff_semver_signature_as_patch&#45;&gt;cool_ideas_WARP_auto_breaking_change_detection</title>
<path fill="none" stroke="#cc3333" stroke-dasharray="5,2" d="M10960.44,-361.04C10941.99,-358.34 10922.31,-355.65 10904,-353.5 10843.63,-346.4 10828.25,-347.43 10767.75,-341.5 10651.3,-330.09 10622.21,-326.93 10506,-313.25 10505.7,-313.22 10505.41,-313.18 10505.11,-313.14"/>
<polygon fill="#cc3333" stroke="#cc3333" points="10505.47,-311.43 10500.29,-312.57 10505.05,-314.9 10505.47,-311.43"/>
<text xml:space="preserve" text-anchor="middle" x="10785.38" y="-334.85" font-family="Helvetica,sans-Serif" font-size="7.00">blocked_by</text>
</g>
<!-- unresolved_CLEAN_CODE_export_diff_semver_signature_as_patch&#45;&gt;cool_ideas_WARP_semantic_merge_conflict_prediction -->
<g id="edge15" class="edge">
<title>unresolved_CLEAN_CODE_export_diff_semver_signature_as_patch&#45;&gt;cool_ideas_WARP_semantic_merge_conflict_prediction</title>
<path fill="none" stroke="#cc3333" stroke-dasharray="5,2" d="M10963.53,-361.06C10885.24,-348.23 10761.69,-327.98 10680.99,-314.76"/>
<polygon fill="#cc3333" stroke="#cc3333" points="10681.48,-313.07 10676.26,-313.98 10680.91,-316.52 10681.48,-313.07"/>
<text xml:space="preserve" text-anchor="middle" x="10849.7" y="-334.85" font-family="Helvetica,sans-Serif" font-size="7.00">blocked_by</text>
</g>
<!-- leg_v08 -->
<g id="node85" class="node">
<title>leg_v08</title>
<path fill="#c8e6c9" stroke="black" stroke-width="2" d="M11273,-386.7C11273,-386.7 11189,-386.7 11189,-386.7 11184.8,-386.7 11180.6,-382.5 11180.6,-378.3 11180.6,-378.3 11180.6,-369.9 11180.6,-369.9 11180.6,-365.7 11184.8,-361.5 11189,-361.5 11189,-361.5 11273,-361.5 11273,-361.5 11277.2,-361.5 11281.4,-365.7 11281.4,-369.9 11281.4,-369.9 11281.4,-378.3 11281.4,-378.3 11281.4,-382.5 11277.2,-386.7 11273,-386.7"/>
<text xml:space="preserve" text-anchor="middle" x="11231" y="-371.58" font-family="Helvetica,sans-Serif" font-size="7.00">v0.8.0</text>
</g>
<!-- leg_v07 -->
<g id="node86" class="node">
<title>leg_v07</title>
<path fill="#ffa07a" stroke="black" stroke-width="2" d="M11273,-313.25C11273,-313.25 11189,-313.25 11189,-313.25 11184.8,-313.25 11180.6,-309.05 11180.6,-304.85 11180.6,-304.85 11180.6,-296.45 11180.6,-296.45 11180.6,-292.25 11184.8,-288.05 11189,-288.05 11189,-288.05 11273,-288.05 11273,-288.05 11277.2,-288.05 11281.4,-292.25 11281.4,-296.45 11281.4,-296.45 11281.4,-304.85 11281.4,-304.85 11281.4,-309.05 11277.2,-313.25 11273,-313.25"/>
<text xml:space="preserve" text-anchor="middle" x="11231" y="-298.12" font-family="Helvetica,sans-Serif" font-size="7.00">v0.7.0</text>
</g>
<!-- leg_v08&#45;&gt;leg_v07 -->
<!-- leg_bad -->
<g id="node87" class="node">
<title>leg_bad</title>
<path fill="#f6b3b3" stroke="black" stroke-width="2" d="M11273,-239.8C11273,-239.8 11189,-239.8 11189,-239.8 11184.8,-239.8 11180.6,-235.6 11180.6,-231.4 11180.6,-231.4 11180.6,-223 11180.6,-223 11180.6,-218.8 11184.8,-214.6 11189,-214.6 11189,-214.6 11273,-214.6 11273,-214.6 11277.2,-214.6 11281.4,-218.8 11281.4,-223 11281.4,-223 11281.4,-231.4 11281.4,-231.4 11281.4,-235.6 11277.2,-239.8 11273,-239.8"/>
<text xml:space="preserve" text-anchor="middle" x="11231" y="-224.67" font-family="Helvetica,sans-Serif" font-size="7.00">bad&#45;code</text>
</g>
<!-- leg_v07&#45;&gt;leg_bad -->
<!-- leg_idea -->
<g id="node88" class="node">
<title>leg_idea</title>
<path fill="#d4e8f7" stroke="black" d="M11273,-173.6C11273,-173.6 11189,-173.6 11189,-173.6 11184.8,-173.6 11180.6,-169.4 11180.6,-165.2 11180.6,-165.2 11180.6,-156.8 11180.6,-156.8 11180.6,-152.6 11184.8,-148.4 11189,-148.4 11189,-148.4 11273,-148.4 11273,-148.4 11277.2,-148.4 11281.4,-152.6 11281.4,-156.8 11281.4,-156.8 11281.4,-165.2 11281.4,-165.2 11281.4,-169.4 11277.2,-173.6 11273,-173.6"/>
<text xml:space="preserve" text-anchor="middle" x="11231" y="-158.47" font-family="Helvetica,sans-Serif" font-size="7.00">cool&#45;ideas</text>
</g>
<!-- leg_bad&#45;&gt;leg_idea -->
<!-- leg_external -->
<g id="node89" class="node">
<title>leg_external</title>
<path fill="#e8f2ff" stroke="black" d="M11273,-107.4C11273,-107.4 11189,-107.4 11189,-107.4 11184.8,-107.4 11180.6,-103.2 11180.6,-99 11180.6,-99 11180.6,-90.6 11180.6,-90.6 11180.6,-86.4 11184.8,-82.2 11189,-82.2 11189,-82.2 11273,-82.2 11273,-82.2 11277.2,-82.2 11281.4,-86.4 11281.4,-90.6 11281.4,-90.6 11281.4,-99 11281.4,-99 11281.4,-103.2 11277.2,-107.4 11273,-107.4"/>
<text xml:space="preserve" text-anchor="middle" x="11231" y="-92.28" font-family="Helvetica,sans-Serif" font-size="7.00">external blocker</text>
</g>
<!-- leg_idea&#45;&gt;leg_external -->
<!-- leg_unresolved -->
<g id="node90" class="node">
<title>leg_unresolved</title>
<path fill="#f2f2f2" stroke="black" stroke-dasharray="5,2" d="M11273,-41.2C11273,-41.2 11189,-41.2 11189,-41.2 11184.8,-41.2 11180.6,-37 11180.6,-32.8 11180.6,-32.8 11180.6,-24.4 11180.6,-24.4 11180.6,-20.2 11184.8,-16 11189,-16 11189,-16 11273,-16 11273,-16 11277.2,-16 11281.4,-20.2 11281.4,-24.4 11281.4,-24.4 11281.4,-32.8 11281.4,-32.8 11281.4,-37 11277.2,-41.2 11273,-41.2"/>
<text xml:space="preserve" text-anchor="middle" x="11231" y="-26.08" font-family="Helvetica,sans-Serif" font-size="7.00">unresolved ref</text>
</g>
<!-- leg_external&#45;&gt;leg_unresolved -->
</g>
</svg>
