<?xml version="1.0" encoding="UTF-8" standalone="no"?>
<!DOCTYPE svg PUBLIC "-//W3C//DTD SVG 1.1//EN"
 "http://www.w3.org/Graphics/SVG/1.1/DTD/svg11.dtd">
<!-- Generated by graphviz version 14.1.2 (20260124.0452)
 -->
<!-- Title: backlog Pages: 1 -->
<svg width="11211pt" height="383pt"
 viewBox="0.00 0.00 11211.00 383.00" xmlns="http://www.w3.org/2000/svg" xmlns:xlink="http://www.w3.org/1999/xlink">
<g id="graph0" class="graph" transform="scale(1 1) rotate(0) translate(4 379)">
<title>backlog</title>
<polygon fill="white" stroke="none" points="-4,4 -4,-379 11207,-379 11207,4 -4,4"/>
<text xml:space="preserve" text-anchor="middle" x="5601.5" y="-359.6" font-family="Helvetica,sans-Serif" font-size="12.00">Active backlog graph generated from docs/method/backlog/*/*.md</text>
<g id="clust1" class="cluster">
<title>cluster_v0_7_0</title>
<path fill="#fafafa" stroke="#cccccc" d="M20,-213.85C20,-213.85 413,-213.85 413,-213.85 419,-213.85 425,-219.85 425,-225.85 425,-225.85 425,-334.25 425,-334.25 425,-340.25 419,-346.25 413,-346.25 413,-346.25 20,-346.25 20,-346.25 14,-346.25 8,-340.25 8,-334.25 8,-334.25 8,-225.85 8,-225.85 8,-219.85 14,-213.85 20,-213.85"/>
<text xml:space="preserve" text-anchor="middle" x="35.12" y="-333.7" font-family="Helvetica,sans-Serif" font-size="9.00" fill="#555555">v0.7.0 (4)</text>
</g>
<g id="clust2" class="cluster">
<title>cluster_cool_ideas</title>
<path fill="#fafafa" stroke="#cccccc" d="M1099,-140.4C1099,-140.4 11059,-140.4 11059,-140.4 11065,-140.4 11071,-146.4 11071,-152.4 11071,-152.4 11071,-334.25 11071,-334.25 11071,-340.25 11065,-346.25 11059,-346.25 11059,-346.25 1099,-346.25 1099,-346.25 1093,-346.25 1087,-340.25 1087,-334.25 1087,-334.25 1087,-152.4 1087,-152.4 1087,-146.4 1093,-140.4 1099,-140.4"/>
<text xml:space="preserve" text-anchor="middle" x="1126.5" y="-333.7" font-family="Helvetica,sans-Serif" font-size="9.00" fill="#555555">Cool Ideas (77)</text>
</g>
<g id="clust3" class="cluster">
<title>cluster_external</title>
<path fill="#f8fbff" stroke="#cccccc" d="M445,-287.3C445,-287.3 617,-287.3 617,-287.3 623,-287.3 629,-293.3 629,-299.3 629,-299.3 629,-334.25 629,-334.25 629,-340.25 623,-346.25 617,-346.25 617,-346.25 445,-346.25 445,-346.25 439,-346.25 433,-340.25 433,-334.25 433,-334.25 433,-299.3 433,-299.3 433,-293.3 439,-287.3 445,-287.3"/>
<text xml:space="preserve" text-anchor="middle" x="476.25" y="-333.7" font-family="Helvetica,sans-Serif" font-size="9.00" fill="#555555">External blockers</text>
</g>
<g id="clust4" class="cluster">
<title>cluster_unresolved</title>
<path fill="#fff7f7" stroke="#cc3333" stroke-dasharray="5,2" d="M649,-287.3C649,-287.3 1067,-287.3 1067,-287.3 1073,-287.3 1079,-293.3 1079,-299.3 1079,-299.3 1079,-334.25 1079,-334.25 1079,-340.25 1073,-346.25 1067,-346.25 1067,-346.25 649,-346.25 649,-346.25 643,-346.25 637,-340.25 637,-334.25 637,-334.25 637,-299.3 637,-299.3 637,-293.3 643,-287.3 649,-287.3"/>
<text xml:space="preserve" text-anchor="middle" x="693.75" y="-333.7" font-family="Helvetica,sans-Serif" font-size="9.00" fill="#555555">Unresolved internal refs</text>
</g>
<g id="clust5" class="cluster">
<title>cluster_legend</title>
<path fill="none" stroke="#dddddd" d="M11091,-8C11091,-8 11183,-8 11183,-8 11189,-8 11195,-14 11195,-20 11195,-20 11195,-333.5 11195,-333.5 11195,-339.5 11189,-345.5 11183,-345.5 11183,-345.5 11091,-345.5 11091,-345.5 11085,-345.5 11079,-339.5 11079,-333.5 11079,-333.5 11079,-20 11079,-20 11079,-14 11085,-8 11091,-8"/>
<text xml:space="preserve" text-anchor="middle" x="11100.5" y="-333.9" font-family="Helvetica,sans-Serif" font-size="8.00" fill="#aaaaaa">Legend</text>
</g>
<!-- v0_7_0_CORE_agent_drift_warning -->
<g id="node1" class="node">
<title>v0_7_0_CORE_agent_drift_warning</title>
<path fill="#ffa07a" stroke="black" stroke-width="2" d="M265.05,-247.05C265.05,-247.05 172.95,-247.05 172.95,-247.05 168.75,-247.05 164.55,-242.85 164.55,-238.65 164.55,-238.65 164.55,-230.25 164.55,-230.25 164.55,-226.05 168.75,-221.85 172.95,-221.85 172.95,-221.85 265.05,-221.85 265.05,-221.85 269.25,-221.85 273.45,-226.05 273.45,-230.25 273.45,-230.25 273.45,-238.65 273.45,-238.65 273.45,-242.85 269.25,-247.05 265.05,-247.05"/>
<text xml:space="preserve" text-anchor="middle" x="219" y="-231.35" font-family="Helvetica,sans-Serif" font-size="8.00">CORE&#45;agent&#45;drift&#45;warning</text>
</g>
<!-- v0_7_0_CORE_migrate_to_slice_first_reads -->
<g id="node2" class="node">
<title>v0_7_0_CORE_migrate_to_slice_first_reads</title>
<path fill="#ffa07a" stroke="black" stroke-width="2" d="M141.8,-247.05C141.8,-247.05 24.2,-247.05 24.2,-247.05 20,-247.05 15.8,-242.85 15.8,-238.65 15.8,-238.65 15.8,-230.25 15.8,-230.25 15.8,-226.05 20,-221.85 24.2,-221.85 24.2,-221.85 141.8,-221.85 141.8,-221.85 146,-221.85 150.2,-226.05 150.2,-230.25 150.2,-230.25 150.2,-238.65 150.2,-238.65 150.2,-242.85 146,-247.05 141.8,-247.05"/>
<text xml:space="preserve" text-anchor="middle" x="83" y="-231.35" font-family="Helvetica,sans-Serif" font-size="8.00">CORE&#45;migrate&#45;to&#45;slice&#45;first&#45;reads</text>
</g>
<!-- v0_7_0_SURFACE_governed_write_tools -->
<g id="node3" class="node">
<title>v0_7_0_SURFACE_governed_write_tools</title>
<path fill="#ffa07a" stroke="black" stroke-width="2" d="M408.18,-247.05C408.18,-247.05 295.82,-247.05 295.82,-247.05 291.62,-247.05 287.43,-242.85 287.43,-238.65 287.43,-238.65 287.43,-230.25 287.43,-230.25 287.43,-226.05 291.62,-221.85 295.82,-221.85 295.82,-221.85 408.18,-221.85 408.18,-221.85 412.38,-221.85 416.57,-226.05 416.57,-230.25 416.57,-230.25 416.57,-238.65 416.57,-238.65 416.57,-242.85 412.38,-247.05 408.18,-247.05"/>
<text xml:space="preserve" text-anchor="middle" x="352" y="-231.35" font-family="Helvetica,sans-Serif" font-size="8.00">SURFACE&#45;governed&#45;write&#45;tools</text>
</g>
<!-- v0_7_0_WARP_lsp_enrichment -->
<g id="node4" class="node">
<title>v0_7_0_WARP_lsp_enrichment</title>
<path fill="#ffa07a" stroke="black" stroke-width="2" d="M254.55,-320.5C254.55,-320.5 177.45,-320.5 177.45,-320.5 173.25,-320.5 169.05,-316.3 169.05,-312.1 169.05,-312.1 169.05,-303.7 169.05,-303.7 169.05,-299.5 173.25,-295.3 177.45,-295.3 177.45,-295.3 254.55,-295.3 254.55,-295.3 258.75,-295.3 262.95,-299.5 262.95,-303.7 262.95,-303.7 262.95,-312.1 262.95,-312.1 262.95,-316.3 258.75,-320.5 254.55,-320.5"/>
<text xml:space="preserve" text-anchor="middle" x="216" y="-304.8" font-family="Helvetica,sans-Serif" font-size="8.00">WARP&#45;lsp&#45;enrichment</text>
</g>
<!-- cool_ideas_bounded_neighborhood_for_references -->
<g id="node5" class="node">
<title>cool_ideas_bounded_neighborhood_for_references</title>
<path fill="#d4e8f7" stroke="black" d="M1252.17,-320.5C1252.17,-320.5 1103.83,-320.5 1103.83,-320.5 1099.62,-320.5 1095.42,-316.3 1095.42,-312.1 1095.42,-312.1 1095.42,-303.7 1095.42,-303.7 1095.42,-299.5 1099.62,-295.3 1103.83,-295.3 1103.83,-295.3 1252.17,-295.3 1252.17,-295.3 1256.38,-295.3 1260.58,-299.5 1260.58,-303.7 1260.58,-303.7 1260.58,-312.1 1260.58,-312.1 1260.58,-316.3 1256.38,-320.5 1252.17,-320.5"/>
<text xml:space="preserve" text-anchor="middle" x="1178" y="-304.8" font-family="Helvetica,sans-Serif" font-size="8.00">bounded&#45;neighborhood&#45;for&#45;references &#45; S</text>
</g>
<!-- cool_ideas_CI_001_causal_collapse_visualizer -->
<g id="node6" class="node">
<title>cool_ideas_CI_001_causal_collapse_visualizer</title>
<path fill="#d4e8f7" stroke="black" d="M7957.3,-247.05C7957.3,-247.05 7830.7,-247.05 7830.7,-247.05 7826.5,-247.05 7822.3,-242.85 7822.3,-238.65 7822.3,-238.65 7822.3,-230.25 7822.3,-230.25 7822.3,-226.05 7826.5,-221.85 7830.7,-221.85 7830.7,-221.85 7957.3,-221.85 7957.3,-221.85 7961.5,-221.85 7965.7,-226.05 7965.7,-230.25 7965.7,-230.25 7965.7,-238.65 7965.7,-238.65 7965.7,-242.85 7961.5,-247.05 7957.3,-247.05"/>
<text xml:space="preserve" text-anchor="middle" x="7894" y="-231.35" font-family="Helvetica,sans-Serif" font-size="8.00">CI&#45;001&#45;causal&#45;collapse&#45;visualizer &#45; L</text>
</g>
<!-- cool_ideas_CI_002_deterministic_scenario_replay -->
<g id="node7" class="node">
<title>cool_ideas_CI_002_deterministic_scenario_replay</title>
<path fill="#d4e8f7" stroke="black" d="M1422.67,-320.5C1422.67,-320.5 1283.33,-320.5 1283.33,-320.5 1279.12,-320.5 1274.92,-316.3 1274.92,-312.1 1274.92,-312.1 1274.92,-303.7 1274.92,-303.7 1274.92,-299.5 1279.12,-295.3 1283.33,-295.3 1283.33,-295.3 1422.67,-295.3 1422.67,-295.3 1426.88,-295.3 1431.08,-299.5 1431.08,-303.7 1431.08,-303.7 1431.08,-312.1 1431.08,-312.1 1431.08,-316.3 1426.88,-320.5 1422.67,-320.5"/>
<text xml:space="preserve" text-anchor="middle" x="1353" y="-304.8" font-family="Helvetica,sans-Serif" font-size="8.00">CI&#45;002&#45;deterministic&#45;scenario&#45;replay &#45; L</text>
</g>
<!-- cool_ideas_CI_003_mcp_native_diff_protocol -->
<g id="node8" class="node">
<title>cool_ideas_CI_003_mcp_native_diff_protocol</title>
<path fill="#d4e8f7" stroke="black" d="M1576.8,-320.5C1576.8,-320.5 1453.2,-320.5 1453.2,-320.5 1449,-320.5 1444.8,-316.3 1444.8,-312.1 1444.8,-312.1 1444.8,-303.7 1444.8,-303.7 1444.8,-299.5 1449,-295.3 1453.2,-295.3 1453.2,-295.3 1576.8,-295.3 1576.8,-295.3 1581,-295.3 1585.2,-299.5 1585.2,-303.7 1585.2,-303.7 1585.2,-312.1 1585.2,-312.1 1585.2,-316.3 1581,-320.5 1576.8,-320.5"/>
<text xml:space="preserve" text-anchor="middle" x="1515" y="-304.8" font-family="Helvetica,sans-Serif" font-size="8.00">CI&#45;003&#45;mcp&#45;native&#45;diff&#45;protocol &#45; M</text>
</g>
<!-- cool_ideas_CLEAN_CODE_parallel_agent_merge_shared_file_loss -->
<g id="node9" class="node">
<title>cool_ideas_CLEAN_CODE_parallel_agent_merge_shared_file_loss</title>
<path fill="#d4e8f7" stroke="black" d="M1808.05,-320.5C1808.05,-320.5 1607.95,-320.5 1607.95,-320.5 1603.75,-320.5 1599.55,-316.3 1599.55,-312.1 1599.55,-312.1 1599.55,-303.7 1599.55,-303.7 1599.55,-299.5 1603.75,-295.3 1607.95,-295.3 1607.95,-295.3 1808.05,-295.3 1808.05,-295.3 1812.25,-295.3 1816.45,-299.5 1816.45,-303.7 1816.45,-303.7 1816.45,-312.1 1816.45,-312.1 1816.45,-316.3 1812.25,-320.5 1808.05,-320.5"/>
<text xml:space="preserve" text-anchor="middle" x="1708" y="-304.8" font-family="Helvetica,sans-Serif" font-size="8.00">CLEAN&#45;CODE&#45;parallel&#45;agent&#45;merge&#45;shared&#45;file&#45;loss &#45; M</text>
</g>
<!-- cool_ideas_CORE_agent_handoff_protocol -->
<g id="node10" class="node">
<title>cool_ideas_CORE_agent_handoff_protocol</title>
<path fill="#d4e8f7" stroke="black" d="M1958.92,-320.5C1958.92,-320.5 1839.08,-320.5 1839.08,-320.5 1834.88,-320.5 1830.67,-316.3 1830.67,-312.1 1830.67,-312.1 1830.67,-303.7 1830.67,-303.7 1830.67,-299.5 1834.88,-295.3 1839.08,-295.3 1839.08,-295.3 1958.92,-295.3 1958.92,-295.3 1963.12,-295.3 1967.33,-299.5 1967.33,-303.7 1967.33,-303.7 1967.33,-312.1 1967.33,-312.1 1967.33,-316.3 1963.12,-320.5 1958.92,-320.5"/>
<text xml:space="preserve" text-anchor="middle" x="1899" y="-304.8" font-family="Helvetica,sans-Serif" font-size="8.00">CORE&#45;agent&#45;handoff&#45;protocol &#45; M</text>
</g>
<!-- cool_ideas_CORE_auto_focus -->
<g id="node11" class="node">
<title>cool_ideas_CORE_auto_focus</title>
<path fill="#d4e8f7" stroke="black" d="M2062.67,-320.5C2062.67,-320.5 1989.33,-320.5 1989.33,-320.5 1985.12,-320.5 1980.92,-316.3 1980.92,-312.1 1980.92,-312.1 1980.92,-303.7 1980.92,-303.7 1980.92,-299.5 1985.12,-295.3 1989.33,-295.3 1989.33,-295.3 2062.67,-295.3 2062.67,-295.3 2066.88,-295.3 2071.07,-299.5 2071.07,-303.7 2071.07,-303.7 2071.07,-312.1 2071.07,-312.1 2071.07,-316.3 2066.88,-320.5 2062.67,-320.5"/>
<text xml:space="preserve" text-anchor="middle" x="2026" y="-304.8" font-family="Helvetica,sans-Serif" font-size="8.00">CORE&#45;auto&#45;focus &#45; L</text>
</g>
<!-- cool_ideas_CORE_backlog_status_tool -->
<g id="node12" class="node">
<title>cool_ideas_CORE_backlog_status_tool</title>
<path fill="#d4e8f7" stroke="black" d="M2196.67,-320.5C2196.67,-320.5 2093.33,-320.5 2093.33,-320.5 2089.12,-320.5 2084.93,-316.3 2084.93,-312.1 2084.93,-312.1 2084.93,-303.7 2084.93,-303.7 2084.93,-299.5 2089.12,-295.3 2093.33,-295.3 2093.33,-295.3 2196.67,-295.3 2196.67,-295.3 2200.88,-295.3 2205.07,-299.5 2205.07,-303.7 2205.07,-303.7 2205.07,-312.1 2205.07,-312.1 2205.07,-316.3 2200.88,-320.5 2196.67,-320.5"/>
<text xml:space="preserve" text-anchor="middle" x="2145" y="-304.8" font-family="Helvetica,sans-Serif" font-size="8.00">CORE&#45;backlog&#45;status&#45;tool &#45; S</text>
</g>
<!-- cool_ideas_CORE_capture_range -->
<g id="node13" class="node">
<title>cool_ideas_CORE_capture_range</title>
<path fill="#d4e8f7" stroke="black" d="M2314.8,-320.5C2314.8,-320.5 2227.2,-320.5 2227.2,-320.5 2223,-320.5 2218.8,-316.3 2218.8,-312.1 2218.8,-312.1 2218.8,-303.7 2218.8,-303.7 2218.8,-299.5 2223,-295.3 2227.2,-295.3 2227.2,-295.3 2314.8,-295.3 2314.8,-295.3 2319,-295.3 2323.2,-299.5 2323.2,-303.7 2323.2,-303.7 2323.2,-312.1 2323.2,-312.1 2323.2,-316.3 2319,-320.5 2314.8,-320.5"/>
<text xml:space="preserve" text-anchor="middle" x="2271" y="-304.8" font-family="Helvetica,sans-Serif" font-size="8.00">CORE&#45;capture&#45;range &#45; S</text>
</g>
<!-- cool_ideas_CORE_constructor_in_disguise_lint -->
<g id="node14" class="node">
<title>cool_ideas_CORE_constructor_in_disguise_lint</title>
<path fill="#d4e8f7" stroke="black" d="M2476.55,-320.5C2476.55,-320.5 2345.45,-320.5 2345.45,-320.5 2341.25,-320.5 2337.05,-316.3 2337.05,-312.1 2337.05,-312.1 2337.05,-303.7 2337.05,-303.7 2337.05,-299.5 2341.25,-295.3 2345.45,-295.3 2345.45,-295.3 2476.55,-295.3 2476.55,-295.3 2480.75,-295.3 2484.95,-299.5 2484.95,-303.7 2484.95,-303.7 2484.95,-312.1 2484.95,-312.1 2484.95,-316.3 2480.75,-320.5 2476.55,-320.5"/>
<text xml:space="preserve" text-anchor="middle" x="2411" y="-304.8" font-family="Helvetica,sans-Serif" font-size="8.00">CORE&#45;constructor&#45;in&#45;disguise&#45;lint &#45; M</text>
</g>
<!-- cool_ideas_CORE_context_budget_forecasting -->
<g id="node15" class="node">
<title>cool_ideas_CORE_context_budget_forecasting</title>
<path fill="#d4e8f7" stroke="black" d="M2640.67,-320.5C2640.67,-320.5 2507.33,-320.5 2507.33,-320.5 2503.12,-320.5 2498.93,-316.3 2498.93,-312.1 2498.93,-312.1 2498.93,-303.7 2498.93,-303.7 2498.93,-299.5 2503.12,-295.3 2507.33,-295.3 2507.33,-295.3 2640.67,-295.3 2640.67,-295.3 2644.88,-295.3 2649.07,-299.5 2649.07,-303.7 2649.07,-303.7 2649.07,-312.1 2649.07,-312.1 2649.07,-316.3 2644.88,-320.5 2640.67,-320.5"/>
<text xml:space="preserve" text-anchor="middle" x="2574" y="-304.8" font-family="Helvetica,sans-Serif" font-size="8.00">CORE&#45;context&#45;budget&#45;forecasting &#45; M</text>
</g>
<!-- cool_ideas_CORE_conversation_primer -->
<g id="node16" class="node">
<title>cool_ideas_CORE_conversation_primer</title>
<path fill="#d4e8f7" stroke="black" d="M2780.67,-320.5C2780.67,-320.5 2671.33,-320.5 2671.33,-320.5 2667.12,-320.5 2662.93,-316.3 2662.93,-312.1 2662.93,-312.1 2662.93,-303.7 2662.93,-303.7 2662.93,-299.5 2667.12,-295.3 2671.33,-295.3 2671.33,-295.3 2780.67,-295.3 2780.67,-295.3 2784.88,-295.3 2789.07,-299.5 2789.07,-303.7 2789.07,-303.7 2789.07,-312.1 2789.07,-312.1 2789.07,-316.3 2784.88,-320.5 2780.67,-320.5"/>
<text xml:space="preserve" text-anchor="middle" x="2726" y="-304.8" font-family="Helvetica,sans-Serif" font-size="8.00">CORE&#45;conversation&#45;primer &#45; M</text>
</g>
<!-- cool_ideas_CORE_cross_session_resume -->
<g id="node17" class="node">
<title>cool_ideas_CORE_cross_session_resume</title>
<path fill="#d4e8f7" stroke="black" d="M2926.3,-320.5C2926.3,-320.5 2811.7,-320.5 2811.7,-320.5 2807.5,-320.5 2803.3,-316.3 2803.3,-312.1 2803.3,-312.1 2803.3,-303.7 2803.3,-303.7 2803.3,-299.5 2807.5,-295.3 2811.7,-295.3 2811.7,-295.3 2926.3,-295.3 2926.3,-295.3 2930.5,-295.3 2934.7,-299.5 2934.7,-303.7 2934.7,-303.7 2934.7,-312.1 2934.7,-312.1 2934.7,-316.3 2930.5,-320.5 2926.3,-320.5"/>
<text xml:space="preserve" text-anchor="middle" x="2869" y="-304.8" font-family="Helvetica,sans-Serif" font-size="8.00">CORE&#45;cross&#45;session&#45;resume &#45; S</text>
</g>
<!-- cool_ideas_CORE_graft_as_teacher -->
<g id="node18" class="node">
<title>cool_ideas_CORE_graft_as_teacher</title>
<path fill="#d4e8f7" stroke="black" d="M3051.17,-320.5C3051.17,-320.5 2956.83,-320.5 2956.83,-320.5 2952.62,-320.5 2948.43,-316.3 2948.43,-312.1 2948.43,-312.1 2948.43,-303.7 2948.43,-303.7 2948.43,-299.5 2952.62,-295.3 2956.83,-295.3 2956.83,-295.3 3051.17,-295.3 3051.17,-295.3 3055.38,-295.3 3059.57,-299.5 3059.57,-303.7 3059.57,-303.7 3059.57,-312.1 3059.57,-312.1 3059.57,-316.3 3055.38,-320.5 3051.17,-320.5"/>
<text xml:space="preserve" text-anchor="middle" x="3004" y="-304.8" font-family="Helvetica,sans-Serif" font-size="8.00">CORE&#45;graft&#45;as&#45;teacher &#45; S</text>
</g>
<!-- cool_ideas_CORE_graft_doctor -->
<g id="node19" class="node">
<title>cool_ideas_CORE_graft_doctor</title>
<path fill="#d4e8f7" stroke="black" d="M3162.05,-320.5C3162.05,-320.5 3081.95,-320.5 3081.95,-320.5 3077.75,-320.5 3073.55,-316.3 3073.55,-312.1 3073.55,-312.1 3073.55,-303.7 3073.55,-303.7 3073.55,-299.5 3077.75,-295.3 3081.95,-295.3 3081.95,-295.3 3162.05,-295.3 3162.05,-295.3 3166.25,-295.3 3170.45,-299.5 3170.45,-303.7 3170.45,-303.7 3170.45,-312.1 3170.45,-312.1 3170.45,-316.3 3166.25,-320.5 3162.05,-320.5"/>
<text xml:space="preserve" text-anchor="middle" x="3122" y="-304.8" font-family="Helvetica,sans-Serif" font-size="8.00">CORE&#45;graft&#45;doctor &#45; M</text>
</g>
<!-- cool_ideas_CORE_graft_teach_learning_receipts -->
<g id="node20" class="node">
<title>cool_ideas_CORE_graft_teach_learning_receipts</title>
<path fill="#d4e8f7" stroke="black" d="M3330.92,-320.5C3330.92,-320.5 3193.08,-320.5 3193.08,-320.5 3188.88,-320.5 3184.68,-316.3 3184.68,-312.1 3184.68,-312.1 3184.68,-303.7 3184.68,-303.7 3184.68,-299.5 3188.88,-295.3 3193.08,-295.3 3193.08,-295.3 3330.92,-295.3 3330.92,-295.3 3335.12,-295.3 3339.32,-299.5 3339.32,-303.7 3339.32,-303.7 3339.32,-312.1 3339.32,-312.1 3339.32,-316.3 3335.12,-320.5 3330.92,-320.5"/>
<text xml:space="preserve" text-anchor="middle" x="3262" y="-304.8" font-family="Helvetica,sans-Serif" font-size="8.00">CORE&#45;graft&#45;teach&#45;learning&#45;receipts &#45; S</text>
</g>
<!-- cool_ideas_CORE_horizon_of_readability -->
<g id="node21" class="node">
<title>cool_ideas_CORE_horizon_of_readability</title>
<path fill="#d4e8f7" stroke="black" d="M3474.55,-320.5C3474.55,-320.5 3361.45,-320.5 3361.45,-320.5 3357.25,-320.5 3353.05,-316.3 3353.05,-312.1 3353.05,-312.1 3353.05,-303.7 3353.05,-303.7 3353.05,-299.5 3357.25,-295.3 3361.45,-295.3 3361.45,-295.3 3474.55,-295.3 3474.55,-295.3 3478.75,-295.3 3482.95,-299.5 3482.95,-303.7 3482.95,-303.7 3482.95,-312.1 3482.95,-312.1 3482.95,-316.3 3478.75,-320.5 3474.55,-320.5"/>
<text xml:space="preserve" text-anchor="middle" x="3418" y="-304.8" font-family="Helvetica,sans-Serif" font-size="8.00">CORE&#45;horizon&#45;of&#45;readability &#45; M</text>
</g>
<!-- cool_ideas_CORE_lagrangian_policy -->
<g id="node22" class="node">
<title>cool_ideas_CORE_lagrangian_policy</title>
<path fill="#d4e8f7" stroke="black" d="M3606.55,-320.5C3606.55,-320.5 3505.45,-320.5 3505.45,-320.5 3501.25,-320.5 3497.05,-316.3 3497.05,-312.1 3497.05,-312.1 3497.05,-303.7 3497.05,-303.7 3497.05,-299.5 3501.25,-295.3 3505.45,-295.3 3505.45,-295.3 3606.55,-295.3 3606.55,-295.3 3610.75,-295.3 3614.95,-299.5 3614.95,-303.7 3614.95,-303.7 3614.95,-312.1 3614.95,-312.1 3614.95,-316.3 3610.75,-320.5 3606.55,-320.5"/>
<text xml:space="preserve" text-anchor="middle" x="3556" y="-304.8" font-family="Helvetica,sans-Serif" font-size="8.00">CORE&#45;lagrangian&#45;policy &#45; XL</text>
</g>
<!-- cool_ideas_CORE_multi_agent_conflict_detection -->
<g id="node23" class="node">
<title>cool_ideas_CORE_multi_agent_conflict_detection</title>
<path fill="#d4e8f7" stroke="black" d="M3774.92,-320.5C3774.92,-320.5 3637.08,-320.5 3637.08,-320.5 3632.88,-320.5 3628.68,-316.3 3628.68,-312.1 3628.68,-312.1 3628.68,-303.7 3628.68,-303.7 3628.68,-299.5 3632.88,-295.3 3637.08,-295.3 3637.08,-295.3 3774.92,-295.3 3774.92,-295.3 3779.12,-295.3 3783.32,-299.5 3783.32,-303.7 3783.32,-303.7 3783.32,-312.1 3783.32,-312.1 3783.32,-316.3 3779.12,-320.5 3774.92,-320.5"/>
<text xml:space="preserve" text-anchor="middle" x="3706" y="-304.8" font-family="Helvetica,sans-Serif" font-size="8.00">CORE&#45;multi&#45;agent&#45;conflict&#45;detection &#45; L</text>
</g>
<!-- cool_ideas_CORE_policy_playground -->
<g id="node24" class="node">
<title>cool_ideas_CORE_policy_playground</title>
<path fill="#d4e8f7" stroke="black" d="M3904.42,-320.5C3904.42,-320.5 3805.58,-320.5 3805.58,-320.5 3801.38,-320.5 3797.18,-316.3 3797.18,-312.1 3797.18,-312.1 3797.18,-303.7 3797.18,-303.7 3797.18,-299.5 3801.38,-295.3 3805.58,-295.3 3805.58,-295.3 3904.42,-295.3 3904.42,-295.3 3908.62,-295.3 3912.82,-299.5 3912.82,-303.7 3912.82,-303.7 3912.82,-312.1 3912.82,-312.1 3912.82,-316.3 3908.62,-320.5 3904.42,-320.5"/>
<text xml:space="preserve" text-anchor="middle" x="3855" y="-304.8" font-family="Helvetica,sans-Serif" font-size="8.00">CORE&#45;policy&#45;playground &#45; S</text>
</g>
<!-- cool_ideas_CORE_policy_profiles -->
<g id="node25" class="node">
<title>cool_ideas_CORE_policy_profiles</title>
<path fill="#d4e8f7" stroke="black" d="M4021.05,-320.5C4021.05,-320.5 3934.95,-320.5 3934.95,-320.5 3930.75,-320.5 3926.55,-316.3 3926.55,-312.1 3926.55,-312.1 3926.55,-303.7 3926.55,-303.7 3926.55,-299.5 3930.75,-295.3 3934.95,-295.3 3934.95,-295.3 4021.05,-295.3 4021.05,-295.3 4025.25,-295.3 4029.45,-299.5 4029.45,-303.7 4029.45,-303.7 4029.45,-312.1 4029.45,-312.1 4029.45,-316.3 4025.25,-320.5 4021.05,-320.5"/>
<text xml:space="preserve" text-anchor="middle" x="3978" y="-304.8" font-family="Helvetica,sans-Serif" font-size="8.00">CORE&#45;policy&#45;profiles &#45; M</text>
</g>
<!-- cool_ideas_CORE_pr_review_structural_summary -->
<g id="node26" class="node">
<title>cool_ideas_CORE_pr_review_structural_summary</title>
<path fill="#d4e8f7" stroke="black" d="M4195.93,-320.5C4195.93,-320.5 4052.08,-320.5 4052.08,-320.5 4047.88,-320.5 4043.68,-316.3 4043.68,-312.1 4043.68,-312.1 4043.68,-303.7 4043.68,-303.7 4043.68,-299.5 4047.88,-295.3 4052.08,-295.3 4052.08,-295.3 4195.93,-295.3 4195.93,-295.3 4200.12,-295.3 4204.32,-299.5 4204.32,-303.7 4204.32,-303.7 4204.32,-312.1 4204.32,-312.1 4204.32,-316.3 4200.12,-320.5 4195.93,-320.5"/>
<text xml:space="preserve" text-anchor="middle" x="4124" y="-304.8" font-family="Helvetica,sans-Serif" font-size="8.00">CORE&#45;pr&#45;review&#45;structural&#45;summary &#45; M</text>
</g>
<!-- cool_ideas_CORE_self_tuning_governor -->
<g id="node27" class="node">
<title>cool_ideas_CORE_self_tuning_governor</title>
<path fill="#d4e8f7" stroke="black" d="M4337.05,-320.5C4337.05,-320.5 4226.95,-320.5 4226.95,-320.5 4222.75,-320.5 4218.55,-316.3 4218.55,-312.1 4218.55,-312.1 4218.55,-303.7 4218.55,-303.7 4218.55,-299.5 4222.75,-295.3 4226.95,-295.3 4226.95,-295.3 4337.05,-295.3 4337.05,-295.3 4341.25,-295.3 4345.45,-299.5 4345.45,-303.7 4345.45,-303.7 4345.45,-312.1 4345.45,-312.1 4345.45,-316.3 4341.25,-320.5 4337.05,-320.5"/>
<text xml:space="preserve" text-anchor="middle" x="4282" y="-304.8" font-family="Helvetica,sans-Serif" font-size="8.00">CORE&#45;self&#45;tuning&#45;governor &#45; M</text>
</g>
<!-- cool_ideas_CORE_session_knowledge_map -->
<g id="node28" class="node">
<title>cool_ideas_CORE_session_knowledge_map</title>
<path fill="#d4e8f7" stroke="black" d="M4490.43,-320.5C4490.43,-320.5 4367.57,-320.5 4367.57,-320.5 4363.38,-320.5 4359.18,-316.3 4359.18,-312.1 4359.18,-312.1 4359.18,-303.7 4359.18,-303.7 4359.18,-299.5 4363.38,-295.3 4367.57,-295.3 4367.57,-295.3 4490.43,-295.3 4490.43,-295.3 4494.62,-295.3 4498.82,-299.5 4498.82,-303.7 4498.82,-303.7 4498.82,-312.1 4498.82,-312.1 4498.82,-316.3 4494.62,-320.5 4490.43,-320.5"/>
<text xml:space="preserve" text-anchor="middle" x="4429" y="-304.8" font-family="Helvetica,sans-Serif" font-size="8.00">CORE&#45;session&#45;knowledge&#45;map &#45; S</text>
</g>
<!-- cool_ideas_CORE_speculative_read_cost -->
<g id="node29" class="node">
<title>cool_ideas_CORE_speculative_read_cost</title>
<path fill="#d4e8f7" stroke="black" d="M4633.18,-320.5C4633.18,-320.5 4520.82,-320.5 4520.82,-320.5 4516.62,-320.5 4512.43,-316.3 4512.43,-312.1 4512.43,-312.1 4512.43,-303.7 4512.43,-303.7 4512.43,-299.5 4516.62,-295.3 4520.82,-295.3 4520.82,-295.3 4633.18,-295.3 4633.18,-295.3 4637.38,-295.3 4641.57,-299.5 4641.57,-303.7 4641.57,-303.7 4641.57,-312.1 4641.57,-312.1 4641.57,-316.3 4637.38,-320.5 4633.18,-320.5"/>
<text xml:space="preserve" text-anchor="middle" x="4577" y="-304.8" font-family="Helvetica,sans-Serif" font-size="8.00">CORE&#45;speculative&#45;read&#45;cost &#45; S</text>
</g>
<!-- cool_ideas_CORE_structural_session_replay -->
<g id="node30" class="node">
<title>cool_ideas_CORE_structural_session_replay</title>
<path fill="#d4e8f7" stroke="black" d="M4789.55,-320.5C4789.55,-320.5 4664.45,-320.5 4664.45,-320.5 4660.25,-320.5 4656.05,-316.3 4656.05,-312.1 4656.05,-312.1 4656.05,-303.7 4656.05,-303.7 4656.05,-299.5 4660.25,-295.3 4664.45,-295.3 4664.45,-295.3 4789.55,-295.3 4789.55,-295.3 4793.75,-295.3 4797.95,-299.5 4797.95,-303.7 4797.95,-303.7 4797.95,-312.1 4797.95,-312.1 4797.95,-316.3 4793.75,-320.5 4789.55,-320.5"/>
<text xml:space="preserve" text-anchor="middle" x="4727" y="-304.8" font-family="Helvetica,sans-Serif" font-size="8.00">CORE&#45;structural&#45;session&#45;replay &#45; M</text>
</g>
<!-- cool_ideas_CORE_structural_test_coverage_map -->
<g id="node31" class="node">
<title>cool_ideas_CORE_structural_test_coverage_map</title>
<path fill="#d4e8f7" stroke="black" d="M4961.8,-320.5C4961.8,-320.5 4820.2,-320.5 4820.2,-320.5 4816,-320.5 4811.8,-316.3 4811.8,-312.1 4811.8,-312.1 4811.8,-303.7 4811.8,-303.7 4811.8,-299.5 4816,-295.3 4820.2,-295.3 4820.2,-295.3 4961.8,-295.3 4961.8,-295.3 4966,-295.3 4970.2,-299.5 4970.2,-303.7 4970.2,-303.7 4970.2,-312.1 4970.2,-312.1 4970.2,-316.3 4966,-320.5 4961.8,-320.5"/>
<text xml:space="preserve" text-anchor="middle" x="4891" y="-304.8" font-family="Helvetica,sans-Serif" font-size="8.00">CORE&#45;structural&#45;test&#45;coverage&#45;map &#45; M</text>
</g>
<!-- cool_ideas_CORE_wire_primitives_into_runtime -->
<g id="node32" class="node">
<title>cool_ideas_CORE_wire_primitives_into_runtime</title>
<path fill="#d4e8f7" stroke="black" d="M5127.43,-320.5C5127.43,-320.5 4992.57,-320.5 4992.57,-320.5 4988.38,-320.5 4984.18,-316.3 4984.18,-312.1 4984.18,-312.1 4984.18,-303.7 4984.18,-303.7 4984.18,-299.5 4988.38,-295.3 4992.57,-295.3 4992.57,-295.3 5127.43,-295.3 5127.43,-295.3 5131.62,-295.3 5135.82,-299.5 5135.82,-303.7 5135.82,-303.7 5135.82,-312.1 5135.82,-312.1 5135.82,-316.3 5131.62,-320.5 5127.43,-320.5"/>
<text xml:space="preserve" text-anchor="middle" x="5060" y="-304.8" font-family="Helvetica,sans-Serif" font-size="8.00">CORE&#45;wire&#45;primitives&#45;into&#45;runtime &#45; M</text>
</g>
<!-- cool_ideas_monitor_tick_ceiling_tracking -->
<g id="node33" class="node">
<title>cool_ideas_monitor_tick_ceiling_tracking</title>
<path fill="#d4e8f7" stroke="black" d="M5265.55,-320.5C5265.55,-320.5 5158.45,-320.5 5158.45,-320.5 5154.25,-320.5 5150.05,-316.3 5150.05,-312.1 5150.05,-312.1 5150.05,-303.7 5150.05,-303.7 5150.05,-299.5 5154.25,-295.3 5158.45,-295.3 5158.45,-295.3 5265.55,-295.3 5265.55,-295.3 5269.75,-295.3 5273.95,-299.5 5273.95,-303.7 5273.95,-303.7 5273.95,-312.1 5273.95,-312.1 5273.95,-316.3 5269.75,-320.5 5265.55,-320.5"/>
<text xml:space="preserve" text-anchor="middle" x="5212" y="-304.8" font-family="Helvetica,sans-Serif" font-size="8.00">monitor&#45;tick&#45;ceiling&#45;tracking &#45; S</text>
</g>
<!-- cool_ideas_WARP_background_indexing -->
<g id="node49" class="node">
<title>cool_ideas_WARP_background_indexing</title>
<path fill="#d4e8f7" stroke="black" d="M5268.55,-247.05C5268.55,-247.05 5155.45,-247.05 5155.45,-247.05 5151.25,-247.05 5147.05,-242.85 5147.05,-238.65 5147.05,-238.65 5147.05,-230.25 5147.05,-230.25 5147.05,-226.05 5151.25,-221.85 5155.45,-221.85 5155.45,-221.85 5268.55,-221.85 5268.55,-221.85 5272.75,-221.85 5276.95,-226.05 5276.95,-230.25 5276.95,-230.25 5276.95,-238.65 5276.95,-238.65 5276.95,-242.85 5272.75,-247.05 5268.55,-247.05"/>
<text xml:space="preserve" text-anchor="middle" x="5212" y="-231.35" font-family="Helvetica,sans-Serif" font-size="8.00">WARP&#45;background&#45;indexing &#45; M</text>
</g>
<!-- cool_ideas_monitor_tick_ceiling_tracking&#45;&gt;cool_ideas_WARP_background_indexing -->
<g id="edge1" class="edge">
<title>cool_ideas_monitor_tick_ceiling_tracking&#45;&gt;cool_ideas_WARP_background_indexing</title>
<path fill="none" stroke="#666666" d="M5212,-295.1C5212,-283.9 5212,-266.88 5212,-253.88"/>
<polygon fill="#666666" stroke="#666666" points="5213.75,-254.02 5212,-249.02 5210.25,-254.02 5213.75,-254.02"/>
<text xml:space="preserve" text-anchor="middle" x="5243.5" y="-268.65" font-family="Helvetica,sans-Serif" font-size="7.00">blocked_by/blocking</text>
</g>
<!-- cool_ideas_SURFACE_active_causal_workspace_status -->
<g id="node34" class="node">
<title>cool_ideas_SURFACE_active_causal_workspace_status</title>
<path fill="#d4e8f7" stroke="black" d="M5460.05,-320.5C5460.05,-320.5 5295.95,-320.5 5295.95,-320.5 5291.75,-320.5 5287.55,-316.3 5287.55,-312.1 5287.55,-312.1 5287.55,-303.7 5287.55,-303.7 5287.55,-299.5 5291.75,-295.3 5295.95,-295.3 5295.95,-295.3 5460.05,-295.3 5460.05,-295.3 5464.25,-295.3 5468.45,-299.5 5468.45,-303.7 5468.45,-303.7 5468.45,-312.1 5468.45,-312.1 5468.45,-316.3 5464.25,-320.5 5460.05,-320.5"/>
<text xml:space="preserve" text-anchor="middle" x="5378" y="-304.8" font-family="Helvetica,sans-Serif" font-size="8.00">SURFACE&#45;active&#45;causal&#45;workspace&#45;status &#45; M</text>
</g>
<!-- cool_ideas_SURFACE_ide_native_graft_integration -->
<g id="node40" class="node">
<title>cool_ideas_SURFACE_ide_native_graft_integration</title>
<path fill="#d4e8f7" stroke="black" d="M5453.3,-247.05C5453.3,-247.05 5302.7,-247.05 5302.7,-247.05 5298.5,-247.05 5294.3,-242.85 5294.3,-238.65 5294.3,-238.65 5294.3,-230.25 5294.3,-230.25 5294.3,-226.05 5298.5,-221.85 5302.7,-221.85 5302.7,-221.85 5453.3,-221.85 5453.3,-221.85 5457.5,-221.85 5461.7,-226.05 5461.7,-230.25 5461.7,-230.25 5461.7,-238.65 5461.7,-238.65 5461.7,-242.85 5457.5,-247.05 5453.3,-247.05"/>
<text xml:space="preserve" text-anchor="middle" x="5378" y="-231.35" font-family="Helvetica,sans-Serif" font-size="8.00">SURFACE&#45;ide&#45;native&#45;graft&#45;integration &#45; XL</text>
</g>
<!-- cool_ideas_SURFACE_active_causal_workspace_status&#45;&gt;cool_ideas_SURFACE_ide_native_graft_integration -->
<g id="edge2" class="edge">
<title>cool_ideas_SURFACE_active_causal_workspace_status&#45;&gt;cool_ideas_SURFACE_ide_native_graft_integration</title>
<path fill="none" stroke="#666666" d="M5378,-295.1C5378,-283.9 5378,-266.88 5378,-253.88"/>
<polygon fill="#666666" stroke="#666666" points="5379.75,-254.02 5378,-249.02 5376.25,-254.02 5379.75,-254.02"/>
<text xml:space="preserve" text-anchor="middle" x="5409.5" y="-268.65" font-family="Helvetica,sans-Serif" font-size="7.00">blocked_by/blocking</text>
</g>
<!-- cool_ideas_SURFACE_attach_to_existing_causal_session -->
<g id="node35" class="node">
<title>cool_ideas_SURFACE_attach_to_existing_causal_session</title>
<path fill="#d4e8f7" stroke="black" d="M5659.3,-320.5C5659.3,-320.5 5490.7,-320.5 5490.7,-320.5 5486.5,-320.5 5482.3,-316.3 5482.3,-312.1 5482.3,-312.1 5482.3,-303.7 5482.3,-303.7 5482.3,-299.5 5486.5,-295.3 5490.7,-295.3 5490.7,-295.3 5659.3,-295.3 5659.3,-295.3 5663.5,-295.3 5667.7,-299.5 5667.7,-303.7 5667.7,-303.7 5667.7,-312.1 5667.7,-312.1 5667.7,-316.3 5663.5,-320.5 5659.3,-320.5"/>
<text xml:space="preserve" text-anchor="middle" x="5575" y="-304.8" font-family="Helvetica,sans-Serif" font-size="8.00">SURFACE&#45;attach&#45;to&#45;existing&#45;causal&#45;session &#45; M</text>
</g>
<!-- cool_ideas_SURFACE_bijou_daemon_control_plane_actions -->
<g id="node36" class="node">
<title>cool_ideas_SURFACE_bijou_daemon_control_plane_actions</title>
<path fill="#d4e8f7" stroke="black" d="M5867.43,-320.5C5867.43,-320.5 5690.57,-320.5 5690.57,-320.5 5686.38,-320.5 5682.18,-316.3 5682.18,-312.1 5682.18,-312.1 5682.18,-303.7 5682.18,-303.7 5682.18,-299.5 5686.38,-295.3 5690.57,-295.3 5690.57,-295.3 5867.43,-295.3 5867.43,-295.3 5871.62,-295.3 5875.82,-299.5 5875.82,-303.7 5875.82,-303.7 5875.82,-312.1 5875.82,-312.1 5875.82,-316.3 5871.62,-320.5 5867.43,-320.5"/>
<text xml:space="preserve" text-anchor="middle" x="5779" y="-304.8" font-family="Helvetica,sans-Serif" font-size="8.00">SURFACE&#45;bijou&#45;daemon&#45;control&#45;plane&#45;actions &#45; L</text>
</g>
<!-- cool_ideas_SURFACE_bijou_daemon_status_live_refresh -->
<g id="node37" class="node">
<title>cool_ideas_SURFACE_bijou_daemon_status_live_refresh</title>
<path fill="#d4e8f7" stroke="black" d="M6067.3,-320.5C6067.3,-320.5 5898.7,-320.5 5898.7,-320.5 5894.5,-320.5 5890.3,-316.3 5890.3,-312.1 5890.3,-312.1 5890.3,-303.7 5890.3,-303.7 5890.3,-299.5 5894.5,-295.3 5898.7,-295.3 5898.7,-295.3 6067.3,-295.3 6067.3,-295.3 6071.5,-295.3 6075.7,-299.5 6075.7,-303.7 6075.7,-303.7 6075.7,-312.1 6075.7,-312.1 6075.7,-316.3 6071.5,-320.5 6067.3,-320.5"/>
<text xml:space="preserve" text-anchor="middle" x="5983" y="-304.8" font-family="Helvetica,sans-Serif" font-size="8.00">SURFACE&#45;bijou&#45;daemon&#45;status&#45;live&#45;refresh &#45; M</text>
</g>
<!-- cool_ideas_SURFACE_git_graft_enhance_expanded_git_subcommands -->
<g id="node38" class="node">
<title>cool_ideas_SURFACE_git_graft_enhance_expanded_git_subcommands</title>
<path fill="#d4e8f7" stroke="black" d="M6302.3,-320.5C6302.3,-320.5 6097.7,-320.5 6097.7,-320.5 6093.5,-320.5 6089.3,-316.3 6089.3,-312.1 6089.3,-312.1 6089.3,-303.7 6089.3,-303.7 6089.3,-299.5 6093.5,-295.3 6097.7,-295.3 6097.7,-295.3 6302.3,-295.3 6302.3,-295.3 6306.5,-295.3 6310.7,-299.5 6310.7,-303.7 6310.7,-303.7 6310.7,-312.1 6310.7,-312.1 6310.7,-316.3 6306.5,-320.5 6302.3,-320.5"/>
<text xml:space="preserve" text-anchor="middle" x="6200" y="-304.8" font-family="Helvetica,sans-Serif" font-size="8.00">SURFACE&#45;git&#45;graft&#45;enhance&#45;expanded&#45;git&#45;subcommands</text>
</g>
<!-- cool_ideas_SURFACE_git_graft_enhance_provenance_hints -->
<g id="node39" class="node">
<title>cool_ideas_SURFACE_git_graft_enhance_provenance_hints</title>
<path fill="#d4e8f7" stroke="black" d="M6498.43,-320.5C6498.43,-320.5 6333.57,-320.5 6333.57,-320.5 6329.38,-320.5 6325.18,-316.3 6325.18,-312.1 6325.18,-312.1 6325.18,-303.7 6325.18,-303.7 6325.18,-299.5 6329.38,-295.3 6333.57,-295.3 6333.57,-295.3 6498.43,-295.3 6498.43,-295.3 6502.62,-295.3 6506.82,-299.5 6506.82,-303.7 6506.82,-303.7 6506.82,-312.1 6506.82,-312.1 6506.82,-316.3 6502.62,-320.5 6498.43,-320.5"/>
<text xml:space="preserve" text-anchor="middle" x="6416" y="-304.8" font-family="Helvetica,sans-Serif" font-size="8.00">SURFACE&#45;git&#45;graft&#45;enhance&#45;provenance&#45;hints</text>
</g>
<!-- cool_ideas_SURFACE_local_history_dag_render_mode_and_count_legend -->
<g id="node41" class="node">
<title>cool_ideas_SURFACE_local_history_dag_render_mode_and_count_legend</title>
<path fill="#d4e8f7" stroke="black" d="M6755.18,-320.5C6755.18,-320.5 6528.82,-320.5 6528.82,-320.5 6524.62,-320.5 6520.43,-316.3 6520.43,-312.1 6520.43,-312.1 6520.43,-303.7 6520.43,-303.7 6520.43,-299.5 6524.62,-295.3 6528.82,-295.3 6528.82,-295.3 6755.18,-295.3 6755.18,-295.3 6759.38,-295.3 6763.57,-299.5 6763.57,-303.7 6763.57,-303.7 6763.57,-312.1 6763.57,-312.1 6763.57,-316.3 6759.38,-320.5 6755.18,-320.5"/>
<text xml:space="preserve" text-anchor="middle" x="6642" y="-304.8" font-family="Helvetica,sans-Serif" font-size="8.00">SURFACE&#45;local&#45;history&#45;dag&#45;render&#45;mode&#45;and&#45;count&#45;legend &#45; S</text>
</g>
<!-- cool_ideas_SURFACE_non_codex_instruction_bootstrap_parity -->
<g id="node42" class="node">
<title>cool_ideas_SURFACE_non_codex_instruction_bootstrap_parity</title>
<path fill="#d4e8f7" stroke="black" d="M6974.43,-320.5C6974.43,-320.5 6785.57,-320.5 6785.57,-320.5 6781.38,-320.5 6777.18,-316.3 6777.18,-312.1 6777.18,-312.1 6777.18,-303.7 6777.18,-303.7 6777.18,-299.5 6781.38,-295.3 6785.57,-295.3 6785.57,-295.3 6974.43,-295.3 6974.43,-295.3 6978.62,-295.3 6982.82,-299.5 6982.82,-303.7 6982.82,-303.7 6982.82,-312.1 6982.82,-312.1 6982.82,-316.3 6978.62,-320.5 6974.43,-320.5"/>
<text xml:space="preserve" text-anchor="middle" x="6880" y="-304.8" font-family="Helvetica,sans-Serif" font-size="8.00">SURFACE&#45;non&#45;codex&#45;instruction&#45;bootstrap&#45;parity &#45; M</text>
</g>
<!-- cool_ideas_SURFACE_offer_rename_refactor -->
<g id="node43" class="node">
<title>cool_ideas_SURFACE_offer_rename_refactor</title>
<path fill="#d4e8f7" stroke="black" d="M7134.43,-320.5C7134.43,-320.5 7005.57,-320.5 7005.57,-320.5 7001.38,-320.5 6997.18,-316.3 6997.18,-312.1 6997.18,-312.1 6997.18,-303.7 6997.18,-303.7 6997.18,-299.5 7001.38,-295.3 7005.57,-295.3 7005.57,-295.3 7134.43,-295.3 7134.43,-295.3 7138.62,-295.3 7142.82,-299.5 7142.82,-303.7 7142.82,-303.7 7142.82,-312.1 7142.82,-312.1 7142.82,-316.3 7138.62,-320.5 7134.43,-320.5"/>
<text xml:space="preserve" text-anchor="middle" x="7070" y="-304.8" font-family="Helvetica,sans-Serif" font-size="8.00">SURFACE&#45;offer&#45;rename&#45;refactor &#45; L</text>
</g>
<!-- cool_ideas_SURFACE_terminal_activity_browser_tui -->
<g id="node44" class="node">
<title>cool_ideas_SURFACE_terminal_activity_browser_tui</title>
<path fill="#d4e8f7" stroke="black" d="M7314.55,-320.5C7314.55,-320.5 7165.45,-320.5 7165.45,-320.5 7161.25,-320.5 7157.05,-316.3 7157.05,-312.1 7157.05,-312.1 7157.05,-303.7 7157.05,-303.7 7157.05,-299.5 7161.25,-295.3 7165.45,-295.3 7165.45,-295.3 7314.55,-295.3 7314.55,-295.3 7318.75,-295.3 7322.95,-299.5 7322.95,-303.7 7322.95,-303.7 7322.95,-312.1 7322.95,-312.1 7322.95,-316.3 7318.75,-320.5 7314.55,-320.5"/>
<text xml:space="preserve" text-anchor="middle" x="7240" y="-304.8" font-family="Helvetica,sans-Serif" font-size="8.00">SURFACE&#45;terminal&#45;activity&#45;browser&#45;tui &#45; L</text>
</g>
<!-- cool_ideas_traverse_plus_query_hydration_helper -->
<g id="node45" class="node">
<title>cool_ideas_traverse_plus_query_hydration_helper</title>
<path fill="#d4e8f7" stroke="black" d="M7486.8,-320.5C7486.8,-320.5 7345.2,-320.5 7345.2,-320.5 7341,-320.5 7336.8,-316.3 7336.8,-312.1 7336.8,-312.1 7336.8,-303.7 7336.8,-303.7 7336.8,-299.5 7341,-295.3 7345.2,-295.3 7345.2,-295.3 7486.8,-295.3 7486.8,-295.3 7491,-295.3 7495.2,-299.5 7495.2,-303.7 7495.2,-303.7 7495.2,-312.1 7495.2,-312.1 7495.2,-316.3 7491,-320.5 7486.8,-320.5"/>
<text xml:space="preserve" text-anchor="middle" x="7416" y="-304.8" font-family="Helvetica,sans-Serif" font-size="8.00">traverse&#45;plus&#45;query&#45;hydration&#45;helper &#45; S</text>
</g>
<!-- cool_ideas_WARP_adaptive_projection_selection -->
<g id="node46" class="node">
<title>cool_ideas_WARP_adaptive_projection_selection</title>
<path fill="#d4e8f7" stroke="black" d="M7655.93,-320.5C7655.93,-320.5 7518.07,-320.5 7518.07,-320.5 7513.88,-320.5 7509.68,-316.3 7509.68,-312.1 7509.68,-312.1 7509.68,-303.7 7509.68,-303.7 7509.68,-299.5 7513.88,-295.3 7518.07,-295.3 7518.07,-295.3 7655.93,-295.3 7655.93,-295.3 7660.12,-295.3 7664.32,-299.5 7664.32,-303.7 7664.32,-303.7 7664.32,-312.1 7664.32,-312.1 7664.32,-316.3 7660.12,-320.5 7655.93,-320.5"/>
<text xml:space="preserve" text-anchor="middle" x="7587" y="-304.8" font-family="Helvetica,sans-Serif" font-size="8.00">WARP&#45;adaptive&#45;projection&#45;selection &#45; L</text>
</g>
<!-- cool_ideas_WARP_agent_action_provenance -->
<g id="node47" class="node">
<title>cool_ideas_WARP_agent_action_provenance</title>
<path fill="#d4e8f7" stroke="black" d="M7817.55,-320.5C7817.55,-320.5 7686.45,-320.5 7686.45,-320.5 7682.25,-320.5 7678.05,-316.3 7678.05,-312.1 7678.05,-312.1 7678.05,-303.7 7678.05,-303.7 7678.05,-299.5 7682.25,-295.3 7686.45,-295.3 7686.45,-295.3 7817.55,-295.3 7817.55,-295.3 7821.75,-295.3 7825.95,-299.5 7825.95,-303.7 7825.95,-303.7 7825.95,-312.1 7825.95,-312.1 7825.95,-316.3 7821.75,-320.5 7817.55,-320.5"/>
<text xml:space="preserve" text-anchor="middle" x="7752" y="-304.8" font-family="Helvetica,sans-Serif" font-size="8.00">WARP&#45;agent&#45;action&#45;provenance &#45; XL</text>
</g>
<!-- cool_ideas_WARP_agent_action_provenance&#45;&gt;cool_ideas_CI_001_causal_collapse_visualizer -->
<g id="edge3" class="edge">
<title>cool_ideas_WARP_agent_action_provenance&#45;&gt;cool_ideas_CI_001_causal_collapse_visualizer</title>
<path fill="none" stroke="#666666" d="M7798.86,-294.88C7814.39,-289.94 7831.41,-283.43 7846,-275.3 7857.49,-268.89 7868.89,-259.59 7877.69,-251.58"/>
<polygon fill="#666666" stroke="#666666" points="7878.72,-253.02 7881.19,-248.33 7876.34,-250.45 7878.72,-253.02"/>
<text xml:space="preserve" text-anchor="middle" x="7889" y="-268.65" font-family="Helvetica,sans-Serif" font-size="7.00">blocked_by/blocking</text>
</g>
<!-- cool_ideas_WARP_causal_write_tracking -->
<g id="node52" class="node">
<title>cool_ideas_WARP_causal_write_tracking</title>
<path fill="#d4e8f7" stroke="black" d="M7510.05,-247.05C7510.05,-247.05 7399.95,-247.05 7399.95,-247.05 7395.75,-247.05 7391.55,-242.85 7391.55,-238.65 7391.55,-238.65 7391.55,-230.25 7391.55,-230.25 7391.55,-226.05 7395.75,-221.85 7399.95,-221.85 7399.95,-221.85 7510.05,-221.85 7510.05,-221.85 7514.25,-221.85 7518.45,-226.05 7518.45,-230.25 7518.45,-230.25 7518.45,-238.65 7518.45,-238.65 7518.45,-242.85 7514.25,-247.05 7510.05,-247.05"/>
<text xml:space="preserve" text-anchor="middle" x="7455" y="-231.35" font-family="Helvetica,sans-Serif" font-size="8.00">WARP&#45;causal&#45;write&#45;tracking &#45; L</text>
</g>
<!-- cool_ideas_WARP_agent_action_provenance&#45;&gt;cool_ideas_WARP_causal_write_tracking -->
<g id="edge4" class="edge">
<title>cool_ideas_WARP_agent_action_provenance&#45;&gt;cool_ideas_WARP_causal_write_tracking</title>
<path fill="none" stroke="#666666" d="M7702.31,-294.86C7691.97,-292.36 7681.13,-289.74 7671,-287.3 7616.86,-274.25 7555.08,-259.43 7511.49,-248.98"/>
<polygon fill="#666666" stroke="#666666" points="7511.94,-247.29 7506.67,-247.83 7511.12,-250.69 7511.94,-247.29"/>
<text xml:space="preserve" text-anchor="middle" x="7649.17" y="-268.65" font-family="Helvetica,sans-Serif" font-size="7.00">blocked_by/blocking</text>
</g>
<!-- cool_ideas_WARP_intent_and_decision_events -->
<g id="node62" class="node">
<title>cool_ideas_WARP_intent_and_decision_events</title>
<path fill="#d4e8f7" stroke="black" d="M7673.3,-247.05C7673.3,-247.05 7540.7,-247.05 7540.7,-247.05 7536.5,-247.05 7532.3,-242.85 7532.3,-238.65 7532.3,-238.65 7532.3,-230.25 7532.3,-230.25 7532.3,-226.05 7536.5,-221.85 7540.7,-221.85 7540.7,-221.85 7673.3,-221.85 7673.3,-221.85 7677.5,-221.85 7681.7,-226.05 7681.7,-230.25 7681.7,-230.25 7681.7,-238.65 7681.7,-238.65 7681.7,-242.85 7677.5,-247.05 7673.3,-247.05"/>
<text xml:space="preserve" text-anchor="middle" x="7607" y="-231.35" font-family="Helvetica,sans-Serif" font-size="8.00">WARP&#45;intent&#45;and&#45;decision&#45;events &#45; M</text>
</g>
<!-- cool_ideas_WARP_agent_action_provenance&#45;&gt;cool_ideas_WARP_intent_and_decision_events -->
<g id="edge5" class="edge">
<title>cool_ideas_WARP_agent_action_provenance&#45;&gt;cool_ideas_WARP_intent_and_decision_events</title>
<path fill="none" stroke="#666666" d="M7727.73,-294.94C7702.74,-282.63 7663.76,-263.42 7636.89,-250.18"/>
<polygon fill="#666666" stroke="#666666" points="7637.97,-248.76 7632.71,-248.12 7636.42,-251.9 7637.97,-248.76"/>
<text xml:space="preserve" text-anchor="middle" x="7715.35" y="-268.65" font-family="Helvetica,sans-Serif" font-size="7.00">blocked_by/blocking</text>
</g>
<!-- cool_ideas_WARP_provenance_dag -->
<g id="node67" class="node">
<title>cool_ideas_WARP_provenance_dag</title>
<path fill="#d4e8f7" stroke="black" d="M7799.55,-247.05C7799.55,-247.05 7704.45,-247.05 7704.45,-247.05 7700.25,-247.05 7696.05,-242.85 7696.05,-238.65 7696.05,-238.65 7696.05,-230.25 7696.05,-230.25 7696.05,-226.05 7700.25,-221.85 7704.45,-221.85 7704.45,-221.85 7799.55,-221.85 7799.55,-221.85 7803.75,-221.85 7807.95,-226.05 7807.95,-230.25 7807.95,-230.25 7807.95,-238.65 7807.95,-238.65 7807.95,-242.85 7803.75,-247.05 7799.55,-247.05"/>
<text xml:space="preserve" text-anchor="middle" x="7752" y="-231.35" font-family="Helvetica,sans-Serif" font-size="8.00">WARP&#45;provenance&#45;dag &#45; L</text>
</g>
<!-- cool_ideas_WARP_agent_action_provenance&#45;&gt;cool_ideas_WARP_provenance_dag -->
<g id="edge6" class="edge">
<title>cool_ideas_WARP_agent_action_provenance&#45;&gt;cool_ideas_WARP_provenance_dag</title>
<path fill="none" stroke="#666666" d="M7752,-295.1C7752,-283.9 7752,-266.88 7752,-253.88"/>
<polygon fill="#666666" stroke="#666666" points="7753.75,-254.02 7752,-249.02 7750.25,-254.02 7753.75,-254.02"/>
<text xml:space="preserve" text-anchor="middle" x="7783.5" y="-268.65" font-family="Helvetica,sans-Serif" font-size="7.00">blocked_by/blocking</text>
</g>
<!-- cool_ideas_WARP_auto_breaking_change_detection -->
<g id="node48" class="node">
<title>cool_ideas_WARP_auto_breaking_change_detection</title>
<path fill="#d4e8f7" stroke="black" d="M1254.3,-247.05C1254.3,-247.05 1103.7,-247.05 1103.7,-247.05 1099.5,-247.05 1095.3,-242.85 1095.3,-238.65 1095.3,-238.65 1095.3,-230.25 1095.3,-230.25 1095.3,-226.05 1099.5,-221.85 1103.7,-221.85 1103.7,-221.85 1254.3,-221.85 1254.3,-221.85 1258.5,-221.85 1262.7,-226.05 1262.7,-230.25 1262.7,-230.25 1262.7,-238.65 1262.7,-238.65 1262.7,-242.85 1258.5,-247.05 1254.3,-247.05"/>
<text xml:space="preserve" text-anchor="middle" x="1179" y="-231.35" font-family="Helvetica,sans-Serif" font-size="8.00">WARP&#45;auto&#45;breaking&#45;change&#45;detection &#45; L</text>
</g>
<!-- cool_ideas_WARP_budget_elasticity -->
<g id="node50" class="node">
<title>cool_ideas_WARP_budget_elasticity</title>
<path fill="#d4e8f7" stroke="black" d="M7943.93,-320.5C7943.93,-320.5 7848.07,-320.5 7848.07,-320.5 7843.88,-320.5 7839.68,-316.3 7839.68,-312.1 7839.68,-312.1 7839.68,-303.7 7839.68,-303.7 7839.68,-299.5 7843.88,-295.3 7848.07,-295.3 7848.07,-295.3 7943.93,-295.3 7943.93,-295.3 7948.12,-295.3 7952.32,-299.5 7952.32,-303.7 7952.32,-303.7 7952.32,-312.1 7952.32,-312.1 7952.32,-316.3 7948.12,-320.5 7943.93,-320.5"/>
<text xml:space="preserve" text-anchor="middle" x="7896" y="-304.8" font-family="Helvetica,sans-Serif" font-size="8.00">WARP&#45;budget&#45;elasticity &#45; M</text>
</g>
<!-- cool_ideas_WARP_causal_blame_for_staged_artifacts -->
<g id="node51" class="node">
<title>cool_ideas_WARP_causal_blame_for_staged_artifacts</title>
<path fill="#d4e8f7" stroke="black" d="M7903.18,-173.6C7903.18,-173.6 7748.82,-173.6 7748.82,-173.6 7744.62,-173.6 7740.43,-169.4 7740.43,-165.2 7740.43,-165.2 7740.43,-156.8 7740.43,-156.8 7740.43,-152.6 7744.62,-148.4 7748.82,-148.4 7748.82,-148.4 7903.18,-148.4 7903.18,-148.4 7907.38,-148.4 7911.57,-152.6 7911.57,-156.8 7911.57,-156.8 7911.57,-165.2 7911.57,-165.2 7911.57,-169.4 7907.38,-173.6 7903.18,-173.6"/>
<text xml:space="preserve" text-anchor="middle" x="7826" y="-157.9" font-family="Helvetica,sans-Serif" font-size="8.00">WARP&#45;causal&#45;blame&#45;for&#45;staged&#45;artifacts &#45; L</text>
</g>
<!-- cool_ideas_WARP_codebase_entropy_trajectory -->
<g id="node53" class="node">
<title>cool_ideas_WARP_codebase_entropy_trajectory</title>
<path fill="#d4e8f7" stroke="black" d="M8113.68,-320.5C8113.68,-320.5 7974.32,-320.5 7974.32,-320.5 7970.12,-320.5 7965.93,-316.3 7965.93,-312.1 7965.93,-312.1 7965.93,-303.7 7965.93,-303.7 7965.93,-299.5 7970.12,-295.3 7974.32,-295.3 7974.32,-295.3 8113.68,-295.3 8113.68,-295.3 8117.88,-295.3 8122.07,-299.5 8122.07,-303.7 8122.07,-303.7 8122.07,-312.1 8122.07,-312.1 8122.07,-316.3 8117.88,-320.5 8113.68,-320.5"/>
<text xml:space="preserve" text-anchor="middle" x="8044" y="-304.8" font-family="Helvetica,sans-Serif" font-size="8.00">WARP&#45;codebase&#45;entropy&#45;trajectory &#45; M</text>
</g>
<!-- cool_ideas_WARP_counterfactual_refactoring -->
<g id="node55" class="node">
<title>cool_ideas_WARP_counterfactual_refactoring</title>
<path fill="#d4e8f7" stroke="black" d="M8121.68,-247.05C8121.68,-247.05 7988.32,-247.05 7988.32,-247.05 7984.12,-247.05 7979.93,-242.85 7979.93,-238.65 7979.93,-238.65 7979.93,-230.25 7979.93,-230.25 7979.93,-226.05 7984.12,-221.85 7988.32,-221.85 7988.32,-221.85 8121.68,-221.85 8121.68,-221.85 8125.88,-221.85 8130.07,-226.05 8130.07,-230.25 8130.07,-230.25 8130.07,-238.65 8130.07,-238.65 8130.07,-242.85 8125.88,-247.05 8121.68,-247.05"/>
<text xml:space="preserve" text-anchor="middle" x="8055" y="-231.35" font-family="Helvetica,sans-Serif" font-size="8.00">WARP&#45;counterfactual&#45;refactoring &#45; XL</text>
</g>
<!-- cool_ideas_WARP_codebase_entropy_trajectory&#45;&gt;cool_ideas_WARP_counterfactual_refactoring -->
<g id="edge7" class="edge">
<title>cool_ideas_WARP_codebase_entropy_trajectory&#45;&gt;cool_ideas_WARP_counterfactual_refactoring</title>
<path fill="none" stroke="#666666" d="M8045.82,-295.1C8047.54,-283.9 8050.16,-266.88 8052.16,-253.88"/>
<polygon fill="#666666" stroke="#666666" points="8053.88,-254.21 8052.91,-249 8050.42,-253.68 8053.88,-254.21"/>
<text xml:space="preserve" text-anchor="middle" x="8081.33" y="-268.65" font-family="Helvetica,sans-Serif" font-size="7.00">blocked_by/blocking</text>
</g>
<!-- cool_ideas_WARP_codebase_signature -->
<g id="node54" class="node">
<title>cool_ideas_WARP_codebase_signature</title>
<path fill="#d4e8f7" stroke="black" d="M8251.55,-320.5C8251.55,-320.5 8144.45,-320.5 8144.45,-320.5 8140.25,-320.5 8136.05,-316.3 8136.05,-312.1 8136.05,-312.1 8136.05,-303.7 8136.05,-303.7 8136.05,-299.5 8140.25,-295.3 8144.45,-295.3 8144.45,-295.3 8251.55,-295.3 8251.55,-295.3 8255.75,-295.3 8259.95,-299.5 8259.95,-303.7 8259.95,-303.7 8259.95,-312.1 8259.95,-312.1 8259.95,-316.3 8255.75,-320.5 8251.55,-320.5"/>
<text xml:space="preserve" text-anchor="middle" x="8198" y="-304.8" font-family="Helvetica,sans-Serif" font-size="8.00">WARP&#45;codebase&#45;signature &#45; L</text>
</g>
<!-- cool_ideas_WARP_structural_impact_prediction -->
<g id="node77" class="node">
<title>cool_ideas_WARP_structural_impact_prediction</title>
<path fill="#d4e8f7" stroke="black" d="M8124.3,-173.6C8124.3,-173.6 7985.7,-173.6 7985.7,-173.6 7981.5,-173.6 7977.3,-169.4 7977.3,-165.2 7977.3,-165.2 7977.3,-156.8 7977.3,-156.8 7977.3,-152.6 7981.5,-148.4 7985.7,-148.4 7985.7,-148.4 8124.3,-148.4 8124.3,-148.4 8128.5,-148.4 8132.7,-152.6 8132.7,-156.8 8132.7,-156.8 8132.7,-165.2 8132.7,-165.2 8132.7,-169.4 8128.5,-173.6 8124.3,-173.6"/>
<text xml:space="preserve" text-anchor="middle" x="8055" y="-157.9" font-family="Helvetica,sans-Serif" font-size="8.00">WARP&#45;structural&#45;impact&#45;prediction &#45; XL</text>
</g>
<!-- cool_ideas_WARP_counterfactual_refactoring&#45;&gt;cool_ideas_WARP_structural_impact_prediction -->
<g id="edge8" class="edge">
<title>cool_ideas_WARP_counterfactual_refactoring&#45;&gt;cool_ideas_WARP_structural_impact_prediction</title>
<path fill="none" stroke="#666666" d="M8055,-221.65C8055,-210.45 8055,-193.43 8055,-180.43"/>
<polygon fill="#666666" stroke="#666666" points="8056.75,-180.57 8055,-175.57 8053.25,-180.57 8056.75,-180.57"/>
<text xml:space="preserve" text-anchor="middle" x="8086.5" y="-195.2" font-family="Helvetica,sans-Serif" font-size="7.00">blocked_by/blocking</text>
</g>
<!-- cool_ideas_WARP_dead_symbol_detection -->
<g id="node56" class="node">
<title>cool_ideas_WARP_dead_symbol_detection</title>
<path fill="#d4e8f7" stroke="black" d="M8401.18,-320.5C8401.18,-320.5 8282.82,-320.5 8282.82,-320.5 8278.62,-320.5 8274.42,-316.3 8274.42,-312.1 8274.42,-312.1 8274.42,-303.7 8274.42,-303.7 8274.42,-299.5 8278.62,-295.3 8282.82,-295.3 8282.82,-295.3 8401.18,-295.3 8401.18,-295.3 8405.38,-295.3 8409.58,-299.5 8409.58,-303.7 8409.58,-303.7 8409.58,-312.1 8409.58,-312.1 8409.58,-316.3 8405.38,-320.5 8401.18,-320.5"/>
<text xml:space="preserve" text-anchor="middle" x="8342" y="-304.8" font-family="Helvetica,sans-Serif" font-size="8.00">WARP&#45;dead&#45;symbol&#45;detection &#45; S</text>
</g>
<!-- cool_ideas_WARP_degeneracy_warning -->
<g id="node57" class="node">
<title>cool_ideas_WARP_degeneracy_warning</title>
<path fill="#d4e8f7" stroke="black" d="M8544.18,-320.5C8544.18,-320.5 8431.82,-320.5 8431.82,-320.5 8427.62,-320.5 8423.42,-316.3 8423.42,-312.1 8423.42,-312.1 8423.42,-303.7 8423.42,-303.7 8423.42,-299.5 8427.62,-295.3 8431.82,-295.3 8431.82,-295.3 8544.18,-295.3 8544.18,-295.3 8548.38,-295.3 8552.58,-299.5 8552.58,-303.7 8552.58,-303.7 8552.58,-312.1 8552.58,-312.1 8552.58,-316.3 8548.38,-320.5 8544.18,-320.5"/>
<text xml:space="preserve" text-anchor="middle" x="8488" y="-304.8" font-family="Helvetica,sans-Serif" font-size="8.00">WARP&#45;degeneracy&#45;warning &#45; M</text>
</g>
<!-- cool_ideas_WARP_drift_sentinel -->
<g id="node58" class="node">
<title>cool_ideas_WARP_drift_sentinel</title>
<path fill="#d4e8f7" stroke="black" d="M10457.18,-247.05C10457.18,-247.05 10374.82,-247.05 10374.82,-247.05 10370.62,-247.05 10366.42,-242.85 10366.42,-238.65 10366.42,-238.65 10366.42,-230.25 10366.42,-230.25 10366.42,-226.05 10370.62,-221.85 10374.82,-221.85 10374.82,-221.85 10457.18,-221.85 10457.18,-221.85 10461.38,-221.85 10465.58,-226.05 10465.58,-230.25 10465.58,-230.25 10465.58,-238.65 10465.58,-238.65 10465.58,-242.85 10461.38,-247.05 10457.18,-247.05"/>
<text xml:space="preserve" text-anchor="middle" x="10416" y="-231.35" font-family="Helvetica,sans-Serif" font-size="8.00">WARP&#45;drift&#45;sentinel &#45; M</text>
</g>
<!-- cool_ideas_WARP_footprint_parallelism -->
<g id="node59" class="node">
<title>cool_ideas_WARP_footprint_parallelism</title>
<path fill="#d4e8f7" stroke="black" d="M8686.8,-320.5C8686.8,-320.5 8575.2,-320.5 8575.2,-320.5 8571,-320.5 8566.8,-316.3 8566.8,-312.1 8566.8,-312.1 8566.8,-303.7 8566.8,-303.7 8566.8,-299.5 8571,-295.3 8575.2,-295.3 8575.2,-295.3 8686.8,-295.3 8686.8,-295.3 8691,-295.3 8695.2,-299.5 8695.2,-303.7 8695.2,-303.7 8695.2,-312.1 8695.2,-312.1 8695.2,-316.3 8691,-320.5 8686.8,-320.5"/>
<text xml:space="preserve" text-anchor="middle" x="8631" y="-304.8" font-family="Helvetica,sans-Serif" font-size="8.00">WARP&#45;footprint&#45;parallelism &#45; XL</text>
</g>
<!-- cool_ideas_WARP_graft_pack -->
<g id="node60" class="node">
<title>cool_ideas_WARP_graft_pack</title>
<path fill="#d4e8f7" stroke="black" d="M8792.43,-320.5C8792.43,-320.5 8717.57,-320.5 8717.57,-320.5 8713.38,-320.5 8709.17,-316.3 8709.17,-312.1 8709.17,-312.1 8709.17,-303.7 8709.17,-303.7 8709.17,-299.5 8713.38,-295.3 8717.57,-295.3 8717.57,-295.3 8792.43,-295.3 8792.43,-295.3 8796.62,-295.3 8800.83,-299.5 8800.83,-303.7 8800.83,-303.7 8800.83,-312.1 8800.83,-312.1 8800.83,-316.3 8796.62,-320.5 8792.43,-320.5"/>
<text xml:space="preserve" text-anchor="middle" x="8755" y="-304.8" font-family="Helvetica,sans-Serif" font-size="8.00">WARP&#45;graft&#45;pack &#45; M</text>
</g>
<!-- cool_ideas_WARP_grouped_aggregate_queries -->
<g id="node61" class="node">
<title>cool_ideas_WARP_grouped_aggregate_queries</title>
<path fill="#d4e8f7" stroke="black" d="M8960.93,-320.5C8960.93,-320.5 8823.07,-320.5 8823.07,-320.5 8818.88,-320.5 8814.67,-316.3 8814.67,-312.1 8814.67,-312.1 8814.67,-303.7 8814.67,-303.7 8814.67,-299.5 8818.88,-295.3 8823.07,-295.3 8823.07,-295.3 8960.93,-295.3 8960.93,-295.3 8965.12,-295.3 8969.33,-299.5 8969.33,-303.7 8969.33,-303.7 8969.33,-312.1 8969.33,-312.1 8969.33,-316.3 8965.12,-320.5 8960.93,-320.5"/>
<text xml:space="preserve" text-anchor="middle" x="8892" y="-304.8" font-family="Helvetica,sans-Serif" font-size="8.00">WARP&#45;grouped&#45;aggregate&#45;queries &#45; M</text>
</g>
<!-- cool_ideas_WARP_intentional_degeneracy_privacy -->
<g id="node63" class="node">
<title>cool_ideas_WARP_intentional_degeneracy_privacy</title>
<path fill="#d4e8f7" stroke="black" d="M9139.8,-320.5C9139.8,-320.5 8992.2,-320.5 8992.2,-320.5 8988,-320.5 8983.8,-316.3 8983.8,-312.1 8983.8,-312.1 8983.8,-303.7 8983.8,-303.7 8983.8,-299.5 8988,-295.3 8992.2,-295.3 8992.2,-295.3 9139.8,-295.3 9139.8,-295.3 9144,-295.3 9148.2,-299.5 9148.2,-303.7 9148.2,-303.7 9148.2,-312.1 9148.2,-312.1 9148.2,-316.3 9144,-320.5 9139.8,-320.5"/>
<text xml:space="preserve" text-anchor="middle" x="9066" y="-304.8" font-family="Helvetica,sans-Serif" font-size="8.00">WARP&#45;intentional&#45;degeneracy&#45;privacy &#45; M</text>
</g>
<!-- cool_ideas_WARP_minimum_viable_context -->
<g id="node64" class="node">
<title>cool_ideas_WARP_minimum_viable_context</title>
<path fill="#d4e8f7" stroke="black" d="M9293.43,-320.5C9293.43,-320.5 9170.57,-320.5 9170.57,-320.5 9166.38,-320.5 9162.17,-316.3 9162.17,-312.1 9162.17,-312.1 9162.17,-303.7 9162.17,-303.7 9162.17,-299.5 9166.38,-295.3 9170.57,-295.3 9170.57,-295.3 9293.43,-295.3 9293.43,-295.3 9297.62,-295.3 9301.83,-299.5 9301.83,-303.7 9301.83,-303.7 9301.83,-312.1 9301.83,-312.1 9301.83,-316.3 9297.62,-320.5 9293.43,-320.5"/>
<text xml:space="preserve" text-anchor="middle" x="9232" y="-304.8" font-family="Helvetica,sans-Serif" font-size="8.00">WARP&#45;minimum&#45;viable&#45;context &#45; M</text>
</g>
<!-- cool_ideas_WARP_outline_diff_commit_trailer -->
<g id="node65" class="node">
<title>cool_ideas_WARP_outline_diff_commit_trailer</title>
<path fill="#d4e8f7" stroke="black" d="M9449.93,-320.5C9449.93,-320.5 9324.07,-320.5 9324.07,-320.5 9319.88,-320.5 9315.67,-316.3 9315.67,-312.1 9315.67,-312.1 9315.67,-303.7 9315.67,-303.7 9315.67,-299.5 9319.88,-295.3 9324.07,-295.3 9324.07,-295.3 9449.93,-295.3 9449.93,-295.3 9454.12,-295.3 9458.33,-299.5 9458.33,-303.7 9458.33,-303.7 9458.33,-312.1 9458.33,-312.1 9458.33,-316.3 9454.12,-320.5 9449.93,-320.5"/>
<text xml:space="preserve" text-anchor="middle" x="9387" y="-304.8" font-family="Helvetica,sans-Serif" font-size="8.00">WARP&#45;outline&#45;diff&#45;commit&#45;trailer &#45; S</text>
</g>
<!-- cool_ideas_WARP_projection_safety_classes -->
<g id="node66" class="node">
<title>cool_ideas_WARP_projection_safety_classes</title>
<path fill="#d4e8f7" stroke="black" d="M9606.93,-320.5C9606.93,-320.5 9481.07,-320.5 9481.07,-320.5 9476.88,-320.5 9472.67,-316.3 9472.67,-312.1 9472.67,-312.1 9472.67,-303.7 9472.67,-303.7 9472.67,-299.5 9476.88,-295.3 9481.07,-295.3 9481.07,-295.3 9606.93,-295.3 9606.93,-295.3 9611.12,-295.3 9615.33,-299.5 9615.33,-303.7 9615.33,-303.7 9615.33,-312.1 9615.33,-312.1 9615.33,-316.3 9611.12,-320.5 9606.93,-320.5"/>
<text xml:space="preserve" text-anchor="middle" x="9544" y="-304.8" font-family="Helvetica,sans-Serif" font-size="8.00">WARP&#45;projection&#45;safety&#45;classes &#45; M</text>
</g>
<!-- cool_ideas_WARP_provenance_dag&#45;&gt;cool_ideas_WARP_causal_blame_for_staged_artifacts -->
<g id="edge9" class="edge">
<title>cool_ideas_WARP_provenance_dag&#45;&gt;cool_ideas_WARP_causal_blame_for_staged_artifacts</title>
<path fill="none" stroke="#666666" d="M7764.22,-221.65C7776.46,-209.83 7795.41,-191.54 7809.09,-178.32"/>
<polygon fill="#666666" stroke="#666666" points="7810.04,-179.84 7812.43,-175.11 7807.61,-177.32 7810.04,-179.84"/>
<text xml:space="preserve" text-anchor="middle" x="7822.72" y="-195.2" font-family="Helvetica,sans-Serif" font-size="7.00">blocked_by/blocking</text>
</g>
<!-- cool_ideas_WARP_reasoning_trace_replay -->
<g id="node68" class="node">
<title>cool_ideas_WARP_reasoning_trace_replay</title>
<path fill="#d4e8f7" stroke="black" d="M7717.93,-173.6C7717.93,-173.6 7598.07,-173.6 7598.07,-173.6 7593.88,-173.6 7589.68,-169.4 7589.68,-165.2 7589.68,-165.2 7589.68,-156.8 7589.68,-156.8 7589.68,-152.6 7593.88,-148.4 7598.07,-148.4 7598.07,-148.4 7717.93,-148.4 7717.93,-148.4 7722.12,-148.4 7726.32,-152.6 7726.32,-156.8 7726.32,-156.8 7726.32,-165.2 7726.32,-165.2 7726.32,-169.4 7722.12,-173.6 7717.93,-173.6"/>
<text xml:space="preserve" text-anchor="middle" x="7658" y="-157.9" font-family="Helvetica,sans-Serif" font-size="8.00">WARP&#45;reasoning&#45;trace&#45;replay &#45; M</text>
</g>
<!-- cool_ideas_WARP_provenance_dag&#45;&gt;cool_ideas_WARP_reasoning_trace_replay -->
<g id="edge10" class="edge">
<title>cool_ideas_WARP_provenance_dag&#45;&gt;cool_ideas_WARP_reasoning_trace_replay</title>
<path fill="none" stroke="#666666" d="M7736.48,-221.65C7720.79,-209.73 7696.44,-191.22 7679.02,-177.98"/>
<polygon fill="#666666" stroke="#666666" points="7680.1,-176.6 7675.06,-174.97 7677.99,-179.39 7680.1,-176.6"/>
<text xml:space="preserve" text-anchor="middle" x="7739.32" y="-195.2" font-family="Helvetica,sans-Serif" font-size="7.00">blocked_by/blocking</text>
</g>
<!-- cool_ideas_WARP_rulial_heat_map -->
<g id="node69" class="node">
<title>cool_ideas_WARP_rulial_heat_map</title>
<path fill="#d4e8f7" stroke="black" d="M9728.3,-320.5C9728.3,-320.5 9637.7,-320.5 9637.7,-320.5 9633.5,-320.5 9629.3,-316.3 9629.3,-312.1 9629.3,-312.1 9629.3,-303.7 9629.3,-303.7 9629.3,-299.5 9633.5,-295.3 9637.7,-295.3 9637.7,-295.3 9728.3,-295.3 9728.3,-295.3 9732.5,-295.3 9736.7,-299.5 9736.7,-303.7 9736.7,-303.7 9736.7,-312.1 9736.7,-312.1 9736.7,-316.3 9732.5,-320.5 9728.3,-320.5"/>
<text xml:space="preserve" text-anchor="middle" x="9683" y="-304.8" font-family="Helvetica,sans-Serif" font-size="8.00">WARP&#45;rulial&#45;heat&#45;map &#45; L</text>
</g>
<!-- cool_ideas_WARP_semantic_drift_in_sessions -->
<g id="node70" class="node">
<title>cool_ideas_WARP_semantic_drift_in_sessions</title>
<path fill="#d4e8f7" stroke="black" d="M9888.43,-320.5C9888.43,-320.5 9759.57,-320.5 9759.57,-320.5 9755.38,-320.5 9751.17,-316.3 9751.17,-312.1 9751.17,-312.1 9751.17,-303.7 9751.17,-303.7 9751.17,-299.5 9755.38,-295.3 9759.57,-295.3 9759.57,-295.3 9888.43,-295.3 9888.43,-295.3 9892.62,-295.3 9896.83,-299.5 9896.83,-303.7 9896.83,-303.7 9896.83,-312.1 9896.83,-312.1 9896.83,-316.3 9892.62,-320.5 9888.43,-320.5"/>
<text xml:space="preserve" text-anchor="middle" x="9824" y="-304.8" font-family="Helvetica,sans-Serif" font-size="8.00">WARP&#45;semantic&#45;drift&#45;in&#45;sessions &#45; M</text>
</g>
<!-- cool_ideas_WARP_semantic_merge_conflict_prediction -->
<g id="node71" class="node">
<title>cool_ideas_WARP_semantic_merge_conflict_prediction</title>
<path fill="#d4e8f7" stroke="black" d="M1444.42,-247.05C1444.42,-247.05 1285.58,-247.05 1285.58,-247.05 1281.38,-247.05 1277.17,-242.85 1277.17,-238.65 1277.17,-238.65 1277.17,-230.25 1277.17,-230.25 1277.17,-226.05 1281.38,-221.85 1285.58,-221.85 1285.58,-221.85 1444.42,-221.85 1444.42,-221.85 1448.62,-221.85 1452.83,-226.05 1452.83,-230.25 1452.83,-230.25 1452.83,-238.65 1452.83,-238.65 1452.83,-242.85 1448.62,-247.05 1444.42,-247.05"/>
<text xml:space="preserve" text-anchor="middle" x="1365" y="-231.35" font-family="Helvetica,sans-Serif" font-size="8.00">WARP&#45;semantic&#45;merge&#45;conflict&#45;prediction &#45; L</text>
</g>
<!-- cool_ideas_WARP_session_filtration -->
<g id="node72" class="node">
<title>cool_ideas_WARP_session_filtration</title>
<path fill="#d4e8f7" stroke="black" d="M10012.8,-320.5C10012.8,-320.5 9919.2,-320.5 9919.2,-320.5 9915,-320.5 9910.8,-316.3 9910.8,-312.1 9910.8,-312.1 9910.8,-303.7 9910.8,-303.7 9910.8,-299.5 9915,-295.3 9919.2,-295.3 9919.2,-295.3 10012.8,-295.3 10012.8,-295.3 10017,-295.3 10021.2,-299.5 10021.2,-303.7 10021.2,-303.7 10021.2,-312.1 10021.2,-312.1 10021.2,-316.3 10017,-320.5 10012.8,-320.5"/>
<text xml:space="preserve" text-anchor="middle" x="9966" y="-304.8" font-family="Helvetica,sans-Serif" font-size="8.00">WARP&#45;session&#45;filtration &#45; L</text>
</g>
<!-- cool_ideas_WARP_shadow_structural_workspaces -->
<g id="node73" class="node">
<title>cool_ideas_WARP_shadow_structural_workspaces</title>
<path fill="#d4e8f7" stroke="black" d="M10194.3,-320.5C10194.3,-320.5 10043.7,-320.5 10043.7,-320.5 10039.5,-320.5 10035.3,-316.3 10035.3,-312.1 10035.3,-312.1 10035.3,-303.7 10035.3,-303.7 10035.3,-299.5 10039.5,-295.3 10043.7,-295.3 10043.7,-295.3 10194.3,-295.3 10194.3,-295.3 10198.5,-295.3 10202.7,-299.5 10202.7,-303.7 10202.7,-303.7 10202.7,-312.1 10202.7,-312.1 10202.7,-316.3 10198.5,-320.5 10194.3,-320.5"/>
<text xml:space="preserve" text-anchor="middle" x="10119" y="-304.8" font-family="Helvetica,sans-Serif" font-size="8.00">WARP&#45;shadow&#45;structural&#45;workspaces &#45; XL</text>
</g>
<!-- cool_ideas_WARP_speculative_merge -->
<g id="node74" class="node">
<title>cool_ideas_WARP_speculative_merge</title>
<path fill="#d4e8f7" stroke="black" d="M10332.55,-320.5C10332.55,-320.5 10225.45,-320.5 10225.45,-320.5 10221.25,-320.5 10217.05,-316.3 10217.05,-312.1 10217.05,-312.1 10217.05,-303.7 10217.05,-303.7 10217.05,-299.5 10221.25,-295.3 10225.45,-295.3 10225.45,-295.3 10332.55,-295.3 10332.55,-295.3 10336.75,-295.3 10340.95,-299.5 10340.95,-303.7 10340.95,-303.7 10340.95,-312.1 10340.95,-312.1 10340.95,-316.3 10336.75,-320.5 10332.55,-320.5"/>
<text xml:space="preserve" text-anchor="middle" x="10279" y="-304.8" font-family="Helvetica,sans-Serif" font-size="8.00">WARP&#45;speculative&#45;merge &#45; XL</text>
</g>
<!-- cool_ideas_WARP_stale_docs_checker -->
<g id="node75" class="node">
<title>cool_ideas_WARP_stale_docs_checker</title>
<path fill="#d4e8f7" stroke="black" d="M10468.8,-320.5C10468.8,-320.5 10363.2,-320.5 10363.2,-320.5 10359,-320.5 10354.8,-316.3 10354.8,-312.1 10354.8,-312.1 10354.8,-303.7 10354.8,-303.7 10354.8,-299.5 10359,-295.3 10363.2,-295.3 10363.2,-295.3 10468.8,-295.3 10468.8,-295.3 10473,-295.3 10477.2,-299.5 10477.2,-303.7 10477.2,-303.7 10477.2,-312.1 10477.2,-312.1 10477.2,-316.3 10473,-320.5 10468.8,-320.5"/>
<text xml:space="preserve" text-anchor="middle" x="10416" y="-304.8" font-family="Helvetica,sans-Serif" font-size="8.00">WARP&#45;stale&#45;docs&#45;checker &#45; M</text>
</g>
<!-- cool_ideas_WARP_stale_docs_checker&#45;&gt;cool_ideas_WARP_drift_sentinel -->
<g id="edge11" class="edge">
<title>cool_ideas_WARP_stale_docs_checker&#45;&gt;cool_ideas_WARP_drift_sentinel</title>
<path fill="none" stroke="#666666" d="M10416,-295.1C10416,-283.9 10416,-266.88 10416,-253.88"/>
<polygon fill="#666666" stroke="#666666" points="10417.75,-254.02 10416,-249.02 10414.25,-254.02 10417.75,-254.02"/>
<text xml:space="preserve" text-anchor="middle" x="10447.5" y="-268.65" font-family="Helvetica,sans-Serif" font-size="7.00">blocked_by/blocking</text>
</g>
<!-- cool_ideas_WARP_structural_drift_detection -->
<g id="node76" class="node">
<title>cool_ideas_WARP_structural_drift_detection</title>
<path fill="#d4e8f7" stroke="black" d="M10622.8,-320.5C10622.8,-320.5 10499.2,-320.5 10499.2,-320.5 10495,-320.5 10490.8,-316.3 10490.8,-312.1 10490.8,-312.1 10490.8,-303.7 10490.8,-303.7 10490.8,-299.5 10495,-295.3 10499.2,-295.3 10499.2,-295.3 10622.8,-295.3 10622.8,-295.3 10627,-295.3 10631.2,-299.5 10631.2,-303.7 10631.2,-303.7 10631.2,-312.1 10631.2,-312.1 10631.2,-316.3 10627,-320.5 10622.8,-320.5"/>
<text xml:space="preserve" text-anchor="middle" x="10561" y="-304.8" font-family="Helvetica,sans-Serif" font-size="8.00">WARP&#45;structural&#45;drift&#45;detection &#45; M</text>
</g>
<!-- cool_ideas_WARP_symbol_heatmap -->
<g id="node78" class="node">
<title>cool_ideas_WARP_symbol_heatmap</title>
<path fill="#d4e8f7" stroke="black" d="M10752.05,-320.5C10752.05,-320.5 10653.95,-320.5 10653.95,-320.5 10649.75,-320.5 10645.55,-316.3 10645.55,-312.1 10645.55,-312.1 10645.55,-303.7 10645.55,-303.7 10645.55,-299.5 10649.75,-295.3 10653.95,-295.3 10653.95,-295.3 10752.05,-295.3 10752.05,-295.3 10756.25,-295.3 10760.45,-299.5 10760.45,-303.7 10760.45,-303.7 10760.45,-312.1 10760.45,-312.1 10760.45,-316.3 10756.25,-320.5 10752.05,-320.5"/>
<text xml:space="preserve" text-anchor="middle" x="10703" y="-304.8" font-family="Helvetica,sans-Serif" font-size="8.00">WARP&#45;symbol&#45;heatmap &#45; M</text>
</g>
<!-- cool_ideas_WARP_symbol_history_timeline -->
<g id="node79" class="node">
<title>cool_ideas_WARP_symbol_history_timeline</title>
<path fill="#d4e8f7" stroke="black" d="M10901.18,-320.5C10901.18,-320.5 10782.82,-320.5 10782.82,-320.5 10778.62,-320.5 10774.42,-316.3 10774.42,-312.1 10774.42,-312.1 10774.42,-303.7 10774.42,-303.7 10774.42,-299.5 10778.62,-295.3 10782.82,-295.3 10782.82,-295.3 10901.18,-295.3 10901.18,-295.3 10905.38,-295.3 10909.58,-299.5 10909.58,-303.7 10909.58,-303.7 10909.58,-312.1 10909.58,-312.1 10909.58,-316.3 10905.38,-320.5 10901.18,-320.5"/>
<text xml:space="preserve" text-anchor="middle" x="10842" y="-304.8" font-family="Helvetica,sans-Serif" font-size="8.00">WARP&#45;symbol&#45;history&#45;timeline &#45; S</text>
</g>
<!-- cool_ideas_WARP_temporal_structural_search -->
<g id="node81" class="node">
<title>cool_ideas_WARP_temporal_structural_search</title>
<path fill="#d4e8f7" stroke="black" d="M10908.68,-247.05C10908.68,-247.05 10775.32,-247.05 10775.32,-247.05 10771.12,-247.05 10766.92,-242.85 10766.92,-238.65 10766.92,-238.65 10766.92,-230.25 10766.92,-230.25 10766.92,-226.05 10771.12,-221.85 10775.32,-221.85 10775.32,-221.85 10908.68,-221.85 10908.68,-221.85 10912.88,-221.85 10917.08,-226.05 10917.08,-230.25 10917.08,-230.25 10917.08,-238.65 10917.08,-238.65 10917.08,-242.85 10912.88,-247.05 10908.68,-247.05"/>
<text xml:space="preserve" text-anchor="middle" x="10842" y="-231.35" font-family="Helvetica,sans-Serif" font-size="8.00">WARP&#45;temporal&#45;structural&#45;search &#45; M</text>
</g>
<!-- cool_ideas_WARP_symbol_history_timeline&#45;&gt;cool_ideas_WARP_temporal_structural_search -->
<g id="edge12" class="edge">
<title>cool_ideas_WARP_symbol_history_timeline&#45;&gt;cool_ideas_WARP_temporal_structural_search</title>
<path fill="none" stroke="#666666" d="M10842,-295.1C10842,-283.9 10842,-266.88 10842,-253.88"/>
<polygon fill="#666666" stroke="#666666" points="10843.75,-254.02 10842,-249.02 10840.25,-254.02 10843.75,-254.02"/>
<text xml:space="preserve" text-anchor="middle" x="10873.5" y="-268.65" font-family="Helvetica,sans-Serif" font-size="7.00">blocked_by/blocking</text>
</g>
<!-- cool_ideas_WARP_technical_debt_curvature -->
<g id="node80" class="node">
<title>cool_ideas_WARP_technical_debt_curvature</title>
<path fill="#d4e8f7" stroke="black" d="M11054.43,-320.5C11054.43,-320.5 10931.57,-320.5 10931.57,-320.5 10927.38,-320.5 10923.17,-316.3 10923.17,-312.1 10923.17,-312.1 10923.17,-303.7 10923.17,-303.7 10923.17,-299.5 10927.38,-295.3 10931.57,-295.3 10931.57,-295.3 11054.43,-295.3 11054.43,-295.3 11058.62,-295.3 11062.83,-299.5 11062.83,-303.7 11062.83,-303.7 11062.83,-312.1 11062.83,-312.1 11062.83,-316.3 11058.62,-320.5 11054.43,-320.5"/>
<text xml:space="preserve" text-anchor="middle" x="10993" y="-304.8" font-family="Helvetica,sans-Serif" font-size="8.00">WARP&#45;technical&#45;debt&#45;curvature &#45; L</text>
</g>
<!-- external_git_warp_observer_geometry_ladder__Rung_2_4_ -->
<g id="node82" class="node">
<title>external_git_warp_observer_geometry_ladder__Rung_2_4_</title>
<path fill="#e8f2ff" stroke="black" d="M612.68,-320.5C612.68,-320.5 449.33,-320.5 449.33,-320.5 445.12,-320.5 440.93,-316.3 440.93,-312.1 440.93,-312.1 440.93,-303.7 440.93,-303.7 440.93,-299.5 445.12,-295.3 449.33,-295.3 449.33,-295.3 612.68,-295.3 612.68,-295.3 616.88,-295.3 621.08,-299.5 621.08,-303.7 621.08,-303.7 621.08,-312.1 621.08,-312.1 621.08,-316.3 616.88,-320.5 612.68,-320.5"/>
<text xml:space="preserve" text-anchor="middle" x="531" y="-304.8" font-family="Helvetica,sans-Serif" font-size="8.00">git&#45;warp observer geometry ladder (Rung 2&#45;4)</text>
</g>
<!-- external_git_warp_observer_geometry_ladder__Rung_2_4_&#45;&gt;v0_7_0_CORE_migrate_to_slice_first_reads -->
<g id="edge13" class="edge">
<title>external_git_warp_observer_geometry_ladder__Rung_2_4_&#45;&gt;v0_7_0_CORE_migrate_to_slice_first_reads</title>
<path fill="none" stroke="#4477aa" stroke-dasharray="5,2" d="M469.8,-294.84C456.07,-292.25 441.55,-289.6 428,-287.3 308.38,-267.01 277.95,-265.27 158,-247.05 157.71,-247.01 157.41,-246.96 157.12,-246.92"/>
<polygon fill="#4477aa" stroke="#4477aa" points="157.56,-245.21 152.36,-246.19 157.04,-248.67 157.56,-245.21"/>
<text xml:space="preserve" text-anchor="middle" x="381.52" y="-268.65" font-family="Helvetica,sans-Serif" font-size="7.00">blocked_by_external</text>
</g>
<!-- unresolved_CLEAN_CODE_export_diff_semver_signature_as_patch -->
<g id="node83" class="node">
<title>unresolved_CLEAN_CODE_export_diff_semver_signature_as_patch</title>
<path fill="#f2f2f2" stroke="black" stroke-dasharray="5,2" d="M1062.3,-320.5C1062.3,-320.5 839.7,-320.5 839.7,-320.5 835.5,-320.5 831.3,-316.3 831.3,-312.1 831.3,-312.1 831.3,-303.7 831.3,-303.7 831.3,-299.5 835.5,-295.3 839.7,-295.3 839.7,-295.3 1062.3,-295.3 1062.3,-295.3 1066.5,-295.3 1070.7,-299.5 1070.7,-303.7 1070.7,-303.7 1070.7,-312.1 1070.7,-312.1 1070.7,-316.3 1066.5,-320.5 1062.3,-320.5"/>
<text xml:space="preserve" text-anchor="middle" x="951" y="-304.8" font-family="Helvetica,sans-Serif" font-size="8.00">missing: CLEAN_CODE_export&#45;diff&#45;semver&#45;signature&#45;as&#45;patch</text>
</g>
<!-- unresolved_CLEAN_CODE_export_diff_semver_signature_as_patch&#45;&gt;cool_ideas_WARP_auto_breaking_change_detection -->
<g id="edge14" class="edge">
<title>unresolved_CLEAN_CODE_export_diff_semver_signature_as_patch&#45;&gt;cool_ideas_WARP_auto_breaking_change_detection</title>
<path fill="none" stroke="#cc3333" stroke-dasharray="5,2" d="M989.42,-294.86C1029.46,-282.31 1092.13,-262.67 1134.35,-249.44"/>
<polygon fill="#cc3333" stroke="#cc3333" points="1134.73,-251.16 1138.98,-247.99 1133.68,-247.82 1134.73,-251.16"/>
<text xml:space="preserve" text-anchor="middle" x="1089.46" y="-268.65" font-family="Helvetica,sans-Serif" font-size="7.00">blocked_by</text>
</g>
<!-- unresolved_CLEAN_CODE_export_diff_semver_signature_as_patch&#45;&gt;cool_ideas_WARP_semantic_merge_conflict_prediction -->
<g id="edge15" class="edge">
<title>unresolved_CLEAN_CODE_export_diff_semver_signature_as_patch&#45;&gt;cool_ideas_WARP_semantic_merge_conflict_prediction</title>
<path fill="none" stroke="#cc3333" stroke-dasharray="5,2" d="M1025.78,-294.85C1044.74,-292.08 1065.09,-289.35 1084,-287.3 1160.63,-279.01 1181.64,-291.47 1257,-275.3 1283.44,-269.63 1312.09,-258.82 1333.24,-249.89"/>
<polygon fill="#cc3333" stroke="#cc3333" points="1333.69,-251.6 1337.6,-248.03 1332.32,-248.38 1333.69,-251.6"/>
<text xml:space="preserve" text-anchor="middle" x="1302.03" y="-268.65" font-family="Helvetica,sans-Serif" font-size="7.00">blocked_by</text>
</g>
<!-- unresolved_SURFACE_agent_dx_governed_edit -->
<g id="node84" class="node">
<title>unresolved_SURFACE_agent_dx_governed_edit</title>
<path fill="#f2f2f2" stroke="black" stroke-dasharray="5,2" d="M808.55,-320.5C808.55,-320.5 653.45,-320.5 653.45,-320.5 649.25,-320.5 645.05,-316.3 645.05,-312.1 645.05,-312.1 645.05,-303.7 645.05,-303.7 645.05,-299.5 649.25,-295.3 653.45,-295.3 653.45,-295.3 808.55,-295.3 808.55,-295.3 812.75,-295.3 816.95,-299.5 816.95,-303.7 816.95,-303.7 816.95,-312.1 816.95,-312.1 816.95,-316.3 812.75,-320.5 808.55,-320.5"/>
<text xml:space="preserve" text-anchor="middle" x="731" y="-304.8" font-family="Helvetica,sans-Serif" font-size="8.00">missing: SURFACE_agent&#45;dx&#45;governed&#45;edit</text>
</g>
<!-- unresolved_SURFACE_agent_dx_governed_edit&#45;&gt;v0_7_0_CORE_agent_drift_warning -->
<g id="edge16" class="edge">
<title>unresolved_SURFACE_agent_dx_governed_edit&#45;&gt;v0_7_0_CORE_agent_drift_warning</title>
<path fill="none" stroke="#cc3333" stroke-dasharray="5,2" d="M674.08,-294.81C660.34,-292.11 645.68,-289.43 632,-287.3 478.39,-263.35 436.73,-270.53 280.26,-247.05"/>
<polygon fill="#cc3333" stroke="#cc3333" points="280.87,-245.37 275.66,-246.36 280.34,-248.83 280.87,-245.37"/>
<text xml:space="preserve" text-anchor="middle" x="561.17" y="-268.65" font-family="Helvetica,sans-Serif" font-size="7.00">blocked_by</text>
</g>
<!-- unresolved_SURFACE_agent_dx_governed_edit&#45;&gt;v0_7_0_SURFACE_governed_write_tools -->
<g id="edge17" class="edge">
<title>unresolved_SURFACE_agent_dx_governed_edit&#45;&gt;v0_7_0_SURFACE_governed_write_tools</title>
<path fill="none" stroke="#cc3333" stroke-dasharray="5,2" d="M670.55,-294.82C657.82,-292.3 644.48,-289.69 632,-287.3 561.15,-273.71 480.09,-258.76 423.48,-248.42"/>
<polygon fill="#cc3333" stroke="#cc3333" points="424.11,-246.76 418.88,-247.58 423.48,-250.2 424.11,-246.76"/>
<text xml:space="preserve" text-anchor="middle" x="580.54" y="-268.65" font-family="Helvetica,sans-Serif" font-size="7.00">blocked_by</text>
</g>
<!-- leg_v07 -->
<g id="node85" class="node">
<title>leg_v07</title>
<path fill="#ffa07a" stroke="black" stroke-width="2" d="M11179,-320.5C11179,-320.5 11095,-320.5 11095,-320.5 11090.8,-320.5 11086.6,-316.3 11086.6,-312.1 11086.6,-312.1 11086.6,-303.7 11086.6,-303.7 11086.6,-299.5 11090.8,-295.3 11095,-295.3 11095,-295.3 11179,-295.3 11179,-295.3 11183.2,-295.3 11187.4,-299.5 11187.4,-303.7 11187.4,-303.7 11187.4,-312.1 11187.4,-312.1 11187.4,-316.3 11183.2,-320.5 11179,-320.5"/>
<text xml:space="preserve" text-anchor="middle" x="11137" y="-305.38" font-family="Helvetica,sans-Serif" font-size="7.00">v0.7.0</text>
</g>
<!-- leg_bad -->
<g id="node86" class="node">
<title>leg_bad</title>
<path fill="#f6b3b3" stroke="black" stroke-width="2" d="M11179,-247.05C11179,-247.05 11095,-247.05 11095,-247.05 11090.8,-247.05 11086.6,-242.85 11086.6,-238.65 11086.6,-238.65 11086.6,-230.25 11086.6,-230.25 11086.6,-226.05 11090.8,-221.85 11095,-221.85 11095,-221.85 11179,-221.85 11179,-221.85 11183.2,-221.85 11187.4,-226.05 11187.4,-230.25 11187.4,-230.25 11187.4,-238.65 11187.4,-238.65 11187.4,-242.85 11183.2,-247.05 11179,-247.05"/>
<text xml:space="preserve" text-anchor="middle" x="11137" y="-231.92" font-family="Helvetica,sans-Serif" font-size="7.00">bad&#45;code</text>
</g>
<!-- leg_v07&#45;&gt;leg_bad -->
<!-- leg_idea -->
<g id="node87" class="node">
<title>leg_idea</title>
<path fill="#d4e8f7" stroke="black" d="M11179,-173.6C11179,-173.6 11095,-173.6 11095,-173.6 11090.8,-173.6 11086.6,-169.4 11086.6,-165.2 11086.6,-165.2 11086.6,-156.8 11086.6,-156.8 11086.6,-152.6 11090.8,-148.4 11095,-148.4 11095,-148.4 11179,-148.4 11179,-148.4 11183.2,-148.4 11187.4,-152.6 11187.4,-156.8 11187.4,-156.8 11187.4,-165.2 11187.4,-165.2 11187.4,-169.4 11183.2,-173.6 11179,-173.6"/>
<text xml:space="preserve" text-anchor="middle" x="11137" y="-158.47" font-family="Helvetica,sans-Serif" font-size="7.00">cool&#45;ideas</text>
</g>
<!-- leg_bad&#45;&gt;leg_idea -->
<!-- leg_external -->
<g id="node88" class="node">
<title>leg_external</title>
<path fill="#e8f2ff" stroke="black" d="M11179,-107.4C11179,-107.4 11095,-107.4 11095,-107.4 11090.8,-107.4 11086.6,-103.2 11086.6,-99 11086.6,-99 11086.6,-90.6 11086.6,-90.6 11086.6,-86.4 11090.8,-82.2 11095,-82.2 11095,-82.2 11179,-82.2 11179,-82.2 11183.2,-82.2 11187.4,-86.4 11187.4,-90.6 11187.4,-90.6 11187.4,-99 11187.4,-99 11187.4,-103.2 11183.2,-107.4 11179,-107.4"/>
<text xml:space="preserve" text-anchor="middle" x="11137" y="-92.28" font-family="Helvetica,sans-Serif" font-size="7.00">external blocker</text>
</g>
<!-- leg_idea&#45;&gt;leg_external -->
<!-- leg_unresolved -->
<g id="node89" class="node">
<title>leg_unresolved</title>
<path fill="#f2f2f2" stroke="black" stroke-dasharray="5,2" d="M11179,-41.2C11179,-41.2 11095,-41.2 11095,-41.2 11090.8,-41.2 11086.6,-37 11086.6,-32.8 11086.6,-32.8 11086.6,-24.4 11086.6,-24.4 11086.6,-20.2 11090.8,-16 11095,-16 11095,-16 11179,-16 11179,-16 11183.2,-16 11187.4,-20.2 11187.4,-24.4 11187.4,-24.4 11187.4,-32.8 11187.4,-32.8 11187.4,-37 11183.2,-41.2 11179,-41.2"/>
<text xml:space="preserve" text-anchor="middle" x="11137" y="-26.08" font-family="Helvetica,sans-Serif" font-size="7.00">unresolved ref</text>
</g>
<!-- leg_external&#45;&gt;leg_unresolved -->
</g>
</svg>
