<?xml version="1.0" encoding="UTF-8" standalone="no"?>
<!DOCTYPE svg PUBLIC "-//W3C//DTD SVG 1.1//EN"
 "http://www.w3.org/Graphics/SVG/1.1/DTD/svg11.dtd">
<!-- Generated by graphviz version 14.1.2 (20260124.0452)
 -->
<!-- Title: backlog Pages: 1 -->
<svg width="13381pt" height="226pt"
 viewBox="0.00 0.00 13381.00 226.00" xmlns="http://www.w3.org/2000/svg" xmlns:xlink="http://www.w3.org/1999/xlink">
<g id="graph0" class="graph" transform="scale(1 1) rotate(0) translate(4 222.1)">
<title>backlog</title>
<polygon fill="white" stroke="none" points="-4,4 -4,-222.1 13377,-222.1 13377,4 -4,4"/>
<text xml:space="preserve" text-anchor="middle" x="6686.5" y="-202.7" font-family="Helvetica,sans-Serif" font-size="12.00">Active backlog graph generated from docs/method/backlog/*/*.md on 2026&#45;04&#45;26</text>
<g id="clust1" class="cluster">
<title>cluster_v0_7_0</title>
<path fill="#fafafa" stroke="#cccccc" d="M20,-130.4C20,-130.4 1777,-130.4 1777,-130.4 1783,-130.4 1789,-136.4 1789,-142.4 1789,-142.4 1789,-177.35 1789,-177.35 1789,-183.35 1783,-189.35 1777,-189.35 1777,-189.35 20,-189.35 20,-189.35 14,-189.35 8,-183.35 8,-177.35 8,-177.35 8,-142.4 8,-142.4 8,-136.4 14,-130.4 20,-130.4"/>
<text xml:space="preserve" text-anchor="middle" x="37" y="-176.8" font-family="Helvetica,sans-Serif" font-size="9.00" fill="#555555">v0.7.0 (11)</text>
</g>
<g id="clust2" class="cluster">
<title>cluster_bad_code</title>
<path fill="#fafafa" stroke="#cccccc" d="M1809,-130.4C1809,-130.4 2076,-130.4 2076,-130.4 2082,-130.4 2088,-136.4 2088,-142.4 2088,-142.4 2088,-177.35 2088,-177.35 2088,-183.35 2082,-189.35 2076,-189.35 2076,-189.35 1809,-189.35 1809,-189.35 1803,-189.35 1797,-183.35 1797,-177.35 1797,-177.35 1797,-142.4 1797,-142.4 1797,-136.4 1803,-130.4 1809,-130.4"/>
<text xml:space="preserve" text-anchor="middle" x="1832.38" y="-176.8" font-family="Helvetica,sans-Serif" font-size="9.00" fill="#555555">Bad Code (2)</text>
</g>
<g id="clust3" class="cluster">
<title>cluster_cool_ideas</title>
<path fill="#fafafa" stroke="#cccccc" d="M2108,-130.4C2108,-130.4 13243,-130.4 13243,-130.4 13249,-130.4 13255,-136.4 13255,-142.4 13255,-142.4 13255,-177.35 13255,-177.35 13255,-183.35 13249,-189.35 13243,-189.35 13243,-189.35 2108,-189.35 2108,-189.35 2102,-189.35 2096,-183.35 2096,-177.35 2096,-177.35 2096,-142.4 2096,-142.4 2096,-136.4 2102,-130.4 2108,-130.4"/>
<text xml:space="preserve" text-anchor="middle" x="2135.5" y="-176.8" font-family="Helvetica,sans-Serif" font-size="9.00" fill="#555555">Cool Ideas (73)</text>
</g>
<g id="clust4" class="cluster">
<title>cluster_legend</title>
<path fill="none" stroke="#dddddd" d="M13275,-8C13275,-8 13353,-8 13353,-8 13359,-8 13365,-14 13365,-20 13365,-20 13365,-176.6 13365,-176.6 13365,-182.6 13359,-188.6 13353,-188.6 13353,-188.6 13275,-188.6 13275,-188.6 13269,-188.6 13263,-182.6 13263,-176.6 13263,-176.6 13263,-20 13263,-20 13263,-14 13269,-8 13275,-8"/>
<text xml:space="preserve" text-anchor="middle" x="13284.5" y="-177" font-family="Helvetica,sans-Serif" font-size="8.00" fill="#aaaaaa">Legend</text>
</g>
<!-- v0_7_0_CORE_agent_drift_warning -->
<g id="node1" class="node">
<title>v0_7_0_CORE_agent_drift_warning</title>
<path fill="#ffa07a" stroke="black" stroke-width="2" d="M116.05,-163.6C116.05,-163.6 23.95,-163.6 23.95,-163.6 19.75,-163.6 15.55,-159.4 15.55,-155.2 15.55,-155.2 15.55,-146.8 15.55,-146.8 15.55,-142.6 19.75,-138.4 23.95,-138.4 23.95,-138.4 116.05,-138.4 116.05,-138.4 120.25,-138.4 124.45,-142.6 124.45,-146.8 124.45,-146.8 124.45,-155.2 124.45,-155.2 124.45,-159.4 120.25,-163.6 116.05,-163.6"/>
<text xml:space="preserve" text-anchor="middle" x="70" y="-147.9" font-family="Helvetica,sans-Serif" font-size="8.00">CORE&#45;agent&#45;drift&#45;warning</text>
</g>
<!-- v0_7_0_CORE_daemon_aware_stdio_bridge_for_mcp_clients -->
<g id="node2" class="node">
<title>v0_7_0_CORE_daemon_aware_stdio_bridge_for_mcp_clients</title>
<path fill="#ffa07a" stroke="black" stroke-width="2" d="M322.55,-163.6C322.55,-163.6 143.45,-163.6 143.45,-163.6 139.25,-163.6 135.05,-159.4 135.05,-155.2 135.05,-155.2 135.05,-146.8 135.05,-146.8 135.05,-142.6 139.25,-138.4 143.45,-138.4 143.45,-138.4 322.55,-138.4 322.55,-138.4 326.75,-138.4 330.95,-142.6 330.95,-146.8 330.95,-146.8 330.95,-155.2 330.95,-155.2 330.95,-159.4 326.75,-163.6 322.55,-163.6"/>
<text xml:space="preserve" text-anchor="middle" x="233" y="-147.9" font-family="Helvetica,sans-Serif" font-size="8.00">CORE&#45;daemon&#45;aware&#45;stdio&#45;bridge&#45;for&#45;mcp&#45;clients</text>
</g>
<!-- v0_7_0_CORE_git_graft_enhance -->
<g id="node3" class="node">
<title>v0_7_0_CORE_git_graft_enhance</title>
<path fill="#ffa07a" stroke="black" stroke-width="2" d="M435.68,-163.6C435.68,-163.6 350.32,-163.6 350.32,-163.6 346.12,-163.6 341.93,-159.4 341.93,-155.2 341.93,-155.2 341.93,-146.8 341.93,-146.8 341.93,-142.6 346.12,-138.4 350.32,-138.4 350.32,-138.4 435.68,-138.4 435.68,-138.4 439.88,-138.4 444.07,-142.6 444.07,-146.8 444.07,-146.8 444.07,-155.2 444.07,-155.2 444.07,-159.4 439.88,-163.6 435.68,-163.6"/>
<text xml:space="preserve" text-anchor="middle" x="393" y="-147.9" font-family="Helvetica,sans-Serif" font-size="8.00">CORE&#45;git&#45;graft&#45;enhance</text>
</g>
<!-- v0_7_0_CORE_migrate_path_ops_to_port -->
<g id="node4" class="node">
<title>v0_7_0_CORE_migrate_path_ops_to_port</title>
<path fill="#ffa07a" stroke="black" stroke-width="2" d="M576.18,-163.6C576.18,-163.6 463.82,-163.6 463.82,-163.6 459.62,-163.6 455.43,-159.4 455.43,-155.2 455.43,-155.2 455.43,-146.8 455.43,-146.8 455.43,-142.6 459.62,-138.4 463.82,-138.4 463.82,-138.4 576.18,-138.4 576.18,-138.4 580.38,-138.4 584.58,-142.6 584.58,-146.8 584.58,-146.8 584.58,-155.2 584.58,-155.2 584.58,-159.4 580.38,-163.6 576.18,-163.6"/>
<text xml:space="preserve" text-anchor="middle" x="520" y="-147.9" font-family="Helvetica,sans-Serif" font-size="8.00">CORE&#45;migrate&#45;path&#45;ops&#45;to&#45;port</text>
</g>
<!-- v0_7_0_CORE_migrate_to_slice_first_reads -->
<g id="node5" class="node">
<title>v0_7_0_CORE_migrate_to_slice_first_reads</title>
<path fill="#ffa07a" stroke="black" stroke-width="2" d="M721.8,-163.6C721.8,-163.6 604.2,-163.6 604.2,-163.6 600,-163.6 595.8,-159.4 595.8,-155.2 595.8,-155.2 595.8,-146.8 595.8,-146.8 595.8,-142.6 600,-138.4 604.2,-138.4 604.2,-138.4 721.8,-138.4 721.8,-138.4 726,-138.4 730.2,-142.6 730.2,-146.8 730.2,-146.8 730.2,-155.2 730.2,-155.2 730.2,-159.4 726,-163.6 721.8,-163.6"/>
<text xml:space="preserve" text-anchor="middle" x="663" y="-147.9" font-family="Helvetica,sans-Serif" font-size="8.00">CORE&#45;migrate&#45;to&#45;slice&#45;first&#45;reads</text>
</g>
<!-- v0_7_0_CORE_opt_in_daemon_mode_mcp_bootstrap -->
<g id="node6" class="node">
<title>v0_7_0_CORE_opt_in_daemon_mode_mcp_bootstrap</title>
<path fill="#ffa07a" stroke="black" stroke-width="2" d="M904.18,-163.6C904.18,-163.6 749.82,-163.6 749.82,-163.6 745.62,-163.6 741.42,-159.4 741.42,-155.2 741.42,-155.2 741.42,-146.8 741.42,-146.8 741.42,-142.6 745.62,-138.4 749.82,-138.4 749.82,-138.4 904.18,-138.4 904.18,-138.4 908.38,-138.4 912.58,-142.6 912.58,-146.8 912.58,-146.8 912.58,-155.2 912.58,-155.2 912.58,-159.4 908.38,-163.6 904.18,-163.6"/>
<text xml:space="preserve" text-anchor="middle" x="827" y="-147.9" font-family="Helvetica,sans-Serif" font-size="8.00">CORE&#45;opt&#45;in&#45;daemon&#45;mode&#45;mcp&#45;bootstrap</text>
</g>
<!-- v0_7_0_CORE_rewrite_structural_blame_to_use_warp_worldline_provenance -->
<g id="node7" class="node">
<title>v0_7_0_CORE_rewrite_structural_blame_to_use_warp_worldline_provenance</title>
<path fill="#ffa07a" stroke="black" stroke-width="2" d="M1167.67,-163.6C1167.67,-163.6 932.32,-163.6 932.32,-163.6 928.12,-163.6 923.92,-159.4 923.92,-155.2 923.92,-155.2 923.92,-146.8 923.92,-146.8 923.92,-142.6 928.12,-138.4 932.32,-138.4 932.32,-138.4 1167.67,-138.4 1167.67,-138.4 1171.88,-138.4 1176.08,-142.6 1176.08,-146.8 1176.08,-146.8 1176.08,-155.2 1176.08,-155.2 1176.08,-159.4 1171.88,-163.6 1167.67,-163.6"/>
<text xml:space="preserve" text-anchor="middle" x="1050" y="-147.9" font-family="Helvetica,sans-Serif" font-size="8.00">CORE&#45;rewrite&#45;structural&#45;blame&#45;to&#45;use&#45;warp&#45;worldline&#45;provenance</text>
</g>
<!-- v0_7_0_SURFACE_agent_dx_governed_edit -->
<g id="node8" class="node">
<title>v0_7_0_SURFACE_agent_dx_governed_edit</title>
<path fill="#ffa07a" stroke="black" stroke-width="2" d="M1318.42,-163.6C1318.42,-163.6 1195.58,-163.6 1195.58,-163.6 1191.38,-163.6 1187.17,-159.4 1187.17,-155.2 1187.17,-155.2 1187.17,-146.8 1187.17,-146.8 1187.17,-142.6 1191.38,-138.4 1195.58,-138.4 1195.58,-138.4 1318.42,-138.4 1318.42,-138.4 1322.62,-138.4 1326.83,-142.6 1326.83,-146.8 1326.83,-146.8 1326.83,-155.2 1326.83,-155.2 1326.83,-159.4 1322.62,-163.6 1318.42,-163.6"/>
<text xml:space="preserve" text-anchor="middle" x="1257" y="-147.9" font-family="Helvetica,sans-Serif" font-size="8.00">SURFACE&#45;agent&#45;dx&#45;governed&#45;edit</text>
</g>
<!-- v0_7_0_SURFACE_bijou_tui_for_graft_daemon_control_plane -->
<g id="node9" class="node">
<title>v0_7_0_SURFACE_bijou_tui_for_graft_daemon_control_plane</title>
<path fill="#ffa07a" stroke="black" stroke-width="2" d="M1527.3,-163.6C1527.3,-163.6 1346.7,-163.6 1346.7,-163.6 1342.5,-163.6 1338.3,-159.4 1338.3,-155.2 1338.3,-155.2 1338.3,-146.8 1338.3,-146.8 1338.3,-142.6 1342.5,-138.4 1346.7,-138.4 1346.7,-138.4 1527.3,-138.4 1527.3,-138.4 1531.5,-138.4 1535.7,-142.6 1535.7,-146.8 1535.7,-146.8 1535.7,-155.2 1535.7,-155.2 1535.7,-159.4 1531.5,-163.6 1527.3,-163.6"/>
<text xml:space="preserve" text-anchor="middle" x="1437" y="-147.9" font-family="Helvetica,sans-Serif" font-size="8.00">SURFACE&#45;bijou&#45;tui&#45;for&#45;graft&#45;daemon&#45;control&#45;plane</text>
</g>
<!-- v0_7_0_SURFACE_governed_write_tools -->
<g id="node10" class="node">
<title>v0_7_0_SURFACE_governed_write_tools</title>
<path fill="#ffa07a" stroke="black" stroke-width="2" d="M1667.17,-163.6C1667.17,-163.6 1554.83,-163.6 1554.83,-163.6 1550.62,-163.6 1546.42,-159.4 1546.42,-155.2 1546.42,-155.2 1546.42,-146.8 1546.42,-146.8 1546.42,-142.6 1550.62,-138.4 1554.83,-138.4 1554.83,-138.4 1667.17,-138.4 1667.17,-138.4 1671.38,-138.4 1675.58,-142.6 1675.58,-146.8 1675.58,-146.8 1675.58,-155.2 1675.58,-155.2 1675.58,-159.4 1671.38,-163.6 1667.17,-163.6"/>
<text xml:space="preserve" text-anchor="middle" x="1611" y="-147.9" font-family="Helvetica,sans-Serif" font-size="8.00">SURFACE&#45;governed&#45;write&#45;tools</text>
</g>
<!-- v0_7_0_WARP_lsp_enrichment -->
<g id="node11" class="node">
<title>v0_7_0_WARP_lsp_enrichment</title>
<path fill="#ffa07a" stroke="black" stroke-width="2" d="M1772.55,-163.6C1772.55,-163.6 1695.45,-163.6 1695.45,-163.6 1691.25,-163.6 1687.05,-159.4 1687.05,-155.2 1687.05,-155.2 1687.05,-146.8 1687.05,-146.8 1687.05,-142.6 1691.25,-138.4 1695.45,-138.4 1695.45,-138.4 1772.55,-138.4 1772.55,-138.4 1776.75,-138.4 1780.95,-142.6 1780.95,-146.8 1780.95,-146.8 1780.95,-155.2 1780.95,-155.2 1780.95,-159.4 1776.75,-163.6 1772.55,-163.6"/>
<text xml:space="preserve" text-anchor="middle" x="1734" y="-147.9" font-family="Helvetica,sans-Serif" font-size="8.00">WARP&#45;lsp&#45;enrichment</text>
</g>
<!-- bad_code_dead_code_old_git_operations -->
<g id="node12" class="node">
<title>bad_code_dead_code_old_git_operations</title>
<path fill="#f6b3b3" stroke="black" stroke-width="2" d="M1926.92,-163.6C1926.92,-163.6 1813.08,-163.6 1813.08,-163.6 1808.88,-163.6 1804.67,-159.4 1804.67,-155.2 1804.67,-155.2 1804.67,-146.8 1804.67,-146.8 1804.67,-142.6 1808.88,-138.4 1813.08,-138.4 1813.08,-138.4 1926.92,-138.4 1926.92,-138.4 1931.12,-138.4 1935.33,-142.6 1935.33,-146.8 1935.33,-146.8 1935.33,-155.2 1935.33,-155.2 1935.33,-159.4 1931.12,-163.6 1926.92,-163.6"/>
<text xml:space="preserve" text-anchor="middle" x="1870" y="-147.9" font-family="Helvetica,sans-Serif" font-size="8.00">dead&#45;code&#45;old&#45;git&#45;operations &#45; S</text>
</g>
<!-- bad_code_reference_count_uses_ripgrep -->
<g id="node13" class="node">
<title>bad_code_reference_count_uses_ripgrep</title>
<path fill="#f6b3b3" stroke="black" stroke-width="2" d="M2071.42,-163.6C2071.42,-163.6 1954.58,-163.6 1954.58,-163.6 1950.38,-163.6 1946.17,-159.4 1946.17,-155.2 1946.17,-155.2 1946.17,-146.8 1946.17,-146.8 1946.17,-142.6 1950.38,-138.4 1954.58,-138.4 1954.58,-138.4 2071.42,-138.4 2071.42,-138.4 2075.62,-138.4 2079.82,-142.6 2079.82,-146.8 2079.82,-146.8 2079.82,-155.2 2079.82,-155.2 2079.82,-159.4 2075.62,-163.6 2071.42,-163.6"/>
<text xml:space="preserve" text-anchor="middle" x="2013" y="-147.9" font-family="Helvetica,sans-Serif" font-size="8.00">reference&#45;count&#45;uses&#45;ripgrep &#45; M</text>
</g>
<!-- cool_ideas_CI_001_causal_collapse_visualizer -->
<g id="node14" class="node">
<title>cool_ideas_CI_001_causal_collapse_visualizer</title>
<path fill="#d4e8f7" stroke="black" d="M2239.3,-163.6C2239.3,-163.6 2112.7,-163.6 2112.7,-163.6 2108.5,-163.6 2104.3,-159.4 2104.3,-155.2 2104.3,-155.2 2104.3,-146.8 2104.3,-146.8 2104.3,-142.6 2108.5,-138.4 2112.7,-138.4 2112.7,-138.4 2239.3,-138.4 2239.3,-138.4 2243.5,-138.4 2247.7,-142.6 2247.7,-146.8 2247.7,-146.8 2247.7,-155.2 2247.7,-155.2 2247.7,-159.4 2243.5,-163.6 2239.3,-163.6"/>
<text xml:space="preserve" text-anchor="middle" x="2176" y="-147.9" font-family="Helvetica,sans-Serif" font-size="8.00">CI&#45;001&#45;causal&#45;collapse&#45;visualizer &#45; L</text>
</g>
<!-- cool_ideas_CI_002_deterministic_scenario_replay -->
<g id="node15" class="node">
<title>cool_ideas_CI_002_deterministic_scenario_replay</title>
<path fill="#d4e8f7" stroke="black" d="M2406.67,-163.6C2406.67,-163.6 2267.33,-163.6 2267.33,-163.6 2263.12,-163.6 2258.93,-159.4 2258.93,-155.2 2258.93,-155.2 2258.93,-146.8 2258.93,-146.8 2258.93,-142.6 2263.12,-138.4 2267.33,-138.4 2267.33,-138.4 2406.67,-138.4 2406.67,-138.4 2410.88,-138.4 2415.07,-142.6 2415.07,-146.8 2415.07,-146.8 2415.07,-155.2 2415.07,-155.2 2415.07,-159.4 2410.88,-163.6 2406.67,-163.6"/>
<text xml:space="preserve" text-anchor="middle" x="2337" y="-147.9" font-family="Helvetica,sans-Serif" font-size="8.00">CI&#45;002&#45;deterministic&#45;scenario&#45;replay &#45; L</text>
</g>
<!-- cool_ideas_CI_003_mcp_native_diff_protocol -->
<g id="node16" class="node">
<title>cool_ideas_CI_003_mcp_native_diff_protocol</title>
<path fill="#d4e8f7" stroke="black" d="M2557.8,-163.6C2557.8,-163.6 2434.2,-163.6 2434.2,-163.6 2430,-163.6 2425.8,-159.4 2425.8,-155.2 2425.8,-155.2 2425.8,-146.8 2425.8,-146.8 2425.8,-142.6 2430,-138.4 2434.2,-138.4 2434.2,-138.4 2557.8,-138.4 2557.8,-138.4 2562,-138.4 2566.2,-142.6 2566.2,-146.8 2566.2,-146.8 2566.2,-155.2 2566.2,-155.2 2566.2,-159.4 2562,-163.6 2557.8,-163.6"/>
<text xml:space="preserve" text-anchor="middle" x="2496" y="-147.9" font-family="Helvetica,sans-Serif" font-size="8.00">CI&#45;003&#45;mcp&#45;native&#45;diff&#45;protocol &#45; M</text>
</g>
<!-- cool_ideas_CLEAN_CODE_parallel_agent_merge_shared_file_loss -->
<g id="node17" class="node">
<title>cool_ideas_CLEAN_CODE_parallel_agent_merge_shared_file_loss</title>
<path fill="#d4e8f7" stroke="black" d="M2786.05,-163.6C2786.05,-163.6 2585.95,-163.6 2585.95,-163.6 2581.75,-163.6 2577.55,-159.4 2577.55,-155.2 2577.55,-155.2 2577.55,-146.8 2577.55,-146.8 2577.55,-142.6 2581.75,-138.4 2585.95,-138.4 2585.95,-138.4 2786.05,-138.4 2786.05,-138.4 2790.25,-138.4 2794.45,-142.6 2794.45,-146.8 2794.45,-146.8 2794.45,-155.2 2794.45,-155.2 2794.45,-159.4 2790.25,-163.6 2786.05,-163.6"/>
<text xml:space="preserve" text-anchor="middle" x="2686" y="-147.9" font-family="Helvetica,sans-Serif" font-size="8.00">CLEAN&#45;CODE&#45;parallel&#45;agent&#45;merge&#45;shared&#45;file&#45;loss &#45; M</text>
</g>
<!-- cool_ideas_CORE_agent_handoff_protocol -->
<g id="node18" class="node">
<title>cool_ideas_CORE_agent_handoff_protocol</title>
<path fill="#d4e8f7" stroke="black" d="M2933.92,-163.6C2933.92,-163.6 2814.08,-163.6 2814.08,-163.6 2809.88,-163.6 2805.68,-159.4 2805.68,-155.2 2805.68,-155.2 2805.68,-146.8 2805.68,-146.8 2805.68,-142.6 2809.88,-138.4 2814.08,-138.4 2814.08,-138.4 2933.92,-138.4 2933.92,-138.4 2938.12,-138.4 2942.32,-142.6 2942.32,-146.8 2942.32,-146.8 2942.32,-155.2 2942.32,-155.2 2942.32,-159.4 2938.12,-163.6 2933.92,-163.6"/>
<text xml:space="preserve" text-anchor="middle" x="2874" y="-147.9" font-family="Helvetica,sans-Serif" font-size="8.00">CORE&#45;agent&#45;handoff&#45;protocol &#45; M</text>
</g>
<!-- cool_ideas_CORE_auto_focus -->
<g id="node19" class="node">
<title>cool_ideas_CORE_auto_focus</title>
<path fill="#d4e8f7" stroke="black" d="M3034.67,-163.6C3034.67,-163.6 2961.33,-163.6 2961.33,-163.6 2957.12,-163.6 2952.93,-159.4 2952.93,-155.2 2952.93,-155.2 2952.93,-146.8 2952.93,-146.8 2952.93,-142.6 2957.12,-138.4 2961.33,-138.4 2961.33,-138.4 3034.67,-138.4 3034.67,-138.4 3038.88,-138.4 3043.07,-142.6 3043.07,-146.8 3043.07,-146.8 3043.07,-155.2 3043.07,-155.2 3043.07,-159.4 3038.88,-163.6 3034.67,-163.6"/>
<text xml:space="preserve" text-anchor="middle" x="2998" y="-147.9" font-family="Helvetica,sans-Serif" font-size="8.00">CORE&#45;auto&#45;focus &#45; L</text>
</g>
<!-- cool_ideas_CORE_backlog_status_tool -->
<g id="node20" class="node">
<title>cool_ideas_CORE_backlog_status_tool</title>
<path fill="#d4e8f7" stroke="black" d="M3165.67,-163.6C3165.67,-163.6 3062.33,-163.6 3062.33,-163.6 3058.12,-163.6 3053.93,-159.4 3053.93,-155.2 3053.93,-155.2 3053.93,-146.8 3053.93,-146.8 3053.93,-142.6 3058.12,-138.4 3062.33,-138.4 3062.33,-138.4 3165.67,-138.4 3165.67,-138.4 3169.88,-138.4 3174.07,-142.6 3174.07,-146.8 3174.07,-146.8 3174.07,-155.2 3174.07,-155.2 3174.07,-159.4 3169.88,-163.6 3165.67,-163.6"/>
<text xml:space="preserve" text-anchor="middle" x="3114" y="-147.9" font-family="Helvetica,sans-Serif" font-size="8.00">CORE&#45;backlog&#45;status&#45;tool &#45; S</text>
</g>
<!-- cool_ideas_CORE_capture_range -->
<g id="node21" class="node">
<title>cool_ideas_CORE_capture_range</title>
<path fill="#d4e8f7" stroke="black" d="M3280.8,-163.6C3280.8,-163.6 3193.2,-163.6 3193.2,-163.6 3189,-163.6 3184.8,-159.4 3184.8,-155.2 3184.8,-155.2 3184.8,-146.8 3184.8,-146.8 3184.8,-142.6 3189,-138.4 3193.2,-138.4 3193.2,-138.4 3280.8,-138.4 3280.8,-138.4 3285,-138.4 3289.2,-142.6 3289.2,-146.8 3289.2,-146.8 3289.2,-155.2 3289.2,-155.2 3289.2,-159.4 3285,-163.6 3280.8,-163.6"/>
<text xml:space="preserve" text-anchor="middle" x="3237" y="-147.9" font-family="Helvetica,sans-Serif" font-size="8.00">CORE&#45;capture&#45;range &#45; S</text>
</g>
<!-- cool_ideas_CORE_constructor_in_disguise_lint -->
<g id="node22" class="node">
<title>cool_ideas_CORE_constructor_in_disguise_lint</title>
<path fill="#d4e8f7" stroke="black" d="M3439.55,-163.6C3439.55,-163.6 3308.45,-163.6 3308.45,-163.6 3304.25,-163.6 3300.05,-159.4 3300.05,-155.2 3300.05,-155.2 3300.05,-146.8 3300.05,-146.8 3300.05,-142.6 3304.25,-138.4 3308.45,-138.4 3308.45,-138.4 3439.55,-138.4 3439.55,-138.4 3443.75,-138.4 3447.95,-142.6 3447.95,-146.8 3447.95,-146.8 3447.95,-155.2 3447.95,-155.2 3447.95,-159.4 3443.75,-163.6 3439.55,-163.6"/>
<text xml:space="preserve" text-anchor="middle" x="3374" y="-147.9" font-family="Helvetica,sans-Serif" font-size="8.00">CORE&#45;constructor&#45;in&#45;disguise&#45;lint &#45; M</text>
</g>
<!-- cool_ideas_CORE_context_budget_forecasting -->
<g id="node23" class="node">
<title>cool_ideas_CORE_context_budget_forecasting</title>
<path fill="#d4e8f7" stroke="black" d="M3600.67,-163.6C3600.67,-163.6 3467.33,-163.6 3467.33,-163.6 3463.12,-163.6 3458.93,-159.4 3458.93,-155.2 3458.93,-155.2 3458.93,-146.8 3458.93,-146.8 3458.93,-142.6 3463.12,-138.4 3467.33,-138.4 3467.33,-138.4 3600.67,-138.4 3600.67,-138.4 3604.88,-138.4 3609.07,-142.6 3609.07,-146.8 3609.07,-146.8 3609.07,-155.2 3609.07,-155.2 3609.07,-159.4 3604.88,-163.6 3600.67,-163.6"/>
<text xml:space="preserve" text-anchor="middle" x="3534" y="-147.9" font-family="Helvetica,sans-Serif" font-size="8.00">CORE&#45;context&#45;budget&#45;forecasting &#45; M</text>
</g>
<!-- cool_ideas_CORE_conversation_primer -->
<g id="node24" class="node">
<title>cool_ideas_CORE_conversation_primer</title>
<path fill="#d4e8f7" stroke="black" d="M3737.67,-163.6C3737.67,-163.6 3628.33,-163.6 3628.33,-163.6 3624.12,-163.6 3619.93,-159.4 3619.93,-155.2 3619.93,-155.2 3619.93,-146.8 3619.93,-146.8 3619.93,-142.6 3624.12,-138.4 3628.33,-138.4 3628.33,-138.4 3737.67,-138.4 3737.67,-138.4 3741.88,-138.4 3746.07,-142.6 3746.07,-146.8 3746.07,-146.8 3746.07,-155.2 3746.07,-155.2 3746.07,-159.4 3741.88,-163.6 3737.67,-163.6"/>
<text xml:space="preserve" text-anchor="middle" x="3683" y="-147.9" font-family="Helvetica,sans-Serif" font-size="8.00">CORE&#45;conversation&#45;primer &#45; M</text>
</g>
<!-- cool_ideas_CORE_cross_session_resume -->
<g id="node25" class="node">
<title>cool_ideas_CORE_cross_session_resume</title>
<path fill="#d4e8f7" stroke="black" d="M3880.3,-163.6C3880.3,-163.6 3765.7,-163.6 3765.7,-163.6 3761.5,-163.6 3757.3,-159.4 3757.3,-155.2 3757.3,-155.2 3757.3,-146.8 3757.3,-146.8 3757.3,-142.6 3761.5,-138.4 3765.7,-138.4 3765.7,-138.4 3880.3,-138.4 3880.3,-138.4 3884.5,-138.4 3888.7,-142.6 3888.7,-146.8 3888.7,-146.8 3888.7,-155.2 3888.7,-155.2 3888.7,-159.4 3884.5,-163.6 3880.3,-163.6"/>
<text xml:space="preserve" text-anchor="middle" x="3823" y="-147.9" font-family="Helvetica,sans-Serif" font-size="8.00">CORE&#45;cross&#45;session&#45;resume &#45; S</text>
</g>
<!-- cool_ideas_CORE_graft_as_teacher -->
<g id="node26" class="node">
<title>cool_ideas_CORE_graft_as_teacher</title>
<path fill="#d4e8f7" stroke="black" d="M4002.17,-163.6C4002.17,-163.6 3907.83,-163.6 3907.83,-163.6 3903.62,-163.6 3899.43,-159.4 3899.43,-155.2 3899.43,-155.2 3899.43,-146.8 3899.43,-146.8 3899.43,-142.6 3903.62,-138.4 3907.83,-138.4 3907.83,-138.4 4002.17,-138.4 4002.17,-138.4 4006.38,-138.4 4010.57,-142.6 4010.57,-146.8 4010.57,-146.8 4010.57,-155.2 4010.57,-155.2 4010.57,-159.4 4006.38,-163.6 4002.17,-163.6"/>
<text xml:space="preserve" text-anchor="middle" x="3955" y="-147.9" font-family="Helvetica,sans-Serif" font-size="8.00">CORE&#45;graft&#45;as&#45;teacher &#45; S</text>
</g>
<!-- cool_ideas_CORE_graft_doctor -->
<g id="node27" class="node">
<title>cool_ideas_CORE_graft_doctor</title>
<path fill="#d4e8f7" stroke="black" d="M4110.05,-163.6C4110.05,-163.6 4029.95,-163.6 4029.95,-163.6 4025.75,-163.6 4021.55,-159.4 4021.55,-155.2 4021.55,-155.2 4021.55,-146.8 4021.55,-146.8 4021.55,-142.6 4025.75,-138.4 4029.95,-138.4 4029.95,-138.4 4110.05,-138.4 4110.05,-138.4 4114.25,-138.4 4118.45,-142.6 4118.45,-146.8 4118.45,-146.8 4118.45,-155.2 4118.45,-155.2 4118.45,-159.4 4114.25,-163.6 4110.05,-163.6"/>
<text xml:space="preserve" text-anchor="middle" x="4070" y="-147.9" font-family="Helvetica,sans-Serif" font-size="8.00">CORE&#45;graft&#45;doctor &#45; M</text>
</g>
<!-- cool_ideas_CORE_graft_teach_learning_receipts -->
<g id="node28" class="node">
<title>cool_ideas_CORE_graft_teach_learning_receipts</title>
<path fill="#d4e8f7" stroke="black" d="M4275.93,-163.6C4275.93,-163.6 4138.07,-163.6 4138.07,-163.6 4133.88,-163.6 4129.68,-159.4 4129.68,-155.2 4129.68,-155.2 4129.68,-146.8 4129.68,-146.8 4129.68,-142.6 4133.88,-138.4 4138.07,-138.4 4138.07,-138.4 4275.93,-138.4 4275.93,-138.4 4280.12,-138.4 4284.32,-142.6 4284.32,-146.8 4284.32,-146.8 4284.32,-155.2 4284.32,-155.2 4284.32,-159.4 4280.12,-163.6 4275.93,-163.6"/>
<text xml:space="preserve" text-anchor="middle" x="4207" y="-147.9" font-family="Helvetica,sans-Serif" font-size="8.00">CORE&#45;graft&#45;teach&#45;learning&#45;receipts &#45; S</text>
</g>
<!-- cool_ideas_CORE_horizon_of_readability -->
<g id="node29" class="node">
<title>cool_ideas_CORE_horizon_of_readability</title>
<path fill="#d4e8f7" stroke="black" d="M4416.55,-163.6C4416.55,-163.6 4303.45,-163.6 4303.45,-163.6 4299.25,-163.6 4295.05,-159.4 4295.05,-155.2 4295.05,-155.2 4295.05,-146.8 4295.05,-146.8 4295.05,-142.6 4299.25,-138.4 4303.45,-138.4 4303.45,-138.4 4416.55,-138.4 4416.55,-138.4 4420.75,-138.4 4424.95,-142.6 4424.95,-146.8 4424.95,-146.8 4424.95,-155.2 4424.95,-155.2 4424.95,-159.4 4420.75,-163.6 4416.55,-163.6"/>
<text xml:space="preserve" text-anchor="middle" x="4360" y="-147.9" font-family="Helvetica,sans-Serif" font-size="8.00">CORE&#45;horizon&#45;of&#45;readability &#45; M</text>
</g>
<!-- cool_ideas_CORE_lagrangian_policy -->
<g id="node30" class="node">
<title>cool_ideas_CORE_lagrangian_policy</title>
<path fill="#d4e8f7" stroke="black" d="M4545.55,-163.6C4545.55,-163.6 4444.45,-163.6 4444.45,-163.6 4440.25,-163.6 4436.05,-159.4 4436.05,-155.2 4436.05,-155.2 4436.05,-146.8 4436.05,-146.8 4436.05,-142.6 4440.25,-138.4 4444.45,-138.4 4444.45,-138.4 4545.55,-138.4 4545.55,-138.4 4549.75,-138.4 4553.95,-142.6 4553.95,-146.8 4553.95,-146.8 4553.95,-155.2 4553.95,-155.2 4553.95,-159.4 4549.75,-163.6 4545.55,-163.6"/>
<text xml:space="preserve" text-anchor="middle" x="4495" y="-147.9" font-family="Helvetica,sans-Serif" font-size="8.00">CORE&#45;lagrangian&#45;policy &#45; XL</text>
</g>
<!-- cool_ideas_CORE_multi_agent_conflict_detection -->
<g id="node31" class="node">
<title>cool_ideas_CORE_multi_agent_conflict_detection</title>
<path fill="#d4e8f7" stroke="black" d="M4710.93,-163.6C4710.93,-163.6 4573.07,-163.6 4573.07,-163.6 4568.88,-163.6 4564.68,-159.4 4564.68,-155.2 4564.68,-155.2 4564.68,-146.8 4564.68,-146.8 4564.68,-142.6 4568.88,-138.4 4573.07,-138.4 4573.07,-138.4 4710.93,-138.4 4710.93,-138.4 4715.12,-138.4 4719.32,-142.6 4719.32,-146.8 4719.32,-146.8 4719.32,-155.2 4719.32,-155.2 4719.32,-159.4 4715.12,-163.6 4710.93,-163.6"/>
<text xml:space="preserve" text-anchor="middle" x="4642" y="-147.9" font-family="Helvetica,sans-Serif" font-size="8.00">CORE&#45;multi&#45;agent&#45;conflict&#45;detection &#45; L</text>
</g>
<!-- cool_ideas_CORE_policy_playground -->
<g id="node32" class="node">
<title>cool_ideas_CORE_policy_playground</title>
<path fill="#d4e8f7" stroke="black" d="M4837.43,-163.6C4837.43,-163.6 4738.57,-163.6 4738.57,-163.6 4734.38,-163.6 4730.18,-159.4 4730.18,-155.2 4730.18,-155.2 4730.18,-146.8 4730.18,-146.8 4730.18,-142.6 4734.38,-138.4 4738.57,-138.4 4738.57,-138.4 4837.43,-138.4 4837.43,-138.4 4841.62,-138.4 4845.82,-142.6 4845.82,-146.8 4845.82,-146.8 4845.82,-155.2 4845.82,-155.2 4845.82,-159.4 4841.62,-163.6 4837.43,-163.6"/>
<text xml:space="preserve" text-anchor="middle" x="4788" y="-147.9" font-family="Helvetica,sans-Serif" font-size="8.00">CORE&#45;policy&#45;playground &#45; S</text>
</g>
<!-- cool_ideas_CORE_policy_profiles -->
<g id="node33" class="node">
<title>cool_ideas_CORE_policy_profiles</title>
<path fill="#d4e8f7" stroke="black" d="M4951.05,-163.6C4951.05,-163.6 4864.95,-163.6 4864.95,-163.6 4860.75,-163.6 4856.55,-159.4 4856.55,-155.2 4856.55,-155.2 4856.55,-146.8 4856.55,-146.8 4856.55,-142.6 4860.75,-138.4 4864.95,-138.4 4864.95,-138.4 4951.05,-138.4 4951.05,-138.4 4955.25,-138.4 4959.45,-142.6 4959.45,-146.8 4959.45,-146.8 4959.45,-155.2 4959.45,-155.2 4959.45,-159.4 4955.25,-163.6 4951.05,-163.6"/>
<text xml:space="preserve" text-anchor="middle" x="4908" y="-147.9" font-family="Helvetica,sans-Serif" font-size="8.00">CORE&#45;policy&#45;profiles &#45; M</text>
</g>
<!-- cool_ideas_CORE_pr_review_structural_summary -->
<g id="node34" class="node">
<title>cool_ideas_CORE_pr_review_structural_summary</title>
<path fill="#d4e8f7" stroke="black" d="M5122.93,-163.6C5122.93,-163.6 4979.07,-163.6 4979.07,-163.6 4974.88,-163.6 4970.68,-159.4 4970.68,-155.2 4970.68,-155.2 4970.68,-146.8 4970.68,-146.8 4970.68,-142.6 4974.88,-138.4 4979.07,-138.4 4979.07,-138.4 5122.93,-138.4 5122.93,-138.4 5127.12,-138.4 5131.32,-142.6 5131.32,-146.8 5131.32,-146.8 5131.32,-155.2 5131.32,-155.2 5131.32,-159.4 5127.12,-163.6 5122.93,-163.6"/>
<text xml:space="preserve" text-anchor="middle" x="5051" y="-147.9" font-family="Helvetica,sans-Serif" font-size="8.00">CORE&#45;pr&#45;review&#45;structural&#45;summary &#45; M</text>
</g>
<!-- cool_ideas_CORE_self_tuning_governor -->
<g id="node35" class="node">
<title>cool_ideas_CORE_self_tuning_governor</title>
<path fill="#d4e8f7" stroke="black" d="M5261.05,-163.6C5261.05,-163.6 5150.95,-163.6 5150.95,-163.6 5146.75,-163.6 5142.55,-159.4 5142.55,-155.2 5142.55,-155.2 5142.55,-146.8 5142.55,-146.8 5142.55,-142.6 5146.75,-138.4 5150.95,-138.4 5150.95,-138.4 5261.05,-138.4 5261.05,-138.4 5265.25,-138.4 5269.45,-142.6 5269.45,-146.8 5269.45,-146.8 5269.45,-155.2 5269.45,-155.2 5269.45,-159.4 5265.25,-163.6 5261.05,-163.6"/>
<text xml:space="preserve" text-anchor="middle" x="5206" y="-147.9" font-family="Helvetica,sans-Serif" font-size="8.00">CORE&#45;self&#45;tuning&#45;governor &#45; M</text>
</g>
<!-- cool_ideas_CORE_session_knowledge_map -->
<g id="node36" class="node">
<title>cool_ideas_CORE_session_knowledge_map</title>
<path fill="#d4e8f7" stroke="black" d="M5411.43,-163.6C5411.43,-163.6 5288.57,-163.6 5288.57,-163.6 5284.38,-163.6 5280.18,-159.4 5280.18,-155.2 5280.18,-155.2 5280.18,-146.8 5280.18,-146.8 5280.18,-142.6 5284.38,-138.4 5288.57,-138.4 5288.57,-138.4 5411.43,-138.4 5411.43,-138.4 5415.62,-138.4 5419.82,-142.6 5419.82,-146.8 5419.82,-146.8 5419.82,-155.2 5419.82,-155.2 5419.82,-159.4 5415.62,-163.6 5411.43,-163.6"/>
<text xml:space="preserve" text-anchor="middle" x="5350" y="-147.9" font-family="Helvetica,sans-Serif" font-size="8.00">CORE&#45;session&#45;knowledge&#45;map &#45; S</text>
</g>
<!-- cool_ideas_CORE_speculative_read_cost -->
<g id="node37" class="node">
<title>cool_ideas_CORE_speculative_read_cost</title>
<path fill="#d4e8f7" stroke="black" d="M5551.18,-163.6C5551.18,-163.6 5438.82,-163.6 5438.82,-163.6 5434.62,-163.6 5430.43,-159.4 5430.43,-155.2 5430.43,-155.2 5430.43,-146.8 5430.43,-146.8 5430.43,-142.6 5434.62,-138.4 5438.82,-138.4 5438.82,-138.4 5551.18,-138.4 5551.18,-138.4 5555.38,-138.4 5559.57,-142.6 5559.57,-146.8 5559.57,-146.8 5559.57,-155.2 5559.57,-155.2 5559.57,-159.4 5555.38,-163.6 5551.18,-163.6"/>
<text xml:space="preserve" text-anchor="middle" x="5495" y="-147.9" font-family="Helvetica,sans-Serif" font-size="8.00">CORE&#45;speculative&#45;read&#45;cost &#45; S</text>
</g>
<!-- cool_ideas_CORE_structural_session_replay -->
<g id="node38" class="node">
<title>cool_ideas_CORE_structural_session_replay</title>
<path fill="#d4e8f7" stroke="black" d="M5704.55,-163.6C5704.55,-163.6 5579.45,-163.6 5579.45,-163.6 5575.25,-163.6 5571.05,-159.4 5571.05,-155.2 5571.05,-155.2 5571.05,-146.8 5571.05,-146.8 5571.05,-142.6 5575.25,-138.4 5579.45,-138.4 5579.45,-138.4 5704.55,-138.4 5704.55,-138.4 5708.75,-138.4 5712.95,-142.6 5712.95,-146.8 5712.95,-146.8 5712.95,-155.2 5712.95,-155.2 5712.95,-159.4 5708.75,-163.6 5704.55,-163.6"/>
<text xml:space="preserve" text-anchor="middle" x="5642" y="-147.9" font-family="Helvetica,sans-Serif" font-size="8.00">CORE&#45;structural&#45;session&#45;replay &#45; M</text>
</g>
<!-- cool_ideas_CORE_structural_test_coverage_map -->
<g id="node39" class="node">
<title>cool_ideas_CORE_structural_test_coverage_map</title>
<path fill="#d4e8f7" stroke="black" d="M5873.8,-163.6C5873.8,-163.6 5732.2,-163.6 5732.2,-163.6 5728,-163.6 5723.8,-159.4 5723.8,-155.2 5723.8,-155.2 5723.8,-146.8 5723.8,-146.8 5723.8,-142.6 5728,-138.4 5732.2,-138.4 5732.2,-138.4 5873.8,-138.4 5873.8,-138.4 5878,-138.4 5882.2,-142.6 5882.2,-146.8 5882.2,-146.8 5882.2,-155.2 5882.2,-155.2 5882.2,-159.4 5878,-163.6 5873.8,-163.6"/>
<text xml:space="preserve" text-anchor="middle" x="5803" y="-147.9" font-family="Helvetica,sans-Serif" font-size="8.00">CORE&#45;structural&#45;test&#45;coverage&#45;map &#45; M</text>
</g>
<!-- cool_ideas_CORE_wire_primitives_into_runtime -->
<g id="node40" class="node">
<title>cool_ideas_CORE_wire_primitives_into_runtime</title>
<path fill="#d4e8f7" stroke="black" d="M6036.43,-163.6C6036.43,-163.6 5901.57,-163.6 5901.57,-163.6 5897.38,-163.6 5893.18,-159.4 5893.18,-155.2 5893.18,-155.2 5893.18,-146.8 5893.18,-146.8 5893.18,-142.6 5897.38,-138.4 5901.57,-138.4 5901.57,-138.4 6036.43,-138.4 6036.43,-138.4 6040.62,-138.4 6044.82,-142.6 6044.82,-146.8 6044.82,-146.8 6044.82,-155.2 6044.82,-155.2 6044.82,-159.4 6040.62,-163.6 6036.43,-163.6"/>
<text xml:space="preserve" text-anchor="middle" x="5969" y="-147.9" font-family="Helvetica,sans-Serif" font-size="8.00">CORE&#45;wire&#45;primitives&#45;into&#45;runtime &#45; M</text>
</g>
<!-- cool_ideas_SURFACE_active_causal_workspace_status -->
<g id="node41" class="node">
<title>cool_ideas_SURFACE_active_causal_workspace_status</title>
<path fill="#d4e8f7" stroke="black" d="M6228.05,-163.6C6228.05,-163.6 6063.95,-163.6 6063.95,-163.6 6059.75,-163.6 6055.55,-159.4 6055.55,-155.2 6055.55,-155.2 6055.55,-146.8 6055.55,-146.8 6055.55,-142.6 6059.75,-138.4 6063.95,-138.4 6063.95,-138.4 6228.05,-138.4 6228.05,-138.4 6232.25,-138.4 6236.45,-142.6 6236.45,-146.8 6236.45,-146.8 6236.45,-155.2 6236.45,-155.2 6236.45,-159.4 6232.25,-163.6 6228.05,-163.6"/>
<text xml:space="preserve" text-anchor="middle" x="6146" y="-147.9" font-family="Helvetica,sans-Serif" font-size="8.00">SURFACE&#45;active&#45;causal&#45;workspace&#45;status &#45; M</text>
</g>
<!-- cool_ideas_SURFACE_attach_to_existing_causal_session -->
<g id="node42" class="node">
<title>cool_ideas_SURFACE_attach_to_existing_causal_session</title>
<path fill="#d4e8f7" stroke="black" d="M6424.3,-163.6C6424.3,-163.6 6255.7,-163.6 6255.7,-163.6 6251.5,-163.6 6247.3,-159.4 6247.3,-155.2 6247.3,-155.2 6247.3,-146.8 6247.3,-146.8 6247.3,-142.6 6251.5,-138.4 6255.7,-138.4 6255.7,-138.4 6424.3,-138.4 6424.3,-138.4 6428.5,-138.4 6432.7,-142.6 6432.7,-146.8 6432.7,-146.8 6432.7,-155.2 6432.7,-155.2 6432.7,-159.4 6428.5,-163.6 6424.3,-163.6"/>
<text xml:space="preserve" text-anchor="middle" x="6340" y="-147.9" font-family="Helvetica,sans-Serif" font-size="8.00">SURFACE&#45;attach&#45;to&#45;existing&#45;causal&#45;session &#45; M</text>
</g>
<!-- cool_ideas_SURFACE_ide_native_graft_integration -->
<g id="node43" class="node">
<title>cool_ideas_SURFACE_ide_native_graft_integration</title>
<path fill="#d4e8f7" stroke="black" d="M6602.3,-163.6C6602.3,-163.6 6451.7,-163.6 6451.7,-163.6 6447.5,-163.6 6443.3,-159.4 6443.3,-155.2 6443.3,-155.2 6443.3,-146.8 6443.3,-146.8 6443.3,-142.6 6447.5,-138.4 6451.7,-138.4 6451.7,-138.4 6602.3,-138.4 6602.3,-138.4 6606.5,-138.4 6610.7,-142.6 6610.7,-146.8 6610.7,-146.8 6610.7,-155.2 6610.7,-155.2 6610.7,-159.4 6606.5,-163.6 6602.3,-163.6"/>
<text xml:space="preserve" text-anchor="middle" x="6527" y="-147.9" font-family="Helvetica,sans-Serif" font-size="8.00">SURFACE&#45;ide&#45;native&#45;graft&#45;integration &#45; XL</text>
</g>
<!-- cool_ideas_SURFACE_local_history_dag_render_mode_and_count_legend -->
<g id="node44" class="node">
<title>cool_ideas_SURFACE_local_history_dag_render_mode_and_count_legend</title>
<path fill="#d4e8f7" stroke="black" d="M6856.18,-163.6C6856.18,-163.6 6629.82,-163.6 6629.82,-163.6 6625.62,-163.6 6621.43,-159.4 6621.43,-155.2 6621.43,-155.2 6621.43,-146.8 6621.43,-146.8 6621.43,-142.6 6625.62,-138.4 6629.82,-138.4 6629.82,-138.4 6856.18,-138.4 6856.18,-138.4 6860.38,-138.4 6864.57,-142.6 6864.57,-146.8 6864.57,-146.8 6864.57,-155.2 6864.57,-155.2 6864.57,-159.4 6860.38,-163.6 6856.18,-163.6"/>
<text xml:space="preserve" text-anchor="middle" x="6743" y="-147.9" font-family="Helvetica,sans-Serif" font-size="8.00">SURFACE&#45;local&#45;history&#45;dag&#45;render&#45;mode&#45;and&#45;count&#45;legend &#45; S</text>
</g>
<!-- cool_ideas_SURFACE_non_codex_instruction_bootstrap_parity -->
<g id="node45" class="node">
<title>cool_ideas_SURFACE_non_codex_instruction_bootstrap_parity</title>
<path fill="#d4e8f7" stroke="black" d="M7072.43,-163.6C7072.43,-163.6 6883.57,-163.6 6883.57,-163.6 6879.38,-163.6 6875.18,-159.4 6875.18,-155.2 6875.18,-155.2 6875.18,-146.8 6875.18,-146.8 6875.18,-142.6 6879.38,-138.4 6883.57,-138.4 6883.57,-138.4 7072.43,-138.4 7072.43,-138.4 7076.62,-138.4 7080.82,-142.6 7080.82,-146.8 7080.82,-146.8 7080.82,-155.2 7080.82,-155.2 7080.82,-159.4 7076.62,-163.6 7072.43,-163.6"/>
<text xml:space="preserve" text-anchor="middle" x="6978" y="-147.9" font-family="Helvetica,sans-Serif" font-size="8.00">SURFACE&#45;non&#45;codex&#45;instruction&#45;bootstrap&#45;parity &#45; M</text>
</g>
<!-- cool_ideas_SURFACE_offer_rename_refactor -->
<g id="node46" class="node">
<title>cool_ideas_SURFACE_offer_rename_refactor</title>
<path fill="#d4e8f7" stroke="black" d="M7229.43,-163.6C7229.43,-163.6 7100.57,-163.6 7100.57,-163.6 7096.38,-163.6 7092.18,-159.4 7092.18,-155.2 7092.18,-155.2 7092.18,-146.8 7092.18,-146.8 7092.18,-142.6 7096.38,-138.4 7100.57,-138.4 7100.57,-138.4 7229.43,-138.4 7229.43,-138.4 7233.62,-138.4 7237.82,-142.6 7237.82,-146.8 7237.82,-146.8 7237.82,-155.2 7237.82,-155.2 7237.82,-159.4 7233.62,-163.6 7229.43,-163.6"/>
<text xml:space="preserve" text-anchor="middle" x="7165" y="-147.9" font-family="Helvetica,sans-Serif" font-size="8.00">SURFACE&#45;offer&#45;rename&#45;refactor &#45; L</text>
</g>
<!-- cool_ideas_SURFACE_terminal_activity_browser_tui -->
<g id="node47" class="node">
<title>cool_ideas_SURFACE_terminal_activity_browser_tui</title>
<path fill="#d4e8f7" stroke="black" d="M7406.55,-163.6C7406.55,-163.6 7257.45,-163.6 7257.45,-163.6 7253.25,-163.6 7249.05,-159.4 7249.05,-155.2 7249.05,-155.2 7249.05,-146.8 7249.05,-146.8 7249.05,-142.6 7253.25,-138.4 7257.45,-138.4 7257.45,-138.4 7406.55,-138.4 7406.55,-138.4 7410.75,-138.4 7414.95,-142.6 7414.95,-146.8 7414.95,-146.8 7414.95,-155.2 7414.95,-155.2 7414.95,-159.4 7410.75,-163.6 7406.55,-163.6"/>
<text xml:space="preserve" text-anchor="middle" x="7332" y="-147.9" font-family="Helvetica,sans-Serif" font-size="8.00">SURFACE&#45;terminal&#45;activity&#45;browser&#45;tui &#45; L</text>
</g>
<!-- cool_ideas_WARP_adaptive_projection_selection -->
<g id="node48" class="node">
<title>cool_ideas_WARP_adaptive_projection_selection</title>
<path fill="#d4e8f7" stroke="black" d="M7571.93,-163.6C7571.93,-163.6 7434.07,-163.6 7434.07,-163.6 7429.88,-163.6 7425.68,-159.4 7425.68,-155.2 7425.68,-155.2 7425.68,-146.8 7425.68,-146.8 7425.68,-142.6 7429.88,-138.4 7434.07,-138.4 7434.07,-138.4 7571.93,-138.4 7571.93,-138.4 7576.12,-138.4 7580.32,-142.6 7580.32,-146.8 7580.32,-146.8 7580.32,-155.2 7580.32,-155.2 7580.32,-159.4 7576.12,-163.6 7571.93,-163.6"/>
<text xml:space="preserve" text-anchor="middle" x="7503" y="-147.9" font-family="Helvetica,sans-Serif" font-size="8.00">WARP&#45;adaptive&#45;projection&#45;selection &#45; L</text>
</g>
<!-- cool_ideas_WARP_agent_action_provenance -->
<g id="node49" class="node">
<title>cool_ideas_WARP_agent_action_provenance</title>
<path fill="#d4e8f7" stroke="black" d="M7730.55,-163.6C7730.55,-163.6 7599.45,-163.6 7599.45,-163.6 7595.25,-163.6 7591.05,-159.4 7591.05,-155.2 7591.05,-155.2 7591.05,-146.8 7591.05,-146.8 7591.05,-142.6 7595.25,-138.4 7599.45,-138.4 7599.45,-138.4 7730.55,-138.4 7730.55,-138.4 7734.75,-138.4 7738.95,-142.6 7738.95,-146.8 7738.95,-146.8 7738.95,-155.2 7738.95,-155.2 7738.95,-159.4 7734.75,-163.6 7730.55,-163.6"/>
<text xml:space="preserve" text-anchor="middle" x="7665" y="-147.9" font-family="Helvetica,sans-Serif" font-size="8.00">WARP&#45;agent&#45;action&#45;provenance &#45; XL</text>
</g>
<!-- cool_ideas_WARP_auto_breaking_change_detection -->
<g id="node50" class="node">
<title>cool_ideas_WARP_auto_breaking_change_detection</title>
<path fill="#d4e8f7" stroke="black" d="M7909.3,-163.6C7909.3,-163.6 7758.7,-163.6 7758.7,-163.6 7754.5,-163.6 7750.3,-159.4 7750.3,-155.2 7750.3,-155.2 7750.3,-146.8 7750.3,-146.8 7750.3,-142.6 7754.5,-138.4 7758.7,-138.4 7758.7,-138.4 7909.3,-138.4 7909.3,-138.4 7913.5,-138.4 7917.7,-142.6 7917.7,-146.8 7917.7,-146.8 7917.7,-155.2 7917.7,-155.2 7917.7,-159.4 7913.5,-163.6 7909.3,-163.6"/>
<text xml:space="preserve" text-anchor="middle" x="7834" y="-147.9" font-family="Helvetica,sans-Serif" font-size="8.00">WARP&#45;auto&#45;breaking&#45;change&#45;detection &#45; L</text>
</g>
<!-- cool_ideas_WARP_background_indexing -->
<g id="node51" class="node">
<title>cool_ideas_WARP_background_indexing</title>
<path fill="#d4e8f7" stroke="black" d="M8050.55,-163.6C8050.55,-163.6 7937.45,-163.6 7937.45,-163.6 7933.25,-163.6 7929.05,-159.4 7929.05,-155.2 7929.05,-155.2 7929.05,-146.8 7929.05,-146.8 7929.05,-142.6 7933.25,-138.4 7937.45,-138.4 7937.45,-138.4 8050.55,-138.4 8050.55,-138.4 8054.75,-138.4 8058.95,-142.6 8058.95,-146.8 8058.95,-146.8 8058.95,-155.2 8058.95,-155.2 8058.95,-159.4 8054.75,-163.6 8050.55,-163.6"/>
<text xml:space="preserve" text-anchor="middle" x="7994" y="-147.9" font-family="Helvetica,sans-Serif" font-size="8.00">WARP&#45;background&#45;indexing &#45; M</text>
</g>
<!-- cool_ideas_WARP_budget_elasticity -->
<g id="node52" class="node">
<title>cool_ideas_WARP_budget_elasticity</title>
<path fill="#d4e8f7" stroke="black" d="M8173.93,-163.6C8173.93,-163.6 8078.07,-163.6 8078.07,-163.6 8073.88,-163.6 8069.68,-159.4 8069.68,-155.2 8069.68,-155.2 8069.68,-146.8 8069.68,-146.8 8069.68,-142.6 8073.88,-138.4 8078.07,-138.4 8078.07,-138.4 8173.93,-138.4 8173.93,-138.4 8178.12,-138.4 8182.32,-142.6 8182.32,-146.8 8182.32,-146.8 8182.32,-155.2 8182.32,-155.2 8182.32,-159.4 8178.12,-163.6 8173.93,-163.6"/>
<text xml:space="preserve" text-anchor="middle" x="8126" y="-147.9" font-family="Helvetica,sans-Serif" font-size="8.00">WARP&#45;budget&#45;elasticity &#45; M</text>
</g>
<!-- cool_ideas_WARP_causal_blame_for_staged_artifacts -->
<g id="node53" class="node">
<title>cool_ideas_WARP_causal_blame_for_staged_artifacts</title>
<path fill="#d4e8f7" stroke="black" d="M8356.18,-163.6C8356.18,-163.6 8201.82,-163.6 8201.82,-163.6 8197.62,-163.6 8193.42,-159.4 8193.42,-155.2 8193.42,-155.2 8193.42,-146.8 8193.42,-146.8 8193.42,-142.6 8197.62,-138.4 8201.82,-138.4 8201.82,-138.4 8356.18,-138.4 8356.18,-138.4 8360.38,-138.4 8364.58,-142.6 8364.58,-146.8 8364.58,-146.8 8364.58,-155.2 8364.58,-155.2 8364.58,-159.4 8360.38,-163.6 8356.18,-163.6"/>
<text xml:space="preserve" text-anchor="middle" x="8279" y="-147.9" font-family="Helvetica,sans-Serif" font-size="8.00">WARP&#45;causal&#45;blame&#45;for&#45;staged&#45;artifacts &#45; L</text>
</g>
<!-- cool_ideas_WARP_causal_write_tracking -->
<g id="node54" class="node">
<title>cool_ideas_WARP_causal_write_tracking</title>
<path fill="#d4e8f7" stroke="black" d="M8494.05,-163.6C8494.05,-163.6 8383.95,-163.6 8383.95,-163.6 8379.75,-163.6 8375.55,-159.4 8375.55,-155.2 8375.55,-155.2 8375.55,-146.8 8375.55,-146.8 8375.55,-142.6 8379.75,-138.4 8383.95,-138.4 8383.95,-138.4 8494.05,-138.4 8494.05,-138.4 8498.25,-138.4 8502.45,-142.6 8502.45,-146.8 8502.45,-146.8 8502.45,-155.2 8502.45,-155.2 8502.45,-159.4 8498.25,-163.6 8494.05,-163.6"/>
<text xml:space="preserve" text-anchor="middle" x="8439" y="-147.9" font-family="Helvetica,sans-Serif" font-size="8.00">WARP&#45;causal&#45;write&#45;tracking &#45; L</text>
</g>
<!-- cool_ideas_WARP_codebase_entropy_trajectory -->
<g id="node55" class="node">
<title>cool_ideas_WARP_codebase_entropy_trajectory</title>
<path fill="#d4e8f7" stroke="black" d="M8661.68,-163.6C8661.68,-163.6 8522.32,-163.6 8522.32,-163.6 8518.12,-163.6 8513.92,-159.4 8513.92,-155.2 8513.92,-155.2 8513.92,-146.8 8513.92,-146.8 8513.92,-142.6 8518.12,-138.4 8522.32,-138.4 8522.32,-138.4 8661.68,-138.4 8661.68,-138.4 8665.88,-138.4 8670.08,-142.6 8670.08,-146.8 8670.08,-146.8 8670.08,-155.2 8670.08,-155.2 8670.08,-159.4 8665.88,-163.6 8661.68,-163.6"/>
<text xml:space="preserve" text-anchor="middle" x="8592" y="-147.9" font-family="Helvetica,sans-Serif" font-size="8.00">WARP&#45;codebase&#45;entropy&#45;trajectory &#45; M</text>
</g>
<!-- cool_ideas_WARP_codebase_signature -->
<g id="node56" class="node">
<title>cool_ideas_WARP_codebase_signature</title>
<path fill="#d4e8f7" stroke="black" d="M8796.55,-163.6C8796.55,-163.6 8689.45,-163.6 8689.45,-163.6 8685.25,-163.6 8681.05,-159.4 8681.05,-155.2 8681.05,-155.2 8681.05,-146.8 8681.05,-146.8 8681.05,-142.6 8685.25,-138.4 8689.45,-138.4 8689.45,-138.4 8796.55,-138.4 8796.55,-138.4 8800.75,-138.4 8804.95,-142.6 8804.95,-146.8 8804.95,-146.8 8804.95,-155.2 8804.95,-155.2 8804.95,-159.4 8800.75,-163.6 8796.55,-163.6"/>
<text xml:space="preserve" text-anchor="middle" x="8743" y="-147.9" font-family="Helvetica,sans-Serif" font-size="8.00">WARP&#45;codebase&#45;signature &#45; L</text>
</g>
<!-- cool_ideas_WARP_counterfactual_refactoring -->
<g id="node57" class="node">
<title>cool_ideas_WARP_counterfactual_refactoring</title>
<path fill="#d4e8f7" stroke="black" d="M8957.68,-163.6C8957.68,-163.6 8824.32,-163.6 8824.32,-163.6 8820.12,-163.6 8815.92,-159.4 8815.92,-155.2 8815.92,-155.2 8815.92,-146.8 8815.92,-146.8 8815.92,-142.6 8820.12,-138.4 8824.32,-138.4 8824.32,-138.4 8957.68,-138.4 8957.68,-138.4 8961.88,-138.4 8966.08,-142.6 8966.08,-146.8 8966.08,-146.8 8966.08,-155.2 8966.08,-155.2 8966.08,-159.4 8961.88,-163.6 8957.68,-163.6"/>
<text xml:space="preserve" text-anchor="middle" x="8891" y="-147.9" font-family="Helvetica,sans-Serif" font-size="8.00">WARP&#45;counterfactual&#45;refactoring &#45; XL</text>
</g>
<!-- cool_ideas_WARP_dead_symbol_detection -->
<g id="node58" class="node">
<title>cool_ideas_WARP_dead_symbol_detection</title>
<path fill="#d4e8f7" stroke="black" d="M9104.18,-163.6C9104.18,-163.6 8985.82,-163.6 8985.82,-163.6 8981.62,-163.6 8977.42,-159.4 8977.42,-155.2 8977.42,-155.2 8977.42,-146.8 8977.42,-146.8 8977.42,-142.6 8981.62,-138.4 8985.82,-138.4 8985.82,-138.4 9104.18,-138.4 9104.18,-138.4 9108.38,-138.4 9112.58,-142.6 9112.58,-146.8 9112.58,-146.8 9112.58,-155.2 9112.58,-155.2 9112.58,-159.4 9108.38,-163.6 9104.18,-163.6"/>
<text xml:space="preserve" text-anchor="middle" x="9045" y="-147.9" font-family="Helvetica,sans-Serif" font-size="8.00">WARP&#45;dead&#45;symbol&#45;detection &#45; S</text>
</g>
<!-- cool_ideas_WARP_degeneracy_warning -->
<g id="node59" class="node">
<title>cool_ideas_WARP_degeneracy_warning</title>
<path fill="#d4e8f7" stroke="black" d="M9244.18,-163.6C9244.18,-163.6 9131.82,-163.6 9131.82,-163.6 9127.62,-163.6 9123.42,-159.4 9123.42,-155.2 9123.42,-155.2 9123.42,-146.8 9123.42,-146.8 9123.42,-142.6 9127.62,-138.4 9131.82,-138.4 9131.82,-138.4 9244.18,-138.4 9244.18,-138.4 9248.38,-138.4 9252.58,-142.6 9252.58,-146.8 9252.58,-146.8 9252.58,-155.2 9252.58,-155.2 9252.58,-159.4 9248.38,-163.6 9244.18,-163.6"/>
<text xml:space="preserve" text-anchor="middle" x="9188" y="-147.9" font-family="Helvetica,sans-Serif" font-size="8.00">WARP&#45;degeneracy&#45;warning &#45; M</text>
</g>
<!-- cool_ideas_WARP_drift_sentinel -->
<g id="node60" class="node">
<title>cool_ideas_WARP_drift_sentinel</title>
<path fill="#d4e8f7" stroke="black" d="M9354.18,-163.6C9354.18,-163.6 9271.82,-163.6 9271.82,-163.6 9267.62,-163.6 9263.42,-159.4 9263.42,-155.2 9263.42,-155.2 9263.42,-146.8 9263.42,-146.8 9263.42,-142.6 9267.62,-138.4 9271.82,-138.4 9271.82,-138.4 9354.18,-138.4 9354.18,-138.4 9358.38,-138.4 9362.58,-142.6 9362.58,-146.8 9362.58,-146.8 9362.58,-155.2 9362.58,-155.2 9362.58,-159.4 9358.38,-163.6 9354.18,-163.6"/>
<text xml:space="preserve" text-anchor="middle" x="9313" y="-147.9" font-family="Helvetica,sans-Serif" font-size="8.00">WARP&#45;drift&#45;sentinel &#45; M</text>
</g>
<!-- cool_ideas_WARP_footprint_parallelism -->
<g id="node61" class="node">
<title>cool_ideas_WARP_footprint_parallelism</title>
<path fill="#d4e8f7" stroke="black" d="M9493.8,-163.6C9493.8,-163.6 9382.2,-163.6 9382.2,-163.6 9378,-163.6 9373.8,-159.4 9373.8,-155.2 9373.8,-155.2 9373.8,-146.8 9373.8,-146.8 9373.8,-142.6 9378,-138.4 9382.2,-138.4 9382.2,-138.4 9493.8,-138.4 9493.8,-138.4 9498,-138.4 9502.2,-142.6 9502.2,-146.8 9502.2,-146.8 9502.2,-155.2 9502.2,-155.2 9502.2,-159.4 9498,-163.6 9493.8,-163.6"/>
<text xml:space="preserve" text-anchor="middle" x="9438" y="-147.9" font-family="Helvetica,sans-Serif" font-size="8.00">WARP&#45;footprint&#45;parallelism &#45; XL</text>
</g>
<!-- cool_ideas_WARP_graft_pack -->
<g id="node62" class="node">
<title>cool_ideas_WARP_graft_pack</title>
<path fill="#d4e8f7" stroke="black" d="M9596.43,-163.6C9596.43,-163.6 9521.57,-163.6 9521.57,-163.6 9517.38,-163.6 9513.17,-159.4 9513.17,-155.2 9513.17,-155.2 9513.17,-146.8 9513.17,-146.8 9513.17,-142.6 9517.38,-138.4 9521.57,-138.4 9521.57,-138.4 9596.43,-138.4 9596.43,-138.4 9600.62,-138.4 9604.83,-142.6 9604.83,-146.8 9604.83,-146.8 9604.83,-155.2 9604.83,-155.2 9604.83,-159.4 9600.62,-163.6 9596.43,-163.6"/>
<text xml:space="preserve" text-anchor="middle" x="9559" y="-147.9" font-family="Helvetica,sans-Serif" font-size="8.00">WARP&#45;graft&#45;pack &#45; M</text>
</g>
<!-- cool_ideas_WARP_grouped_aggregate_queries -->
<g id="node63" class="node">
<title>cool_ideas_WARP_grouped_aggregate_queries</title>
<path fill="#d4e8f7" stroke="black" d="M9761.93,-163.6C9761.93,-163.6 9624.07,-163.6 9624.07,-163.6 9619.88,-163.6 9615.67,-159.4 9615.67,-155.2 9615.67,-155.2 9615.67,-146.8 9615.67,-146.8 9615.67,-142.6 9619.88,-138.4 9624.07,-138.4 9624.07,-138.4 9761.93,-138.4 9761.93,-138.4 9766.12,-138.4 9770.33,-142.6 9770.33,-146.8 9770.33,-146.8 9770.33,-155.2 9770.33,-155.2 9770.33,-159.4 9766.12,-163.6 9761.93,-163.6"/>
<text xml:space="preserve" text-anchor="middle" x="9693" y="-147.9" font-family="Helvetica,sans-Serif" font-size="8.00">WARP&#45;grouped&#45;aggregate&#45;queries &#45; M</text>
</g>
<!-- cool_ideas_WARP_intent_and_decision_events -->
<g id="node64" class="node">
<title>cool_ideas_WARP_intent_and_decision_events</title>
<path fill="#d4e8f7" stroke="black" d="M9922.3,-163.6C9922.3,-163.6 9789.7,-163.6 9789.7,-163.6 9785.5,-163.6 9781.3,-159.4 9781.3,-155.2 9781.3,-155.2 9781.3,-146.8 9781.3,-146.8 9781.3,-142.6 9785.5,-138.4 9789.7,-138.4 9789.7,-138.4 9922.3,-138.4 9922.3,-138.4 9926.5,-138.4 9930.7,-142.6 9930.7,-146.8 9930.7,-146.8 9930.7,-155.2 9930.7,-155.2 9930.7,-159.4 9926.5,-163.6 9922.3,-163.6"/>
<text xml:space="preserve" text-anchor="middle" x="9856" y="-147.9" font-family="Helvetica,sans-Serif" font-size="8.00">WARP&#45;intent&#45;and&#45;decision&#45;events &#45; M</text>
</g>
<!-- cool_ideas_WARP_intentional_degeneracy_privacy -->
<g id="node65" class="node">
<title>cool_ideas_WARP_intentional_degeneracy_privacy</title>
<path fill="#d4e8f7" stroke="black" d="M10097.8,-163.6C10097.8,-163.6 9950.2,-163.6 9950.2,-163.6 9946,-163.6 9941.8,-159.4 9941.8,-155.2 9941.8,-155.2 9941.8,-146.8 9941.8,-146.8 9941.8,-142.6 9946,-138.4 9950.2,-138.4 9950.2,-138.4 10097.8,-138.4 10097.8,-138.4 10102,-138.4 10106.2,-142.6 10106.2,-146.8 10106.2,-146.8 10106.2,-155.2 10106.2,-155.2 10106.2,-159.4 10102,-163.6 10097.8,-163.6"/>
<text xml:space="preserve" text-anchor="middle" x="10024" y="-147.9" font-family="Helvetica,sans-Serif" font-size="8.00">WARP&#45;intentional&#45;degeneracy&#45;privacy &#45; M</text>
</g>
<!-- cool_ideas_WARP_minimum_viable_context -->
<g id="node66" class="node">
<title>cool_ideas_WARP_minimum_viable_context</title>
<path fill="#d4e8f7" stroke="black" d="M10248.43,-163.6C10248.43,-163.6 10125.57,-163.6 10125.57,-163.6 10121.38,-163.6 10117.17,-159.4 10117.17,-155.2 10117.17,-155.2 10117.17,-146.8 10117.17,-146.8 10117.17,-142.6 10121.38,-138.4 10125.57,-138.4 10125.57,-138.4 10248.43,-138.4 10248.43,-138.4 10252.62,-138.4 10256.83,-142.6 10256.83,-146.8 10256.83,-146.8 10256.83,-155.2 10256.83,-155.2 10256.83,-159.4 10252.62,-163.6 10248.43,-163.6"/>
<text xml:space="preserve" text-anchor="middle" x="10187" y="-147.9" font-family="Helvetica,sans-Serif" font-size="8.00">WARP&#45;minimum&#45;viable&#45;context &#45; M</text>
</g>
<!-- cool_ideas_WARP_outline_diff_commit_trailer -->
<g id="node67" class="node">
<title>cool_ideas_WARP_outline_diff_commit_trailer</title>
<path fill="#d4e8f7" stroke="black" d="M10401.93,-163.6C10401.93,-163.6 10276.07,-163.6 10276.07,-163.6 10271.88,-163.6 10267.67,-159.4 10267.67,-155.2 10267.67,-155.2 10267.67,-146.8 10267.67,-146.8 10267.67,-142.6 10271.88,-138.4 10276.07,-138.4 10276.07,-138.4 10401.93,-138.4 10401.93,-138.4 10406.12,-138.4 10410.33,-142.6 10410.33,-146.8 10410.33,-146.8 10410.33,-155.2 10410.33,-155.2 10410.33,-159.4 10406.12,-163.6 10401.93,-163.6"/>
<text xml:space="preserve" text-anchor="middle" x="10339" y="-147.9" font-family="Helvetica,sans-Serif" font-size="8.00">WARP&#45;outline&#45;diff&#45;commit&#45;trailer &#45; S</text>
</g>
<!-- cool_ideas_WARP_projection_safety_classes -->
<g id="node68" class="node">
<title>cool_ideas_WARP_projection_safety_classes</title>
<path fill="#d4e8f7" stroke="black" d="M10555.93,-163.6C10555.93,-163.6 10430.07,-163.6 10430.07,-163.6 10425.88,-163.6 10421.67,-159.4 10421.67,-155.2 10421.67,-155.2 10421.67,-146.8 10421.67,-146.8 10421.67,-142.6 10425.88,-138.4 10430.07,-138.4 10430.07,-138.4 10555.93,-138.4 10555.93,-138.4 10560.12,-138.4 10564.33,-142.6 10564.33,-146.8 10564.33,-146.8 10564.33,-155.2 10564.33,-155.2 10564.33,-159.4 10560.12,-163.6 10555.93,-163.6"/>
<text xml:space="preserve" text-anchor="middle" x="10493" y="-147.9" font-family="Helvetica,sans-Serif" font-size="8.00">WARP&#45;projection&#45;safety&#45;classes &#45; M</text>
</g>
<!-- cool_ideas_WARP_provenance_dag -->
<g id="node69" class="node">
<title>cool_ideas_WARP_provenance_dag</title>
<path fill="#d4e8f7" stroke="black" d="M10678.55,-163.6C10678.55,-163.6 10583.45,-163.6 10583.45,-163.6 10579.25,-163.6 10575.05,-159.4 10575.05,-155.2 10575.05,-155.2 10575.05,-146.8 10575.05,-146.8 10575.05,-142.6 10579.25,-138.4 10583.45,-138.4 10583.45,-138.4 10678.55,-138.4 10678.55,-138.4 10682.75,-138.4 10686.95,-142.6 10686.95,-146.8 10686.95,-146.8 10686.95,-155.2 10686.95,-155.2 10686.95,-159.4 10682.75,-163.6 10678.55,-163.6"/>
<text xml:space="preserve" text-anchor="middle" x="10631" y="-147.9" font-family="Helvetica,sans-Serif" font-size="8.00">WARP&#45;provenance&#45;dag &#45; L</text>
</g>
<!-- cool_ideas_WARP_reasoning_trace_replay -->
<g id="node70" class="node">
<title>cool_ideas_WARP_reasoning_trace_replay</title>
<path fill="#d4e8f7" stroke="black" d="M10825.93,-163.6C10825.93,-163.6 10706.07,-163.6 10706.07,-163.6 10701.88,-163.6 10697.67,-159.4 10697.67,-155.2 10697.67,-155.2 10697.67,-146.8 10697.67,-146.8 10697.67,-142.6 10701.88,-138.4 10706.07,-138.4 10706.07,-138.4 10825.93,-138.4 10825.93,-138.4 10830.12,-138.4 10834.33,-142.6 10834.33,-146.8 10834.33,-146.8 10834.33,-155.2 10834.33,-155.2 10834.33,-159.4 10830.12,-163.6 10825.93,-163.6"/>
<text xml:space="preserve" text-anchor="middle" x="10766" y="-147.9" font-family="Helvetica,sans-Serif" font-size="8.00">WARP&#45;reasoning&#45;trace&#45;replay &#45; M</text>
</g>
<!-- cool_ideas_WARP_rulial_heat_map -->
<g id="node71" class="node">
<title>cool_ideas_WARP_rulial_heat_map</title>
<path fill="#d4e8f7" stroke="black" d="M10944.3,-163.6C10944.3,-163.6 10853.7,-163.6 10853.7,-163.6 10849.5,-163.6 10845.3,-159.4 10845.3,-155.2 10845.3,-155.2 10845.3,-146.8 10845.3,-146.8 10845.3,-142.6 10849.5,-138.4 10853.7,-138.4 10853.7,-138.4 10944.3,-138.4 10944.3,-138.4 10948.5,-138.4 10952.7,-142.6 10952.7,-146.8 10952.7,-146.8 10952.7,-155.2 10952.7,-155.2 10952.7,-159.4 10948.5,-163.6 10944.3,-163.6"/>
<text xml:space="preserve" text-anchor="middle" x="10899" y="-147.9" font-family="Helvetica,sans-Serif" font-size="8.00">WARP&#45;rulial&#45;heat&#45;map &#45; L</text>
</g>
<!-- cool_ideas_WARP_semantic_drift_in_sessions -->
<g id="node72" class="node">
<title>cool_ideas_WARP_semantic_drift_in_sessions</title>
<path fill="#d4e8f7" stroke="black" d="M11101.43,-163.6C11101.43,-163.6 10972.57,-163.6 10972.57,-163.6 10968.38,-163.6 10964.17,-159.4 10964.17,-155.2 10964.17,-155.2 10964.17,-146.8 10964.17,-146.8 10964.17,-142.6 10968.38,-138.4 10972.57,-138.4 10972.57,-138.4 11101.43,-138.4 11101.43,-138.4 11105.62,-138.4 11109.83,-142.6 11109.83,-146.8 11109.83,-146.8 11109.83,-155.2 11109.83,-155.2 11109.83,-159.4 11105.62,-163.6 11101.43,-163.6"/>
<text xml:space="preserve" text-anchor="middle" x="11037" y="-147.9" font-family="Helvetica,sans-Serif" font-size="8.00">WARP&#45;semantic&#45;drift&#45;in&#45;sessions &#45; M</text>
</g>
<!-- cool_ideas_WARP_semantic_merge_conflict_prediction -->
<g id="node73" class="node">
<title>cool_ideas_WARP_semantic_merge_conflict_prediction</title>
<path fill="#d4e8f7" stroke="black" d="M11288.43,-163.6C11288.43,-163.6 11129.57,-163.6 11129.57,-163.6 11125.38,-163.6 11121.17,-159.4 11121.17,-155.2 11121.17,-155.2 11121.17,-146.8 11121.17,-146.8 11121.17,-142.6 11125.38,-138.4 11129.57,-138.4 11129.57,-138.4 11288.43,-138.4 11288.43,-138.4 11292.62,-138.4 11296.83,-142.6 11296.83,-146.8 11296.83,-146.8 11296.83,-155.2 11296.83,-155.2 11296.83,-159.4 11292.62,-163.6 11288.43,-163.6"/>
<text xml:space="preserve" text-anchor="middle" x="11209" y="-147.9" font-family="Helvetica,sans-Serif" font-size="8.00">WARP&#45;semantic&#45;merge&#45;conflict&#45;prediction &#45; L</text>
</g>
<!-- cool_ideas_WARP_session_filtration -->
<g id="node74" class="node">
<title>cool_ideas_WARP_session_filtration</title>
<path fill="#d4e8f7" stroke="black" d="M11409.8,-163.6C11409.8,-163.6 11316.2,-163.6 11316.2,-163.6 11312,-163.6 11307.8,-159.4 11307.8,-155.2 11307.8,-155.2 11307.8,-146.8 11307.8,-146.8 11307.8,-142.6 11312,-138.4 11316.2,-138.4 11316.2,-138.4 11409.8,-138.4 11409.8,-138.4 11414,-138.4 11418.2,-142.6 11418.2,-146.8 11418.2,-146.8 11418.2,-155.2 11418.2,-155.2 11418.2,-159.4 11414,-163.6 11409.8,-163.6"/>
<text xml:space="preserve" text-anchor="middle" x="11363" y="-147.9" font-family="Helvetica,sans-Serif" font-size="8.00">WARP&#45;session&#45;filtration &#45; L</text>
</g>
<!-- cool_ideas_WARP_shadow_structural_workspaces -->
<g id="node75" class="node">
<title>cool_ideas_WARP_shadow_structural_workspaces</title>
<path fill="#d4e8f7" stroke="black" d="M11588.3,-163.6C11588.3,-163.6 11437.7,-163.6 11437.7,-163.6 11433.5,-163.6 11429.3,-159.4 11429.3,-155.2 11429.3,-155.2 11429.3,-146.8 11429.3,-146.8 11429.3,-142.6 11433.5,-138.4 11437.7,-138.4 11437.7,-138.4 11588.3,-138.4 11588.3,-138.4 11592.5,-138.4 11596.7,-142.6 11596.7,-146.8 11596.7,-146.8 11596.7,-155.2 11596.7,-155.2 11596.7,-159.4 11592.5,-163.6 11588.3,-163.6"/>
<text xml:space="preserve" text-anchor="middle" x="11513" y="-147.9" font-family="Helvetica,sans-Serif" font-size="8.00">WARP&#45;shadow&#45;structural&#45;workspaces &#45; XL</text>
</g>
<!-- cool_ideas_WARP_speculative_merge -->
<g id="node76" class="node">
<title>cool_ideas_WARP_speculative_merge</title>
<path fill="#d4e8f7" stroke="black" d="M11723.55,-163.6C11723.55,-163.6 11616.45,-163.6 11616.45,-163.6 11612.25,-163.6 11608.05,-159.4 11608.05,-155.2 11608.05,-155.2 11608.05,-146.8 11608.05,-146.8 11608.05,-142.6 11612.25,-138.4 11616.45,-138.4 11616.45,-138.4 11723.55,-138.4 11723.55,-138.4 11727.75,-138.4 11731.95,-142.6 11731.95,-146.8 11731.95,-146.8 11731.95,-155.2 11731.95,-155.2 11731.95,-159.4 11727.75,-163.6 11723.55,-163.6"/>
<text xml:space="preserve" text-anchor="middle" x="11670" y="-147.9" font-family="Helvetica,sans-Serif" font-size="8.00">WARP&#45;speculative&#45;merge &#45; XL</text>
</g>
<!-- cool_ideas_WARP_stale_docs_checker -->
<g id="node77" class="node">
<title>cool_ideas_WARP_stale_docs_checker</title>
<path fill="#d4e8f7" stroke="black" d="M11856.8,-163.6C11856.8,-163.6 11751.2,-163.6 11751.2,-163.6 11747,-163.6 11742.8,-159.4 11742.8,-155.2 11742.8,-155.2 11742.8,-146.8 11742.8,-146.8 11742.8,-142.6 11747,-138.4 11751.2,-138.4 11751.2,-138.4 11856.8,-138.4 11856.8,-138.4 11861,-138.4 11865.2,-142.6 11865.2,-146.8 11865.2,-146.8 11865.2,-155.2 11865.2,-155.2 11865.2,-159.4 11861,-163.6 11856.8,-163.6"/>
<text xml:space="preserve" text-anchor="middle" x="11804" y="-147.9" font-family="Helvetica,sans-Serif" font-size="8.00">WARP&#45;stale&#45;docs&#45;checker &#45; M</text>
</g>
<!-- cool_ideas_WARP_structural_drift_detection -->
<g id="node78" class="node">
<title>cool_ideas_WARP_structural_drift_detection</title>
<path fill="#d4e8f7" stroke="black" d="M12007.8,-163.6C12007.8,-163.6 11884.2,-163.6 11884.2,-163.6 11880,-163.6 11875.8,-159.4 11875.8,-155.2 11875.8,-155.2 11875.8,-146.8 11875.8,-146.8 11875.8,-142.6 11880,-138.4 11884.2,-138.4 11884.2,-138.4 12007.8,-138.4 12007.8,-138.4 12012,-138.4 12016.2,-142.6 12016.2,-146.8 12016.2,-146.8 12016.2,-155.2 12016.2,-155.2 12016.2,-159.4 12012,-163.6 12007.8,-163.6"/>
<text xml:space="preserve" text-anchor="middle" x="11946" y="-147.9" font-family="Helvetica,sans-Serif" font-size="8.00">WARP&#45;structural&#45;drift&#45;detection &#45; M</text>
</g>
<!-- cool_ideas_WARP_structural_impact_prediction -->
<g id="node79" class="node">
<title>cool_ideas_WARP_structural_impact_prediction</title>
<path fill="#d4e8f7" stroke="black" d="M12174.3,-163.6C12174.3,-163.6 12035.7,-163.6 12035.7,-163.6 12031.5,-163.6 12027.3,-159.4 12027.3,-155.2 12027.3,-155.2 12027.3,-146.8 12027.3,-146.8 12027.3,-142.6 12031.5,-138.4 12035.7,-138.4 12035.7,-138.4 12174.3,-138.4 12174.3,-138.4 12178.5,-138.4 12182.7,-142.6 12182.7,-146.8 12182.7,-146.8 12182.7,-155.2 12182.7,-155.2 12182.7,-159.4 12178.5,-163.6 12174.3,-163.6"/>
<text xml:space="preserve" text-anchor="middle" x="12105" y="-147.9" font-family="Helvetica,sans-Serif" font-size="8.00">WARP&#45;structural&#45;impact&#45;prediction &#45; XL</text>
</g>
<!-- cool_ideas_WARP_symbol_heatmap -->
<g id="node80" class="node">
<title>cool_ideas_WARP_symbol_heatmap</title>
<path fill="#d4e8f7" stroke="black" d="M12300.05,-163.6C12300.05,-163.6 12201.95,-163.6 12201.95,-163.6 12197.75,-163.6 12193.55,-159.4 12193.55,-155.2 12193.55,-155.2 12193.55,-146.8 12193.55,-146.8 12193.55,-142.6 12197.75,-138.4 12201.95,-138.4 12201.95,-138.4 12300.05,-138.4 12300.05,-138.4 12304.25,-138.4 12308.45,-142.6 12308.45,-146.8 12308.45,-146.8 12308.45,-155.2 12308.45,-155.2 12308.45,-159.4 12304.25,-163.6 12300.05,-163.6"/>
<text xml:space="preserve" text-anchor="middle" x="12251" y="-147.9" font-family="Helvetica,sans-Serif" font-size="8.00">WARP&#45;symbol&#45;heatmap &#45; M</text>
</g>
<!-- cool_ideas_WARP_symbol_history_timeline -->
<g id="node81" class="node">
<title>cool_ideas_WARP_symbol_history_timeline</title>
<path fill="#d4e8f7" stroke="black" d="M12446.18,-163.6C12446.18,-163.6 12327.82,-163.6 12327.82,-163.6 12323.62,-163.6 12319.42,-159.4 12319.42,-155.2 12319.42,-155.2 12319.42,-146.8 12319.42,-146.8 12319.42,-142.6 12323.62,-138.4 12327.82,-138.4 12327.82,-138.4 12446.18,-138.4 12446.18,-138.4 12450.38,-138.4 12454.58,-142.6 12454.58,-146.8 12454.58,-146.8 12454.58,-155.2 12454.58,-155.2 12454.58,-159.4 12450.38,-163.6 12446.18,-163.6"/>
<text xml:space="preserve" text-anchor="middle" x="12387" y="-147.9" font-family="Helvetica,sans-Serif" font-size="8.00">WARP&#45;symbol&#45;history&#45;timeline &#45; S</text>
</g>
<!-- cool_ideas_WARP_technical_debt_curvature -->
<g id="node82" class="node">
<title>cool_ideas_WARP_technical_debt_curvature</title>
<path fill="#d4e8f7" stroke="black" d="M12596.43,-163.6C12596.43,-163.6 12473.57,-163.6 12473.57,-163.6 12469.38,-163.6 12465.17,-159.4 12465.17,-155.2 12465.17,-155.2 12465.17,-146.8 12465.17,-146.8 12465.17,-142.6 12469.38,-138.4 12473.57,-138.4 12473.57,-138.4 12596.43,-138.4 12596.43,-138.4 12600.62,-138.4 12604.83,-142.6 12604.83,-146.8 12604.83,-146.8 12604.83,-155.2 12604.83,-155.2 12604.83,-159.4 12600.62,-163.6 12596.43,-163.6"/>
<text xml:space="preserve" text-anchor="middle" x="12535" y="-147.9" font-family="Helvetica,sans-Serif" font-size="8.00">WARP&#45;technical&#45;debt&#45;curvature &#45; L</text>
</g>
<!-- cool_ideas_WARP_temporal_structural_search -->
<g id="node83" class="node">
<title>cool_ideas_WARP_temporal_structural_search</title>
<path fill="#d4e8f7" stroke="black" d="M12757.68,-163.6C12757.68,-163.6 12624.32,-163.6 12624.32,-163.6 12620.12,-163.6 12615.92,-159.4 12615.92,-155.2 12615.92,-155.2 12615.92,-146.8 12615.92,-146.8 12615.92,-142.6 12620.12,-138.4 12624.32,-138.4 12624.32,-138.4 12757.68,-138.4 12757.68,-138.4 12761.88,-138.4 12766.08,-142.6 12766.08,-146.8 12766.08,-146.8 12766.08,-155.2 12766.08,-155.2 12766.08,-159.4 12761.88,-163.6 12757.68,-163.6"/>
<text xml:space="preserve" text-anchor="middle" x="12691" y="-147.9" font-family="Helvetica,sans-Serif" font-size="8.00">WARP&#45;temporal&#45;structural&#45;search &#45; M</text>
</g>
<!-- cool_ideas_bounded_neighborhood_for_references -->
<g id="node84" class="node">
<title>cool_ideas_bounded_neighborhood_for_references</title>
<path fill="#d4e8f7" stroke="black" d="M12934.18,-163.6C12934.18,-163.6 12785.82,-163.6 12785.82,-163.6 12781.62,-163.6 12777.42,-159.4 12777.42,-155.2 12777.42,-155.2 12777.42,-146.8 12777.42,-146.8 12777.42,-142.6 12781.62,-138.4 12785.82,-138.4 12785.82,-138.4 12934.18,-138.4 12934.18,-138.4 12938.38,-138.4 12942.58,-142.6 12942.58,-146.8 12942.58,-146.8 12942.58,-155.2 12942.58,-155.2 12942.58,-159.4 12938.38,-163.6 12934.18,-163.6"/>
<text xml:space="preserve" text-anchor="middle" x="12860" y="-147.9" font-family="Helvetica,sans-Serif" font-size="8.00">bounded&#45;neighborhood&#45;for&#45;references &#45; S</text>
</g>
<!-- cool_ideas_monitor_tick_ceiling_tracking -->
<g id="node85" class="node">
<title>cool_ideas_monitor_tick_ceiling_tracking</title>
<path fill="#d4e8f7" stroke="black" d="M13069.55,-163.6C13069.55,-163.6 12962.45,-163.6 12962.45,-163.6 12958.25,-163.6 12954.05,-159.4 12954.05,-155.2 12954.05,-155.2 12954.05,-146.8 12954.05,-146.8 12954.05,-142.6 12958.25,-138.4 12962.45,-138.4 12962.45,-138.4 13069.55,-138.4 13069.55,-138.4 13073.75,-138.4 13077.95,-142.6 13077.95,-146.8 13077.95,-146.8 13077.95,-155.2 13077.95,-155.2 13077.95,-159.4 13073.75,-163.6 13069.55,-163.6"/>
<text xml:space="preserve" text-anchor="middle" x="13016" y="-147.9" font-family="Helvetica,sans-Serif" font-size="8.00">monitor&#45;tick&#45;ceiling&#45;tracking &#45; S</text>
</g>
<!-- cool_ideas_traverse_plus_query_hydration_helper -->
<g id="node86" class="node">
<title>cool_ideas_traverse_plus_query_hydration_helper</title>
<path fill="#d4e8f7" stroke="black" d="M13238.8,-163.6C13238.8,-163.6 13097.2,-163.6 13097.2,-163.6 13093,-163.6 13088.8,-159.4 13088.8,-155.2 13088.8,-155.2 13088.8,-146.8 13088.8,-146.8 13088.8,-142.6 13093,-138.4 13097.2,-138.4 13097.2,-138.4 13238.8,-138.4 13238.8,-138.4 13243,-138.4 13247.2,-142.6 13247.2,-146.8 13247.2,-146.8 13247.2,-155.2 13247.2,-155.2 13247.2,-159.4 13243,-163.6 13238.8,-163.6"/>
<text xml:space="preserve" text-anchor="middle" x="13168" y="-147.9" font-family="Helvetica,sans-Serif" font-size="8.00">traverse&#45;plus&#45;query&#45;hydration&#45;helper &#45; S</text>
</g>
<!-- leg_v07 -->
<g id="node87" class="node">
<title>leg_v07</title>
<path fill="#ffa07a" stroke="black" stroke-width="2" d="M13348.8,-163.6C13348.8,-163.6 13279.2,-163.6 13279.2,-163.6 13275,-163.6 13270.8,-159.4 13270.8,-155.2 13270.8,-155.2 13270.8,-146.8 13270.8,-146.8 13270.8,-142.6 13275,-138.4 13279.2,-138.4 13279.2,-138.4 13348.8,-138.4 13348.8,-138.4 13353,-138.4 13357.2,-142.6 13357.2,-146.8 13357.2,-146.8 13357.2,-155.2 13357.2,-155.2 13357.2,-159.4 13353,-163.6 13348.8,-163.6"/>
<text xml:space="preserve" text-anchor="middle" x="13314" y="-148.47" font-family="Helvetica,sans-Serif" font-size="7.00">v0.7.0</text>
</g>
<!-- leg_bad -->
<g id="node88" class="node">
<title>leg_bad</title>
<path fill="#f6b3b3" stroke="black" stroke-width="2" d="M13348.8,-102.4C13348.8,-102.4 13279.2,-102.4 13279.2,-102.4 13275,-102.4 13270.8,-98.2 13270.8,-94 13270.8,-94 13270.8,-85.6 13270.8,-85.6 13270.8,-81.4 13275,-77.2 13279.2,-77.2 13279.2,-77.2 13348.8,-77.2 13348.8,-77.2 13353,-77.2 13357.2,-81.4 13357.2,-85.6 13357.2,-85.6 13357.2,-94 13357.2,-94 13357.2,-98.2 13353,-102.4 13348.8,-102.4"/>
<text xml:space="preserve" text-anchor="middle" x="13314" y="-87.28" font-family="Helvetica,sans-Serif" font-size="7.00">bad&#45;code</text>
</g>
<!-- leg_v07&#45;&gt;leg_bad -->
<!-- leg_idea -->
<g id="node89" class="node">
<title>leg_idea</title>
<path fill="#d4e8f7" stroke="black" d="M13348.8,-41.2C13348.8,-41.2 13279.2,-41.2 13279.2,-41.2 13275,-41.2 13270.8,-37 13270.8,-32.8 13270.8,-32.8 13270.8,-24.4 13270.8,-24.4 13270.8,-20.2 13275,-16 13279.2,-16 13279.2,-16 13348.8,-16 13348.8,-16 13353,-16 13357.2,-20.2 13357.2,-24.4 13357.2,-24.4 13357.2,-32.8 13357.2,-32.8 13357.2,-37 13353,-41.2 13348.8,-41.2"/>
<text xml:space="preserve" text-anchor="middle" x="13314" y="-26.08" font-family="Helvetica,sans-Serif" font-size="7.00">cool&#45;ideas</text>
</g>
<!-- leg_bad&#45;&gt;leg_idea -->
</g>
</svg>
