<?xml version="1.0" encoding="UTF-8" standalone="no"?>
<!DOCTYPE svg PUBLIC "-//W3C//DTD SVG 1.1//EN"
 "http://www.w3.org/Graphics/SVG/1.1/DTD/svg11.dtd">
<!-- Generated by graphviz version 14.1.2 (20260124.0452)
 -->
<!-- Title: backlog Pages: 1 -->
<svg width="10862pt" height="383pt"
 viewBox="0.00 0.00 10862.00 383.00" xmlns="http://www.w3.org/2000/svg" xmlns:xlink="http://www.w3.org/1999/xlink">
<g id="graph0" class="graph" transform="scale(1 1) rotate(0) translate(4 379)">
<title>backlog</title>
<polygon fill="white" stroke="none" points="-4,4 -4,-379 10858,-379 10858,4 -4,4"/>
<text xml:space="preserve" text-anchor="middle" x="5427" y="-359.6" font-family="Helvetica,sans-Serif" font-size="12.00">Active backlog graph generated from docs/method/backlog/*/*.md</text>
<g id="clust1" class="cluster">
<title>cluster_v0_7_0</title>
<path fill="#fafafa" stroke="#cccccc" d="M20,-213.85C20,-213.85 250,-213.85 250,-213.85 256,-213.85 262,-219.85 262,-225.85 262,-225.85 262,-334.25 262,-334.25 262,-340.25 256,-346.25 250,-346.25 250,-346.25 20,-346.25 20,-346.25 14,-346.25 8,-340.25 8,-334.25 8,-334.25 8,-225.85 8,-225.85 8,-219.85 14,-213.85 20,-213.85"/>
<text xml:space="preserve" text-anchor="middle" x="35.12" y="-333.7" font-family="Helvetica,sans-Serif" font-size="9.00" fill="#555555">v0.7.0 (3)</text>
</g>
<g id="clust2" class="cluster">
<title>cluster_cool_ideas</title>
<path fill="#fafafa" stroke="#cccccc" d="M486,-140.4C486,-140.4 10446,-140.4 10446,-140.4 10452,-140.4 10458,-146.4 10458,-152.4 10458,-152.4 10458,-334.25 10458,-334.25 10458,-340.25 10452,-346.25 10446,-346.25 10446,-346.25 486,-346.25 486,-346.25 480,-346.25 474,-340.25 474,-334.25 474,-334.25 474,-152.4 474,-152.4 474,-146.4 480,-140.4 486,-140.4"/>
<text xml:space="preserve" text-anchor="middle" x="513.5" y="-333.7" font-family="Helvetica,sans-Serif" font-size="9.00" fill="#555555">Cool Ideas (77)</text>
</g>
<g id="clust3" class="cluster">
<title>cluster_external</title>
<path fill="#f8fbff" stroke="#cccccc" d="M282,-287.3C282,-287.3 454,-287.3 454,-287.3 460,-287.3 466,-293.3 466,-299.3 466,-299.3 466,-334.25 466,-334.25 466,-340.25 460,-346.25 454,-346.25 454,-346.25 282,-346.25 282,-346.25 276,-346.25 270,-340.25 270,-334.25 270,-334.25 270,-299.3 270,-299.3 270,-293.3 276,-287.3 282,-287.3"/>
<text xml:space="preserve" text-anchor="middle" x="313.25" y="-333.7" font-family="Helvetica,sans-Serif" font-size="9.00" fill="#555555">External blockers</text>
</g>
<g id="clust4" class="cluster">
<title>cluster_unresolved</title>
<path fill="#fff7f7" stroke="#cc3333" stroke-dasharray="5,2" d="M10478,-287.3C10478,-287.3 10710,-287.3 10710,-287.3 10716,-287.3 10722,-293.3 10722,-299.3 10722,-299.3 10722,-334.25 10722,-334.25 10722,-340.25 10716,-346.25 10710,-346.25 10710,-346.25 10478,-346.25 10478,-346.25 10472,-346.25 10466,-340.25 10466,-334.25 10466,-334.25 10466,-299.3 10466,-299.3 10466,-293.3 10472,-287.3 10478,-287.3"/>
<text xml:space="preserve" text-anchor="middle" x="10522.75" y="-333.7" font-family="Helvetica,sans-Serif" font-size="9.00" fill="#555555">Unresolved internal refs</text>
</g>
<g id="clust5" class="cluster">
<title>cluster_legend</title>
<path fill="none" stroke="#dddddd" d="M10742,-8C10742,-8 10834,-8 10834,-8 10840,-8 10846,-14 10846,-20 10846,-20 10846,-333.5 10846,-333.5 10846,-339.5 10840,-345.5 10834,-345.5 10834,-345.5 10742,-345.5 10742,-345.5 10736,-345.5 10730,-339.5 10730,-333.5 10730,-333.5 10730,-20 10730,-20 10730,-14 10736,-8 10742,-8"/>
<text xml:space="preserve" text-anchor="middle" x="10751.5" y="-333.9" font-family="Helvetica,sans-Serif" font-size="8.00" fill="#aaaaaa">Legend</text>
</g>
<!-- v0_7_0_CORE_migrate_to_slice_first_reads -->
<g id="node1" class="node">
<title>v0_7_0_CORE_migrate_to_slice_first_reads</title>
<path fill="#ffa07a" stroke="black" stroke-width="2" d="M245.8,-247.05C245.8,-247.05 128.2,-247.05 128.2,-247.05 124,-247.05 119.8,-242.85 119.8,-238.65 119.8,-238.65 119.8,-230.25 119.8,-230.25 119.8,-226.05 124,-221.85 128.2,-221.85 128.2,-221.85 245.8,-221.85 245.8,-221.85 250,-221.85 254.2,-226.05 254.2,-230.25 254.2,-230.25 254.2,-238.65 254.2,-238.65 254.2,-242.85 250,-247.05 245.8,-247.05"/>
<text xml:space="preserve" text-anchor="middle" x="187" y="-231.35" font-family="Helvetica,sans-Serif" font-size="8.00">CORE&#45;migrate&#45;to&#45;slice&#45;first&#45;reads</text>
</g>
<!-- v0_7_0_SURFACE_governed_write_tools -->
<g id="node2" class="node">
<title>v0_7_0_SURFACE_governed_write_tools</title>
<path fill="#ffa07a" stroke="black" stroke-width="2" d="M137.17,-320.5C137.17,-320.5 24.83,-320.5 24.83,-320.5 20.63,-320.5 16.42,-316.3 16.42,-312.1 16.42,-312.1 16.42,-303.7 16.42,-303.7 16.42,-299.5 20.63,-295.3 24.83,-295.3 24.83,-295.3 137.17,-295.3 137.17,-295.3 141.37,-295.3 145.57,-299.5 145.57,-303.7 145.57,-303.7 145.57,-312.1 145.57,-312.1 145.57,-316.3 141.37,-320.5 137.17,-320.5"/>
<text xml:space="preserve" text-anchor="middle" x="81" y="-304.8" font-family="Helvetica,sans-Serif" font-size="8.00">SURFACE&#45;governed&#45;write&#45;tools</text>
</g>
<!-- v0_7_0_WARP_lsp_enrichment -->
<g id="node3" class="node">
<title>v0_7_0_WARP_lsp_enrichment</title>
<path fill="#ffa07a" stroke="black" stroke-width="2" d="M245.55,-320.5C245.55,-320.5 168.45,-320.5 168.45,-320.5 164.25,-320.5 160.05,-316.3 160.05,-312.1 160.05,-312.1 160.05,-303.7 160.05,-303.7 160.05,-299.5 164.25,-295.3 168.45,-295.3 168.45,-295.3 245.55,-295.3 245.55,-295.3 249.75,-295.3 253.95,-299.5 253.95,-303.7 253.95,-303.7 253.95,-312.1 253.95,-312.1 253.95,-316.3 249.75,-320.5 245.55,-320.5"/>
<text xml:space="preserve" text-anchor="middle" x="207" y="-304.8" font-family="Helvetica,sans-Serif" font-size="8.00">WARP&#45;lsp&#45;enrichment</text>
</g>
<!-- cool_ideas_bounded_neighborhood_for_references -->
<g id="node4" class="node">
<title>cool_ideas_bounded_neighborhood_for_references</title>
<path fill="#d4e8f7" stroke="black" d="M639.18,-320.5C639.18,-320.5 490.83,-320.5 490.83,-320.5 486.62,-320.5 482.43,-316.3 482.43,-312.1 482.43,-312.1 482.43,-303.7 482.43,-303.7 482.43,-299.5 486.62,-295.3 490.83,-295.3 490.83,-295.3 639.18,-295.3 639.18,-295.3 643.38,-295.3 647.58,-299.5 647.58,-303.7 647.58,-303.7 647.58,-312.1 647.58,-312.1 647.58,-316.3 643.38,-320.5 639.18,-320.5"/>
<text xml:space="preserve" text-anchor="middle" x="565" y="-304.8" font-family="Helvetica,sans-Serif" font-size="8.00">bounded&#45;neighborhood&#45;for&#45;references &#45; S</text>
</g>
<!-- cool_ideas_CI_001_causal_collapse_visualizer -->
<g id="node5" class="node">
<title>cool_ideas_CI_001_causal_collapse_visualizer</title>
<path fill="#d4e8f7" stroke="black" d="M7344.3,-247.05C7344.3,-247.05 7217.7,-247.05 7217.7,-247.05 7213.5,-247.05 7209.3,-242.85 7209.3,-238.65 7209.3,-238.65 7209.3,-230.25 7209.3,-230.25 7209.3,-226.05 7213.5,-221.85 7217.7,-221.85 7217.7,-221.85 7344.3,-221.85 7344.3,-221.85 7348.5,-221.85 7352.7,-226.05 7352.7,-230.25 7352.7,-230.25 7352.7,-238.65 7352.7,-238.65 7352.7,-242.85 7348.5,-247.05 7344.3,-247.05"/>
<text xml:space="preserve" text-anchor="middle" x="7281" y="-231.35" font-family="Helvetica,sans-Serif" font-size="8.00">CI&#45;001&#45;causal&#45;collapse&#45;visualizer &#45; L</text>
</g>
<!-- cool_ideas_CI_002_deterministic_scenario_replay -->
<g id="node6" class="node">
<title>cool_ideas_CI_002_deterministic_scenario_replay</title>
<path fill="#d4e8f7" stroke="black" d="M809.68,-320.5C809.68,-320.5 670.32,-320.5 670.32,-320.5 666.12,-320.5 661.92,-316.3 661.92,-312.1 661.92,-312.1 661.92,-303.7 661.92,-303.7 661.92,-299.5 666.12,-295.3 670.32,-295.3 670.32,-295.3 809.68,-295.3 809.68,-295.3 813.88,-295.3 818.08,-299.5 818.08,-303.7 818.08,-303.7 818.08,-312.1 818.08,-312.1 818.08,-316.3 813.88,-320.5 809.68,-320.5"/>
<text xml:space="preserve" text-anchor="middle" x="740" y="-304.8" font-family="Helvetica,sans-Serif" font-size="8.00">CI&#45;002&#45;deterministic&#45;scenario&#45;replay &#45; L</text>
</g>
<!-- cool_ideas_CI_003_mcp_native_diff_protocol -->
<g id="node7" class="node">
<title>cool_ideas_CI_003_mcp_native_diff_protocol</title>
<path fill="#d4e8f7" stroke="black" d="M963.8,-320.5C963.8,-320.5 840.2,-320.5 840.2,-320.5 836,-320.5 831.8,-316.3 831.8,-312.1 831.8,-312.1 831.8,-303.7 831.8,-303.7 831.8,-299.5 836,-295.3 840.2,-295.3 840.2,-295.3 963.8,-295.3 963.8,-295.3 968,-295.3 972.2,-299.5 972.2,-303.7 972.2,-303.7 972.2,-312.1 972.2,-312.1 972.2,-316.3 968,-320.5 963.8,-320.5"/>
<text xml:space="preserve" text-anchor="middle" x="902" y="-304.8" font-family="Helvetica,sans-Serif" font-size="8.00">CI&#45;003&#45;mcp&#45;native&#45;diff&#45;protocol &#45; M</text>
</g>
<!-- cool_ideas_CLEAN_CODE_parallel_agent_merge_shared_file_loss -->
<g id="node8" class="node">
<title>cool_ideas_CLEAN_CODE_parallel_agent_merge_shared_file_loss</title>
<path fill="#d4e8f7" stroke="black" d="M1195.05,-320.5C1195.05,-320.5 994.95,-320.5 994.95,-320.5 990.75,-320.5 986.55,-316.3 986.55,-312.1 986.55,-312.1 986.55,-303.7 986.55,-303.7 986.55,-299.5 990.75,-295.3 994.95,-295.3 994.95,-295.3 1195.05,-295.3 1195.05,-295.3 1199.25,-295.3 1203.45,-299.5 1203.45,-303.7 1203.45,-303.7 1203.45,-312.1 1203.45,-312.1 1203.45,-316.3 1199.25,-320.5 1195.05,-320.5"/>
<text xml:space="preserve" text-anchor="middle" x="1095" y="-304.8" font-family="Helvetica,sans-Serif" font-size="8.00">CLEAN&#45;CODE&#45;parallel&#45;agent&#45;merge&#45;shared&#45;file&#45;loss &#45; M</text>
</g>
<!-- cool_ideas_CORE_agent_handoff_protocol -->
<g id="node9" class="node">
<title>cool_ideas_CORE_agent_handoff_protocol</title>
<path fill="#d4e8f7" stroke="black" d="M1345.92,-320.5C1345.92,-320.5 1226.08,-320.5 1226.08,-320.5 1221.88,-320.5 1217.67,-316.3 1217.67,-312.1 1217.67,-312.1 1217.67,-303.7 1217.67,-303.7 1217.67,-299.5 1221.88,-295.3 1226.08,-295.3 1226.08,-295.3 1345.92,-295.3 1345.92,-295.3 1350.12,-295.3 1354.33,-299.5 1354.33,-303.7 1354.33,-303.7 1354.33,-312.1 1354.33,-312.1 1354.33,-316.3 1350.12,-320.5 1345.92,-320.5"/>
<text xml:space="preserve" text-anchor="middle" x="1286" y="-304.8" font-family="Helvetica,sans-Serif" font-size="8.00">CORE&#45;agent&#45;handoff&#45;protocol &#45; M</text>
</g>
<!-- cool_ideas_CORE_auto_focus -->
<g id="node10" class="node">
<title>cool_ideas_CORE_auto_focus</title>
<path fill="#d4e8f7" stroke="black" d="M1449.67,-320.5C1449.67,-320.5 1376.33,-320.5 1376.33,-320.5 1372.12,-320.5 1367.92,-316.3 1367.92,-312.1 1367.92,-312.1 1367.92,-303.7 1367.92,-303.7 1367.92,-299.5 1372.12,-295.3 1376.33,-295.3 1376.33,-295.3 1449.67,-295.3 1449.67,-295.3 1453.88,-295.3 1458.08,-299.5 1458.08,-303.7 1458.08,-303.7 1458.08,-312.1 1458.08,-312.1 1458.08,-316.3 1453.88,-320.5 1449.67,-320.5"/>
<text xml:space="preserve" text-anchor="middle" x="1413" y="-304.8" font-family="Helvetica,sans-Serif" font-size="8.00">CORE&#45;auto&#45;focus &#45; L</text>
</g>
<!-- cool_ideas_CORE_backlog_status_tool -->
<g id="node11" class="node">
<title>cool_ideas_CORE_backlog_status_tool</title>
<path fill="#d4e8f7" stroke="black" d="M1583.67,-320.5C1583.67,-320.5 1480.33,-320.5 1480.33,-320.5 1476.12,-320.5 1471.92,-316.3 1471.92,-312.1 1471.92,-312.1 1471.92,-303.7 1471.92,-303.7 1471.92,-299.5 1476.12,-295.3 1480.33,-295.3 1480.33,-295.3 1583.67,-295.3 1583.67,-295.3 1587.88,-295.3 1592.08,-299.5 1592.08,-303.7 1592.08,-303.7 1592.08,-312.1 1592.08,-312.1 1592.08,-316.3 1587.88,-320.5 1583.67,-320.5"/>
<text xml:space="preserve" text-anchor="middle" x="1532" y="-304.8" font-family="Helvetica,sans-Serif" font-size="8.00">CORE&#45;backlog&#45;status&#45;tool &#45; S</text>
</g>
<!-- cool_ideas_CORE_capture_range -->
<g id="node12" class="node">
<title>cool_ideas_CORE_capture_range</title>
<path fill="#d4e8f7" stroke="black" d="M1701.8,-320.5C1701.8,-320.5 1614.2,-320.5 1614.2,-320.5 1610,-320.5 1605.8,-316.3 1605.8,-312.1 1605.8,-312.1 1605.8,-303.7 1605.8,-303.7 1605.8,-299.5 1610,-295.3 1614.2,-295.3 1614.2,-295.3 1701.8,-295.3 1701.8,-295.3 1706,-295.3 1710.2,-299.5 1710.2,-303.7 1710.2,-303.7 1710.2,-312.1 1710.2,-312.1 1710.2,-316.3 1706,-320.5 1701.8,-320.5"/>
<text xml:space="preserve" text-anchor="middle" x="1658" y="-304.8" font-family="Helvetica,sans-Serif" font-size="8.00">CORE&#45;capture&#45;range &#45; S</text>
</g>
<!-- cool_ideas_CORE_constructor_in_disguise_lint -->
<g id="node13" class="node">
<title>cool_ideas_CORE_constructor_in_disguise_lint</title>
<path fill="#d4e8f7" stroke="black" d="M1863.55,-320.5C1863.55,-320.5 1732.45,-320.5 1732.45,-320.5 1728.25,-320.5 1724.05,-316.3 1724.05,-312.1 1724.05,-312.1 1724.05,-303.7 1724.05,-303.7 1724.05,-299.5 1728.25,-295.3 1732.45,-295.3 1732.45,-295.3 1863.55,-295.3 1863.55,-295.3 1867.75,-295.3 1871.95,-299.5 1871.95,-303.7 1871.95,-303.7 1871.95,-312.1 1871.95,-312.1 1871.95,-316.3 1867.75,-320.5 1863.55,-320.5"/>
<text xml:space="preserve" text-anchor="middle" x="1798" y="-304.8" font-family="Helvetica,sans-Serif" font-size="8.00">CORE&#45;constructor&#45;in&#45;disguise&#45;lint &#45; M</text>
</g>
<!-- cool_ideas_CORE_context_budget_forecasting -->
<g id="node14" class="node">
<title>cool_ideas_CORE_context_budget_forecasting</title>
<path fill="#d4e8f7" stroke="black" d="M2027.67,-320.5C2027.67,-320.5 1894.33,-320.5 1894.33,-320.5 1890.12,-320.5 1885.92,-316.3 1885.92,-312.1 1885.92,-312.1 1885.92,-303.7 1885.92,-303.7 1885.92,-299.5 1890.12,-295.3 1894.33,-295.3 1894.33,-295.3 2027.67,-295.3 2027.67,-295.3 2031.88,-295.3 2036.08,-299.5 2036.08,-303.7 2036.08,-303.7 2036.08,-312.1 2036.08,-312.1 2036.08,-316.3 2031.88,-320.5 2027.67,-320.5"/>
<text xml:space="preserve" text-anchor="middle" x="1961" y="-304.8" font-family="Helvetica,sans-Serif" font-size="8.00">CORE&#45;context&#45;budget&#45;forecasting &#45; M</text>
</g>
<!-- cool_ideas_CORE_conversation_primer -->
<g id="node15" class="node">
<title>cool_ideas_CORE_conversation_primer</title>
<path fill="#d4e8f7" stroke="black" d="M2167.67,-320.5C2167.67,-320.5 2058.33,-320.5 2058.33,-320.5 2054.12,-320.5 2049.93,-316.3 2049.93,-312.1 2049.93,-312.1 2049.93,-303.7 2049.93,-303.7 2049.93,-299.5 2054.12,-295.3 2058.33,-295.3 2058.33,-295.3 2167.67,-295.3 2167.67,-295.3 2171.88,-295.3 2176.07,-299.5 2176.07,-303.7 2176.07,-303.7 2176.07,-312.1 2176.07,-312.1 2176.07,-316.3 2171.88,-320.5 2167.67,-320.5"/>
<text xml:space="preserve" text-anchor="middle" x="2113" y="-304.8" font-family="Helvetica,sans-Serif" font-size="8.00">CORE&#45;conversation&#45;primer &#45; M</text>
</g>
<!-- cool_ideas_CORE_cross_session_resume -->
<g id="node16" class="node">
<title>cool_ideas_CORE_cross_session_resume</title>
<path fill="#d4e8f7" stroke="black" d="M2313.3,-320.5C2313.3,-320.5 2198.7,-320.5 2198.7,-320.5 2194.5,-320.5 2190.3,-316.3 2190.3,-312.1 2190.3,-312.1 2190.3,-303.7 2190.3,-303.7 2190.3,-299.5 2194.5,-295.3 2198.7,-295.3 2198.7,-295.3 2313.3,-295.3 2313.3,-295.3 2317.5,-295.3 2321.7,-299.5 2321.7,-303.7 2321.7,-303.7 2321.7,-312.1 2321.7,-312.1 2321.7,-316.3 2317.5,-320.5 2313.3,-320.5"/>
<text xml:space="preserve" text-anchor="middle" x="2256" y="-304.8" font-family="Helvetica,sans-Serif" font-size="8.00">CORE&#45;cross&#45;session&#45;resume &#45; S</text>
</g>
<!-- cool_ideas_CORE_graft_as_teacher -->
<g id="node17" class="node">
<title>cool_ideas_CORE_graft_as_teacher</title>
<path fill="#d4e8f7" stroke="black" d="M2438.17,-320.5C2438.17,-320.5 2343.83,-320.5 2343.83,-320.5 2339.62,-320.5 2335.43,-316.3 2335.43,-312.1 2335.43,-312.1 2335.43,-303.7 2335.43,-303.7 2335.43,-299.5 2339.62,-295.3 2343.83,-295.3 2343.83,-295.3 2438.17,-295.3 2438.17,-295.3 2442.38,-295.3 2446.57,-299.5 2446.57,-303.7 2446.57,-303.7 2446.57,-312.1 2446.57,-312.1 2446.57,-316.3 2442.38,-320.5 2438.17,-320.5"/>
<text xml:space="preserve" text-anchor="middle" x="2391" y="-304.8" font-family="Helvetica,sans-Serif" font-size="8.00">CORE&#45;graft&#45;as&#45;teacher &#45; S</text>
</g>
<!-- cool_ideas_CORE_graft_doctor -->
<g id="node18" class="node">
<title>cool_ideas_CORE_graft_doctor</title>
<path fill="#d4e8f7" stroke="black" d="M2549.05,-320.5C2549.05,-320.5 2468.95,-320.5 2468.95,-320.5 2464.75,-320.5 2460.55,-316.3 2460.55,-312.1 2460.55,-312.1 2460.55,-303.7 2460.55,-303.7 2460.55,-299.5 2464.75,-295.3 2468.95,-295.3 2468.95,-295.3 2549.05,-295.3 2549.05,-295.3 2553.25,-295.3 2557.45,-299.5 2557.45,-303.7 2557.45,-303.7 2557.45,-312.1 2557.45,-312.1 2557.45,-316.3 2553.25,-320.5 2549.05,-320.5"/>
<text xml:space="preserve" text-anchor="middle" x="2509" y="-304.8" font-family="Helvetica,sans-Serif" font-size="8.00">CORE&#45;graft&#45;doctor &#45; M</text>
</g>
<!-- cool_ideas_CORE_graft_teach_learning_receipts -->
<g id="node19" class="node">
<title>cool_ideas_CORE_graft_teach_learning_receipts</title>
<path fill="#d4e8f7" stroke="black" d="M2717.92,-320.5C2717.92,-320.5 2580.08,-320.5 2580.08,-320.5 2575.88,-320.5 2571.68,-316.3 2571.68,-312.1 2571.68,-312.1 2571.68,-303.7 2571.68,-303.7 2571.68,-299.5 2575.88,-295.3 2580.08,-295.3 2580.08,-295.3 2717.92,-295.3 2717.92,-295.3 2722.12,-295.3 2726.32,-299.5 2726.32,-303.7 2726.32,-303.7 2726.32,-312.1 2726.32,-312.1 2726.32,-316.3 2722.12,-320.5 2717.92,-320.5"/>
<text xml:space="preserve" text-anchor="middle" x="2649" y="-304.8" font-family="Helvetica,sans-Serif" font-size="8.00">CORE&#45;graft&#45;teach&#45;learning&#45;receipts &#45; S</text>
</g>
<!-- cool_ideas_CORE_horizon_of_readability -->
<g id="node20" class="node">
<title>cool_ideas_CORE_horizon_of_readability</title>
<path fill="#d4e8f7" stroke="black" d="M2861.55,-320.5C2861.55,-320.5 2748.45,-320.5 2748.45,-320.5 2744.25,-320.5 2740.05,-316.3 2740.05,-312.1 2740.05,-312.1 2740.05,-303.7 2740.05,-303.7 2740.05,-299.5 2744.25,-295.3 2748.45,-295.3 2748.45,-295.3 2861.55,-295.3 2861.55,-295.3 2865.75,-295.3 2869.95,-299.5 2869.95,-303.7 2869.95,-303.7 2869.95,-312.1 2869.95,-312.1 2869.95,-316.3 2865.75,-320.5 2861.55,-320.5"/>
<text xml:space="preserve" text-anchor="middle" x="2805" y="-304.8" font-family="Helvetica,sans-Serif" font-size="8.00">CORE&#45;horizon&#45;of&#45;readability &#45; M</text>
</g>
<!-- cool_ideas_CORE_lagrangian_policy -->
<g id="node21" class="node">
<title>cool_ideas_CORE_lagrangian_policy</title>
<path fill="#d4e8f7" stroke="black" d="M2993.55,-320.5C2993.55,-320.5 2892.45,-320.5 2892.45,-320.5 2888.25,-320.5 2884.05,-316.3 2884.05,-312.1 2884.05,-312.1 2884.05,-303.7 2884.05,-303.7 2884.05,-299.5 2888.25,-295.3 2892.45,-295.3 2892.45,-295.3 2993.55,-295.3 2993.55,-295.3 2997.75,-295.3 3001.95,-299.5 3001.95,-303.7 3001.95,-303.7 3001.95,-312.1 3001.95,-312.1 3001.95,-316.3 2997.75,-320.5 2993.55,-320.5"/>
<text xml:space="preserve" text-anchor="middle" x="2943" y="-304.8" font-family="Helvetica,sans-Serif" font-size="8.00">CORE&#45;lagrangian&#45;policy &#45; XL</text>
</g>
<!-- cool_ideas_CORE_multi_agent_conflict_detection -->
<g id="node22" class="node">
<title>cool_ideas_CORE_multi_agent_conflict_detection</title>
<path fill="#d4e8f7" stroke="black" d="M3161.92,-320.5C3161.92,-320.5 3024.08,-320.5 3024.08,-320.5 3019.88,-320.5 3015.68,-316.3 3015.68,-312.1 3015.68,-312.1 3015.68,-303.7 3015.68,-303.7 3015.68,-299.5 3019.88,-295.3 3024.08,-295.3 3024.08,-295.3 3161.92,-295.3 3161.92,-295.3 3166.12,-295.3 3170.32,-299.5 3170.32,-303.7 3170.32,-303.7 3170.32,-312.1 3170.32,-312.1 3170.32,-316.3 3166.12,-320.5 3161.92,-320.5"/>
<text xml:space="preserve" text-anchor="middle" x="3093" y="-304.8" font-family="Helvetica,sans-Serif" font-size="8.00">CORE&#45;multi&#45;agent&#45;conflict&#45;detection &#45; L</text>
</g>
<!-- cool_ideas_CORE_policy_playground -->
<g id="node23" class="node">
<title>cool_ideas_CORE_policy_playground</title>
<path fill="#d4e8f7" stroke="black" d="M3291.42,-320.5C3291.42,-320.5 3192.58,-320.5 3192.58,-320.5 3188.38,-320.5 3184.18,-316.3 3184.18,-312.1 3184.18,-312.1 3184.18,-303.7 3184.18,-303.7 3184.18,-299.5 3188.38,-295.3 3192.58,-295.3 3192.58,-295.3 3291.42,-295.3 3291.42,-295.3 3295.62,-295.3 3299.82,-299.5 3299.82,-303.7 3299.82,-303.7 3299.82,-312.1 3299.82,-312.1 3299.82,-316.3 3295.62,-320.5 3291.42,-320.5"/>
<text xml:space="preserve" text-anchor="middle" x="3242" y="-304.8" font-family="Helvetica,sans-Serif" font-size="8.00">CORE&#45;policy&#45;playground &#45; S</text>
</g>
<!-- cool_ideas_CORE_policy_profiles -->
<g id="node24" class="node">
<title>cool_ideas_CORE_policy_profiles</title>
<path fill="#d4e8f7" stroke="black" d="M3408.05,-320.5C3408.05,-320.5 3321.95,-320.5 3321.95,-320.5 3317.75,-320.5 3313.55,-316.3 3313.55,-312.1 3313.55,-312.1 3313.55,-303.7 3313.55,-303.7 3313.55,-299.5 3317.75,-295.3 3321.95,-295.3 3321.95,-295.3 3408.05,-295.3 3408.05,-295.3 3412.25,-295.3 3416.45,-299.5 3416.45,-303.7 3416.45,-303.7 3416.45,-312.1 3416.45,-312.1 3416.45,-316.3 3412.25,-320.5 3408.05,-320.5"/>
<text xml:space="preserve" text-anchor="middle" x="3365" y="-304.8" font-family="Helvetica,sans-Serif" font-size="8.00">CORE&#45;policy&#45;profiles &#45; M</text>
</g>
<!-- cool_ideas_CORE_pr_review_structural_summary -->
<g id="node25" class="node">
<title>cool_ideas_CORE_pr_review_structural_summary</title>
<path fill="#d4e8f7" stroke="black" d="M3582.92,-320.5C3582.92,-320.5 3439.08,-320.5 3439.08,-320.5 3434.88,-320.5 3430.68,-316.3 3430.68,-312.1 3430.68,-312.1 3430.68,-303.7 3430.68,-303.7 3430.68,-299.5 3434.88,-295.3 3439.08,-295.3 3439.08,-295.3 3582.92,-295.3 3582.92,-295.3 3587.12,-295.3 3591.32,-299.5 3591.32,-303.7 3591.32,-303.7 3591.32,-312.1 3591.32,-312.1 3591.32,-316.3 3587.12,-320.5 3582.92,-320.5"/>
<text xml:space="preserve" text-anchor="middle" x="3511" y="-304.8" font-family="Helvetica,sans-Serif" font-size="8.00">CORE&#45;pr&#45;review&#45;structural&#45;summary &#45; M</text>
</g>
<!-- cool_ideas_CORE_self_tuning_governor -->
<g id="node26" class="node">
<title>cool_ideas_CORE_self_tuning_governor</title>
<path fill="#d4e8f7" stroke="black" d="M3724.05,-320.5C3724.05,-320.5 3613.95,-320.5 3613.95,-320.5 3609.75,-320.5 3605.55,-316.3 3605.55,-312.1 3605.55,-312.1 3605.55,-303.7 3605.55,-303.7 3605.55,-299.5 3609.75,-295.3 3613.95,-295.3 3613.95,-295.3 3724.05,-295.3 3724.05,-295.3 3728.25,-295.3 3732.45,-299.5 3732.45,-303.7 3732.45,-303.7 3732.45,-312.1 3732.45,-312.1 3732.45,-316.3 3728.25,-320.5 3724.05,-320.5"/>
<text xml:space="preserve" text-anchor="middle" x="3669" y="-304.8" font-family="Helvetica,sans-Serif" font-size="8.00">CORE&#45;self&#45;tuning&#45;governor &#45; M</text>
</g>
<!-- cool_ideas_CORE_session_knowledge_map -->
<g id="node27" class="node">
<title>cool_ideas_CORE_session_knowledge_map</title>
<path fill="#d4e8f7" stroke="black" d="M3877.42,-320.5C3877.42,-320.5 3754.58,-320.5 3754.58,-320.5 3750.38,-320.5 3746.18,-316.3 3746.18,-312.1 3746.18,-312.1 3746.18,-303.7 3746.18,-303.7 3746.18,-299.5 3750.38,-295.3 3754.58,-295.3 3754.58,-295.3 3877.42,-295.3 3877.42,-295.3 3881.62,-295.3 3885.82,-299.5 3885.82,-303.7 3885.82,-303.7 3885.82,-312.1 3885.82,-312.1 3885.82,-316.3 3881.62,-320.5 3877.42,-320.5"/>
<text xml:space="preserve" text-anchor="middle" x="3816" y="-304.8" font-family="Helvetica,sans-Serif" font-size="8.00">CORE&#45;session&#45;knowledge&#45;map &#45; S</text>
</g>
<!-- cool_ideas_CORE_speculative_read_cost -->
<g id="node28" class="node">
<title>cool_ideas_CORE_speculative_read_cost</title>
<path fill="#d4e8f7" stroke="black" d="M4020.17,-320.5C4020.17,-320.5 3907.83,-320.5 3907.83,-320.5 3903.62,-320.5 3899.43,-316.3 3899.43,-312.1 3899.43,-312.1 3899.43,-303.7 3899.43,-303.7 3899.43,-299.5 3903.62,-295.3 3907.83,-295.3 3907.83,-295.3 4020.17,-295.3 4020.17,-295.3 4024.38,-295.3 4028.57,-299.5 4028.57,-303.7 4028.57,-303.7 4028.57,-312.1 4028.57,-312.1 4028.57,-316.3 4024.38,-320.5 4020.17,-320.5"/>
<text xml:space="preserve" text-anchor="middle" x="3964" y="-304.8" font-family="Helvetica,sans-Serif" font-size="8.00">CORE&#45;speculative&#45;read&#45;cost &#45; S</text>
</g>
<!-- cool_ideas_CORE_structural_session_replay -->
<g id="node29" class="node">
<title>cool_ideas_CORE_structural_session_replay</title>
<path fill="#d4e8f7" stroke="black" d="M4176.55,-320.5C4176.55,-320.5 4051.45,-320.5 4051.45,-320.5 4047.25,-320.5 4043.05,-316.3 4043.05,-312.1 4043.05,-312.1 4043.05,-303.7 4043.05,-303.7 4043.05,-299.5 4047.25,-295.3 4051.45,-295.3 4051.45,-295.3 4176.55,-295.3 4176.55,-295.3 4180.75,-295.3 4184.95,-299.5 4184.95,-303.7 4184.95,-303.7 4184.95,-312.1 4184.95,-312.1 4184.95,-316.3 4180.75,-320.5 4176.55,-320.5"/>
<text xml:space="preserve" text-anchor="middle" x="4114" y="-304.8" font-family="Helvetica,sans-Serif" font-size="8.00">CORE&#45;structural&#45;session&#45;replay &#45; M</text>
</g>
<!-- cool_ideas_CORE_structural_test_coverage_map -->
<g id="node30" class="node">
<title>cool_ideas_CORE_structural_test_coverage_map</title>
<path fill="#d4e8f7" stroke="black" d="M4348.8,-320.5C4348.8,-320.5 4207.2,-320.5 4207.2,-320.5 4203,-320.5 4198.8,-316.3 4198.8,-312.1 4198.8,-312.1 4198.8,-303.7 4198.8,-303.7 4198.8,-299.5 4203,-295.3 4207.2,-295.3 4207.2,-295.3 4348.8,-295.3 4348.8,-295.3 4353,-295.3 4357.2,-299.5 4357.2,-303.7 4357.2,-303.7 4357.2,-312.1 4357.2,-312.1 4357.2,-316.3 4353,-320.5 4348.8,-320.5"/>
<text xml:space="preserve" text-anchor="middle" x="4278" y="-304.8" font-family="Helvetica,sans-Serif" font-size="8.00">CORE&#45;structural&#45;test&#45;coverage&#45;map &#45; M</text>
</g>
<!-- cool_ideas_CORE_wire_primitives_into_runtime -->
<g id="node31" class="node">
<title>cool_ideas_CORE_wire_primitives_into_runtime</title>
<path fill="#d4e8f7" stroke="black" d="M4514.43,-320.5C4514.43,-320.5 4379.57,-320.5 4379.57,-320.5 4375.38,-320.5 4371.18,-316.3 4371.18,-312.1 4371.18,-312.1 4371.18,-303.7 4371.18,-303.7 4371.18,-299.5 4375.38,-295.3 4379.57,-295.3 4379.57,-295.3 4514.43,-295.3 4514.43,-295.3 4518.62,-295.3 4522.82,-299.5 4522.82,-303.7 4522.82,-303.7 4522.82,-312.1 4522.82,-312.1 4522.82,-316.3 4518.62,-320.5 4514.43,-320.5"/>
<text xml:space="preserve" text-anchor="middle" x="4447" y="-304.8" font-family="Helvetica,sans-Serif" font-size="8.00">CORE&#45;wire&#45;primitives&#45;into&#45;runtime &#45; M</text>
</g>
<!-- cool_ideas_monitor_tick_ceiling_tracking -->
<g id="node32" class="node">
<title>cool_ideas_monitor_tick_ceiling_tracking</title>
<path fill="#d4e8f7" stroke="black" d="M4652.55,-320.5C4652.55,-320.5 4545.45,-320.5 4545.45,-320.5 4541.25,-320.5 4537.05,-316.3 4537.05,-312.1 4537.05,-312.1 4537.05,-303.7 4537.05,-303.7 4537.05,-299.5 4541.25,-295.3 4545.45,-295.3 4545.45,-295.3 4652.55,-295.3 4652.55,-295.3 4656.75,-295.3 4660.95,-299.5 4660.95,-303.7 4660.95,-303.7 4660.95,-312.1 4660.95,-312.1 4660.95,-316.3 4656.75,-320.5 4652.55,-320.5"/>
<text xml:space="preserve" text-anchor="middle" x="4599" y="-304.8" font-family="Helvetica,sans-Serif" font-size="8.00">monitor&#45;tick&#45;ceiling&#45;tracking &#45; S</text>
</g>
<!-- cool_ideas_WARP_background_indexing -->
<g id="node48" class="node">
<title>cool_ideas_WARP_background_indexing</title>
<path fill="#d4e8f7" stroke="black" d="M4655.55,-247.05C4655.55,-247.05 4542.45,-247.05 4542.45,-247.05 4538.25,-247.05 4534.05,-242.85 4534.05,-238.65 4534.05,-238.65 4534.05,-230.25 4534.05,-230.25 4534.05,-226.05 4538.25,-221.85 4542.45,-221.85 4542.45,-221.85 4655.55,-221.85 4655.55,-221.85 4659.75,-221.85 4663.95,-226.05 4663.95,-230.25 4663.95,-230.25 4663.95,-238.65 4663.95,-238.65 4663.95,-242.85 4659.75,-247.05 4655.55,-247.05"/>
<text xml:space="preserve" text-anchor="middle" x="4599" y="-231.35" font-family="Helvetica,sans-Serif" font-size="8.00">WARP&#45;background&#45;indexing &#45; M</text>
</g>
<!-- cool_ideas_monitor_tick_ceiling_tracking&#45;&gt;cool_ideas_WARP_background_indexing -->
<g id="edge1" class="edge">
<title>cool_ideas_monitor_tick_ceiling_tracking&#45;&gt;cool_ideas_WARP_background_indexing</title>
<path fill="none" stroke="#666666" d="M4599,-295.1C4599,-283.9 4599,-266.88 4599,-253.88"/>
<polygon fill="#666666" stroke="#666666" points="4600.75,-254.02 4599,-249.02 4597.25,-254.02 4600.75,-254.02"/>
<text xml:space="preserve" text-anchor="middle" x="4630.5" y="-268.65" font-family="Helvetica,sans-Serif" font-size="7.00">blocked_by/blocking</text>
</g>
<!-- cool_ideas_SURFACE_active_causal_workspace_status -->
<g id="node33" class="node">
<title>cool_ideas_SURFACE_active_causal_workspace_status</title>
<path fill="#d4e8f7" stroke="black" d="M4847.05,-320.5C4847.05,-320.5 4682.95,-320.5 4682.95,-320.5 4678.75,-320.5 4674.55,-316.3 4674.55,-312.1 4674.55,-312.1 4674.55,-303.7 4674.55,-303.7 4674.55,-299.5 4678.75,-295.3 4682.95,-295.3 4682.95,-295.3 4847.05,-295.3 4847.05,-295.3 4851.25,-295.3 4855.45,-299.5 4855.45,-303.7 4855.45,-303.7 4855.45,-312.1 4855.45,-312.1 4855.45,-316.3 4851.25,-320.5 4847.05,-320.5"/>
<text xml:space="preserve" text-anchor="middle" x="4765" y="-304.8" font-family="Helvetica,sans-Serif" font-size="8.00">SURFACE&#45;active&#45;causal&#45;workspace&#45;status &#45; M</text>
</g>
<!-- cool_ideas_SURFACE_ide_native_graft_integration -->
<g id="node39" class="node">
<title>cool_ideas_SURFACE_ide_native_graft_integration</title>
<path fill="#d4e8f7" stroke="black" d="M4840.3,-247.05C4840.3,-247.05 4689.7,-247.05 4689.7,-247.05 4685.5,-247.05 4681.3,-242.85 4681.3,-238.65 4681.3,-238.65 4681.3,-230.25 4681.3,-230.25 4681.3,-226.05 4685.5,-221.85 4689.7,-221.85 4689.7,-221.85 4840.3,-221.85 4840.3,-221.85 4844.5,-221.85 4848.7,-226.05 4848.7,-230.25 4848.7,-230.25 4848.7,-238.65 4848.7,-238.65 4848.7,-242.85 4844.5,-247.05 4840.3,-247.05"/>
<text xml:space="preserve" text-anchor="middle" x="4765" y="-231.35" font-family="Helvetica,sans-Serif" font-size="8.00">SURFACE&#45;ide&#45;native&#45;graft&#45;integration &#45; XL</text>
</g>
<!-- cool_ideas_SURFACE_active_causal_workspace_status&#45;&gt;cool_ideas_SURFACE_ide_native_graft_integration -->
<g id="edge2" class="edge">
<title>cool_ideas_SURFACE_active_causal_workspace_status&#45;&gt;cool_ideas_SURFACE_ide_native_graft_integration</title>
<path fill="none" stroke="#666666" d="M4765,-295.1C4765,-283.9 4765,-266.88 4765,-253.88"/>
<polygon fill="#666666" stroke="#666666" points="4766.75,-254.02 4765,-249.02 4763.25,-254.02 4766.75,-254.02"/>
<text xml:space="preserve" text-anchor="middle" x="4796.5" y="-268.65" font-family="Helvetica,sans-Serif" font-size="7.00">blocked_by/blocking</text>
</g>
<!-- cool_ideas_SURFACE_attach_to_existing_causal_session -->
<g id="node34" class="node">
<title>cool_ideas_SURFACE_attach_to_existing_causal_session</title>
<path fill="#d4e8f7" stroke="black" d="M5046.3,-320.5C5046.3,-320.5 4877.7,-320.5 4877.7,-320.5 4873.5,-320.5 4869.3,-316.3 4869.3,-312.1 4869.3,-312.1 4869.3,-303.7 4869.3,-303.7 4869.3,-299.5 4873.5,-295.3 4877.7,-295.3 4877.7,-295.3 5046.3,-295.3 5046.3,-295.3 5050.5,-295.3 5054.7,-299.5 5054.7,-303.7 5054.7,-303.7 5054.7,-312.1 5054.7,-312.1 5054.7,-316.3 5050.5,-320.5 5046.3,-320.5"/>
<text xml:space="preserve" text-anchor="middle" x="4962" y="-304.8" font-family="Helvetica,sans-Serif" font-size="8.00">SURFACE&#45;attach&#45;to&#45;existing&#45;causal&#45;session &#45; M</text>
</g>
<!-- cool_ideas_SURFACE_bijou_daemon_control_plane_actions -->
<g id="node35" class="node">
<title>cool_ideas_SURFACE_bijou_daemon_control_plane_actions</title>
<path fill="#d4e8f7" stroke="black" d="M5254.43,-320.5C5254.43,-320.5 5077.57,-320.5 5077.57,-320.5 5073.38,-320.5 5069.18,-316.3 5069.18,-312.1 5069.18,-312.1 5069.18,-303.7 5069.18,-303.7 5069.18,-299.5 5073.38,-295.3 5077.57,-295.3 5077.57,-295.3 5254.43,-295.3 5254.43,-295.3 5258.62,-295.3 5262.82,-299.5 5262.82,-303.7 5262.82,-303.7 5262.82,-312.1 5262.82,-312.1 5262.82,-316.3 5258.62,-320.5 5254.43,-320.5"/>
<text xml:space="preserve" text-anchor="middle" x="5166" y="-304.8" font-family="Helvetica,sans-Serif" font-size="8.00">SURFACE&#45;bijou&#45;daemon&#45;control&#45;plane&#45;actions &#45; L</text>
</g>
<!-- cool_ideas_SURFACE_bijou_daemon_status_live_refresh -->
<g id="node36" class="node">
<title>cool_ideas_SURFACE_bijou_daemon_status_live_refresh</title>
<path fill="#d4e8f7" stroke="black" d="M5454.3,-320.5C5454.3,-320.5 5285.7,-320.5 5285.7,-320.5 5281.5,-320.5 5277.3,-316.3 5277.3,-312.1 5277.3,-312.1 5277.3,-303.7 5277.3,-303.7 5277.3,-299.5 5281.5,-295.3 5285.7,-295.3 5285.7,-295.3 5454.3,-295.3 5454.3,-295.3 5458.5,-295.3 5462.7,-299.5 5462.7,-303.7 5462.7,-303.7 5462.7,-312.1 5462.7,-312.1 5462.7,-316.3 5458.5,-320.5 5454.3,-320.5"/>
<text xml:space="preserve" text-anchor="middle" x="5370" y="-304.8" font-family="Helvetica,sans-Serif" font-size="8.00">SURFACE&#45;bijou&#45;daemon&#45;status&#45;live&#45;refresh &#45; M</text>
</g>
<!-- cool_ideas_SURFACE_git_graft_enhance_expanded_git_subcommands -->
<g id="node37" class="node">
<title>cool_ideas_SURFACE_git_graft_enhance_expanded_git_subcommands</title>
<path fill="#d4e8f7" stroke="black" d="M5689.3,-320.5C5689.3,-320.5 5484.7,-320.5 5484.7,-320.5 5480.5,-320.5 5476.3,-316.3 5476.3,-312.1 5476.3,-312.1 5476.3,-303.7 5476.3,-303.7 5476.3,-299.5 5480.5,-295.3 5484.7,-295.3 5484.7,-295.3 5689.3,-295.3 5689.3,-295.3 5693.5,-295.3 5697.7,-299.5 5697.7,-303.7 5697.7,-303.7 5697.7,-312.1 5697.7,-312.1 5697.7,-316.3 5693.5,-320.5 5689.3,-320.5"/>
<text xml:space="preserve" text-anchor="middle" x="5587" y="-304.8" font-family="Helvetica,sans-Serif" font-size="8.00">SURFACE&#45;git&#45;graft&#45;enhance&#45;expanded&#45;git&#45;subcommands</text>
</g>
<!-- cool_ideas_SURFACE_git_graft_enhance_provenance_hints -->
<g id="node38" class="node">
<title>cool_ideas_SURFACE_git_graft_enhance_provenance_hints</title>
<path fill="#d4e8f7" stroke="black" d="M5885.43,-320.5C5885.43,-320.5 5720.57,-320.5 5720.57,-320.5 5716.38,-320.5 5712.18,-316.3 5712.18,-312.1 5712.18,-312.1 5712.18,-303.7 5712.18,-303.7 5712.18,-299.5 5716.38,-295.3 5720.57,-295.3 5720.57,-295.3 5885.43,-295.3 5885.43,-295.3 5889.62,-295.3 5893.82,-299.5 5893.82,-303.7 5893.82,-303.7 5893.82,-312.1 5893.82,-312.1 5893.82,-316.3 5889.62,-320.5 5885.43,-320.5"/>
<text xml:space="preserve" text-anchor="middle" x="5803" y="-304.8" font-family="Helvetica,sans-Serif" font-size="8.00">SURFACE&#45;git&#45;graft&#45;enhance&#45;provenance&#45;hints</text>
</g>
<!-- cool_ideas_SURFACE_local_history_dag_render_mode_and_count_legend -->
<g id="node40" class="node">
<title>cool_ideas_SURFACE_local_history_dag_render_mode_and_count_legend</title>
<path fill="#d4e8f7" stroke="black" d="M6142.18,-320.5C6142.18,-320.5 5915.82,-320.5 5915.82,-320.5 5911.62,-320.5 5907.43,-316.3 5907.43,-312.1 5907.43,-312.1 5907.43,-303.7 5907.43,-303.7 5907.43,-299.5 5911.62,-295.3 5915.82,-295.3 5915.82,-295.3 6142.18,-295.3 6142.18,-295.3 6146.38,-295.3 6150.57,-299.5 6150.57,-303.7 6150.57,-303.7 6150.57,-312.1 6150.57,-312.1 6150.57,-316.3 6146.38,-320.5 6142.18,-320.5"/>
<text xml:space="preserve" text-anchor="middle" x="6029" y="-304.8" font-family="Helvetica,sans-Serif" font-size="8.00">SURFACE&#45;local&#45;history&#45;dag&#45;render&#45;mode&#45;and&#45;count&#45;legend &#45; S</text>
</g>
<!-- cool_ideas_SURFACE_non_codex_instruction_bootstrap_parity -->
<g id="node41" class="node">
<title>cool_ideas_SURFACE_non_codex_instruction_bootstrap_parity</title>
<path fill="#d4e8f7" stroke="black" d="M6361.43,-320.5C6361.43,-320.5 6172.57,-320.5 6172.57,-320.5 6168.38,-320.5 6164.18,-316.3 6164.18,-312.1 6164.18,-312.1 6164.18,-303.7 6164.18,-303.7 6164.18,-299.5 6168.38,-295.3 6172.57,-295.3 6172.57,-295.3 6361.43,-295.3 6361.43,-295.3 6365.62,-295.3 6369.82,-299.5 6369.82,-303.7 6369.82,-303.7 6369.82,-312.1 6369.82,-312.1 6369.82,-316.3 6365.62,-320.5 6361.43,-320.5"/>
<text xml:space="preserve" text-anchor="middle" x="6267" y="-304.8" font-family="Helvetica,sans-Serif" font-size="8.00">SURFACE&#45;non&#45;codex&#45;instruction&#45;bootstrap&#45;parity &#45; M</text>
</g>
<!-- cool_ideas_SURFACE_offer_rename_refactor -->
<g id="node42" class="node">
<title>cool_ideas_SURFACE_offer_rename_refactor</title>
<path fill="#d4e8f7" stroke="black" d="M6521.43,-320.5C6521.43,-320.5 6392.57,-320.5 6392.57,-320.5 6388.38,-320.5 6384.18,-316.3 6384.18,-312.1 6384.18,-312.1 6384.18,-303.7 6384.18,-303.7 6384.18,-299.5 6388.38,-295.3 6392.57,-295.3 6392.57,-295.3 6521.43,-295.3 6521.43,-295.3 6525.62,-295.3 6529.82,-299.5 6529.82,-303.7 6529.82,-303.7 6529.82,-312.1 6529.82,-312.1 6529.82,-316.3 6525.62,-320.5 6521.43,-320.5"/>
<text xml:space="preserve" text-anchor="middle" x="6457" y="-304.8" font-family="Helvetica,sans-Serif" font-size="8.00">SURFACE&#45;offer&#45;rename&#45;refactor &#45; L</text>
</g>
<!-- cool_ideas_SURFACE_terminal_activity_browser_tui -->
<g id="node43" class="node">
<title>cool_ideas_SURFACE_terminal_activity_browser_tui</title>
<path fill="#d4e8f7" stroke="black" d="M6701.55,-320.5C6701.55,-320.5 6552.45,-320.5 6552.45,-320.5 6548.25,-320.5 6544.05,-316.3 6544.05,-312.1 6544.05,-312.1 6544.05,-303.7 6544.05,-303.7 6544.05,-299.5 6548.25,-295.3 6552.45,-295.3 6552.45,-295.3 6701.55,-295.3 6701.55,-295.3 6705.75,-295.3 6709.95,-299.5 6709.95,-303.7 6709.95,-303.7 6709.95,-312.1 6709.95,-312.1 6709.95,-316.3 6705.75,-320.5 6701.55,-320.5"/>
<text xml:space="preserve" text-anchor="middle" x="6627" y="-304.8" font-family="Helvetica,sans-Serif" font-size="8.00">SURFACE&#45;terminal&#45;activity&#45;browser&#45;tui &#45; L</text>
</g>
<!-- cool_ideas_traverse_plus_query_hydration_helper -->
<g id="node44" class="node">
<title>cool_ideas_traverse_plus_query_hydration_helper</title>
<path fill="#d4e8f7" stroke="black" d="M6873.8,-320.5C6873.8,-320.5 6732.2,-320.5 6732.2,-320.5 6728,-320.5 6723.8,-316.3 6723.8,-312.1 6723.8,-312.1 6723.8,-303.7 6723.8,-303.7 6723.8,-299.5 6728,-295.3 6732.2,-295.3 6732.2,-295.3 6873.8,-295.3 6873.8,-295.3 6878,-295.3 6882.2,-299.5 6882.2,-303.7 6882.2,-303.7 6882.2,-312.1 6882.2,-312.1 6882.2,-316.3 6878,-320.5 6873.8,-320.5"/>
<text xml:space="preserve" text-anchor="middle" x="6803" y="-304.8" font-family="Helvetica,sans-Serif" font-size="8.00">traverse&#45;plus&#45;query&#45;hydration&#45;helper &#45; S</text>
</g>
<!-- cool_ideas_WARP_adaptive_projection_selection -->
<g id="node45" class="node">
<title>cool_ideas_WARP_adaptive_projection_selection</title>
<path fill="#d4e8f7" stroke="black" d="M7042.93,-320.5C7042.93,-320.5 6905.07,-320.5 6905.07,-320.5 6900.88,-320.5 6896.68,-316.3 6896.68,-312.1 6896.68,-312.1 6896.68,-303.7 6896.68,-303.7 6896.68,-299.5 6900.88,-295.3 6905.07,-295.3 6905.07,-295.3 7042.93,-295.3 7042.93,-295.3 7047.12,-295.3 7051.32,-299.5 7051.32,-303.7 7051.32,-303.7 7051.32,-312.1 7051.32,-312.1 7051.32,-316.3 7047.12,-320.5 7042.93,-320.5"/>
<text xml:space="preserve" text-anchor="middle" x="6974" y="-304.8" font-family="Helvetica,sans-Serif" font-size="8.00">WARP&#45;adaptive&#45;projection&#45;selection &#45; L</text>
</g>
<!-- cool_ideas_WARP_agent_action_provenance -->
<g id="node46" class="node">
<title>cool_ideas_WARP_agent_action_provenance</title>
<path fill="#d4e8f7" stroke="black" d="M7204.55,-320.5C7204.55,-320.5 7073.45,-320.5 7073.45,-320.5 7069.25,-320.5 7065.05,-316.3 7065.05,-312.1 7065.05,-312.1 7065.05,-303.7 7065.05,-303.7 7065.05,-299.5 7069.25,-295.3 7073.45,-295.3 7073.45,-295.3 7204.55,-295.3 7204.55,-295.3 7208.75,-295.3 7212.95,-299.5 7212.95,-303.7 7212.95,-303.7 7212.95,-312.1 7212.95,-312.1 7212.95,-316.3 7208.75,-320.5 7204.55,-320.5"/>
<text xml:space="preserve" text-anchor="middle" x="7139" y="-304.8" font-family="Helvetica,sans-Serif" font-size="8.00">WARP&#45;agent&#45;action&#45;provenance &#45; XL</text>
</g>
<!-- cool_ideas_WARP_agent_action_provenance&#45;&gt;cool_ideas_CI_001_causal_collapse_visualizer -->
<g id="edge3" class="edge">
<title>cool_ideas_WARP_agent_action_provenance&#45;&gt;cool_ideas_CI_001_causal_collapse_visualizer</title>
<path fill="none" stroke="#666666" d="M7185.86,-294.88C7201.39,-289.94 7218.41,-283.43 7233,-275.3 7244.49,-268.89 7255.89,-259.59 7264.69,-251.58"/>
<polygon fill="#666666" stroke="#666666" points="7265.72,-253.02 7268.19,-248.33 7263.34,-250.45 7265.72,-253.02"/>
<text xml:space="preserve" text-anchor="middle" x="7276" y="-268.65" font-family="Helvetica,sans-Serif" font-size="7.00">blocked_by/blocking</text>
</g>
<!-- cool_ideas_WARP_causal_write_tracking -->
<g id="node51" class="node">
<title>cool_ideas_WARP_causal_write_tracking</title>
<path fill="#d4e8f7" stroke="black" d="M6897.05,-247.05C6897.05,-247.05 6786.95,-247.05 6786.95,-247.05 6782.75,-247.05 6778.55,-242.85 6778.55,-238.65 6778.55,-238.65 6778.55,-230.25 6778.55,-230.25 6778.55,-226.05 6782.75,-221.85 6786.95,-221.85 6786.95,-221.85 6897.05,-221.85 6897.05,-221.85 6901.25,-221.85 6905.45,-226.05 6905.45,-230.25 6905.45,-230.25 6905.45,-238.65 6905.45,-238.65 6905.45,-242.85 6901.25,-247.05 6897.05,-247.05"/>
<text xml:space="preserve" text-anchor="middle" x="6842" y="-231.35" font-family="Helvetica,sans-Serif" font-size="8.00">WARP&#45;causal&#45;write&#45;tracking &#45; L</text>
</g>
<!-- cool_ideas_WARP_agent_action_provenance&#45;&gt;cool_ideas_WARP_causal_write_tracking -->
<g id="edge4" class="edge">
<title>cool_ideas_WARP_agent_action_provenance&#45;&gt;cool_ideas_WARP_causal_write_tracking</title>
<path fill="none" stroke="#666666" d="M7089.31,-294.86C7078.97,-292.36 7068.13,-289.74 7058,-287.3 7003.86,-274.25 6942.08,-259.43 6898.49,-248.98"/>
<polygon fill="#666666" stroke="#666666" points="6898.94,-247.29 6893.67,-247.83 6898.12,-250.69 6898.94,-247.29"/>
<text xml:space="preserve" text-anchor="middle" x="7036.17" y="-268.65" font-family="Helvetica,sans-Serif" font-size="7.00">blocked_by/blocking</text>
</g>
<!-- cool_ideas_WARP_intent_and_decision_events -->
<g id="node61" class="node">
<title>cool_ideas_WARP_intent_and_decision_events</title>
<path fill="#d4e8f7" stroke="black" d="M7060.3,-247.05C7060.3,-247.05 6927.7,-247.05 6927.7,-247.05 6923.5,-247.05 6919.3,-242.85 6919.3,-238.65 6919.3,-238.65 6919.3,-230.25 6919.3,-230.25 6919.3,-226.05 6923.5,-221.85 6927.7,-221.85 6927.7,-221.85 7060.3,-221.85 7060.3,-221.85 7064.5,-221.85 7068.7,-226.05 7068.7,-230.25 7068.7,-230.25 7068.7,-238.65 7068.7,-238.65 7068.7,-242.85 7064.5,-247.05 7060.3,-247.05"/>
<text xml:space="preserve" text-anchor="middle" x="6994" y="-231.35" font-family="Helvetica,sans-Serif" font-size="8.00">WARP&#45;intent&#45;and&#45;decision&#45;events &#45; M</text>
</g>
<!-- cool_ideas_WARP_agent_action_provenance&#45;&gt;cool_ideas_WARP_intent_and_decision_events -->
<g id="edge5" class="edge">
<title>cool_ideas_WARP_agent_action_provenance&#45;&gt;cool_ideas_WARP_intent_and_decision_events</title>
<path fill="none" stroke="#666666" d="M7114.73,-294.94C7089.74,-282.63 7050.76,-263.42 7023.89,-250.18"/>
<polygon fill="#666666" stroke="#666666" points="7024.97,-248.76 7019.71,-248.12 7023.42,-251.9 7024.97,-248.76"/>
<text xml:space="preserve" text-anchor="middle" x="7102.35" y="-268.65" font-family="Helvetica,sans-Serif" font-size="7.00">blocked_by/blocking</text>
</g>
<!-- cool_ideas_WARP_provenance_dag -->
<g id="node66" class="node">
<title>cool_ideas_WARP_provenance_dag</title>
<path fill="#d4e8f7" stroke="black" d="M7186.55,-247.05C7186.55,-247.05 7091.45,-247.05 7091.45,-247.05 7087.25,-247.05 7083.05,-242.85 7083.05,-238.65 7083.05,-238.65 7083.05,-230.25 7083.05,-230.25 7083.05,-226.05 7087.25,-221.85 7091.45,-221.85 7091.45,-221.85 7186.55,-221.85 7186.55,-221.85 7190.75,-221.85 7194.95,-226.05 7194.95,-230.25 7194.95,-230.25 7194.95,-238.65 7194.95,-238.65 7194.95,-242.85 7190.75,-247.05 7186.55,-247.05"/>
<text xml:space="preserve" text-anchor="middle" x="7139" y="-231.35" font-family="Helvetica,sans-Serif" font-size="8.00">WARP&#45;provenance&#45;dag &#45; L</text>
</g>
<!-- cool_ideas_WARP_agent_action_provenance&#45;&gt;cool_ideas_WARP_provenance_dag -->
<g id="edge6" class="edge">
<title>cool_ideas_WARP_agent_action_provenance&#45;&gt;cool_ideas_WARP_provenance_dag</title>
<path fill="none" stroke="#666666" d="M7139,-295.1C7139,-283.9 7139,-266.88 7139,-253.88"/>
<polygon fill="#666666" stroke="#666666" points="7140.75,-254.02 7139,-249.02 7137.25,-254.02 7140.75,-254.02"/>
<text xml:space="preserve" text-anchor="middle" x="7170.5" y="-268.65" font-family="Helvetica,sans-Serif" font-size="7.00">blocked_by/blocking</text>
</g>
<!-- cool_ideas_WARP_auto_breaking_change_detection -->
<g id="node47" class="node">
<title>cool_ideas_WARP_auto_breaking_change_detection</title>
<path fill="#d4e8f7" stroke="black" d="M10251.3,-247.05C10251.3,-247.05 10100.7,-247.05 10100.7,-247.05 10096.5,-247.05 10092.3,-242.85 10092.3,-238.65 10092.3,-238.65 10092.3,-230.25 10092.3,-230.25 10092.3,-226.05 10096.5,-221.85 10100.7,-221.85 10100.7,-221.85 10251.3,-221.85 10251.3,-221.85 10255.5,-221.85 10259.7,-226.05 10259.7,-230.25 10259.7,-230.25 10259.7,-238.65 10259.7,-238.65 10259.7,-242.85 10255.5,-247.05 10251.3,-247.05"/>
<text xml:space="preserve" text-anchor="middle" x="10176" y="-231.35" font-family="Helvetica,sans-Serif" font-size="8.00">WARP&#45;auto&#45;breaking&#45;change&#45;detection &#45; L</text>
</g>
<!-- cool_ideas_WARP_budget_elasticity -->
<g id="node49" class="node">
<title>cool_ideas_WARP_budget_elasticity</title>
<path fill="#d4e8f7" stroke="black" d="M7330.93,-320.5C7330.93,-320.5 7235.07,-320.5 7235.07,-320.5 7230.88,-320.5 7226.68,-316.3 7226.68,-312.1 7226.68,-312.1 7226.68,-303.7 7226.68,-303.7 7226.68,-299.5 7230.88,-295.3 7235.07,-295.3 7235.07,-295.3 7330.93,-295.3 7330.93,-295.3 7335.12,-295.3 7339.32,-299.5 7339.32,-303.7 7339.32,-303.7 7339.32,-312.1 7339.32,-312.1 7339.32,-316.3 7335.12,-320.5 7330.93,-320.5"/>
<text xml:space="preserve" text-anchor="middle" x="7283" y="-304.8" font-family="Helvetica,sans-Serif" font-size="8.00">WARP&#45;budget&#45;elasticity &#45; M</text>
</g>
<!-- cool_ideas_WARP_causal_blame_for_staged_artifacts -->
<g id="node50" class="node">
<title>cool_ideas_WARP_causal_blame_for_staged_artifacts</title>
<path fill="#d4e8f7" stroke="black" d="M7290.18,-173.6C7290.18,-173.6 7135.82,-173.6 7135.82,-173.6 7131.62,-173.6 7127.43,-169.4 7127.43,-165.2 7127.43,-165.2 7127.43,-156.8 7127.43,-156.8 7127.43,-152.6 7131.62,-148.4 7135.82,-148.4 7135.82,-148.4 7290.18,-148.4 7290.18,-148.4 7294.38,-148.4 7298.57,-152.6 7298.57,-156.8 7298.57,-156.8 7298.57,-165.2 7298.57,-165.2 7298.57,-169.4 7294.38,-173.6 7290.18,-173.6"/>
<text xml:space="preserve" text-anchor="middle" x="7213" y="-157.9" font-family="Helvetica,sans-Serif" font-size="8.00">WARP&#45;causal&#45;blame&#45;for&#45;staged&#45;artifacts &#45; L</text>
</g>
<!-- cool_ideas_WARP_codebase_entropy_trajectory -->
<g id="node52" class="node">
<title>cool_ideas_WARP_codebase_entropy_trajectory</title>
<path fill="#d4e8f7" stroke="black" d="M7500.68,-320.5C7500.68,-320.5 7361.32,-320.5 7361.32,-320.5 7357.12,-320.5 7352.93,-316.3 7352.93,-312.1 7352.93,-312.1 7352.93,-303.7 7352.93,-303.7 7352.93,-299.5 7357.12,-295.3 7361.32,-295.3 7361.32,-295.3 7500.68,-295.3 7500.68,-295.3 7504.88,-295.3 7509.07,-299.5 7509.07,-303.7 7509.07,-303.7 7509.07,-312.1 7509.07,-312.1 7509.07,-316.3 7504.88,-320.5 7500.68,-320.5"/>
<text xml:space="preserve" text-anchor="middle" x="7431" y="-304.8" font-family="Helvetica,sans-Serif" font-size="8.00">WARP&#45;codebase&#45;entropy&#45;trajectory &#45; M</text>
</g>
<!-- cool_ideas_WARP_counterfactual_refactoring -->
<g id="node54" class="node">
<title>cool_ideas_WARP_counterfactual_refactoring</title>
<path fill="#d4e8f7" stroke="black" d="M7508.68,-247.05C7508.68,-247.05 7375.32,-247.05 7375.32,-247.05 7371.12,-247.05 7366.93,-242.85 7366.93,-238.65 7366.93,-238.65 7366.93,-230.25 7366.93,-230.25 7366.93,-226.05 7371.12,-221.85 7375.32,-221.85 7375.32,-221.85 7508.68,-221.85 7508.68,-221.85 7512.88,-221.85 7517.07,-226.05 7517.07,-230.25 7517.07,-230.25 7517.07,-238.65 7517.07,-238.65 7517.07,-242.85 7512.88,-247.05 7508.68,-247.05"/>
<text xml:space="preserve" text-anchor="middle" x="7442" y="-231.35" font-family="Helvetica,sans-Serif" font-size="8.00">WARP&#45;counterfactual&#45;refactoring &#45; XL</text>
</g>
<!-- cool_ideas_WARP_codebase_entropy_trajectory&#45;&gt;cool_ideas_WARP_counterfactual_refactoring -->
<g id="edge7" class="edge">
<title>cool_ideas_WARP_codebase_entropy_trajectory&#45;&gt;cool_ideas_WARP_counterfactual_refactoring</title>
<path fill="none" stroke="#666666" d="M7432.82,-295.1C7434.54,-283.9 7437.16,-266.88 7439.16,-253.88"/>
<polygon fill="#666666" stroke="#666666" points="7440.88,-254.21 7439.91,-249 7437.42,-253.68 7440.88,-254.21"/>
<text xml:space="preserve" text-anchor="middle" x="7468.33" y="-268.65" font-family="Helvetica,sans-Serif" font-size="7.00">blocked_by/blocking</text>
</g>
<!-- cool_ideas_WARP_codebase_signature -->
<g id="node53" class="node">
<title>cool_ideas_WARP_codebase_signature</title>
<path fill="#d4e8f7" stroke="black" d="M7638.55,-320.5C7638.55,-320.5 7531.45,-320.5 7531.45,-320.5 7527.25,-320.5 7523.05,-316.3 7523.05,-312.1 7523.05,-312.1 7523.05,-303.7 7523.05,-303.7 7523.05,-299.5 7527.25,-295.3 7531.45,-295.3 7531.45,-295.3 7638.55,-295.3 7638.55,-295.3 7642.75,-295.3 7646.95,-299.5 7646.95,-303.7 7646.95,-303.7 7646.95,-312.1 7646.95,-312.1 7646.95,-316.3 7642.75,-320.5 7638.55,-320.5"/>
<text xml:space="preserve" text-anchor="middle" x="7585" y="-304.8" font-family="Helvetica,sans-Serif" font-size="8.00">WARP&#45;codebase&#45;signature &#45; L</text>
</g>
<!-- cool_ideas_WARP_structural_impact_prediction -->
<g id="node76" class="node">
<title>cool_ideas_WARP_structural_impact_prediction</title>
<path fill="#d4e8f7" stroke="black" d="M7511.3,-173.6C7511.3,-173.6 7372.7,-173.6 7372.7,-173.6 7368.5,-173.6 7364.3,-169.4 7364.3,-165.2 7364.3,-165.2 7364.3,-156.8 7364.3,-156.8 7364.3,-152.6 7368.5,-148.4 7372.7,-148.4 7372.7,-148.4 7511.3,-148.4 7511.3,-148.4 7515.5,-148.4 7519.7,-152.6 7519.7,-156.8 7519.7,-156.8 7519.7,-165.2 7519.7,-165.2 7519.7,-169.4 7515.5,-173.6 7511.3,-173.6"/>
<text xml:space="preserve" text-anchor="middle" x="7442" y="-157.9" font-family="Helvetica,sans-Serif" font-size="8.00">WARP&#45;structural&#45;impact&#45;prediction &#45; XL</text>
</g>
<!-- cool_ideas_WARP_counterfactual_refactoring&#45;&gt;cool_ideas_WARP_structural_impact_prediction -->
<g id="edge8" class="edge">
<title>cool_ideas_WARP_counterfactual_refactoring&#45;&gt;cool_ideas_WARP_structural_impact_prediction</title>
<path fill="none" stroke="#666666" d="M7442,-221.65C7442,-210.45 7442,-193.43 7442,-180.43"/>
<polygon fill="#666666" stroke="#666666" points="7443.75,-180.57 7442,-175.57 7440.25,-180.57 7443.75,-180.57"/>
<text xml:space="preserve" text-anchor="middle" x="7473.5" y="-195.2" font-family="Helvetica,sans-Serif" font-size="7.00">blocked_by/blocking</text>
</g>
<!-- cool_ideas_WARP_dead_symbol_detection -->
<g id="node55" class="node">
<title>cool_ideas_WARP_dead_symbol_detection</title>
<path fill="#d4e8f7" stroke="black" d="M7788.18,-320.5C7788.18,-320.5 7669.82,-320.5 7669.82,-320.5 7665.62,-320.5 7661.43,-316.3 7661.43,-312.1 7661.43,-312.1 7661.43,-303.7 7661.43,-303.7 7661.43,-299.5 7665.62,-295.3 7669.82,-295.3 7669.82,-295.3 7788.18,-295.3 7788.18,-295.3 7792.38,-295.3 7796.57,-299.5 7796.57,-303.7 7796.57,-303.7 7796.57,-312.1 7796.57,-312.1 7796.57,-316.3 7792.38,-320.5 7788.18,-320.5"/>
<text xml:space="preserve" text-anchor="middle" x="7729" y="-304.8" font-family="Helvetica,sans-Serif" font-size="8.00">WARP&#45;dead&#45;symbol&#45;detection &#45; S</text>
</g>
<!-- cool_ideas_WARP_degeneracy_warning -->
<g id="node56" class="node">
<title>cool_ideas_WARP_degeneracy_warning</title>
<path fill="#d4e8f7" stroke="black" d="M7931.18,-320.5C7931.18,-320.5 7818.82,-320.5 7818.82,-320.5 7814.62,-320.5 7810.43,-316.3 7810.43,-312.1 7810.43,-312.1 7810.43,-303.7 7810.43,-303.7 7810.43,-299.5 7814.62,-295.3 7818.82,-295.3 7818.82,-295.3 7931.18,-295.3 7931.18,-295.3 7935.38,-295.3 7939.57,-299.5 7939.57,-303.7 7939.57,-303.7 7939.57,-312.1 7939.57,-312.1 7939.57,-316.3 7935.38,-320.5 7931.18,-320.5"/>
<text xml:space="preserve" text-anchor="middle" x="7875" y="-304.8" font-family="Helvetica,sans-Serif" font-size="8.00">WARP&#45;degeneracy&#45;warning &#45; M</text>
</g>
<!-- cool_ideas_WARP_drift_sentinel -->
<g id="node57" class="node">
<title>cool_ideas_WARP_drift_sentinel</title>
<path fill="#d4e8f7" stroke="black" d="M9844.18,-247.05C9844.18,-247.05 9761.82,-247.05 9761.82,-247.05 9757.62,-247.05 9753.42,-242.85 9753.42,-238.65 9753.42,-238.65 9753.42,-230.25 9753.42,-230.25 9753.42,-226.05 9757.62,-221.85 9761.82,-221.85 9761.82,-221.85 9844.18,-221.85 9844.18,-221.85 9848.38,-221.85 9852.58,-226.05 9852.58,-230.25 9852.58,-230.25 9852.58,-238.65 9852.58,-238.65 9852.58,-242.85 9848.38,-247.05 9844.18,-247.05"/>
<text xml:space="preserve" text-anchor="middle" x="9803" y="-231.35" font-family="Helvetica,sans-Serif" font-size="8.00">WARP&#45;drift&#45;sentinel &#45; M</text>
</g>
<!-- cool_ideas_WARP_footprint_parallelism -->
<g id="node58" class="node">
<title>cool_ideas_WARP_footprint_parallelism</title>
<path fill="#d4e8f7" stroke="black" d="M8073.8,-320.5C8073.8,-320.5 7962.2,-320.5 7962.2,-320.5 7958,-320.5 7953.8,-316.3 7953.8,-312.1 7953.8,-312.1 7953.8,-303.7 7953.8,-303.7 7953.8,-299.5 7958,-295.3 7962.2,-295.3 7962.2,-295.3 8073.8,-295.3 8073.8,-295.3 8078,-295.3 8082.2,-299.5 8082.2,-303.7 8082.2,-303.7 8082.2,-312.1 8082.2,-312.1 8082.2,-316.3 8078,-320.5 8073.8,-320.5"/>
<text xml:space="preserve" text-anchor="middle" x="8018" y="-304.8" font-family="Helvetica,sans-Serif" font-size="8.00">WARP&#45;footprint&#45;parallelism &#45; XL</text>
</g>
<!-- cool_ideas_WARP_graft_pack -->
<g id="node59" class="node">
<title>cool_ideas_WARP_graft_pack</title>
<path fill="#d4e8f7" stroke="black" d="M8179.43,-320.5C8179.43,-320.5 8104.57,-320.5 8104.57,-320.5 8100.38,-320.5 8096.18,-316.3 8096.18,-312.1 8096.18,-312.1 8096.18,-303.7 8096.18,-303.7 8096.18,-299.5 8100.38,-295.3 8104.57,-295.3 8104.57,-295.3 8179.43,-295.3 8179.43,-295.3 8183.62,-295.3 8187.82,-299.5 8187.82,-303.7 8187.82,-303.7 8187.82,-312.1 8187.82,-312.1 8187.82,-316.3 8183.62,-320.5 8179.43,-320.5"/>
<text xml:space="preserve" text-anchor="middle" x="8142" y="-304.8" font-family="Helvetica,sans-Serif" font-size="8.00">WARP&#45;graft&#45;pack &#45; M</text>
</g>
<!-- cool_ideas_WARP_grouped_aggregate_queries -->
<g id="node60" class="node">
<title>cool_ideas_WARP_grouped_aggregate_queries</title>
<path fill="#d4e8f7" stroke="black" d="M8347.93,-320.5C8347.93,-320.5 8210.07,-320.5 8210.07,-320.5 8205.88,-320.5 8201.67,-316.3 8201.67,-312.1 8201.67,-312.1 8201.67,-303.7 8201.67,-303.7 8201.67,-299.5 8205.88,-295.3 8210.07,-295.3 8210.07,-295.3 8347.93,-295.3 8347.93,-295.3 8352.12,-295.3 8356.33,-299.5 8356.33,-303.7 8356.33,-303.7 8356.33,-312.1 8356.33,-312.1 8356.33,-316.3 8352.12,-320.5 8347.93,-320.5"/>
<text xml:space="preserve" text-anchor="middle" x="8279" y="-304.8" font-family="Helvetica,sans-Serif" font-size="8.00">WARP&#45;grouped&#45;aggregate&#45;queries &#45; M</text>
</g>
<!-- cool_ideas_WARP_intentional_degeneracy_privacy -->
<g id="node62" class="node">
<title>cool_ideas_WARP_intentional_degeneracy_privacy</title>
<path fill="#d4e8f7" stroke="black" d="M8526.8,-320.5C8526.8,-320.5 8379.2,-320.5 8379.2,-320.5 8375,-320.5 8370.8,-316.3 8370.8,-312.1 8370.8,-312.1 8370.8,-303.7 8370.8,-303.7 8370.8,-299.5 8375,-295.3 8379.2,-295.3 8379.2,-295.3 8526.8,-295.3 8526.8,-295.3 8531,-295.3 8535.2,-299.5 8535.2,-303.7 8535.2,-303.7 8535.2,-312.1 8535.2,-312.1 8535.2,-316.3 8531,-320.5 8526.8,-320.5"/>
<text xml:space="preserve" text-anchor="middle" x="8453" y="-304.8" font-family="Helvetica,sans-Serif" font-size="8.00">WARP&#45;intentional&#45;degeneracy&#45;privacy &#45; M</text>
</g>
<!-- cool_ideas_WARP_minimum_viable_context -->
<g id="node63" class="node">
<title>cool_ideas_WARP_minimum_viable_context</title>
<path fill="#d4e8f7" stroke="black" d="M8680.43,-320.5C8680.43,-320.5 8557.57,-320.5 8557.57,-320.5 8553.38,-320.5 8549.17,-316.3 8549.17,-312.1 8549.17,-312.1 8549.17,-303.7 8549.17,-303.7 8549.17,-299.5 8553.38,-295.3 8557.57,-295.3 8557.57,-295.3 8680.43,-295.3 8680.43,-295.3 8684.62,-295.3 8688.83,-299.5 8688.83,-303.7 8688.83,-303.7 8688.83,-312.1 8688.83,-312.1 8688.83,-316.3 8684.62,-320.5 8680.43,-320.5"/>
<text xml:space="preserve" text-anchor="middle" x="8619" y="-304.8" font-family="Helvetica,sans-Serif" font-size="8.00">WARP&#45;minimum&#45;viable&#45;context &#45; M</text>
</g>
<!-- cool_ideas_WARP_outline_diff_commit_trailer -->
<g id="node64" class="node">
<title>cool_ideas_WARP_outline_diff_commit_trailer</title>
<path fill="#d4e8f7" stroke="black" d="M8836.93,-320.5C8836.93,-320.5 8711.07,-320.5 8711.07,-320.5 8706.88,-320.5 8702.67,-316.3 8702.67,-312.1 8702.67,-312.1 8702.67,-303.7 8702.67,-303.7 8702.67,-299.5 8706.88,-295.3 8711.07,-295.3 8711.07,-295.3 8836.93,-295.3 8836.93,-295.3 8841.12,-295.3 8845.33,-299.5 8845.33,-303.7 8845.33,-303.7 8845.33,-312.1 8845.33,-312.1 8845.33,-316.3 8841.12,-320.5 8836.93,-320.5"/>
<text xml:space="preserve" text-anchor="middle" x="8774" y="-304.8" font-family="Helvetica,sans-Serif" font-size="8.00">WARP&#45;outline&#45;diff&#45;commit&#45;trailer &#45; S</text>
</g>
<!-- cool_ideas_WARP_projection_safety_classes -->
<g id="node65" class="node">
<title>cool_ideas_WARP_projection_safety_classes</title>
<path fill="#d4e8f7" stroke="black" d="M8993.93,-320.5C8993.93,-320.5 8868.07,-320.5 8868.07,-320.5 8863.88,-320.5 8859.67,-316.3 8859.67,-312.1 8859.67,-312.1 8859.67,-303.7 8859.67,-303.7 8859.67,-299.5 8863.88,-295.3 8868.07,-295.3 8868.07,-295.3 8993.93,-295.3 8993.93,-295.3 8998.12,-295.3 9002.33,-299.5 9002.33,-303.7 9002.33,-303.7 9002.33,-312.1 9002.33,-312.1 9002.33,-316.3 8998.12,-320.5 8993.93,-320.5"/>
<text xml:space="preserve" text-anchor="middle" x="8931" y="-304.8" font-family="Helvetica,sans-Serif" font-size="8.00">WARP&#45;projection&#45;safety&#45;classes &#45; M</text>
</g>
<!-- cool_ideas_WARP_provenance_dag&#45;&gt;cool_ideas_WARP_causal_blame_for_staged_artifacts -->
<g id="edge9" class="edge">
<title>cool_ideas_WARP_provenance_dag&#45;&gt;cool_ideas_WARP_causal_blame_for_staged_artifacts</title>
<path fill="none" stroke="#666666" d="M7151.22,-221.65C7163.46,-209.83 7182.41,-191.54 7196.09,-178.32"/>
<polygon fill="#666666" stroke="#666666" points="7197.04,-179.84 7199.43,-175.11 7194.61,-177.32 7197.04,-179.84"/>
<text xml:space="preserve" text-anchor="middle" x="7209.72" y="-195.2" font-family="Helvetica,sans-Serif" font-size="7.00">blocked_by/blocking</text>
</g>
<!-- cool_ideas_WARP_reasoning_trace_replay -->
<g id="node67" class="node">
<title>cool_ideas_WARP_reasoning_trace_replay</title>
<path fill="#d4e8f7" stroke="black" d="M7104.93,-173.6C7104.93,-173.6 6985.07,-173.6 6985.07,-173.6 6980.88,-173.6 6976.68,-169.4 6976.68,-165.2 6976.68,-165.2 6976.68,-156.8 6976.68,-156.8 6976.68,-152.6 6980.88,-148.4 6985.07,-148.4 6985.07,-148.4 7104.93,-148.4 7104.93,-148.4 7109.12,-148.4 7113.32,-152.6 7113.32,-156.8 7113.32,-156.8 7113.32,-165.2 7113.32,-165.2 7113.32,-169.4 7109.12,-173.6 7104.93,-173.6"/>
<text xml:space="preserve" text-anchor="middle" x="7045" y="-157.9" font-family="Helvetica,sans-Serif" font-size="8.00">WARP&#45;reasoning&#45;trace&#45;replay &#45; M</text>
</g>
<!-- cool_ideas_WARP_provenance_dag&#45;&gt;cool_ideas_WARP_reasoning_trace_replay -->
<g id="edge10" class="edge">
<title>cool_ideas_WARP_provenance_dag&#45;&gt;cool_ideas_WARP_reasoning_trace_replay</title>
<path fill="none" stroke="#666666" d="M7123.48,-221.65C7107.79,-209.73 7083.44,-191.22 7066.02,-177.98"/>
<polygon fill="#666666" stroke="#666666" points="7067.1,-176.6 7062.06,-174.97 7064.99,-179.39 7067.1,-176.6"/>
<text xml:space="preserve" text-anchor="middle" x="7126.32" y="-195.2" font-family="Helvetica,sans-Serif" font-size="7.00">blocked_by/blocking</text>
</g>
<!-- cool_ideas_WARP_rulial_heat_map -->
<g id="node68" class="node">
<title>cool_ideas_WARP_rulial_heat_map</title>
<path fill="#d4e8f7" stroke="black" d="M9115.3,-320.5C9115.3,-320.5 9024.7,-320.5 9024.7,-320.5 9020.5,-320.5 9016.3,-316.3 9016.3,-312.1 9016.3,-312.1 9016.3,-303.7 9016.3,-303.7 9016.3,-299.5 9020.5,-295.3 9024.7,-295.3 9024.7,-295.3 9115.3,-295.3 9115.3,-295.3 9119.5,-295.3 9123.7,-299.5 9123.7,-303.7 9123.7,-303.7 9123.7,-312.1 9123.7,-312.1 9123.7,-316.3 9119.5,-320.5 9115.3,-320.5"/>
<text xml:space="preserve" text-anchor="middle" x="9070" y="-304.8" font-family="Helvetica,sans-Serif" font-size="8.00">WARP&#45;rulial&#45;heat&#45;map &#45; L</text>
</g>
<!-- cool_ideas_WARP_semantic_drift_in_sessions -->
<g id="node69" class="node">
<title>cool_ideas_WARP_semantic_drift_in_sessions</title>
<path fill="#d4e8f7" stroke="black" d="M9275.43,-320.5C9275.43,-320.5 9146.57,-320.5 9146.57,-320.5 9142.38,-320.5 9138.17,-316.3 9138.17,-312.1 9138.17,-312.1 9138.17,-303.7 9138.17,-303.7 9138.17,-299.5 9142.38,-295.3 9146.57,-295.3 9146.57,-295.3 9275.43,-295.3 9275.43,-295.3 9279.62,-295.3 9283.83,-299.5 9283.83,-303.7 9283.83,-303.7 9283.83,-312.1 9283.83,-312.1 9283.83,-316.3 9279.62,-320.5 9275.43,-320.5"/>
<text xml:space="preserve" text-anchor="middle" x="9211" y="-304.8" font-family="Helvetica,sans-Serif" font-size="8.00">WARP&#45;semantic&#45;drift&#45;in&#45;sessions &#45; M</text>
</g>
<!-- cool_ideas_WARP_semantic_merge_conflict_prediction -->
<g id="node70" class="node">
<title>cool_ideas_WARP_semantic_merge_conflict_prediction</title>
<path fill="#d4e8f7" stroke="black" d="M10441.43,-247.05C10441.43,-247.05 10282.57,-247.05 10282.57,-247.05 10278.38,-247.05 10274.17,-242.85 10274.17,-238.65 10274.17,-238.65 10274.17,-230.25 10274.17,-230.25 10274.17,-226.05 10278.38,-221.85 10282.57,-221.85 10282.57,-221.85 10441.43,-221.85 10441.43,-221.85 10445.62,-221.85 10449.83,-226.05 10449.83,-230.25 10449.83,-230.25 10449.83,-238.65 10449.83,-238.65 10449.83,-242.85 10445.62,-247.05 10441.43,-247.05"/>
<text xml:space="preserve" text-anchor="middle" x="10362" y="-231.35" font-family="Helvetica,sans-Serif" font-size="8.00">WARP&#45;semantic&#45;merge&#45;conflict&#45;prediction &#45; L</text>
</g>
<!-- cool_ideas_WARP_session_filtration -->
<g id="node71" class="node">
<title>cool_ideas_WARP_session_filtration</title>
<path fill="#d4e8f7" stroke="black" d="M9399.8,-320.5C9399.8,-320.5 9306.2,-320.5 9306.2,-320.5 9302,-320.5 9297.8,-316.3 9297.8,-312.1 9297.8,-312.1 9297.8,-303.7 9297.8,-303.7 9297.8,-299.5 9302,-295.3 9306.2,-295.3 9306.2,-295.3 9399.8,-295.3 9399.8,-295.3 9404,-295.3 9408.2,-299.5 9408.2,-303.7 9408.2,-303.7 9408.2,-312.1 9408.2,-312.1 9408.2,-316.3 9404,-320.5 9399.8,-320.5"/>
<text xml:space="preserve" text-anchor="middle" x="9353" y="-304.8" font-family="Helvetica,sans-Serif" font-size="8.00">WARP&#45;session&#45;filtration &#45; L</text>
</g>
<!-- cool_ideas_WARP_shadow_structural_workspaces -->
<g id="node72" class="node">
<title>cool_ideas_WARP_shadow_structural_workspaces</title>
<path fill="#d4e8f7" stroke="black" d="M9581.3,-320.5C9581.3,-320.5 9430.7,-320.5 9430.7,-320.5 9426.5,-320.5 9422.3,-316.3 9422.3,-312.1 9422.3,-312.1 9422.3,-303.7 9422.3,-303.7 9422.3,-299.5 9426.5,-295.3 9430.7,-295.3 9430.7,-295.3 9581.3,-295.3 9581.3,-295.3 9585.5,-295.3 9589.7,-299.5 9589.7,-303.7 9589.7,-303.7 9589.7,-312.1 9589.7,-312.1 9589.7,-316.3 9585.5,-320.5 9581.3,-320.5"/>
<text xml:space="preserve" text-anchor="middle" x="9506" y="-304.8" font-family="Helvetica,sans-Serif" font-size="8.00">WARP&#45;shadow&#45;structural&#45;workspaces &#45; XL</text>
</g>
<!-- cool_ideas_WARP_speculative_merge -->
<g id="node73" class="node">
<title>cool_ideas_WARP_speculative_merge</title>
<path fill="#d4e8f7" stroke="black" d="M9719.55,-320.5C9719.55,-320.5 9612.45,-320.5 9612.45,-320.5 9608.25,-320.5 9604.05,-316.3 9604.05,-312.1 9604.05,-312.1 9604.05,-303.7 9604.05,-303.7 9604.05,-299.5 9608.25,-295.3 9612.45,-295.3 9612.45,-295.3 9719.55,-295.3 9719.55,-295.3 9723.75,-295.3 9727.95,-299.5 9727.95,-303.7 9727.95,-303.7 9727.95,-312.1 9727.95,-312.1 9727.95,-316.3 9723.75,-320.5 9719.55,-320.5"/>
<text xml:space="preserve" text-anchor="middle" x="9666" y="-304.8" font-family="Helvetica,sans-Serif" font-size="8.00">WARP&#45;speculative&#45;merge &#45; XL</text>
</g>
<!-- cool_ideas_WARP_stale_docs_checker -->
<g id="node74" class="node">
<title>cool_ideas_WARP_stale_docs_checker</title>
<path fill="#d4e8f7" stroke="black" d="M9855.8,-320.5C9855.8,-320.5 9750.2,-320.5 9750.2,-320.5 9746,-320.5 9741.8,-316.3 9741.8,-312.1 9741.8,-312.1 9741.8,-303.7 9741.8,-303.7 9741.8,-299.5 9746,-295.3 9750.2,-295.3 9750.2,-295.3 9855.8,-295.3 9855.8,-295.3 9860,-295.3 9864.2,-299.5 9864.2,-303.7 9864.2,-303.7 9864.2,-312.1 9864.2,-312.1 9864.2,-316.3 9860,-320.5 9855.8,-320.5"/>
<text xml:space="preserve" text-anchor="middle" x="9803" y="-304.8" font-family="Helvetica,sans-Serif" font-size="8.00">WARP&#45;stale&#45;docs&#45;checker &#45; M</text>
</g>
<!-- cool_ideas_WARP_stale_docs_checker&#45;&gt;cool_ideas_WARP_drift_sentinel -->
<g id="edge11" class="edge">
<title>cool_ideas_WARP_stale_docs_checker&#45;&gt;cool_ideas_WARP_drift_sentinel</title>
<path fill="none" stroke="#666666" d="M9803,-295.1C9803,-283.9 9803,-266.88 9803,-253.88"/>
<polygon fill="#666666" stroke="#666666" points="9804.75,-254.02 9803,-249.02 9801.25,-254.02 9804.75,-254.02"/>
<text xml:space="preserve" text-anchor="middle" x="9834.5" y="-268.65" font-family="Helvetica,sans-Serif" font-size="7.00">blocked_by/blocking</text>
</g>
<!-- cool_ideas_WARP_structural_drift_detection -->
<g id="node75" class="node">
<title>cool_ideas_WARP_structural_drift_detection</title>
<path fill="#d4e8f7" stroke="black" d="M10009.8,-320.5C10009.8,-320.5 9886.2,-320.5 9886.2,-320.5 9882,-320.5 9877.8,-316.3 9877.8,-312.1 9877.8,-312.1 9877.8,-303.7 9877.8,-303.7 9877.8,-299.5 9882,-295.3 9886.2,-295.3 9886.2,-295.3 10009.8,-295.3 10009.8,-295.3 10014,-295.3 10018.2,-299.5 10018.2,-303.7 10018.2,-303.7 10018.2,-312.1 10018.2,-312.1 10018.2,-316.3 10014,-320.5 10009.8,-320.5"/>
<text xml:space="preserve" text-anchor="middle" x="9948" y="-304.8" font-family="Helvetica,sans-Serif" font-size="8.00">WARP&#45;structural&#45;drift&#45;detection &#45; M</text>
</g>
<!-- cool_ideas_WARP_symbol_heatmap -->
<g id="node77" class="node">
<title>cool_ideas_WARP_symbol_heatmap</title>
<path fill="#d4e8f7" stroke="black" d="M10139.05,-320.5C10139.05,-320.5 10040.95,-320.5 10040.95,-320.5 10036.75,-320.5 10032.55,-316.3 10032.55,-312.1 10032.55,-312.1 10032.55,-303.7 10032.55,-303.7 10032.55,-299.5 10036.75,-295.3 10040.95,-295.3 10040.95,-295.3 10139.05,-295.3 10139.05,-295.3 10143.25,-295.3 10147.45,-299.5 10147.45,-303.7 10147.45,-303.7 10147.45,-312.1 10147.45,-312.1 10147.45,-316.3 10143.25,-320.5 10139.05,-320.5"/>
<text xml:space="preserve" text-anchor="middle" x="10090" y="-304.8" font-family="Helvetica,sans-Serif" font-size="8.00">WARP&#45;symbol&#45;heatmap &#45; M</text>
</g>
<!-- cool_ideas_WARP_symbol_history_timeline -->
<g id="node78" class="node">
<title>cool_ideas_WARP_symbol_history_timeline</title>
<path fill="#d4e8f7" stroke="black" d="M10288.18,-320.5C10288.18,-320.5 10169.82,-320.5 10169.82,-320.5 10165.62,-320.5 10161.42,-316.3 10161.42,-312.1 10161.42,-312.1 10161.42,-303.7 10161.42,-303.7 10161.42,-299.5 10165.62,-295.3 10169.82,-295.3 10169.82,-295.3 10288.18,-295.3 10288.18,-295.3 10292.38,-295.3 10296.58,-299.5 10296.58,-303.7 10296.58,-303.7 10296.58,-312.1 10296.58,-312.1 10296.58,-316.3 10292.38,-320.5 10288.18,-320.5"/>
<text xml:space="preserve" text-anchor="middle" x="10229" y="-304.8" font-family="Helvetica,sans-Serif" font-size="8.00">WARP&#45;symbol&#45;history&#45;timeline &#45; S</text>
</g>
<!-- cool_ideas_WARP_temporal_structural_search -->
<g id="node80" class="node">
<title>cool_ideas_WARP_temporal_structural_search</title>
<path fill="#d4e8f7" stroke="black" d="M10069.68,-247.05C10069.68,-247.05 9936.32,-247.05 9936.32,-247.05 9932.12,-247.05 9927.92,-242.85 9927.92,-238.65 9927.92,-238.65 9927.92,-230.25 9927.92,-230.25 9927.92,-226.05 9932.12,-221.85 9936.32,-221.85 9936.32,-221.85 10069.68,-221.85 10069.68,-221.85 10073.88,-221.85 10078.08,-226.05 10078.08,-230.25 10078.08,-230.25 10078.08,-238.65 10078.08,-238.65 10078.08,-242.85 10073.88,-247.05 10069.68,-247.05"/>
<text xml:space="preserve" text-anchor="middle" x="10003" y="-231.35" font-family="Helvetica,sans-Serif" font-size="8.00">WARP&#45;temporal&#45;structural&#45;search &#45; M</text>
</g>
<!-- cool_ideas_WARP_symbol_history_timeline&#45;&gt;cool_ideas_WARP_temporal_structural_search -->
<g id="edge12" class="edge">
<title>cool_ideas_WARP_symbol_history_timeline&#45;&gt;cool_ideas_WARP_temporal_structural_search</title>
<path fill="none" stroke="#666666" d="M10190.92,-294.86C10151.23,-282.31 10089.1,-262.67 10047.26,-249.44"/>
<polygon fill="#666666" stroke="#666666" points="10047.98,-247.83 10042.68,-248 10046.92,-251.17 10047.98,-247.83"/>
<text xml:space="preserve" text-anchor="middle" x="10154.28" y="-268.65" font-family="Helvetica,sans-Serif" font-size="7.00">blocked_by/blocking</text>
</g>
<!-- cool_ideas_WARP_technical_debt_curvature -->
<g id="node79" class="node">
<title>cool_ideas_WARP_technical_debt_curvature</title>
<path fill="#d4e8f7" stroke="black" d="M10441.43,-320.5C10441.43,-320.5 10318.57,-320.5 10318.57,-320.5 10314.38,-320.5 10310.17,-316.3 10310.17,-312.1 10310.17,-312.1 10310.17,-303.7 10310.17,-303.7 10310.17,-299.5 10314.38,-295.3 10318.57,-295.3 10318.57,-295.3 10441.43,-295.3 10441.43,-295.3 10445.62,-295.3 10449.83,-299.5 10449.83,-303.7 10449.83,-303.7 10449.83,-312.1 10449.83,-312.1 10449.83,-316.3 10445.62,-320.5 10441.43,-320.5"/>
<text xml:space="preserve" text-anchor="middle" x="10380" y="-304.8" font-family="Helvetica,sans-Serif" font-size="8.00">WARP&#45;technical&#45;debt&#45;curvature &#45; L</text>
</g>
<!-- external_git_warp_observer_geometry_ladder__Rung_2_4_ -->
<g id="node81" class="node">
<title>external_git_warp_observer_geometry_ladder__Rung_2_4_</title>
<path fill="#e8f2ff" stroke="black" d="M449.67,-320.5C449.67,-320.5 286.33,-320.5 286.33,-320.5 282.12,-320.5 277.93,-316.3 277.93,-312.1 277.93,-312.1 277.93,-303.7 277.93,-303.7 277.93,-299.5 282.12,-295.3 286.33,-295.3 286.33,-295.3 449.67,-295.3 449.67,-295.3 453.88,-295.3 458.07,-299.5 458.07,-303.7 458.07,-303.7 458.07,-312.1 458.07,-312.1 458.07,-316.3 453.88,-320.5 449.67,-320.5"/>
<text xml:space="preserve" text-anchor="middle" x="368" y="-304.8" font-family="Helvetica,sans-Serif" font-size="8.00">git&#45;warp observer geometry ladder (Rung 2&#45;4)</text>
</g>
<!-- external_git_warp_observer_geometry_ladder__Rung_2_4_&#45;&gt;v0_7_0_CORE_migrate_to_slice_first_reads -->
<g id="edge13" class="edge">
<title>external_git_warp_observer_geometry_ladder__Rung_2_4_&#45;&gt;v0_7_0_CORE_migrate_to_slice_first_reads</title>
<path fill="none" stroke="#4477aa" stroke-dasharray="5,2" d="M337.7,-294.94C306.5,-282.62 257.82,-263.41 224.28,-250.16"/>
<polygon fill="#4477aa" stroke="#4477aa" points="225.31,-248.69 220.02,-248.48 224.03,-251.95 225.31,-248.69"/>
<text xml:space="preserve" text-anchor="middle" x="314.8" y="-268.65" font-family="Helvetica,sans-Serif" font-size="7.00">blocked_by_external</text>
</g>
<!-- unresolved_CLEAN_CODE_export_diff_semver_signature_as_patch -->
<g id="node82" class="node">
<title>unresolved_CLEAN_CODE_export_diff_semver_signature_as_patch</title>
<path fill="#f2f2f2" stroke="black" stroke-dasharray="5,2" d="M10705.3,-320.5C10705.3,-320.5 10482.7,-320.5 10482.7,-320.5 10478.5,-320.5 10474.3,-316.3 10474.3,-312.1 10474.3,-312.1 10474.3,-303.7 10474.3,-303.7 10474.3,-299.5 10478.5,-295.3 10482.7,-295.3 10482.7,-295.3 10705.3,-295.3 10705.3,-295.3 10709.5,-295.3 10713.7,-299.5 10713.7,-303.7 10713.7,-303.7 10713.7,-312.1 10713.7,-312.1 10713.7,-316.3 10709.5,-320.5 10705.3,-320.5"/>
<text xml:space="preserve" text-anchor="middle" x="10594" y="-304.8" font-family="Helvetica,sans-Serif" font-size="8.00">missing: CLEAN_CODE_export&#45;diff&#45;semver&#45;signature&#45;as&#45;patch</text>
</g>
<!-- unresolved_CLEAN_CODE_export_diff_semver_signature_as_patch&#45;&gt;cool_ideas_WARP_auto_breaking_change_detection -->
<g id="edge14" class="edge">
<title>unresolved_CLEAN_CODE_export_diff_semver_signature_as_patch&#45;&gt;cool_ideas_WARP_auto_breaking_change_detection</title>
<path fill="none" stroke="#cc3333" stroke-dasharray="5,2" d="M10523.56,-294.86C10448.51,-282.03 10330.05,-261.78 10252.69,-248.56"/>
<polygon fill="#cc3333" stroke="#cc3333" points="10253.44,-246.91 10248.22,-247.79 10252.85,-250.36 10253.44,-246.91"/>
<text xml:space="preserve" text-anchor="middle" x="10415.16" y="-268.65" font-family="Helvetica,sans-Serif" font-size="7.00">blocked_by</text>
</g>
<!-- unresolved_CLEAN_CODE_export_diff_semver_signature_as_patch&#45;&gt;cool_ideas_WARP_semantic_merge_conflict_prediction -->
<g id="edge15" class="edge">
<title>unresolved_CLEAN_CODE_export_diff_semver_signature_as_patch&#45;&gt;cool_ideas_WARP_semantic_merge_conflict_prediction</title>
<path fill="none" stroke="#cc3333" stroke-dasharray="5,2" d="M10554.91,-294.86C10514.17,-282.31 10450.39,-262.67 10407.43,-249.44"/>
<polygon fill="#cc3333" stroke="#cc3333" points="10407.99,-247.78 10402.7,-247.98 10406.96,-251.13 10407.99,-247.78"/>
<text xml:space="preserve" text-anchor="middle" x="10502.58" y="-268.65" font-family="Helvetica,sans-Serif" font-size="7.00">blocked_by</text>
</g>
<!-- leg_v07 -->
<g id="node83" class="node">
<title>leg_v07</title>
<path fill="#ffa07a" stroke="black" stroke-width="2" d="M10830,-320.5C10830,-320.5 10746,-320.5 10746,-320.5 10741.8,-320.5 10737.6,-316.3 10737.6,-312.1 10737.6,-312.1 10737.6,-303.7 10737.6,-303.7 10737.6,-299.5 10741.8,-295.3 10746,-295.3 10746,-295.3 10830,-295.3 10830,-295.3 10834.2,-295.3 10838.4,-299.5 10838.4,-303.7 10838.4,-303.7 10838.4,-312.1 10838.4,-312.1 10838.4,-316.3 10834.2,-320.5 10830,-320.5"/>
<text xml:space="preserve" text-anchor="middle" x="10788" y="-305.38" font-family="Helvetica,sans-Serif" font-size="7.00">v0.7.0</text>
</g>
<!-- leg_bad -->
<g id="node84" class="node">
<title>leg_bad</title>
<path fill="#f6b3b3" stroke="black" stroke-width="2" d="M10830,-247.05C10830,-247.05 10746,-247.05 10746,-247.05 10741.8,-247.05 10737.6,-242.85 10737.6,-238.65 10737.6,-238.65 10737.6,-230.25 10737.6,-230.25 10737.6,-226.05 10741.8,-221.85 10746,-221.85 10746,-221.85 10830,-221.85 10830,-221.85 10834.2,-221.85 10838.4,-226.05 10838.4,-230.25 10838.4,-230.25 10838.4,-238.65 10838.4,-238.65 10838.4,-242.85 10834.2,-247.05 10830,-247.05"/>
<text xml:space="preserve" text-anchor="middle" x="10788" y="-231.92" font-family="Helvetica,sans-Serif" font-size="7.00">bad&#45;code</text>
</g>
<!-- leg_v07&#45;&gt;leg_bad -->
<!-- leg_idea -->
<g id="node85" class="node">
<title>leg_idea</title>
<path fill="#d4e8f7" stroke="black" d="M10830,-173.6C10830,-173.6 10746,-173.6 10746,-173.6 10741.8,-173.6 10737.6,-169.4 10737.6,-165.2 10737.6,-165.2 10737.6,-156.8 10737.6,-156.8 10737.6,-152.6 10741.8,-148.4 10746,-148.4 10746,-148.4 10830,-148.4 10830,-148.4 10834.2,-148.4 10838.4,-152.6 10838.4,-156.8 10838.4,-156.8 10838.4,-165.2 10838.4,-165.2 10838.4,-169.4 10834.2,-173.6 10830,-173.6"/>
<text xml:space="preserve" text-anchor="middle" x="10788" y="-158.47" font-family="Helvetica,sans-Serif" font-size="7.00">cool&#45;ideas</text>
</g>
<!-- leg_bad&#45;&gt;leg_idea -->
<!-- leg_external -->
<g id="node86" class="node">
<title>leg_external</title>
<path fill="#e8f2ff" stroke="black" d="M10830,-107.4C10830,-107.4 10746,-107.4 10746,-107.4 10741.8,-107.4 10737.6,-103.2 10737.6,-99 10737.6,-99 10737.6,-90.6 10737.6,-90.6 10737.6,-86.4 10741.8,-82.2 10746,-82.2 10746,-82.2 10830,-82.2 10830,-82.2 10834.2,-82.2 10838.4,-86.4 10838.4,-90.6 10838.4,-90.6 10838.4,-99 10838.4,-99 10838.4,-103.2 10834.2,-107.4 10830,-107.4"/>
<text xml:space="preserve" text-anchor="middle" x="10788" y="-92.28" font-family="Helvetica,sans-Serif" font-size="7.00">external blocker</text>
</g>
<!-- leg_idea&#45;&gt;leg_external -->
<!-- leg_unresolved -->
<g id="node87" class="node">
<title>leg_unresolved</title>
<path fill="#f2f2f2" stroke="black" stroke-dasharray="5,2" d="M10830,-41.2C10830,-41.2 10746,-41.2 10746,-41.2 10741.8,-41.2 10737.6,-37 10737.6,-32.8 10737.6,-32.8 10737.6,-24.4 10737.6,-24.4 10737.6,-20.2 10741.8,-16 10746,-16 10746,-16 10830,-16 10830,-16 10834.2,-16 10838.4,-20.2 10838.4,-24.4 10838.4,-24.4 10838.4,-32.8 10838.4,-32.8 10838.4,-37 10834.2,-41.2 10830,-41.2"/>
<text xml:space="preserve" text-anchor="middle" x="10788" y="-26.08" font-family="Helvetica,sans-Serif" font-size="7.00">unresolved ref</text>
</g>
<!-- leg_external&#45;&gt;leg_unresolved -->
</g>
</svg>
