<?xml version="1.0" encoding="UTF-8" standalone="no"?>
<!DOCTYPE svg PUBLIC "-//W3C//DTD SVG 1.1//EN"
 "http://www.w3.org/Graphics/SVG/1.1/DTD/svg11.dtd">
<!-- Generated by graphviz version 14.1.2 (20260124.0452)
 -->
<!-- Title: backlog Pages: 1 -->
<svg width="11039pt" height="383pt"
 viewBox="0.00 0.00 11039.00 383.00" xmlns="http://www.w3.org/2000/svg" xmlns:xlink="http://www.w3.org/1999/xlink">
<g id="graph0" class="graph" transform="scale(1 1) rotate(0) translate(4 379)">
<title>backlog</title>
<polygon fill="white" stroke="none" points="-4,4 -4,-379 11035,-379 11035,4 -4,4"/>
<text xml:space="preserve" text-anchor="middle" x="5515.5" y="-359.6" font-family="Helvetica,sans-Serif" font-size="12.00">Active backlog graph generated from docs/method/backlog/*/*.md</text>
<g id="clust1" class="cluster">
<title>cluster_bad_code</title>
<path fill="#fafafa" stroke="#cccccc" d="M20,-287.3C20,-287.3 208,-287.3 208,-287.3 214,-287.3 220,-293.3 220,-299.3 220,-299.3 220,-334.25 220,-334.25 220,-340.25 214,-346.25 208,-346.25 208,-346.25 20,-346.25 20,-346.25 14,-346.25 8,-340.25 8,-334.25 8,-334.25 8,-299.3 8,-299.3 8,-293.3 14,-287.3 20,-287.3"/>
<text xml:space="preserve" text-anchor="middle" x="42.25" y="-333.7" font-family="Helvetica,sans-Serif" font-size="9.00" fill="#555555">bad&#45;code (1)</text>
</g>
<g id="clust2" class="cluster">
<title>cluster_cool_ideas</title>
<path fill="#fafafa" stroke="#cccccc" d="M240,-140.4C240,-140.4 10419,-140.4 10419,-140.4 10425,-140.4 10431,-146.4 10431,-152.4 10431,-152.4 10431,-334.25 10431,-334.25 10431,-340.25 10425,-346.25 10419,-346.25 10419,-346.25 240,-346.25 240,-346.25 234,-346.25 228,-340.25 228,-334.25 228,-334.25 228,-152.4 228,-152.4 228,-146.4 234,-140.4 240,-140.4"/>
<text xml:space="preserve" text-anchor="middle" x="267.5" y="-333.7" font-family="Helvetica,sans-Serif" font-size="9.00" fill="#555555">Cool Ideas (79)</text>
</g>
<g id="clust3" class="cluster">
<title>cluster_external</title>
<path fill="#f8fbff" stroke="#cccccc" d="M10451,-287.3C10451,-287.3 10623,-287.3 10623,-287.3 10629,-287.3 10635,-293.3 10635,-299.3 10635,-299.3 10635,-334.25 10635,-334.25 10635,-340.25 10629,-346.25 10623,-346.25 10623,-346.25 10451,-346.25 10451,-346.25 10445,-346.25 10439,-340.25 10439,-334.25 10439,-334.25 10439,-299.3 10439,-299.3 10439,-293.3 10445,-287.3 10451,-287.3"/>
<text xml:space="preserve" text-anchor="middle" x="10482.25" y="-333.7" font-family="Helvetica,sans-Serif" font-size="9.00" fill="#555555">External blockers</text>
</g>
<g id="clust4" class="cluster">
<title>cluster_unresolved</title>
<path fill="#fff7f7" stroke="#cc3333" stroke-dasharray="5,2" d="M10655,-287.3C10655,-287.3 10887,-287.3 10887,-287.3 10893,-287.3 10899,-293.3 10899,-299.3 10899,-299.3 10899,-334.25 10899,-334.25 10899,-340.25 10893,-346.25 10887,-346.25 10887,-346.25 10655,-346.25 10655,-346.25 10649,-346.25 10643,-340.25 10643,-334.25 10643,-334.25 10643,-299.3 10643,-299.3 10643,-293.3 10649,-287.3 10655,-287.3"/>
<text xml:space="preserve" text-anchor="middle" x="10699.75" y="-333.7" font-family="Helvetica,sans-Serif" font-size="9.00" fill="#555555">Unresolved internal refs</text>
</g>
<g id="clust5" class="cluster">
<title>cluster_legend</title>
<path fill="none" stroke="#dddddd" d="M10919,-8C10919,-8 11011,-8 11011,-8 11017,-8 11023,-14 11023,-20 11023,-20 11023,-333.5 11023,-333.5 11023,-339.5 11017,-345.5 11011,-345.5 11011,-345.5 10919,-345.5 10919,-345.5 10913,-345.5 10907,-339.5 10907,-333.5 10907,-333.5 10907,-20 10907,-20 10907,-14 10913,-8 10919,-8"/>
<text xml:space="preserve" text-anchor="middle" x="10928.5" y="-333.9" font-family="Helvetica,sans-Serif" font-size="8.00" fill="#aaaaaa">Legend</text>
</g>
<!-- bad_code_CORE_test_runner_docker_daemon_hard_failure -->
<g id="node1" class="node">
<title>bad_code_CORE_test_runner_docker_daemon_hard_failure</title>
<path fill="#f6b3b3" stroke="black" stroke-width="2" d="M203.92,-320.5C203.92,-320.5 24.08,-320.5 24.08,-320.5 19.88,-320.5 15.67,-316.3 15.67,-312.1 15.67,-312.1 15.67,-303.7 15.67,-303.7 15.67,-299.5 19.88,-295.3 24.08,-295.3 24.08,-295.3 203.92,-295.3 203.92,-295.3 208.12,-295.3 212.32,-299.5 212.32,-303.7 212.32,-303.7 212.32,-312.1 212.32,-312.1 212.32,-316.3 208.12,-320.5 203.92,-320.5"/>
<text xml:space="preserve" text-anchor="middle" x="114" y="-304.8" font-family="Helvetica,sans-Serif" font-size="8.00">CORE&#45;test&#45;runner&#45;docker&#45;daemon&#45;hard&#45;failure &#45; S</text>
</g>
<!-- cool_ideas_bounded_neighborhood_for_references -->
<g id="node2" class="node">
<title>cool_ideas_bounded_neighborhood_for_references</title>
<path fill="#d4e8f7" stroke="black" d="M393.17,-320.5C393.17,-320.5 244.83,-320.5 244.83,-320.5 240.63,-320.5 236.43,-316.3 236.43,-312.1 236.43,-312.1 236.43,-303.7 236.43,-303.7 236.43,-299.5 240.63,-295.3 244.83,-295.3 244.83,-295.3 393.17,-295.3 393.17,-295.3 397.38,-295.3 401.57,-299.5 401.57,-303.7 401.57,-303.7 401.57,-312.1 401.57,-312.1 401.57,-316.3 397.38,-320.5 393.17,-320.5"/>
<text xml:space="preserve" text-anchor="middle" x="319" y="-304.8" font-family="Helvetica,sans-Serif" font-size="8.00">bounded&#45;neighborhood&#45;for&#45;references &#45; S</text>
</g>
<!-- cool_ideas_CI_001_causal_collapse_visualizer -->
<g id="node3" class="node">
<title>cool_ideas_CI_001_causal_collapse_visualizer</title>
<path fill="#d4e8f7" stroke="black" d="M7209.3,-247.05C7209.3,-247.05 7082.7,-247.05 7082.7,-247.05 7078.5,-247.05 7074.3,-242.85 7074.3,-238.65 7074.3,-238.65 7074.3,-230.25 7074.3,-230.25 7074.3,-226.05 7078.5,-221.85 7082.7,-221.85 7082.7,-221.85 7209.3,-221.85 7209.3,-221.85 7213.5,-221.85 7217.7,-226.05 7217.7,-230.25 7217.7,-230.25 7217.7,-238.65 7217.7,-238.65 7217.7,-242.85 7213.5,-247.05 7209.3,-247.05"/>
<text xml:space="preserve" text-anchor="middle" x="7146" y="-231.35" font-family="Helvetica,sans-Serif" font-size="8.00">CI&#45;001&#45;causal&#45;collapse&#45;visualizer &#45; L</text>
</g>
<!-- cool_ideas_CI_002_deterministic_scenario_replay -->
<g id="node4" class="node">
<title>cool_ideas_CI_002_deterministic_scenario_replay</title>
<path fill="#d4e8f7" stroke="black" d="M563.68,-320.5C563.68,-320.5 424.33,-320.5 424.33,-320.5 420.12,-320.5 415.93,-316.3 415.93,-312.1 415.93,-312.1 415.93,-303.7 415.93,-303.7 415.93,-299.5 420.12,-295.3 424.33,-295.3 424.33,-295.3 563.68,-295.3 563.68,-295.3 567.88,-295.3 572.08,-299.5 572.08,-303.7 572.08,-303.7 572.08,-312.1 572.08,-312.1 572.08,-316.3 567.88,-320.5 563.68,-320.5"/>
<text xml:space="preserve" text-anchor="middle" x="494" y="-304.8" font-family="Helvetica,sans-Serif" font-size="8.00">CI&#45;002&#45;deterministic&#45;scenario&#45;replay &#45; L</text>
</g>
<!-- cool_ideas_CI_003_mcp_native_diff_protocol -->
<g id="node5" class="node">
<title>cool_ideas_CI_003_mcp_native_diff_protocol</title>
<path fill="#d4e8f7" stroke="black" d="M717.8,-320.5C717.8,-320.5 594.2,-320.5 594.2,-320.5 590,-320.5 585.8,-316.3 585.8,-312.1 585.8,-312.1 585.8,-303.7 585.8,-303.7 585.8,-299.5 590,-295.3 594.2,-295.3 594.2,-295.3 717.8,-295.3 717.8,-295.3 722,-295.3 726.2,-299.5 726.2,-303.7 726.2,-303.7 726.2,-312.1 726.2,-312.1 726.2,-316.3 722,-320.5 717.8,-320.5"/>
<text xml:space="preserve" text-anchor="middle" x="656" y="-304.8" font-family="Helvetica,sans-Serif" font-size="8.00">CI&#45;003&#45;mcp&#45;native&#45;diff&#45;protocol &#45; M</text>
</g>
<!-- cool_ideas_CLEAN_CODE_parallel_agent_merge_shared_file_loss -->
<g id="node6" class="node">
<title>cool_ideas_CLEAN_CODE_parallel_agent_merge_shared_file_loss</title>
<path fill="#d4e8f7" stroke="black" d="M949.05,-320.5C949.05,-320.5 748.95,-320.5 748.95,-320.5 744.75,-320.5 740.55,-316.3 740.55,-312.1 740.55,-312.1 740.55,-303.7 740.55,-303.7 740.55,-299.5 744.75,-295.3 748.95,-295.3 748.95,-295.3 949.05,-295.3 949.05,-295.3 953.25,-295.3 957.45,-299.5 957.45,-303.7 957.45,-303.7 957.45,-312.1 957.45,-312.1 957.45,-316.3 953.25,-320.5 949.05,-320.5"/>
<text xml:space="preserve" text-anchor="middle" x="849" y="-304.8" font-family="Helvetica,sans-Serif" font-size="8.00">CLEAN&#45;CODE&#45;parallel&#45;agent&#45;merge&#45;shared&#45;file&#45;loss &#45; M</text>
</g>
<!-- cool_ideas_CORE_agent_handoff_protocol -->
<g id="node7" class="node">
<title>cool_ideas_CORE_agent_handoff_protocol</title>
<path fill="#d4e8f7" stroke="black" d="M1099.92,-320.5C1099.92,-320.5 980.07,-320.5 980.07,-320.5 975.88,-320.5 971.67,-316.3 971.67,-312.1 971.67,-312.1 971.67,-303.7 971.67,-303.7 971.67,-299.5 975.88,-295.3 980.07,-295.3 980.07,-295.3 1099.92,-295.3 1099.92,-295.3 1104.12,-295.3 1108.33,-299.5 1108.33,-303.7 1108.33,-303.7 1108.33,-312.1 1108.33,-312.1 1108.33,-316.3 1104.12,-320.5 1099.92,-320.5"/>
<text xml:space="preserve" text-anchor="middle" x="1040" y="-304.8" font-family="Helvetica,sans-Serif" font-size="8.00">CORE&#45;agent&#45;handoff&#45;protocol &#45; M</text>
</g>
<!-- cool_ideas_CORE_auto_focus -->
<g id="node8" class="node">
<title>cool_ideas_CORE_auto_focus</title>
<path fill="#d4e8f7" stroke="black" d="M1203.67,-320.5C1203.67,-320.5 1130.33,-320.5 1130.33,-320.5 1126.12,-320.5 1121.92,-316.3 1121.92,-312.1 1121.92,-312.1 1121.92,-303.7 1121.92,-303.7 1121.92,-299.5 1126.12,-295.3 1130.33,-295.3 1130.33,-295.3 1203.67,-295.3 1203.67,-295.3 1207.88,-295.3 1212.08,-299.5 1212.08,-303.7 1212.08,-303.7 1212.08,-312.1 1212.08,-312.1 1212.08,-316.3 1207.88,-320.5 1203.67,-320.5"/>
<text xml:space="preserve" text-anchor="middle" x="1167" y="-304.8" font-family="Helvetica,sans-Serif" font-size="8.00">CORE&#45;auto&#45;focus &#45; L</text>
</g>
<!-- cool_ideas_CORE_capture_range -->
<g id="node9" class="node">
<title>cool_ideas_CORE_capture_range</title>
<path fill="#d4e8f7" stroke="black" d="M1321.8,-320.5C1321.8,-320.5 1234.2,-320.5 1234.2,-320.5 1230,-320.5 1225.8,-316.3 1225.8,-312.1 1225.8,-312.1 1225.8,-303.7 1225.8,-303.7 1225.8,-299.5 1230,-295.3 1234.2,-295.3 1234.2,-295.3 1321.8,-295.3 1321.8,-295.3 1326,-295.3 1330.2,-299.5 1330.2,-303.7 1330.2,-303.7 1330.2,-312.1 1330.2,-312.1 1330.2,-316.3 1326,-320.5 1321.8,-320.5"/>
<text xml:space="preserve" text-anchor="middle" x="1278" y="-304.8" font-family="Helvetica,sans-Serif" font-size="8.00">CORE&#45;capture&#45;range &#45; S</text>
</g>
<!-- cool_ideas_CORE_constructor_in_disguise_lint -->
<g id="node10" class="node">
<title>cool_ideas_CORE_constructor_in_disguise_lint</title>
<path fill="#d4e8f7" stroke="black" d="M1483.55,-320.5C1483.55,-320.5 1352.45,-320.5 1352.45,-320.5 1348.25,-320.5 1344.05,-316.3 1344.05,-312.1 1344.05,-312.1 1344.05,-303.7 1344.05,-303.7 1344.05,-299.5 1348.25,-295.3 1352.45,-295.3 1352.45,-295.3 1483.55,-295.3 1483.55,-295.3 1487.75,-295.3 1491.95,-299.5 1491.95,-303.7 1491.95,-303.7 1491.95,-312.1 1491.95,-312.1 1491.95,-316.3 1487.75,-320.5 1483.55,-320.5"/>
<text xml:space="preserve" text-anchor="middle" x="1418" y="-304.8" font-family="Helvetica,sans-Serif" font-size="8.00">CORE&#45;constructor&#45;in&#45;disguise&#45;lint &#45; M</text>
</g>
<!-- cool_ideas_CORE_context_budget_forecasting -->
<g id="node11" class="node">
<title>cool_ideas_CORE_context_budget_forecasting</title>
<path fill="#d4e8f7" stroke="black" d="M1647.67,-320.5C1647.67,-320.5 1514.33,-320.5 1514.33,-320.5 1510.12,-320.5 1505.92,-316.3 1505.92,-312.1 1505.92,-312.1 1505.92,-303.7 1505.92,-303.7 1505.92,-299.5 1510.12,-295.3 1514.33,-295.3 1514.33,-295.3 1647.67,-295.3 1647.67,-295.3 1651.88,-295.3 1656.08,-299.5 1656.08,-303.7 1656.08,-303.7 1656.08,-312.1 1656.08,-312.1 1656.08,-316.3 1651.88,-320.5 1647.67,-320.5"/>
<text xml:space="preserve" text-anchor="middle" x="1581" y="-304.8" font-family="Helvetica,sans-Serif" font-size="8.00">CORE&#45;context&#45;budget&#45;forecasting &#45; M</text>
</g>
<!-- cool_ideas_CORE_conversation_primer -->
<g id="node12" class="node">
<title>cool_ideas_CORE_conversation_primer</title>
<path fill="#d4e8f7" stroke="black" d="M1787.67,-320.5C1787.67,-320.5 1678.33,-320.5 1678.33,-320.5 1674.12,-320.5 1669.92,-316.3 1669.92,-312.1 1669.92,-312.1 1669.92,-303.7 1669.92,-303.7 1669.92,-299.5 1674.12,-295.3 1678.33,-295.3 1678.33,-295.3 1787.67,-295.3 1787.67,-295.3 1791.88,-295.3 1796.08,-299.5 1796.08,-303.7 1796.08,-303.7 1796.08,-312.1 1796.08,-312.1 1796.08,-316.3 1791.88,-320.5 1787.67,-320.5"/>
<text xml:space="preserve" text-anchor="middle" x="1733" y="-304.8" font-family="Helvetica,sans-Serif" font-size="8.00">CORE&#45;conversation&#45;primer &#45; M</text>
</g>
<!-- cool_ideas_CORE_cross_session_resume -->
<g id="node13" class="node">
<title>cool_ideas_CORE_cross_session_resume</title>
<path fill="#d4e8f7" stroke="black" d="M1933.3,-320.5C1933.3,-320.5 1818.7,-320.5 1818.7,-320.5 1814.5,-320.5 1810.3,-316.3 1810.3,-312.1 1810.3,-312.1 1810.3,-303.7 1810.3,-303.7 1810.3,-299.5 1814.5,-295.3 1818.7,-295.3 1818.7,-295.3 1933.3,-295.3 1933.3,-295.3 1937.5,-295.3 1941.7,-299.5 1941.7,-303.7 1941.7,-303.7 1941.7,-312.1 1941.7,-312.1 1941.7,-316.3 1937.5,-320.5 1933.3,-320.5"/>
<text xml:space="preserve" text-anchor="middle" x="1876" y="-304.8" font-family="Helvetica,sans-Serif" font-size="8.00">CORE&#45;cross&#45;session&#45;resume &#45; S</text>
</g>
<!-- cool_ideas_CORE_graft_as_teacher -->
<g id="node14" class="node">
<title>cool_ideas_CORE_graft_as_teacher</title>
<path fill="#d4e8f7" stroke="black" d="M2058.17,-320.5C2058.17,-320.5 1963.83,-320.5 1963.83,-320.5 1959.62,-320.5 1955.42,-316.3 1955.42,-312.1 1955.42,-312.1 1955.42,-303.7 1955.42,-303.7 1955.42,-299.5 1959.62,-295.3 1963.83,-295.3 1963.83,-295.3 2058.17,-295.3 2058.17,-295.3 2062.38,-295.3 2066.57,-299.5 2066.57,-303.7 2066.57,-303.7 2066.57,-312.1 2066.57,-312.1 2066.57,-316.3 2062.38,-320.5 2058.17,-320.5"/>
<text xml:space="preserve" text-anchor="middle" x="2011" y="-304.8" font-family="Helvetica,sans-Serif" font-size="8.00">CORE&#45;graft&#45;as&#45;teacher &#45; S</text>
</g>
<!-- cool_ideas_CORE_graft_teach_learning_receipts -->
<g id="node15" class="node">
<title>cool_ideas_CORE_graft_teach_learning_receipts</title>
<path fill="#d4e8f7" stroke="black" d="M2226.92,-320.5C2226.92,-320.5 2089.08,-320.5 2089.08,-320.5 2084.88,-320.5 2080.68,-316.3 2080.68,-312.1 2080.68,-312.1 2080.68,-303.7 2080.68,-303.7 2080.68,-299.5 2084.88,-295.3 2089.08,-295.3 2089.08,-295.3 2226.92,-295.3 2226.92,-295.3 2231.12,-295.3 2235.32,-299.5 2235.32,-303.7 2235.32,-303.7 2235.32,-312.1 2235.32,-312.1 2235.32,-316.3 2231.12,-320.5 2226.92,-320.5"/>
<text xml:space="preserve" text-anchor="middle" x="2158" y="-304.8" font-family="Helvetica,sans-Serif" font-size="8.00">CORE&#45;graft&#45;teach&#45;learning&#45;receipts &#45; S</text>
</g>
<!-- cool_ideas_CORE_horizon_of_readability -->
<g id="node16" class="node">
<title>cool_ideas_CORE_horizon_of_readability</title>
<path fill="#d4e8f7" stroke="black" d="M2370.55,-320.5C2370.55,-320.5 2257.45,-320.5 2257.45,-320.5 2253.25,-320.5 2249.05,-316.3 2249.05,-312.1 2249.05,-312.1 2249.05,-303.7 2249.05,-303.7 2249.05,-299.5 2253.25,-295.3 2257.45,-295.3 2257.45,-295.3 2370.55,-295.3 2370.55,-295.3 2374.75,-295.3 2378.95,-299.5 2378.95,-303.7 2378.95,-303.7 2378.95,-312.1 2378.95,-312.1 2378.95,-316.3 2374.75,-320.5 2370.55,-320.5"/>
<text xml:space="preserve" text-anchor="middle" x="2314" y="-304.8" font-family="Helvetica,sans-Serif" font-size="8.00">CORE&#45;horizon&#45;of&#45;readability &#45; M</text>
</g>
<!-- cool_ideas_CORE_lagrangian_policy -->
<g id="node17" class="node">
<title>cool_ideas_CORE_lagrangian_policy</title>
<path fill="#d4e8f7" stroke="black" d="M2502.55,-320.5C2502.55,-320.5 2401.45,-320.5 2401.45,-320.5 2397.25,-320.5 2393.05,-316.3 2393.05,-312.1 2393.05,-312.1 2393.05,-303.7 2393.05,-303.7 2393.05,-299.5 2397.25,-295.3 2401.45,-295.3 2401.45,-295.3 2502.55,-295.3 2502.55,-295.3 2506.75,-295.3 2510.95,-299.5 2510.95,-303.7 2510.95,-303.7 2510.95,-312.1 2510.95,-312.1 2510.95,-316.3 2506.75,-320.5 2502.55,-320.5"/>
<text xml:space="preserve" text-anchor="middle" x="2452" y="-304.8" font-family="Helvetica,sans-Serif" font-size="8.00">CORE&#45;lagrangian&#45;policy &#45; XL</text>
</g>
<!-- cool_ideas_CORE_migrate_to_slice_first_reads -->
<g id="node18" class="node">
<title>cool_ideas_CORE_migrate_to_slice_first_reads</title>
<path fill="#d4e8f7" stroke="black" d="M10042.8,-247.05C10042.8,-247.05 9925.2,-247.05 9925.2,-247.05 9921,-247.05 9916.8,-242.85 9916.8,-238.65 9916.8,-238.65 9916.8,-230.25 9916.8,-230.25 9916.8,-226.05 9921,-221.85 9925.2,-221.85 9925.2,-221.85 10042.8,-221.85 10042.8,-221.85 10047,-221.85 10051.2,-226.05 10051.2,-230.25 10051.2,-230.25 10051.2,-238.65 10051.2,-238.65 10051.2,-242.85 10047,-247.05 10042.8,-247.05"/>
<text xml:space="preserve" text-anchor="middle" x="9984" y="-231.35" font-family="Helvetica,sans-Serif" font-size="8.00">CORE&#45;migrate&#45;to&#45;slice&#45;first&#45;reads</text>
</g>
<!-- cool_ideas_CORE_multi_agent_conflict_detection -->
<g id="node19" class="node">
<title>cool_ideas_CORE_multi_agent_conflict_detection</title>
<path fill="#d4e8f7" stroke="black" d="M2670.92,-320.5C2670.92,-320.5 2533.08,-320.5 2533.08,-320.5 2528.88,-320.5 2524.68,-316.3 2524.68,-312.1 2524.68,-312.1 2524.68,-303.7 2524.68,-303.7 2524.68,-299.5 2528.88,-295.3 2533.08,-295.3 2533.08,-295.3 2670.92,-295.3 2670.92,-295.3 2675.12,-295.3 2679.32,-299.5 2679.32,-303.7 2679.32,-303.7 2679.32,-312.1 2679.32,-312.1 2679.32,-316.3 2675.12,-320.5 2670.92,-320.5"/>
<text xml:space="preserve" text-anchor="middle" x="2602" y="-304.8" font-family="Helvetica,sans-Serif" font-size="8.00">CORE&#45;multi&#45;agent&#45;conflict&#45;detection &#45; L</text>
</g>
<!-- cool_ideas_CORE_policy_playground -->
<g id="node20" class="node">
<title>cool_ideas_CORE_policy_playground</title>
<path fill="#d4e8f7" stroke="black" d="M2800.42,-320.5C2800.42,-320.5 2701.58,-320.5 2701.58,-320.5 2697.38,-320.5 2693.18,-316.3 2693.18,-312.1 2693.18,-312.1 2693.18,-303.7 2693.18,-303.7 2693.18,-299.5 2697.38,-295.3 2701.58,-295.3 2701.58,-295.3 2800.42,-295.3 2800.42,-295.3 2804.62,-295.3 2808.82,-299.5 2808.82,-303.7 2808.82,-303.7 2808.82,-312.1 2808.82,-312.1 2808.82,-316.3 2804.62,-320.5 2800.42,-320.5"/>
<text xml:space="preserve" text-anchor="middle" x="2751" y="-304.8" font-family="Helvetica,sans-Serif" font-size="8.00">CORE&#45;policy&#45;playground &#45; S</text>
</g>
<!-- cool_ideas_CORE_policy_profiles -->
<g id="node21" class="node">
<title>cool_ideas_CORE_policy_profiles</title>
<path fill="#d4e8f7" stroke="black" d="M2917.05,-320.5C2917.05,-320.5 2830.95,-320.5 2830.95,-320.5 2826.75,-320.5 2822.55,-316.3 2822.55,-312.1 2822.55,-312.1 2822.55,-303.7 2822.55,-303.7 2822.55,-299.5 2826.75,-295.3 2830.95,-295.3 2830.95,-295.3 2917.05,-295.3 2917.05,-295.3 2921.25,-295.3 2925.45,-299.5 2925.45,-303.7 2925.45,-303.7 2925.45,-312.1 2925.45,-312.1 2925.45,-316.3 2921.25,-320.5 2917.05,-320.5"/>
<text xml:space="preserve" text-anchor="middle" x="2874" y="-304.8" font-family="Helvetica,sans-Serif" font-size="8.00">CORE&#45;policy&#45;profiles &#45; M</text>
</g>
<!-- cool_ideas_CORE_pr_review_structural_summary -->
<g id="node22" class="node">
<title>cool_ideas_CORE_pr_review_structural_summary</title>
<path fill="#d4e8f7" stroke="black" d="M3091.92,-320.5C3091.92,-320.5 2948.08,-320.5 2948.08,-320.5 2943.88,-320.5 2939.68,-316.3 2939.68,-312.1 2939.68,-312.1 2939.68,-303.7 2939.68,-303.7 2939.68,-299.5 2943.88,-295.3 2948.08,-295.3 2948.08,-295.3 3091.92,-295.3 3091.92,-295.3 3096.12,-295.3 3100.32,-299.5 3100.32,-303.7 3100.32,-303.7 3100.32,-312.1 3100.32,-312.1 3100.32,-316.3 3096.12,-320.5 3091.92,-320.5"/>
<text xml:space="preserve" text-anchor="middle" x="3020" y="-304.8" font-family="Helvetica,sans-Serif" font-size="8.00">CORE&#45;pr&#45;review&#45;structural&#45;summary &#45; M</text>
</g>
<!-- cool_ideas_CORE_self_tuning_governor -->
<g id="node23" class="node">
<title>cool_ideas_CORE_self_tuning_governor</title>
<path fill="#d4e8f7" stroke="black" d="M3233.05,-320.5C3233.05,-320.5 3122.95,-320.5 3122.95,-320.5 3118.75,-320.5 3114.55,-316.3 3114.55,-312.1 3114.55,-312.1 3114.55,-303.7 3114.55,-303.7 3114.55,-299.5 3118.75,-295.3 3122.95,-295.3 3122.95,-295.3 3233.05,-295.3 3233.05,-295.3 3237.25,-295.3 3241.45,-299.5 3241.45,-303.7 3241.45,-303.7 3241.45,-312.1 3241.45,-312.1 3241.45,-316.3 3237.25,-320.5 3233.05,-320.5"/>
<text xml:space="preserve" text-anchor="middle" x="3178" y="-304.8" font-family="Helvetica,sans-Serif" font-size="8.00">CORE&#45;self&#45;tuning&#45;governor &#45; M</text>
</g>
<!-- cool_ideas_CORE_session_knowledge_map -->
<g id="node24" class="node">
<title>cool_ideas_CORE_session_knowledge_map</title>
<path fill="#d4e8f7" stroke="black" d="M3386.42,-320.5C3386.42,-320.5 3263.58,-320.5 3263.58,-320.5 3259.38,-320.5 3255.18,-316.3 3255.18,-312.1 3255.18,-312.1 3255.18,-303.7 3255.18,-303.7 3255.18,-299.5 3259.38,-295.3 3263.58,-295.3 3263.58,-295.3 3386.42,-295.3 3386.42,-295.3 3390.62,-295.3 3394.82,-299.5 3394.82,-303.7 3394.82,-303.7 3394.82,-312.1 3394.82,-312.1 3394.82,-316.3 3390.62,-320.5 3386.42,-320.5"/>
<text xml:space="preserve" text-anchor="middle" x="3325" y="-304.8" font-family="Helvetica,sans-Serif" font-size="8.00">CORE&#45;session&#45;knowledge&#45;map &#45; S</text>
</g>
<!-- cool_ideas_CORE_speculative_read_cost -->
<g id="node25" class="node">
<title>cool_ideas_CORE_speculative_read_cost</title>
<path fill="#d4e8f7" stroke="black" d="M3529.17,-320.5C3529.17,-320.5 3416.83,-320.5 3416.83,-320.5 3412.62,-320.5 3408.43,-316.3 3408.43,-312.1 3408.43,-312.1 3408.43,-303.7 3408.43,-303.7 3408.43,-299.5 3412.62,-295.3 3416.83,-295.3 3416.83,-295.3 3529.17,-295.3 3529.17,-295.3 3533.38,-295.3 3537.57,-299.5 3537.57,-303.7 3537.57,-303.7 3537.57,-312.1 3537.57,-312.1 3537.57,-316.3 3533.38,-320.5 3529.17,-320.5"/>
<text xml:space="preserve" text-anchor="middle" x="3473" y="-304.8" font-family="Helvetica,sans-Serif" font-size="8.00">CORE&#45;speculative&#45;read&#45;cost &#45; S</text>
</g>
<!-- cool_ideas_CORE_structural_session_replay -->
<g id="node26" class="node">
<title>cool_ideas_CORE_structural_session_replay</title>
<path fill="#d4e8f7" stroke="black" d="M3685.55,-320.5C3685.55,-320.5 3560.45,-320.5 3560.45,-320.5 3556.25,-320.5 3552.05,-316.3 3552.05,-312.1 3552.05,-312.1 3552.05,-303.7 3552.05,-303.7 3552.05,-299.5 3556.25,-295.3 3560.45,-295.3 3560.45,-295.3 3685.55,-295.3 3685.55,-295.3 3689.75,-295.3 3693.95,-299.5 3693.95,-303.7 3693.95,-303.7 3693.95,-312.1 3693.95,-312.1 3693.95,-316.3 3689.75,-320.5 3685.55,-320.5"/>
<text xml:space="preserve" text-anchor="middle" x="3623" y="-304.8" font-family="Helvetica,sans-Serif" font-size="8.00">CORE&#45;structural&#45;session&#45;replay &#45; M</text>
</g>
<!-- cool_ideas_CORE_structural_test_coverage_map -->
<g id="node27" class="node">
<title>cool_ideas_CORE_structural_test_coverage_map</title>
<path fill="#d4e8f7" stroke="black" d="M3857.8,-320.5C3857.8,-320.5 3716.2,-320.5 3716.2,-320.5 3712,-320.5 3707.8,-316.3 3707.8,-312.1 3707.8,-312.1 3707.8,-303.7 3707.8,-303.7 3707.8,-299.5 3712,-295.3 3716.2,-295.3 3716.2,-295.3 3857.8,-295.3 3857.8,-295.3 3862,-295.3 3866.2,-299.5 3866.2,-303.7 3866.2,-303.7 3866.2,-312.1 3866.2,-312.1 3866.2,-316.3 3862,-320.5 3857.8,-320.5"/>
<text xml:space="preserve" text-anchor="middle" x="3787" y="-304.8" font-family="Helvetica,sans-Serif" font-size="8.00">CORE&#45;structural&#45;test&#45;coverage&#45;map &#45; M</text>
</g>
<!-- cool_ideas_CORE_wire_primitives_into_runtime -->
<g id="node28" class="node">
<title>cool_ideas_CORE_wire_primitives_into_runtime</title>
<path fill="#d4e8f7" stroke="black" d="M4023.42,-320.5C4023.42,-320.5 3888.58,-320.5 3888.58,-320.5 3884.38,-320.5 3880.18,-316.3 3880.18,-312.1 3880.18,-312.1 3880.18,-303.7 3880.18,-303.7 3880.18,-299.5 3884.38,-295.3 3888.58,-295.3 3888.58,-295.3 4023.42,-295.3 4023.42,-295.3 4027.62,-295.3 4031.82,-299.5 4031.82,-303.7 4031.82,-303.7 4031.82,-312.1 4031.82,-312.1 4031.82,-316.3 4027.62,-320.5 4023.42,-320.5"/>
<text xml:space="preserve" text-anchor="middle" x="3956" y="-304.8" font-family="Helvetica,sans-Serif" font-size="8.00">CORE&#45;wire&#45;primitives&#45;into&#45;runtime &#45; M</text>
</g>
<!-- cool_ideas_monitor_tick_ceiling_tracking -->
<g id="node29" class="node">
<title>cool_ideas_monitor_tick_ceiling_tracking</title>
<path fill="#d4e8f7" stroke="black" d="M4161.55,-320.5C4161.55,-320.5 4054.45,-320.5 4054.45,-320.5 4050.25,-320.5 4046.05,-316.3 4046.05,-312.1 4046.05,-312.1 4046.05,-303.7 4046.05,-303.7 4046.05,-299.5 4050.25,-295.3 4054.45,-295.3 4054.45,-295.3 4161.55,-295.3 4161.55,-295.3 4165.75,-295.3 4169.95,-299.5 4169.95,-303.7 4169.95,-303.7 4169.95,-312.1 4169.95,-312.1 4169.95,-316.3 4165.75,-320.5 4161.55,-320.5"/>
<text xml:space="preserve" text-anchor="middle" x="4108" y="-304.8" font-family="Helvetica,sans-Serif" font-size="8.00">monitor&#45;tick&#45;ceiling&#45;tracking &#45; S</text>
</g>
<!-- cool_ideas_WARP_background_indexing -->
<g id="node47" class="node">
<title>cool_ideas_WARP_background_indexing</title>
<path fill="#d4e8f7" stroke="black" d="M4164.55,-247.05C4164.55,-247.05 4051.45,-247.05 4051.45,-247.05 4047.25,-247.05 4043.05,-242.85 4043.05,-238.65 4043.05,-238.65 4043.05,-230.25 4043.05,-230.25 4043.05,-226.05 4047.25,-221.85 4051.45,-221.85 4051.45,-221.85 4164.55,-221.85 4164.55,-221.85 4168.75,-221.85 4172.95,-226.05 4172.95,-230.25 4172.95,-230.25 4172.95,-238.65 4172.95,-238.65 4172.95,-242.85 4168.75,-247.05 4164.55,-247.05"/>
<text xml:space="preserve" text-anchor="middle" x="4108" y="-231.35" font-family="Helvetica,sans-Serif" font-size="8.00">WARP&#45;background&#45;indexing &#45; M</text>
</g>
<!-- cool_ideas_monitor_tick_ceiling_tracking&#45;&gt;cool_ideas_WARP_background_indexing -->
<g id="edge1" class="edge">
<title>cool_ideas_monitor_tick_ceiling_tracking&#45;&gt;cool_ideas_WARP_background_indexing</title>
<path fill="none" stroke="#666666" d="M4108,-295.1C4108,-283.9 4108,-266.88 4108,-253.88"/>
<polygon fill="#666666" stroke="#666666" points="4109.75,-254.02 4108,-249.02 4106.25,-254.02 4109.75,-254.02"/>
<text xml:space="preserve" text-anchor="middle" x="4139.5" y="-268.65" font-family="Helvetica,sans-Serif" font-size="7.00">blocked_by/blocking</text>
</g>
<!-- cool_ideas_SURFACE_active_causal_workspace_status -->
<g id="node30" class="node">
<title>cool_ideas_SURFACE_active_causal_workspace_status</title>
<path fill="#d4e8f7" stroke="black" d="M4356.05,-320.5C4356.05,-320.5 4191.95,-320.5 4191.95,-320.5 4187.75,-320.5 4183.55,-316.3 4183.55,-312.1 4183.55,-312.1 4183.55,-303.7 4183.55,-303.7 4183.55,-299.5 4187.75,-295.3 4191.95,-295.3 4191.95,-295.3 4356.05,-295.3 4356.05,-295.3 4360.25,-295.3 4364.45,-299.5 4364.45,-303.7 4364.45,-303.7 4364.45,-312.1 4364.45,-312.1 4364.45,-316.3 4360.25,-320.5 4356.05,-320.5"/>
<text xml:space="preserve" text-anchor="middle" x="4274" y="-304.8" font-family="Helvetica,sans-Serif" font-size="8.00">SURFACE&#45;active&#45;causal&#45;workspace&#45;status &#45; M</text>
</g>
<!-- cool_ideas_SURFACE_ide_native_graft_integration -->
<g id="node36" class="node">
<title>cool_ideas_SURFACE_ide_native_graft_integration</title>
<path fill="#d4e8f7" stroke="black" d="M4349.3,-247.05C4349.3,-247.05 4198.7,-247.05 4198.7,-247.05 4194.5,-247.05 4190.3,-242.85 4190.3,-238.65 4190.3,-238.65 4190.3,-230.25 4190.3,-230.25 4190.3,-226.05 4194.5,-221.85 4198.7,-221.85 4198.7,-221.85 4349.3,-221.85 4349.3,-221.85 4353.5,-221.85 4357.7,-226.05 4357.7,-230.25 4357.7,-230.25 4357.7,-238.65 4357.7,-238.65 4357.7,-242.85 4353.5,-247.05 4349.3,-247.05"/>
<text xml:space="preserve" text-anchor="middle" x="4274" y="-231.35" font-family="Helvetica,sans-Serif" font-size="8.00">SURFACE&#45;ide&#45;native&#45;graft&#45;integration &#45; XL</text>
</g>
<!-- cool_ideas_SURFACE_active_causal_workspace_status&#45;&gt;cool_ideas_SURFACE_ide_native_graft_integration -->
<g id="edge2" class="edge">
<title>cool_ideas_SURFACE_active_causal_workspace_status&#45;&gt;cool_ideas_SURFACE_ide_native_graft_integration</title>
<path fill="none" stroke="#666666" d="M4274,-295.1C4274,-283.9 4274,-266.88 4274,-253.88"/>
<polygon fill="#666666" stroke="#666666" points="4275.75,-254.02 4274,-249.02 4272.25,-254.02 4275.75,-254.02"/>
<text xml:space="preserve" text-anchor="middle" x="4305.5" y="-268.65" font-family="Helvetica,sans-Serif" font-size="7.00">blocked_by/blocking</text>
</g>
<!-- cool_ideas_SURFACE_attach_to_existing_causal_session -->
<g id="node31" class="node">
<title>cool_ideas_SURFACE_attach_to_existing_causal_session</title>
<path fill="#d4e8f7" stroke="black" d="M4555.3,-320.5C4555.3,-320.5 4386.7,-320.5 4386.7,-320.5 4382.5,-320.5 4378.3,-316.3 4378.3,-312.1 4378.3,-312.1 4378.3,-303.7 4378.3,-303.7 4378.3,-299.5 4382.5,-295.3 4386.7,-295.3 4386.7,-295.3 4555.3,-295.3 4555.3,-295.3 4559.5,-295.3 4563.7,-299.5 4563.7,-303.7 4563.7,-303.7 4563.7,-312.1 4563.7,-312.1 4563.7,-316.3 4559.5,-320.5 4555.3,-320.5"/>
<text xml:space="preserve" text-anchor="middle" x="4471" y="-304.8" font-family="Helvetica,sans-Serif" font-size="8.00">SURFACE&#45;attach&#45;to&#45;existing&#45;causal&#45;session &#45; M</text>
</g>
<!-- cool_ideas_SURFACE_bijou_daemon_control_plane_actions -->
<g id="node32" class="node">
<title>cool_ideas_SURFACE_bijou_daemon_control_plane_actions</title>
<path fill="#d4e8f7" stroke="black" d="M4763.43,-320.5C4763.43,-320.5 4586.57,-320.5 4586.57,-320.5 4582.38,-320.5 4578.18,-316.3 4578.18,-312.1 4578.18,-312.1 4578.18,-303.7 4578.18,-303.7 4578.18,-299.5 4582.38,-295.3 4586.57,-295.3 4586.57,-295.3 4763.43,-295.3 4763.43,-295.3 4767.62,-295.3 4771.82,-299.5 4771.82,-303.7 4771.82,-303.7 4771.82,-312.1 4771.82,-312.1 4771.82,-316.3 4767.62,-320.5 4763.43,-320.5"/>
<text xml:space="preserve" text-anchor="middle" x="4675" y="-304.8" font-family="Helvetica,sans-Serif" font-size="8.00">SURFACE&#45;bijou&#45;daemon&#45;control&#45;plane&#45;actions &#45; L</text>
</g>
<!-- cool_ideas_SURFACE_bijou_daemon_status_live_refresh -->
<g id="node33" class="node">
<title>cool_ideas_SURFACE_bijou_daemon_status_live_refresh</title>
<path fill="#d4e8f7" stroke="black" d="M4963.3,-320.5C4963.3,-320.5 4794.7,-320.5 4794.7,-320.5 4790.5,-320.5 4786.3,-316.3 4786.3,-312.1 4786.3,-312.1 4786.3,-303.7 4786.3,-303.7 4786.3,-299.5 4790.5,-295.3 4794.7,-295.3 4794.7,-295.3 4963.3,-295.3 4963.3,-295.3 4967.5,-295.3 4971.7,-299.5 4971.7,-303.7 4971.7,-303.7 4971.7,-312.1 4971.7,-312.1 4971.7,-316.3 4967.5,-320.5 4963.3,-320.5"/>
<text xml:space="preserve" text-anchor="middle" x="4879" y="-304.8" font-family="Helvetica,sans-Serif" font-size="8.00">SURFACE&#45;bijou&#45;daemon&#45;status&#45;live&#45;refresh &#45; M</text>
</g>
<!-- cool_ideas_SURFACE_git_graft_enhance_expanded_git_subcommands -->
<g id="node34" class="node">
<title>cool_ideas_SURFACE_git_graft_enhance_expanded_git_subcommands</title>
<path fill="#d4e8f7" stroke="black" d="M5198.3,-320.5C5198.3,-320.5 4993.7,-320.5 4993.7,-320.5 4989.5,-320.5 4985.3,-316.3 4985.3,-312.1 4985.3,-312.1 4985.3,-303.7 4985.3,-303.7 4985.3,-299.5 4989.5,-295.3 4993.7,-295.3 4993.7,-295.3 5198.3,-295.3 5198.3,-295.3 5202.5,-295.3 5206.7,-299.5 5206.7,-303.7 5206.7,-303.7 5206.7,-312.1 5206.7,-312.1 5206.7,-316.3 5202.5,-320.5 5198.3,-320.5"/>
<text xml:space="preserve" text-anchor="middle" x="5096" y="-304.8" font-family="Helvetica,sans-Serif" font-size="8.00">SURFACE&#45;git&#45;graft&#45;enhance&#45;expanded&#45;git&#45;subcommands</text>
</g>
<!-- cool_ideas_SURFACE_git_graft_enhance_provenance_hints -->
<g id="node35" class="node">
<title>cool_ideas_SURFACE_git_graft_enhance_provenance_hints</title>
<path fill="#d4e8f7" stroke="black" d="M5394.43,-320.5C5394.43,-320.5 5229.57,-320.5 5229.57,-320.5 5225.38,-320.5 5221.18,-316.3 5221.18,-312.1 5221.18,-312.1 5221.18,-303.7 5221.18,-303.7 5221.18,-299.5 5225.38,-295.3 5229.57,-295.3 5229.57,-295.3 5394.43,-295.3 5394.43,-295.3 5398.62,-295.3 5402.82,-299.5 5402.82,-303.7 5402.82,-303.7 5402.82,-312.1 5402.82,-312.1 5402.82,-316.3 5398.62,-320.5 5394.43,-320.5"/>
<text xml:space="preserve" text-anchor="middle" x="5312" y="-304.8" font-family="Helvetica,sans-Serif" font-size="8.00">SURFACE&#45;git&#45;graft&#45;enhance&#45;provenance&#45;hints</text>
</g>
<!-- cool_ideas_SURFACE_local_history_dag_render_mode_and_count_legend -->
<g id="node37" class="node">
<title>cool_ideas_SURFACE_local_history_dag_render_mode_and_count_legend</title>
<path fill="#d4e8f7" stroke="black" d="M5651.18,-320.5C5651.18,-320.5 5424.82,-320.5 5424.82,-320.5 5420.62,-320.5 5416.43,-316.3 5416.43,-312.1 5416.43,-312.1 5416.43,-303.7 5416.43,-303.7 5416.43,-299.5 5420.62,-295.3 5424.82,-295.3 5424.82,-295.3 5651.18,-295.3 5651.18,-295.3 5655.38,-295.3 5659.57,-299.5 5659.57,-303.7 5659.57,-303.7 5659.57,-312.1 5659.57,-312.1 5659.57,-316.3 5655.38,-320.5 5651.18,-320.5"/>
<text xml:space="preserve" text-anchor="middle" x="5538" y="-304.8" font-family="Helvetica,sans-Serif" font-size="8.00">SURFACE&#45;local&#45;history&#45;dag&#45;render&#45;mode&#45;and&#45;count&#45;legend &#45; S</text>
</g>
<!-- cool_ideas_SURFACE_non_codex_instruction_bootstrap_parity -->
<g id="node38" class="node">
<title>cool_ideas_SURFACE_non_codex_instruction_bootstrap_parity</title>
<path fill="#d4e8f7" stroke="black" d="M5870.43,-320.5C5870.43,-320.5 5681.57,-320.5 5681.57,-320.5 5677.38,-320.5 5673.18,-316.3 5673.18,-312.1 5673.18,-312.1 5673.18,-303.7 5673.18,-303.7 5673.18,-299.5 5677.38,-295.3 5681.57,-295.3 5681.57,-295.3 5870.43,-295.3 5870.43,-295.3 5874.62,-295.3 5878.82,-299.5 5878.82,-303.7 5878.82,-303.7 5878.82,-312.1 5878.82,-312.1 5878.82,-316.3 5874.62,-320.5 5870.43,-320.5"/>
<text xml:space="preserve" text-anchor="middle" x="5776" y="-304.8" font-family="Helvetica,sans-Serif" font-size="8.00">SURFACE&#45;non&#45;codex&#45;instruction&#45;bootstrap&#45;parity &#45; M</text>
</g>
<!-- cool_ideas_SURFACE_offer_rename_refactor -->
<g id="node39" class="node">
<title>cool_ideas_SURFACE_offer_rename_refactor</title>
<path fill="#d4e8f7" stroke="black" d="M6030.43,-320.5C6030.43,-320.5 5901.57,-320.5 5901.57,-320.5 5897.38,-320.5 5893.18,-316.3 5893.18,-312.1 5893.18,-312.1 5893.18,-303.7 5893.18,-303.7 5893.18,-299.5 5897.38,-295.3 5901.57,-295.3 5901.57,-295.3 6030.43,-295.3 6030.43,-295.3 6034.62,-295.3 6038.82,-299.5 6038.82,-303.7 6038.82,-303.7 6038.82,-312.1 6038.82,-312.1 6038.82,-316.3 6034.62,-320.5 6030.43,-320.5"/>
<text xml:space="preserve" text-anchor="middle" x="5966" y="-304.8" font-family="Helvetica,sans-Serif" font-size="8.00">SURFACE&#45;offer&#45;rename&#45;refactor &#45; L</text>
</g>
<!-- cool_ideas_SURFACE_pr_feedback_resolution_ledger -->
<g id="node40" class="node">
<title>cool_ideas_SURFACE_pr_feedback_resolution_ledger</title>
<path fill="#d4e8f7" stroke="black" d="M6220.43,-320.5C6220.43,-320.5 6061.57,-320.5 6061.57,-320.5 6057.38,-320.5 6053.18,-316.3 6053.18,-312.1 6053.18,-312.1 6053.18,-303.7 6053.18,-303.7 6053.18,-299.5 6057.38,-295.3 6061.57,-295.3 6061.57,-295.3 6220.43,-295.3 6220.43,-295.3 6224.62,-295.3 6228.82,-299.5 6228.82,-303.7 6228.82,-303.7 6228.82,-312.1 6228.82,-312.1 6228.82,-316.3 6224.62,-320.5 6220.43,-320.5"/>
<text xml:space="preserve" text-anchor="middle" x="6141" y="-304.8" font-family="Helvetica,sans-Serif" font-size="8.00">SURFACE&#45;pr&#45;feedback&#45;resolution&#45;ledger &#45; M</text>
</g>
<!-- cool_ideas_SURFACE_review_cooldown_status -->
<g id="node41" class="node">
<title>cool_ideas_SURFACE_review_cooldown_status</title>
<path fill="#d4e8f7" stroke="black" d="M6386.8,-320.5C6386.8,-320.5 6251.2,-320.5 6251.2,-320.5 6247,-320.5 6242.8,-316.3 6242.8,-312.1 6242.8,-312.1 6242.8,-303.7 6242.8,-303.7 6242.8,-299.5 6247,-295.3 6251.2,-295.3 6251.2,-295.3 6386.8,-295.3 6386.8,-295.3 6391,-295.3 6395.2,-299.5 6395.2,-303.7 6395.2,-303.7 6395.2,-312.1 6395.2,-312.1 6395.2,-316.3 6391,-320.5 6386.8,-320.5"/>
<text xml:space="preserve" text-anchor="middle" x="6319" y="-304.8" font-family="Helvetica,sans-Serif" font-size="8.00">SURFACE&#45;review&#45;cooldown&#45;status &#45; S</text>
</g>
<!-- cool_ideas_SURFACE_terminal_activity_browser_tui -->
<g id="node42" class="node">
<title>cool_ideas_SURFACE_terminal_activity_browser_tui</title>
<path fill="#d4e8f7" stroke="black" d="M6566.55,-320.5C6566.55,-320.5 6417.45,-320.5 6417.45,-320.5 6413.25,-320.5 6409.05,-316.3 6409.05,-312.1 6409.05,-312.1 6409.05,-303.7 6409.05,-303.7 6409.05,-299.5 6413.25,-295.3 6417.45,-295.3 6417.45,-295.3 6566.55,-295.3 6566.55,-295.3 6570.75,-295.3 6574.95,-299.5 6574.95,-303.7 6574.95,-303.7 6574.95,-312.1 6574.95,-312.1 6574.95,-316.3 6570.75,-320.5 6566.55,-320.5"/>
<text xml:space="preserve" text-anchor="middle" x="6492" y="-304.8" font-family="Helvetica,sans-Serif" font-size="8.00">SURFACE&#45;terminal&#45;activity&#45;browser&#45;tui &#45; L</text>
</g>
<!-- cool_ideas_traverse_plus_query_hydration_helper -->
<g id="node43" class="node">
<title>cool_ideas_traverse_plus_query_hydration_helper</title>
<path fill="#d4e8f7" stroke="black" d="M6738.8,-320.5C6738.8,-320.5 6597.2,-320.5 6597.2,-320.5 6593,-320.5 6588.8,-316.3 6588.8,-312.1 6588.8,-312.1 6588.8,-303.7 6588.8,-303.7 6588.8,-299.5 6593,-295.3 6597.2,-295.3 6597.2,-295.3 6738.8,-295.3 6738.8,-295.3 6743,-295.3 6747.2,-299.5 6747.2,-303.7 6747.2,-303.7 6747.2,-312.1 6747.2,-312.1 6747.2,-316.3 6743,-320.5 6738.8,-320.5"/>
<text xml:space="preserve" text-anchor="middle" x="6668" y="-304.8" font-family="Helvetica,sans-Serif" font-size="8.00">traverse&#45;plus&#45;query&#45;hydration&#45;helper &#45; S</text>
</g>
<!-- cool_ideas_WARP_adaptive_projection_selection -->
<g id="node44" class="node">
<title>cool_ideas_WARP_adaptive_projection_selection</title>
<path fill="#d4e8f7" stroke="black" d="M6907.93,-320.5C6907.93,-320.5 6770.07,-320.5 6770.07,-320.5 6765.88,-320.5 6761.68,-316.3 6761.68,-312.1 6761.68,-312.1 6761.68,-303.7 6761.68,-303.7 6761.68,-299.5 6765.88,-295.3 6770.07,-295.3 6770.07,-295.3 6907.93,-295.3 6907.93,-295.3 6912.12,-295.3 6916.32,-299.5 6916.32,-303.7 6916.32,-303.7 6916.32,-312.1 6916.32,-312.1 6916.32,-316.3 6912.12,-320.5 6907.93,-320.5"/>
<text xml:space="preserve" text-anchor="middle" x="6839" y="-304.8" font-family="Helvetica,sans-Serif" font-size="8.00">WARP&#45;adaptive&#45;projection&#45;selection &#45; L</text>
</g>
<!-- cool_ideas_WARP_agent_action_provenance -->
<g id="node45" class="node">
<title>cool_ideas_WARP_agent_action_provenance</title>
<path fill="#d4e8f7" stroke="black" d="M7069.55,-320.5C7069.55,-320.5 6938.45,-320.5 6938.45,-320.5 6934.25,-320.5 6930.05,-316.3 6930.05,-312.1 6930.05,-312.1 6930.05,-303.7 6930.05,-303.7 6930.05,-299.5 6934.25,-295.3 6938.45,-295.3 6938.45,-295.3 7069.55,-295.3 7069.55,-295.3 7073.75,-295.3 7077.95,-299.5 7077.95,-303.7 7077.95,-303.7 7077.95,-312.1 7077.95,-312.1 7077.95,-316.3 7073.75,-320.5 7069.55,-320.5"/>
<text xml:space="preserve" text-anchor="middle" x="7004" y="-304.8" font-family="Helvetica,sans-Serif" font-size="8.00">WARP&#45;agent&#45;action&#45;provenance &#45; XL</text>
</g>
<!-- cool_ideas_WARP_agent_action_provenance&#45;&gt;cool_ideas_CI_001_causal_collapse_visualizer -->
<g id="edge3" class="edge">
<title>cool_ideas_WARP_agent_action_provenance&#45;&gt;cool_ideas_CI_001_causal_collapse_visualizer</title>
<path fill="none" stroke="#666666" d="M7029.81,-294.81C7042.04,-289.01 7056.83,-281.9 7070,-275.3 7085.99,-267.28 7103.7,-258.02 7118,-250.44"/>
<polygon fill="#666666" stroke="#666666" points="7118.57,-252.12 7122.16,-248.23 7116.92,-249.03 7118.57,-252.12"/>
<text xml:space="preserve" text-anchor="middle" x="7116.14" y="-268.65" font-family="Helvetica,sans-Serif" font-size="7.00">blocked_by/blocking</text>
</g>
<!-- cool_ideas_WARP_causal_write_tracking -->
<g id="node50" class="node">
<title>cool_ideas_WARP_causal_write_tracking</title>
<path fill="#d4e8f7" stroke="black" d="M6762.05,-247.05C6762.05,-247.05 6651.95,-247.05 6651.95,-247.05 6647.75,-247.05 6643.55,-242.85 6643.55,-238.65 6643.55,-238.65 6643.55,-230.25 6643.55,-230.25 6643.55,-226.05 6647.75,-221.85 6651.95,-221.85 6651.95,-221.85 6762.05,-221.85 6762.05,-221.85 6766.25,-221.85 6770.45,-226.05 6770.45,-230.25 6770.45,-230.25 6770.45,-238.65 6770.45,-238.65 6770.45,-242.85 6766.25,-247.05 6762.05,-247.05"/>
<text xml:space="preserve" text-anchor="middle" x="6707" y="-231.35" font-family="Helvetica,sans-Serif" font-size="8.00">WARP&#45;causal&#45;write&#45;tracking &#45; L</text>
</g>
<!-- cool_ideas_WARP_agent_action_provenance&#45;&gt;cool_ideas_WARP_causal_write_tracking -->
<g id="edge4" class="edge">
<title>cool_ideas_WARP_agent_action_provenance&#45;&gt;cool_ideas_WARP_causal_write_tracking</title>
<path fill="none" stroke="#666666" d="M6956.13,-294.83C6945.27,-292.23 6933.76,-289.58 6923,-287.3 6893.83,-281.12 6886.1,-281.8 6857,-275.3 6822.63,-267.62 6784.25,-257.4 6754.92,-249.23"/>
<polygon fill="#666666" stroke="#666666" points="6755.55,-247.58 6750.26,-247.92 6754.61,-250.96 6755.55,-247.58"/>
<text xml:space="preserve" text-anchor="middle" x="6888.5" y="-268.65" font-family="Helvetica,sans-Serif" font-size="7.00">blocked_by/blocking</text>
</g>
<!-- cool_ideas_WARP_intent_and_decision_events -->
<g id="node60" class="node">
<title>cool_ideas_WARP_intent_and_decision_events</title>
<path fill="#d4e8f7" stroke="black" d="M6925.3,-247.05C6925.3,-247.05 6792.7,-247.05 6792.7,-247.05 6788.5,-247.05 6784.3,-242.85 6784.3,-238.65 6784.3,-238.65 6784.3,-230.25 6784.3,-230.25 6784.3,-226.05 6788.5,-221.85 6792.7,-221.85 6792.7,-221.85 6925.3,-221.85 6925.3,-221.85 6929.5,-221.85 6933.7,-226.05 6933.7,-230.25 6933.7,-230.25 6933.7,-238.65 6933.7,-238.65 6933.7,-242.85 6929.5,-247.05 6925.3,-247.05"/>
<text xml:space="preserve" text-anchor="middle" x="6859" y="-231.35" font-family="Helvetica,sans-Serif" font-size="8.00">WARP&#45;intent&#45;and&#45;decision&#45;events &#45; M</text>
</g>
<!-- cool_ideas_WARP_agent_action_provenance&#45;&gt;cool_ideas_WARP_intent_and_decision_events -->
<g id="edge5" class="edge">
<title>cool_ideas_WARP_agent_action_provenance&#45;&gt;cool_ideas_WARP_intent_and_decision_events</title>
<path fill="none" stroke="#666666" d="M6978.55,-294.87C6966.27,-289.02 6951.34,-281.86 6938,-275.3 6921.45,-267.16 6903.05,-257.89 6888.17,-250.34"/>
<polygon fill="#666666" stroke="#666666" points="6889.04,-248.83 6883.79,-248.12 6887.46,-251.95 6889.04,-248.83"/>
<text xml:space="preserve" text-anchor="middle" x="6969.5" y="-268.65" font-family="Helvetica,sans-Serif" font-size="7.00">blocked_by/blocking</text>
</g>
<!-- cool_ideas_WARP_provenance_dag -->
<g id="node66" class="node">
<title>cool_ideas_WARP_provenance_dag</title>
<path fill="#d4e8f7" stroke="black" d="M7051.55,-247.05C7051.55,-247.05 6956.45,-247.05 6956.45,-247.05 6952.25,-247.05 6948.05,-242.85 6948.05,-238.65 6948.05,-238.65 6948.05,-230.25 6948.05,-230.25 6948.05,-226.05 6952.25,-221.85 6956.45,-221.85 6956.45,-221.85 7051.55,-221.85 7051.55,-221.85 7055.75,-221.85 7059.95,-226.05 7059.95,-230.25 7059.95,-230.25 7059.95,-238.65 7059.95,-238.65 7059.95,-242.85 7055.75,-247.05 7051.55,-247.05"/>
<text xml:space="preserve" text-anchor="middle" x="7004" y="-231.35" font-family="Helvetica,sans-Serif" font-size="8.00">WARP&#45;provenance&#45;dag &#45; L</text>
</g>
<!-- cool_ideas_WARP_agent_action_provenance&#45;&gt;cool_ideas_WARP_provenance_dag -->
<g id="edge6" class="edge">
<title>cool_ideas_WARP_agent_action_provenance&#45;&gt;cool_ideas_WARP_provenance_dag</title>
<path fill="none" stroke="#666666" d="M7004,-295.1C7004,-283.9 7004,-266.88 7004,-253.88"/>
<polygon fill="#666666" stroke="#666666" points="7005.75,-254.02 7004,-249.02 7002.25,-254.02 7005.75,-254.02"/>
<text xml:space="preserve" text-anchor="middle" x="7035.5" y="-268.65" font-family="Helvetica,sans-Serif" font-size="7.00">blocked_by/blocking</text>
</g>
<!-- cool_ideas_WARP_auto_breaking_change_detection -->
<g id="node46" class="node">
<title>cool_ideas_WARP_auto_breaking_change_detection</title>
<path fill="#d4e8f7" stroke="black" d="M10224.3,-247.05C10224.3,-247.05 10073.7,-247.05 10073.7,-247.05 10069.5,-247.05 10065.3,-242.85 10065.3,-238.65 10065.3,-238.65 10065.3,-230.25 10065.3,-230.25 10065.3,-226.05 10069.5,-221.85 10073.7,-221.85 10073.7,-221.85 10224.3,-221.85 10224.3,-221.85 10228.5,-221.85 10232.7,-226.05 10232.7,-230.25 10232.7,-230.25 10232.7,-238.65 10232.7,-238.65 10232.7,-242.85 10228.5,-247.05 10224.3,-247.05"/>
<text xml:space="preserve" text-anchor="middle" x="10149" y="-231.35" font-family="Helvetica,sans-Serif" font-size="8.00">WARP&#45;auto&#45;breaking&#45;change&#45;detection &#45; L</text>
</g>
<!-- cool_ideas_WARP_budget_elasticity -->
<g id="node48" class="node">
<title>cool_ideas_WARP_budget_elasticity</title>
<path fill="#d4e8f7" stroke="black" d="M7195.93,-320.5C7195.93,-320.5 7100.07,-320.5 7100.07,-320.5 7095.88,-320.5 7091.68,-316.3 7091.68,-312.1 7091.68,-312.1 7091.68,-303.7 7091.68,-303.7 7091.68,-299.5 7095.88,-295.3 7100.07,-295.3 7100.07,-295.3 7195.93,-295.3 7195.93,-295.3 7200.12,-295.3 7204.32,-299.5 7204.32,-303.7 7204.32,-303.7 7204.32,-312.1 7204.32,-312.1 7204.32,-316.3 7200.12,-320.5 7195.93,-320.5"/>
<text xml:space="preserve" text-anchor="middle" x="7148" y="-304.8" font-family="Helvetica,sans-Serif" font-size="8.00">WARP&#45;budget&#45;elasticity &#45; M</text>
</g>
<!-- cool_ideas_WARP_causal_blame_for_staged_artifacts -->
<g id="node49" class="node">
<title>cool_ideas_WARP_causal_blame_for_staged_artifacts</title>
<path fill="#d4e8f7" stroke="black" d="M7155.18,-173.6C7155.18,-173.6 7000.82,-173.6 7000.82,-173.6 6996.62,-173.6 6992.43,-169.4 6992.43,-165.2 6992.43,-165.2 6992.43,-156.8 6992.43,-156.8 6992.43,-152.6 6996.62,-148.4 7000.82,-148.4 7000.82,-148.4 7155.18,-148.4 7155.18,-148.4 7159.38,-148.4 7163.57,-152.6 7163.57,-156.8 7163.57,-156.8 7163.57,-165.2 7163.57,-165.2 7163.57,-169.4 7159.38,-173.6 7155.18,-173.6"/>
<text xml:space="preserve" text-anchor="middle" x="7078" y="-157.9" font-family="Helvetica,sans-Serif" font-size="8.00">WARP&#45;causal&#45;blame&#45;for&#45;staged&#45;artifacts &#45; L</text>
</g>
<!-- cool_ideas_WARP_codebase_entropy_trajectory -->
<g id="node51" class="node">
<title>cool_ideas_WARP_codebase_entropy_trajectory</title>
<path fill="#d4e8f7" stroke="black" d="M7365.68,-320.5C7365.68,-320.5 7226.32,-320.5 7226.32,-320.5 7222.12,-320.5 7217.93,-316.3 7217.93,-312.1 7217.93,-312.1 7217.93,-303.7 7217.93,-303.7 7217.93,-299.5 7222.12,-295.3 7226.32,-295.3 7226.32,-295.3 7365.68,-295.3 7365.68,-295.3 7369.88,-295.3 7374.07,-299.5 7374.07,-303.7 7374.07,-303.7 7374.07,-312.1 7374.07,-312.1 7374.07,-316.3 7369.88,-320.5 7365.68,-320.5"/>
<text xml:space="preserve" text-anchor="middle" x="7296" y="-304.8" font-family="Helvetica,sans-Serif" font-size="8.00">WARP&#45;codebase&#45;entropy&#45;trajectory &#45; M</text>
</g>
<!-- cool_ideas_WARP_counterfactual_refactoring -->
<g id="node53" class="node">
<title>cool_ideas_WARP_counterfactual_refactoring</title>
<path fill="#d4e8f7" stroke="black" d="M7373.68,-247.05C7373.68,-247.05 7240.32,-247.05 7240.32,-247.05 7236.12,-247.05 7231.93,-242.85 7231.93,-238.65 7231.93,-238.65 7231.93,-230.25 7231.93,-230.25 7231.93,-226.05 7236.12,-221.85 7240.32,-221.85 7240.32,-221.85 7373.68,-221.85 7373.68,-221.85 7377.88,-221.85 7382.07,-226.05 7382.07,-230.25 7382.07,-230.25 7382.07,-238.65 7382.07,-238.65 7382.07,-242.85 7377.88,-247.05 7373.68,-247.05"/>
<text xml:space="preserve" text-anchor="middle" x="7307" y="-231.35" font-family="Helvetica,sans-Serif" font-size="8.00">WARP&#45;counterfactual&#45;refactoring &#45; XL</text>
</g>
<!-- cool_ideas_WARP_codebase_entropy_trajectory&#45;&gt;cool_ideas_WARP_counterfactual_refactoring -->
<g id="edge7" class="edge">
<title>cool_ideas_WARP_codebase_entropy_trajectory&#45;&gt;cool_ideas_WARP_counterfactual_refactoring</title>
<path fill="none" stroke="#666666" d="M7297.82,-295.1C7299.54,-283.9 7302.16,-266.88 7304.16,-253.88"/>
<polygon fill="#666666" stroke="#666666" points="7305.88,-254.21 7304.91,-249 7302.42,-253.68 7305.88,-254.21"/>
<text xml:space="preserve" text-anchor="middle" x="7333.33" y="-268.65" font-family="Helvetica,sans-Serif" font-size="7.00">blocked_by/blocking</text>
</g>
<!-- cool_ideas_WARP_codebase_signature -->
<g id="node52" class="node">
<title>cool_ideas_WARP_codebase_signature</title>
<path fill="#d4e8f7" stroke="black" d="M7503.55,-320.5C7503.55,-320.5 7396.45,-320.5 7396.45,-320.5 7392.25,-320.5 7388.05,-316.3 7388.05,-312.1 7388.05,-312.1 7388.05,-303.7 7388.05,-303.7 7388.05,-299.5 7392.25,-295.3 7396.45,-295.3 7396.45,-295.3 7503.55,-295.3 7503.55,-295.3 7507.75,-295.3 7511.95,-299.5 7511.95,-303.7 7511.95,-303.7 7511.95,-312.1 7511.95,-312.1 7511.95,-316.3 7507.75,-320.5 7503.55,-320.5"/>
<text xml:space="preserve" text-anchor="middle" x="7450" y="-304.8" font-family="Helvetica,sans-Serif" font-size="8.00">WARP&#45;codebase&#45;signature &#45; L</text>
</g>
<!-- cool_ideas_WARP_structural_impact_prediction -->
<g id="node76" class="node">
<title>cool_ideas_WARP_structural_impact_prediction</title>
<path fill="#d4e8f7" stroke="black" d="M7376.3,-173.6C7376.3,-173.6 7237.7,-173.6 7237.7,-173.6 7233.5,-173.6 7229.3,-169.4 7229.3,-165.2 7229.3,-165.2 7229.3,-156.8 7229.3,-156.8 7229.3,-152.6 7233.5,-148.4 7237.7,-148.4 7237.7,-148.4 7376.3,-148.4 7376.3,-148.4 7380.5,-148.4 7384.7,-152.6 7384.7,-156.8 7384.7,-156.8 7384.7,-165.2 7384.7,-165.2 7384.7,-169.4 7380.5,-173.6 7376.3,-173.6"/>
<text xml:space="preserve" text-anchor="middle" x="7307" y="-157.9" font-family="Helvetica,sans-Serif" font-size="8.00">WARP&#45;structural&#45;impact&#45;prediction &#45; XL</text>
</g>
<!-- cool_ideas_WARP_counterfactual_refactoring&#45;&gt;cool_ideas_WARP_structural_impact_prediction -->
<g id="edge8" class="edge">
<title>cool_ideas_WARP_counterfactual_refactoring&#45;&gt;cool_ideas_WARP_structural_impact_prediction</title>
<path fill="none" stroke="#666666" d="M7307,-221.65C7307,-210.45 7307,-193.43 7307,-180.43"/>
<polygon fill="#666666" stroke="#666666" points="7308.75,-180.57 7307,-175.57 7305.25,-180.57 7308.75,-180.57"/>
<text xml:space="preserve" text-anchor="middle" x="7338.5" y="-195.2" font-family="Helvetica,sans-Serif" font-size="7.00">blocked_by/blocking</text>
</g>
<!-- cool_ideas_WARP_dead_symbol_detection -->
<g id="node54" class="node">
<title>cool_ideas_WARP_dead_symbol_detection</title>
<path fill="#d4e8f7" stroke="black" d="M7653.18,-320.5C7653.18,-320.5 7534.82,-320.5 7534.82,-320.5 7530.62,-320.5 7526.43,-316.3 7526.43,-312.1 7526.43,-312.1 7526.43,-303.7 7526.43,-303.7 7526.43,-299.5 7530.62,-295.3 7534.82,-295.3 7534.82,-295.3 7653.18,-295.3 7653.18,-295.3 7657.38,-295.3 7661.57,-299.5 7661.57,-303.7 7661.57,-303.7 7661.57,-312.1 7661.57,-312.1 7661.57,-316.3 7657.38,-320.5 7653.18,-320.5"/>
<text xml:space="preserve" text-anchor="middle" x="7594" y="-304.8" font-family="Helvetica,sans-Serif" font-size="8.00">WARP&#45;dead&#45;symbol&#45;detection &#45; S</text>
</g>
<!-- cool_ideas_WARP_degeneracy_warning -->
<g id="node55" class="node">
<title>cool_ideas_WARP_degeneracy_warning</title>
<path fill="#d4e8f7" stroke="black" d="M7796.18,-320.5C7796.18,-320.5 7683.82,-320.5 7683.82,-320.5 7679.62,-320.5 7675.43,-316.3 7675.43,-312.1 7675.43,-312.1 7675.43,-303.7 7675.43,-303.7 7675.43,-299.5 7679.62,-295.3 7683.82,-295.3 7683.82,-295.3 7796.18,-295.3 7796.18,-295.3 7800.38,-295.3 7804.57,-299.5 7804.57,-303.7 7804.57,-303.7 7804.57,-312.1 7804.57,-312.1 7804.57,-316.3 7800.38,-320.5 7796.18,-320.5"/>
<text xml:space="preserve" text-anchor="middle" x="7740" y="-304.8" font-family="Helvetica,sans-Serif" font-size="8.00">WARP&#45;degeneracy&#45;warning &#45; M</text>
</g>
<!-- cool_ideas_WARP_drift_sentinel -->
<g id="node56" class="node">
<title>cool_ideas_WARP_drift_sentinel</title>
<path fill="#d4e8f7" stroke="black" d="M9730.18,-247.05C9730.18,-247.05 9647.82,-247.05 9647.82,-247.05 9643.62,-247.05 9639.42,-242.85 9639.42,-238.65 9639.42,-238.65 9639.42,-230.25 9639.42,-230.25 9639.42,-226.05 9643.62,-221.85 9647.82,-221.85 9647.82,-221.85 9730.18,-221.85 9730.18,-221.85 9734.38,-221.85 9738.58,-226.05 9738.58,-230.25 9738.58,-230.25 9738.58,-238.65 9738.58,-238.65 9738.58,-242.85 9734.38,-247.05 9730.18,-247.05"/>
<text xml:space="preserve" text-anchor="middle" x="9689" y="-231.35" font-family="Helvetica,sans-Serif" font-size="8.00">WARP&#45;drift&#45;sentinel &#45; M</text>
</g>
<!-- cool_ideas_WARP_footprint_parallelism -->
<g id="node57" class="node">
<title>cool_ideas_WARP_footprint_parallelism</title>
<path fill="#d4e8f7" stroke="black" d="M7938.8,-320.5C7938.8,-320.5 7827.2,-320.5 7827.2,-320.5 7823,-320.5 7818.8,-316.3 7818.8,-312.1 7818.8,-312.1 7818.8,-303.7 7818.8,-303.7 7818.8,-299.5 7823,-295.3 7827.2,-295.3 7827.2,-295.3 7938.8,-295.3 7938.8,-295.3 7943,-295.3 7947.2,-299.5 7947.2,-303.7 7947.2,-303.7 7947.2,-312.1 7947.2,-312.1 7947.2,-316.3 7943,-320.5 7938.8,-320.5"/>
<text xml:space="preserve" text-anchor="middle" x="7883" y="-304.8" font-family="Helvetica,sans-Serif" font-size="8.00">WARP&#45;footprint&#45;parallelism &#45; XL</text>
</g>
<!-- cool_ideas_WARP_graft_pack -->
<g id="node58" class="node">
<title>cool_ideas_WARP_graft_pack</title>
<path fill="#d4e8f7" stroke="black" d="M8044.43,-320.5C8044.43,-320.5 7969.57,-320.5 7969.57,-320.5 7965.38,-320.5 7961.18,-316.3 7961.18,-312.1 7961.18,-312.1 7961.18,-303.7 7961.18,-303.7 7961.18,-299.5 7965.38,-295.3 7969.57,-295.3 7969.57,-295.3 8044.43,-295.3 8044.43,-295.3 8048.62,-295.3 8052.82,-299.5 8052.82,-303.7 8052.82,-303.7 8052.82,-312.1 8052.82,-312.1 8052.82,-316.3 8048.62,-320.5 8044.43,-320.5"/>
<text xml:space="preserve" text-anchor="middle" x="8007" y="-304.8" font-family="Helvetica,sans-Serif" font-size="8.00">WARP&#45;graft&#45;pack &#45; M</text>
</g>
<!-- cool_ideas_WARP_grouped_aggregate_queries -->
<g id="node59" class="node">
<title>cool_ideas_WARP_grouped_aggregate_queries</title>
<path fill="#d4e8f7" stroke="black" d="M8212.93,-320.5C8212.93,-320.5 8075.07,-320.5 8075.07,-320.5 8070.88,-320.5 8066.68,-316.3 8066.68,-312.1 8066.68,-312.1 8066.68,-303.7 8066.68,-303.7 8066.68,-299.5 8070.88,-295.3 8075.07,-295.3 8075.07,-295.3 8212.93,-295.3 8212.93,-295.3 8217.12,-295.3 8221.33,-299.5 8221.33,-303.7 8221.33,-303.7 8221.33,-312.1 8221.33,-312.1 8221.33,-316.3 8217.12,-320.5 8212.93,-320.5"/>
<text xml:space="preserve" text-anchor="middle" x="8144" y="-304.8" font-family="Helvetica,sans-Serif" font-size="8.00">WARP&#45;grouped&#45;aggregate&#45;queries &#45; M</text>
</g>
<!-- cool_ideas_WARP_intentional_degeneracy_privacy -->
<g id="node61" class="node">
<title>cool_ideas_WARP_intentional_degeneracy_privacy</title>
<path fill="#d4e8f7" stroke="black" d="M8391.8,-320.5C8391.8,-320.5 8244.2,-320.5 8244.2,-320.5 8240,-320.5 8235.8,-316.3 8235.8,-312.1 8235.8,-312.1 8235.8,-303.7 8235.8,-303.7 8235.8,-299.5 8240,-295.3 8244.2,-295.3 8244.2,-295.3 8391.8,-295.3 8391.8,-295.3 8396,-295.3 8400.2,-299.5 8400.2,-303.7 8400.2,-303.7 8400.2,-312.1 8400.2,-312.1 8400.2,-316.3 8396,-320.5 8391.8,-320.5"/>
<text xml:space="preserve" text-anchor="middle" x="8318" y="-304.8" font-family="Helvetica,sans-Serif" font-size="8.00">WARP&#45;intentional&#45;degeneracy&#45;privacy &#45; M</text>
</g>
<!-- cool_ideas_WARP_lsp_enrichment -->
<g id="node62" class="node">
<title>cool_ideas_WARP_lsp_enrichment</title>
<path fill="#d4e8f7" stroke="black" d="M8499.55,-320.5C8499.55,-320.5 8422.45,-320.5 8422.45,-320.5 8418.25,-320.5 8414.05,-316.3 8414.05,-312.1 8414.05,-312.1 8414.05,-303.7 8414.05,-303.7 8414.05,-299.5 8418.25,-295.3 8422.45,-295.3 8422.45,-295.3 8499.55,-295.3 8499.55,-295.3 8503.75,-295.3 8507.95,-299.5 8507.95,-303.7 8507.95,-303.7 8507.95,-312.1 8507.95,-312.1 8507.95,-316.3 8503.75,-320.5 8499.55,-320.5"/>
<text xml:space="preserve" text-anchor="middle" x="8461" y="-304.8" font-family="Helvetica,sans-Serif" font-size="8.00">WARP&#45;lsp&#45;enrichment</text>
</g>
<!-- cool_ideas_WARP_minimum_viable_context -->
<g id="node63" class="node">
<title>cool_ideas_WARP_minimum_viable_context</title>
<path fill="#d4e8f7" stroke="black" d="M8653.43,-320.5C8653.43,-320.5 8530.57,-320.5 8530.57,-320.5 8526.38,-320.5 8522.17,-316.3 8522.17,-312.1 8522.17,-312.1 8522.17,-303.7 8522.17,-303.7 8522.17,-299.5 8526.38,-295.3 8530.57,-295.3 8530.57,-295.3 8653.43,-295.3 8653.43,-295.3 8657.62,-295.3 8661.83,-299.5 8661.83,-303.7 8661.83,-303.7 8661.83,-312.1 8661.83,-312.1 8661.83,-316.3 8657.62,-320.5 8653.43,-320.5"/>
<text xml:space="preserve" text-anchor="middle" x="8592" y="-304.8" font-family="Helvetica,sans-Serif" font-size="8.00">WARP&#45;minimum&#45;viable&#45;context &#45; M</text>
</g>
<!-- cool_ideas_WARP_outline_diff_commit_trailer -->
<g id="node64" class="node">
<title>cool_ideas_WARP_outline_diff_commit_trailer</title>
<path fill="#d4e8f7" stroke="black" d="M8809.93,-320.5C8809.93,-320.5 8684.07,-320.5 8684.07,-320.5 8679.88,-320.5 8675.67,-316.3 8675.67,-312.1 8675.67,-312.1 8675.67,-303.7 8675.67,-303.7 8675.67,-299.5 8679.88,-295.3 8684.07,-295.3 8684.07,-295.3 8809.93,-295.3 8809.93,-295.3 8814.12,-295.3 8818.33,-299.5 8818.33,-303.7 8818.33,-303.7 8818.33,-312.1 8818.33,-312.1 8818.33,-316.3 8814.12,-320.5 8809.93,-320.5"/>
<text xml:space="preserve" text-anchor="middle" x="8747" y="-304.8" font-family="Helvetica,sans-Serif" font-size="8.00">WARP&#45;outline&#45;diff&#45;commit&#45;trailer &#45; S</text>
</g>
<!-- cool_ideas_WARP_projection_safety_classes -->
<g id="node65" class="node">
<title>cool_ideas_WARP_projection_safety_classes</title>
<path fill="#d4e8f7" stroke="black" d="M8966.93,-320.5C8966.93,-320.5 8841.07,-320.5 8841.07,-320.5 8836.88,-320.5 8832.67,-316.3 8832.67,-312.1 8832.67,-312.1 8832.67,-303.7 8832.67,-303.7 8832.67,-299.5 8836.88,-295.3 8841.07,-295.3 8841.07,-295.3 8966.93,-295.3 8966.93,-295.3 8971.12,-295.3 8975.33,-299.5 8975.33,-303.7 8975.33,-303.7 8975.33,-312.1 8975.33,-312.1 8975.33,-316.3 8971.12,-320.5 8966.93,-320.5"/>
<text xml:space="preserve" text-anchor="middle" x="8904" y="-304.8" font-family="Helvetica,sans-Serif" font-size="8.00">WARP&#45;projection&#45;safety&#45;classes &#45; M</text>
</g>
<!-- cool_ideas_WARP_provenance_dag&#45;&gt;cool_ideas_WARP_causal_blame_for_staged_artifacts -->
<g id="edge9" class="edge">
<title>cool_ideas_WARP_provenance_dag&#45;&gt;cool_ideas_WARP_causal_blame_for_staged_artifacts</title>
<path fill="none" stroke="#666666" d="M7016.22,-221.65C7028.46,-209.83 7047.41,-191.54 7061.09,-178.32"/>
<polygon fill="#666666" stroke="#666666" points="7062.04,-179.84 7064.43,-175.11 7059.61,-177.32 7062.04,-179.84"/>
<text xml:space="preserve" text-anchor="middle" x="7074.72" y="-195.2" font-family="Helvetica,sans-Serif" font-size="7.00">blocked_by/blocking</text>
</g>
<!-- cool_ideas_WARP_reasoning_trace_replay -->
<g id="node67" class="node">
<title>cool_ideas_WARP_reasoning_trace_replay</title>
<path fill="#d4e8f7" stroke="black" d="M6969.93,-173.6C6969.93,-173.6 6850.07,-173.6 6850.07,-173.6 6845.88,-173.6 6841.68,-169.4 6841.68,-165.2 6841.68,-165.2 6841.68,-156.8 6841.68,-156.8 6841.68,-152.6 6845.88,-148.4 6850.07,-148.4 6850.07,-148.4 6969.93,-148.4 6969.93,-148.4 6974.12,-148.4 6978.32,-152.6 6978.32,-156.8 6978.32,-156.8 6978.32,-165.2 6978.32,-165.2 6978.32,-169.4 6974.12,-173.6 6969.93,-173.6"/>
<text xml:space="preserve" text-anchor="middle" x="6910" y="-157.9" font-family="Helvetica,sans-Serif" font-size="8.00">WARP&#45;reasoning&#45;trace&#45;replay &#45; M</text>
</g>
<!-- cool_ideas_WARP_provenance_dag&#45;&gt;cool_ideas_WARP_reasoning_trace_replay -->
<g id="edge10" class="edge">
<title>cool_ideas_WARP_provenance_dag&#45;&gt;cool_ideas_WARP_reasoning_trace_replay</title>
<path fill="none" stroke="#666666" d="M6988.48,-221.65C6972.79,-209.73 6948.44,-191.22 6931.02,-177.98"/>
<polygon fill="#666666" stroke="#666666" points="6932.1,-176.6 6927.06,-174.97 6929.99,-179.39 6932.1,-176.6"/>
<text xml:space="preserve" text-anchor="middle" x="6991.32" y="-195.2" font-family="Helvetica,sans-Serif" font-size="7.00">blocked_by/blocking</text>
</g>
<!-- cool_ideas_WARP_rulial_heat_map -->
<g id="node68" class="node">
<title>cool_ideas_WARP_rulial_heat_map</title>
<path fill="#d4e8f7" stroke="black" d="M9088.3,-320.5C9088.3,-320.5 8997.7,-320.5 8997.7,-320.5 8993.5,-320.5 8989.3,-316.3 8989.3,-312.1 8989.3,-312.1 8989.3,-303.7 8989.3,-303.7 8989.3,-299.5 8993.5,-295.3 8997.7,-295.3 8997.7,-295.3 9088.3,-295.3 9088.3,-295.3 9092.5,-295.3 9096.7,-299.5 9096.7,-303.7 9096.7,-303.7 9096.7,-312.1 9096.7,-312.1 9096.7,-316.3 9092.5,-320.5 9088.3,-320.5"/>
<text xml:space="preserve" text-anchor="middle" x="9043" y="-304.8" font-family="Helvetica,sans-Serif" font-size="8.00">WARP&#45;rulial&#45;heat&#45;map &#45; L</text>
</g>
<!-- cool_ideas_WARP_semantic_drift_in_sessions -->
<g id="node69" class="node">
<title>cool_ideas_WARP_semantic_drift_in_sessions</title>
<path fill="#d4e8f7" stroke="black" d="M9248.43,-320.5C9248.43,-320.5 9119.57,-320.5 9119.57,-320.5 9115.38,-320.5 9111.17,-316.3 9111.17,-312.1 9111.17,-312.1 9111.17,-303.7 9111.17,-303.7 9111.17,-299.5 9115.38,-295.3 9119.57,-295.3 9119.57,-295.3 9248.43,-295.3 9248.43,-295.3 9252.62,-295.3 9256.83,-299.5 9256.83,-303.7 9256.83,-303.7 9256.83,-312.1 9256.83,-312.1 9256.83,-316.3 9252.62,-320.5 9248.43,-320.5"/>
<text xml:space="preserve" text-anchor="middle" x="9184" y="-304.8" font-family="Helvetica,sans-Serif" font-size="8.00">WARP&#45;semantic&#45;drift&#45;in&#45;sessions &#45; M</text>
</g>
<!-- cool_ideas_WARP_semantic_merge_conflict_prediction -->
<g id="node70" class="node">
<title>cool_ideas_WARP_semantic_merge_conflict_prediction</title>
<path fill="#d4e8f7" stroke="black" d="M10414.43,-247.05C10414.43,-247.05 10255.57,-247.05 10255.57,-247.05 10251.38,-247.05 10247.17,-242.85 10247.17,-238.65 10247.17,-238.65 10247.17,-230.25 10247.17,-230.25 10247.17,-226.05 10251.38,-221.85 10255.57,-221.85 10255.57,-221.85 10414.43,-221.85 10414.43,-221.85 10418.62,-221.85 10422.83,-226.05 10422.83,-230.25 10422.83,-230.25 10422.83,-238.65 10422.83,-238.65 10422.83,-242.85 10418.62,-247.05 10414.43,-247.05"/>
<text xml:space="preserve" text-anchor="middle" x="10335" y="-231.35" font-family="Helvetica,sans-Serif" font-size="8.00">WARP&#45;semantic&#45;merge&#45;conflict&#45;prediction &#45; L</text>
</g>
<!-- cool_ideas_WARP_session_filtration -->
<g id="node71" class="node">
<title>cool_ideas_WARP_session_filtration</title>
<path fill="#d4e8f7" stroke="black" d="M9372.8,-320.5C9372.8,-320.5 9279.2,-320.5 9279.2,-320.5 9275,-320.5 9270.8,-316.3 9270.8,-312.1 9270.8,-312.1 9270.8,-303.7 9270.8,-303.7 9270.8,-299.5 9275,-295.3 9279.2,-295.3 9279.2,-295.3 9372.8,-295.3 9372.8,-295.3 9377,-295.3 9381.2,-299.5 9381.2,-303.7 9381.2,-303.7 9381.2,-312.1 9381.2,-312.1 9381.2,-316.3 9377,-320.5 9372.8,-320.5"/>
<text xml:space="preserve" text-anchor="middle" x="9326" y="-304.8" font-family="Helvetica,sans-Serif" font-size="8.00">WARP&#45;session&#45;filtration &#45; L</text>
</g>
<!-- cool_ideas_WARP_shadow_structural_workspaces -->
<g id="node72" class="node">
<title>cool_ideas_WARP_shadow_structural_workspaces</title>
<path fill="#d4e8f7" stroke="black" d="M9554.3,-320.5C9554.3,-320.5 9403.7,-320.5 9403.7,-320.5 9399.5,-320.5 9395.3,-316.3 9395.3,-312.1 9395.3,-312.1 9395.3,-303.7 9395.3,-303.7 9395.3,-299.5 9399.5,-295.3 9403.7,-295.3 9403.7,-295.3 9554.3,-295.3 9554.3,-295.3 9558.5,-295.3 9562.7,-299.5 9562.7,-303.7 9562.7,-303.7 9562.7,-312.1 9562.7,-312.1 9562.7,-316.3 9558.5,-320.5 9554.3,-320.5"/>
<text xml:space="preserve" text-anchor="middle" x="9479" y="-304.8" font-family="Helvetica,sans-Serif" font-size="8.00">WARP&#45;shadow&#45;structural&#45;workspaces &#45; XL</text>
</g>
<!-- cool_ideas_WARP_speculative_merge -->
<g id="node73" class="node">
<title>cool_ideas_WARP_speculative_merge</title>
<path fill="#d4e8f7" stroke="black" d="M9692.55,-320.5C9692.55,-320.5 9585.45,-320.5 9585.45,-320.5 9581.25,-320.5 9577.05,-316.3 9577.05,-312.1 9577.05,-312.1 9577.05,-303.7 9577.05,-303.7 9577.05,-299.5 9581.25,-295.3 9585.45,-295.3 9585.45,-295.3 9692.55,-295.3 9692.55,-295.3 9696.75,-295.3 9700.95,-299.5 9700.95,-303.7 9700.95,-303.7 9700.95,-312.1 9700.95,-312.1 9700.95,-316.3 9696.75,-320.5 9692.55,-320.5"/>
<text xml:space="preserve" text-anchor="middle" x="9639" y="-304.8" font-family="Helvetica,sans-Serif" font-size="8.00">WARP&#45;speculative&#45;merge &#45; XL</text>
</g>
<!-- cool_ideas_WARP_stale_docs_checker -->
<g id="node74" class="node">
<title>cool_ideas_WARP_stale_docs_checker</title>
<path fill="#d4e8f7" stroke="black" d="M9828.8,-320.5C9828.8,-320.5 9723.2,-320.5 9723.2,-320.5 9719,-320.5 9714.8,-316.3 9714.8,-312.1 9714.8,-312.1 9714.8,-303.7 9714.8,-303.7 9714.8,-299.5 9719,-295.3 9723.2,-295.3 9723.2,-295.3 9828.8,-295.3 9828.8,-295.3 9833,-295.3 9837.2,-299.5 9837.2,-303.7 9837.2,-303.7 9837.2,-312.1 9837.2,-312.1 9837.2,-316.3 9833,-320.5 9828.8,-320.5"/>
<text xml:space="preserve" text-anchor="middle" x="9776" y="-304.8" font-family="Helvetica,sans-Serif" font-size="8.00">WARP&#45;stale&#45;docs&#45;checker &#45; M</text>
</g>
<!-- cool_ideas_WARP_stale_docs_checker&#45;&gt;cool_ideas_WARP_drift_sentinel -->
<g id="edge11" class="edge">
<title>cool_ideas_WARP_stale_docs_checker&#45;&gt;cool_ideas_WARP_drift_sentinel</title>
<path fill="none" stroke="#666666" d="M9761.63,-295.1C9747.11,-283.18 9724.58,-264.67 9708.46,-251.43"/>
<polygon fill="#666666" stroke="#666666" points="9709.82,-250.29 9704.85,-248.47 9707.6,-252.99 9709.82,-250.29"/>
<text xml:space="preserve" text-anchor="middle" x="9766.61" y="-268.65" font-family="Helvetica,sans-Serif" font-size="7.00">blocked_by/blocking</text>
</g>
<!-- cool_ideas_WARP_structural_drift_detection -->
<g id="node75" class="node">
<title>cool_ideas_WARP_structural_drift_detection</title>
<path fill="#d4e8f7" stroke="black" d="M9982.8,-320.5C9982.8,-320.5 9859.2,-320.5 9859.2,-320.5 9855,-320.5 9850.8,-316.3 9850.8,-312.1 9850.8,-312.1 9850.8,-303.7 9850.8,-303.7 9850.8,-299.5 9855,-295.3 9859.2,-295.3 9859.2,-295.3 9982.8,-295.3 9982.8,-295.3 9987,-295.3 9991.2,-299.5 9991.2,-303.7 9991.2,-303.7 9991.2,-312.1 9991.2,-312.1 9991.2,-316.3 9987,-320.5 9982.8,-320.5"/>
<text xml:space="preserve" text-anchor="middle" x="9921" y="-304.8" font-family="Helvetica,sans-Serif" font-size="8.00">WARP&#45;structural&#45;drift&#45;detection &#45; M</text>
</g>
<!-- cool_ideas_WARP_symbol_heatmap -->
<g id="node77" class="node">
<title>cool_ideas_WARP_symbol_heatmap</title>
<path fill="#d4e8f7" stroke="black" d="M10112.05,-320.5C10112.05,-320.5 10013.95,-320.5 10013.95,-320.5 10009.75,-320.5 10005.55,-316.3 10005.55,-312.1 10005.55,-312.1 10005.55,-303.7 10005.55,-303.7 10005.55,-299.5 10009.75,-295.3 10013.95,-295.3 10013.95,-295.3 10112.05,-295.3 10112.05,-295.3 10116.25,-295.3 10120.45,-299.5 10120.45,-303.7 10120.45,-303.7 10120.45,-312.1 10120.45,-312.1 10120.45,-316.3 10116.25,-320.5 10112.05,-320.5"/>
<text xml:space="preserve" text-anchor="middle" x="10063" y="-304.8" font-family="Helvetica,sans-Serif" font-size="8.00">WARP&#45;symbol&#45;heatmap &#45; M</text>
</g>
<!-- cool_ideas_WARP_symbol_history_timeline -->
<g id="node78" class="node">
<title>cool_ideas_WARP_symbol_history_timeline</title>
<path fill="#d4e8f7" stroke="black" d="M10261.18,-320.5C10261.18,-320.5 10142.82,-320.5 10142.82,-320.5 10138.62,-320.5 10134.42,-316.3 10134.42,-312.1 10134.42,-312.1 10134.42,-303.7 10134.42,-303.7 10134.42,-299.5 10138.62,-295.3 10142.82,-295.3 10142.82,-295.3 10261.18,-295.3 10261.18,-295.3 10265.38,-295.3 10269.58,-299.5 10269.58,-303.7 10269.58,-303.7 10269.58,-312.1 10269.58,-312.1 10269.58,-316.3 10265.38,-320.5 10261.18,-320.5"/>
<text xml:space="preserve" text-anchor="middle" x="10202" y="-304.8" font-family="Helvetica,sans-Serif" font-size="8.00">WARP&#45;symbol&#45;history&#45;timeline &#45; S</text>
</g>
<!-- cool_ideas_WARP_temporal_structural_search -->
<g id="node80" class="node">
<title>cool_ideas_WARP_temporal_structural_search</title>
<path fill="#d4e8f7" stroke="black" d="M9894.68,-247.05C9894.68,-247.05 9761.32,-247.05 9761.32,-247.05 9757.12,-247.05 9752.92,-242.85 9752.92,-238.65 9752.92,-238.65 9752.92,-230.25 9752.92,-230.25 9752.92,-226.05 9757.12,-221.85 9761.32,-221.85 9761.32,-221.85 9894.68,-221.85 9894.68,-221.85 9898.88,-221.85 9903.08,-226.05 9903.08,-230.25 9903.08,-230.25 9903.08,-238.65 9903.08,-238.65 9903.08,-242.85 9898.88,-247.05 9894.68,-247.05"/>
<text xml:space="preserve" text-anchor="middle" x="9828" y="-231.35" font-family="Helvetica,sans-Serif" font-size="8.00">WARP&#45;temporal&#45;structural&#45;search &#45; M</text>
</g>
<!-- cool_ideas_WARP_symbol_history_timeline&#45;&gt;cool_ideas_WARP_temporal_structural_search -->
<g id="edge12" class="edge">
<title>cool_ideas_WARP_symbol_history_timeline&#45;&gt;cool_ideas_WARP_temporal_structural_search</title>
<path fill="none" stroke="#666666" d="M10161.82,-294.9C10150.64,-291.97 10138.42,-289.15 10127,-287.3 10046.98,-274.33 10024.5,-291.17 9945,-275.3 9916.41,-269.59 9885.21,-258.72 9862.23,-249.77"/>
<polygon fill="#666666" stroke="#666666" points="9862.97,-248.18 9857.68,-247.98 9861.69,-251.44 9862.97,-248.18"/>
<text xml:space="preserve" text-anchor="middle" x="9976.5" y="-268.65" font-family="Helvetica,sans-Serif" font-size="7.00">blocked_by/blocking</text>
</g>
<!-- cool_ideas_WARP_technical_debt_curvature -->
<g id="node79" class="node">
<title>cool_ideas_WARP_technical_debt_curvature</title>
<path fill="#d4e8f7" stroke="black" d="M10414.43,-320.5C10414.43,-320.5 10291.57,-320.5 10291.57,-320.5 10287.38,-320.5 10283.17,-316.3 10283.17,-312.1 10283.17,-312.1 10283.17,-303.7 10283.17,-303.7 10283.17,-299.5 10287.38,-295.3 10291.57,-295.3 10291.57,-295.3 10414.43,-295.3 10414.43,-295.3 10418.62,-295.3 10422.83,-299.5 10422.83,-303.7 10422.83,-303.7 10422.83,-312.1 10422.83,-312.1 10422.83,-316.3 10418.62,-320.5 10414.43,-320.5"/>
<text xml:space="preserve" text-anchor="middle" x="10353" y="-304.8" font-family="Helvetica,sans-Serif" font-size="8.00">WARP&#45;technical&#45;debt&#45;curvature &#45; L</text>
</g>
<!-- external_git_warp_observer_geometry_ladder__Rung_2_4_ -->
<g id="node81" class="node">
<title>external_git_warp_observer_geometry_ladder__Rung_2_4_</title>
<path fill="#e8f2ff" stroke="black" d="M10618.68,-320.5C10618.68,-320.5 10455.32,-320.5 10455.32,-320.5 10451.12,-320.5 10446.92,-316.3 10446.92,-312.1 10446.92,-312.1 10446.92,-303.7 10446.92,-303.7 10446.92,-299.5 10451.12,-295.3 10455.32,-295.3 10455.32,-295.3 10618.68,-295.3 10618.68,-295.3 10622.88,-295.3 10627.08,-299.5 10627.08,-303.7 10627.08,-303.7 10627.08,-312.1 10627.08,-312.1 10627.08,-316.3 10622.88,-320.5 10618.68,-320.5"/>
<text xml:space="preserve" text-anchor="middle" x="10537" y="-304.8" font-family="Helvetica,sans-Serif" font-size="8.00">git&#45;warp observer geometry ladder (Rung 2&#45;4)</text>
</g>
<!-- external_git_warp_observer_geometry_ladder__Rung_2_4_&#45;&gt;cool_ideas_CORE_migrate_to_slice_first_reads -->
<g id="edge13" class="edge">
<title>external_git_warp_observer_geometry_ladder__Rung_2_4_&#45;&gt;cool_ideas_CORE_migrate_to_slice_first_reads</title>
<path fill="none" stroke="#4477aa" stroke-dasharray="5,2" d="M10480.54,-294.84C10465.47,-291.98 10449.17,-289.21 10434,-287.3 10349.72,-276.67 10327.71,-284.38 10243.25,-275.3 10160.44,-266.4 10140.31,-259.78 10058,-247.05 10057.86,-247.03 10057.73,-247.01 10057.59,-246.99"/>
<polygon fill="#4477aa" stroke="#4477aa" points="10058.06,-245.29 10052.85,-246.25 10057.52,-248.75 10058.06,-245.29"/>
<text xml:space="preserve" text-anchor="middle" x="10275.12" y="-268.65" font-family="Helvetica,sans-Serif" font-size="7.00">blocked_by_external</text>
</g>
<!-- unresolved_CLEAN_CODE_export_diff_semver_signature_as_patch -->
<g id="node82" class="node">
<title>unresolved_CLEAN_CODE_export_diff_semver_signature_as_patch</title>
<path fill="#f2f2f2" stroke="black" stroke-dasharray="5,2" d="M10882.3,-320.5C10882.3,-320.5 10659.7,-320.5 10659.7,-320.5 10655.5,-320.5 10651.3,-316.3 10651.3,-312.1 10651.3,-312.1 10651.3,-303.7 10651.3,-303.7 10651.3,-299.5 10655.5,-295.3 10659.7,-295.3 10659.7,-295.3 10882.3,-295.3 10882.3,-295.3 10886.5,-295.3 10890.7,-299.5 10890.7,-303.7 10890.7,-303.7 10890.7,-312.1 10890.7,-312.1 10890.7,-316.3 10886.5,-320.5 10882.3,-320.5"/>
<text xml:space="preserve" text-anchor="middle" x="10771" y="-304.8" font-family="Helvetica,sans-Serif" font-size="8.00">missing: CLEAN_CODE_export&#45;diff&#45;semver&#45;signature&#45;as&#45;patch</text>
</g>
<!-- unresolved_CLEAN_CODE_export_diff_semver_signature_as_patch&#45;&gt;cool_ideas_WARP_auto_breaking_change_detection -->
<g id="edge14" class="edge">
<title>unresolved_CLEAN_CODE_export_diff_semver_signature_as_patch&#45;&gt;cool_ideas_WARP_auto_breaking_change_detection</title>
<path fill="none" stroke="#cc3333" stroke-dasharray="5,2" d="M10694.44,-294.84C10675.99,-292.14 10656.31,-289.45 10638,-287.3 10577.63,-280.2 10562.25,-281.23 10501.75,-275.3 10385.3,-263.89 10356.21,-260.73 10240,-247.05 10239.7,-247.02 10239.41,-246.98 10239.11,-246.94"/>
<polygon fill="#cc3333" stroke="#cc3333" points="10239.47,-245.23 10234.29,-246.37 10239.05,-248.7 10239.47,-245.23"/>
<text xml:space="preserve" text-anchor="middle" x="10519.38" y="-268.65" font-family="Helvetica,sans-Serif" font-size="7.00">blocked_by</text>
</g>
<!-- unresolved_CLEAN_CODE_export_diff_semver_signature_as_patch&#45;&gt;cool_ideas_WARP_semantic_merge_conflict_prediction -->
<g id="edge15" class="edge">
<title>unresolved_CLEAN_CODE_export_diff_semver_signature_as_patch&#45;&gt;cool_ideas_WARP_semantic_merge_conflict_prediction</title>
<path fill="none" stroke="#cc3333" stroke-dasharray="5,2" d="M10697.53,-294.86C10619.24,-282.03 10495.69,-261.78 10414.99,-248.56"/>
<polygon fill="#cc3333" stroke="#cc3333" points="10415.48,-246.87 10410.26,-247.78 10414.91,-250.32 10415.48,-246.87"/>
<text xml:space="preserve" text-anchor="middle" x="10583.7" y="-268.65" font-family="Helvetica,sans-Serif" font-size="7.00">blocked_by</text>
</g>
<!-- leg_v07 -->
<g id="node83" class="node">
<title>leg_v07</title>
<path fill="#ffa07a" stroke="black" stroke-width="2" d="M11007,-320.5C11007,-320.5 10923,-320.5 10923,-320.5 10918.8,-320.5 10914.6,-316.3 10914.6,-312.1 10914.6,-312.1 10914.6,-303.7 10914.6,-303.7 10914.6,-299.5 10918.8,-295.3 10923,-295.3 10923,-295.3 11007,-295.3 11007,-295.3 11011.2,-295.3 11015.4,-299.5 11015.4,-303.7 11015.4,-303.7 11015.4,-312.1 11015.4,-312.1 11015.4,-316.3 11011.2,-320.5 11007,-320.5"/>
<text xml:space="preserve" text-anchor="middle" x="10965" y="-305.38" font-family="Helvetica,sans-Serif" font-size="7.00">v0.7.0</text>
</g>
<!-- leg_bad -->
<g id="node84" class="node">
<title>leg_bad</title>
<path fill="#f6b3b3" stroke="black" stroke-width="2" d="M11007,-247.05C11007,-247.05 10923,-247.05 10923,-247.05 10918.8,-247.05 10914.6,-242.85 10914.6,-238.65 10914.6,-238.65 10914.6,-230.25 10914.6,-230.25 10914.6,-226.05 10918.8,-221.85 10923,-221.85 10923,-221.85 11007,-221.85 11007,-221.85 11011.2,-221.85 11015.4,-226.05 11015.4,-230.25 11015.4,-230.25 11015.4,-238.65 11015.4,-238.65 11015.4,-242.85 11011.2,-247.05 11007,-247.05"/>
<text xml:space="preserve" text-anchor="middle" x="10965" y="-231.92" font-family="Helvetica,sans-Serif" font-size="7.00">bad&#45;code</text>
</g>
<!-- leg_v07&#45;&gt;leg_bad -->
<!-- leg_idea -->
<g id="node85" class="node">
<title>leg_idea</title>
<path fill="#d4e8f7" stroke="black" d="M11007,-173.6C11007,-173.6 10923,-173.6 10923,-173.6 10918.8,-173.6 10914.6,-169.4 10914.6,-165.2 10914.6,-165.2 10914.6,-156.8 10914.6,-156.8 10914.6,-152.6 10918.8,-148.4 10923,-148.4 10923,-148.4 11007,-148.4 11007,-148.4 11011.2,-148.4 11015.4,-152.6 11015.4,-156.8 11015.4,-156.8 11015.4,-165.2 11015.4,-165.2 11015.4,-169.4 11011.2,-173.6 11007,-173.6"/>
<text xml:space="preserve" text-anchor="middle" x="10965" y="-158.47" font-family="Helvetica,sans-Serif" font-size="7.00">cool&#45;ideas</text>
</g>
<!-- leg_bad&#45;&gt;leg_idea -->
<!-- leg_external -->
<g id="node86" class="node">
<title>leg_external</title>
<path fill="#e8f2ff" stroke="black" d="M11007,-107.4C11007,-107.4 10923,-107.4 10923,-107.4 10918.8,-107.4 10914.6,-103.2 10914.6,-99 10914.6,-99 10914.6,-90.6 10914.6,-90.6 10914.6,-86.4 10918.8,-82.2 10923,-82.2 10923,-82.2 11007,-82.2 11007,-82.2 11011.2,-82.2 11015.4,-86.4 11015.4,-90.6 11015.4,-90.6 11015.4,-99 11015.4,-99 11015.4,-103.2 11011.2,-107.4 11007,-107.4"/>
<text xml:space="preserve" text-anchor="middle" x="10965" y="-92.28" font-family="Helvetica,sans-Serif" font-size="7.00">external blocker</text>
</g>
<!-- leg_idea&#45;&gt;leg_external -->
<!-- leg_unresolved -->
<g id="node87" class="node">
<title>leg_unresolved</title>
<path fill="#f2f2f2" stroke="black" stroke-dasharray="5,2" d="M11007,-41.2C11007,-41.2 10923,-41.2 10923,-41.2 10918.8,-41.2 10914.6,-37 10914.6,-32.8 10914.6,-32.8 10914.6,-24.4 10914.6,-24.4 10914.6,-20.2 10918.8,-16 10923,-16 10923,-16 11007,-16 11007,-16 11011.2,-16 11015.4,-20.2 11015.4,-24.4 11015.4,-24.4 11015.4,-32.8 11015.4,-32.8 11015.4,-37 11011.2,-41.2 11007,-41.2"/>
<text xml:space="preserve" text-anchor="middle" x="10965" y="-26.08" font-family="Helvetica,sans-Serif" font-size="7.00">unresolved ref</text>
</g>
<!-- leg_external&#45;&gt;leg_unresolved -->
</g>
</svg>
