<?xml version="1.0" encoding="UTF-8" standalone="no"?>
<!DOCTYPE svg PUBLIC "-//W3C//DTD SVG 1.1//EN"
 "http://www.w3.org/Graphics/SVG/1.1/DTD/svg11.dtd">
<!-- Generated by graphviz version 14.1.2 (20260124.0452)
 -->
<!-- Title: backlog Pages: 1 -->
<svg width="11024pt" height="383pt"
 viewBox="0.00 0.00 11024.00 383.00" xmlns="http://www.w3.org/2000/svg" xmlns:xlink="http://www.w3.org/1999/xlink">
<g id="graph0" class="graph" transform="scale(1 1) rotate(0) translate(4 379)">
<title>backlog</title>
<polygon fill="white" stroke="none" points="-4,4 -4,-379 11020,-379 11020,4 -4,4"/>
<text xml:space="preserve" text-anchor="middle" x="5508" y="-359.6" font-family="Helvetica,sans-Serif" font-size="12.00">Active backlog graph generated from docs/method/backlog/*/*.md</text>
<g id="clust1" class="cluster">
<title>cluster_v0_7_0</title>
<path fill="#fafafa" stroke="#cccccc" d="M20,-213.85C20,-213.85 412,-213.85 412,-213.85 418,-213.85 424,-219.85 424,-225.85 424,-225.85 424,-334.25 424,-334.25 424,-340.25 418,-346.25 412,-346.25 412,-346.25 20,-346.25 20,-346.25 14,-346.25 8,-340.25 8,-334.25 8,-334.25 8,-225.85 8,-225.85 8,-219.85 14,-213.85 20,-213.85"/>
<text xml:space="preserve" text-anchor="middle" x="35.12" y="-333.7" font-family="Helvetica,sans-Serif" font-size="9.00" fill="#555555">v0.7.0 (5)</text>
</g>
<g id="clust2" class="cluster">
<title>cluster_cool_ideas</title>
<path fill="#fafafa" stroke="#cccccc" d="M648,-140.4C648,-140.4 10608,-140.4 10608,-140.4 10614,-140.4 10620,-146.4 10620,-152.4 10620,-152.4 10620,-334.25 10620,-334.25 10620,-340.25 10614,-346.25 10608,-346.25 10608,-346.25 648,-346.25 648,-346.25 642,-346.25 636,-340.25 636,-334.25 636,-334.25 636,-152.4 636,-152.4 636,-146.4 642,-140.4 648,-140.4"/>
<text xml:space="preserve" text-anchor="middle" x="675.5" y="-333.7" font-family="Helvetica,sans-Serif" font-size="9.00" fill="#555555">Cool Ideas (77)</text>
</g>
<g id="clust3" class="cluster">
<title>cluster_external</title>
<path fill="#f8fbff" stroke="#cccccc" d="M444,-287.3C444,-287.3 616,-287.3 616,-287.3 622,-287.3 628,-293.3 628,-299.3 628,-299.3 628,-334.25 628,-334.25 628,-340.25 622,-346.25 616,-346.25 616,-346.25 444,-346.25 444,-346.25 438,-346.25 432,-340.25 432,-334.25 432,-334.25 432,-299.3 432,-299.3 432,-293.3 438,-287.3 444,-287.3"/>
<text xml:space="preserve" text-anchor="middle" x="475.25" y="-333.7" font-family="Helvetica,sans-Serif" font-size="9.00" fill="#555555">External blockers</text>
</g>
<g id="clust4" class="cluster">
<title>cluster_unresolved</title>
<path fill="#fff7f7" stroke="#cc3333" stroke-dasharray="5,2" d="M10640,-287.3C10640,-287.3 10872,-287.3 10872,-287.3 10878,-287.3 10884,-293.3 10884,-299.3 10884,-299.3 10884,-334.25 10884,-334.25 10884,-340.25 10878,-346.25 10872,-346.25 10872,-346.25 10640,-346.25 10640,-346.25 10634,-346.25 10628,-340.25 10628,-334.25 10628,-334.25 10628,-299.3 10628,-299.3 10628,-293.3 10634,-287.3 10640,-287.3"/>
<text xml:space="preserve" text-anchor="middle" x="10684.75" y="-333.7" font-family="Helvetica,sans-Serif" font-size="9.00" fill="#555555">Unresolved internal refs</text>
</g>
<g id="clust5" class="cluster">
<title>cluster_legend</title>
<path fill="none" stroke="#dddddd" d="M10904,-8C10904,-8 10996,-8 10996,-8 11002,-8 11008,-14 11008,-20 11008,-20 11008,-333.5 11008,-333.5 11008,-339.5 11002,-345.5 10996,-345.5 10996,-345.5 10904,-345.5 10904,-345.5 10898,-345.5 10892,-339.5 10892,-333.5 10892,-333.5 10892,-20 10892,-20 10892,-14 10898,-8 10904,-8"/>
<text xml:space="preserve" text-anchor="middle" x="10913.5" y="-333.9" font-family="Helvetica,sans-Serif" font-size="8.00" fill="#aaaaaa">Legend</text>
</g>
<!-- v0_7_0_CORE_agent_drift_warning -->
<g id="node1" class="node">
<title>v0_7_0_CORE_agent_drift_warning</title>
<path fill="#ffa07a" stroke="black" stroke-width="2" d="M116.05,-247.05C116.05,-247.05 23.95,-247.05 23.95,-247.05 19.75,-247.05 15.55,-242.85 15.55,-238.65 15.55,-238.65 15.55,-230.25 15.55,-230.25 15.55,-226.05 19.75,-221.85 23.95,-221.85 23.95,-221.85 116.05,-221.85 116.05,-221.85 120.25,-221.85 124.45,-226.05 124.45,-230.25 124.45,-230.25 124.45,-238.65 124.45,-238.65 124.45,-242.85 120.25,-247.05 116.05,-247.05"/>
<text xml:space="preserve" text-anchor="middle" x="70" y="-231.35" font-family="Helvetica,sans-Serif" font-size="8.00">CORE&#45;agent&#45;drift&#45;warning</text>
</g>
<!-- v0_7_0_CORE_migrate_to_slice_first_reads -->
<g id="node2" class="node">
<title>v0_7_0_CORE_migrate_to_slice_first_reads</title>
<path fill="#ffa07a" stroke="black" stroke-width="2" d="M407.8,-247.05C407.8,-247.05 290.2,-247.05 290.2,-247.05 286,-247.05 281.8,-242.85 281.8,-238.65 281.8,-238.65 281.8,-230.25 281.8,-230.25 281.8,-226.05 286,-221.85 290.2,-221.85 290.2,-221.85 407.8,-221.85 407.8,-221.85 412,-221.85 416.2,-226.05 416.2,-230.25 416.2,-230.25 416.2,-238.65 416.2,-238.65 416.2,-242.85 412,-247.05 407.8,-247.05"/>
<text xml:space="preserve" text-anchor="middle" x="349" y="-231.35" font-family="Helvetica,sans-Serif" font-size="8.00">CORE&#45;migrate&#45;to&#45;slice&#45;first&#45;reads</text>
</g>
<!-- v0_7_0_SURFACE_agent_dx_governed_edit -->
<g id="node3" class="node">
<title>v0_7_0_SURFACE_agent_dx_governed_edit</title>
<path fill="#ffa07a" stroke="black" stroke-width="2" d="M205.42,-320.5C205.42,-320.5 82.58,-320.5 82.58,-320.5 78.38,-320.5 74.17,-316.3 74.17,-312.1 74.17,-312.1 74.17,-303.7 74.17,-303.7 74.17,-299.5 78.38,-295.3 82.58,-295.3 82.58,-295.3 205.42,-295.3 205.42,-295.3 209.62,-295.3 213.82,-299.5 213.82,-303.7 213.82,-303.7 213.82,-312.1 213.82,-312.1 213.82,-316.3 209.62,-320.5 205.42,-320.5"/>
<text xml:space="preserve" text-anchor="middle" x="144" y="-304.8" font-family="Helvetica,sans-Serif" font-size="8.00">SURFACE&#45;agent&#45;dx&#45;governed&#45;edit</text>
</g>
<!-- v0_7_0_SURFACE_agent_dx_governed_edit&#45;&gt;v0_7_0_CORE_agent_drift_warning -->
<g id="edge16" class="edge">
<title>v0_7_0_SURFACE_agent_dx_governed_edit&#45;&gt;v0_7_0_CORE_agent_drift_warning</title>
<path fill="none" stroke="#666666" d="M128.04,-294.47C121.07,-288.83 112.93,-281.95 106,-275.3 98.57,-268.17 90.84,-259.77 84.47,-252.52"/>
<polygon fill="#666666" stroke="#666666" points="85.88,-251.48 81.28,-248.86 83.24,-253.78 85.88,-251.48"/>
<text xml:space="preserve" text-anchor="middle" x="137.5" y="-268.65" font-family="Helvetica,sans-Serif" font-size="7.00">blocked_by/blocking</text>
</g>
<!-- v0_7_0_SURFACE_governed_write_tools -->
<g id="node4" class="node">
<title>v0_7_0_SURFACE_governed_write_tools</title>
<path fill="#ffa07a" stroke="black" stroke-width="2" d="M259.18,-247.05C259.18,-247.05 146.83,-247.05 146.83,-247.05 142.62,-247.05 138.43,-242.85 138.43,-238.65 138.43,-238.65 138.43,-230.25 138.43,-230.25 138.43,-226.05 142.62,-221.85 146.83,-221.85 146.83,-221.85 259.18,-221.85 259.18,-221.85 263.38,-221.85 267.57,-226.05 267.57,-230.25 267.57,-230.25 267.57,-238.65 267.57,-238.65 267.57,-242.85 263.38,-247.05 259.18,-247.05"/>
<text xml:space="preserve" text-anchor="middle" x="203" y="-231.35" font-family="Helvetica,sans-Serif" font-size="8.00">SURFACE&#45;governed&#45;write&#45;tools</text>
</g>
<!-- v0_7_0_SURFACE_agent_dx_governed_edit&#45;&gt;v0_7_0_SURFACE_governed_write_tools -->
<g id="edge17" class="edge">
<title>v0_7_0_SURFACE_agent_dx_governed_edit&#45;&gt;v0_7_0_SURFACE_governed_write_tools</title>
<path fill="none" stroke="#666666" d="M154.28,-294.45C163.84,-282.88 178.17,-265.52 188.82,-252.63"/>
<polygon fill="#666666" stroke="#666666" points="190.04,-253.89 191.88,-248.92 187.34,-251.66 190.04,-253.89"/>
<text xml:space="preserve" text-anchor="middle" x="206.77" y="-268.65" font-family="Helvetica,sans-Serif" font-size="7.00">blocked_by/blocking</text>
</g>
<!-- v0_7_0_WARP_lsp_enrichment -->
<g id="node5" class="node">
<title>v0_7_0_WARP_lsp_enrichment</title>
<path fill="#ffa07a" stroke="black" stroke-width="2" d="M360.55,-320.5C360.55,-320.5 283.45,-320.5 283.45,-320.5 279.25,-320.5 275.05,-316.3 275.05,-312.1 275.05,-312.1 275.05,-303.7 275.05,-303.7 275.05,-299.5 279.25,-295.3 283.45,-295.3 283.45,-295.3 360.55,-295.3 360.55,-295.3 364.75,-295.3 368.95,-299.5 368.95,-303.7 368.95,-303.7 368.95,-312.1 368.95,-312.1 368.95,-316.3 364.75,-320.5 360.55,-320.5"/>
<text xml:space="preserve" text-anchor="middle" x="322" y="-304.8" font-family="Helvetica,sans-Serif" font-size="8.00">WARP&#45;lsp&#45;enrichment</text>
</g>
<!-- cool_ideas_bounded_neighborhood_for_references -->
<g id="node6" class="node">
<title>cool_ideas_bounded_neighborhood_for_references</title>
<path fill="#d4e8f7" stroke="black" d="M801.18,-320.5C801.18,-320.5 652.82,-320.5 652.82,-320.5 648.62,-320.5 644.42,-316.3 644.42,-312.1 644.42,-312.1 644.42,-303.7 644.42,-303.7 644.42,-299.5 648.62,-295.3 652.82,-295.3 652.82,-295.3 801.18,-295.3 801.18,-295.3 805.38,-295.3 809.58,-299.5 809.58,-303.7 809.58,-303.7 809.58,-312.1 809.58,-312.1 809.58,-316.3 805.38,-320.5 801.18,-320.5"/>
<text xml:space="preserve" text-anchor="middle" x="727" y="-304.8" font-family="Helvetica,sans-Serif" font-size="8.00">bounded&#45;neighborhood&#45;for&#45;references &#45; S</text>
</g>
<!-- cool_ideas_CI_001_causal_collapse_visualizer -->
<g id="node7" class="node">
<title>cool_ideas_CI_001_causal_collapse_visualizer</title>
<path fill="#d4e8f7" stroke="black" d="M7506.3,-247.05C7506.3,-247.05 7379.7,-247.05 7379.7,-247.05 7375.5,-247.05 7371.3,-242.85 7371.3,-238.65 7371.3,-238.65 7371.3,-230.25 7371.3,-230.25 7371.3,-226.05 7375.5,-221.85 7379.7,-221.85 7379.7,-221.85 7506.3,-221.85 7506.3,-221.85 7510.5,-221.85 7514.7,-226.05 7514.7,-230.25 7514.7,-230.25 7514.7,-238.65 7514.7,-238.65 7514.7,-242.85 7510.5,-247.05 7506.3,-247.05"/>
<text xml:space="preserve" text-anchor="middle" x="7443" y="-231.35" font-family="Helvetica,sans-Serif" font-size="8.00">CI&#45;001&#45;causal&#45;collapse&#45;visualizer &#45; L</text>
</g>
<!-- cool_ideas_CI_002_deterministic_scenario_replay -->
<g id="node8" class="node">
<title>cool_ideas_CI_002_deterministic_scenario_replay</title>
<path fill="#d4e8f7" stroke="black" d="M971.68,-320.5C971.68,-320.5 832.32,-320.5 832.32,-320.5 828.12,-320.5 823.92,-316.3 823.92,-312.1 823.92,-312.1 823.92,-303.7 823.92,-303.7 823.92,-299.5 828.12,-295.3 832.32,-295.3 832.32,-295.3 971.68,-295.3 971.68,-295.3 975.88,-295.3 980.08,-299.5 980.08,-303.7 980.08,-303.7 980.08,-312.1 980.08,-312.1 980.08,-316.3 975.88,-320.5 971.68,-320.5"/>
<text xml:space="preserve" text-anchor="middle" x="902" y="-304.8" font-family="Helvetica,sans-Serif" font-size="8.00">CI&#45;002&#45;deterministic&#45;scenario&#45;replay &#45; L</text>
</g>
<!-- cool_ideas_CI_003_mcp_native_diff_protocol -->
<g id="node9" class="node">
<title>cool_ideas_CI_003_mcp_native_diff_protocol</title>
<path fill="#d4e8f7" stroke="black" d="M1125.8,-320.5C1125.8,-320.5 1002.2,-320.5 1002.2,-320.5 998,-320.5 993.8,-316.3 993.8,-312.1 993.8,-312.1 993.8,-303.7 993.8,-303.7 993.8,-299.5 998,-295.3 1002.2,-295.3 1002.2,-295.3 1125.8,-295.3 1125.8,-295.3 1130,-295.3 1134.2,-299.5 1134.2,-303.7 1134.2,-303.7 1134.2,-312.1 1134.2,-312.1 1134.2,-316.3 1130,-320.5 1125.8,-320.5"/>
<text xml:space="preserve" text-anchor="middle" x="1064" y="-304.8" font-family="Helvetica,sans-Serif" font-size="8.00">CI&#45;003&#45;mcp&#45;native&#45;diff&#45;protocol &#45; M</text>
</g>
<!-- cool_ideas_CLEAN_CODE_parallel_agent_merge_shared_file_loss -->
<g id="node10" class="node">
<title>cool_ideas_CLEAN_CODE_parallel_agent_merge_shared_file_loss</title>
<path fill="#d4e8f7" stroke="black" d="M1357.05,-320.5C1357.05,-320.5 1156.95,-320.5 1156.95,-320.5 1152.75,-320.5 1148.55,-316.3 1148.55,-312.1 1148.55,-312.1 1148.55,-303.7 1148.55,-303.7 1148.55,-299.5 1152.75,-295.3 1156.95,-295.3 1156.95,-295.3 1357.05,-295.3 1357.05,-295.3 1361.25,-295.3 1365.45,-299.5 1365.45,-303.7 1365.45,-303.7 1365.45,-312.1 1365.45,-312.1 1365.45,-316.3 1361.25,-320.5 1357.05,-320.5"/>
<text xml:space="preserve" text-anchor="middle" x="1257" y="-304.8" font-family="Helvetica,sans-Serif" font-size="8.00">CLEAN&#45;CODE&#45;parallel&#45;agent&#45;merge&#45;shared&#45;file&#45;loss &#45; M</text>
</g>
<!-- cool_ideas_CORE_agent_handoff_protocol -->
<g id="node11" class="node">
<title>cool_ideas_CORE_agent_handoff_protocol</title>
<path fill="#d4e8f7" stroke="black" d="M1507.92,-320.5C1507.92,-320.5 1388.08,-320.5 1388.08,-320.5 1383.88,-320.5 1379.67,-316.3 1379.67,-312.1 1379.67,-312.1 1379.67,-303.7 1379.67,-303.7 1379.67,-299.5 1383.88,-295.3 1388.08,-295.3 1388.08,-295.3 1507.92,-295.3 1507.92,-295.3 1512.12,-295.3 1516.33,-299.5 1516.33,-303.7 1516.33,-303.7 1516.33,-312.1 1516.33,-312.1 1516.33,-316.3 1512.12,-320.5 1507.92,-320.5"/>
<text xml:space="preserve" text-anchor="middle" x="1448" y="-304.8" font-family="Helvetica,sans-Serif" font-size="8.00">CORE&#45;agent&#45;handoff&#45;protocol &#45; M</text>
</g>
<!-- cool_ideas_CORE_auto_focus -->
<g id="node12" class="node">
<title>cool_ideas_CORE_auto_focus</title>
<path fill="#d4e8f7" stroke="black" d="M1611.67,-320.5C1611.67,-320.5 1538.33,-320.5 1538.33,-320.5 1534.12,-320.5 1529.92,-316.3 1529.92,-312.1 1529.92,-312.1 1529.92,-303.7 1529.92,-303.7 1529.92,-299.5 1534.12,-295.3 1538.33,-295.3 1538.33,-295.3 1611.67,-295.3 1611.67,-295.3 1615.88,-295.3 1620.08,-299.5 1620.08,-303.7 1620.08,-303.7 1620.08,-312.1 1620.08,-312.1 1620.08,-316.3 1615.88,-320.5 1611.67,-320.5"/>
<text xml:space="preserve" text-anchor="middle" x="1575" y="-304.8" font-family="Helvetica,sans-Serif" font-size="8.00">CORE&#45;auto&#45;focus &#45; L</text>
</g>
<!-- cool_ideas_CORE_backlog_status_tool -->
<g id="node13" class="node">
<title>cool_ideas_CORE_backlog_status_tool</title>
<path fill="#d4e8f7" stroke="black" d="M1745.67,-320.5C1745.67,-320.5 1642.33,-320.5 1642.33,-320.5 1638.12,-320.5 1633.92,-316.3 1633.92,-312.1 1633.92,-312.1 1633.92,-303.7 1633.92,-303.7 1633.92,-299.5 1638.12,-295.3 1642.33,-295.3 1642.33,-295.3 1745.67,-295.3 1745.67,-295.3 1749.88,-295.3 1754.08,-299.5 1754.08,-303.7 1754.08,-303.7 1754.08,-312.1 1754.08,-312.1 1754.08,-316.3 1749.88,-320.5 1745.67,-320.5"/>
<text xml:space="preserve" text-anchor="middle" x="1694" y="-304.8" font-family="Helvetica,sans-Serif" font-size="8.00">CORE&#45;backlog&#45;status&#45;tool &#45; S</text>
</g>
<!-- cool_ideas_CORE_capture_range -->
<g id="node14" class="node">
<title>cool_ideas_CORE_capture_range</title>
<path fill="#d4e8f7" stroke="black" d="M1863.8,-320.5C1863.8,-320.5 1776.2,-320.5 1776.2,-320.5 1772,-320.5 1767.8,-316.3 1767.8,-312.1 1767.8,-312.1 1767.8,-303.7 1767.8,-303.7 1767.8,-299.5 1772,-295.3 1776.2,-295.3 1776.2,-295.3 1863.8,-295.3 1863.8,-295.3 1868,-295.3 1872.2,-299.5 1872.2,-303.7 1872.2,-303.7 1872.2,-312.1 1872.2,-312.1 1872.2,-316.3 1868,-320.5 1863.8,-320.5"/>
<text xml:space="preserve" text-anchor="middle" x="1820" y="-304.8" font-family="Helvetica,sans-Serif" font-size="8.00">CORE&#45;capture&#45;range &#45; S</text>
</g>
<!-- cool_ideas_CORE_constructor_in_disguise_lint -->
<g id="node15" class="node">
<title>cool_ideas_CORE_constructor_in_disguise_lint</title>
<path fill="#d4e8f7" stroke="black" d="M2025.55,-320.5C2025.55,-320.5 1894.45,-320.5 1894.45,-320.5 1890.25,-320.5 1886.05,-316.3 1886.05,-312.1 1886.05,-312.1 1886.05,-303.7 1886.05,-303.7 1886.05,-299.5 1890.25,-295.3 1894.45,-295.3 1894.45,-295.3 2025.55,-295.3 2025.55,-295.3 2029.75,-295.3 2033.95,-299.5 2033.95,-303.7 2033.95,-303.7 2033.95,-312.1 2033.95,-312.1 2033.95,-316.3 2029.75,-320.5 2025.55,-320.5"/>
<text xml:space="preserve" text-anchor="middle" x="1960" y="-304.8" font-family="Helvetica,sans-Serif" font-size="8.00">CORE&#45;constructor&#45;in&#45;disguise&#45;lint &#45; M</text>
</g>
<!-- cool_ideas_CORE_context_budget_forecasting -->
<g id="node16" class="node">
<title>cool_ideas_CORE_context_budget_forecasting</title>
<path fill="#d4e8f7" stroke="black" d="M2189.67,-320.5C2189.67,-320.5 2056.32,-320.5 2056.32,-320.5 2052.12,-320.5 2047.92,-316.3 2047.92,-312.1 2047.92,-312.1 2047.92,-303.7 2047.92,-303.7 2047.92,-299.5 2052.12,-295.3 2056.32,-295.3 2056.32,-295.3 2189.67,-295.3 2189.67,-295.3 2193.88,-295.3 2198.07,-299.5 2198.07,-303.7 2198.07,-303.7 2198.07,-312.1 2198.07,-312.1 2198.07,-316.3 2193.88,-320.5 2189.67,-320.5"/>
<text xml:space="preserve" text-anchor="middle" x="2123" y="-304.8" font-family="Helvetica,sans-Serif" font-size="8.00">CORE&#45;context&#45;budget&#45;forecasting &#45; M</text>
</g>
<!-- cool_ideas_CORE_conversation_primer -->
<g id="node17" class="node">
<title>cool_ideas_CORE_conversation_primer</title>
<path fill="#d4e8f7" stroke="black" d="M2329.67,-320.5C2329.67,-320.5 2220.33,-320.5 2220.33,-320.5 2216.12,-320.5 2211.93,-316.3 2211.93,-312.1 2211.93,-312.1 2211.93,-303.7 2211.93,-303.7 2211.93,-299.5 2216.12,-295.3 2220.33,-295.3 2220.33,-295.3 2329.67,-295.3 2329.67,-295.3 2333.88,-295.3 2338.07,-299.5 2338.07,-303.7 2338.07,-303.7 2338.07,-312.1 2338.07,-312.1 2338.07,-316.3 2333.88,-320.5 2329.67,-320.5"/>
<text xml:space="preserve" text-anchor="middle" x="2275" y="-304.8" font-family="Helvetica,sans-Serif" font-size="8.00">CORE&#45;conversation&#45;primer &#45; M</text>
</g>
<!-- cool_ideas_CORE_cross_session_resume -->
<g id="node18" class="node">
<title>cool_ideas_CORE_cross_session_resume</title>
<path fill="#d4e8f7" stroke="black" d="M2475.3,-320.5C2475.3,-320.5 2360.7,-320.5 2360.7,-320.5 2356.5,-320.5 2352.3,-316.3 2352.3,-312.1 2352.3,-312.1 2352.3,-303.7 2352.3,-303.7 2352.3,-299.5 2356.5,-295.3 2360.7,-295.3 2360.7,-295.3 2475.3,-295.3 2475.3,-295.3 2479.5,-295.3 2483.7,-299.5 2483.7,-303.7 2483.7,-303.7 2483.7,-312.1 2483.7,-312.1 2483.7,-316.3 2479.5,-320.5 2475.3,-320.5"/>
<text xml:space="preserve" text-anchor="middle" x="2418" y="-304.8" font-family="Helvetica,sans-Serif" font-size="8.00">CORE&#45;cross&#45;session&#45;resume &#45; S</text>
</g>
<!-- cool_ideas_CORE_graft_as_teacher -->
<g id="node19" class="node">
<title>cool_ideas_CORE_graft_as_teacher</title>
<path fill="#d4e8f7" stroke="black" d="M2600.17,-320.5C2600.17,-320.5 2505.83,-320.5 2505.83,-320.5 2501.62,-320.5 2497.43,-316.3 2497.43,-312.1 2497.43,-312.1 2497.43,-303.7 2497.43,-303.7 2497.43,-299.5 2501.62,-295.3 2505.83,-295.3 2505.83,-295.3 2600.17,-295.3 2600.17,-295.3 2604.38,-295.3 2608.57,-299.5 2608.57,-303.7 2608.57,-303.7 2608.57,-312.1 2608.57,-312.1 2608.57,-316.3 2604.38,-320.5 2600.17,-320.5"/>
<text xml:space="preserve" text-anchor="middle" x="2553" y="-304.8" font-family="Helvetica,sans-Serif" font-size="8.00">CORE&#45;graft&#45;as&#45;teacher &#45; S</text>
</g>
<!-- cool_ideas_CORE_graft_doctor -->
<g id="node20" class="node">
<title>cool_ideas_CORE_graft_doctor</title>
<path fill="#d4e8f7" stroke="black" d="M2711.05,-320.5C2711.05,-320.5 2630.95,-320.5 2630.95,-320.5 2626.75,-320.5 2622.55,-316.3 2622.55,-312.1 2622.55,-312.1 2622.55,-303.7 2622.55,-303.7 2622.55,-299.5 2626.75,-295.3 2630.95,-295.3 2630.95,-295.3 2711.05,-295.3 2711.05,-295.3 2715.25,-295.3 2719.45,-299.5 2719.45,-303.7 2719.45,-303.7 2719.45,-312.1 2719.45,-312.1 2719.45,-316.3 2715.25,-320.5 2711.05,-320.5"/>
<text xml:space="preserve" text-anchor="middle" x="2671" y="-304.8" font-family="Helvetica,sans-Serif" font-size="8.00">CORE&#45;graft&#45;doctor &#45; M</text>
</g>
<!-- cool_ideas_CORE_graft_teach_learning_receipts -->
<g id="node21" class="node">
<title>cool_ideas_CORE_graft_teach_learning_receipts</title>
<path fill="#d4e8f7" stroke="black" d="M2879.92,-320.5C2879.92,-320.5 2742.08,-320.5 2742.08,-320.5 2737.88,-320.5 2733.68,-316.3 2733.68,-312.1 2733.68,-312.1 2733.68,-303.7 2733.68,-303.7 2733.68,-299.5 2737.88,-295.3 2742.08,-295.3 2742.08,-295.3 2879.92,-295.3 2879.92,-295.3 2884.12,-295.3 2888.32,-299.5 2888.32,-303.7 2888.32,-303.7 2888.32,-312.1 2888.32,-312.1 2888.32,-316.3 2884.12,-320.5 2879.92,-320.5"/>
<text xml:space="preserve" text-anchor="middle" x="2811" y="-304.8" font-family="Helvetica,sans-Serif" font-size="8.00">CORE&#45;graft&#45;teach&#45;learning&#45;receipts &#45; S</text>
</g>
<!-- cool_ideas_CORE_horizon_of_readability -->
<g id="node22" class="node">
<title>cool_ideas_CORE_horizon_of_readability</title>
<path fill="#d4e8f7" stroke="black" d="M3023.55,-320.5C3023.55,-320.5 2910.45,-320.5 2910.45,-320.5 2906.25,-320.5 2902.05,-316.3 2902.05,-312.1 2902.05,-312.1 2902.05,-303.7 2902.05,-303.7 2902.05,-299.5 2906.25,-295.3 2910.45,-295.3 2910.45,-295.3 3023.55,-295.3 3023.55,-295.3 3027.75,-295.3 3031.95,-299.5 3031.95,-303.7 3031.95,-303.7 3031.95,-312.1 3031.95,-312.1 3031.95,-316.3 3027.75,-320.5 3023.55,-320.5"/>
<text xml:space="preserve" text-anchor="middle" x="2967" y="-304.8" font-family="Helvetica,sans-Serif" font-size="8.00">CORE&#45;horizon&#45;of&#45;readability &#45; M</text>
</g>
<!-- cool_ideas_CORE_lagrangian_policy -->
<g id="node23" class="node">
<title>cool_ideas_CORE_lagrangian_policy</title>
<path fill="#d4e8f7" stroke="black" d="M3155.55,-320.5C3155.55,-320.5 3054.45,-320.5 3054.45,-320.5 3050.25,-320.5 3046.05,-316.3 3046.05,-312.1 3046.05,-312.1 3046.05,-303.7 3046.05,-303.7 3046.05,-299.5 3050.25,-295.3 3054.45,-295.3 3054.45,-295.3 3155.55,-295.3 3155.55,-295.3 3159.75,-295.3 3163.95,-299.5 3163.95,-303.7 3163.95,-303.7 3163.95,-312.1 3163.95,-312.1 3163.95,-316.3 3159.75,-320.5 3155.55,-320.5"/>
<text xml:space="preserve" text-anchor="middle" x="3105" y="-304.8" font-family="Helvetica,sans-Serif" font-size="8.00">CORE&#45;lagrangian&#45;policy &#45; XL</text>
</g>
<!-- cool_ideas_CORE_multi_agent_conflict_detection -->
<g id="node24" class="node">
<title>cool_ideas_CORE_multi_agent_conflict_detection</title>
<path fill="#d4e8f7" stroke="black" d="M3323.92,-320.5C3323.92,-320.5 3186.08,-320.5 3186.08,-320.5 3181.88,-320.5 3177.68,-316.3 3177.68,-312.1 3177.68,-312.1 3177.68,-303.7 3177.68,-303.7 3177.68,-299.5 3181.88,-295.3 3186.08,-295.3 3186.08,-295.3 3323.92,-295.3 3323.92,-295.3 3328.12,-295.3 3332.32,-299.5 3332.32,-303.7 3332.32,-303.7 3332.32,-312.1 3332.32,-312.1 3332.32,-316.3 3328.12,-320.5 3323.92,-320.5"/>
<text xml:space="preserve" text-anchor="middle" x="3255" y="-304.8" font-family="Helvetica,sans-Serif" font-size="8.00">CORE&#45;multi&#45;agent&#45;conflict&#45;detection &#45; L</text>
</g>
<!-- cool_ideas_CORE_policy_playground -->
<g id="node25" class="node">
<title>cool_ideas_CORE_policy_playground</title>
<path fill="#d4e8f7" stroke="black" d="M3453.42,-320.5C3453.42,-320.5 3354.58,-320.5 3354.58,-320.5 3350.38,-320.5 3346.18,-316.3 3346.18,-312.1 3346.18,-312.1 3346.18,-303.7 3346.18,-303.7 3346.18,-299.5 3350.38,-295.3 3354.58,-295.3 3354.58,-295.3 3453.42,-295.3 3453.42,-295.3 3457.62,-295.3 3461.82,-299.5 3461.82,-303.7 3461.82,-303.7 3461.82,-312.1 3461.82,-312.1 3461.82,-316.3 3457.62,-320.5 3453.42,-320.5"/>
<text xml:space="preserve" text-anchor="middle" x="3404" y="-304.8" font-family="Helvetica,sans-Serif" font-size="8.00">CORE&#45;policy&#45;playground &#45; S</text>
</g>
<!-- cool_ideas_CORE_policy_profiles -->
<g id="node26" class="node">
<title>cool_ideas_CORE_policy_profiles</title>
<path fill="#d4e8f7" stroke="black" d="M3570.05,-320.5C3570.05,-320.5 3483.95,-320.5 3483.95,-320.5 3479.75,-320.5 3475.55,-316.3 3475.55,-312.1 3475.55,-312.1 3475.55,-303.7 3475.55,-303.7 3475.55,-299.5 3479.75,-295.3 3483.95,-295.3 3483.95,-295.3 3570.05,-295.3 3570.05,-295.3 3574.25,-295.3 3578.45,-299.5 3578.45,-303.7 3578.45,-303.7 3578.45,-312.1 3578.45,-312.1 3578.45,-316.3 3574.25,-320.5 3570.05,-320.5"/>
<text xml:space="preserve" text-anchor="middle" x="3527" y="-304.8" font-family="Helvetica,sans-Serif" font-size="8.00">CORE&#45;policy&#45;profiles &#45; M</text>
</g>
<!-- cool_ideas_CORE_pr_review_structural_summary -->
<g id="node27" class="node">
<title>cool_ideas_CORE_pr_review_structural_summary</title>
<path fill="#d4e8f7" stroke="black" d="M3744.92,-320.5C3744.92,-320.5 3601.08,-320.5 3601.08,-320.5 3596.88,-320.5 3592.68,-316.3 3592.68,-312.1 3592.68,-312.1 3592.68,-303.7 3592.68,-303.7 3592.68,-299.5 3596.88,-295.3 3601.08,-295.3 3601.08,-295.3 3744.92,-295.3 3744.92,-295.3 3749.12,-295.3 3753.32,-299.5 3753.32,-303.7 3753.32,-303.7 3753.32,-312.1 3753.32,-312.1 3753.32,-316.3 3749.12,-320.5 3744.92,-320.5"/>
<text xml:space="preserve" text-anchor="middle" x="3673" y="-304.8" font-family="Helvetica,sans-Serif" font-size="8.00">CORE&#45;pr&#45;review&#45;structural&#45;summary &#45; M</text>
</g>
<!-- cool_ideas_CORE_self_tuning_governor -->
<g id="node28" class="node">
<title>cool_ideas_CORE_self_tuning_governor</title>
<path fill="#d4e8f7" stroke="black" d="M3886.05,-320.5C3886.05,-320.5 3775.95,-320.5 3775.95,-320.5 3771.75,-320.5 3767.55,-316.3 3767.55,-312.1 3767.55,-312.1 3767.55,-303.7 3767.55,-303.7 3767.55,-299.5 3771.75,-295.3 3775.95,-295.3 3775.95,-295.3 3886.05,-295.3 3886.05,-295.3 3890.25,-295.3 3894.45,-299.5 3894.45,-303.7 3894.45,-303.7 3894.45,-312.1 3894.45,-312.1 3894.45,-316.3 3890.25,-320.5 3886.05,-320.5"/>
<text xml:space="preserve" text-anchor="middle" x="3831" y="-304.8" font-family="Helvetica,sans-Serif" font-size="8.00">CORE&#45;self&#45;tuning&#45;governor &#45; M</text>
</g>
<!-- cool_ideas_CORE_session_knowledge_map -->
<g id="node29" class="node">
<title>cool_ideas_CORE_session_knowledge_map</title>
<path fill="#d4e8f7" stroke="black" d="M4039.42,-320.5C4039.42,-320.5 3916.58,-320.5 3916.58,-320.5 3912.38,-320.5 3908.18,-316.3 3908.18,-312.1 3908.18,-312.1 3908.18,-303.7 3908.18,-303.7 3908.18,-299.5 3912.38,-295.3 3916.58,-295.3 3916.58,-295.3 4039.42,-295.3 4039.42,-295.3 4043.62,-295.3 4047.82,-299.5 4047.82,-303.7 4047.82,-303.7 4047.82,-312.1 4047.82,-312.1 4047.82,-316.3 4043.62,-320.5 4039.42,-320.5"/>
<text xml:space="preserve" text-anchor="middle" x="3978" y="-304.8" font-family="Helvetica,sans-Serif" font-size="8.00">CORE&#45;session&#45;knowledge&#45;map &#45; S</text>
</g>
<!-- cool_ideas_CORE_speculative_read_cost -->
<g id="node30" class="node">
<title>cool_ideas_CORE_speculative_read_cost</title>
<path fill="#d4e8f7" stroke="black" d="M4182.18,-320.5C4182.18,-320.5 4069.83,-320.5 4069.83,-320.5 4065.62,-320.5 4061.43,-316.3 4061.43,-312.1 4061.43,-312.1 4061.43,-303.7 4061.43,-303.7 4061.43,-299.5 4065.62,-295.3 4069.83,-295.3 4069.83,-295.3 4182.18,-295.3 4182.18,-295.3 4186.38,-295.3 4190.57,-299.5 4190.57,-303.7 4190.57,-303.7 4190.57,-312.1 4190.57,-312.1 4190.57,-316.3 4186.38,-320.5 4182.18,-320.5"/>
<text xml:space="preserve" text-anchor="middle" x="4126" y="-304.8" font-family="Helvetica,sans-Serif" font-size="8.00">CORE&#45;speculative&#45;read&#45;cost &#45; S</text>
</g>
<!-- cool_ideas_CORE_structural_session_replay -->
<g id="node31" class="node">
<title>cool_ideas_CORE_structural_session_replay</title>
<path fill="#d4e8f7" stroke="black" d="M4338.55,-320.5C4338.55,-320.5 4213.45,-320.5 4213.45,-320.5 4209.25,-320.5 4205.05,-316.3 4205.05,-312.1 4205.05,-312.1 4205.05,-303.7 4205.05,-303.7 4205.05,-299.5 4209.25,-295.3 4213.45,-295.3 4213.45,-295.3 4338.55,-295.3 4338.55,-295.3 4342.75,-295.3 4346.95,-299.5 4346.95,-303.7 4346.95,-303.7 4346.95,-312.1 4346.95,-312.1 4346.95,-316.3 4342.75,-320.5 4338.55,-320.5"/>
<text xml:space="preserve" text-anchor="middle" x="4276" y="-304.8" font-family="Helvetica,sans-Serif" font-size="8.00">CORE&#45;structural&#45;session&#45;replay &#45; M</text>
</g>
<!-- cool_ideas_CORE_structural_test_coverage_map -->
<g id="node32" class="node">
<title>cool_ideas_CORE_structural_test_coverage_map</title>
<path fill="#d4e8f7" stroke="black" d="M4510.8,-320.5C4510.8,-320.5 4369.2,-320.5 4369.2,-320.5 4365,-320.5 4360.8,-316.3 4360.8,-312.1 4360.8,-312.1 4360.8,-303.7 4360.8,-303.7 4360.8,-299.5 4365,-295.3 4369.2,-295.3 4369.2,-295.3 4510.8,-295.3 4510.8,-295.3 4515,-295.3 4519.2,-299.5 4519.2,-303.7 4519.2,-303.7 4519.2,-312.1 4519.2,-312.1 4519.2,-316.3 4515,-320.5 4510.8,-320.5"/>
<text xml:space="preserve" text-anchor="middle" x="4440" y="-304.8" font-family="Helvetica,sans-Serif" font-size="8.00">CORE&#45;structural&#45;test&#45;coverage&#45;map &#45; M</text>
</g>
<!-- cool_ideas_CORE_wire_primitives_into_runtime -->
<g id="node33" class="node">
<title>cool_ideas_CORE_wire_primitives_into_runtime</title>
<path fill="#d4e8f7" stroke="black" d="M4676.43,-320.5C4676.43,-320.5 4541.57,-320.5 4541.57,-320.5 4537.38,-320.5 4533.18,-316.3 4533.18,-312.1 4533.18,-312.1 4533.18,-303.7 4533.18,-303.7 4533.18,-299.5 4537.38,-295.3 4541.57,-295.3 4541.57,-295.3 4676.43,-295.3 4676.43,-295.3 4680.62,-295.3 4684.82,-299.5 4684.82,-303.7 4684.82,-303.7 4684.82,-312.1 4684.82,-312.1 4684.82,-316.3 4680.62,-320.5 4676.43,-320.5"/>
<text xml:space="preserve" text-anchor="middle" x="4609" y="-304.8" font-family="Helvetica,sans-Serif" font-size="8.00">CORE&#45;wire&#45;primitives&#45;into&#45;runtime &#45; M</text>
</g>
<!-- cool_ideas_monitor_tick_ceiling_tracking -->
<g id="node34" class="node">
<title>cool_ideas_monitor_tick_ceiling_tracking</title>
<path fill="#d4e8f7" stroke="black" d="M4814.55,-320.5C4814.55,-320.5 4707.45,-320.5 4707.45,-320.5 4703.25,-320.5 4699.05,-316.3 4699.05,-312.1 4699.05,-312.1 4699.05,-303.7 4699.05,-303.7 4699.05,-299.5 4703.25,-295.3 4707.45,-295.3 4707.45,-295.3 4814.55,-295.3 4814.55,-295.3 4818.75,-295.3 4822.95,-299.5 4822.95,-303.7 4822.95,-303.7 4822.95,-312.1 4822.95,-312.1 4822.95,-316.3 4818.75,-320.5 4814.55,-320.5"/>
<text xml:space="preserve" text-anchor="middle" x="4761" y="-304.8" font-family="Helvetica,sans-Serif" font-size="8.00">monitor&#45;tick&#45;ceiling&#45;tracking &#45; S</text>
</g>
<!-- cool_ideas_WARP_background_indexing -->
<g id="node50" class="node">
<title>cool_ideas_WARP_background_indexing</title>
<path fill="#d4e8f7" stroke="black" d="M4817.55,-247.05C4817.55,-247.05 4704.45,-247.05 4704.45,-247.05 4700.25,-247.05 4696.05,-242.85 4696.05,-238.65 4696.05,-238.65 4696.05,-230.25 4696.05,-230.25 4696.05,-226.05 4700.25,-221.85 4704.45,-221.85 4704.45,-221.85 4817.55,-221.85 4817.55,-221.85 4821.75,-221.85 4825.95,-226.05 4825.95,-230.25 4825.95,-230.25 4825.95,-238.65 4825.95,-238.65 4825.95,-242.85 4821.75,-247.05 4817.55,-247.05"/>
<text xml:space="preserve" text-anchor="middle" x="4761" y="-231.35" font-family="Helvetica,sans-Serif" font-size="8.00">WARP&#45;background&#45;indexing &#45; M</text>
</g>
<!-- cool_ideas_monitor_tick_ceiling_tracking&#45;&gt;cool_ideas_WARP_background_indexing -->
<g id="edge1" class="edge">
<title>cool_ideas_monitor_tick_ceiling_tracking&#45;&gt;cool_ideas_WARP_background_indexing</title>
<path fill="none" stroke="#666666" d="M4761,-295.1C4761,-283.9 4761,-266.88 4761,-253.88"/>
<polygon fill="#666666" stroke="#666666" points="4762.75,-254.02 4761,-249.02 4759.25,-254.02 4762.75,-254.02"/>
<text xml:space="preserve" text-anchor="middle" x="4792.5" y="-268.65" font-family="Helvetica,sans-Serif" font-size="7.00">blocked_by/blocking</text>
</g>
<!-- cool_ideas_SURFACE_active_causal_workspace_status -->
<g id="node35" class="node">
<title>cool_ideas_SURFACE_active_causal_workspace_status</title>
<path fill="#d4e8f7" stroke="black" d="M5009.05,-320.5C5009.05,-320.5 4844.95,-320.5 4844.95,-320.5 4840.75,-320.5 4836.55,-316.3 4836.55,-312.1 4836.55,-312.1 4836.55,-303.7 4836.55,-303.7 4836.55,-299.5 4840.75,-295.3 4844.95,-295.3 4844.95,-295.3 5009.05,-295.3 5009.05,-295.3 5013.25,-295.3 5017.45,-299.5 5017.45,-303.7 5017.45,-303.7 5017.45,-312.1 5017.45,-312.1 5017.45,-316.3 5013.25,-320.5 5009.05,-320.5"/>
<text xml:space="preserve" text-anchor="middle" x="4927" y="-304.8" font-family="Helvetica,sans-Serif" font-size="8.00">SURFACE&#45;active&#45;causal&#45;workspace&#45;status &#45; M</text>
</g>
<!-- cool_ideas_SURFACE_ide_native_graft_integration -->
<g id="node41" class="node">
<title>cool_ideas_SURFACE_ide_native_graft_integration</title>
<path fill="#d4e8f7" stroke="black" d="M5002.3,-247.05C5002.3,-247.05 4851.7,-247.05 4851.7,-247.05 4847.5,-247.05 4843.3,-242.85 4843.3,-238.65 4843.3,-238.65 4843.3,-230.25 4843.3,-230.25 4843.3,-226.05 4847.5,-221.85 4851.7,-221.85 4851.7,-221.85 5002.3,-221.85 5002.3,-221.85 5006.5,-221.85 5010.7,-226.05 5010.7,-230.25 5010.7,-230.25 5010.7,-238.65 5010.7,-238.65 5010.7,-242.85 5006.5,-247.05 5002.3,-247.05"/>
<text xml:space="preserve" text-anchor="middle" x="4927" y="-231.35" font-family="Helvetica,sans-Serif" font-size="8.00">SURFACE&#45;ide&#45;native&#45;graft&#45;integration &#45; XL</text>
</g>
<!-- cool_ideas_SURFACE_active_causal_workspace_status&#45;&gt;cool_ideas_SURFACE_ide_native_graft_integration -->
<g id="edge2" class="edge">
<title>cool_ideas_SURFACE_active_causal_workspace_status&#45;&gt;cool_ideas_SURFACE_ide_native_graft_integration</title>
<path fill="none" stroke="#666666" d="M4927,-295.1C4927,-283.9 4927,-266.88 4927,-253.88"/>
<polygon fill="#666666" stroke="#666666" points="4928.75,-254.02 4927,-249.02 4925.25,-254.02 4928.75,-254.02"/>
<text xml:space="preserve" text-anchor="middle" x="4958.5" y="-268.65" font-family="Helvetica,sans-Serif" font-size="7.00">blocked_by/blocking</text>
</g>
<!-- cool_ideas_SURFACE_attach_to_existing_causal_session -->
<g id="node36" class="node">
<title>cool_ideas_SURFACE_attach_to_existing_causal_session</title>
<path fill="#d4e8f7" stroke="black" d="M5208.3,-320.5C5208.3,-320.5 5039.7,-320.5 5039.7,-320.5 5035.5,-320.5 5031.3,-316.3 5031.3,-312.1 5031.3,-312.1 5031.3,-303.7 5031.3,-303.7 5031.3,-299.5 5035.5,-295.3 5039.7,-295.3 5039.7,-295.3 5208.3,-295.3 5208.3,-295.3 5212.5,-295.3 5216.7,-299.5 5216.7,-303.7 5216.7,-303.7 5216.7,-312.1 5216.7,-312.1 5216.7,-316.3 5212.5,-320.5 5208.3,-320.5"/>
<text xml:space="preserve" text-anchor="middle" x="5124" y="-304.8" font-family="Helvetica,sans-Serif" font-size="8.00">SURFACE&#45;attach&#45;to&#45;existing&#45;causal&#45;session &#45; M</text>
</g>
<!-- cool_ideas_SURFACE_bijou_daemon_control_plane_actions -->
<g id="node37" class="node">
<title>cool_ideas_SURFACE_bijou_daemon_control_plane_actions</title>
<path fill="#d4e8f7" stroke="black" d="M5416.43,-320.5C5416.43,-320.5 5239.57,-320.5 5239.57,-320.5 5235.38,-320.5 5231.18,-316.3 5231.18,-312.1 5231.18,-312.1 5231.18,-303.7 5231.18,-303.7 5231.18,-299.5 5235.38,-295.3 5239.57,-295.3 5239.57,-295.3 5416.43,-295.3 5416.43,-295.3 5420.62,-295.3 5424.82,-299.5 5424.82,-303.7 5424.82,-303.7 5424.82,-312.1 5424.82,-312.1 5424.82,-316.3 5420.62,-320.5 5416.43,-320.5"/>
<text xml:space="preserve" text-anchor="middle" x="5328" y="-304.8" font-family="Helvetica,sans-Serif" font-size="8.00">SURFACE&#45;bijou&#45;daemon&#45;control&#45;plane&#45;actions &#45; L</text>
</g>
<!-- cool_ideas_SURFACE_bijou_daemon_status_live_refresh -->
<g id="node38" class="node">
<title>cool_ideas_SURFACE_bijou_daemon_status_live_refresh</title>
<path fill="#d4e8f7" stroke="black" d="M5616.3,-320.5C5616.3,-320.5 5447.7,-320.5 5447.7,-320.5 5443.5,-320.5 5439.3,-316.3 5439.3,-312.1 5439.3,-312.1 5439.3,-303.7 5439.3,-303.7 5439.3,-299.5 5443.5,-295.3 5447.7,-295.3 5447.7,-295.3 5616.3,-295.3 5616.3,-295.3 5620.5,-295.3 5624.7,-299.5 5624.7,-303.7 5624.7,-303.7 5624.7,-312.1 5624.7,-312.1 5624.7,-316.3 5620.5,-320.5 5616.3,-320.5"/>
<text xml:space="preserve" text-anchor="middle" x="5532" y="-304.8" font-family="Helvetica,sans-Serif" font-size="8.00">SURFACE&#45;bijou&#45;daemon&#45;status&#45;live&#45;refresh &#45; M</text>
</g>
<!-- cool_ideas_SURFACE_git_graft_enhance_expanded_git_subcommands -->
<g id="node39" class="node">
<title>cool_ideas_SURFACE_git_graft_enhance_expanded_git_subcommands</title>
<path fill="#d4e8f7" stroke="black" d="M5851.3,-320.5C5851.3,-320.5 5646.7,-320.5 5646.7,-320.5 5642.5,-320.5 5638.3,-316.3 5638.3,-312.1 5638.3,-312.1 5638.3,-303.7 5638.3,-303.7 5638.3,-299.5 5642.5,-295.3 5646.7,-295.3 5646.7,-295.3 5851.3,-295.3 5851.3,-295.3 5855.5,-295.3 5859.7,-299.5 5859.7,-303.7 5859.7,-303.7 5859.7,-312.1 5859.7,-312.1 5859.7,-316.3 5855.5,-320.5 5851.3,-320.5"/>
<text xml:space="preserve" text-anchor="middle" x="5749" y="-304.8" font-family="Helvetica,sans-Serif" font-size="8.00">SURFACE&#45;git&#45;graft&#45;enhance&#45;expanded&#45;git&#45;subcommands</text>
</g>
<!-- cool_ideas_SURFACE_git_graft_enhance_provenance_hints -->
<g id="node40" class="node">
<title>cool_ideas_SURFACE_git_graft_enhance_provenance_hints</title>
<path fill="#d4e8f7" stroke="black" d="M6047.43,-320.5C6047.43,-320.5 5882.57,-320.5 5882.57,-320.5 5878.38,-320.5 5874.18,-316.3 5874.18,-312.1 5874.18,-312.1 5874.18,-303.7 5874.18,-303.7 5874.18,-299.5 5878.38,-295.3 5882.57,-295.3 5882.57,-295.3 6047.43,-295.3 6047.43,-295.3 6051.62,-295.3 6055.82,-299.5 6055.82,-303.7 6055.82,-303.7 6055.82,-312.1 6055.82,-312.1 6055.82,-316.3 6051.62,-320.5 6047.43,-320.5"/>
<text xml:space="preserve" text-anchor="middle" x="5965" y="-304.8" font-family="Helvetica,sans-Serif" font-size="8.00">SURFACE&#45;git&#45;graft&#45;enhance&#45;provenance&#45;hints</text>
</g>
<!-- cool_ideas_SURFACE_local_history_dag_render_mode_and_count_legend -->
<g id="node42" class="node">
<title>cool_ideas_SURFACE_local_history_dag_render_mode_and_count_legend</title>
<path fill="#d4e8f7" stroke="black" d="M6304.18,-320.5C6304.18,-320.5 6077.82,-320.5 6077.82,-320.5 6073.62,-320.5 6069.43,-316.3 6069.43,-312.1 6069.43,-312.1 6069.43,-303.7 6069.43,-303.7 6069.43,-299.5 6073.62,-295.3 6077.82,-295.3 6077.82,-295.3 6304.18,-295.3 6304.18,-295.3 6308.38,-295.3 6312.57,-299.5 6312.57,-303.7 6312.57,-303.7 6312.57,-312.1 6312.57,-312.1 6312.57,-316.3 6308.38,-320.5 6304.18,-320.5"/>
<text xml:space="preserve" text-anchor="middle" x="6191" y="-304.8" font-family="Helvetica,sans-Serif" font-size="8.00">SURFACE&#45;local&#45;history&#45;dag&#45;render&#45;mode&#45;and&#45;count&#45;legend &#45; S</text>
</g>
<!-- cool_ideas_SURFACE_non_codex_instruction_bootstrap_parity -->
<g id="node43" class="node">
<title>cool_ideas_SURFACE_non_codex_instruction_bootstrap_parity</title>
<path fill="#d4e8f7" stroke="black" d="M6523.43,-320.5C6523.43,-320.5 6334.57,-320.5 6334.57,-320.5 6330.38,-320.5 6326.18,-316.3 6326.18,-312.1 6326.18,-312.1 6326.18,-303.7 6326.18,-303.7 6326.18,-299.5 6330.38,-295.3 6334.57,-295.3 6334.57,-295.3 6523.43,-295.3 6523.43,-295.3 6527.62,-295.3 6531.82,-299.5 6531.82,-303.7 6531.82,-303.7 6531.82,-312.1 6531.82,-312.1 6531.82,-316.3 6527.62,-320.5 6523.43,-320.5"/>
<text xml:space="preserve" text-anchor="middle" x="6429" y="-304.8" font-family="Helvetica,sans-Serif" font-size="8.00">SURFACE&#45;non&#45;codex&#45;instruction&#45;bootstrap&#45;parity &#45; M</text>
</g>
<!-- cool_ideas_SURFACE_offer_rename_refactor -->
<g id="node44" class="node">
<title>cool_ideas_SURFACE_offer_rename_refactor</title>
<path fill="#d4e8f7" stroke="black" d="M6683.43,-320.5C6683.43,-320.5 6554.57,-320.5 6554.57,-320.5 6550.38,-320.5 6546.18,-316.3 6546.18,-312.1 6546.18,-312.1 6546.18,-303.7 6546.18,-303.7 6546.18,-299.5 6550.38,-295.3 6554.57,-295.3 6554.57,-295.3 6683.43,-295.3 6683.43,-295.3 6687.62,-295.3 6691.82,-299.5 6691.82,-303.7 6691.82,-303.7 6691.82,-312.1 6691.82,-312.1 6691.82,-316.3 6687.62,-320.5 6683.43,-320.5"/>
<text xml:space="preserve" text-anchor="middle" x="6619" y="-304.8" font-family="Helvetica,sans-Serif" font-size="8.00">SURFACE&#45;offer&#45;rename&#45;refactor &#45; L</text>
</g>
<!-- cool_ideas_SURFACE_terminal_activity_browser_tui -->
<g id="node45" class="node">
<title>cool_ideas_SURFACE_terminal_activity_browser_tui</title>
<path fill="#d4e8f7" stroke="black" d="M6863.55,-320.5C6863.55,-320.5 6714.45,-320.5 6714.45,-320.5 6710.25,-320.5 6706.05,-316.3 6706.05,-312.1 6706.05,-312.1 6706.05,-303.7 6706.05,-303.7 6706.05,-299.5 6710.25,-295.3 6714.45,-295.3 6714.45,-295.3 6863.55,-295.3 6863.55,-295.3 6867.75,-295.3 6871.95,-299.5 6871.95,-303.7 6871.95,-303.7 6871.95,-312.1 6871.95,-312.1 6871.95,-316.3 6867.75,-320.5 6863.55,-320.5"/>
<text xml:space="preserve" text-anchor="middle" x="6789" y="-304.8" font-family="Helvetica,sans-Serif" font-size="8.00">SURFACE&#45;terminal&#45;activity&#45;browser&#45;tui &#45; L</text>
</g>
<!-- cool_ideas_traverse_plus_query_hydration_helper -->
<g id="node46" class="node">
<title>cool_ideas_traverse_plus_query_hydration_helper</title>
<path fill="#d4e8f7" stroke="black" d="M7035.8,-320.5C7035.8,-320.5 6894.2,-320.5 6894.2,-320.5 6890,-320.5 6885.8,-316.3 6885.8,-312.1 6885.8,-312.1 6885.8,-303.7 6885.8,-303.7 6885.8,-299.5 6890,-295.3 6894.2,-295.3 6894.2,-295.3 7035.8,-295.3 7035.8,-295.3 7040,-295.3 7044.2,-299.5 7044.2,-303.7 7044.2,-303.7 7044.2,-312.1 7044.2,-312.1 7044.2,-316.3 7040,-320.5 7035.8,-320.5"/>
<text xml:space="preserve" text-anchor="middle" x="6965" y="-304.8" font-family="Helvetica,sans-Serif" font-size="8.00">traverse&#45;plus&#45;query&#45;hydration&#45;helper &#45; S</text>
</g>
<!-- cool_ideas_WARP_adaptive_projection_selection -->
<g id="node47" class="node">
<title>cool_ideas_WARP_adaptive_projection_selection</title>
<path fill="#d4e8f7" stroke="black" d="M7204.93,-320.5C7204.93,-320.5 7067.07,-320.5 7067.07,-320.5 7062.88,-320.5 7058.68,-316.3 7058.68,-312.1 7058.68,-312.1 7058.68,-303.7 7058.68,-303.7 7058.68,-299.5 7062.88,-295.3 7067.07,-295.3 7067.07,-295.3 7204.93,-295.3 7204.93,-295.3 7209.12,-295.3 7213.32,-299.5 7213.32,-303.7 7213.32,-303.7 7213.32,-312.1 7213.32,-312.1 7213.32,-316.3 7209.12,-320.5 7204.93,-320.5"/>
<text xml:space="preserve" text-anchor="middle" x="7136" y="-304.8" font-family="Helvetica,sans-Serif" font-size="8.00">WARP&#45;adaptive&#45;projection&#45;selection &#45; L</text>
</g>
<!-- cool_ideas_WARP_agent_action_provenance -->
<g id="node48" class="node">
<title>cool_ideas_WARP_agent_action_provenance</title>
<path fill="#d4e8f7" stroke="black" d="M7366.55,-320.5C7366.55,-320.5 7235.45,-320.5 7235.45,-320.5 7231.25,-320.5 7227.05,-316.3 7227.05,-312.1 7227.05,-312.1 7227.05,-303.7 7227.05,-303.7 7227.05,-299.5 7231.25,-295.3 7235.45,-295.3 7235.45,-295.3 7366.55,-295.3 7366.55,-295.3 7370.75,-295.3 7374.95,-299.5 7374.95,-303.7 7374.95,-303.7 7374.95,-312.1 7374.95,-312.1 7374.95,-316.3 7370.75,-320.5 7366.55,-320.5"/>
<text xml:space="preserve" text-anchor="middle" x="7301" y="-304.8" font-family="Helvetica,sans-Serif" font-size="8.00">WARP&#45;agent&#45;action&#45;provenance &#45; XL</text>
</g>
<!-- cool_ideas_WARP_agent_action_provenance&#45;&gt;cool_ideas_CI_001_causal_collapse_visualizer -->
<g id="edge3" class="edge">
<title>cool_ideas_WARP_agent_action_provenance&#45;&gt;cool_ideas_CI_001_causal_collapse_visualizer</title>
<path fill="none" stroke="#666666" d="M7326.81,-294.81C7339.04,-289.01 7353.83,-281.9 7367,-275.3 7382.99,-267.28 7400.7,-258.02 7415,-250.44"/>
<polygon fill="#666666" stroke="#666666" points="7415.57,-252.12 7419.16,-248.23 7413.92,-249.03 7415.57,-252.12"/>
<text xml:space="preserve" text-anchor="middle" x="7413.14" y="-268.65" font-family="Helvetica,sans-Serif" font-size="7.00">blocked_by/blocking</text>
</g>
<!-- cool_ideas_WARP_causal_write_tracking -->
<g id="node53" class="node">
<title>cool_ideas_WARP_causal_write_tracking</title>
<path fill="#d4e8f7" stroke="black" d="M7059.05,-247.05C7059.05,-247.05 6948.95,-247.05 6948.95,-247.05 6944.75,-247.05 6940.55,-242.85 6940.55,-238.65 6940.55,-238.65 6940.55,-230.25 6940.55,-230.25 6940.55,-226.05 6944.75,-221.85 6948.95,-221.85 6948.95,-221.85 7059.05,-221.85 7059.05,-221.85 7063.25,-221.85 7067.45,-226.05 7067.45,-230.25 7067.45,-230.25 7067.45,-238.65 7067.45,-238.65 7067.45,-242.85 7063.25,-247.05 7059.05,-247.05"/>
<text xml:space="preserve" text-anchor="middle" x="7004" y="-231.35" font-family="Helvetica,sans-Serif" font-size="8.00">WARP&#45;causal&#45;write&#45;tracking &#45; L</text>
</g>
<!-- cool_ideas_WARP_agent_action_provenance&#45;&gt;cool_ideas_WARP_causal_write_tracking -->
<g id="edge4" class="edge">
<title>cool_ideas_WARP_agent_action_provenance&#45;&gt;cool_ideas_WARP_causal_write_tracking</title>
<path fill="none" stroke="#666666" d="M7253.13,-294.83C7242.27,-292.23 7230.76,-289.58 7220,-287.3 7190.83,-281.12 7183.1,-281.8 7154,-275.3 7119.63,-267.62 7081.25,-257.4 7051.92,-249.23"/>
<polygon fill="#666666" stroke="#666666" points="7052.55,-247.58 7047.26,-247.92 7051.61,-250.96 7052.55,-247.58"/>
<text xml:space="preserve" text-anchor="middle" x="7185.5" y="-268.65" font-family="Helvetica,sans-Serif" font-size="7.00">blocked_by/blocking</text>
</g>
<!-- cool_ideas_WARP_intent_and_decision_events -->
<g id="node63" class="node">
<title>cool_ideas_WARP_intent_and_decision_events</title>
<path fill="#d4e8f7" stroke="black" d="M7222.3,-247.05C7222.3,-247.05 7089.7,-247.05 7089.7,-247.05 7085.5,-247.05 7081.3,-242.85 7081.3,-238.65 7081.3,-238.65 7081.3,-230.25 7081.3,-230.25 7081.3,-226.05 7085.5,-221.85 7089.7,-221.85 7089.7,-221.85 7222.3,-221.85 7222.3,-221.85 7226.5,-221.85 7230.7,-226.05 7230.7,-230.25 7230.7,-230.25 7230.7,-238.65 7230.7,-238.65 7230.7,-242.85 7226.5,-247.05 7222.3,-247.05"/>
<text xml:space="preserve" text-anchor="middle" x="7156" y="-231.35" font-family="Helvetica,sans-Serif" font-size="8.00">WARP&#45;intent&#45;and&#45;decision&#45;events &#45; M</text>
</g>
<!-- cool_ideas_WARP_agent_action_provenance&#45;&gt;cool_ideas_WARP_intent_and_decision_events -->
<g id="edge5" class="edge">
<title>cool_ideas_WARP_agent_action_provenance&#45;&gt;cool_ideas_WARP_intent_and_decision_events</title>
<path fill="none" stroke="#666666" d="M7275.55,-294.87C7263.27,-289.02 7248.34,-281.86 7235,-275.3 7218.45,-267.16 7200.05,-257.89 7185.17,-250.34"/>
<polygon fill="#666666" stroke="#666666" points="7186.04,-248.83 7180.79,-248.12 7184.46,-251.95 7186.04,-248.83"/>
<text xml:space="preserve" text-anchor="middle" x="7266.5" y="-268.65" font-family="Helvetica,sans-Serif" font-size="7.00">blocked_by/blocking</text>
</g>
<!-- cool_ideas_WARP_provenance_dag -->
<g id="node68" class="node">
<title>cool_ideas_WARP_provenance_dag</title>
<path fill="#d4e8f7" stroke="black" d="M7348.55,-247.05C7348.55,-247.05 7253.45,-247.05 7253.45,-247.05 7249.25,-247.05 7245.05,-242.85 7245.05,-238.65 7245.05,-238.65 7245.05,-230.25 7245.05,-230.25 7245.05,-226.05 7249.25,-221.85 7253.45,-221.85 7253.45,-221.85 7348.55,-221.85 7348.55,-221.85 7352.75,-221.85 7356.95,-226.05 7356.95,-230.25 7356.95,-230.25 7356.95,-238.65 7356.95,-238.65 7356.95,-242.85 7352.75,-247.05 7348.55,-247.05"/>
<text xml:space="preserve" text-anchor="middle" x="7301" y="-231.35" font-family="Helvetica,sans-Serif" font-size="8.00">WARP&#45;provenance&#45;dag &#45; L</text>
</g>
<!-- cool_ideas_WARP_agent_action_provenance&#45;&gt;cool_ideas_WARP_provenance_dag -->
<g id="edge6" class="edge">
<title>cool_ideas_WARP_agent_action_provenance&#45;&gt;cool_ideas_WARP_provenance_dag</title>
<path fill="none" stroke="#666666" d="M7301,-295.1C7301,-283.9 7301,-266.88 7301,-253.88"/>
<polygon fill="#666666" stroke="#666666" points="7302.75,-254.02 7301,-249.02 7299.25,-254.02 7302.75,-254.02"/>
<text xml:space="preserve" text-anchor="middle" x="7332.5" y="-268.65" font-family="Helvetica,sans-Serif" font-size="7.00">blocked_by/blocking</text>
</g>
<!-- cool_ideas_WARP_auto_breaking_change_detection -->
<g id="node49" class="node">
<title>cool_ideas_WARP_auto_breaking_change_detection</title>
<path fill="#d4e8f7" stroke="black" d="M10413.3,-247.05C10413.3,-247.05 10262.7,-247.05 10262.7,-247.05 10258.5,-247.05 10254.3,-242.85 10254.3,-238.65 10254.3,-238.65 10254.3,-230.25 10254.3,-230.25 10254.3,-226.05 10258.5,-221.85 10262.7,-221.85 10262.7,-221.85 10413.3,-221.85 10413.3,-221.85 10417.5,-221.85 10421.7,-226.05 10421.7,-230.25 10421.7,-230.25 10421.7,-238.65 10421.7,-238.65 10421.7,-242.85 10417.5,-247.05 10413.3,-247.05"/>
<text xml:space="preserve" text-anchor="middle" x="10338" y="-231.35" font-family="Helvetica,sans-Serif" font-size="8.00">WARP&#45;auto&#45;breaking&#45;change&#45;detection &#45; L</text>
</g>
<!-- cool_ideas_WARP_budget_elasticity -->
<g id="node51" class="node">
<title>cool_ideas_WARP_budget_elasticity</title>
<path fill="#d4e8f7" stroke="black" d="M7492.93,-320.5C7492.93,-320.5 7397.07,-320.5 7397.07,-320.5 7392.88,-320.5 7388.68,-316.3 7388.68,-312.1 7388.68,-312.1 7388.68,-303.7 7388.68,-303.7 7388.68,-299.5 7392.88,-295.3 7397.07,-295.3 7397.07,-295.3 7492.93,-295.3 7492.93,-295.3 7497.12,-295.3 7501.32,-299.5 7501.32,-303.7 7501.32,-303.7 7501.32,-312.1 7501.32,-312.1 7501.32,-316.3 7497.12,-320.5 7492.93,-320.5"/>
<text xml:space="preserve" text-anchor="middle" x="7445" y="-304.8" font-family="Helvetica,sans-Serif" font-size="8.00">WARP&#45;budget&#45;elasticity &#45; M</text>
</g>
<!-- cool_ideas_WARP_causal_blame_for_staged_artifacts -->
<g id="node52" class="node">
<title>cool_ideas_WARP_causal_blame_for_staged_artifacts</title>
<path fill="#d4e8f7" stroke="black" d="M7452.18,-173.6C7452.18,-173.6 7297.82,-173.6 7297.82,-173.6 7293.62,-173.6 7289.43,-169.4 7289.43,-165.2 7289.43,-165.2 7289.43,-156.8 7289.43,-156.8 7289.43,-152.6 7293.62,-148.4 7297.82,-148.4 7297.82,-148.4 7452.18,-148.4 7452.18,-148.4 7456.38,-148.4 7460.57,-152.6 7460.57,-156.8 7460.57,-156.8 7460.57,-165.2 7460.57,-165.2 7460.57,-169.4 7456.38,-173.6 7452.18,-173.6"/>
<text xml:space="preserve" text-anchor="middle" x="7375" y="-157.9" font-family="Helvetica,sans-Serif" font-size="8.00">WARP&#45;causal&#45;blame&#45;for&#45;staged&#45;artifacts &#45; L</text>
</g>
<!-- cool_ideas_WARP_codebase_entropy_trajectory -->
<g id="node54" class="node">
<title>cool_ideas_WARP_codebase_entropy_trajectory</title>
<path fill="#d4e8f7" stroke="black" d="M7662.68,-320.5C7662.68,-320.5 7523.32,-320.5 7523.32,-320.5 7519.12,-320.5 7514.93,-316.3 7514.93,-312.1 7514.93,-312.1 7514.93,-303.7 7514.93,-303.7 7514.93,-299.5 7519.12,-295.3 7523.32,-295.3 7523.32,-295.3 7662.68,-295.3 7662.68,-295.3 7666.88,-295.3 7671.07,-299.5 7671.07,-303.7 7671.07,-303.7 7671.07,-312.1 7671.07,-312.1 7671.07,-316.3 7666.88,-320.5 7662.68,-320.5"/>
<text xml:space="preserve" text-anchor="middle" x="7593" y="-304.8" font-family="Helvetica,sans-Serif" font-size="8.00">WARP&#45;codebase&#45;entropy&#45;trajectory &#45; M</text>
</g>
<!-- cool_ideas_WARP_counterfactual_refactoring -->
<g id="node56" class="node">
<title>cool_ideas_WARP_counterfactual_refactoring</title>
<path fill="#d4e8f7" stroke="black" d="M7670.68,-247.05C7670.68,-247.05 7537.32,-247.05 7537.32,-247.05 7533.12,-247.05 7528.93,-242.85 7528.93,-238.65 7528.93,-238.65 7528.93,-230.25 7528.93,-230.25 7528.93,-226.05 7533.12,-221.85 7537.32,-221.85 7537.32,-221.85 7670.68,-221.85 7670.68,-221.85 7674.88,-221.85 7679.07,-226.05 7679.07,-230.25 7679.07,-230.25 7679.07,-238.65 7679.07,-238.65 7679.07,-242.85 7674.88,-247.05 7670.68,-247.05"/>
<text xml:space="preserve" text-anchor="middle" x="7604" y="-231.35" font-family="Helvetica,sans-Serif" font-size="8.00">WARP&#45;counterfactual&#45;refactoring &#45; XL</text>
</g>
<!-- cool_ideas_WARP_codebase_entropy_trajectory&#45;&gt;cool_ideas_WARP_counterfactual_refactoring -->
<g id="edge7" class="edge">
<title>cool_ideas_WARP_codebase_entropy_trajectory&#45;&gt;cool_ideas_WARP_counterfactual_refactoring</title>
<path fill="none" stroke="#666666" d="M7594.82,-295.1C7596.54,-283.9 7599.16,-266.88 7601.16,-253.88"/>
<polygon fill="#666666" stroke="#666666" points="7602.88,-254.21 7601.91,-249 7599.42,-253.68 7602.88,-254.21"/>
<text xml:space="preserve" text-anchor="middle" x="7630.33" y="-268.65" font-family="Helvetica,sans-Serif" font-size="7.00">blocked_by/blocking</text>
</g>
<!-- cool_ideas_WARP_codebase_signature -->
<g id="node55" class="node">
<title>cool_ideas_WARP_codebase_signature</title>
<path fill="#d4e8f7" stroke="black" d="M7800.55,-320.5C7800.55,-320.5 7693.45,-320.5 7693.45,-320.5 7689.25,-320.5 7685.05,-316.3 7685.05,-312.1 7685.05,-312.1 7685.05,-303.7 7685.05,-303.7 7685.05,-299.5 7689.25,-295.3 7693.45,-295.3 7693.45,-295.3 7800.55,-295.3 7800.55,-295.3 7804.75,-295.3 7808.95,-299.5 7808.95,-303.7 7808.95,-303.7 7808.95,-312.1 7808.95,-312.1 7808.95,-316.3 7804.75,-320.5 7800.55,-320.5"/>
<text xml:space="preserve" text-anchor="middle" x="7747" y="-304.8" font-family="Helvetica,sans-Serif" font-size="8.00">WARP&#45;codebase&#45;signature &#45; L</text>
</g>
<!-- cool_ideas_WARP_structural_impact_prediction -->
<g id="node78" class="node">
<title>cool_ideas_WARP_structural_impact_prediction</title>
<path fill="#d4e8f7" stroke="black" d="M7673.3,-173.6C7673.3,-173.6 7534.7,-173.6 7534.7,-173.6 7530.5,-173.6 7526.3,-169.4 7526.3,-165.2 7526.3,-165.2 7526.3,-156.8 7526.3,-156.8 7526.3,-152.6 7530.5,-148.4 7534.7,-148.4 7534.7,-148.4 7673.3,-148.4 7673.3,-148.4 7677.5,-148.4 7681.7,-152.6 7681.7,-156.8 7681.7,-156.8 7681.7,-165.2 7681.7,-165.2 7681.7,-169.4 7677.5,-173.6 7673.3,-173.6"/>
<text xml:space="preserve" text-anchor="middle" x="7604" y="-157.9" font-family="Helvetica,sans-Serif" font-size="8.00">WARP&#45;structural&#45;impact&#45;prediction &#45; XL</text>
</g>
<!-- cool_ideas_WARP_counterfactual_refactoring&#45;&gt;cool_ideas_WARP_structural_impact_prediction -->
<g id="edge8" class="edge">
<title>cool_ideas_WARP_counterfactual_refactoring&#45;&gt;cool_ideas_WARP_structural_impact_prediction</title>
<path fill="none" stroke="#666666" d="M7604,-221.65C7604,-210.45 7604,-193.43 7604,-180.43"/>
<polygon fill="#666666" stroke="#666666" points="7605.75,-180.57 7604,-175.57 7602.25,-180.57 7605.75,-180.57"/>
<text xml:space="preserve" text-anchor="middle" x="7635.5" y="-195.2" font-family="Helvetica,sans-Serif" font-size="7.00">blocked_by/blocking</text>
</g>
<!-- cool_ideas_WARP_dead_symbol_detection -->
<g id="node57" class="node">
<title>cool_ideas_WARP_dead_symbol_detection</title>
<path fill="#d4e8f7" stroke="black" d="M7950.18,-320.5C7950.18,-320.5 7831.82,-320.5 7831.82,-320.5 7827.62,-320.5 7823.43,-316.3 7823.43,-312.1 7823.43,-312.1 7823.43,-303.7 7823.43,-303.7 7823.43,-299.5 7827.62,-295.3 7831.82,-295.3 7831.82,-295.3 7950.18,-295.3 7950.18,-295.3 7954.38,-295.3 7958.57,-299.5 7958.57,-303.7 7958.57,-303.7 7958.57,-312.1 7958.57,-312.1 7958.57,-316.3 7954.38,-320.5 7950.18,-320.5"/>
<text xml:space="preserve" text-anchor="middle" x="7891" y="-304.8" font-family="Helvetica,sans-Serif" font-size="8.00">WARP&#45;dead&#45;symbol&#45;detection &#45; S</text>
</g>
<!-- cool_ideas_WARP_degeneracy_warning -->
<g id="node58" class="node">
<title>cool_ideas_WARP_degeneracy_warning</title>
<path fill="#d4e8f7" stroke="black" d="M8093.18,-320.5C8093.18,-320.5 7980.82,-320.5 7980.82,-320.5 7976.62,-320.5 7972.43,-316.3 7972.43,-312.1 7972.43,-312.1 7972.43,-303.7 7972.43,-303.7 7972.43,-299.5 7976.62,-295.3 7980.82,-295.3 7980.82,-295.3 8093.18,-295.3 8093.18,-295.3 8097.38,-295.3 8101.57,-299.5 8101.57,-303.7 8101.57,-303.7 8101.57,-312.1 8101.57,-312.1 8101.57,-316.3 8097.38,-320.5 8093.18,-320.5"/>
<text xml:space="preserve" text-anchor="middle" x="8037" y="-304.8" font-family="Helvetica,sans-Serif" font-size="8.00">WARP&#45;degeneracy&#45;warning &#45; M</text>
</g>
<!-- cool_ideas_WARP_drift_sentinel -->
<g id="node59" class="node">
<title>cool_ideas_WARP_drift_sentinel</title>
<path fill="#d4e8f7" stroke="black" d="M10006.18,-247.05C10006.18,-247.05 9923.82,-247.05 9923.82,-247.05 9919.62,-247.05 9915.42,-242.85 9915.42,-238.65 9915.42,-238.65 9915.42,-230.25 9915.42,-230.25 9915.42,-226.05 9919.62,-221.85 9923.82,-221.85 9923.82,-221.85 10006.18,-221.85 10006.18,-221.85 10010.38,-221.85 10014.58,-226.05 10014.58,-230.25 10014.58,-230.25 10014.58,-238.65 10014.58,-238.65 10014.58,-242.85 10010.38,-247.05 10006.18,-247.05"/>
<text xml:space="preserve" text-anchor="middle" x="9965" y="-231.35" font-family="Helvetica,sans-Serif" font-size="8.00">WARP&#45;drift&#45;sentinel &#45; M</text>
</g>
<!-- cool_ideas_WARP_footprint_parallelism -->
<g id="node60" class="node">
<title>cool_ideas_WARP_footprint_parallelism</title>
<path fill="#d4e8f7" stroke="black" d="M8235.8,-320.5C8235.8,-320.5 8124.2,-320.5 8124.2,-320.5 8120,-320.5 8115.8,-316.3 8115.8,-312.1 8115.8,-312.1 8115.8,-303.7 8115.8,-303.7 8115.8,-299.5 8120,-295.3 8124.2,-295.3 8124.2,-295.3 8235.8,-295.3 8235.8,-295.3 8240,-295.3 8244.2,-299.5 8244.2,-303.7 8244.2,-303.7 8244.2,-312.1 8244.2,-312.1 8244.2,-316.3 8240,-320.5 8235.8,-320.5"/>
<text xml:space="preserve" text-anchor="middle" x="8180" y="-304.8" font-family="Helvetica,sans-Serif" font-size="8.00">WARP&#45;footprint&#45;parallelism &#45; XL</text>
</g>
<!-- cool_ideas_WARP_graft_pack -->
<g id="node61" class="node">
<title>cool_ideas_WARP_graft_pack</title>
<path fill="#d4e8f7" stroke="black" d="M8341.43,-320.5C8341.43,-320.5 8266.57,-320.5 8266.57,-320.5 8262.38,-320.5 8258.17,-316.3 8258.17,-312.1 8258.17,-312.1 8258.17,-303.7 8258.17,-303.7 8258.17,-299.5 8262.38,-295.3 8266.57,-295.3 8266.57,-295.3 8341.43,-295.3 8341.43,-295.3 8345.62,-295.3 8349.83,-299.5 8349.83,-303.7 8349.83,-303.7 8349.83,-312.1 8349.83,-312.1 8349.83,-316.3 8345.62,-320.5 8341.43,-320.5"/>
<text xml:space="preserve" text-anchor="middle" x="8304" y="-304.8" font-family="Helvetica,sans-Serif" font-size="8.00">WARP&#45;graft&#45;pack &#45; M</text>
</g>
<!-- cool_ideas_WARP_grouped_aggregate_queries -->
<g id="node62" class="node">
<title>cool_ideas_WARP_grouped_aggregate_queries</title>
<path fill="#d4e8f7" stroke="black" d="M8509.93,-320.5C8509.93,-320.5 8372.07,-320.5 8372.07,-320.5 8367.88,-320.5 8363.67,-316.3 8363.67,-312.1 8363.67,-312.1 8363.67,-303.7 8363.67,-303.7 8363.67,-299.5 8367.88,-295.3 8372.07,-295.3 8372.07,-295.3 8509.93,-295.3 8509.93,-295.3 8514.12,-295.3 8518.33,-299.5 8518.33,-303.7 8518.33,-303.7 8518.33,-312.1 8518.33,-312.1 8518.33,-316.3 8514.12,-320.5 8509.93,-320.5"/>
<text xml:space="preserve" text-anchor="middle" x="8441" y="-304.8" font-family="Helvetica,sans-Serif" font-size="8.00">WARP&#45;grouped&#45;aggregate&#45;queries &#45; M</text>
</g>
<!-- cool_ideas_WARP_intentional_degeneracy_privacy -->
<g id="node64" class="node">
<title>cool_ideas_WARP_intentional_degeneracy_privacy</title>
<path fill="#d4e8f7" stroke="black" d="M8688.8,-320.5C8688.8,-320.5 8541.2,-320.5 8541.2,-320.5 8537,-320.5 8532.8,-316.3 8532.8,-312.1 8532.8,-312.1 8532.8,-303.7 8532.8,-303.7 8532.8,-299.5 8537,-295.3 8541.2,-295.3 8541.2,-295.3 8688.8,-295.3 8688.8,-295.3 8693,-295.3 8697.2,-299.5 8697.2,-303.7 8697.2,-303.7 8697.2,-312.1 8697.2,-312.1 8697.2,-316.3 8693,-320.5 8688.8,-320.5"/>
<text xml:space="preserve" text-anchor="middle" x="8615" y="-304.8" font-family="Helvetica,sans-Serif" font-size="8.00">WARP&#45;intentional&#45;degeneracy&#45;privacy &#45; M</text>
</g>
<!-- cool_ideas_WARP_minimum_viable_context -->
<g id="node65" class="node">
<title>cool_ideas_WARP_minimum_viable_context</title>
<path fill="#d4e8f7" stroke="black" d="M8842.43,-320.5C8842.43,-320.5 8719.57,-320.5 8719.57,-320.5 8715.38,-320.5 8711.17,-316.3 8711.17,-312.1 8711.17,-312.1 8711.17,-303.7 8711.17,-303.7 8711.17,-299.5 8715.38,-295.3 8719.57,-295.3 8719.57,-295.3 8842.43,-295.3 8842.43,-295.3 8846.62,-295.3 8850.83,-299.5 8850.83,-303.7 8850.83,-303.7 8850.83,-312.1 8850.83,-312.1 8850.83,-316.3 8846.62,-320.5 8842.43,-320.5"/>
<text xml:space="preserve" text-anchor="middle" x="8781" y="-304.8" font-family="Helvetica,sans-Serif" font-size="8.00">WARP&#45;minimum&#45;viable&#45;context &#45; M</text>
</g>
<!-- cool_ideas_WARP_outline_diff_commit_trailer -->
<g id="node66" class="node">
<title>cool_ideas_WARP_outline_diff_commit_trailer</title>
<path fill="#d4e8f7" stroke="black" d="M8998.93,-320.5C8998.93,-320.5 8873.07,-320.5 8873.07,-320.5 8868.88,-320.5 8864.67,-316.3 8864.67,-312.1 8864.67,-312.1 8864.67,-303.7 8864.67,-303.7 8864.67,-299.5 8868.88,-295.3 8873.07,-295.3 8873.07,-295.3 8998.93,-295.3 8998.93,-295.3 9003.12,-295.3 9007.33,-299.5 9007.33,-303.7 9007.33,-303.7 9007.33,-312.1 9007.33,-312.1 9007.33,-316.3 9003.12,-320.5 8998.93,-320.5"/>
<text xml:space="preserve" text-anchor="middle" x="8936" y="-304.8" font-family="Helvetica,sans-Serif" font-size="8.00">WARP&#45;outline&#45;diff&#45;commit&#45;trailer &#45; S</text>
</g>
<!-- cool_ideas_WARP_projection_safety_classes -->
<g id="node67" class="node">
<title>cool_ideas_WARP_projection_safety_classes</title>
<path fill="#d4e8f7" stroke="black" d="M9155.93,-320.5C9155.93,-320.5 9030.07,-320.5 9030.07,-320.5 9025.88,-320.5 9021.67,-316.3 9021.67,-312.1 9021.67,-312.1 9021.67,-303.7 9021.67,-303.7 9021.67,-299.5 9025.88,-295.3 9030.07,-295.3 9030.07,-295.3 9155.93,-295.3 9155.93,-295.3 9160.12,-295.3 9164.33,-299.5 9164.33,-303.7 9164.33,-303.7 9164.33,-312.1 9164.33,-312.1 9164.33,-316.3 9160.12,-320.5 9155.93,-320.5"/>
<text xml:space="preserve" text-anchor="middle" x="9093" y="-304.8" font-family="Helvetica,sans-Serif" font-size="8.00">WARP&#45;projection&#45;safety&#45;classes &#45; M</text>
</g>
<!-- cool_ideas_WARP_provenance_dag&#45;&gt;cool_ideas_WARP_causal_blame_for_staged_artifacts -->
<g id="edge9" class="edge">
<title>cool_ideas_WARP_provenance_dag&#45;&gt;cool_ideas_WARP_causal_blame_for_staged_artifacts</title>
<path fill="none" stroke="#666666" d="M7313.22,-221.65C7325.46,-209.83 7344.41,-191.54 7358.09,-178.32"/>
<polygon fill="#666666" stroke="#666666" points="7359.04,-179.84 7361.43,-175.11 7356.61,-177.32 7359.04,-179.84"/>
<text xml:space="preserve" text-anchor="middle" x="7371.72" y="-195.2" font-family="Helvetica,sans-Serif" font-size="7.00">blocked_by/blocking</text>
</g>
<!-- cool_ideas_WARP_reasoning_trace_replay -->
<g id="node69" class="node">
<title>cool_ideas_WARP_reasoning_trace_replay</title>
<path fill="#d4e8f7" stroke="black" d="M7266.93,-173.6C7266.93,-173.6 7147.07,-173.6 7147.07,-173.6 7142.88,-173.6 7138.68,-169.4 7138.68,-165.2 7138.68,-165.2 7138.68,-156.8 7138.68,-156.8 7138.68,-152.6 7142.88,-148.4 7147.07,-148.4 7147.07,-148.4 7266.93,-148.4 7266.93,-148.4 7271.12,-148.4 7275.32,-152.6 7275.32,-156.8 7275.32,-156.8 7275.32,-165.2 7275.32,-165.2 7275.32,-169.4 7271.12,-173.6 7266.93,-173.6"/>
<text xml:space="preserve" text-anchor="middle" x="7207" y="-157.9" font-family="Helvetica,sans-Serif" font-size="8.00">WARP&#45;reasoning&#45;trace&#45;replay &#45; M</text>
</g>
<!-- cool_ideas_WARP_provenance_dag&#45;&gt;cool_ideas_WARP_reasoning_trace_replay -->
<g id="edge10" class="edge">
<title>cool_ideas_WARP_provenance_dag&#45;&gt;cool_ideas_WARP_reasoning_trace_replay</title>
<path fill="none" stroke="#666666" d="M7285.48,-221.65C7269.79,-209.73 7245.44,-191.22 7228.02,-177.98"/>
<polygon fill="#666666" stroke="#666666" points="7229.1,-176.6 7224.06,-174.97 7226.99,-179.39 7229.1,-176.6"/>
<text xml:space="preserve" text-anchor="middle" x="7288.32" y="-195.2" font-family="Helvetica,sans-Serif" font-size="7.00">blocked_by/blocking</text>
</g>
<!-- cool_ideas_WARP_rulial_heat_map -->
<g id="node70" class="node">
<title>cool_ideas_WARP_rulial_heat_map</title>
<path fill="#d4e8f7" stroke="black" d="M9277.3,-320.5C9277.3,-320.5 9186.7,-320.5 9186.7,-320.5 9182.5,-320.5 9178.3,-316.3 9178.3,-312.1 9178.3,-312.1 9178.3,-303.7 9178.3,-303.7 9178.3,-299.5 9182.5,-295.3 9186.7,-295.3 9186.7,-295.3 9277.3,-295.3 9277.3,-295.3 9281.5,-295.3 9285.7,-299.5 9285.7,-303.7 9285.7,-303.7 9285.7,-312.1 9285.7,-312.1 9285.7,-316.3 9281.5,-320.5 9277.3,-320.5"/>
<text xml:space="preserve" text-anchor="middle" x="9232" y="-304.8" font-family="Helvetica,sans-Serif" font-size="8.00">WARP&#45;rulial&#45;heat&#45;map &#45; L</text>
</g>
<!-- cool_ideas_WARP_semantic_drift_in_sessions -->
<g id="node71" class="node">
<title>cool_ideas_WARP_semantic_drift_in_sessions</title>
<path fill="#d4e8f7" stroke="black" d="M9437.43,-320.5C9437.43,-320.5 9308.57,-320.5 9308.57,-320.5 9304.38,-320.5 9300.17,-316.3 9300.17,-312.1 9300.17,-312.1 9300.17,-303.7 9300.17,-303.7 9300.17,-299.5 9304.38,-295.3 9308.57,-295.3 9308.57,-295.3 9437.43,-295.3 9437.43,-295.3 9441.62,-295.3 9445.83,-299.5 9445.83,-303.7 9445.83,-303.7 9445.83,-312.1 9445.83,-312.1 9445.83,-316.3 9441.62,-320.5 9437.43,-320.5"/>
<text xml:space="preserve" text-anchor="middle" x="9373" y="-304.8" font-family="Helvetica,sans-Serif" font-size="8.00">WARP&#45;semantic&#45;drift&#45;in&#45;sessions &#45; M</text>
</g>
<!-- cool_ideas_WARP_semantic_merge_conflict_prediction -->
<g id="node72" class="node">
<title>cool_ideas_WARP_semantic_merge_conflict_prediction</title>
<path fill="#d4e8f7" stroke="black" d="M10603.43,-247.05C10603.43,-247.05 10444.57,-247.05 10444.57,-247.05 10440.38,-247.05 10436.17,-242.85 10436.17,-238.65 10436.17,-238.65 10436.17,-230.25 10436.17,-230.25 10436.17,-226.05 10440.38,-221.85 10444.57,-221.85 10444.57,-221.85 10603.43,-221.85 10603.43,-221.85 10607.62,-221.85 10611.83,-226.05 10611.83,-230.25 10611.83,-230.25 10611.83,-238.65 10611.83,-238.65 10611.83,-242.85 10607.62,-247.05 10603.43,-247.05"/>
<text xml:space="preserve" text-anchor="middle" x="10524" y="-231.35" font-family="Helvetica,sans-Serif" font-size="8.00">WARP&#45;semantic&#45;merge&#45;conflict&#45;prediction &#45; L</text>
</g>
<!-- cool_ideas_WARP_session_filtration -->
<g id="node73" class="node">
<title>cool_ideas_WARP_session_filtration</title>
<path fill="#d4e8f7" stroke="black" d="M9561.8,-320.5C9561.8,-320.5 9468.2,-320.5 9468.2,-320.5 9464,-320.5 9459.8,-316.3 9459.8,-312.1 9459.8,-312.1 9459.8,-303.7 9459.8,-303.7 9459.8,-299.5 9464,-295.3 9468.2,-295.3 9468.2,-295.3 9561.8,-295.3 9561.8,-295.3 9566,-295.3 9570.2,-299.5 9570.2,-303.7 9570.2,-303.7 9570.2,-312.1 9570.2,-312.1 9570.2,-316.3 9566,-320.5 9561.8,-320.5"/>
<text xml:space="preserve" text-anchor="middle" x="9515" y="-304.8" font-family="Helvetica,sans-Serif" font-size="8.00">WARP&#45;session&#45;filtration &#45; L</text>
</g>
<!-- cool_ideas_WARP_shadow_structural_workspaces -->
<g id="node74" class="node">
<title>cool_ideas_WARP_shadow_structural_workspaces</title>
<path fill="#d4e8f7" stroke="black" d="M9743.3,-320.5C9743.3,-320.5 9592.7,-320.5 9592.7,-320.5 9588.5,-320.5 9584.3,-316.3 9584.3,-312.1 9584.3,-312.1 9584.3,-303.7 9584.3,-303.7 9584.3,-299.5 9588.5,-295.3 9592.7,-295.3 9592.7,-295.3 9743.3,-295.3 9743.3,-295.3 9747.5,-295.3 9751.7,-299.5 9751.7,-303.7 9751.7,-303.7 9751.7,-312.1 9751.7,-312.1 9751.7,-316.3 9747.5,-320.5 9743.3,-320.5"/>
<text xml:space="preserve" text-anchor="middle" x="9668" y="-304.8" font-family="Helvetica,sans-Serif" font-size="8.00">WARP&#45;shadow&#45;structural&#45;workspaces &#45; XL</text>
</g>
<!-- cool_ideas_WARP_speculative_merge -->
<g id="node75" class="node">
<title>cool_ideas_WARP_speculative_merge</title>
<path fill="#d4e8f7" stroke="black" d="M9881.55,-320.5C9881.55,-320.5 9774.45,-320.5 9774.45,-320.5 9770.25,-320.5 9766.05,-316.3 9766.05,-312.1 9766.05,-312.1 9766.05,-303.7 9766.05,-303.7 9766.05,-299.5 9770.25,-295.3 9774.45,-295.3 9774.45,-295.3 9881.55,-295.3 9881.55,-295.3 9885.75,-295.3 9889.95,-299.5 9889.95,-303.7 9889.95,-303.7 9889.95,-312.1 9889.95,-312.1 9889.95,-316.3 9885.75,-320.5 9881.55,-320.5"/>
<text xml:space="preserve" text-anchor="middle" x="9828" y="-304.8" font-family="Helvetica,sans-Serif" font-size="8.00">WARP&#45;speculative&#45;merge &#45; XL</text>
</g>
<!-- cool_ideas_WARP_stale_docs_checker -->
<g id="node76" class="node">
<title>cool_ideas_WARP_stale_docs_checker</title>
<path fill="#d4e8f7" stroke="black" d="M10017.8,-320.5C10017.8,-320.5 9912.2,-320.5 9912.2,-320.5 9908,-320.5 9903.8,-316.3 9903.8,-312.1 9903.8,-312.1 9903.8,-303.7 9903.8,-303.7 9903.8,-299.5 9908,-295.3 9912.2,-295.3 9912.2,-295.3 10017.8,-295.3 10017.8,-295.3 10022,-295.3 10026.2,-299.5 10026.2,-303.7 10026.2,-303.7 10026.2,-312.1 10026.2,-312.1 10026.2,-316.3 10022,-320.5 10017.8,-320.5"/>
<text xml:space="preserve" text-anchor="middle" x="9965" y="-304.8" font-family="Helvetica,sans-Serif" font-size="8.00">WARP&#45;stale&#45;docs&#45;checker &#45; M</text>
</g>
<!-- cool_ideas_WARP_stale_docs_checker&#45;&gt;cool_ideas_WARP_drift_sentinel -->
<g id="edge11" class="edge">
<title>cool_ideas_WARP_stale_docs_checker&#45;&gt;cool_ideas_WARP_drift_sentinel</title>
<path fill="none" stroke="#666666" d="M9965,-295.1C9965,-283.9 9965,-266.88 9965,-253.88"/>
<polygon fill="#666666" stroke="#666666" points="9966.75,-254.02 9965,-249.02 9963.25,-254.02 9966.75,-254.02"/>
<text xml:space="preserve" text-anchor="middle" x="9996.5" y="-268.65" font-family="Helvetica,sans-Serif" font-size="7.00">blocked_by/blocking</text>
</g>
<!-- cool_ideas_WARP_structural_drift_detection -->
<g id="node77" class="node">
<title>cool_ideas_WARP_structural_drift_detection</title>
<path fill="#d4e8f7" stroke="black" d="M10171.8,-320.5C10171.8,-320.5 10048.2,-320.5 10048.2,-320.5 10044,-320.5 10039.8,-316.3 10039.8,-312.1 10039.8,-312.1 10039.8,-303.7 10039.8,-303.7 10039.8,-299.5 10044,-295.3 10048.2,-295.3 10048.2,-295.3 10171.8,-295.3 10171.8,-295.3 10176,-295.3 10180.2,-299.5 10180.2,-303.7 10180.2,-303.7 10180.2,-312.1 10180.2,-312.1 10180.2,-316.3 10176,-320.5 10171.8,-320.5"/>
<text xml:space="preserve" text-anchor="middle" x="10110" y="-304.8" font-family="Helvetica,sans-Serif" font-size="8.00">WARP&#45;structural&#45;drift&#45;detection &#45; M</text>
</g>
<!-- cool_ideas_WARP_symbol_heatmap -->
<g id="node79" class="node">
<title>cool_ideas_WARP_symbol_heatmap</title>
<path fill="#d4e8f7" stroke="black" d="M10301.05,-320.5C10301.05,-320.5 10202.95,-320.5 10202.95,-320.5 10198.75,-320.5 10194.55,-316.3 10194.55,-312.1 10194.55,-312.1 10194.55,-303.7 10194.55,-303.7 10194.55,-299.5 10198.75,-295.3 10202.95,-295.3 10202.95,-295.3 10301.05,-295.3 10301.05,-295.3 10305.25,-295.3 10309.45,-299.5 10309.45,-303.7 10309.45,-303.7 10309.45,-312.1 10309.45,-312.1 10309.45,-316.3 10305.25,-320.5 10301.05,-320.5"/>
<text xml:space="preserve" text-anchor="middle" x="10252" y="-304.8" font-family="Helvetica,sans-Serif" font-size="8.00">WARP&#45;symbol&#45;heatmap &#45; M</text>
</g>
<!-- cool_ideas_WARP_symbol_history_timeline -->
<g id="node80" class="node">
<title>cool_ideas_WARP_symbol_history_timeline</title>
<path fill="#d4e8f7" stroke="black" d="M10450.18,-320.5C10450.18,-320.5 10331.82,-320.5 10331.82,-320.5 10327.62,-320.5 10323.42,-316.3 10323.42,-312.1 10323.42,-312.1 10323.42,-303.7 10323.42,-303.7 10323.42,-299.5 10327.62,-295.3 10331.82,-295.3 10331.82,-295.3 10450.18,-295.3 10450.18,-295.3 10454.38,-295.3 10458.58,-299.5 10458.58,-303.7 10458.58,-303.7 10458.58,-312.1 10458.58,-312.1 10458.58,-316.3 10454.38,-320.5 10450.18,-320.5"/>
<text xml:space="preserve" text-anchor="middle" x="10391" y="-304.8" font-family="Helvetica,sans-Serif" font-size="8.00">WARP&#45;symbol&#45;history&#45;timeline &#45; S</text>
</g>
<!-- cool_ideas_WARP_temporal_structural_search -->
<g id="node82" class="node">
<title>cool_ideas_WARP_temporal_structural_search</title>
<path fill="#d4e8f7" stroke="black" d="M10231.68,-247.05C10231.68,-247.05 10098.32,-247.05 10098.32,-247.05 10094.12,-247.05 10089.92,-242.85 10089.92,-238.65 10089.92,-238.65 10089.92,-230.25 10089.92,-230.25 10089.92,-226.05 10094.12,-221.85 10098.32,-221.85 10098.32,-221.85 10231.68,-221.85 10231.68,-221.85 10235.88,-221.85 10240.08,-226.05 10240.08,-230.25 10240.08,-230.25 10240.08,-238.65 10240.08,-238.65 10240.08,-242.85 10235.88,-247.05 10231.68,-247.05"/>
<text xml:space="preserve" text-anchor="middle" x="10165" y="-231.35" font-family="Helvetica,sans-Serif" font-size="8.00">WARP&#45;temporal&#45;structural&#45;search &#45; M</text>
</g>
<!-- cool_ideas_WARP_symbol_history_timeline&#45;&gt;cool_ideas_WARP_temporal_structural_search -->
<g id="edge12" class="edge">
<title>cool_ideas_WARP_symbol_history_timeline&#45;&gt;cool_ideas_WARP_temporal_structural_search</title>
<path fill="none" stroke="#666666" d="M10352.92,-294.86C10313.23,-282.31 10251.1,-262.67 10209.26,-249.44"/>
<polygon fill="#666666" stroke="#666666" points="10209.98,-247.83 10204.68,-248 10208.92,-251.17 10209.98,-247.83"/>
<text xml:space="preserve" text-anchor="middle" x="10316.28" y="-268.65" font-family="Helvetica,sans-Serif" font-size="7.00">blocked_by/blocking</text>
</g>
<!-- cool_ideas_WARP_technical_debt_curvature -->
<g id="node81" class="node">
<title>cool_ideas_WARP_technical_debt_curvature</title>
<path fill="#d4e8f7" stroke="black" d="M10603.43,-320.5C10603.43,-320.5 10480.57,-320.5 10480.57,-320.5 10476.38,-320.5 10472.17,-316.3 10472.17,-312.1 10472.17,-312.1 10472.17,-303.7 10472.17,-303.7 10472.17,-299.5 10476.38,-295.3 10480.57,-295.3 10480.57,-295.3 10603.43,-295.3 10603.43,-295.3 10607.62,-295.3 10611.83,-299.5 10611.83,-303.7 10611.83,-303.7 10611.83,-312.1 10611.83,-312.1 10611.83,-316.3 10607.62,-320.5 10603.43,-320.5"/>
<text xml:space="preserve" text-anchor="middle" x="10542" y="-304.8" font-family="Helvetica,sans-Serif" font-size="8.00">WARP&#45;technical&#45;debt&#45;curvature &#45; L</text>
</g>
<!-- external_git_warp_observer_geometry_ladder__Rung_2_4_ -->
<g id="node83" class="node">
<title>external_git_warp_observer_geometry_ladder__Rung_2_4_</title>
<path fill="#e8f2ff" stroke="black" d="M611.68,-320.5C611.68,-320.5 448.33,-320.5 448.33,-320.5 444.12,-320.5 439.93,-316.3 439.93,-312.1 439.93,-312.1 439.93,-303.7 439.93,-303.7 439.93,-299.5 444.12,-295.3 448.33,-295.3 448.33,-295.3 611.68,-295.3 611.68,-295.3 615.88,-295.3 620.08,-299.5 620.08,-303.7 620.08,-303.7 620.08,-312.1 620.08,-312.1 620.08,-316.3 615.88,-320.5 611.68,-320.5"/>
<text xml:space="preserve" text-anchor="middle" x="530" y="-304.8" font-family="Helvetica,sans-Serif" font-size="8.00">git&#45;warp observer geometry ladder (Rung 2&#45;4)</text>
</g>
<!-- external_git_warp_observer_geometry_ladder__Rung_2_4_&#45;&gt;v0_7_0_CORE_migrate_to_slice_first_reads -->
<g id="edge13" class="edge">
<title>external_git_warp_observer_geometry_ladder__Rung_2_4_&#45;&gt;v0_7_0_CORE_migrate_to_slice_first_reads</title>
<path fill="none" stroke="#4477aa" stroke-dasharray="5,2" d="M499.7,-294.94C468.5,-282.62 419.82,-263.41 386.28,-250.16"/>
<polygon fill="#4477aa" stroke="#4477aa" points="387.31,-248.69 382.02,-248.48 386.03,-251.95 387.31,-248.69"/>
<text xml:space="preserve" text-anchor="middle" x="476.8" y="-268.65" font-family="Helvetica,sans-Serif" font-size="7.00">blocked_by_external</text>
</g>
<!-- unresolved_CLEAN_CODE_export_diff_semver_signature_as_patch -->
<g id="node84" class="node">
<title>unresolved_CLEAN_CODE_export_diff_semver_signature_as_patch</title>
<path fill="#f2f2f2" stroke="black" stroke-dasharray="5,2" d="M10867.3,-320.5C10867.3,-320.5 10644.7,-320.5 10644.7,-320.5 10640.5,-320.5 10636.3,-316.3 10636.3,-312.1 10636.3,-312.1 10636.3,-303.7 10636.3,-303.7 10636.3,-299.5 10640.5,-295.3 10644.7,-295.3 10644.7,-295.3 10867.3,-295.3 10867.3,-295.3 10871.5,-295.3 10875.7,-299.5 10875.7,-303.7 10875.7,-303.7 10875.7,-312.1 10875.7,-312.1 10875.7,-316.3 10871.5,-320.5 10867.3,-320.5"/>
<text xml:space="preserve" text-anchor="middle" x="10756" y="-304.8" font-family="Helvetica,sans-Serif" font-size="8.00">missing: CLEAN_CODE_export&#45;diff&#45;semver&#45;signature&#45;as&#45;patch</text>
</g>
<!-- unresolved_CLEAN_CODE_export_diff_semver_signature_as_patch&#45;&gt;cool_ideas_WARP_auto_breaking_change_detection -->
<g id="edge14" class="edge">
<title>unresolved_CLEAN_CODE_export_diff_semver_signature_as_patch&#45;&gt;cool_ideas_WARP_auto_breaking_change_detection</title>
<path fill="none" stroke="#cc3333" stroke-dasharray="5,2" d="M10685.56,-294.86C10610.51,-282.03 10492.05,-261.78 10414.69,-248.56"/>
<polygon fill="#cc3333" stroke="#cc3333" points="10415.44,-246.91 10410.22,-247.79 10414.85,-250.36 10415.44,-246.91"/>
<text xml:space="preserve" text-anchor="middle" x="10577.16" y="-268.65" font-family="Helvetica,sans-Serif" font-size="7.00">blocked_by</text>
</g>
<!-- unresolved_CLEAN_CODE_export_diff_semver_signature_as_patch&#45;&gt;cool_ideas_WARP_semantic_merge_conflict_prediction -->
<g id="edge15" class="edge">
<title>unresolved_CLEAN_CODE_export_diff_semver_signature_as_patch&#45;&gt;cool_ideas_WARP_semantic_merge_conflict_prediction</title>
<path fill="none" stroke="#cc3333" stroke-dasharray="5,2" d="M10716.91,-294.86C10676.17,-282.31 10612.39,-262.67 10569.43,-249.44"/>
<polygon fill="#cc3333" stroke="#cc3333" points="10569.99,-247.78 10564.7,-247.98 10568.96,-251.13 10569.99,-247.78"/>
<text xml:space="preserve" text-anchor="middle" x="10664.58" y="-268.65" font-family="Helvetica,sans-Serif" font-size="7.00">blocked_by</text>
</g>
<!-- leg_v07 -->
<g id="node85" class="node">
<title>leg_v07</title>
<path fill="#ffa07a" stroke="black" stroke-width="2" d="M10992,-320.5C10992,-320.5 10908,-320.5 10908,-320.5 10903.8,-320.5 10899.6,-316.3 10899.6,-312.1 10899.6,-312.1 10899.6,-303.7 10899.6,-303.7 10899.6,-299.5 10903.8,-295.3 10908,-295.3 10908,-295.3 10992,-295.3 10992,-295.3 10996.2,-295.3 11000.4,-299.5 11000.4,-303.7 11000.4,-303.7 11000.4,-312.1 11000.4,-312.1 11000.4,-316.3 10996.2,-320.5 10992,-320.5"/>
<text xml:space="preserve" text-anchor="middle" x="10950" y="-305.38" font-family="Helvetica,sans-Serif" font-size="7.00">v0.7.0</text>
</g>
<!-- leg_bad -->
<g id="node86" class="node">
<title>leg_bad</title>
<path fill="#f6b3b3" stroke="black" stroke-width="2" d="M10992,-247.05C10992,-247.05 10908,-247.05 10908,-247.05 10903.8,-247.05 10899.6,-242.85 10899.6,-238.65 10899.6,-238.65 10899.6,-230.25 10899.6,-230.25 10899.6,-226.05 10903.8,-221.85 10908,-221.85 10908,-221.85 10992,-221.85 10992,-221.85 10996.2,-221.85 11000.4,-226.05 11000.4,-230.25 11000.4,-230.25 11000.4,-238.65 11000.4,-238.65 11000.4,-242.85 10996.2,-247.05 10992,-247.05"/>
<text xml:space="preserve" text-anchor="middle" x="10950" y="-231.92" font-family="Helvetica,sans-Serif" font-size="7.00">bad&#45;code</text>
</g>
<!-- leg_v07&#45;&gt;leg_bad -->
<!-- leg_idea -->
<g id="node87" class="node">
<title>leg_idea</title>
<path fill="#d4e8f7" stroke="black" d="M10992,-173.6C10992,-173.6 10908,-173.6 10908,-173.6 10903.8,-173.6 10899.6,-169.4 10899.6,-165.2 10899.6,-165.2 10899.6,-156.8 10899.6,-156.8 10899.6,-152.6 10903.8,-148.4 10908,-148.4 10908,-148.4 10992,-148.4 10992,-148.4 10996.2,-148.4 11000.4,-152.6 11000.4,-156.8 11000.4,-156.8 11000.4,-165.2 11000.4,-165.2 11000.4,-169.4 10996.2,-173.6 10992,-173.6"/>
<text xml:space="preserve" text-anchor="middle" x="10950" y="-158.47" font-family="Helvetica,sans-Serif" font-size="7.00">cool&#45;ideas</text>
</g>
<!-- leg_bad&#45;&gt;leg_idea -->
<!-- leg_external -->
<g id="node88" class="node">
<title>leg_external</title>
<path fill="#e8f2ff" stroke="black" d="M10992,-107.4C10992,-107.4 10908,-107.4 10908,-107.4 10903.8,-107.4 10899.6,-103.2 10899.6,-99 10899.6,-99 10899.6,-90.6 10899.6,-90.6 10899.6,-86.4 10903.8,-82.2 10908,-82.2 10908,-82.2 10992,-82.2 10992,-82.2 10996.2,-82.2 11000.4,-86.4 11000.4,-90.6 11000.4,-90.6 11000.4,-99 11000.4,-99 11000.4,-103.2 10996.2,-107.4 10992,-107.4"/>
<text xml:space="preserve" text-anchor="middle" x="10950" y="-92.28" font-family="Helvetica,sans-Serif" font-size="7.00">external blocker</text>
</g>
<!-- leg_idea&#45;&gt;leg_external -->
<!-- leg_unresolved -->
<g id="node89" class="node">
<title>leg_unresolved</title>
<path fill="#f2f2f2" stroke="black" stroke-dasharray="5,2" d="M10992,-41.2C10992,-41.2 10908,-41.2 10908,-41.2 10903.8,-41.2 10899.6,-37 10899.6,-32.8 10899.6,-32.8 10899.6,-24.4 10899.6,-24.4 10899.6,-20.2 10903.8,-16 10908,-16 10908,-16 10992,-16 10992,-16 10996.2,-16 11000.4,-20.2 11000.4,-24.4 11000.4,-24.4 11000.4,-32.8 11000.4,-32.8 11000.4,-37 10996.2,-41.2 10992,-41.2"/>
<text xml:space="preserve" text-anchor="middle" x="10950" y="-26.08" font-family="Helvetica,sans-Serif" font-size="7.00">unresolved ref</text>
</g>
<!-- leg_external&#45;&gt;leg_unresolved -->
</g>
</svg>
