<?xml version="1.0" encoding="UTF-8" standalone="no"?>
<!DOCTYPE svg PUBLIC "-//W3C//DTD SVG 1.1//EN"
 "http://www.w3.org/Graphics/SVG/1.1/DTD/svg11.dtd">
<!-- Generated by graphviz version 14.1.2 (20260124.0452)
 -->
<!-- Title: backlog Pages: 1 -->
<svg width="10572pt" height="383pt"
 viewBox="0.00 0.00 10572.00 383.00" xmlns="http://www.w3.org/2000/svg" xmlns:xlink="http://www.w3.org/1999/xlink">
<g id="graph0" class="graph" transform="scale(1 1) rotate(0) translate(4 379)">
<title>backlog</title>
<polygon fill="white" stroke="none" points="-4,4 -4,-379 10568,-379 10568,4 -4,4"/>
<text xml:space="preserve" text-anchor="middle" x="5282" y="-359.6" font-family="Helvetica,sans-Serif" font-size="12.00">Active backlog graph generated from docs/method/backlog/*/*.md</text>
<g id="clust1" class="cluster">
<title>cluster_cool_ideas</title>
<path fill="#fafafa" stroke="#cccccc" d="M20,-140.4C20,-140.4 9952,-140.4 9952,-140.4 9958,-140.4 9964,-146.4 9964,-152.4 9964,-152.4 9964,-334.25 9964,-334.25 9964,-340.25 9958,-346.25 9952,-346.25 9952,-346.25 20,-346.25 20,-346.25 14,-346.25 8,-340.25 8,-334.25 8,-334.25 8,-152.4 8,-152.4 8,-146.4 14,-140.4 20,-140.4"/>
<text xml:space="preserve" text-anchor="middle" x="47.5" y="-333.7" font-family="Helvetica,sans-Serif" font-size="9.00" fill="#555555">Cool Ideas (78)</text>
</g>
<g id="clust2" class="cluster">
<title>cluster_external</title>
<path fill="#f8fbff" stroke="#cccccc" d="M9984,-287.3C9984,-287.3 10156,-287.3 10156,-287.3 10162,-287.3 10168,-293.3 10168,-299.3 10168,-299.3 10168,-334.25 10168,-334.25 10168,-340.25 10162,-346.25 10156,-346.25 10156,-346.25 9984,-346.25 9984,-346.25 9978,-346.25 9972,-340.25 9972,-334.25 9972,-334.25 9972,-299.3 9972,-299.3 9972,-293.3 9978,-287.3 9984,-287.3"/>
<text xml:space="preserve" text-anchor="middle" x="10015.25" y="-333.7" font-family="Helvetica,sans-Serif" font-size="9.00" fill="#555555">External blockers</text>
</g>
<g id="clust3" class="cluster">
<title>cluster_unresolved</title>
<path fill="#fff7f7" stroke="#cc3333" stroke-dasharray="5,2" d="M10188,-287.3C10188,-287.3 10420,-287.3 10420,-287.3 10426,-287.3 10432,-293.3 10432,-299.3 10432,-299.3 10432,-334.25 10432,-334.25 10432,-340.25 10426,-346.25 10420,-346.25 10420,-346.25 10188,-346.25 10188,-346.25 10182,-346.25 10176,-340.25 10176,-334.25 10176,-334.25 10176,-299.3 10176,-299.3 10176,-293.3 10182,-287.3 10188,-287.3"/>
<text xml:space="preserve" text-anchor="middle" x="10232.75" y="-333.7" font-family="Helvetica,sans-Serif" font-size="9.00" fill="#555555">Unresolved internal refs</text>
</g>
<g id="clust4" class="cluster">
<title>cluster_legend</title>
<path fill="none" stroke="#dddddd" d="M10452,-8C10452,-8 10544,-8 10544,-8 10550,-8 10556,-14 10556,-20 10556,-20 10556,-333.5 10556,-333.5 10556,-339.5 10550,-345.5 10544,-345.5 10544,-345.5 10452,-345.5 10452,-345.5 10446,-345.5 10440,-339.5 10440,-333.5 10440,-333.5 10440,-20 10440,-20 10440,-14 10446,-8 10452,-8"/>
<text xml:space="preserve" text-anchor="middle" x="10461.5" y="-333.9" font-family="Helvetica,sans-Serif" font-size="8.00" fill="#aaaaaa">Legend</text>
</g>
<!-- cool_ideas_bounded_neighborhood_for_references -->
<g id="node1" class="node">
<title>cool_ideas_bounded_neighborhood_for_references</title>
<path fill="#d4e8f7" stroke="black" d="M173.17,-320.5C173.17,-320.5 24.83,-320.5 24.83,-320.5 20.63,-320.5 16.42,-316.3 16.42,-312.1 16.42,-312.1 16.42,-303.7 16.42,-303.7 16.42,-299.5 20.63,-295.3 24.83,-295.3 24.83,-295.3 173.17,-295.3 173.17,-295.3 177.37,-295.3 181.57,-299.5 181.57,-303.7 181.57,-303.7 181.57,-312.1 181.57,-312.1 181.57,-316.3 177.37,-320.5 173.17,-320.5"/>
<text xml:space="preserve" text-anchor="middle" x="99" y="-304.8" font-family="Helvetica,sans-Serif" font-size="8.00">bounded&#45;neighborhood&#45;for&#45;references &#45; S</text>
</g>
<!-- cool_ideas_CI_001_causal_collapse_visualizer -->
<g id="node2" class="node">
<title>cool_ideas_CI_001_causal_collapse_visualizer</title>
<path fill="#d4e8f7" stroke="black" d="M6742.3,-247.05C6742.3,-247.05 6615.7,-247.05 6615.7,-247.05 6611.5,-247.05 6607.3,-242.85 6607.3,-238.65 6607.3,-238.65 6607.3,-230.25 6607.3,-230.25 6607.3,-226.05 6611.5,-221.85 6615.7,-221.85 6615.7,-221.85 6742.3,-221.85 6742.3,-221.85 6746.5,-221.85 6750.7,-226.05 6750.7,-230.25 6750.7,-230.25 6750.7,-238.65 6750.7,-238.65 6750.7,-242.85 6746.5,-247.05 6742.3,-247.05"/>
<text xml:space="preserve" text-anchor="middle" x="6679" y="-231.35" font-family="Helvetica,sans-Serif" font-size="8.00">CI&#45;001&#45;causal&#45;collapse&#45;visualizer &#45; L</text>
</g>
<!-- cool_ideas_CI_002_deterministic_scenario_replay -->
<g id="node3" class="node">
<title>cool_ideas_CI_002_deterministic_scenario_replay</title>
<path fill="#d4e8f7" stroke="black" d="M343.67,-320.5C343.67,-320.5 204.33,-320.5 204.33,-320.5 200.13,-320.5 195.93,-316.3 195.93,-312.1 195.93,-312.1 195.93,-303.7 195.93,-303.7 195.93,-299.5 200.13,-295.3 204.33,-295.3 204.33,-295.3 343.67,-295.3 343.67,-295.3 347.88,-295.3 352.07,-299.5 352.07,-303.7 352.07,-303.7 352.07,-312.1 352.07,-312.1 352.07,-316.3 347.88,-320.5 343.67,-320.5"/>
<text xml:space="preserve" text-anchor="middle" x="274" y="-304.8" font-family="Helvetica,sans-Serif" font-size="8.00">CI&#45;002&#45;deterministic&#45;scenario&#45;replay &#45; L</text>
</g>
<!-- cool_ideas_CI_003_mcp_native_diff_protocol -->
<g id="node4" class="node">
<title>cool_ideas_CI_003_mcp_native_diff_protocol</title>
<path fill="#d4e8f7" stroke="black" d="M497.8,-320.5C497.8,-320.5 374.2,-320.5 374.2,-320.5 370,-320.5 365.8,-316.3 365.8,-312.1 365.8,-312.1 365.8,-303.7 365.8,-303.7 365.8,-299.5 370,-295.3 374.2,-295.3 374.2,-295.3 497.8,-295.3 497.8,-295.3 502,-295.3 506.2,-299.5 506.2,-303.7 506.2,-303.7 506.2,-312.1 506.2,-312.1 506.2,-316.3 502,-320.5 497.8,-320.5"/>
<text xml:space="preserve" text-anchor="middle" x="436" y="-304.8" font-family="Helvetica,sans-Serif" font-size="8.00">CI&#45;003&#45;mcp&#45;native&#45;diff&#45;protocol &#45; M</text>
</g>
<!-- cool_ideas_CLEAN_CODE_parallel_agent_merge_shared_file_loss -->
<g id="node5" class="node">
<title>cool_ideas_CLEAN_CODE_parallel_agent_merge_shared_file_loss</title>
<path fill="#d4e8f7" stroke="black" d="M729.05,-320.5C729.05,-320.5 528.95,-320.5 528.95,-320.5 524.75,-320.5 520.55,-316.3 520.55,-312.1 520.55,-312.1 520.55,-303.7 520.55,-303.7 520.55,-299.5 524.75,-295.3 528.95,-295.3 528.95,-295.3 729.05,-295.3 729.05,-295.3 733.25,-295.3 737.45,-299.5 737.45,-303.7 737.45,-303.7 737.45,-312.1 737.45,-312.1 737.45,-316.3 733.25,-320.5 729.05,-320.5"/>
<text xml:space="preserve" text-anchor="middle" x="629" y="-304.8" font-family="Helvetica,sans-Serif" font-size="8.00">CLEAN&#45;CODE&#45;parallel&#45;agent&#45;merge&#45;shared&#45;file&#45;loss &#45; M</text>
</g>
<!-- cool_ideas_CORE_agent_handoff_protocol -->
<g id="node6" class="node">
<title>cool_ideas_CORE_agent_handoff_protocol</title>
<path fill="#d4e8f7" stroke="black" d="M879.93,-320.5C879.93,-320.5 760.07,-320.5 760.07,-320.5 755.88,-320.5 751.67,-316.3 751.67,-312.1 751.67,-312.1 751.67,-303.7 751.67,-303.7 751.67,-299.5 755.88,-295.3 760.07,-295.3 760.07,-295.3 879.93,-295.3 879.93,-295.3 884.12,-295.3 888.33,-299.5 888.33,-303.7 888.33,-303.7 888.33,-312.1 888.33,-312.1 888.33,-316.3 884.12,-320.5 879.93,-320.5"/>
<text xml:space="preserve" text-anchor="middle" x="820" y="-304.8" font-family="Helvetica,sans-Serif" font-size="8.00">CORE&#45;agent&#45;handoff&#45;protocol &#45; M</text>
</g>
<!-- cool_ideas_CORE_auto_focus -->
<g id="node7" class="node">
<title>cool_ideas_CORE_auto_focus</title>
<path fill="#d4e8f7" stroke="black" d="M983.68,-320.5C983.68,-320.5 910.32,-320.5 910.32,-320.5 906.12,-320.5 901.92,-316.3 901.92,-312.1 901.92,-312.1 901.92,-303.7 901.92,-303.7 901.92,-299.5 906.12,-295.3 910.32,-295.3 910.32,-295.3 983.68,-295.3 983.68,-295.3 987.88,-295.3 992.08,-299.5 992.08,-303.7 992.08,-303.7 992.08,-312.1 992.08,-312.1 992.08,-316.3 987.88,-320.5 983.68,-320.5"/>
<text xml:space="preserve" text-anchor="middle" x="947" y="-304.8" font-family="Helvetica,sans-Serif" font-size="8.00">CORE&#45;auto&#45;focus &#45; L</text>
</g>
<!-- cool_ideas_CORE_capture_range -->
<g id="node8" class="node">
<title>cool_ideas_CORE_capture_range</title>
<path fill="#d4e8f7" stroke="black" d="M1101.8,-320.5C1101.8,-320.5 1014.2,-320.5 1014.2,-320.5 1010,-320.5 1005.8,-316.3 1005.8,-312.1 1005.8,-312.1 1005.8,-303.7 1005.8,-303.7 1005.8,-299.5 1010,-295.3 1014.2,-295.3 1014.2,-295.3 1101.8,-295.3 1101.8,-295.3 1106,-295.3 1110.2,-299.5 1110.2,-303.7 1110.2,-303.7 1110.2,-312.1 1110.2,-312.1 1110.2,-316.3 1106,-320.5 1101.8,-320.5"/>
<text xml:space="preserve" text-anchor="middle" x="1058" y="-304.8" font-family="Helvetica,sans-Serif" font-size="8.00">CORE&#45;capture&#45;range &#45; S</text>
</g>
<!-- cool_ideas_CORE_constructor_in_disguise_lint -->
<g id="node9" class="node">
<title>cool_ideas_CORE_constructor_in_disguise_lint</title>
<path fill="#d4e8f7" stroke="black" d="M1263.55,-320.5C1263.55,-320.5 1132.45,-320.5 1132.45,-320.5 1128.25,-320.5 1124.05,-316.3 1124.05,-312.1 1124.05,-312.1 1124.05,-303.7 1124.05,-303.7 1124.05,-299.5 1128.25,-295.3 1132.45,-295.3 1132.45,-295.3 1263.55,-295.3 1263.55,-295.3 1267.75,-295.3 1271.95,-299.5 1271.95,-303.7 1271.95,-303.7 1271.95,-312.1 1271.95,-312.1 1271.95,-316.3 1267.75,-320.5 1263.55,-320.5"/>
<text xml:space="preserve" text-anchor="middle" x="1198" y="-304.8" font-family="Helvetica,sans-Serif" font-size="8.00">CORE&#45;constructor&#45;in&#45;disguise&#45;lint &#45; M</text>
</g>
<!-- cool_ideas_CORE_context_budget_forecasting -->
<g id="node10" class="node">
<title>cool_ideas_CORE_context_budget_forecasting</title>
<path fill="#d4e8f7" stroke="black" d="M1427.67,-320.5C1427.67,-320.5 1294.33,-320.5 1294.33,-320.5 1290.12,-320.5 1285.92,-316.3 1285.92,-312.1 1285.92,-312.1 1285.92,-303.7 1285.92,-303.7 1285.92,-299.5 1290.12,-295.3 1294.33,-295.3 1294.33,-295.3 1427.67,-295.3 1427.67,-295.3 1431.88,-295.3 1436.08,-299.5 1436.08,-303.7 1436.08,-303.7 1436.08,-312.1 1436.08,-312.1 1436.08,-316.3 1431.88,-320.5 1427.67,-320.5"/>
<text xml:space="preserve" text-anchor="middle" x="1361" y="-304.8" font-family="Helvetica,sans-Serif" font-size="8.00">CORE&#45;context&#45;budget&#45;forecasting &#45; M</text>
</g>
<!-- cool_ideas_CORE_conversation_primer -->
<g id="node11" class="node">
<title>cool_ideas_CORE_conversation_primer</title>
<path fill="#d4e8f7" stroke="black" d="M1567.67,-320.5C1567.67,-320.5 1458.33,-320.5 1458.33,-320.5 1454.12,-320.5 1449.92,-316.3 1449.92,-312.1 1449.92,-312.1 1449.92,-303.7 1449.92,-303.7 1449.92,-299.5 1454.12,-295.3 1458.33,-295.3 1458.33,-295.3 1567.67,-295.3 1567.67,-295.3 1571.88,-295.3 1576.08,-299.5 1576.08,-303.7 1576.08,-303.7 1576.08,-312.1 1576.08,-312.1 1576.08,-316.3 1571.88,-320.5 1567.67,-320.5"/>
<text xml:space="preserve" text-anchor="middle" x="1513" y="-304.8" font-family="Helvetica,sans-Serif" font-size="8.00">CORE&#45;conversation&#45;primer &#45; M</text>
</g>
<!-- cool_ideas_CORE_cross_session_resume -->
<g id="node12" class="node">
<title>cool_ideas_CORE_cross_session_resume</title>
<path fill="#d4e8f7" stroke="black" d="M1713.3,-320.5C1713.3,-320.5 1598.7,-320.5 1598.7,-320.5 1594.5,-320.5 1590.3,-316.3 1590.3,-312.1 1590.3,-312.1 1590.3,-303.7 1590.3,-303.7 1590.3,-299.5 1594.5,-295.3 1598.7,-295.3 1598.7,-295.3 1713.3,-295.3 1713.3,-295.3 1717.5,-295.3 1721.7,-299.5 1721.7,-303.7 1721.7,-303.7 1721.7,-312.1 1721.7,-312.1 1721.7,-316.3 1717.5,-320.5 1713.3,-320.5"/>
<text xml:space="preserve" text-anchor="middle" x="1656" y="-304.8" font-family="Helvetica,sans-Serif" font-size="8.00">CORE&#45;cross&#45;session&#45;resume &#45; S</text>
</g>
<!-- cool_ideas_CORE_graft_as_teacher -->
<g id="node13" class="node">
<title>cool_ideas_CORE_graft_as_teacher</title>
<path fill="#d4e8f7" stroke="black" d="M1838.17,-320.5C1838.17,-320.5 1743.83,-320.5 1743.83,-320.5 1739.62,-320.5 1735.42,-316.3 1735.42,-312.1 1735.42,-312.1 1735.42,-303.7 1735.42,-303.7 1735.42,-299.5 1739.62,-295.3 1743.83,-295.3 1743.83,-295.3 1838.17,-295.3 1838.17,-295.3 1842.38,-295.3 1846.58,-299.5 1846.58,-303.7 1846.58,-303.7 1846.58,-312.1 1846.58,-312.1 1846.58,-316.3 1842.38,-320.5 1838.17,-320.5"/>
<text xml:space="preserve" text-anchor="middle" x="1791" y="-304.8" font-family="Helvetica,sans-Serif" font-size="8.00">CORE&#45;graft&#45;as&#45;teacher &#45; S</text>
</g>
<!-- cool_ideas_CORE_graft_doctor -->
<g id="node14" class="node">
<title>cool_ideas_CORE_graft_doctor</title>
<path fill="#d4e8f7" stroke="black" d="M1947.3,-320.5C1947.3,-320.5 1868.7,-320.5 1868.7,-320.5 1864.5,-320.5 1860.3,-316.3 1860.3,-312.1 1860.3,-312.1 1860.3,-303.7 1860.3,-303.7 1860.3,-299.5 1864.5,-295.3 1868.7,-295.3 1868.7,-295.3 1947.3,-295.3 1947.3,-295.3 1951.5,-295.3 1955.7,-299.5 1955.7,-303.7 1955.7,-303.7 1955.7,-312.1 1955.7,-312.1 1955.7,-316.3 1951.5,-320.5 1947.3,-320.5"/>
<text xml:space="preserve" text-anchor="middle" x="1908" y="-304.8" font-family="Helvetica,sans-Serif" font-size="8.00">CORE&#45;graft&#45;doctor &#45; S</text>
</g>
<!-- cool_ideas_CORE_graft_teach_learning_receipts -->
<g id="node15" class="node">
<title>cool_ideas_CORE_graft_teach_learning_receipts</title>
<path fill="#d4e8f7" stroke="black" d="M2115.92,-320.5C2115.92,-320.5 1978.08,-320.5 1978.08,-320.5 1973.88,-320.5 1969.67,-316.3 1969.67,-312.1 1969.67,-312.1 1969.67,-303.7 1969.67,-303.7 1969.67,-299.5 1973.88,-295.3 1978.08,-295.3 1978.08,-295.3 2115.92,-295.3 2115.92,-295.3 2120.12,-295.3 2124.32,-299.5 2124.32,-303.7 2124.32,-303.7 2124.32,-312.1 2124.32,-312.1 2124.32,-316.3 2120.12,-320.5 2115.92,-320.5"/>
<text xml:space="preserve" text-anchor="middle" x="2047" y="-304.8" font-family="Helvetica,sans-Serif" font-size="8.00">CORE&#45;graft&#45;teach&#45;learning&#45;receipts &#45; S</text>
</g>
<!-- cool_ideas_CORE_horizon_of_readability -->
<g id="node16" class="node">
<title>cool_ideas_CORE_horizon_of_readability</title>
<path fill="#d4e8f7" stroke="black" d="M2259.55,-320.5C2259.55,-320.5 2146.45,-320.5 2146.45,-320.5 2142.25,-320.5 2138.05,-316.3 2138.05,-312.1 2138.05,-312.1 2138.05,-303.7 2138.05,-303.7 2138.05,-299.5 2142.25,-295.3 2146.45,-295.3 2146.45,-295.3 2259.55,-295.3 2259.55,-295.3 2263.75,-295.3 2267.95,-299.5 2267.95,-303.7 2267.95,-303.7 2267.95,-312.1 2267.95,-312.1 2267.95,-316.3 2263.75,-320.5 2259.55,-320.5"/>
<text xml:space="preserve" text-anchor="middle" x="2203" y="-304.8" font-family="Helvetica,sans-Serif" font-size="8.00">CORE&#45;horizon&#45;of&#45;readability &#45; M</text>
</g>
<!-- cool_ideas_CORE_lagrangian_policy -->
<g id="node17" class="node">
<title>cool_ideas_CORE_lagrangian_policy</title>
<path fill="#d4e8f7" stroke="black" d="M2391.55,-320.5C2391.55,-320.5 2290.45,-320.5 2290.45,-320.5 2286.25,-320.5 2282.05,-316.3 2282.05,-312.1 2282.05,-312.1 2282.05,-303.7 2282.05,-303.7 2282.05,-299.5 2286.25,-295.3 2290.45,-295.3 2290.45,-295.3 2391.55,-295.3 2391.55,-295.3 2395.75,-295.3 2399.95,-299.5 2399.95,-303.7 2399.95,-303.7 2399.95,-312.1 2399.95,-312.1 2399.95,-316.3 2395.75,-320.5 2391.55,-320.5"/>
<text xml:space="preserve" text-anchor="middle" x="2341" y="-304.8" font-family="Helvetica,sans-Serif" font-size="8.00">CORE&#45;lagrangian&#45;policy &#45; XL</text>
</g>
<!-- cool_ideas_CORE_migrate_to_slice_first_reads -->
<g id="node18" class="node">
<title>cool_ideas_CORE_migrate_to_slice_first_reads</title>
<path fill="#d4e8f7" stroke="black" d="M9575.8,-247.05C9575.8,-247.05 9458.2,-247.05 9458.2,-247.05 9454,-247.05 9449.8,-242.85 9449.8,-238.65 9449.8,-238.65 9449.8,-230.25 9449.8,-230.25 9449.8,-226.05 9454,-221.85 9458.2,-221.85 9458.2,-221.85 9575.8,-221.85 9575.8,-221.85 9580,-221.85 9584.2,-226.05 9584.2,-230.25 9584.2,-230.25 9584.2,-238.65 9584.2,-238.65 9584.2,-242.85 9580,-247.05 9575.8,-247.05"/>
<text xml:space="preserve" text-anchor="middle" x="9517" y="-231.35" font-family="Helvetica,sans-Serif" font-size="8.00">CORE&#45;migrate&#45;to&#45;slice&#45;first&#45;reads</text>
</g>
<!-- cool_ideas_CORE_multi_agent_conflict_detection -->
<g id="node19" class="node">
<title>cool_ideas_CORE_multi_agent_conflict_detection</title>
<path fill="#d4e8f7" stroke="black" d="M2559.92,-320.5C2559.92,-320.5 2422.08,-320.5 2422.08,-320.5 2417.88,-320.5 2413.68,-316.3 2413.68,-312.1 2413.68,-312.1 2413.68,-303.7 2413.68,-303.7 2413.68,-299.5 2417.88,-295.3 2422.08,-295.3 2422.08,-295.3 2559.92,-295.3 2559.92,-295.3 2564.12,-295.3 2568.32,-299.5 2568.32,-303.7 2568.32,-303.7 2568.32,-312.1 2568.32,-312.1 2568.32,-316.3 2564.12,-320.5 2559.92,-320.5"/>
<text xml:space="preserve" text-anchor="middle" x="2491" y="-304.8" font-family="Helvetica,sans-Serif" font-size="8.00">CORE&#45;multi&#45;agent&#45;conflict&#45;detection &#45; L</text>
</g>
<!-- cool_ideas_CORE_policy_playground -->
<g id="node20" class="node">
<title>cool_ideas_CORE_policy_playground</title>
<path fill="#d4e8f7" stroke="black" d="M2689.42,-320.5C2689.42,-320.5 2590.58,-320.5 2590.58,-320.5 2586.38,-320.5 2582.18,-316.3 2582.18,-312.1 2582.18,-312.1 2582.18,-303.7 2582.18,-303.7 2582.18,-299.5 2586.38,-295.3 2590.58,-295.3 2590.58,-295.3 2689.42,-295.3 2689.42,-295.3 2693.62,-295.3 2697.82,-299.5 2697.82,-303.7 2697.82,-303.7 2697.82,-312.1 2697.82,-312.1 2697.82,-316.3 2693.62,-320.5 2689.42,-320.5"/>
<text xml:space="preserve" text-anchor="middle" x="2640" y="-304.8" font-family="Helvetica,sans-Serif" font-size="8.00">CORE&#45;policy&#45;playground &#45; S</text>
</g>
<!-- cool_ideas_CORE_policy_profiles -->
<g id="node21" class="node">
<title>cool_ideas_CORE_policy_profiles</title>
<path fill="#d4e8f7" stroke="black" d="M2806.05,-320.5C2806.05,-320.5 2719.95,-320.5 2719.95,-320.5 2715.75,-320.5 2711.55,-316.3 2711.55,-312.1 2711.55,-312.1 2711.55,-303.7 2711.55,-303.7 2711.55,-299.5 2715.75,-295.3 2719.95,-295.3 2719.95,-295.3 2806.05,-295.3 2806.05,-295.3 2810.25,-295.3 2814.45,-299.5 2814.45,-303.7 2814.45,-303.7 2814.45,-312.1 2814.45,-312.1 2814.45,-316.3 2810.25,-320.5 2806.05,-320.5"/>
<text xml:space="preserve" text-anchor="middle" x="2763" y="-304.8" font-family="Helvetica,sans-Serif" font-size="8.00">CORE&#45;policy&#45;profiles &#45; M</text>
</g>
<!-- cool_ideas_CORE_pr_review_structural_summary -->
<g id="node22" class="node">
<title>cool_ideas_CORE_pr_review_structural_summary</title>
<path fill="#d4e8f7" stroke="black" d="M2980.92,-320.5C2980.92,-320.5 2837.08,-320.5 2837.08,-320.5 2832.88,-320.5 2828.68,-316.3 2828.68,-312.1 2828.68,-312.1 2828.68,-303.7 2828.68,-303.7 2828.68,-299.5 2832.88,-295.3 2837.08,-295.3 2837.08,-295.3 2980.92,-295.3 2980.92,-295.3 2985.12,-295.3 2989.32,-299.5 2989.32,-303.7 2989.32,-303.7 2989.32,-312.1 2989.32,-312.1 2989.32,-316.3 2985.12,-320.5 2980.92,-320.5"/>
<text xml:space="preserve" text-anchor="middle" x="2909" y="-304.8" font-family="Helvetica,sans-Serif" font-size="8.00">CORE&#45;pr&#45;review&#45;structural&#45;summary &#45; M</text>
</g>
<!-- cool_ideas_CORE_self_tuning_governor -->
<g id="node23" class="node">
<title>cool_ideas_CORE_self_tuning_governor</title>
<path fill="#d4e8f7" stroke="black" d="M3122.05,-320.5C3122.05,-320.5 3011.95,-320.5 3011.95,-320.5 3007.75,-320.5 3003.55,-316.3 3003.55,-312.1 3003.55,-312.1 3003.55,-303.7 3003.55,-303.7 3003.55,-299.5 3007.75,-295.3 3011.95,-295.3 3011.95,-295.3 3122.05,-295.3 3122.05,-295.3 3126.25,-295.3 3130.45,-299.5 3130.45,-303.7 3130.45,-303.7 3130.45,-312.1 3130.45,-312.1 3130.45,-316.3 3126.25,-320.5 3122.05,-320.5"/>
<text xml:space="preserve" text-anchor="middle" x="3067" y="-304.8" font-family="Helvetica,sans-Serif" font-size="8.00">CORE&#45;self&#45;tuning&#45;governor &#45; M</text>
</g>
<!-- cool_ideas_CORE_session_knowledge_map -->
<g id="node24" class="node">
<title>cool_ideas_CORE_session_knowledge_map</title>
<path fill="#d4e8f7" stroke="black" d="M3275.42,-320.5C3275.42,-320.5 3152.58,-320.5 3152.58,-320.5 3148.38,-320.5 3144.18,-316.3 3144.18,-312.1 3144.18,-312.1 3144.18,-303.7 3144.18,-303.7 3144.18,-299.5 3148.38,-295.3 3152.58,-295.3 3152.58,-295.3 3275.42,-295.3 3275.42,-295.3 3279.62,-295.3 3283.82,-299.5 3283.82,-303.7 3283.82,-303.7 3283.82,-312.1 3283.82,-312.1 3283.82,-316.3 3279.62,-320.5 3275.42,-320.5"/>
<text xml:space="preserve" text-anchor="middle" x="3214" y="-304.8" font-family="Helvetica,sans-Serif" font-size="8.00">CORE&#45;session&#45;knowledge&#45;map &#45; S</text>
</g>
<!-- cool_ideas_CORE_speculative_read_cost -->
<g id="node25" class="node">
<title>cool_ideas_CORE_speculative_read_cost</title>
<path fill="#d4e8f7" stroke="black" d="M3418.17,-320.5C3418.17,-320.5 3305.83,-320.5 3305.83,-320.5 3301.62,-320.5 3297.43,-316.3 3297.43,-312.1 3297.43,-312.1 3297.43,-303.7 3297.43,-303.7 3297.43,-299.5 3301.62,-295.3 3305.83,-295.3 3305.83,-295.3 3418.17,-295.3 3418.17,-295.3 3422.38,-295.3 3426.57,-299.5 3426.57,-303.7 3426.57,-303.7 3426.57,-312.1 3426.57,-312.1 3426.57,-316.3 3422.38,-320.5 3418.17,-320.5"/>
<text xml:space="preserve" text-anchor="middle" x="3362" y="-304.8" font-family="Helvetica,sans-Serif" font-size="8.00">CORE&#45;speculative&#45;read&#45;cost &#45; S</text>
</g>
<!-- cool_ideas_CORE_structural_session_replay -->
<g id="node26" class="node">
<title>cool_ideas_CORE_structural_session_replay</title>
<path fill="#d4e8f7" stroke="black" d="M3574.55,-320.5C3574.55,-320.5 3449.45,-320.5 3449.45,-320.5 3445.25,-320.5 3441.05,-316.3 3441.05,-312.1 3441.05,-312.1 3441.05,-303.7 3441.05,-303.7 3441.05,-299.5 3445.25,-295.3 3449.45,-295.3 3449.45,-295.3 3574.55,-295.3 3574.55,-295.3 3578.75,-295.3 3582.95,-299.5 3582.95,-303.7 3582.95,-303.7 3582.95,-312.1 3582.95,-312.1 3582.95,-316.3 3578.75,-320.5 3574.55,-320.5"/>
<text xml:space="preserve" text-anchor="middle" x="3512" y="-304.8" font-family="Helvetica,sans-Serif" font-size="8.00">CORE&#45;structural&#45;session&#45;replay &#45; M</text>
</g>
<!-- cool_ideas_CORE_structural_test_coverage_map -->
<g id="node27" class="node">
<title>cool_ideas_CORE_structural_test_coverage_map</title>
<path fill="#d4e8f7" stroke="black" d="M3746.8,-320.5C3746.8,-320.5 3605.2,-320.5 3605.2,-320.5 3601,-320.5 3596.8,-316.3 3596.8,-312.1 3596.8,-312.1 3596.8,-303.7 3596.8,-303.7 3596.8,-299.5 3601,-295.3 3605.2,-295.3 3605.2,-295.3 3746.8,-295.3 3746.8,-295.3 3751,-295.3 3755.2,-299.5 3755.2,-303.7 3755.2,-303.7 3755.2,-312.1 3755.2,-312.1 3755.2,-316.3 3751,-320.5 3746.8,-320.5"/>
<text xml:space="preserve" text-anchor="middle" x="3676" y="-304.8" font-family="Helvetica,sans-Serif" font-size="8.00">CORE&#45;structural&#45;test&#45;coverage&#45;map &#45; M</text>
</g>
<!-- cool_ideas_CORE_wire_primitives_into_runtime -->
<g id="node28" class="node">
<title>cool_ideas_CORE_wire_primitives_into_runtime</title>
<path fill="#d4e8f7" stroke="black" d="M3912.42,-320.5C3912.42,-320.5 3777.58,-320.5 3777.58,-320.5 3773.38,-320.5 3769.18,-316.3 3769.18,-312.1 3769.18,-312.1 3769.18,-303.7 3769.18,-303.7 3769.18,-299.5 3773.38,-295.3 3777.58,-295.3 3777.58,-295.3 3912.42,-295.3 3912.42,-295.3 3916.62,-295.3 3920.82,-299.5 3920.82,-303.7 3920.82,-303.7 3920.82,-312.1 3920.82,-312.1 3920.82,-316.3 3916.62,-320.5 3912.42,-320.5"/>
<text xml:space="preserve" text-anchor="middle" x="3845" y="-304.8" font-family="Helvetica,sans-Serif" font-size="8.00">CORE&#45;wire&#45;primitives&#45;into&#45;runtime &#45; M</text>
</g>
<!-- cool_ideas_monitor_tick_ceiling_tracking -->
<g id="node29" class="node">
<title>cool_ideas_monitor_tick_ceiling_tracking</title>
<path fill="#d4e8f7" stroke="black" d="M4050.55,-320.5C4050.55,-320.5 3943.45,-320.5 3943.45,-320.5 3939.25,-320.5 3935.05,-316.3 3935.05,-312.1 3935.05,-312.1 3935.05,-303.7 3935.05,-303.7 3935.05,-299.5 3939.25,-295.3 3943.45,-295.3 3943.45,-295.3 4050.55,-295.3 4050.55,-295.3 4054.75,-295.3 4058.95,-299.5 4058.95,-303.7 4058.95,-303.7 4058.95,-312.1 4058.95,-312.1 4058.95,-316.3 4054.75,-320.5 4050.55,-320.5"/>
<text xml:space="preserve" text-anchor="middle" x="3997" y="-304.8" font-family="Helvetica,sans-Serif" font-size="8.00">monitor&#45;tick&#45;ceiling&#45;tracking &#45; S</text>
</g>
<!-- cool_ideas_WARP_background_indexing -->
<g id="node45" class="node">
<title>cool_ideas_WARP_background_indexing</title>
<path fill="#d4e8f7" stroke="black" d="M4053.55,-247.05C4053.55,-247.05 3940.45,-247.05 3940.45,-247.05 3936.25,-247.05 3932.05,-242.85 3932.05,-238.65 3932.05,-238.65 3932.05,-230.25 3932.05,-230.25 3932.05,-226.05 3936.25,-221.85 3940.45,-221.85 3940.45,-221.85 4053.55,-221.85 4053.55,-221.85 4057.75,-221.85 4061.95,-226.05 4061.95,-230.25 4061.95,-230.25 4061.95,-238.65 4061.95,-238.65 4061.95,-242.85 4057.75,-247.05 4053.55,-247.05"/>
<text xml:space="preserve" text-anchor="middle" x="3997" y="-231.35" font-family="Helvetica,sans-Serif" font-size="8.00">WARP&#45;background&#45;indexing &#45; M</text>
</g>
<!-- cool_ideas_monitor_tick_ceiling_tracking&#45;&gt;cool_ideas_WARP_background_indexing -->
<g id="edge1" class="edge">
<title>cool_ideas_monitor_tick_ceiling_tracking&#45;&gt;cool_ideas_WARP_background_indexing</title>
<path fill="none" stroke="#666666" d="M3997,-295.1C3997,-283.9 3997,-266.88 3997,-253.88"/>
<polygon fill="#666666" stroke="#666666" points="3998.75,-254.02 3997,-249.02 3995.25,-254.02 3998.75,-254.02"/>
<text xml:space="preserve" text-anchor="middle" x="4028.5" y="-268.65" font-family="Helvetica,sans-Serif" font-size="7.00">blocked_by/blocking</text>
</g>
<!-- cool_ideas_SURFACE_active_causal_workspace_status -->
<g id="node30" class="node">
<title>cool_ideas_SURFACE_active_causal_workspace_status</title>
<path fill="#d4e8f7" stroke="black" d="M4245.05,-320.5C4245.05,-320.5 4080.95,-320.5 4080.95,-320.5 4076.75,-320.5 4072.55,-316.3 4072.55,-312.1 4072.55,-312.1 4072.55,-303.7 4072.55,-303.7 4072.55,-299.5 4076.75,-295.3 4080.95,-295.3 4080.95,-295.3 4245.05,-295.3 4245.05,-295.3 4249.25,-295.3 4253.45,-299.5 4253.45,-303.7 4253.45,-303.7 4253.45,-312.1 4253.45,-312.1 4253.45,-316.3 4249.25,-320.5 4245.05,-320.5"/>
<text xml:space="preserve" text-anchor="middle" x="4163" y="-304.8" font-family="Helvetica,sans-Serif" font-size="8.00">SURFACE&#45;active&#45;causal&#45;workspace&#45;status &#45; M</text>
</g>
<!-- cool_ideas_SURFACE_ide_native_graft_integration -->
<g id="node36" class="node">
<title>cool_ideas_SURFACE_ide_native_graft_integration</title>
<path fill="#d4e8f7" stroke="black" d="M4238.3,-247.05C4238.3,-247.05 4087.7,-247.05 4087.7,-247.05 4083.5,-247.05 4079.3,-242.85 4079.3,-238.65 4079.3,-238.65 4079.3,-230.25 4079.3,-230.25 4079.3,-226.05 4083.5,-221.85 4087.7,-221.85 4087.7,-221.85 4238.3,-221.85 4238.3,-221.85 4242.5,-221.85 4246.7,-226.05 4246.7,-230.25 4246.7,-230.25 4246.7,-238.65 4246.7,-238.65 4246.7,-242.85 4242.5,-247.05 4238.3,-247.05"/>
<text xml:space="preserve" text-anchor="middle" x="4163" y="-231.35" font-family="Helvetica,sans-Serif" font-size="8.00">SURFACE&#45;ide&#45;native&#45;graft&#45;integration &#45; XL</text>
</g>
<!-- cool_ideas_SURFACE_active_causal_workspace_status&#45;&gt;cool_ideas_SURFACE_ide_native_graft_integration -->
<g id="edge2" class="edge">
<title>cool_ideas_SURFACE_active_causal_workspace_status&#45;&gt;cool_ideas_SURFACE_ide_native_graft_integration</title>
<path fill="none" stroke="#666666" d="M4163,-295.1C4163,-283.9 4163,-266.88 4163,-253.88"/>
<polygon fill="#666666" stroke="#666666" points="4164.75,-254.02 4163,-249.02 4161.25,-254.02 4164.75,-254.02"/>
<text xml:space="preserve" text-anchor="middle" x="4194.5" y="-268.65" font-family="Helvetica,sans-Serif" font-size="7.00">blocked_by/blocking</text>
</g>
<!-- cool_ideas_SURFACE_attach_to_existing_causal_session -->
<g id="node31" class="node">
<title>cool_ideas_SURFACE_attach_to_existing_causal_session</title>
<path fill="#d4e8f7" stroke="black" d="M4444.3,-320.5C4444.3,-320.5 4275.7,-320.5 4275.7,-320.5 4271.5,-320.5 4267.3,-316.3 4267.3,-312.1 4267.3,-312.1 4267.3,-303.7 4267.3,-303.7 4267.3,-299.5 4271.5,-295.3 4275.7,-295.3 4275.7,-295.3 4444.3,-295.3 4444.3,-295.3 4448.5,-295.3 4452.7,-299.5 4452.7,-303.7 4452.7,-303.7 4452.7,-312.1 4452.7,-312.1 4452.7,-316.3 4448.5,-320.5 4444.3,-320.5"/>
<text xml:space="preserve" text-anchor="middle" x="4360" y="-304.8" font-family="Helvetica,sans-Serif" font-size="8.00">SURFACE&#45;attach&#45;to&#45;existing&#45;causal&#45;session &#45; M</text>
</g>
<!-- cool_ideas_SURFACE_bijou_daemon_control_plane_actions -->
<g id="node32" class="node">
<title>cool_ideas_SURFACE_bijou_daemon_control_plane_actions</title>
<path fill="#d4e8f7" stroke="black" d="M4652.43,-320.5C4652.43,-320.5 4475.57,-320.5 4475.57,-320.5 4471.38,-320.5 4467.18,-316.3 4467.18,-312.1 4467.18,-312.1 4467.18,-303.7 4467.18,-303.7 4467.18,-299.5 4471.38,-295.3 4475.57,-295.3 4475.57,-295.3 4652.43,-295.3 4652.43,-295.3 4656.62,-295.3 4660.82,-299.5 4660.82,-303.7 4660.82,-303.7 4660.82,-312.1 4660.82,-312.1 4660.82,-316.3 4656.62,-320.5 4652.43,-320.5"/>
<text xml:space="preserve" text-anchor="middle" x="4564" y="-304.8" font-family="Helvetica,sans-Serif" font-size="8.00">SURFACE&#45;bijou&#45;daemon&#45;control&#45;plane&#45;actions &#45; L</text>
</g>
<!-- cool_ideas_SURFACE_bijou_daemon_status_live_refresh -->
<g id="node33" class="node">
<title>cool_ideas_SURFACE_bijou_daemon_status_live_refresh</title>
<path fill="#d4e8f7" stroke="black" d="M4852.3,-320.5C4852.3,-320.5 4683.7,-320.5 4683.7,-320.5 4679.5,-320.5 4675.3,-316.3 4675.3,-312.1 4675.3,-312.1 4675.3,-303.7 4675.3,-303.7 4675.3,-299.5 4679.5,-295.3 4683.7,-295.3 4683.7,-295.3 4852.3,-295.3 4852.3,-295.3 4856.5,-295.3 4860.7,-299.5 4860.7,-303.7 4860.7,-303.7 4860.7,-312.1 4860.7,-312.1 4860.7,-316.3 4856.5,-320.5 4852.3,-320.5"/>
<text xml:space="preserve" text-anchor="middle" x="4768" y="-304.8" font-family="Helvetica,sans-Serif" font-size="8.00">SURFACE&#45;bijou&#45;daemon&#45;status&#45;live&#45;refresh &#45; M</text>
</g>
<!-- cool_ideas_SURFACE_git_graft_enhance_expanded_git_subcommands -->
<g id="node34" class="node">
<title>cool_ideas_SURFACE_git_graft_enhance_expanded_git_subcommands</title>
<path fill="#d4e8f7" stroke="black" d="M5087.3,-320.5C5087.3,-320.5 4882.7,-320.5 4882.7,-320.5 4878.5,-320.5 4874.3,-316.3 4874.3,-312.1 4874.3,-312.1 4874.3,-303.7 4874.3,-303.7 4874.3,-299.5 4878.5,-295.3 4882.7,-295.3 4882.7,-295.3 5087.3,-295.3 5087.3,-295.3 5091.5,-295.3 5095.7,-299.5 5095.7,-303.7 5095.7,-303.7 5095.7,-312.1 5095.7,-312.1 5095.7,-316.3 5091.5,-320.5 5087.3,-320.5"/>
<text xml:space="preserve" text-anchor="middle" x="4985" y="-304.8" font-family="Helvetica,sans-Serif" font-size="8.00">SURFACE&#45;git&#45;graft&#45;enhance&#45;expanded&#45;git&#45;subcommands</text>
</g>
<!-- cool_ideas_SURFACE_git_graft_enhance_provenance_hints -->
<g id="node35" class="node">
<title>cool_ideas_SURFACE_git_graft_enhance_provenance_hints</title>
<path fill="#d4e8f7" stroke="black" d="M5283.43,-320.5C5283.43,-320.5 5118.57,-320.5 5118.57,-320.5 5114.38,-320.5 5110.18,-316.3 5110.18,-312.1 5110.18,-312.1 5110.18,-303.7 5110.18,-303.7 5110.18,-299.5 5114.38,-295.3 5118.57,-295.3 5118.57,-295.3 5283.43,-295.3 5283.43,-295.3 5287.62,-295.3 5291.82,-299.5 5291.82,-303.7 5291.82,-303.7 5291.82,-312.1 5291.82,-312.1 5291.82,-316.3 5287.62,-320.5 5283.43,-320.5"/>
<text xml:space="preserve" text-anchor="middle" x="5201" y="-304.8" font-family="Helvetica,sans-Serif" font-size="8.00">SURFACE&#45;git&#45;graft&#45;enhance&#45;provenance&#45;hints</text>
</g>
<!-- cool_ideas_SURFACE_local_history_dag_render_mode_and_count_legend -->
<g id="node37" class="node">
<title>cool_ideas_SURFACE_local_history_dag_render_mode_and_count_legend</title>
<path fill="#d4e8f7" stroke="black" d="M5540.18,-320.5C5540.18,-320.5 5313.82,-320.5 5313.82,-320.5 5309.62,-320.5 5305.43,-316.3 5305.43,-312.1 5305.43,-312.1 5305.43,-303.7 5305.43,-303.7 5305.43,-299.5 5309.62,-295.3 5313.82,-295.3 5313.82,-295.3 5540.18,-295.3 5540.18,-295.3 5544.38,-295.3 5548.57,-299.5 5548.57,-303.7 5548.57,-303.7 5548.57,-312.1 5548.57,-312.1 5548.57,-316.3 5544.38,-320.5 5540.18,-320.5"/>
<text xml:space="preserve" text-anchor="middle" x="5427" y="-304.8" font-family="Helvetica,sans-Serif" font-size="8.00">SURFACE&#45;local&#45;history&#45;dag&#45;render&#45;mode&#45;and&#45;count&#45;legend &#45; S</text>
</g>
<!-- cool_ideas_SURFACE_non_codex_instruction_bootstrap_parity -->
<g id="node38" class="node">
<title>cool_ideas_SURFACE_non_codex_instruction_bootstrap_parity</title>
<path fill="#d4e8f7" stroke="black" d="M5759.43,-320.5C5759.43,-320.5 5570.57,-320.5 5570.57,-320.5 5566.38,-320.5 5562.18,-316.3 5562.18,-312.1 5562.18,-312.1 5562.18,-303.7 5562.18,-303.7 5562.18,-299.5 5566.38,-295.3 5570.57,-295.3 5570.57,-295.3 5759.43,-295.3 5759.43,-295.3 5763.62,-295.3 5767.82,-299.5 5767.82,-303.7 5767.82,-303.7 5767.82,-312.1 5767.82,-312.1 5767.82,-316.3 5763.62,-320.5 5759.43,-320.5"/>
<text xml:space="preserve" text-anchor="middle" x="5665" y="-304.8" font-family="Helvetica,sans-Serif" font-size="8.00">SURFACE&#45;non&#45;codex&#45;instruction&#45;bootstrap&#45;parity &#45; M</text>
</g>
<!-- cool_ideas_SURFACE_offer_rename_refactor -->
<g id="node39" class="node">
<title>cool_ideas_SURFACE_offer_rename_refactor</title>
<path fill="#d4e8f7" stroke="black" d="M5919.43,-320.5C5919.43,-320.5 5790.57,-320.5 5790.57,-320.5 5786.38,-320.5 5782.18,-316.3 5782.18,-312.1 5782.18,-312.1 5782.18,-303.7 5782.18,-303.7 5782.18,-299.5 5786.38,-295.3 5790.57,-295.3 5790.57,-295.3 5919.43,-295.3 5919.43,-295.3 5923.62,-295.3 5927.82,-299.5 5927.82,-303.7 5927.82,-303.7 5927.82,-312.1 5927.82,-312.1 5927.82,-316.3 5923.62,-320.5 5919.43,-320.5"/>
<text xml:space="preserve" text-anchor="middle" x="5855" y="-304.8" font-family="Helvetica,sans-Serif" font-size="8.00">SURFACE&#45;offer&#45;rename&#45;refactor &#45; L</text>
</g>
<!-- cool_ideas_SURFACE_terminal_activity_browser_tui -->
<g id="node40" class="node">
<title>cool_ideas_SURFACE_terminal_activity_browser_tui</title>
<path fill="#d4e8f7" stroke="black" d="M6099.55,-320.5C6099.55,-320.5 5950.45,-320.5 5950.45,-320.5 5946.25,-320.5 5942.05,-316.3 5942.05,-312.1 5942.05,-312.1 5942.05,-303.7 5942.05,-303.7 5942.05,-299.5 5946.25,-295.3 5950.45,-295.3 5950.45,-295.3 6099.55,-295.3 6099.55,-295.3 6103.75,-295.3 6107.95,-299.5 6107.95,-303.7 6107.95,-303.7 6107.95,-312.1 6107.95,-312.1 6107.95,-316.3 6103.75,-320.5 6099.55,-320.5"/>
<text xml:space="preserve" text-anchor="middle" x="6025" y="-304.8" font-family="Helvetica,sans-Serif" font-size="8.00">SURFACE&#45;terminal&#45;activity&#45;browser&#45;tui &#45; L</text>
</g>
<!-- cool_ideas_traverse_plus_query_hydration_helper -->
<g id="node41" class="node">
<title>cool_ideas_traverse_plus_query_hydration_helper</title>
<path fill="#d4e8f7" stroke="black" d="M6271.8,-320.5C6271.8,-320.5 6130.2,-320.5 6130.2,-320.5 6126,-320.5 6121.8,-316.3 6121.8,-312.1 6121.8,-312.1 6121.8,-303.7 6121.8,-303.7 6121.8,-299.5 6126,-295.3 6130.2,-295.3 6130.2,-295.3 6271.8,-295.3 6271.8,-295.3 6276,-295.3 6280.2,-299.5 6280.2,-303.7 6280.2,-303.7 6280.2,-312.1 6280.2,-312.1 6280.2,-316.3 6276,-320.5 6271.8,-320.5"/>
<text xml:space="preserve" text-anchor="middle" x="6201" y="-304.8" font-family="Helvetica,sans-Serif" font-size="8.00">traverse&#45;plus&#45;query&#45;hydration&#45;helper &#45; S</text>
</g>
<!-- cool_ideas_WARP_adaptive_projection_selection -->
<g id="node42" class="node">
<title>cool_ideas_WARP_adaptive_projection_selection</title>
<path fill="#d4e8f7" stroke="black" d="M6440.93,-320.5C6440.93,-320.5 6303.07,-320.5 6303.07,-320.5 6298.88,-320.5 6294.68,-316.3 6294.68,-312.1 6294.68,-312.1 6294.68,-303.7 6294.68,-303.7 6294.68,-299.5 6298.88,-295.3 6303.07,-295.3 6303.07,-295.3 6440.93,-295.3 6440.93,-295.3 6445.12,-295.3 6449.32,-299.5 6449.32,-303.7 6449.32,-303.7 6449.32,-312.1 6449.32,-312.1 6449.32,-316.3 6445.12,-320.5 6440.93,-320.5"/>
<text xml:space="preserve" text-anchor="middle" x="6372" y="-304.8" font-family="Helvetica,sans-Serif" font-size="8.00">WARP&#45;adaptive&#45;projection&#45;selection &#45; L</text>
</g>
<!-- cool_ideas_WARP_agent_action_provenance -->
<g id="node43" class="node">
<title>cool_ideas_WARP_agent_action_provenance</title>
<path fill="#d4e8f7" stroke="black" d="M6602.55,-320.5C6602.55,-320.5 6471.45,-320.5 6471.45,-320.5 6467.25,-320.5 6463.05,-316.3 6463.05,-312.1 6463.05,-312.1 6463.05,-303.7 6463.05,-303.7 6463.05,-299.5 6467.25,-295.3 6471.45,-295.3 6471.45,-295.3 6602.55,-295.3 6602.55,-295.3 6606.75,-295.3 6610.95,-299.5 6610.95,-303.7 6610.95,-303.7 6610.95,-312.1 6610.95,-312.1 6610.95,-316.3 6606.75,-320.5 6602.55,-320.5"/>
<text xml:space="preserve" text-anchor="middle" x="6537" y="-304.8" font-family="Helvetica,sans-Serif" font-size="8.00">WARP&#45;agent&#45;action&#45;provenance &#45; XL</text>
</g>
<!-- cool_ideas_WARP_agent_action_provenance&#45;&gt;cool_ideas_CI_001_causal_collapse_visualizer -->
<g id="edge3" class="edge">
<title>cool_ideas_WARP_agent_action_provenance&#45;&gt;cool_ideas_CI_001_causal_collapse_visualizer</title>
<path fill="none" stroke="#666666" d="M6562.81,-294.81C6575.04,-289.01 6589.83,-281.9 6603,-275.3 6618.99,-267.28 6636.7,-258.02 6651,-250.44"/>
<polygon fill="#666666" stroke="#666666" points="6651.57,-252.12 6655.16,-248.23 6649.92,-249.03 6651.57,-252.12"/>
<text xml:space="preserve" text-anchor="middle" x="6649.14" y="-268.65" font-family="Helvetica,sans-Serif" font-size="7.00">blocked_by/blocking</text>
</g>
<!-- cool_ideas_WARP_causal_write_tracking -->
<g id="node48" class="node">
<title>cool_ideas_WARP_causal_write_tracking</title>
<path fill="#d4e8f7" stroke="black" d="M6295.05,-247.05C6295.05,-247.05 6184.95,-247.05 6184.95,-247.05 6180.75,-247.05 6176.55,-242.85 6176.55,-238.65 6176.55,-238.65 6176.55,-230.25 6176.55,-230.25 6176.55,-226.05 6180.75,-221.85 6184.95,-221.85 6184.95,-221.85 6295.05,-221.85 6295.05,-221.85 6299.25,-221.85 6303.45,-226.05 6303.45,-230.25 6303.45,-230.25 6303.45,-238.65 6303.45,-238.65 6303.45,-242.85 6299.25,-247.05 6295.05,-247.05"/>
<text xml:space="preserve" text-anchor="middle" x="6240" y="-231.35" font-family="Helvetica,sans-Serif" font-size="8.00">WARP&#45;causal&#45;write&#45;tracking &#45; L</text>
</g>
<!-- cool_ideas_WARP_agent_action_provenance&#45;&gt;cool_ideas_WARP_causal_write_tracking -->
<g id="edge4" class="edge">
<title>cool_ideas_WARP_agent_action_provenance&#45;&gt;cool_ideas_WARP_causal_write_tracking</title>
<path fill="none" stroke="#666666" d="M6489.13,-294.83C6478.27,-292.23 6466.76,-289.58 6456,-287.3 6426.83,-281.12 6419.1,-281.8 6390,-275.3 6355.63,-267.62 6317.25,-257.4 6287.92,-249.23"/>
<polygon fill="#666666" stroke="#666666" points="6288.55,-247.58 6283.26,-247.92 6287.61,-250.96 6288.55,-247.58"/>
<text xml:space="preserve" text-anchor="middle" x="6421.5" y="-268.65" font-family="Helvetica,sans-Serif" font-size="7.00">blocked_by/blocking</text>
</g>
<!-- cool_ideas_WARP_intent_and_decision_events -->
<g id="node58" class="node">
<title>cool_ideas_WARP_intent_and_decision_events</title>
<path fill="#d4e8f7" stroke="black" d="M6458.3,-247.05C6458.3,-247.05 6325.7,-247.05 6325.7,-247.05 6321.5,-247.05 6317.3,-242.85 6317.3,-238.65 6317.3,-238.65 6317.3,-230.25 6317.3,-230.25 6317.3,-226.05 6321.5,-221.85 6325.7,-221.85 6325.7,-221.85 6458.3,-221.85 6458.3,-221.85 6462.5,-221.85 6466.7,-226.05 6466.7,-230.25 6466.7,-230.25 6466.7,-238.65 6466.7,-238.65 6466.7,-242.85 6462.5,-247.05 6458.3,-247.05"/>
<text xml:space="preserve" text-anchor="middle" x="6392" y="-231.35" font-family="Helvetica,sans-Serif" font-size="8.00">WARP&#45;intent&#45;and&#45;decision&#45;events &#45; M</text>
</g>
<!-- cool_ideas_WARP_agent_action_provenance&#45;&gt;cool_ideas_WARP_intent_and_decision_events -->
<g id="edge5" class="edge">
<title>cool_ideas_WARP_agent_action_provenance&#45;&gt;cool_ideas_WARP_intent_and_decision_events</title>
<path fill="none" stroke="#666666" d="M6511.55,-294.87C6499.27,-289.02 6484.34,-281.86 6471,-275.3 6454.45,-267.16 6436.05,-257.89 6421.17,-250.34"/>
<polygon fill="#666666" stroke="#666666" points="6422.04,-248.83 6416.79,-248.12 6420.46,-251.95 6422.04,-248.83"/>
<text xml:space="preserve" text-anchor="middle" x="6502.5" y="-268.65" font-family="Helvetica,sans-Serif" font-size="7.00">blocked_by/blocking</text>
</g>
<!-- cool_ideas_WARP_provenance_dag -->
<g id="node64" class="node">
<title>cool_ideas_WARP_provenance_dag</title>
<path fill="#d4e8f7" stroke="black" d="M6584.55,-247.05C6584.55,-247.05 6489.45,-247.05 6489.45,-247.05 6485.25,-247.05 6481.05,-242.85 6481.05,-238.65 6481.05,-238.65 6481.05,-230.25 6481.05,-230.25 6481.05,-226.05 6485.25,-221.85 6489.45,-221.85 6489.45,-221.85 6584.55,-221.85 6584.55,-221.85 6588.75,-221.85 6592.95,-226.05 6592.95,-230.25 6592.95,-230.25 6592.95,-238.65 6592.95,-238.65 6592.95,-242.85 6588.75,-247.05 6584.55,-247.05"/>
<text xml:space="preserve" text-anchor="middle" x="6537" y="-231.35" font-family="Helvetica,sans-Serif" font-size="8.00">WARP&#45;provenance&#45;dag &#45; L</text>
</g>
<!-- cool_ideas_WARP_agent_action_provenance&#45;&gt;cool_ideas_WARP_provenance_dag -->
<g id="edge6" class="edge">
<title>cool_ideas_WARP_agent_action_provenance&#45;&gt;cool_ideas_WARP_provenance_dag</title>
<path fill="none" stroke="#666666" d="M6537,-295.1C6537,-283.9 6537,-266.88 6537,-253.88"/>
<polygon fill="#666666" stroke="#666666" points="6538.75,-254.02 6537,-249.02 6535.25,-254.02 6538.75,-254.02"/>
<text xml:space="preserve" text-anchor="middle" x="6568.5" y="-268.65" font-family="Helvetica,sans-Serif" font-size="7.00">blocked_by/blocking</text>
</g>
<!-- cool_ideas_WARP_auto_breaking_change_detection -->
<g id="node44" class="node">
<title>cool_ideas_WARP_auto_breaking_change_detection</title>
<path fill="#d4e8f7" stroke="black" d="M9757.3,-247.05C9757.3,-247.05 9606.7,-247.05 9606.7,-247.05 9602.5,-247.05 9598.3,-242.85 9598.3,-238.65 9598.3,-238.65 9598.3,-230.25 9598.3,-230.25 9598.3,-226.05 9602.5,-221.85 9606.7,-221.85 9606.7,-221.85 9757.3,-221.85 9757.3,-221.85 9761.5,-221.85 9765.7,-226.05 9765.7,-230.25 9765.7,-230.25 9765.7,-238.65 9765.7,-238.65 9765.7,-242.85 9761.5,-247.05 9757.3,-247.05"/>
<text xml:space="preserve" text-anchor="middle" x="9682" y="-231.35" font-family="Helvetica,sans-Serif" font-size="8.00">WARP&#45;auto&#45;breaking&#45;change&#45;detection &#45; L</text>
</g>
<!-- cool_ideas_WARP_budget_elasticity -->
<g id="node46" class="node">
<title>cool_ideas_WARP_budget_elasticity</title>
<path fill="#d4e8f7" stroke="black" d="M6728.93,-320.5C6728.93,-320.5 6633.07,-320.5 6633.07,-320.5 6628.88,-320.5 6624.68,-316.3 6624.68,-312.1 6624.68,-312.1 6624.68,-303.7 6624.68,-303.7 6624.68,-299.5 6628.88,-295.3 6633.07,-295.3 6633.07,-295.3 6728.93,-295.3 6728.93,-295.3 6733.12,-295.3 6737.32,-299.5 6737.32,-303.7 6737.32,-303.7 6737.32,-312.1 6737.32,-312.1 6737.32,-316.3 6733.12,-320.5 6728.93,-320.5"/>
<text xml:space="preserve" text-anchor="middle" x="6681" y="-304.8" font-family="Helvetica,sans-Serif" font-size="8.00">WARP&#45;budget&#45;elasticity &#45; M</text>
</g>
<!-- cool_ideas_WARP_causal_blame_for_staged_artifacts -->
<g id="node47" class="node">
<title>cool_ideas_WARP_causal_blame_for_staged_artifacts</title>
<path fill="#d4e8f7" stroke="black" d="M6688.18,-173.6C6688.18,-173.6 6533.82,-173.6 6533.82,-173.6 6529.62,-173.6 6525.43,-169.4 6525.43,-165.2 6525.43,-165.2 6525.43,-156.8 6525.43,-156.8 6525.43,-152.6 6529.62,-148.4 6533.82,-148.4 6533.82,-148.4 6688.18,-148.4 6688.18,-148.4 6692.38,-148.4 6696.57,-152.6 6696.57,-156.8 6696.57,-156.8 6696.57,-165.2 6696.57,-165.2 6696.57,-169.4 6692.38,-173.6 6688.18,-173.6"/>
<text xml:space="preserve" text-anchor="middle" x="6611" y="-157.9" font-family="Helvetica,sans-Serif" font-size="8.00">WARP&#45;causal&#45;blame&#45;for&#45;staged&#45;artifacts &#45; L</text>
</g>
<!-- cool_ideas_WARP_codebase_entropy_trajectory -->
<g id="node49" class="node">
<title>cool_ideas_WARP_codebase_entropy_trajectory</title>
<path fill="#d4e8f7" stroke="black" d="M6898.68,-320.5C6898.68,-320.5 6759.32,-320.5 6759.32,-320.5 6755.12,-320.5 6750.93,-316.3 6750.93,-312.1 6750.93,-312.1 6750.93,-303.7 6750.93,-303.7 6750.93,-299.5 6755.12,-295.3 6759.32,-295.3 6759.32,-295.3 6898.68,-295.3 6898.68,-295.3 6902.88,-295.3 6907.07,-299.5 6907.07,-303.7 6907.07,-303.7 6907.07,-312.1 6907.07,-312.1 6907.07,-316.3 6902.88,-320.5 6898.68,-320.5"/>
<text xml:space="preserve" text-anchor="middle" x="6829" y="-304.8" font-family="Helvetica,sans-Serif" font-size="8.00">WARP&#45;codebase&#45;entropy&#45;trajectory &#45; M</text>
</g>
<!-- cool_ideas_WARP_counterfactual_refactoring -->
<g id="node51" class="node">
<title>cool_ideas_WARP_counterfactual_refactoring</title>
<path fill="#d4e8f7" stroke="black" d="M6906.68,-247.05C6906.68,-247.05 6773.32,-247.05 6773.32,-247.05 6769.12,-247.05 6764.93,-242.85 6764.93,-238.65 6764.93,-238.65 6764.93,-230.25 6764.93,-230.25 6764.93,-226.05 6769.12,-221.85 6773.32,-221.85 6773.32,-221.85 6906.68,-221.85 6906.68,-221.85 6910.88,-221.85 6915.07,-226.05 6915.07,-230.25 6915.07,-230.25 6915.07,-238.65 6915.07,-238.65 6915.07,-242.85 6910.88,-247.05 6906.68,-247.05"/>
<text xml:space="preserve" text-anchor="middle" x="6840" y="-231.35" font-family="Helvetica,sans-Serif" font-size="8.00">WARP&#45;counterfactual&#45;refactoring &#45; XL</text>
</g>
<!-- cool_ideas_WARP_codebase_entropy_trajectory&#45;&gt;cool_ideas_WARP_counterfactual_refactoring -->
<g id="edge7" class="edge">
<title>cool_ideas_WARP_codebase_entropy_trajectory&#45;&gt;cool_ideas_WARP_counterfactual_refactoring</title>
<path fill="none" stroke="#666666" d="M6830.82,-295.1C6832.54,-283.9 6835.16,-266.88 6837.16,-253.88"/>
<polygon fill="#666666" stroke="#666666" points="6838.88,-254.21 6837.91,-249 6835.42,-253.68 6838.88,-254.21"/>
<text xml:space="preserve" text-anchor="middle" x="6866.33" y="-268.65" font-family="Helvetica,sans-Serif" font-size="7.00">blocked_by/blocking</text>
</g>
<!-- cool_ideas_WARP_codebase_signature -->
<g id="node50" class="node">
<title>cool_ideas_WARP_codebase_signature</title>
<path fill="#d4e8f7" stroke="black" d="M7036.55,-320.5C7036.55,-320.5 6929.45,-320.5 6929.45,-320.5 6925.25,-320.5 6921.05,-316.3 6921.05,-312.1 6921.05,-312.1 6921.05,-303.7 6921.05,-303.7 6921.05,-299.5 6925.25,-295.3 6929.45,-295.3 6929.45,-295.3 7036.55,-295.3 7036.55,-295.3 7040.75,-295.3 7044.95,-299.5 7044.95,-303.7 7044.95,-303.7 7044.95,-312.1 7044.95,-312.1 7044.95,-316.3 7040.75,-320.5 7036.55,-320.5"/>
<text xml:space="preserve" text-anchor="middle" x="6983" y="-304.8" font-family="Helvetica,sans-Serif" font-size="8.00">WARP&#45;codebase&#45;signature &#45; L</text>
</g>
<!-- cool_ideas_WARP_structural_impact_prediction -->
<g id="node74" class="node">
<title>cool_ideas_WARP_structural_impact_prediction</title>
<path fill="#d4e8f7" stroke="black" d="M6909.3,-173.6C6909.3,-173.6 6770.7,-173.6 6770.7,-173.6 6766.5,-173.6 6762.3,-169.4 6762.3,-165.2 6762.3,-165.2 6762.3,-156.8 6762.3,-156.8 6762.3,-152.6 6766.5,-148.4 6770.7,-148.4 6770.7,-148.4 6909.3,-148.4 6909.3,-148.4 6913.5,-148.4 6917.7,-152.6 6917.7,-156.8 6917.7,-156.8 6917.7,-165.2 6917.7,-165.2 6917.7,-169.4 6913.5,-173.6 6909.3,-173.6"/>
<text xml:space="preserve" text-anchor="middle" x="6840" y="-157.9" font-family="Helvetica,sans-Serif" font-size="8.00">WARP&#45;structural&#45;impact&#45;prediction &#45; XL</text>
</g>
<!-- cool_ideas_WARP_counterfactual_refactoring&#45;&gt;cool_ideas_WARP_structural_impact_prediction -->
<g id="edge8" class="edge">
<title>cool_ideas_WARP_counterfactual_refactoring&#45;&gt;cool_ideas_WARP_structural_impact_prediction</title>
<path fill="none" stroke="#666666" d="M6840,-221.65C6840,-210.45 6840,-193.43 6840,-180.43"/>
<polygon fill="#666666" stroke="#666666" points="6841.75,-180.57 6840,-175.57 6838.25,-180.57 6841.75,-180.57"/>
<text xml:space="preserve" text-anchor="middle" x="6871.5" y="-195.2" font-family="Helvetica,sans-Serif" font-size="7.00">blocked_by/blocking</text>
</g>
<!-- cool_ideas_WARP_dead_symbol_detection -->
<g id="node52" class="node">
<title>cool_ideas_WARP_dead_symbol_detection</title>
<path fill="#d4e8f7" stroke="black" d="M7186.18,-320.5C7186.18,-320.5 7067.82,-320.5 7067.82,-320.5 7063.62,-320.5 7059.43,-316.3 7059.43,-312.1 7059.43,-312.1 7059.43,-303.7 7059.43,-303.7 7059.43,-299.5 7063.62,-295.3 7067.82,-295.3 7067.82,-295.3 7186.18,-295.3 7186.18,-295.3 7190.38,-295.3 7194.57,-299.5 7194.57,-303.7 7194.57,-303.7 7194.57,-312.1 7194.57,-312.1 7194.57,-316.3 7190.38,-320.5 7186.18,-320.5"/>
<text xml:space="preserve" text-anchor="middle" x="7127" y="-304.8" font-family="Helvetica,sans-Serif" font-size="8.00">WARP&#45;dead&#45;symbol&#45;detection &#45; S</text>
</g>
<!-- cool_ideas_WARP_degeneracy_warning -->
<g id="node53" class="node">
<title>cool_ideas_WARP_degeneracy_warning</title>
<path fill="#d4e8f7" stroke="black" d="M7329.18,-320.5C7329.18,-320.5 7216.82,-320.5 7216.82,-320.5 7212.62,-320.5 7208.43,-316.3 7208.43,-312.1 7208.43,-312.1 7208.43,-303.7 7208.43,-303.7 7208.43,-299.5 7212.62,-295.3 7216.82,-295.3 7216.82,-295.3 7329.18,-295.3 7329.18,-295.3 7333.38,-295.3 7337.57,-299.5 7337.57,-303.7 7337.57,-303.7 7337.57,-312.1 7337.57,-312.1 7337.57,-316.3 7333.38,-320.5 7329.18,-320.5"/>
<text xml:space="preserve" text-anchor="middle" x="7273" y="-304.8" font-family="Helvetica,sans-Serif" font-size="8.00">WARP&#45;degeneracy&#45;warning &#45; M</text>
</g>
<!-- cool_ideas_WARP_drift_sentinel -->
<g id="node54" class="node">
<title>cool_ideas_WARP_drift_sentinel</title>
<path fill="#d4e8f7" stroke="black" d="M9263.18,-247.05C9263.18,-247.05 9180.82,-247.05 9180.82,-247.05 9176.62,-247.05 9172.42,-242.85 9172.42,-238.65 9172.42,-238.65 9172.42,-230.25 9172.42,-230.25 9172.42,-226.05 9176.62,-221.85 9180.82,-221.85 9180.82,-221.85 9263.18,-221.85 9263.18,-221.85 9267.38,-221.85 9271.58,-226.05 9271.58,-230.25 9271.58,-230.25 9271.58,-238.65 9271.58,-238.65 9271.58,-242.85 9267.38,-247.05 9263.18,-247.05"/>
<text xml:space="preserve" text-anchor="middle" x="9222" y="-231.35" font-family="Helvetica,sans-Serif" font-size="8.00">WARP&#45;drift&#45;sentinel &#45; M</text>
</g>
<!-- cool_ideas_WARP_footprint_parallelism -->
<g id="node55" class="node">
<title>cool_ideas_WARP_footprint_parallelism</title>
<path fill="#d4e8f7" stroke="black" d="M7471.8,-320.5C7471.8,-320.5 7360.2,-320.5 7360.2,-320.5 7356,-320.5 7351.8,-316.3 7351.8,-312.1 7351.8,-312.1 7351.8,-303.7 7351.8,-303.7 7351.8,-299.5 7356,-295.3 7360.2,-295.3 7360.2,-295.3 7471.8,-295.3 7471.8,-295.3 7476,-295.3 7480.2,-299.5 7480.2,-303.7 7480.2,-303.7 7480.2,-312.1 7480.2,-312.1 7480.2,-316.3 7476,-320.5 7471.8,-320.5"/>
<text xml:space="preserve" text-anchor="middle" x="7416" y="-304.8" font-family="Helvetica,sans-Serif" font-size="8.00">WARP&#45;footprint&#45;parallelism &#45; XL</text>
</g>
<!-- cool_ideas_WARP_graft_pack -->
<g id="node56" class="node">
<title>cool_ideas_WARP_graft_pack</title>
<path fill="#d4e8f7" stroke="black" d="M7577.43,-320.5C7577.43,-320.5 7502.57,-320.5 7502.57,-320.5 7498.38,-320.5 7494.18,-316.3 7494.18,-312.1 7494.18,-312.1 7494.18,-303.7 7494.18,-303.7 7494.18,-299.5 7498.38,-295.3 7502.57,-295.3 7502.57,-295.3 7577.43,-295.3 7577.43,-295.3 7581.62,-295.3 7585.82,-299.5 7585.82,-303.7 7585.82,-303.7 7585.82,-312.1 7585.82,-312.1 7585.82,-316.3 7581.62,-320.5 7577.43,-320.5"/>
<text xml:space="preserve" text-anchor="middle" x="7540" y="-304.8" font-family="Helvetica,sans-Serif" font-size="8.00">WARP&#45;graft&#45;pack &#45; M</text>
</g>
<!-- cool_ideas_WARP_grouped_aggregate_queries -->
<g id="node57" class="node">
<title>cool_ideas_WARP_grouped_aggregate_queries</title>
<path fill="#d4e8f7" stroke="black" d="M7745.93,-320.5C7745.93,-320.5 7608.07,-320.5 7608.07,-320.5 7603.88,-320.5 7599.68,-316.3 7599.68,-312.1 7599.68,-312.1 7599.68,-303.7 7599.68,-303.7 7599.68,-299.5 7603.88,-295.3 7608.07,-295.3 7608.07,-295.3 7745.93,-295.3 7745.93,-295.3 7750.12,-295.3 7754.32,-299.5 7754.32,-303.7 7754.32,-303.7 7754.32,-312.1 7754.32,-312.1 7754.32,-316.3 7750.12,-320.5 7745.93,-320.5"/>
<text xml:space="preserve" text-anchor="middle" x="7677" y="-304.8" font-family="Helvetica,sans-Serif" font-size="8.00">WARP&#45;grouped&#45;aggregate&#45;queries &#45; M</text>
</g>
<!-- cool_ideas_WARP_intentional_degeneracy_privacy -->
<g id="node59" class="node">
<title>cool_ideas_WARP_intentional_degeneracy_privacy</title>
<path fill="#d4e8f7" stroke="black" d="M7924.8,-320.5C7924.8,-320.5 7777.2,-320.5 7777.2,-320.5 7773,-320.5 7768.8,-316.3 7768.8,-312.1 7768.8,-312.1 7768.8,-303.7 7768.8,-303.7 7768.8,-299.5 7773,-295.3 7777.2,-295.3 7777.2,-295.3 7924.8,-295.3 7924.8,-295.3 7929,-295.3 7933.2,-299.5 7933.2,-303.7 7933.2,-303.7 7933.2,-312.1 7933.2,-312.1 7933.2,-316.3 7929,-320.5 7924.8,-320.5"/>
<text xml:space="preserve" text-anchor="middle" x="7851" y="-304.8" font-family="Helvetica,sans-Serif" font-size="8.00">WARP&#45;intentional&#45;degeneracy&#45;privacy &#45; M</text>
</g>
<!-- cool_ideas_WARP_lsp_enrichment -->
<g id="node60" class="node">
<title>cool_ideas_WARP_lsp_enrichment</title>
<path fill="#d4e8f7" stroke="black" d="M8032.55,-320.5C8032.55,-320.5 7955.45,-320.5 7955.45,-320.5 7951.25,-320.5 7947.05,-316.3 7947.05,-312.1 7947.05,-312.1 7947.05,-303.7 7947.05,-303.7 7947.05,-299.5 7951.25,-295.3 7955.45,-295.3 7955.45,-295.3 8032.55,-295.3 8032.55,-295.3 8036.75,-295.3 8040.95,-299.5 8040.95,-303.7 8040.95,-303.7 8040.95,-312.1 8040.95,-312.1 8040.95,-316.3 8036.75,-320.5 8032.55,-320.5"/>
<text xml:space="preserve" text-anchor="middle" x="7994" y="-304.8" font-family="Helvetica,sans-Serif" font-size="8.00">WARP&#45;lsp&#45;enrichment</text>
</g>
<!-- cool_ideas_WARP_minimum_viable_context -->
<g id="node61" class="node">
<title>cool_ideas_WARP_minimum_viable_context</title>
<path fill="#d4e8f7" stroke="black" d="M8186.43,-320.5C8186.43,-320.5 8063.57,-320.5 8063.57,-320.5 8059.38,-320.5 8055.18,-316.3 8055.18,-312.1 8055.18,-312.1 8055.18,-303.7 8055.18,-303.7 8055.18,-299.5 8059.38,-295.3 8063.57,-295.3 8063.57,-295.3 8186.43,-295.3 8186.43,-295.3 8190.63,-295.3 8194.83,-299.5 8194.83,-303.7 8194.83,-303.7 8194.83,-312.1 8194.83,-312.1 8194.83,-316.3 8190.63,-320.5 8186.43,-320.5"/>
<text xml:space="preserve" text-anchor="middle" x="8125" y="-304.8" font-family="Helvetica,sans-Serif" font-size="8.00">WARP&#45;minimum&#45;viable&#45;context &#45; M</text>
</g>
<!-- cool_ideas_WARP_outline_diff_commit_trailer -->
<g id="node62" class="node">
<title>cool_ideas_WARP_outline_diff_commit_trailer</title>
<path fill="#d4e8f7" stroke="black" d="M8342.93,-320.5C8342.93,-320.5 8217.07,-320.5 8217.07,-320.5 8212.88,-320.5 8208.67,-316.3 8208.67,-312.1 8208.67,-312.1 8208.67,-303.7 8208.67,-303.7 8208.67,-299.5 8212.88,-295.3 8217.07,-295.3 8217.07,-295.3 8342.93,-295.3 8342.93,-295.3 8347.12,-295.3 8351.33,-299.5 8351.33,-303.7 8351.33,-303.7 8351.33,-312.1 8351.33,-312.1 8351.33,-316.3 8347.12,-320.5 8342.93,-320.5"/>
<text xml:space="preserve" text-anchor="middle" x="8280" y="-304.8" font-family="Helvetica,sans-Serif" font-size="8.00">WARP&#45;outline&#45;diff&#45;commit&#45;trailer &#45; S</text>
</g>
<!-- cool_ideas_WARP_projection_safety_classes -->
<g id="node63" class="node">
<title>cool_ideas_WARP_projection_safety_classes</title>
<path fill="#d4e8f7" stroke="black" d="M8499.93,-320.5C8499.93,-320.5 8374.07,-320.5 8374.07,-320.5 8369.88,-320.5 8365.67,-316.3 8365.67,-312.1 8365.67,-312.1 8365.67,-303.7 8365.67,-303.7 8365.67,-299.5 8369.88,-295.3 8374.07,-295.3 8374.07,-295.3 8499.93,-295.3 8499.93,-295.3 8504.12,-295.3 8508.33,-299.5 8508.33,-303.7 8508.33,-303.7 8508.33,-312.1 8508.33,-312.1 8508.33,-316.3 8504.12,-320.5 8499.93,-320.5"/>
<text xml:space="preserve" text-anchor="middle" x="8437" y="-304.8" font-family="Helvetica,sans-Serif" font-size="8.00">WARP&#45;projection&#45;safety&#45;classes &#45; M</text>
</g>
<!-- cool_ideas_WARP_provenance_dag&#45;&gt;cool_ideas_WARP_causal_blame_for_staged_artifacts -->
<g id="edge9" class="edge">
<title>cool_ideas_WARP_provenance_dag&#45;&gt;cool_ideas_WARP_causal_blame_for_staged_artifacts</title>
<path fill="none" stroke="#666666" d="M6549.22,-221.65C6561.46,-209.83 6580.41,-191.54 6594.09,-178.32"/>
<polygon fill="#666666" stroke="#666666" points="6595.04,-179.84 6597.43,-175.11 6592.61,-177.32 6595.04,-179.84"/>
<text xml:space="preserve" text-anchor="middle" x="6607.72" y="-195.2" font-family="Helvetica,sans-Serif" font-size="7.00">blocked_by/blocking</text>
</g>
<!-- cool_ideas_WARP_reasoning_trace_replay -->
<g id="node65" class="node">
<title>cool_ideas_WARP_reasoning_trace_replay</title>
<path fill="#d4e8f7" stroke="black" d="M6502.93,-173.6C6502.93,-173.6 6383.07,-173.6 6383.07,-173.6 6378.88,-173.6 6374.68,-169.4 6374.68,-165.2 6374.68,-165.2 6374.68,-156.8 6374.68,-156.8 6374.68,-152.6 6378.88,-148.4 6383.07,-148.4 6383.07,-148.4 6502.93,-148.4 6502.93,-148.4 6507.12,-148.4 6511.32,-152.6 6511.32,-156.8 6511.32,-156.8 6511.32,-165.2 6511.32,-165.2 6511.32,-169.4 6507.12,-173.6 6502.93,-173.6"/>
<text xml:space="preserve" text-anchor="middle" x="6443" y="-157.9" font-family="Helvetica,sans-Serif" font-size="8.00">WARP&#45;reasoning&#45;trace&#45;replay &#45; M</text>
</g>
<!-- cool_ideas_WARP_provenance_dag&#45;&gt;cool_ideas_WARP_reasoning_trace_replay -->
<g id="edge10" class="edge">
<title>cool_ideas_WARP_provenance_dag&#45;&gt;cool_ideas_WARP_reasoning_trace_replay</title>
<path fill="none" stroke="#666666" d="M6521.48,-221.65C6505.79,-209.73 6481.44,-191.22 6464.02,-177.98"/>
<polygon fill="#666666" stroke="#666666" points="6465.1,-176.6 6460.06,-174.97 6462.99,-179.39 6465.1,-176.6"/>
<text xml:space="preserve" text-anchor="middle" x="6524.32" y="-195.2" font-family="Helvetica,sans-Serif" font-size="7.00">blocked_by/blocking</text>
</g>
<!-- cool_ideas_WARP_rulial_heat_map -->
<g id="node66" class="node">
<title>cool_ideas_WARP_rulial_heat_map</title>
<path fill="#d4e8f7" stroke="black" d="M8621.3,-320.5C8621.3,-320.5 8530.7,-320.5 8530.7,-320.5 8526.5,-320.5 8522.3,-316.3 8522.3,-312.1 8522.3,-312.1 8522.3,-303.7 8522.3,-303.7 8522.3,-299.5 8526.5,-295.3 8530.7,-295.3 8530.7,-295.3 8621.3,-295.3 8621.3,-295.3 8625.5,-295.3 8629.7,-299.5 8629.7,-303.7 8629.7,-303.7 8629.7,-312.1 8629.7,-312.1 8629.7,-316.3 8625.5,-320.5 8621.3,-320.5"/>
<text xml:space="preserve" text-anchor="middle" x="8576" y="-304.8" font-family="Helvetica,sans-Serif" font-size="8.00">WARP&#45;rulial&#45;heat&#45;map &#45; L</text>
</g>
<!-- cool_ideas_WARP_semantic_drift_in_sessions -->
<g id="node67" class="node">
<title>cool_ideas_WARP_semantic_drift_in_sessions</title>
<path fill="#d4e8f7" stroke="black" d="M8781.43,-320.5C8781.43,-320.5 8652.57,-320.5 8652.57,-320.5 8648.38,-320.5 8644.17,-316.3 8644.17,-312.1 8644.17,-312.1 8644.17,-303.7 8644.17,-303.7 8644.17,-299.5 8648.38,-295.3 8652.57,-295.3 8652.57,-295.3 8781.43,-295.3 8781.43,-295.3 8785.62,-295.3 8789.83,-299.5 8789.83,-303.7 8789.83,-303.7 8789.83,-312.1 8789.83,-312.1 8789.83,-316.3 8785.62,-320.5 8781.43,-320.5"/>
<text xml:space="preserve" text-anchor="middle" x="8717" y="-304.8" font-family="Helvetica,sans-Serif" font-size="8.00">WARP&#45;semantic&#45;drift&#45;in&#45;sessions &#45; M</text>
</g>
<!-- cool_ideas_WARP_semantic_merge_conflict_prediction -->
<g id="node68" class="node">
<title>cool_ideas_WARP_semantic_merge_conflict_prediction</title>
<path fill="#d4e8f7" stroke="black" d="M9947.43,-247.05C9947.43,-247.05 9788.57,-247.05 9788.57,-247.05 9784.38,-247.05 9780.17,-242.85 9780.17,-238.65 9780.17,-238.65 9780.17,-230.25 9780.17,-230.25 9780.17,-226.05 9784.38,-221.85 9788.57,-221.85 9788.57,-221.85 9947.43,-221.85 9947.43,-221.85 9951.62,-221.85 9955.83,-226.05 9955.83,-230.25 9955.83,-230.25 9955.83,-238.65 9955.83,-238.65 9955.83,-242.85 9951.62,-247.05 9947.43,-247.05"/>
<text xml:space="preserve" text-anchor="middle" x="9868" y="-231.35" font-family="Helvetica,sans-Serif" font-size="8.00">WARP&#45;semantic&#45;merge&#45;conflict&#45;prediction &#45; L</text>
</g>
<!-- cool_ideas_WARP_session_filtration -->
<g id="node69" class="node">
<title>cool_ideas_WARP_session_filtration</title>
<path fill="#d4e8f7" stroke="black" d="M8905.8,-320.5C8905.8,-320.5 8812.2,-320.5 8812.2,-320.5 8808,-320.5 8803.8,-316.3 8803.8,-312.1 8803.8,-312.1 8803.8,-303.7 8803.8,-303.7 8803.8,-299.5 8808,-295.3 8812.2,-295.3 8812.2,-295.3 8905.8,-295.3 8905.8,-295.3 8910,-295.3 8914.2,-299.5 8914.2,-303.7 8914.2,-303.7 8914.2,-312.1 8914.2,-312.1 8914.2,-316.3 8910,-320.5 8905.8,-320.5"/>
<text xml:space="preserve" text-anchor="middle" x="8859" y="-304.8" font-family="Helvetica,sans-Serif" font-size="8.00">WARP&#45;session&#45;filtration &#45; L</text>
</g>
<!-- cool_ideas_WARP_shadow_structural_workspaces -->
<g id="node70" class="node">
<title>cool_ideas_WARP_shadow_structural_workspaces</title>
<path fill="#d4e8f7" stroke="black" d="M9087.3,-320.5C9087.3,-320.5 8936.7,-320.5 8936.7,-320.5 8932.5,-320.5 8928.3,-316.3 8928.3,-312.1 8928.3,-312.1 8928.3,-303.7 8928.3,-303.7 8928.3,-299.5 8932.5,-295.3 8936.7,-295.3 8936.7,-295.3 9087.3,-295.3 9087.3,-295.3 9091.5,-295.3 9095.7,-299.5 9095.7,-303.7 9095.7,-303.7 9095.7,-312.1 9095.7,-312.1 9095.7,-316.3 9091.5,-320.5 9087.3,-320.5"/>
<text xml:space="preserve" text-anchor="middle" x="9012" y="-304.8" font-family="Helvetica,sans-Serif" font-size="8.00">WARP&#45;shadow&#45;structural&#45;workspaces &#45; XL</text>
</g>
<!-- cool_ideas_WARP_speculative_merge -->
<g id="node71" class="node">
<title>cool_ideas_WARP_speculative_merge</title>
<path fill="#d4e8f7" stroke="black" d="M9225.55,-320.5C9225.55,-320.5 9118.45,-320.5 9118.45,-320.5 9114.25,-320.5 9110.05,-316.3 9110.05,-312.1 9110.05,-312.1 9110.05,-303.7 9110.05,-303.7 9110.05,-299.5 9114.25,-295.3 9118.45,-295.3 9118.45,-295.3 9225.55,-295.3 9225.55,-295.3 9229.75,-295.3 9233.95,-299.5 9233.95,-303.7 9233.95,-303.7 9233.95,-312.1 9233.95,-312.1 9233.95,-316.3 9229.75,-320.5 9225.55,-320.5"/>
<text xml:space="preserve" text-anchor="middle" x="9172" y="-304.8" font-family="Helvetica,sans-Serif" font-size="8.00">WARP&#45;speculative&#45;merge &#45; XL</text>
</g>
<!-- cool_ideas_WARP_stale_docs_checker -->
<g id="node72" class="node">
<title>cool_ideas_WARP_stale_docs_checker</title>
<path fill="#d4e8f7" stroke="black" d="M9361.8,-320.5C9361.8,-320.5 9256.2,-320.5 9256.2,-320.5 9252,-320.5 9247.8,-316.3 9247.8,-312.1 9247.8,-312.1 9247.8,-303.7 9247.8,-303.7 9247.8,-299.5 9252,-295.3 9256.2,-295.3 9256.2,-295.3 9361.8,-295.3 9361.8,-295.3 9366,-295.3 9370.2,-299.5 9370.2,-303.7 9370.2,-303.7 9370.2,-312.1 9370.2,-312.1 9370.2,-316.3 9366,-320.5 9361.8,-320.5"/>
<text xml:space="preserve" text-anchor="middle" x="9309" y="-304.8" font-family="Helvetica,sans-Serif" font-size="8.00">WARP&#45;stale&#45;docs&#45;checker &#45; M</text>
</g>
<!-- cool_ideas_WARP_stale_docs_checker&#45;&gt;cool_ideas_WARP_drift_sentinel -->
<g id="edge11" class="edge">
<title>cool_ideas_WARP_stale_docs_checker&#45;&gt;cool_ideas_WARP_drift_sentinel</title>
<path fill="none" stroke="#666666" d="M9294.63,-295.1C9280.11,-283.18 9257.58,-264.67 9241.46,-251.43"/>
<polygon fill="#666666" stroke="#666666" points="9242.82,-250.29 9237.85,-248.47 9240.6,-252.99 9242.82,-250.29"/>
<text xml:space="preserve" text-anchor="middle" x="9299.61" y="-268.65" font-family="Helvetica,sans-Serif" font-size="7.00">blocked_by/blocking</text>
</g>
<!-- cool_ideas_WARP_structural_drift_detection -->
<g id="node73" class="node">
<title>cool_ideas_WARP_structural_drift_detection</title>
<path fill="#d4e8f7" stroke="black" d="M9515.8,-320.5C9515.8,-320.5 9392.2,-320.5 9392.2,-320.5 9388,-320.5 9383.8,-316.3 9383.8,-312.1 9383.8,-312.1 9383.8,-303.7 9383.8,-303.7 9383.8,-299.5 9388,-295.3 9392.2,-295.3 9392.2,-295.3 9515.8,-295.3 9515.8,-295.3 9520,-295.3 9524.2,-299.5 9524.2,-303.7 9524.2,-303.7 9524.2,-312.1 9524.2,-312.1 9524.2,-316.3 9520,-320.5 9515.8,-320.5"/>
<text xml:space="preserve" text-anchor="middle" x="9454" y="-304.8" font-family="Helvetica,sans-Serif" font-size="8.00">WARP&#45;structural&#45;drift&#45;detection &#45; M</text>
</g>
<!-- cool_ideas_WARP_symbol_heatmap -->
<g id="node75" class="node">
<title>cool_ideas_WARP_symbol_heatmap</title>
<path fill="#d4e8f7" stroke="black" d="M9645.05,-320.5C9645.05,-320.5 9546.95,-320.5 9546.95,-320.5 9542.75,-320.5 9538.55,-316.3 9538.55,-312.1 9538.55,-312.1 9538.55,-303.7 9538.55,-303.7 9538.55,-299.5 9542.75,-295.3 9546.95,-295.3 9546.95,-295.3 9645.05,-295.3 9645.05,-295.3 9649.25,-295.3 9653.45,-299.5 9653.45,-303.7 9653.45,-303.7 9653.45,-312.1 9653.45,-312.1 9653.45,-316.3 9649.25,-320.5 9645.05,-320.5"/>
<text xml:space="preserve" text-anchor="middle" x="9596" y="-304.8" font-family="Helvetica,sans-Serif" font-size="8.00">WARP&#45;symbol&#45;heatmap &#45; M</text>
</g>
<!-- cool_ideas_WARP_symbol_history_timeline -->
<g id="node76" class="node">
<title>cool_ideas_WARP_symbol_history_timeline</title>
<path fill="#d4e8f7" stroke="black" d="M9794.18,-320.5C9794.18,-320.5 9675.82,-320.5 9675.82,-320.5 9671.62,-320.5 9667.42,-316.3 9667.42,-312.1 9667.42,-312.1 9667.42,-303.7 9667.42,-303.7 9667.42,-299.5 9671.62,-295.3 9675.82,-295.3 9675.82,-295.3 9794.18,-295.3 9794.18,-295.3 9798.38,-295.3 9802.58,-299.5 9802.58,-303.7 9802.58,-303.7 9802.58,-312.1 9802.58,-312.1 9802.58,-316.3 9798.38,-320.5 9794.18,-320.5"/>
<text xml:space="preserve" text-anchor="middle" x="9735" y="-304.8" font-family="Helvetica,sans-Serif" font-size="8.00">WARP&#45;symbol&#45;history&#45;timeline &#45; S</text>
</g>
<!-- cool_ideas_WARP_temporal_structural_search -->
<g id="node78" class="node">
<title>cool_ideas_WARP_temporal_structural_search</title>
<path fill="#d4e8f7" stroke="black" d="M9427.68,-247.05C9427.68,-247.05 9294.32,-247.05 9294.32,-247.05 9290.12,-247.05 9285.92,-242.85 9285.92,-238.65 9285.92,-238.65 9285.92,-230.25 9285.92,-230.25 9285.92,-226.05 9290.12,-221.85 9294.32,-221.85 9294.32,-221.85 9427.68,-221.85 9427.68,-221.85 9431.88,-221.85 9436.08,-226.05 9436.08,-230.25 9436.08,-230.25 9436.08,-238.65 9436.08,-238.65 9436.08,-242.85 9431.88,-247.05 9427.68,-247.05"/>
<text xml:space="preserve" text-anchor="middle" x="9361" y="-231.35" font-family="Helvetica,sans-Serif" font-size="8.00">WARP&#45;temporal&#45;structural&#45;search &#45; M</text>
</g>
<!-- cool_ideas_WARP_symbol_history_timeline&#45;&gt;cool_ideas_WARP_temporal_structural_search -->
<g id="edge12" class="edge">
<title>cool_ideas_WARP_symbol_history_timeline&#45;&gt;cool_ideas_WARP_temporal_structural_search</title>
<path fill="none" stroke="#666666" d="M9694.82,-294.9C9683.64,-291.97 9671.42,-289.15 9660,-287.3 9579.98,-274.33 9557.5,-291.17 9478,-275.3 9449.41,-269.59 9418.21,-258.72 9395.23,-249.77"/>
<polygon fill="#666666" stroke="#666666" points="9395.97,-248.18 9390.68,-247.98 9394.69,-251.44 9395.97,-248.18"/>
<text xml:space="preserve" text-anchor="middle" x="9509.5" y="-268.65" font-family="Helvetica,sans-Serif" font-size="7.00">blocked_by/blocking</text>
</g>
<!-- cool_ideas_WARP_technical_debt_curvature -->
<g id="node77" class="node">
<title>cool_ideas_WARP_technical_debt_curvature</title>
<path fill="#d4e8f7" stroke="black" d="M9947.43,-320.5C9947.43,-320.5 9824.57,-320.5 9824.57,-320.5 9820.38,-320.5 9816.17,-316.3 9816.17,-312.1 9816.17,-312.1 9816.17,-303.7 9816.17,-303.7 9816.17,-299.5 9820.38,-295.3 9824.57,-295.3 9824.57,-295.3 9947.43,-295.3 9947.43,-295.3 9951.62,-295.3 9955.83,-299.5 9955.83,-303.7 9955.83,-303.7 9955.83,-312.1 9955.83,-312.1 9955.83,-316.3 9951.62,-320.5 9947.43,-320.5"/>
<text xml:space="preserve" text-anchor="middle" x="9886" y="-304.8" font-family="Helvetica,sans-Serif" font-size="8.00">WARP&#45;technical&#45;debt&#45;curvature &#45; L</text>
</g>
<!-- external_git_warp_observer_geometry_ladder__Rung_2_4_ -->
<g id="node79" class="node">
<title>external_git_warp_observer_geometry_ladder__Rung_2_4_</title>
<path fill="#e8f2ff" stroke="black" d="M10151.68,-320.5C10151.68,-320.5 9988.32,-320.5 9988.32,-320.5 9984.12,-320.5 9979.92,-316.3 9979.92,-312.1 9979.92,-312.1 9979.92,-303.7 9979.92,-303.7 9979.92,-299.5 9984.12,-295.3 9988.32,-295.3 9988.32,-295.3 10151.68,-295.3 10151.68,-295.3 10155.88,-295.3 10160.08,-299.5 10160.08,-303.7 10160.08,-303.7 10160.08,-312.1 10160.08,-312.1 10160.08,-316.3 10155.88,-320.5 10151.68,-320.5"/>
<text xml:space="preserve" text-anchor="middle" x="10070" y="-304.8" font-family="Helvetica,sans-Serif" font-size="8.00">git&#45;warp observer geometry ladder (Rung 2&#45;4)</text>
</g>
<!-- external_git_warp_observer_geometry_ladder__Rung_2_4_&#45;&gt;cool_ideas_CORE_migrate_to_slice_first_reads -->
<g id="edge13" class="edge">
<title>external_git_warp_observer_geometry_ladder__Rung_2_4_&#45;&gt;cool_ideas_CORE_migrate_to_slice_first_reads</title>
<path fill="none" stroke="#4477aa" stroke-dasharray="5,2" d="M10013.54,-294.84C9998.47,-291.98 9982.17,-289.21 9967,-287.3 9882.72,-276.67 9860.71,-284.38 9776.25,-275.3 9693.44,-266.4 9673.31,-259.78 9591,-247.05 9590.86,-247.03 9590.73,-247.01 9590.59,-246.99"/>
<polygon fill="#4477aa" stroke="#4477aa" points="9591.06,-245.29 9585.85,-246.25 9590.52,-248.75 9591.06,-245.29"/>
<text xml:space="preserve" text-anchor="middle" x="9808.12" y="-268.65" font-family="Helvetica,sans-Serif" font-size="7.00">blocked_by_external</text>
</g>
<!-- unresolved_CLEAN_CODE_export_diff_semver_signature_as_patch -->
<g id="node80" class="node">
<title>unresolved_CLEAN_CODE_export_diff_semver_signature_as_patch</title>
<path fill="#f2f2f2" stroke="black" stroke-dasharray="5,2" d="M10415.3,-320.5C10415.3,-320.5 10192.7,-320.5 10192.7,-320.5 10188.5,-320.5 10184.3,-316.3 10184.3,-312.1 10184.3,-312.1 10184.3,-303.7 10184.3,-303.7 10184.3,-299.5 10188.5,-295.3 10192.7,-295.3 10192.7,-295.3 10415.3,-295.3 10415.3,-295.3 10419.5,-295.3 10423.7,-299.5 10423.7,-303.7 10423.7,-303.7 10423.7,-312.1 10423.7,-312.1 10423.7,-316.3 10419.5,-320.5 10415.3,-320.5"/>
<text xml:space="preserve" text-anchor="middle" x="10304" y="-304.8" font-family="Helvetica,sans-Serif" font-size="8.00">missing: CLEAN_CODE_export&#45;diff&#45;semver&#45;signature&#45;as&#45;patch</text>
</g>
<!-- unresolved_CLEAN_CODE_export_diff_semver_signature_as_patch&#45;&gt;cool_ideas_WARP_auto_breaking_change_detection -->
<g id="edge14" class="edge">
<title>unresolved_CLEAN_CODE_export_diff_semver_signature_as_patch&#45;&gt;cool_ideas_WARP_auto_breaking_change_detection</title>
<path fill="none" stroke="#cc3333" stroke-dasharray="5,2" d="M10227.44,-294.84C10208.99,-292.14 10189.31,-289.45 10171,-287.3 10110.63,-280.2 10095.25,-281.23 10034.75,-275.3 9918.3,-263.89 9889.21,-260.73 9773,-247.05 9772.7,-247.02 9772.41,-246.98 9772.11,-246.94"/>
<polygon fill="#cc3333" stroke="#cc3333" points="9772.47,-245.23 9767.29,-246.37 9772.05,-248.7 9772.47,-245.23"/>
<text xml:space="preserve" text-anchor="middle" x="10052.38" y="-268.65" font-family="Helvetica,sans-Serif" font-size="7.00">blocked_by</text>
</g>
<!-- unresolved_CLEAN_CODE_export_diff_semver_signature_as_patch&#45;&gt;cool_ideas_WARP_semantic_merge_conflict_prediction -->
<g id="edge15" class="edge">
<title>unresolved_CLEAN_CODE_export_diff_semver_signature_as_patch&#45;&gt;cool_ideas_WARP_semantic_merge_conflict_prediction</title>
<path fill="none" stroke="#cc3333" stroke-dasharray="5,2" d="M10230.53,-294.86C10152.24,-282.03 10028.69,-261.78 9947.99,-248.56"/>
<polygon fill="#cc3333" stroke="#cc3333" points="9948.48,-246.87 9943.26,-247.78 9947.91,-250.32 9948.48,-246.87"/>
<text xml:space="preserve" text-anchor="middle" x="10116.7" y="-268.65" font-family="Helvetica,sans-Serif" font-size="7.00">blocked_by</text>
</g>
<!-- leg_v07 -->
<g id="node81" class="node">
<title>leg_v07</title>
<path fill="#ffa07a" stroke="black" stroke-width="2" d="M10540,-320.5C10540,-320.5 10456,-320.5 10456,-320.5 10451.8,-320.5 10447.6,-316.3 10447.6,-312.1 10447.6,-312.1 10447.6,-303.7 10447.6,-303.7 10447.6,-299.5 10451.8,-295.3 10456,-295.3 10456,-295.3 10540,-295.3 10540,-295.3 10544.2,-295.3 10548.4,-299.5 10548.4,-303.7 10548.4,-303.7 10548.4,-312.1 10548.4,-312.1 10548.4,-316.3 10544.2,-320.5 10540,-320.5"/>
<text xml:space="preserve" text-anchor="middle" x="10498" y="-305.38" font-family="Helvetica,sans-Serif" font-size="7.00">v0.7.0</text>
</g>
<!-- leg_bad -->
<g id="node82" class="node">
<title>leg_bad</title>
<path fill="#f6b3b3" stroke="black" stroke-width="2" d="M10540,-247.05C10540,-247.05 10456,-247.05 10456,-247.05 10451.8,-247.05 10447.6,-242.85 10447.6,-238.65 10447.6,-238.65 10447.6,-230.25 10447.6,-230.25 10447.6,-226.05 10451.8,-221.85 10456,-221.85 10456,-221.85 10540,-221.85 10540,-221.85 10544.2,-221.85 10548.4,-226.05 10548.4,-230.25 10548.4,-230.25 10548.4,-238.65 10548.4,-238.65 10548.4,-242.85 10544.2,-247.05 10540,-247.05"/>
<text xml:space="preserve" text-anchor="middle" x="10498" y="-231.92" font-family="Helvetica,sans-Serif" font-size="7.00">bad&#45;code</text>
</g>
<!-- leg_v07&#45;&gt;leg_bad -->
<!-- leg_idea -->
<g id="node83" class="node">
<title>leg_idea</title>
<path fill="#d4e8f7" stroke="black" d="M10540,-173.6C10540,-173.6 10456,-173.6 10456,-173.6 10451.8,-173.6 10447.6,-169.4 10447.6,-165.2 10447.6,-165.2 10447.6,-156.8 10447.6,-156.8 10447.6,-152.6 10451.8,-148.4 10456,-148.4 10456,-148.4 10540,-148.4 10540,-148.4 10544.2,-148.4 10548.4,-152.6 10548.4,-156.8 10548.4,-156.8 10548.4,-165.2 10548.4,-165.2 10548.4,-169.4 10544.2,-173.6 10540,-173.6"/>
<text xml:space="preserve" text-anchor="middle" x="10498" y="-158.47" font-family="Helvetica,sans-Serif" font-size="7.00">cool&#45;ideas</text>
</g>
<!-- leg_bad&#45;&gt;leg_idea -->
<!-- leg_external -->
<g id="node84" class="node">
<title>leg_external</title>
<path fill="#e8f2ff" stroke="black" d="M10540,-107.4C10540,-107.4 10456,-107.4 10456,-107.4 10451.8,-107.4 10447.6,-103.2 10447.6,-99 10447.6,-99 10447.6,-90.6 10447.6,-90.6 10447.6,-86.4 10451.8,-82.2 10456,-82.2 10456,-82.2 10540,-82.2 10540,-82.2 10544.2,-82.2 10548.4,-86.4 10548.4,-90.6 10548.4,-90.6 10548.4,-99 10548.4,-99 10548.4,-103.2 10544.2,-107.4 10540,-107.4"/>
<text xml:space="preserve" text-anchor="middle" x="10498" y="-92.28" font-family="Helvetica,sans-Serif" font-size="7.00">external blocker</text>
</g>
<!-- leg_idea&#45;&gt;leg_external -->
<!-- leg_unresolved -->
<g id="node85" class="node">
<title>leg_unresolved</title>
<path fill="#f2f2f2" stroke="black" stroke-dasharray="5,2" d="M10540,-41.2C10540,-41.2 10456,-41.2 10456,-41.2 10451.8,-41.2 10447.6,-37 10447.6,-32.8 10447.6,-32.8 10447.6,-24.4 10447.6,-24.4 10447.6,-20.2 10451.8,-16 10456,-16 10456,-16 10540,-16 10540,-16 10544.2,-16 10548.4,-20.2 10548.4,-24.4 10548.4,-24.4 10548.4,-32.8 10548.4,-32.8 10548.4,-37 10544.2,-41.2 10540,-41.2"/>
<text xml:space="preserve" text-anchor="middle" x="10498" y="-26.08" font-family="Helvetica,sans-Serif" font-size="7.00">unresolved ref</text>
</g>
<!-- leg_external&#45;&gt;leg_unresolved -->
</g>
</svg>
