<svg width="460.003" height="189.302" viewBox="0 0 460.003 189.302" xmlns="http://www.w3.org/2000/svg"><g id="svgGroup" stroke-linecap="round" fill-rule="evenodd" font-size="9pt" stroke="#ebb43b" stroke-width="0.25mm" fill="#5d9d88" style="stroke:#ebb43b;stroke-width:0.25mm;fill:#5d9d88"><path d="M 70.002 47.1 L 70.002 36.9 Q 70.002 29.8 73.002 26.45 Q 76.002 23.1 82.302 23.1 Q 89.002 23.1 95.202 26.45 Q 101.402 29.8 105.202 35.3 Q 109.002 40.8 109.002 46.8 Q 109.002 56.4 98.602 56.4 L 93.802 56.4 Q 90.902 56.4 89.602 57.75 Q 88.302 59.1 88.302 62.2 L 88.302 75.1 Q 88.302 86 83.452 94.5 Q 78.602 103 69.602 107.7 Q 60.602 112.4 48.402 112.4 L 40.602 112.4 Q 36.602 112.4 34.302 114.25 Q 32.002 116.1 32.002 119.5 Q 32.002 122.7 34.152 124.55 Q 36.302 126.4 40.002 126.4 Q 41.802 126.4 42.702 126.2 L 80.002 119.8 Q 84.602 119 88.502 119 Q 100.102 119 107.402 124.8 Q 114.702 130.6 114.702 141.8 Q 114.702 154.1 106.252 165.05 Q 97.802 176 83.402 182.65 Q 69.002 189.3 52.302 189.3 Q 41.002 189.3 32.352 186.25 Q 23.702 183.2 18.952 177.55 Q 14.202 171.9 14.202 164.4 Q 14.202 158.2 17.802 153.4 Q 21.402 148.6 29.202 144.3 Q 20.602 142.5 15.802 137.95 Q 11.002 133.4 11.002 126.8 Q 11.002 122.1 13.852 117.55 Q 16.702 113 22.902 107.8 Q 12.402 103.1 6.202 94.45 Q 0.002 85.8 0.002 75.7 Q 0.002 65.9 5.652 58.1 Q 11.302 50.3 21.252 45.85 Q 31.202 41.4 43.702 41.4 Q 50.702 41.4 57.652 42.95 Q 64.602 44.5 70.002 47.1 Z M 75.102 142.1 Q 77.302 141.9 78.302 141.9 Q 84.302 141.9 87.152 144.4 Q 90.002 146.9 90.002 151.2 Q 90.002 156.7 86.052 161.6 Q 82.102 166.5 74.902 169.45 Q 67.702 172.4 58.302 172.4 Q 48.902 172.4 43.502 168.45 Q 38.102 164.5 38.102 157.2 Q 38.102 151.5 42.552 148.2 Q 47.002 144.9 53.702 144.2 L 75.102 142.1 Z M 53.402 95.7 Q 45.602 95.7 38.652 92.2 Q 31.702 88.7 27.552 82.9 Q 23.402 77.1 23.402 70.5 Q 23.402 64.2 27.652 60.5 Q 31.902 56.8 39.002 56.8 Q 46.802 56.8 53.752 60.25 Q 60.702 63.7 64.852 69.5 Q 69.002 75.3 69.002 81.8 Q 69.002 88.2 64.752 91.95 Q 60.502 95.7 53.402 95.7 Z" id="0" vector-effect="non-scaling-stroke"/><path d="M 134.202 140.9 L 138.302 105.9 L 118.602 70.1 Q 114.302 63.3 114.302 56.4 Q 114.302 49.9 118.202 45.65 Q 122.102 41.4 128.902 41.4 Q 135.702 41.4 140.002 45.85 Q 144.302 50.3 145.402 58.8 L 148.402 78.1 Q 151.802 41.4 171.702 41.4 Q 177.302 41.4 181.302 44.1 Q 185.302 46.8 187.302 51.15 Q 189.302 55.5 189.302 60.4 Q 189.302 67.2 186.052 71.4 Q 182.802 75.6 177.402 75.6 Q 174.902 75.6 172.202 74.7 L 166.002 72.4 Q 164.702 71.9 163.602 71.9 Q 159.402 71.9 157.052 77.65 Q 154.702 83.4 154.702 92.9 Q 154.702 102 157.002 112.7 L 164.202 140.5 Q 164.302 141.2 164.402 142 Q 164.402 143.8 163.252 144.85 Q 162.102 145.9 159.902 145.9 L 139.102 145.9 Q 136.402 145.9 135.152 144.6 Q 133.902 143.3 134.202 140.9 Z" id="1" vector-effect="non-scaling-stroke"/><path d="M 226.102 95.8 L 244.102 79.9 Q 248.902 75.4 250.702 72.6 Q 252.502 69.8 252.502 66.9 Q 252.502 63.7 250.552 61.8 Q 248.602 59.9 245.302 59.9 Q 242.302 59.9 239.902 61.05 Q 237.502 62.2 234.202 65.3 L 220.802 77.3 Q 217.902 79.9 215.252 81.05 Q 212.602 82.2 209.602 82.2 Q 204.102 82.2 200.702 78.65 Q 197.302 75.1 197.302 69.3 Q 197.302 61.8 203.602 55.4 Q 209.902 49 220.652 45.2 Q 231.402 41.4 243.902 41.4 Q 275.802 41.4 277.302 69.1 L 280.302 118.3 Q 280.902 125.8 285.402 125.8 Q 289.502 125.8 289.502 119.9 L 289.502 102 Q 289.502 97.1 294.402 97.1 L 301.302 97.1 Q 306.102 97.1 306.102 102 L 306.102 125.1 Q 306.102 135.8 300.752 142 Q 295.402 148.2 285.602 148.2 Q 277.602 148.2 272.402 143.6 Q 267.202 139 264.902 129.1 L 263.702 124 Q 261.102 136.2 254.202 142.75 Q 247.302 149.3 236.702 149.3 Q 229.002 149.3 223.102 146 Q 217.202 142.7 213.902 136.75 Q 210.602 130.8 210.602 122.9 Q 210.602 115.8 213.952 109.95 Q 217.302 104.1 226.102 95.8 Z M 256.202 84 Q 258.302 91.9 258.302 99.2 Q 258.302 107.3 256.302 113.55 Q 254.302 119.8 250.602 123.2 Q 246.902 126.6 242.102 126.6 Q 237.702 126.6 234.952 123.85 Q 232.202 121.1 232.202 116.6 Q 232.202 113.2 233.852 110.05 Q 235.502 106.9 239.702 102.1 L 256.202 84 Z" id="2" vector-effect="non-scaling-stroke"/><path d="M 334.802 169.8 L 322.102 75.9 L 312.002 74.7 Q 308.002 74.3 305.902 72.25 Q 303.802 70.2 303.802 66.9 Q 303.802 64.6 305.002 62.7 Q 306.202 60.8 309.002 58.6 L 313.702 55 Q 315.602 53.5 316.402 52.15 Q 317.202 50.8 317.202 48.9 Q 317.202 47.3 317.002 46.4 L 316.102 38.3 Q 315.502 34.8 315.502 31.5 Q 315.502 22.1 320.002 14.95 Q 324.502 7.8 332.752 3.9 Q 341.002 0 352.002 0 Q 360.002 0 366.052 2.2 Q 372.102 4.4 375.452 8.45 Q 378.802 12.5 378.802 17.8 Q 378.802 28 364.202 28 L 342.002 28 Q 337.202 28 335.102 29.7 Q 333.002 31.4 333.002 35.2 Q 333.002 37.8 333.701 40.9 L 334.902 46.7 Q 335.702 50.2 338.902 50.2 Q 339.702 50.2 340.102 50.1 L 366.402 46.1 Q 366.902 46 367.802 46 Q 369.802 46 370.952 47.15 Q 372.102 48.3 372.102 50.5 L 372.102 68.6 Q 372.102 73.4 367.302 73.4 L 346.002 73.4 Q 341.102 73.4 341.102 78.1 Q 341.102 80 341.802 82.1 L 365.602 162 Q 367.602 167.8 367.602 172.6 Q 367.602 180.1 363.302 184.7 Q 359.002 189.3 351.502 189.3 Q 344.302 189.3 340.202 184.55 Q 336.102 179.8 334.802 169.8 Z" id="3" vector-effect="non-scaling-stroke"/><path d="M 399.502 112.3 L 396.802 75.9 L 386.602 74.9 Q 382.802 74.5 380.602 72.45 Q 378.402 70.4 378.402 66.9 Q 378.402 64.9 379.152 62.9 Q 379.902 60.9 382.002 57.1 L 396.502 31.9 Q 397.602 30 399.202 29 Q 400.802 28 402.502 28 Q 404.502 28 406.102 29.45 Q 407.702 30.9 408.102 33.4 L 410.302 45.7 Q 410.502 47.4 411.552 48.3 Q 412.602 49.2 414.302 49.2 Q 415.102 49.2 415.502 49.1 L 442.102 45.1 Q 442.502 45 443.302 45 Q 445.402 45 446.602 46.15 Q 447.802 47.3 447.802 49.6 L 447.802 68.6 Q 447.802 73.4 442.902 73.4 L 420.602 73.4 Q 417.902 73.4 416.702 74.65 Q 415.502 75.9 415.502 78.4 Q 415.502 79.3 415.902 81.7 L 420.902 107.3 Q 422.702 116.1 425.602 120.2 Q 428.502 124.3 433.402 124.3 Q 437.402 124.3 439.602 121.65 Q 441.802 119 441.802 113.8 L 441.802 102.6 Q 441.802 97.8 446.602 97.8 L 455.202 97.8 Q 460.002 97.8 460.002 102.6 L 460.002 120.3 Q 460.002 134.1 452.852 141.7 Q 445.702 149.3 432.302 149.3 Q 417.902 149.3 409.202 140 Q 400.502 130.7 399.502 112.3 Z" id="4" vector-effect="non-scaling-stroke"/></g></svg>